<svg xmlns="http://www.w3.org/2000/svg" width="1310.93" height="656.33"><defs><pattern id="e2dec0dc-216a-495d-b3a5-182a6c4d028c" data-name="Docs Polka Background" width="60" height="60" patternTransform="matrix(.87 0 0 .65 618.26 1092.03)" patternUnits="userSpaceOnUse"><path fill="none" d="M0 0h60v60H0z"/><circle cx="30" cy="30" r="2.47" fill="#dceaf4"/></pattern><style>.b7620763-52f5-470f-a926-08e8e2427f5c{fill:none}.acc79198-bb08-4417-91f0-92391b5f117b{stroke:#b2bfce;stroke-miterlimit:10}.b7620763-52f5-470f-a926-08e8e2427f5c,.b80d0ef4-ed82-4d5b-a5ae-4bab3472ef24,.bfb07257-aee9-421c-8f9f-51e6fbea3a36{stroke-miterlimit:10}.acc79198-bb08-4417-91f0-92391b5f117b,.b7620763-52f5-470f-a926-08e8e2427f5c{stroke-width:2px}.bfb07257-aee9-421c-8f9f-51e6fbea3a36{fill:#75828e}.b7620763-52f5-470f-a926-08e8e2427f5c,.bfb07257-aee9-421c-8f9f-51e6fbea3a36{stroke:#75828e}.b80d0ef4-ed82-4d5b-a5ae-4bab3472ef24,.bfb07257-aee9-421c-8f9f-51e6fbea3a36{stroke-width:.5px}.acc79198-bb08-4417-91f0-92391b5f117b{fill:#fff}.b80d0ef4-ed82-4d5b-a5ae-4bab3472ef24{stroke:#1998ff;fill:#1998ff}</style></defs><path fill="url(#e2dec0dc-216a-495d-b3a5-182a6c4d028c)" d="M3.54 3.74h1305.22v651.58H3.54z" id="f06bac4e-cace-424d-9858-5c27aa3b91b4" data-name="Layer 2"/><g id="a55937a9-84f7-4158-a2d0-c7590566ac42" data-name="Layer 1"><path stroke-width="2" stroke-miterlimit="10" stroke="#b2bfce" fill="#edf1f4" d="M43.85 98.87h1220.57v58.78H43.85z"/><path class="bfb07257-aee9-421c-8f9f-51e6fbea3a36" d="M409.55 127.41q0 7.08-6.39 7.08-6.12 0-6.12-6.81V117.4h2v10.15q0 5.17 4.36 5.17c2.8 0 4.21-1.66 4.21-5V117.4h2zm3.21 6.37v-2.07a5.63 5.63 0 003.45 1.16c1.69 0 2.53-.56 2.53-1.68a1.51 1.51 0 00-.21-.82 2.21 2.21 0 00-.59-.59 3.94 3.94 0 00-.87-.46l-1.07-.43a12.48 12.48 0 01-1.4-.64 4.16 4.16 0 01-1-.73 2.69 2.69 0 01-.61-.92 3.35 3.35 0 01-.2-1.2 2.87 2.87 0 01.39-1.5 3.45 3.45 0 011-1.09 4.92 4.92 0 011.47-.66 6.45 6.45 0 011.7-.22 6.87 6.87 0 012.79.54v1.94a5.41 5.41 0 00-3-.86 3.7 3.7 0 00-1 .12 2.53 2.53 0 00-.74.34 1.54 1.54 0 00-.48.54 1.3 1.3 0 00-.17.68 1.57 1.57 0 00.17.79 1.65 1.65 0 00.5.56 4.12 4.12 0 00.79.45l1.07.43a13 13 0 011.43.63 4.84 4.84 0 011.08.72 2.94 2.94 0 01.68.93 3 3 0 01.24 1.26 3 3 0 01-.39 1.55 3.28 3.28 0 01-1.05 1.08 4.79 4.79 0 01-1.51.65 7.5 7.5 0 01-1.79.21 6.85 6.85 0 01-3.21-.71zm20.55-5.09h-8.47a4.44 4.44 0 001.08 3.09 3.68 3.68 0 002.83 1.09 5.9 5.9 0 003.73-1.33v1.8a6.94 6.94 0 01-4.18 1.15 5.07 5.07 0 01-4-1.63 6.7 6.7 0 01-1.45-4.6 6.61 6.61 0 011.58-4.57 5.12 5.12 0 013.95-1.76 4.52 4.52 0 013.64 1.52 6.36 6.36 0 011.29 4.23zm-2-1.63a3.91 3.91 0 00-.8-2.59 2.73 2.73 0 00-2.2-.92 3.12 3.12 0 00-2.31 1 4.43 4.43 0 00-1.17 2.54zm11.16-2.91a2.39 2.39 0 00-1.45-.38 2.43 2.43 0 00-2 1.16 5.29 5.29 0 00-.83 3.16v6.12h-1.92v-12h1.92v2.47h.05a4.17 4.17 0 011.25-2 2.82 2.82 0 011.89-.71 3.07 3.07 0 011.14.16zm6.72 4.13h-6.4v-1.51h6.4zm18.57-6.07l-3.59 12h-2l-2.47-8.59a6.73 6.73 0 01-.19-1.11 5.94 5.94 0 01-.25 1.09l-2.68 8.61h-1.92l-3.64-12h2l2.48 9a5.32 5.32 0 01.17 1.08h.09a4.71 4.71 0 01.21-1.1l2.77-9h1.75l2.49 9a5.45 5.45 0 01.17 1.07h.1a4.47 4.47 0 01.2-1.07l2.44-9zm8.49 1.94a2.58 2.58 0 00-3.51.78 5.36 5.36 0 00-.83 3.16v6.12H470v-12h1.92v2.47a4.17 4.17 0 011.25-2 2.84 2.84 0 011.89-.71 3.16 3.16 0 011.15.16zm3.07-4.99a1.21 1.21 0 01-1.24-1.24 1.21 1.21 0 011.24-1.25 1.29 1.29 0 01.9.35 1.22 1.22 0 01.36.9 1.21 1.21 0 01-.36.88 1.25 1.25 0 01-.9.36zm.94 15.05h-1.93v-12h1.93zm9.45-.12a3.69 3.69 0 01-1.79.38q-3.15 0-3.15-3.52v-7.1h-2.06v-1.64h2.06v-2.93l1.92-.62v3.55h3v1.64h-3v6.76a2.8 2.8 0 00.41 1.72 1.62 1.62 0 001.36.52 2 2 0 001.25-.4zm8.14 0a3.73 3.73 0 01-1.8.38q-3.15 0-3.15-3.52v-7.1h-2.06v-1.64h2.06v-2.93l1.92-.62v3.55h3v1.64h-3v6.76a2.8 2.8 0 00.41 1.72 1.63 1.63 0 001.36.52 2 2 0 001.26-.4zm12.02-5.4h-8.47a4.49 4.49 0 001.07 3.09 3.72 3.72 0 002.84 1.09 5.92 5.92 0 003.73-1.33v1.8a7 7 0 01-4.19 1.15 5.06 5.06 0 01-4-1.63 6.7 6.7 0 01-1.46-4.6 6.57 6.57 0 011.59-4.57 5.12 5.12 0 013.95-1.76 4.52 4.52 0 013.64 1.52 6.36 6.36 0 011.29 4.23zm-2-1.63a3.91 3.91 0 00-.8-2.59 2.73 2.73 0 00-2.2-.92 3.09 3.09 0 00-2.31 1 4.43 4.43 0 00-1.17 2.54zm14.87 7.15h-1.93v-6.84q0-3.83-2.78-3.82a3 3 0 00-2.39 1.08 4 4 0 00-.94 2.74v6.84h-1.92v-12h1.92v2a4.34 4.34 0 013.94-2.27 3.66 3.66 0 013 1.27 5.63 5.63 0 011 3.67zm25.31-12l-3.6 12h-2l-2.45-8.59a5.13 5.13 0 01-.19-1.11 5.08 5.08 0 01-.24 1.09l-2.69 8.61h-1.98l-3.63-12h2l2.49 9a5.41 5.41 0 01.16 1.08h.1a4.71 4.71 0 01.21-1.1l2.76-9h1.76l2.48 9a6.22 6.22 0 01.18 1.07h.09a5.76 5.76 0 01.2-1.07l2.44-9zm11.75 6.48h-8.47a4.44 4.44 0 001.08 3.09 3.7 3.7 0 002.83 1.09 5.88 5.88 0 003.73-1.33v1.8a6.92 6.92 0 01-4.18 1.15 5.07 5.07 0 01-4-1.63 6.7 6.7 0 01-1.45-4.6 6.57 6.57 0 011.59-4.57 5.09 5.09 0 013.94-1.76 4.52 4.52 0 013.64 1.52 6.36 6.36 0 011.29 4.23zm-2-1.63a3.86 3.86 0 00-.8-2.59 2.73 2.73 0 00-2.2-.92 3.08 3.08 0 00-2.3 1 4.37 4.37 0 00-1.18 2.54zm6.88 5.41v1.74h-1.92v-17.77h1.92v7.88a4.53 4.53 0 014.15-2.39 4.4 4.4 0 013.61 1.61 6.65 6.65 0 011.31 4.32 7.41 7.41 0 01-1.47 4.82 4.85 4.85 0 01-4 1.81 3.94 3.94 0 01-3.6-2.02zm0-4.84v1.68a3.58 3.58 0 001 2.53 3.46 3.46 0 005.19-.3 6.14 6.14 0 001-3.72 4.84 4.84 0 00-.93-3.14 3 3 0 00-2.5-1.13 3.4 3.4 0 00-2.7 1.16 4.28 4.28 0 00-1.11 2.92zm18.32.65h-6.4v-1.51h6.4zm12 5.93h-1.93v-1.88a4 4 0 01-3.69 2.16 4 4 0 01-2.81-1 3.26 3.26 0 01-1-2.52c0-2.24 1.32-3.55 4-3.91l3.59-.51c0-2-.82-3-2.47-3a5.91 5.91 0 00-3.99 1.45v-2a7.44 7.44 0 014.08-1.12q4.23 0 4.23 4.47zm-1.93-6.07l-2.89.4a4.64 4.64 0 00-2 .66 1.92 1.92 0 00-.68 1.68 1.83 1.83 0 00.63 1.44 2.44 2.44 0 001.67.55 3.08 3.08 0 002.36-1 3.58 3.58 0 00.93-2.54zm7.53 4.33h-.05v7.26h-1.92v-17.52h1.92v2.11h.05a4.51 4.51 0 014.14-2.39 4.42 4.42 0 013.63 1.61 6.7 6.7 0 011.3 4.32 7.41 7.41 0 01-1.47 4.82 4.87 4.87 0 01-4 1.81 4 4 0 01-3.6-2.02zm-.05-4.84v1.68a3.58 3.58 0 001 2.53 3.46 3.46 0 005.19-.3 6.14 6.14 0 001-3.72 4.84 4.84 0 00-.93-3.14 3.05 3.05 0 00-2.51-1.13 3.39 3.39 0 00-2.69 1.16 4.28 4.28 0 00-1.06 2.92zm14.16 4.84h-.05v7.26h-1.92v-17.52h1.92v2.11h.05a4.51 4.51 0 014.14-2.39 4.39 4.39 0 013.62 1.61 6.65 6.65 0 011.31 4.32 7.41 7.41 0 01-1.47 4.82 4.87 4.87 0 01-4 1.81 4 4 0 01-3.6-2.02zm-.05-4.84v1.68a3.58 3.58 0 001 2.53 3.46 3.46 0 005.19-.3 6.14 6.14 0 001-3.72 4.84 4.84 0 00-.93-3.14 3.05 3.05 0 00-2.51-1.13 3.39 3.39 0 00-2.69 1.16 4.28 4.28 0 00-1.06 2.92zm11.46 6.15v-2.07a5.66 5.66 0 003.46 1.16c1.68 0 2.53-.56 2.53-1.68a1.44 1.44 0 00-.22-.82 2.07 2.07 0 00-.59-.59 4.09 4.09 0 00-.86-.46l-1.07-.43a11.71 11.71 0 01-1.4-.64 4 4 0 01-1-.73 2.55 2.55 0 01-.61-.92 3.14 3.14 0 01-.21-1.2 2.87 2.87 0 01.39-1.5 3.56 3.56 0 011-1.09 4.92 4.92 0 011.47-.66 6.47 6.47 0 011.71-.22 6.87 6.87 0 012.79.54v1.94a5.44 5.44 0 00-3-.86 3.63 3.63 0 00-1 .12 2.59 2.59 0 00-.75.34 1.54 1.54 0 00-.48.54 1.4 1.4 0 00-.17.68 1.68 1.68 0 00.17.79 1.65 1.65 0 00.5.56 4.22 4.22 0 00.8.45l1.06.43a13 13 0 011.43.63 4.84 4.84 0 011.08.72 2.82 2.82 0 01.69.93 3 3 0 01.24 1.26 2.91 2.91 0 01-.4 1.55 3.28 3.28 0 01-1 1.08 4.7 4.7 0 01-1.51.65 7.44 7.44 0 01-1.79.21 6.91 6.91 0 01-3.26-.71zM648 117.55a15.83 15.83 0 00-3 9.82 16.19 16.19 0 003 9.74h-1.65a15.51 15.51 0 01-3.15-9.74 15.91 15.91 0 013.15-9.82zm2 14.12a7.45 7.45 0 003.74 1.05c2.14 0 3.39-1.13 3.39-2.76s-.86-2.38-3-3.22c-2.64-.93-4.27-2.3-4.27-4.58 0-2.52 2.09-4.39 5.23-4.39a7.34 7.34 0 013.58.79l-.58 1.7a6.57 6.57 0 00-3.07-.76c-2.21 0-3.05 1.32-3.05 2.42 0 1.51 1 2.26 3.22 3.12 2.73 1.06 4.13 2.38 4.13 4.75s-1.85 4.66-5.67 4.66a8.45 8.45 0 01-4.13-1zm12.13-13.45a25.19 25.19 0 014-.31 6.63 6.63 0 014.54 1.35 4.35 4.35 0 011.41 3.38 4.76 4.76 0 01-1.25 3.46 6.71 6.71 0 01-4.94 1.77 7.17 7.17 0 01-1.68-.14v6.48h-2.09zm2.09 7.8a7 7 0 001.73.17c2.52 0 4-1.22 4-3.45s-1.51-3.17-3.81-3.17a8.47 8.47 0 00-2 .17zm11.28 3.1l-1.68 5.09h-2.16l5.5-16.18h2.52l5.52 16.18H683l-1.72-5.09zm5.3-1.63l-1.58-4.66c-.36-1-.6-2-.84-3-.24 1-.5 1.94-.82 2.93l-1.58 4.68zm5.2 9.62a16.24 16.24 0 003-9.81 15.92 15.92 0 00-3-9.75h1.63a15.27 15.27 0 013.15 9.77 15.56 15.56 0 01-3.15 9.79zm23.7-8.81c0 4.3-3 6.17-5.78 6.17-3.15 0-5.57-2.3-5.57-6 0-3.89 2.54-6.17 5.76-6.17s5.59 2.45 5.59 6zm-9.22.13c0 2.54 1.47 4.46 3.53 4.46s3.53-1.9 3.53-4.51c0-2-1-4.47-3.48-4.47s-3.58 2.31-3.58 4.52zm11.88-2.21c0-1.37 0-2.55-.09-3.63h1.84l.08 2.28h.09a3.48 3.48 0 013.22-2.54 2.2 2.2 0 01.6.07v2a3.08 3.08 0 00-.72-.07 3 3 0 00-2.83 2.71 5.81 5.81 0 00-.1 1v6.19h-2.09zm22.97-9.05v14c0 1 0 2.21.1 3h-1.9l-.1-2a4.3 4.3 0 01-4 2.28c-2.81 0-5-2.37-5-5.9 0-3.87 2.37-6.24 5.21-6.24a3.9 3.9 0 013.5 1.77h.05v-6.93zm-2.11 10.15a3.42 3.42 0 00-.1-.89 3.11 3.11 0 00-3-2.45c-2.18 0-3.48 1.92-3.48 4.49 0 2.35 1.16 4.3 3.44 4.3a3.17 3.17 0 003.09-2.52 3.34 3.34 0 00.1-.91zm16.13.98c0 4.3-3 6.17-5.79 6.17-3.14 0-5.57-2.3-5.57-6 0-3.89 2.55-6.17 5.76-6.17s5.6 2.45 5.6 6zm-9.22.13c0 2.54 1.46 4.46 3.53 4.46s3.53-1.9 3.53-4.51c0-2-1-4.47-3.48-4.47s-3.58 2.31-3.58 4.52zm20.16 5.35a7.77 7.77 0 01-3.34.67c-3.5 0-5.78-2.38-5.78-5.93a5.9 5.9 0 016.24-6.17 7 7 0 012.93.6l-.48 1.63a5 5 0 00-2.45-.55c-2.66 0-4.1 2-4.1 4.4 0 2.68 1.72 4.34 4 4.34a5.9 5.9 0 002.59-.58zm4.56-5.86c.29-.41.69-.91 1-1.32l3.41-4h2.54l-4.49 4.78 5.12 6.84h-2.57l-4-5.57-1.08 1.2v4.37h-2.09v-17h2.09zm10.34.86a3.73 3.73 0 004 4 7.7 7.7 0 003.21-.6l.36 1.51a9.3 9.3 0 01-3.86.72c-3.58 0-5.71-2.35-5.71-5.86s2.06-6.26 5.45-6.26c3.79 0 4.8 3.33 4.8 5.47a6.57 6.57 0 01-.08 1zm6.2-1.51c0-1.34-.56-3.43-2.93-3.43-2.14 0-3.07 2-3.24 3.43zm4.61-1.05c0-1.37 0-2.55-.09-3.63h1.84l.08 2.28h.17a3.48 3.48 0 013.22-2.54 2.2 2.2 0 01.6.07v2a3.08 3.08 0 00-.72-.07 3 3 0 00-2.83 2.71 5.81 5.81 0 00-.1 1v6.19H786zm15.33-6.89a1.31 1.31 0 01-2.62 0A1.29 1.29 0 01800 118a1.25 1.25 0 011.33 1.33zM799 134.21v-11.62h2.11v11.62zm5.59-8.47c0-1.2 0-2.19-.09-3.15h1.85l.09 1.87h.07a4 4 0 013.65-2.13 3.43 3.43 0 013.29 2.33 4.68 4.68 0 011.3-1.52 4 4 0 012.56-.81c1.54 0 3.82 1 3.82 5v6.84h-2.06v-6.58c0-2.23-.82-3.57-2.53-3.57a2.72 2.72 0 00-2.44 1.98 3.3 3.3 0 00-.17 1v7.18h-2.06v-7c0-1.85-.82-3.19-2.43-3.19a3.15 3.15 0 00-2.78 3.14v7h-2.07zm26.41 8.47l-.17-1.46h-.07a4.32 4.32 0 01-3.55 1.72 3.3 3.3 0 01-3.55-3.33c0-2.81 2.49-4.35 7-4.32v-.24a2.39 2.39 0 00-2.64-2.69 5.74 5.74 0 00-3 .86l-.48-1.39a7.23 7.23 0 013.81-1c3.56 0 4.42 2.42 4.42 4.75v4.35a16.79 16.79 0 00.19 2.78zm-.31-5.93c-2.3-.05-4.92.36-4.92 2.62a1.87 1.87 0 002 2 2.9 2.9 0 002.81-1.94 2.31 2.31 0 00.12-.67zm15.5-5.69c-.05.84-.1 1.78-.1 3.19v6.75c0 2.66-.53 4.3-1.66 5.3a6.11 6.11 0 01-4.22 1.4 7.51 7.51 0 01-3.86-1l.52-1.61a6.56 6.56 0 003.41.91c2.16 0 3.75-1.13 3.75-4.06v-1.29a4.15 4.15 0 01-3.7 1.94c-2.88 0-4.94-2.45-4.94-5.66 0-3.94 2.57-6.17 5.23-6.17a3.84 3.84 0 013.62 2l.1-1.75zm-2.19 4.59a2.87 2.87 0 00-.12-1 3 3 0 00-3-2.24c-2 0-3.46 1.71-3.46 4.4 0 2.28 1.16 4.17 3.44 4.17a3.09 3.09 0 002.93-2.16 3.63 3.63 0 00.16-1.13zm6.77 1.6a3.73 3.73 0 004 4 7.7 7.7 0 003.21-.6l.36 1.51a9.33 9.33 0 01-3.86.72c-3.58 0-5.72-2.35-5.72-5.86s2.07-6.26 5.45-6.26c3.8 0 4.8 3.33 4.8 5.47a6.87 6.87 0 01-.07 1zm6.19-1.51c0-1.34-.55-3.43-2.93-3.43-2.13 0-3.07 2-3.24 3.43zm4.37 4.78a5.51 5.51 0 002.78.84c1.54 0 2.26-.77 2.26-1.73s-.6-1.56-2.16-2.14c-2.09-.74-3.07-1.89-3.07-3.28 0-1.88 1.51-3.41 4-3.41a5.73 5.73 0 012.85.72l-.53 1.53a4.55 4.55 0 00-2.37-.67c-1.25 0-2 .72-2 1.59s.7 1.39 2.21 2c2 .76 3 1.77 3 3.5 0 2-1.58 3.48-4.34 3.48a6.64 6.64 0 01-3.27-.79z"/><path class="acc79198-bb08-4417-91f0-92391b5f117b" d="M44.08 243.86h233.39v58.78H44.08z"/><path class="b7620763-52f5-470f-a926-08e8e2427f5c" d="M174.57 173.54l-6.89-6.75-5.53-5.41a2.31 2.31 0 00-2.74 0l-5.53 5.41-6.9 6.75m14.04 71.94v-83.76"/><path class="acc79198-bb08-4417-91f0-92391b5f117b" d="M290.69 243.86h233.39v58.78H290.69z"/><path class="b7620763-52f5-470f-a926-08e8e2427f5c" d="M421.18 173.54l-6.9-6.75-5.53-5.41a2.31 2.31 0 00-2.74 0l-5.52 5.41-6.9 6.75m14.03 71.94v-83.76M174.57 451.23l-6.89 6.77-5.53 5.41a2.31 2.31 0 01-2.74 0l-5.53-5.41-6.9-6.74m14.04-146.98v158.76m260.16-11.81l-6.9 6.74-5.53 5.41a2.31 2.31 0 01-2.74 0l-5.52-5.38-6.9-6.74m14.03-146.98v158.76"/><path class="acc79198-bb08-4417-91f0-92391b5f117b" d="M537.3 243.86h728.41v58.78H537.3z"/><path class="b7620763-52f5-470f-a926-08e8e2427f5c" d="M667.78 173.54l-6.89-6.75-5.53-5.41a2.31 2.31 0 00-2.74 0l-5.53 5.41-6.89 6.75m14.03 71.94v-83.76m260.16 11.82l-6.9-6.75-5.49-5.41a2.31 2.31 0 00-2.74 0l-5.52 5.41-6.9 6.75m13.99 71.94v-83.76"/><path d="M44.08 466.46h233.39v58.78H44.08zm246.61 0h233.39v58.78H290.69zm246.61 0h233.39v58.78H537.3zm246.6 0h233.39v58.78H783.9zm246.61 0h233.39v58.78h-233.39z" stroke="#1998ff" fill="#c0e4ff" stroke-width="2" stroke-miterlimit="10"/><path d="M537.3 391.08h233.39v58.78H537.3zm246.6 0h233.39v58.78H783.9zm246.61 0h233.39v58.78h-233.39z" fill="#f0f9ff" stroke="#1998ff" stroke-width="2" stroke-miterlimit="10"/><path class="b7620763-52f5-470f-a926-08e8e2427f5c" d="M1161 173.54l-6.89-6.75-5.53-5.41a2.31 2.31 0 00-2.74 0l-5.53 5.41-6.89 6.75m14.02 71.94v-83.76M667.78 375.39l-6.89 6.75-5.53 5.41a2.34 2.34 0 01-2.74 0l-5.53-5.41-6.89-6.75m14.03-71.94v83.75m260.16-11.81l-6.9 6.75-5.49 5.41a2.34 2.34 0 01-2.74 0l-5.52-5.41-6.9-6.75m13.99-71.94v83.75M1161 375.39l-6.89 6.75-5.53 5.41a2.34 2.34 0 01-2.74 0l-5.53-5.41-6.89-6.75m14.02-71.94v83.75"/><path class="b80d0ef4-ed82-4d5b-a5ae-4bab3472ef24" d="M87.54 484.83l-4.74 16.8h-2.31L77 489.35a7.46 7.46 0 01-.27-1.71 8.68 8.68 0 01-.31 1.69l-3.48 12.3h-2.29l-4.93-16.8h2.17l3.58 12.89a9.17 9.17 0 01.28 1.69h.06a9.24 9.24 0 01.36-1.69l3.71-12.89h1.89l3.56 13a8.88 8.88 0 01.28 1.57 9.35 9.35 0 01.32-1.61l3.43-12.94zm11.31 11.28h-8.47a4.49 4.49 0 001.08 3.1 3.74 3.74 0 002.83 1.09A5.89 5.89 0 0098 499v1.81a7 7 0 01-4.18 1.14 5.07 5.07 0 01-4-1.63 6.68 6.68 0 01-1.45-4.6 6.53 6.53 0 011.63-4.6 5.06 5.06 0 013.94-1.77 4.49 4.49 0 013.64 1.53 6.33 6.33 0 011.29 4.23zm-2-1.63a3.88 3.88 0 00-.8-2.59 2.76 2.76 0 00-2.2-.92 3.08 3.08 0 00-2.3 1 4.4 4.4 0 00-1.18 2.54zm6.88 5.42v1.73h-1.92v-17.76h1.92v7.87a4.55 4.55 0 014.15-2.39 4.4 4.4 0 013.61 1.61 6.69 6.69 0 011.31 4.32 7.4 7.4 0 01-1.47 4.82 4.85 4.85 0 01-4 1.81 4 4 0 01-3.6-2.01zm0-4.84v1.67a3.54 3.54 0 001 2.53 3.44 3.44 0 005.19-.3 6.13 6.13 0 001-3.71 4.8 4.8 0 00-.93-3.14 3 3 0 00-2.5-1.14 3.43 3.43 0 00-2.7 1.16 4.3 4.3 0 00-1.11 2.93zm21.57-5.43l-4.78 12h-1.89l-4.54-12h2.11l3 8.72a8 8 0 01.43 1.68 8.13 8.13 0 01.38-1.63l3.18-8.77zm3.05-3.04a1.21 1.21 0 01-.88-.36 1.18 1.18 0 01-.36-.89 1.23 1.23 0 011.24-1.25 1.25 1.25 0 01.9.36 1.27 1.27 0 010 1.77 1.22 1.22 0 01-.9.37zm.94 15h-1.93v-12h1.93zm13.53-5.48h-8.47a4.49 4.49 0 001.08 3.1 3.72 3.72 0 002.83 1.09A5.91 5.91 0 00142 499v1.81a7 7 0 01-4.18 1.14 5.07 5.07 0 01-4-1.63 6.68 6.68 0 01-1.45-4.6 6.57 6.57 0 011.58-4.56 5.1 5.1 0 013.95-1.77 4.49 4.49 0 013.64 1.53 6.33 6.33 0 011.29 4.23zm-2-1.63a3.93 3.93 0 00-.8-2.59 2.76 2.76 0 00-2.2-.92 3.12 3.12 0 00-2.31 1 4.46 4.46 0 00-1.17 2.54zm20.02-4.85l-3.59 12h-2l-2.47-8.63a6.55 6.55 0 01-.19-1.11 5.94 5.94 0 01-.25 1.09l-2.68 8.61h-1.96l-3.64-12h2l2.48 9a5.1 5.1 0 01.17 1.07h.09a5.29 5.29 0 01.21-1.1l2.77-9h1.76l2.48 9.05a6.36 6.36 0 01.18 1.08h.09a5 5 0 01.2-1.08l2.44-9.05zm21.16 12h-2.34l-2.82-4.71a8.36 8.36 0 00-.75-1.12 4.05 4.05 0 00-.74-.75 2.48 2.48 0 00-.82-.43 3.33 3.33 0 00-1-.14h-1.62v7.15h-2v-16.8h5a7.27 7.27 0 012 .27 4.8 4.8 0 011.62.84 3.91 3.91 0 011.07 1.4 4.6 4.6 0 01.39 2 4.67 4.67 0 01-.27 1.62 4 4 0 01-.75 1.3 4.3 4.3 0 01-1.17 1 5.92 5.92 0 01-1.54.63v.05a3.18 3.18 0 01.73.42 4 4 0 01.6.57 8.12 8.12 0 01.55.75c.19.27.39.6.62 1zm-10.08-15v6.09h2.67a4 4 0 001.37-.22 3.07 3.07 0 001.08-.64 2.86 2.86 0 00.72-1 3.42 3.42 0 00.26-1.35 2.6 2.6 0 00-.88-2.1 3.7 3.7 0 00-2.52-.76zm21.78 15h-1.92v-1.9a4 4 0 01-3.71 2.18q-4.29 0-4.29-5.11v-7.17h1.91v6.87q0 3.79 2.91 3.8a2.93 2.93 0 002.31-1 4 4 0 00.91-2.71v-6.92h1.92zm13.84 0h-1.92v-6.84q0-3.82-2.79-3.82a3 3 0 00-2.38 1.08 4 4 0 00-.94 2.74v6.84h-1.93v-12h1.93v2a4.34 4.34 0 013.94-2.28 3.69 3.69 0 013 1.27 5.66 5.66 0 011 3.68zm9.19-.11a3.69 3.69 0 01-1.79.37q-3.15 0-3.15-3.51v-7.11h-2.07v-1.64h2.07v-2.93l1.92-.62v3.55h3v1.64h-3V498a2.77 2.77 0 00.41 1.72 1.63 1.63 0 001.36.51 2 2 0 001.25-.39zm3.55-14.93a1.22 1.22 0 01-.88-.36 1.18 1.18 0 01-.36-.89 1.2 1.2 0 01.36-.89 1.22 1.22 0 01.88-.36 1.25 1.25 0 01.9.36 1.24 1.24 0 010 1.77 1.22 1.22 0 01-.9.37zm.94 15h-1.92v-12h1.92zm20.93.04h-1.92v-6.89a5.17 5.17 0 00-.62-2.88 2.34 2.34 0 00-2.07-.89 2.56 2.56 0 00-2.09 1.12 4.34 4.34 0 00-.86 2.7v6.84h-1.92v-7.12q0-3.54-2.73-3.54a2.52 2.52 0 00-2.09 1.06 4.44 4.44 0 00-.82 2.76v6.84h-1.92v-12H227v1.9h.05a4.08 4.08 0 013.73-2.18 3.45 3.45 0 012.22.65 3.35 3.35 0 011.25 1.8 4.28 4.28 0 014-2.49q4 0 4 4.89zm13.28-5.52H247a4.53 4.53 0 001.08 3.1 3.76 3.76 0 002.84 1.09 5.88 5.88 0 003.72-1.34v1.81a7 7 0 01-4.18 1.14 5.05 5.05 0 01-4-1.63 6.68 6.68 0 01-1.46-4.6 6.53 6.53 0 011.59-4.56 5.08 5.08 0 013.94-1.77 4.52 4.52 0 013.65 1.53 6.33 6.33 0 011.29 4.23zm-2-1.63a4 4 0 00-.8-2.59 2.76 2.76 0 00-2.2-.92 3.09 3.09 0 00-2.31 1 4.46 4.46 0 00-1.17 2.54zm71.02 7.15v-16.8h4.64q8.88 0 8.88 8.19a8.26 8.26 0 01-2.46 6.25 9.15 9.15 0 01-6.61 2.36zm2-15v13.24h2.51a7.12 7.12 0 005.14-1.77 6.61 6.61 0 001.84-5q0-6.46-6.87-6.46zM346 501.91a5.57 5.57 0 01-4.25-1.68 6.21 6.21 0 01-1.59-4.46 6.49 6.49 0 011.65-4.72 6 6 0 014.47-1.7 5.39 5.39 0 014.19 1.65 6.59 6.59 0 011.5 4.59 6.47 6.47 0 01-1.62 4.6 5.68 5.68 0 01-4.35 1.72zm.14-10.94a3.65 3.65 0 00-2.93 1.26 5.17 5.17 0 00-1.08 3.47 4.88 4.88 0 001.09 3.37 3.71 3.71 0 002.92 1.23 3.52 3.52 0 002.86-1.21 5.22 5.22 0 001-3.43 5.32 5.32 0 00-1-3.47 3.5 3.5 0 00-2.82-1.19zm17.12 10.11a6.18 6.18 0 01-3.28.83 5.4 5.4 0 01-4.14-1.67 6 6 0 01-1.58-4.33 6.67 6.67 0 011.7-4.76 6 6 0 014.54-1.8 6.36 6.36 0 012.79.59v2a4.87 4.87 0 00-2.86-.94 3.85 3.85 0 00-3 1.32 5 5 0 00-1.18 3.46 4.75 4.75 0 001.11 3.33 3.83 3.83 0 003 1.22 4.78 4.78 0 002.95-1.05zm12.87.55h-2.7l-5.29-5.76h-.05v5.76h-1.92v-17.76h1.92v11.26h.05l5-5.5h2.52l-5.57 5.79zm11.13-5.52h-8.47a4.49 4.49 0 001.08 3.1 3.74 3.74 0 002.83 1.09 5.89 5.89 0 003.73-1.34v1.81a7 7 0 01-4.18 1.14 5.07 5.07 0 01-4-1.63 6.68 6.68 0 01-1.45-4.6 6.53 6.53 0 011.59-4.56 5.06 5.06 0 013.94-1.77 4.49 4.49 0 013.64 1.53 6.33 6.33 0 011.29 4.23zm-2-1.63a3.88 3.88 0 00-.8-2.59 2.76 2.76 0 00-2.2-.92 3.08 3.08 0 00-2.3 1 4.4 4.4 0 00-1.18 2.54zm11.17-2.9a2.35 2.35 0 00-1.46-.39 2.45 2.45 0 00-2.05 1.16 5.39 5.39 0 00-.83 3.17v6.11h-1.92v-12h1.92v2.48h.05a4.15 4.15 0 011.25-2 2.87 2.87 0 011.89-.71 3.13 3.13 0 011.15.17zm20.96 10.05h-2.34l-2.81-4.71a10.83 10.83 0 00-.75-1.12 4.42 4.42 0 00-.75-.75 2.48 2.48 0 00-.82-.43 3.33 3.33 0 00-1-.14h-1.62v7.15h-2v-16.8h5a7.27 7.27 0 012 .27 4.8 4.8 0 011.62.84 3.91 3.91 0 011.07 1.4 4.6 4.6 0 01.39 2 4.91 4.91 0 01-.26 1.62 4.42 4.42 0 01-.75 1.3 4.5 4.5 0 01-1.18 1 5.92 5.92 0 01-1.54.63v.05a3.49 3.49 0 01.74.42 4.48 4.48 0 01.59.57 8.12 8.12 0 01.55.75c.19.27.39.6.62 1zm-10.08-15v6.09H410a4 4 0 001.36-.22 3.07 3.07 0 001.08-.64 2.86 2.86 0 00.72-1 3.42 3.42 0 00.26-1.35 2.6 2.6 0 00-.88-2.1 3.7 3.7 0 00-2.52-.76zm21.84 15h-1.93v-1.9a3.94 3.94 0 01-3.71 2.18q-4.29 0-4.29-5.11v-7.17h1.91v6.87q0 3.79 2.91 3.8a3 3 0 002.32-1 4 4 0 00.9-2.71v-6.92h1.93zm13.85 0h-1.93v-6.84q0-3.82-2.79-3.82a3 3 0 00-2.38 1.08 4 4 0 00-.94 2.74v6.84H433v-12h2v2a4.34 4.34 0 013.94-2.28 3.69 3.69 0 013 1.27 5.66 5.66 0 011.06 3.68zm9.17-.11a3.69 3.69 0 01-1.79.37q-3.15 0-3.15-3.51v-7.11h-2.07v-1.64h2.07v-2.93l1.92-.62v3.55h3v1.64h-3V498a2.84 2.84 0 00.41 1.72 1.65 1.65 0 001.36.51 2 2 0 001.25-.39zm3.55-14.93a1.22 1.22 0 01-.88-.36 1.18 1.18 0 01-.36-.89 1.2 1.2 0 01.36-.89 1.22 1.22 0 01.88-.36 1.25 1.25 0 01.9.36 1.24 1.24 0 010 1.77 1.22 1.22 0 01-.9.37zm.94 15h-1.92v-12h1.92zm20.93.04h-1.92v-6.89a5.17 5.17 0 00-.62-2.88A2.34 2.34 0 00473 491a2.56 2.56 0 00-2.1 1.12 4.34 4.34 0 00-.86 2.7v6.84h-1.92v-7.12q0-3.54-2.73-3.54a2.54 2.54 0 00-2.09 1.06 4.44 4.44 0 00-.82 2.76v6.84h-1.92v-12h1.92v1.9a4.08 4.08 0 013.73-2.18 3.49 3.49 0 013.4 2.49 4.27 4.27 0 014-2.49q4 0 4 4.89zm13.28-5.52h-8.47a4.53 4.53 0 001.07 3.1 3.76 3.76 0 002.84 1.09A5.93 5.93 0 00490 499v1.81a7 7 0 01-4.19 1.14 5.05 5.05 0 01-4-1.63 6.68 6.68 0 01-1.46-4.6 6.53 6.53 0 011.59-4.56 5.08 5.08 0 013.94-1.77 4.52 4.52 0 013.65 1.53 6.33 6.33 0 011.29 4.23zm-2-1.63a4 4 0 00-.8-2.59 2.76 2.76 0 00-2.2-.92 3.09 3.09 0 00-2.31 1 4.46 4.46 0 00-1.17 2.54zm106.97 7.15h-8.9v-16.8h8.53v1.78h-6.57v5.59h6.1v1.8h-6.1v5.88h6.94zm12.41-12l-4.78 12h-1.89l-4.54-12h2.11l3 8.72a8 8 0 01.43 1.68 8.13 8.13 0 01.38-1.63l3.18-8.77zm11.57 6.48h-8.47a4.53 4.53 0 001.07 3.1 3.76 3.76 0 002.84 1.09A5.93 5.93 0 00619 499v1.81a7 7 0 01-4.19 1.14 5.06 5.06 0 01-4-1.63 6.68 6.68 0 01-1.46-4.6 6.53 6.53 0 011.59-4.56 5.08 5.08 0 013.94-1.77 4.5 4.5 0 013.65 1.53 6.33 6.33 0 011.29 4.23zm-2-1.63a4 4 0 00-.8-2.59 2.76 2.76 0 00-2.2-.92 3.09 3.09 0 00-2.31 1 4.46 4.46 0 00-1.17 2.54zm14.87 7.15h-1.93v-6.84q0-3.82-2.79-3.82a3 3 0 00-2.38 1.08 4 4 0 00-.94 2.74v6.84h-1.93v-12h1.93v2a4.34 4.34 0 013.94-2.28 3.69 3.69 0 013 1.27 5.66 5.66 0 011.05 3.68zm9.18-.11a3.69 3.69 0 01-1.79.37q-3.15 0-3.15-3.51v-7.11h-2.06v-1.64h2.06v-2.93l1.92-.62v3.55h3v1.64h-3V498a2.84 2.84 0 00.41 1.72 1.65 1.65 0 001.36.51 2 2 0 001.25-.39zm8.62-.52v-2.32a4.26 4.26 0 001 .64 8.65 8.65 0 001.17.47 9.31 9.31 0 001.24.3 6.88 6.88 0 001.15.1 4.49 4.49 0 002.71-.67 2.52 2.52 0 00.6-3.12 3.4 3.4 0 00-.83-.92 7.29 7.29 0 00-1.25-.8l-1.55-.8c-.58-.3-1.13-.6-1.64-.9a7 7 0 01-1.32-1 4.33 4.33 0 01-.89-1.25A4.28 4.28 0 01651 487a4.24 4.24 0 011.33-1.4 5.87 5.87 0 011.87-.82 8.54 8.54 0 012.14-.27 8.36 8.36 0 013.62.59v2.22a6.57 6.57 0 00-3.82-1 6.27 6.27 0 00-1.29.13 3.77 3.77 0 00-1.15.44 2.58 2.58 0 00-.82.79 2.09 2.09 0 00-.32 1.17 2.39 2.39 0 00.24 1.11 2.72 2.72 0 00.71.86 7 7 0 001.14.75c.45.24 1 .51 1.56.8s1.17.6 1.71.93a8 8 0 011.42 1.09 5 5 0 011 1.33 3.68 3.68 0 01.36 1.66 4.13 4.13 0 01-.49 2.1 3.83 3.83 0 01-1.31 1.4 5.68 5.68 0 01-1.9.78 10.49 10.49 0 01-2.28.24c-.26 0-.59 0-1-.06s-.79-.11-1.2-.19a9.65 9.65 0 01-1.15-.3 3.54 3.54 0 01-.88-.35zm22.92-4.89h-8.47a4.53 4.53 0 001.07 3.1 3.76 3.76 0 002.84 1.09 5.93 5.93 0 003.73-1.34v1.81a7 7 0 01-4.19 1.14 5.06 5.06 0 01-4-1.63 6.68 6.68 0 01-1.46-4.6 6.53 6.53 0 011.59-4.56 5.08 5.08 0 013.94-1.77 4.5 4.5 0 013.65 1.53 6.33 6.33 0 011.29 4.23zm-2-1.63a4 4 0 00-.8-2.59 2.76 2.76 0 00-2.2-.92 3.09 3.09 0 00-2.31 1 4.46 4.46 0 00-1.17 2.54zm11.16-2.9a2.32 2.32 0 00-1.45-.39 2.47 2.47 0 00-2.06 1.16 5.4 5.4 0 00-.82 3.17v6.11h-1.93v-12h1.93v2.48a4.17 4.17 0 011.26-2 2.86 2.86 0 011.88-.71 3.09 3.09 0 011.15.17zm12.48-1.95l-4.78 12h-1.89l-4.54-12H686l3 8.72a8 8 0 01.43 1.68 8.13 8.13 0 01.38-1.63l3.19-8.77zm3.05-3.04a1.21 1.21 0 01-.88-.36 1.18 1.18 0 01-.36-.89 1.23 1.23 0 011.24-1.25 1.25 1.25 0 01.9.36 1.24 1.24 0 010 1.77 1.22 1.22 0 01-.9.37zm.94 15h-1.92v-12H699zm12.07-.51a6.2 6.2 0 01-3.28.83 5.43 5.43 0 01-4.15-1.67 6 6 0 01-1.57-4.33 6.63 6.63 0 011.7-4.76 5.93 5.93 0 014.53-1.8 6.3 6.3 0 012.79.59v2a4.85 4.85 0 00-2.86-.94 3.88 3.88 0 00-3 1.32 5 5 0 00-1.17 3.46 4.79 4.79 0 001.1 3.33 3.83 3.83 0 003 1.22 4.8 4.8 0 003-1.05zm12.55-4.97h-8.47a4.53 4.53 0 001.07 3.1 3.76 3.76 0 002.84 1.09 5.93 5.93 0 003.73-1.34v1.81a7 7 0 01-4.19 1.14 5.06 5.06 0 01-4-1.63 6.68 6.68 0 01-1.46-4.6 6.53 6.53 0 011.59-4.56 5.08 5.08 0 013.94-1.77 4.5 4.5 0 013.65 1.53 6.33 6.33 0 011.29 4.23zm-2-1.63a4 4 0 00-.8-2.59 2.76 2.76 0 00-2.2-.92 3.09 3.09 0 00-2.31 1 4.46 4.46 0 00-1.17 2.54zm115.97 7.15v-16.8h4.78a5.22 5.22 0 013.46 1.06 3.47 3.47 0 011.28 2.78 4.14 4.14 0 01-.77 2.49 4.23 4.23 0 01-2.14 1.5A4.27 4.27 0 01847 494a3.93 3.93 0 011 2.81 4.38 4.38 0 01-1.55 3.5 5.75 5.75 0 01-3.9 1.33zm2-15V492h2a3.82 3.82 0 002.54-.78 2.72 2.72 0 00.93-2.2c0-1.63-1.08-2.45-3.23-2.45zm0 7.19v6.05h2.67a4 4 0 002.7-.87 2.81 2.81 0 001-2.25c0-2-1.35-3-4.06-3zm13.42 7.81h-1.92v-17.76h1.92zm8.95.28a5.58 5.58 0 01-4.25-1.68 6.21 6.21 0 01-1.58-4.46 6.49 6.49 0 011.65-4.72 6 6 0 014.46-1.7 5.38 5.38 0 014.19 1.65 6.55 6.55 0 011.51 4.59 6.44 6.44 0 01-1.63 4.6 5.68 5.68 0 01-4.35 1.72zm.1-10.91a3.66 3.66 0 00-2.93 1.26 5.17 5.17 0 00-1.08 3.47 4.93 4.93 0 001.09 3.37 3.71 3.71 0 002.92 1.23 3.54 3.54 0 002.87-1.21 5.27 5.27 0 001-3.43 5.37 5.37 0 00-1-3.47 3.52 3.52 0 00-2.87-1.22zm10.9 8.9h-.05v1.73H871v-17.76h1.92v7.87h.08a4.54 4.54 0 014.15-2.39 4.41 4.41 0 013.61 1.61 6.69 6.69 0 011.31 4.32 7.4 7.4 0 01-1.47 4.82 4.86 4.86 0 01-4 1.81 3.94 3.94 0 01-3.6-2.01zm-.05-4.84v1.67a3.54 3.54 0 001 2.53 3.44 3.44 0 005.19-.3 6.13 6.13 0 001-3.71 4.8 4.8 0 00-.93-3.14 3 3 0 00-2.51-1.14 3.42 3.42 0 00-2.69 1.16 4.3 4.3 0 00-1.08 2.93zm18.21 5.94v-2.32a4.58 4.58 0 001 .64 8.65 8.65 0 001.17.47 9 9 0 001.24.3 6.79 6.79 0 001.15.1 4.49 4.49 0 002.71-.67 2.52 2.52 0 00.6-3.12 3.4 3.4 0 00-.83-.92 7.7 7.7 0 00-1.25-.8l-1.55-.8c-.59-.3-1.13-.6-1.64-.9a7.37 7.37 0 01-1.33-1 4.3 4.3 0 01-.88-1.25 4.28 4.28 0 01.18-3.63 4.24 4.24 0 011.33-1.4 5.92 5.92 0 011.86-.82 8.6 8.6 0 012.14-.27 8.3 8.3 0 013.62.59v2.22a6.53 6.53 0 00-3.82-1 6.18 6.18 0 00-1.28.13 3.67 3.67 0 00-1.15.44 2.58 2.58 0 00-.82.79 2.09 2.09 0 00-.32 1.17 2.39 2.39 0 00.24 1.11 2.72 2.72 0 00.71.86 6.62 6.62 0 001.14.75l1.55.8a18.62 18.62 0 011.72.93 7.87 7.87 0 011.35 1 4.78 4.78 0 011 1.33 3.68 3.68 0 01.36 1.66 4.13 4.13 0 01-.49 2.1 3.83 3.83 0 01-1.31 1.4 5.73 5.73 0 01-1.91.78 10.33 10.33 0 01-2.27.24c-.26 0-.59 0-1-.06s-.79-.11-1.2-.19a9.65 9.65 0 01-1.15-.3 3.46 3.46 0 01-.87-.36zm22.93-4.89h-8.48a4.49 4.49 0 001.08 3.1 3.74 3.74 0 002.84 1.09 5.88 5.88 0 003.72-1.34v1.81a7 7 0 01-4.18 1.14 5.09 5.09 0 01-4-1.63 6.73 6.73 0 01-1.45-4.6 6.53 6.53 0 011.59-4.56 5.08 5.08 0 013.94-1.77 4.52 4.52 0 013.65 1.53 6.33 6.33 0 011.29 4.23zm-2-1.63a3.93 3.93 0 00-.81-2.59 2.74 2.74 0 00-2.19-.92 3.09 3.09 0 00-2.31 1 4.46 4.46 0 00-1.17 2.54zm11.16-2.9a2.34 2.34 0 00-1.45-.39 2.47 2.47 0 00-2.06 1.16 5.39 5.39 0 00-.83 3.17v6.11H917v-12h1.92v2.48h.08a4.09 4.09 0 011.26-2 2.86 2.86 0 011.88-.71 3.13 3.13 0 011.15.17zm12.48-1.95l-4.78 12h-1.89l-4.54-12h2.11l3 8.72a7.33 7.33 0 01.42 1.68 7.5 7.5 0 01.38-1.63l3.18-8.77zm3.05-3.04a1.25 1.25 0 110-2.5 1.21 1.21 0 01.89.36 1.24 1.24 0 010 1.77 1.19 1.19 0 01-.89.37zm.94 15h-1.93v-12h1.93zm12.07-.51a6.24 6.24 0 01-3.29.83 5.4 5.4 0 01-4.14-1.67 6 6 0 01-1.57-4.33 6.66 6.66 0 011.69-4.76 6 6 0 014.54-1.8 6.36 6.36 0 012.79.59v2A4.85 4.85 0 00949 491a3.87 3.87 0 00-3 1.32 5 5 0 00-1.18 3.46 4.75 4.75 0 001.11 3.33 3.83 3.83 0 003 1.22 4.83 4.83 0 003-1.05zm12.55-4.97h-8.48a4.49 4.49 0 001.08 3.1 3.74 3.74 0 002.84 1.09 5.88 5.88 0 003.72-1.3v1.81a7 7 0 01-4.18 1.14 5.09 5.09 0 01-4-1.63 6.73 6.73 0 01-1.45-4.6 6.53 6.53 0 011.59-4.56 5.08 5.08 0 013.94-1.77 4.52 4.52 0 013.65 1.53 6.33 6.33 0 011.29 4.23zm-2-1.63a3.93 3.93 0 00-.81-2.59 2.74 2.74 0 00-2.19-.92 3.09 3.09 0 00-2.31 1 4.46 4.46 0 00-1.17 2.54zm115.59 6.45a9.81 9.81 0 01-4.64 1 7.51 7.51 0 01-5.74-2.3 8.51 8.51 0 01-2.16-6.06 8.93 8.93 0 012.43-6.52 8.26 8.26 0 016.15-2.48 9.83 9.83 0 014 .69v2.1a7.93 7.93 0 00-4-1 6.09 6.09 0 00-4.69 1.93 7.28 7.28 0 00-1.8 5.17 6.92 6.92 0 001.68 4.89 5.7 5.7 0 004.41 1.82 8.25 8.25 0 004.38-1.12zm8.18.98a5.58 5.58 0 01-4.25-1.68 6.25 6.25 0 01-1.58-4.46 6.49 6.49 0 011.65-4.72 6 6 0 014.46-1.7 5.38 5.38 0 014.19 1.65 6.55 6.55 0 011.51 4.59 6.47 6.47 0 01-1.62 4.6 5.72 5.72 0 01-4.36 1.72zm.14-10.94a3.66 3.66 0 00-2.93 1.26 5.16 5.16 0 00-1.07 3.47 4.88 4.88 0 001.09 3.37 3.68 3.68 0 002.91 1.23 3.53 3.53 0 002.87-1.21 5.22 5.22 0 001-3.43 5.32 5.32 0 00-1-3.47 3.51 3.51 0 00-2.87-1.19zm18.87 10.66h-1.92v-6.84q0-3.82-2.79-3.82a3 3 0 00-2.39 1.08 4.09 4.09 0 00-.94 2.74v6.84h-1.92v-12h1.92v2h.05a4.32 4.32 0 013.94-2.28 3.7 3.7 0 013 1.27 5.72 5.72 0 011 3.68zm2.88-.43v-2.06a5.72 5.72 0 003.46 1.16c1.69 0 2.53-.57 2.53-1.69a1.48 1.48 0 00-.21-.81 2.24 2.24 0 00-.59-.6 4.71 4.71 0 00-.87-.46l-1.07-.43a12.48 12.48 0 01-1.4-.64 4.14 4.14 0 01-1-.72 2.79 2.79 0 01-.61-.92 3.45 3.45 0 01-.2-1.21 2.83 2.83 0 01.39-1.49 3.25 3.25 0 011-1.09 4.7 4.7 0 011.47-.67 7.16 7.16 0 014.49.32v1.95a5.42 5.42 0 00-3.05-.87 3.63 3.63 0 00-1 .12 2.21 2.21 0 00-.74.35 1.51 1.51 0 00-.48.53 1.36 1.36 0 00-.17.69 1.55 1.55 0 00.17.78 1.65 1.65 0 00.5.56 3.28 3.28 0 00.79.45c.31.13.67.28 1.07.43s1 .42 1.43.63a4.86 4.86 0 011.08.73 2.94 2.94 0 01.68.93 3.32 3.32 0 01-.15 2.8 3.31 3.31 0 01-1 1.09 4.78 4.78 0 01-1.51.64 7.5 7.5 0 01-1.79.21 6.8 6.8 0 01-3.22-.71zm15.94.71a5.58 5.58 0 01-4.25-1.68 6.21 6.21 0 01-1.59-4.46 6.5 6.5 0 011.66-4.72 6 6 0 014.46-1.7 5.38 5.38 0 014.19 1.65 6.55 6.55 0 011.51 4.59 6.44 6.44 0 01-1.63 4.6 5.68 5.68 0 01-4.35 1.72zm.14-10.94a3.66 3.66 0 00-2.93 1.26 5.17 5.17 0 00-1.08 3.47 4.93 4.93 0 001.09 3.37 3.71 3.71 0 002.92 1.23 3.54 3.54 0 002.87-1.21 5.27 5.27 0 001-3.43 5.37 5.37 0 00-1-3.47 3.52 3.52 0 00-2.87-1.19zm10.83 10.66H1133v-17.76h1.92zm13.53-5.52H1140a4.49 4.49 0 001.08 3.1 3.74 3.74 0 002.84 1.09 5.88 5.88 0 003.72-1.34v1.81a7 7 0 01-4.18 1.14 5.07 5.07 0 01-4-1.63 6.68 6.68 0 01-1.45-4.6 6.53 6.53 0 011.59-4.56 5.08 5.08 0 013.94-1.77 4.52 4.52 0 013.65 1.53 6.38 6.38 0 011.28 4.23zm-2-1.63a3.93 3.93 0 00-.81-2.59 2.74 2.74 0 00-2.19-.92 3.09 3.09 0 00-2.31 1 4.33 4.33 0 00-1.17 2.54zm10.96 6.52v-2.32a4.26 4.26 0 00.95.64 8.65 8.65 0 001.17.47 9.31 9.31 0 001.24.3 7 7 0 001.15.1 4.49 4.49 0 002.71-.67 2.52 2.52 0 00.6-3.12 3.24 3.24 0 00-.83-.92 7.59 7.59 0 00-1.24-.8l-1.56-.8c-.58-.3-1.13-.6-1.64-.9a7 7 0 01-1.32-1 4.33 4.33 0 01-.89-1.25 3.92 3.92 0 01-.32-1.63 3.79 3.79 0 01.51-2 4.11 4.11 0 011.32-1.4 6 6 0 011.87-.82 8.54 8.54 0 012.14-.27 8.36 8.36 0 013.62.59v2.22a6.55 6.55 0 00-3.82-1 6.27 6.27 0 00-1.29.13 3.77 3.77 0 00-1.15.44 2.58 2.58 0 00-.82.79 2.09 2.09 0 00-.32 1.17 2.39 2.39 0 00.24 1.11 2.72 2.72 0 00.71.86 7.16 7.16 0 001.15.75c.44.24 1 .51 1.55.8s1.17.6 1.71.93a8 8 0 011.42 1.09 4.74 4.74 0 011 1.33 3.68 3.68 0 01.36 1.66 4.13 4.13 0 01-.49 2.1 3.83 3.83 0 01-1.31 1.4 5.68 5.68 0 01-1.9.78 10.49 10.49 0 01-2.28.24c-.26 0-.59 0-1-.06s-.79-.11-1.19-.19a9.34 9.34 0 01-1.16-.3 3.54 3.54 0 01-.89-.45zm22.92-4.89h-8.47a4.49 4.49 0 001.08 3.1 3.72 3.72 0 002.83 1.09 5.93 5.93 0 003.73-1.34v1.81a7 7 0 01-4.19 1.14 5.06 5.06 0 01-4-1.63 6.68 6.68 0 01-1.46-4.6 6.53 6.53 0 011.59-4.56 5.1 5.1 0 014-1.77 4.49 4.49 0 013.64 1.53 6.33 6.33 0 011.29 4.23zm-2-1.63a3.93 3.93 0 00-.8-2.59 2.76 2.76 0 00-2.2-.92 3.1 3.1 0 00-2.31 1 4.46 4.46 0 00-1.17 2.54zm11.16-2.9a2.32 2.32 0 00-1.45-.39 2.47 2.47 0 00-2.06 1.16 5.4 5.4 0 00-.82 3.17v6.11h-1.92v-12h1.92v2.48a4.24 4.24 0 011.26-2 2.87 2.87 0 011.89-.71 3 3 0 011.14.17zm12.52-1.95l-4.78 12h-1.88l-4.55-12h2.11l3.05 8.72a8.55 8.55 0 01.42 1.68 8.13 8.13 0 01.38-1.63l3.19-8.77zm3-3.04a1.21 1.21 0 01-.88-.36 1.18 1.18 0 01-.36-.89 1.23 1.23 0 011.24-1.25 1.25 1.25 0 01.9.36 1.24 1.24 0 010 1.77 1.22 1.22 0 01-.9.37zm.94 15H1204v-12h2zm12.06-.51a6.2 6.2 0 01-3.28.83 5.44 5.44 0 01-4.15-1.67 6 6 0 01-1.57-4.33 6.67 6.67 0 011.7-4.76 5.93 5.93 0 014.53-1.8 6.3 6.3 0 012.79.59v2a4.85 4.85 0 00-2.86-.94 3.85 3.85 0 00-3 1.32 5 5 0 00-1.18 3.46 4.79 4.79 0 001.1 3.33 3.84 3.84 0 003 1.22 4.8 4.8 0 003-1.05zm12.57-4.97h-8.47a4.49 4.49 0 001.08 3.1 3.72 3.72 0 002.83 1.09 5.93 5.93 0 003.73-1.34v1.81a7 7 0 01-4.19 1.14 5.06 5.06 0 01-4-1.63 6.68 6.68 0 01-1.46-4.6 6.53 6.53 0 011.59-4.56 5.1 5.1 0 014-1.77 4.49 4.49 0 013.64 1.53 6.33 6.33 0 011.29 4.23zm-2-1.63a3.93 3.93 0 00-.8-2.59 2.76 2.76 0 00-2.2-.92 3.1 3.1 0 00-2.31 1 4.46 4.46 0 00-1.17 2.54z"/><path class="bfb07257-aee9-421c-8f9f-51e6fbea3a36" d="M74.41 279.5l-4.11-16.18h2.21l1.92 8.19c.48 2 .91 4 1.2 5.59h.05c.27-1.61.77-3.53 1.32-5.62l2.16-8.16h2.19l2 8.21c.46 1.92.89 3.84 1.13 5.55.34-1.78.79-3.58 1.3-5.6l2.13-8.16h2.14l-4.58 16.18h-2.18l-2-8.42a51.24 51.24 0 01-1.06-5.28 51.72 51.72 0 01-1.25 5.28l-2.31 8.42zm17.97-5.42a3.73 3.73 0 004 4 7.79 7.79 0 003.22-.6l.4 1.52a9.39 9.39 0 01-3.87.72c-3.58 0-5.71-2.35-5.71-5.86s2.06-6.26 5.45-6.26c3.79 0 4.8 3.34 4.8 5.47a9.22 9.22 0 01-.07 1zm6.2-1.52c0-1.34-.55-3.43-2.93-3.43-2.14 0-3.07 2-3.24 3.43zm4.56 6.94c0-.79.09-2 .09-3v-14h2.09v7.3h.05a4.32 4.32 0 014-2.14c2.88 0 4.92 2.4 4.9 5.93 0 4.15-2.62 6.21-5.21 6.21a4.13 4.13 0 01-3.89-2.18h-.07l-.1 1.92zm2.18-4.66a3.77 3.77 0 00.1.77 3.24 3.24 0 003.17 2.47c2.2 0 3.52-1.79 3.52-4.46 0-2.33-1.2-4.32-3.45-4.32a3.37 3.37 0 00-3.22 2.59 4.06 4.06 0 00-.12.87zm12.22-6.96l2.28 6.53c.38 1.06.69 2 .93 3h.07c.27-1 .61-1.92 1-3l2.26-6.53h2.2l-4.56 11.62h-2l-4.42-11.62zm13.08-3.26a1.31 1.31 0 01-2.62 0 1.29 1.29 0 011.32-1.32 1.26 1.26 0 011.3 1.32zm-2.36 14.88v-11.62h2.12v11.62zm6.8-5.42a3.72 3.72 0 004 4 7.75 7.75 0 003.22-.6l.36 1.51a9.39 9.39 0 01-3.87.72c-3.57 0-5.71-2.35-5.71-5.86s2.06-6.26 5.45-6.26c3.79 0 4.8 3.34 4.8 5.47a9.22 9.22 0 01-.07 1zm6.19-1.52c0-1.34-.55-3.43-2.93-3.43-2.14 0-3.07 2-3.24 3.43zm5.49-4.68l1.54 5.91c.34 1.29.65 2.5.86 3.69h.08c.26-1.17.64-2.42 1-3.67l1.89-5.93h1.78l1.8 5.81c.43 1.39.77 2.62 1 3.79h.08a35 35 0 01.88-3.76l1.66-5.84h2.09l-3.75 11.62h-1.92L154 274a39 39 0 01-1-3.82 34.61 34.61 0 01-1.06 3.84L150 279.5h-1.92l-3.51-11.62zm21.99-4.34a21.35 21.35 0 014-.34c2.23 0 3.67.41 4.68 1.32a4.06 4.06 0 011.27 3.08 4.24 4.24 0 01-3.05 4.12v.08c1.25.43 2 1.58 2.38 3.26a26.55 26.55 0 001.24 4.44h-2.15a21.57 21.57 0 01-1.08-3.86c-.48-2.24-1.34-3.08-3.24-3.15h-2v7h-2.09zm2.09 7.37H173c2.23 0 3.65-1.23 3.65-3.07 0-2.09-1.51-3-3.72-3a8.86 8.86 0 00-2.06.19zm20.47 5.42c0 1.2 0 2.26.09 3.17h-1.87l-.12-1.9a4.35 4.35 0 01-3.84 2.16c-1.82 0-4-1-4-5.08v-6.8h2.11v6.44c0 2.2.67 3.69 2.59 3.69a3.06 3.06 0 002.79-1.92 3.3 3.3 0 00.19-1.08v-7.13h2.11zm3.5-5.33c0-1.2 0-2.19-.09-3.15h1.87l.12 1.92h.05a4.27 4.27 0 013.84-2.18c1.6 0 4.1 1 4.1 4.94v6.94h-2.11v-6.7c0-1.87-.7-3.43-2.69-3.43a3.12 3.12 0 00-3 3.15v7h-2.11zm15.77-6.45v3.33h3v1.61h-3v6.27c0 1.44.41 2.25 1.58 2.25a4.87 4.87 0 001.23-.14l.09 1.58a5.06 5.06 0 01-1.87.29 2.93 2.93 0 01-2.28-.89 4.28 4.28 0 01-.81-3v-6.34h-1.8v-1.61h1.8v-2.8zm7.75.07a1.31 1.31 0 01-2.61 0 1.29 1.29 0 011.3-1.32 1.25 1.25 0 011.31 1.32zM216 279.5v-11.62h2.11v11.62zm5.58-8.5c0-1.2 0-2.19-.1-3.15h1.85l.09 1.88h.08a4 4 0 013.64-2.14 3.43 3.43 0 013.29 2.33 4.76 4.76 0 011.3-1.51 3.93 3.93 0 012.56-.82c1.54 0 3.82 1 3.82 5v6.84h-2.01v-6.58c0-2.23-.82-3.57-2.52-3.57a2.74 2.74 0 00-2.5 1.92 3.35 3.35 0 00-.17 1.05v7.18h-2.06v-7c0-1.85-.82-3.19-2.43-3.19a3.15 3.15 0 00-2.78 3.14v7h-2.06zm21.19 3.08a3.72 3.72 0 004 4 7.75 7.75 0 003.22-.6l.36 1.51a9.39 9.39 0 01-3.87.72c-3.57 0-5.71-2.35-5.71-5.86s2.07-6.26 5.45-6.26c3.79 0 4.8 3.34 4.8 5.47a9.22 9.22 0 01-.07 1zm6.19-1.52c0-1.34-.55-3.43-2.93-3.43-2.13 0-3.07 2-3.24 3.43zm79.31-9.02a30.07 30.07 0 014.44-.34c3 0 5.14.7 6.55 2a7.45 7.45 0 012.28 5.81 8.57 8.57 0 01-2.32 6.29c-1.52 1.51-4 2.32-7.16 2.32a33.74 33.74 0 01-3.79-.19zm2.09 14.3a12.63 12.63 0 002.11.13c4.47 0 6.89-2.5 6.89-6.87 0-3.82-2.14-6.24-6.55-6.24a11.82 11.82 0 00-2.45.22zm24.43-4.24c0 4.29-3 6.16-5.78 6.16-3.15 0-5.57-2.3-5.57-6 0-3.89 2.54-6.17 5.76-6.17s5.59 2.41 5.59 6.01zm-9.22.12c0 2.54 1.47 4.46 3.53 4.46s3.53-1.89 3.53-4.51c0-2-1-4.47-3.48-4.47s-3.58 2.31-3.58 4.52zm20.16 5.35a7.72 7.72 0 01-3.33.67c-3.51 0-5.79-2.37-5.79-5.93a5.91 5.91 0 016.24-6.17 7.17 7.17 0 012.93.6l-.48 1.64a4.84 4.84 0 00-2.45-.56c-2.66 0-4.1 2-4.1 4.4 0 2.68 1.73 4.34 4 4.34a5.9 5.9 0 002.59-.58zm4.56-5.86c.29-.41.7-.91 1-1.32l3.41-4h2.55l-4.49 4.78 5.24 6.83h-2.57l-4-5.57-1.08 1.2v4.37h-2.08v-17h2.08zm10.35.87a3.72 3.72 0 004 4 7.75 7.75 0 003.22-.6l.36 1.51a9.39 9.39 0 01-3.87.72c-3.57 0-5.71-2.35-5.71-5.86s2.07-6.26 5.45-6.26c3.79 0 4.8 3.34 4.8 5.47a9.22 9.22 0 01-.07 1zm6.19-1.52c0-1.34-.55-3.43-2.93-3.43-2.13 0-3.07 2-3.24 3.43zm4.66-1.05c0-1.37 0-2.55-.1-3.63h1.85l.07 2.28h.1a3.47 3.47 0 013.21-2.54 2.2 2.2 0 01.6.07v2a3 3 0 00-.72-.07 3 3 0 00-2.83 2.71 5.81 5.81 0 00-.1 1v6.19h-2.08zm13-7.97a21.43 21.43 0 014-.34c2.23 0 3.67.41 4.68 1.32a4 4 0 011.27 3.08 4.24 4.24 0 01-3 4.12v.08c1.24.43 2 1.58 2.37 3.26a25.27 25.27 0 001.19 4.44h-2.16a21.57 21.57 0 01-1.08-3.86c-.48-2.24-1.34-3.08-3.24-3.15h-2v7h-2.09zm2.09 7.37h2.14c2.23 0 3.65-1.23 3.65-3.07 0-2.09-1.52-3-3.72-3a9 9 0 00-2.07.19zm20.47 5.42c0 1.2 0 2.26.1 3.17h-1.87l-.12-1.9h-.05a4.37 4.37 0 01-3.84 2.16c-1.82 0-4-1-4-5.08v-6.8h2.11v6.44c0 2.2.68 3.69 2.6 3.69a3 3 0 003-3v-7.13h2.11zm3.51-5.33c0-1.2 0-2.19-.1-3.15h1.87l.12 1.92h.05a4.28 4.28 0 013.84-2.18c1.61 0 4.11 1 4.11 4.94v6.94h-2.12v-6.7c0-1.87-.69-3.43-2.68-3.43a3 3 0 00-2.84 2.16 3.28 3.28 0 00-.14 1v7h-2.11zm15.77-6.45v3.33h3v1.61h-3v6.27c0 1.44.4 2.25 1.58 2.25a4.78 4.78 0 001.22-.14l.1 1.58a5.14 5.14 0 01-1.87.29 2.9 2.9 0 01-2.28-.89 4.28 4.28 0 01-.82-3v-6.34h-1.8v-1.61h1.8v-2.8zm7.75.07a1.31 1.31 0 01-2.62 0 1.29 1.29 0 011.32-1.32 1.26 1.26 0 011.3 1.32zm-2.35 14.88v-11.62h2.11v11.62zm5.61-8.5c0-1.2 0-2.19-.09-3.15h1.84l.1 1.88h.07a4 4 0 013.65-2.14 3.45 3.45 0 013.29 2.41h.05a4.74 4.74 0 011.29-1.51 4 4 0 012.57-.82c1.54 0 3.82 1 3.82 5v6.84h-2.07v-6.58c0-2.23-.81-3.57-2.52-3.57a2.73 2.73 0 00-2.49 1.92 3.35 3.35 0 00-.17 1.05v7.18h-2.07v-7c0-1.85-.81-3.19-2.42-3.19a3.11 3.11 0 00-2.78 3.14v7h-2.07zm21.19 3.08a3.73 3.73 0 004 4 7.7 7.7 0 003.21-.6l.36 1.51a9.3 9.3 0 01-3.86.72c-3.58 0-5.71-2.35-5.71-5.86s2.06-6.26 5.45-6.26c3.79 0 4.8 3.34 4.8 5.47a6.86 6.86 0 01-.08 1zm6.2-1.52c0-1.34-.56-3.43-2.93-3.43-2.14 0-3.07 2-3.24 3.43zm336.43-9.24v9.58c0 3.62 1.61 5.16 3.77 5.16 2.4 0 3.94-1.59 3.94-5.16v-9.58H831v9.43c0 5-2.62 7-6.12 7-3.31 0-5.81-1.89-5.81-6.91v-9.53zm12.94 14.02a5.51 5.51 0 002.78.84c1.54 0 2.26-.77 2.26-1.73s-.6-1.56-2.16-2.14c-2.09-.74-3.07-1.89-3.07-3.28 0-1.88 1.51-3.41 4-3.41a5.73 5.73 0 012.85.72l-.53 1.53a4.55 4.55 0 00-2.37-.67c-1.25 0-2 .72-2 1.59s.7 1.39 2.21 2c2 .77 3 1.78 3 3.51 0 2-1.58 3.48-4.34 3.48a6.64 6.64 0 01-3.27-.79zm10.97-3.27a3.72 3.72 0 004 4 7.75 7.75 0 003.22-.6l.36 1.51a9.39 9.39 0 01-3.87.72c-3.57 0-5.71-2.35-5.71-5.86s2.07-6.26 5.45-6.26c3.79 0 4.8 3.33 4.8 5.47a8.79 8.79 0 01-.07 1zm6.19-1.51c0-1.34-.55-3.43-2.93-3.43-2.13 0-3.07 2-3.24 3.43zm12.43 1.85L862 279.5h-2.16l5.5-16.18h2.52l5.52 16.18h-2.23l-1.73-5.09zm5.31-1.63l-1.59-4.66c-.36-1.05-.6-2-.84-2.95h-.05c-.24 1-.5 1.94-.81 2.93l-1.59 4.68zm6.76-9.27a25.19 25.19 0 014-.31 6.62 6.62 0 014.54 1.35 4.32 4.32 0 011.41 3.38 4.8 4.8 0 01-1.24 3.46 6.75 6.75 0 01-5 1.77 7.22 7.22 0 01-1.68-.14v6.48h-2.09zm2.09 7.8a7 7 0 001.73.17c2.52 0 4.06-1.22 4.06-3.45s-1.52-3.17-3.82-3.17a8.53 8.53 0 00-2 .17zm12.77-7.99v16.18h-2.09v-16.18zm3.29 14.02a5.51 5.51 0 002.78.84c1.54 0 2.26-.77 2.26-1.73s-.6-1.56-2.16-2.14c-2.09-.74-3.07-1.89-3.07-3.28 0-1.88 1.51-3.41 4-3.41a5.74 5.74 0 012.86.72l-.53 1.53a4.55 4.55 0 00-2.37-.67c-1.25 0-1.95.72-1.95 1.59s.7 1.39 2.21 2c2 .77 3 1.78 3 3.51 0 2-1.59 3.48-4.35 3.48a6.63 6.63 0 01-3.26-.79zm25.39-3.75c0 4.3-3 6.17-5.78 6.17-3.15 0-5.57-2.3-5.57-6 0-3.89 2.54-6.17 5.76-6.17s5.59 2.41 5.59 6zm-9.22.13c0 2.54 1.47 4.46 3.53 4.46s3.53-1.9 3.53-4.51c0-2-1-4.47-3.48-4.47s-3.58 2.31-3.58 4.52zm11.92-2.21c0-1.37 0-2.55-.09-3.63h1.85l.07 2.28h.09a3.48 3.48 0 013.22-2.54 2.2 2.2 0 01.6.07v2a3.08 3.08 0 00-.72-.07 3 3 0 00-2.83 2.71 5.81 5.81 0 00-.1 1v6.19H922zm12.68 5.49a7.49 7.49 0 003.75 1.05c2.13 0 3.38-1.13 3.38-2.76s-.86-2.38-3-3.22c-2.64-.93-4.27-2.3-4.27-4.58 0-2.52 2.09-4.39 5.23-4.39a7.34 7.34 0 013.58.79l-.58 1.7a6.53 6.53 0 00-3.07-.76c-2.21 0-3 1.32-3 2.42 0 1.51 1 2.26 3.22 3.12 2.73 1.06 4.13 2.38 4.13 4.75s-1.85 4.66-5.67 4.66a8.45 8.45 0 01-4.13-1zm12.12-13.46a30.18 30.18 0 014.44-.34c3 0 5.14.7 6.56 2a7.45 7.45 0 012.28 5.81 8.53 8.53 0 01-2.33 6.28c-1.51 1.52-4 2.33-7.16 2.33a33.87 33.87 0 01-3.79-.19zm2.09 14.3a12.76 12.76 0 002.11.16c4.47 0 6.89-2.49 6.89-6.86 0-3.82-2.13-6.24-6.55-6.24a12 12 0 00-2.45.21zm13.9-14.52h2.08v7.8h.13c.43-.62.86-1.2 1.27-1.73l4.94-6.07h2.59l-5.85 6.87 6.31 9.31h-2.47l-5.33-7.95-1.54 1.78v6.17h-2.08zm12.64 14.02a5.55 5.55 0 002.79.84c1.53 0 2.25-.77 2.25-1.73s-.6-1.56-2.16-2.14c-2.08-.74-3.07-1.89-3.07-3.28 0-1.88 1.51-3.41 4-3.41a5.74 5.74 0 012.86.72l-.53 1.53a4.63 4.63 0 00-2.38-.67c-1.25 0-1.94.72-1.94 1.59s.69 1.39 2.21 2c2 .77 3 1.78 3 3.51 0 2-1.58 3.48-4.34 3.48a6.6 6.6 0 01-3.26-.79z"/><path class="b80d0ef4-ed82-4d5b-a5ae-4bab3472ef24" d="M616 426.64h-8.9v-16.8h8.53v1.78H609v5.59h6.07V419H609v5.88h7zm12.37-12l-4.78 12h-1.88l-4.55-12h2.11l3 8.72a8 8 0 01.43 1.68 8 8 0 01.38-1.63l3.19-8.77zm11.57 6.48h-8.47a4.49 4.49 0 001.08 3.1 3.72 3.72 0 002.83 1.09 5.93 5.93 0 003.73-1.34v1.8a7 7 0 01-4.19 1.15 5.06 5.06 0 01-4-1.63 6.68 6.68 0 01-1.46-4.6 6.57 6.57 0 011.59-4.57 5.12 5.12 0 014-1.76 4.52 4.52 0 013.64 1.52 6.36 6.36 0 011.29 4.23zm-2-1.63a3.91 3.91 0 00-.8-2.59 2.76 2.76 0 00-2.14-.9 3.1 3.1 0 00-2.31 1 4.46 4.46 0 00-1.17 2.54zm14.87 7.15h-1.93v-6.84c0-2.55-.92-3.82-2.78-3.82a3 3 0 00-2.39 1.08 4 4 0 00-.94 2.74v6.84h-1.92v-12h1.92v2a4.34 4.34 0 013.94-2.27 3.66 3.66 0 013 1.27 5.64 5.64 0 011 3.68zm9.19-.12a3.69 3.69 0 01-1.79.38q-3.15 0-3.15-3.52v-7.1H655v-1.64h2.06v-2.93l1.92-.62v3.55h3v1.64h-3V423a2.85 2.85 0 00.41 1.73 1.65 1.65 0 001.36.51 2 2 0 001.25-.4zm22.4.12h-2.18l-1.78-4.71h-7.13l-1.67 4.71h-2.19l6.44-16.8h2zm-4.6-6.48l-2.64-7.16a6.75 6.75 0 01-.26-1.12 5.1 5.1 0 01-.27 1.12l-2.63 7.16zm9.04.13v6.35h-2v-16.8h4.62a6.07 6.07 0 014.18 1.31 4.67 4.67 0 011.48 3.7 5.1 5.1 0 01-1.65 3.92 6.3 6.3 0 01-4.44 1.52zm0-8.67v6.89h2.06a4.65 4.65 0 003.12-.93 3.31 3.31 0 001.07-2.63q0-3.33-3.94-3.33zm15.08-1.78v1.68h-1.64V425h1.64v1.69h-5.25V425h1.64v-13.48h-1.64v-1.68zm153.83 16.8v-16.8h4.79a5.21 5.21 0 013.46 1.06 3.46 3.46 0 011.28 2.78 4.16 4.16 0 01-.77 2.49 4.23 4.23 0 01-2.14 1.5 4.22 4.22 0 012.72 1.29 3.93 3.93 0 011 2.81 4.38 4.38 0 01-1.55 3.5 5.75 5.75 0 01-3.9 1.33zm2-15V417h2a3.82 3.82 0 002.54-.78 2.69 2.69 0 00.93-2.19c0-1.64-1.08-2.45-3.23-2.45zm0 7.19v6.05h2.67a4 4 0 002.69-.82 2.81 2.81 0 001-2.25c0-2-1.35-3-4.06-3zm13.43 7.81h-1.93v-17.76h1.93zm8.9.28a5.58 5.58 0 01-4.25-1.68 6.27 6.27 0 01-1.58-4.46 6.49 6.49 0 011.65-4.72 6 6 0 014.46-1.7 5.38 5.38 0 014.19 1.65 6.52 6.52 0 011.51 4.58 6.44 6.44 0 01-1.62 4.6 5.69 5.69 0 01-4.36 1.73zm.14-10.94a3.66 3.66 0 00-2.93 1.26 5.16 5.16 0 00-1.07 3.47 4.94 4.94 0 001.08 3.37 3.71 3.71 0 002.92 1.23 3.53 3.53 0 002.87-1.21 5.23 5.23 0 001-3.43 5.32 5.32 0 00-1-3.47 3.48 3.48 0 00-2.87-1.2zm10.88 8.93h-.05v1.73h-1.92v-17.76h1.92v7.87h.05a4.55 4.55 0 014.15-2.39 4.4 4.4 0 013.61 1.61 6.69 6.69 0 011.31 4.32 7.4 7.4 0 01-1.47 4.82 4.85 4.85 0 01-4 1.81 4 4 0 01-3.6-2.01zm-.05-4.84v1.67a3.54 3.54 0 001 2.53 3.44 3.44 0 005.19-.3 6.13 6.13 0 001-3.71 4.85 4.85 0 00-.93-3.15 3.06 3.06 0 00-2.5-1.13 3.43 3.43 0 00-2.7 1.16 4.3 4.3 0 00-1.06 2.93zm32.03 6.57h-2.18l-1.78-4.71H914l-1.67 4.71h-2.19l6.44-16.8h2zm-4.61-6.48l-2.63-7.16a5.86 5.86 0 01-.26-1.12h-.05a6.58 6.58 0 01-.27 1.12l-2.61 7.16zm9.05.13v6.35h-2v-16.8h4.62a6.07 6.07 0 014.18 1.31 4.7 4.7 0 011.48 3.7 5.1 5.1 0 01-1.65 3.92 6.32 6.32 0 01-4.45 1.52zm0-8.67v6.89h2.06a4.6 4.6 0 003.11-.93 3.29 3.29 0 001.08-2.63c0-2.22-1.32-3.33-3.94-3.33zm15.08-1.78v1.68H943V425h1.64v1.69h-5.25V425H941v-13.48h-1.64v-1.68zm153.45 16.1a9.93 9.93 0 01-4.64 1 7.48 7.48 0 01-5.74-2.31 8.47 8.47 0 01-2.16-6.05 8.93 8.93 0 012.43-6.52 8.22 8.22 0 016.15-2.48 9.83 9.83 0 014 .69v2.09a8 8 0 00-4-1 6.1 6.1 0 00-4.69 1.93 7.28 7.28 0 00-1.8 5.17 6.92 6.92 0 001.68 4.89 5.7 5.7 0 004.41 1.82 8.25 8.25 0 004.38-1.12zm8.18.98a5.54 5.54 0 01-4.24-1.68 6.23 6.23 0 01-1.59-4.46 6.49 6.49 0 011.65-4.72 6 6 0 014.46-1.7 5.38 5.38 0 014.19 1.65 6.52 6.52 0 011.51 4.58 6.44 6.44 0 01-1.62 4.6 5.67 5.67 0 01-4.36 1.73zm.14-10.94a3.66 3.66 0 00-2.93 1.26 5.22 5.22 0 00-1.07 3.47 4.9 4.9 0 001.09 3.37 3.69 3.69 0 002.91 1.23 3.53 3.53 0 002.87-1.21 5.23 5.23 0 001-3.43 5.32 5.32 0 00-1-3.47 3.48 3.48 0 00-2.87-1.2zm18.87 10.66h-1.92v-6.84q0-3.82-2.79-3.82a3 3 0 00-2.38 1.08 4 4 0 00-1 2.74v6.84h-1.92v-12h1.92v2a4.34 4.34 0 013.94-2.27 3.67 3.67 0 013 1.27 5.7 5.7 0 011 3.68zm2.9-.43v-2.06a5.69 5.69 0 003.45 1.16c1.69 0 2.53-.57 2.53-1.69a1.54 1.54 0 00-.21-.82 2.21 2.21 0 00-.59-.59 4.41 4.41 0 00-.87-.46l-1.07-.43a12.48 12.48 0 01-1.4-.64 4.14 4.14 0 01-1-.72 2.79 2.79 0 01-.61-.92 3.45 3.45 0 01-.2-1.21 2.83 2.83 0 01.39-1.49 3.25 3.25 0 011-1.09 4.7 4.7 0 011.47-.67 6.45 6.45 0 011.7-.22 6.87 6.87 0 012.79.54v1.94a5.49 5.49 0 00-3-.86 3.7 3.7 0 00-1 .12 2.31 2.31 0 00-.74.35 1.43 1.43 0 00-.48.53 1.36 1.36 0 00-.17.69 1.55 1.55 0 00.17.78 1.65 1.65 0 00.5.56 3.28 3.28 0 00.79.45c.32.13.67.28 1.07.43a13 13 0 011.43.63 4.86 4.86 0 011.08.73 2.83 2.83 0 01.68.93 3.32 3.32 0 01-.15 2.8 3.31 3.31 0 01-1 1.09 4.78 4.78 0 01-1.51.64 7.5 7.5 0 01-1.79.21 6.85 6.85 0 01-3.26-.71zm15.92.71a5.58 5.58 0 01-4.25-1.68 6.27 6.27 0 01-1.58-4.46 6.49 6.49 0 011.65-4.72 6 6 0 014.46-1.7 5.38 5.38 0 014.19 1.65 6.52 6.52 0 011.51 4.58 6.44 6.44 0 01-1.62 4.6 5.69 5.69 0 01-4.36 1.73zm.14-10.94a3.66 3.66 0 00-2.93 1.26 5.17 5.17 0 00-1.08 3.47 5 5 0 001.09 3.37 3.71 3.71 0 002.92 1.23 3.54 3.54 0 002.87-1.21 5.23 5.23 0 001-3.43 5.32 5.32 0 00-1-3.47 3.49 3.49 0 00-2.87-1.2zm10.8 10.66h-1.92v-17.76h1.92zm13.57-5.52h-8.48a4.49 4.49 0 001.08 3.1 3.74 3.74 0 002.84 1.09 5.88 5.88 0 003.72-1.34v1.8a6.92 6.92 0 01-4.18 1.15 5.07 5.07 0 01-4-1.63 6.73 6.73 0 01-1.45-4.6 6.57 6.57 0 011.59-4.57 5.1 5.1 0 013.94-1.76 4.54 4.54 0 013.65 1.52 6.36 6.36 0 011.29 4.23zm-2-1.63a3.91 3.91 0 00-.81-2.59 2.74 2.74 0 00-2.19-.92 3.09 3.09 0 00-2.31 1 4.39 4.39 0 00-1.17 2.54zm24.74 7.15h-2.18l-1.78-4.71h-7.12l-1.68 4.71h-2.19l6.44-16.8h2zm-4.6-6.48l-2.64-7.16a6.75 6.75 0 01-.26-1.12 5.84 5.84 0 01-.26 1.12l-2.62 7.16zm9.04.13v6.35h-2v-16.8h4.62a6.07 6.07 0 014.18 1.31 4.67 4.67 0 011.48 3.7 5.12 5.12 0 01-1.64 3.92 6.32 6.32 0 01-4.45 1.52zm0-8.67v6.89h2.07a4.62 4.62 0 003.11-.93A3.31 3.31 0 001202 415q0-3.33-3.94-3.33zm15.09-1.78v1.68h-1.65V425h1.65v1.69h-5.25V425h1.64v-13.48h-1.64v-1.68z"/><path d="M98.3 537.59a16.53 16.53 0 013-.25 5 5 0 013.51 1 3 3 0 011 2.3 3.19 3.19 0 01-2.28 3.1v.06a3 3 0 011.78 2.44 19.15 19.15 0 00.93 3.34h-1.62a17.57 17.57 0 01-.81-2.9c-.36-1.68-1-2.31-2.43-2.36h-1.51v5.26H98.3zm1.57 5.53h1.6c1.67 0 2.74-.92 2.74-2.31 0-1.56-1.14-2.25-2.79-2.26a6.6 6.6 0 00-1.55.14zm15.35 4.07c0 .9 0 1.69.07 2.38h-1.4l-.09-1.43a3.25 3.25 0 01-2.88 1.62c-1.37 0-3-.75-3-3.81v-5.1h1.58v4.83c0 1.65.51 2.77 2 2.77a2.25 2.25 0 002.23-2.25v-5.35h1.58zm2.63-3.98c0-.9 0-1.64-.07-2.36h1.4l.09 1.44a3.2 3.2 0 012.88-1.64c1.2 0 3.08.72 3.08 3.71v5.21h-1.59v-5c0-1.4-.52-2.57-2-2.57a2.25 2.25 0 00-2.13 1.62 2.35 2.35 0 00-.11.74v5.24h-1.58zm9.77 4.79a4.23 4.23 0 002.09.63c1.15 0 1.69-.58 1.69-1.3s-.45-1.17-1.62-1.6c-1.56-.56-2.3-1.43-2.3-2.47 0-1.41 1.13-2.56 3-2.56a4.46 4.46 0 012.15.54l-.4 1.16a3.33 3.33 0 00-1.78-.51c-.94 0-1.46.54-1.46 1.19s.52 1 1.66 1.48c1.51.57 2.28 1.33 2.28 2.62 0 1.54-1.18 2.62-3.26 2.62a4.94 4.94 0 01-2.44-.6zm10.95 0a4.16 4.16 0 002.08.63c1.16 0 1.7-.58 1.7-1.3s-.45-1.17-1.62-1.6c-1.57-.56-2.31-1.43-2.31-2.47 0-1.41 1.14-2.56 3-2.56a4.42 4.42 0 012.14.54l-.39 1.16a3.41 3.41 0 00-1.79-.51c-.93 0-1.46.54-1.46 1.19s.53 1 1.66 1.48c1.51.57 2.29 1.33 2.29 2.62 0 1.54-1.19 2.62-3.26 2.62a5 5 0 01-2.45-.6zm9.1-9.6a.93.93 0 01-1 1 1 1 0 01-1-1 1 1 0 011-1 .93.93 0 011 1zm-1.76 11.17v-8.72h1.58v8.72zm4.21-6.36c0-.9 0-1.64-.07-2.36h1.4l.09 1.44a3.2 3.2 0 012.88-1.64c1.21 0 3.08.72 3.08 3.71v5.21H156v-5c0-1.4-.53-2.57-2-2.57a2.25 2.25 0 00-2.13 1.62 2.37 2.37 0 00-.1.74v5.24h-1.59zm17.5-2.36c0 .63-.07 1.33-.07 2.4v5c0 2-.4 3.23-1.24 4a4.65 4.65 0 01-3.17 1 5.59 5.59 0 01-2.9-.72l.39-1.21a4.94 4.94 0 002.56.69c1.62 0 2.81-.85 2.81-3.05v-1a3.1 3.1 0 01-2.77 1.46c-2.16 0-3.71-1.84-3.71-4.25 0-2.95 1.93-4.63 3.93-4.63a2.91 2.91 0 012.72 1.52l.07-1.32zm-1.62 3.44a2.33 2.33 0 00-.09-.72 2.27 2.27 0 00-2.21-1.67c-1.52 0-2.6 1.27-2.6 3.29 0 1.71.87 3.13 2.58 3.13a2.33 2.33 0 002.2-1.62 2.71 2.71 0 00.12-.84zm4.17-7.51h1.59v12.79h-1.59zm5.13 8.72a2.79 2.79 0 003 3 5.8 5.8 0 002.42-.45l.27 1.14a7.13 7.13 0 01-2.9.54 4.05 4.05 0 01-4.29-4.4c0-2.63 1.55-4.7 4.09-4.7 2.84 0 3.6 2.51 3.6 4.11v.74zm4.65-1.14a2.25 2.25 0 00-2.2-2.57 2.62 2.62 0 00-2.43 2.57zm7.67-.25v1.17h-4.45v-1.17zm1.85-.41c0-1.12 0-2-.07-2.85h1.42l.07 1.5a3.41 3.41 0 013.09-1.7c2.11 0 3.7 1.79 3.7 4.43 0 3.14-1.91 4.68-4 4.68a3.05 3.05 0 01-2.68-1.36v4.73h-1.57zM191 546a3.32 3.32 0 00.07.65 2.44 2.44 0 002.37 1.85c1.68 0 2.65-1.37 2.65-3.37 0-1.74-.92-3.24-2.59-3.24a2.54 2.54 0 00-2.4 2 2.67 2.67 0 00-.1.64zm13.54 3.57l-.13-1.1a3.27 3.27 0 01-2.67 1.29 2.48 2.48 0 01-2.66-2.5c0-2.11 1.87-3.26 5.24-3.24v-.18a1.8 1.8 0 00-2-2 4.4 4.4 0 00-2.27.65l-.36-1a5.38 5.38 0 012.86-.78c2.66 0 3.31 1.82 3.31 3.57v3.26a12.14 12.14 0 00.15 2.09zm-.24-4.45c-1.73 0-3.69.27-3.69 2a1.4 1.4 0 001.5 1.51 2.16 2.16 0 002.1-1.46 1.47 1.47 0 00.09-.5zm11.6-4.27c0 .63-.08 1.33-.08 2.4v5c0 2-.39 3.23-1.24 4a4.63 4.63 0 01-3.17 1 5.64 5.64 0 01-2.9-.72l.4-1.21a4.94 4.94 0 002.56.69c1.62 0 2.8-.85 2.8-3.05v-1a3.11 3.11 0 01-2.77 1.46c-2.17 0-3.71-1.84-3.71-4.25 0-2.95 1.92-4.63 3.92-4.63a2.91 2.91 0 012.72 1.52l.07-1.32zm-1.64 3.44a2.33 2.33 0 00-.09-.72 2.29 2.29 0 00-2.17-1.67c-1.51 0-2.59 1.27-2.59 3.29 0 1.71.86 3.13 2.57 3.13a2.31 2.31 0 002.2-1.62 2.72 2.72 0 00.13-.84zm5.07 1.21a2.79 2.79 0 003 3 5.75 5.75 0 002.41-.45l.27 1.14a7.09 7.09 0 01-2.9.54 4 4 0 01-4.28-4.4c0-2.63 1.55-4.7 4.09-4.7 2.84 0 3.6 2.51 3.6 4.11a5.61 5.61 0 01-.06.74zm4.65-1.14a2.26 2.26 0 00-2.2-2.57 2.62 2.62 0 00-2.43 2.57zM77.37 569.57l-.13-1.1a3.26 3.26 0 01-2.67 1.29 2.48 2.48 0 01-2.66-2.5c0-2.11 1.87-3.26 5.24-3.24v-.18a1.8 1.8 0 00-2-2 4.4 4.4 0 00-2.27.65l-.36-1a5.38 5.38 0 012.86-.78c2.67 0 3.31 1.82 3.31 3.57v3.26a12.14 12.14 0 00.15 2.09zm-.24-4.45c-1.72 0-3.69.27-3.69 2a1.4 1.4 0 001.5 1.51 2.16 2.16 0 002.1-1.46 1.47 1.47 0 00.09-.5zm4.09-1.42c0-1.12 0-2-.07-2.85h1.42l.07 1.5a3.4 3.4 0 013.09-1.7c2.11 0 3.7 1.79 3.7 4.43 0 3.14-1.91 4.68-4 4.68a3.05 3.05 0 01-2.68-1.36v4.73h-1.53zm1.56 2.3a3.3 3.3 0 00.08.65 2.43 2.43 0 002.37 1.85c1.68 0 2.65-1.37 2.65-3.37 0-1.74-.92-3.24-2.59-3.24a2.54 2.54 0 00-2.4 2 2.68 2.68 0 00-.11.64zm8.68-2.3c0-1.12 0-2-.07-2.85h1.42l.07 1.5a3.42 3.42 0 013.1-1.7c2.1 0 3.69 1.79 3.69 4.43 0 3.14-1.91 4.68-4 4.68a3.06 3.06 0 01-2.69-1.36v4.73h-1.52zM93 566a3.32 3.32 0 00.07.65 2.44 2.44 0 002.38 1.85c1.67 0 2.64-1.37 2.64-3.37 0-1.74-.92-3.24-2.59-3.24a2.54 2.54 0 00-2.4 2 2.67 2.67 0 00-.1.64zm8.7-9.22h1.59v12.79h-1.59zm6.01 1.62a.93.93 0 01-1 1 1 1 0 01-1-1 1 1 0 011-1 .93.93 0 011 1zM106 569.57v-8.72h1.58v8.72zm10.37-.33a5.73 5.73 0 01-2.5.51 4.14 4.14 0 01-4.34-4.45 4.43 4.43 0 014.68-4.63 5.39 5.39 0 012.2.45l-.36 1.23a3.63 3.63 0 00-1.84-.42 3.29 3.29 0 000 6.56 4.44 4.44 0 001.94-.44zm6.68.33l-.12-1.1h-.06a3.25 3.25 0 01-2.66 1.29 2.48 2.48 0 01-2.67-2.5c0-2.11 1.87-3.26 5.24-3.24v-.18a1.8 1.8 0 00-2-2 4.4 4.4 0 00-2.27.65l-.36-1a5.4 5.4 0 012.86-.78c2.67 0 3.32 1.82 3.32 3.57v3.26a12.2 12.2 0 00.14 2.09zm-.23-4.45c-1.73 0-3.69.27-3.69 2a1.4 1.4 0 001.49 1.51 2.18 2.18 0 002.11-1.46 1.76 1.76 0 00.09-.5zm5.92-6.77v2.5H131v1.21h-2.27v4.7c0 1.08.3 1.69 1.19 1.69a3.18 3.18 0 00.91-.11l.08 1.19a3.84 3.84 0 01-1.41.22 2.2 2.2 0 01-1.71-.67 3.23 3.23 0 01-.61-2.27v-4.75h-1.35v-1.21h1.35v-2.09zm5.81.05a1 1 0 11-2 0 1 1 0 011-1 .94.94 0 011 1zm-1.76 11.17v-8.72h1.58v8.72zm12.1-4.43a4.26 4.26 0 01-4.34 4.62 4.14 4.14 0 01-4.18-4.48c0-2.92 1.91-4.63 4.32-4.63s4.2 1.82 4.2 4.49zm-6.92.09c0 1.9 1.1 3.35 2.65 3.35s2.65-1.43 2.65-3.39c0-1.47-.74-3.35-2.62-3.35s-2.65 1.73-2.65 3.39zm8.91-2.02c0-.9 0-1.64-.07-2.36h1.4l.09 1.44a3.2 3.2 0 012.88-1.64c1.21 0 3.08.72 3.08 3.71v5.21h-1.58v-5c0-1.4-.53-2.57-2-2.57a2.25 2.25 0 00-2.13 1.62 2.37 2.37 0 00-.1.74v5.24h-1.59zm9.78 4.79a4.16 4.16 0 002.08.63c1.16 0 1.7-.58 1.7-1.3s-.45-1.17-1.62-1.6c-1.57-.56-2.31-1.43-2.31-2.47 0-1.41 1.14-2.56 3-2.56a4.45 4.45 0 012.14.54l-.4 1.16a3.33 3.33 0 00-1.78-.51c-.93 0-1.46.54-1.46 1.19s.53 1 1.66 1.48c1.51.57 2.29 1.33 2.29 2.62 0 1.54-1.19 2.62-3.26 2.62a5 5 0 01-2.45-.6zm12.92-9.6a1 1 0 11-2 0 1 1 0 011-1 .94.94 0 011 1zm-1.76 11.17v-8.72h1.58v8.72zm4.18-6.36c0-.9 0-1.64-.08-2.36h1.41l.09 1.44a3.2 3.2 0 012.88-1.64c1.2 0 3.08.72 3.08 3.71v5.21h-1.59v-5c0-1.4-.52-2.57-2-2.57a2.25 2.25 0 00-2.12 1.62 2.35 2.35 0 00-.11.74v5.24H172zm14.46-2.36l1.16 4.43c.25 1 .48 1.87.64 2.77h.06c.2-.88.48-1.82.77-2.75l1.42-4.45h1.34l1.35 4.36c.32 1 .57 2 .77 2.84h.03a24.47 24.47 0 01.66-2.82l1.24-4.38h1.57l-2.81 8.72h-1.44l-1.33-4.16a29.51 29.51 0 01-.78-2.87 27.31 27.31 0 01-.79 2.88l-1.41 4.15h-1.44l-2.63-8.72zm13.32 4.65a2.79 2.79 0 003 3 5.71 5.71 0 002.41-.45l.27 1.14a7 7 0 01-2.89.54 4.05 4.05 0 01-4.29-4.4c0-2.63 1.55-4.7 4.09-4.7 2.84 0 3.6 2.51 3.6 4.11a5.61 5.61 0 01-.06.74zm4.65-1.14a2.25 2.25 0 00-2.2-2.57 2.62 2.62 0 00-2.43 2.57zm3.42 5.21c0-.6.07-1.48.07-2.26v-10.53h1.57v5.48a3.24 3.24 0 013-1.61c2.16 0 3.69 1.8 3.68 4.45 0 3.12-2 4.66-3.91 4.66a3.11 3.11 0 01-2.92-1.63h-.05l-.07 1.44zm1.64-3.5a2.71 2.71 0 00.07.58 2.43 2.43 0 002.37 1.85c1.66 0 2.65-1.35 2.65-3.35 0-1.74-.9-3.24-2.59-3.24a2.54 2.54 0 00-2.42 2 3.6 3.6 0 00-.08.65zm9.16-5.22l1.71 4.9a21.68 21.68 0 01.7 2.23h.05c.2-.72.45-1.44.74-2.23l1.69-4.9h1.66l-3.42 8.72h-1.51l-3.27-8.72zm9.81-2.45a1 1 0 01-2 0 1 1 0 011-1 .94.94 0 011 1zm-1.77 11.17v-8.72h1.59v8.72zm5.1-4.07a2.78 2.78 0 003 3 5.78 5.78 0 002.41-.45l.27 1.14a7.09 7.09 0 01-2.9.54 4.06 4.06 0 01-4.29-4.4c0-2.63 1.55-4.7 4.09-4.7 2.85 0 3.6 2.51 3.6 4.11a6 6 0 01-.05.74zm4.64-1.14a2.25 2.25 0 00-2.19-2.57 2.63 2.63 0 00-2.44 2.57zm4.12-3.51l1.16 4.43c.25 1 .48 1.87.64 2.77h.06c.2-.88.48-1.82.77-2.75l1.42-4.45h1.34l1.35 4.36c.32 1 .57 2 .77 2.84h.05a26.94 26.94 0 01.67-2.82l1.24-4.38h1.57l-2.81 8.72h-1.44l-1.34-4.16a29.51 29.51 0 01-.78-2.87 27.31 27.31 0 01-.79 2.88l-1.43 4.15h-1.44l-2.63-8.72zm58.01-23.26a16.42 16.42 0 013-.25 5 5 0 013.51 1 3 3 0 011 2.3 3.18 3.18 0 01-2.29 3.1v.06a3 3 0 011.78 2.44 19.8 19.8 0 00.94 3.34h-1.62a15.68 15.68 0 01-.81-2.9c-.36-1.68-1-2.31-2.43-2.36h-1.48v5.26h-1.56zm1.56 5.53h1.6c1.68 0 2.74-.92 2.74-2.31 0-1.56-1.13-2.25-2.79-2.26a6.6 6.6 0 00-1.55.14zm15.36 4.07c0 .9 0 1.69.07 2.38h-1.4l-.09-1.43a3.25 3.25 0 01-2.88 1.62c-1.37 0-3-.75-3-3.81v-5.1h1.59v4.83c0 1.65.5 2.77 1.94 2.77a2.22 2.22 0 002.23-2.25v-5.35h1.59zm2.62-3.98c0-.9 0-1.64-.07-2.36h1.41l.09 1.44a3.2 3.2 0 012.88-1.64c1.21 0 3.08.72 3.08 3.71v5.21h-1.58v-5c0-1.4-.52-2.57-2-2.57a2.25 2.25 0 00-2.12 1.62 2.1 2.1 0 00-.11.74v5.24h-1.58zm9.78 4.79a4.2 4.2 0 002.09.63c1.15 0 1.69-.58 1.69-1.3s-.45-1.17-1.62-1.6c-1.57-.56-2.31-1.43-2.31-2.47 0-1.41 1.14-2.56 3-2.56a4.42 4.42 0 012.14.54l-.39 1.16a3.41 3.41 0 00-1.79-.51c-.93 0-1.45.54-1.45 1.19s.52 1 1.65 1.48c1.51.57 2.29 1.33 2.29 2.62 0 1.54-1.19 2.62-3.26 2.62a5 5 0 01-2.45-.6zm18.68-11.22v10.53c0 .78 0 1.66.08 2.26h-1.43l-.07-1.52a3.22 3.22 0 01-3 1.71c-2.1 0-3.72-1.78-3.72-4.43 0-2.89 1.78-4.68 3.9-4.68a2.89 2.89 0 012.63 1.34v-5.21zM345 544.4a3.05 3.05 0 00-.07-.67 2.33 2.33 0 00-2.29-1.83c-1.64 0-2.61 1.44-2.61 3.36s.86 3.23 2.57 3.23a2.39 2.39 0 002.33-1.89 3 3 0 00.07-.69zm12.08.74a4.26 4.26 0 01-4.34 4.62 4.14 4.14 0 01-4.18-4.48c0-2.92 1.91-4.63 4.32-4.63s4.2 1.82 4.2 4.49zm-6.92.09c0 1.9 1.1 3.35 2.65 3.35s2.64-1.43 2.64-3.39c0-1.47-.73-3.35-2.61-3.35s-2.68 1.73-2.68 3.39zm15.12 4.01a5.73 5.73 0 01-2.5.51 4.14 4.14 0 01-4.34-4.45 4.43 4.43 0 014.68-4.63 5.39 5.39 0 012.2.45l-.36 1.23a3.63 3.63 0 00-1.84-.42 3.29 3.29 0 00-.05 6.56 4.44 4.44 0 001.94-.44zm3.42-4.39c.21-.31.52-.69.77-1l2.56-3H374l-3.37 3.58 3.84 5.14h-1.93l-3-4.18-.81.9v3.28h-1.57v-12.79h1.57zm7.76.65a2.79 2.79 0 003 3 5.75 5.75 0 002.41-.45l.27 1.14a7.09 7.09 0 01-2.9.54 4 4 0 01-4.28-4.4c0-2.63 1.55-4.7 4.08-4.7 2.85 0 3.6 2.51 3.6 4.11a6 6 0 01-.05.74zm4.64-1.14a2.25 2.25 0 00-2.19-2.57 2.62 2.62 0 00-2.43 2.57zm3.49-.79c0-1 0-1.91-.07-2.72h1.39v1.71h.09a2.61 2.61 0 012.41-1.91 1.58 1.58 0 01.45.06v1.49a2.84 2.84 0 00-.54-.05 2.22 2.22 0 00-2.13 2 5.32 5.32 0 00-.07.74v4.65h-1.57zm14.53 6l-.12-1.1h-.06a3.24 3.24 0 01-2.66 1.29 2.48 2.48 0 01-2.67-2.5c0-2.11 1.88-3.26 5.24-3.24v-.18a1.8 1.8 0 00-2-2 4.43 4.43 0 00-2.27.65l-.36-1a5.41 5.41 0 012.87-.78c2.66 0 3.31 1.82 3.31 3.57v3.26a12.2 12.2 0 00.14 2.09zm-.23-4.45c-1.73 0-3.69.27-3.69 2a1.4 1.4 0 001.49 1.51 2.16 2.16 0 002.11-1.46 1.76 1.76 0 00.09-.5zm4.11-1.42c0-1.12 0-2-.07-2.85h1.42l.07 1.5a3.43 3.43 0 013.1-1.7c2.1 0 3.69 1.79 3.69 4.43 0 3.14-1.91 4.68-4 4.68a3.08 3.08 0 01-2.69-1.36v4.73H403zm1.57 2.32a3.32 3.32 0 00.07.65 2.44 2.44 0 002.38 1.85c1.67 0 2.64-1.37 2.64-3.37 0-1.74-.91-3.24-2.59-3.24a2.52 2.52 0 00-2.39 2 2.26 2.26 0 00-.11.64zm8.64-2.32c0-1.12 0-2-.07-2.85h1.42l.08 1.5a3.43 3.43 0 013.1-1.7c2.11 0 3.69 1.79 3.69 4.43 0 3.14-1.91 4.68-4 4.68a3.05 3.05 0 01-2.68-1.36v4.73h-1.57zm1.57 2.32a4.31 4.31 0 00.07.65 2.44 2.44 0 002.38 1.85c1.67 0 2.65-1.37 2.65-3.37 0-1.74-.92-3.24-2.6-3.24a2.52 2.52 0 00-2.39 2 2.26 2.26 0 00-.11.64zm8.46 1.98a4.23 4.23 0 002.09.63c1.15 0 1.69-.58 1.69-1.3s-.45-1.17-1.62-1.6c-1.57-.56-2.3-1.43-2.3-2.47 0-1.41 1.13-2.56 3-2.56a4.49 4.49 0 012.15.54l-.4 1.16a3.33 3.33 0 00-1.78-.51c-.94 0-1.46.54-1.46 1.19s.52 1 1.65 1.48c1.52.57 2.29 1.33 2.29 2.62 0 1.54-1.19 2.62-3.26 2.62a5 5 0 01-2.45-.6zm11.76-7.15l1.15 4.43c.25 1 .49 1.87.65 2.77h.05c.2-.88.49-1.82.78-2.75l1.42-4.45h1.33l1.35 4.36c.33 1 .58 2 .78 2.84a26.94 26.94 0 01.67-2.82l1.24-4.38h1.57l-2.81 8.72h-1.44l-1.33-4.16a29.51 29.51 0 01-.78-2.87 25.07 25.07 0 01-.8 2.88l-1.4 4.15H436l-2.63-8.72zm14.41-2.45a1 1 0 11-2 0 1 1 0 011-1 .94.94 0 011 1zm-1.76 11.17v-8.72h1.58v8.72zm6.12-11.22v2.5H456v1.21h-2.27v4.7c0 1.08.3 1.69 1.19 1.69a3.18 3.18 0 00.91-.11l.08 1.19a3.84 3.84 0 01-1.41.22 2.2 2.2 0 01-1.71-.67 3.23 3.23 0 01-.61-2.27v-4.75h-1.35v-1.21h1.35v-2.09zm4.05-1.57h1.58v5.44a3 3 0 011.13-1.12 3.28 3.28 0 011.62-.45c1.17 0 3.05.72 3.05 3.73v5.19h-1.59v-5c0-1.4-.52-2.59-2-2.59a2.28 2.28 0 00-2.12 1.58 1.94 1.94 0 00-.11.76v5.26h-1.58zm21.69 8.36a4.25 4.25 0 01-4.34 4.62 4.14 4.14 0 01-4.18-4.48c0-2.92 1.91-4.63 4.32-4.63s4.2 1.82 4.2 4.49zm-6.91.09c0 1.9 1.09 3.35 2.64 3.35s2.65-1.43 2.65-3.39c0-1.47-.74-3.35-2.61-3.35s-2.68 1.73-2.68 3.39zm8.91-2.02c0-.9 0-1.64-.08-2.36h1.41l.09 1.44a3.21 3.21 0 012.88-1.64c1.21 0 3.08.72 3.08 3.71v5.21h-1.58v-5c0-1.4-.52-2.57-2-2.57a2.25 2.25 0 00-2.12 1.62 2.35 2.35 0 00-.11.74v5.24h-1.58zm10.87 2.29a2.78 2.78 0 003 3 5.78 5.78 0 002.41-.45l.27 1.14a7.09 7.09 0 01-2.9.54 4.06 4.06 0 01-4.29-4.4c0-2.63 1.55-4.7 4.09-4.7 2.85 0 3.6 2.51 3.6 4.11a6 6 0 01-.05.74zm4.64-1.14a2.25 2.25 0 00-2.19-2.57 2.61 2.61 0 00-2.43 2.57zm15.2.78a4.26 4.26 0 01-4.34 4.62 4.14 4.14 0 01-4.18-4.48c0-2.92 1.91-4.63 4.32-4.63s4.2 1.82 4.2 4.49zm-6.92.09c0 1.9 1.1 3.35 2.65 3.35s2.64-1.43 2.64-3.39c0-1.47-.73-3.35-2.61-3.35s-2.68 1.73-2.68 3.39zm8.91-1.66c0-1 0-1.91-.07-2.72h1.39l.05 1.71h.07a2.62 2.62 0 012.41-1.91 1.53 1.53 0 01.45.06v1.49a2.76 2.76 0 00-.54-.05 2.22 2.22 0 00-2.12 2 4.14 4.14 0 00-.07.74v4.65h-1.57zm-165.94 19.64c0-.9 0-1.64-.07-2.36h1.39l.07 1.41a3 3 0 012.74-1.61 2.56 2.56 0 012.46 1.75 3.52 3.52 0 011-1.13 3 3 0 011.93-.62c1.15 0 2.86.76 2.86 3.78v5.14h-1.55v-4.94c0-1.67-.61-2.68-1.89-2.68a2.05 2.05 0 00-1.87 1.44 2.66 2.66 0 00-.13.79v5.39h-1.54v-5.23c0-1.38-.62-2.39-1.82-2.39a2.16 2.16 0 00-2 1.58 2.24 2.24 0 00-.13.78v5.26h-1.55zm22.9 1.93a4.25 4.25 0 01-4.34 4.62 4.14 4.14 0 01-4.18-4.48c0-2.92 1.91-4.63 4.32-4.63s4.2 1.82 4.2 4.49zm-6.91.09c0 1.9 1.09 3.35 2.64 3.35s2.65-1.43 2.65-3.39c0-1.47-.74-3.35-2.61-3.35s-2.68 1.73-2.68 3.39zm8.9-1.66c0-1 0-1.91-.07-2.72h1.39v1.71h.08a2.61 2.61 0 012.41-1.91 1.58 1.58 0 01.45.06v1.49a2.84 2.84 0 00-.54-.05 2.22 2.22 0 00-2.13 2 5.32 5.32 0 00-.07.74v4.65h-1.57zm6.59 1.93a2.79 2.79 0 003 3 5.71 5.71 0 002.41-.45l.27 1.14a7 7 0 01-2.89.54 4.05 4.05 0 01-4.29-4.4c0-2.63 1.55-4.7 4.09-4.7 2.84 0 3.6 2.51 3.6 4.11a5.61 5.61 0 01-.06.74zm4.65-1.14a2.25 2.25 0 00-2.2-2.57 2.62 2.62 0 00-2.43 2.57zm13.52 4.88a5.82 5.82 0 01-2.51.51 4.14 4.14 0 01-4.34-4.45 4.44 4.44 0 014.69-4.63 5.38 5.38 0 012.19.45l-.36 1.23a3.61 3.61 0 00-1.83-.42 3 3 0 00-3.08 3.3 3 3 0 003 3.26 4.49 4.49 0 001.95-.44zm9.63-4.1a4.26 4.26 0 01-4.34 4.62 4.14 4.14 0 01-4.18-4.48c0-2.92 1.91-4.63 4.32-4.63s4.2 1.82 4.2 4.49zm-6.92.09c0 1.9 1.1 3.35 2.65 3.35s2.65-1.43 2.65-3.39c0-1.47-.74-3.35-2.61-3.35s-2.69 1.73-2.69 3.39zm8.91-2.02c0-.9 0-1.64-.07-2.36h1.4l.09 1.44a3.2 3.2 0 012.88-1.64c1.21 0 3.08.72 3.08 3.71v5.21h-1.58v-5c0-1.4-.53-2.57-2-2.57a2.26 2.26 0 00-2.13 1.62 2.37 2.37 0 00-.1.74v5.24h-1.59zm11.83-4.86v2.5h2.27v1.21h-2.27v4.7c0 1.08.31 1.69 1.19 1.69a3.31 3.31 0 00.92-.11l.07 1.19a3.8 3.8 0 01-1.41.22 2.2 2.2 0 01-1.71-.67 3.23 3.23 0 01-.61-2.27v-4.75h-1.35v-1.21h1.35v-2.09zm8.87 11.22l-.12-1.1h-.06a3.24 3.24 0 01-2.66 1.29 2.48 2.48 0 01-2.67-2.5c0-2.11 1.88-3.26 5.24-3.24v-.18a1.79 1.79 0 00-2-2 4.43 4.43 0 00-2.27.65l-.36-1a5.41 5.41 0 012.87-.78c2.66 0 3.31 1.82 3.31 3.57v3.26a13.31 13.31 0 00.14 2.09zm-.23-4.45c-1.73 0-3.69.27-3.69 2a1.4 1.4 0 001.49 1.51 2.16 2.16 0 002.11-1.46 1.76 1.76 0 00.09-.5zm5.85-6.72a1 1 0 11-2 0 1 1 0 011-1 .94.94 0 011 1zm-1.77 11.17v-8.72h1.59v8.72zm4.22-6.36c0-.9 0-1.64-.08-2.36h1.41l.09 1.44a3.22 3.22 0 012.89-1.64c1.2 0 3.07.72 3.07 3.71v5.21h-1.58v-5c0-1.4-.52-2.57-2-2.57a2.25 2.25 0 00-2.12 1.62 2.35 2.35 0 00-.11.74v5.24h-1.58zm10.87 2.29a2.78 2.78 0 003 3 5.75 5.75 0 002.41-.45l.27 1.14a7.09 7.09 0 01-2.9.54 4 4 0 01-4.28-4.4c0-2.63 1.54-4.7 4.08-4.7 2.85 0 3.6 2.51 3.6 4.11a6 6 0 01-.05.74zm4.64-1.14a2.25 2.25 0 00-2.19-2.57 2.61 2.61 0 00-2.43 2.57zm3.49-.79c0-1 0-1.91-.07-2.72h1.39l.05 1.71h.07a2.62 2.62 0 012.42-1.91 1.58 1.58 0 01.45.06v1.49a2.92 2.92 0 00-.54-.05 2.22 2.22 0 00-2.13 2 5.32 5.32 0 00-.07.74v4.65h-1.57zM463 568a4.23 4.23 0 002.09.63c1.15 0 1.69-.58 1.69-1.3s-.45-1.17-1.62-1.6c-1.56-.56-2.3-1.43-2.3-2.47 0-1.41 1.13-2.56 3-2.56a4.45 4.45 0 012.14.54l-.4 1.16a3.33 3.33 0 00-1.78-.51c-.94 0-1.46.54-1.46 1.19s.52 1 1.66 1.48c1.51.57 2.29 1.33 2.29 2.62 0 1.54-1.19 2.62-3.26 2.62a5 5 0 01-2.45-.6zm121.92-24.12h-4.71v4.37h5.25v1.32h-6.82v-12.14h6.55v1.31h-5v3.84h4.71zm3.01-3.03l1.71 4.9a21.68 21.68 0 01.7 2.23c.2-.72.45-1.44.74-2.23l1.7-4.9h1.65l-3.42 8.72h-1.51l-3.31-8.72zm8.75 4.65a2.78 2.78 0 003 3 5.8 5.8 0 002.42-.45l.27 1.14a7.09 7.09 0 01-2.9.54 4.06 4.06 0 01-4.29-4.4c0-2.63 1.55-4.7 4.09-4.7 2.85 0 3.6 2.51 3.6 4.11a6 6 0 01-.05.74zm4.64-1.14a2.25 2.25 0 00-2.2-2.57 2.62 2.62 0 00-2.43 2.57zm3.49-1.15c0-.9 0-1.64-.07-2.36h1.4l.09 1.44a3.2 3.2 0 012.88-1.64c1.21 0 3.08.72 3.08 3.71v5.21h-1.58v-5c0-1.4-.53-2.57-2-2.57a2.25 2.25 0 00-2.13 1.62 2.37 2.37 0 00-.1.74v5.24h-1.59zm11.83-4.86v2.5h2.27v1.21h-2.27v4.7c0 1.08.3 1.69 1.19 1.69a3.18 3.18 0 00.91-.11l.08 1.19a3.84 3.84 0 01-1.41.22 2.2 2.2 0 01-1.71-.67 3.23 3.23 0 01-.61-2.27v-4.75h-1.35v-1.21h1.35v-2.09zm7.65 9.65a4.2 4.2 0 002.09.63c1.15 0 1.69-.58 1.69-1.3s-.45-1.17-1.62-1.6c-1.57-.56-2.31-1.43-2.31-2.47 0-1.41 1.14-2.56 3-2.56a4.42 4.42 0 012.14.54l-.39 1.16a3.41 3.41 0 00-1.79-.51c-.93 0-1.45.54-1.45 1.19s.52 1 1.65 1.48c1.51.57 2.29 1.33 2.29 2.62 0 1.54-1.19 2.62-3.26 2.62a5 5 0 01-2.45-.6zm9.25-9.65v2.5h2.27v1.21h-2.27v4.7c0 1.08.31 1.69 1.19 1.69a3.31 3.31 0 00.92-.11l.07 1.19a3.8 3.8 0 01-1.41.22 2.22 2.22 0 01-1.71-.67 3.23 3.23 0 01-.61-2.27v-4.75h-1.35v-1.21H632v-2.09zm4.05 5.22c0-1 0-1.91-.07-2.72h1.38l.06 1.71h.04a2.62 2.62 0 012.41-1.91 1.53 1.53 0 01.45.06v1.49a2.76 2.76 0 00-.54-.05 2.21 2.21 0 00-2.12 2 4.14 4.14 0 00-.07.74v4.65h-1.57zm6.59 1.93a2.78 2.78 0 003 3 5.78 5.78 0 002.41-.45l.27 1.14a7.09 7.09 0 01-2.9.54 4.06 4.06 0 01-4.29-4.4c0-2.63 1.55-4.7 4.09-4.7 2.85 0 3.6 2.51 3.6 4.11a6 6 0 01-.05.74zm4.64-1.14a2.25 2.25 0 00-2.19-2.57 2.61 2.61 0 00-2.43 2.57zm8.32 5.21l-.13-1.1a3.26 3.26 0 01-2.67 1.29 2.48 2.48 0 01-2.66-2.5c0-2.11 1.87-3.26 5.24-3.24v-.18a1.8 1.8 0 00-2-2 4.4 4.4 0 00-2.27.65l-.36-1a5.38 5.38 0 012.86-.78c2.67 0 3.31 1.82 3.31 3.57v3.26a12.14 12.14 0 00.15 2.09zm-.24-4.45c-1.72 0-3.69.27-3.69 2a1.4 1.4 0 001.5 1.51 2.16 2.16 0 002.1-1.46 1.47 1.47 0 00.09-.5zm4.1-1.91c0-.9 0-1.64-.07-2.36h1.38l.08 1.41a3 3 0 012.74-1.61 2.58 2.58 0 012.46 1.75 3.52 3.52 0 011-1.13 3 3 0 011.93-.62c1.15 0 2.86.76 2.86 3.78v5.14h-1.55v-4.94c0-1.67-.61-2.68-1.89-2.68a2.05 2.05 0 00-1.87 1.44 2.66 2.66 0 00-.13.79v5.39h-1.55v-5.23c0-1.38-.61-2.39-1.81-2.39a2.18 2.18 0 00-2 1.58 2.24 2.24 0 00-.12.78v5.26H661zm16.77-4.81a1 1 0 01-2 0 1 1 0 011-1 .94.94 0 011 1zM676 549.57v-8.72h1.59v8.72zm4.21-6.36c0-.9 0-1.64-.07-2.36h1.41l.09 1.44a3.2 3.2 0 012.88-1.64c1.21 0 3.08.72 3.08 3.71v5.21h-1.58v-5c0-1.4-.53-2.57-2-2.57a2.25 2.25 0 00-2.12 1.62 2.1 2.1 0 00-.11.74v5.24h-1.59zm17.5-2.36c0 .63-.07 1.33-.07 2.4v5c0 2-.4 3.23-1.24 4a4.63 4.63 0 01-3.17 1 5.59 5.59 0 01-2.9-.72l.39-1.21a4.94 4.94 0 002.56.69c1.62 0 2.81-.85 2.81-3.05v-1a3.1 3.1 0 01-2.77 1.46c-2.16 0-3.71-1.84-3.71-4.25 0-2.95 1.93-4.63 3.93-4.63a2.91 2.91 0 012.72 1.52l.07-1.32zm-1.64 3.44a2.33 2.33 0 00-.09-.72 2.27 2.27 0 00-2.21-1.67c-1.51 0-2.59 1.27-2.59 3.29 0 1.71.86 3.13 2.57 3.13a2.33 2.33 0 002.2-1.62 2.71 2.71 0 00.12-.84zm12.84 5.28l-.13-1.1a3.27 3.27 0 01-2.67 1.29 2.48 2.48 0 01-2.66-2.5c0-2.11 1.87-3.26 5.24-3.24v-.18a1.8 1.8 0 00-2-2 4.4 4.4 0 00-2.27.65l-.36-1a5.38 5.38 0 012.86-.78c2.66 0 3.31 1.82 3.31 3.57v3.26a12.14 12.14 0 00.15 2.09zm-.24-4.45c-1.73 0-3.69.27-3.69 2a1.4 1.4 0 001.5 1.51 2.16 2.16 0 002.1-1.46 1.47 1.47 0 00.09-.5zm4.09-1.91c0-.9 0-1.64-.08-2.36h1.41l.09 1.44a3.2 3.2 0 012.88-1.64c1.2 0 3.07.72 3.07 3.71v5.21h-1.58v-5c0-1.4-.52-2.57-2-2.57a2.25 2.25 0 00-2.12 1.62 2.35 2.35 0 00-.11.74v5.24h-1.58zm17.51-6.43v10.53c0 .78 0 1.66.07 2.26h-1.42l-.07-1.52a3.19 3.19 0 01-3 1.71c-2.1 0-3.72-1.78-3.72-4.43 0-2.89 1.78-4.68 3.9-4.68a2.89 2.89 0 012.63 1.34v-5.21zm-1.58 7.62a3.05 3.05 0 00-.07-.67 2.33 2.33 0 00-2.29-1.83c-1.64 0-2.61 1.44-2.61 3.36s.86 3.23 2.57 3.23a2.39 2.39 0 002.33-1.89 3 3 0 00.07-.69zM613 563.7c0-1.12 0-2-.07-2.85h1.42l.07 1.5a3.41 3.41 0 013.09-1.7c2.11 0 3.7 1.79 3.7 4.43 0 3.14-1.91 4.68-4 4.68a3.05 3.05 0 01-2.68-1.36v4.73H613zm1.57 2.32a3.32 3.32 0 00.07.65 2.44 2.44 0 002.37 1.85c1.68 0 2.65-1.37 2.65-3.37 0-1.74-.92-3.24-2.59-3.24a2.54 2.54 0 00-2.4 2 2.67 2.67 0 00-.1.64zm9.57-.52a2.79 2.79 0 003 3 5.71 5.71 0 002.41-.45l.27 1.14a7 7 0 01-2.89.54 4.05 4.05 0 01-4.29-4.4c0-2.63 1.55-4.7 4.09-4.7 2.84 0 3.6 2.51 3.6 4.11a5.61 5.61 0 01-.06.74zm4.65-1.14a2.25 2.25 0 00-2.2-2.57 2.62 2.62 0 00-2.43 2.57zm3.49-.79c0-1 0-1.91-.07-2.72h1.38l.06 1.71h.07a2.62 2.62 0 012.41-1.91 1.53 1.53 0 01.45.06v1.49a2.76 2.76 0 00-.54-.05 2.21 2.21 0 00-2.12 2 4.14 4.14 0 00-.07.74v4.65h-1.57zM638 568a4.2 4.2 0 002.09.63c1.15 0 1.69-.58 1.69-1.3s-.45-1.17-1.62-1.6c-1.57-.56-2.31-1.43-2.31-2.47 0-1.41 1.14-2.56 3-2.56a4.42 4.42 0 012.14.54l-.39 1.16a3.33 3.33 0 00-1.78-.51c-.94 0-1.46.54-1.46 1.19s.52 1 1.65 1.48c1.52.57 2.29 1.33 2.29 2.62 0 1.54-1.19 2.62-3.26 2.62a5 5 0 01-2.45-.6zm9.06-9.6a.94.94 0 01-1 1 1 1 0 01-1-1 1 1 0 011-1 .94.94 0 011 1zm-1.77 11.17v-8.72h1.59v8.72zm4-1.57a4.2 4.2 0 002.09.63c1.15 0 1.69-.58 1.69-1.3s-.45-1.17-1.62-1.6c-1.57-.56-2.31-1.43-2.31-2.47 0-1.41 1.14-2.56 3-2.56a4.42 4.42 0 012.14.54l-.39 1.16a3.33 3.33 0 00-1.78-.51c-.94 0-1.46.54-1.46 1.19s.52 1 1.65 1.48c1.52.57 2.29 1.33 2.29 2.62 0 1.54-1.19 2.62-3.26 2.62a5 5 0 01-2.45-.6zm9.25-9.65v2.5h2.27v1.21h-2.27v4.7c0 1.08.31 1.69 1.19 1.69a3.31 3.31 0 00.92-.11l.07 1.19a3.78 3.78 0 01-1.4.22 2.23 2.23 0 01-1.72-.67 3.23 3.23 0 01-.61-2.27v-4.75h-1.35v-1.21H657v-2.09zm4.82 7.15a2.79 2.79 0 003 3 5.8 5.8 0 002.42-.45l.27 1.14a7.13 7.13 0 01-2.9.54 4.05 4.05 0 01-4.29-4.4c0-2.63 1.55-4.7 4.09-4.7 2.84 0 3.6 2.51 3.6 4.11v.74zm4.65-1.14a2.25 2.25 0 00-2.2-2.57 2.62 2.62 0 00-2.43 2.57zm3.49-1.15c0-.9 0-1.64-.07-2.36h1.4l.09 1.44a3.2 3.2 0 012.88-1.64c1.21 0 3.08.72 3.08 3.71v5.21h-1.59v-5c0-1.4-.52-2.57-2-2.57a2.25 2.25 0 00-2.13 1.62 2.37 2.37 0 00-.1.74v5.24h-1.56zm16.2 6.03a5.73 5.73 0 01-2.5.51 4.14 4.14 0 01-4.34-4.45 4.43 4.43 0 014.68-4.63 5.39 5.39 0 012.2.45l-.36 1.23a3.63 3.63 0 00-1.84-.42 3.29 3.29 0 000 6.56 4.44 4.44 0 001.94-.44zm2.63-3.74a2.78 2.78 0 003 3 5.75 5.75 0 002.41-.45l.27 1.14a7.09 7.09 0 01-2.9.54 4 4 0 01-4.28-4.4c0-2.63 1.54-4.7 4.08-4.7 2.85 0 3.6 2.51 3.6 4.11a6 6 0 010 .74zm4.64-1.14a2.25 2.25 0 00-2.19-2.57 2.62 2.62 0 00-2.43 2.57zm135.97-26.77a23 23 0 013.33-.25 6.93 6.93 0 014.91 1.51 5.6 5.6 0 011.71 4.36 6.45 6.45 0 01-1.74 4.72 7.51 7.51 0 01-5.37 1.74 25.35 25.35 0 01-2.84-.14zm1.56 10.73a9.15 9.15 0 001.59.09c3.35 0 5.17-1.87 5.17-5.15 0-2.86-1.61-4.68-4.92-4.68a9 9 0 00-1.84.16zm12.14-9.92a1 1 0 01-2 0 1 1 0 011-1 .94.94 0 011 1zm-1.77 11.17v-8.72h1.59v8.72zm4-1.57a4.2 4.2 0 002.09.63c1.15 0 1.69-.58 1.69-1.3s-.45-1.17-1.62-1.6c-1.57-.56-2.31-1.43-2.31-2.47 0-1.41 1.14-2.56 3-2.56a4.42 4.42 0 012.14.54l-.39 1.16a3.41 3.41 0 00-1.79-.51c-.93 0-1.45.54-1.45 1.19s.52 1 1.65 1.48c1.51.57 2.29 1.33 2.29 2.62 0 1.54-1.19 2.62-3.26 2.62a5 5 0 01-2.45-.6zm9.25-9.65v2.5h2.27v1.21h-2.27v4.7c0 1.08.31 1.69 1.19 1.69a3.31 3.31 0 00.92-.11l.07 1.19a3.8 3.8 0 01-1.41.22 2.22 2.22 0 01-1.71-.67 3.23 3.23 0 01-.61-2.27v-4.75h-1.35v-1.21h1.35v-2.09zm4.05 5.22c0-1 0-1.91-.07-2.72h1.38l.06 1.71h.07a2.62 2.62 0 012.41-1.91 1.53 1.53 0 01.45.06v1.49a2.76 2.76 0 00-.54-.05 2.21 2.21 0 00-2.12 2 4.14 4.14 0 00-.07.74v4.65h-1.57zm7.72-5.17a1 1 0 11-2 0 1 1 0 011-1 .94.94 0 011 1zm-1.76 11.17v-8.72h1.58v8.72zm4.14 0c0-.6.07-1.48.07-2.26v-10.53h1.57v5.48a3.24 3.24 0 013-1.61c2.16 0 3.69 1.8 3.68 4.45 0 3.12-2 4.66-3.91 4.66a3.11 3.11 0 01-2.92-1.63l-.08 1.44zm1.64-3.5a2.71 2.71 0 00.07.58 2.43 2.43 0 002.37 1.85c1.66 0 2.65-1.35 2.65-3.35 0-1.74-.9-3.24-2.59-3.24a2.54 2.54 0 00-2.42 2 3.6 3.6 0 00-.08.65zm15.96 1.12c0 .9 0 1.69.07 2.38h-1.4l-.09-1.43a3.25 3.25 0 01-2.88 1.62c-1.37 0-3-.75-3-3.81v-5.1h1.58v4.83c0 1.65.5 2.77 1.95 2.77a2.25 2.25 0 002.23-2.25v-5.35h1.58zm4.54-8.84v2.5h2.27v1.21h-2.27v4.7c0 1.08.3 1.69 1.18 1.69a3.21 3.21 0 00.92-.11l.08 1.19a3.84 3.84 0 01-1.41.22 2.2 2.2 0 01-1.71-.67 3.23 3.23 0 01-.61-2.27v-4.75h-1.35v-1.21h1.35v-2.09zm4.82 7.15a2.79 2.79 0 003 3 5.75 5.75 0 002.41-.45l.27 1.14a7.09 7.09 0 01-2.9.54 4 4 0 01-4.28-4.4c0-2.63 1.55-4.7 4.09-4.7 2.84 0 3.6 2.51 3.6 4.11a5.61 5.61 0 01-.06.74zm4.65-1.14a2.26 2.26 0 00-2.2-2.57 2.62 2.62 0 00-2.43 2.57zm11.01-7.58v10.53c0 .78 0 1.66.07 2.26h-1.42l-.07-1.52a3.19 3.19 0 01-3 1.71c-2.1 0-3.72-1.78-3.72-4.43 0-2.89 1.78-4.68 3.9-4.68a2.89 2.89 0 012.63 1.34v-5.21zm-1.58 7.62a3.05 3.05 0 00-.07-.67 2.33 2.33 0 00-2.24-1.83c-1.64 0-2.61 1.44-2.61 3.36s.86 3.23 2.57 3.23a2.39 2.39 0 002.33-1.89 3 3 0 00.07-.69zm14.24 4.84a5.82 5.82 0 01-2.51.51 4.14 4.14 0 01-4.34-4.45 4.44 4.44 0 014.69-4.63 5.38 5.38 0 012.19.45l-.36 1.23a3.61 3.61 0 00-1.83-.42 3 3 0 00-3.08 3.3 3 3 0 003 3.26 4.49 4.49 0 001.95-.44zm9.63-4.1a4.26 4.26 0 01-4.34 4.62 4.14 4.14 0 01-4.18-4.48c0-2.92 1.91-4.63 4.32-4.63s4.2 1.82 4.2 4.49zm-6.92.09c0 1.9 1.1 3.35 2.65 3.35s2.65-1.43 2.65-3.39c0-1.47-.74-3.35-2.61-3.35s-2.69 1.73-2.69 3.39zm8.91-2.02c0-.9 0-1.64-.07-2.36h1.4l.09 1.44a3.2 3.2 0 012.88-1.64c1.21 0 3.08.72 3.08 3.71v5.21H943v-5c0-1.4-.53-2.57-2-2.57a2.26 2.26 0 00-2.13 1.62 2.37 2.37 0 00-.1.74v5.24h-1.59zm11.83-4.86v2.5h2.27v1.21H949v4.7c0 1.08.3 1.69 1.19 1.69a3.31 3.31 0 00.92-.11l.07 1.19a3.84 3.84 0 01-1.41.22 2.2 2.2 0 01-1.71-.67 3.23 3.23 0 01-.61-2.27v-4.75h-1.35v-1.21h1.35v-2.09zm4.82 7.15a2.79 2.79 0 003 3 5.71 5.71 0 002.41-.45l.27 1.14a7 7 0 01-2.89.54 4.05 4.05 0 01-4.29-4.4c0-2.63 1.55-4.7 4.09-4.7 2.84 0 3.6 2.51 3.6 4.11a5.61 5.61 0 01-.06.74zm4.65-1.14a2.25 2.25 0 00-2.2-2.57 2.62 2.62 0 00-2.43 2.57zm3.53-1.15c0-.9 0-1.64-.07-2.36h1.4l.09 1.44a3.2 3.2 0 012.88-1.64c1.2 0 3.08.72 3.08 3.71v5.21h-1.59v-5c0-1.4-.52-2.57-2-2.57a2.25 2.25 0 00-2.13 1.62 2.35 2.35 0 00-.11.74v5.24H962zm11.78-4.86v2.5h2.27v1.21h-2.27v4.7c0 1.08.31 1.69 1.19 1.69a3.26 3.26 0 00.92-.11l.07 1.19a3.74 3.74 0 01-1.4.22 2.2 2.2 0 01-1.71-.67 3.23 3.23 0 01-.61-2.27v-4.75h-1.35v-1.21h1.35v-2.09zm-159 31.22l-.12-1.1h-.06a3.24 3.24 0 01-2.66 1.29 2.48 2.48 0 01-2.67-2.5c0-2.11 1.88-3.26 5.24-3.24v-.18a1.79 1.79 0 00-2-2 4.43 4.43 0 00-2.27.65l-.36-1a5.41 5.41 0 012.87-.78c2.66 0 3.31 1.82 3.31 3.57v3.26a13.31 13.31 0 00.14 2.09zm-.23-4.45c-1.73 0-3.69.27-3.69 2a1.4 1.4 0 001.49 1.51 2.16 2.16 0 002.11-1.46 1.76 1.76 0 00.09-.5zm11.61-8.34v10.53c0 .78 0 1.66.07 2.26h-1.42l-.07-1.52a3.2 3.2 0 01-3 1.71c-2.11 0-3.73-1.78-3.73-4.43 0-2.89 1.79-4.68 3.91-4.68a2.91 2.91 0 012.63 1.34v-5.21zm-1.58 7.62a2.56 2.56 0 00-.08-.67 2.31 2.31 0 00-2.28-1.83c-1.64 0-2.61 1.44-2.61 3.36s.86 3.23 2.57 3.23a2.38 2.38 0 002.32-1.89 2.56 2.56 0 00.08-.69zm11.73-7.62v10.53c0 .78 0 1.66.07 2.26H835l-.07-1.52a3.19 3.19 0 01-3 1.71c-2.1 0-3.72-1.78-3.72-4.43 0-2.89 1.78-4.68 3.9-4.68a2.89 2.89 0 012.63 1.34v-5.21zm-1.58 7.62a3.05 3.05 0 00-.07-.67 2.33 2.33 0 00-2.29-1.83c-1.64 0-2.61 1.44-2.61 3.36s.86 3.23 2.57 3.23a2.39 2.39 0 002.33-1.89 3 3 0 00.07-.69zm4.21-.83c0-1 0-1.91-.07-2.72h1.38l.06 1.71h.07a2.61 2.61 0 012.41-1.91 1.53 1.53 0 01.45.06v1.49a2.76 2.76 0 00-.54-.05 2.21 2.21 0 00-2.12 2 4.09 4.09 0 00-.08.74v4.65h-1.56zm6.59 1.93a2.78 2.78 0 003 3 5.78 5.78 0 002.41-.45l.27 1.14a7.09 7.09 0 01-2.9.54 4.06 4.06 0 01-4.29-4.4c0-2.63 1.55-4.7 4.09-4.7 2.85 0 3.6 2.51 3.6 4.11a6 6 0 01-.05.74zm4.64-1.14a2.25 2.25 0 00-2.19-2.57 2.63 2.63 0 00-2.44 2.57zm3.28 3.64a4.16 4.16 0 002.08.63c1.16 0 1.7-.58 1.7-1.3s-.45-1.17-1.62-1.6c-1.57-.56-2.31-1.43-2.31-2.47 0-1.41 1.14-2.56 3-2.56a4.42 4.42 0 012.14.54l-.39 1.16a3.41 3.41 0 00-1.79-.51c-.93 0-1.46.54-1.46 1.19s.53 1 1.66 1.48c1.51.57 2.29 1.33 2.29 2.62 0 1.54-1.19 2.62-3.26 2.62a5 5 0 01-2.45-.6zm7.12 0a4.23 4.23 0 002.09.63c1.16 0 1.7-.58 1.7-1.3s-.45-1.17-1.63-1.6c-1.56-.56-2.3-1.43-2.3-2.47 0-1.41 1.13-2.56 3-2.56a4.45 4.45 0 012.14.54l-.4 1.16a3.33 3.33 0 00-1.78-.51c-.94 0-1.46.54-1.46 1.19s.52 1 1.66 1.48c1.51.57 2.29 1.33 2.29 2.62 0 1.54-1.19 2.62-3.26 2.62a5 5 0 01-2.45-.6zm12.17 1.57l-.12-1.1h-.06a3.24 3.24 0 01-2.66 1.29 2.48 2.48 0 01-2.67-2.5c0-2.11 1.88-3.26 5.24-3.24v-.18a1.79 1.79 0 00-2-2 4.43 4.43 0 00-2.27.65l-.36-1a5.41 5.41 0 012.87-.78c2.66 0 3.31 1.82 3.31 3.57v3.26a13.31 13.31 0 00.14 2.09zm-.23-4.45c-1.73 0-3.69.27-3.69 2a1.4 1.4 0 001.49 1.51 2.16 2.16 0 002.11-1.46 1.76 1.76 0 00.09-.5zm4.01 4.45c0-.6.07-1.48.07-2.26v-10.53h1.57v5.48a3.22 3.22 0 013-1.61c2.16 0 3.69 1.8 3.67 4.45 0 3.12-2 4.66-3.91 4.66a3.08 3.08 0 01-2.91-1.63H878l-.07 1.44zm1.64-3.5a3.54 3.54 0 00.07.58 2.45 2.45 0 002.38 1.85c1.66 0 2.65-1.35 2.65-3.35 0-1.74-.9-3.24-2.6-3.24a2.52 2.52 0 00-2.41 2 2.83 2.83 0 00-.09.65zm8.68-9.29h1.58v12.79h-1.58zm5.16 8.72a2.78 2.78 0 003 3 5.8 5.8 0 002.42-.45l.27 1.14a7.09 7.09 0 01-2.9.54 4.06 4.06 0 01-4.29-4.4c0-2.63 1.55-4.7 4.09-4.7 2.85 0 3.6 2.51 3.6 4.11a6 6 0 010 .74zm4.64-1.14a2.25 2.25 0 00-2.2-2.57 2.62 2.62 0 00-2.43 2.57zm7.21 5.21c0-.6.07-1.48.07-2.26v-10.53h1.56v5.48a3.24 3.24 0 013-1.61c2.16 0 3.69 1.8 3.67 4.45 0 3.12-2 4.66-3.9 4.66a3.11 3.11 0 01-2.92-1.63h-.05l-.08 1.44zm1.63-3.5a2.7 2.7 0 00.08.58 2.43 2.43 0 002.37 1.85c1.66 0 2.65-1.35 2.65-3.35 0-1.74-.9-3.24-2.59-3.24a2.54 2.54 0 00-2.42 2 3.51 3.51 0 00-.09.65zm8.68-9.29h1.58v12.79h-1.58zm12.13 8.36a4.25 4.25 0 01-4.34 4.62 4.14 4.14 0 01-4.17-4.48c0-2.92 1.91-4.63 4.32-4.63s4.19 1.82 4.19 4.49zm-6.91.09c0 1.9 1.1 3.35 2.65 3.35s2.64-1.43 2.64-3.39c0-1.47-.73-3.35-2.61-3.35s-2.68 1.73-2.68 3.39zm8.84 4.34c0-.6.07-1.48.07-2.26v-10.53h1.57v5.48a3.24 3.24 0 013-1.61c2.16 0 3.69 1.8 3.68 4.45 0 3.12-2 4.66-3.91 4.66a3.11 3.11 0 01-2.92-1.63h-.05l-.07 1.44zm1.64-3.5a2.71 2.71 0 00.07.58 2.43 2.43 0 002.37 1.85c1.66 0 2.65-1.35 2.65-3.35 0-1.74-.9-3.24-2.59-3.24a2.52 2.52 0 00-2.41 2 2.83 2.83 0 00-.09.65zm12.27 1.93a4.23 4.23 0 002.09.63c1.15 0 1.69-.58 1.69-1.3s-.45-1.17-1.62-1.6c-1.57-.56-2.3-1.43-2.3-2.47 0-1.41 1.13-2.56 3-2.56a4.46 4.46 0 012.15.54l-.4 1.16a3.33 3.33 0 00-1.78-.51c-.94 0-1.46.54-1.46 1.19s.52 1 1.66 1.48c1.51.57 2.28 1.33 2.28 2.62 0 1.54-1.19 2.62-3.26 2.62a5 5 0 01-2.45-.6zm9.25-9.65v2.5h2.27v1.21h-2.27v4.7c0 1.08.31 1.69 1.19 1.69a3.26 3.26 0 00.92-.11l.07 1.19a3.74 3.74 0 01-1.4.22 2.19 2.19 0 01-1.71-.67 3.23 3.23 0 01-.62-2.27v-4.75h-1.35v-1.21h1.35v-2.09zm11.83 6.79a4.25 4.25 0 01-4.34 4.62 4.14 4.14 0 01-4.18-4.48c0-2.92 1.91-4.63 4.33-4.63s4.19 1.82 4.19 4.49zm-6.91.09c0 1.9 1.1 3.35 2.64 3.35s2.65-1.43 2.65-3.39c0-1.47-.74-3.35-2.61-3.35s-2.68 1.73-2.68 3.39zm8.91-1.66c0-1 0-1.91-.08-2.72h1.39l.05 1.71h.08a2.61 2.61 0 012.41-1.91 1.53 1.53 0 01.45.06v1.49a2.76 2.76 0 00-.54-.05 2.21 2.21 0 00-2.12 2 4.09 4.09 0 00-.08.74v4.65h-1.56zm10.62 6l-.13-1.1h-.05a3.26 3.26 0 01-2.67 1.29 2.48 2.48 0 01-2.66-2.5c0-2.11 1.87-3.26 5.24-3.24v-.18a1.8 1.8 0 00-2-2 4.4 4.4 0 00-2.27.65l-.36-1a5.38 5.38 0 012.86-.78c2.67 0 3.31 1.82 3.31 3.57v3.26a12.14 12.14 0 00.15 2.09zm-.24-4.45c-1.72 0-3.69.27-3.69 2a1.4 1.4 0 001.5 1.51 2.16 2.16 0 002.1-1.46 1.47 1.47 0 00.09-.5zm11.6-4.27c0 .63-.08 1.33-.08 2.4v5c0 2-.39 3.23-1.24 4a4.62 4.62 0 01-3.17 1 5.64 5.64 0 01-2.9-.72l.4-1.21a4.94 4.94 0 002.56.69c1.62 0 2.81-.85 2.81-3.05v-1a3.11 3.11 0 01-2.77 1.46c-2.16 0-3.71-1.84-3.71-4.25 0-2.95 1.92-4.63 3.92-4.63a2.9 2.9 0 012.72 1.52l.07-1.32zm-1.64 3.44a2.33 2.33 0 00-.09-.72 2.28 2.28 0 00-2.22-1.67c-1.51 0-2.59 1.27-2.59 3.29 0 1.71.86 3.13 2.58 3.13a2.31 2.31 0 002.19-1.62 2.72 2.72 0 00.13-.84zm5.07 1.21a2.79 2.79 0 003 3 5.71 5.71 0 002.41-.45l.27 1.14a7 7 0 01-2.89.54 4.05 4.05 0 01-4.29-4.4c0-2.63 1.55-4.7 4.09-4.7 2.84 0 3.6 2.51 3.6 4.11a5.61 5.61 0 01-.06.74zm4.65-1.14a2.25 2.25 0 00-2.2-2.57 2.62 2.62 0 00-2.43 2.57zm48.13-15.19a7.76 7.76 0 01-3.21.58c-3.42 0-6-2.16-6-6.14a6 6 0 016.34-6.38 6.62 6.62 0 012.88.54l-.38 1.28a5.7 5.7 0 00-2.45-.5c-2.84 0-4.74 1.82-4.74 5 0 3 1.72 4.88 4.67 4.88a6.36 6.36 0 002.55-.5zm9.6-4.03a4.25 4.25 0 01-4.34 4.62 4.14 4.14 0 01-4.17-4.48c0-2.92 1.9-4.63 4.32-4.63s4.19 1.82 4.19 4.49zm-6.91.09c0 1.9 1.1 3.35 2.65 3.35s2.64-1.43 2.64-3.39c0-1.47-.74-3.35-2.61-3.35s-2.69 1.73-2.69 3.39zm8.91-2.02c0-.9 0-1.64-.07-2.36h1.4l.09 1.44a3.2 3.2 0 012.88-1.64c1.2 0 3.08.72 3.08 3.71v5.21h-1.59v-5c0-1.4-.52-2.57-2-2.57a2.25 2.25 0 00-2.13 1.62 2.35 2.35 0 00-.11.74v5.24H1055zm10 0c0-.9 0-1.64-.07-2.36h1.4l.09 1.44a3.2 3.2 0 012.88-1.64c1.2 0 3.08.72 3.08 3.71v5.21h-1.59v-5c0-1.4-.52-2.57-2-2.57a2.25 2.25 0 00-2.13 1.62 2.35 2.35 0 00-.11.74v5.24H1065zm10.85 2.29a2.79 2.79 0 003 3 5.75 5.75 0 002.41-.45l.27 1.14a7.09 7.09 0 01-2.9.54 4 4 0 01-4.28-4.4c0-2.63 1.55-4.7 4.09-4.7 2.84 0 3.6 2.51 3.6 4.11a5.61 5.61 0 01-.06.74zm4.65-1.14a2.26 2.26 0 00-2.2-2.57 2.62 2.62 0 00-2.43 2.57zm9.7 4.88a5.77 5.77 0 01-2.5.51 4.14 4.14 0 01-4.34-4.45 4.43 4.43 0 014.68-4.63 5.38 5.38 0 012.19.45l-.36 1.23a3.58 3.58 0 00-1.83-.42 3 3 0 00-3.08 3.3 3 3 0 003 3.26 4.49 4.49 0 002-.44zm3.99-10.89v2.5h2.27v1.21h-2.27v4.7c0 1.08.31 1.69 1.19 1.69a3.26 3.26 0 00.92-.11l.07 1.19a3.74 3.74 0 01-1.4.22 2.19 2.19 0 01-1.71-.67 3.23 3.23 0 01-.62-2.27v-4.75h-1.35v-1.21h1.35v-2.09zm5.81.05a1 1 0 01-2 0 1 1 0 011-1 .94.94 0 011 1zm-1.77 11.17v-8.72h1.59v8.72zm4.84-8.72l1.71 4.9c.28.79.52 1.51.7 2.23.2-.72.45-1.44.74-2.23l1.69-4.9h1.66l-3.42 8.72h-1.51l-3.32-8.72zm9.81-2.45a1 1 0 01-2 0 1 1 0 011-1 .94.94 0 011 1zm-1.77 11.17v-8.72h1.59v8.72zm6.12-11.22v2.5h2.27v1.21h-2.27v4.7c0 1.08.31 1.69 1.19 1.69a3.31 3.31 0 00.92-.11l.07 1.19a3.78 3.78 0 01-1.4.22 2.19 2.19 0 01-1.71-.67 3.23 3.23 0 01-.62-2.27v-4.75h-1.35v-1.21h1.35v-2.09zm4.77 2.5l1.91 5.15c.2.58.41 1.26.56 1.78.16-.52.34-1.18.56-1.81l1.73-5.12h1.67l-2.37 6.21c-1.14 3-1.91 4.52-3 5.46a4.46 4.46 0 01-1.95 1l-.39-1.34a4.13 4.13 0 001.38-.77 4.74 4.74 0 001.34-1.77 1.1 1.1 0 00.12-.37 1.22 1.22 0 00-.11-.42l-3.22-8zm12.37 0l1.15 4.43c.25 1 .49 1.87.65 2.77.2-.88.49-1.82.78-2.75l1.42-4.45h1.33l1.35 4.36c.33 1 .58 2 .78 2.84a24.63 24.63 0 01.67-2.82l1.24-4.38h1.56l-2.8 8.72h-1.44l-1.34-4.16a29.48 29.48 0 01-.77-2.87 23.2 23.2 0 01-.79 2.88l-1.4 4.15h-1.44l-2.63-8.72zm14.38-2.45a1 1 0 11-2 0 1 1 0 011-1 .94.94 0 011 1zm-1.75 11.17v-8.72h1.58v8.72zm6.11-11.22v2.5h2.26v1.21h-2.26v4.7c0 1.08.3 1.69 1.18 1.69a3.26 3.26 0 00.92-.11l.07 1.19a3.74 3.74 0 01-1.4.22 2.2 2.2 0 01-1.71-.67 3.23 3.23 0 01-.61-2.27v-4.75h-1.35v-1.21h1.35v-2.09zm4.05-1.57h1.58v5.44a2.9 2.9 0 011.13-1.12 3.28 3.28 0 011.62-.45c1.17 0 3 .72 3 3.73v5.19H1163v-5c0-1.4-.52-2.59-2-2.59a2.28 2.28 0 00-2.12 1.58 1.94 1.94 0 00-.11.76v5.26h-1.58zm18.63 12.79l-.13-1.1h-.05a3.27 3.27 0 01-2.67 1.29 2.48 2.48 0 01-2.66-2.5c0-2.11 1.87-3.26 5.24-3.24v-.18a1.8 1.8 0 00-2-2 4.4 4.4 0 00-2.27.65l-.36-1a5.38 5.38 0 012.86-.78c2.66 0 3.31 1.82 3.31 3.57v3.26a12.14 12.14 0 00.15 2.09zm-.24-4.45c-1.73 0-3.69.27-3.69 2a1.4 1.4 0 001.5 1.51 2.16 2.16 0 002.1-1.46 1.47 1.47 0 00.09-.5zm10.3 4.12a5.77 5.77 0 01-2.5.51 4.14 4.14 0 01-4.34-4.45 4.43 4.43 0 014.68-4.63 5.38 5.38 0 012.19.45l-.36 1.23a3.58 3.58 0 00-1.83-.42 3.29 3.29 0 00-.06 6.56 4.49 4.49 0 001.95-.44zm3.99-10.89v2.5h2.27v1.21h-2.27v4.7c0 1.08.31 1.69 1.19 1.69a3.26 3.26 0 00.92-.11l.07 1.19a3.74 3.74 0 01-1.4.22 2.19 2.19 0 01-1.71-.67 3.23 3.23 0 01-.62-2.27v-4.75h-1.35v-1.21h1.35v-2.09zm4.79 2.5l1.91 5.15c.2.58.41 1.26.56 1.78.16-.52.34-1.18.56-1.81l1.73-5.12h1.67l-2.37 6.21c-1.14 3-1.91 4.52-3 5.46a4.46 4.46 0 01-2 1l-.39-1.34a4.13 4.13 0 001.38-.77 4.74 4.74 0 001.34-1.77 1.1 1.1 0 00.12-.37 1.22 1.22 0 00-.11-.42l-3.22-8zm8.64 0l1.24 1.87c.33.49.6.94.88 1.43h.06c.29-.52.58-1 .86-1.44l1.23-1.86h1.71l-3 4.21 3.06 4.51h-1.8l-1.28-2c-.34-.5-.63-1-.94-1.51-.29.52-.6 1-.92 1.51l-1.26 2h-1.75l3.1-4.45-3-4.27zm17.62 8.39a5.73 5.73 0 01-2.5.51 4.14 4.14 0 01-4.34-4.45 4.43 4.43 0 014.68-4.63 5.39 5.39 0 012.2.45l-.36 1.23a3.63 3.63 0 00-1.84-.42 3.29 3.29 0 000 6.56 4.44 4.44 0 001.94-.44zm1.86-12.46h1.58v12.79h-1.58zm6.01 1.62a1 1 0 11-2 0 1 1 0 011-1 .94.94 0 011 1zm-1.76 11.17v-8.72h1.59v8.72zm12.85 0l-.13-1.1a3.27 3.27 0 01-2.67 1.29 2.48 2.48 0 01-2.66-2.5c0-2.11 1.87-3.26 5.24-3.24v-.18a1.8 1.8 0 00-2-2 4.4 4.4 0 00-2.27.65l-.36-1a5.38 5.38 0 012.86-.78c2.67 0 3.31 1.82 3.31 3.57v3.26a12.14 12.14 0 00.15 2.09zm-.24-4.45c-1.73 0-3.69.27-3.69 2a1.4 1.4 0 001.5 1.51 2.16 2.16 0 002.1-1.46 1.47 1.47 0 00.09-.5zm4.09-1.91c0-.9 0-1.64-.07-2.36h1.4l.09 1.44a3.2 3.2 0 012.88-1.64c1.2 0 3.08.72 3.08 3.71v5.21h-1.59v-5c0-1.4-.52-2.57-2-2.57a2.25 2.25 0 00-2.12 1.62 2.35 2.35 0 00-.11.74v5.24h-1.58zm17.51-6.43v10.53c0 .78 0 1.66.08 2.26h-1.43l-.07-1.52a3.22 3.22 0 01-3 1.71c-2.1 0-3.72-1.78-3.72-4.43 0-2.89 1.78-4.68 3.9-4.68a2.89 2.89 0 012.63 1.34v-5.21zm-1.58 7.62a3.05 3.05 0 00-.07-.67 2.33 2.33 0 00-2.29-1.83c-1.64 0-2.61 1.44-2.61 3.36s.86 3.23 2.57 3.23a2.39 2.39 0 002.33-1.89 3 3 0 00.07-.69zm-156.37 25.17l-.12-1.1h-.06a3.24 3.24 0 01-2.66 1.29 2.48 2.48 0 01-2.66-2.5c0-2.11 1.87-3.26 5.23-3.24v-.18a1.79 1.79 0 00-2-2 4.36 4.36 0 00-2.26.65l-.37-1a5.44 5.44 0 012.87-.78c2.66 0 3.31 1.82 3.31 3.57v3.26a13.31 13.31 0 00.14 2.09zm-.23-4.45c-1.73 0-3.69.27-3.69 2a1.4 1.4 0 001.49 1.51 2.16 2.16 0 002.11-1.46 1.76 1.76 0 00.09-.5zm10.3 4.12a5.82 5.82 0 01-2.51.51 4.15 4.15 0 01-4.34-4.45 4.44 4.44 0 014.69-4.63 5.38 5.38 0 012.19.45l-.36 1.23a3.61 3.61 0 00-1.83-.42 3 3 0 00-3.08 3.3 3 3 0 003 3.26 4.49 4.49 0 002-.44zm3.99-10.89v2.5h2.27v1.21h-2.27v4.7c0 1.08.31 1.69 1.19 1.69a3.31 3.31 0 00.92-.11l.07 1.19a3.78 3.78 0 01-1.4.22 2.23 2.23 0 01-1.72-.67 3.23 3.23 0 01-.61-2.27v-4.75h-1.35v-1.21h1.35v-2.09zm4.79 2.5L1124 566c.2.58.41 1.26.56 1.78.16-.52.34-1.18.56-1.81l1.73-5.12h1.67l-2.37 6.21c-1.14 3-1.91 4.52-3 5.46a4.46 4.46 0 01-2 1l-.39-1.34a4.23 4.23 0 001.38-.77 5 5 0 001.34-1.77 1.1 1.1 0 00.12-.37 1.22 1.22 0 00-.11-.42l-3.22-8zm8.64 0l1.24 1.87c.33.49.6.94.88 1.43h.06c.29-.52.57-1 .86-1.44l1.23-1.86h1.71l-3 4.21 3.06 4.51H1135l-1.28-2c-.34-.5-.63-1-.94-1.51-.29.52-.6 1-.92 1.51l-1.26 2h-1.75l3.1-4.45-3-4.27zm17.62 8.39a5.73 5.73 0 01-2.5.51 4.14 4.14 0 01-4.34-4.45 4.43 4.43 0 014.68-4.63 5.39 5.39 0 012.2.45l-.36 1.23a3.63 3.63 0 00-1.84-.42 3.29 3.29 0 000 6.56 4.44 4.44 0 001.94-.44zm9.63-4.1a4.25 4.25 0 01-4.34 4.62 4.13 4.13 0 01-4.17-4.48c0-2.92 1.9-4.63 4.32-4.63s4.19 1.82 4.19 4.49zm-6.91.09c0 1.9 1.1 3.35 2.65 3.35s2.64-1.43 2.64-3.39c0-1.47-.74-3.35-2.61-3.35s-2.68 1.73-2.68 3.39zm8.91-2.02c0-.9 0-1.64-.07-2.36h1.4l.09 1.44a3.2 3.2 0 012.88-1.64c1.2 0 3.08.72 3.08 3.71v5.21h-1.59v-5c0-1.4-.52-2.57-2-2.57a2.25 2.25 0 00-2.13 1.62 2.35 2.35 0 00-.11.74v5.24H1160zm9.77 4.79a4.23 4.23 0 002.09.63c1.15 0 1.69-.58 1.69-1.3s-.45-1.17-1.62-1.6c-1.56-.56-2.3-1.43-2.3-2.47 0-1.41 1.13-2.56 3-2.56a4.46 4.46 0 012.15.54l-.4 1.16a3.33 3.33 0 00-1.78-.51c-.94 0-1.46.54-1.46 1.19s.52 1 1.66 1.48c1.51.57 2.28 1.33 2.28 2.62 0 1.54-1.18 2.62-3.26 2.62a4.94 4.94 0 01-2.44-.6zm15.23-2.86a4.25 4.25 0 01-4.34 4.62 4.13 4.13 0 01-4.17-4.48c0-2.92 1.9-4.63 4.32-4.63s4.19 1.82 4.19 4.49zm-6.91.09c0 1.9 1.1 3.35 2.65 3.35s2.64-1.43 2.64-3.39c0-1.47-.74-3.35-2.61-3.35s-2.68 1.73-2.68 3.39zm8.91-8.45h1.58v12.79H1187zm5.13 8.72a2.78 2.78 0 003 3 5.75 5.75 0 002.41-.45l.27 1.14a7.09 7.09 0 01-2.9.54 4 4 0 01-4.28-4.4c0-2.63 1.54-4.7 4.08-4.7 2.85 0 3.6 2.51 3.6 4.11a6 6 0 010 .74zm4.64-1.14a2.25 2.25 0 00-2.19-2.57 2.61 2.61 0 00-2.43 2.57z" stroke-width=".3" stroke="#75828e" fill="#75828e" stroke-miterlimit="10"/></g></svg>