<svg xmlns="http://www.w3.org/2000/svg" xmlns:xlink="http://www.w3.org/1999/xlink" width="1310.93" height="412.07" viewBox="0 0 1310.93 412.07">
  <defs>
    <style>
      .a1fba14e-0893-4048-946f-7f69f7ce796a {
        fill: none;
      }

      .a5f62496-49d8-492f-a453-3dbb83624011 {
        fill: #dceaf4;
      }

      .a55e1bc4-649a-4ed9-a2c4-0e7c91e99cfd {
        fill: url(#b7aaad83-11b0-4ceb-8b2b-f410a45cb26c);
      }

      .e2a43ad9-840e-4f23-b35f-11a73c42237e {
        fill: #51d680;
      }

      .b7d88eb1-3880-4a34-b749-6e9819b224e4 {
        fill: #f7fafc;
      }

      .ae64d8ee-20ae-43bd-b769-53435d0061b0 {
        fill: #b2bfce;
      }

      .a9f192fe-4418-4b4d-9a2b-b171b2ea32e6, .bbfd66c4-df16-458b-9359-ff496afac6d1, .fc6d59c7-6a12-4698-af68-aa7756c81eea {
        fill: #75828e;
      }

      .bbfd66c4-df16-458b-9359-ff496afac6d1, .fc6d59c7-6a12-4698-af68-aa7756c81eea {
        stroke: #75828e;
      }

      .a52d6d71-649a-4607-86de-755e5ca2cd23, .b2100c58-e26c-4792-b744-3315091b71bc, .bbfd66c4-df16-458b-9359-ff496afac6d1, .fc6d59c7-6a12-4698-af68-aa7756c81eea {
        stroke-miterlimit: 10;
      }

      .a52d6d71-649a-4607-86de-755e5ca2cd23, .b2100c58-e26c-4792-b744-3315091b71bc, .fc6d59c7-6a12-4698-af68-aa7756c81eea {
        stroke-width: 0.5px;
      }

      .f4fceb0d-1647-4067-ad85-a3688fdd3fe1 {
        fill: #f0f9ff;
      }

      .b2100c58-e26c-4792-b744-3315091b71bc, .e8bca1a0-0d16-4a80-9fcf-854c654d941c {
        fill: #1998ff;
      }

      .fe260451-43f9-49ff-afea-6f93690bd858 {
        fill: #c0e4ff;
      }

      .a52d6d71-649a-4607-86de-755e5ca2cd23 {
        fill: #2a4b7d;
        stroke: #2a4b7d;
      }

      .b2100c58-e26c-4792-b744-3315091b71bc {
        stroke: #1998ff;
      }

      .bbfd66c4-df16-458b-9359-ff496afac6d1 {
        stroke-width: 0.3px;
      }

      .b8ff894d-2a5c-4499-9829-35ba2b36f6ed {
        opacity: 0.2;
      }
    </style>
    <pattern id="b7aaad83-11b0-4ceb-8b2b-f410a45cb26c" data-name="Docs Polka Background" width="60" height="60" patternTransform="translate(653.46 1752.98) scale(0.87 0.74)" patternUnits="userSpaceOnUse" viewBox="0 0 60 60">
      <rect class="a1fba14e-0893-4048-946f-7f69f7ce796a" width="60" height="60"/>
      <circle class="a5f62496-49d8-492f-a453-3dbb83624011" cx="30" cy="30" r="2.47"/>
    </pattern>
  </defs>
  <g id="f1841f3b-1c3b-4544-b24a-6ec59fd95dc1" data-name="Layer 2">
    <rect class="a55e1bc4-649a-4ed9-a2c4-0e7c91e99cfd" x="-1.8" y="-0.09" width="1310.49" height="411.7"/>
  </g>
  <g id="bb1e8117-2e4b-4dbc-ab32-45a242d0af8a" data-name="Layer 1">
    <rect class="e2a43ad9-840e-4f23-b35f-11a73c42237e" x="251.35" y="204.83" width="787.76" height="2"/>
    <g>
      <rect class="b7d88eb1-3880-4a34-b749-6e9819b224e4" x="64.52" y="249.45" width="198.75" height="76.64"/>
      <path class="ae64d8ee-20ae-43bd-b769-53435d0061b0" d="M264.27,327.08H63.52V248.45H264.27Zm-198.75-2H262.27V250.45H65.52Z"/>
    </g>
    <g>
      <path class="fc6d59c7-6a12-4698-af68-aa7756c81eea" d="M108.62,285.07h-6.81v6.32h7.59v1.9H99.55V275.76H109v1.9h-7.2v5.54h6.81Z"/>
      <path class="fc6d59c7-6a12-4698-af68-aa7756c81eea" d="M123,274.83V290c0,1.12,0,2.39.11,3.25h-2.06l-.1-2.19h0a4.65,4.65,0,0,1-4.29,2.48c-3,0-5.38-2.58-5.38-6.4,0-4.19,2.57-6.76,5.64-6.76a4.21,4.21,0,0,1,3.79,1.92h.06v-7.51Zm-2.28,11a4,4,0,0,0-.11-1,3.37,3.37,0,0,0-3.3-2.65c-2.37,0-3.77,2.08-3.77,4.87,0,2.54,1.25,4.65,3.72,4.65a3.44,3.44,0,0,0,3.35-2.73,3.85,3.85,0,0,0,.11-1Z"/>
      <path class="fc6d59c7-6a12-4698-af68-aa7756c81eea" d="M137.66,280.7c0,.91-.1,1.93-.1,3.46v7.31c0,2.89-.57,4.65-1.8,5.74a6.63,6.63,0,0,1-4.57,1.51,8.11,8.11,0,0,1-4.19-1l.57-1.74a7.15,7.15,0,0,0,3.7,1c2.34,0,4-1.22,4-4.39v-1.41h0a4.49,4.49,0,0,1-4,2.11c-3.12,0-5.36-2.65-5.36-6.14,0-4.26,2.78-6.68,5.67-6.68a4.17,4.17,0,0,1,3.92,2.18h.06l.1-1.9Zm-2.36,5a3.37,3.37,0,0,0-.13-1,3.3,3.3,0,0,0-3.2-2.42c-2.19,0-3.75,1.85-3.75,4.76,0,2.47,1.25,4.53,3.72,4.53a3.34,3.34,0,0,0,3.17-2.34,4.09,4.09,0,0,0,.19-1.23Z"/>
      <path class="fc6d59c7-6a12-4698-af68-aa7756c81eea" d="M142.63,287.41c.05,3.1,2,4.37,4.31,4.37a8.21,8.21,0,0,0,3.49-.65l.39,1.64a10.31,10.31,0,0,1-4.19.78c-3.87,0-6.19-2.55-6.19-6.34s2.24-6.79,5.91-6.79c4.1,0,5.2,3.61,5.2,5.93a9.86,9.86,0,0,1-.08,1.06Zm6.71-1.64c0-1.45-.6-3.71-3.18-3.71-2.31,0-3.32,2.13-3.51,3.71Z"/>
      <path class="fc6d59c7-6a12-4698-af68-aa7756c81eea" d="M160,276a32.14,32.14,0,0,1,4.81-.37c3.25,0,5.56.76,7.1,2.19a8.07,8.07,0,0,1,2.47,6.29,9.29,9.29,0,0,1-2.52,6.81c-1.64,1.64-4.35,2.53-7.75,2.53a36.47,36.47,0,0,1-4.11-.21Zm2.26,15.5a14.81,14.81,0,0,0,2.29.13c4.84,0,7.46-2.71,7.46-7.44,0-4.14-2.31-6.76-7.1-6.76a12.9,12.9,0,0,0-2.65.23Z"/>
      <path class="fc6d59c7-6a12-4698-af68-aa7756c81eea" d="M178.58,287.41c.06,3.1,2,4.37,4.32,4.37a8.21,8.21,0,0,0,3.49-.65l.39,1.64a10.31,10.31,0,0,1-4.19.78c-3.87,0-6.19-2.55-6.19-6.34s2.24-6.79,5.9-6.79c4.11,0,5.2,3.61,5.2,5.93a10.44,10.44,0,0,1-.07,1.06Zm6.71-1.64c0-1.45-.59-3.71-3.17-3.71-2.31,0-3.33,2.13-3.51,3.71Z"/>
      <path class="fc6d59c7-6a12-4698-af68-aa7756c81eea" d="M191.22,280.7l2.47,7.08a28.69,28.69,0,0,1,1,3.22h.08c.29-1,.65-2.08,1.07-3.22l2.44-7.08h2.4l-4.95,12.59h-2.18l-4.78-12.59Z"/>
      <path class="fc6d59c7-6a12-4698-af68-aa7756c81eea" d="M205.39,277.17a1.42,1.42,0,0,1-2.83,0,1.39,1.39,0,0,1,1.43-1.43A1.36,1.36,0,0,1,205.39,277.17Zm-2.55,16.12V280.7h2.29v12.59Z"/>
      <path class="fc6d59c7-6a12-4698-af68-aa7756c81eea" d="M217.9,292.82a8.49,8.49,0,0,1-3.62.73c-3.79,0-6.26-2.58-6.26-6.42a6.4,6.4,0,0,1,6.76-6.69,7.7,7.7,0,0,1,3.17.65l-.52,1.77a5.32,5.32,0,0,0-2.65-.6c-2.89,0-4.45,2.14-4.45,4.76,0,2.91,1.87,4.71,4.37,4.71a6.44,6.44,0,0,0,2.81-.63Z"/>
      <path class="fc6d59c7-6a12-4698-af68-aa7756c81eea" d="M221.69,287.41c.05,3.1,2,4.37,4.32,4.37a8.16,8.16,0,0,0,3.48-.65l.39,1.64a10.21,10.21,0,0,1-4.18.78c-3.88,0-6.19-2.55-6.19-6.34s2.23-6.79,5.9-6.79c4.11,0,5.2,3.61,5.2,5.93a7.78,7.78,0,0,1-.08,1.06Zm6.71-1.64c0-1.45-.6-3.71-3.17-3.71-2.32,0-3.33,2.13-3.51,3.71Z"/>
    </g>
    <g>
      <rect class="f4fceb0d-1647-4067-ad85-a3688fdd3fe1" x="64.81" y="165.37" width="198.75" height="76.64"/>
      <path class="e8bca1a0-0d16-4a80-9fcf-854c654d941c" d="M264.56,243H63.81V164.37H264.56ZM65.81,241H262.56V166.37H65.81Z"/>
    </g>
    <g>
      <rect class="fe260451-43f9-49ff-afea-6f93690bd858" x="64.98" y="81.29" width="76.64" height="76.64" rx="19.44"/>
      <path class="e8bca1a0-0d16-4a80-9fcf-854c654d941c" d="M122.18,158.92H84.43A20.47,20.47,0,0,1,64,138.48V100.73A20.47,20.47,0,0,1,84.43,80.29h37.75a20.46,20.46,0,0,1,20.44,20.44v37.75A20.46,20.46,0,0,1,122.18,158.92ZM84.43,82.29A18.47,18.47,0,0,0,66,100.73v37.75a18.47,18.47,0,0,0,18.45,18.44h37.75a18.46,18.46,0,0,0,18.44-18.44V100.73a18.46,18.46,0,0,0-18.44-18.44Z"/>
    </g>
    <g>
      <path class="a52d6d71-649a-4607-86de-755e5ca2cd23" d="M121.53,203.7l-1.82,5.51h-2.34l5.95-17.53h2.73l6,17.53h-2.42l-1.87-5.51Zm5.74-1.77-1.71-5.05c-.39-1.14-.65-2.18-.91-3.19h-.06c-.26,1-.54,2.1-.88,3.17L122,201.93Z"/>
      <path class="a52d6d71-649a-4607-86de-755e5ca2cd23" d="M143.18,208.74a8.4,8.4,0,0,1-3.61.73c-3.8,0-6.27-2.58-6.27-6.42a6.4,6.4,0,0,1,6.76-6.69,7.72,7.72,0,0,1,3.18.65l-.52,1.77a5.37,5.37,0,0,0-2.66-.6c-2.88,0-4.44,2.14-4.44,4.76,0,2.91,1.87,4.71,4.37,4.71a6.39,6.39,0,0,0,2.8-.63Z"/>
      <path class="a52d6d71-649a-4607-86de-755e5ca2cd23" d="M149,193v3.61h3.27v1.75H149v6.78c0,1.56.44,2.45,1.71,2.45a5,5,0,0,0,1.33-.16l.1,1.72a5.63,5.63,0,0,1-2,.31,3.2,3.2,0,0,1-2.47-1,4.68,4.68,0,0,1-.88-3.28v-6.86h-1.95v-1.75h1.95v-3Z"/>
      <path class="a52d6d71-649a-4607-86de-755e5ca2cd23" d="M155.87,196.62l2.76,7.44c.28.83.6,1.82.8,2.57h.06c.23-.75.49-1.71.8-2.62l2.5-7.39h2.42l-3.44,9c-1.63,4.32-2.75,6.53-4.31,7.88a6.15,6.15,0,0,1-2.81,1.48l-.57-1.92a5.93,5.93,0,0,0,2-1.12,7,7,0,0,0,1.92-2.55,1.52,1.52,0,0,0,.19-.54,2.22,2.22,0,0,0-.16-.6l-4.65-11.6Z"/>
      <path class="a52d6d71-649a-4607-86de-755e5ca2cd23" d="M168.35,196.62l1.8,2.71c.46.7.85,1.35,1.27,2h.08c.41-.75.83-1.4,1.25-2.08l1.76-2.68H177l-4.29,6.09,4.42,6.5h-2.6l-1.84-2.84c-.5-.72-.91-1.43-1.35-2.18h-.06c-.41.75-.85,1.43-1.32,2.18l-1.82,2.84h-2.53l4.48-6.42-4.27-6.17Z"/>
      <path class="a52d6d71-649a-4607-86de-755e5ca2cd23" d="M194.38,200.26c0,6-3.67,9.24-8.14,9.24-4.63,0-7.88-3.59-7.88-8.9,0-5.56,3.46-9.2,8.14-9.2S194.38,195.06,194.38,200.26Zm-13.6.29c0,3.74,2,7.1,5.59,7.1s5.62-3.3,5.62-7.28c0-3.49-1.82-7.13-5.59-7.13S180.78,196.7,180.78,200.55Z"/>
      <path class="a52d6d71-649a-4607-86de-755e5ca2cd23" d="M197,206.45a8,8,0,0,0,4.06,1.15c2.31,0,3.67-1.23,3.67-3s-.94-2.58-3.31-3.49c-2.86-1-4.62-2.49-4.62-5,0-2.73,2.26-4.76,5.66-4.76a7.88,7.88,0,0,1,3.88.86l-.63,1.84a7,7,0,0,0-3.32-.83c-2.4,0-3.31,1.43-3.31,2.63,0,1.63,1.07,2.44,3.49,3.38,3,1.14,4.47,2.57,4.47,5.14s-2,5.05-6.14,5.05a9.1,9.1,0,0,1-4.47-1.12Z"/>
    </g>
    <g>
      <path class="b2100c58-e26c-4792-b744-3315091b71bc" d="M85.67,119.36l-1.82,5.51H81.51l5.95-17.53h2.73l6,17.53H93.75l-1.87-5.51Zm5.74-1.77-1.71-5c-.39-1.14-.65-2.18-.91-3.19h-.05c-.26,1-.55,2.1-.89,3.17l-1.71,5.07Z"/>
      <path class="b2100c58-e26c-4792-b744-3315091b71bc" d="M98.59,116.39c0-1.61,0-2.91-.1-4.11h2.05l.1,2.16h.06a4.94,4.94,0,0,1,4.47-2.44c3,0,5.33,2.57,5.33,6.39,0,4.53-2.76,6.76-5.72,6.76a4.41,4.41,0,0,1-3.88-2h-.05V130H98.59Zm2.26,3.36a4.47,4.47,0,0,0,.11.93,3.52,3.52,0,0,0,3.43,2.68c2.42,0,3.82-2,3.82-4.86,0-2.52-1.33-4.68-3.74-4.68a3.65,3.65,0,0,0-3.46,2.83,3.7,3.7,0,0,0-.16.94Z"/>
      <path class="b2100c58-e26c-4792-b744-3315091b71bc" d="M113.38,116.39c0-1.61,0-2.91-.1-4.11h2l.11,2.16h0A5,5,0,0,1,120,112c3,0,5.33,2.57,5.33,6.39,0,4.53-2.75,6.76-5.72,6.76a4.4,4.4,0,0,1-3.87-2h0V130h-2.27Zm2.27,3.36a5.3,5.3,0,0,0,.1.93,3.53,3.53,0,0,0,3.43,2.68c2.42,0,3.82-2,3.82-4.86,0-2.52-1.32-4.68-3.74-4.68a3.65,3.65,0,0,0-3.46,2.83,3.69,3.69,0,0,0-.15.94Z"/>
    </g>
    <g>
      <path class="bbfd66c4-df16-458b-9359-ff496afac6d1" d="M524.39,269.15h-1.81l-1.49-3.93h-5.93l-1.4,3.93h-1.83l5.37-14H519Zm-3.83-5.4-2.2-6a7.06,7.06,0,0,1-.22-.94h0a5.15,5.15,0,0,1-.23.94l-2.18,6Z"/>
      <path class="bbfd66c4-df16-458b-9359-ff496afac6d1" d="M537.44,263.48c0,3.94-1.78,5.9-5.33,5.9s-5.09-1.89-5.09-5.67v-8.57h1.64v8.46q0,4.31,3.63,4.31c2.34,0,3.5-1.39,3.5-4.16v-8.61h1.65Z"/>
      <path class="bbfd66c4-df16-458b-9359-ff496afac6d1" d="M550.21,256.63h-4v12.52h-1.64V256.63h-4v-1.49h9.71Z"/>
      <path class="bbfd66c4-df16-458b-9359-ff496afac6d1" d="M558.16,269.38a6.13,6.13,0,0,1-4.77-2,7.26,7.26,0,0,1-1.8-5.11,7.7,7.7,0,0,1,1.83-5.39,6.38,6.38,0,0,1,5-2,6,6,0,0,1,4.67,2,7.33,7.33,0,0,1,1.78,5.11,7.76,7.76,0,0,1-1.82,5.42A6.25,6.25,0,0,1,558.16,269.38Zm.11-13a4.51,4.51,0,0,0-3.58,1.59,7.07,7.07,0,0,0,0,8.35,4.38,4.38,0,0,0,3.5,1.58,4.59,4.59,0,0,0,3.63-1.51,6.16,6.16,0,0,0,1.33-4.21,6.4,6.4,0,0,0-1.29-4.28A4.43,4.43,0,0,0,558.27,256.39Z"/>
      <path class="bbfd66c4-df16-458b-9359-ff496afac6d1" d="M582.87,269.15h-1.63v-9.4c0-.74,0-1.65.13-2.72h0a7.34,7.34,0,0,1-.42,1.35l-4.78,10.77h-.8l-4.78-10.69a9.78,9.78,0,0,1-.42-1.43h0c.06.56.08,1.47.08,2.74v9.38h-1.58v-14h2.17l4.29,9.77a12.07,12.07,0,0,1,.65,1.68h.06c.28-.77.5-1.34.67-1.72l4.39-9.73h2Z"/>
      <path class="bbfd66c4-df16-458b-9359-ff496afac6d1" d="M598.39,269.15h-1.82l-1.48-3.93h-5.94l-1.4,3.93h-1.82l5.37-14H593Zm-3.84-5.4-2.2-6a6,6,0,0,1-.21-.94h0a5.15,5.15,0,0,1-.23.94l-2.17,6Z"/>
      <path class="bbfd66c4-df16-458b-9359-ff496afac6d1" d="M608.29,256.63h-4v12.52h-1.64V256.63h-4v-1.49h9.71Z"/>
      <path class="bbfd66c4-df16-458b-9359-ff496afac6d1" d="M614.5,255.14v1.41h-1.37v11.19h1.37v1.41h-4.38v-1.41h1.37V256.55h-1.37v-1.41Z"/>
      <path class="bbfd66c4-df16-458b-9359-ff496afac6d1" d="M627.35,268.56a8.21,8.21,0,0,1-3.87.82,6.26,6.26,0,0,1-4.79-1.92,7.15,7.15,0,0,1-1.79-5,7.43,7.43,0,0,1,2-5.43,6.85,6.85,0,0,1,5.12-2.07,8.37,8.37,0,0,1,3.31.57v1.75a6.71,6.71,0,0,0-3.32-.84,5.13,5.13,0,0,0-3.92,1.61,6.08,6.08,0,0,0-1.5,4.31,5.75,5.75,0,0,0,1.41,4.08,4.77,4.77,0,0,0,3.67,1.52,7,7,0,0,0,3.66-.94Z"/>
      <path class="bbfd66c4-df16-458b-9359-ff496afac6d1" d="M637.68,269.15v-14h3.86q7.41,0,7.41,6.83a6.88,6.88,0,0,1-2.06,5.21,7.64,7.64,0,0,1-5.5,2Zm1.64-12.52v11h2.09a5.93,5.93,0,0,0,4.28-1.47,5.52,5.52,0,0,0,1.54-4.18q0-5.38-5.73-5.38Z"/>
      <path class="bbfd66c4-df16-458b-9359-ff496afac6d1" d="M655.71,255.14v1.41h-1.37v11.19h1.37v1.41h-4.38v-1.41h1.37V256.55h-1.37v-1.41Z"/>
      <path class="bbfd66c4-df16-458b-9359-ff496afac6d1" d="M658.37,268.58v-1.93a3.61,3.61,0,0,0,.79.52,6.49,6.49,0,0,0,1,.4,7.36,7.36,0,0,0,1,.25,5.54,5.54,0,0,0,1,.09,3.71,3.71,0,0,0,2.26-.57,1.88,1.88,0,0,0,.74-1.61,2,2,0,0,0-.24-1,2.89,2.89,0,0,0-.69-.76,6.43,6.43,0,0,0-1-.67l-1.3-.67c-.49-.24-.94-.5-1.36-.75a5.39,5.39,0,0,1-1.11-.84,3.27,3.27,0,0,1-.73-1,3.54,3.54,0,0,1,.15-3,3.49,3.49,0,0,1,1.1-1.16,4.91,4.91,0,0,1,1.56-.69,7.06,7.06,0,0,1,1.78-.22,6.72,6.72,0,0,1,3,.5v1.84a5.51,5.51,0,0,0-3.19-.86,5.63,5.63,0,0,0-1.07.11,3.15,3.15,0,0,0-1,.37,2,2,0,0,0-.68.66,1.67,1.67,0,0,0-.26,1,1.93,1.93,0,0,0,.2.93,2.17,2.17,0,0,0,.59.71,5.22,5.22,0,0,0,1,.63q.55.3,1.29.66c.5.25,1,.51,1.43.78a7,7,0,0,1,1.18.91,4.06,4.06,0,0,1,.81,1.1,3.26,3.26,0,0,1,.29,1.39,3.48,3.48,0,0,1-.4,1.75,3.33,3.33,0,0,1-1.1,1.17,4.58,4.58,0,0,1-1.58.65,8.93,8.93,0,0,1-1.9.2c-.22,0-.49,0-.82-.05s-.66-.09-1-.16a9.16,9.16,0,0,1-1-.25A3,3,0,0,1,658.37,268.58Z"/>
      <path class="bbfd66c4-df16-458b-9359-ff496afac6d1" d="M678.93,256.63h-4v12.52h-1.64V256.63h-4v-1.49h9.72Z"/>
      <path class="bbfd66c4-df16-458b-9359-ff496afac6d1" d="M692.16,269.15h-1.95l-2.34-3.93a10.61,10.61,0,0,0-.63-.93,3.37,3.37,0,0,0-.62-.63,2.34,2.34,0,0,0-.68-.36,3,3,0,0,0-.83-.11h-1.34v6h-1.65v-14h4.18a6.08,6.08,0,0,1,1.7.23,3.94,3.94,0,0,1,1.35.7,3.15,3.15,0,0,1,.89,1.17,4.28,4.28,0,0,1,.1,3,3.31,3.31,0,0,1-.62,1.08,3.72,3.72,0,0,1-1,.82,5,5,0,0,1-1.28.52v0a3.27,3.27,0,0,1,.61.36,3.58,3.58,0,0,1,.49.47,5.25,5.25,0,0,1,.46.62c.16.23.33.5.52.81Zm-8.39-12.52v5.08H686a3.49,3.49,0,0,0,1.14-.19,2.52,2.52,0,0,0,.9-.53,2.35,2.35,0,0,0,.6-.85,2.92,2.92,0,0,0,.21-1.13,2.2,2.2,0,0,0-.72-1.75,3.15,3.15,0,0,0-2.11-.63Z"/>
      <path class="bbfd66c4-df16-458b-9359-ff496afac6d1" d="M698.1,255.14v1.41h-1.37v11.19h1.37v1.41h-4.38v-1.41h1.37V256.55h-1.37v-1.41Z"/>
      <path class="bbfd66c4-df16-458b-9359-ff496afac6d1" d="M701.41,269.15v-14h4a4.38,4.38,0,0,1,2.89.89,2.91,2.91,0,0,1,1.06,2.32,3.48,3.48,0,0,1-.64,2.07,3.56,3.56,0,0,1-1.78,1.25v0a3.54,3.54,0,0,1,2.26,1.06,3.3,3.3,0,0,1,.85,2.35,3.65,3.65,0,0,1-1.29,2.91,4.76,4.76,0,0,1-3.25,1.12Zm1.64-12.52v4.52h1.68a3.2,3.2,0,0,0,2.12-.65,2.26,2.26,0,0,0,.77-1.83c0-1.36-.89-2-2.68-2Zm0,6v5h2.23a3.37,3.37,0,0,0,2.24-.68,2.35,2.35,0,0,0,.79-1.88c0-1.65-1.12-2.48-3.37-2.48Z"/>
      <path class="bbfd66c4-df16-458b-9359-ff496afac6d1" d="M724.12,263.48c0,3.94-1.78,5.9-5.32,5.9s-5.1-1.89-5.1-5.67v-8.57h1.64v8.46q0,4.31,3.63,4.31t3.51-4.16v-8.61h1.64Z"/>
      <path class="bbfd66c4-df16-458b-9359-ff496afac6d1" d="M736.9,256.63h-4v12.52h-1.64V256.63h-4v-1.49h9.72Z"/>
      <path class="bbfd66c4-df16-458b-9359-ff496afac6d1" d="M743.1,255.14v1.41h-1.37v11.19h1.37v1.41h-4.37v-1.41h1.36V256.55h-1.36v-1.41Z"/>
      <path class="bbfd66c4-df16-458b-9359-ff496afac6d1" d="M752.06,269.38a6.13,6.13,0,0,1-4.77-2,7.26,7.26,0,0,1-1.79-5.11,7.75,7.75,0,0,1,1.82-5.39,6.39,6.39,0,0,1,5-2,6,6,0,0,1,4.68,2,7.32,7.32,0,0,1,1.77,5.11,7.76,7.76,0,0,1-1.82,5.42A6.25,6.25,0,0,1,752.06,269.38Zm.12-13a4.53,4.53,0,0,0-3.59,1.59,7.11,7.11,0,0,0,0,8.35,4.38,4.38,0,0,0,3.5,1.58,4.56,4.56,0,0,0,3.63-1.51,6.11,6.11,0,0,0,1.33-4.21,6.4,6.4,0,0,0-1.29-4.28A4.41,4.41,0,0,0,752.18,256.39Z"/>
      <path class="bbfd66c4-df16-458b-9359-ff496afac6d1" d="M773.78,269.15h-2L764.56,258a5.13,5.13,0,0,1-.45-.87h-.05a15.33,15.33,0,0,1,.07,1.92v10.12h-1.64v-14h2.13l7,11a10,10,0,0,1,.57.94h0a15.63,15.63,0,0,1-.1-2.06v-9.87h1.64Z"/>
    </g>
    <g>
      <path class="bbfd66c4-df16-458b-9359-ff496afac6d1" d="M207.57,98V96.06a3.86,3.86,0,0,0,.79.52,6.49,6.49,0,0,0,1,.4,7.72,7.72,0,0,0,1,.25,5.63,5.63,0,0,0,1,.09,3.71,3.71,0,0,0,2.26-.57,1.88,1.88,0,0,0,.75-1.61,2,2,0,0,0-.25-1,3.09,3.09,0,0,0-.69-.77,6.67,6.67,0,0,0-1-.66l-1.3-.67c-.48-.25-.94-.5-1.36-.75a5.67,5.67,0,0,1-1.11-.84,3.56,3.56,0,0,1-.73-1,3.54,3.54,0,0,1,.15-3,3.59,3.59,0,0,1,1.1-1.16,5,5,0,0,1,1.56-.69,7.11,7.11,0,0,1,1.78-.22,6.72,6.72,0,0,1,3,.5v1.84a5.51,5.51,0,0,0-3.19-.86,5.63,5.63,0,0,0-1.07.11,3.15,3.15,0,0,0-1,.37,2.22,2.22,0,0,0-.68.65,1.73,1.73,0,0,0-.26,1,1.93,1.93,0,0,0,.2.93,2.17,2.17,0,0,0,.59.71,6.26,6.26,0,0,0,1,.63c.37.2.81.42,1.29.66s1,.51,1.43.78a7,7,0,0,1,1.18.91,4.06,4.06,0,0,1,.81,1.1,3.12,3.12,0,0,1,.29,1.39,3.48,3.48,0,0,1-.4,1.75,3.4,3.4,0,0,1-1.09,1.17,4.71,4.71,0,0,1-1.59.65,8.93,8.93,0,0,1-1.9.2c-.22,0-.49,0-.82-.05s-.65-.09-1-.16a8.39,8.39,0,0,1-1-.25A2.94,2.94,0,0,1,207.57,98Z"/>
      <path class="bbfd66c4-df16-458b-9359-ff496afac6d1" d="M228.13,86h-4V98.56h-1.64V86h-4V84.55h9.72Z"/>
      <path class="bbfd66c4-df16-458b-9359-ff496afac6d1" d="M236.07,98.79a6.16,6.16,0,0,1-4.77-2,7.3,7.3,0,0,1-1.79-5.11,7.7,7.7,0,0,1,1.83-5.39,6.36,6.36,0,0,1,5-2,6,6,0,0,1,4.67,2,7.32,7.32,0,0,1,1.77,5.11,7.75,7.75,0,0,1-1.81,5.42A6.28,6.28,0,0,1,236.07,98.79Zm.12-13a4.5,4.5,0,0,0-3.58,1.59,7.09,7.09,0,0,0,0,8.35,4.39,4.39,0,0,0,3.5,1.58,4.59,4.59,0,0,0,3.63-1.51A6.11,6.11,0,0,0,241,91.6a6.38,6.38,0,0,0-1.29-4.28A4.41,4.41,0,0,0,236.19,85.8Z"/>
      <path class="bbfd66c4-df16-458b-9359-ff496afac6d1" d="M256.54,98.56h-2l-2.34-3.93a9.28,9.28,0,0,0-.63-.93,3.37,3.37,0,0,0-.62-.63,2.13,2.13,0,0,0-.68-.36,3,3,0,0,0-.83-.11h-1.34v6h-1.64v-14h4.18a6.06,6.06,0,0,1,1.69.23,3.77,3.77,0,0,1,1.35.7,3.15,3.15,0,0,1,.89,1.17,3.76,3.76,0,0,1,.32,1.63,3.9,3.9,0,0,1-.22,1.35,3.42,3.42,0,0,1-.62,1.08,3.92,3.92,0,0,1-1,.82,5,5,0,0,1-1.28.52v0a3,3,0,0,1,.61.36,3.58,3.58,0,0,1,.49.47,6.68,6.68,0,0,1,.47.62l.51.81ZM248.15,86v5.07h2.22a3.49,3.49,0,0,0,1.14-.18,2.68,2.68,0,0,0,.9-.53,2.35,2.35,0,0,0,.6-.85,2.92,2.92,0,0,0,.21-1.13,2.2,2.2,0,0,0-.72-1.75,3.15,3.15,0,0,0-2.11-.63Z"/>
      <path class="bbfd66c4-df16-458b-9359-ff496afac6d1" d="M266.89,98.56h-7.42v-14h7.11V86h-5.47v4.65h5.06v1.48h-5.06v4.9h5.78Z"/>
      <path class="bbfd66c4-df16-458b-9359-ff496afac6d1" d="M277.06,98.56v-14h3.87q7.41,0,7.4,6.83a6.88,6.88,0,0,1-2.05,5.21,7.64,7.64,0,0,1-5.5,2ZM278.7,86v11h2.09a5.94,5.94,0,0,0,4.29-1.47,5.55,5.55,0,0,0,1.53-4.18c0-3.59-1.9-5.38-5.72-5.38Z"/>
      <path class="bbfd66c4-df16-458b-9359-ff496afac6d1" d="M302.61,98.56h-1.82l-1.49-3.93h-5.93L292,98.56h-1.83l5.38-14h1.69Zm-3.84-5.4-2.2-6a6,6,0,0,1-.21-.94h0a5.15,5.15,0,0,1-.23.94l-2.18,6Z"/>
      <path class="bbfd66c4-df16-458b-9359-ff496afac6d1" d="M312.51,86h-4V98.56h-1.64V86h-4V84.55h9.72Z"/>
      <path class="bbfd66c4-df16-458b-9359-ff496afac6d1" d="M325,98.56h-1.81l-1.49-3.93h-5.93l-1.4,3.93h-1.83l5.37-14h1.7Zm-3.83-5.4-2.2-6a7.06,7.06,0,0,1-.22-.94h0a5.15,5.15,0,0,1-.23.94l-2.18,6Z"/>
    </g>
    <g>
      <path class="bbfd66c4-df16-458b-9359-ff496afac6d1" d="M961.73,98.56h-2l-2.34-3.93a9.28,9.28,0,0,0-.63-.93,3.37,3.37,0,0,0-.62-.63,2.13,2.13,0,0,0-.68-.36,3,3,0,0,0-.83-.11h-1.35v6h-1.64v-14h4.18a6.08,6.08,0,0,1,1.7.23,3.85,3.85,0,0,1,1.35.7,3.25,3.25,0,0,1,.89,1.17,4.28,4.28,0,0,1,.1,3,3.62,3.62,0,0,1-.62,1.08,3.92,3.92,0,0,1-1,.82,5,5,0,0,1-1.28.52v0a3.27,3.27,0,0,1,.61.36,3.58,3.58,0,0,1,.49.47,5.25,5.25,0,0,1,.46.62c.16.23.33.5.52.81ZM953.33,86v5.07h2.23a3.49,3.49,0,0,0,1.14-.18,2.68,2.68,0,0,0,.9-.53,2.47,2.47,0,0,0,.6-.85,2.92,2.92,0,0,0,.21-1.13,2.17,2.17,0,0,0-.73-1.75,3.1,3.1,0,0,0-2.1-.63Z"/>
      <path class="bbfd66c4-df16-458b-9359-ff496afac6d1" d="M972.08,98.56h-7.42v-14h7.11V86H966.3v4.65h5.06v1.48H966.3v4.9h5.78Z"/>
      <path class="bbfd66c4-df16-458b-9359-ff496afac6d1" d="M984.09,86h-4V98.56h-1.64V86h-4V84.55h9.71Z"/>
      <path class="bbfd66c4-df16-458b-9359-ff496afac6d1" d="M997.33,98.56h-2L993,94.63a7.88,7.88,0,0,0-.62-.93,3.37,3.37,0,0,0-.62-.63,2.07,2.07,0,0,0-.69-.36,2.91,2.91,0,0,0-.82-.11h-1.35v6h-1.64v-14h4.18a6.13,6.13,0,0,1,1.7.23,3.81,3.81,0,0,1,1.34.7,3.28,3.28,0,0,1,.9,1.17,4.28,4.28,0,0,1,.1,3,3.65,3.65,0,0,1-.63,1.08,3.87,3.87,0,0,1-1,.82,5,5,0,0,1-1.29.52v0a2.73,2.73,0,0,1,.61.36,3.14,3.14,0,0,1,.5.47,6.66,6.66,0,0,1,.46.62l.51.81ZM988.93,86v5.07h2.23a3.49,3.49,0,0,0,1.14-.18,2.78,2.78,0,0,0,.9-.53,2.61,2.61,0,0,0,.6-.85,2.92,2.92,0,0,0,.21-1.13,2.17,2.17,0,0,0-.73-1.75,3.1,3.1,0,0,0-2.1-.63Z"/>
      <path class="bbfd66c4-df16-458b-9359-ff496afac6d1" d="M1007.68,98.56h-7.43v-14h7.11V86h-5.47v4.65H1007v1.48h-5.06v4.9h5.79Z"/>
      <path class="bbfd66c4-df16-458b-9359-ff496afac6d1" d="M1014.38,84.55V86H1013V97.15h1.37v1.41H1010V97.15h1.37V86H1010V84.55Z"/>
      <path class="bbfd66c4-df16-458b-9359-ff496afac6d1" d="M1028.1,84.55l-5.18,14h-1.81l-5.08-14h1.83l3.88,11.11a7.15,7.15,0,0,1,.28,1.24h0a6,6,0,0,1,.32-1.26l4-11.09Z"/>
      <path class="bbfd66c4-df16-458b-9359-ff496afac6d1" d="M1038.54,98.56h-7.42v-14h7.1V86h-5.46v4.65h5v1.48h-5v4.9h5.78Z"/>
      <path class="bbfd66c4-df16-458b-9359-ff496afac6d1" d="M1048.71,98.56v-14h3.87q7.39,0,7.4,6.83a6.88,6.88,0,0,1-2,5.21,7.66,7.66,0,0,1-5.51,2ZM1050.35,86v11h2.09a5.94,5.94,0,0,0,4.29-1.47,5.55,5.55,0,0,0,1.53-4.18q0-5.39-5.72-5.38Z"/>
      <path class="bbfd66c4-df16-458b-9359-ff496afac6d1" d="M1074.25,98.56h-1.81L1071,94.63H1065l-1.39,3.93h-1.83l5.37-14h1.7Zm-3.84-5.4-2.19-6a5.76,5.76,0,0,1-.22-.94h0a5.26,5.26,0,0,1-.22.94l-2.18,6Z"/>
      <path class="bbfd66c4-df16-458b-9359-ff496afac6d1" d="M1084.16,86h-4V98.56h-1.65V86h-4V84.55h9.72Z"/>
      <path class="bbfd66c4-df16-458b-9359-ff496afac6d1" d="M1096.69,98.56h-1.81l-1.49-3.93h-5.94l-1.39,3.93h-1.83l5.37-14h1.7Zm-3.84-5.4-2.19-6a4.86,4.86,0,0,1-.22-.94h0a5.26,5.26,0,0,1-.22.94l-2.18,6Z"/>
    </g>
    <path class="e2a43ad9-840e-4f23-b35f-11a73c42237e" d="M1027.72,220.29l-1.43-1.4,12.16-12.42a1.5,1.5,0,0,0,0-1.34l-12.16-12.42,1.43-1.4,12.16,12.42a3.28,3.28,0,0,1,0,4.14Z"/>
    <g class="b8ff894d-2a5c-4499-9829-35ba2b36f6ed">
      <circle class="e8bca1a0-0d16-4a80-9fcf-854c654d941c" cx="645.23" cy="203.83" r="25.84"/>
      <path class="e8bca1a0-0d16-4a80-9fcf-854c654d941c" d="M645.23,229.81a26,26,0,1,1,26-26A26,26,0,0,1,645.23,229.81Zm0-51.67a25.69,25.69,0,1,0,25.69,25.69A25.71,25.71,0,0,0,645.23,178.14Z"/>
    </g>
    <g>
      <circle class="e8bca1a0-0d16-4a80-9fcf-854c654d941c" cx="645.23" cy="203.83" r="9.18"/>
      <path class="e8bca1a0-0d16-4a80-9fcf-854c654d941c" d="M645.23,213.16a9.33,9.33,0,1,1,9.33-9.33A9.35,9.35,0,0,1,645.23,213.16Zm0-18.36a9,9,0,1,0,9,9A9,9,0,0,0,645.23,194.8Z"/>
    </g>
    <path class="a9f192fe-4418-4b4d-9a2b-b171b2ea32e6" d="M229.55,163.16a3,3,0,0,1-2.06-.74l-12.43-12.16,1.4-1.43L228.88,161a1.44,1.44,0,0,0,1.34,0l12.43-12.16,1.4,1.43-12.43,12.16A3,3,0,0,1,229.55,163.16Z"/>
    <path class="a9f192fe-4418-4b4d-9a2b-b171b2ea32e6" d="M230.2,162.18h-2V115.24a.58.58,0,0,0-.59-.59h-84.5v-2h84.5a2.59,2.59,0,0,1,2.59,2.59Z"/>
    <g>
      <rect class="b7d88eb1-3880-4a34-b749-6e9819b224e4" x="1043.63" y="249.45" width="198.75" height="76.64"/>
      <path class="ae64d8ee-20ae-43bd-b769-53435d0061b0" d="M1243.38,327.08H1042.63V248.45h200.75Zm-198.75-2h196.75V250.45H1044.63Z"/>
    </g>
    <g>
      <path class="fc6d59c7-6a12-4698-af68-aa7756c81eea" d="M1087.73,285.07h-6.81v6.32h7.59v1.9h-9.86V275.76h9.47v1.9h-7.2v5.54h6.81Z"/>
      <path class="fc6d59c7-6a12-4698-af68-aa7756c81eea" d="M1102.13,274.83V290c0,1.12,0,2.39.11,3.25h-2.06l-.1-2.19h0a4.66,4.66,0,0,1-4.29,2.48c-3,0-5.39-2.58-5.39-6.4,0-4.19,2.58-6.76,5.65-6.76a4.21,4.21,0,0,1,3.79,1.92h0v-7.51Zm-2.29,11a4,4,0,0,0-.1-1,3.37,3.37,0,0,0-3.3-2.65c-2.37,0-3.77,2.08-3.77,4.87,0,2.54,1.25,4.65,3.72,4.65a3.45,3.45,0,0,0,3.35-2.73,3.86,3.86,0,0,0,.1-1Z"/>
      <path class="fc6d59c7-6a12-4698-af68-aa7756c81eea" d="M1116.77,280.7c0,.91-.1,1.93-.1,3.46v7.31c0,2.89-.58,4.65-1.8,5.74a6.63,6.63,0,0,1-4.57,1.51,8.08,8.08,0,0,1-4.19-1l.57-1.74a7.08,7.08,0,0,0,3.69,1c2.34,0,4.06-1.22,4.06-4.39v-1.41h0a4.5,4.5,0,0,1-4,2.11c-3.12,0-5.35-2.65-5.35-6.14,0-4.26,2.78-6.68,5.67-6.68a4.17,4.17,0,0,1,3.92,2.18h.05l.11-1.9Zm-2.37,5a3.09,3.09,0,0,0-.13-1,3.28,3.28,0,0,0-3.19-2.42c-2.19,0-3.75,1.85-3.75,4.76,0,2.47,1.25,4.53,3.72,4.53a3.35,3.35,0,0,0,3.17-2.34,4.07,4.07,0,0,0,.18-1.23Z"/>
      <path class="fc6d59c7-6a12-4698-af68-aa7756c81eea" d="M1121.74,287.41c0,3.1,2,4.37,4.31,4.37a8.21,8.21,0,0,0,3.49-.65l.39,1.64a10.31,10.31,0,0,1-4.19.78c-3.87,0-6.19-2.55-6.19-6.34s2.24-6.79,5.9-6.79c4.11,0,5.2,3.61,5.2,5.93a10.44,10.44,0,0,1-.07,1.06Zm6.7-1.64c0-1.45-.59-3.71-3.17-3.71-2.31,0-3.33,2.13-3.51,3.71Z"/>
      <path class="fc6d59c7-6a12-4698-af68-aa7756c81eea" d="M1139.08,276a32,32,0,0,1,4.81-.37c3.25,0,5.56.76,7.1,2.19a8.07,8.07,0,0,1,2.47,6.29,9.26,9.26,0,0,1-2.53,6.81c-1.63,1.64-4.34,2.53-7.74,2.53a36.34,36.34,0,0,1-4.11-.21Zm2.26,15.5a14.73,14.73,0,0,0,2.29.13c4.83,0,7.46-2.71,7.46-7.44,0-4.14-2.31-6.76-7.1-6.76a12.9,12.9,0,0,0-2.65.23Z"/>
      <path class="fc6d59c7-6a12-4698-af68-aa7756c81eea" d="M1157.69,287.41c0,3.1,2,4.37,4.32,4.37a8.16,8.16,0,0,0,3.48-.65l.39,1.64a10.21,10.21,0,0,1-4.18.78c-3.88,0-6.19-2.55-6.19-6.34s2.23-6.79,5.9-6.79c4.11,0,5.2,3.61,5.2,5.93a7.78,7.78,0,0,1-.08,1.06Zm6.71-1.64c0-1.45-.6-3.71-3.17-3.71-2.32,0-3.33,2.13-3.51,3.71Z"/>
      <path class="fc6d59c7-6a12-4698-af68-aa7756c81eea" d="M1170.33,280.7l2.47,7.08a33.52,33.52,0,0,1,1,3.22h.08c.29-1,.65-2.08,1.07-3.22l2.44-7.08h2.39l-4.94,12.59h-2.18l-4.79-12.59Z"/>
      <path class="fc6d59c7-6a12-4698-af68-aa7756c81eea" d="M1184.5,277.17a1.42,1.42,0,0,1-2.84,0,1.39,1.39,0,0,1,1.43-1.43A1.36,1.36,0,0,1,1184.5,277.17ZM1182,293.29V280.7h2.29v12.59Z"/>
      <path class="fc6d59c7-6a12-4698-af68-aa7756c81eea" d="M1197,292.82a8.4,8.4,0,0,1-3.61.73c-3.8,0-6.27-2.58-6.27-6.42a6.4,6.4,0,0,1,6.76-6.69,7.72,7.72,0,0,1,3.18.65l-.52,1.77a5.37,5.37,0,0,0-2.66-.6c-2.88,0-4.44,2.14-4.44,4.76,0,2.91,1.87,4.71,4.37,4.71a6.39,6.39,0,0,0,2.8-.63Z"/>
      <path class="fc6d59c7-6a12-4698-af68-aa7756c81eea" d="M1200.8,287.41c0,3.1,2,4.37,4.32,4.37a8.16,8.16,0,0,0,3.48-.65l.39,1.64a10.23,10.23,0,0,1-4.19.78c-3.87,0-6.18-2.55-6.18-6.34s2.23-6.79,5.9-6.79c4.11,0,5.2,3.61,5.2,5.93a7.78,7.78,0,0,1-.08,1.06Zm6.71-1.64c0-1.45-.6-3.71-3.17-3.71-2.32,0-3.33,2.13-3.51,3.71Z"/>
    </g>
    <g>
      <rect class="f4fceb0d-1647-4067-ad85-a3688fdd3fe1" x="1043.92" y="165.37" width="198.75" height="76.64"/>
      <path class="e8bca1a0-0d16-4a80-9fcf-854c654d941c" d="M1243.67,243H1042.92V164.37h200.75Zm-198.75-2h196.75V166.37H1044.92Z"/>
    </g>
    <g>
      <rect class="fe260451-43f9-49ff-afea-6f93690bd858" x="1167.31" y="81.29" width="76.64" height="76.64" rx="19.44"/>
      <path class="e8bca1a0-0d16-4a80-9fcf-854c654d941c" d="M1224.51,158.92h-37.76a20.46,20.46,0,0,1-20.44-20.44V100.73a20.46,20.46,0,0,1,20.44-20.44h37.76A20.46,20.46,0,0,1,1245,100.73v37.75A20.46,20.46,0,0,1,1224.51,158.92Zm-37.76-76.63a18.46,18.46,0,0,0-18.44,18.44v37.75a18.46,18.46,0,0,0,18.44,18.44h37.76A18.46,18.46,0,0,0,1243,138.48V100.73a18.46,18.46,0,0,0-18.44-18.44Z"/>
    </g>
    <g>
      <path class="a52d6d71-649a-4607-86de-755e5ca2cd23" d="M1100.63,203.7l-1.82,5.51h-2.34l6-17.53h2.73l6,17.53h-2.42l-1.87-5.51Zm5.75-1.77-1.72-5.05c-.39-1.14-.65-2.18-.91-3.19h0c-.26,1-.54,2.1-.88,3.17l-1.72,5.07Z"/>
      <path class="a52d6d71-649a-4607-86de-755e5ca2cd23" d="M1122.29,208.74a8.44,8.44,0,0,1-3.61.73c-3.8,0-6.27-2.58-6.27-6.42a6.4,6.4,0,0,1,6.76-6.69,7.66,7.66,0,0,1,3.17.65l-.52,1.77a5.29,5.29,0,0,0-2.65-.6c-2.88,0-4.44,2.14-4.44,4.76,0,2.91,1.87,4.71,4.36,4.71a6.44,6.44,0,0,0,2.81-.63Z"/>
      <path class="a52d6d71-649a-4607-86de-755e5ca2cd23" d="M1128.06,193v3.61h3.28v1.75h-3.28v6.78c0,1.56.45,2.45,1.72,2.45a5,5,0,0,0,1.33-.16l.1,1.72a5.63,5.63,0,0,1-2,.31,3.2,3.2,0,0,1-2.47-1,4.68,4.68,0,0,1-.88-3.28v-6.86h-1.95v-1.75h1.95v-3Z"/>
      <path class="a52d6d71-649a-4607-86de-755e5ca2cd23" d="M1135,196.62l2.76,7.44c.28.83.59,1.82.8,2.57h0c.24-.75.5-1.71.81-2.62l2.5-7.39h2.41l-3.43,9c-1.64,4.32-2.75,6.53-4.31,7.88a6.15,6.15,0,0,1-2.81,1.48l-.57-1.92a5.93,5.93,0,0,0,2-1.12,7,7,0,0,0,1.92-2.55,1.46,1.46,0,0,0,.18-.54,2.1,2.1,0,0,0-.15-.6l-4.66-11.6Z"/>
      <path class="a52d6d71-649a-4607-86de-755e5ca2cd23" d="M1147.46,196.62l1.79,2.71c.47.7.86,1.35,1.28,2h.08c.41-.75.83-1.4,1.24-2.08l1.77-2.68h2.47l-4.29,6.09,4.42,6.5h-2.6l-1.84-2.84c-.5-.72-.92-1.43-1.36-2.18h-.05c-.41.75-.86,1.43-1.32,2.18l-1.83,2.84h-2.52l4.48-6.42-4.27-6.17Z"/>
      <path class="a52d6d71-649a-4607-86de-755e5ca2cd23" d="M1173.49,200.26c0,6-3.67,9.24-8.14,9.24-4.63,0-7.88-3.59-7.88-8.9,0-5.56,3.46-9.2,8.14-9.2S1173.49,195.06,1173.49,200.26Zm-13.6.29c0,3.74,2,7.1,5.59,7.1s5.61-3.3,5.61-7.28c0-3.49-1.82-7.13-5.59-7.13S1159.89,196.7,1159.89,200.55Z"/>
      <path class="a52d6d71-649a-4607-86de-755e5ca2cd23" d="M1176.11,206.45a8,8,0,0,0,4.06,1.15c2.31,0,3.66-1.23,3.66-3s-.93-2.58-3.3-3.49c-2.86-1-4.63-2.49-4.63-5,0-2.73,2.27-4.76,5.67-4.76a7.88,7.88,0,0,1,3.88.86l-.63,1.84a7,7,0,0,0-3.33-.83c-2.39,0-3.3,1.43-3.3,2.63,0,1.63,1.07,2.44,3.49,3.38,3,1.14,4.47,2.57,4.47,5.14s-2,5.05-6.14,5.05a9.07,9.07,0,0,1-4.47-1.12Z"/>
    </g>
    <g>
      <path class="b2100c58-e26c-4792-b744-3315091b71bc" d="M1188,119.36l-1.82,5.51h-2.34l6-17.53h2.73l6,17.53h-2.42l-1.87-5.51Zm5.74-1.77-1.71-5c-.39-1.14-.65-2.18-.91-3.19h0c-.26,1-.55,2.1-.89,3.17l-1.71,5.07Z"/>
      <path class="b2100c58-e26c-4792-b744-3315091b71bc" d="M1200.92,116.39c0-1.61-.05-2.91-.1-4.11h2l.1,2.16h.06a4.94,4.94,0,0,1,4.47-2.44c3,0,5.33,2.57,5.33,6.39,0,4.53-2.76,6.76-5.72,6.76a4.41,4.41,0,0,1-3.88-2h0V130h-2.26Zm2.26,3.36a4.47,4.47,0,0,0,.11.93,3.52,3.52,0,0,0,3.43,2.68c2.42,0,3.82-2,3.82-4.86,0-2.52-1.33-4.68-3.74-4.68a3.65,3.65,0,0,0-3.46,2.83,3.7,3.7,0,0,0-.16.94Z"/>
      <path class="b2100c58-e26c-4792-b744-3315091b71bc" d="M1215.71,116.39c0-1.61,0-2.91-.1-4.11h2.05l.11,2.16h0a5,5,0,0,1,4.47-2.44c3,0,5.33,2.57,5.33,6.39,0,4.53-2.75,6.76-5.72,6.76a4.4,4.4,0,0,1-3.87-2h0V130h-2.27Zm2.27,3.36a5.3,5.3,0,0,0,.1.93,3.53,3.53,0,0,0,3.43,2.68c2.42,0,3.82-2,3.82-4.86,0-2.52-1.32-4.68-3.74-4.68a3.65,3.65,0,0,0-3.46,2.83,3.69,3.69,0,0,0-.15.94Z"/>
    </g>
    <path class="a9f192fe-4418-4b4d-9a2b-b171b2ea32e6" d="M1152.62,130.33l-1.43-1.4,12.16-12.42a1.5,1.5,0,0,0,0-1.34l-12.16-12.43,1.43-1.4,12.16,12.43a3.28,3.28,0,0,1,0,4.14Z"/>
    <path class="a9f192fe-4418-4b4d-9a2b-b171b2ea32e6" d="M1080.35,164.42h-2V117.48a2.59,2.59,0,0,1,2.59-2.59h84.5v2h-84.5a.58.58,0,0,0-.59.59Z"/>
  </g>
</svg>
