<svg xmlns="http://www.w3.org/2000/svg" width="1310.93" height="656.33"><defs><pattern id="f6c11309-407f-42c1-8b13-ae603b41125e" data-name="Docs Polka Background" width="60" height="60" patternTransform="matrix(.87 0 0 .65 618.26 1302.81)" patternUnits="userSpaceOnUse"><path fill="none" d="M0 0h60v60H0z"/><circle cx="30" cy="30" r="2.47" fill="#dceaf4"/></pattern><style>.a45ab718-bbfa-42bd-94d4-d5ce23be0903{fill:#fff}.fee55c0a-7652-40f9-9b07-dec1db56e024{fill:#b2bfce}.a2c84f25-2552-4fde-ad15-78975969052c{fill:#f7fafc}.b0556004-f245-4e3e-9239-3e377fb2a9fe,.bd5ca834-4f4f-4710-90eb-81c92c4e22a2{fill:#75828e}.bd5ca834-4f4f-4710-90eb-81c92c4e22a2{stroke:#75828e;stroke-miterlimit:10;stroke-width:.5px}.fdfcbe06-1a2a-4e52-b989-0e7cb55bc0f0{fill:#1998ff}.ffbf6392-a55a-4108-a18e-fbf14e34f694{opacity:.2}</style></defs><path fill="url(#f6c11309-407f-42c1-8b13-ae603b41125e)" d="M3.54 3.74h1305.22v651.58H3.54z" id="bfd71821-ffd5-4183-b245-fae51e93b4d3" data-name="Layer 2"/><g id="a7a8921f-fb66-40d0-97d4-d04f60cb642d" data-name="Layer 1"><path class="a45ab718-bbfa-42bd-94d4-d5ce23be0903" d="M962.79 76.24h233.39v93.49H962.79z"/><path class="fee55c0a-7652-40f9-9b07-dec1db56e024" d="M1197.18 170.73H961.79V75.24h235.39zm-233.39-2h231.39V77.24H963.79z"/><path class="a2c84f25-2552-4fde-ad15-78975969052c" d="M962.79 175.54h233.39v93.49H962.79z"/><path class="fee55c0a-7652-40f9-9b07-dec1db56e024" d="M1197.18 270H961.79v-95.5h235.39zm-233.39-2h231.39v-91.5H963.79z"/><path class="bd5ca834-4f4f-4710-90eb-81c92c4e22a2" d="M1032.75 109.58a8.09 8.09 0 004.06 1.14c2.31 0 3.66-1.22 3.66-3s-.93-2.58-3.3-3.48c-2.86-1-4.63-2.5-4.63-5 0-2.73 2.27-4.76 5.67-4.76a8 8 0 013.88.86l-.63 1.85a6.86 6.86 0 00-3.33-.84c-2.39 0-3.3 1.43-3.3 2.63 0 1.64 1.07 2.44 3.49 3.38 3 1.14 4.47 2.57 4.47 5.15s-2 5-6.14 5a9 9 0 01-4.47-1.12zm24.6-3.64c0 4.65-3.23 6.68-6.27 6.68-3.4 0-6-2.5-6-6.48 0-4.21 2.76-6.68 6.24-6.68s6.03 2.63 6.03 6.48zm-10 .13c0 2.75 1.59 4.83 3.83 4.83s3.82-2.05 3.82-4.89c0-2.13-1.07-4.83-3.77-4.83s-3.87 2.49-3.87 4.89zm13.12 6.26v-10.84h-1.77v-1.74h1.77v-.6a6 6 0 011.45-4.4 4.41 4.41 0 013.07-1.17 5.31 5.31 0 012 .37l-.31 1.77a3.38 3.38 0 00-1.46-.29c-2 0-2.44 1.72-2.44 3.64v.68h3v1.74h-3v10.84zm10.4-16.2v3.62h3.27v1.74h-3.27v6.79c0 1.56.44 2.44 1.71 2.44a5 5 0 001.33-.16l.1 1.72a5.61 5.61 0 01-2 .31 3.17 3.17 0 01-2.47-1 4.67 4.67 0 01-.89-3.28v-6.86h-2v-1.7h2v-3zm6.99 3.62l1.67 6.39c.36 1.41.7 2.71.93 4h.08c.29-1.28.7-2.63 1.12-4l2-6.42h1.93l1.95 6.29c.46 1.51.83 2.83 1.11 4.11h.08a39.29 39.29 0 011-4.08l1.8-6.32h2.26l-4.06 12.58h-2.08l-1.92-6a42.67 42.67 0 01-1.12-4.14 37 37 0 01-1.14 4.16l-2 6h-2.08l-3.8-12.58zm25.14 12.58l-.18-1.58h-.08a4.7 4.7 0 01-3.85 1.87A3.59 3.59 0 011095 109c0-3 2.7-4.7 7.56-4.68v-.26a2.59 2.59 0 00-2.86-2.91 6.26 6.26 0 00-3.27.94l-.52-1.51a7.75 7.75 0 014.13-1.12c3.85 0 4.78 2.63 4.78 5.15v4.71a18.3 18.3 0 00.21 3zm-.34-6.42c-2.49 0-5.33.39-5.33 2.83a2 2 0 002.16 2.19 3.12 3.12 0 003-2.11 2.29 2.29 0 00.13-.73zm5.85-2.24c0-1.48 0-2.75-.1-3.92h2l.08 2.47h.1a3.8 3.8 0 013.49-2.76 2.57 2.57 0 01.65.08v2.16a3.53 3.53 0 00-.78-.08 3.21 3.21 0 00-3.07 2.94 6.59 6.59 0 00-.1 1.06v6.71h-2.27zm9.49 2.79c0 3.09 2 4.36 4.32 4.36a8.16 8.16 0 003.48-.65l.39 1.64a10 10 0 01-4.18.78c-3.88 0-6.19-2.55-6.19-6.34s2.23-6.79 5.9-6.79c4.11 0 5.2 3.61 5.2 5.93a8 8 0 01-.08 1.07zm6.71-1.64c0-1.46-.6-3.72-3.17-3.72-2.32 0-3.33 2.13-3.51 3.72zm-96.1 38.18a11.22 11.22 0 01-4.63.83c-4.94 0-8.66-3.12-8.66-8.86 0-5.49 3.72-9.21 9.15-9.21a9.41 9.41 0 014.16.78l-.54 1.85a8.19 8.19 0 00-3.54-.73c-4.11 0-6.84 2.63-6.84 7.23 0 4.29 2.47 7 6.74 7a9.11 9.11 0 003.69-.72zm13.85-5.86c0 4.65-3.22 6.68-6.26 6.68-3.41 0-6-2.5-6-6.48 0-4.21 2.76-6.68 6.25-6.68s6.01 2.63 6.01 6.48zm-10 .13c0 2.75 1.59 4.83 3.82 4.83s3.82-2 3.82-4.89c0-2.13-1.06-4.83-3.77-4.83s-3.85 2.49-3.85 4.89zm12.89-2.92c0-1.3 0-2.36-.11-3.4h2l.1 2h.08a4.33 4.33 0 014-2.32 3.71 3.71 0 013.56 2.52h.06a5.16 5.16 0 011.4-1.63 4.25 4.25 0 012.78-.89c1.67 0 4.14 1.09 4.14 5.46v7.41h-2.24v-7.12c0-2.42-.88-3.88-2.73-3.88a3 3 0 00-2.7 2.08 3.64 3.64 0 00-.19 1.15v7.77h-2.23V136c0-2-.89-3.46-2.63-3.46a3.12 3.12 0 00-2.83 2.29 3.17 3.17 0 00-.18 1.12v7.59h-2.24zm21.65.71c0-1.62 0-2.92-.1-4.11h2l.11 2.16h.05a4.93 4.93 0 014.47-2.45c3 0 5.33 2.58 5.33 6.4 0 4.52-2.75 6.76-5.72 6.76a4.4 4.4 0 01-3.87-2v6.84H1067zm2.27 3.35a5.42 5.42 0 00.1.94 3.53 3.53 0 003.43 2.67c2.42 0 3.82-2 3.82-4.86 0-2.52-1.32-4.68-3.74-4.68a3.65 3.65 0 00-3.46 2.84 3.55 3.55 0 00-.15.93zm23.95-1.27c0 4.65-3.23 6.68-6.27 6.68-3.41 0-6-2.5-6-6.48 0-4.21 2.75-6.68 6.24-6.68s6.03 2.63 6.03 6.48zm-10 .13c0 2.75 1.59 4.83 3.82 4.83s3.82-2 3.82-4.89c0-2.13-1.06-4.83-3.77-4.83s-3.86 2.49-3.86 4.89zm12.88-2.92c0-1.3 0-2.36-.1-3.4h2l.13 2.08h.06a4.62 4.62 0 014.16-2.37c1.74 0 4.44 1 4.44 5.36v7.51h-2.29v-7.25c0-2-.75-3.72-2.91-3.72a3.26 3.26 0 00-3.07 2.34 3.46 3.46 0 00-.15 1.07v7.56h-2.29zm15.7 3.31c.06 3.09 2 4.36 4.32 4.36a8.13 8.13 0 003.48-.65l.4 1.63a10 10 0 01-4.18.78c-3.88 0-6.19-2.55-6.19-6.34s2.24-6.79 5.9-6.79c4.11 0 5.2 3.62 5.2 5.93a8 8 0 01-.08 1.07zm6.71-1.64c0-1.46-.6-3.72-3.17-3.72-2.31 0-3.33 2.13-3.51 3.72zm5.05-1.67c0-1.3 0-2.36-.11-3.4h2l.13 2.08h.05a4.63 4.63 0 014.16-2.37c1.74 0 4.45 1 4.45 5.36v7.51H1132v-7.25c0-2-.75-3.72-2.91-3.72a3.26 3.26 0 00-3.07 2.34 3.44 3.44 0 00-.16 1.07v7.56h-2.28zm17.08-7.02V131h3.27v1.74h-3.27v6.79c0 1.56.44 2.44 1.71 2.44a5 5 0 001.33-.16l.1 1.72a5.61 5.61 0 01-2 .31 3.17 3.17 0 01-2.47-1 4.67 4.67 0 01-.89-3.28v-6.86h-2V131h2v-3zm-103.17 69.19a32.14 32.14 0 014.81-.37c3.25 0 5.57.76 7.1 2.19a8.07 8.07 0 012.47 6.29 9.25 9.25 0 01-2.52 6.81c-1.64 1.64-4.34 2.52-7.75 2.52a36.86 36.86 0 01-4.11-.2zm2.26 15.49a13.72 13.72 0 002.29.13c4.84 0 7.46-2.7 7.46-7.43 0-4.14-2.31-6.76-7.09-6.76a13 13 0 00-2.66.23zm16.36-4.08c.05 3.1 2 4.37 4.31 4.37a8.37 8.37 0 003.49-.65l.39 1.64a10.31 10.31 0 01-4.19.78c-3.87 0-6.19-2.55-6.19-6.35s2.24-6.78 5.9-6.78c4.11 0 5.21 3.61 5.21 5.93a9.86 9.86 0 01-.08 1.06zm6.71-1.64c0-1.45-.6-3.71-3.18-3.71-2.31 0-3.33 2.13-3.51 3.71zm5.92-5.07l2.47 7.08a31.08 31.08 0 011 3.22h.07c.29-1 .65-2.08 1.07-3.22l2.45-7.08h2.39l-4.94 12.59h-2.19l-4.78-12.59zm14.17-3.53a1.34 1.34 0 01-1.45 1.4 1.36 1.36 0 01-1.38-1.4 1.39 1.39 0 011.43-1.43 1.35 1.35 0 011.4 1.43zm-2.55 16.12v-12.59h2.29v12.59zm15.06-.47a8.49 8.49 0 01-3.62.73c-3.79 0-6.26-2.58-6.26-6.42a6.4 6.4 0 016.76-6.69 7.66 7.66 0 013.17.65l-.52 1.77a5.32 5.32 0 00-2.65-.6c-2.89 0-4.45 2.14-4.45 4.76 0 2.91 1.87 4.71 4.37 4.71a6.44 6.44 0 002.81-.63zm3.8-5.41c0 3.1 2 4.37 4.31 4.37a8.28 8.28 0 003.48-.65l.39 1.64a10.21 10.21 0 01-4.18.78c-3.88 0-6.19-2.55-6.19-6.35s2.24-6.78 5.9-6.78c4.11 0 5.2 3.61 5.2 5.93a7.78 7.78 0 01-.08 1.06zm6.7-1.64c0-1.45-.6-3.71-3.17-3.71-2.31 0-3.33 2.13-3.51 3.71zm8.63 8.56l7.26-18.85h1.77l-7.28 18.85zm-75.75 29.59a11.29 11.29 0 01-4.62.83c-4.94 0-8.66-3.12-8.66-8.87 0-5.48 3.72-9.2 9.15-9.2a9.45 9.45 0 014.16.78l-.55 1.84a8.3 8.3 0 00-3.53-.72c-4.11 0-6.84 2.62-6.84 7.22 0 4.29 2.47 7.05 6.73 7.05a9.12 9.12 0 003.7-.73zm13.86-5.83c0 4.66-3.22 6.68-6.26 6.68-3.41 0-6-2.49-6-6.47 0-4.21 2.76-6.68 6.24-6.68s6.02 2.62 6.02 6.47zm-10 .13c0 2.76 1.58 4.84 3.82 4.84s3.82-2.06 3.82-4.89c0-2.13-1.06-4.84-3.77-4.84s-3.85 2.5-3.85 4.89zm12.89-2.91c0-1.3 0-2.37-.11-3.41h2l.1 2h.08a4.34 4.34 0 014-2.31 3.71 3.71 0 013.56 2.52h.05a5.23 5.23 0 011.41-1.64 4.28 4.28 0 012.78-.88c1.66 0 4.13 1.09 4.13 5.46V245h-2.23v-7.13c0-2.41-.89-3.87-2.73-3.87a3 3 0 00-2.71 2.08 3.89 3.89 0 00-.18 1.14V245h-2.23v-7.54c0-2-.89-3.46-2.63-3.46a3.11 3.11 0 00-2.83 2.29 3.18 3.18 0 00-.19 1.12V245h-2.23zm21.68.7c0-1.61 0-2.91-.1-4.11h2.05l.11 2.16a5 5 0 014.47-2.44c3 0 5.33 2.57 5.33 6.39 0 4.53-2.76 6.76-5.72 6.76a4.4 4.4 0 01-3.87-2h-.06v6.84h-2.26zm2.26 3.36a5.27 5.27 0 00.11.93 3.52 3.52 0 003.43 2.68c2.42 0 3.82-2 3.82-4.86 0-2.52-1.32-4.68-3.74-4.68a3.65 3.65 0 00-3.46 2.83 3.7 3.7 0 00-.16.94zm23.07 1.69c0 1.3 0 2.44.1 3.43h-2l-.13-2.06a4.72 4.72 0 01-4.16 2.34c-2 0-4.34-1.09-4.34-5.51v-7.36h2.29v7c0 2.39.72 4 2.8 4a3.32 3.32 0 003-2.08 3.38 3.38 0 00.21-1.17v-7.73h2.29zm6.55-12.77v3.61h3.27v1.75h-3.27V241c0 1.56.44 2.45 1.71 2.45a5 5 0 001.33-.16l.1 1.72a5.61 5.61 0 01-2 .31 3.17 3.17 0 01-2.47-1 4.68 4.68 0 01-.89-3.28v-6.86h-1.95v-1.75h1.95v-3zm6.97 10.32c0 3.1 2 4.37 4.31 4.37a8.37 8.37 0 003.49-.65l.39 1.64a10.31 10.31 0 01-4.19.78c-3.87 0-6.19-2.55-6.19-6.35s2.24-6.78 5.9-6.78c4.11 0 5.2 3.61 5.2 5.93a10.44 10.44 0 01-.07 1.06zm6.7-1.64c0-1.45-.59-3.71-3.17-3.71-2.31 0-3.33 2.13-3.51 3.71zm5.05-1.14c0-1.48 0-2.76-.11-3.93h2l.07 2.47h.11a3.77 3.77 0 013.48-2.75 2.18 2.18 0 01.65.08v2.15a3.58 3.58 0 00-.78-.07 3.22 3.22 0 00-3.07 2.93 6.83 6.83 0 00-.1 1.07v6.7h-2.26z"/><path class="a45ab718-bbfa-42bd-94d4-d5ce23be0903" d="M542.87 399.81h233.39v93.49H542.87z"/><path class="fee55c0a-7652-40f9-9b07-dec1db56e024" d="M777.26 494.3H541.87v-95.49h235.39zm-233.39-2h231.39v-91.49H543.87z"/><path class="a2c84f25-2552-4fde-ad15-78975969052c" d="M542.87 499.11h233.39v93.49H542.87z"/><path class="fee55c0a-7652-40f9-9b07-dec1db56e024" d="M777.26 593.6H541.87v-95.49h235.39zm-233.39-2h231.39v-91.49H543.87z"/><path class="bd5ca834-4f4f-4710-90eb-81c92c4e22a2" d="M612.83 433.14a8 8 0 004.06 1.14c2.31 0 3.67-1.22 3.67-3s-.94-2.57-3.31-3.48c-2.86-1-4.62-2.49-4.62-5 0-2.73 2.26-4.75 5.66-4.75a7.88 7.88 0 013.88.86l-.63 1.84a7 7 0 00-3.32-.83c-2.4 0-3.31 1.43-3.31 2.62 0 1.64 1.07 2.45 3.49 3.38 3 1.15 4.47 2.58 4.47 5.15s-2 5.05-6.14 5.05a9.1 9.1 0 01-4.47-1.12zm24.6-3.64c0 4.65-3.22 6.68-6.27 6.68-3.4 0-6-2.49-6-6.47 0-4.21 2.76-6.68 6.24-6.68s6.03 2.62 6.03 6.47zm-10 .13c0 2.76 1.58 4.84 3.82 4.84s3.82-2.06 3.82-4.89c0-2.13-1.07-4.84-3.77-4.84s-3.85 2.5-3.85 4.89zm13.12 6.27v-10.85h-1.77v-1.74h1.77v-.6a5.91 5.91 0 011.46-4.39 4.36 4.36 0 013.06-1.17 5.33 5.33 0 011.95.36l-.31 1.77a3.5 3.5 0 00-1.45-.28c-2 0-2.45 1.71-2.45 3.64v.67h3v1.74h-3v10.85zM651 419.7v3.61h3.28v1.74H651v6.79c0 1.56.44 2.44 1.72 2.44a5 5 0 001.32-.15l.11 1.72a5.71 5.71 0 01-2 .31 3.17 3.17 0 01-2.47-1 4.68 4.68 0 01-.89-3.28v-6.87h-2v-1.74h2v-3zm6.94 3.61l1.67 6.4c.36 1.4.7 2.7.93 4h.08c.29-1.27.7-2.62 1.12-4l2-6.43h1.93l1.95 6.3c.47 1.5.83 2.83 1.12 4.1h.07a37.6 37.6 0 011-4.08l1.79-6.32h2.26l-4 12.59h-2.08l-1.93-6c-.44-1.4-.8-2.65-1.12-4.13h-.05a37 37 0 01-1.14 4.16l-2 6h-2.14l-3.8-12.59zM683 435.9l-.18-1.59h-.08a4.67 4.67 0 01-3.84 1.87 3.58 3.58 0 01-3.85-3.61c0-3 2.7-4.71 7.56-4.68v-.26a2.59 2.59 0 00-2.86-2.91 6.25 6.25 0 00-3.27.93l-.52-1.51a7.84 7.84 0 014.13-1.11c3.85 0 4.79 2.62 4.79 5.14v4.71a18.5 18.5 0 00.2 3zm-.33-6.42c-2.5-.06-5.34.38-5.34 2.83a2 2 0 002.16 2.18 3.15 3.15 0 003.05-2.1 2.74 2.74 0 00.13-.73zm5.93-2.24c0-1.48 0-2.76-.11-3.93h2l.08 2.47h.11a3.77 3.77 0 013.48-2.75 2.18 2.18 0 01.65.08v2.15a3.58 3.58 0 00-.78-.07 3.21 3.21 0 00-3.07 2.93 6.83 6.83 0 00-.1 1.07v6.71h-2.26zm9.51 2.76c0 3.09 2 4.37 4.32 4.37a8.32 8.32 0 003.48-.65l.39 1.64a10.21 10.21 0 01-4.18.78c-3.88 0-6.19-2.55-6.19-6.35s2.23-6.78 5.9-6.78c4.11 0 5.2 3.61 5.2 5.92A7.82 7.82 0 01707 430zm6.71-1.64c0-1.45-.6-3.72-3.17-3.72-2.32 0-3.33 2.14-3.51 3.72zm-96.13 38.17a11.35 11.35 0 01-4.63.83c-4.94 0-8.66-3.12-8.66-8.87 0-5.49 3.72-9.2 9.15-9.2a9.26 9.26 0 014.16.78l-.54 1.84a8.35 8.35 0 00-3.54-.72c-4.11 0-6.84 2.62-6.84 7.22 0 4.29 2.47 7 6.74 7a9.07 9.07 0 003.69-.73zm13.86-5.83c0 4.66-3.23 6.68-6.27 6.68-3.41 0-6-2.49-6-6.47 0-4.21 2.75-6.68 6.24-6.68s6.03 2.62 6.03 6.47zm-10 .13c0 2.76 1.59 4.84 3.82 4.84s3.82-2.06 3.82-4.89c0-2.13-1.06-4.84-3.77-4.84s-3.86 2.5-3.86 4.89zm12.88-2.91c0-1.3 0-2.37-.1-3.41h2l.1 2h.08a4.34 4.34 0 014-2.31 3.71 3.71 0 013.56 2.52h.06a5.21 5.21 0 011.4-1.64 4.32 4.32 0 012.78-.88c1.67 0 4.14 1.09 4.14 5.46v7.41h-2.24V460c0-2.41-.88-3.87-2.73-3.87a3 3 0 00-2.7 2.08 3.59 3.59 0 00-.18 1.14v7.78h-2.24v-7.54c0-2-.88-3.46-2.63-3.46a3.41 3.41 0 00-3 3.41v7.59h-2.24zm21.68.7c0-1.61-.05-2.91-.1-4.11h2l.11 2.16h.05a5 5 0 014.47-2.44c3 0 5.33 2.57 5.33 6.39 0 4.53-2.75 6.76-5.72 6.76a4.42 4.42 0 01-3.87-2v6.84h-2.27zm2.27 3.36a5.41 5.41 0 00.1.93 3.53 3.53 0 003.43 2.68c2.42 0 3.83-2 3.83-4.86 0-2.53-1.33-4.68-3.75-4.68a3.64 3.64 0 00-3.46 2.83 3.69 3.69 0 00-.15.94zm23.92-1.28c0 4.66-3.23 6.68-6.27 6.68-3.41 0-6-2.49-6-6.47 0-4.21 2.75-6.68 6.24-6.68s6.03 2.62 6.03 6.47zm-10 .13c0 2.76 1.59 4.84 3.82 4.84s3.83-2.06 3.83-4.89c0-2.13-1.07-4.84-3.77-4.84s-3.87 2.5-3.87 4.89zm12.88-2.91c0-1.3 0-2.37-.1-3.41h2l.13 2.08a4.63 4.63 0 014.16-2.36c1.74 0 4.44 1 4.44 5.35v7.52h-2.28v-7.26c0-2-.76-3.72-2.92-3.72a3.25 3.25 0 00-3.06 2.34 3.17 3.17 0 00-.16 1.07v7.57h-2.29zm15.71 3.3c.05 3.1 2 4.37 4.31 4.37a8.37 8.37 0 003.49-.65l.39 1.64a10.31 10.31 0 01-4.19.78c-3.87 0-6.19-2.55-6.19-6.35s2.24-6.78 5.9-6.78c4.11 0 5.2 3.61 5.2 5.92a10.47 10.47 0 01-.07 1.07zm6.7-1.64c0-1.45-.59-3.72-3.17-3.72-2.31 0-3.33 2.14-3.51 3.72zm5.05-1.66c0-1.3 0-2.37-.11-3.41h2l.13 2.08a4.64 4.64 0 014.16-2.36c1.75 0 4.45 1 4.45 5.35v7.52h-2.29v-7.26c0-2-.75-3.72-2.91-3.72a3.26 3.26 0 00-3.07 2.34 3.46 3.46 0 00-.15 1.07v7.57h-2.29zm17.08-7.02v3.61H724v1.74h-3.28V463c0 1.56.44 2.45 1.72 2.45a4.93 4.93 0 001.32-.16l.11 1.72a5.71 5.71 0 01-2 .31 3.17 3.17 0 01-2.47-1 4.68 4.68 0 01-.89-3.28v-6.87h-2v-1.74h2v-3zm-103.17 69.18a32.24 32.24 0 014.81-.36c3.25 0 5.57.75 7.1 2.18a8.08 8.08 0 012.47 6.3 9.25 9.25 0 01-2.52 6.81c-1.64 1.64-4.34 2.52-7.75 2.52a36.6 36.6 0 01-4.11-.21zm2.27 15.5a14.67 14.67 0 002.28.13c4.84 0 7.47-2.7 7.47-7.44 0-4.13-2.32-6.76-7.1-6.76a12.69 12.69 0 00-2.65.24zm16.35-4.08c.05 3.09 2 4.37 4.31 4.37a8.37 8.37 0 003.49-.65l.39 1.63a10.14 10.14 0 01-4.19.78c-3.87 0-6.19-2.54-6.19-6.34s2.24-6.79 5.91-6.79c4.1 0 5.2 3.62 5.2 5.93a10.09 10.09 0 01-.08 1.07zm6.71-1.64c0-1.46-.6-3.72-3.18-3.72-2.31 0-3.32 2.13-3.51 3.72zm5.92-5.07l2.47 7.07a32 32 0 011 3.23h.08c.28-1 .65-2.08 1.06-3.23l2.45-7.07h2.39l-4.94 12.58h-2.19l-4.78-12.58zm14.2-3.54a1.35 1.35 0 01-1.45 1.41 1.36 1.36 0 01-1.38-1.41 1.4 1.4 0 011.43-1.43 1.36 1.36 0 011.4 1.43zm-2.54 16.12v-12.58h2.28v12.58zm15.02-.46a8.47 8.47 0 01-3.61.72c-3.8 0-6.27-2.57-6.27-6.42a6.39 6.39 0 016.76-6.68 7.66 7.66 0 013.17.65L675 527a5.29 5.29 0 00-2.65-.6c-2.89 0-4.45 2.13-4.45 4.76 0 2.91 1.88 4.7 4.37 4.7a6.46 6.46 0 002.81-.62zm3.8-5.41c.05 3.09 2 4.37 4.31 4.37a8.37 8.37 0 003.49-.65l.39 1.63a10.14 10.14 0 01-4.19.78c-3.87 0-6.19-2.54-6.19-6.34s2.24-6.79 5.9-6.79c4.11 0 5.2 3.62 5.2 5.93a10.69 10.69 0 01-.07 1.07zm6.7-1.64c0-1.46-.59-3.72-3.17-3.72-2.31 0-3.33 2.13-3.51 3.72zm8.64 8.55l7.25-18.85h1.77l-7.28 18.85zM618.87 568a11.22 11.22 0 01-4.63.83c-4.94 0-8.66-3.12-8.66-8.86 0-5.49 3.72-9.21 9.15-9.21a9.41 9.41 0 014.16.78l-.54 1.85a8.19 8.19 0 00-3.54-.73c-4.11 0-6.84 2.63-6.84 7.23 0 4.29 2.47 7.05 6.74 7.05a9.1 9.1 0 003.69-.73zm13.85-5.82c0 4.65-3.22 6.68-6.26 6.68-3.41 0-6-2.5-6-6.47 0-4.22 2.75-6.69 6.24-6.69s6.02 2.63 6.02 6.48zm-10 .13c0 2.75 1.59 4.83 3.82 4.83s3.82-2 3.82-4.88c0-2.14-1.06-4.84-3.77-4.84s-3.85 2.5-3.85 4.89zm12.89-2.91c0-1.3 0-2.37-.1-3.41h2l.1 2h.08a4.33 4.33 0 013.95-2.32 3.7 3.7 0 013.56 2.53h.06a5.1 5.1 0 011.4-1.64 4.31 4.31 0 012.78-.89c1.67 0 4.14 1.1 4.14 5.46v7.41h-2.24v-7.12c0-2.42-.88-3.87-2.73-3.87a3 3 0 00-2.7 2.08 3.53 3.53 0 00-.19 1.14v7.77h-2.23V561c0-2-.89-3.45-2.63-3.45a3.11 3.11 0 00-2.83 2.28 3.17 3.17 0 00-.18 1.12v7.59h-2.24zm21.68.7c0-1.61 0-2.91-.1-4.11h2l.11 2.16a5 5 0 014.47-2.45c3 0 5.33 2.58 5.33 6.4 0 4.52-2.75 6.76-5.72 6.76a4.4 4.4 0 01-3.87-2h-.05v6.84h-2.27zm2.27 3.35a5.42 5.42 0 00.1.94 3.54 3.54 0 003.43 2.68c2.42 0 3.82-2 3.82-4.87 0-2.52-1.32-4.68-3.74-4.68a3.65 3.65 0 00-3.46 2.84 3.55 3.55 0 00-.15.93zm23.06 1.69c0 1.3 0 2.45.1 3.43h-2l-.13-2.05a4.74 4.74 0 01-4.16 2.34c-2 0-4.34-1.09-4.34-5.51V556h2.29v7c0 2.39.73 4 2.81 4a3.29 3.29 0 003-2.08 3.34 3.34 0 00.21-1.17V556h2.29zm6.55-12.76V556h3.28v1.74h-3.28v6.79c0 1.56.44 2.44 1.71 2.44a5.51 5.51 0 001.33-.15l.11 1.71a5.71 5.71 0 01-2 .31 3.13 3.13 0 01-2.47-1 4.64 4.64 0 01-.89-3.27v-6.87H685V556h1.95v-3zm6.97 10.32c.05 3.09 2 4.37 4.31 4.37a8.37 8.37 0 003.49-.65l.39 1.63a10.14 10.14 0 01-4.19.78c-3.87 0-6.19-2.54-6.19-6.34s2.24-6.79 5.91-6.79c4.1 0 5.2 3.62 5.2 5.93a10.09 10.09 0 01-.08 1.07zm6.71-1.64c0-1.46-.6-3.72-3.18-3.72-2.31 0-3.33 2.13-3.51 3.72zm5.04-1.14c0-1.49 0-2.76-.11-3.93h2l.07 2.47h.15a3.78 3.78 0 013.48-2.76 2.51 2.51 0 01.65.08v2.16a3.53 3.53 0 00-.78-.08 3.2 3.2 0 00-3.06 2.94 5.68 5.68 0 00-.11 1.07v6.7h-2.26z"/><path class="a2c84f25-2552-4fde-ad15-78975969052c" d="M107.98 61.98h262.8V283.3h-262.8z"/><path class="fee55c0a-7652-40f9-9b07-dec1db56e024" d="M371.78 284.3H107V61h264.8zm-262.8-2h260.8V63H109z"/><path fill="#f0f9ff" d="M122.69 76.24h233.39v93.49H122.69z"/><path class="fdfcbe06-1a2a-4e52-b989-0e7cb55bc0f0" d="M357.07 170.73H121.69V75.24h235.38zm-233.38-2h231.38V77.24H123.69z"/><path fill="#c0e4ff" d="M122.69 175.54h233.39v93.49H122.69z"/><path class="fdfcbe06-1a2a-4e52-b989-0e7cb55bc0f0" d="M357.07 270H121.69v-95.5h235.38zm-233.38-2h231.38v-91.5H123.69z"/><path d="M192.65 109.58a8 8 0 004 1.14c2.32 0 3.67-1.22 3.67-3s-.94-2.58-3.3-3.48c-2.86-1-4.63-2.5-4.63-5 0-2.73 2.26-4.76 5.67-4.76a8 8 0 013.87.86l-.62 1.85a6.86 6.86 0 00-3.33-.84c-2.39 0-3.3 1.43-3.3 2.63 0 1.64 1.06 2.44 3.48 3.38 3 1.14 4.47 2.57 4.47 5.15s-2 5-6.13 5a9 9 0 01-4.48-1.12zm24.59-3.64c0 4.65-3.22 6.68-6.26 6.68-3.41 0-6-2.5-6-6.48 0-4.21 2.75-6.68 6.24-6.68s6.02 2.63 6.02 6.48zm-10 .13c0 2.75 1.58 4.83 3.82 4.83s3.82-2.05 3.82-4.89c0-2.13-1.06-4.83-3.77-4.83s-3.85 2.49-3.85 4.89zm13.12 6.26v-10.84h-1.77v-1.74h1.77v-.6a5.94 5.94 0 011.46-4.4 4.39 4.39 0 013.07-1.17 5.35 5.35 0 012 .37l-.31 1.77a3.38 3.38 0 00-1.46-.29c-1.95 0-2.45 1.72-2.45 3.64v.68h3v1.74h-3v10.84zm10.4-16.2v3.62H234v1.74h-3.28v6.79c0 1.56.44 2.44 1.72 2.44a4.87 4.87 0 001.32-.16l.11 1.72a5.67 5.67 0 01-2 .31 3.18 3.18 0 01-2.47-1 4.67 4.67 0 01-.88-3.28v-6.86h-1.95v-1.7h1.95v-3zm7 3.62l1.66 6.39c.36 1.41.7 2.71.94 4h.07c.29-1.28.71-2.63 1.12-4l2.06-6.42h1.92l1.95 6.29c.47 1.51.83 2.83 1.12 4.11h.08a34.75 34.75 0 011-4.08l1.79-6.32h2.26l-4.05 12.58h-2.08l-1.93-6a42.64 42.64 0 01-1.11-4.14h-.06a37 37 0 01-1.14 4.16l-2 6h-2.08l-3.79-12.58zm25.09 12.58l-.19-1.58h-.07a4.73 4.73 0 01-3.85 1.87 3.59 3.59 0 01-3.85-3.62c0-3 2.7-4.7 7.57-4.68v-.26a2.59 2.59 0 00-2.86-2.91 6.29 6.29 0 00-3.28.94l-.52-1.51a7.78 7.78 0 014.13-1.12c3.85 0 4.79 2.63 4.79 5.15v4.71a17.26 17.26 0 00.21 3zm-.34-6.42c-2.5 0-5.33.39-5.33 2.83a2 2 0 002.16 2.19 3.14 3.14 0 003-2.11 2.29 2.29 0 00.13-.73zm5.9-2.24c0-1.48 0-2.75-.1-3.92h2l.08 2.47h.1a3.78 3.78 0 013.51-2.76 2.51 2.51 0 01.65.08v2.16a3.47 3.47 0 00-.78-.08 3.2 3.2 0 00-3.06 2.94 5.57 5.57 0 00-.11 1.06v6.71h-2.26zm9.52 2.79c.05 3.09 2 4.36 4.31 4.36a8.21 8.21 0 003.49-.65l.39 1.64a10.14 10.14 0 01-4.19.78c-3.87 0-6.19-2.55-6.19-6.34s2.24-6.79 5.9-6.79c4.11 0 5.2 3.61 5.2 5.93a10.69 10.69 0 01-.07 1.07zm6.7-1.64c0-1.46-.59-3.72-3.17-3.72-2.31 0-3.33 2.13-3.51 3.72zM188.5 143a11.18 11.18 0 01-4.63.83c-4.94 0-8.66-3.12-8.66-8.86 0-5.49 3.72-9.21 9.16-9.21a9.45 9.45 0 014.16.78l-.55 1.85a8.19 8.19 0 00-3.54-.73c-4.1 0-6.83 2.63-6.83 7.23 0 4.29 2.47 7 6.73 7a9.08 9.08 0 003.69-.72zm13.86-5.86c0 4.65-3.23 6.68-6.27 6.68-3.4 0-6-2.5-6-6.48 0-4.21 2.76-6.68 6.24-6.68s6.03 2.63 6.03 6.48zm-10 .13c0 2.75 1.59 4.83 3.83 4.83s3.82-2 3.82-4.89c0-2.13-1.07-4.83-3.77-4.83s-3.87 2.49-3.87 4.89zm12.88-2.92c0-1.3 0-2.36-.1-3.4h2l.11 2h.07a4.36 4.36 0 014-2.32 3.73 3.73 0 013.56 2.52 5.16 5.16 0 011.4-1.63 4.28 4.28 0 012.79-.89c1.66 0 4.13 1.09 4.13 5.46v7.41H221v-7.12c0-2.42-.88-3.88-2.73-3.88a3 3 0 00-2.7 2.08 4 4 0 00-.18 1.15v7.77h-2.24V136c0-2-.88-3.46-2.62-3.46a3.4 3.4 0 00-3 3.41v7.59h-2.24zm21.69.71c0-1.62-.05-2.92-.11-4.11h2.06l.1 2.16h.02a5 5 0 014.48-2.45c3 0 5.33 2.58 5.33 6.4 0 4.52-2.76 6.76-5.72 6.76a4.42 4.42 0 01-3.88-2h-.05v6.84h-2.26zm2.26 3.35a5.42 5.42 0 00.1.94 3.54 3.54 0 003.44 2.67c2.41 0 3.82-2 3.82-4.86 0-2.52-1.33-4.68-3.75-4.68a3.64 3.64 0 00-3.45 2.84 3.55 3.55 0 00-.16.93zm23.92-1.27c0 4.65-3.22 6.68-6.27 6.68-3.4 0-6-2.5-6-6.48 0-4.21 2.76-6.68 6.24-6.68s6.03 2.63 6.03 6.48zm-10 .13c0 2.75 1.58 4.83 3.82 4.83s3.82-2 3.82-4.89c0-2.13-1.07-4.83-3.77-4.83s-3.85 2.49-3.85 4.89zm12.89-2.92c0-1.3 0-2.36-.1-3.4h2l.13 2.08h.05a4.63 4.63 0 014.16-2.37c1.74 0 4.45 1 4.45 5.36v7.51h-2.29v-7.25c0-2-.75-3.72-2.91-3.72a3.26 3.26 0 00-3.07 2.34 3.44 3.44 0 00-.16 1.07v7.56H256zm15.7 3.31c.05 3.09 2 4.36 4.31 4.36a8.21 8.21 0 003.49-.65l.39 1.64a10.14 10.14 0 01-4.19.78c-3.87 0-6.19-2.55-6.19-6.34s2.24-6.79 5.91-6.79c4.11 0 5.2 3.62 5.2 5.93a8 8 0 01-.08 1.07zm6.71-1.64c0-1.46-.6-3.72-3.17-3.72-2.32 0-3.33 2.13-3.52 3.72zm5.04-1.67c0-1.3 0-2.36-.1-3.4h2l.13 2.08h.06a4.62 4.62 0 014.16-2.37c1.74 0 4.44 1 4.44 5.36v7.51h-2.29v-7.25c0-2-.75-3.72-2.91-3.72a3.26 3.26 0 00-3.07 2.34 3.46 3.46 0 00-.15 1.07v7.56h-2.29zm17.08-7.02V131h3.28v1.74h-3.28v6.79c0 1.56.44 2.44 1.72 2.44a4.87 4.87 0 001.32-.16l.11 1.72a5.67 5.67 0 01-2 .31 3.18 3.18 0 01-2.47-1 4.67 4.67 0 01-.88-3.28v-6.86h-1.95V131h1.95v-3zm-103.16 69.19a31.92 31.92 0 014.81-.37c3.25 0 5.56.76 7.09 2.19a8.07 8.07 0 012.47 6.29 9.25 9.25 0 01-2.52 6.81c-1.64 1.64-4.34 2.52-7.75 2.52a36.54 36.54 0 01-4.1-.2zm2.26 15.48a13.59 13.59 0 002.29.13c4.83 0 7.46-2.7 7.46-7.43 0-4.14-2.32-6.76-7.1-6.76a12.9 12.9 0 00-2.65.23zm16.37-4.07c.05 3.1 2 4.37 4.32 4.37a8.32 8.32 0 003.48-.65l.39 1.64a10.21 10.21 0 01-4.18.78c-3.88 0-6.19-2.55-6.19-6.35s2.23-6.78 5.9-6.78c4.11 0 5.2 3.61 5.2 5.93a7.78 7.78 0 01-.08 1.06zm6.71-1.64c0-1.45-.6-3.71-3.17-3.71-2.32 0-3.33 2.13-3.51 3.71zm5.91-5.07l2.47 7.08a33.52 33.52 0 011 3.22h.08c.29-1 .65-2.08 1.07-3.22l2.44-7.08h2.39l-4.94 12.59H231l-4.79-12.59zm14.17-3.53a1.42 1.42 0 01-2.84 0 1.39 1.39 0 011.43-1.43 1.36 1.36 0 011.41 1.43zm-2.55 16.12v-12.59h2.29v12.59zm15.05-.47a8.4 8.4 0 01-3.61.73c-3.8 0-6.27-2.58-6.27-6.42a6.4 6.4 0 016.76-6.69 7.72 7.72 0 013.18.65l-.52 1.77a5.37 5.37 0 00-2.66-.6c-2.88 0-4.44 2.14-4.44 4.76 0 2.91 1.87 4.71 4.37 4.71a6.39 6.39 0 002.8-.63zm3.8-5.41c.05 3.1 2 4.37 4.32 4.37a8.35 8.35 0 003.48-.65l.39 1.64a10.27 10.27 0 01-4.19.78c-3.87 0-6.18-2.55-6.18-6.35s2.23-6.78 5.9-6.78c4.11 0 5.2 3.61 5.2 5.93a7.78 7.78 0 01-.08 1.06zm6.71-1.64c0-1.45-.6-3.71-3.17-3.71-2.32 0-3.33 2.13-3.51 3.71zm8.63 8.56l7.25-18.85h1.77l-7.28 18.85zm-75.75 29.59a11.35 11.35 0 01-4.63.83c-4.94 0-8.66-3.12-8.66-8.87 0-5.48 3.72-9.2 9.16-9.2a9.45 9.45 0 014.16.78l-.55 1.84a8.35 8.35 0 00-3.54-.72c-4.11 0-6.84 2.62-6.84 7.22 0 4.29 2.48 7.05 6.74 7.05a9.07 9.07 0 003.69-.73zm13.86-5.83c0 4.66-3.23 6.68-6.27 6.68-3.41 0-6-2.49-6-6.47 0-4.21 2.75-6.68 6.24-6.68s6.03 2.62 6.03 6.47zm-10 .13c0 2.76 1.59 4.84 3.82 4.84s3.83-2.06 3.83-4.89c0-2.13-1.07-4.84-3.77-4.84s-3.87 2.5-3.87 4.89zm12.88-2.91c0-1.3 0-2.37-.1-3.41h2l.1 2h.08a4.34 4.34 0 013.95-2.31 3.73 3.73 0 013.57 2.52 5.21 5.21 0 011.4-1.64 4.33 4.33 0 012.79-.88c1.66 0 4.13 1.09 4.13 5.46V245h-2.24v-7.13c0-2.41-.88-3.87-2.73-3.87a3 3 0 00-2.7 2.08 3.59 3.59 0 00-.18 1.14V245h-2.19v-7.54c0-2-.88-3.46-2.62-3.46a3.11 3.11 0 00-2.84 2.29 3.17 3.17 0 00-.18 1.12V245h-2.24zm21.69.7c0-1.61-.06-2.91-.11-4.11h2.06l.1 2.16h.05a5 5 0 014.48-2.44c3 0 5.33 2.57 5.33 6.39 0 4.53-2.76 6.76-5.72 6.76a4.41 4.41 0 01-3.88-2v6.84h-2.26zm2.26 3.36a5.3 5.3 0 00.1.93 3.54 3.54 0 003.44 2.68c2.41 0 3.82-2 3.82-4.86 0-2.52-1.33-4.68-3.75-4.68a3.64 3.64 0 00-3.45 2.83 3.7 3.7 0 00-.16.94zm23.06 1.69c0 1.3 0 2.44.1 3.43h-2l-.13-2.06h-.06a4.71 4.71 0 01-4.16 2.34c-2 0-4.34-1.09-4.34-5.51v-7.36h2.29v7c0 2.39.73 4 2.81 4a3.3 3.3 0 003-2.08 3.38 3.38 0 00.21-1.17v-7.73h2.29zm6.57-12.77v3.61h3.28v1.75H269V241c0 1.56.44 2.45 1.72 2.45a4.87 4.87 0 001.32-.16l.11 1.72a5.67 5.67 0 01-2 .31 3.18 3.18 0 01-2.47-1 4.68 4.68 0 01-.88-3.28v-6.86h-2v-1.75h1.95v-3zm7 10.32c.05 3.1 2 4.37 4.32 4.37a8.35 8.35 0 003.48-.65l.39 1.64a10.27 10.27 0 01-4.19.78c-3.87 0-6.18-2.55-6.18-6.35s2.23-6.78 5.9-6.78c4.11 0 5.2 3.61 5.2 5.93a7.78 7.78 0 01-.08 1.06zm6.71-1.64c0-1.45-.6-3.71-3.17-3.71-2.32 0-3.33 2.13-3.51 3.71zm4.99-1.14c0-1.48 0-2.76-.1-3.93h2l.08 2.47h.1a3.77 3.77 0 013.49-2.75 2.18 2.18 0 01.65.08v2.15a3.64 3.64 0 00-.78-.07 3.2 3.2 0 00-3.07 2.93 6.78 6.78 0 00-.11 1.07v6.7h-2.26z" fill="#2a4b7d" stroke="#2a4b7d" stroke-width=".5" stroke-miterlimit="10"/><path d="M223.92 314.87h-2l-7.2-11.17a4.87 4.87 0 01-.45-.88h-.06a14.84 14.84 0 01.08 1.93v10.12h-1.64v-14h2.13l7 11a10.15 10.15 0 01.56.94 16.12 16.12 0 01-.09-2.06v-9.87h1.64zm10.31.23a6.16 6.16 0 01-4.77-2 7.3 7.3 0 01-1.79-5.11 7.7 7.7 0 011.83-5.39 6.36 6.36 0 015-2 6 6 0 014.67 1.95 7.32 7.32 0 011.77 5.11 7.75 7.75 0 01-1.81 5.42 6.28 6.28 0 01-4.9 2.02zm.12-13a4.5 4.5 0 00-3.58 1.59 7.09 7.09 0 000 8.35 4.39 4.39 0 003.5 1.58 4.63 4.63 0 003.64-1.51 6.16 6.16 0 001.32-4.21 6.38 6.38 0 00-1.29-4.28 4.4 4.4 0 00-3.59-1.51zm10.32 12.77v-14h3.86q7.41 0 7.41 6.83a6.88 6.88 0 01-2.06 5.21 7.62 7.62 0 01-5.5 2zm1.64-12.52v11h2.09a5.93 5.93 0 004.28-1.47 5.52 5.52 0 001.54-4.18q0-5.39-5.73-5.38zm20.8 12.52h-7.42v-14h7.11v1.49h-5.47V307h5.06v1.48h-5.06v4.9h5.78zM1134 392.51h-1.63v-9.4c0-.74 0-1.65.14-2.72a10 10 0 01-.42 1.36l-4.79 10.76h-.8l-4.77-10.68a8.19 8.19 0 01-.42-1.44c0 .56.08 1.47.08 2.74v9.38h-1.59v-14h2.17l4.3 9.76a11.71 11.71 0 01.64 1.68h.06c.28-.77.51-1.34.68-1.72l4.38-9.72h2zm12.06 0h-7.43v-14h7.11V380h-5.47v4.66h5.06v1.47h-5.06V391h5.79zm3.04-.57V390a4 4 0 00.79.53 7.69 7.69 0 001 .39 7.36 7.36 0 001 .25 5.54 5.54 0 001 .09 3.78 3.78 0 002.26-.56 1.93 1.93 0 00.74-1.62 1.83 1.83 0 00-.25-1 2.59 2.59 0 00-.68-.77 8.15 8.15 0 00-1-.67l-1.3-.66c-.49-.25-.94-.5-1.36-.76a5.39 5.39 0 01-1.11-.84 3.46 3.46 0 01-.74-1 3.33 3.33 0 01-.26-1.36 3.17 3.17 0 01.42-1.66 3.52 3.52 0 011.1-1.17 4.8 4.8 0 011.56-.68 7.06 7.06 0 011.78-.23 6.86 6.86 0 013 .5v1.84a5.51 5.51 0 00-3.19-.85 4.92 4.92 0 00-1.07.11 3.14 3.14 0 00-1 .36 2 2 0 00-.68.66 1.68 1.68 0 00-.27 1 2.06 2.06 0 00.2.93 2.5 2.5 0 00.6.72 5.79 5.79 0 00.95.62q.56.3 1.29.66c.5.25 1 .51 1.43.79a6.43 6.43 0 011.18.9 3.87 3.87 0 01.8 1.11 3 3 0 01.3 1.38 3.55 3.55 0 01-.4 1.76 3.3 3.3 0 01-1.1 1.16 4.66 4.66 0 01-1.58.65 8.33 8.33 0 01-1.9.2 6.71 6.71 0 01-.82-.05c-.32 0-.66-.09-1-.16a7.24 7.24 0 01-1-.25 2.69 2.69 0 01-.69-.38zm11.62 0V390a4.11 4.11 0 00.8.53 7.55 7.55 0 001 .39 8.11 8.11 0 001 .25 5.72 5.72 0 001 .09 3.78 3.78 0 002.26-.56 1.91 1.91 0 00.75-1.62 1.83 1.83 0 00-.25-1 2.78 2.78 0 00-.69-.77 7.5 7.5 0 00-1-.67l-1.29-.66c-.49-.25-1-.5-1.37-.76a5.6 5.6 0 01-1.1-.84 3.3 3.3 0 01-.74-1 3.52 3.52 0 01.15-3 3.62 3.62 0 011.1-1.17 5 5 0 011.56-.68 7.12 7.12 0 011.78-.23 6.86 6.86 0 013 .5v1.84a5.48 5.48 0 00-3.18-.85 5 5 0 00-1.08.11 3.18 3.18 0 00-.95.36 2.18 2.18 0 00-.69.66 1.75 1.75 0 00-.26 1 2.06 2.06 0 00.2.93 2.31 2.31 0 00.59.72 6.26 6.26 0 001 .62l1.3.66c.5.25 1 .51 1.42.79a6.11 6.11 0 011.18.9 4.11 4.11 0 01.81 1.11 3 3 0 01.3 1.38 3.55 3.55 0 01-.41 1.76 3.28 3.28 0 01-1.09 1.16 4.71 4.71 0 01-1.59.65 8.3 8.3 0 01-1.89.2 6.6 6.6 0 01-.82-.05c-.33 0-.66-.09-1-.16a6.73 6.73 0 01-1-.25 2.77 2.77 0 01-.8-.4zm23.12.57H1182l-1.48-3.93h-5.94l-1.39 3.93h-1.83l5.37-14h1.7zm-3.84-5.4l-2.19-6a4.68 4.68 0 01-.22-.94 5.26 5.26 0 01-.22.94l-2.18 6zm17.11 4.44a9.32 9.32 0 01-4.69 1.19 6.39 6.39 0 01-4.85-1.93 7.1 7.1 0 01-1.85-5.12 7.24 7.24 0 012.06-5.33 7 7 0 015.21-2.09 8.9 8.9 0 013.83.74v1.82a7.32 7.32 0 00-4-1.07 5 5 0 00-3.86 1.62 6.78 6.78 0 00-.11 8.37 4.93 4.93 0 003.79 1.52 5.85 5.85 0 002.85-.66v-3.92h-3.07v-1.49h4.71zm11.67.96h-7.42v-14h7.11V380H1203v4.66h5.06v1.47H1203V391h5.78z" stroke-width=".3" stroke-miterlimit="10" stroke="#75828e" fill="#75828e"/><path d="M629.38 161.69h-2l-7.2-11.16a4.87 4.87 0 01-.45-.88h-.06a14.65 14.65 0 01.08 1.92v10.12h-1.64v-14h2.13l7 11c.29.46.48.77.56.94a16 16 0 01-.09-2.06v-9.86h1.64zm12.09 0h-7.42v-14h7.11v1.48h-5.47v4.66h5.06v1.47h-5.06v4.91h5.78zm12.02-12.52h-4v12.52h-1.69v-12.52h-4v-1.48h9.72zm20.18-1.48l-4 14h-1.92l-2.88-10.23a6.29 6.29 0 01-.23-1.43 7.44 7.44 0 01-.25 1.41l-2.9 10.25h-1.91l-4.1-14h1.81l3 10.74a7.16 7.16 0 01.23 1.41 7.83 7.83 0 01.3-1.41l3.1-10.74h1.57l3 10.82a8.2 8.2 0 01.23 1.31 8.35 8.35 0 01.27-1.35l2.86-10.78zm8.72 14.24a6.13 6.13 0 01-4.77-2 7.29 7.29 0 01-1.79-5.1 7.77 7.77 0 011.82-5.4 6.39 6.39 0 015-2 6 6 0 014.68 2 7.3 7.3 0 011.77 5.1 7.72 7.72 0 01-1.82 5.42 6.25 6.25 0 01-4.89 1.98zm.12-13a4.53 4.53 0 00-3.59 1.59 7.09 7.09 0 000 8.34 4.35 4.35 0 003.5 1.58A4.58 4.58 0 00686 159a6.13 6.13 0 001.33-4.21 6.43 6.43 0 00-1.29-4.29 4.41 4.41 0 00-3.53-1.56zm20.35 12.76h-2l-2.34-3.92a9.53 9.53 0 00-.63-.94 4.12 4.12 0 00-.62-.63 2.1 2.1 0 00-.68-.35 2.68 2.68 0 00-.83-.12h-1.35v6h-1.64v-14H697a5.73 5.73 0 011.7.23 3.84 3.84 0 011.35.69 3.44 3.44 0 01.89 1.17 4 4 0 01.32 1.64 3.85 3.85 0 01-.22 1.34 3.36 3.36 0 01-.62 1.09 3.92 3.92 0 01-1 .82 5.44 5.44 0 01-1.28.52 3.25 3.25 0 01.61.35 3.68 3.68 0 01.49.48 5.25 5.25 0 01.46.62c.16.23.33.5.52.8zm-8.4-12.52v5.08h2.23a3.25 3.25 0 001.14-.19 2.52 2.52 0 00.9-.53 2.38 2.38 0 00.6-.85 2.88 2.88 0 00.21-1.13 2.21 2.21 0 00-.72-1.75 3.15 3.15 0 00-2.11-.63zm21.07 12.52h-2.28l-5.41-6.41a3.9 3.9 0 01-.37-.48v6.89h-1.64v-14h1.64v6.58a3.92 3.92 0 01.37-.48l5.23-6.1h2l-6 6.72z" stroke="#1998ff" stroke-width=".3" fill="#1998ff" stroke-miterlimit="10"/><path class="fdfcbe06-1a2a-4e52-b989-0e7cb55bc0f0" d="M944.84 188.1l-1.43-1.4 12.15-12.43a1.47 1.47 0 000-1.34l-12.16-12.42 1.43-1.4L957 171.53a3.26 3.26 0 010 4.14z"/><path class="b0556004-f245-4e3e-9239-3e377fb2a9fe" d="M1090 291l-12.42-12.16a1.44 1.44 0 00-1.34 0L1063.85 291l-1.4-1.43 12.43-12.16a3.24 3.24 0 014.13 0l12.43 12.16zm-838.81 50.34l-12.42-12.16a1.44 1.44 0 00-1.34 0L225 341.34l-1.4-1.43 12.4-12.16a3.26 3.26 0 014.14 0l12.42 12.16z"/><path class="fdfcbe06-1a2a-4e52-b989-0e7cb55bc0f0" d="M376.87 172.84h579.37v2H376.87z"/><path class="b0556004-f245-4e3e-9239-3e377fb2a9fe" d="M524.43 509.92l-1.43-1.4 12.16-12.42a1.44 1.44 0 000-1.34L523 482.33l1.43-1.39 12.16 12.42a3.26 3.26 0 010 4.14z"/><path class="b0556004-f245-4e3e-9239-3e377fb2a9fe" d="M535.84 496.66H243.47a6.5 6.5 0 01-6.5-6.5V327.75h2v162.41a4.49 4.49 0 004.5 4.5h292.37zm261.74 13.26l-12.16-12.42a3.28 3.28 0 010-4.14l12.16-12.42 1.43 1.39-12.16 12.43a1.5 1.5 0 000 1.34L799 508.52z"/><path class="b0556004-f245-4e3e-9239-3e377fb2a9fe" d="M1071.55 496.66H786.18v-2h285.37a4.5 4.5 0 004.5-4.5V277.75h2v212.41a6.51 6.51 0 01-6.5 6.5z"/><path class="fdfcbe06-1a2a-4e52-b989-0e7cb55bc0f0" d="M388 188.1l-12.16-12.43a3.28 3.28 0 010-4.14L388 159.11l1.43 1.4-12.16 12.42a1.5 1.5 0 000 1.34l12.16 12.43z"/><g class="ffbf6392-a55a-4108-a18e-fbf14e34f694"><circle class="fdfcbe06-1a2a-4e52-b989-0e7cb55bc0f0" cx="863.17" cy="173.6" r="25.84"/><path class="fdfcbe06-1a2a-4e52-b989-0e7cb55bc0f0" d="M863.17 199.59a26 26 0 1126-26 26 26 0 01-26 26zm0-51.67a25.69 25.69 0 1025.68 25.68 25.71 25.71 0 00-25.68-25.68z"/></g><circle class="fdfcbe06-1a2a-4e52-b989-0e7cb55bc0f0" cx="863.17" cy="173.6" r="9.18"/><path class="fdfcbe06-1a2a-4e52-b989-0e7cb55bc0f0" d="M863.17 182.93a9.33 9.33 0 119.33-9.33 9.34 9.34 0 01-9.33 9.33zm0-18.36a9 9 0 109 9 9 9 0 00-9-9z"/><g class="ffbf6392-a55a-4108-a18e-fbf14e34f694"><circle class="fdfcbe06-1a2a-4e52-b989-0e7cb55bc0f0" cx="463.54" cy="173.6" r="25.84"/><path class="fdfcbe06-1a2a-4e52-b989-0e7cb55bc0f0" d="M463.54 199.59a26 26 0 1126-26 26 26 0 01-26 26zm0-51.67a25.69 25.69 0 1025.69 25.68 25.71 25.71 0 00-25.69-25.68z"/></g><circle class="fdfcbe06-1a2a-4e52-b989-0e7cb55bc0f0" cx="463.54" cy="173.6" r="9.18"/><path class="fdfcbe06-1a2a-4e52-b989-0e7cb55bc0f0" d="M463.54 182.93a9.33 9.33 0 119.33-9.33 9.34 9.34 0 01-9.33 9.33zm0-18.36a9 9 0 109 9 9 9 0 00-9-9z"/><g class="ffbf6392-a55a-4108-a18e-fbf14e34f694"><circle class="fdfcbe06-1a2a-4e52-b989-0e7cb55bc0f0" cx="1077.47" cy="385.25" r="25.84"/><path class="fdfcbe06-1a2a-4e52-b989-0e7cb55bc0f0" d="M1077.47 411.24a26 26 0 1126-26 26 26 0 01-26 26zm0-51.67a25.69 25.69 0 1025.69 25.68 25.71 25.71 0 00-25.69-25.68z"/></g><circle class="fdfcbe06-1a2a-4e52-b989-0e7cb55bc0f0" cx="1077.47" cy="385.25" r="9.18"/><path class="fdfcbe06-1a2a-4e52-b989-0e7cb55bc0f0" d="M1077.47 394.58a9.33 9.33 0 119.33-9.33 9.34 9.34 0 01-9.33 9.33zm0-18.36a9 9 0 109 9 9 9 0 00-9-9z"/><g class="ffbf6392-a55a-4108-a18e-fbf14e34f694"><circle class="fdfcbe06-1a2a-4e52-b989-0e7cb55bc0f0" cx="446.87" cy="495.43" r="25.84"/><path class="fdfcbe06-1a2a-4e52-b989-0e7cb55bc0f0" d="M446.87 521.41a26 26 0 1126-26 26 26 0 01-26 26zm0-51.67a25.69 25.69 0 1025.69 25.69 25.71 25.71 0 00-25.69-25.69z"/></g><g><circle class="fdfcbe06-1a2a-4e52-b989-0e7cb55bc0f0" cx="446.87" cy="495.43" r="9.18"/><path class="fdfcbe06-1a2a-4e52-b989-0e7cb55bc0f0" d="M446.87 504.76a9.33 9.33 0 119.33-9.33 9.35 9.35 0 01-9.33 9.33zm0-18.36a9 9 0 109 9 9 9 0 00-9-9z"/></g></g></svg>