<svg xmlns="http://www.w3.org/2000/svg" xmlns:xlink="http://www.w3.org/1999/xlink" width="1310.93" height="656.33" viewBox="0 0 1310.93 656.33">
  <defs>
    <style>
      .a5b2a1ca-a043-4eb4-a678-01900f697b78 {
        fill: none;
      }

      .a1ed972d-d9ac-4e36-ade2-62aeeeb46c49 {
        fill: #dceaf4;
      }

      .ac293dc6-0b17-4fc6-bdce-99ca2add470e {
        fill: url(#f6c11309-407f-42c1-8b13-ae603b41125e);
      }

      .a45ab718-bbfa-42bd-94d4-d5ce23be0903 {
        fill: #fff;
      }

      .fee55c0a-7652-40f9-9b07-dec1db56e024 {
        fill: #b2bfce;
      }

      .a2c84f25-2552-4fde-ad15-78975969052c {
        fill: #f7fafc;
      }

      .b0556004-f245-4e3e-9239-3e377fb2a9fe, .bd5ca834-4f4f-4710-90eb-81c92c4e22a2, .f17ddded-09c0-45db-86aa-338c4d3503c7 {
        fill: #75828e;
      }

      .bd5ca834-4f4f-4710-90eb-81c92c4e22a2, .f17ddded-09c0-45db-86aa-338c4d3503c7 {
        stroke: #75828e;
      }

      .b1890dfa-6b38-49c0-8c50-8ce30b04f450, .bd5ca834-4f4f-4710-90eb-81c92c4e22a2, .f17ddded-09c0-45db-86aa-338c4d3503c7, .f34fb3db-0010-4d8d-9b5d-5bd3e7dde8e9 {
        stroke-miterlimit: 10;
      }

      .b1890dfa-6b38-49c0-8c50-8ce30b04f450, .bd5ca834-4f4f-4710-90eb-81c92c4e22a2 {
        stroke-width: 0.5px;
      }

      .ac9942a8-232a-4ed3-b7ff-46cb814eba52 {
        fill: #f0f9ff;
      }

      .f34fb3db-0010-4d8d-9b5d-5bd3e7dde8e9, .fdfcbe06-1a2a-4e52-b989-0e7cb55bc0f0 {
        fill: #1998ff;
      }

      .e71ed70d-b714-48c6-b252-7d90bee7b63f {
        fill: #c0e4ff;
      }

      .b1890dfa-6b38-49c0-8c50-8ce30b04f450 {
        fill: #2a4b7d;
        stroke: #2a4b7d;
      }

      .f17ddded-09c0-45db-86aa-338c4d3503c7, .f34fb3db-0010-4d8d-9b5d-5bd3e7dde8e9 {
        stroke-width: 0.3px;
      }

      .f34fb3db-0010-4d8d-9b5d-5bd3e7dde8e9 {
        stroke: #1998ff;
      }

      .ffbf6392-a55a-4108-a18e-fbf14e34f694 {
        opacity: 0.2;
      }
    </style>
    <pattern id="f6c11309-407f-42c1-8b13-ae603b41125e" data-name="Docs Polka Background" width="60" height="60" patternTransform="translate(618.26 1302.81) scale(0.87 0.65)" patternUnits="userSpaceOnUse" viewBox="0 0 60 60">
      <rect class="a5b2a1ca-a043-4eb4-a678-01900f697b78" width="60" height="60"/>
      <circle class="a1ed972d-d9ac-4e36-ade2-62aeeeb46c49" cx="30" cy="30" r="2.47"/>
    </pattern>
  </defs>
  <g id="bfd71821-ffd5-4183-b245-fae51e93b4d3" data-name="Layer 2">
    <rect class="ac293dc6-0b17-4fc6-bdce-99ca2add470e" x="3.54" y="3.74" width="1305.22" height="651.58"/>
  </g>
  <g id="a7a8921f-fb66-40d0-97d4-d04f60cb642d" data-name="Layer 1">
    <g>
      <rect class="a45ab718-bbfa-42bd-94d4-d5ce23be0903" x="962.79" y="76.24" width="233.39" height="93.49"/>
      <path class="fee55c0a-7652-40f9-9b07-dec1db56e024" d="M1197.18,170.73H961.79V75.24h235.39Zm-233.39-2h231.39V77.24H963.79Z"/>
    </g>
    <g>
      <rect class="a2c84f25-2552-4fde-ad15-78975969052c" x="962.79" y="175.54" width="233.39" height="93.49"/>
      <path class="fee55c0a-7652-40f9-9b07-dec1db56e024" d="M1197.18,270H961.79v-95.5h235.39Zm-233.39-2h231.39v-91.5H963.79Z"/>
    </g>
    <g>
      <path class="bd5ca834-4f4f-4710-90eb-81c92c4e22a2" d="M1032.75,109.58a8.09,8.09,0,0,0,4.06,1.14c2.31,0,3.66-1.22,3.66-3s-.93-2.58-3.3-3.48c-2.86-1-4.63-2.5-4.63-5,0-2.73,2.27-4.76,5.67-4.76a8,8,0,0,1,3.88.86l-.63,1.85a6.86,6.86,0,0,0-3.33-.84c-2.39,0-3.3,1.43-3.3,2.63,0,1.64,1.07,2.44,3.49,3.38,3,1.14,4.47,2.57,4.47,5.15s-2,5-6.14,5a9,9,0,0,1-4.47-1.12Z"/>
      <path class="bd5ca834-4f4f-4710-90eb-81c92c4e22a2" d="M1057.35,105.94c0,4.65-3.23,6.68-6.27,6.68-3.4,0-6-2.5-6-6.48,0-4.21,2.76-6.68,6.24-6.68S1057.35,102.09,1057.35,105.94Zm-10,.13c0,2.75,1.59,4.83,3.83,4.83s3.82-2.05,3.82-4.89c0-2.13-1.07-4.83-3.77-4.83S1047.36,103.67,1047.36,106.07Z"/>
      <path class="bd5ca834-4f4f-4710-90eb-81c92c4e22a2" d="M1060.47,112.33V101.49h-1.77V99.75h1.77v-.6a6,6,0,0,1,1.45-4.4,4.41,4.41,0,0,1,3.07-1.17,5.31,5.31,0,0,1,2,.37l-.31,1.77a3.38,3.38,0,0,0-1.46-.29c-2,0-2.44,1.72-2.44,3.64v.68h3v1.74h-3v10.84Z"/>
      <path class="bd5ca834-4f4f-4710-90eb-81c92c4e22a2" d="M1070.87,96.13v3.62h3.27v1.74h-3.27v6.79c0,1.56.44,2.44,1.71,2.44a5,5,0,0,0,1.33-.16l.1,1.72a5.61,5.61,0,0,1-2,.31,3.17,3.17,0,0,1-2.47-1,4.67,4.67,0,0,1-.89-3.28v-6.86h-2V99.75h2v-3Z"/>
      <path class="bd5ca834-4f4f-4710-90eb-81c92c4e22a2" d="M1077.86,99.75l1.67,6.39c.36,1.41.7,2.71.93,4h.08c.29-1.28.7-2.63,1.12-4l2-6.42h1.93l1.95,6.29c.46,1.51.83,2.83,1.11,4.11h.08a39.29,39.29,0,0,1,1-4.08l1.8-6.32h2.26l-4.06,12.58h-2.08l-1.92-6a42.67,42.67,0,0,1-1.12-4.14h0a37,37,0,0,1-1.14,4.16l-2,6h-2.08l-3.8-12.58Z"/>
      <path class="bd5ca834-4f4f-4710-90eb-81c92c4e22a2" d="M1103,112.33l-.18-1.58h-.08a4.7,4.7,0,0,1-3.85,1.87A3.59,3.59,0,0,1,1095,109c0-3,2.7-4.7,7.56-4.68v-.26a2.59,2.59,0,0,0-2.86-2.91,6.26,6.26,0,0,0-3.27.94l-.52-1.51a7.75,7.75,0,0,1,4.13-1.12c3.85,0,4.78,2.63,4.78,5.15v4.71a18.3,18.3,0,0,0,.21,3Zm-.34-6.42c-2.49,0-5.33.39-5.33,2.83a2,2,0,0,0,2.16,2.19,3.12,3.12,0,0,0,3-2.11,2.29,2.29,0,0,0,.13-.73Z"/>
      <path class="bd5ca834-4f4f-4710-90eb-81c92c4e22a2" d="M1108.51,103.67c0-1.48,0-2.75-.1-3.92h2l.08,2.47h.1a3.8,3.8,0,0,1,3.49-2.76,2.57,2.57,0,0,1,.65.08v2.16a3.53,3.53,0,0,0-.78-.08,3.21,3.21,0,0,0-3.07,2.94,6.59,6.59,0,0,0-.1,1.06v6.71h-2.27Z"/>
      <path class="bd5ca834-4f4f-4710-90eb-81c92c4e22a2" d="M1118,106.46c0,3.09,2,4.36,4.32,4.36a8.16,8.16,0,0,0,3.48-.65l.39,1.64a10,10,0,0,1-4.18.78c-3.88,0-6.19-2.55-6.19-6.34s2.23-6.79,5.9-6.79c4.11,0,5.2,3.61,5.2,5.93a8,8,0,0,1-.08,1.07Zm6.71-1.64c0-1.46-.6-3.72-3.17-3.72-2.32,0-3.33,2.13-3.51,3.72Z"/>
      <path class="bd5ca834-4f4f-4710-90eb-81c92c4e22a2" d="M1028.61,143a11.22,11.22,0,0,1-4.63.83c-4.94,0-8.66-3.12-8.66-8.86,0-5.49,3.72-9.21,9.15-9.21a9.41,9.41,0,0,1,4.16.78l-.54,1.85a8.19,8.19,0,0,0-3.54-.73c-4.11,0-6.84,2.63-6.84,7.23,0,4.29,2.47,7,6.74,7a9.11,9.11,0,0,0,3.69-.72Z"/>
      <path class="bd5ca834-4f4f-4710-90eb-81c92c4e22a2" d="M1042.46,137.14c0,4.65-3.22,6.68-6.26,6.68-3.41,0-6-2.5-6-6.48,0-4.21,2.76-6.68,6.25-6.68S1042.46,133.29,1042.46,137.14Zm-10,.13c0,2.75,1.59,4.83,3.82,4.83s3.82-2,3.82-4.89c0-2.13-1.06-4.83-3.77-4.83S1032.48,134.87,1032.48,137.27Z"/>
      <path class="bd5ca834-4f4f-4710-90eb-81c92c4e22a2" d="M1045.35,134.35c0-1.3,0-2.36-.11-3.4h2l.1,2h.08a4.33,4.33,0,0,1,4-2.32,3.71,3.71,0,0,1,3.56,2.52h.06a5.16,5.16,0,0,1,1.4-1.63,4.25,4.25,0,0,1,2.78-.89c1.67,0,4.14,1.09,4.14,5.46v7.41h-2.24v-7.12c0-2.42-.88-3.88-2.73-3.88a3,3,0,0,0-2.7,2.08,3.64,3.64,0,0,0-.19,1.15v7.77h-2.23V136c0-2-.89-3.46-2.63-3.46a3.12,3.12,0,0,0-2.83,2.29,3.17,3.17,0,0,0-.18,1.12v7.59h-2.24Z"/>
      <path class="bd5ca834-4f4f-4710-90eb-81c92c4e22a2" d="M1067,135.06c0-1.62,0-2.92-.1-4.11h2l.11,2.16h.05a4.93,4.93,0,0,1,4.47-2.45c3,0,5.33,2.58,5.33,6.4,0,4.52-2.75,6.76-5.72,6.76a4.4,4.4,0,0,1-3.87-2h0v6.84H1067Zm2.27,3.35a5.42,5.42,0,0,0,.1.94,3.53,3.53,0,0,0,3.43,2.67c2.42,0,3.82-2,3.82-4.86,0-2.52-1.32-4.68-3.74-4.68a3.65,3.65,0,0,0-3.46,2.84,3.55,3.55,0,0,0-.15.93Z"/>
      <path class="bd5ca834-4f4f-4710-90eb-81c92c4e22a2" d="M1093.22,137.14c0,4.65-3.23,6.68-6.27,6.68-3.41,0-6-2.5-6-6.48,0-4.21,2.75-6.68,6.24-6.68S1093.22,133.29,1093.22,137.14Zm-10,.13c0,2.75,1.59,4.83,3.82,4.83s3.82-2,3.82-4.89c0-2.13-1.06-4.83-3.77-4.83S1083.23,134.87,1083.23,137.27Z"/>
      <path class="bd5ca834-4f4f-4710-90eb-81c92c4e22a2" d="M1096.1,134.35c0-1.3,0-2.36-.1-3.4h2l.13,2.08h.06a4.62,4.62,0,0,1,4.16-2.37c1.74,0,4.44,1,4.44,5.36v7.51h-2.29v-7.25c0-2-.75-3.72-2.91-3.72a3.26,3.26,0,0,0-3.07,2.34,3.46,3.46,0,0,0-.15,1.07v7.56h-2.29Z"/>
      <path class="bd5ca834-4f4f-4710-90eb-81c92c4e22a2" d="M1111.8,137.66c.06,3.09,2,4.36,4.32,4.36a8.13,8.13,0,0,0,3.48-.65L1120,143a10,10,0,0,1-4.18.78c-3.88,0-6.19-2.55-6.19-6.34s2.24-6.79,5.9-6.79c4.11,0,5.2,3.62,5.2,5.93a8,8,0,0,1-.08,1.07Zm6.71-1.64c0-1.46-.6-3.72-3.17-3.72-2.31,0-3.33,2.13-3.51,3.72Z"/>
      <path class="bd5ca834-4f4f-4710-90eb-81c92c4e22a2" d="M1123.56,134.35c0-1.3,0-2.36-.11-3.4h2l.13,2.08h.05a4.63,4.63,0,0,1,4.16-2.37c1.74,0,4.45,1,4.45,5.36v7.51H1132v-7.25c0-2-.75-3.72-2.91-3.72a3.26,3.26,0,0,0-3.07,2.34,3.44,3.44,0,0,0-.16,1.07v7.56h-2.28Z"/>
      <path class="bd5ca834-4f4f-4710-90eb-81c92c4e22a2" d="M1140.64,127.33V131h3.27v1.74h-3.27v6.79c0,1.56.44,2.44,1.71,2.44a5,5,0,0,0,1.33-.16l.1,1.72a5.61,5.61,0,0,1-2,.31,3.17,3.17,0,0,1-2.47-1,4.67,4.67,0,0,1-.89-3.28v-6.86h-2V131h2v-3Z"/>
    </g>
    <g>
      <path class="bd5ca834-4f4f-4710-90eb-81c92c4e22a2" d="M1037.47,196.52a32.14,32.14,0,0,1,4.81-.37c3.25,0,5.57.76,7.1,2.19a8.07,8.07,0,0,1,2.47,6.29,9.25,9.25,0,0,1-2.52,6.81c-1.64,1.64-4.34,2.52-7.75,2.52a36.86,36.86,0,0,1-4.11-.2Zm2.26,15.49a13.72,13.72,0,0,0,2.29.13c4.84,0,7.46-2.7,7.46-7.43,0-4.14-2.31-6.76-7.09-6.76a13,13,0,0,0-2.66.23Z"/>
      <path class="bd5ca834-4f4f-4710-90eb-81c92c4e22a2" d="M1056.09,207.93c.05,3.1,2,4.37,4.31,4.37a8.37,8.37,0,0,0,3.49-.65l.39,1.64a10.31,10.31,0,0,1-4.19.78c-3.87,0-6.19-2.55-6.19-6.35s2.24-6.78,5.9-6.78c4.11,0,5.21,3.61,5.21,5.93a9.86,9.86,0,0,1-.08,1.06Zm6.71-1.64c0-1.45-.6-3.71-3.18-3.71-2.31,0-3.33,2.13-3.51,3.71Z"/>
      <path class="bd5ca834-4f4f-4710-90eb-81c92c4e22a2" d="M1068.72,201.22l2.47,7.08a31.08,31.08,0,0,1,1,3.22h.07c.29-1,.65-2.08,1.07-3.22l2.45-7.08h2.39l-4.94,12.59h-2.19l-4.78-12.59Z"/>
      <path class="bd5ca834-4f4f-4710-90eb-81c92c4e22a2" d="M1082.89,197.69a1.34,1.34,0,0,1-1.45,1.4,1.36,1.36,0,0,1-1.38-1.4,1.39,1.39,0,0,1,1.43-1.43A1.35,1.35,0,0,1,1082.89,197.69Zm-2.55,16.12V201.22h2.29v12.59Z"/>
      <path class="bd5ca834-4f4f-4710-90eb-81c92c4e22a2" d="M1095.4,213.34a8.49,8.49,0,0,1-3.62.73c-3.79,0-6.26-2.58-6.26-6.42a6.4,6.4,0,0,1,6.76-6.69,7.66,7.66,0,0,1,3.17.65l-.52,1.77a5.32,5.32,0,0,0-2.65-.6c-2.89,0-4.45,2.14-4.45,4.76,0,2.91,1.87,4.71,4.37,4.71a6.44,6.44,0,0,0,2.81-.63Z"/>
      <path class="bd5ca834-4f4f-4710-90eb-81c92c4e22a2" d="M1099.2,207.93c0,3.1,2,4.37,4.31,4.37a8.28,8.28,0,0,0,3.48-.65l.39,1.64a10.21,10.21,0,0,1-4.18.78c-3.88,0-6.19-2.55-6.19-6.35s2.24-6.78,5.9-6.78c4.11,0,5.2,3.61,5.2,5.93a7.78,7.78,0,0,1-.08,1.06Zm6.7-1.64c0-1.45-.6-3.71-3.17-3.71-2.31,0-3.33,2.13-3.51,3.71Z"/>
      <path class="bd5ca834-4f4f-4710-90eb-81c92c4e22a2" d="M1114.53,214.85l7.26-18.85h1.77l-7.28,18.85Z"/>
      <path class="bd5ca834-4f4f-4710-90eb-81c92c4e22a2" d="M1038.78,244.44a11.29,11.29,0,0,1-4.62.83c-4.94,0-8.66-3.12-8.66-8.87,0-5.48,3.72-9.2,9.15-9.2a9.45,9.45,0,0,1,4.16.78l-.55,1.84a8.3,8.3,0,0,0-3.53-.72c-4.11,0-6.84,2.62-6.84,7.22,0,4.29,2.47,7.05,6.73,7.05a9.12,9.12,0,0,0,3.7-.73Z"/>
      <path class="bd5ca834-4f4f-4710-90eb-81c92c4e22a2" d="M1052.64,238.61c0,4.66-3.22,6.68-6.26,6.68-3.41,0-6-2.49-6-6.47,0-4.21,2.76-6.68,6.24-6.68S1052.64,234.76,1052.64,238.61Zm-10,.13c0,2.76,1.58,4.84,3.82,4.84s3.82-2.06,3.82-4.89c0-2.13-1.06-4.84-3.77-4.84S1042.66,236.35,1042.66,238.74Z"/>
      <path class="bd5ca834-4f4f-4710-90eb-81c92c4e22a2" d="M1055.53,235.83c0-1.3,0-2.37-.11-3.41h2l.1,2h.08a4.34,4.34,0,0,1,4-2.31,3.71,3.71,0,0,1,3.56,2.52h.05a5.23,5.23,0,0,1,1.41-1.64,4.28,4.28,0,0,1,2.78-.88c1.66,0,4.13,1.09,4.13,5.46V245h-2.23v-7.13c0-2.41-.89-3.87-2.73-3.87a3,3,0,0,0-2.71,2.08,3.89,3.89,0,0,0-.18,1.14V245h-2.23v-7.54c0-2-.89-3.46-2.63-3.46a3.11,3.11,0,0,0-2.83,2.29,3.18,3.18,0,0,0-.19,1.12V245h-2.23Z"/>
      <path class="bd5ca834-4f4f-4710-90eb-81c92c4e22a2" d="M1077.21,236.53c0-1.61,0-2.91-.1-4.11h2.05l.11,2.16h0a5,5,0,0,1,4.47-2.44c3,0,5.33,2.57,5.33,6.39,0,4.53-2.76,6.76-5.72,6.76a4.4,4.4,0,0,1-3.87-2h-.06v6.84h-2.26Zm2.26,3.36a5.27,5.27,0,0,0,.11.93,3.52,3.52,0,0,0,3.43,2.68c2.42,0,3.82-2,3.82-4.86,0-2.52-1.32-4.68-3.74-4.68a3.65,3.65,0,0,0-3.46,2.83,3.7,3.7,0,0,0-.16.94Z"/>
      <path class="bd5ca834-4f4f-4710-90eb-81c92c4e22a2" d="M1102.54,241.58c0,1.3,0,2.44.1,3.43h-2l-.13-2.06h0a4.72,4.72,0,0,1-4.16,2.34c-2,0-4.34-1.09-4.34-5.51v-7.36h2.29v7c0,2.39.72,4,2.8,4a3.32,3.32,0,0,0,3-2.08,3.38,3.38,0,0,0,.21-1.17v-7.73h2.29Z"/>
      <path class="bd5ca834-4f4f-4710-90eb-81c92c4e22a2" d="M1109.09,228.81v3.61h3.27v1.75h-3.27V241c0,1.56.44,2.45,1.71,2.45a5,5,0,0,0,1.33-.16l.1,1.72a5.61,5.61,0,0,1-2,.31,3.17,3.17,0,0,1-2.47-1,4.68,4.68,0,0,1-.89-3.28v-6.86h-1.95v-1.75h1.95v-3Z"/>
      <path class="bd5ca834-4f4f-4710-90eb-81c92c4e22a2" d="M1116.06,239.13c0,3.1,2,4.37,4.31,4.37a8.37,8.37,0,0,0,3.49-.65l.39,1.64a10.31,10.31,0,0,1-4.19.78c-3.87,0-6.19-2.55-6.19-6.35s2.24-6.78,5.9-6.78c4.11,0,5.2,3.61,5.2,5.93a10.44,10.44,0,0,1-.07,1.06Zm6.7-1.64c0-1.45-.59-3.71-3.17-3.71-2.31,0-3.33,2.13-3.51,3.71Z"/>
      <path class="bd5ca834-4f4f-4710-90eb-81c92c4e22a2" d="M1127.81,236.35c0-1.48,0-2.76-.11-3.93h2l.07,2.47h.11a3.77,3.77,0,0,1,3.48-2.75,2.18,2.18,0,0,1,.65.08v2.15a3.58,3.58,0,0,0-.78-.07,3.22,3.22,0,0,0-3.07,2.93,6.83,6.83,0,0,0-.1,1.07V245h-2.26Z"/>
    </g>
    <g>
      <rect class="a45ab718-bbfa-42bd-94d4-d5ce23be0903" x="542.87" y="399.81" width="233.39" height="93.49"/>
      <path class="fee55c0a-7652-40f9-9b07-dec1db56e024" d="M777.26,494.3H541.87V398.81H777.26Zm-233.39-2H775.26V400.81H543.87Z"/>
    </g>
    <g>
      <rect class="a2c84f25-2552-4fde-ad15-78975969052c" x="542.87" y="499.11" width="233.39" height="93.49"/>
      <path class="fee55c0a-7652-40f9-9b07-dec1db56e024" d="M777.26,593.6H541.87V498.11H777.26Zm-233.39-2H775.26V500.11H543.87Z"/>
    </g>
    <g>
      <path class="bd5ca834-4f4f-4710-90eb-81c92c4e22a2" d="M612.83,433.14a8,8,0,0,0,4.06,1.14c2.31,0,3.67-1.22,3.67-3s-.94-2.57-3.31-3.48c-2.86-1-4.62-2.49-4.62-5,0-2.73,2.26-4.75,5.66-4.75a7.88,7.88,0,0,1,3.88.86l-.63,1.84a7,7,0,0,0-3.32-.83c-2.4,0-3.31,1.43-3.31,2.62,0,1.64,1.07,2.45,3.49,3.38,3,1.15,4.47,2.58,4.47,5.15s-2,5.05-6.14,5.05a9.1,9.1,0,0,1-4.47-1.12Z"/>
      <path class="bd5ca834-4f4f-4710-90eb-81c92c4e22a2" d="M637.43,429.5c0,4.65-3.22,6.68-6.27,6.68-3.4,0-6-2.49-6-6.47,0-4.21,2.76-6.68,6.24-6.68S637.43,425.65,637.43,429.5Zm-10,.13c0,2.76,1.58,4.84,3.82,4.84s3.82-2.06,3.82-4.89c0-2.13-1.07-4.84-3.77-4.84S627.45,427.24,627.45,429.63Z"/>
      <path class="bd5ca834-4f4f-4710-90eb-81c92c4e22a2" d="M640.55,435.9V425.05h-1.77v-1.74h1.77v-.6a5.91,5.91,0,0,1,1.46-4.39,4.36,4.36,0,0,1,3.06-1.17,5.33,5.33,0,0,1,1.95.36l-.31,1.77a3.5,3.5,0,0,0-1.45-.28c-2,0-2.45,1.71-2.45,3.64v.67h3v1.74h-3V435.9Z"/>
      <path class="bd5ca834-4f4f-4710-90eb-81c92c4e22a2" d="M651,419.7v3.61h3.28v1.74H651v6.79c0,1.56.44,2.44,1.72,2.44a5,5,0,0,0,1.32-.15l.11,1.72a5.71,5.71,0,0,1-2,.31,3.17,3.17,0,0,1-2.47-1,4.68,4.68,0,0,1-.89-3.28v-6.87h-2v-1.74h2v-3Z"/>
      <path class="bd5ca834-4f4f-4710-90eb-81c92c4e22a2" d="M657.94,423.31l1.67,6.4c.36,1.4.7,2.7.93,4h.08c.29-1.27.7-2.62,1.12-4l2-6.43h1.93l1.95,6.3c.47,1.5.83,2.83,1.12,4.1h.07a37.6,37.6,0,0,1,1-4.08l1.79-6.32h2.26l-4,12.59h-2.08l-1.93-6c-.44-1.4-.8-2.65-1.12-4.13h-.05a37,37,0,0,1-1.14,4.16l-2,6H659.4l-3.8-12.59Z"/>
      <path class="bd5ca834-4f4f-4710-90eb-81c92c4e22a2" d="M683,435.9l-.18-1.59h-.08a4.67,4.67,0,0,1-3.84,1.87,3.58,3.58,0,0,1-3.85-3.61c0-3,2.7-4.71,7.56-4.68v-.26a2.59,2.59,0,0,0-2.86-2.91,6.25,6.25,0,0,0-3.27.93l-.52-1.51a7.84,7.84,0,0,1,4.13-1.11c3.85,0,4.79,2.62,4.79,5.14v4.71a18.5,18.5,0,0,0,.2,3Zm-.33-6.42c-2.5-.06-5.34.38-5.34,2.83a2,2,0,0,0,2.16,2.18,3.15,3.15,0,0,0,3.05-2.1,2.74,2.74,0,0,0,.13-.73Z"/>
      <path class="bd5ca834-4f4f-4710-90eb-81c92c4e22a2" d="M688.6,427.24c0-1.48,0-2.76-.11-3.93h2l.08,2.47h.11a3.77,3.77,0,0,1,3.48-2.75,2.18,2.18,0,0,1,.65.08v2.15a3.58,3.58,0,0,0-.78-.07,3.21,3.21,0,0,0-3.07,2.93,6.83,6.83,0,0,0-.1,1.07v6.71H688.6Z"/>
      <path class="bd5ca834-4f4f-4710-90eb-81c92c4e22a2" d="M698.11,430c0,3.09,2,4.37,4.32,4.37a8.32,8.32,0,0,0,3.48-.65l.39,1.64a10.21,10.21,0,0,1-4.18.78c-3.88,0-6.19-2.55-6.19-6.35s2.23-6.78,5.9-6.78c4.11,0,5.2,3.61,5.2,5.92A7.82,7.82,0,0,1,707,430Zm6.71-1.64c0-1.45-.6-3.72-3.17-3.72-2.32,0-3.33,2.14-3.51,3.72Z"/>
      <path class="bd5ca834-4f4f-4710-90eb-81c92c4e22a2" d="M608.69,466.53a11.35,11.35,0,0,1-4.63.83c-4.94,0-8.66-3.12-8.66-8.87,0-5.49,3.72-9.2,9.15-9.2a9.26,9.26,0,0,1,4.16.78l-.54,1.84a8.35,8.35,0,0,0-3.54-.72c-4.11,0-6.84,2.62-6.84,7.22,0,4.29,2.47,7,6.74,7a9.07,9.07,0,0,0,3.69-.73Z"/>
      <path class="bd5ca834-4f4f-4710-90eb-81c92c4e22a2" d="M622.55,460.7c0,4.66-3.23,6.68-6.27,6.68-3.41,0-6-2.49-6-6.47,0-4.21,2.75-6.68,6.24-6.68S622.55,456.85,622.55,460.7Zm-10,.13c0,2.76,1.59,4.84,3.82,4.84s3.82-2.06,3.82-4.89c0-2.13-1.06-4.84-3.77-4.84S612.56,458.44,612.56,460.83Z"/>
      <path class="bd5ca834-4f4f-4710-90eb-81c92c4e22a2" d="M625.43,457.92c0-1.3,0-2.37-.1-3.41h2l.1,2h.08a4.34,4.34,0,0,1,4-2.31,3.71,3.71,0,0,1,3.56,2.52h.06a5.21,5.21,0,0,1,1.4-1.64,4.32,4.32,0,0,1,2.78-.88c1.67,0,4.14,1.09,4.14,5.46v7.41h-2.24V460c0-2.41-.88-3.87-2.73-3.87a3,3,0,0,0-2.7,2.08,3.59,3.59,0,0,0-.18,1.14v7.78h-2.24v-7.54c0-2-.88-3.46-2.63-3.46a3.41,3.41,0,0,0-3,3.41v7.59h-2.24Z"/>
      <path class="bd5ca834-4f4f-4710-90eb-81c92c4e22a2" d="M647.11,458.62c0-1.61-.05-2.91-.1-4.11h2l.11,2.16h.05a5,5,0,0,1,4.47-2.44c3,0,5.33,2.57,5.33,6.39,0,4.53-2.75,6.76-5.72,6.76a4.42,4.42,0,0,1-3.87-2h0v6.84h-2.27Zm2.27,3.36a5.41,5.41,0,0,0,.1.93,3.53,3.53,0,0,0,3.43,2.68c2.42,0,3.83-2,3.83-4.86,0-2.53-1.33-4.68-3.75-4.68a3.64,3.64,0,0,0-3.46,2.83,3.69,3.69,0,0,0-.15.94Z"/>
      <path class="bd5ca834-4f4f-4710-90eb-81c92c4e22a2" d="M673.3,460.7c0,4.66-3.23,6.68-6.27,6.68-3.41,0-6-2.49-6-6.47,0-4.21,2.75-6.68,6.24-6.68S673.3,456.85,673.3,460.7Zm-10,.13c0,2.76,1.59,4.84,3.82,4.84s3.83-2.06,3.83-4.89c0-2.13-1.07-4.84-3.77-4.84S663.31,458.44,663.31,460.83Z"/>
      <path class="bd5ca834-4f4f-4710-90eb-81c92c4e22a2" d="M676.18,457.92c0-1.3,0-2.37-.1-3.41h2l.13,2.08h0a4.63,4.63,0,0,1,4.16-2.36c1.74,0,4.44,1,4.44,5.35v7.52h-2.28v-7.26c0-2-.76-3.72-2.92-3.72a3.25,3.25,0,0,0-3.06,2.34,3.17,3.17,0,0,0-.16,1.07v7.57h-2.29Z"/>
      <path class="bd5ca834-4f4f-4710-90eb-81c92c4e22a2" d="M691.89,461.22c.05,3.1,2,4.37,4.31,4.37a8.37,8.37,0,0,0,3.49-.65l.39,1.64a10.31,10.31,0,0,1-4.19.78c-3.87,0-6.19-2.55-6.19-6.35s2.24-6.78,5.9-6.78c4.11,0,5.2,3.61,5.2,5.92a10.47,10.47,0,0,1-.07,1.07Zm6.7-1.64c0-1.45-.59-3.72-3.17-3.72-2.31,0-3.33,2.14-3.51,3.72Z"/>
      <path class="bd5ca834-4f4f-4710-90eb-81c92c4e22a2" d="M703.64,457.92c0-1.3,0-2.37-.11-3.41h2l.13,2.08h0a4.64,4.64,0,0,1,4.16-2.36c1.75,0,4.45,1,4.45,5.35v7.52h-2.29v-7.26c0-2-.75-3.72-2.91-3.72a3.26,3.26,0,0,0-3.07,2.34,3.46,3.46,0,0,0-.15,1.07v7.57h-2.29Z"/>
      <path class="bd5ca834-4f4f-4710-90eb-81c92c4e22a2" d="M720.72,450.9v3.61H724v1.74h-3.28V463c0,1.56.44,2.45,1.72,2.45a4.93,4.93,0,0,0,1.32-.16l.11,1.72a5.71,5.71,0,0,1-2,.31,3.17,3.17,0,0,1-2.47-1,4.68,4.68,0,0,1-.89-3.28v-6.87h-2v-1.74h2v-3Z"/>
    </g>
    <g>
      <path class="bd5ca834-4f4f-4710-90eb-81c92c4e22a2" d="M617.55,520.08a32.24,32.24,0,0,1,4.81-.36c3.25,0,5.57.75,7.1,2.18a8.08,8.08,0,0,1,2.47,6.3,9.25,9.25,0,0,1-2.52,6.81c-1.64,1.64-4.34,2.52-7.75,2.52a36.6,36.6,0,0,1-4.11-.21Zm2.27,15.5a14.67,14.67,0,0,0,2.28.13c4.84,0,7.47-2.7,7.47-7.44,0-4.13-2.32-6.76-7.1-6.76a12.69,12.69,0,0,0-2.65.24Z"/>
      <path class="bd5ca834-4f4f-4710-90eb-81c92c4e22a2" d="M636.17,531.5c.05,3.09,2,4.37,4.31,4.37a8.37,8.37,0,0,0,3.49-.65l.39,1.63a10.14,10.14,0,0,1-4.19.78c-3.87,0-6.19-2.54-6.19-6.34s2.24-6.79,5.91-6.79c4.1,0,5.2,3.62,5.2,5.93a10.09,10.09,0,0,1-.08,1.07Zm6.71-1.64c0-1.46-.6-3.72-3.18-3.72-2.31,0-3.32,2.13-3.51,3.72Z"/>
      <path class="bd5ca834-4f4f-4710-90eb-81c92c4e22a2" d="M648.8,524.79l2.47,7.07a32,32,0,0,1,1,3.23h.08c.28-1,.65-2.08,1.06-3.23l2.45-7.07h2.39l-4.94,12.58h-2.19l-4.78-12.58Z"/>
      <path class="bd5ca834-4f4f-4710-90eb-81c92c4e22a2" d="M663,521.25a1.35,1.35,0,0,1-1.45,1.41,1.36,1.36,0,0,1-1.38-1.41,1.4,1.4,0,0,1,1.43-1.43A1.36,1.36,0,0,1,663,521.25Zm-2.54,16.12V524.79h2.28v12.58Z"/>
      <path class="bd5ca834-4f4f-4710-90eb-81c92c4e22a2" d="M675.48,536.91a8.47,8.47,0,0,1-3.61.72c-3.8,0-6.27-2.57-6.27-6.42a6.39,6.39,0,0,1,6.76-6.68,7.66,7.66,0,0,1,3.17.65L675,527a5.29,5.29,0,0,0-2.65-.6c-2.89,0-4.45,2.13-4.45,4.76,0,2.91,1.88,4.7,4.37,4.7a6.46,6.46,0,0,0,2.81-.62Z"/>
      <path class="bd5ca834-4f4f-4710-90eb-81c92c4e22a2" d="M679.28,531.5c.05,3.09,2,4.37,4.31,4.37a8.37,8.37,0,0,0,3.49-.65l.39,1.63a10.14,10.14,0,0,1-4.19.78c-3.87,0-6.19-2.54-6.19-6.34s2.24-6.79,5.9-6.79c4.11,0,5.2,3.62,5.2,5.93a10.69,10.69,0,0,1-.07,1.07Zm6.7-1.64c0-1.46-.59-3.72-3.17-3.72-2.31,0-3.33,2.13-3.51,3.72Z"/>
      <path class="bd5ca834-4f4f-4710-90eb-81c92c4e22a2" d="M694.62,538.41l7.25-18.85h1.77l-7.28,18.85Z"/>
      <path class="bd5ca834-4f4f-4710-90eb-81c92c4e22a2" d="M618.87,568a11.22,11.22,0,0,1-4.63.83c-4.94,0-8.66-3.12-8.66-8.86,0-5.49,3.72-9.21,9.15-9.21a9.41,9.41,0,0,1,4.16.78l-.54,1.85a8.19,8.19,0,0,0-3.54-.73c-4.11,0-6.84,2.63-6.84,7.23,0,4.29,2.47,7.05,6.74,7.05a9.1,9.1,0,0,0,3.69-.73Z"/>
      <path class="bd5ca834-4f4f-4710-90eb-81c92c4e22a2" d="M632.72,562.18c0,4.65-3.22,6.68-6.26,6.68-3.41,0-6-2.5-6-6.47,0-4.22,2.75-6.69,6.24-6.69S632.72,558.33,632.72,562.18Zm-10,.13c0,2.75,1.59,4.83,3.82,4.83s3.82-2,3.82-4.88c0-2.14-1.06-4.84-3.77-4.84S622.74,559.92,622.74,562.31Z"/>
      <path class="bd5ca834-4f4f-4710-90eb-81c92c4e22a2" d="M635.61,559.4c0-1.3,0-2.37-.1-3.41h2l.1,2h.08a4.33,4.33,0,0,1,3.95-2.32,3.7,3.7,0,0,1,3.56,2.53h.06a5.1,5.1,0,0,1,1.4-1.64,4.31,4.31,0,0,1,2.78-.89c1.67,0,4.14,1.1,4.14,5.46v7.41h-2.24v-7.12c0-2.42-.88-3.87-2.73-3.87a3,3,0,0,0-2.7,2.08,3.53,3.53,0,0,0-.19,1.14v7.77h-2.23V561c0-2-.89-3.45-2.63-3.45a3.11,3.11,0,0,0-2.83,2.28,3.17,3.17,0,0,0-.18,1.12v7.59h-2.24Z"/>
      <path class="bd5ca834-4f4f-4710-90eb-81c92c4e22a2" d="M657.29,560.1c0-1.61,0-2.91-.1-4.11h2l.11,2.16h0a5,5,0,0,1,4.47-2.45c3,0,5.33,2.58,5.33,6.4,0,4.52-2.75,6.76-5.72,6.76a4.4,4.4,0,0,1-3.87-2h-.05v6.84h-2.27Zm2.27,3.35a5.42,5.42,0,0,0,.1.94,3.54,3.54,0,0,0,3.43,2.68c2.42,0,3.82-2,3.82-4.87,0-2.52-1.32-4.68-3.74-4.68a3.65,3.65,0,0,0-3.46,2.84,3.55,3.55,0,0,0-.15.93Z"/>
      <path class="bd5ca834-4f4f-4710-90eb-81c92c4e22a2" d="M682.62,565.14c0,1.3,0,2.45.1,3.43h-2l-.13-2.05h0a4.74,4.74,0,0,1-4.16,2.34c-2,0-4.34-1.09-4.34-5.51V556h2.29v7c0,2.39.73,4,2.81,4a3.29,3.29,0,0,0,3-2.08,3.34,3.34,0,0,0,.21-1.17V556h2.29Z"/>
      <path class="bd5ca834-4f4f-4710-90eb-81c92c4e22a2" d="M689.17,552.38V556h3.28v1.74h-3.28v6.79c0,1.56.44,2.44,1.71,2.44a5.51,5.51,0,0,0,1.33-.15l.11,1.71a5.71,5.71,0,0,1-2,.31,3.13,3.13,0,0,1-2.47-1,4.64,4.64,0,0,1-.89-3.27v-6.87H685V556h1.95v-3Z"/>
      <path class="bd5ca834-4f4f-4710-90eb-81c92c4e22a2" d="M696.14,562.7c.05,3.09,2,4.37,4.31,4.37a8.37,8.37,0,0,0,3.49-.65l.39,1.63a10.14,10.14,0,0,1-4.19.78c-3.87,0-6.19-2.54-6.19-6.34s2.24-6.79,5.91-6.79c4.1,0,5.2,3.62,5.2,5.93a10.09,10.09,0,0,1-.08,1.07Zm6.71-1.64c0-1.46-.6-3.72-3.18-3.72-2.31,0-3.33,2.13-3.51,3.72Z"/>
      <path class="bd5ca834-4f4f-4710-90eb-81c92c4e22a2" d="M707.89,559.92c0-1.49,0-2.76-.11-3.93h2l.07,2.47H710a3.78,3.78,0,0,1,3.48-2.76,2.51,2.51,0,0,1,.65.08v2.16a3.53,3.53,0,0,0-.78-.08,3.2,3.2,0,0,0-3.06,2.94,5.68,5.68,0,0,0-.11,1.07v6.7h-2.26Z"/>
    </g>
    <g>
      <g>
        <rect class="a2c84f25-2552-4fde-ad15-78975969052c" x="107.98" y="61.98" width="262.8" height="221.32"/>
        <path class="fee55c0a-7652-40f9-9b07-dec1db56e024" d="M371.78,284.3H107V61h264.8Zm-262.8-2h260.8V63H109Z"/>
      </g>
      <g>
        <g>
          <rect class="ac9942a8-232a-4ed3-b7ff-46cb814eba52" x="122.69" y="76.24" width="233.39" height="93.49"/>
          <path class="fdfcbe06-1a2a-4e52-b989-0e7cb55bc0f0" d="M357.07,170.73H121.69V75.24H357.07Zm-233.38-2H355.07V77.24H123.69Z"/>
        </g>
        <g>
          <rect class="e71ed70d-b714-48c6-b252-7d90bee7b63f" x="122.69" y="175.54" width="233.39" height="93.49"/>
          <path class="fdfcbe06-1a2a-4e52-b989-0e7cb55bc0f0" d="M357.07,270H121.69v-95.5H357.07Zm-233.38-2H355.07v-91.5H123.69Z"/>
        </g>
        <g>
          <path class="b1890dfa-6b38-49c0-8c50-8ce30b04f450" d="M192.65,109.58a8,8,0,0,0,4,1.14c2.32,0,3.67-1.22,3.67-3s-.94-2.58-3.3-3.48c-2.86-1-4.63-2.5-4.63-5,0-2.73,2.26-4.76,5.67-4.76a8,8,0,0,1,3.87.86l-.62,1.85a6.86,6.86,0,0,0-3.33-.84c-2.39,0-3.3,1.43-3.3,2.63,0,1.64,1.06,2.44,3.48,3.38,3,1.14,4.47,2.57,4.47,5.15s-2,5-6.13,5a9,9,0,0,1-4.48-1.12Z"/>
          <path class="b1890dfa-6b38-49c0-8c50-8ce30b04f450" d="M217.24,105.94c0,4.65-3.22,6.68-6.26,6.68-3.41,0-6-2.5-6-6.48,0-4.21,2.75-6.68,6.24-6.68S217.24,102.09,217.24,105.94Zm-10,.13c0,2.75,1.58,4.83,3.82,4.83s3.82-2.05,3.82-4.89c0-2.13-1.06-4.83-3.77-4.83S207.26,103.67,207.26,106.07Z"/>
          <path class="b1890dfa-6b38-49c0-8c50-8ce30b04f450" d="M220.36,112.33V101.49h-1.77V99.75h1.77v-.6a5.94,5.94,0,0,1,1.46-4.4,4.39,4.39,0,0,1,3.07-1.17,5.35,5.35,0,0,1,2,.37l-.31,1.77a3.38,3.38,0,0,0-1.46-.29c-1.95,0-2.45,1.72-2.45,3.64v.68h3v1.74h-3v10.84Z"/>
          <path class="b1890dfa-6b38-49c0-8c50-8ce30b04f450" d="M230.76,96.13v3.62H234v1.74h-3.28v6.79c0,1.56.44,2.44,1.72,2.44a4.87,4.87,0,0,0,1.32-.16l.11,1.72a5.67,5.67,0,0,1-2,.31,3.18,3.18,0,0,1-2.47-1,4.67,4.67,0,0,1-.88-3.28v-6.86h-1.95V99.75h1.95v-3Z"/>
          <path class="b1890dfa-6b38-49c0-8c50-8ce30b04f450" d="M237.76,99.75l1.66,6.39c.36,1.41.7,2.71.94,4h.07c.29-1.28.71-2.63,1.12-4l2.06-6.42h1.92l1.95,6.29c.47,1.51.83,2.83,1.12,4.11h.08a34.75,34.75,0,0,1,1-4.08l1.79-6.32h2.26l-4.05,12.58h-2.08l-1.93-6a42.64,42.64,0,0,1-1.11-4.14h-.06a37,37,0,0,1-1.14,4.16l-2,6h-2.08l-3.79-12.58Z"/>
          <path class="b1890dfa-6b38-49c0-8c50-8ce30b04f450" d="M262.85,112.33l-.19-1.58h-.07a4.73,4.73,0,0,1-3.85,1.87,3.59,3.59,0,0,1-3.85-3.62c0-3,2.7-4.7,7.57-4.68v-.26a2.59,2.59,0,0,0-2.86-2.91,6.29,6.29,0,0,0-3.28.94l-.52-1.51a7.78,7.78,0,0,1,4.13-1.12c3.85,0,4.79,2.63,4.79,5.15v4.71a17.26,17.26,0,0,0,.21,3Zm-.34-6.42c-2.5,0-5.33.39-5.33,2.83a2,2,0,0,0,2.16,2.19,3.14,3.14,0,0,0,3-2.11,2.29,2.29,0,0,0,.13-.73Z"/>
          <path class="b1890dfa-6b38-49c0-8c50-8ce30b04f450" d="M268.41,103.67c0-1.48,0-2.75-.1-3.92h2l.08,2.47h.1A3.78,3.78,0,0,1,274,99.46a2.51,2.51,0,0,1,.65.08v2.16a3.47,3.47,0,0,0-.78-.08,3.2,3.2,0,0,0-3.06,2.94,5.57,5.57,0,0,0-.11,1.06v6.71h-2.26Z"/>
          <path class="b1890dfa-6b38-49c0-8c50-8ce30b04f450" d="M277.93,106.46c.05,3.09,2,4.36,4.31,4.36a8.21,8.21,0,0,0,3.49-.65l.39,1.64a10.14,10.14,0,0,1-4.19.78c-3.87,0-6.19-2.55-6.19-6.34s2.24-6.79,5.9-6.79c4.11,0,5.2,3.61,5.2,5.93a10.69,10.69,0,0,1-.07,1.07Zm6.7-1.64c0-1.46-.59-3.72-3.17-3.72-2.31,0-3.33,2.13-3.51,3.72Z"/>
          <path class="b1890dfa-6b38-49c0-8c50-8ce30b04f450" d="M188.5,143a11.18,11.18,0,0,1-4.63.83c-4.94,0-8.66-3.12-8.66-8.86,0-5.49,3.72-9.21,9.16-9.21a9.45,9.45,0,0,1,4.16.78l-.55,1.85a8.19,8.19,0,0,0-3.54-.73c-4.1,0-6.83,2.63-6.83,7.23,0,4.29,2.47,7,6.73,7a9.08,9.08,0,0,0,3.69-.72Z"/>
          <path class="b1890dfa-6b38-49c0-8c50-8ce30b04f450" d="M202.36,137.14c0,4.65-3.23,6.68-6.27,6.68-3.4,0-6-2.5-6-6.48,0-4.21,2.76-6.68,6.24-6.68S202.36,133.29,202.36,137.14Zm-10,.13c0,2.75,1.59,4.83,3.83,4.83s3.82-2,3.82-4.89c0-2.13-1.07-4.83-3.77-4.83S192.37,134.87,192.37,137.27Z"/>
          <path class="b1890dfa-6b38-49c0-8c50-8ce30b04f450" d="M205.24,134.35c0-1.3,0-2.36-.1-3.4h2l.11,2h.07a4.36,4.36,0,0,1,4-2.32,3.73,3.73,0,0,1,3.56,2.52h0a5.16,5.16,0,0,1,1.4-1.63,4.28,4.28,0,0,1,2.79-.89c1.66,0,4.13,1.09,4.13,5.46v7.41H221v-7.12c0-2.42-.88-3.88-2.73-3.88a3,3,0,0,0-2.7,2.08,4,4,0,0,0-.18,1.15v7.77h-2.24V136c0-2-.88-3.46-2.62-3.46a3.4,3.4,0,0,0-3,3.41v7.59h-2.24Z"/>
          <path class="b1890dfa-6b38-49c0-8c50-8ce30b04f450" d="M226.93,135.06c0-1.62-.05-2.92-.11-4.11h2.06l.1,2.16H229a5,5,0,0,1,4.48-2.45c3,0,5.33,2.58,5.33,6.4,0,4.52-2.76,6.76-5.72,6.76a4.42,4.42,0,0,1-3.88-2h-.05v6.84h-2.26Zm2.26,3.35a5.42,5.42,0,0,0,.1.94,3.54,3.54,0,0,0,3.44,2.67c2.41,0,3.82-2,3.82-4.86,0-2.52-1.33-4.68-3.75-4.68a3.64,3.64,0,0,0-3.45,2.84,3.55,3.55,0,0,0-.16.93Z"/>
          <path class="b1890dfa-6b38-49c0-8c50-8ce30b04f450" d="M253.11,137.14c0,4.65-3.22,6.68-6.27,6.68-3.4,0-6-2.5-6-6.48,0-4.21,2.76-6.68,6.24-6.68S253.11,133.29,253.11,137.14Zm-10,.13c0,2.75,1.58,4.83,3.82,4.83s3.82-2,3.82-4.89c0-2.13-1.07-4.83-3.77-4.83S243.13,134.87,243.13,137.27Z"/>
          <path class="b1890dfa-6b38-49c0-8c50-8ce30b04f450" d="M256,134.35c0-1.3,0-2.36-.1-3.4h2l.13,2.08h.05a4.63,4.63,0,0,1,4.16-2.37c1.74,0,4.45,1,4.45,5.36v7.51h-2.29v-7.25c0-2-.75-3.72-2.91-3.72a3.26,3.26,0,0,0-3.07,2.34,3.44,3.44,0,0,0-.16,1.07v7.56H256Z"/>
          <path class="b1890dfa-6b38-49c0-8c50-8ce30b04f450" d="M271.7,137.66c.05,3.09,2,4.36,4.31,4.36a8.21,8.21,0,0,0,3.49-.65l.39,1.64a10.14,10.14,0,0,1-4.19.78c-3.87,0-6.19-2.55-6.19-6.34s2.24-6.79,5.91-6.79c4.11,0,5.2,3.62,5.2,5.93a8,8,0,0,1-.08,1.07Zm6.71-1.64c0-1.46-.6-3.72-3.17-3.72-2.32,0-3.33,2.13-3.52,3.72Z"/>
          <path class="b1890dfa-6b38-49c0-8c50-8ce30b04f450" d="M283.45,134.35c0-1.3,0-2.36-.1-3.4h2l.13,2.08h.06a4.62,4.62,0,0,1,4.16-2.37c1.74,0,4.44,1,4.44,5.36v7.51h-2.29v-7.25c0-2-.75-3.72-2.91-3.72a3.26,3.26,0,0,0-3.07,2.34,3.46,3.46,0,0,0-.15,1.07v7.56h-2.29Z"/>
          <path class="b1890dfa-6b38-49c0-8c50-8ce30b04f450" d="M300.53,127.33V131h3.28v1.74h-3.28v6.79c0,1.56.44,2.44,1.72,2.44a4.87,4.87,0,0,0,1.32-.16l.11,1.72a5.67,5.67,0,0,1-2,.31,3.18,3.18,0,0,1-2.47-1,4.67,4.67,0,0,1-.88-3.28v-6.86h-1.95V131h1.95v-3Z"/>
        </g>
        <g>
          <path class="b1890dfa-6b38-49c0-8c50-8ce30b04f450" d="M197.37,196.52a31.92,31.92,0,0,1,4.81-.37c3.25,0,5.56.76,7.09,2.19a8.07,8.07,0,0,1,2.47,6.29,9.25,9.25,0,0,1-2.52,6.81c-1.64,1.64-4.34,2.52-7.75,2.52a36.54,36.54,0,0,1-4.1-.2ZM199.63,212a13.59,13.59,0,0,0,2.29.13c4.83,0,7.46-2.7,7.46-7.43,0-4.14-2.32-6.76-7.1-6.76a12.9,12.9,0,0,0-2.65.23Z"/>
          <path class="b1890dfa-6b38-49c0-8c50-8ce30b04f450" d="M216,207.93c.05,3.1,2,4.37,4.32,4.37a8.32,8.32,0,0,0,3.48-.65l.39,1.64a10.21,10.21,0,0,1-4.18.78c-3.88,0-6.19-2.55-6.19-6.35s2.23-6.78,5.9-6.78c4.11,0,5.2,3.61,5.2,5.93a7.78,7.78,0,0,1-.08,1.06Zm6.71-1.64c0-1.45-.6-3.71-3.17-3.71-2.32,0-3.33,2.13-3.51,3.71Z"/>
          <path class="b1890dfa-6b38-49c0-8c50-8ce30b04f450" d="M228.62,201.22l2.47,7.08a33.52,33.52,0,0,1,1,3.22h.08c.29-1,.65-2.08,1.07-3.22l2.44-7.08h2.39l-4.94,12.59H231l-4.79-12.59Z"/>
          <path class="b1890dfa-6b38-49c0-8c50-8ce30b04f450" d="M242.79,197.69a1.42,1.42,0,0,1-2.84,0,1.39,1.39,0,0,1,1.43-1.43A1.36,1.36,0,0,1,242.79,197.69Zm-2.55,16.12V201.22h2.29v12.59Z"/>
          <path class="b1890dfa-6b38-49c0-8c50-8ce30b04f450" d="M255.29,213.34a8.4,8.4,0,0,1-3.61.73c-3.8,0-6.27-2.58-6.27-6.42a6.4,6.4,0,0,1,6.76-6.69,7.72,7.72,0,0,1,3.18.65l-.52,1.77a5.37,5.37,0,0,0-2.66-.6c-2.88,0-4.44,2.14-4.44,4.76,0,2.91,1.87,4.71,4.37,4.71a6.39,6.39,0,0,0,2.8-.63Z"/>
          <path class="b1890dfa-6b38-49c0-8c50-8ce30b04f450" d="M259.09,207.93c.05,3.1,2,4.37,4.32,4.37a8.35,8.35,0,0,0,3.48-.65l.39,1.64a10.27,10.27,0,0,1-4.19.78c-3.87,0-6.18-2.55-6.18-6.35s2.23-6.78,5.9-6.78c4.11,0,5.2,3.61,5.2,5.93a7.78,7.78,0,0,1-.08,1.06Zm6.71-1.64c0-1.45-.6-3.71-3.17-3.71-2.32,0-3.33,2.13-3.51,3.71Z"/>
          <path class="b1890dfa-6b38-49c0-8c50-8ce30b04f450" d="M274.43,214.85,281.68,196h1.77l-7.28,18.85Z"/>
          <path class="b1890dfa-6b38-49c0-8c50-8ce30b04f450" d="M198.68,244.44a11.35,11.35,0,0,1-4.63.83c-4.94,0-8.66-3.12-8.66-8.87,0-5.48,3.72-9.2,9.16-9.2a9.45,9.45,0,0,1,4.16.78l-.55,1.84a8.35,8.35,0,0,0-3.54-.72c-4.11,0-6.84,2.62-6.84,7.22,0,4.29,2.48,7.05,6.74,7.05a9.07,9.07,0,0,0,3.69-.73Z"/>
          <path class="b1890dfa-6b38-49c0-8c50-8ce30b04f450" d="M212.54,238.61c0,4.66-3.23,6.68-6.27,6.68-3.41,0-6-2.49-6-6.47,0-4.21,2.75-6.68,6.24-6.68S212.54,234.76,212.54,238.61Zm-10,.13c0,2.76,1.59,4.84,3.82,4.84s3.83-2.06,3.83-4.89c0-2.13-1.07-4.84-3.77-4.84S202.55,236.35,202.55,238.74Z"/>
          <path class="b1890dfa-6b38-49c0-8c50-8ce30b04f450" d="M215.42,235.83c0-1.3,0-2.37-.1-3.41h2l.1,2h.08a4.34,4.34,0,0,1,3.95-2.31,3.73,3.73,0,0,1,3.57,2.52h0a5.21,5.21,0,0,1,1.4-1.64,4.33,4.33,0,0,1,2.79-.88c1.66,0,4.13,1.09,4.13,5.46V245h-2.24v-7.13c0-2.41-.88-3.87-2.73-3.87a3,3,0,0,0-2.7,2.08,3.59,3.59,0,0,0-.18,1.14V245H223.3v-7.54c0-2-.88-3.46-2.62-3.46a3.11,3.11,0,0,0-2.84,2.29,3.17,3.17,0,0,0-.18,1.12V245h-2.24Z"/>
          <path class="b1890dfa-6b38-49c0-8c50-8ce30b04f450" d="M237.11,236.53c0-1.61-.06-2.91-.11-4.11h2.06l.1,2.16h.05a5,5,0,0,1,4.48-2.44c3,0,5.33,2.57,5.33,6.39,0,4.53-2.76,6.76-5.72,6.76a4.41,4.41,0,0,1-3.88-2h0v6.84h-2.26Zm2.26,3.36a5.3,5.3,0,0,0,.1.93,3.54,3.54,0,0,0,3.44,2.68c2.41,0,3.82-2,3.82-4.86,0-2.52-1.33-4.68-3.75-4.68a3.64,3.64,0,0,0-3.45,2.83,3.7,3.7,0,0,0-.16.94Z"/>
          <path class="b1890dfa-6b38-49c0-8c50-8ce30b04f450" d="M262.43,241.58c0,1.3,0,2.44.1,3.43h-2l-.13-2.06h-.06a4.71,4.71,0,0,1-4.16,2.34c-2,0-4.34-1.09-4.34-5.51v-7.36h2.29v7c0,2.39.73,4,2.81,4a3.3,3.3,0,0,0,3-2.08,3.38,3.38,0,0,0,.21-1.17v-7.73h2.29Z"/>
          <path class="b1890dfa-6b38-49c0-8c50-8ce30b04f450" d="M269,228.81v3.61h3.28v1.75H269V241c0,1.56.44,2.45,1.72,2.45a4.87,4.87,0,0,0,1.32-.16l.11,1.72a5.67,5.67,0,0,1-2,.31,3.18,3.18,0,0,1-2.47-1,4.68,4.68,0,0,1-.88-3.28v-6.86H264.8v-1.75h1.95v-3Z"/>
          <path class="b1890dfa-6b38-49c0-8c50-8ce30b04f450" d="M276,239.13c.05,3.1,2,4.37,4.32,4.37a8.35,8.35,0,0,0,3.48-.65l.39,1.64a10.27,10.27,0,0,1-4.19.78c-3.87,0-6.18-2.55-6.18-6.35s2.23-6.78,5.9-6.78c4.11,0,5.2,3.61,5.2,5.93a7.78,7.78,0,0,1-.08,1.06Zm6.71-1.64c0-1.45-.6-3.71-3.17-3.71-2.32,0-3.33,2.13-3.51,3.71Z"/>
          <path class="b1890dfa-6b38-49c0-8c50-8ce30b04f450" d="M287.7,236.35c0-1.48,0-2.76-.1-3.93h2l.08,2.47h.1a3.77,3.77,0,0,1,3.49-2.75,2.18,2.18,0,0,1,.65.08v2.15a3.64,3.64,0,0,0-.78-.07,3.2,3.2,0,0,0-3.07,2.93,6.78,6.78,0,0,0-.11,1.07V245H287.7Z"/>
        </g>
      </g>
      <g>
        <path class="f17ddded-09c0-45db-86aa-338c4d3503c7" d="M223.92,314.87h-2l-7.2-11.17a4.87,4.87,0,0,1-.45-.88h-.06a14.84,14.84,0,0,1,.08,1.93v10.12h-1.64v-14h2.13l7,11a10.15,10.15,0,0,1,.56.94h0a16.12,16.12,0,0,1-.09-2.06v-9.87h1.64Z"/>
        <path class="f17ddded-09c0-45db-86aa-338c4d3503c7" d="M234.23,315.1a6.16,6.16,0,0,1-4.77-2,7.3,7.3,0,0,1-1.79-5.11,7.7,7.7,0,0,1,1.83-5.39,6.36,6.36,0,0,1,5-2,6,6,0,0,1,4.67,1.95,7.32,7.32,0,0,1,1.77,5.11,7.75,7.75,0,0,1-1.81,5.42A6.28,6.28,0,0,1,234.23,315.1Zm.12-13a4.5,4.5,0,0,0-3.58,1.59,7.09,7.09,0,0,0,0,8.35,4.39,4.39,0,0,0,3.5,1.58,4.63,4.63,0,0,0,3.64-1.51,6.16,6.16,0,0,0,1.32-4.21,6.38,6.38,0,0,0-1.29-4.28A4.4,4.4,0,0,0,234.35,302.11Z"/>
        <path class="f17ddded-09c0-45db-86aa-338c4d3503c7" d="M244.67,314.87v-14h3.86q7.41,0,7.41,6.83a6.88,6.88,0,0,1-2.06,5.21,7.62,7.62,0,0,1-5.5,2Zm1.64-12.52v11h2.09a5.93,5.93,0,0,0,4.28-1.47,5.52,5.52,0,0,0,1.54-4.18q0-5.39-5.73-5.38Z"/>
        <path class="f17ddded-09c0-45db-86aa-338c4d3503c7" d="M267.11,314.87h-7.42v-14h7.11v1.49h-5.47V307h5.06v1.48h-5.06v4.9h5.78Z"/>
      </g>
    </g>
    <g>
      <path class="f17ddded-09c0-45db-86aa-338c4d3503c7" d="M1134,392.51h-1.63v-9.4c0-.74,0-1.65.14-2.72h0a10,10,0,0,1-.42,1.36l-4.79,10.76h-.8l-4.77-10.68a8.19,8.19,0,0,1-.42-1.44h0c0,.56.08,1.47.08,2.74v9.38h-1.59v-14h2.17l4.3,9.76a11.71,11.71,0,0,1,.64,1.68h.06c.28-.77.51-1.34.68-1.72l4.38-9.72h2Z"/>
      <path class="f17ddded-09c0-45db-86aa-338c4d3503c7" d="M1146.06,392.51h-7.43v-14h7.11V380h-5.47v4.66h5.06v1.47h-5.06V391h5.79Z"/>
      <path class="f17ddded-09c0-45db-86aa-338c4d3503c7" d="M1149.1,391.94V390a4,4,0,0,0,.79.53,7.69,7.69,0,0,0,1,.39,7.36,7.36,0,0,0,1,.25,5.54,5.54,0,0,0,1,.09,3.78,3.78,0,0,0,2.26-.56,1.93,1.93,0,0,0,.74-1.62,1.83,1.83,0,0,0-.25-1,2.59,2.59,0,0,0-.68-.77,8.15,8.15,0,0,0-1-.67l-1.3-.66c-.49-.25-.94-.5-1.36-.76a5.39,5.39,0,0,1-1.11-.84,3.46,3.46,0,0,1-.74-1,3.33,3.33,0,0,1-.26-1.36,3.17,3.17,0,0,1,.42-1.66,3.52,3.52,0,0,1,1.1-1.17,4.8,4.8,0,0,1,1.56-.68,7.06,7.06,0,0,1,1.78-.23,6.86,6.86,0,0,1,3,.5v1.84a5.51,5.51,0,0,0-3.19-.85,4.92,4.92,0,0,0-1.07.11,3.14,3.14,0,0,0-1,.36,2,2,0,0,0-.68.66,1.68,1.68,0,0,0-.27,1,2.06,2.06,0,0,0,.2.93,2.5,2.5,0,0,0,.6.72,5.79,5.79,0,0,0,.95.62q.56.3,1.29.66c.5.25,1,.51,1.43.79a6.43,6.43,0,0,1,1.18.9,3.87,3.87,0,0,1,.8,1.11,3,3,0,0,1,.3,1.38,3.55,3.55,0,0,1-.4,1.76,3.3,3.3,0,0,1-1.1,1.16,4.66,4.66,0,0,1-1.58.65,8.33,8.33,0,0,1-1.9.2,6.71,6.71,0,0,1-.82-.05c-.32,0-.66-.09-1-.16a7.24,7.24,0,0,1-1-.25A2.69,2.69,0,0,1,1149.1,391.94Z"/>
      <path class="f17ddded-09c0-45db-86aa-338c4d3503c7" d="M1160.72,391.94V390a4.11,4.11,0,0,0,.8.53,7.55,7.55,0,0,0,1,.39,8.11,8.11,0,0,0,1,.25,5.72,5.72,0,0,0,1,.09,3.78,3.78,0,0,0,2.26-.56,1.91,1.91,0,0,0,.75-1.62,1.83,1.83,0,0,0-.25-1,2.78,2.78,0,0,0-.69-.77,7.5,7.5,0,0,0-1-.67l-1.29-.66c-.49-.25-1-.5-1.37-.76a5.6,5.6,0,0,1-1.1-.84,3.3,3.3,0,0,1-.74-1,3.52,3.52,0,0,1,.15-3,3.62,3.62,0,0,1,1.1-1.17,5,5,0,0,1,1.56-.68,7.12,7.12,0,0,1,1.78-.23,6.86,6.86,0,0,1,3,.5v1.84a5.48,5.48,0,0,0-3.18-.85,5,5,0,0,0-1.08.11,3.18,3.18,0,0,0-.95.36,2.18,2.18,0,0,0-.69.66,1.75,1.75,0,0,0-.26,1,2.06,2.06,0,0,0,.2.93,2.31,2.31,0,0,0,.59.72,6.26,6.26,0,0,0,1,.62l1.3.66c.5.25,1,.51,1.42.79a6.11,6.11,0,0,1,1.18.9,4.11,4.11,0,0,1,.81,1.11,3,3,0,0,1,.3,1.38,3.55,3.55,0,0,1-.41,1.76,3.28,3.28,0,0,1-1.09,1.16,4.71,4.71,0,0,1-1.59.65,8.3,8.3,0,0,1-1.89.2,6.6,6.6,0,0,1-.82-.05c-.33,0-.66-.09-1-.16a6.73,6.73,0,0,1-1-.25A2.77,2.77,0,0,1,1160.72,391.94Z"/>
      <path class="f17ddded-09c0-45db-86aa-338c4d3503c7" d="M1183.84,392.51H1182l-1.48-3.93h-5.94l-1.39,3.93h-1.83l5.37-14h1.7Zm-3.84-5.4-2.19-6a4.68,4.68,0,0,1-.22-.94h0a5.26,5.26,0,0,1-.22.94l-2.18,6Z"/>
      <path class="f17ddded-09c0-45db-86aa-338c4d3503c7" d="M1197.11,391.55a9.32,9.32,0,0,1-4.69,1.19,6.39,6.39,0,0,1-4.85-1.93,7.1,7.1,0,0,1-1.85-5.12,7.24,7.24,0,0,1,2.06-5.33,7,7,0,0,1,5.21-2.09,8.9,8.9,0,0,1,3.83.74v1.82a7.32,7.32,0,0,0-4-1.07,5,5,0,0,0-3.86,1.62,6.78,6.78,0,0,0-.11,8.37,4.93,4.93,0,0,0,3.79,1.52,5.85,5.85,0,0,0,2.85-.66v-3.92h-3.07V385.2h4.71Z"/>
      <path class="f17ddded-09c0-45db-86aa-338c4d3503c7" d="M1208.78,392.51h-7.42v-14h7.11V380H1203v4.66h5.06v1.47H1203V391h5.78Z"/>
    </g>
    <g>
      <path class="f34fb3db-0010-4d8d-9b5d-5bd3e7dde8e9" d="M629.38,161.69h-2l-7.2-11.16a4.87,4.87,0,0,1-.45-.88h-.06a14.65,14.65,0,0,1,.08,1.92v10.12h-1.64v-14h2.13l7,11c.29.46.48.77.56.94h0a16,16,0,0,1-.09-2.06v-9.86h1.64Z"/>
      <path class="f34fb3db-0010-4d8d-9b5d-5bd3e7dde8e9" d="M641.47,161.69h-7.42v-14h7.11v1.48h-5.47v4.66h5.06v1.47h-5.06v4.91h5.78Z"/>
      <path class="f34fb3db-0010-4d8d-9b5d-5bd3e7dde8e9" d="M653.49,149.17h-4v12.52H647.8V149.17h-4v-1.48h9.72Z"/>
      <path class="f34fb3db-0010-4d8d-9b5d-5bd3e7dde8e9" d="M673.67,147.69l-4,14h-1.92l-2.88-10.23a6.29,6.29,0,0,1-.23-1.43h0a7.44,7.44,0,0,1-.25,1.41l-2.9,10.25h-1.91l-4.1-14h1.81l3,10.74a7.16,7.16,0,0,1,.23,1.41h0a7.83,7.83,0,0,1,.3-1.41l3.1-10.74h1.57l3,10.82a8.2,8.2,0,0,1,.23,1.31h0a8.35,8.35,0,0,1,.27-1.35l2.86-10.78Z"/>
      <path class="f34fb3db-0010-4d8d-9b5d-5bd3e7dde8e9" d="M682.39,161.93a6.13,6.13,0,0,1-4.77-2,7.29,7.29,0,0,1-1.79-5.1,7.77,7.77,0,0,1,1.82-5.4,6.39,6.39,0,0,1,5-2,6,6,0,0,1,4.68,2,7.3,7.3,0,0,1,1.77,5.1,7.72,7.72,0,0,1-1.82,5.42A6.25,6.25,0,0,1,682.39,161.93Zm.12-13a4.53,4.53,0,0,0-3.59,1.59,7.09,7.09,0,0,0,0,8.34,4.35,4.35,0,0,0,3.5,1.58A4.58,4.58,0,0,0,686,159a6.13,6.13,0,0,0,1.33-4.21,6.43,6.43,0,0,0-1.29-4.29A4.41,4.41,0,0,0,682.51,148.94Z"/>
      <path class="f34fb3db-0010-4d8d-9b5d-5bd3e7dde8e9" d="M702.86,161.69h-2l-2.34-3.92a9.53,9.53,0,0,0-.63-.94,4.12,4.12,0,0,0-.62-.63,2.1,2.1,0,0,0-.68-.35,2.68,2.68,0,0,0-.83-.12h-1.35v6h-1.64v-14H697a5.73,5.73,0,0,1,1.7.23,3.84,3.84,0,0,1,1.35.69,3.44,3.44,0,0,1,.89,1.17,4,4,0,0,1,.32,1.64,3.85,3.85,0,0,1-.22,1.34,3.36,3.36,0,0,1-.62,1.09,3.92,3.92,0,0,1-1,.82,5.44,5.44,0,0,1-1.28.52v0a3.25,3.25,0,0,1,.61.35,3.68,3.68,0,0,1,.49.48,5.25,5.25,0,0,1,.46.62c.16.23.33.5.52.8Zm-8.4-12.52v5.08h2.23a3.25,3.25,0,0,0,1.14-.19,2.52,2.52,0,0,0,.9-.53,2.38,2.38,0,0,0,.6-.85,2.88,2.88,0,0,0,.21-1.13,2.21,2.21,0,0,0-.72-1.75,3.15,3.15,0,0,0-2.11-.63Z"/>
      <path class="f34fb3db-0010-4d8d-9b5d-5bd3e7dde8e9" d="M715.53,161.69h-2.28l-5.41-6.41a3.9,3.9,0,0,1-.37-.48h0v6.89h-1.64v-14h1.64v6.58h0a3.92,3.92,0,0,1,.37-.48l5.23-6.1h2l-6,6.72Z"/>
    </g>
    <path class="fdfcbe06-1a2a-4e52-b989-0e7cb55bc0f0" d="M944.84,188.1l-1.43-1.4,12.15-12.43a1.47,1.47,0,0,0,0-1.34l-12.16-12.42,1.43-1.4L957,171.53a3.26,3.26,0,0,1,0,4.14Z"/>
    <path class="b0556004-f245-4e3e-9239-3e377fb2a9fe" d="M1090,291l-12.42-12.16a1.44,1.44,0,0,0-1.34,0L1063.85,291l-1.4-1.43,12.43-12.16a3.24,3.24,0,0,1,4.13,0l12.43,12.16Z"/>
    <path class="b0556004-f245-4e3e-9239-3e377fb2a9fe" d="M251.19,341.34l-12.42-12.16a1.44,1.44,0,0,0-1.34,0L225,341.34l-1.4-1.43L236,327.75a3.26,3.26,0,0,1,4.14,0l12.42,12.16Z"/>
    <rect class="fdfcbe06-1a2a-4e52-b989-0e7cb55bc0f0" x="376.87" y="172.84" width="579.37" height="2"/>
    <path class="b0556004-f245-4e3e-9239-3e377fb2a9fe" d="M524.43,509.92l-1.43-1.4,12.16-12.42a1.44,1.44,0,0,0,0-1.34L523,482.33l1.43-1.39,12.16,12.42a3.26,3.26,0,0,1,0,4.14Z"/>
    <path class="b0556004-f245-4e3e-9239-3e377fb2a9fe" d="M535.84,496.66H243.47a6.5,6.5,0,0,1-6.5-6.5V327.75h2V490.16a4.49,4.49,0,0,0,4.5,4.5H535.84Z"/>
    <path class="b0556004-f245-4e3e-9239-3e377fb2a9fe" d="M797.58,509.92,785.42,497.5a3.28,3.28,0,0,1,0-4.14l12.16-12.42,1.43,1.39-12.16,12.43a1.5,1.5,0,0,0,0,1.34L799,508.52Z"/>
    <path class="b0556004-f245-4e3e-9239-3e377fb2a9fe" d="M1071.55,496.66H786.18v-2h285.37a4.5,4.5,0,0,0,4.5-4.5V277.75h2V490.16A6.51,6.51,0,0,1,1071.55,496.66Z"/>
    <path class="fdfcbe06-1a2a-4e52-b989-0e7cb55bc0f0" d="M388,188.1l-12.16-12.43a3.28,3.28,0,0,1,0-4.14L388,159.11l1.43,1.4-12.16,12.42a1.5,1.5,0,0,0,0,1.34l12.16,12.43Z"/>
    <g class="ffbf6392-a55a-4108-a18e-fbf14e34f694">
      <circle class="fdfcbe06-1a2a-4e52-b989-0e7cb55bc0f0" cx="863.17" cy="173.6" r="25.84"/>
      <path class="fdfcbe06-1a2a-4e52-b989-0e7cb55bc0f0" d="M863.17,199.59a26,26,0,1,1,26-26A26,26,0,0,1,863.17,199.59Zm0-51.67a25.69,25.69,0,1,0,25.68,25.68A25.71,25.71,0,0,0,863.17,147.92Z"/>
    </g>
    <g>
      <circle class="fdfcbe06-1a2a-4e52-b989-0e7cb55bc0f0" cx="863.17" cy="173.6" r="9.18"/>
      <path class="fdfcbe06-1a2a-4e52-b989-0e7cb55bc0f0" d="M863.17,182.93a9.33,9.33,0,1,1,9.33-9.33A9.34,9.34,0,0,1,863.17,182.93Zm0-18.36a9,9,0,1,0,9,9A9,9,0,0,0,863.17,164.57Z"/>
    </g>
    <g class="ffbf6392-a55a-4108-a18e-fbf14e34f694">
      <circle class="fdfcbe06-1a2a-4e52-b989-0e7cb55bc0f0" cx="463.54" cy="173.6" r="25.84"/>
      <path class="fdfcbe06-1a2a-4e52-b989-0e7cb55bc0f0" d="M463.54,199.59a26,26,0,1,1,26-26A26,26,0,0,1,463.54,199.59Zm0-51.67a25.69,25.69,0,1,0,25.69,25.68A25.71,25.71,0,0,0,463.54,147.92Z"/>
    </g>
    <g>
      <circle class="fdfcbe06-1a2a-4e52-b989-0e7cb55bc0f0" cx="463.54" cy="173.6" r="9.18"/>
      <path class="fdfcbe06-1a2a-4e52-b989-0e7cb55bc0f0" d="M463.54,182.93a9.33,9.33,0,1,1,9.33-9.33A9.34,9.34,0,0,1,463.54,182.93Zm0-18.36a9,9,0,1,0,9,9A9,9,0,0,0,463.54,164.57Z"/>
    </g>
    <g class="ffbf6392-a55a-4108-a18e-fbf14e34f694">
      <circle class="fdfcbe06-1a2a-4e52-b989-0e7cb55bc0f0" cx="1077.47" cy="385.25" r="25.84"/>
      <path class="fdfcbe06-1a2a-4e52-b989-0e7cb55bc0f0" d="M1077.47,411.24a26,26,0,1,1,26-26A26,26,0,0,1,1077.47,411.24Zm0-51.67a25.69,25.69,0,1,0,25.69,25.68A25.71,25.71,0,0,0,1077.47,359.57Z"/>
    </g>
    <g>
      <circle class="fdfcbe06-1a2a-4e52-b989-0e7cb55bc0f0" cx="1077.47" cy="385.25" r="9.18"/>
      <path class="fdfcbe06-1a2a-4e52-b989-0e7cb55bc0f0" d="M1077.47,394.58a9.33,9.33,0,1,1,9.33-9.33A9.34,9.34,0,0,1,1077.47,394.58Zm0-18.36a9,9,0,1,0,9,9A9,9,0,0,0,1077.47,376.22Z"/>
    </g>
    <g class="ffbf6392-a55a-4108-a18e-fbf14e34f694">
      <circle class="fdfcbe06-1a2a-4e52-b989-0e7cb55bc0f0" cx="446.87" cy="495.43" r="25.84"/>
      <path class="fdfcbe06-1a2a-4e52-b989-0e7cb55bc0f0" d="M446.87,521.41a26,26,0,1,1,26-26A26,26,0,0,1,446.87,521.41Zm0-51.67a25.69,25.69,0,1,0,25.69,25.69A25.71,25.71,0,0,0,446.87,469.74Z"/>
    </g>
    <g>
      <circle class="fdfcbe06-1a2a-4e52-b989-0e7cb55bc0f0" cx="446.87" cy="495.43" r="9.18"/>
      <path class="fdfcbe06-1a2a-4e52-b989-0e7cb55bc0f0" d="M446.87,504.76a9.33,9.33,0,1,1,9.33-9.33A9.35,9.35,0,0,1,446.87,504.76Zm0-18.36a9,9,0,1,0,9,9A9,9,0,0,0,446.87,486.4Z"/>
    </g>
  </g>
</svg>
