<svg xmlns="http://www.w3.org/2000/svg" xmlns:xlink="http://www.w3.org/1999/xlink" width="1310.93" height="230.37" viewBox="0 0 1310.93 230.37">
  <defs>
    <style>
      .afd6b561-952d-417b-b840-71322f4a8417, .ec15cebb-01c7-42c8-8124-0bc16bfe6c61 {
        fill: none;
      }

      .ba49241b-2525-4ef7-a63d-4f53fcfdad1a {
        fill: #dceaf4;
      }

      .a2d73997-eca5-471c-94d0-6dc43e078399 {
        fill: url(#b5f7d734-675e-4c3f-be22-642c8a2963c8);
      }

      .ec15cebb-01c7-42c8-8124-0bc16bfe6c61 {
        stroke: #75828e;
      }

      .a2a10e4e-f23a-4fab-b4ab-10072a153cf1, .e4633866-c0e8-4b01-b0d3-7b2fe34f5d8b, .ec15cebb-01c7-42c8-8124-0bc16bfe6c61, .f0a3d1bc-be63-4a3f-a0cf-748ad2107cd5 {
        stroke-miterlimit: 10;
      }

      .a2a10e4e-f23a-4fab-b4ab-10072a153cf1, .ec15cebb-01c7-42c8-8124-0bc16bfe6c61, .f0a3d1bc-be63-4a3f-a0cf-748ad2107cd5 {
        stroke-width: 2px;
      }

      .a2a10e4e-f23a-4fab-b4ab-10072a153cf1 {
        fill: #f7fafc;
        stroke: #b2bfce;
      }

      .e4633866-c0e8-4b01-b0d3-7b2fe34f5d8b, .ec1f8e37-40f3-401a-963d-3ed59a59214f {
        fill: #2a4b7d;
      }

      .e4633866-c0e8-4b01-b0d3-7b2fe34f5d8b {
        stroke: #2a4b7d;
        stroke-width: 0.5px;
      }

      .f0a3d1bc-be63-4a3f-a0cf-748ad2107cd5 {
        fill: #f0f9ff;
        stroke: #1998ff;
      }
    </style>
    <pattern id="b5f7d734-675e-4c3f-be22-642c8a2963c8" data-name="Docs Polka Background" width="60" height="60" patternTransform="translate(653.46 910.1) scale(0.87 0.74)" patternUnits="userSpaceOnUse" viewBox="0 0 60 60">
      <rect class="afd6b561-952d-417b-b840-71322f4a8417" width="60" height="60"/>
      <circle class="ba49241b-2525-4ef7-a63d-4f53fcfdad1a" cx="30" cy="30" r="2.47"/>
    </pattern>
  </defs>
  <g id="f29d42c9-3821-4b36-9090-221e5d69f375" data-name="Layer 2">
    <rect class="a2d73997-eca5-471c-94d0-6dc43e078399" x="-1.8" y="-2.99" width="1312.43" height="231.95"/>
  </g>
  <g id="bf215f96-4111-45c5-960d-75a2c514a23d" data-name="Layer 1">
    <path class="ec15cebb-01c7-42c8-8124-0bc16bfe6c61" d="M1270.72,123.71l6.75-6.9,5.41-5.53a2.31,2.31,0,0,0,0-2.74l-5.41-5.53-6.75-6.89"/>
    <line class="ec15cebb-01c7-42c8-8124-0bc16bfe6c61" x1="228.78" y1="110.15" x2="1282.54" y2="110.15"/>
    <rect class="a2a10e4e-f23a-4fab-b4ab-10072a153cf1" x="51.45" y="69.69" width="198.75" height="76.64"/>
    <g>
      <path class="e4633866-c0e8-4b01-b0d3-7b2fe34f5d8b" d="M108.83,99.93V83.13h4.64q8.88,0,8.88,8.19a8.22,8.22,0,0,1-2.47,6.25,9.11,9.11,0,0,1-6.6,2.36Zm2-15V98.15h2.51a7.12,7.12,0,0,0,5.15-1.77,6.65,6.65,0,0,0,1.84-5q0-6.47-6.87-6.46Z"/>
      <path class="e4633866-c0e8-4b01-b0d3-7b2fe34f5d8b" d="M135,94.42h-8.47a4.48,4.48,0,0,0,1.08,3.09,3.68,3.68,0,0,0,2.83,1.09,5.91,5.91,0,0,0,3.73-1.34v1.81a7,7,0,0,1-4.19,1.15,5.07,5.07,0,0,1-4-1.64,6.68,6.68,0,0,1-1.45-4.6,6.52,6.52,0,0,1,1.58-4.56,5.1,5.1,0,0,1,4-1.77,4.49,4.49,0,0,1,3.64,1.53A6.33,6.33,0,0,1,135,93.41Zm-2-1.63a3.89,3.89,0,0,0-.8-2.59,2.74,2.74,0,0,0-2.2-.93,3.16,3.16,0,0,0-2.31,1,4.46,4.46,0,0,0-1.17,2.55Z"/>
      <path class="e4633866-c0e8-4b01-b0d3-7b2fe34f5d8b" d="M147.38,87.93l-4.78,12h-1.89l-4.54-12h2.1l3,8.72a7.33,7.33,0,0,1,.42,1.68h0a7.5,7.5,0,0,1,.38-1.63l3.18-8.77Z"/>
      <path class="e4633866-c0e8-4b01-b0d3-7b2fe34f5d8b" d="M150.43,84.89a1.22,1.22,0,0,1-.88-.35,1.21,1.21,0,0,1-.37-.89,1.23,1.23,0,0,1,.37-.9,1.19,1.19,0,0,1,.88-.36,1.21,1.21,0,0,1,.89.36,1.19,1.19,0,0,1,.37.9,1.16,1.16,0,0,1-.37.87A1.19,1.19,0,0,1,150.43,84.89Zm.93,15h-1.92v-12h1.92Z"/>
      <path class="e4633866-c0e8-4b01-b0d3-7b2fe34f5d8b" d="M163.43,99.38a6.18,6.18,0,0,1-3.28.84A5.44,5.44,0,0,1,156,98.55a6.07,6.07,0,0,1-1.58-4.33,6.68,6.68,0,0,1,1.7-4.77,6,6,0,0,1,4.54-1.8,6.36,6.36,0,0,1,2.79.59v2a4.87,4.87,0,0,0-2.86-.94,3.87,3.87,0,0,0-3,1.32,5,5,0,0,0-1.18,3.46,4.75,4.75,0,0,0,1.11,3.33,3.83,3.83,0,0,0,3,1.22,4.83,4.83,0,0,0,3-1Z"/>
      <path class="e4633866-c0e8-4b01-b0d3-7b2fe34f5d8b" d="M176,94.42h-8.48a4.48,4.48,0,0,0,1.08,3.09,3.71,3.71,0,0,0,2.84,1.09,5.88,5.88,0,0,0,3.72-1.34v1.81a7,7,0,0,1-4.18,1.15,5.08,5.08,0,0,1-4-1.64,6.73,6.73,0,0,1-1.45-4.6,6.53,6.53,0,0,1,1.59-4.56,5.08,5.08,0,0,1,3.94-1.77,4.52,4.52,0,0,1,3.65,1.53A6.33,6.33,0,0,1,176,93.41Zm-2-1.63a3.9,3.9,0,0,0-.81-2.59,2.71,2.71,0,0,0-2.19-.93,3.13,3.13,0,0,0-2.31,1,4.39,4.39,0,0,0-1.17,2.55Z"/>
      <path class="e4633866-c0e8-4b01-b0d3-7b2fe34f5d8b" d="M195.09,99.93h-9.51V98.25h3.8V85.19l-3.89,1.16V84.52l5.81-1.76V98.25h3.79Z"/>
    </g>
    <g>
      <path class="ec1f8e37-40f3-401a-963d-3ed59a59214f" d="M66.17,128.62V126.3a4.61,4.61,0,0,0,1,.63,8.1,8.1,0,0,0,1.18.48,11,11,0,0,0,1.23.29,7.05,7.05,0,0,0,1.15.11,4.47,4.47,0,0,0,2.71-.67A2.53,2.53,0,0,0,74,124a3.51,3.51,0,0,0-.82-.92,9,9,0,0,0-1.25-.79q-.72-.39-1.56-.81c-.58-.29-1.13-.59-1.64-.9a6.86,6.86,0,0,1-1.32-1,4.16,4.16,0,0,1-.89-1.24,4,4,0,0,1-.32-1.64,3.81,3.81,0,0,1,.51-2A4.3,4.3,0,0,1,68,113.3a6,6,0,0,1,1.87-.82,8.54,8.54,0,0,1,2.14-.27,8.19,8.19,0,0,1,3.62.6V115a6.62,6.62,0,0,0-3.82-1,6.29,6.29,0,0,0-1.29.14,3.53,3.53,0,0,0-1.15.44,2.55,2.55,0,0,0-.82.78,2.08,2.08,0,0,0-.31,1.17,2.44,2.44,0,0,0,.24,1.12,2.65,2.65,0,0,0,.7.85,7.16,7.16,0,0,0,1.15.75c.45.25,1,.51,1.55.8s1.17.61,1.71.94A8,8,0,0,1,75,122.07a5.11,5.11,0,0,1,1,1.32,3.87,3.87,0,0,1,.35,1.67,4.26,4.26,0,0,1-.48,2.1,4.11,4.11,0,0,1-1.32,1.4,5.68,5.68,0,0,1-1.9.78,10.46,10.46,0,0,1-2.27.24,7.87,7.87,0,0,1-1-.07c-.39,0-.79-.1-1.19-.18A9.82,9.82,0,0,1,67,129,3.55,3.55,0,0,1,66.17,128.62Z"/>
      <path class="ec1f8e37-40f3-401a-963d-3ed59a59214f" d="M84.46,129.58a5.58,5.58,0,0,1-4.25-1.68,6.27,6.27,0,0,1-1.58-4.46,6.48,6.48,0,0,1,1.65-4.72,5.91,5.91,0,0,1,4.46-1.7,5.38,5.38,0,0,1,4.19,1.65,6.52,6.52,0,0,1,1.51,4.58,6.44,6.44,0,0,1-1.62,4.6A5.72,5.72,0,0,1,84.46,129.58Zm.14-11a3.66,3.66,0,0,0-2.93,1.26,5.18,5.18,0,0,0-1.08,3.48,4.92,4.92,0,0,0,1.09,3.36A3.71,3.71,0,0,0,84.6,128a3.54,3.54,0,0,0,2.87-1.2,5.24,5.24,0,0,0,1-3.44,5.33,5.33,0,0,0-1-3.47A3.52,3.52,0,0,0,84.6,118.63Z"/>
      <path class="ec1f8e37-40f3-401a-963d-3ed59a59214f" d="M103.21,129.3h-1.92v-1.9h-.05a3.94,3.94,0,0,1-3.7,2.18q-4.29,0-4.29-5.11V117.3h1.91v6.87q0,3.8,2.91,3.79a2.92,2.92,0,0,0,2.31-1,4,4,0,0,0,.91-2.72V117.3h1.92Z"/>
      <path class="ec1f8e37-40f3-401a-963d-3ed59a59214f" d="M113.35,119.24a2.41,2.41,0,0,0-1.45-.38,2.44,2.44,0,0,0-2.06,1.16,5.36,5.36,0,0,0-.83,3.16v6.12h-1.92v-12H109v2.47h0a4.17,4.17,0,0,1,1.25-2,2.86,2.86,0,0,1,1.89-.71,3.16,3.16,0,0,1,1.15.16Z"/>
      <path class="ec1f8e37-40f3-401a-963d-3ed59a59214f" d="M123.3,128.75a6.29,6.29,0,0,1-3.28.83,5.48,5.48,0,0,1-4.15-1.67,6.05,6.05,0,0,1-1.57-4.33,6.59,6.59,0,0,1,1.7-4.76,5.93,5.93,0,0,1,4.53-1.8,6.29,6.29,0,0,1,2.79.58v2a4.92,4.92,0,0,0-2.86-.94,3.88,3.88,0,0,0-3,1.32,5,5,0,0,0-1.17,3.47,4.78,4.78,0,0,0,1.1,3.32,3.8,3.8,0,0,0,3,1.22,4.85,4.85,0,0,0,3-1Z"/>
      <path class="ec1f8e37-40f3-401a-963d-3ed59a59214f" d="M135.85,123.78h-8.47a4.5,4.5,0,0,0,1.07,3.09,3.72,3.72,0,0,0,2.84,1.09,5.92,5.92,0,0,0,3.73-1.33v1.8a7,7,0,0,1-4.19,1.15,5.07,5.07,0,0,1-4-1.64,6.67,6.67,0,0,1-1.46-4.59,6.57,6.57,0,0,1,1.59-4.57,5.08,5.08,0,0,1,3.95-1.76,4.49,4.49,0,0,1,3.64,1.52,6.36,6.36,0,0,1,1.29,4.23Zm-2-1.63a4,4,0,0,0-.8-2.59,2.74,2.74,0,0,0-2.2-.93,3.1,3.1,0,0,0-2.31,1,4.43,4.43,0,0,0-1.17,2.54Z"/>
      <path class="ec1f8e37-40f3-401a-963d-3ed59a59214f" d="M142.62,112.49v1.69H141v13.43h1.64v1.69h-5.25v-1.69H139V114.18h-1.64v-1.69Z"/>
      <path class="ec1f8e37-40f3-401a-963d-3ed59a59214f" d="M145.4,129.3V112.49H150q8.88,0,8.88,8.19a8.28,8.28,0,0,1-2.46,6.26,9.19,9.19,0,0,1-6.61,2.36Zm2-15v13.25h2.51a7.12,7.12,0,0,0,5.14-1.77,6.62,6.62,0,0,0,1.84-5q0-6.45-6.87-6.46Z"/>
      <path class="ec1f8e37-40f3-401a-963d-3ed59a59214f" d="M162.64,119.64a1.3,1.3,0,0,1-1.3-1.31,1.2,1.2,0,0,1,.38-.91,1.26,1.26,0,0,1,.92-.38,1.31,1.31,0,0,1,.94.38,1.24,1.24,0,0,1,.38.91,1.3,1.3,0,0,1-1.32,1.31Zm0,9.92a1.23,1.23,0,0,1-.92-.39,1.33,1.33,0,0,1,0-1.86,1.23,1.23,0,0,1,.92-.39,1.28,1.28,0,0,1,.94.39,1.33,1.33,0,0,1,0,1.86A1.28,1.28,0,0,1,162.64,129.56Z"/>
      <path class="ec1f8e37-40f3-401a-963d-3ed59a59214f" d="M173.34,128.68V126.6a6.09,6.09,0,0,0,3.89,1.36,4.18,4.18,0,0,0,2.8-.88,2.91,2.91,0,0,0,1.05-2.36q0-3.3-4.67-3.3H175v-1.63h1.33q4.16,0,4.16-3.09,0-2.86-3.18-2.86a5.37,5.37,0,0,0-3.34,1.21v-1.88a7.35,7.35,0,0,1,3.82-1,4.9,4.9,0,0,1,3.39,1.13,3.67,3.67,0,0,1,1.28,2.88,4.12,4.12,0,0,1-3.38,4.27v0A4.53,4.53,0,0,1,182,121.8a3.79,3.79,0,0,1,1.07,2.74,4.58,4.58,0,0,1-1.62,3.65,6.33,6.33,0,0,1-4.28,1.39A7,7,0,0,1,173.34,128.68Z"/>
      <path class="ec1f8e37-40f3-401a-963d-3ed59a59214f" d="M196.93,129.3H195v-2h0a4.44,4.44,0,0,1-4.13,2.32,4.49,4.49,0,0,1-3.61-1.61,6.64,6.64,0,0,1-1.36-4.39,7.21,7.21,0,0,1,1.5-4.77,4.94,4.94,0,0,1,4-1.79A3.86,3.86,0,0,1,195,119h0v-7.43h1.92ZM195,123.87V122.1a3.44,3.44,0,0,0-1-2.46,3.22,3.22,0,0,0-2.43-1,3.31,3.31,0,0,0-2.77,1.29,5.68,5.68,0,0,0-1,3.57,5.1,5.1,0,0,0,1,3.27,3.16,3.16,0,0,0,2.6,1.2,3.24,3.24,0,0,0,2.6-1.16A4.31,4.31,0,0,0,195,123.87Z"/>
      <path class="ec1f8e37-40f3-401a-963d-3ed59a59214f" d="M200.41,128.68V126.6A6.09,6.09,0,0,0,204.3,128a4.18,4.18,0,0,0,2.8-.88,2.91,2.91,0,0,0,1.05-2.36q0-3.3-4.67-3.3h-1.4v-1.63h1.33q4.16,0,4.16-3.09,0-2.86-3.18-2.86a5.37,5.37,0,0,0-3.34,1.21v-1.88a7.35,7.35,0,0,1,3.82-1,4.9,4.9,0,0,1,3.39,1.13,3.67,3.67,0,0,1,1.28,2.88,4.12,4.12,0,0,1-3.38,4.27v0a4.5,4.5,0,0,1,2.89,1.27,3.79,3.79,0,0,1,1.07,2.74,4.58,4.58,0,0,1-1.62,3.65,6.33,6.33,0,0,1-4.28,1.39A7,7,0,0,1,200.41,128.68Z"/>
      <path class="ec1f8e37-40f3-401a-963d-3ed59a59214f" d="M216.61,120.49v0q-3-1.41-3-4.08a3.73,3.73,0,0,1,1.38-3,5.35,5.35,0,0,1,3.57-1.17,4.8,4.8,0,0,1,3.23,1.09,3.55,3.55,0,0,1,1.27,2.8q0,2.79-3.12,4.34v0c2.45.87,3.68,2.39,3.68,4.54a4.07,4.07,0,0,1-1.5,3.32,6.4,6.4,0,0,1-4.17,1.23,5.21,5.21,0,0,1-3.55-1.22,4,4,0,0,1-1.4-3.16Q213,122,216.61,120.49Zm1.55.91c-2.14.85-3.21,2.09-3.21,3.7a2.6,2.6,0,0,0,.93,2.06,3.66,3.66,0,0,0,2.46.8,3.48,3.48,0,0,0,2.37-.79,2.53,2.53,0,0,0,.92-2Q221.63,122.65,218.16,121.4Zm2.91-5.06a2.33,2.33,0,0,0-.73-1.83,2.78,2.78,0,0,0-2-.67,3,3,0,0,0-2,.7,2.23,2.23,0,0,0-.81,1.77c0,1.46.91,2.57,2.73,3.31Q221.07,118.46,221.07,116.34Z"/>
      <path class="ec1f8e37-40f3-401a-963d-3ed59a59214f" d="M236.65,129.3h-1.92v-6.92q0-3.75-2.79-3.75a3.05,3.05,0,0,0-2.36,1.09,4,4,0,0,0-1,2.78v6.8h-1.92V111.53h1.92v7.76h0A4.36,4.36,0,0,1,232.6,117q4.05,0,4.05,4.88Z"/>
    </g>
    <rect class="f0a3d1bc-be63-4a3f-a0cf-748ad2107cd5" x="361.97" y="69.69" width="198.75" height="76.64"/>
    <g>
      <path class="e4633866-c0e8-4b01-b0d3-7b2fe34f5d8b" d="M444.28,99.93h-8.9V83.13h8.53v1.78h-6.56V90.5h6.07v1.77h-6.07v5.88h6.93Z"/>
      <path class="e4633866-c0e8-4b01-b0d3-7b2fe34f5d8b" d="M456.69,87.93l-4.78,12H450l-4.55-12h2.11l3.05,8.72a8.55,8.55,0,0,1,.42,1.68h0a8.13,8.13,0,0,1,.38-1.63l3.19-8.77Z"/>
      <path class="e4633866-c0e8-4b01-b0d3-7b2fe34f5d8b" d="M468.26,94.42h-8.47a4.48,4.48,0,0,0,1.08,3.09,3.68,3.68,0,0,0,2.83,1.09,5.91,5.91,0,0,0,3.73-1.34v1.81a7,7,0,0,1-4.18,1.15,5.08,5.08,0,0,1-4-1.64A6.68,6.68,0,0,1,457.8,94a6.57,6.57,0,0,1,1.58-4.56,5.1,5.1,0,0,1,3.95-1.77A4.49,4.49,0,0,1,467,89.18a6.33,6.33,0,0,1,1.29,4.23Zm-2-1.63a3.89,3.89,0,0,0-.8-2.59,2.74,2.74,0,0,0-2.2-.93,3.16,3.16,0,0,0-2.31,1,4.46,4.46,0,0,0-1.17,2.55Z"/>
      <path class="e4633866-c0e8-4b01-b0d3-7b2fe34f5d8b" d="M481.13,99.93h-1.92V93.09q0-3.82-2.79-3.82A3,3,0,0,0,474,90.35a4,4,0,0,0-.94,2.74v6.84h-1.92v-12h1.92v2h.05a4.31,4.31,0,0,1,3.93-2.28,3.68,3.68,0,0,1,3,1.28,5.67,5.67,0,0,1,1,3.67Z"/>
      <path class="e4633866-c0e8-4b01-b0d3-7b2fe34f5d8b" d="M490.32,99.82a3.76,3.76,0,0,1-1.8.37q-3.15,0-3.15-3.51v-7.1h-2.06V87.93h2.06V85l1.92-.63v3.55h3v1.65h-3v6.76a2.82,2.82,0,0,0,.41,1.72,1.66,1.66,0,0,0,1.36.52,2.08,2.08,0,0,0,1.26-.4Z"/>
    </g>
    <g>
      <path class="ec1f8e37-40f3-401a-963d-3ed59a59214f" d="M420.45,111.92a15.82,15.82,0,0,0-3,9.81,16.22,16.22,0,0,0,3,9.75H418.8a15.56,15.56,0,0,1-3.15-9.75,15.85,15.85,0,0,1,3.15-9.81Z"/>
      <path class="ec1f8e37-40f3-401a-963d-3ed59a59214f" d="M436.29,120.32c0,5.56-3.38,8.52-7.51,8.52s-7.27-3.32-7.27-8.21c0-5.14,3.19-8.5,7.51-8.5S436.29,115.51,436.29,120.32Zm-12.55.26c0,3.46,1.87,6.55,5.16,6.55s5.19-3,5.19-6.72c0-3.22-1.68-6.57-5.16-6.57S423.74,117,423.74,120.58Z"/>
      <path class="ec1f8e37-40f3-401a-963d-3ed59a59214f" d="M446.49,128.57v-10h-4.87v10h-2.09v-10H437.9V117h1.63v-.38a5.5,5.5,0,0,1,1.3-4,4,4,0,0,1,2.93-1.08,3.72,3.72,0,0,1,1.65.41L445,113.5a3,3,0,0,0-1.25-.29c-1.65,0-2.11,1.42-2.11,3.24v.5h4.87v-.55a5.48,5.48,0,0,1,1.37-4.05,4,4,0,0,1,2.81-1.08,4.77,4.77,0,0,1,1.8.33l-.26,1.64a3.21,3.21,0,0,0-1.37-.27c-1.78,0-2.26,1.58-2.26,3.36V117h2.81v1.61h-2.78v10Z"/>
      <path class="ec1f8e37-40f3-401a-963d-3ed59a59214f" d="M452.8,126.41a5.55,5.55,0,0,0,2.79.84c1.54,0,2.25-.77,2.25-1.73s-.6-1.56-2.16-2.13c-2.08-.75-3.07-1.9-3.07-3.29,0-1.87,1.51-3.41,4-3.41a5.85,5.85,0,0,1,2.86.72L459,119a4.52,4.52,0,0,0-2.38-.68c-1.25,0-1.94.73-1.94,1.59s.69,1.39,2.21,2c2,.77,3.05,1.77,3.05,3.5,0,2-1.59,3.48-4.35,3.48a6.6,6.6,0,0,1-3.26-.79Z"/>
      <path class="ec1f8e37-40f3-401a-963d-3ed59a59214f" d="M463.77,123.15a3.72,3.72,0,0,0,4,4,7.54,7.54,0,0,0,3.21-.6l.36,1.51a9.3,9.3,0,0,1-3.86.72c-3.58,0-5.71-2.35-5.71-5.85s2.06-6.27,5.44-6.27c3.8,0,4.81,3.34,4.81,5.47a6.73,6.73,0,0,1-.08,1Zm6.2-1.51c0-1.35-.56-3.44-2.93-3.44-2.14,0-3.08,2-3.24,3.44Z"/>
      <path class="ec1f8e37-40f3-401a-963d-3ed59a59214f" d="M477.16,113.62V117h3v1.61h-3v6.27c0,1.44.41,2.25,1.59,2.25a4.78,4.78,0,0,0,1.22-.14l.1,1.58a5.14,5.14,0,0,1-1.87.29,2.9,2.9,0,0,1-2.28-.89,4.28,4.28,0,0,1-.82-3v-6.34h-1.8V117h1.8v-2.78Z"/>
      <path class="ec1f8e37-40f3-401a-963d-3ed59a59214f" d="M482.06,118.87a1.43,1.43,0,1,1,2.86,0,1.43,1.43,0,1,1-2.86,0Zm0,8.48a1.43,1.43,0,1,1,1.42,1.49A1.42,1.42,0,0,1,482.06,127.35Z"/>
      <path class="ec1f8e37-40f3-401a-963d-3ed59a59214f" d="M502.32,120.6c0,5.31-2,8.24-5.43,8.24-3.05,0-5.11-2.86-5.16-8s2.26-8.11,5.43-8.11S502.32,115.63,502.32,120.6Zm-8.48.24c0,4.06,1.25,6.36,3.17,6.36,2.16,0,3.19-2.52,3.19-6.5s-1-6.36-3.16-6.36C495.19,114.34,493.84,116.6,493.84,120.84Z"/>
      <path class="ec1f8e37-40f3-401a-963d-3ed59a59214f" d="M503.66,131.48a16.29,16.29,0,0,0,3-9.82,15.86,15.86,0,0,0-3-9.74h1.63a15.21,15.21,0,0,1,3.15,9.76,15.57,15.57,0,0,1-3.15,9.8Z"/>
    </g>
    <rect class="f0a3d1bc-be63-4a3f-a0cf-748ad2107cd5" x="573.91" y="69.69" width="198.75" height="76.64"/>
    <g>
      <path class="e4633866-c0e8-4b01-b0d3-7b2fe34f5d8b" d="M656.23,99.93h-8.91V83.13h8.53v1.78h-6.56V90.5h6.07v1.77h-6.07v5.88h6.94Z"/>
      <path class="e4633866-c0e8-4b01-b0d3-7b2fe34f5d8b" d="M668.64,87.93l-4.78,12H662l-4.55-12h2.11l3.05,8.72a7.33,7.33,0,0,1,.42,1.68h0a8.15,8.15,0,0,1,.37-1.63l3.19-8.77Z"/>
      <path class="e4633866-c0e8-4b01-b0d3-7b2fe34f5d8b" d="M680.21,94.42h-8.48a4.48,4.48,0,0,0,1.08,3.09,3.71,3.71,0,0,0,2.84,1.09,5.88,5.88,0,0,0,3.72-1.34v1.81a7,7,0,0,1-4.18,1.15,5.08,5.08,0,0,1-4-1.64,6.73,6.73,0,0,1-1.45-4.6,6.53,6.53,0,0,1,1.59-4.56,5.08,5.08,0,0,1,3.94-1.77,4.52,4.52,0,0,1,3.65,1.53,6.33,6.33,0,0,1,1.29,4.23Zm-2-1.63a3.9,3.9,0,0,0-.81-2.59,2.71,2.71,0,0,0-2.19-.93,3.13,3.13,0,0,0-2.31,1,4.46,4.46,0,0,0-1.17,2.55Z"/>
      <path class="e4633866-c0e8-4b01-b0d3-7b2fe34f5d8b" d="M693.07,99.93h-1.92V93.09q0-3.82-2.79-3.82A3,3,0,0,0,686,90.35a4,4,0,0,0-1,2.74v6.84h-1.92v-12H685v2h.05A4.34,4.34,0,0,1,689,87.65a3.68,3.68,0,0,1,3,1.28,5.61,5.61,0,0,1,1,3.67Z"/>
      <path class="e4633866-c0e8-4b01-b0d3-7b2fe34f5d8b" d="M702.26,99.82a3.69,3.69,0,0,1-1.79.37q-3.15,0-3.15-3.51v-7.1h-2.07V87.93h2.07V85l1.92-.63v3.55h3v1.65h-3v6.76a2.75,2.75,0,0,0,.41,1.72,1.64,1.64,0,0,0,1.36.52,2.05,2.05,0,0,0,1.25-.4Z"/>
    </g>
    <g>
      <path class="ec1f8e37-40f3-401a-963d-3ed59a59214f" d="M632.4,111.92a15.83,15.83,0,0,0-3,9.81,16.16,16.16,0,0,0,3,9.75h-1.66a15.56,15.56,0,0,1-3.14-9.75,15.79,15.79,0,0,1,3.14-9.81Z"/>
      <path class="ec1f8e37-40f3-401a-963d-3ed59a59214f" d="M648.24,120.32c0,5.56-3.38,8.52-7.51,8.52s-7.28-3.32-7.28-8.21c0-5.14,3.2-8.5,7.52-8.5S648.24,115.51,648.24,120.32Zm-12.55.26c0,3.46,1.87,6.55,5.16,6.55s5.18-3,5.18-6.72c0-3.22-1.68-6.57-5.16-6.57S635.69,117,635.69,120.58Z"/>
      <path class="ec1f8e37-40f3-401a-963d-3ed59a59214f" d="M658.44,128.57v-10h-4.87v10h-2.09v-10h-1.64V117h1.64v-.38a5.49,5.49,0,0,1,1.29-4,4,4,0,0,1,2.93-1.08,3.77,3.77,0,0,1,1.66.41l-.43,1.56a3,3,0,0,0-1.25-.29c-1.66,0-2.11,1.42-2.11,3.24v.5h4.87v-.55a5.44,5.44,0,0,1,1.37-4.05,4,4,0,0,1,2.8-1.08,4.73,4.73,0,0,1,1.8.33l-.26,1.64a3.18,3.18,0,0,0-1.37-.27c-1.77,0-2.25,1.58-2.25,3.36V117h2.8v1.61h-2.78v10Z"/>
      <path class="ec1f8e37-40f3-401a-963d-3ed59a59214f" d="M664.75,126.41a5.51,5.51,0,0,0,2.78.84c1.54,0,2.26-.77,2.26-1.73s-.6-1.56-2.16-2.13c-2.09-.75-3.07-1.9-3.07-3.29,0-1.87,1.51-3.41,4-3.41a5.84,5.84,0,0,1,2.85.72l-.53,1.54a4.45,4.45,0,0,0-2.37-.68c-1.25,0-1.95.73-1.95,1.59s.7,1.39,2.21,2c2,.77,3.05,1.77,3.05,3.5,0,2-1.58,3.48-4.34,3.48a6.64,6.64,0,0,1-3.27-.79Z"/>
      <path class="ec1f8e37-40f3-401a-963d-3ed59a59214f" d="M675.72,123.15a3.72,3.72,0,0,0,4,4,7.6,7.6,0,0,0,3.22-.6l.36,1.51a9.39,9.39,0,0,1-3.87.72c-3.57,0-5.71-2.35-5.71-5.85s2.07-6.27,5.45-6.27c3.79,0,4.8,3.34,4.8,5.47a9,9,0,0,1-.07,1Zm6.19-1.51c0-1.35-.55-3.44-2.93-3.44-2.13,0-3.07,2-3.24,3.44Z"/>
      <path class="ec1f8e37-40f3-401a-963d-3ed59a59214f" d="M689.11,113.62V117h3v1.61h-3v6.27c0,1.44.41,2.25,1.58,2.25a4.87,4.87,0,0,0,1.23-.14l.09,1.58a5.06,5.06,0,0,1-1.87.29,2.93,2.93,0,0,1-2.28-.89,4.28,4.28,0,0,1-.81-3v-6.34h-1.8V117h1.8v-2.78Z"/>
      <path class="ec1f8e37-40f3-401a-963d-3ed59a59214f" d="M694,118.87a1.43,1.43,0,1,1,2.85,0,1.43,1.43,0,1,1-2.85,0Zm0,8.48a1.43,1.43,0,1,1,2.85,0,1.43,1.43,0,1,1-2.85,0Z"/>
      <path class="ec1f8e37-40f3-401a-963d-3ed59a59214f" d="M708.48,114.94h-.05l-2.71,1.46-.41-1.61,3.41-1.82h1.8v15.6h-2Z"/>
      <path class="ec1f8e37-40f3-401a-963d-3ed59a59214f" d="M715.6,131.48a16.23,16.23,0,0,0,3-9.82,15.86,15.86,0,0,0-3-9.74h1.64a15.27,15.27,0,0,1,3.14,9.76,15.63,15.63,0,0,1-3.14,9.8Z"/>
    </g>
    <rect class="f0a3d1bc-be63-4a3f-a0cf-748ad2107cd5" x="785.86" y="69.69" width="198.75" height="76.64"/>
    <g>
      <path class="e4633866-c0e8-4b01-b0d3-7b2fe34f5d8b" d="M868.17,99.93h-8.9V83.13h8.53v1.78h-6.56V90.5h6.07v1.77h-6.07v5.88h6.93Z"/>
      <path class="e4633866-c0e8-4b01-b0d3-7b2fe34f5d8b" d="M880.58,87.93l-4.78,12h-1.88l-4.55-12h2.11l3,8.72a8.55,8.55,0,0,1,.42,1.68h0a8.13,8.13,0,0,1,.38-1.63l3.19-8.77Z"/>
      <path class="e4633866-c0e8-4b01-b0d3-7b2fe34f5d8b" d="M892.15,94.42h-8.47a4.48,4.48,0,0,0,1.08,3.09,3.68,3.68,0,0,0,2.83,1.09,5.91,5.91,0,0,0,3.73-1.34v1.81a7,7,0,0,1-4.19,1.15,5.07,5.07,0,0,1-4-1.64,6.68,6.68,0,0,1-1.45-4.6,6.57,6.57,0,0,1,1.58-4.56,5.1,5.1,0,0,1,4-1.77,4.49,4.49,0,0,1,3.64,1.53,6.33,6.33,0,0,1,1.29,4.23Zm-2-1.63a3.89,3.89,0,0,0-.8-2.59,2.74,2.74,0,0,0-2.2-.93,3.16,3.16,0,0,0-2.31,1,4.46,4.46,0,0,0-1.17,2.55Z"/>
      <path class="e4633866-c0e8-4b01-b0d3-7b2fe34f5d8b" d="M905,99.93H903.1V93.09q0-3.82-2.79-3.82a3,3,0,0,0-2.39,1.08,4,4,0,0,0-.94,2.74v6.84h-1.92v-12H897v2h0A4.31,4.31,0,0,1,901,87.65a3.65,3.65,0,0,1,3,1.28,5.61,5.61,0,0,1,1,3.67Z"/>
      <path class="e4633866-c0e8-4b01-b0d3-7b2fe34f5d8b" d="M914.21,99.82a3.76,3.76,0,0,1-1.8.37q-3.15,0-3.15-3.51v-7.1H907.2V87.93h2.06V85l1.92-.63v3.55h3v1.65h-3v6.76a2.82,2.82,0,0,0,.41,1.72,1.66,1.66,0,0,0,1.36.52,2.08,2.08,0,0,0,1.26-.4Z"/>
    </g>
    <g>
      <path class="ec1f8e37-40f3-401a-963d-3ed59a59214f" d="M844.34,111.92a15.82,15.82,0,0,0-3,9.81,16.22,16.22,0,0,0,3,9.75h-1.65a15.56,15.56,0,0,1-3.15-9.75,15.85,15.85,0,0,1,3.15-9.81Z"/>
      <path class="ec1f8e37-40f3-401a-963d-3ed59a59214f" d="M860.18,120.32c0,5.56-3.38,8.52-7.51,8.52s-7.27-3.32-7.27-8.21c0-5.14,3.19-8.5,7.51-8.5S860.18,115.51,860.18,120.32Zm-12.55.26c0,3.46,1.87,6.55,5.16,6.55s5.19-3,5.19-6.72c0-3.22-1.68-6.57-5.16-6.57S847.63,117,847.63,120.58Z"/>
      <path class="ec1f8e37-40f3-401a-963d-3ed59a59214f" d="M870.38,128.57v-10h-4.87v10h-2.09v-10h-1.63V117h1.63v-.38a5.5,5.5,0,0,1,1.3-4,4,4,0,0,1,2.93-1.08,3.72,3.72,0,0,1,1.65.41l-.43,1.56a3,3,0,0,0-1.25-.29c-1.65,0-2.11,1.42-2.11,3.24v.5h4.87v-.55a5.48,5.48,0,0,1,1.37-4.05,4,4,0,0,1,2.81-1.08,4.77,4.77,0,0,1,1.8.33l-.27,1.64a3.13,3.13,0,0,0-1.36-.27c-1.78,0-2.26,1.58-2.26,3.36V117h2.81v1.61h-2.79v10Z"/>
      <path class="ec1f8e37-40f3-401a-963d-3ed59a59214f" d="M876.69,126.41a5.55,5.55,0,0,0,2.79.84c1.53,0,2.25-.77,2.25-1.73s-.6-1.56-2.16-2.13c-2.08-.75-3.07-1.9-3.07-3.29,0-1.87,1.51-3.41,4-3.41a5.85,5.85,0,0,1,2.86.72l-.53,1.54a4.52,4.52,0,0,0-2.38-.68c-1.25,0-1.94.73-1.94,1.59s.69,1.39,2.21,2c2,.77,3,1.77,3,3.5,0,2-1.59,3.48-4.35,3.48a6.6,6.6,0,0,1-3.26-.79Z"/>
      <path class="ec1f8e37-40f3-401a-963d-3ed59a59214f" d="M887.66,123.15a3.72,3.72,0,0,0,4,4,7.54,7.54,0,0,0,3.21-.6l.36,1.51a9.3,9.3,0,0,1-3.86.72c-3.58,0-5.71-2.35-5.71-5.85s2.06-6.27,5.44-6.27c3.8,0,4.81,3.34,4.81,5.47a6.73,6.73,0,0,1-.08,1Zm6.19-1.51c0-1.35-.55-3.44-2.92-3.44-2.14,0-3.08,2-3.24,3.44Z"/>
      <path class="ec1f8e37-40f3-401a-963d-3ed59a59214f" d="M901.05,113.62V117h3v1.61h-3v6.27c0,1.44.41,2.25,1.59,2.25a4.78,4.78,0,0,0,1.22-.14l.1,1.58a5.14,5.14,0,0,1-1.87.29,2.9,2.9,0,0,1-2.28-.89,4.28,4.28,0,0,1-.82-3v-6.34h-1.8V117H899v-2.78Z"/>
      <path class="ec1f8e37-40f3-401a-963d-3ed59a59214f" d="M906,118.87a1.43,1.43,0,1,1,2.86,0,1.43,1.43,0,1,1-2.86,0Zm0,8.48a1.43,1.43,0,1,1,1.42,1.49A1.42,1.42,0,0,1,906,127.35Z"/>
      <path class="ec1f8e37-40f3-401a-963d-3ed59a59214f" d="M915.84,128.57v-1.29l1.65-1.61c4-3.79,5.79-5.81,5.81-8.16a2.78,2.78,0,0,0-3.09-3.05,5.33,5.33,0,0,0-3.32,1.32l-.67-1.49a6.87,6.87,0,0,1,4.42-1.58,4.38,4.38,0,0,1,4.77,4.53c0,2.88-2.08,5.21-5.37,8.38l-1.25,1.15v0h7v1.75Z"/>
      <path class="ec1f8e37-40f3-401a-963d-3ed59a59214f" d="M927.55,131.48a16.29,16.29,0,0,0,3-9.82,15.86,15.86,0,0,0-3-9.74h1.63a15.21,15.21,0,0,1,3.15,9.76,15.57,15.57,0,0,1-3.15,9.8Z"/>
    </g>
    <rect class="f0a3d1bc-be63-4a3f-a0cf-748ad2107cd5" x="997.8" y="69.69" width="198.75" height="76.64"/>
    <g>
      <path class="e4633866-c0e8-4b01-b0d3-7b2fe34f5d8b" d="M1080.12,99.93h-8.91V83.13h8.53v1.78h-6.56V90.5h6.07v1.77h-6.07v5.88h6.94Z"/>
      <path class="e4633866-c0e8-4b01-b0d3-7b2fe34f5d8b" d="M1092.53,87.93l-4.78,12h-1.89l-4.55-12h2.11l3,8.72a7.33,7.33,0,0,1,.42,1.68h0a8.15,8.15,0,0,1,.37-1.63l3.19-8.77Z"/>
      <path class="e4633866-c0e8-4b01-b0d3-7b2fe34f5d8b" d="M1104.1,94.42h-8.48a4.48,4.48,0,0,0,1.08,3.09,3.71,3.71,0,0,0,2.84,1.09,5.88,5.88,0,0,0,3.72-1.34v1.81a7,7,0,0,1-4.18,1.15,5.08,5.08,0,0,1-4-1.64,6.68,6.68,0,0,1-1.45-4.6,6.53,6.53,0,0,1,1.59-4.56,5.08,5.08,0,0,1,3.94-1.77,4.52,4.52,0,0,1,3.65,1.53,6.33,6.33,0,0,1,1.29,4.23Zm-2-1.63a3.9,3.9,0,0,0-.81-2.59,2.71,2.71,0,0,0-2.19-.93,3.13,3.13,0,0,0-2.31,1,4.39,4.39,0,0,0-1.17,2.55Z"/>
      <path class="e4633866-c0e8-4b01-b0d3-7b2fe34f5d8b" d="M1117,99.93H1115V93.09q0-3.82-2.79-3.82a3,3,0,0,0-2.38,1.08,4,4,0,0,0-.95,2.74v6.84H1107v-12h1.92v2h0a4.34,4.34,0,0,1,3.94-2.28,3.68,3.68,0,0,1,3,1.28,5.67,5.67,0,0,1,1,3.67Z"/>
      <path class="e4633866-c0e8-4b01-b0d3-7b2fe34f5d8b" d="M1126.15,99.82a3.69,3.69,0,0,1-1.79.37c-2.1,0-3.16-1.17-3.16-3.51v-7.1h-2.06V87.93h2.06V85l1.93-.63v3.55h3v1.65h-3v6.76a2.75,2.75,0,0,0,.41,1.72,1.64,1.64,0,0,0,1.36.52,2.05,2.05,0,0,0,1.25-.4Z"/>
    </g>
    <g>
      <path class="ec1f8e37-40f3-401a-963d-3ed59a59214f" d="M1056.29,111.92a15.83,15.83,0,0,0-3,9.81,16.16,16.16,0,0,0,3,9.75h-1.66a15.56,15.56,0,0,1-3.14-9.75,15.79,15.79,0,0,1,3.14-9.81Z"/>
      <path class="ec1f8e37-40f3-401a-963d-3ed59a59214f" d="M1072.13,120.32c0,5.56-3.39,8.52-7.51,8.52-4.28,0-7.28-3.32-7.28-8.21,0-5.14,3.2-8.5,7.52-8.5S1072.13,115.51,1072.13,120.32Zm-12.55.26c0,3.46,1.87,6.55,5.16,6.55s5.18-3,5.18-6.72c0-3.22-1.68-6.57-5.16-6.57S1059.58,117,1059.58,120.58Z"/>
      <path class="ec1f8e37-40f3-401a-963d-3ed59a59214f" d="M1082.33,128.57v-10h-4.88v10h-2.08v-10h-1.64V117h1.64v-.38a5.49,5.49,0,0,1,1.29-4,4,4,0,0,1,2.93-1.08,3.77,3.77,0,0,1,1.66.41l-.43,1.56a3,3,0,0,0-1.25-.29c-1.66,0-2.12,1.42-2.12,3.24v.5h4.88v-.55a5.44,5.44,0,0,1,1.37-4.05,4,4,0,0,1,2.8-1.08,4.73,4.73,0,0,1,1.8.33l-.26,1.64a3.18,3.18,0,0,0-1.37-.27c-1.77,0-2.25,1.58-2.25,3.36V117h2.8v1.61h-2.78v10Z"/>
      <path class="ec1f8e37-40f3-401a-963d-3ed59a59214f" d="M1088.64,126.41a5.51,5.51,0,0,0,2.78.84c1.54,0,2.26-.77,2.26-1.73s-.6-1.56-2.16-2.13c-2.09-.75-3.07-1.9-3.07-3.29,0-1.87,1.51-3.41,4-3.41a5.84,5.84,0,0,1,2.85.72l-.53,1.54a4.45,4.45,0,0,0-2.37-.68c-1.25,0-2,.73-2,1.59s.7,1.39,2.21,2c2,.77,3,1.77,3,3.5,0,2-1.58,3.48-4.34,3.48a6.64,6.64,0,0,1-3.27-.79Z"/>
      <path class="ec1f8e37-40f3-401a-963d-3ed59a59214f" d="M1099.61,123.15a3.72,3.72,0,0,0,4,4,7.6,7.6,0,0,0,3.22-.6l.36,1.51a9.39,9.39,0,0,1-3.87.72c-3.57,0-5.71-2.35-5.71-5.85s2.07-6.27,5.45-6.27c3.79,0,4.8,3.34,4.8,5.47a9,9,0,0,1-.07,1Zm6.19-1.51c0-1.35-.55-3.44-2.93-3.44-2.13,0-3.07,2-3.24,3.44Z"/>
      <path class="ec1f8e37-40f3-401a-963d-3ed59a59214f" d="M1113,113.62V117h3v1.61h-3v6.27c0,1.44.41,2.25,1.58,2.25a4.87,4.87,0,0,0,1.23-.14l.09,1.58a5.06,5.06,0,0,1-1.87.29,2.93,2.93,0,0,1-2.28-.89,4.28,4.28,0,0,1-.81-3v-6.34h-1.81V117h1.81v-2.78Z"/>
      <path class="ec1f8e37-40f3-401a-963d-3ed59a59214f" d="M1117.89,118.87a1.43,1.43,0,1,1,2.86,0,1.43,1.43,0,1,1-2.86,0Zm0,8.48a1.43,1.43,0,1,1,2.86,0,1.43,1.43,0,1,1-2.86,0Z"/>
      <path class="ec1f8e37-40f3-401a-963d-3ed59a59214f" d="M1128.29,126.15a7.09,7.09,0,0,0,3.45,1c2.71,0,3.56-1.73,3.53-3,0-2.19-2-3.12-4-3.12h-1.18V119.4h1.18c1.54,0,3.48-.79,3.48-2.64,0-1.25-.79-2.35-2.74-2.35a5.72,5.72,0,0,0-3.12,1l-.55-1.53a7.43,7.43,0,0,1,4.08-1.2c3.07,0,4.47,1.82,4.47,3.72a3.88,3.88,0,0,1-2.89,3.67v.05a4.06,4.06,0,0,1,3.49,4c0,2.49-2,4.68-5.69,4.68a8,8,0,0,1-4.06-1.06Z"/>
      <path class="ec1f8e37-40f3-401a-963d-3ed59a59214f" d="M1139.49,131.48a16.23,16.23,0,0,0,3-9.82,15.86,15.86,0,0,0-3-9.74h1.64a15.27,15.27,0,0,1,3.14,9.76,15.63,15.63,0,0,1-3.14,9.8Z"/>
    </g>
  </g>
</svg>
