<svg xmlns="http://www.w3.org/2000/svg" xmlns:xlink="http://www.w3.org/1999/xlink" width="1310.93" height="412.07" viewBox="0 0 1310.93 412.07">
  <defs>
    <style>
      .a1be0b26-b6f4-4f8f-a32d-6f518f87006d, .ac4a5311-aaad-4892-832c-63577baed48c, .b03f6af5-fbd9-4735-a93d-dc6577043415, .b2d0bbb2-b73d-42cf-9fd6-1a7e34da6255, .b3433612-0819-4ed2-a938-f5e49b8fe063 {
        fill: none;
      }

      .b5912759-3ce8-4cdc-8938-f304292a979a {
        fill: #dceaf4;
      }

      .bc461ea7-e013-47fd-b40d-88351a95fa1c {
        fill: url(#a8d3b604-f6da-4b39-afa3-49c1eab4f8cd);
      }

      .a1be0b26-b6f4-4f8f-a32d-6f518f87006d, .b03f6af5-fbd9-4735-a93d-dc6577043415, .b1341606-4332-4833-b5dd-cb60db36cfa6, .b2d0bbb2-b73d-42cf-9fd6-1a7e34da6255 {
        stroke: #75828e;
      }

      .a0bc494a-531d-492b-83c6-7ef5f11d72f7, .a1be0b26-b6f4-4f8f-a32d-6f518f87006d, .aa2aa836-bb87-4c5d-8770-4430767b353c, .ac4a5311-aaad-4892-832c-63577baed48c, .ad4e9c44-f8ff-4794-ba21-97602f098613, .b03f6af5-fbd9-4735-a93d-dc6577043415, .b1341606-4332-4833-b5dd-cb60db36cfa6, .b244bbc4-6448-4ad2-ab1e-fa1ab5162031, .b2d0bbb2-b73d-42cf-9fd6-1a7e34da6255, .b861c669-505e-4462-9e78-0f7ec8c35f75, .bc4212b5-ff4b-487c-b003-a74b752e804e {
        stroke-miterlimit: 10;
      }

      .a0bc494a-531d-492b-83c6-7ef5f11d72f7, .a1be0b26-b6f4-4f8f-a32d-6f518f87006d, .ac4a5311-aaad-4892-832c-63577baed48c, .ad4e9c44-f8ff-4794-ba21-97602f098613, .b03f6af5-fbd9-4735-a93d-dc6577043415, .b2d0bbb2-b73d-42cf-9fd6-1a7e34da6255, .b861c669-505e-4462-9e78-0f7ec8c35f75, .bc4212b5-ff4b-487c-b003-a74b752e804e {
        stroke-width: 2px;
      }

      .b03f6af5-fbd9-4735-a93d-dc6577043415, .b2d0bbb2-b73d-42cf-9fd6-1a7e34da6255 {
        stroke-linecap: round;
      }

      .b2d0bbb2-b73d-42cf-9fd6-1a7e34da6255 {
        stroke-dasharray: 5.94 5.94;
      }

      .a0bc494a-531d-492b-83c6-7ef5f11d72f7 {
        fill: #f7fafc;
        stroke: #b2bfce;
      }

      .a388aa82-8cce-4f2c-a458-9f282928b4e6, .b244bbc4-6448-4ad2-ab1e-fa1ab5162031 {
        fill: #2a4b7d;
      }

      .b244bbc4-6448-4ad2-ab1e-fa1ab5162031 {
        stroke: #2a4b7d;
      }

      .aa2aa836-bb87-4c5d-8770-4430767b353c, .b244bbc4-6448-4ad2-ab1e-fa1ab5162031 {
        stroke-width: 0.5px;
      }

      .bc4212b5-ff4b-487c-b003-a74b752e804e {
        fill: #f0f9ff;
      }

      .aa2aa836-bb87-4c5d-8770-4430767b353c, .b861c669-505e-4462-9e78-0f7ec8c35f75, .bc4212b5-ff4b-487c-b003-a74b752e804e {
        stroke: #1998ff;
      }

      .ad4e9c44-f8ff-4794-ba21-97602f098613 {
        fill: #fff;
      }

      .ac4a5311-aaad-4892-832c-63577baed48c, .ad4e9c44-f8ff-4794-ba21-97602f098613 {
        stroke: #ed5c35;
      }

      .b861c669-505e-4462-9e78-0f7ec8c35f75 {
        fill: #c0e4ff;
      }

      .aa2aa836-bb87-4c5d-8770-4430767b353c {
        fill: #1998ff;
      }

      .b1341606-4332-4833-b5dd-cb60db36cfa6 {
        fill: #75828e;
        stroke-width: 0.3px;
      }
    </style>
    <pattern id="a8d3b604-f6da-4b39-afa3-49c1eab4f8cd" data-name="Docs Polka Background" width="60" height="60" patternTransform="translate(653.46 910.1) scale(0.87 0.74)" patternUnits="userSpaceOnUse" viewBox="0 0 60 60">
      <rect class="b3433612-0819-4ed2-a938-f5e49b8fe063" width="60" height="60"/>
      <circle class="b5912759-3ce8-4cdc-8938-f304292a979a" cx="30" cy="30" r="2.47"/>
    </pattern>
  </defs>
  <g id="bb36dc52-fe09-4d53-adb1-b2e7e1ea86cf" data-name="Layer 2">
    <rect class="bc461ea7-e013-47fd-b40d-88351a95fa1c" x="-1.8" y="-0.09" width="1310.49" height="411.7"/>
  </g>
  <g id="ac49f710-78e4-46e1-a68d-814ba26a46d8" data-name="Layer 1">
    <path class="a1be0b26-b6f4-4f8f-a32d-6f518f87006d" d="M1270.72,123.71l6.75-6.9,5.41-5.53a2.31,2.31,0,0,0,0-2.74l-5.41-5.53-6.75-6.89"/>
    <line class="a1be0b26-b6f4-4f8f-a32d-6f518f87006d" x1="228.78" y1="110.15" x2="802.28" y2="110.15"/>
    <path class="a1be0b26-b6f4-4f8f-a32d-6f518f87006d" d="M1270.72,123.71l6.75-6.9,5.41-5.53a2.31,2.31,0,0,0,0-2.74l-5.41-5.53-6.75-6.89"/>
    <g>
      <line class="b03f6af5-fbd9-4735-a93d-dc6577043415" x1="807.59" y1="110.15" x2="810.59" y2="110.15"/>
      <line class="b2d0bbb2-b73d-42cf-9fd6-1a7e34da6255" x1="816.53" y1="110.15" x2="1276.57" y2="110.15"/>
      <line class="b03f6af5-fbd9-4735-a93d-dc6577043415" x1="1279.54" y1="110.15" x2="1282.54" y2="110.15"/>
    </g>
    <rect class="a0bc494a-531d-492b-83c6-7ef5f11d72f7" x="51.45" y="69.69" width="198.75" height="76.64"/>
    <g>
      <path class="b244bbc4-6448-4ad2-ab1e-fa1ab5162031" d="M108.83,99.93V83.13h4.64q8.88,0,8.88,8.19a8.23,8.23,0,0,1-2.47,6.25,9.11,9.11,0,0,1-6.6,2.36Zm2-15V98.15h2.51a7.12,7.12,0,0,0,5.15-1.77,6.65,6.65,0,0,0,1.84-5q0-6.47-6.87-6.46Z"/>
      <path class="b244bbc4-6448-4ad2-ab1e-fa1ab5162031" d="M135,94.41h-8.47a4.49,4.49,0,0,0,1.08,3.1,3.72,3.72,0,0,0,2.83,1.09,5.91,5.91,0,0,0,3.73-1.34v1.81a7,7,0,0,1-4.19,1.14,5.06,5.06,0,0,1-4-1.63,6.68,6.68,0,0,1-1.45-4.6,6.52,6.52,0,0,1,1.58-4.56,5.1,5.1,0,0,1,4-1.77,4.49,4.49,0,0,1,3.64,1.53A6.33,6.33,0,0,1,135,93.41Zm-2-1.62a3.89,3.89,0,0,0-.8-2.59,2.74,2.74,0,0,0-2.2-.93,3.12,3.12,0,0,0-2.31,1,4.46,4.46,0,0,0-1.17,2.55Z"/>
      <path class="b244bbc4-6448-4ad2-ab1e-fa1ab5162031" d="M147.38,87.93l-4.78,12h-1.89l-4.54-12h2.1l3,8.72a7.33,7.33,0,0,1,.42,1.68h0a7.5,7.5,0,0,1,.38-1.63l3.18-8.77Z"/>
      <path class="b244bbc4-6448-4ad2-ab1e-fa1ab5162031" d="M150.43,84.89a1.25,1.25,0,0,1-.88-2.14,1.19,1.19,0,0,1,.88-.36,1.21,1.21,0,0,1,.89.36,1.19,1.19,0,0,1,.37.89,1.16,1.16,0,0,1-.37.88A1.19,1.19,0,0,1,150.43,84.89Zm.93,15h-1.92v-12h1.92Z"/>
      <path class="b244bbc4-6448-4ad2-ab1e-fa1ab5162031" d="M163.43,99.38a6.18,6.18,0,0,1-3.28.83A5.43,5.43,0,0,1,156,98.55a6.08,6.08,0,0,1-1.58-4.34,6.67,6.67,0,0,1,1.7-4.76,6,6,0,0,1,4.54-1.8,6.36,6.36,0,0,1,2.79.59v2a4.87,4.87,0,0,0-2.86-.94,3.87,3.87,0,0,0-3,1.32,5,5,0,0,0-1.18,3.46,4.75,4.75,0,0,0,1.11,3.33,3.83,3.83,0,0,0,3,1.22,4.78,4.78,0,0,0,3-1Z"/>
      <path class="b244bbc4-6448-4ad2-ab1e-fa1ab5162031" d="M176,94.41h-8.48a4.49,4.49,0,0,0,1.08,3.1,3.74,3.74,0,0,0,2.84,1.09,5.88,5.88,0,0,0,3.72-1.34v1.81a7,7,0,0,1-4.18,1.14,5.07,5.07,0,0,1-4-1.63,6.73,6.73,0,0,1-1.45-4.6,6.53,6.53,0,0,1,1.59-4.56,5.08,5.08,0,0,1,3.94-1.77,4.52,4.52,0,0,1,3.65,1.53A6.33,6.33,0,0,1,176,93.41Zm-2-1.62a3.9,3.9,0,0,0-.81-2.59,2.71,2.71,0,0,0-2.19-.93,3.09,3.09,0,0,0-2.31,1,4.39,4.39,0,0,0-1.17,2.55Z"/>
      <path class="b244bbc4-6448-4ad2-ab1e-fa1ab5162031" d="M195.09,99.93h-9.51V98.25h3.8V85.19l-3.89,1.16V84.52l5.81-1.77v15.5h3.79Z"/>
    </g>
    <g>
      <path class="a388aa82-8cce-4f2c-a458-9f282928b4e6" d="M66.17,128.62V126.3a4.61,4.61,0,0,0,1,.63,7.08,7.08,0,0,0,1.18.47,9.18,9.18,0,0,0,1.23.3,7.05,7.05,0,0,0,1.15.11,4.47,4.47,0,0,0,2.71-.68,2.25,2.25,0,0,0,.9-1.93A2.29,2.29,0,0,0,74,124a3.51,3.51,0,0,0-.82-.92,8.15,8.15,0,0,0-1.25-.79q-.72-.39-1.56-.81c-.58-.29-1.13-.6-1.64-.9a6.86,6.86,0,0,1-1.32-1,4.2,4.2,0,0,1-.89-1.25,3.92,3.92,0,0,1-.32-1.63,3.81,3.81,0,0,1,.51-2A4.21,4.21,0,0,1,68,113.3a6,6,0,0,1,1.87-.82,8.54,8.54,0,0,1,2.14-.27,8.19,8.19,0,0,1,3.62.6V115a6.62,6.62,0,0,0-3.82-1,6.29,6.29,0,0,0-1.29.14,3.53,3.53,0,0,0-1.15.44,2.55,2.55,0,0,0-.82.78,2.08,2.08,0,0,0-.31,1.17,2.46,2.46,0,0,0,.24,1.12,2.76,2.76,0,0,0,.7.85,7.16,7.16,0,0,0,1.15.75c.45.24,1,.51,1.55.8s1.17.61,1.71.94A7.51,7.51,0,0,1,75,122.07a4.94,4.94,0,0,1,1,1.32,3.85,3.85,0,0,1,.35,1.66,4.3,4.3,0,0,1-.48,2.11,4.11,4.11,0,0,1-1.32,1.4,5.68,5.68,0,0,1-1.9.78,10.46,10.46,0,0,1-2.27.24,7.87,7.87,0,0,1-1-.07c-.39,0-.79-.1-1.19-.18s-.79-.19-1.16-.31A3.55,3.55,0,0,1,66.17,128.62Z"/>
      <path class="a388aa82-8cce-4f2c-a458-9f282928b4e6" d="M84.46,129.58a5.58,5.58,0,0,1-4.25-1.68,6.27,6.27,0,0,1-1.58-4.46,6.52,6.52,0,0,1,1.65-4.73A5.94,5.94,0,0,1,84.74,117a5.38,5.38,0,0,1,4.19,1.65,7.52,7.52,0,0,1-.11,9.18A5.72,5.72,0,0,1,84.46,129.58Zm.14-11a3.66,3.66,0,0,0-2.93,1.26,5.18,5.18,0,0,0-1.08,3.48,4.92,4.92,0,0,0,1.09,3.36A3.71,3.71,0,0,0,84.6,128a3.51,3.51,0,0,0,2.87-1.21,5.22,5.22,0,0,0,1-3.43,5.32,5.32,0,0,0-1-3.47A3.52,3.52,0,0,0,84.6,118.63Z"/>
      <path class="a388aa82-8cce-4f2c-a458-9f282928b4e6" d="M103.21,129.3h-1.92v-1.9h-.05a3.94,3.94,0,0,1-3.7,2.18q-4.29,0-4.29-5.11V117.3h1.91v6.86c0,2.54,1,3.8,2.91,3.8a2.9,2.9,0,0,0,2.31-1,3.93,3.93,0,0,0,.91-2.71V117.3h1.92Z"/>
      <path class="a388aa82-8cce-4f2c-a458-9f282928b4e6" d="M113.35,119.24a2.34,2.34,0,0,0-1.45-.38,2.44,2.44,0,0,0-2.06,1.16,5.34,5.34,0,0,0-.83,3.16v6.12h-1.92v-12H109v2.47h0a4.17,4.17,0,0,1,1.25-2,2.86,2.86,0,0,1,1.89-.71,3.16,3.16,0,0,1,1.15.16Z"/>
      <path class="a388aa82-8cce-4f2c-a458-9f282928b4e6" d="M123.3,128.75a6.29,6.29,0,0,1-3.28.83,5.48,5.48,0,0,1-4.15-1.67,6.05,6.05,0,0,1-1.57-4.33,6.63,6.63,0,0,1,1.7-4.77,6,6,0,0,1,4.53-1.79,6.29,6.29,0,0,1,2.79.58v2a4.92,4.92,0,0,0-2.86-.94,3.88,3.88,0,0,0-3,1.32,5,5,0,0,0-1.17,3.46,4.79,4.79,0,0,0,1.1,3.33,3.83,3.83,0,0,0,3,1.22,4.85,4.85,0,0,0,3-1Z"/>
      <path class="a388aa82-8cce-4f2c-a458-9f282928b4e6" d="M135.85,123.78h-8.47a4.52,4.52,0,0,0,1.07,3.09,3.72,3.72,0,0,0,2.84,1.09,5.92,5.92,0,0,0,3.73-1.33v1.8a7,7,0,0,1-4.19,1.15,5.07,5.07,0,0,1-4-1.64,6.68,6.68,0,0,1-1.46-4.6,6.56,6.56,0,0,1,1.59-4.56,5.08,5.08,0,0,1,3.95-1.76,4.49,4.49,0,0,1,3.64,1.52,6.33,6.33,0,0,1,1.29,4.23Zm-2-1.63a4,4,0,0,0-.8-2.59,2.74,2.74,0,0,0-2.2-.93,3.1,3.1,0,0,0-2.31,1,4.4,4.4,0,0,0-1.17,2.54Z"/>
      <path class="a388aa82-8cce-4f2c-a458-9f282928b4e6" d="M142.62,112.49v1.69H141v13.43h1.64v1.69h-5.25v-1.69H139V114.18h-1.64v-1.69Z"/>
      <path class="a388aa82-8cce-4f2c-a458-9f282928b4e6" d="M145.4,129.3V112.49H150q8.88,0,8.88,8.19a8.28,8.28,0,0,1-2.46,6.26,9.19,9.19,0,0,1-6.61,2.36Zm2-15v13.25h2.51a7.12,7.12,0,0,0,5.14-1.77,6.64,6.64,0,0,0,1.84-5q0-6.45-6.87-6.46Z"/>
      <path class="a388aa82-8cce-4f2c-a458-9f282928b4e6" d="M162.64,119.64a1.31,1.31,0,0,1-.92-2.23,1.25,1.25,0,0,1,.92-.37,1.3,1.3,0,0,1,.94.37,1.3,1.3,0,0,1,0,1.84A1.28,1.28,0,0,1,162.64,119.64Zm0,9.91a1.22,1.22,0,0,1-.92-.38,1.33,1.33,0,0,1,0-1.86,1.23,1.23,0,0,1,.92-.39,1.28,1.28,0,0,1,.94.39,1.33,1.33,0,0,1,0,1.86A1.27,1.27,0,0,1,162.64,129.55Z"/>
      <path class="a388aa82-8cce-4f2c-a458-9f282928b4e6" d="M173.34,128.68V126.6a6.09,6.09,0,0,0,3.89,1.36,4.18,4.18,0,0,0,2.8-.88,2.91,2.91,0,0,0,1.05-2.37q0-3.28-4.67-3.29H175v-1.63h1.33q4.16,0,4.16-3.09,0-2.86-3.18-2.86a5.37,5.37,0,0,0-3.34,1.21v-1.88a7.35,7.35,0,0,1,3.82-1,4.9,4.9,0,0,1,3.39,1.13,3.67,3.67,0,0,1,1.28,2.88,4.1,4.1,0,0,1-3.38,4.26v0A4.53,4.53,0,0,1,182,121.8a3.79,3.79,0,0,1,1.07,2.74,4.58,4.58,0,0,1-1.62,3.65,6.33,6.33,0,0,1-4.28,1.39A7,7,0,0,1,173.34,128.68Z"/>
      <path class="a388aa82-8cce-4f2c-a458-9f282928b4e6" d="M196.93,129.3H195v-2h0a4.84,4.84,0,0,1-7.74.71,6.64,6.64,0,0,1-1.36-4.39,7.17,7.17,0,0,1,1.5-4.77,4.94,4.94,0,0,1,4-1.79A3.84,3.84,0,0,1,195,119h0v-7.43h1.92ZM195,123.87V122.1a3.44,3.44,0,0,0-1-2.46,3.22,3.22,0,0,0-2.43-1,3.31,3.31,0,0,0-2.77,1.29,5.67,5.67,0,0,0-1,3.56,5.11,5.11,0,0,0,1,3.28,3.16,3.16,0,0,0,2.6,1.2,3.27,3.27,0,0,0,2.6-1.16A4.31,4.31,0,0,0,195,123.87Z"/>
      <path class="a388aa82-8cce-4f2c-a458-9f282928b4e6" d="M200.41,128.68V126.6A6.09,6.09,0,0,0,204.3,128a4.18,4.18,0,0,0,2.8-.88,2.91,2.91,0,0,0,1.05-2.37q0-3.28-4.67-3.29h-1.4v-1.63h1.33q4.16,0,4.16-3.09,0-2.86-3.18-2.86a5.37,5.37,0,0,0-3.34,1.21v-1.88a7.35,7.35,0,0,1,3.82-1,4.9,4.9,0,0,1,3.39,1.13,3.67,3.67,0,0,1,1.28,2.88,4.1,4.1,0,0,1-3.38,4.26v0a4.5,4.5,0,0,1,2.89,1.27,3.79,3.79,0,0,1,1.07,2.74,4.58,4.58,0,0,1-1.62,3.65,6.33,6.33,0,0,1-4.28,1.39A7,7,0,0,1,200.41,128.68Z"/>
      <path class="a388aa82-8cce-4f2c-a458-9f282928b4e6" d="M216.61,120.48v0q-3-1.41-3-4.08a3.72,3.72,0,0,1,1.38-3,5.35,5.35,0,0,1,3.57-1.17,4.75,4.75,0,0,1,3.23,1.09,3.55,3.55,0,0,1,1.27,2.8q0,2.79-3.12,4.34v0q3.68,1.32,3.68,4.55a4.07,4.07,0,0,1-1.5,3.32,6.4,6.4,0,0,1-4.17,1.23,5.21,5.21,0,0,1-3.55-1.22,4,4,0,0,1-1.4-3.16Q213,122,216.61,120.48Zm1.55.92q-3.21,1.27-3.21,3.7a2.6,2.6,0,0,0,.93,2.06,3.66,3.66,0,0,0,2.46.8,3.48,3.48,0,0,0,2.37-.79,2.53,2.53,0,0,0,.92-2C221.63,123.48,220.47,122.23,218.16,121.4Zm2.91-5.06a2.33,2.33,0,0,0-.73-1.83,2.78,2.78,0,0,0-2-.67,3,3,0,0,0-2,.7,2.22,2.22,0,0,0-.81,1.77c0,1.46.91,2.57,2.73,3.31Q221.07,118.46,221.07,116.34Z"/>
      <path class="a388aa82-8cce-4f2c-a458-9f282928b4e6" d="M236.65,129.3h-1.92v-6.92q0-3.75-2.79-3.75a3,3,0,0,0-2.36,1.09,4,4,0,0,0-1,2.78v6.8h-1.92V111.53h1.92v7.76h0A4.36,4.36,0,0,1,232.6,117c2.7,0,4.05,1.62,4.05,4.88Z"/>
    </g>
    <rect class="bc4212b5-ff4b-487c-b003-a74b752e804e" x="361.97" y="69.69" width="198.75" height="76.64"/>
    <g>
      <path class="b244bbc4-6448-4ad2-ab1e-fa1ab5162031" d="M444.28,99.93h-8.9V83.13h8.53v1.78h-6.56V90.5h6.07v1.77h-6.07v5.88h6.93Z"/>
      <path class="b244bbc4-6448-4ad2-ab1e-fa1ab5162031" d="M456.69,87.93l-4.78,12H450l-4.55-12h2.11l3.05,8.72a8.55,8.55,0,0,1,.42,1.68h0a8.13,8.13,0,0,1,.38-1.63l3.19-8.77Z"/>
      <path class="b244bbc4-6448-4ad2-ab1e-fa1ab5162031" d="M468.26,94.41h-8.47a4.49,4.49,0,0,0,1.08,3.1,3.72,3.72,0,0,0,2.83,1.09,5.91,5.91,0,0,0,3.73-1.34v1.81a7,7,0,0,1-4.18,1.14,5.07,5.07,0,0,1-4-1.63A6.68,6.68,0,0,1,457.8,94a6.57,6.57,0,0,1,1.58-4.56,5.1,5.1,0,0,1,3.95-1.77A4.49,4.49,0,0,1,467,89.18a6.33,6.33,0,0,1,1.29,4.23Zm-2-1.62a3.89,3.89,0,0,0-.8-2.59,2.74,2.74,0,0,0-2.2-.93,3.12,3.12,0,0,0-2.31,1,4.46,4.46,0,0,0-1.17,2.55Z"/>
      <path class="b244bbc4-6448-4ad2-ab1e-fa1ab5162031" d="M481.13,99.93h-1.92V93.09q0-3.82-2.79-3.82A3,3,0,0,0,474,90.35a4,4,0,0,0-.94,2.74v6.84h-1.92v-12h1.92v2h.05a4.31,4.31,0,0,1,3.93-2.28,3.71,3.71,0,0,1,3,1.27,5.72,5.72,0,0,1,1,3.68Z"/>
      <path class="b244bbc4-6448-4ad2-ab1e-fa1ab5162031" d="M490.32,99.82a3.76,3.76,0,0,1-1.8.37q-3.15,0-3.15-3.51V89.57h-2.06V87.93h2.06V85l1.92-.62v3.55h3v1.64h-3v6.77a2.84,2.84,0,0,0,.41,1.72,1.66,1.66,0,0,0,1.36.51,2.07,2.07,0,0,0,1.26-.39Z"/>
    </g>
    <g>
      <path class="a388aa82-8cce-4f2c-a458-9f282928b4e6" d="M420.45,111.91a15.88,15.88,0,0,0-3,9.82,16.22,16.22,0,0,0,3,9.75H418.8a15.56,15.56,0,0,1-3.15-9.75,15.91,15.91,0,0,1,3.15-9.82Z"/>
      <path class="a388aa82-8cce-4f2c-a458-9f282928b4e6" d="M436.29,120.31c0,5.57-3.38,8.53-7.51,8.53s-7.27-3.32-7.27-8.21c0-5.14,3.19-8.5,7.51-8.5S436.29,115.51,436.29,120.31Zm-12.55.27c0,3.46,1.87,6.55,5.16,6.55s5.19-3,5.19-6.72c0-3.21-1.68-6.58-5.16-6.58S423.74,117,423.74,120.58Z"/>
      <path class="a388aa82-8cce-4f2c-a458-9f282928b4e6" d="M446.49,128.57v-10h-4.87v10h-2.09v-10H437.9V117h1.63v-.39a5.5,5.5,0,0,1,1.3-4,4,4,0,0,1,2.93-1.08,3.72,3.72,0,0,1,1.65.41L445,113.5a3,3,0,0,0-1.25-.29c-1.65,0-2.11,1.42-2.11,3.24V117h4.87v-.56a5.48,5.48,0,0,1,1.37-4.05,4,4,0,0,1,2.81-1.08,4.77,4.77,0,0,1,1.8.33l-.26,1.63a3.39,3.39,0,0,0-1.37-.26c-1.78,0-2.26,1.58-2.26,3.36V117h2.81v1.6h-2.78v10Z"/>
      <path class="a388aa82-8cce-4f2c-a458-9f282928b4e6" d="M452.8,126.41a5.55,5.55,0,0,0,2.79.84c1.54,0,2.25-.77,2.25-1.73s-.6-1.56-2.16-2.13c-2.08-.75-3.07-1.9-3.07-3.29,0-1.87,1.51-3.41,4-3.41a5.85,5.85,0,0,1,2.86.72L459,119a4.53,4.53,0,0,0-2.38-.67c-1.25,0-1.94.71-1.94,1.58s.69,1.39,2.21,2c2,.77,3.05,1.77,3.05,3.5,0,2-1.59,3.48-4.35,3.48a6.6,6.6,0,0,1-3.26-.79Z"/>
      <path class="a388aa82-8cce-4f2c-a458-9f282928b4e6" d="M463.77,123.15a3.72,3.72,0,0,0,4,4,7.54,7.54,0,0,0,3.21-.6l.36,1.51a9.3,9.3,0,0,1-3.86.72c-3.58,0-5.71-2.35-5.71-5.85s2.06-6.27,5.44-6.27c3.8,0,4.81,3.34,4.81,5.47a6.73,6.73,0,0,1-.08,1Zm6.2-1.52c0-1.34-.56-3.43-2.93-3.43-2.14,0-3.08,2-3.24,3.43Z"/>
      <path class="a388aa82-8cce-4f2c-a458-9f282928b4e6" d="M477.16,113.62V117h3v1.6h-3v6.27c0,1.44.41,2.25,1.59,2.25a4.78,4.78,0,0,0,1.22-.14l.1,1.58a5.14,5.14,0,0,1-1.87.29,2.9,2.9,0,0,1-2.28-.89,4.28,4.28,0,0,1-.82-3v-6.34h-1.8V117h1.8v-2.79Z"/>
      <path class="a388aa82-8cce-4f2c-a458-9f282928b4e6" d="M482.06,118.88a1.43,1.43,0,1,1,2.86,0,1.43,1.43,0,1,1-2.86,0Zm0,8.47a1.43,1.43,0,1,1,1.42,1.49A1.42,1.42,0,0,1,482.06,127.35Z"/>
      <path class="a388aa82-8cce-4f2c-a458-9f282928b4e6" d="M502.32,120.6c0,5.31-2,8.24-5.43,8.24-3.05,0-5.11-2.86-5.16-8s2.26-8.11,5.43-8.11S502.32,115.63,502.32,120.6Zm-8.48.24c0,4.06,1.25,6.36,3.17,6.36,2.16,0,3.19-2.52,3.19-6.5s-1-6.36-3.16-6.36C495.19,114.34,493.84,116.6,493.84,120.84Z"/>
      <path class="a388aa82-8cce-4f2c-a458-9f282928b4e6" d="M503.66,131.48a16.29,16.29,0,0,0,3-9.82,15.92,15.92,0,0,0-3-9.75h1.63a15.29,15.29,0,0,1,3.15,9.77,15.57,15.57,0,0,1-3.15,9.8Z"/>
    </g>
    <rect class="bc4212b5-ff4b-487c-b003-a74b752e804e" x="573.91" y="69.69" width="198.75" height="76.64"/>
    <g>
      <path class="b244bbc4-6448-4ad2-ab1e-fa1ab5162031" d="M656.23,99.93h-8.91V83.13h8.53v1.78h-6.56V90.5h6.07v1.77h-6.07v5.88h6.94Z"/>
      <path class="b244bbc4-6448-4ad2-ab1e-fa1ab5162031" d="M668.64,87.93l-4.78,12H662l-4.55-12h2.11l3.05,8.72a7.33,7.33,0,0,1,.42,1.68h0a8.15,8.15,0,0,1,.37-1.63l3.19-8.77Z"/>
      <path class="b244bbc4-6448-4ad2-ab1e-fa1ab5162031" d="M680.21,94.41h-8.48a4.49,4.49,0,0,0,1.08,3.1,3.74,3.74,0,0,0,2.84,1.09,5.88,5.88,0,0,0,3.72-1.34v1.81a7,7,0,0,1-4.18,1.14,5.07,5.07,0,0,1-4-1.63,6.73,6.73,0,0,1-1.45-4.6,6.53,6.53,0,0,1,1.59-4.56,5.08,5.08,0,0,1,3.94-1.77,4.52,4.52,0,0,1,3.65,1.53,6.33,6.33,0,0,1,1.29,4.23Zm-2-1.62a3.9,3.9,0,0,0-.81-2.59,2.71,2.71,0,0,0-2.19-.93,3.09,3.09,0,0,0-2.31,1,4.46,4.46,0,0,0-1.17,2.55Z"/>
      <path class="b244bbc4-6448-4ad2-ab1e-fa1ab5162031" d="M693.07,99.93h-1.92V93.09q0-3.82-2.79-3.82A3,3,0,0,0,686,90.35a4,4,0,0,0-1,2.74v6.84h-1.92v-12H685v2h.05A4.34,4.34,0,0,1,689,87.65a3.7,3.7,0,0,1,3,1.27,5.66,5.66,0,0,1,1,3.68Z"/>
      <path class="b244bbc4-6448-4ad2-ab1e-fa1ab5162031" d="M702.26,99.82a3.69,3.69,0,0,1-1.79.37q-3.15,0-3.15-3.51V89.57h-2.07V87.93h2.07V85l1.92-.62v3.55h3v1.64h-3v6.77a2.77,2.77,0,0,0,.41,1.72,1.63,1.63,0,0,0,1.36.51,2,2,0,0,0,1.25-.39Z"/>
    </g>
    <g>
      <path class="a388aa82-8cce-4f2c-a458-9f282928b4e6" d="M632.4,111.91a15.88,15.88,0,0,0-3,9.82,16.16,16.16,0,0,0,3,9.75h-1.66a15.56,15.56,0,0,1-3.14-9.75,15.85,15.85,0,0,1,3.14-9.82Z"/>
      <path class="a388aa82-8cce-4f2c-a458-9f282928b4e6" d="M648.24,120.31c0,5.57-3.38,8.53-7.51,8.53s-7.28-3.32-7.28-8.21c0-5.14,3.2-8.5,7.52-8.5S648.24,115.51,648.24,120.31Zm-12.55.27c0,3.46,1.87,6.55,5.16,6.55s5.18-3,5.18-6.72c0-3.21-1.68-6.58-5.16-6.58S635.69,117,635.69,120.58Z"/>
      <path class="a388aa82-8cce-4f2c-a458-9f282928b4e6" d="M658.44,128.57v-10h-4.87v10h-2.09v-10h-1.64V117h1.64v-.39a5.49,5.49,0,0,1,1.29-4,4,4,0,0,1,2.93-1.08,3.77,3.77,0,0,1,1.66.41l-.43,1.56a3,3,0,0,0-1.25-.29c-1.66,0-2.11,1.42-2.11,3.24V117h4.87v-.56a5.44,5.44,0,0,1,1.37-4.05,4,4,0,0,1,2.8-1.08,4.73,4.73,0,0,1,1.8.33l-.26,1.63a3.35,3.35,0,0,0-1.37-.26c-1.77,0-2.25,1.58-2.25,3.36V117h2.8v1.6h-2.78v10Z"/>
      <path class="a388aa82-8cce-4f2c-a458-9f282928b4e6" d="M664.75,126.41a5.51,5.51,0,0,0,2.78.84c1.54,0,2.26-.77,2.26-1.73s-.6-1.56-2.16-2.13c-2.09-.75-3.07-1.9-3.07-3.29,0-1.87,1.51-3.41,4-3.41a5.84,5.84,0,0,1,2.85.72l-.53,1.54a4.46,4.46,0,0,0-2.37-.67c-1.25,0-1.95.71-1.95,1.58s.7,1.39,2.21,2c2,.77,3.05,1.77,3.05,3.5,0,2-1.58,3.48-4.34,3.48a6.64,6.64,0,0,1-3.27-.79Z"/>
      <path class="a388aa82-8cce-4f2c-a458-9f282928b4e6" d="M675.72,123.15a3.72,3.72,0,0,0,4,4,7.6,7.6,0,0,0,3.22-.6l.36,1.51a9.39,9.39,0,0,1-3.87.72c-3.57,0-5.71-2.35-5.71-5.85s2.07-6.27,5.45-6.27c3.79,0,4.8,3.34,4.8,5.47a9,9,0,0,1-.07,1Zm6.19-1.52c0-1.34-.55-3.43-2.93-3.43-2.13,0-3.07,2-3.24,3.43Z"/>
      <path class="a388aa82-8cce-4f2c-a458-9f282928b4e6" d="M689.11,113.62V117h3v1.6h-3v6.27c0,1.44.41,2.25,1.58,2.25a4.87,4.87,0,0,0,1.23-.14l.09,1.58a5.06,5.06,0,0,1-1.87.29,2.93,2.93,0,0,1-2.28-.89,4.28,4.28,0,0,1-.81-3v-6.34h-1.8V117h1.8v-2.79Z"/>
      <path class="a388aa82-8cce-4f2c-a458-9f282928b4e6" d="M694,118.88a1.43,1.43,0,1,1,2.85,0,1.43,1.43,0,1,1-2.85,0Zm0,8.47a1.43,1.43,0,1,1,2.85,0,1.43,1.43,0,1,1-2.85,0Z"/>
      <path class="a388aa82-8cce-4f2c-a458-9f282928b4e6" d="M708.48,114.94h-.05l-2.71,1.46-.41-1.6,3.41-1.83h1.8v15.6h-2Z"/>
      <path class="a388aa82-8cce-4f2c-a458-9f282928b4e6" d="M715.6,131.48a16.23,16.23,0,0,0,3-9.82,15.92,15.92,0,0,0-3-9.75h1.64a15.35,15.35,0,0,1,3.14,9.77,15.63,15.63,0,0,1-3.14,9.8Z"/>
    </g>
    <rect class="a0bc494a-531d-492b-83c6-7ef5f11d72f7" x="835.15" y="69.69" width="198.75" height="76.64"/>
    <g>
      <path class="b244bbc4-6448-4ad2-ab1e-fa1ab5162031" d="M917.46,99.93h-8.9V83.13h8.53v1.78h-6.56V90.5h6.07v1.77h-6.07v5.88h6.93Z"/>
      <path class="b244bbc4-6448-4ad2-ab1e-fa1ab5162031" d="M929.87,87.93l-4.78,12H923.2l-4.54-12h2.11l3,8.72a8,8,0,0,1,.43,1.68h0a8.13,8.13,0,0,1,.38-1.63l3.19-8.77Z"/>
      <path class="b244bbc4-6448-4ad2-ab1e-fa1ab5162031" d="M941.44,94.41H933a4.53,4.53,0,0,0,1.07,3.1,3.76,3.76,0,0,0,2.84,1.09,5.93,5.93,0,0,0,3.73-1.34v1.81a7,7,0,0,1-4.19,1.14,5.06,5.06,0,0,1-4-1.63A6.68,6.68,0,0,1,931,94a6.53,6.53,0,0,1,1.59-4.56,5.1,5.1,0,0,1,4-1.77,4.49,4.49,0,0,1,3.64,1.53,6.33,6.33,0,0,1,1.29,4.23Zm-2-1.62a3.89,3.89,0,0,0-.8-2.59,2.74,2.74,0,0,0-2.2-.93,3.09,3.09,0,0,0-2.31,1A4.46,4.46,0,0,0,933,92.79Z"/>
      <path class="b244bbc4-6448-4ad2-ab1e-fa1ab5162031" d="M954.31,99.93h-1.93V93.09q0-3.82-2.78-3.82a3,3,0,0,0-2.39,1.08,4,4,0,0,0-.94,2.74v6.84h-1.92v-12h1.92v2h0a4.34,4.34,0,0,1,3.94-2.28,3.69,3.69,0,0,1,3,1.27,5.66,5.66,0,0,1,1,3.68Z"/>
      <path class="b244bbc4-6448-4ad2-ab1e-fa1ab5162031" d="M963.49,99.82a3.69,3.69,0,0,1-1.79.37q-3.15,0-3.15-3.51V89.57h-2.06V87.93h2.06V85l1.92-.62v3.55h3v1.64h-3v6.77a2.84,2.84,0,0,0,.41,1.72,1.65,1.65,0,0,0,1.36.51,2,2,0,0,0,1.25-.39Z"/>
    </g>
    <g>
      <path class="a388aa82-8cce-4f2c-a458-9f282928b4e6" d="M893.63,111.91a15.88,15.88,0,0,0-3,9.82,16.22,16.22,0,0,0,3,9.75H892a15.5,15.5,0,0,1-3.15-9.75,15.84,15.84,0,0,1,3.15-9.82Z"/>
      <path class="a388aa82-8cce-4f2c-a458-9f282928b4e6" d="M909.47,120.31c0,5.57-3.38,8.53-7.51,8.53s-7.27-3.32-7.27-8.21c0-5.14,3.19-8.5,7.51-8.5S909.47,115.51,909.47,120.31Zm-12.55.27c0,3.46,1.87,6.55,5.16,6.55s5.18-3,5.18-6.72c0-3.21-1.68-6.58-5.16-6.58S896.92,117,896.92,120.58Z"/>
      <path class="a388aa82-8cce-4f2c-a458-9f282928b4e6" d="M919.67,128.57v-10H914.8v10h-2.09v-10h-1.63V117h1.63v-.39a5.45,5.45,0,0,1,1.3-4,4,4,0,0,1,2.92-1.08,3.73,3.73,0,0,1,1.66.41l-.43,1.56a3,3,0,0,0-1.25-.29c-1.66,0-2.11,1.42-2.11,3.24V117h4.87v-.56a5.48,5.48,0,0,1,1.37-4.05,4,4,0,0,1,2.81-1.08,4.77,4.77,0,0,1,1.8.33l-.27,1.63A3.3,3.3,0,0,0,924,113c-1.78,0-2.26,1.58-2.26,3.36V117h2.81v1.6h-2.79v10Z"/>
      <path class="a388aa82-8cce-4f2c-a458-9f282928b4e6" d="M926,126.41a5.55,5.55,0,0,0,2.79.84c1.53,0,2.25-.77,2.25-1.73s-.6-1.56-2.16-2.13c-2.08-.75-3.07-1.9-3.07-3.29,0-1.87,1.51-3.41,4-3.41a5.85,5.85,0,0,1,2.86.72l-.53,1.54a4.53,4.53,0,0,0-2.38-.67c-1.25,0-1.94.71-1.94,1.58s.69,1.39,2.21,2c2,.77,3,1.77,3,3.5,0,2-1.58,3.48-4.34,3.48a6.67,6.67,0,0,1-3.27-.79Z"/>
      <path class="a388aa82-8cce-4f2c-a458-9f282928b4e6" d="M937,123.15a3.72,3.72,0,0,0,4,4,7.54,7.54,0,0,0,3.21-.6l.36,1.51a9.3,9.3,0,0,1-3.86.72c-3.58,0-5.72-2.35-5.72-5.85s2.07-6.27,5.45-6.27c3.8,0,4.8,3.34,4.8,5.47a7,7,0,0,1-.07,1Zm6.19-1.52c0-1.34-.55-3.43-2.92-3.43-2.14,0-3.08,2-3.25,3.43Z"/>
      <path class="a388aa82-8cce-4f2c-a458-9f282928b4e6" d="M950.34,113.62V117h3v1.6h-3v6.27c0,1.44.41,2.25,1.59,2.25a4.78,4.78,0,0,0,1.22-.14l.1,1.58a5.14,5.14,0,0,1-1.87.29,2.94,2.94,0,0,1-2.29-.89,4.28,4.28,0,0,1-.81-3v-6.34h-1.8V117h1.8v-2.79Z"/>
      <path class="a388aa82-8cce-4f2c-a458-9f282928b4e6" d="M955.24,118.88a1.43,1.43,0,1,1,2.85,0,1.43,1.43,0,1,1-2.85,0Zm0,8.47a1.43,1.43,0,1,1,2.85,0,1.43,1.43,0,1,1-2.85,0Z"/>
      <path class="a388aa82-8cce-4f2c-a458-9f282928b4e6" d="M965.13,128.57v-1.29l1.65-1.61c4-3.79,5.79-5.81,5.81-8.16a2.78,2.78,0,0,0-3.1-3.05,5.32,5.32,0,0,0-3.31,1.32l-.67-1.49a6.87,6.87,0,0,1,4.42-1.58,4.38,4.38,0,0,1,4.77,4.53c0,2.88-2.09,5.21-5.37,8.38l-1.25,1.15v0h7v1.75Z"/>
      <path class="a388aa82-8cce-4f2c-a458-9f282928b4e6" d="M976.84,131.48a16.29,16.29,0,0,0,3-9.82,15.92,15.92,0,0,0-3-9.75h1.63a15.29,15.29,0,0,1,3.14,9.77,15.57,15.57,0,0,1-3.14,9.8Z"/>
    </g>
    <rect class="a0bc494a-531d-492b-83c6-7ef5f11d72f7" x="1047.09" y="69.69" width="198.75" height="76.64"/>
    <g>
      <path class="b244bbc4-6448-4ad2-ab1e-fa1ab5162031" d="M1129.41,99.93h-8.91V83.13H1129v1.78h-6.56V90.5h6.07v1.77h-6.07v5.88h6.94Z"/>
      <path class="b244bbc4-6448-4ad2-ab1e-fa1ab5162031" d="M1141.82,87.93l-4.78,12h-1.89l-4.55-12h2.11l3,8.72a7.33,7.33,0,0,1,.42,1.68h0a8.15,8.15,0,0,1,.37-1.63l3.19-8.77Z"/>
      <path class="b244bbc4-6448-4ad2-ab1e-fa1ab5162031" d="M1153.38,94.41h-8.47a4.49,4.49,0,0,0,1.08,3.1,3.74,3.74,0,0,0,2.84,1.09,5.88,5.88,0,0,0,3.72-1.34v1.81a7,7,0,0,1-4.18,1.14,5.07,5.07,0,0,1-4-1.63,6.68,6.68,0,0,1-1.45-4.6,6.53,6.53,0,0,1,1.59-4.56,5.08,5.08,0,0,1,3.94-1.77,4.48,4.48,0,0,1,3.64,1.53,6.33,6.33,0,0,1,1.29,4.23Zm-2-1.62a3.9,3.9,0,0,0-.81-2.59,2.71,2.71,0,0,0-2.19-.93,3.09,3.09,0,0,0-2.31,1,4.4,4.4,0,0,0-1.18,2.55Z"/>
      <path class="b244bbc4-6448-4ad2-ab1e-fa1ab5162031" d="M1166.25,99.93h-1.92V93.09q0-3.82-2.79-3.82a3,3,0,0,0-2.38,1.08,4,4,0,0,0-1,2.74v6.84h-1.92v-12h1.92v2h0a4.34,4.34,0,0,1,3.94-2.28,3.7,3.7,0,0,1,3,1.27,5.72,5.72,0,0,1,1,3.68Z"/>
      <path class="b244bbc4-6448-4ad2-ab1e-fa1ab5162031" d="M1175.44,99.82a3.69,3.69,0,0,1-1.79.37q-3.17,0-3.16-3.51V89.57h-2.06V87.93h2.06V85l1.93-.62v3.55h3v1.64h-3v6.77a2.77,2.77,0,0,0,.41,1.72,1.62,1.62,0,0,0,1.35.51,2.05,2.05,0,0,0,1.26-.39Z"/>
    </g>
    <g>
      <path class="a388aa82-8cce-4f2c-a458-9f282928b4e6" d="M1105.58,111.91a15.82,15.82,0,0,0-3,9.82,16.16,16.16,0,0,0,3,9.75h-1.66a15.56,15.56,0,0,1-3.14-9.75,15.85,15.85,0,0,1,3.14-9.82Z"/>
      <path class="a388aa82-8cce-4f2c-a458-9f282928b4e6" d="M1121.42,120.31c0,5.57-3.39,8.53-7.51,8.53-4.28,0-7.28-3.32-7.28-8.21,0-5.14,3.19-8.5,7.52-8.5S1121.42,115.51,1121.42,120.31Zm-12.56.27c0,3.46,1.88,6.55,5.17,6.55s5.18-3,5.18-6.72c0-3.21-1.68-6.58-5.16-6.58S1108.86,117,1108.86,120.58Z"/>
      <path class="a388aa82-8cce-4f2c-a458-9f282928b4e6" d="M1131.62,128.57v-10h-4.88v10h-2.08v-10H1123V117h1.64v-.39a5.49,5.49,0,0,1,1.29-4,4,4,0,0,1,2.93-1.08,3.77,3.77,0,0,1,1.66.41l-.44,1.56a2.94,2.94,0,0,0-1.24-.29c-1.66,0-2.12,1.42-2.12,3.24V117h4.88v-.56a5.48,5.48,0,0,1,1.36-4.05,4,4,0,0,1,2.81-1.08,4.77,4.77,0,0,1,1.8.33l-.26,1.63A3.39,3.39,0,0,0,1136,113c-1.78,0-2.26,1.58-2.26,3.36V117h2.81v1.6h-2.78v10Z"/>
      <path class="a388aa82-8cce-4f2c-a458-9f282928b4e6" d="M1137.93,126.41a5.51,5.51,0,0,0,2.78.84c1.54,0,2.26-.77,2.26-1.73s-.6-1.56-2.16-2.13c-2.09-.75-3.07-1.9-3.07-3.29,0-1.87,1.51-3.41,4-3.41a5.85,5.85,0,0,1,2.86.72l-.53,1.54a4.46,4.46,0,0,0-2.37-.67c-1.25,0-2,.71-2,1.58s.7,1.39,2.21,2c2,.77,3,1.77,3,3.5,0,2-1.59,3.48-4.35,3.48a6.63,6.63,0,0,1-3.26-.79Z"/>
      <path class="a388aa82-8cce-4f2c-a458-9f282928b4e6" d="M1148.9,123.15a3.72,3.72,0,0,0,4,4,7.63,7.63,0,0,0,3.22-.6l.36,1.51a9.39,9.39,0,0,1-3.87.72c-3.57,0-5.71-2.35-5.71-5.85s2.06-6.27,5.45-6.27c3.79,0,4.8,3.34,4.8,5.47a9,9,0,0,1-.07,1Zm6.19-1.52c0-1.34-.55-3.43-2.93-3.43-2.14,0-3.07,2-3.24,3.43Z"/>
      <path class="a388aa82-8cce-4f2c-a458-9f282928b4e6" d="M1162.29,113.62V117h3v1.6h-3v6.27c0,1.44.41,2.25,1.58,2.25a4.93,4.93,0,0,0,1.23-.14l.09,1.58a5.1,5.1,0,0,1-1.87.29,2.91,2.91,0,0,1-2.28-.89,4.28,4.28,0,0,1-.82-3v-6.34h-1.8V117h1.8v-2.79Z"/>
      <path class="a388aa82-8cce-4f2c-a458-9f282928b4e6" d="M1167.18,118.88a1.43,1.43,0,1,1,2.86,0,1.43,1.43,0,1,1-2.86,0Zm0,8.47a1.43,1.43,0,1,1,2.86,0,1.43,1.43,0,1,1-2.86,0Z"/>
      <path class="a388aa82-8cce-4f2c-a458-9f282928b4e6" d="M1177.57,126.15a7.17,7.17,0,0,0,3.46,1c2.71,0,3.55-1.73,3.53-3,0-2.19-2-3.12-4-3.12h-1.18V119.4h1.18c1.53,0,3.48-.79,3.48-2.64,0-1.25-.79-2.35-2.74-2.35a5.72,5.72,0,0,0-3.12,1l-.55-1.53a7.43,7.43,0,0,1,4.08-1.2c3.07,0,4.46,1.82,4.46,3.72a3.87,3.87,0,0,1-2.88,3.67v.05a4.06,4.06,0,0,1,3.48,4c0,2.49-1.94,4.68-5.68,4.68a8,8,0,0,1-4.06-1.06Z"/>
      <path class="a388aa82-8cce-4f2c-a458-9f282928b4e6" d="M1188.78,131.48a16.23,16.23,0,0,0,3-9.82,15.92,15.92,0,0,0-3-9.75h1.63a15.29,15.29,0,0,1,3.15,9.77,15.57,15.57,0,0,1-3.15,9.8Z"/>
    </g>
    <circle class="ad4e9c44-f8ff-4794-ba21-97602f098613" cx="805.18" cy="109.92" r="16.43"/>
    <line class="ac4a5311-aaad-4892-832c-63577baed48c" x1="816.7" y1="98.24" x2="793.86" y2="121.08"/>
    <rect class="b861c669-505e-4462-9e78-0f7ec8c35f75" x="50.43" y="232.12" width="1193.27" height="58.78"/>
    <path class="a1be0b26-b6f4-4f8f-a32d-6f518f87006d" d="M164.69,160.14l-6.9-6.75L152.27,148a2.34,2.34,0,0,0-2.74,0L144,153.39l-6.9,6.75"/>
    <line class="a1be0b26-b6f4-4f8f-a32d-6f518f87006d" x1="151.13" y1="232.09" x2="151.13" y2="148.33"/>
    <path class="a1be0b26-b6f4-4f8f-a32d-6f518f87006d" d="M475,219.48l-6.9,6.75-5.52,5.41a2.31,2.31,0,0,1-2.74,0l-5.53-5.41-6.9-6.75"/>
    <line class="a1be0b26-b6f4-4f8f-a32d-6f518f87006d" x1="461.42" y1="147.54" x2="461.42" y2="231.3"/>
    <path class="a1be0b26-b6f4-4f8f-a32d-6f518f87006d" d="M687.76,219.48l-6.9,6.75-5.52,5.41a2.31,2.31,0,0,1-2.74,0l-5.53-5.41-6.9-6.75"/>
    <line class="a1be0b26-b6f4-4f8f-a32d-6f518f87006d" x1="674.2" y1="147.54" x2="674.2" y2="231.3"/>
    <g>
      <path class="aa2aa836-bb87-4c5d-8770-4430767b353c" d="M465.34,267.81v-2.32a4.61,4.61,0,0,0,1,.63,7.52,7.52,0,0,0,1.17.47,9.31,9.31,0,0,0,1.24.3,7,7,0,0,0,1.15.11,4.49,4.49,0,0,0,2.71-.68,2.52,2.52,0,0,0,.6-3.12,3.38,3.38,0,0,0-.83-.92,8.31,8.31,0,0,0-1.24-.8l-1.56-.8c-.58-.3-1.13-.6-1.64-.9a7,7,0,0,1-1.32-1,4.2,4.2,0,0,1-.89-1.25,4.28,4.28,0,0,1,.18-3.63,4.34,4.34,0,0,1,1.33-1.4,6,6,0,0,1,1.87-.82,8.54,8.54,0,0,1,2.14-.27,8.19,8.19,0,0,1,3.62.6v2.21a6.62,6.62,0,0,0-3.82-1,6.29,6.29,0,0,0-1.29.14,3.53,3.53,0,0,0-1.15.44,2.45,2.45,0,0,0-.82.78,2.09,2.09,0,0,0-.32,1.17,2.46,2.46,0,0,0,.24,1.12,2.8,2.8,0,0,0,.71.85,7.16,7.16,0,0,0,1.15.75c.44.24,1,.51,1.55.8s1.17.61,1.71.94a7.51,7.51,0,0,1,1.42,1.09,4.7,4.7,0,0,1,1,1.32,3.68,3.68,0,0,1,.36,1.66,4.19,4.19,0,0,1-.49,2.11,4,4,0,0,1-1.31,1.4,5.68,5.68,0,0,1-1.9.78,10.49,10.49,0,0,1-2.28.24,7.85,7.85,0,0,1-1-.07q-.58-.06-1.2-.18c-.4-.09-.79-.19-1.15-.31A3.55,3.55,0,0,1,465.34,267.81Z"/>
      <path class="aa2aa836-bb87-4c5d-8770-4430767b353c" d="M483.41,268.37a3.74,3.74,0,0,1-1.8.37q-3.15,0-3.15-3.51v-7.1H476.4v-1.64h2.06v-2.93l1.92-.62v3.55h3v1.64h-3v6.76a2.82,2.82,0,0,0,.41,1.72,1.63,1.63,0,0,0,1.36.52,2.06,2.06,0,0,0,1.26-.4Z"/>
      <path class="aa2aa836-bb87-4c5d-8770-4430767b353c" d="M492.23,258.43a2.32,2.32,0,0,0-1.45-.38,2.44,2.44,0,0,0-2.06,1.16,5.34,5.34,0,0,0-.82,3.16v6.12H486v-12h1.93V259h0a4.27,4.27,0,0,1,1.26-2,2.85,2.85,0,0,1,1.88-.7,3.13,3.13,0,0,1,1.15.16Z"/>
      <path class="aa2aa836-bb87-4c5d-8770-4430767b353c" d="M503.65,263h-8.48a4.48,4.48,0,0,0,1.08,3.09,3.71,3.71,0,0,0,2.84,1.09,5.83,5.83,0,0,0,3.72-1.34v1.81a7,7,0,0,1-4.18,1.15,5.09,5.09,0,0,1-4-1.64,6.73,6.73,0,0,1-1.45-4.6,6.55,6.55,0,0,1,1.59-4.56,5.07,5.07,0,0,1,3.94-1.76,4.51,4.51,0,0,1,3.65,1.52,6.33,6.33,0,0,1,1.29,4.23Zm-2-1.63a3.91,3.91,0,0,0-.81-2.59,2.71,2.71,0,0,0-2.19-.93,3.1,3.1,0,0,0-2.31,1,4.4,4.4,0,0,0-1.17,2.54Z"/>
      <path class="aa2aa836-bb87-4c5d-8770-4430767b353c" d="M515.14,268.49h-1.92v-1.88h-.05a4,4,0,0,1-3.69,2.16,3.94,3.94,0,0,1-2.8-.95,3.27,3.27,0,0,1-1-2.52q0-3.36,4-3.92l3.6-.5c0-2-.82-3.06-2.47-3.06a5.9,5.9,0,0,0-3.92,1.48v-2a7.44,7.44,0,0,1,4.08-1.12q4.23,0,4.23,4.47Zm-1.92-6.07-2.89.39a4.72,4.72,0,0,0-2,.67,1.9,1.9,0,0,0-.68,1.68,1.82,1.82,0,0,0,.63,1.43,2.43,2.43,0,0,0,1.67.56,3.08,3.08,0,0,0,2.36-1,3.6,3.6,0,0,0,.93-2.54Z"/>
      <path class="aa2aa836-bb87-4c5d-8770-4430767b353c" d="M535.8,268.49h-1.92V261.6a5.24,5.24,0,0,0-.61-2.89,2.34,2.34,0,0,0-2.07-.89,2.56,2.56,0,0,0-2.09,1.13,4.27,4.27,0,0,0-.87,2.69v6.85h-1.92v-7.13q0-3.54-2.73-3.54a2.53,2.53,0,0,0-2.08,1.06,4.38,4.38,0,0,0-.82,2.76v6.85h-1.93v-12h1.93v1.89h0a4.08,4.08,0,0,1,3.73-2.17,3.44,3.44,0,0,1,2.14.68,3.5,3.5,0,0,1,1.26,1.8,4.27,4.27,0,0,1,4-2.48c2.64,0,4,1.62,4,4.88Z"/>
      <path class="aa2aa836-bb87-4c5d-8770-4430767b353c" d="M554.19,267.94a6.29,6.29,0,0,1-3.28.83,5.44,5.44,0,0,1-4.14-1.67,6,6,0,0,1-1.58-4.33,6.68,6.68,0,0,1,1.7-4.77,5.92,5.92,0,0,1,4.53-1.79,6.29,6.29,0,0,1,2.79.58v2a4.85,4.85,0,0,0-2.86-.94,3.85,3.85,0,0,0-3,1.32,5,5,0,0,0-1.18,3.46,4.75,4.75,0,0,0,1.11,3.33,3.8,3.8,0,0,0,3,1.22,4.85,4.85,0,0,0,3-1Z"/>
      <path class="aa2aa836-bb87-4c5d-8770-4430767b353c" d="M562.11,268.77a5.58,5.58,0,0,1-4.25-1.68,6.24,6.24,0,0,1-1.58-4.46,6.52,6.52,0,0,1,1.65-4.73,5.94,5.94,0,0,1,4.46-1.69,5.38,5.38,0,0,1,4.19,1.65,6.52,6.52,0,0,1,1.51,4.58,6.42,6.42,0,0,1-1.63,4.6A5.69,5.69,0,0,1,562.11,268.77Zm.14-10.95a3.66,3.66,0,0,0-2.93,1.26,5.18,5.18,0,0,0-1.08,3.48,4.92,4.92,0,0,0,1.09,3.36,3.71,3.71,0,0,0,2.92,1.23,3.51,3.51,0,0,0,2.87-1.21,5.27,5.27,0,0,0,1-3.43,5.37,5.37,0,0,0-1-3.47A3.52,3.52,0,0,0,562.25,257.82Z"/>
      <path class="aa2aa836-bb87-4c5d-8770-4430767b353c" d="M581.12,268.49H579.2v-6.85c0-2.54-.93-3.82-2.79-3.82a3,3,0,0,0-2.39,1.09,4,4,0,0,0-.94,2.73v6.85h-1.92v-12h1.92v2h0a4.31,4.31,0,0,1,3.93-2.27,3.68,3.68,0,0,1,3,1.27,5.67,5.67,0,0,1,1,3.67Z"/>
      <path class="aa2aa836-bb87-4c5d-8770-4430767b353c" d="M584,268.05V266a5.72,5.72,0,0,0,3.46,1.16c1.69,0,2.53-.56,2.53-1.69a1.4,1.4,0,0,0-.22-.81,2,2,0,0,0-.58-.59,4.46,4.46,0,0,0-.87-.47l-1.07-.42a14.58,14.58,0,0,1-1.4-.64,4.45,4.45,0,0,1-1-.73,2.79,2.79,0,0,1-.61-.92,3.41,3.41,0,0,1-.2-1.21,2.92,2.92,0,0,1,.38-1.49,3.57,3.57,0,0,1,1-1.09,4.87,4.87,0,0,1,1.48-.66,6.39,6.39,0,0,1,1.7-.22,6.87,6.87,0,0,1,2.79.53v1.95a5.42,5.42,0,0,0-3-.87,3.25,3.25,0,0,0-1,.13,2.2,2.2,0,0,0-.74.34,1.6,1.6,0,0,0-.48.53,1.36,1.36,0,0,0-.17.69,1.62,1.62,0,0,0,.17.79,1.71,1.71,0,0,0,.49.56,4,4,0,0,0,.8.44c.31.14.67.28,1.07.44s1,.41,1.43.62a4.89,4.89,0,0,1,1.07.73,2.82,2.82,0,0,1,.69.93,3,3,0,0,1,.24,1.26,3,3,0,0,1-.39,1.54,3.31,3.31,0,0,1-1.05,1.09,4.79,4.79,0,0,1-1.51.65,7.52,7.52,0,0,1-1.8.21A6.79,6.79,0,0,1,584,268.05Z"/>
      <path class="aa2aa836-bb87-4c5d-8770-4430767b353c" d="M604.63,268.49H602.7v-1.9h0a4,4,0,0,1-3.71,2.18c-2.85,0-4.28-1.71-4.28-5.11v-7.17h1.91v6.86c0,2.53,1,3.8,2.9,3.8a3,3,0,0,0,2.32-1,4,4,0,0,0,.9-2.71v-6.91h1.93Z"/>
      <path class="aa2aa836-bb87-4c5d-8770-4430767b353c" d="M625.54,268.49h-1.92V261.6a5.24,5.24,0,0,0-.61-2.89,2.34,2.34,0,0,0-2.07-.89,2.56,2.56,0,0,0-2.09,1.13,4.27,4.27,0,0,0-.86,2.69v6.85h-1.93v-7.13q0-3.54-2.73-3.54a2.53,2.53,0,0,0-2.08,1.06,4.38,4.38,0,0,0-.82,2.76v6.85h-1.92v-12h1.92v1.89h0a4.09,4.09,0,0,1,3.73-2.17,3.47,3.47,0,0,1,2.15.68,3.54,3.54,0,0,1,1.25,1.8,4.27,4.27,0,0,1,4-2.48c2.64,0,4,1.62,4,4.88Z"/>
      <path class="aa2aa836-bb87-4c5d-8770-4430767b353c" d="M638.82,263h-8.47a4.48,4.48,0,0,0,1.08,3.09,3.68,3.68,0,0,0,2.83,1.09,5.85,5.85,0,0,0,3.73-1.34v1.81a7,7,0,0,1-4.18,1.15,5.08,5.08,0,0,1-4-1.64,6.68,6.68,0,0,1-1.45-4.6A6.55,6.55,0,0,1,630,258a5.06,5.06,0,0,1,3.94-1.76,4.49,4.49,0,0,1,3.64,1.52,6.33,6.33,0,0,1,1.29,4.23Zm-2-1.63a3.86,3.86,0,0,0-.8-2.59,2.74,2.74,0,0,0-2.2-.93,3.13,3.13,0,0,0-2.31,1,4.4,4.4,0,0,0-1.17,2.54Z"/>
      <path class="aa2aa836-bb87-4c5d-8770-4430767b353c" d="M648,258.43a2.35,2.35,0,0,0-1.46-.38,2.43,2.43,0,0,0-2,1.16,5.34,5.34,0,0,0-.83,3.16v6.12h-1.92v-12h1.92V259h.05a4.25,4.25,0,0,1,1.25-2,2.86,2.86,0,0,1,1.89-.7,3.16,3.16,0,0,1,1.15.16Z"/>
      <path class="aa2aa836-bb87-4c5d-8770-4430767b353c" d="M661,251.83a15.84,15.84,0,0,0-3,9.82,16.13,16.13,0,0,0,3,9.74h-1.66a15.51,15.51,0,0,1-3.14-9.74,15.82,15.82,0,0,1,3.14-9.82Z"/>
      <path class="aa2aa836-bb87-4c5d-8770-4430767b353c" d="M673.42,268.49h-2.69l-5.3-5.77h0v5.77h-1.92V250.72h1.92V262h0l5-5.49H673l-5.57,5.79Z"/>
      <path class="aa2aa836-bb87-4c5d-8770-4430767b353c" d="M685.35,268.49h-1.92v-6.85c0-2.54-.93-3.82-2.79-3.82a3,3,0,0,0-2.38,1.09,4,4,0,0,0-1,2.73v6.85h-1.92v-12h1.92v2h.05a4.33,4.33,0,0,1,3.94-2.27,3.67,3.67,0,0,1,3,1.27,5.61,5.61,0,0,1,1,3.67Z"/>
      <path class="aa2aa836-bb87-4c5d-8770-4430767b353c" d="M694,268.77a5.58,5.58,0,0,1-4.25-1.68,6.24,6.24,0,0,1-1.59-4.46,6.48,6.48,0,0,1,1.66-4.73,5.94,5.94,0,0,1,4.46-1.69,5.38,5.38,0,0,1,4.19,1.65,6.57,6.57,0,0,1,1.51,4.58,6.42,6.42,0,0,1-1.63,4.6A5.69,5.69,0,0,1,694,268.77Zm.14-10.95a3.66,3.66,0,0,0-2.93,1.26,5.18,5.18,0,0,0-1.08,3.48,4.92,4.92,0,0,0,1.09,3.36,3.71,3.71,0,0,0,2.92,1.23,3.51,3.51,0,0,0,2.87-1.21,5.27,5.27,0,0,0,1-3.43,5.37,5.37,0,0,0-1-3.47A3.52,3.52,0,0,0,694.13,257.82Z"/>
      <path class="aa2aa836-bb87-4c5d-8770-4430767b353c" d="M718.15,256.49l-3.59,12h-2l-2.47-8.59a6.68,6.68,0,0,1-.19-1.12h0a5.76,5.76,0,0,1-.25,1.09l-2.68,8.62H705l-3.64-12h2l2.48,9a5.09,5.09,0,0,1,.17,1.08h.09a4.62,4.62,0,0,1,.21-1.1l2.77-9h1.75l2.49,9a6.36,6.36,0,0,1,.18,1.08h.09a4.63,4.63,0,0,1,.2-1.08l2.44-9Z"/>
      <path class="aa2aa836-bb87-4c5d-8770-4430767b353c" d="M730.34,268.49h-1.92v-6.85c0-2.54-.93-3.82-2.79-3.82a3,3,0,0,0-2.38,1.09,4,4,0,0,0-1,2.73v6.85h-1.92v-12h1.92v2h.05a4.33,4.33,0,0,1,3.94-2.27,3.67,3.67,0,0,1,3,1.27,5.67,5.67,0,0,1,1,3.67Z"/>
      <path class="aa2aa836-bb87-4c5d-8770-4430767b353c" d="M745.55,268.77a5.58,5.58,0,0,1-4.25-1.68,6.28,6.28,0,0,1-1.58-4.46,6.52,6.52,0,0,1,1.65-4.73,5.94,5.94,0,0,1,4.46-1.69,5.38,5.38,0,0,1,4.19,1.65,7.52,7.52,0,0,1-.11,9.18A5.72,5.72,0,0,1,745.55,268.77Zm.14-10.95a3.66,3.66,0,0,0-2.93,1.26,5.17,5.17,0,0,0-1.07,3.48,4.87,4.87,0,0,0,1.09,3.36,3.68,3.68,0,0,0,2.91,1.23,3.5,3.5,0,0,0,2.87-1.21,5.22,5.22,0,0,0,1-3.43,5.32,5.32,0,0,0-1-3.47A3.51,3.51,0,0,0,745.69,257.82Z"/>
      <path class="aa2aa836-bb87-4c5d-8770-4430767b353c" d="M760.1,252.41a2.61,2.61,0,0,0-1.28-.32c-1.35,0-2,.85-2,2.54v1.86h2.81v1.64H756.8v10.36h-1.91V258.13h-2v-1.64h2v-2a4.06,4.06,0,0,1,1.09-3,3.69,3.69,0,0,1,2.72-1.1,3.82,3.82,0,0,1,1.4.21Z"/>
      <path class="aa2aa836-bb87-4c5d-8770-4430767b353c" d="M767.61,252.41a2.59,2.59,0,0,0-1.28-.32c-1.34,0-2,.85-2,2.54v1.86h2.82v1.64h-2.82v10.36H762.4V258.13h-2v-1.64h2v-2a4.06,4.06,0,0,1,1.09-3,3.7,3.7,0,0,1,2.72-1.1,3.82,3.82,0,0,1,1.4.21Z"/>
      <path class="aa2aa836-bb87-4c5d-8770-4430767b353c" d="M768.46,268.05V266a5.72,5.72,0,0,0,3.46,1.16c1.69,0,2.53-.56,2.53-1.69a1.4,1.4,0,0,0-.22-.81,2.16,2.16,0,0,0-.58-.59,4.46,4.46,0,0,0-.87-.47l-1.07-.42a14.58,14.58,0,0,1-1.4-.64,4.45,4.45,0,0,1-1-.73,2.79,2.79,0,0,1-.61-.92,3.2,3.2,0,0,1-.2-1.21,2.83,2.83,0,0,1,.38-1.49,3.45,3.45,0,0,1,1-1.09,4.92,4.92,0,0,1,1.47-.66,6.52,6.52,0,0,1,1.71-.22,6.87,6.87,0,0,1,2.79.53v1.95a5.42,5.42,0,0,0-3-.87,3.25,3.25,0,0,0-1,.13,2.2,2.2,0,0,0-.74.34,1.75,1.75,0,0,0-.49.53,1.47,1.47,0,0,0-.17.69,1.74,1.74,0,0,0,.17.79,1.87,1.87,0,0,0,.5.56,4,4,0,0,0,.8.44c.31.14.67.28,1.07.44s1,.41,1.43.62a4.89,4.89,0,0,1,1.07.73,2.82,2.82,0,0,1,.69.93,3,3,0,0,1,.24,1.26,3,3,0,0,1-.39,1.54,3.31,3.31,0,0,1-1,1.09,4.79,4.79,0,0,1-1.51.65,7.52,7.52,0,0,1-1.8.21A6.79,6.79,0,0,1,768.46,268.05Z"/>
      <path class="aa2aa836-bb87-4c5d-8770-4430767b353c" d="M789,263h-8.48a4.58,4.58,0,0,0,1.08,3.09,3.72,3.72,0,0,0,2.84,1.09,5.87,5.87,0,0,0,3.73-1.34v1.81a7,7,0,0,1-4.19,1.15,5.06,5.06,0,0,1-4-1.64,6.68,6.68,0,0,1-1.46-4.6,6.55,6.55,0,0,1,1.59-4.56,5.07,5.07,0,0,1,3.94-1.76,4.51,4.51,0,0,1,3.65,1.52A6.33,6.33,0,0,1,789,262Zm-2-1.63a4,4,0,0,0-.8-2.59,2.74,2.74,0,0,0-2.2-.93,3.1,3.1,0,0,0-2.31,1,4.4,4.4,0,0,0-1.17,2.54Z"/>
      <path class="aa2aa836-bb87-4c5d-8770-4430767b353c" d="M797.49,268.37a3.69,3.69,0,0,1-1.79.37c-2.1,0-3.16-1.17-3.16-3.51v-7.1h-2.06v-1.64h2.06v-2.93l1.93-.62v3.55h3v1.64h-3v6.76a2.75,2.75,0,0,0,.41,1.72,1.61,1.61,0,0,0,1.36.52,2.05,2.05,0,0,0,1.25-.4Z"/>
      <path class="aa2aa836-bb87-4c5d-8770-4430767b353c" d="M800.72,258.83a1.25,1.25,0,0,1-.92-.39,1.29,1.29,0,0,1,.92-2.21,1.3,1.3,0,0,1,.94.37,1.28,1.28,0,0,1,0,1.84A1.28,1.28,0,0,1,800.72,258.83Zm0,9.91a1.24,1.24,0,0,1-.92-.38,1.33,1.33,0,0,1,0-1.86,1.25,1.25,0,0,1,.92-.39,1.32,1.32,0,1,1,0,2.63Z"/>
      <path class="aa2aa836-bb87-4c5d-8770-4430767b353c" d="M821.45,268.49H812V266.8h3.8V253.74l-3.89,1.16v-1.82l5.81-1.77V266.8h3.78Z"/>
      <path class="aa2aa836-bb87-4c5d-8770-4430767b353c" d="M823.31,271.39a16.29,16.29,0,0,0,3-9.82,16,16,0,0,0-3-9.74h1.63a15.33,15.33,0,0,1,3.14,9.77,15.62,15.62,0,0,1-3.14,9.79Z"/>
    </g>
    <g>
      <path class="b1341606-4332-4833-b5dd-cb60db36cfa6" d="M169.08,197.52v-1.93a4.11,4.11,0,0,0,.8.53,7.15,7.15,0,0,0,1,.39,7.36,7.36,0,0,0,1,.25,5.52,5.52,0,0,0,1,.09,3.76,3.76,0,0,0,2.26-.56,1.91,1.91,0,0,0,.75-1.62,1.87,1.87,0,0,0-.25-1,2.58,2.58,0,0,0-.69-.76,6.68,6.68,0,0,0-1-.67l-1.29-.67c-.49-.24-.94-.49-1.37-.75a5.6,5.6,0,0,1-1.1-.84,3.46,3.46,0,0,1-.74-1,3.54,3.54,0,0,1,.15-3,3.52,3.52,0,0,1,1.11-1.16,4.86,4.86,0,0,1,1.55-.69,7.19,7.19,0,0,1,1.79-.22,6.81,6.81,0,0,1,3,.5v1.84a5.46,5.46,0,0,0-3.18-.86,4.81,4.81,0,0,0-1.07.12,2.9,2.9,0,0,0-1,.36,2.18,2.18,0,0,0-.69.66,1.75,1.75,0,0,0-.26,1,2.06,2.06,0,0,0,.2.93,2.31,2.31,0,0,0,.59.71,5.59,5.59,0,0,0,.95.63l1.3.66c.5.25,1,.51,1.42.78a7,7,0,0,1,1.19.91,4.13,4.13,0,0,1,.8,1.11,3,3,0,0,1,.3,1.38,3.55,3.55,0,0,1-.41,1.76,3.36,3.36,0,0,1-1.09,1.16,4.71,4.71,0,0,1-1.59.65,8.3,8.3,0,0,1-1.89.2c-.22,0-.5,0-.82,0s-.66-.09-1-.16a8.39,8.39,0,0,1-1-.25A2.93,2.93,0,0,1,169.08,197.52Z"/>
      <path class="b1341606-4332-4833-b5dd-cb60db36cfa6" d="M191.61,192.42c0,3.94-1.78,5.9-5.33,5.9q-5.09,0-5.09-5.67v-8.57h1.64v8.46q0,4.31,3.63,4.31t3.51-4.16v-8.61h1.64Z"/>
      <path class="b1341606-4332-4833-b5dd-cb60db36cfa6" d="M196.1,198.09v-14h4A4.37,4.37,0,0,1,203,185a2.89,2.89,0,0,1,1.06,2.32,3.42,3.42,0,0,1-.64,2.07,3.51,3.51,0,0,1-1.78,1.25v0a3.55,3.55,0,0,1,2.27,1.07,3.3,3.3,0,0,1,.85,2.34,3.65,3.65,0,0,1-1.29,2.91,4.78,4.78,0,0,1-3.26,1.12Zm1.64-12.52v4.52h1.68a3.2,3.2,0,0,0,2.12-.65,2.23,2.23,0,0,0,.77-1.83c0-1.36-.89-2-2.68-2Zm0,6v5H200a3.31,3.31,0,0,0,2.24-.68,2.35,2.35,0,0,0,.8-1.87c0-1.66-1.13-2.49-3.38-2.49Z"/>
      <path class="b1341606-4332-4833-b5dd-cb60db36cfa6" d="M207.91,197.52v-1.93a4.11,4.11,0,0,0,.8.53,7.15,7.15,0,0,0,1,.39,7.36,7.36,0,0,0,1,.25,5.52,5.52,0,0,0,.95.09,3.76,3.76,0,0,0,2.26-.56,1.91,1.91,0,0,0,.75-1.62,1.87,1.87,0,0,0-.25-1,2.58,2.58,0,0,0-.69-.76,6.68,6.68,0,0,0-1-.67l-1.29-.67c-.49-.24-.94-.49-1.37-.75a5.6,5.6,0,0,1-1.1-.84,3.46,3.46,0,0,1-.74-1,3.54,3.54,0,0,1,.15-3,3.52,3.52,0,0,1,1.11-1.16,4.86,4.86,0,0,1,1.55-.69,7.19,7.19,0,0,1,1.79-.22,6.81,6.81,0,0,1,3,.5v1.84a5.46,5.46,0,0,0-3.18-.86,4.81,4.81,0,0,0-1.07.12,2.9,2.9,0,0,0-1,.36,2.18,2.18,0,0,0-.69.66,1.75,1.75,0,0,0-.26,1,2.06,2.06,0,0,0,.2.93,2.31,2.31,0,0,0,.59.71,5.59,5.59,0,0,0,.95.63l1.3.66c.5.25,1,.51,1.42.78a7,7,0,0,1,1.19.91,4.13,4.13,0,0,1,.8,1.11,3,3,0,0,1,.3,1.38,3.55,3.55,0,0,1-.41,1.76,3.36,3.36,0,0,1-1.09,1.16,4.71,4.71,0,0,1-1.59.65,8.3,8.3,0,0,1-1.89.2c-.22,0-.5,0-.82,0s-.66-.09-1-.16a8.39,8.39,0,0,1-1-.25A2.93,2.93,0,0,1,207.91,197.52Z"/>
      <path class="b1341606-4332-4833-b5dd-cb60db36cfa6" d="M229.72,197.5a8.14,8.14,0,0,1-3.86.82,6.25,6.25,0,0,1-4.79-1.92,7.1,7.1,0,0,1-1.8-5.05,7.44,7.44,0,0,1,2-5.43,6.83,6.83,0,0,1,5.12-2.07,8.1,8.1,0,0,1,3.3.58v1.74a6.69,6.69,0,0,0-3.32-.84,5.09,5.09,0,0,0-3.91,1.62,6.06,6.06,0,0,0-1.5,4.3,5.79,5.79,0,0,0,1.4,4.08,4.79,4.79,0,0,0,3.68,1.52,6.81,6.81,0,0,0,3.65-.94Z"/>
      <path class="b1341606-4332-4833-b5dd-cb60db36cfa6" d="M243.61,198.09h-2l-2.34-3.93a10.61,10.61,0,0,0-.63-.93,3.37,3.37,0,0,0-.62-.63,2.34,2.34,0,0,0-.68-.36,3,3,0,0,0-.83-.11h-1.34v6h-1.65v-14h4.18a6.08,6.08,0,0,1,1.7.23,3.94,3.94,0,0,1,1.35.7,3.15,3.15,0,0,1,.89,1.17,3.76,3.76,0,0,1,.32,1.63,3.9,3.9,0,0,1-.22,1.35,3.46,3.46,0,0,1-.62,1.09,3.69,3.69,0,0,1-1,.81,4.71,4.71,0,0,1-1.28.52v0a3.51,3.51,0,0,1,.61.36,3.58,3.58,0,0,1,.49.47,6.24,6.24,0,0,1,.46.62c.16.23.33.5.52.81Zm-8.39-12.52v5.08h2.22a3.25,3.25,0,0,0,1.14-.19,2.52,2.52,0,0,0,.9-.53,2.35,2.35,0,0,0,.6-.85,2.92,2.92,0,0,0,.21-1.13,2.2,2.2,0,0,0-.72-1.75,3.15,3.15,0,0,0-2.11-.63Z"/>
      <path class="b1341606-4332-4833-b5dd-cb60db36cfa6" d="M249.55,184.08v1.41h-1.37v11.19h1.37v1.41h-4.38v-1.41h1.37V185.49h-1.37v-1.41Z"/>
      <path class="b1341606-4332-4833-b5dd-cb60db36cfa6" d="M252.86,198.09v-14h4a4.38,4.38,0,0,1,2.89.89,2.89,2.89,0,0,1,1.06,2.32,3.48,3.48,0,0,1-.64,2.07,3.56,3.56,0,0,1-1.78,1.25v0a3.5,3.5,0,0,1,2.26,1.07,3.25,3.25,0,0,1,.85,2.34,3.65,3.65,0,0,1-1.29,2.91,4.76,4.76,0,0,1-3.25,1.12Zm1.64-12.52v4.52h1.68a3.2,3.2,0,0,0,2.12-.65,2.26,2.26,0,0,0,.77-1.83c0-1.36-.89-2-2.68-2Zm0,6v5h2.23a3.31,3.31,0,0,0,2.24-.68,2.34,2.34,0,0,0,.79-1.87c0-1.66-1.12-2.49-3.37-2.49Z"/>
      <path class="b1341606-4332-4833-b5dd-cb60db36cfa6" d="M272.75,198.09h-7.43v-14h7.11v1.49H267v4.66h5v1.47h-5v4.9h5.78Z"/>
    </g>
    <g>
      <path class="b1341606-4332-4833-b5dd-cb60db36cfa6" d="M539,198.09h-2l-2.34-3.93a8.78,8.78,0,0,0-.63-.93,3.09,3.09,0,0,0-.62-.63,2.34,2.34,0,0,0-.68-.36,3,3,0,0,0-.83-.11h-1.34v6H529v-14h4.18a6.06,6.06,0,0,1,1.69.23,3.94,3.94,0,0,1,1.35.7,3.15,3.15,0,0,1,.89,1.17,3.76,3.76,0,0,1,.32,1.63,3.9,3.9,0,0,1-.22,1.35,3.46,3.46,0,0,1-.62,1.09,3.69,3.69,0,0,1-1,.81,4.71,4.71,0,0,1-1.28.52v0a3.51,3.51,0,0,1,.61.36,3.09,3.09,0,0,1,.49.47c.16.19.31.39.47.62l.51.81Zm-8.4-12.52v5.08h2.22a3.25,3.25,0,0,0,1.14-.19,2.52,2.52,0,0,0,.9-.53,2.35,2.35,0,0,0,.6-.85,2.92,2.92,0,0,0,.22-1.13,2.21,2.21,0,0,0-.73-1.75,3.15,3.15,0,0,0-2.11-.63Z"/>
      <path class="b1341606-4332-4833-b5dd-cb60db36cfa6" d="M549.33,198.09h-7.42v-14H549v1.49h-5.47v4.66h5.06v1.47h-5.06v4.9h5.78Z"/>
      <path class="b1341606-4332-4833-b5dd-cb60db36cfa6" d="M562.56,197.5a8.21,8.21,0,0,1-3.87.82,6.22,6.22,0,0,1-4.78-1.92,7.1,7.1,0,0,1-1.8-5.05,7.43,7.43,0,0,1,2-5.43,6.87,6.87,0,0,1,5.13-2.07,8.1,8.1,0,0,1,3.3.58v1.74a6.69,6.69,0,0,0-3.32-.84,5.08,5.08,0,0,0-3.91,1.62,6.06,6.06,0,0,0-1.5,4.3,5.75,5.75,0,0,0,1.4,4.08,4.77,4.77,0,0,0,3.68,1.52,6.86,6.86,0,0,0,3.65-.94Z"/>
      <path class="b1341606-4332-4833-b5dd-cb60db36cfa6" d="M573.83,198.09h-7.42v-14h7.11v1.49h-5.47v4.66h5.06v1.47h-5.06v4.9h5.78Z"/>
      <path class="b1341606-4332-4833-b5dd-cb60db36cfa6" d="M580.53,184.08v1.41h-1.36v11.19h1.36v1.41h-4.37v-1.41h1.37V185.49h-1.37v-1.41Z"/>
      <path class="b1341606-4332-4833-b5dd-cb60db36cfa6" d="M594.26,184.08l-5.19,14h-1.8l-5.08-14H584l3.88,11.11a6.47,6.47,0,0,1,.29,1.24h0a6.2,6.2,0,0,1,.33-1.26l4-11.09Z"/>
      <path class="b1341606-4332-4833-b5dd-cb60db36cfa6" d="M604.69,198.09h-7.42v-14h7.11v1.49h-5.47v4.66H604v1.47h-5.06v4.9h5.78Z"/>
    </g>
  </g>
</svg>
