<svg xmlns="http://www.w3.org/2000/svg" xmlns:xlink="http://www.w3.org/1999/xlink" width="1150.07" height="438.69" viewBox="0 0 1150.07 438.69">
  <defs>
    <style>
      .a1648fad-979f-4fa7-a944-09da61a9a4cf {
        fill: #0086e8;
      }

      .a0b2e1cf-187e-4643-ad27-658174443732 {
        opacity: 0.1;
      }

      .f75a4081-cbc7-445f-8d00-eb05b5997d28 {
        fill: #fff;
      }

      .a1a07361-3050-45cc-b9cf-de1f0cc94f2b {
        opacity: 0.3;
      }

      .a5b1a9e2-58ff-46f4-9e70-acb3d0297f1a {
        fill: #7ac8fc;
      }

      .ae4af9e6-90d6-4a25-93bb-f5b9790be676 {
        opacity: 0.5;
        filter: url(#aef2dd43-0b76-4a33-af16-244d402c0c98);
      }

      .acf59db4-12b4-42f0-a6bf-456c2e44aeba, .afc810f2-6a76-4bf1-a1db-e839f865ec4b {
        fill: #1c1d1e;
      }

      .bbb07678-a049-48ce-bdf7-373e12749eba {
        fill: #f0293b;
      }

      .afc810f2-6a76-4bf1-a1db-e839f865ec4b {
        stroke: #1c1d1e;
        stroke-width: 5px;
      }
    </style>
    <filter id="aef2dd43-0b76-4a33-af16-244d402c0c98" x="-15%" y="-15%" width="140%" height="130%" name="AI_Shadow_2">
      <feGaussianBlur result="blur" stdDeviation="14" in="SourceAlpha"/>
      <feOffset result="offsetBlurredAlpha" dy="10" in="blur"/>
      <feMerge>
        <feMergeNode in="offsetBlurredAlpha"/>
        <feMergeNode in="SourceGraphic"/>
      </feMerge>
    </filter>
  </defs>
  <g id="b944489e-b20a-4156-ba6f-b1d9ce44c04b" data-name="Layer 1">
    <rect class="a1648fad-979f-4fa7-a944-09da61a9a4cf" x="-0.25" y="-1.07" width="1151.02" height="445.06"/>
  </g>
  <g id="ac785935-5c2b-4002-9840-49d330dae095" data-name="Layer 4">
    <g class="a0b2e1cf-187e-4643-ad27-658174443732">
      <path class="f75a4081-cbc7-445f-8d00-eb05b5997d28" d="M973.28-9.64c221.24,127.73,222.4,334.85,2.59,462.59s-577.37,127.74-798.6,0S-45.17,118.11,174.65-9.63,752-137.38,973.28-9.64Z"/>
    </g>
    <g class="a1a07361-3050-45cc-b9cf-de1f0cc94f2b">
      <path class="f75a4081-cbc7-445f-8d00-eb05b5997d28" d="M873.24,48.5c165.63,95.62,166.5,250.68,1.94,346.32s-432.25,95.63-597.88,0-166.53-250.68-2-346.32S707.6-47.14,873.24,48.5Z"/>
    </g>
    <g class="a1a07361-3050-45cc-b9cf-de1f0cc94f2b">
      <path class="f75a4081-cbc7-445f-8d00-eb05b5997d28" d="M766.69,110.42c106.4,61.43,107,161,1.24,222.48s-277.68,61.43-384.08,0-107-161-1.26-222.48S660.28,49,766.69,110.42Z"/>
    </g>
    <path class="a5b1a9e2-58ff-46f4-9e70-acb3d0297f1a" d="M688.57,148.11c3.76,2.2,3.7,5.73-.11,7.9A15,15,0,0,1,675,156c-3.8-2.22-3.77-5.72,0-7.9A14.84,14.84,0,0,1,688.57,148.11Z"/>
    <path class="a5b1a9e2-58ff-46f4-9e70-acb3d0297f1a" d="M562.18,282.76c3.79,2.24,3.76,5.78-.08,7.95a15.14,15.14,0,0,1-13.51,0c-3.78-2.21-3.74-5.75.07-7.91s9.79-2.15,13.43,0Z"/>
    <path class="a5b1a9e2-58ff-46f4-9e70-acb3d0297f1a" d="M461.43,224.24c3.75,2.19,3.75,5.69.05,7.86a15,15,0,0,1-13.66,0l-.06,0c-3.67-2.16-3.64-5.7.09-7.83A15,15,0,0,1,461.43,224.24Z"/>
    <path class="a5b1a9e2-58ff-46f4-9e70-acb3d0297f1a" d="M592,283.23l1.83,1c-4.25.44-8.52.56-12.74.87a7.5,7.5,0,0,1-4.48-.74,6,6,0,0,1-1.25-1c-3-2.9-6.27-5.69-9.52-8.5a7.21,7.21,0,0,0-1.12-.79,13.22,13.22,0,0,0-10.45-.69c-5.78,2.08-11.52,4.22-17.14,6.43a8,8,0,0,1-5.29.31q-22.38-5.31-39.28-15.09c-1.54-.88-3-1.8-4.51-2.74q-14.82-9.51-22.7-21.48c-.35-.53-.28-.91.24-1.38,3.86-3.43,7.7-6.89,11.51-10.34,2.54-2.3,2.08-4.77-1-6.52a12.5,12.5,0,0,0-1.9-.88q-7.81-2.91-15.62-5.82a4.76,4.76,0,0,1-.54-.24.77.77,0,0,1-.47-.84c.39-2.55.71-5.09,1.06-7.65,0-.22.14-.44.25-.83l1.28.74,66.1,38.17.36.2c2.52,1.46,2.24,1.16,4.54-.18q10.81-6.25,21.58-12.53c1.72-1,1.73-1.11,0-2.14l-6.07-3.51-12.15-7-1.2-.69,15.27-8.87,1,.61c4,2.28,7.87,4.59,11.83,6.88,2.47,1.42,5,2.84,7.49,4.23l.48.27c7.52,4.34,7.91,9.73,2.95,14.53-3.15,3-6.59,6-10,8.95s-6.25,6.07-6.78,9.7a15.21,15.21,0,0,0-.1,3.87c.22,1.88,1.53,3.48,3.9,4.85,5.22,3,10.36,5.93,15.48,8.9Q583.49,278.28,592,283.23Z"/>
    <g class="ae4af9e6-90d6-4a25-93bb-f5b9790be676">
      <path class="f75a4081-cbc7-445f-8d00-eb05b5997d28" d="M711.54,132.49c75.75,43.73,76.15,114.65.88,158.38s-197.68,43.74-273.43,0-76.16-114.65-.89-158.39S635.78,88.75,711.54,132.49Z"/>
    </g>
    <path class="f75a4081-cbc7-445f-8d00-eb05b5997d28" d="M715.76,129.57c78.1,45.09,78.51,118.21.92,163.3s-203.81,45.09-281.91,0-78.52-118.2-.93-163.3S637.66,84.48,715.76,129.57Z"/>
    <g>
      <path class="acf59db4-12b4-42f0-a6bf-456c2e44aeba" d="M610.5,227.17c6.62,9.32,8.19,15.82-2.68,22.14-11.72,6.81-27.59,5.08-40.29-2.26-12.41-7.17-14.68-15.15-11.06-21.78l17,2.72c-1.69,4.3-1.31,8.4,5.28,12.2,5.54,3.2,11.77,3.67,15.49,1.51,4.46-2.59,2.41-5.6-1.1-10.65l-1.95-2.74c-5.65-7.89-7-14.5,3.57-20.66,9.76-5.67,24.83-5.58,36.77,1.31,8.5,4.91,11.74,10.11,8.6,17l-16.92-2.23c1.71-3.65.8-6-3-8.21s-8.83-2.29-12-.45c-3.91,2.27-3,4.62.31,9.33Z"/>
      <path class="bbb07678-a049-48ce-bdf7-373e12749eba" d="M497.17,177.1c7.91,4.57,8.09,11.89.39,16.37s-20.35,4.39-28.26-.17-8.08-11.9-.38-16.37S489.26,172.53,497.17,177.1Z"/>
      <path class="acf59db4-12b4-42f0-a6bf-456c2e44aeba" d="M542.34,209.57l44.24-25.71L600,191.58,555.53,217.4c-13.48,7.83-27.73,6.71-39.58-.13-10.7-6.17-11.51-12.89-8.16-18.49l17.3,2.56c-1.52,3.32-2.68,6.2,1.91,8.85C531.39,212.72,535.83,213.36,542.34,209.57Z"/>
      <path class="afc810f2-6a76-4bf1-a1db-e839f865ec4b" d="M714.63,208.89,578.46,288,438.52,207.23l21-12.21a24.59,24.59,0,0,0,3.14,2.13,33,33,0,0,0,5,2.34l-13.49,7.84,124,71.61L699,208.79l-124-71.61-67,39a24.7,24.7,0,0,0-4.06-2.89,32.29,32.29,0,0,0-3.68-1.82l74.57-43.33Z"/>
    </g>
  </g>
</svg>
