<svg xmlns="http://www.w3.org/2000/svg" xmlns:xlink="http://www.w3.org/1999/xlink" width="1150.07" height="438.69" viewBox="0 0 1150.07 438.69">
  <defs>
    <style>
      .bddc6302-b3f0-4525-8b95-278b91456f73 {
        fill: #0086e8;
      }

      .b7bbb5f0-7247-43a1-bf96-60db1222ae23 {
        opacity: 0.1;
      }

      .aba87f49-d1c9-4550-aefe-35c2c378c3e6 {
        fill: #fff;
      }

      .f1a90c67-f1a7-41a8-b390-60653cff95ab {
        opacity: 0.3;
      }

      .a7ee3b1f-67ea-4cad-8f95-1bb4406e8800 {
        fill: #7ac8fc;
      }

      .ab0cc3ce-4e97-4fae-bc51-e782cf8d6e0f {
        opacity: 0.5;
        filter: url(#b931c75a-0d84-4832-afa2-43abc93f6d94);
      }

      .f0ecdcac-2169-4b4d-bd0a-6962a211807f {
        fill: #1c1d1e;
      }
    </style>
    <filter id="b931c75a-0d84-4832-afa2-43abc93f6d94" x="-15%" y="-15%" width="140%" height="130%" name="AI_Shadow_2">
      <feGaussianBlur result="blur" stdDeviation="14" in="SourceAlpha"/>
      <feOffset result="offsetBlurredAlpha" dy="10" in="blur"/>
      <feMerge>
        <feMergeNode in="offsetBlurredAlpha"/>
        <feMergeNode in="SourceGraphic"/>
      </feMerge>
    </filter>
  </defs>
  <g id="e4a9c5d2-85dd-40c4-a642-d1ef0534a14c" data-name="Layer 1">
    <rect class="bddc6302-b3f0-4525-8b95-278b91456f73" x="-0.25" y="-1.07" width="1151.02" height="445.06"/>
  </g>
  <g id="fddf4300-ef58-46a3-9c2a-8e2a2ba6ee30" data-name="Layer 4">
    <g class="b7bbb5f0-7247-43a1-bf96-60db1222ae23">
      <path class="aba87f49-d1c9-4550-aefe-35c2c378c3e6" d="M973.28-9.64c221.24,127.73,222.4,334.85,2.59,462.59s-577.37,127.74-798.6,0S-45.17,118.11,174.65-9.63,752-137.38,973.28-9.64Z"/>
    </g>
    <g class="f1a90c67-f1a7-41a8-b390-60653cff95ab">
      <path class="aba87f49-d1c9-4550-aefe-35c2c378c3e6" d="M873.24,48.5c165.63,95.62,166.5,250.68,1.94,346.32s-432.25,95.63-597.88,0-166.53-250.68-2-346.32S707.6-47.14,873.24,48.5Z"/>
    </g>
    <g class="f1a90c67-f1a7-41a8-b390-60653cff95ab">
      <path class="aba87f49-d1c9-4550-aefe-35c2c378c3e6" d="M766.69,110.42c106.4,61.43,107,161,1.24,222.48s-277.68,61.43-384.08,0-107-161-1.26-222.48S660.28,49,766.69,110.42Z"/>
    </g>
    <path class="a7ee3b1f-67ea-4cad-8f95-1bb4406e8800" d="M688.57,148.11c3.76,2.2,3.7,5.73-.11,7.9A15,15,0,0,1,675,156c-3.8-2.22-3.77-5.72,0-7.9A14.84,14.84,0,0,1,688.57,148.11Z"/>
    <path class="a7ee3b1f-67ea-4cad-8f95-1bb4406e8800" d="M562.18,282.76c3.79,2.24,3.76,5.78-.08,7.95a15.14,15.14,0,0,1-13.51,0c-3.78-2.21-3.74-5.75.07-7.91s9.79-2.15,13.43,0Z"/>
    <path class="a7ee3b1f-67ea-4cad-8f95-1bb4406e8800" d="M461.43,224.24c3.75,2.19,3.75,5.69.05,7.86a15,15,0,0,1-13.66,0l-.06,0c-3.67-2.16-3.64-5.7.09-7.83A15,15,0,0,1,461.43,224.24Z"/>
    <path class="a7ee3b1f-67ea-4cad-8f95-1bb4406e8800" d="M592,283.23l1.83,1c-4.25.44-8.52.56-12.74.87a7.5,7.5,0,0,1-4.48-.74,6,6,0,0,1-1.25-1c-3-2.9-6.27-5.69-9.52-8.5a7.21,7.21,0,0,0-1.12-.79,13.22,13.22,0,0,0-10.45-.69c-5.78,2.08-11.52,4.22-17.14,6.43a8,8,0,0,1-5.29.31q-22.38-5.31-39.28-15.09c-1.54-.88-3-1.8-4.51-2.74q-14.82-9.51-22.7-21.48c-.35-.53-.28-.91.24-1.38,3.86-3.43,7.7-6.89,11.51-10.34,2.54-2.3,2.08-4.77-1-6.52a12.5,12.5,0,0,0-1.9-.88q-7.81-2.91-15.62-5.82a4.76,4.76,0,0,1-.54-.24.77.77,0,0,1-.47-.84c.39-2.55.71-5.09,1.06-7.65,0-.22.14-.44.25-.83l1.28.74,66.1,38.17.36.2c2.52,1.46,2.24,1.16,4.54-.18q10.81-6.25,21.58-12.53c1.72-1,1.73-1.11,0-2.14l-6.07-3.51-12.15-7-1.2-.69,15.27-8.87,1,.61c4,2.28,7.87,4.59,11.83,6.88,2.47,1.42,5,2.84,7.49,4.23l.48.27c7.52,4.34,7.91,9.73,2.95,14.53-3.15,3-6.59,6-10,8.95s-6.25,6.07-6.78,9.7a15.21,15.21,0,0,0-.1,3.87c.22,1.88,1.53,3.48,3.9,4.85,5.22,3,10.36,5.93,15.48,8.9Q583.49,278.28,592,283.23Z"/>
    <g class="ab0cc3ce-4e97-4fae-bc51-e782cf8d6e0f">
      <path class="aba87f49-d1c9-4550-aefe-35c2c378c3e6" d="M711.54,132.49c75.75,43.73,76.15,114.65.88,158.38s-197.68,43.74-273.43,0-76.16-114.65-.89-158.39S635.78,88.75,711.54,132.49Z"/>
    </g>
    <path class="aba87f49-d1c9-4550-aefe-35c2c378c3e6" d="M715.76,129.57c78.1,45.09,78.51,118.21.92,163.3s-203.81,45.09-281.91,0-78.52-118.2-.93-163.3S637.66,84.48,715.76,129.57Z"/>
    <path class="f0ecdcac-2169-4b4d-bd0a-6962a211807f" d="M674.29,258.15c.83,2.1-1.53,3.45-5.16,3-3.84-.52-7.68-1-11.51-1.58a3.45,3.45,0,0,0-1.88.25c-1.48.54-1.81,1.24-1.68,2.23.27,2.05.32,4.11.44,6.18s-2.76,3.12-6,2.27c-3.62-1-7.24-1.91-10.85-2.89a3.51,3.51,0,0,0-1.82,0c-1.65.37-2.31,1-2.51,2-.4,2-1,4-1.6,6s-3.62,2.89-6.67,1.65c-3.29-1.34-6.53-2.73-9.82-4.06a4.26,4.26,0,0,0-1.55-.15c-1.87.08-2.73.74-3.29,1.75-1,1.87-2.31,3.71-3.5,5.55-1.34,2.1-4.48,2.49-7.17.94-2.86-1.78-5.52-3.41-8.15-5.06a3,3,0,0,0-1.68-.4,4.45,4.45,0,0,0-3.58,1.27c-1.81,1.85-3.79,3.64-5.74,5.44a5.64,5.64,0,0,1-6.14.48,4,4,0,0,1-.66-.48c-2.13-1.95-4.24-3.91-6.3-5.88a3.62,3.62,0,0,0-2-.78,5,5,0,0,0-3.38.72c-2.32,1.56-4.81,3-7.21,4.55a6,6,0,0,1-6.06.46,4,4,0,0,1-1.39-1.32c-1.35-2.07-2.72-4.14-4-6.23a1.38,1.38,0,0,0-.49-.47,3.92,3.92,0,0,0-1-.34,5.64,5.64,0,0,0-4,.38c-2.89,1.31-5.92,2.52-8.92,3.74a6.2,6.2,0,0,1-5.14-.14,2.46,2.46,0,0,1-1.17-1.35c-.71-2.34-1.37-4.68-2-7a1,1,0,0,0-.53-.61,6.22,6.22,0,0,0-4.83-.33c-3.12.92-6.36,1.71-9.57,2.55a6.6,6.6,0,0,1-4.79-.3,2.16,2.16,0,0,1-1.2-2c.12-2.29.25-4.57.37-6.86,0-.4-.34-.81-.9-1.13a4.72,4.72,0,0,0-2.79-.58L485,261.12a7,7,0,0,1-4.27-.53,1.86,1.86,0,0,1-.91-2.44c.87-2.23,1.76-4.45,2.69-6.67.2-.46,0-.76-.47-1.14a2.78,2.78,0,0,0-.56-.41,5.79,5.79,0,0,0-3.2-.54c-3.55.15-7.12.17-10.68.24a6.66,6.66,0,0,1-3.4-.69,1.69,1.69,0,0,1-.57-2.76c1.62-2.1,3.27-4.19,4.91-6.28.45-.58-.08-1.46-1-2a3.07,3.07,0,0,0-1.27-.41l-11.8-1.12a6.72,6.72,0,0,1-2.64-.73c-1.3-.75-1.45-1.93-.11-3,2.33-1.92,4.72-3.81,7-5.74a1,1,0,0,0,.27-.95,1.62,1.62,0,0,0-.88-1.2,6.37,6.37,0,0,0-2-.63c-3.31-.62-6.54-1.38-9.8-2.09a7.32,7.32,0,0,1-2.08-.74c-1.63-.94-1.49-2.33.64-3.47,2.8-1.51,5.57-3,8.4-4.53.69-.37.87-.73.83-1.26a1.65,1.65,0,0,0-.92-1.38,6,6,0,0,0-.93-.4c-3.29-1.08-6.49-2.27-9.7-3.44a6.29,6.29,0,0,1-.86-.4c-1.84-1.06-1.55-2.7.87-3.58,3.45-1.27,6.94-2.5,10.4-3.75a1.45,1.45,0,0,0,.45-2.58c-3-1.64-6.07-3.24-9.05-4.88-2-1.16-1.77-2.82.44-3.65a9,9,0,0,1,1.45-.38q5.48-1.2,11-2.37a1.65,1.65,0,0,0,1.16-.72c.71-.92.47-1.64-.65-2.46-2.26-1.65-4.33-3.39-6.42-5.11-1.88-1.55-.6-3.36,2.6-3.68,4-.41,8-.77,12-1.14a2.38,2.38,0,0,0,1.5-.59,1.48,1.48,0,0,0,.18-2.48c-1.62-1.81-3-3.7-4.46-5.55s.35-3.56,3.93-3.49l12.06.24c1.43,0,3.14-1.23,2.81-2-.94-2.28-1.89-4.57-2.82-6.86-.76-1.88,1.61-3.28,4.87-2.86q5.94.76,11.85,1.61a3.45,3.45,0,0,0,1.88-.24c1.48-.54,1.81-1.25,1.68-2.23-.27-2-.33-4.07-.45-6.11s2.68-3.19,6-2.33L515.87,142c1.33.35,3.82-.41,4-1.25.64-2.27,1.26-4.55,1.9-6.83.58-2,3.61-2.8,6.53-1.61,3.29,1.34,6.58,2.69,9.83,4.06a2.48,2.48,0,0,0,1.76.17,7.89,7.89,0,0,1,1.1-.19,1.85,1.85,0,0,0,1.62-.87c1.28-2.11,2.65-4.2,4-6.29s4.48-2.41,7.05-.93l1.63,1c.86.5,1.73,1,2.58,1.48a7.27,7.27,0,0,0,2,1.51c.69.4,1.39.8,2.11,1.18a3.83,3.83,0,0,0,1.47.33,4.22,4.22,0,0,0,3.73-1.3c1.77-1.83,3.75-3.59,5.68-5.37a5.64,5.64,0,0,1,6.14-.48,4,4,0,0,1,.66.48C581.85,129,584,131,586,132.92a3.14,3.14,0,0,0,.52.4,3.94,3.94,0,0,0,1.7.43,4.63,4.63,0,0,0,3.18-.68c2.36-1.56,4.88-3,7.3-4.59a6,6,0,0,1,6.09-.45,3.82,3.82,0,0,1,1.32,1.24c1.37,2.1,2.75,4.19,4.07,6.29a1.35,1.35,0,0,0,.5.48,3.83,3.83,0,0,0,1,.34,5.69,5.69,0,0,0,4-.39c2.88-1.31,5.92-2.51,8.91-3.73a6.16,6.16,0,0,1,5.14.13,2.5,2.5,0,0,1,1.18,1.36c.71,2.32,1.36,4.64,2,7a1.1,1.1,0,0,0,.58.68,6.16,6.16,0,0,0,4.68.36c3.17-.93,6.44-1.74,9.67-2.58a6.55,6.55,0,0,1,4.79.3,2.15,2.15,0,0,1,1.2,2q-.16,3.47-.4,6.92c0,.42.26.65.74,1a6,6,0,0,0,4.31.53c3.36-.53,6.76-1,10.15-1.41a6.85,6.85,0,0,1,4.17.54,1.86,1.86,0,0,1,.94,2.43c-.9,2.24-1.79,4.49-2.73,6.72-.18.45.06.73.47,1.09a3.15,3.15,0,0,0,.57.41,5.64,5.64,0,0,0,3.17.55c3.48-.15,7-.17,10.44-.24a7.34,7.34,0,0,1,3.73.7c1.11.64,1.35,1.66.44,2.84-1.59,2.06-3.18,4.12-4.82,6.16a.81.81,0,0,0,0,1.11,2.53,2.53,0,0,0,.88.81,6.1,6.1,0,0,0,2.65.63c3.45.24,6.89.63,10.32,1a7,7,0,0,1,2.82.77c1.3.75,1.42,1.91,0,3.06-2.29,1.9-4.64,3.79-7,5.66a.78.78,0,0,0-.3,1,2,2,0,0,0,1,1.23,6.77,6.77,0,0,0,2,.64c3.24.6,6.4,1.35,9.59,2a7.76,7.76,0,0,1,2.24.8c1.66.95,1.44,2.31-.81,3.52-2.8,1.51-5.58,3-8.39,4.53a1.08,1.08,0,0,0-.72,1,1.64,1.64,0,0,0,1,1.53,7.49,7.49,0,0,0,1.27.53c3.2,1,6.28,2.21,9.39,3.35a4.58,4.58,0,0,1,.8.37c1.79,1,1.56,2.69-.75,3.53q-5.13,1.88-10.33,3.7c-.7.25-1,.53-1.17,1-.26.85.11,1.43,1.07,2,3,1.53,5.55,3,8.15,4.34,2.78,1.61,2.09,3.46-1.4,4.21-3.65.79-7.29,1.59-11,2.37a1.85,1.85,0,0,0-1.33.78c-.67.92-.4,1.61.67,2.4,2.25,1.66,4.3,3.4,6.41,5.12,1.92,1.57.6,3.38-2.68,3.7q-5.94.59-11.9,1.13c-1.53.15-2.84,1.57-2.19,2.39,1.65,2.07,3.3,4.15,4.93,6.23s-.34,3.57-4,3.49l-11.83-.24c-1.59,0-3.28,1.19-2.9,2.1C672.46,253.71,673.4,255.93,674.29,258.15Zm-31.66-10A95.32,95.32,0,0,0,654,241.48c.54-.36.63-.66.31-1.12-2.22-3.26-4.39-6.52-6.57-9.79-1.92-2.86-.23-5.06,4.72-6.17l20.11-4.49c.71-.16,1.09-.36,1.28-.81q10.47-25-13.79-46.72a1.55,1.55,0,0,0-.33-.24,2.54,2.54,0,0,0-1.34-.29c-5.9-.06-11.8-.15-17.69-.22a11.73,11.73,0,0,1-5.63-1.26A3.74,3.74,0,0,1,632.9,167q.12-4.72.36-9.45a1,1,0,0,0-.57-1,2.72,2.72,0,0,0-.48-.22,147.48,147.48,0,0,0-37.27-8.67,170.67,170.67,0,0,0-23.33-.84l1.16.67,37.58,21.7q16.92,9.76,33.86,19.51a32,32,0,0,1,10,8.39c3.39,4.6,4.64,9.37,2.43,14.24-2.9,6.36-9.85,10.37-21.28,11.48a74.67,74.67,0,0,1-12.6.06c-2.58-.19-5.13-.45-7.81-.7.11.55.2,1.07.31,1.59.63,2.91.69,5.79-1,8.61a28.43,28.43,0,0,1-6.44,7,2.48,2.48,0,0,0-.86,3.34,8.82,8.82,0,0,0,3.71,3.62q.64.38,1.38.72a17.69,17.69,0,0,0,15.22.17c1.78-.79,3.34-1.75,4.95-2.66,2.14-1.21,2.24-1.23,4.37,0l6.08,3.51m-60.94,14c3.55-.26,7.14-.36,10.71-.53a7.35,7.35,0,0,0-1.53-1.09l-14.37-8.3q-6.46-3.73-13-7.45c-2-1.18-3.15-2.52-3.33-4.11a12.64,12.64,0,0,1,.08-3.25c.44-3.05,2.87-5.65,5.7-8.16s5.73-5,8.38-7.53c4.17-4,3.84-8.56-2.48-12.21l-.41-.23c-2.13-1.17-4.22-2.36-6.3-3.56-3.33-1.92-6.62-3.87-9.94-5.79l-.89-.51-12.84,7.46,1,.59,10.22,5.89,5.1,2.95c1.5.86,1.49,1,0,1.8L539.74,228.6c-1.94,1.13-1.7,1.37-3.83.15l-.29-.17L480,196.48l-1.07-.62c-.09.32-.18.51-.21.7-.3,2.14-.56,4.28-.89,6.43a.63.63,0,0,0,.4.7,2.4,2.4,0,0,0,.45.2l13.14,4.9a9.82,9.82,0,0,1,1.59.74c2.56,1.48,2.94,3.55.81,5.48q-4.82,4.37-9.68,8.7c-.44.4-.5.71-.2,1.16q6.64,10,19.08,18.06c1.24.79,2.51,1.57,3.8,2.31a121.87,121.87,0,0,0,33,12.69,6.63,6.63,0,0,0,4.45-.26c4.73-1.86,9.55-3.66,14.42-5.41a11.09,11.09,0,0,1,8.78.58,5.56,5.56,0,0,1,1,.67c2.73,2.35,5.5,4.7,8,7.14a5.33,5.33,0,0,0,1,.82,6.35,6.35,0,0,0,3.77.62m-91.52-85.72L510.35,188l44.77-26-9.92-5.73-3,4.45c-1.76,2.64-5.69,3.65-10.29,2.63-4.93-1.1-9.92-2.12-14.76-3.34a5.88,5.88,0,0,0-4.69.53,88.12,88.12,0,0,0-18,11.81c-1.51,1.32-2.9,2.68-4.32,4m83.2,11.93a3.4,3.4,0,0,0,.35.26l6.78,3.92,4.26,2.46c3.76,2.17,7.52,4.34,11.31,6.49a25.93,25.93,0,0,0,8.13,2.92c6.46,1.22,10.91-1.81,10.09-4.95a8.94,8.94,0,0,0-4.52-5.35l-8.57-5-13.75-7.93-.9-.52-13.18,7.66m-19.06,78.41a12.75,12.75,0,0,0,11.39.06c3.23-1.83,3.26-4.8.07-6.69l-.07,0a12.62,12.62,0,0,0-11.3,0c-3.2,1.82-3.23,4.8-.09,6.64M469.6,217.45a12.59,12.59,0,0,0,11.49,0c3.11-1.82,3.11-4.77,0-6.59a12.57,12.57,0,0,0-11.45-.06c-3.13,1.8-3.16,4.77-.07,6.59l.05,0m185.81-58.76a12.6,12.6,0,0,0-11.45.09c-3.08,1.81-3,4.78.09,6.58a12.61,12.61,0,0,0,11.47,0c3.13-1.84,3.11-4.77,0-6.59l-.06,0M524,149.19c-3.13,1.8-3.15,4.77,0,6.58a12.52,12.52,0,0,0,11.53,0c3.1-1.82,3.08-4.77,0-6.58a12.62,12.62,0,0,0-11.46,0M660.59,235a12.67,12.67,0,0,0,11.38.06c3.2-1.83,3.25-4.79.11-6.62a12.46,12.46,0,0,0-11.43-.07c-3.2,1.84-3.23,4.78-.06,6.63"/>
  </g>
</svg>
