<svg xmlns="http://www.w3.org/2000/svg" xmlns:xlink="http://www.w3.org/1999/xlink" width="1310.93" height="656.33" viewBox="0 0 1310.93 656.33">
  <defs>
    <style>
      .a774ca51-48eb-49f5-ad6a-c9e21e6862b0, .f906c692-76c1-40cc-af8c-fd0bc43a120b {
        fill: none;
      }

      .ea4785bd-9553-4e8a-8f4a-a05044eeae82 {
        fill: #dceaf4;
      }

      .b6795d3b-2fd2-4c4a-88a8-458c6bfcf8cf {
        fill: url(#e42c80fe-ca64-4ca0-a978-923e7fc5f469);
      }

      .eced8070-4f1c-4c0d-afae-d11e3bd49671 {
        fill: #f0f9ff;
      }

      .a1f61894-be21-4291-ba94-fde34d39b3af, .a774ca51-48eb-49f5-ad6a-c9e21e6862b0, .eced8070-4f1c-4c0d-afae-d11e3bd49671 {
        stroke: #1998ff;
      }

      .a1f61894-be21-4291-ba94-fde34d39b3af, .a774ca51-48eb-49f5-ad6a-c9e21e6862b0, .aeb3d6a2-cfe3-46cd-a457-b003a1952b11, .eced8070-4f1c-4c0d-afae-d11e3bd49671 {
        stroke-miterlimit: 10;
      }

      .a774ca51-48eb-49f5-ad6a-c9e21e6862b0, .eced8070-4f1c-4c0d-afae-d11e3bd49671 {
        stroke-width: 2px;
      }

      .a1f61894-be21-4291-ba94-fde34d39b3af {
        fill: #1998ff;
        stroke-width: 0.5px;
      }

      .aeb3d6a2-cfe3-46cd-a457-b003a1952b11 {
        fill: #75828e;
        stroke: #75828e;
        stroke-width: 0.3px;
      }
    </style>
    <pattern id="e42c80fe-ca64-4ca0-a978-923e7fc5f469" data-name="Docs Polka Background" width="60" height="60" patternTransform="translate(-80.88 1126.36) scale(0.87 0.65)" patternUnits="userSpaceOnUse" viewBox="0 0 60 60">
      <rect class="f906c692-76c1-40cc-af8c-fd0bc43a120b" width="60" height="60"/>
      <circle class="ea4785bd-9553-4e8a-8f4a-a05044eeae82" cx="30" cy="30" r="2.47"/>
    </pattern>
  </defs>
  <g id="b189208a-44ee-4100-bab7-3fdee76ba40d" data-name="Layer 2">
    <rect class="b6795d3b-2fd2-4c4a-88a8-458c6bfcf8cf" x="0.86" y="2.29" width="1308.59" height="651.58"/>
  </g>
  <g id="b32f3cea-8732-4937-9f69-85d219bf2f0e" data-name="Layer 1">
    <rect class="eced8070-4f1c-4c0d-afae-d11e3bd49671" x="561.41" y="58.24" width="179.18" height="58.78"/>
    <g>
      <path class="a1f61894-be21-4291-ba94-fde34d39b3af" d="M628.36,93.8h-2.42l-8.65-13.39a6.17,6.17,0,0,1-.53-1.06h-.07a18,18,0,0,1,.09,2.31V93.8h-2V77h2.55l8.42,13.18c.35.55.58.92.68,1.13h0a17.49,17.49,0,0,1-.12-2.48V77h2Z"/>
      <path class="a1f61894-be21-4291-ba94-fde34d39b3af" d="M637.52,94.08a5.58,5.58,0,0,1-4.25-1.68,6.22,6.22,0,0,1-1.58-4.46,6.49,6.49,0,0,1,1.65-4.72,6,6,0,0,1,4.46-1.7A5.38,5.38,0,0,1,642,83.17a6.55,6.55,0,0,1,1.51,4.59,6.44,6.44,0,0,1-1.63,4.6A5.68,5.68,0,0,1,637.52,94.08Zm.14-10.94a3.66,3.66,0,0,0-2.93,1.26,5.17,5.17,0,0,0-1.08,3.47,5,5,0,0,0,1.09,3.37,3.71,3.71,0,0,0,2.92,1.23,3.54,3.54,0,0,0,2.87-1.21,5.22,5.22,0,0,0,1-3.43,5.32,5.32,0,0,0-1-3.47A3.49,3.49,0,0,0,637.66,83.14Z"/>
      <path class="a1f61894-be21-4291-ba94-fde34d39b3af" d="M656.81,93.8h-1.92v-2h0a4.42,4.42,0,0,1-4.12,2.32,4.47,4.47,0,0,1-3.62-1.61,6.6,6.6,0,0,1-1.35-4.39,7.21,7.21,0,0,1,1.5-4.77,5,5,0,0,1,4-1.79,3.85,3.85,0,0,1,3.6,2h0V76h1.92Zm-1.92-5.42V86.61a3.43,3.43,0,0,0-1-2.46,3.21,3.21,0,0,0-2.44-1,3.34,3.34,0,0,0-2.77,1.29,5.64,5.64,0,0,0-1,3.56,5.14,5.14,0,0,0,1,3.28,3.17,3.17,0,0,0,2.6,1.2,3.3,3.3,0,0,0,2.61-1.16A4.37,4.37,0,0,0,654.89,88.38Z"/>
      <path class="a1f61894-be21-4291-ba94-fde34d39b3af" d="M670.35,88.28h-8.48a4.49,4.49,0,0,0,1.08,3.1,3.74,3.74,0,0,0,2.84,1.09,5.88,5.88,0,0,0,3.72-1.34v1.81a7,7,0,0,1-4.18,1.14,5.07,5.07,0,0,1-4-1.63,6.68,6.68,0,0,1-1.45-4.6,6.53,6.53,0,0,1,1.59-4.56,5.08,5.08,0,0,1,3.94-1.77A4.54,4.54,0,0,1,669.06,83a6.37,6.37,0,0,1,1.29,4.24Zm-2-1.63a3.91,3.91,0,0,0-.81-2.59,2.74,2.74,0,0,0-2.19-.92,3.09,3.09,0,0,0-2.31,1,4.39,4.39,0,0,0-1.17,2.54Z"/>
      <path class="a1f61894-be21-4291-ba94-fde34d39b3af" d="M689.45,93.8h-9.51V92.12h3.8V79.06l-3.89,1.16V78.39l5.81-1.77v15.5h3.79Z"/>
    </g>
    <rect class="eced8070-4f1c-4c0d-afae-d11e3bd49671" x="561.41" y="528.9" width="179.18" height="58.78"/>
    <g>
      <path class="a1f61894-be21-4291-ba94-fde34d39b3af" d="M628.36,564.46h-2.42l-8.65-13.39a6.17,6.17,0,0,1-.53-1.06h-.07a18,18,0,0,1,.09,2.31v12.14h-2v-16.8h2.55l8.42,13.18c.35.55.58.92.68,1.13h0a17.42,17.42,0,0,1-.12-2.47V547.66h2Z"/>
      <path class="a1f61894-be21-4291-ba94-fde34d39b3af" d="M637.52,564.75a5.59,5.59,0,0,1-4.25-1.69,6.21,6.21,0,0,1-1.58-4.46,6.49,6.49,0,0,1,1.65-4.72,6,6,0,0,1,4.46-1.7,5.35,5.35,0,0,1,4.19,1.66,6.51,6.51,0,0,1,1.51,4.58,6.44,6.44,0,0,1-1.63,4.6A5.69,5.69,0,0,1,637.52,564.75Zm.14-11a3.66,3.66,0,0,0-2.93,1.26,5.17,5.17,0,0,0-1.08,3.47,4.93,4.93,0,0,0,1.09,3.37,3.71,3.71,0,0,0,2.92,1.23,3.51,3.51,0,0,0,2.87-1.21,5.22,5.22,0,0,0,1-3.43,5.32,5.32,0,0,0-1-3.47A3.52,3.52,0,0,0,637.66,553.8Z"/>
      <path class="a1f61894-be21-4291-ba94-fde34d39b3af" d="M656.81,564.46h-1.92v-2h0a4.43,4.43,0,0,1-4.12,2.33,4.48,4.48,0,0,1-3.62-1.62,6.59,6.59,0,0,1-1.35-4.38,7.17,7.17,0,0,1,1.5-4.77,4.93,4.93,0,0,1,4-1.8,3.85,3.85,0,0,1,3.6,2h0V546.7h1.92ZM654.89,559v-1.77a3.43,3.43,0,0,0-1-2.46,3.24,3.24,0,0,0-2.44-1,3.34,3.34,0,0,0-2.77,1.29,5.66,5.66,0,0,0-1,3.56,5.12,5.12,0,0,0,1,3.28,3.17,3.17,0,0,0,2.6,1.2,3.3,3.3,0,0,0,2.61-1.16A4.37,4.37,0,0,0,654.89,559Z"/>
      <path class="a1f61894-be21-4291-ba94-fde34d39b3af" d="M670.35,558.94h-8.48A4.49,4.49,0,0,0,663,562a3.74,3.74,0,0,0,2.84,1.09,5.88,5.88,0,0,0,3.72-1.34v1.81a7,7,0,0,1-4.18,1.15,5.08,5.08,0,0,1-4-1.64,6.68,6.68,0,0,1-1.45-4.6,6.53,6.53,0,0,1,1.59-4.56,5.08,5.08,0,0,1,3.94-1.77,4.52,4.52,0,0,1,3.65,1.53,6.33,6.33,0,0,1,1.29,4.23Zm-2-1.62a3.9,3.9,0,0,0-.81-2.59,2.71,2.71,0,0,0-2.19-.93,3.09,3.09,0,0,0-2.31,1,4.39,4.39,0,0,0-1.17,2.55Z"/>
      <path class="a1f61894-be21-4291-ba94-fde34d39b3af" d="M689.72,548.27l-6.66,16.19h-2l6.29-15.07h-8.47v-1.73h10.83Z"/>
    </g>
    <rect class="eced8070-4f1c-4c0d-afae-d11e3bd49671" x="284.33" y="188.19" width="179.18" height="58.78"/>
    <g>
      <path class="a1f61894-be21-4291-ba94-fde34d39b3af" d="M351.28,223.75h-2.42l-8.65-13.39a5.57,5.57,0,0,1-.54-1.06h-.07a15.75,15.75,0,0,1,.1,2.31v12.14h-2V207h2.55l8.42,13.18c.35.55.58.92.68,1.13h0a19.69,19.69,0,0,1-.11-2.48V207h2Z"/>
      <path class="a1f61894-be21-4291-ba94-fde34d39b3af" d="M360.44,224a5.58,5.58,0,0,1-4.25-1.68,6.23,6.23,0,0,1-1.59-4.46,6.46,6.46,0,0,1,1.66-4.72,6,6,0,0,1,4.46-1.7,5.38,5.38,0,0,1,4.19,1.65,6.58,6.58,0,0,1,1.51,4.59,6.44,6.44,0,0,1-1.63,4.59A5.65,5.65,0,0,1,360.44,224Zm.14-10.94a3.66,3.66,0,0,0-2.93,1.26,5.17,5.17,0,0,0-1.08,3.47,5,5,0,0,0,1.09,3.37,3.71,3.71,0,0,0,2.92,1.23,3.54,3.54,0,0,0,2.87-1.21,5.29,5.29,0,0,0,1-3.43,5.37,5.37,0,0,0-1-3.47A3.49,3.49,0,0,0,360.58,213.09Z"/>
      <path class="a1f61894-be21-4291-ba94-fde34d39b3af" d="M379.73,223.75h-1.92v-2h-.05a4.84,4.84,0,0,1-7.74.71,6.62,6.62,0,0,1-1.35-4.39,7.21,7.21,0,0,1,1.5-4.77,5,5,0,0,1,4-1.79,3.85,3.85,0,0,1,3.6,1.95h.05V206h1.92Zm-1.92-5.42v-1.77a3.43,3.43,0,0,0-1-2.46,3.22,3.22,0,0,0-2.44-1,3.33,3.33,0,0,0-2.77,1.29,5.65,5.65,0,0,0-1,3.56,5.1,5.1,0,0,0,1,3.27,3.15,3.15,0,0,0,2.6,1.21,3.27,3.27,0,0,0,2.6-1.16A4.33,4.33,0,0,0,377.81,218.33Z"/>
      <path class="a1f61894-be21-4291-ba94-fde34d39b3af" d="M393.26,218.23h-8.47a4.49,4.49,0,0,0,1.08,3.1,3.74,3.74,0,0,0,2.83,1.09,5.89,5.89,0,0,0,3.73-1.34v1.8a6.92,6.92,0,0,1-4.18,1.15,5.07,5.07,0,0,1-4-1.63,6.68,6.68,0,0,1-1.45-4.6,6.57,6.57,0,0,1,1.59-4.57,5.1,5.1,0,0,1,3.94-1.76A4.52,4.52,0,0,1,392,213a6.36,6.36,0,0,1,1.29,4.23Zm-2-1.63a3.86,3.86,0,0,0-.8-2.59,2.76,2.76,0,0,0-2.2-.92,3.08,3.08,0,0,0-2.3,1,4.4,4.4,0,0,0-1.18,2.54Z"/>
      <path class="a1f61894-be21-4291-ba94-fde34d39b3af" d="M412.05,223.75H401.92V222l4.9-4.91A20.91,20.91,0,0,0,409.5,214a4.88,4.88,0,0,0,.8-2.67,2.94,2.94,0,0,0-.83-2.25,3.28,3.28,0,0,0-2.37-.8,6.31,6.31,0,0,0-4.31,1.93v-2a7.25,7.25,0,0,1,4.58-1.53,5,5,0,0,1,3.54,1.21,4.31,4.31,0,0,1,1.29,3.27,6.26,6.26,0,0,1-.89,3.16,19.66,19.66,0,0,1-3.2,3.83L404.23,222V222h7.82Z"/>
    </g>
    <rect class="eced8070-4f1c-4c0d-afae-d11e3bd49671" x="284.33" y="398.95" width="179.18" height="58.78"/>
    <g>
      <path class="a1f61894-be21-4291-ba94-fde34d39b3af" d="M351.28,434.51h-2.42l-8.65-13.39a5.8,5.8,0,0,1-.54-1.05h-.07a15.48,15.48,0,0,1,.1,2.3v12.14h-2v-16.8h2.55l8.42,13.18c.35.55.58.93.68,1.13h0a19.62,19.62,0,0,1-.11-2.47V417.71h2Z"/>
      <path class="a1f61894-be21-4291-ba94-fde34d39b3af" d="M360.44,434.8a5.55,5.55,0,0,1-4.25-1.69,6.2,6.2,0,0,1-1.59-4.45,6.48,6.48,0,0,1,1.66-4.73,6,6,0,0,1,4.46-1.7,5.35,5.35,0,0,1,4.19,1.66,6.55,6.55,0,0,1,1.51,4.58,6.46,6.46,0,0,1-1.63,4.6A5.69,5.69,0,0,1,360.44,434.8Zm.14-10.95a3.66,3.66,0,0,0-2.93,1.26,5.18,5.18,0,0,0-1.08,3.48,4.92,4.92,0,0,0,1.09,3.36,3.71,3.71,0,0,0,2.92,1.23,3.51,3.51,0,0,0,2.87-1.21,5.27,5.27,0,0,0,1-3.43,5.37,5.37,0,0,0-1-3.47A3.52,3.52,0,0,0,360.58,423.85Z"/>
      <path class="a1f61894-be21-4291-ba94-fde34d39b3af" d="M379.73,434.51h-1.92v-2h-.05a4.83,4.83,0,0,1-7.74.7,6.59,6.59,0,0,1-1.35-4.38,7.17,7.17,0,0,1,1.5-4.77,4.93,4.93,0,0,1,4-1.8,3.85,3.85,0,0,1,3.6,1.95h.05v-7.43h1.92Zm-1.92-5.42v-1.77a3.43,3.43,0,0,0-1-2.46,3.26,3.26,0,0,0-2.44-1,3.33,3.33,0,0,0-2.77,1.29,5.67,5.67,0,0,0-1,3.56,5.11,5.11,0,0,0,1,3.28,3.17,3.17,0,0,0,2.6,1.2,3.27,3.27,0,0,0,2.6-1.16A4.31,4.31,0,0,0,377.81,429.09Z"/>
      <path class="a1f61894-be21-4291-ba94-fde34d39b3af" d="M393.26,429h-8.47a4.48,4.48,0,0,0,1.08,3.09,3.7,3.7,0,0,0,2.83,1.09,5.89,5.89,0,0,0,3.73-1.34v1.81a7,7,0,0,1-4.18,1.15,5.08,5.08,0,0,1-4-1.64,6.68,6.68,0,0,1-1.45-4.6,6.53,6.53,0,0,1,1.59-4.56,5.08,5.08,0,0,1,3.94-1.77,4.49,4.49,0,0,1,3.64,1.53,6.33,6.33,0,0,1,1.29,4.23Zm-2-1.63a3.84,3.84,0,0,0-.8-2.59,2.74,2.74,0,0,0-2.2-.93,3.08,3.08,0,0,0-2.3,1,4.4,4.4,0,0,0-1.18,2.55Z"/>
      <path class="a1f61894-be21-4291-ba94-fde34d39b3af" d="M402.33,433.89v-2.07a6.11,6.11,0,0,0,3.89,1.36,4.2,4.2,0,0,0,2.81-.88,2.94,2.94,0,0,0,1.05-2.37q0-3.29-4.68-3.29H404V425h1.32c2.78,0,4.16-1,4.16-3.09s-1.05-2.86-3.17-2.86a5.41,5.41,0,0,0-3.34,1.2v-1.87a7.35,7.35,0,0,1,3.82-1,4.93,4.93,0,0,1,3.39,1.12,3.67,3.67,0,0,1,1.27,2.89,4.1,4.1,0,0,1-3.37,4.26v.05A4.53,4.53,0,0,1,411,427a3.77,3.77,0,0,1,1.07,2.74,4.59,4.59,0,0,1-1.62,3.65,6.41,6.41,0,0,1-4.29,1.39A7,7,0,0,1,402.33,433.89Z"/>
    </g>
    <rect class="eced8070-4f1c-4c0d-afae-d11e3bd49671" x="836.76" y="398.95" width="179.18" height="58.78"/>
    <g>
      <path class="a1f61894-be21-4291-ba94-fde34d39b3af" d="M903.7,434.51h-2.41l-8.65-13.39a5.57,5.57,0,0,1-.54-1.06H892a17.39,17.39,0,0,1,.1,2.31v12.14h-2v-16.8h2.55l8.42,13.18c.35.55.57.92.68,1.13h0a17.91,17.91,0,0,1-.11-2.48V417.71h2Z"/>
      <path class="a1f61894-be21-4291-ba94-fde34d39b3af" d="M912.87,434.79a5.57,5.57,0,0,1-4.25-1.68,6.21,6.21,0,0,1-1.59-4.46,6.49,6.49,0,0,1,1.65-4.72,6,6,0,0,1,4.47-1.7,5.39,5.39,0,0,1,4.19,1.65,6.59,6.59,0,0,1,1.5,4.59,6.47,6.47,0,0,1-1.62,4.6A5.68,5.68,0,0,1,912.87,434.79Zm.14-10.94a3.65,3.65,0,0,0-2.93,1.26,5.17,5.17,0,0,0-1.08,3.47,4.88,4.88,0,0,0,1.09,3.37,3.71,3.71,0,0,0,2.92,1.23,3.48,3.48,0,0,0,2.86-1.21,5.22,5.22,0,0,0,1-3.43,5.32,5.32,0,0,0-1-3.47A3.49,3.49,0,0,0,913,423.85Z"/>
      <path class="a1f61894-be21-4291-ba94-fde34d39b3af" d="M932.16,434.51h-1.92v-2h0a4.84,4.84,0,0,1-7.74.71,6.61,6.61,0,0,1-1.36-4.39,7.16,7.16,0,0,1,1.5-4.76,5,5,0,0,1,4-1.8,3.85,3.85,0,0,1,3.6,1.95h0v-7.43h1.92Zm-1.92-5.42v-1.77a3.44,3.44,0,0,0-1-2.46,3.22,3.22,0,0,0-2.43-1,3.31,3.31,0,0,0-2.77,1.29,5.67,5.67,0,0,0-1,3.56,5.13,5.13,0,0,0,1,3.28,3.16,3.16,0,0,0,2.6,1.2,3.27,3.27,0,0,0,2.6-1.16A4.33,4.33,0,0,0,930.24,429.09Z"/>
      <path class="a1f61894-be21-4291-ba94-fde34d39b3af" d="M945.69,429h-8.47a4.49,4.49,0,0,0,1.08,3.1,3.74,3.74,0,0,0,2.83,1.09,5.89,5.89,0,0,0,3.73-1.34v1.81a7,7,0,0,1-4.18,1.14,5.07,5.07,0,0,1-4-1.63,6.68,6.68,0,0,1-1.45-4.6,6.53,6.53,0,0,1,1.59-4.56,5.06,5.06,0,0,1,3.94-1.77,4.49,4.49,0,0,1,3.64,1.53,6.33,6.33,0,0,1,1.29,4.23Zm-2-1.62a3.84,3.84,0,0,0-.8-2.59,2.74,2.74,0,0,0-2.2-.93,3.12,3.12,0,0,0-2.31,1,4.46,4.46,0,0,0-1.17,2.55Z"/>
      <path class="a1f61894-be21-4291-ba94-fde34d39b3af" d="M964.17,417.91v1.81a6,6,0,0,0-2.74-.66,4.12,4.12,0,0,0-3.58,2,9.43,9.43,0,0,0-1.34,5.33h0A4,4,0,0,1,960.4,424a4.51,4.51,0,0,1,3.5,1.41,5.38,5.38,0,0,1,1.3,3.78,5.62,5.62,0,0,1-1.48,4,5,5,0,0,1-3.79,1.56,4.61,4.61,0,0,1-4-2,9.61,9.61,0,0,1-1.44-5.66,12,12,0,0,1,1.88-7.06,5.86,5.86,0,0,1,5-2.63A6.66,6.66,0,0,1,964.17,417.91ZM960,425.63a3.15,3.15,0,0,0-2.42,1,3.42,3.42,0,0,0-.92,2.38,4.69,4.69,0,0,0,.92,2.94,3.08,3.08,0,0,0,4.78.16,4,4,0,0,0,.9-2.69,4.17,4.17,0,0,0-.86-2.79A3,3,0,0,0,960,425.63Z"/>
    </g>
    <rect class="eced8070-4f1c-4c0d-afae-d11e3bd49671" x="838.26" y="188.19" width="179.18" height="58.78"/>
    <g>
      <path class="a1f61894-be21-4291-ba94-fde34d39b3af" d="M905.2,223.75h-2.41l-8.65-13.39a5.57,5.57,0,0,1-.54-1.06h-.07a15.75,15.75,0,0,1,.1,2.31v12.14h-2V207h2.55l8.42,13.18c.35.55.57.92.68,1.13h0a19.69,19.69,0,0,1-.11-2.48V207h2Z"/>
      <path class="a1f61894-be21-4291-ba94-fde34d39b3af" d="M914.37,224a5.58,5.58,0,0,1-4.25-1.68,6.21,6.21,0,0,1-1.59-4.46,6.46,6.46,0,0,1,1.66-4.72,6,6,0,0,1,4.46-1.7,5.38,5.38,0,0,1,4.19,1.65,6.6,6.6,0,0,1,1.51,4.59,6.48,6.48,0,0,1-1.63,4.6A5.68,5.68,0,0,1,914.37,224Zm.14-10.94a3.66,3.66,0,0,0-2.93,1.26,5.17,5.17,0,0,0-1.08,3.47,4.88,4.88,0,0,0,1.09,3.37,3.71,3.71,0,0,0,2.92,1.23,3.51,3.51,0,0,0,2.86-1.21,5.22,5.22,0,0,0,1-3.43,5.32,5.32,0,0,0-1-3.47A3.49,3.49,0,0,0,914.51,213.09Z"/>
      <path class="a1f61894-be21-4291-ba94-fde34d39b3af" d="M933.66,223.75h-1.92v-2h0a4.84,4.84,0,0,1-7.74.71A6.6,6.6,0,0,1,922.6,218a7.21,7.21,0,0,1,1.5-4.77,5,5,0,0,1,4-1.79,3.85,3.85,0,0,1,3.6,1.95h0V206h1.92Zm-1.92-5.42v-1.77a3.43,3.43,0,0,0-1-2.46,3.22,3.22,0,0,0-2.44-1,3.33,3.33,0,0,0-2.77,1.29,5.65,5.65,0,0,0-1,3.56,5.13,5.13,0,0,0,1,3.28,3.17,3.17,0,0,0,2.6,1.2,3.27,3.27,0,0,0,2.6-1.16A4.33,4.33,0,0,0,931.74,218.33Z"/>
      <path class="a1f61894-be21-4291-ba94-fde34d39b3af" d="M947.19,218.23h-8.47a4.49,4.49,0,0,0,1.08,3.1,3.74,3.74,0,0,0,2.83,1.09,5.89,5.89,0,0,0,3.73-1.34v1.81a7,7,0,0,1-4.18,1.14,5.07,5.07,0,0,1-4-1.63,6.68,6.68,0,0,1-1.45-4.6,6.53,6.53,0,0,1,1.59-4.56,5.06,5.06,0,0,1,3.94-1.77A4.49,4.49,0,0,1,945.9,213a6.33,6.33,0,0,1,1.29,4.23Zm-2-1.63a3.88,3.88,0,0,0-.8-2.59,2.76,2.76,0,0,0-2.2-.92,3.08,3.08,0,0,0-2.3,1,4.4,4.4,0,0,0-1.18,2.54Z"/>
      <path class="a1f61894-be21-4291-ba94-fde34d39b3af" d="M956.65,223.34v-2a6.35,6.35,0,0,0,3.5,1.12,4.09,4.09,0,0,0,2.88-1,3.47,3.47,0,0,0,1.08-2.67,3.18,3.18,0,0,0-1.11-2.58,4.84,4.84,0,0,0-3.19-.93c-.46,0-1.34.05-2.63.14V207h8.13v1.73H959v4.92c.52,0,1,0,1.43,0a6,6,0,0,1,4.18,1.35,4.79,4.79,0,0,1,1.47,3.71,5.14,5.14,0,0,1-1.59,3.93,6.1,6.1,0,0,1-4.35,1.48A6.93,6.93,0,0,1,956.65,223.34Z"/>
    </g>
    <g>
      <path class="aeb3d6a2-cfe3-46cd-a457-b003a1952b11" d="M1121.43,604.64h-5.81V593.43h1.31v10h4.5Z"/>
      <path class="aeb3d6a2-cfe3-46cd-a457-b003a1952b11" d="M1127.92,604.82a4.92,4.92,0,0,1-3.82-1.57,5.83,5.83,0,0,1-1.43-4.08,6.13,6.13,0,0,1,1.46-4.31,5.08,5.08,0,0,1,4-1.61,4.8,4.8,0,0,1,3.73,1.56,5.81,5.81,0,0,1,1.42,4.08,6.19,6.19,0,0,1-1.45,4.34A5,5,0,0,1,1127.92,604.82Zm.09-10.39a3.62,3.62,0,0,0-2.87,1.28,5.65,5.65,0,0,0,0,6.67,3.5,3.5,0,0,0,2.8,1.26,3.66,3.66,0,0,0,2.9-1.2,4.9,4.9,0,0,0,1.07-3.37,5.18,5.18,0,0,0-1-3.43A3.57,3.57,0,0,0,1128,594.43Z"/>
      <path class="aeb3d6a2-cfe3-46cd-a457-b003a1952b11" d="M1143.89,604.17a6.54,6.54,0,0,1-3.09.65,5,5,0,0,1-3.83-1.53,5.69,5.69,0,0,1-1.44-4,6,6,0,0,1,1.62-4.35,5.49,5.49,0,0,1,4.1-1.65,6.54,6.54,0,0,1,2.64.46v1.4a5.34,5.34,0,0,0-2.66-.68,4.09,4.09,0,0,0-3.13,1.29,4.86,4.86,0,0,0-1.19,3.45,4.61,4.61,0,0,0,1.12,3.26,3.79,3.79,0,0,0,2.94,1.21,5.52,5.52,0,0,0,2.92-.75Z"/>
      <path class="aeb3d6a2-cfe3-46cd-a457-b003a1952b11" d="M1155.64,604.64h-1.45L1153,601.5h-4.75l-1.12,3.14h-1.46l4.3-11.21h1.36Zm-3.07-4.32-1.76-4.78a5.52,5.52,0,0,1-.17-.75h0a3.75,3.75,0,0,1-.18.75l-1.74,4.78Z"/>
      <path class="aeb3d6a2-cfe3-46cd-a457-b003a1952b11" d="M1163.9,604.64h-5.81V593.43h1.31v10h4.5Z"/>
      <path class="aeb3d6a2-cfe3-46cd-a457-b003a1952b11" d="M1180.64,604.64H1179l-5.77-8.93a4.73,4.73,0,0,1-.36-.71h0a12.1,12.1,0,0,1,.06,1.54v8.1h-1.31V593.43h1.7l5.61,8.79q.35.56.45.75h0a12.07,12.07,0,0,1-.08-1.65v-7.89h1.32Z"/>
      <path class="aeb3d6a2-cfe3-46cd-a457-b003a1952b11" d="M1190.31,604.64h-5.94V593.43h5.69v1.19h-4.37v3.73h4v1.18h-4v3.92h4.62Z"/>
      <path class="aeb3d6a2-cfe3-46cd-a457-b003a1952b11" d="M1199.92,594.62h-3.23v10h-1.31v-10h-3.23v-1.19h7.77Z"/>
      <path class="aeb3d6a2-cfe3-46cd-a457-b003a1952b11" d="M1216.07,593.43l-3.17,11.21h-1.54l-2.3-8.19a5,5,0,0,1-.18-1.14h0a6,6,0,0,1-.2,1.12l-2.32,8.21h-1.53l-3.28-11.21H1203l2.38,8.6a5.82,5.82,0,0,1,.19,1.12h0a5.69,5.69,0,0,1,.24-1.12l2.47-8.6h1.26l2.38,8.66a6.5,6.5,0,0,1,.18,1h0a6.22,6.22,0,0,1,.21-1.08l2.29-8.63Z"/>
      <path class="aeb3d6a2-cfe3-46cd-a457-b003a1952b11" d="M1223.05,604.82a4.92,4.92,0,0,1-3.82-1.57,5.83,5.83,0,0,1-1.43-4.08,6.13,6.13,0,0,1,1.46-4.31,5.08,5.08,0,0,1,4-1.61,4.8,4.8,0,0,1,3.73,1.56,5.81,5.81,0,0,1,1.42,4.08,6.19,6.19,0,0,1-1.45,4.34A5,5,0,0,1,1223.05,604.82Zm.09-10.39a3.62,3.62,0,0,0-2.87,1.28,5.65,5.65,0,0,0,0,6.67,3.5,3.5,0,0,0,2.8,1.26,3.66,3.66,0,0,0,2.9-1.2,4.9,4.9,0,0,0,1.07-3.37,5.18,5.18,0,0,0-1-3.43A3.57,3.57,0,0,0,1223.14,594.43Z"/>
      <path class="aeb3d6a2-cfe3-46cd-a457-b003a1952b11" d="M1239.43,604.64h-1.57L1236,601.5a6.49,6.49,0,0,0-.5-.75,2.62,2.62,0,0,0-.5-.5,1.77,1.77,0,0,0-.54-.29,2.31,2.31,0,0,0-.67-.09h-1.07v4.77h-1.32V593.43h3.35a4.45,4.45,0,0,1,1.35.19,2.92,2.92,0,0,1,1.08.56,2.65,2.65,0,0,1,.72.93,3.13,3.13,0,0,1,.25,1.31,3,3,0,0,1-.17,1.07,2.87,2.87,0,0,1-.5.87,3.11,3.11,0,0,1-.78.66,4.1,4.1,0,0,1-1,.41v0a2.54,2.54,0,0,1,.49.29,2.33,2.33,0,0,1,.39.38,3.41,3.41,0,0,1,.37.5c.13.18.26.39.41.64Zm-6.72-10v4.06h1.78a2.94,2.94,0,0,0,.91-.14,2.16,2.16,0,0,0,.72-.43,2.09,2.09,0,0,0,.48-.68,2.37,2.37,0,0,0,.17-.9,1.77,1.77,0,0,0-.58-1.4,2.49,2.49,0,0,0-1.69-.51Z"/>
      <path class="aeb3d6a2-cfe3-46cd-a457-b003a1952b11" d="M1249.56,604.64h-1.83l-4.32-5.13a2,2,0,0,1-.3-.39h0v5.52h-1.32V593.43h1.32v5.27h0a2.24,2.24,0,0,1,.3-.38l4.18-4.89h1.64l-4.81,5.38Z"/>
    </g>
    <line class="a774ca51-48eb-49f5-ad6a-c9e21e6862b0" x1="929.19" y1="390.79" x2="929.19" y2="256.12"/>
    <polyline class="a774ca51-48eb-49f5-ad6a-c9e21e6862b0" points="746.55 557.22 828.79 557.22 921.72 464.3"/>
    <line class="a774ca51-48eb-49f5-ad6a-c9e21e6862b0" x1="374.24" y1="390.79" x2="374.24" y2="256.12"/>
    <polyline class="a774ca51-48eb-49f5-ad6a-c9e21e6862b0" points="556.4 557.22 474.15 557.22 381.23 464.3"/>
    <polyline class="a774ca51-48eb-49f5-ad6a-c9e21e6862b0" points="746.55 90.29 828.79 90.29 921.72 183.21"/>
    <polyline class="a774ca51-48eb-49f5-ad6a-c9e21e6862b0" points="835.7 430.13 753.46 430.13 542.3 218.3 464.99 218.3"/>
    <polyline class="a774ca51-48eb-49f5-ad6a-c9e21e6862b0" points="556.4 90.29 474.15 90.29 381.23 183.21"/>
    <polyline class="a774ca51-48eb-49f5-ad6a-c9e21e6862b0" points="464.99 430.13 547.24 430.13 758.39 218.3 835.7 218.3"/>
  </g>
</svg>
