<svg id="e53edb5b-29ab-4d01-8279-3c02819a56e9" data-name="Layer 1" xmlns="http://www.w3.org/2000/svg" width="1998" height="1080"><defs><style>.ffeb7e4f-f641-4e9f-b1e4-b615d1857fe1{fill:#cad2db}.ad3cc507-8a53-4014-9ed4-09078e5dba85,.bdb7dcc2-e25e-4128-b1fc-3042bf3a8359,.bf4d0c02-a1ed-4194-8428-218ea5ad62e2,.e0386d23-c780-4a1c-85ba-5ddf9445e2d4,.ffeb7e4f-f641-4e9f-b1e4-b615d1857fe1{stroke:#212a30}.a3cdad69-c647-473f-a525-cdcb6789eb8e,.a419439a-f75a-4b57-a743-67f7b0c33c44,.ad3cc507-8a53-4014-9ed4-09078e5dba85,.bdb7dcc2-e25e-4128-b1fc-3042bf3a8359,.bf4d0c02-a1ed-4194-8428-218ea5ad62e2,.e0386d23-c780-4a1c-85ba-5ddf9445e2d4,.ee3af412-f944-48fb-8bef-0215c61f87bb,.fec466d9-5d93-4506-9fdc-006c10bd7965,.ffeb7e4f-f641-4e9f-b1e4-b615d1857fe1{stroke-linecap:round;stroke-linejoin:round;stroke-width:2px}.ad3cc507-8a53-4014-9ed4-09078e5dba85{fill:#f0f3f7}.ee3af412-f944-48fb-8bef-0215c61f87bb{fill:#a6b0b8}.a3cdad69-c647-473f-a525-cdcb6789eb8e,.a419439a-f75a-4b57-a743-67f7b0c33c44,.ee3af412-f944-48fb-8bef-0215c61f87bb,.fec466d9-5d93-4506-9fdc-006c10bd7965{stroke:#202b30}.e0386d23-c780-4a1c-85ba-5ddf9445e2d4{fill:#80bced}.fec466d9-5d93-4506-9fdc-006c10bd7965{fill:#369aff}.bf4d0c02-a1ed-4194-8428-218ea5ad62e2{fill:#a8b2ba}.bdb7dcc2-e25e-4128-b1fc-3042bf3a8359{fill:#bddef4}.a3cdad69-c647-473f-a525-cdcb6789eb8e{fill:#0066ba}.a419439a-f75a-4b57-a743-67f7b0c33c44{fill:#eef1f5}</style></defs><path class="ffeb7e4f-f641-4e9f-b1e4-b615d1857fe1" d="M1513 645.38v12.15c0 9.3 6.14 18.61 18.45 25.72 24.61 14.21 64.51 14.21 89.12 0 12.29-7.11 18.45-16.42 18.45-25.72v-12.15z"/><path class="ad3cc507-8a53-4014-9ed4-09078e5dba85" d="M1531.42 669.42c24.61 14.21 64.51 14.21 89.12 0s24.61-37.25 0-51.46-64.51-14.2-89.12 0-24.61 37.25 0 51.46z"/><path class="ffeb7e4f-f641-4e9f-b1e4-b615d1857fe1" d="M1561.54 634.25l14.44 8.33V195.72l-14.44-8.33v446.86z"/><path class="ffeb7e4f-f641-4e9f-b1e4-b615d1857fe1" d="M1561.54 634.25l14.44 8.33v12l-14.44-8.34v-11.99z"/><path class="ee3af412-f944-48fb-8bef-0215c61f87bb" d="M1575.98 642.56l14.43-8.33V187.37l-14.43 8.34v446.85z"/><path class="ee3af412-f944-48fb-8bef-0215c61f87bb" d="M1575.98 642.56l14.43-8.33v12l-14.43 8.33v-12z"/><path class="e0386d23-c780-4a1c-85ba-5ddf9445e2d4" d="M934.15 385.69l30.26-17.18a5.09 5.09 0 016.56 1.35l35.87 52.33a3.41 3.41 0 01-1 5l-30.06 17.41a5.08 5.08 0 01-6.6-1.32l-36-52.57a3.42 3.42 0 01.97-5.02z"/><path class="fec466d9-5d93-4506-9fdc-006c10bd7965" d="M936.66 389.05l30.95-17.57 35.71 52.39-30.62 17.73-36.04-52.55z"/><path class="bf4d0c02-a1ed-4194-8428-218ea5ad62e2" d="M1101.81 764.26s0 6.15 7.55 11.7c1.08.79 2.52 1.77 4.06 2.75a106.11 106.11 0 0113.77 11.18 11.4 11.4 0 007.46 3.45c4.62.24 8.69-1.24 8.12-8.2 0-.47-.1-1.31-.19-2.15 0-.37-.09-.74-.14-1.12s-.38-13.4-.43-13.68c-.56 2.33-3.8-6.77-5.8-6.86-3-.14-2.61 7.08-4.66 5.17-3.68-3.49-7.62-1.89-17.73-7.06l-1.94-.31c-7.84-.92-9 1.67-9.84 4-.04.43-.18.8-.23 1.13zm-59.33 31.82s7.1-.68 9.48-.77c5.6-.21 17.83-3.71 21.65-1.07 4.35 3 14 5.52 14.13-2.59l5.52 1.78c.11 1.72.6 11.76.64 12.4a14.38 14.38 0 01-2 8.53c-3.66 5.77-18.36 2.41-24.86 1.1l-16.1-2.6c-7.07-1.43-11.69-6.4-13-10.7a5.54 5.54 0 014.54-6.08z"/><path class="bf4d0c02-a1ed-4194-8428-218ea5ad62e2" d="M1145.68 517.24l2.29 8.42a39 39 0 011.16 6.35 177.82 177.82 0 01.35 30.35l-1.63 22.1-5 181.7c.49 7.31-23.88 8-23.8-.72l-11.76-185.68-13.13 212.72c0 7.5-24.36 8.21-24.59-.83 0 0-8-216.16-8-250.09 0-33.33 42.82-17.48 42.82-18.5l-22.52-17.6zm-59.85-40.59s74.68 29.62 87 3.71c8.56-17.94-16.78-85.84-16.78-85.84l-6.09-8.88-19.5 3.95c-2.6.51-6-3.63-6-3.63 2.34 10.49 14.79 61.62 17.74 73.62.46 1.86-56.06 1.3-56.06 1.3 4.25 1.51 3.86 14.32-.31 15.77z"/><path class="ad3cc507-8a53-4014-9ed4-09078e5dba85" d="M1062.23 478.33c-1 20.75-2.26 52.26-1 55 6.61 13.76 89.46 10 90.54-10.64l-2.37-40.56a68.68 68.68 0 01.2-10.14l6.85-70.87c.6-17.73-12.61-26.7-25.85-27.36a30.44 30.44 0 00-12.94 2c-1 0-3.39-1.14-5.76-2.27s-4.56-2.12-5.14-1.83l-1.08.55-13.87 7.41-.43.19s-1.88 1.09-4.58 2.55a48.93 48.93 0 01-9.44 4.05l-18.14 57.25a131.29 131.29 0 013.01 34.67z"/><path class="ffeb7e4f-f641-4e9f-b1e4-b615d1857fe1" d="M990.14 445.82a16.92 16.92 0 01-3-.95c-.11-.05-12.31-16.56-14.62-15.11-2 1.24.42 5.32 2 7.58-2-2.7-6.28-8.18-9.69-10.3 0 0-9.42-8.44-6.29 5.3.45 2 7.07 13.66 9.66 16.19a75 75 0 0018.2 12.54c1.34.55 2.8 1.14 4.35 1.84l5.25-15.78c-1.93-.45-3.88-.84-5.86-1.31z"/><path class="ad3cc507-8a53-4014-9ed4-09078e5dba85" d="M1055.35 398.83c-9.82 17.08-17.7 56-20.69 62.76-.48 1.11-42.43-17.5-42.43-17.5-6.84 2.23-12.32 13.53-10.1 20.38 0 0 54.06 36.49 66.3 31.22 1.4-.62 3.22-2.6 5.33-5.56a59.49 59.49 0 009.2-20.73l20.28-85.21c-6.57 2.38-22.64 5.52-27.89 14.64z"/><path class="ffeb7e4f-f641-4e9f-b1e4-b615d1857fe1" d="M1123.51 383.63c0 6.51-10.61 11.84-23.73 11.84-11 0-20.38-4.17-22.93-9.27a50.2 50.2 0 0010-3.84c2.69-1.46 4.58-2.55 4.58-2.55l.43-.19 13.87-7.41a40.64 40.64 0 016.22 1.28 25.33 25.33 0 015.57 2.31c3.73 2.08 5.99 4.81 5.99 7.83zM1073 354.47c4 19.63 17 21.49 29.29 15.58 13.67-6.6 22-22.66 22.86-34.41 1.24-17.89-10-29.57-24.87-30.6-33.79-2.34-28.66 42.63-27.28 49.43z"/><path class="ffeb7e4f-f641-4e9f-b1e4-b615d1857fe1" d="M1116.85 345.19l-1.38 39c-.07 1.82-1.81 3.52-4.94 4.53-5.41 1.78-12.9 1-16.81-1.71-1.58-1.12-2.3-2.41-2.26-3.67l1.31-39z"/><path class="bf4d0c02-a1ed-4194-8428-218ea5ad62e2" d="M1101.29 330a20.25 20.25 0 01-16.74 8.26c-2-.07-3.86-4.89-6.35-7.72-1.62-1.85-4.08-1.75-5.08-2.64-4.39-3.9-5.07-18 4.74-23.65a38 38 0 0126-4.34c1 .18-5.29 3.2-4.49 3.83 7.63 5.84 8.51 17.6 1.92 26.26z"/><path class="ad3cc507-8a53-4014-9ed4-09078e5dba85" d="M1103.87 299.89c-14.17-1.29-25.78 10.37-25.81 27.54 0 1.06.07 2.07.14 3.09.7 9.82 4.88 17.93 13.94 27.5 4.37 4.61 9.08 7.41 13.6 8.42 8.71 1.95 18.68-4.53 22-16.7 1.83-6.4 17.36-46.12-23.87-49.85z"/><path class="ffeb7e4f-f641-4e9f-b1e4-b615d1857fe1" d="M1082.67 350.36c-3.26 4-3.77 9-1.16 11.12s7.38.56 10.63-3.46 3.77-9 1.16-11.12-7.38-.57-10.63 3.46z"/><path class="ffeb7e4f-f641-4e9f-b1e4-b615d1857fe1" d="M1058.24 314.84c2-9.38 17.13-14.15 33.91-10.68 11.52 2.39 20.79 8 24.85 14.4l1.2-.32 8.8 10.4a10 10 0 01-4.49 15.93 50.89 50.89 0 01-47-8l-5-3.81c-8.51-4.82-13.58-11.61-12.27-17.92z"/><path class="bf4d0c02-a1ed-4194-8428-218ea5ad62e2" d="M1066.56 318.27c-2.11 10.16 11.36 21.55 30.07 25.43a61.83 61.83 0 0012.17 1.3c8.36 0 15.63-1.86 20.28-5.2a12.33 12.33 0 005.27-7.48 34.62 34.62 0 00-26.87-40.92 35.22 35.22 0 00-5.13-.68 34.63 34.63 0 00-35.79 27.55z"/><path class="ffeb7e4f-f641-4e9f-b1e4-b615d1857fe1" d="M1111.61 341.64c-.1.48-.43 1.94-.74 3.17a1.37 1.37 0 001.35 1.71c6.75-.21 12.69-1.7 17-4.22a4.13 4.13 0 001.85-2.71c.19-.9.39-1.84.43-2.06a41.77 41.77 0 00-19.32-44.28 24.21 24.21 0 00-15.17-3.4 31.94 31.94 0 00-10.57 3c18.02 8.15 29.37 28.53 25.17 48.79z"/><path d="M1577.8 373.4s2.85 20.91-16.37 57.25m25.14-59.3s2.84 20.9-16.37 57.25" fill="none" stroke-linecap="round" stroke-linejoin="round" stroke-width="2" stroke="#212a30"/><path class="fec466d9-5d93-4506-9fdc-006c10bd7965" d="M1579.96 498.33l20.2-10.88v-48.53l-20.2 10.89v48.52z"/><path class="bdb7dcc2-e25e-4128-b1fc-3042bf3a8359" d="M1543.17 406l-20.19 10.88 56.98 32.91 20.2-10.89-56.99-32.9z"/><path class="e0386d23-c780-4a1c-85ba-5ddf9445e2d4" d="M1579.96 498.33l-56.98-32.9v-48.52l56.98 32.9v48.52z"/><path class="fec466d9-5d93-4506-9fdc-006c10bd7965" d="M1575.31 481.42l-6.61-3.82v-20.07l6.61 3.81v20.08z"/><path class="a3cdad69-c647-473f-a525-cdcb6789eb8e" d="M1559.81 451.84a6.08 6.08 0 01-2.74-4.74c0-1.75 1.23-2.46 2.74-1.58a6 6 0 012.74 4.74c0 1.74-1.23 2.45-2.74 1.58zm0 13.75a6 6 0 01-2.74-4.74c0-1.74 1.23-2.45 2.74-1.58a6.08 6.08 0 012.74 4.74c0 1.75-1.23 2.46-2.74 1.58zm0 13.76a6 6 0 01-2.74-4.74c0-1.75 1.23-2.45 2.74-1.58a6.06 6.06 0 012.74 4.74c0 1.75-1.23 2.45-2.74 1.58z"/><path class="fec466d9-5d93-4506-9fdc-006c10bd7965" d="M1545.77 454.33c0 4.84-3.4 6.8-7.6 4.38a16.77 16.77 0 01-7.6-13.16c0-4.84 3.4-6.81 7.6-4.38a16.77 16.77 0 017.6 13.16zM1723.64 489l9.4-4.93V223.08l-9.4 4.93V489z"/><path class="bdb7dcc2-e25e-4128-b1fc-3042bf3a8359" d="M1426.52 46l-9.39 4.93 306.51 176.96 9.4-4.93L1426.52 46z"/><path class="e0386d23-c780-4a1c-85ba-5ddf9445e2d4" d="M1723.64 489l-306.51-176.96V51.05l306.51 176.96V489z"/><path class="a419439a-f75a-4b57-a743-67f7b0c33c44" d="M1711.92 472.25l-283.06-163.43V67.8l283.06 163.42v241.03z"/><path class="ee3af412-f944-48fb-8bef-0215c61f87bb" d="M45.58 703.58l-15.1-8.71V369.63l15.1 8.72v325.23z"/><path class="ffeb7e4f-f641-4e9f-b1e4-b615d1857fe1" d="M45.58 379.55l433.29-250.18v123.08L45.58 502.63V379.55z"/><path class="a419439a-f75a-4b57-a743-67f7b0c33c44" d="M45.58 379.53l-15.1-8.72 433.3-250.16 15.09 8.72L45.58 379.53z"/><path class="ee3af412-f944-48fb-8bef-0215c61f87bb" d="M225.75 807.63L45.44 703.52V603.09l180.31 104.1v100.44zm0-100.46L45.44 603.07V502.63l180.31 104.11v100.43z"/><path class="ffeb7e4f-f641-4e9f-b1e4-b615d1857fe1" d="M182.96 658.63l-94.72-54.69v-52.77l94.72 54.7v52.76z"/><path class="a419439a-f75a-4b57-a743-67f7b0c33c44" d="M170.97 645.02l-70.74-40.84v-39.4l70.74 40.84v39.4z"/><path class="ffeb7e4f-f641-4e9f-b1e4-b615d1857fe1" d="M225.75 807.63l589.96-340.62V366.58L225.75 707.19v100.44z"/><path d="M343.46 693.82L698 489.12v-8.73L343.46 685.08v8.74zm0 20.74L698 509.86v-8.73l-354.54 204.7v8.73zm-83-7.17c0 4.53 3.18 6.37 7.11 4.1a15.74 15.74 0 007.11-12.31c0-4.53-3.19-6.37-7.11-4.1a15.68 15.68 0 00-7.11 12.31zm-6.55 57.42l41.03-23.69v-19.5l-41.03 23.68v19.51zm527.28-358.07a15.73 15.73 0 01-7.1 12.31c-3.93 2.27-7.11.43-7.11-4.1a15.68 15.68 0 017.11-12.31c3.91-2.27 7.1-.43 7.1 4.1zm3.19 51.85l-41.03 23.68v-19.51l41.03-23.68v19.51z" fill="#6f7a7f" stroke="#202b30" stroke-linecap="round" stroke-linejoin="round" stroke-width="2"/><path class="ffeb7e4f-f641-4e9f-b1e4-b615d1857fe1" d="M225.75 606.85l589.96-340.61v100.34L225.75 707.19V606.85z"/><path class="ee3af412-f944-48fb-8bef-0215c61f87bb" d="M659.05 457.03l122.15-70.52V286.17l-122.15 70.52v100.34z"/><path class="ffeb7e4f-f641-4e9f-b1e4-b615d1857fe1" d="M668.32 451.68l103.6-59.82V291.52l-103.6 59.82v100.34z"/><path class="a419439a-f75a-4b57-a743-67f7b0c33c44" d="M745.35 357c0 5.9 4.15 8.3 9.26 5.34s9.26-10.12 9.26-16-4.15-8.29-9.26-5.34-9.26 10.13-9.26 16zm-34.48 19.94c0 5.91 4.14 8.3 9.25 5.35s9.26-10.13 9.26-16-4.15-8.3-9.26-5.35-9.25 10.06-9.25 16zm-34.49 19.92c0 5.9 4.14 8.29 9.25 5.34s9.26-10.13 9.26-16-4.15-8.3-9.26-5.34-9.25 10.14-9.25 16z"/><path class="ffeb7e4f-f641-4e9f-b1e4-b615d1857fe1" d="M225.75 676.18l433.3-250.16V387.7l-433.3 250.17v38.31z"/><path class="ee3af412-f944-48fb-8bef-0215c61f87bb" d="M225.75 626.9l433.3-250.16v10.96l-433.3 250.17V626.9z"/><path class="a419439a-f75a-4b57-a743-67f7b0c33c44" d="M815.71 266.22l-180.3-104.1-156.67 90.45 180.31 104.1 156.66-90.45zM225.75 606.83l-180.3-104.1 433.29-250.16 180.31 104.1-433.3 250.16z"/><path class="ffeb7e4f-f641-4e9f-b1e4-b615d1857fe1" d="M176.64 578.48l-82.08-47.39 433.29-250.16 82.09 47.39-433.3 250.16z"/><path class="a419439a-f75a-4b57-a743-67f7b0c33c44" d="M160.98 569.44l-50.76-29.31 433.29-250.16 50.77 29.3-433.3 250.17z"/><path class="a419439a-f75a-4b57-a743-67f7b0c33c44" d="M143.68 559.45l433.29-250.16-16.16-9.33-433.29 250.16 16.16 9.33zm672.03-435.14l-180.3-104.1-156.67 90.46 180.31 104.09 156.66-90.45zm-156.66 90.45L478.74 110.67l-44.42 25.64 180.31 104.1 44.42-25.65z"/><path class="ee3af412-f944-48fb-8bef-0215c61f87bb" d="M434.32 136.32v141.89l180.31 104.11V240.43L434.32 136.32z"/><path class="ffeb7e4f-f641-4e9f-b1e4-b615d1857fe1" d="M815.71 266.22V124.33l-156.66 90.45v141.89l156.66-90.45zm-156.66 90.45V214.78l-44.42 25.65v141.89l44.42-25.65z"/><path class="ee3af412-f944-48fb-8bef-0215c61f87bb" d="M668.32 319.34l138.12-79.75v-55.11l-138.12 79.74v55.12zM732.35 190l72.04-41.59v19.22l-72.04 41.59V190z"/><path class="a419439a-f75a-4b57-a743-67f7b0c33c44" d="M695.14 276.29c0 9.82 6.89 13.79 15.39 8.89s15.39-16.84 15.39-26.66-6.89-13.79-15.39-8.88-15.39 16.84-15.39 26.65z"/><path class="ffeb7e4f-f641-4e9f-b1e4-b615d1857fe1" d="M763.24 181.77c0 3.27 2.3 4.6 5.13 3a11.36 11.36 0 005.13-8.89c0-3.27-2.3-4.59-5.13-3a11.35 11.35 0 00-5.13 8.89z"/><path class="ee3af412-f944-48fb-8bef-0215c61f87bb" d="M468.55 214.65l11.3 19 48.88 82.15 10.1 16.95 22.68-13.06 2-1.2c6.79-4.24 11.38-12.15 12.93-23a58.51 58.51 0 00.49-8 71.87 71.87 0 00-.49-8.62c-3.18-26.14-19.78-55-40.9-70.71a66.24 66.24 0 00-7.2-4.8 54.8 54.8 0 00-7.21-3.53c-10.45-4.24-19.85-4-27 .07v-.07z"/><path class="ffeb7e4f-f641-4e9f-b1e4-b615d1857fe1" d="M432.44 217.29l13.84 23.27 59.87 100.62L518.53 362l27.77-16 2.51-1.47c8.3-5.19 13.93-14.88 15.83-28.12a71.4 71.4 0 00.61-9.86 88 88 0 00-.61-10.56c-3.89-32-24.23-67.31-50.09-86.6a83.15 83.15 0 00-8.83-5.89 68.62 68.62 0 00-8.82-4.32c-12.81-5.19-24.32-4.93-33 .09v-.09z"/><path class="ee3af412-f944-48fb-8bef-0215c61f87bb" d="M416 255.25a84.91 84.91 0 00.68 10.6c3.82 32.06 24.2 67.35 50 86.65a86.34 86.34 0 008.84 5.88 68.43 68.43 0 008.85 4.33c25.84 10.51 46.23-1.26 50.05-28.9A67.56 67.56 0 00535 324a84.88 84.88 0 00-.67-10.6c-3.82-32-24.21-67.26-50.05-86.6a85.38 85.38 0 00-8.85-5.88 67.71 67.71 0 00-8.84-4.33c-25.77-10.47-46.15 1.3-50 28.85a67.51 67.51 0 00-.59 9.81z"/><path class="a419439a-f75a-4b57-a743-67f7b0c33c44" d="M396.78 460.54l72.79-42.03-125.61-72.52-72.79 42.02 125.61 72.53z"/><path class="ee3af412-f944-48fb-8bef-0215c61f87bb" d="M396.78 460.54v21.09L271.17 409.1v-21.08l125.61 72.52z"/><path class="ffeb7e4f-f641-4e9f-b1e4-b615d1857fe1" d="M396.78 481.63v-21.09l72.79-42.03v21.09l-72.79 42.03z"/><path class="a419439a-f75a-4b57-a743-67f7b0c33c44" d="M389.92 426.06l53.89-31.12-92.99-53.69-53.89 31.11 92.99 53.7z"/><path class="ee3af412-f944-48fb-8bef-0215c61f87bb" d="M389.93 426.06v15.61l-93-53.69v-15.61l93 53.69zm0 15.61v-15.61l53.89-31.12v15.62l-53.89 31.11z"/><path class="ffeb7e4f-f641-4e9f-b1e4-b615d1857fe1" d="M396.78 460.54l72.79-42.03v-99.37l-72.79 42.02v99.38z"/><path class="a419439a-f75a-4b57-a743-67f7b0c33c44" d="M420.64 415.53l25.08-14.48c4.65-2.68 8.42-9.89 8.42-16.09v-24.61c0-6.2-3.77-9.05-8.42-6.37l-25.08 14.48c-4.65 2.69-8.42 9.89-8.42 16.09v24.61c0 6.2 3.78 9.05 8.42 6.37zm-32.96-59.64l72.79-42.02 9.1 5.25-72.79 42.03-9.1-5.26z"/><path class="ee3af412-f944-48fb-8bef-0215c61f87bb" d="M387.68 455.28V355.9l9.1 5.26v99.38l-9.1-5.26zm-111.3-70.14L288.66 405l12.62-7.22.47-.28c1.45-.9 2.34-2.73 2.34-5.3 0-5.3-3.7-11.73-8.25-14.35-2.3-1.32-4.36-1.46-5.82-.62z"/><path class="ee3af412-f944-48fb-8bef-0215c61f87bb" d="M290.71 399.94c0 5.29-3.71 7.43-8.28 4.79s-8.29-9.07-8.29-14.35 3.71-7.43 8.29-4.79 8.28 9.07 8.28 14.35z"/><path class="a419439a-f75a-4b57-a743-67f7b0c33c44" d="M255.88 392.68l16.19 26.21 16.63-9.52.62-.37c1.92-1.17 3.09-3.59 3.09-7 0-7-4.88-15.46-10.88-18.92-3-1.73-5.75-1.92-7.66-.81z"/><path class="ee3af412-f944-48fb-8bef-0215c61f87bb" d="M274.78 412.19c0 7-4.89 9.78-10.92 6.3s-10.92-11.95-10.92-18.91 4.89-9.79 10.92-6.31 10.92 11.95 10.92 18.92z"/><path class="a419439a-f75a-4b57-a743-67f7b0c33c44" d="M216.14 542.74l77.63-44.82-89.68-51.78-77.63 44.82 89.68 51.78z"/><path class="ffeb7e4f-f641-4e9f-b1e4-b615d1857fe1" d="M216.14 542.67l77.63-44.81v24.44l-77.63 44.82v-24.45z"/><path class="ee3af412-f944-48fb-8bef-0215c61f87bb" d="M126.46 490.9l89.68 51.77v24.45l-89.68-51.77V490.9z"/><g style="isolation:isolate"><path class="a419439a-f75a-4b57-a743-67f7b0c33c44" d="M196.4 476.72l-18.49-10.74-7.23 11.95 18.49 10.74 7.23-11.95z"/><path class="ee3af412-f944-48fb-8bef-0215c61f87bb" d="M189.17 488.67l-18.49-10.74.08 29.31 18.49 10.75-.08-29.32zm7.19-26.57l-18.49-10.75.04 14.63 18.49 10.74-.04-14.62z"/><path class="a419439a-f75a-4b57-a743-67f7b0c33c44" d="M189.08 457.82l-18.49-10.75 7.28 4.28 18.49 10.75-7.28-4.28z"/><path class="ee3af412-f944-48fb-8bef-0215c61f87bb" d="M189.03 441.59l-18.48-10.74.04 16.22 18.49 10.75-.05-16.23z"/><path class="a419439a-f75a-4b57-a743-67f7b0c33c44" d="M274.33 392.34l-18.49-10.74-85.29 49.25 18.48 10.74 85.3-49.25z"/><path class="ffeb7e4f-f641-4e9f-b1e4-b615d1857fe1" d="M189.03 441.59l.05 16.23 7.28 4.28.04 14.62-7.23 11.95.08 29.32 62.41-36.04-.12-43.94 22.88-13.21-.09-32.46-85.3 49.25z"/></g><path class="fec466d9-5d93-4506-9fdc-006c10bd7965" d="M519.53 572.56l-21.08-12.17V460.06l21.08 12.17v100.33z"/><path class="bdb7dcc2-e25e-4128-b1fc-3042bf3a8359" d="M616.29 391.98l21.08 12.17-117.84 68.03-21.08-12.17 117.84-68.03z"/><path class="e0386d23-c780-4a1c-85ba-5ddf9445e2d4" d="M519.53 572.56l117.84-68.03V404.19l-117.84 68.04v100.33z"/><path class="fec466d9-5d93-4506-9fdc-006c10bd7965" d="M529.16 537.59l13.66-7.89v-41.51l-13.66 7.89v41.51z"/><path class="a3cdad69-c647-473f-a525-cdcb6789eb8e" d="M561.2 476.42a12.49 12.49 0 005.66-9.8c0-3.61-2.53-5.07-5.66-3.27a12.55 12.55 0 00-5.66 9.81c0 3.61 2.54 5.07 5.66 3.26zm0 28.45a12.49 12.49 0 005.66-9.8c0-3.61-2.53-5.08-5.66-3.27a12.51 12.51 0 00-5.66 9.8c0 3.61 2.54 5.07 5.66 3.27zm0 28.45a12.52 12.52 0 005.66-9.81c0-3.61-2.53-5.07-5.66-3.26a12.51 12.51 0 00-5.66 9.8c0 3.61 2.54 5.07 5.66 3.27z"/><path class="fec466d9-5d93-4506-9fdc-006c10bd7965" d="M590.24 481.57c0 10 7 14.08 15.71 9.07s15.71-17.19 15.71-27.21-7-14.08-15.71-9.07-15.71 17.19-15.71 27.21z"/></svg>