<svg id="b7265637-d786-49f1-872b-39188a32648c" data-name="Layer 1" xmlns="http://www.w3.org/2000/svg" width="1998" height="1080"><defs><style>.abbc32f5-6757-4e4c-8030-2416f2e156e3,.b383e1e5-0519-4637-b6e5-365cdf9fb2ee,.b45fff1b-b681-43fb-9f2e-255f1acb2006,.b6efb11f-7507-48ec-9dee-e9af2239a0f0,.bcb8d395-efde-481c-9c26-50e1e983c16e,.f7899ca6-6d5b-49a0-9b2a-39c113a852c1{stroke:#212a30}.f71f8094-1472-4dae-9f5c-02fad50245a5{stroke-miterlimit:10}.b45fff1b-b681-43fb-9f2e-255f1acb2006{stroke-width:3px}.f7899ca6-6d5b-49a0-9b2a-39c113a852c1{fill:#cad2db}.a7045913-e6d5-4c13-bafe-6027a68507e6,.abbc32f5-6757-4e4c-8030-2416f2e156e3,.b383e1e5-0519-4637-b6e5-365cdf9fb2ee,.b45fff1b-b681-43fb-9f2e-255f1acb2006,.b58f5bdc-97a9-4185-825d-b180b44c1a18,.b6efb11f-7507-48ec-9dee-e9af2239a0f0,.bcb8d395-efde-481c-9c26-50e1e983c16e,.e7589f42-19cc-4b8c-815c-d9c08b1c36bc,.eb10fc05-c1a4-4b32-b20d-a4c19c099cf7,.f7899ca6-6d5b-49a0-9b2a-39c113a852c1{stroke-linecap:round;stroke-linejoin:round}.a7045913-e6d5-4c13-bafe-6027a68507e6,.abbc32f5-6757-4e4c-8030-2416f2e156e3,.b383e1e5-0519-4637-b6e5-365cdf9fb2ee,.b58f5bdc-97a9-4185-825d-b180b44c1a18,.b6efb11f-7507-48ec-9dee-e9af2239a0f0,.bcb8d395-efde-481c-9c26-50e1e983c16e,.e7589f42-19cc-4b8c-815c-d9c08b1c36bc,.eb10fc05-c1a4-4b32-b20d-a4c19c099cf7,.f7899ca6-6d5b-49a0-9b2a-39c113a852c1{stroke-width:2px}.abbc32f5-6757-4e4c-8030-2416f2e156e3{fill:#f0f3f7}.a7045913-e6d5-4c13-bafe-6027a68507e6{fill:#a6b0b8;stroke:#202b30}.b58f5bdc-97a9-4185-825d-b180b44c1a18,.e7589f42-19cc-4b8c-815c-d9c08b1c36bc,.eb10fc05-c1a4-4b32-b20d-a4c19c099cf7{stroke:#202b30}.bcb8d395-efde-481c-9c26-50e1e983c16e{fill:#80bced}.eb10fc05-c1a4-4b32-b20d-a4c19c099cf7{fill:#369aff}.b383e1e5-0519-4637-b6e5-365cdf9fb2ee{fill:#a8b2ba}.b6efb11f-7507-48ec-9dee-e9af2239a0f0{fill:#bddef4}.e7589f42-19cc-4b8c-815c-d9c08b1c36bc{fill:#0066ba}.b58f5bdc-97a9-4185-825d-b180b44c1a18{fill:#eef1f5}.afc1d732-2336-4b2a-89dc-1b72f8dac8de,.b45fff1b-b681-43fb-9f2e-255f1acb2006{fill:#fff}.f71f8094-1472-4dae-9f5c-02fad50245a5{fill:#222226;stroke:#222226;stroke-width:.5px}.b61b020a-6108-418e-bf28-d5e3a0b6d48b{fill:#2d2d2d}</style></defs><path d="M528.34 424.87c-72.31 0-144.5 14.43-199.36 43.29-52.81 27.79-81.87 64.68-81.82 103.89 0 19.18 7 37.88 20.78 55.6 14.28 18.4 35.26 34.9 62.35 49.06 110.43 57.72 289.53 57.72 399.24 0 52.81-27.79 81.87-64.69 81.82-103.9 0-19.17-7-37.88-20.78-55.6-14.28-18.39-35.25-34.89-62.33-49.05-55.24-28.85-127.61-43.29-199.9-43.29zM1092.61 687c-51.18 0-102.27 10.21-141.1 30.64-37.37 19.66-57.94 45.78-57.9 73.52 0 13.57 5 26.81 14.71 39.36 10.1 13 24.95 24.69 44.12 34.71 78.16 40.85 204.91 40.85 282.55 0 37.38-19.66 58-45.78 57.91-73.53 0-13.57-5-26.81-14.7-39.35-10.11-13-25-24.69-44.12-34.71C1195 697.22 1143.77 687 1092.61 687zm481-135c-51.18 0-102.27 10.21-141.1 30.64-37.37 19.66-57.94 45.78-57.9 73.52 0 13.57 5 26.81 14.71 39.36 10.1 13 25 24.69 44.12 34.71 78.16 40.85 204.91 40.85 282.55 0 37.38-19.66 58-45.78 57.91-73.53 0-13.57-5-26.81-14.7-39.35-10.11-13-25-24.69-44.12-34.71C1676 562.22 1624.77 552 1573.61 552z" stroke-width="3" stroke-miterlimit="10" stroke="#212a30" fill="none"/><path class="f7899ca6-6d5b-49a0-9b2a-39c113a852c1" d="M1513 645.38v12.15c0 9.3 6.14 18.61 18.45 25.72 24.61 14.21 64.51 14.21 89.12 0 12.29-7.11 18.45-16.42 18.45-25.72v-12.15z"/><path class="abbc32f5-6757-4e4c-8030-2416f2e156e3" d="M1531.42 669.42c24.61 14.21 64.51 14.21 89.12 0s24.61-37.25 0-51.46-64.51-14.2-89.12 0-24.61 37.25 0 51.46z"/><path class="f7899ca6-6d5b-49a0-9b2a-39c113a852c1" d="M1561.54 634.25l14.44 8.33V195.72l-14.44-8.33v446.86z"/><path class="f7899ca6-6d5b-49a0-9b2a-39c113a852c1" d="M1561.54 634.25l14.44 8.33v12l-14.44-8.34v-11.99z"/><path class="a7045913-e6d5-4c13-bafe-6027a68507e6" d="M1575.98 642.56l14.43-8.33V187.37l-14.43 8.34v446.85z"/><path class="a7045913-e6d5-4c13-bafe-6027a68507e6" d="M1575.98 642.56l14.43-8.33v12l-14.43 8.33v-12z"/><path class="bcb8d395-efde-481c-9c26-50e1e983c16e" d="M934.15 385.69l30.26-17.18a5.09 5.09 0 016.56 1.35l35.87 52.33a3.41 3.41 0 01-1 5l-30.06 17.41a5.08 5.08 0 01-6.6-1.32l-36-52.57a3.42 3.42 0 01.97-5.02z"/><path class="eb10fc05-c1a4-4b32-b20d-a4c19c099cf7" d="M936.66 389.05l30.95-17.57 35.71 52.39-30.62 17.73-36.04-52.55z"/><path class="b383e1e5-0519-4637-b6e5-365cdf9fb2ee" d="M1101.81 764.26s0 6.15 7.55 11.7c1.08.79 2.52 1.77 4.06 2.75a106.11 106.11 0 0113.77 11.18 11.4 11.4 0 007.46 3.45c4.62.24 8.69-1.24 8.12-8.2 0-.47-.1-1.31-.19-2.15 0-.37-.09-.74-.14-1.12s-.38-13.4-.43-13.68c-.56 2.33-3.8-6.77-5.8-6.86-3-.14-2.61 7.08-4.66 5.17-3.68-3.49-7.62-1.89-17.73-7.06l-1.94-.31c-7.84-.92-9 1.67-9.84 4-.04.43-.18.8-.23 1.13zm-59.33 31.82s7.1-.68 9.48-.77c5.6-.21 17.83-3.71 21.65-1.07 4.35 3 14 5.52 14.13-2.59l5.52 1.78c.11 1.72.6 11.76.64 12.4a14.38 14.38 0 01-2 8.53c-3.66 5.77-18.36 2.41-24.86 1.1l-16.1-2.6c-7.07-1.43-11.69-6.4-13-10.7a5.54 5.54 0 014.54-6.08z"/><path class="b383e1e5-0519-4637-b6e5-365cdf9fb2ee" d="M1145.68 517.24l2.29 8.42a39 39 0 011.16 6.35 177.82 177.82 0 01.35 30.35l-1.63 22.1-5 181.7c.49 7.31-23.88 8-23.8-.72l-11.76-185.68-13.13 212.72c0 7.5-24.36 8.21-24.59-.83 0 0-8-216.16-8-250.09 0-33.33 42.82-17.48 42.82-18.5l-22.52-17.6zm-59.85-40.59s74.68 29.62 87 3.71c8.56-17.94-16.78-85.84-16.78-85.84l-6.09-8.88-19.5 3.95c-2.6.51-6-3.63-6-3.63 2.34 10.49 14.79 61.62 17.74 73.62.46 1.86-56.06 1.3-56.06 1.3 4.25 1.51 3.86 14.32-.31 15.77z"/><path class="abbc32f5-6757-4e4c-8030-2416f2e156e3" d="M1062.23 478.33c-1 20.75-2.26 52.26-1 55 6.61 13.76 89.46 10 90.54-10.64l-2.37-40.56a68.68 68.68 0 01.2-10.14l6.85-70.87c.6-17.73-12.61-26.7-25.85-27.36a30.44 30.44 0 00-12.94 2c-1 0-3.39-1.14-5.76-2.27s-4.56-2.12-5.14-1.83l-1.08.55-13.87 7.41-.43.19s-1.88 1.09-4.58 2.55a48.93 48.93 0 01-9.44 4.05l-18.14 57.25a131.29 131.29 0 013.01 34.67z"/><path class="f7899ca6-6d5b-49a0-9b2a-39c113a852c1" d="M990.14 445.82a16.92 16.92 0 01-3-.95c-.11-.05-12.31-16.56-14.62-15.11-2 1.24.42 5.32 2 7.58-2-2.7-6.28-8.18-9.69-10.3 0 0-9.42-8.44-6.29 5.3.45 2 7.07 13.66 9.66 16.19a75 75 0 0018.2 12.54c1.34.55 2.8 1.14 4.35 1.84l5.25-15.78c-1.93-.45-3.88-.84-5.86-1.31z"/><path class="abbc32f5-6757-4e4c-8030-2416f2e156e3" d="M1055.35 398.83c-9.82 17.08-17.7 56-20.69 62.76-.48 1.11-42.43-17.5-42.43-17.5-6.84 2.23-12.32 13.53-10.1 20.38 0 0 54.06 36.49 66.3 31.22 1.4-.62 3.22-2.6 5.33-5.56a59.49 59.49 0 009.2-20.73l20.28-85.21c-6.57 2.38-22.64 5.52-27.89 14.64z"/><path class="f7899ca6-6d5b-49a0-9b2a-39c113a852c1" d="M1123.51 383.63c0 6.51-10.61 11.84-23.73 11.84-11 0-20.38-4.17-22.93-9.27a50.2 50.2 0 0010-3.84c2.69-1.46 4.58-2.55 4.58-2.55l.43-.19 13.87-7.41a40.64 40.64 0 016.22 1.28 25.33 25.33 0 015.57 2.31c3.73 2.08 5.99 4.81 5.99 7.83zM1073 354.47c4 19.63 17 21.49 29.29 15.58 13.67-6.6 22-22.66 22.86-34.41 1.24-17.89-10-29.57-24.87-30.6-33.79-2.34-28.66 42.63-27.28 49.43z"/><path class="f7899ca6-6d5b-49a0-9b2a-39c113a852c1" d="M1116.85 345.19l-1.38 39c-.07 1.82-1.81 3.52-4.94 4.53-5.41 1.78-12.9 1-16.81-1.71-1.58-1.12-2.3-2.41-2.26-3.67l1.31-39z"/><path class="b383e1e5-0519-4637-b6e5-365cdf9fb2ee" d="M1101.29 330a20.25 20.25 0 01-16.74 8.26c-2-.07-3.86-4.89-6.35-7.72-1.62-1.85-4.08-1.75-5.08-2.64-4.39-3.9-5.07-18 4.74-23.65a38 38 0 0126-4.34c1 .18-5.29 3.2-4.49 3.83 7.63 5.84 8.51 17.6 1.92 26.26z"/><path class="abbc32f5-6757-4e4c-8030-2416f2e156e3" d="M1103.87 299.89c-14.17-1.29-25.78 10.37-25.81 27.54 0 1.06.07 2.07.14 3.09.7 9.82 4.88 17.93 13.94 27.5 4.37 4.61 9.08 7.41 13.6 8.42 8.71 1.95 18.68-4.53 22-16.7 1.83-6.4 17.36-46.12-23.87-49.85z"/><path class="f7899ca6-6d5b-49a0-9b2a-39c113a852c1" d="M1082.67 350.36c-3.26 4-3.77 9-1.16 11.12s7.38.56 10.63-3.46 3.77-9 1.16-11.12-7.38-.57-10.63 3.46z"/><path class="f7899ca6-6d5b-49a0-9b2a-39c113a852c1" d="M1058.24 314.84c2-9.38 17.13-14.15 33.91-10.68 11.52 2.39 20.79 8 24.85 14.4l1.2-.32 8.8 10.4a10 10 0 01-4.49 15.93 50.89 50.89 0 01-47-8l-5-3.81c-8.51-4.82-13.58-11.61-12.27-17.92z"/><path class="b383e1e5-0519-4637-b6e5-365cdf9fb2ee" d="M1066.56 318.27c-2.11 10.16 11.36 21.55 30.07 25.43a61.83 61.83 0 0012.17 1.3c8.36 0 15.63-1.86 20.28-5.2a12.33 12.33 0 005.27-7.48 34.62 34.62 0 00-26.87-40.92 35.22 35.22 0 00-5.13-.68 34.63 34.63 0 00-35.79 27.55z"/><path class="f7899ca6-6d5b-49a0-9b2a-39c113a852c1" d="M1111.61 341.64c-.1.48-.43 1.94-.74 3.17a1.37 1.37 0 001.35 1.71c6.75-.21 12.69-1.7 17-4.22a4.13 4.13 0 001.85-2.71c.19-.9.39-1.84.43-2.06a41.77 41.77 0 00-19.32-44.28 24.21 24.21 0 00-15.17-3.4 31.94 31.94 0 00-10.57 3c18.02 8.15 29.37 28.53 25.17 48.79z"/><path d="M1577.8 373.4s2.85 20.91-16.37 57.25m25.14-59.3s2.84 20.9-16.37 57.25" stroke-width="2" stroke-linecap="round" stroke-linejoin="round" stroke="#212a30" fill="none"/><path class="eb10fc05-c1a4-4b32-b20d-a4c19c099cf7" d="M1579.96 498.33l20.2-10.88v-48.53l-20.2 10.89v48.52z"/><path class="b6efb11f-7507-48ec-9dee-e9af2239a0f0" d="M1543.17 406l-20.19 10.88 56.98 32.91 20.2-10.89-56.99-32.9z"/><path class="bcb8d395-efde-481c-9c26-50e1e983c16e" d="M1579.96 498.33l-56.98-32.9v-48.52l56.98 32.9v48.52z"/><path class="eb10fc05-c1a4-4b32-b20d-a4c19c099cf7" d="M1575.31 481.42l-6.61-3.82v-20.07l6.61 3.81v20.08z"/><path class="e7589f42-19cc-4b8c-815c-d9c08b1c36bc" d="M1559.81 451.84a6.08 6.08 0 01-2.74-4.74c0-1.75 1.23-2.46 2.74-1.58a6 6 0 012.74 4.74c0 1.74-1.23 2.45-2.74 1.58zm0 13.75a6 6 0 01-2.74-4.74c0-1.74 1.23-2.45 2.74-1.58a6.08 6.08 0 012.74 4.74c0 1.75-1.23 2.46-2.74 1.58zm0 13.76a6 6 0 01-2.74-4.74c0-1.75 1.23-2.45 2.74-1.58a6.06 6.06 0 012.74 4.74c0 1.75-1.23 2.45-2.74 1.58z"/><path class="eb10fc05-c1a4-4b32-b20d-a4c19c099cf7" d="M1545.77 454.33c0 4.84-3.4 6.8-7.6 4.38a16.77 16.77 0 01-7.6-13.16c0-4.84 3.4-6.81 7.6-4.38a16.77 16.77 0 017.6 13.16zM1723.64 489l9.4-4.93V223.08l-9.4 4.93V489z"/><path class="b6efb11f-7507-48ec-9dee-e9af2239a0f0" d="M1426.52 46l-9.39 4.93 306.51 176.96 9.4-4.93L1426.52 46z"/><path class="bcb8d395-efde-481c-9c26-50e1e983c16e" d="M1723.64 489l-306.51-176.96V51.05l306.51 176.96V489z"/><path class="b58f5bdc-97a9-4185-825d-b180b44c1a18" d="M1711.92 472.25l-283.06-163.43V67.8l283.06 163.42v241.03z"/><path class="a7045913-e6d5-4c13-bafe-6027a68507e6" d="M45.58 703.58l-15.1-8.71V369.63l15.1 8.72v325.23z"/><path class="f7899ca6-6d5b-49a0-9b2a-39c113a852c1" d="M45.58 379.55l433.29-250.18v123.08L45.58 502.63V379.55z"/><path class="b58f5bdc-97a9-4185-825d-b180b44c1a18" d="M45.58 379.53l-15.1-8.72 433.3-250.16 15.09 8.72L45.58 379.53z"/><path class="a7045913-e6d5-4c13-bafe-6027a68507e6" d="M225.75 807.63L45.44 703.52V603.09l180.31 104.1v100.44zm0-100.46L45.44 603.07V502.63l180.31 104.11v100.43z"/><path class="f7899ca6-6d5b-49a0-9b2a-39c113a852c1" d="M182.96 658.63l-94.72-54.69v-52.77l94.72 54.7v52.76z"/><path class="b58f5bdc-97a9-4185-825d-b180b44c1a18" d="M170.97 645.02l-70.74-40.84v-39.4l70.74 40.84v39.4z"/><path class="f7899ca6-6d5b-49a0-9b2a-39c113a852c1" d="M225.75 807.63l589.96-340.62V366.58L225.75 707.19v100.44z"/><path d="M343.46 693.82L698 489.12v-8.73L343.46 685.08v8.74zm0 20.74L698 509.86v-8.73l-354.54 204.7v8.73zm-83-7.17c0 4.53 3.18 6.37 7.11 4.1a15.74 15.74 0 007.11-12.31c0-4.53-3.19-6.37-7.11-4.1a15.68 15.68 0 00-7.11 12.31zm-6.55 57.42l41.03-23.69v-19.5l-41.03 23.68v19.51zm527.28-358.07a15.73 15.73 0 01-7.1 12.31c-3.93 2.27-7.11.43-7.11-4.1a15.68 15.68 0 017.11-12.31c3.91-2.27 7.1-.43 7.1 4.1zm3.19 51.85l-41.03 23.68v-19.51l41.03-23.68v19.51z" fill="#6f7a7f" stroke="#202b30" stroke-width="2" stroke-linecap="round" stroke-linejoin="round"/><path class="f7899ca6-6d5b-49a0-9b2a-39c113a852c1" d="M225.75 606.85l589.96-340.61v100.34L225.75 707.19V606.85z"/><path class="a7045913-e6d5-4c13-bafe-6027a68507e6" d="M659.05 457.03l122.15-70.52V286.17l-122.15 70.52v100.34z"/><path class="f7899ca6-6d5b-49a0-9b2a-39c113a852c1" d="M668.32 451.68l103.6-59.82V291.52l-103.6 59.82v100.34z"/><path class="b58f5bdc-97a9-4185-825d-b180b44c1a18" d="M745.35 357c0 5.9 4.15 8.3 9.26 5.34s9.26-10.12 9.26-16-4.15-8.29-9.26-5.34-9.26 10.13-9.26 16zm-34.48 19.94c0 5.91 4.14 8.3 9.25 5.35s9.26-10.13 9.26-16-4.15-8.3-9.26-5.35-9.25 10.06-9.25 16zm-34.49 19.92c0 5.9 4.14 8.29 9.25 5.34s9.26-10.13 9.26-16-4.15-8.3-9.26-5.34-9.25 10.14-9.25 16z"/><path class="f7899ca6-6d5b-49a0-9b2a-39c113a852c1" d="M225.75 676.18l433.3-250.16V387.7l-433.3 250.17v38.31z"/><path class="a7045913-e6d5-4c13-bafe-6027a68507e6" d="M225.75 626.9l433.3-250.16v10.96l-433.3 250.17V626.9z"/><path class="b58f5bdc-97a9-4185-825d-b180b44c1a18" d="M815.71 266.22l-180.3-104.1-156.67 90.45 180.31 104.1 156.66-90.45zM225.75 606.83l-180.3-104.1 433.29-250.16 180.31 104.1-433.3 250.16z"/><path class="f7899ca6-6d5b-49a0-9b2a-39c113a852c1" d="M176.64 578.48l-82.08-47.39 433.29-250.16 82.09 47.39-433.3 250.16z"/><path class="b58f5bdc-97a9-4185-825d-b180b44c1a18" d="M160.98 569.44l-50.76-29.31 433.29-250.16 50.77 29.3-433.3 250.17z"/><path class="b58f5bdc-97a9-4185-825d-b180b44c1a18" d="M143.68 559.45l433.29-250.16-16.16-9.33-433.29 250.16 16.16 9.33zm672.03-435.14l-180.3-104.1-156.67 90.46 180.31 104.09 156.66-90.45zm-156.66 90.45L478.74 110.67l-44.42 25.64 180.31 104.1 44.42-25.65z"/><path class="a7045913-e6d5-4c13-bafe-6027a68507e6" d="M434.32 136.32v141.89l180.31 104.11V240.43L434.32 136.32z"/><path class="f7899ca6-6d5b-49a0-9b2a-39c113a852c1" d="M815.71 266.22V124.33l-156.66 90.45v141.89l156.66-90.45zm-156.66 90.45V214.78l-44.42 25.65v141.89l44.42-25.65z"/><path class="a7045913-e6d5-4c13-bafe-6027a68507e6" d="M668.32 319.34l138.12-79.75v-55.11l-138.12 79.74v55.12zM732.35 190l72.04-41.59v19.22l-72.04 41.59V190z"/><path class="b58f5bdc-97a9-4185-825d-b180b44c1a18" d="M695.14 276.29c0 9.82 6.89 13.79 15.39 8.89s15.39-16.84 15.39-26.66-6.89-13.79-15.39-8.88-15.39 16.84-15.39 26.65z"/><path class="f7899ca6-6d5b-49a0-9b2a-39c113a852c1" d="M763.24 181.77c0 3.27 2.3 4.6 5.13 3a11.36 11.36 0 005.13-8.89c0-3.27-2.3-4.59-5.13-3a11.35 11.35 0 00-5.13 8.89z"/><path class="a7045913-e6d5-4c13-bafe-6027a68507e6" d="M468.55 214.65l11.3 19 48.88 82.15 10.1 16.95 22.68-13.06 2-1.2c6.79-4.24 11.38-12.15 12.93-23a58.51 58.51 0 00.49-8 71.87 71.87 0 00-.49-8.62c-3.18-26.14-19.78-55-40.9-70.71a66.24 66.24 0 00-7.2-4.8 54.8 54.8 0 00-7.21-3.53c-10.45-4.24-19.85-4-27 .07v-.07z"/><path class="f7899ca6-6d5b-49a0-9b2a-39c113a852c1" d="M432.44 217.29l13.84 23.27 59.87 100.62L518.53 362l27.77-16 2.51-1.47c8.3-5.19 13.93-14.88 15.83-28.12a71.4 71.4 0 00.61-9.86 88 88 0 00-.61-10.56c-3.89-32-24.23-67.31-50.09-86.6a83.15 83.15 0 00-8.83-5.89 68.62 68.62 0 00-8.82-4.32c-12.81-5.19-24.32-4.93-33 .09v-.09z"/><path class="a7045913-e6d5-4c13-bafe-6027a68507e6" d="M416 255.25a84.91 84.91 0 00.68 10.6c3.82 32.06 24.2 67.35 50 86.65a86.34 86.34 0 008.84 5.88 68.43 68.43 0 008.85 4.33c25.84 10.51 46.23-1.26 50.05-28.9A67.56 67.56 0 00535 324a84.88 84.88 0 00-.67-10.6c-3.82-32-24.21-67.26-50.05-86.6a85.38 85.38 0 00-8.85-5.88 67.71 67.71 0 00-8.84-4.33c-25.77-10.47-46.15 1.3-50 28.85a67.51 67.51 0 00-.59 9.81z"/><path class="b58f5bdc-97a9-4185-825d-b180b44c1a18" d="M396.78 460.54l72.79-42.03-125.61-72.52-72.79 42.02 125.61 72.53z"/><path class="a7045913-e6d5-4c13-bafe-6027a68507e6" d="M396.78 460.54v21.09L271.17 409.1v-21.08l125.61 72.52z"/><path class="f7899ca6-6d5b-49a0-9b2a-39c113a852c1" d="M396.78 481.63v-21.09l72.79-42.03v21.09l-72.79 42.03z"/><path class="b58f5bdc-97a9-4185-825d-b180b44c1a18" d="M389.92 426.06l53.89-31.12-92.99-53.69-53.89 31.11 92.99 53.7z"/><path class="a7045913-e6d5-4c13-bafe-6027a68507e6" d="M389.93 426.06v15.61l-93-53.69v-15.61l93 53.69zm0 15.61v-15.61l53.89-31.12v15.62l-53.89 31.11z"/><path class="f7899ca6-6d5b-49a0-9b2a-39c113a852c1" d="M396.78 460.54l72.79-42.03v-99.37l-72.79 42.02v99.38z"/><path class="b58f5bdc-97a9-4185-825d-b180b44c1a18" d="M420.64 415.53l25.08-14.48c4.65-2.68 8.42-9.89 8.42-16.09v-24.61c0-6.2-3.77-9.05-8.42-6.37l-25.08 14.48c-4.65 2.69-8.42 9.89-8.42 16.09v24.61c0 6.2 3.78 9.05 8.42 6.37zm-32.96-59.64l72.79-42.02 9.1 5.25-72.79 42.03-9.1-5.26z"/><path class="a7045913-e6d5-4c13-bafe-6027a68507e6" d="M387.68 455.28V355.9l9.1 5.26v99.38l-9.1-5.26zm-111.3-70.14L288.66 405l12.62-7.22.47-.28c1.45-.9 2.34-2.73 2.34-5.3 0-5.3-3.7-11.73-8.25-14.35-2.3-1.32-4.36-1.46-5.82-.62z"/><path class="a7045913-e6d5-4c13-bafe-6027a68507e6" d="M290.71 399.94c0 5.29-3.71 7.43-8.28 4.79s-8.29-9.07-8.29-14.35 3.71-7.43 8.29-4.79 8.28 9.07 8.28 14.35z"/><path class="b58f5bdc-97a9-4185-825d-b180b44c1a18" d="M255.88 392.68l16.19 26.21 16.63-9.52.62-.37c1.92-1.17 3.09-3.59 3.09-7 0-7-4.88-15.46-10.88-18.92-3-1.73-5.75-1.92-7.66-.81z"/><path class="a7045913-e6d5-4c13-bafe-6027a68507e6" d="M274.78 412.19c0 7-4.89 9.78-10.92 6.3s-10.92-11.95-10.92-18.91 4.89-9.79 10.92-6.31 10.92 11.95 10.92 18.92z"/><path class="b58f5bdc-97a9-4185-825d-b180b44c1a18" d="M216.14 542.74l77.63-44.82-89.68-51.78-77.63 44.82 89.68 51.78z"/><path class="f7899ca6-6d5b-49a0-9b2a-39c113a852c1" d="M216.14 542.67l77.63-44.81v24.44l-77.63 44.82v-24.45z"/><path class="a7045913-e6d5-4c13-bafe-6027a68507e6" d="M126.46 490.9l89.68 51.77v24.45l-89.68-51.77V490.9z"/><g style="isolation:isolate"><path class="b58f5bdc-97a9-4185-825d-b180b44c1a18" d="M196.4 476.72l-18.49-10.74-7.23 11.95 18.49 10.74 7.23-11.95z"/><path class="a7045913-e6d5-4c13-bafe-6027a68507e6" d="M189.17 488.67l-18.49-10.74.08 29.31 18.49 10.75-.08-29.32zm7.19-26.57l-18.49-10.75.04 14.63 18.49 10.74-.04-14.62z"/><path class="b58f5bdc-97a9-4185-825d-b180b44c1a18" d="M189.08 457.82l-18.49-10.75 7.28 4.28 18.49 10.75-7.28-4.28z"/><path class="a7045913-e6d5-4c13-bafe-6027a68507e6" d="M189.03 441.59l-18.48-10.74.04 16.22 18.49 10.75-.05-16.23z"/><path class="b58f5bdc-97a9-4185-825d-b180b44c1a18" d="M274.33 392.34l-18.49-10.74-85.29 49.25 18.48 10.74 85.3-49.25z"/><path class="f7899ca6-6d5b-49a0-9b2a-39c113a852c1" d="M189.03 441.59l.05 16.23 7.28 4.28.04 14.62-7.23 11.95.08 29.32 62.41-36.04-.12-43.94 22.88-13.21-.09-32.46-85.3 49.25z"/></g><path class="eb10fc05-c1a4-4b32-b20d-a4c19c099cf7" d="M519.53 572.56l-21.08-12.17V460.06l21.08 12.17v100.33z"/><path class="b6efb11f-7507-48ec-9dee-e9af2239a0f0" d="M616.29 391.98l21.08 12.17-117.84 68.03-21.08-12.17 117.84-68.03z"/><path class="bcb8d395-efde-481c-9c26-50e1e983c16e" d="M519.53 572.56l117.84-68.03V404.19l-117.84 68.04v100.33z"/><path class="eb10fc05-c1a4-4b32-b20d-a4c19c099cf7" d="M529.16 537.59l13.66-7.89v-41.51l-13.66 7.89v41.51z"/><path class="e7589f42-19cc-4b8c-815c-d9c08b1c36bc" d="M561.2 476.42a12.49 12.49 0 005.66-9.8c0-3.61-2.53-5.07-5.66-3.27a12.55 12.55 0 00-5.66 9.81c0 3.61 2.54 5.07 5.66 3.26zm0 28.45a12.49 12.49 0 005.66-9.8c0-3.61-2.53-5.08-5.66-3.27a12.51 12.51 0 00-5.66 9.8c0 3.61 2.54 5.07 5.66 3.27zm0 28.45a12.52 12.52 0 005.66-9.81c0-3.61-2.53-5.07-5.66-3.26a12.51 12.51 0 00-5.66 9.8c0 3.61 2.54 5.07 5.66 3.27z"/><path class="eb10fc05-c1a4-4b32-b20d-a4c19c099cf7" d="M590.24 481.57c0 10 7 14.08 15.71 9.07s15.71-17.19 15.71-27.21-7-14.08-15.71-9.07-15.71 17.19-15.71 27.21z"/><rect class="b45fff1b-b681-43fb-9f2e-255f1acb2006" x="881.51" y="938.78" width="412.6" height="68.39" rx="5"/><path class="f71f8094-1472-4dae-9f5c-02fad50245a5" d="M940.61 973.11a17.13 17.13 0 01-1 6.06 14 14 0 01-3 4.75A13.28 13.28 0 01932 987a16.59 16.59 0 01-11.83 0 13.38 13.38 0 01-4.58-3.09 14 14 0 01-3-4.75 18 18 0 010-12.13 14.11 14.11 0 013-4.76 13.43 13.43 0 014.58-3.11 16.45 16.45 0 0111.83 0 13.33 13.33 0 014.58 3.11 14.14 14.14 0 013 4.76 17.15 17.15 0 011.03 6.08zm-4.08 0a15 15 0 00-.74-4.87 10.32 10.32 0 00-2.09-3.64 9.2 9.2 0 00-3.28-2.29 11.25 11.25 0 00-4.31-.8 11.12 11.12 0 00-4.29.8 9.24 9.24 0 00-3.29 2.29 10.35 10.35 0 00-2.11 3.64 16.33 16.33 0 000 9.72 10.31 10.31 0 002.11 3.63 9.09 9.09 0 003.29 2.28 11.3 11.3 0 004.29.79 11.45 11.45 0 004.31-.79 9.06 9.06 0 003.28-2.28 10.27 10.27 0 002.09-3.63 14.92 14.92 0 00.74-4.85zm8.95 14.69V967h2.09a1.15 1.15 0 01.82.23 1.42 1.42 0 01.31.78l.24 3.24a9.53 9.53 0 012.64-3.4 5.84 5.84 0 013.68-1.22 5.73 5.73 0 011.56.2 5.32 5.32 0 011.29.54l-.47 2.73a.61.61 0 01-.63.51 3.14 3.14 0 01-.89-.19 5.5 5.5 0 00-1.66-.2 4.71 4.71 0 00-3.19 1.11 8.31 8.31 0 00-2.14 3.22v13.25zm31.16 0a.93.93 0 01-1-.76l-.33-2.53a11 11 0 01-3.05 2.6 7.79 7.79 0 01-3.93 1 7.61 7.61 0 01-3.24-.68 6.8 6.8 0 01-2.48-2 9.54 9.54 0 01-1.58-3.33 17.07 17.07 0 01-.56-4.57 14.33 14.33 0 01.62-4.28 10.47 10.47 0 011.77-3.44 8.49 8.49 0 012.83-2.29 8.33 8.33 0 013.77-.83 7.52 7.52 0 013.26.65 7.68 7.68 0 012.42 1.81v-11.58h3.66v30.23zm-7.08-2.67a5.85 5.85 0 003.13-.82 9 9 0 002.47-2.32v-10A5.69 5.69 0 00973 970a6.42 6.42 0 00-2.66-.55 5.24 5.24 0 00-4.47 2.08 9.67 9.67 0 00-1.56 5.91 15.09 15.09 0 00.35 3.47 6.61 6.61 0 001 2.38 4.06 4.06 0 001.67 1.37 5.51 5.51 0 002.23.47zm23.62-18.45a9.28 9.28 0 013.45.63 7.79 7.79 0 012.72 1.8 8.19 8.19 0 011.8 2.92 11.24 11.24 0 01.65 4 2.42 2.42 0 01-.19 1.15.76.76 0 01-.7.28h-13.82a11.18 11.18 0 00.53 3.43 7.11 7.11 0 001.35 2.43 5.48 5.48 0 002 1.46 7.13 7.13 0 002.67.48 7.85 7.85 0 002.37-.32 11.05 11.05 0 001.71-.68c.48-.25.88-.48 1.21-.69a1.58 1.58 0 01.83-.32.79.79 0 01.69.35l1 1.33a6.76 6.76 0 01-1.62 1.43 10.23 10.23 0 01-2 1 12.84 12.84 0 01-2.23.59 13.49 13.49 0 01-2.28.19 10.5 10.5 0 01-4-.73 8.67 8.67 0 01-3.14-2.13 9.83 9.83 0 01-2.06-3.48 14.16 14.16 0 01-.74-4.76 12.22 12.22 0 01.67-4.06 9.68 9.68 0 011.92-3.27 8.71 8.71 0 013.06-2.18 10.1 10.1 0 014.15-.85zm.08 2.69a5.6 5.6 0 00-4.16 1.53 7.11 7.11 0 00-1.89 4.24h11.3a7.17 7.17 0 00-.35-2.33 5.1 5.1 0 00-1-1.83 4.6 4.6 0 00-1.65-1.19 5.58 5.58 0 00-2.25-.42zm13.19 18.43V967h2.1a1.16 1.16 0 01.82.23 1.42 1.42 0 01.31.78l.24 3.24a9.53 9.53 0 012.64-3.4 5.82 5.82 0 013.68-1.22 5.73 5.73 0 011.56.2 5.32 5.32 0 011.29.54l-.47 2.73a.62.62 0 01-.64.51 3.16 3.16 0 01-.88-.19 5.5 5.5 0 00-1.66-.2 4.7 4.7 0 00-3.19 1.11 8.31 8.31 0 00-2.14 3.22v13.25zm40-9.6c.15.37.29.73.43 1.1.13-.38.27-.75.42-1.1s.33-.7.52-1.05l10-18.08a1.21 1.21 0 01.55-.57 2.49 2.49 0 01.82-.11h2.94v29.41h-3.49v-22.53c0-.33 0-.67.06-1l-10.07 18.39a1.59 1.59 0 01-1.44.92h-.57a1.59 1.59 0 01-1.44-.92l-10.3-18.45q.06.54.09 1v22.59h-3.48v-29.41h2.93a2.49 2.49 0 01.82.11 1.16 1.16 0 01.55.57l10.16 18.1a7.53 7.53 0 01.5 1.03zm37.48 9.6h-1.62a1.9 1.9 0 01-.86-.17.88.88 0 01-.43-.7l-.41-1.92c-.55.49-1.08.93-1.6 1.32a9 9 0 01-1.65 1 8.37 8.37 0 01-1.83.61 10.34 10.34 0 01-2.17.2 7.48 7.48 0 01-2.26-.33 5.24 5.24 0 01-1.84-1 5 5 0 01-1.24-1.72 6 6 0 01-.46-2.46 4.59 4.59 0 01.67-2.38 6 6 0 012.19-2 14.2 14.2 0 013.95-1.45 26.73 26.73 0 016-.57v-1.63a5.65 5.65 0 00-1-3.68 3.73 3.73 0 00-3.07-1.25 6.4 6.4 0 00-2.24.34 8 8 0 00-1.58.75c-.45.28-.83.54-1.15.76a1.63 1.63 0 01-1 .34 1.07 1.07 0 01-.64-.19 1.44 1.44 0 01-.44-.48l-.66-1.17a11.91 11.91 0 013.72-2.49 11.55 11.55 0 014.41-.82 7.79 7.79 0 013.1.58 6.19 6.19 0 012.27 1.6 6.77 6.77 0 011.4 2.48 10.48 10.48 0 01.47 3.2zm-9.48-2.24a6.92 6.92 0 001.76-.2 6.78 6.78 0 001.51-.55 7.84 7.84 0 001.36-.87 11.35 11.35 0 001.26-1.17v-4.29a24.88 24.88 0 00-4.29.32 11.5 11.5 0 00-2.87.84 4 4 0 00-1.61 1.21 2.61 2.61 0 00-.51 1.57 3.48 3.48 0 00.27 1.43 2.64 2.64 0 001.79 1.53 4.7 4.7 0 001.33.18zm15.02 2.24V967h2.17a.94.94 0 011 .76l.28 2.26a11.75 11.75 0 013-2.42 7.86 7.86 0 013.87-.93 7.4 7.4 0 013 .57 5.75 5.75 0 012.18 1.6 7.06 7.06 0 011.32 2.49 10.9 10.9 0 01.45 3.22v13.25h-3.65v-13.24a5.64 5.64 0 00-1.07-3.66 4 4 0 00-3.3-1.3 6.16 6.16 0 00-3 .78 10 10 0 00-2.59 2.11v15.31zm38.08 0h-1.62a1.9 1.9 0 01-.86-.17.91.91 0 01-.43-.7l-.41-1.92c-.55.49-1.09.93-1.61 1.32a8.28 8.28 0 01-1.64 1 8.37 8.37 0 01-1.83.61 10.34 10.34 0 01-2.17.2 7.64 7.64 0 01-2.27-.33 5.28 5.28 0 01-1.83-1 5 5 0 01-1.24-1.72 6 6 0 01-.46-2.46 4.59 4.59 0 01.67-2.38 5.94 5.94 0 012.19-2 14.2 14.2 0 014-1.45 26.73 26.73 0 016-.57v-1.63a5.65 5.65 0 00-1-3.68 3.72 3.72 0 00-3.06-1.25 6.42 6.42 0 00-2.25.34 8 8 0 00-1.58.75c-.45.28-.83.54-1.15.76a1.63 1.63 0 01-1 .34 1.08 1.08 0 01-.65-.19 1.44 1.44 0 01-.44-.48l-.66-1.17a12 12 0 013.71-2.49 11.64 11.64 0 014.42-.82 7.71 7.71 0 013.09.58 6.15 6.15 0 012.28 1.6 6.77 6.77 0 011.4 2.48 10.48 10.48 0 01.47 3.2zm-9.48-2.24a6.92 6.92 0 001.76-.2 6.78 6.78 0 001.51-.55 8.23 8.23 0 001.36-.87 11.35 11.35 0 001.26-1.17v-4.29a24.88 24.88 0 00-4.29.32 11.5 11.5 0 00-2.87.84 4 4 0 00-1.61 1.21 2.6 2.6 0 00-.5 1.57 3.48 3.48 0 00.26 1.43 2.64 2.64 0 001.79 1.53 4.7 4.7 0 001.33.18zm22.02-18.9a10.26 10.26 0 012.53.3 8 8 0 012.14.87h5.65v1.36c0 .45-.29.73-.87.86l-2.35.33a6.79 6.79 0 01.11 5.73 6.15 6.15 0 01-1.62 2.12 7.39 7.39 0 01-2.47 1.36 10 10 0 01-3.12.47 10.57 10.57 0 01-2.75-.35 3.58 3.58 0 00-1 .91 1.75 1.75 0 00-.34 1 1.28 1.28 0 00.6 1.15 4.05 4.05 0 001.58.57 13.49 13.49 0 002.23.17h2.59a13.44 13.44 0 012.55.23 7.87 7.87 0 012.24.74 4 4 0 012.17 3.8 5.6 5.6 0 01-.66 2.62 7 7 0 01-1.92 2.25 9.71 9.71 0 01-3.06 1.58 12.87 12.87 0 01-4.08.6 15.74 15.74 0 01-4-.46 9.2 9.2 0 01-2.84-1.21 5.32 5.32 0 01-1.7-1.75 4.25 4.25 0 01-.56-2.09 3.76 3.76 0 011-2.62 6.67 6.67 0 012.68-1.71 3.62 3.62 0 01-1.4-1.1 3.14 3.14 0 01-.36-2.77 3.63 3.63 0 01.5-1 5.39 5.39 0 012-1.66 6.38 6.38 0 01-2.41-2.28 6.3 6.3 0 01-.87-3.34 6.41 6.41 0 01.58-2.76 6 6 0 011.63-2.11 7.6 7.6 0 012.5-1.35 10.29 10.29 0 013.1-.46zm6.48 22.19a1.84 1.84 0 00-.43-1.28 2.87 2.87 0 00-1.17-.74 9.09 9.09 0 00-1.7-.39 16.58 16.58 0 00-2-.12h-2.17a7.68 7.68 0 01-2.1-.32 5.86 5.86 0 00-1.9 1.36 2.72 2.72 0 00-.73 1.91 2.5 2.5 0 00.36 1.3 3 3 0 001.1 1 6.22 6.22 0 001.85.7 12 12 0 002.64.26 11.81 11.81 0 002.65-.27 6.65 6.65 0 002-.78 3.73 3.73 0 001.24-1.19 2.81 2.81 0 00.36-1.44zm-6.48-11.21a5.58 5.58 0 002-.31 3.85 3.85 0 001.43-.86 3.56 3.56 0 00.86-1.32 4.89 4.89 0 00.29-1.7 4 4 0 00-1.16-3 5.58 5.58 0 00-6.73 0 4 4 0 00-1.16 3 4.67 4.67 0 00.3 1.7 3.71 3.71 0 00.87 1.32 3.89 3.89 0 001.42.86 5.47 5.47 0 001.88.31zm22.2-10.96a9.19 9.19 0 013.44.63 7.74 7.74 0 012.73 1.8 8.19 8.19 0 011.8 2.92 11.25 11.25 0 01.64 4 2.45 2.45 0 01-.18 1.15.77.77 0 01-.7.28h-13.83a11.82 11.82 0 00.53 3.43 7 7 0 001.36 2.43 5.4 5.4 0 002.05 1.46 7.06 7.06 0 002.67.48 8 8 0 002.37-.32 11.93 11.93 0 001.71-.68q.72-.37 1.2-.69a1.62 1.62 0 01.83-.32.81.81 0 01.7.35l1 1.33a7 7 0 01-1.62 1.43 10.32 10.32 0 01-2 1 12.73 12.73 0 01-2.22.59 13.67 13.67 0 01-2.28.19 10.47 10.47 0 01-4-.73 8.59 8.59 0 01-3.14-2.13 9.83 9.83 0 01-2.06-3.48 14.16 14.16 0 01-.74-4.76 12 12 0 01.67-4.06 9.36 9.36 0 011.92-3.27 8.77 8.77 0 013-2.18 10.19 10.19 0 014.15-.85zm.08 2.69a5.6 5.6 0 00-4.17 1.53 7.23 7.23 0 00-1.89 4.24h11.31a7.45 7.45 0 00-.35-2.33 5.1 5.1 0 00-1-1.83 4.73 4.73 0 00-1.66-1.19 5.56 5.56 0 00-2.24-.42zm13.19 18.43V967h2.17a.94.94 0 011 .76l.27 2.13a10.55 10.55 0 012.57-2.31 6 6 0 013.32-.91 4.92 4.92 0 013.41 1.17 6.58 6.58 0 011.88 3.16 6.68 6.68 0 011.14-2 6.56 6.56 0 011.59-1.35 6.34 6.34 0 011.88-.78 8 8 0 012-.25 7.66 7.66 0 012.93.53 5.66 5.66 0 012.17 1.52 6.92 6.92 0 011.37 2.48 11.06 11.06 0 01.47 3.35v13.3h-3.65v-13.24a5.59 5.59 0 00-1.07-3.7 3.83 3.83 0 00-3.1-1.26 4.48 4.48 0 00-1.71.32 4.11 4.11 0 00-1.43.93 4.4 4.4 0 00-1 1.55 6 6 0 00-.36 2.16v13.24h-3.65v-13.24a5.81 5.81 0 00-1-3.73 3.57 3.57 0 00-2.93-1.23 4.59 4.59 0 00-2.51.73 8.18 8.18 0 00-2.13 2v15.5zm41.92-21.12a9.19 9.19 0 013.44.63 7.74 7.74 0 012.73 1.8 8.19 8.19 0 011.8 2.92 11.24 11.24 0 01.65 4 2.42 2.42 0 01-.19 1.15.77.77 0 01-.7.28h-13.83a11.48 11.48 0 00.54 3.43 7.11 7.11 0 001.35 2.43 5.48 5.48 0 002 1.46 7.13 7.13 0 002.67.48 7.85 7.85 0 002.37-.32 11.93 11.93 0 001.71-.68q.72-.37 1.2-.69a1.64 1.64 0 01.84-.32.79.79 0 01.69.35l1 1.33a6.76 6.76 0 01-1.62 1.43 10.51 10.51 0 01-2 1 12.84 12.84 0 01-2.23.59 13.58 13.58 0 01-2.28.19 10.5 10.5 0 01-4-.73 8.67 8.67 0 01-3.14-2.13 9.83 9.83 0 01-2.06-3.48 14.16 14.16 0 01-.74-4.76 12 12 0 01.67-4.06 9.36 9.36 0 011.92-3.27 8.71 8.71 0 013.06-2.18 10.1 10.1 0 014.15-.85zm.08 2.69a5.62 5.62 0 00-4.17 1.53 7.16 7.16 0 00-1.88 4.24h11.3a7.17 7.17 0 00-.35-2.33 5.1 5.1 0 00-1-1.83 4.6 4.6 0 00-1.65-1.19 5.61 5.61 0 00-2.25-.42zm13.19 18.43V967h2.18a.92.92 0 011 .76l.29 2.26a11.54 11.54 0 013-2.42 7.86 7.86 0 013.87-.93 7.45 7.45 0 013 .57 5.72 5.72 0 012.17 1.6 6.92 6.92 0 011.33 2.49 10.9 10.9 0 01.45 3.22v13.25h-3.65v-13.24a5.59 5.59 0 00-1.08-3.66 4 4 0 00-3.29-1.3 6.16 6.16 0 00-3 .78 10 10 0 00-2.6 2.11v15.31zm29.12.32a5 5 0 01-3.79-1.37 5.51 5.51 0 01-1.32-4v-12.68h-2.5a.83.83 0 01-.56-.2.75.75 0 01-.23-.6v-1.46l3.41-.43.84-6.42a.78.78 0 01.27-.5.84.84 0 01.57-.2h1.85v7.16h5.95v2.65h-5.95v12.47a2.62 2.62 0 00.64 2 2.19 2.19 0 001.64.64 2.71 2.71 0 001-.16 4.17 4.17 0 00.73-.33l.53-.34a.71.71 0 01.37-.16.63.63 0 01.52.35l1.06 1.75a6.55 6.55 0 01-2.27 1.38 7.65 7.65 0 01-2.76.45z"/><rect class="b45fff1b-b681-43fb-9f2e-255f1acb2006" x="372.01" y="773.78" width="364.6" height="68.39" rx="5"/><path class="f71f8094-1472-4dae-9f5c-02fad50245a5" d="M402.39 793.39h3.31a1.4 1.4 0 01.88.27 1.3 1.3 0 01.47.68l6.07 20.43c.11.37.21.77.3 1.19s.18.87.26 1.34c.09-.47.19-.92.29-1.35a10.53 10.53 0 01.32-1.18l6.92-20.43a1.51 1.51 0 01.48-.65 1.31 1.31 0 01.87-.3h1.15a1.33 1.33 0 01.87.27 1.46 1.46 0 01.49.68l6.87 20.43a21.15 21.15 0 01.66 2.44c.08-.45.15-.88.22-1.29a9.24 9.24 0 01.27-1.15l6.09-20.43a1.27 1.27 0 01.46-.66 1.37 1.37 0 01.88-.29h3.09l-9.17 29.41h-3.57l-7.45-22.43a13.83 13.83 0 01-.41-1.48c-.07.28-.13.54-.19.79a6.52 6.52 0 01-.2.69l-7.48 22.43h-3.58zm57.99 29.41h-1.62a2 2 0 01-.87-.17.93.93 0 01-.43-.7l-.41-1.92c-.54.49-1.08.93-1.6 1.32a8.57 8.57 0 01-1.64 1 8.46 8.46 0 01-1.84.61 10.31 10.31 0 01-2.16.2 7.6 7.6 0 01-2.27-.33 5.28 5.28 0 01-1.83-1 4.85 4.85 0 01-1.24-1.72 6 6 0 01-.47-2.46 4.6 4.6 0 01.68-2.38 5.94 5.94 0 012.19-2 14.25 14.25 0 013.94-1.45 26.76 26.76 0 016-.57v-1.63a5.65 5.65 0 00-1-3.68 3.73 3.73 0 00-3.07-1.25 6.32 6.32 0 00-2.24.34 8 8 0 00-1.58.75c-.45.28-.83.54-1.15.76a1.63 1.63 0 01-1 .34 1.07 1.07 0 01-.64-.19 1.34 1.34 0 01-.44-.48L445 805a12 12 0 013.71-2.49 11.62 11.62 0 014.41-.82 7.72 7.72 0 013.1.58 6.23 6.23 0 012.28 1.6 6.61 6.61 0 011.39 2.48 10.18 10.18 0 01.48 3.2zm-9.48-2.24a6.92 6.92 0 001.76-.2 6.78 6.78 0 001.51-.55 8.15 8.15 0 001.35-.87 11.42 11.42 0 001.27-1.17v-4.29a24.72 24.72 0 00-4.29.32 11.37 11.37 0 00-2.87.84 4.09 4.09 0 00-1.62 1.21 2.67 2.67 0 00-.5 1.57 3.48 3.48 0 00.27 1.43 2.65 2.65 0 001.78 1.53 4.77 4.77 0 001.34.18zm22.01-18.9a10.34 10.34 0 012.54.3 8.14 8.14 0 012.14.87h5.64v1.36c0 .45-.28.73-.86.86l-2.36.33a6.26 6.26 0 01.7 3 6.41 6.41 0 01-.59 2.76 6.15 6.15 0 01-1.62 2.12 7.34 7.34 0 01-2.46 1.36 10 10 0 01-3.13.47 10.62 10.62 0 01-2.75-.35 3.53 3.53 0 00-1 .91 1.68 1.68 0 00-.34 1 1.29 1.29 0 00.59 1.15 4.18 4.18 0 001.58.57 13.71 13.71 0 002.24.17h2.56a13.51 13.51 0 012.55.23 8 8 0 012.24.74 4 4 0 012.17 3.8 5.49 5.49 0 01-.67 2.62 6.88 6.88 0 01-1.91 2.25 9.82 9.82 0 01-3.06 1.58 13 13 0 01-4.08.6 15.74 15.74 0 01-4-.46 9.27 9.27 0 01-2.85-1.21 5.39 5.39 0 01-1.69-1.75 4.15 4.15 0 01-.56-2.09 3.76 3.76 0 011-2.62 6.6 6.6 0 012.68-1.71 3.73 3.73 0 01-1.41-1.1 3.24 3.24 0 01-.36-2.77 3.68 3.68 0 01.51-1 5.39 5.39 0 012-1.66 6.38 6.38 0 01-2.41-2.28 6.21 6.21 0 01-.88-3.34 6.41 6.41 0 01.59-2.76 6 6 0 011.63-2.11 7.65 7.65 0 012.49-1.35 10.33 10.33 0 013.14-.49zm6.49 22.19a1.88 1.88 0 00-.43-1.28 2.87 2.87 0 00-1.17-.74 9.2 9.2 0 00-1.71-.39 16.42 16.42 0 00-2-.12h-2.17a7.75 7.75 0 01-2.12-.28 5.82 5.82 0 00-1.89 1.36 2.72 2.72 0 00-.73 1.91 2.5 2.5 0 00.36 1.3 3 3 0 001.09 1 6.39 6.39 0 001.86.7 12 12 0 002.64.26 11.78 11.78 0 002.64-.27 6.65 6.65 0 002-.78 3.77 3.77 0 001.25-1.19 2.89 2.89 0 00.38-1.48zm-6.49-11.21a5.64 5.64 0 002-.31 3.93 3.93 0 001.43-.86 3.56 3.56 0 00.86-1.32 4.89 4.89 0 00.29-1.7 4 4 0 00-1.16-3 5.58 5.58 0 00-6.73 0 4 4 0 00-1.16 3 4.67 4.67 0 00.3 1.7 3.58 3.58 0 00.87 1.32 3.85 3.85 0 001.41.86 5.5 5.5 0 001.89.31zm22.39-10.96a10.79 10.79 0 014.11.76 8.74 8.74 0 013.12 2.16 9.61 9.61 0 012 3.37 14.57 14.57 0 010 8.86 9.66 9.66 0 01-2 3.36 8.57 8.57 0 01-3.12 2.14 11.66 11.66 0 01-8.23 0 8.78 8.78 0 01-3.13-2.14 9.7 9.7 0 01-2-3.36 14.57 14.57 0 010-8.86 9.65 9.65 0 012-3.37 9 9 0 013.13-2.16 10.84 10.84 0 014.12-.76zm0 18.55a5.33 5.33 0 004.59-2.06 11.71 11.71 0 000-11.54 5.32 5.32 0 00-4.59-2.07 6.3 6.3 0 00-2.71.53 5 5 0 00-1.92 1.54 6.8 6.8 0 00-1.15 2.47 14.61 14.61 0 000 6.62 6.71 6.71 0 001.15 2.45 5.14 5.14 0 001.92 1.53 6.45 6.45 0 002.71.53zm43.62-3.51a.81.81 0 01.59.27l1.56 1.7a12.6 12.6 0 01-4.38 3.27 15.06 15.06 0 01-6.21 1.16 14.6 14.6 0 01-5.76-1.09 12.71 12.71 0 01-4.41-3.08 13.83 13.83 0 01-2.83-4.75 17.77 17.77 0 01-1-6.09 16.67 16.67 0 011.08-6.1 14 14 0 013-4.76 13.66 13.66 0 014.67-3.09 16 16 0 016-1.09 13.33 13.33 0 019.77 3.73l-1.29 1.83a1.47 1.47 0 01-.33.33.88.88 0 01-.53.14 1.06 1.06 0 01-.57-.2l-.71-.48c-.27-.19-.59-.4-1-.62a9.52 9.52 0 00-1.31-.61 11.22 11.22 0 00-1.77-.48 12.23 12.23 0 00-2.32-.2 11.23 11.23 0 00-4.32.81 9.65 9.65 0 00-3.37 2.31 10.68 10.68 0 00-2.21 3.65 14.14 14.14 0 00-.79 4.83 14.35 14.35 0 00.79 4.9 10.82 10.82 0 002.16 3.64 9.07 9.07 0 003.23 2.27 10.29 10.29 0 004 .78 15.27 15.27 0 002.36-.16 9.5 9.5 0 001.94-.48 8 8 0 001.66-.83 12.25 12.25 0 001.55-1.2 1.07 1.07 0 01.75-.31zm15.22-15.04a10.84 10.84 0 014.12.76 8.7 8.7 0 013.11 2.16 9.32 9.32 0 012 3.37 14.57 14.57 0 010 8.86 9.36 9.36 0 01-2 3.36 8.53 8.53 0 01-3.11 2.14 11.66 11.66 0 01-8.23 0 8.6 8.6 0 01-3.13-2.14 9.55 9.55 0 01-2-3.36 14.37 14.37 0 010-8.86 9.5 9.5 0 012-3.37 8.78 8.78 0 013.13-2.16 10.75 10.75 0 014.11-.76zm0 18.55a5.35 5.35 0 004.6-2.06 11.71 11.71 0 000-11.54 5.33 5.33 0 00-4.6-2.07 6.33 6.33 0 00-2.71.53 5 5 0 00-1.91 1.54 6.64 6.64 0 00-1.15 2.47 14.61 14.61 0 000 6.62 6.55 6.55 0 001.15 2.45 5.19 5.19 0 001.91 1.53 6.49 6.49 0 002.71.53zm14.41 2.57V802h2.17a.94.94 0 011 .76L572 805a11.58 11.58 0 013-2.42 7.8 7.8 0 013.87-.93 7.43 7.43 0 013 .57 5.75 5.75 0 012.18 1.6 7.06 7.06 0 011.32 2.49 10.9 10.9 0 01.45 3.22v13.27h-3.65v-13.24a5.59 5.59 0 00-1.08-3.66 4 4 0 00-3.29-1.3 6.16 6.16 0 00-3 .78 10 10 0 00-2.59 2.11v15.31zm22.81 0V802h2.18a.93.93 0 011 .76l.29 2.26a11.54 11.54 0 013-2.42 7.86 7.86 0 013.87-.93 7.45 7.45 0 013 .57 5.72 5.72 0 012.17 1.6 7.08 7.08 0 011.33 2.49 10.9 10.9 0 01.45 3.22v13.25H605v-13.24a5.59 5.59 0 00-1.08-3.66 4 4 0 00-3.29-1.3 6.16 6.16 0 00-3 .78 10 10 0 00-2.6 2.11v15.31zm31.05-21.12a9.19 9.19 0 013.44.63 7.83 7.83 0 012.73 1.8 8.19 8.19 0 011.8 2.92 11.25 11.25 0 01.64 4 2.45 2.45 0 01-.18 1.15.77.77 0 01-.7.28h-13.83a11.48 11.48 0 00.54 3.43 6.79 6.79 0 001.35 2.43 5.4 5.4 0 002 1.46 7.06 7.06 0 002.67.48 8 8 0 002.37-.32 11.93 11.93 0 001.71-.68q.72-.37 1.2-.69a1.62 1.62 0 01.83-.32.81.81 0 01.7.35l1 1.33a7 7 0 01-1.62 1.43 10.32 10.32 0 01-2 1 12.73 12.73 0 01-2.22.59 13.67 13.67 0 01-2.28.19 10.47 10.47 0 01-4-.73 8.59 8.59 0 01-3.14-2.13 9.83 9.83 0 01-2.06-3.48 14.16 14.16 0 01-.74-4.76 12 12 0 01.67-4.06 9.36 9.36 0 011.92-3.27 8.77 8.77 0 013.05-2.18 10.19 10.19 0 014.15-.85zm.08 2.69a5.6 5.6 0 00-4.17 1.53 7.16 7.16 0 00-1.88 4.24h11.3a7.45 7.45 0 00-.35-2.33 5.1 5.1 0 00-1-1.83 4.73 4.73 0 00-1.66-1.19 5.56 5.56 0 00-2.24-.42zm27.37 1.33a1.4 1.4 0 01-.33.35.73.73 0 01-.47.13 1.18 1.18 0 01-.67-.26 8.87 8.87 0 00-.91-.56 7.21 7.21 0 00-1.35-.57 7.21 7.21 0 00-4.62.29 5.08 5.08 0 00-2 1.57 6.9 6.9 0 00-1.19 2.48 12.18 12.18 0 00-.4 3.26 11.86 11.86 0 00.43 3.36 7.25 7.25 0 001.21 2.46 5.19 5.19 0 001.9 1.52 5.81 5.81 0 002.51.52 6.28 6.28 0 002.2-.32 6.57 6.57 0 001.43-.7c.38-.26.7-.5 1-.71a1.13 1.13 0 01.73-.32.78.78 0 01.7.35l1 1.33a7.82 7.82 0 01-3.39 2.43 11.82 11.82 0 01-4.29.77 9.24 9.24 0 01-3.62-.71 8.31 8.31 0 01-2.9-2.09 9.91 9.91 0 01-1.94-3.35 14.65 14.65 0 01-.06-8.82 9.62 9.62 0 011.89-3.4 8.62 8.62 0 013.06-2.23 10.44 10.44 0 014.19-.8 9.92 9.92 0 013.86.71 9.21 9.21 0 013 2zm11.28 17.42a5 5 0 01-3.78-1.37 5.47 5.47 0 01-1.33-4v-12.68h-2.5a.81.81 0 01-.55-.2.72.72 0 01-.23-.6v-1.46l3.41-.43.84-6.38a.72.72 0 01.26-.5.87.87 0 01.58-.2h1.85v7.16h5.95v2.65h-5.95v12.47a2.66 2.66 0 00.63 2 2.19 2.19 0 001.64.64 2.72 2.72 0 001-.16 4.54 4.54 0 00.73-.33l.52-.34a.71.71 0 01.38-.16.63.63 0 01.51.35l1.07 1.75a6.69 6.69 0 01-2.28 1.38 7.61 7.61 0 01-2.75.41zm17.42-21.44a10.84 10.84 0 014.12.76 8.7 8.7 0 013.11 2.16 9.32 9.32 0 012 3.37 14.57 14.57 0 010 8.86 9.36 9.36 0 01-2 3.36 8.53 8.53 0 01-3.11 2.14 11.66 11.66 0 01-8.23 0 8.6 8.6 0 01-3.13-2.14 9.55 9.55 0 01-2-3.36 14.37 14.37 0 010-8.86 9.5 9.5 0 012-3.37 8.78 8.78 0 013.13-2.16 10.75 10.75 0 014.11-.76zm0 18.55a5.35 5.35 0 004.6-2.06 11.71 11.71 0 000-11.54 5.33 5.33 0 00-4.6-2.07 6.33 6.33 0 00-2.71.53 5 5 0 00-1.91 1.54 6.64 6.64 0 00-1.15 2.47 14.61 14.61 0 000 6.62 6.55 6.55 0 001.15 2.45 5.19 5.19 0 001.91 1.53 6.49 6.49 0 002.71.53zM693 822.8V802h2.09a1.16 1.16 0 01.82.23 1.42 1.42 0 01.31.78l.24 3.24a9.53 9.53 0 012.64-3.4 5.84 5.84 0 013.68-1.22 5.73 5.73 0 011.56.2 5.32 5.32 0 011.29.54l-.47 2.73a.61.61 0 01-.63.51 3.14 3.14 0 01-.89-.19 5.5 5.5 0 00-1.66-.2 4.71 4.71 0 00-3.19 1.11 8.31 8.31 0 00-2.14 3.22v13.25z"/><rect class="b45fff1b-b681-43fb-9f2e-255f1acb2006" x="1444.4" y="814.78" width="262.6" height="68.39" rx="5"/><path class="f71f8094-1472-4dae-9f5c-02fad50245a5" d="M1505.57 849.11a16.74 16.74 0 01-1 6 13.38 13.38 0 01-3 4.63 13.1 13.1 0 01-4.57 3 16 16 0 01-5.91 1.06h-11v-29.41h11a16 16 0 015.91 1.06 13.12 13.12 0 014.57 3 13.51 13.51 0 013 4.64 16.75 16.75 0 011 6.02zm-4.08 0a14.88 14.88 0 00-.74-4.85 10.27 10.27 0 00-2.09-3.61 9.13 9.13 0 00-3.28-2.26 11.58 11.58 0 00-4.29-.77h-7v23h7a11.38 11.38 0 004.29-.78 8.84 8.84 0 003.28-2.24 10.13 10.13 0 002.09-3.6 14.86 14.86 0 00.74-4.89zm24.19 14.69h-1.62a1.9 1.9 0 01-.86-.17.88.88 0 01-.43-.7l-.41-1.92c-.55.49-1.08.93-1.6 1.32a8.65 8.65 0 01-1.65 1 8.37 8.37 0 01-1.83.61 10.34 10.34 0 01-2.17.2 7.53 7.53 0 01-2.26-.33 5.24 5.24 0 01-1.84-1 5 5 0 01-1.24-1.72 6 6 0 01-.46-2.46 4.59 4.59 0 01.67-2.38 6 6 0 012.19-2 14.2 14.2 0 013.95-1.45 26.73 26.73 0 016-.57v-1.63a5.65 5.65 0 00-1-3.68 3.72 3.72 0 00-3.06-1.25 6.42 6.42 0 00-2.25.34 8 8 0 00-1.58.75c-.45.28-.83.54-1.15.76a1.63 1.63 0 01-1 .34 1.08 1.08 0 01-.65-.19 1.44 1.44 0 01-.44-.48l-.66-1.17a11.91 11.91 0 013.72-2.49 11.55 11.55 0 014.41-.82 7.79 7.79 0 013.1.58 6.19 6.19 0 012.27 1.6 6.77 6.77 0 011.4 2.48 10.48 10.48 0 01.47 3.2zm-9.48-2.24a6.92 6.92 0 001.76-.2 6.78 6.78 0 001.51-.55 7.84 7.84 0 001.36-.87 11.35 11.35 0 001.26-1.17v-4.29a24.88 24.88 0 00-4.29.32 11.5 11.5 0 00-2.87.84 4 4 0 00-1.61 1.21 2.6 2.6 0 00-.5 1.57 3.48 3.48 0 00.26 1.43 2.64 2.64 0 001.79 1.53 4.7 4.7 0 001.33.18zm26.92-15.12a.81.81 0 01-.76.45 1.47 1.47 0 01-.7-.23c-.26-.15-.58-.31-1-.5a10.53 10.53 0 00-1.34-.51 6.39 6.39 0 00-1.85-.24 5.32 5.32 0 00-1.66.24 4.09 4.09 0 00-1.27.64 3.16 3.16 0 00-.8 1 2.59 2.59 0 00-.27 1.18 1.94 1.94 0 00.46 1.33 3.91 3.91 0 001.22.92 10.1 10.1 0 001.72.69c.65.2 1.31.41 2 .64s1.34.47 2 .75a7 7 0 011.73 1 4.86 4.86 0 011.22 1.51 4.74 4.74 0 01.46 2.15 6.8 6.8 0 01-.51 2.65 5.91 5.91 0 01-1.52 2.12 7.36 7.36 0 01-2.46 1.4 10.25 10.25 0 01-3.37.51 10.55 10.55 0 01-3.94-.7 10 10 0 01-3-1.82l.86-1.39a1.32 1.32 0 01.39-.42 1.14 1.14 0 01.59-.14 1.37 1.37 0 01.78.29c.28.19.61.4 1 .63a7.15 7.15 0 001.41.64 6.54 6.54 0 002.09.29 5.51 5.51 0 001.86-.28 3.77 3.77 0 001.34-.75 3.11 3.11 0 00.79-1.09 3.36 3.36 0 00.25-1.31 2.15 2.15 0 00-.46-1.42 3.88 3.88 0 00-1.22-1 9.89 9.89 0 00-1.73-.7c-.65-.19-1.32-.4-2-.62s-1.34-.47-2-.75a6.92 6.92 0 01-1.74-1.06 4.78 4.78 0 01-1.22-1.57 5 5 0 01-.46-2.27 5.47 5.47 0 01.49-2.28 5.62 5.62 0 011.44-1.93 7 7 0 012.32-1.32 9.19 9.19 0 013.14-.5 10 10 0 013.68.65 8.66 8.66 0 012.82 1.77zm5.88 17.36v-30.23h3.65v12.23a11.24 11.24 0 013-2.27 8 8 0 013.73-.85 7.48 7.48 0 013 .57 5.8 5.8 0 012.17 1.6 7.06 7.06 0 011.32 2.49 10.89 10.89 0 01.46 3.22v13.24h-3.66v-13.24a5.64 5.64 0 00-1.07-3.66 4 4 0 00-3.3-1.3 6.1 6.1 0 00-3 .78 9.85 9.85 0 00-2.6 2.11v15.31zm23 0v-30.23h3.67V846a10.64 10.64 0 013-2.41 7.89 7.89 0 013.83-.92 7.67 7.67 0 013.26.68 6.63 6.63 0 012.49 2 9.81 9.81 0 011.58 3.33 17 17 0 01.55 4.56 14.06 14.06 0 01-.62 4.28 10.27 10.27 0 01-1.77 3.42 8.19 8.19 0 01-6.6 3.11 6.9 6.9 0 01-3.41-.78 7.64 7.64 0 01-2.45-2.17l-.19 1.89a.88.88 0 01-.94.78zm9.27-18.2a5.87 5.87 0 00-3.13.82 8.94 8.94 0 00-2.47 2.32v10a5.8 5.8 0 002.19 1.91 6.25 6.25 0 002.67.55 5.27 5.27 0 004.48-2.07 9.74 9.74 0 001.56-5.91 14.74 14.74 0 00-.36-3.49 6.85 6.85 0 00-1-2.39 4 4 0 00-1.66-1.36 5.49 5.49 0 00-2.31-.38zm21.93-2.92a10.82 10.82 0 014.11.76 8.83 8.83 0 013.12 2.16 9.61 9.61 0 012 3.37 14.77 14.77 0 010 8.86 9.66 9.66 0 01-2 3.36 8.65 8.65 0 01-3.12 2.14 11.66 11.66 0 01-8.23 0 8.69 8.69 0 01-3.13-2.14 9.7 9.7 0 01-2-3.36 14.37 14.37 0 010-8.86 9.65 9.65 0 012-3.37 8.86 8.86 0 013.13-2.16 10.84 10.84 0 014.12-.76zm0 18.55a5.33 5.33 0 004.59-2.06 11.71 11.71 0 000-11.54 5.32 5.32 0 00-4.59-2.07 6.3 6.3 0 00-2.71.53 5 5 0 00-1.92 1.54 6.8 6.8 0 00-1.15 2.47 14.61 14.61 0 000 6.62 6.71 6.71 0 001.15 2.45 5.14 5.14 0 001.92 1.53 6.45 6.45 0 002.71.53zm29.66 2.57h-1.62a1.93 1.93 0 01-.86-.17.91.91 0 01-.43-.7l-.41-1.92c-.55.49-1.08.93-1.6 1.32a8.89 8.89 0 01-1.64 1 8.64 8.64 0 01-1.84.61 10.31 10.31 0 01-2.16.2 7.55 7.55 0 01-2.27-.33 5.33 5.33 0 01-1.84-1 5 5 0 01-1.24-1.72 6.2 6.2 0 01-.46-2.46 4.6 4.6 0 01.68-2.38 6 6 0 012.18-2 14.33 14.33 0 014-1.45 26.73 26.73 0 016-.57v-1.63a5.65 5.65 0 00-1-3.68 3.74 3.74 0 00-3.07-1.25 6.42 6.42 0 00-2.25.34 8.3 8.3 0 00-1.58.75c-.44.28-.82.54-1.15.76a1.63 1.63 0 01-1 .34 1.11 1.11 0 01-.65-.19 1.55 1.55 0 01-.44-.48l-.65-1.17a11.87 11.87 0 013.71-2.49 11.62 11.62 0 014.41-.82 7.76 7.76 0 013.1.58 6.31 6.31 0 012.28 1.6 6.75 6.75 0 011.39 2.48 10.18 10.18 0 01.47 3.2zm-9.48-2.24a7.17 7.17 0 003.28-.75 8.15 8.15 0 001.35-.87 11.35 11.35 0 001.26-1.17v-4.29a24.68 24.68 0 00-4.28.32 11.59 11.59 0 00-2.88.84 4.05 4.05 0 00-1.61 1.21 2.67 2.67 0 00-.5 1.57 3.48 3.48 0 00.27 1.43 2.64 2.64 0 00.71 1 2.87 2.87 0 001.07.55 4.75 4.75 0 001.33.16zm15.02 2.24V843h2.1a1.16 1.16 0 01.82.23 1.35 1.35 0 01.3.78l.25 3.24a9.53 9.53 0 012.64-3.4 5.82 5.82 0 013.68-1.22 5.73 5.73 0 011.56.2 5.49 5.49 0 011.29.54l-.47 2.73a.62.62 0 01-.64.51 3.16 3.16 0 01-.88-.19 5.5 5.5 0 00-1.66-.2 4.7 4.7 0 00-3.19 1.11 8.2 8.2 0 00-2.14 3.22v13.25zm31.17 0a.94.94 0 01-1-.76l-.32-2.53a11 11 0 01-3 2.6 7.79 7.79 0 01-3.93 1 7.61 7.61 0 01-3.24-.68 6.8 6.8 0 01-2.48-2 9.54 9.54 0 01-1.58-3.33 17.07 17.07 0 01-.56-4.57 14.33 14.33 0 01.62-4.28 10.47 10.47 0 011.77-3.44 8.56 8.56 0 012.82-2.29 8.4 8.4 0 013.78-.83 7.52 7.52 0 013.26.65 7.8 7.8 0 012.42 1.81v-11.58h3.66v30.23zm-7.08-2.67a5.87 5.87 0 003.13-.82 9 9 0 002.47-2.32v-10a5.69 5.69 0 00-2.2-1.9 6.42 6.42 0 00-2.66-.55 5.24 5.24 0 00-4.47 2.08 9.67 9.67 0 00-1.56 5.91 14.55 14.55 0 00.35 3.47 6.61 6.61 0 001 2.38 4 4 0 001.66 1.37 5.56 5.56 0 002.28.38z"/><rect class="b61b020a-6108-418e-bf28-d5e3a0b6d48b" x="1047.4" y="844.59" width="80.82" height="80.82" rx="18.62"/><rect class="afc1d732-2336-4b2a-89dc-1b72f8dac8de" x="1069.26" y="856" width="38.28" height="58" rx="3.05"/><path class="b61b020a-6108-418e-bf28-d5e3a0b6d48b" d="M1071.9 863h33v41h-33z"/><circle class="b61b020a-6108-418e-bf28-d5e3a0b6d48b" cx="1088.9" cy="909" r="3"/><rect class="b61b020a-6108-418e-bf28-d5e3a0b6d48b" x="1534.5" y="720.59" width="80.82" height="80.82" rx="18.62"/><rect class="afc1d732-2336-4b2a-89dc-1b72f8dac8de" x="1556.36" y="729.25" width="38.28" height="58" rx="3.05" transform="rotate(90 1575.5 758.25)"/><path class="b61b020a-6108-418e-bf28-d5e3a0b6d48b" transform="rotate(90 1575.5 758.25)" d="M1559.62 732.75h31.75v51h-31.75z"/><path class="afc1d732-2336-4b2a-89dc-1b72f8dac8de" d="M1569 775h12v14h-12z"/><rect class="b61b020a-6108-418e-bf28-d5e3a0b6d48b" x="513.9" y="679.59" width="80.82" height="80.82" rx="18.62"/><rect class="afc1d732-2336-4b2a-89dc-1b72f8dac8de" x="541.76" y="692.17" width="24.64" height="53.83" rx="3.05" transform="rotate(-180 554.08 719.085)"/><path class="b61b020a-6108-418e-bf28-d5e3a0b6d48b" transform="rotate(-180 554.08 702.835)" d="M546.76 695.67h14.64V710h-14.64z"/><path class="b61b020a-6108-418e-bf28-d5e3a0b6d48b" transform="rotate(-180 554.08 728.655)" d="M546.76 727h14.64v3.31h-14.64z"/><path class="b61b020a-6108-418e-bf28-d5e3a0b6d48b" transform="rotate(-180 554.08 734)" d="M546.76 732.35h14.64v3.31h-14.64z"/><path class="b61b020a-6108-418e-bf28-d5e3a0b6d48b" transform="rotate(-180 554.08 739.345)" d="M546.76 737.69h14.64V741h-14.64z"/></svg>