<svg xmlns="http://www.w3.org/2000/svg" width="1998" height="819"><defs><style>.b57f0920-aa57-41c4-848e-ccddf68802a1{opacity:.5}.b91196b4-7eb2-4b74-a706-6a72935771bf,.f440a54f-bc4e-4771-9648-00fefa13d6cf{fill:#fff}.a950be33-0183-42ae-a9a2-2a763b8846be{fill:#635bff}.a923ff92-4bed-4d2e-a6c5-21d9a3492d8e{opacity:.25}.b91196b4-7eb2-4b74-a706-6a72935771bf{stroke-miterlimit:10;stroke-width:.5px}.a233addf-8b32-40b4-8655-fbb335475e0e{fill:#15be53}.b91196b4-7eb2-4b74-a706-6a72935771bf{stroke:#fff}</style></defs><g id="f9e318ae-a64b-4691-8cf1-ed0b627d28ca" data-name="Layer 2"><g class="b57f0920-aa57-41c4-848e-ccddf68802a1"><path class="f440a54f-bc4e-4771-9648-00fefa13d6cf" d="M1120.17 793.5a3.5 3.5 0 01-3.5-3.5V99.23h498.77V790a3.5 3.5 0 01-3.5 3.5z"/><path class="a950be33-0183-42ae-a9a2-2a763b8846be" d="M1613.94 100.73V790a2 2 0 01-2 2h-491.77a2 2 0 01-2-2V100.73h495.77m3-3h-501.77V790a5 5 0 005 5h491.77a5 5 0 005-5V97.73z"/></g><g class="a923ff92-4bed-4d2e-a6c5-21d9a3492d8e"><rect class="a950be33-0183-42ae-a9a2-2a763b8846be" x="1134.04" y="224.25" width="462.9" height="318.5" rx="4.75"/><path class="a950be33-0183-42ae-a9a2-2a763b8846be" d="M1592.19 224.5a4.5 4.5 0 014.5 4.5v309a4.5 4.5 0 01-4.5 4.5h-453.4a4.51 4.51 0 01-4.5-4.5V229a4.51 4.51 0 014.5-4.5h453.4m0-.5h-453.4a5 5 0 00-5 5v309a5 5 0 005 5h453.4a5 5 0 005-5V229a5 5 0 00-5-5z"/></g><g class="a923ff92-4bed-4d2e-a6c5-21d9a3492d8e"><rect class="a950be33-0183-42ae-a9a2-2a763b8846be" x="1135.6" y="561.25" width="462.9" height="212.5" rx="4.75"/><path class="a950be33-0183-42ae-a9a2-2a763b8846be" d="M1593.75 561.5a4.51 4.51 0 014.5 4.5v203a4.51 4.51 0 01-4.5 4.5h-453.4a4.51 4.51 0 01-4.5-4.5V566a4.51 4.51 0 014.5-4.5h453.4m0-.5h-453.4a5 5 0 00-5 5v203a5 5 0 005 5h453.4a5 5 0 005-5V566a5 5 0 00-5-5z"/></g><path class="a950be33-0183-42ae-a9a2-2a763b8846be" d="M1120.17 29.05h491.77a5 5 0 015 5v63.4h-501.77v-63.4a5 5 0 015-5z"/><path class="f440a54f-bc4e-4771-9648-00fefa13d6cf" d="M1280.41 54.79a1.5 1.5 0 01-.52.64 1.34 1.34 0 01-.71.18 1.79 1.79 0 01-.92-.31c-.34-.22-.75-.45-1.21-.71a10 10 0 00-1.63-.71 7 7 0 00-2.21-.32 6.61 6.61 0 00-2 .28 4.13 4.13 0 00-1.44.77 3.05 3.05 0 00-.87 1.18 3.9 3.9 0 00-.28 1.51 2.61 2.61 0 00.58 1.74 4.87 4.87 0 001.55 1.19 14.06 14.06 0 002.19.88c.82.26 1.66.54 2.52.83a25.94 25.94 0 012.51 1 8.76 8.76 0 012.2 1.48 6.66 6.66 0 011.54 2.18 7.43 7.43 0 01.59 3.14 10.22 10.22 0 01-.69 3.77 8.63 8.63 0 01-2 3 9.47 9.47 0 01-3.23 2.06 12.09 12.09 0 01-4.37.74 14.42 14.42 0 01-2.79-.27 15.22 15.22 0 01-2.64-.79 13.89 13.89 0 01-2.36-1.23 12.41 12.41 0 01-2-1.6l1.6-2.65a2.11 2.11 0 01.55-.48 1.33 1.33 0 01.71-.2 1.93 1.93 0 011.1.42c.4.28.87.59 1.41.94a10.63 10.63 0 001.91.93 7.36 7.36 0 002.63.42 5.4 5.4 0 003.66-1.12 4 4 0 001.29-3.21 3 3 0 00-.59-1.91 4.74 4.74 0 00-1.49-1.16 11.63 11.63 0 00-2.19-.85c-.82-.23-1.66-.48-2.5-.76a21.37 21.37 0 01-2.51-1 8.35 8.35 0 01-2.19-1.5A7 7 0 011264 61a8.78 8.78 0 01-.59-3.42 8.13 8.13 0 01.65-3.16 8 8 0 011.94-2.72 9.11 9.11 0 013-1.91 11 11 0 014.12-.72 13.78 13.78 0 014.84.82 10.9 10.9 0 013.78 2.3zm12.74 24.6a5.52 5.52 0 01-4.2-1.54 5.94 5.94 0 01-1.48-4.28V61.81h-2.13a1 1 0 01-.71-.27 1 1 0 01-.3-.8v-2l3.39-.55 1.06-5.75a1 1 0 01.38-.63 1.22 1.22 0 01.75-.23h2.63v6.62h5.54v3.61h-5.54v11.41a2.23 2.23 0 00.49 1.54 1.67 1.67 0 001.31.55 2.5 2.5 0 00.79-.11 5.22 5.22 0 00.56-.24l.42-.23a.65.65 0 01.37-.12.57.57 0 01.37.12 1.79 1.79 0 01.3.34l1.52 2.46a7.65 7.65 0 01-2.54 1.39 9.34 9.34 0 01-2.98.47zm25.47-.32h-2.28a2.49 2.49 0 01-1.13-.22 1.35 1.35 0 01-.61-.87l-.46-1.5a15.47 15.47 0 01-1.57 1.26 9.1 9.1 0 01-1.59.92 8 8 0 01-1.74.55 10.79 10.79 0 01-2 .18 8 8 0 01-2.46-.36 5.24 5.24 0 01-1.94-1.08 4.84 4.84 0 01-1.26-1.79 6.18 6.18 0 01-.46-2.49 4.94 4.94 0 01.63-2.36 6 6 0 012.08-2.1 13.31 13.31 0 013.88-1.55 24.83 24.83 0 016-.62V65.8a4.67 4.67 0 00-.89-3.15 3.27 3.27 0 00-2.6-1 6.34 6.34 0 00-2 .28 8.22 8.22 0 00-1.42.65l-1.12.65a2.28 2.28 0 01-1.13.28 1.5 1.5 0 01-.88-.26 2.1 2.1 0 01-.6-.66l-.92-1.62a12.5 12.5 0 018.76-3.33 8.5 8.5 0 013.29.61 7 7 0 012.45 1.68 7.25 7.25 0 011.53 2.58 9.85 9.85 0 01.53 3.28zm-9.85-3.16a7 7 0 001.43-.14 6 6 0 001.25-.43 6.32 6.32 0 001.12-.7 9.56 9.56 0 001.1-1v-3.5a20.13 20.13 0 00-3.7.28 10 10 0 00-2.39.71 3.14 3.14 0 00-1.29 1 2.56 2.56 0 00.42 3.18 3.42 3.42 0 002.06.6zm21.75 3.48a5.54 5.54 0 01-4.21-1.54 5.94 5.94 0 01-1.48-4.28V61.81h-2.13a1 1 0 01-.71-.27 1 1 0 01-.3-.8v-2l3.39-.55 1.07-5.75a1 1 0 01.38-.63 1.17 1.17 0 01.74-.23h2.63v6.62h5.54v3.61h-5.54v11.41a2.23 2.23 0 00.49 1.54 1.68 1.68 0 001.32.55 2.6 2.6 0 00.79-.11 6 6 0 00.55-.24l.42-.23a.68.68 0 01.37-.12.57.57 0 01.37.12 1.79 1.79 0 01.31.34l1.52 2.46a7.69 7.69 0 01-2.55 1.39 9.32 9.32 0 01-2.97.47zm17.66-21.7a10.26 10.26 0 013.66.63 8.17 8.17 0 012.89 1.86 8.63 8.63 0 011.89 3 11.31 11.31 0 01.67 4.05 6.39 6.39 0 010 1 1.71 1.71 0 01-.18.6.75.75 0 01-.36.3 1.37 1.37 0 01-.58.1h-13a7.28 7.28 0 001.75 4.76 5.44 5.44 0 004 1.52 7 7 0 002.12-.29 9.68 9.68 0 001.56-.64q.68-.34 1.17-.63a1.9 1.9 0 011-.29 1.12 1.12 0 01.53.12 1.18 1.18 0 01.39.35l1.48 1.85a8.69 8.69 0 01-1.89 1.65 11.29 11.29 0 01-2.18 1.07 12.64 12.64 0 01-2.32.56 16.55 16.55 0 01-2.29.16 11.29 11.29 0 01-4.08-.72 9.23 9.23 0 01-3.29-2.16 10.07 10.07 0 01-2.19-3.53 13.48 13.48 0 01-.8-4.87 11.72 11.72 0 01.69-4 9.83 9.83 0 012-3.31 9.24 9.24 0 013.18-2.22 10.4 10.4 0 014.18-.92zm.11 3.63a4.7 4.7 0 00-3.47 1.25 6.12 6.12 0 00-1.6 3.55h9.52a6.24 6.24 0 00-.27-1.86 4.34 4.34 0 00-.82-1.53 4 4 0 00-1.4-1 4.76 4.76 0 00-1.96-.41zm42.24-11.92v4.53h-8.92v25.14h-5.52V53.93h-9V49.4z"/><path class="f440a54f-bc4e-4771-9648-00fefa13d6cf" d="M1397.53 84.85a1.9 1.9 0 01-.59.81 1.75 1.75 0 01-1.1.28h-3.77l3.94-8.43-8.52-19.51h4.43a1.4 1.4 0 01.95.29 1.84 1.84 0 01.49.66l4.49 10.91a10.41 10.41 0 01.39 1.11c.11.39.21.77.29 1.15.11-.4.23-.78.36-1.15s.27-.74.42-1.13l4.23-10.84a1.55 1.55 0 01.54-.68 1.43 1.43 0 01.85-.27h4.07zm14.47 1.09V58h3.1a1.51 1.51 0 01.84.23 1.06 1.06 0 01.45.7l.41 2a10.54 10.54 0 012.93-2.36 7.92 7.92 0 013.86-.91 6.88 6.88 0 013.15.72 7.09 7.09 0 012.46 2.09 9.72 9.72 0 011.6 3.36 16.75 16.75 0 01.57 4.59 14.25 14.25 0 01-.64 4.37 10.8 10.8 0 01-1.81 3.49 8.45 8.45 0 01-2.85 2.3 8.26 8.26 0 01-3.75.83 7.6 7.6 0 01-3-.54 7.23 7.23 0 01-2.22-1.51v8.62zm9.85-24.31a5.25 5.25 0 00-2.7.66 7.89 7.89 0 00-2.08 1.88v9.44a4.84 4.84 0 001.87 1.49 5.69 5.69 0 002.19.42 5 5 0 002.08-.43 4 4 0 001.58-1.32 6.5 6.5 0 001-2.22 12.9 12.9 0 00.35-3.17 14 14 0 00-.3-3.13 6 6 0 00-.85-2.08 3.27 3.27 0 00-1.35-1.17 4.09 4.09 0 00-1.84-.37zm22.01-3.94a10.34 10.34 0 013.66.63 8.22 8.22 0 012.88 1.86 8.35 8.35 0 011.89 3 11.31 11.31 0 01.67 4.05 6.39 6.39 0 010 1 1.52 1.52 0 01-.18.6.75.75 0 01-.36.3 1.37 1.37 0 01-.58.1h-13a7.28 7.28 0 001.74 4.76 5.44 5.44 0 004 1.52 7.08 7.08 0 002.13-.29 9.94 9.94 0 001.55-.64q.68-.34 1.17-.63a1.9 1.9 0 011-.29 1.12 1.12 0 01.53.12 1.18 1.18 0 01.39.35l1.48 1.85a8.69 8.69 0 01-1.89 1.65 10.75 10.75 0 01-2.18 1.07 12.45 12.45 0 01-2.32.56 16.55 16.55 0 01-2.29.16 11.37 11.37 0 01-4.08-.72 9.32 9.32 0 01-3.29-2.16 10.07 10.07 0 01-2.19-3.53 13.7 13.7 0 01-.8-4.87 11.49 11.49 0 01.7-4 9.65 9.65 0 012-3.31 9.43 9.43 0 013.18-2.22 10.41 10.41 0 014.19-.92zm.1 3.63a4.7 4.7 0 00-3.47 1.25 6.18 6.18 0 00-1.6 3.55h9.52a6.24 6.24 0 00-.27-1.86 4.34 4.34 0 00-.82-1.53 3.92 3.92 0 00-1.39-1 4.81 4.81 0 00-1.93-.41zm25.62.8a1.29 1.29 0 01-.43.46 1.09 1.09 0 01-.57.13 1.74 1.74 0 01-.79-.2l-1-.46a9 9 0 00-1.26-.47 6.31 6.31 0 00-1.67-.2 3.87 3.87 0 00-2.36.64 2 2 0 00-.86 1.66 1.61 1.61 0 00.44 1.14 4.15 4.15 0 001.17.81 10.78 10.78 0 001.65.62c.62.19 1.25.39 1.89.61s1.27.47 1.89.75a6.75 6.75 0 011.65 1.06 5.15 5.15 0 011.17 1.55 5 5 0 01.44 2.18 7 7 0 01-.56 2.8 6.18 6.18 0 01-1.62 2.22 7.66 7.66 0 01-2.63 1.45 12.46 12.46 0 01-5.73.33 13 13 0 01-2-.54 11.41 11.41 0 01-1.76-.83 8.29 8.29 0 01-1.43-1l1.17-1.93a1.6 1.6 0 01.54-.53 1.4 1.4 0 01.77-.19 1.63 1.63 0 01.9.27c.28.18.6.37 1 .57a8.39 8.39 0 001.3.58 5.73 5.73 0 001.9.26 5.05 5.05 0 001.55-.21 3.27 3.27 0 001.07-.56 2.18 2.18 0 00.61-.82 2.38 2.38 0 00.2-1 1.73 1.73 0 00-.44-1.21 4.05 4.05 0 00-1.17-.82 12.57 12.57 0 00-1.66-.63c-.63-.18-1.26-.38-1.91-.6a18.58 18.58 0 01-1.91-.77 6.38 6.38 0 01-1.66-1.12 4.88 4.88 0 01-1.17-1.66 5.72 5.72 0 01-.44-2.38 6.09 6.09 0 01.51-2.46 5.66 5.66 0 011.51-2 7.34 7.34 0 012.48-1.4 10.33 10.33 0 013.44-.52 10.5 10.5 0 014 .72 8.73 8.73 0 013 1.88zm-121.33 230.04a22.75 22.75 0 01-.28 3.16 16.43 16.43 0 01-.77 3.07 13.35 13.35 0 01-1.33 2.77 9.89 9.89 0 01-1.93 2.24 8.74 8.74 0 01-2.58 1.52 9.91 9.91 0 01-6.51 0 8.57 8.57 0 01-2.57-1.52 10.06 10.06 0 01-2-2.25 14 14 0 01-1.35-2.78 16.56 16.56 0 01-.79-3.06 19.93 19.93 0 01-.28-3.15v-3.32a21.17 21.17 0 01.27-3.16 17.59 17.59 0 01.78-3.08 14.18 14.18 0 011.34-2.77 9.83 9.83 0 011.94-2.26 8.39 8.39 0 012.57-1.53 9.94 9.94 0 016.52 0 8.46 8.46 0 012.59 1.52 9.74 9.74 0 011.93 2.25 14.18 14.18 0 011.34 2.77 15.9 15.9 0 01.78 3.09 22.89 22.89 0 01.28 3.17zm-3.67-3.36c0-.7-.06-1.42-.14-2.18a15.73 15.73 0 00-.41-2.24 12.86 12.86 0 00-.77-2.13 6.91 6.91 0 00-1.21-1.78 5.35 5.35 0 00-1.7-1.22 5.43 5.43 0 00-2.28-.45 5.26 5.26 0 00-2.27.46 5.66 5.66 0 00-1.7 1.23 7.13 7.13 0 00-1.2 1.78 12.89 12.89 0 00-.78 2.13 15.73 15.73 0 00-.41 2.24c-.09.76-.14 1.48-.16 2.16v3.36c0 .68.07 1.41.16 2.17a15.64 15.64 0 00.42 2.25 13.9 13.9 0 00.79 2.13 6.9 6.9 0 001.2 1.8 5.66 5.66 0 001.7 1.23 5.93 5.93 0 004.58 0 5.42 5.42 0 001.7-1.23 7 7 0 001.19-1.79 13.32 13.32 0 00.76-2.12 14.33 14.33 0 00.4-2.25c.07-.77.11-1.49.13-2.19zm22.26 4.36H1361v11.91h-3.69v-29.18h8.56a14.42 14.42 0 013.84.58 9.29 9.29 0 013.16 1.63 7.47 7.47 0 012.12 2.71 8.83 8.83 0 01.77 3.84 7.92 7.92 0 01-.41 2.6 7.74 7.74 0 01-1.13 2.15 8.4 8.4 0 01-1.72 1.7 11.12 11.12 0 01-2.21 1.26l6.19 12.47v.24h-3.9zm-5.83-3h5a7.57 7.57 0 002.35-.39 6 6 0 001.93-1.07 5 5 0 001.31-1.72 5.36 5.36 0 00.48-2.33 6.07 6.07 0 00-.46-2.46 4.82 4.82 0 00-1.28-1.76 5.59 5.59 0 00-2-1.07 8.46 8.46 0 00-2.47-.38H1361zm23.7 14.91v-29.18h6.75a14.72 14.72 0 015.44 1 11.72 11.72 0 014 2.77 12 12 0 012.52 4.25 16.66 16.66 0 01.89 5.48v2.14a16.66 16.66 0 01-.89 5.48 12 12 0 01-2.52 4.25 11.57 11.57 0 01-4 2.76 14.33 14.33 0 01-5.44 1zm3.76-26.13V302h3a9.6 9.6 0 004.08-.83 7.89 7.89 0 002.86-2.21 9.17 9.17 0 001.68-3.31 15.49 15.49 0 00.58-4.13v-2.18a14.9 14.9 0 00-.59-4.12 9.4 9.4 0 00-1.68-3.29 7.8 7.8 0 00-2.85-2.19 9.91 9.91 0 00-4.08-.84zm40.53 12.64h-12.18v10.34h14.21v3.15h-17.92v-29.18h17.74v3.17h-14v9.38H1429zm21.56 1.58h-5.83v11.91H1441v-29.18h8.56a14.55 14.55 0 013.85.58 9.24 9.24 0 013.15 1.63 7.61 7.61 0 012.13 2.71 9 9 0 01.77 3.84 7.92 7.92 0 01-.41 2.6 8 8 0 01-1.13 2.15 8.45 8.45 0 01-1.73 1.7 11 11 0 01-2.2 1.26l6.19 12.47v.24h-3.91zm-5.83-3h5a7.45 7.45 0 002.34-.39 6.09 6.09 0 001.94-1.07 5.08 5.08 0 001.31-1.72 5.36 5.36 0 00.48-2.33 6.07 6.07 0 00-.46-2.46 5.06 5.06 0 00-1.28-1.76 5.55 5.55 0 00-2-1.07 8.41 8.41 0 00-2.47-.38h-4.87z"/><rect class="f440a54f-bc4e-4771-9648-00fefa13d6cf" x="1153.82" y="242.55" width="365.47" height="65.39" rx="3.5"/><path class="a950be33-0183-42ae-a9a2-2a763b8846be" d="M1515.79 244.05a2 2 0 012 2v58.4a2 2 0 01-2 2h-358.47a2 2 0 01-2-2v-58.4a2 2 0 012-2h358.47m0-3h-358.47a5 5 0 00-5 5v58.4a5 5 0 005 5h358.47a5 5 0 005-5v-58.4a5 5 0 00-5-5z"/><path class="f440a54f-bc4e-4771-9648-00fefa13d6cf" d="M1348.25 184.16a22.75 22.75 0 01-.28 3.16 16.43 16.43 0 01-.77 3.07 13.35 13.35 0 01-1.33 2.77 9.89 9.89 0 01-1.93 2.24 8.74 8.74 0 01-2.58 1.52 9.91 9.91 0 01-6.51 0 8.57 8.57 0 01-2.57-1.52 10.06 10.06 0 01-2-2.25 14 14 0 01-1.35-2.78 16.56 16.56 0 01-.79-3.06 19.93 19.93 0 01-.28-3.15v-3.32a21.17 21.17 0 01.27-3.16 17.59 17.59 0 01.78-3.08 14.18 14.18 0 011.34-2.77 9.83 9.83 0 011.94-2.26 8.39 8.39 0 012.57-1.53 9.94 9.94 0 016.52 0 8.46 8.46 0 012.59 1.52 9.74 9.74 0 011.93 2.25 14.18 14.18 0 011.34 2.77 15.9 15.9 0 01.78 3.09 22.89 22.89 0 01.28 3.17zm-3.67-3.36c0-.7-.06-1.42-.14-2.18a15.73 15.73 0 00-.41-2.24 12.86 12.86 0 00-.77-2.13 6.91 6.91 0 00-1.21-1.78 5.35 5.35 0 00-1.7-1.22 5.43 5.43 0 00-2.28-.45 5.26 5.26 0 00-2.27.46 5.66 5.66 0 00-1.7 1.23 7.13 7.13 0 00-1.2 1.78 12.89 12.89 0 00-.78 2.13 15.73 15.73 0 00-.41 2.24c-.09.76-.14 1.48-.16 2.16v3.36c0 .68.07 1.41.16 2.17a15.64 15.64 0 00.42 2.25 13.9 13.9 0 00.79 2.13 6.9 6.9 0 001.2 1.8 5.66 5.66 0 001.7 1.23 5.93 5.93 0 004.58 0 5.42 5.42 0 001.7-1.23 7 7 0 001.19-1.79 13.32 13.32 0 00.76-2.12 14.33 14.33 0 00.4-2.25c.07-.77.11-1.49.13-2.19zm22.26 4.36H1361v11.91h-3.69v-29.18h8.56a14.42 14.42 0 013.84.58 9.29 9.29 0 013.16 1.63 7.47 7.47 0 012.12 2.71 8.83 8.83 0 01.77 3.84 7.92 7.92 0 01-.41 2.6 7.74 7.74 0 01-1.13 2.15 8.4 8.4 0 01-1.72 1.7 11.12 11.12 0 01-2.21 1.26l6.19 12.47v.24h-3.9zm-5.83-3h5a7.57 7.57 0 002.35-.39 6 6 0 001.93-1.07 5 5 0 001.31-1.72 5.36 5.36 0 00.48-2.33 6.07 6.07 0 00-.46-2.46 4.82 4.82 0 00-1.28-1.76 5.59 5.59 0 00-2-1.07 8.46 8.46 0 00-2.47-.38H1361zm23.7 14.91v-29.18h6.75a14.72 14.72 0 015.44 1 11.72 11.72 0 014 2.77 12 12 0 012.52 4.25 16.66 16.66 0 01.89 5.48v2.14a16.66 16.66 0 01-.89 5.48 12 12 0 01-2.52 4.25 11.57 11.57 0 01-4 2.76 14.33 14.33 0 01-5.44 1zm3.76-26.13V194h3a9.6 9.6 0 004.08-.83 7.89 7.89 0 002.86-2.21 9.17 9.17 0 001.68-3.31 15.49 15.49 0 00.58-4.13v-2.18a14.9 14.9 0 00-.59-4.12 9.4 9.4 0 00-1.68-3.29 7.8 7.8 0 00-2.85-2.19 9.91 9.91 0 00-4.08-.84zm40.53 12.64h-12.18v10.34h14.21v3.15h-17.92v-29.18h17.74v3.17h-14v9.38H1429zm21.56 1.58h-5.83v11.91H1441v-29.18h8.56a14.55 14.55 0 013.85.58 9.24 9.24 0 013.15 1.63 7.61 7.61 0 012.13 2.71 9 9 0 01.77 3.84 7.92 7.92 0 01-.41 2.6 8 8 0 01-1.13 2.15 8.45 8.45 0 01-1.73 1.7 11 11 0 01-2.2 1.26l6.19 12.47v.24h-3.91zm-5.83-3h5a7.45 7.45 0 002.34-.39 6.09 6.09 0 001.94-1.07 5.08 5.08 0 001.31-1.72 5.36 5.36 0 00.48-2.33 6.07 6.07 0 00-.46-2.46 5.06 5.06 0 00-1.28-1.76 5.55 5.55 0 00-2-1.07 8.41 8.41 0 00-2.47-.38h-4.87z"/><rect class="f440a54f-bc4e-4771-9648-00fefa13d6cf" x="1153.82" y="134.55" width="365.47" height="65.39" rx="3.5"/><path class="a950be33-0183-42ae-a9a2-2a763b8846be" d="M1515.79 136.05a2 2 0 012 2v58.4a2 2 0 01-2 2h-358.47a2 2 0 01-2-2v-58.4a2 2 0 012-2h358.47m0-3h-358.47a5 5 0 00-5 5v58.4a5 5 0 005 5h358.47a5 5 0 005-5v-58.4a5 5 0 00-5-5z"/><path d="M1256 178.91a8.17 8.17 0 003.26-.62 6.88 6.88 0 002.44-1.72 7.58 7.58 0 001.51-2.65 10.42 10.42 0 00.53-3.38v-17.88h4v17.88a13.39 13.39 0 01-.81 4.71 11.07 11.07 0 01-2.32 3.77 10.6 10.6 0 01-3.68 2.49 13.57 13.57 0 01-9.77 0 10.64 10.64 0 01-3.69-2.49 10.79 10.79 0 01-2.33-3.77 13.39 13.39 0 01-.81-4.71v-17.88h4v17.85a10.44 10.44 0 00.52 3.39 7.45 7.45 0 001.52 2.65 6.94 6.94 0 002.44 1.73 8.08 8.08 0 003.19.63zm17.94 3.16v-20.79h2.17a.93.93 0 011 .76l.29 2.26a11.58 11.58 0 013-2.42 7.8 7.8 0 013.87-.93 7.43 7.43 0 013 .57 5.75 5.75 0 012.18 1.6 7.06 7.06 0 011.32 2.49 10.9 10.9 0 01.45 3.22v13.24h-3.65v-13.24a5.59 5.59 0 00-1.08-3.66 4 4 0 00-3.29-1.3 6.16 6.16 0 00-3 .78 10 10 0 00-2.59 2.11v15.31zm37.44 0a.94.94 0 01-1-.76l-.32-2.53a11 11 0 01-3 2.6 7.79 7.79 0 01-3.93 1 7.61 7.61 0 01-3.24-.68 6.8 6.8 0 01-2.48-2 9.54 9.54 0 01-1.58-3.33 17 17 0 01-.56-4.57 14.33 14.33 0 01.62-4.28 10.47 10.47 0 011.77-3.44 8.56 8.56 0 012.82-2.29 8.4 8.4 0 013.78-.83 7.52 7.52 0 013.26.65 7.68 7.68 0 012.42 1.82v-11.59h3.65v30.23zm-7.08-2.67a5.87 5.87 0 003.13-.82 9 9 0 002.47-2.32v-10a5.69 5.69 0 00-2.2-1.9 6.42 6.42 0 00-2.66-.55 5.27 5.27 0 00-4.47 2.08 9.67 9.67 0 00-1.56 5.91 14.55 14.55 0 00.35 3.47 6.61 6.61 0 001 2.38A4 4 0 001302 179a5.56 5.56 0 002.3.4zm23.62-18.4a9.19 9.19 0 013.44.63 7.74 7.74 0 012.73 1.8 8.19 8.19 0 011.8 2.92 11.25 11.25 0 01.64 3.95 2.45 2.45 0 01-.18 1.15.77.77 0 01-.7.28h-13.83a11.48 11.48 0 00.54 3.43 7 7 0 001.35 2.43 5.48 5.48 0 002 1.46 7.09 7.09 0 002.67.48 7.55 7.55 0 002.37-.32 11.93 11.93 0 001.71-.68q.72-.37 1.2-.69a1.62 1.62 0 01.83-.32.81.81 0 01.7.35l1 1.33a6.76 6.76 0 01-1.62 1.43 10.51 10.51 0 01-2 1 12.84 12.84 0 01-2.23.59 13.67 13.67 0 01-2.28.19 10.5 10.5 0 01-4-.73 8.59 8.59 0 01-3.14-2.13A9.75 9.75 0 011319 176a14.16 14.16 0 01-.74-4.76 12 12 0 01.67-4.06 9.36 9.36 0 011.92-3.27 8.9 8.9 0 013-2.18 10.19 10.19 0 014.07-.73zm.08 2.69a5.62 5.62 0 00-4.17 1.53 7.16 7.16 0 00-1.88 4.24h11.3a7.45 7.45 0 00-.35-2.33 5.1 5.1 0 00-1-1.83 4.73 4.73 0 00-1.66-1.19 5.53 5.53 0 00-2.24-.47zm14 18.38V164.4l-2.3-.27a1.73 1.73 0 01-.7-.31.75.75 0 01-.28-.63v-1.5h3.28v-1.15a9.89 9.89 0 01.6-3.5 7.27 7.27 0 011.78-2.73 8.08 8.08 0 013-1.79 13 13 0 015.72-.53 7 7 0 011.41.32l-.13 1.9a.35.35 0 01-.24.33 1.89 1.89 0 01-.6.07h-1c-2.42 0-4.19.51-5.29 1.51a5.82 5.82 0 00-1.65 4.53v1h12.56v20.38h-3.65v-17.69h-8.78v17.73zm22.58 0v-20.79h2.18a.93.93 0 011 .76l.29 2.26a11.54 11.54 0 013-2.42 7.86 7.86 0 013.87-.93 7.45 7.45 0 013 .57 5.72 5.72 0 012.17 1.6 7.08 7.08 0 011.33 2.49 10.9 10.9 0 01.45 3.22v13.24h-3.65v-13.24a5.59 5.59 0 00-1.08-3.66 4 4 0 00-3.29-1.3 6.16 6.16 0 00-3 .78 10 10 0 00-2.6 2.11v15.31zm31.05-21.07a9.19 9.19 0 013.44.63 7.74 7.74 0 012.73 1.8 8.19 8.19 0 011.8 2.92 11.25 11.25 0 01.64 3.95 2.45 2.45 0 01-.18 1.15.77.77 0 01-.7.28h-13.83a11.48 11.48 0 00.54 3.43 6.79 6.79 0 001.35 2.43 5.4 5.4 0 002 1.46 7.06 7.06 0 002.67.48 7.64 7.64 0 002.37-.32 11.93 11.93 0 001.71-.68q.72-.37 1.2-.69a1.62 1.62 0 01.83-.32.81.81 0 01.7.35l1 1.33a7 7 0 01-1.62 1.43 10.32 10.32 0 01-2 1 12.73 12.73 0 01-2.22.59 13.67 13.67 0 01-2.28.19 10.47 10.47 0 01-4-.73 8.59 8.59 0 01-3.14-2.13 9.75 9.75 0 01-2.06-3.48 14.16 14.16 0 01-.74-4.76 12 12 0 01.67-4.06 9.36 9.36 0 011.92-3.27 8.9 8.9 0 013-2.18 10.19 10.19 0 014.2-.8zm.08 2.69a5.6 5.6 0 00-4.17 1.53 7.16 7.16 0 00-1.88 4.24H1401a7.45 7.45 0 00-.35-2.33 5.1 5.1 0 00-1-1.83 4.73 4.73 0 00-1.66-1.19 5.56 5.56 0 00-2.28-.47zm27.82 18.38a.94.94 0 01-1-.76l-.32-2.53a11 11 0 01-3 2.6 7.79 7.79 0 01-3.93 1 7.61 7.61 0 01-3.24-.68 6.8 6.8 0 01-2.48-2 9.37 9.37 0 01-1.58-3.33 17 17 0 01-.56-4.57 14.33 14.33 0 01.62-4.28 10.47 10.47 0 011.77-3.44 8.13 8.13 0 016.6-3.12 7.52 7.52 0 013.26.65 7.68 7.68 0 012.42 1.82v-11.59h3.65v30.23zm-7.08-2.67a5.87 5.87 0 003.13-.82 9 9 0 002.47-2.32v-10a5.69 5.69 0 00-2.2-1.9 6.42 6.42 0 00-2.66-.55 5.27 5.27 0 00-4.47 2.08 9.67 9.67 0 00-1.56 5.91 14.55 14.55 0 00.35 3.47 6.61 6.61 0 001 2.38 4 4 0 001.66 1.37 5.56 5.56 0 002.28.38z" stroke-miterlimit="10" stroke-width=".5" stroke="#635bff" fill="#635bff"/><rect class="f440a54f-bc4e-4771-9648-00fefa13d6cf" x="1153.82" y="350.55" width="365.47" height="65.39" rx="3.5"/><path class="a950be33-0183-42ae-a9a2-2a763b8846be" d="M1515.79 352.05a2 2 0 012 2v58.4a2 2 0 01-2 2h-358.47a2 2 0 01-2-2v-58.4a2 2 0 012-2h358.47m0-3h-358.47a5 5 0 00-5 5v58.4a5 5 0 005 5h358.47a5 5 0 005-5v-58.4a5 5 0 00-5-5z"/><rect class="f440a54f-bc4e-4771-9648-00fefa13d6cf" x="1153.82" y="458.55" width="365.47" height="65.39" rx="3.5"/><path class="a950be33-0183-42ae-a9a2-2a763b8846be" d="M1515.79 460.05a2 2 0 012 2v58.4a2 2 0 01-2 2h-358.47a2 2 0 01-2-2v-58.4a2 2 0 012-2h358.47m0-3h-358.47a5 5 0 00-5 5v58.4a5 5 0 005 5h358.47a5 5 0 005-5v-58.4a5 5 0 00-5-5z"/><rect class="f440a54f-bc4e-4771-9648-00fefa13d6cf" x="1153.82" y="579.55" width="365.47" height="65.39" rx="3.5"/><path class="a950be33-0183-42ae-a9a2-2a763b8846be" d="M1515.79 581.05a2 2 0 012 2v58.4a2 2 0 01-2 2h-358.47a2 2 0 01-2-2v-58.4a2 2 0 012-2h358.47m0-3h-358.47a5 5 0 00-5 5v58.4a5 5 0 005 5h358.47a5 5 0 005-5v-58.4a5 5 0 00-5-5z"/><rect class="f440a54f-bc4e-4771-9648-00fefa13d6cf" x="1153.82" y="687.55" width="365.47" height="65.39" rx="3.5"/><path class="a950be33-0183-42ae-a9a2-2a763b8846be" d="M1515.79 689.05a2 2 0 012 2v58.4a2 2 0 01-2 2h-358.47a2 2 0 01-2-2v-58.4a2 2 0 012-2h358.47m0-3h-358.47a5 5 0 00-5 5v58.4a5 5 0 005 5h358.47a5 5 0 005-5v-58.4a5 5 0 00-5-5z"/><path class="a233addf-8b32-40b4-8655-fbb335475e0e" d="M386.06 29.05h475.67a5 5 0 015 5v63.4H381.06v-63.4a5 5 0 015-5z"/><path class="b91196b4-7eb2-4b74-a706-6a72935771bf" d="M536.09 48.4v4.39h-13.15V61h10.36v4.24h-10.36v8.4h13.15v4.41h-18.71V48.4zm15.04 29.67h-4.6L538.16 57h4.21a1.55 1.55 0 01.93.27 1.46 1.46 0 01.53.68l4.06 11.24a19.92 19.92 0 01.58 1.93q.24.95.42 1.89.2-.94.42-1.89a17.79 17.79 0 01.61-1.93L554.08 58a1.46 1.46 0 011.4-1h4zm19.37-21.38a10.34 10.34 0 013.66.63 8 8 0 012.84 1.86 8.35 8.35 0 011.89 3 11.31 11.31 0 01.68 4.05 8.12 8.12 0 01-.05 1 1.7 1.7 0 01-.19.6.75.75 0 01-.36.3 1.35 1.35 0 01-.57.1h-13a7.28 7.28 0 001.74 4.76 5.48 5.48 0 004 1.52 7 7 0 002.12-.29 10.5 10.5 0 001.56-.64l1.17-.63a1.87 1.87 0 011-.29 1.13 1.13 0 01.54.12 1.18 1.18 0 01.39.35l1.47 1.85a8.88 8.88 0 01-1.88 1.65 11.09 11.09 0 01-2.19 1.07 12.45 12.45 0 01-2.32.56 16.44 16.44 0 01-2.29.16 11.37 11.37 0 01-4.08-.72 9.19 9.19 0 01-3.28-2.16 10.23 10.23 0 01-2.2-3.53 13.7 13.7 0 01-.8-4.87 11.72 11.72 0 01.7-4.05 9.65 9.65 0 012-3.31 9.43 9.43 0 013.18-2.22 10.45 10.45 0 014.27-.87zm.1 3.63a4.71 4.71 0 00-3.47 1.25 6.24 6.24 0 00-1.6 3.55h9.52a6.58 6.58 0 00-.26-1.86 4.21 4.21 0 00-.83-1.53 3.83 3.83 0 00-1.39-1 4.81 4.81 0 00-1.97-.41zm13.13 17.75V57h3.1a1.24 1.24 0 011.29.93l.35 1.66a11.62 11.62 0 011.35-1.19 9.2 9.2 0 011.49-.92 7.77 7.77 0 011.7-.6 9.32 9.32 0 012-.2 7.54 7.54 0 013 .58 6.14 6.14 0 012.23 1.64 7.22 7.22 0 011.35 2.53 10.63 10.63 0 01.47 3.23v13.4H597V64.67a4.54 4.54 0 00-.89-3 3.33 3.33 0 00-2.68-1 5.26 5.26 0 00-2.47.59 9 9 0 00-2.17 1.62v15.19zm30.27.32a5.53 5.53 0 01-4.2-1.54 5.94 5.94 0 01-1.48-4.28V60.81h-2.13a1 1 0 01-.71-.27 1 1 0 01-.3-.8v-2l3.39-.55 1.07-5.75a1 1 0 01.37-.63 1.22 1.22 0 01.75-.23h2.63v6.62h5.54v3.61h-5.54v11.41a2.23 2.23 0 00.49 1.54 1.67 1.67 0 001.31.55 2.62 2.62 0 00.8-.11 6 6 0 00.55-.24l.42-.23a.68.68 0 01.37-.12.57.57 0 01.37.12 1.79 1.79 0 01.31.34l1.51 2.46a7.55 7.55 0 01-2.52 1.39 9.34 9.34 0 01-3 .47zm38.06-29.99v4.53h-8.93v25.14h-5.52V52.93h-9V48.4z"/><path class="b91196b4-7eb2-4b74-a706-6a72935771bf" d="M659.05 83.85a1.88 1.88 0 01-.58.81 1.77 1.77 0 01-1.1.28h-3.78l3.94-8.43L649 57h4.43a1.37 1.37 0 01.94.29 1.87 1.87 0 01.5.66l4.49 10.91a10.41 10.41 0 01.39 1.11c.11.39.2.77.29 1.15.11-.4.23-.78.36-1.15s.27-.74.42-1.13L665.06 58a1.5 1.5 0 01.55-.68 1.41 1.41 0 01.85-.27h4.06zm14.42 1.09V57h3.1a1.51 1.51 0 01.84.23 1 1 0 01.46.7l.41 2a10.5 10.5 0 012.92-2.36 8 8 0 013.87-.91 6.88 6.88 0 013.15.72 7.09 7.09 0 012.46 2.09 10.09 10.09 0 011.6 3.36 16.77 16.77 0 01.56 4.59 14.56 14.56 0 01-.63 4.37 10.82 10.82 0 01-1.82 3.49 8.35 8.35 0 01-2.85 2.3 8.19 8.19 0 01-3.74.83 7.6 7.6 0 01-3-.54 7.27 7.27 0 01-2.23-1.51v8.62zm9.85-24.31a5.25 5.25 0 00-2.7.66 8 8 0 00-2.08 1.88v9.44a4.86 4.86 0 001.88 1.49 5.69 5.69 0 002.19.42 5 5 0 002.08-.43 4.08 4.08 0 001.58-1.32 6.5 6.5 0 001-2.22 12.44 12.44 0 00.35-3.17 14 14 0 00-.3-3.13 5.79 5.79 0 00-.85-2.08 3.24 3.24 0 00-1.35-1.17 4.17 4.17 0 00-1.8-.37zm22.06-3.94a10.26 10.26 0 013.66.63 8.17 8.17 0 012.89 1.86 8.47 8.47 0 011.88 3 11.31 11.31 0 01.68 4.05 8.12 8.12 0 010 1 1.7 1.7 0 01-.19.6.75.75 0 01-.36.3 1.35 1.35 0 01-.57.1h-13a7.23 7.23 0 001.75 4.76 5.44 5.44 0 004 1.52 7 7 0 002.12-.29 9.68 9.68 0 001.56-.64q.68-.34 1.17-.63a1.89 1.89 0 011-.29 1.13 1.13 0 01.54.12 1.18 1.18 0 01.39.35l1.47 1.85a8.64 8.64 0 01-1.88 1.65 11.09 11.09 0 01-2.19 1.07 12.45 12.45 0 01-2.32.56 16.3 16.3 0 01-2.28.16 11.38 11.38 0 01-4.09-.72 9.28 9.28 0 01-3.28-2.16 10.23 10.23 0 01-2.2-3.53 13.7 13.7 0 01-.79-4.87A11.72 11.72 0 01696 63a9.81 9.81 0 012-3.31 9.43 9.43 0 013.18-2.22 10.45 10.45 0 014.2-.78zm.1 3.63a4.69 4.69 0 00-3.48 1.25 6.19 6.19 0 00-1.61 3.55h9.53a6.24 6.24 0 00-.27-1.86 4.34 4.34 0 00-.82-1.53 4 4 0 00-1.4-1 4.81 4.81 0 00-1.95-.41zm25.63.8a1.38 1.38 0 01-.43.46 1.11 1.11 0 01-.58.13 1.77 1.77 0 01-.79-.2l-1-.46a9.55 9.55 0 00-1.26-.47 6.31 6.31 0 00-1.67-.2 3.85 3.85 0 00-2.36.64 2 2 0 00-.87 1.66 1.61 1.61 0 00.44 1.14 4.46 4.46 0 001.17.81 11.33 11.33 0 001.66.62c.61.19 1.24.39 1.88.61a19.56 19.56 0 011.89.75 6.39 6.39 0 011.65 1.06 4.7 4.7 0 011.61 3.73 7 7 0 01-.55 2.8 6.3 6.3 0 01-1.62 2.22 7.62 7.62 0 01-2.64 1.45 11.29 11.29 0 01-3.6.52 11.45 11.45 0 01-2.04-.19 12.65 12.65 0 01-2-.54 11.1 11.1 0 01-1.77-.83 8.2 8.2 0 01-1.42-1l1.17-1.93a1.67 1.67 0 01.53-.53 1.46 1.46 0 01.78-.19 1.63 1.63 0 01.89.27c.28.18.61.37 1 .57a8.39 8.39 0 001.3.58 5.69 5.69 0 001.9.26 5.05 5.05 0 001.55-.21 3.22 3.22 0 001.06-.56 2.21 2.21 0 00.62-.82 2.37 2.37 0 00.19-1 1.69 1.69 0 00-.44-1.21 3.79 3.79 0 00-1.17-.82 12.06 12.06 0 00-1.66-.63c-.62-.18-1.26-.38-1.91-.6a18.41 18.41 0 01-1.9-.77 6.43 6.43 0 01-1.72-1.09 5.17 5.17 0 01-1.17-1.66 6.35 6.35 0 01.08-4.84 5.75 5.75 0 011.5-2 7.39 7.39 0 012.49-1.4 10.26 10.26 0 013.43-.52 10.5 10.5 0 014 .72 8.88 8.88 0 013 1.88z"/><g class="b57f0920-aa57-41c4-848e-ccddf68802a1"><path class="f440a54f-bc4e-4771-9648-00fefa13d6cf" d="M386.06 793.5a3.5 3.5 0 01-3.5-3.5V99.5h482.67V790a3.5 3.5 0 01-3.5 3.5z"/><path class="a233addf-8b32-40b4-8655-fbb335475e0e" d="M863.73 101v689a2 2 0 01-2 2H386.06a2 2 0 01-2-2V101h479.67m3-3H381.06v692a5 5 0 005 5h475.67a5 5 0 005-5V98z"/></g><path class="f440a54f-bc4e-4771-9648-00fefa13d6cf" d="M576.58 630.16a21.29 21.29 0 01-.27 3.16 16.43 16.43 0 01-.77 3.07 13.35 13.35 0 01-1.33 2.77 10.15 10.15 0 01-1.93 2.24 8.74 8.74 0 01-2.58 1.52 9.91 9.91 0 01-6.51 0 8.57 8.57 0 01-2.57-1.52 10.06 10.06 0 01-2-2.25 13.49 13.49 0 01-1.35-2.78 16.56 16.56 0 01-.79-3.06 19.93 19.93 0 01-.28-3.15v-3.32a21.17 21.17 0 01.27-3.16 16 16 0 01.78-3.08 14.18 14.18 0 011.34-2.77 10 10 0 011.93-2.26 8.56 8.56 0 012.58-1.53 9.94 9.94 0 016.52 0 8.46 8.46 0 012.59 1.52 10 10 0 011.93 2.25 14.18 14.18 0 011.34 2.77 15.9 15.9 0 01.78 3.09 21.42 21.42 0 01.27 3.17zm-3.66-3.36c0-.7-.06-1.42-.14-2.18a15.73 15.73 0 00-.41-2.24 12.86 12.86 0 00-.77-2.13 7.45 7.45 0 00-1.21-1.78 5.21 5.21 0 00-4-1.67 5.21 5.21 0 00-2.26.46 5.66 5.66 0 00-1.7 1.23 7.13 7.13 0 00-1.2 1.78 12.89 12.89 0 00-.78 2.13 17.31 17.31 0 00-.42 2.24q-.12 1.14-.15 2.16v3.36c0 .68.07 1.41.15 2.17a15.67 15.67 0 00.43 2.25 12.92 12.92 0 00.79 2.13 6.9 6.9 0 001.2 1.8 5.66 5.66 0 001.7 1.23 5.29 5.29 0 002.29.46 5.35 5.35 0 002.29-.46 5.42 5.42 0 001.7-1.23 6.7 6.7 0 001.18-1.79 12.43 12.43 0 00.77-2.12 15.59 15.59 0 00.4-2.25c.07-.77.11-1.49.13-2.19zm22.26 4.36h-5.84v11.91h-3.68v-29.18h8.55a14.43 14.43 0 013.85.58 9.39 9.39 0 013.16 1.63 7.47 7.47 0 012.12 2.71 9 9 0 01.77 3.84 7.92 7.92 0 01-.41 2.6 7.74 7.74 0 01-1.13 2.15 8.4 8.4 0 01-1.72 1.7 11.12 11.12 0 01-2.21 1.26l6.19 12.47v.24h-3.9zm-5.84-3h5a7.57 7.57 0 002.35-.39 6 6 0 001.93-1.07 5.08 5.08 0 001.31-1.72 5.36 5.36 0 00.48-2.33 6.07 6.07 0 00-.46-2.46 4.82 4.82 0 00-1.28-1.76 5.59 5.59 0 00-1.95-1.07 8.48 8.48 0 00-2.48-.38h-4.87zM613 643.07v-29.18h6.76a14.72 14.72 0 015.44 1 11.72 11.72 0 014 2.77 12 12 0 012.52 4.25 16.66 16.66 0 01.89 5.48v2.14a16.66 16.66 0 01-.89 5.48 12 12 0 01-2.52 4.25 11.57 11.57 0 01-4 2.76 14.33 14.33 0 01-5.44 1zm3.77-26.13V640h3a9.63 9.63 0 004.08-.83 8.06 8.06 0 002.86-2.21 9.49 9.49 0 001.68-3.31 15.1 15.1 0 00.57-4.13v-2.18a14.54 14.54 0 00-.58-4.12 9.4 9.4 0 00-1.68-3.29 7.89 7.89 0 00-2.85-2.19 9.94 9.94 0 00-4.08-.84zm40.61 12.64H645.2v10.34h14.21v3.15h-17.92v-29.18h17.74v3.17h-14v9.38h12.18zm21.52 1.58h-5.83v11.91h-3.69v-29.18h8.56a14.55 14.55 0 013.85.58 9.24 9.24 0 013.15 1.63 7.47 7.47 0 012.12 2.71 8.83 8.83 0 01.78 3.84 7.92 7.92 0 01-.41 2.6 8 8 0 01-1.14 2.15 8.16 8.16 0 01-1.72 1.7 11 11 0 01-2.2 1.26l6.19 12.47v.24h-3.91zm-5.83-3h5a7.45 7.45 0 002.34-.39 6.09 6.09 0 001.94-1.07 5.08 5.08 0 001.31-1.72 5.36 5.36 0 00.48-2.33 6.07 6.07 0 00-.46-2.46 5.06 5.06 0 00-1.28-1.76 5.55 5.55 0 00-2-1.07 8.41 8.41 0 00-2.47-.38h-4.87z"/><rect class="f440a54f-bc4e-4771-9648-00fefa13d6cf" x="406.77" y="580.55" width="434.25" height="65.39" rx="3.5"/><path class="a233addf-8b32-40b4-8655-fbb335475e0e" d="M837.52 582.05a2 2 0 012 2v58.4a2 2 0 01-2 2H410.27a2 2 0 01-2-2v-58.4a2 2 0 012-2h427.25m0-3H410.27a5 5 0 00-5 5v58.4a5 5 0 005 5h427.25a5 5 0 005-5v-58.4a5 5 0 00-5-5z"/><rect class="f440a54f-bc4e-4771-9648-00fefa13d6cf" x="406.77" y="688.55" width="434.25" height="65.39" rx="3.5"/><path class="a233addf-8b32-40b4-8655-fbb335475e0e" d="M837.52 690.05a2 2 0 012 2v58.4a2 2 0 01-2 2H410.27a2 2 0 01-2-2v-58.4a2 2 0 012-2h427.25m0-3H410.27a5 5 0 00-5 5v58.4a5 5 0 005 5h427.25a5 5 0 005-5v-58.4a5 5 0 00-5-5z"/><rect class="f440a54f-bc4e-4771-9648-00fefa13d6cf" x="406.77" y="351.55" width="434.25" height="65.39" rx="3.5"/><path class="a233addf-8b32-40b4-8655-fbb335475e0e" d="M837.52 353.05a2 2 0 012 2v58.4a2 2 0 01-2 2H410.27a2 2 0 01-2-2v-58.4a2 2 0 012-2h427.25m0-3H410.27a5 5 0 00-5 5v58.4a5 5 0 005 5h427.25a5 5 0 005-5v-58.4a5 5 0 00-5-5z"/><path d="M1547.86 353.74h29.4v3.98h-29.4zm20.51 22.01a7.52 7.52 0 00.65-3.26 8.12 8.12 0 00-3.12-6.59 10.3 10.3 0 00-3.44-1.78 14.33 14.33 0 00-4.28-.61 17 17 0 00-4.57.55 9.72 9.72 0 00-3.33 1.58 6.8 6.8 0 00-2 2.48 7.61 7.61 0 00-.68 3.24 7.79 7.79 0 001 3.93 10.89 10.89 0 002.6 3l-2.53.33a.93.93 0 00-.76 1v2.18h30.23v-3.65h-11.54a7.87 7.87 0 001.77-2.4zm-2.75.22a5.71 5.71 0 01-1.9 2.21h-10a9.12 9.12 0 01-2.32-2.48 5.85 5.85 0 01-.82-3.13 5.51 5.51 0 01.43-2.25 4 4 0 011.37-1.66 6.44 6.44 0 012.38-1 15.09 15.09 0 013.47-.35 9.67 9.67 0 015.91 1.56 5.27 5.27 0 012.08 4.47 6.42 6.42 0 01-.6 2.66zm-17.76 12.4h30.22v3.65h-30.22zm18.14 11.21a9.36 9.36 0 00-3.27-1.92 12 12 0 00-4.06-.67 14.16 14.16 0 00-4.76.74 9.75 9.75 0 00-3.48 2.06 8.73 8.73 0 00-2.14 3.14 10.66 10.66 0 00-.72 4 13.67 13.67 0 00.19 2.28 12.73 12.73 0 00.59 2.22 10 10 0 001 2 7 7 0 001.43 1.63l1.33-1a.81.81 0 00.35-.7 1.62 1.62 0 00-.32-.83q-.32-.48-.69-1.2a11.93 11.93 0 01-.68-1.71 7.64 7.64 0 01-.32-2.37 7.06 7.06 0 01.48-2.67 5.4 5.4 0 011.46-2.05 7 7 0 012.43-1.36 11.82 11.82 0 013.43-.53v13.83a.78.78 0 00.28.7 2.45 2.45 0 001.15.18 11.25 11.25 0 004-.64 8.06 8.06 0 002.91-1.8 7.72 7.72 0 001.81-2.73 9.19 9.19 0 00.63-3.44 10.19 10.19 0 00-.79-4.07 8.9 8.9 0 00-2.24-3.09zm-.14 9.42a4.73 4.73 0 01-1.19 1.66 5.1 5.1 0 01-1.83 1 7.45 7.45 0 01-2.33.35v-11.29a7.23 7.23 0 014.24 1.89 6.32 6.32 0 011.11 6.39zm-17.98 197.56h12.27v3a2.83 2.83 0 01-.21 1.23 2.39 2.39 0 01-.71.76l-10.51 7.63a1.74 1.74 0 00-.84 1.6v3.53l11.68-8.58a4.3 4.3 0 001.25-1.31 11.29 11.29 0 001.15 3 8.57 8.57 0 001.83 2.27 7.58 7.58 0 002.44 1.43 8.39 8.39 0 002.91.49 8.65 8.65 0 003.37-.63 6.58 6.58 0 002.58-2 9.33 9.33 0 001.63-3.36 18 18 0 00.57-4.82v-8.2h-29.41zm15.17 0h11.1v4.35a8.39 8.39 0 01-1.34 5.16 4.67 4.67 0 01-4 1.73 6 6 0 01-2.36-.45 4.94 4.94 0 01-1.83-1.34 6.12 6.12 0 01-1.19-2.22 10.11 10.11 0 01-.42-3.06zm-12.17 34.84l-2.24.29a.93.93 0 00-.76 1v2.18h20.79v-3.66h-15.33a9.29 9.29 0 01-2.11-2.6 6.27 6.27 0 01-.76-3 4 4 0 011.29-3.28 5.48 5.48 0 013.65-1.09h13.26v-3.65h-13.26a11.24 11.24 0 00-3.22.44 6.93 6.93 0 00-2.48 1.32 6 6 0 00-1.59 2.19 7.45 7.45 0 00-.57 3 7.91 7.91 0 00.92 3.85 11.42 11.42 0 002.41 3.01zm17.19 15.93a11.54 11.54 0 00-2.42-3l2.26-.29a.94.94 0 00.76-1v-2.17h-20.79v3.65h15.31a9.85 9.85 0 012.11 2.6 6.1 6.1 0 01.78 3 4 4 0 01-1.3 3.3 5.64 5.64 0 01-3.66 1.07h-13.24v3.66h13.24a10.89 10.89 0 003.22-.46 7.06 7.06 0 002.49-1.32 5.91 5.91 0 001.6-2.17 7.48 7.48 0 00.57-3 7.86 7.86 0 00-.93-3.87zm0 22.82a11.42 11.42 0 00-2.42-3l2.26-.29a.93.93 0 00.76-1v-2.18h-20.79v3.66h15.31a10 10 0 012.11 2.59 6.16 6.16 0 01.78 3 4 4 0 01-1.3 3.29 5.59 5.59 0 01-3.66 1.08h-13.24v3.7h13.24a10.9 10.9 0 003.22-.45 7.06 7.06 0 002.49-1.32 5.94 5.94 0 001.6-2.18 7.43 7.43 0 00.57-3 7.8 7.8 0 00-.93-3.9zm8.98 16.78a2.68 2.68 0 00-1.86-.77 2.34 2.34 0 00-1 .21 2.55 2.55 0 00-.82.56 2.75 2.75 0 00-.57.82 2.38 2.38 0 00-.2 1 2.42 2.42 0 00.2 1 2.67 2.67 0 00.57.83 3 3 0 00.82.58 2.34 2.34 0 001 .21 2.52 2.52 0 001-.21 2.93 2.93 0 00.84-.58 2.48 2.48 0 00.56-.83 2.42 2.42 0 00.21-1 2.39 2.39 0 00-.21-1 2.55 2.55 0 00-.54-.82zm-29.17-.03h20.78v3.65h-20.78zm13.24 23.74h-13.24v3.65h13.24a10.9 10.9 0 003.22-.45 7.06 7.06 0 002.49-1.32 5.86 5.86 0 001.6-2.18 7.43 7.43 0 00.57-3 7.8 7.8 0 00-.93-3.87 11.58 11.58 0 00-2.42-3l2.26-.28a.94.94 0 00.76-1V707h-20.79v3.65h15.31a10 10 0 012.11 2.59 6.16 6.16 0 01.78 3 4 4 0 01-1.3 3.29 5.59 5.59 0 01-3.66 1.11zm-11.32 25.42a4.22 4.22 0 001.44-1.58 7.8 7.8 0 00.74-2.23 13.62 13.62 0 00.23-2.56v-2.55a13.62 13.62 0 01.17-2.24 4.29 4.29 0 01.56-1.58 1.31 1.31 0 011.16-.6 1.7 1.7 0 011 .34 3.6 3.6 0 01.92 1 10.21 10.21 0 00-.35 2.75 10.07 10.07 0 00.47 3.13 7.32 7.32 0 001.35 2.46 6.29 6.29 0 002.13 1.62 6.79 6.79 0 005.73-.11l.33 2.36c.12.57.41.86.86.86h1.36v-5.64a8.21 8.21 0 00.87-2.15 10.26 10.26 0 00.3-2.53 10 10 0 00-.48-3.17 7.4 7.4 0 00-1.34-2.5 6.24 6.24 0 00-2.11-1.63 6.41 6.41 0 00-2.76-.58 6.3 6.3 0 00-3.34.87 6.45 6.45 0 00-2.28 2.41 5.39 5.39 0 00-1.66-2 3.84 3.84 0 00-1-.5 2.86 2.86 0 00-.93-.17 3 3 0 00-1.83.53 3.68 3.68 0 00-1.1 1.4 6.63 6.63 0 00-1.71-2.67 3.77 3.77 0 00-2.62-1 4.16 4.16 0 00-2.09.57 5.19 5.19 0 00-1.75 1.69 9.2 9.2 0 00-1.21 2.84 15.3 15.3 0 00-.46 4 12.87 12.87 0 00.6 4.08 9.79 9.79 0 001.57 3.06 7 7 0 002.26 1.92 5.6 5.6 0 002.61.67 4.25 4.25 0 002.36-.57zm8.55-11.18a4 4 0 01.86-1.42 3.71 3.71 0 011.32-.87 4.62 4.62 0 011.69-.3 4 4 0 013 1.16 5.58 5.58 0 010 6.73 4 4 0 01-3 1.16 4.62 4.62 0 01-1.69-.29 3.44 3.44 0 01-1.32-.86 3.89 3.89 0 01-.86-1.42 5.64 5.64 0 01-.31-2 5.47 5.47 0 01.31-1.89zm-13 8a3.73 3.73 0 01-1.19-1.24 6.4 6.4 0 01-.78-2 13.28 13.28 0 010-5.28 6.18 6.18 0 01.7-1.86 3.07 3.07 0 011-1.1 2.53 2.53 0 011.31-.36 2.76 2.76 0 011.91.73 6.13 6.13 0 011.36 1.9 7.68 7.68 0 00-.28 2.11V738a14.74 14.74 0 01-.13 2 8.39 8.39 0 01-.38 1.7 2.89 2.89 0 01-.75 1.17 1.81 1.81 0 01-1.27.43 2.81 2.81 0 01-1.55-.44zM1276.44 289a13 13 0 004.57-3 13.23 13.23 0 003-4.63 17.75 17.75 0 000-12 13.37 13.37 0 00-3-4.64 13 13 0 00-4.57-3 16 16 0 00-5.91-1.06h-11v29.41h11a16 16 0 005.91-1.08zm-12.91-25.12h7a11.38 11.38 0 014.29.78 9 9 0 013.28 2.25 10.27 10.27 0 012.09 3.61 16.23 16.23 0 010 9.69 10.13 10.13 0 01-2.09 3.6 9 9 0 01-3.28 2.25 11.58 11.58 0 01-4.29.77h-7zm26.77.69a2.75 2.75 0 00.82.57 2.54 2.54 0 001 .2 2.64 2.64 0 001-.2 2.79 2.79 0 00.83-.57 2.75 2.75 0 00.57-.82 2.24 2.24 0 00.22-1 2.37 2.37 0 00-.22-1 2.71 2.71 0 00-.57-.84 2.59 2.59 0 00-.83-.56 2.47 2.47 0 00-1-.21 2.38 2.38 0 00-1 .21 2.55 2.55 0 00-.82.56 2.57 2.57 0 00-.77 1.86 2.54 2.54 0 00.2 1 2.75 2.75 0 00.57.8zm-.03 4.71h3.65v20.78h-3.65zm18.73 17.46a3.77 3.77 0 01-1.34.75 5.51 5.51 0 01-1.86.28 6.43 6.43 0 01-2.08-.29 7 7 0 01-1.42-.64c-.39-.23-.72-.44-1-.63a1.37 1.37 0 00-.77-.29 1.07 1.07 0 00-.6.15 1.19 1.19 0 00-.39.41l-.86 1.39a10.17 10.17 0 003 1.82 10.55 10.55 0 003.94.7 10.16 10.16 0 003.37-.51 7.36 7.36 0 002.46-1.4 5.8 5.8 0 001.52-2.12 6.8 6.8 0 00.51-2.65 4.61 4.61 0 00-.46-2.15 4.86 4.86 0 00-1.22-1.51 7.17 7.17 0 00-1.72-1q-1-.42-2-.75c-.68-.23-1.34-.44-2-.64a10.76 10.76 0 01-1.73-.68 4.06 4.06 0 01-1.22-.93 1.94 1.94 0 01-.46-1.33 2.48 2.48 0 01.28-1.18 2.89 2.89 0 01.8-1 4.15 4.15 0 011.26-.64 5.32 5.32 0 011.66-.24 6.34 6.34 0 011.85.24 10 10 0 011.34.51l1 .5a1.44 1.44 0 00.69.23.81.81 0 00.76-.45l.82-1.33a8.52 8.52 0 00-2.82-1.78 9.93 9.93 0 00-3.68-.65 9.24 9.24 0 00-3.14.5 7 7 0 00-2.32 1.32 5.56 5.56 0 00-1.93 4.22 5.14 5.14 0 00.46 2.26 4.67 4.67 0 001.23 1.57 6.69 6.69 0 001.73 1.06c.65.28 1.31.53 2 .75s1.34.43 2 .62a9.59 9.59 0 011.73.7 3.77 3.77 0 011.22 1 2.15 2.15 0 01.46 1.42 3.41 3.41 0 01-.25 1.32 3 3 0 01-.82 1.07zm9.77 2.26a5.28 5.28 0 001.83 1 7.6 7.6 0 002.27.33 10.31 10.31 0 002.16-.2 8.46 8.46 0 001.84-.61 8.57 8.57 0 001.64-1c.52-.39 1.06-.83 1.6-1.32l.41 1.93a.93.93 0 00.43.69 2 2 0 00.87.17h1.62v-13.3a10.18 10.18 0 00-.48-3.2 6.61 6.61 0 00-1.39-2.48 6.23 6.23 0 00-2.28-1.6 7.72 7.72 0 00-3.1-.58 11.62 11.62 0 00-4.41.82 12 12 0 00-3.71 2.49l.66 1.17a1.34 1.34 0 00.44.48 1.07 1.07 0 00.64.19 1.63 1.63 0 001-.34l1.15-.76a8 8 0 011.58-.75 6.32 6.32 0 012.24-.34 3.73 3.73 0 013.07 1.25 5.65 5.65 0 011 3.68v1.63a26.6 26.6 0 00-6 .57 14.2 14.2 0 00-4 1.45 5.94 5.94 0 00-2.19 2 4.6 4.6 0 00-.68 2.38 6 6 0 00.47 2.46 4.85 4.85 0 001.32 1.79zm2.3-5.92a4.09 4.09 0 011.62-1.21 11.8 11.8 0 012.87-.84 24.72 24.72 0 014.29-.32V285a11.42 11.42 0 01-1.27 1.17 8.15 8.15 0 01-1.35.87 6.78 6.78 0 01-1.51.55 6.92 6.92 0 01-1.76.2 4.77 4.77 0 01-1.34-.18 2.65 2.65 0 01-1.78-1.53 3.48 3.48 0 01-.27-1.43 2.69 2.69 0 01.5-1.53zm18.03-23.24v30.23h2.36a.88.88 0 00.94-.78l.19-1.89a7.75 7.75 0 002.45 2.17 6.94 6.94 0 003.42.78 8.25 8.25 0 003.76-.83 8.34 8.34 0 002.83-2.27 10.44 10.44 0 001.78-3.43 14.38 14.38 0 00.61-4.28 17 17 0 00-.55-4.56 9.9 9.9 0 00-1.58-3.33 6.68 6.68 0 00-2.48-2 7.71 7.71 0 00-3.27-.68 7.82 7.82 0 00-3.82.92 10.54 10.54 0 00-3 2.41v-12.46zm6.14 12.85a5.87 5.87 0 013.13-.82 5.49 5.49 0 012.24.43 4 4 0 011.66 1.36 6.93 6.93 0 011 2.39 14.74 14.74 0 01.36 3.49 9.67 9.67 0 01-1.56 5.91 5.27 5.27 0 01-4.48 2.07 6.28 6.28 0 01-2.59-.52 5.8 5.8 0 01-2.19-1.91V275a9.09 9.09 0 012.43-2.31zm17.09-12.85h3.65v30.22h-3.65zm11.41 27.65a8.59 8.59 0 003.14 2.13 10.5 10.5 0 004 .73 13.67 13.67 0 002.28-.19 12.84 12.84 0 002.23-.59 10.51 10.51 0 002-1 6.76 6.76 0 001.62-1.43l-1-1.33a.8.8 0 00-.7-.35 1.62 1.62 0 00-.83.32q-.48.31-1.2.69a11.93 11.93 0 01-1.71.68 7.55 7.55 0 01-2.37.32 7.09 7.09 0 01-2.67-.48 5.48 5.48 0 01-2-1.46 7.11 7.11 0 01-1.35-2.43 11.48 11.48 0 01-.54-3.43h13.83a.77.77 0 00.7-.28 2.45 2.45 0 00.18-1.15 11.25 11.25 0 00-.64-3.95 8.19 8.19 0 00-1.8-2.92 7.74 7.74 0 00-2.73-1.8 9.19 9.19 0 00-3.44-.63 10.19 10.19 0 00-4.07.79 8.9 8.9 0 00-3 2.18 9.36 9.36 0 00-1.92 3.27 12 12 0 00-.67 4.06 14.16 14.16 0 00.74 4.76 9.75 9.75 0 001.92 3.49zm2.82-14.32a6.34 6.34 0 016.4-1.11 4.69 4.69 0 011.65 1.19 5.1 5.1 0 011 1.83 7.17 7.17 0 01.35 2.33h-11.3a7.16 7.16 0 011.9-4.24zm17.98 14.48a6.8 6.8 0 002.48 2 7.61 7.61 0 003.24.68 7.79 7.79 0 003.93-1 11 11 0 003-2.6l.33 2.53a.93.93 0 001 .76h2.18v-30.18h-3.66v11.54a7.68 7.68 0 00-2.42-1.82 7.52 7.52 0 00-3.26-.65 8.4 8.4 0 00-3.78.83 8.56 8.56 0 00-2.82 2.29 10.47 10.47 0 00-1.77 3.44 14.33 14.33 0 00-.62 4.28 17 17 0 00.56 4.57 9.54 9.54 0 001.61 3.33zm3.2-13.81a5.27 5.27 0 014.47-2.08 6.42 6.42 0 012.66.55 5.69 5.69 0 012.2 1.9v10.05a9 9 0 01-2.47 2.32 5.85 5.85 0 01-3.13.82 5.56 5.56 0 01-2.26-.43 4 4 0 01-1.66-1.37 6.61 6.61 0 01-1-2.38 14.55 14.55 0 01-.35-3.47 9.67 9.67 0 011.54-5.91zm-159.77 124.23h18.12v-3.25h-14.12v-10.03h11.43v-3.12h-11.43v-9.76h14.12v-3.25h-18.12v29.41zm26.92-15.49a8 8 0 012.12-2 4.6 4.6 0 012.52-.73 3.57 3.57 0 012.93 1.23 5.81 5.81 0 011 3.73v13.24h3.66v-13.22a6.19 6.19 0 01.35-2.16 4.42 4.42 0 011-1.55 4.11 4.11 0 011.43-.93 4.48 4.48 0 011.71-.32 3.84 3.84 0 013.1 1.26 5.61 5.61 0 011.06 3.7v13.24h3.66v-13.24a10.75 10.75 0 00-.48-3.35 6.76 6.76 0 00-1.36-2.48 5.8 5.8 0 00-2.18-1.52 7.6 7.6 0 00-2.92-.53 8.59 8.59 0 00-2 .25 6.57 6.57 0 00-1.88.78 6.75 6.75 0 00-1.59 1.35 6.68 6.68 0 00-1.14 1.95 6.57 6.57 0 00-1.87-3.16 4.93 4.93 0 00-3.42-1.17 6 6 0 00-3.31.91 10.77 10.77 0 00-2.58 2.31l-.27-2.13a.93.93 0 00-1-.76h-2.17v20.79h3.65zm28.56 4.67a14.16 14.16 0 00.74 4.76 9.75 9.75 0 002.06 3.48 8.59 8.59 0 003.14 2.13 10.47 10.47 0 004 .73 13.67 13.67 0 002.28-.19 13 13 0 002.22-.59 10.23 10.23 0 002-1 6.76 6.76 0 001.62-1.43l-1-1.33a.82.82 0 00-.7-.35 1.62 1.62 0 00-.83.32q-.48.31-1.2.69a11.93 11.93 0 01-1.71.68 7.64 7.64 0 01-2.37.32 7.06 7.06 0 01-2.7-.47 5.4 5.4 0 01-2-1.46 7 7 0 01-1.36-2.43 11.82 11.82 0 01-.53-3.43h13.83a.78.78 0 00.7-.28 2.45 2.45 0 00.18-1.15 11.24 11.24 0 00-.65-3.95 8.17 8.17 0 00-1.79-2.92 7.92 7.92 0 00-2.73-1.8 9.21 9.21 0 00-3.45-.63 10.14 10.14 0 00-4.06.79 9 9 0 00-3.06 2.18 9.5 9.5 0 00-1.91 3.27 12 12 0 00-.72 4.06zm5.62-6.08a6.32 6.32 0 016.39-1.11 4.6 4.6 0 011.65 1.19 5.12 5.12 0 011 1.83 7.45 7.45 0 01.35 2.33h-11.31a7.23 7.23 0 011.92-4.24zm21.01 3.66a8.31 8.31 0 012.14-3.22 4.71 4.71 0 013.19-1.11 5.62 5.62 0 011.67.2 3.09 3.09 0 00.88.19.62.62 0 00.64-.51l.47-2.73a5.56 5.56 0 00-1.3-.54 5.73 5.73 0 00-1.56-.2 5.86 5.86 0 00-3.68 1.22 9.76 9.76 0 00-2.64 3.4l-.24-3.24a1.42 1.42 0 00-.31-.78 1.15 1.15 0 00-.82-.23h-2.09v20.79h3.65zm12-1.21a6.21 6.21 0 00.92 3.38 6.38 6.38 0 002.41 2.28 5.1 5.1 0 00-1.15.76 5.83 5.83 0 00-.84.9 3.84 3.84 0 00-.5 1 2.84 2.84 0 00-.16.93 2.94 2.94 0 00.52 1.83 3.73 3.73 0 001.41 1.1 6.6 6.6 0 00-2.68 1.71 3.76 3.76 0 00-1 2.62 4.15 4.15 0 00.56 2.09 5.39 5.39 0 001.69 1.75 9.2 9.2 0 002.84 1.21 15.86 15.86 0 004 .46 13 13 0 004.09-.6 9.65 9.65 0 003-1.58 6.79 6.79 0 001.92-2.25 5.49 5.49 0 00.67-2.62 4.21 4.21 0 00-.6-2.36 4.14 4.14 0 00-1.58-1.44 7.8 7.8 0 00-2.23-.74 13.62 13.62 0 00-2.56-.23h-2.55a13.71 13.71 0 01-2.24-.17 4.18 4.18 0 01-1.58-.57 1.29 1.29 0 01-.59-1.15 1.68 1.68 0 01.34-1 3.39 3.39 0 011-.91 10.62 10.62 0 002.75.35 10 10 0 003.13-.47 7.34 7.34 0 002.46-1.36 6.15 6.15 0 001.62-2.12 6.41 6.41 0 00.59-2.76 6.26 6.26 0 00-.7-3l2.36-.33c.57-.12.86-.41.86-.86v-1.37h-5.64a8.14 8.14 0 00-2.14-.87 10.34 10.34 0 00-2.54-.3 10 10 0 00-3.17.48 7.45 7.45 0 00-2.49 1.34 6.12 6.12 0 00-1.63 2.11 6.41 6.41 0 00-.57 2.76zm4.74 12.69a7.75 7.75 0 002.12.28h2.17a16.42 16.42 0 012 .12 8.9 8.9 0 011.7.39 2.74 2.74 0 011.17.74 1.86 1.86 0 01.44 1.28 2.82 2.82 0 01-.44 1.53 3.64 3.64 0 01-1.24 1.19 6.65 6.65 0 01-2 .78 11.78 11.78 0 01-2.64.27 12 12 0 01-2.64-.26 6.18 6.18 0 01-1.86-.7 3 3 0 01-1.1-1.05 2.59 2.59 0 01-.35-1.3 2.75 2.75 0 01.72-1.91 6 6 0 011.95-1.36zm-.21-15.62a4.62 4.62 0 013.35-1.13 4.68 4.68 0 013.38 1.13 4 4 0 011.16 3 4.89 4.89 0 01-.29 1.7 3.56 3.56 0 01-.86 1.32 3.93 3.93 0 01-1.43.86 5.64 5.64 0 01-2 .31 5.5 5.5 0 01-1.93-.31 3.85 3.85 0 01-1.41-.86 3.6 3.6 0 01-.88-1.32 4.89 4.89 0 01-.29-1.7 4 4 0 011.2-3zm25.55-3.69a10.14 10.14 0 00-4.06.79 8.94 8.94 0 00-3.06 2.18 9.68 9.68 0 00-1.92 3.27 12.22 12.22 0 00-.66 4.06 13.91 13.91 0 00.74 4.76 9.75 9.75 0 002.06 3.48 8.59 8.59 0 003.14 2.13 10.47 10.47 0 004 .73 13.46 13.46 0 002.27-.19 12.84 12.84 0 002.23-.59 10.23 10.23 0 002-1 6.76 6.76 0 001.62-1.43l-1-1.33a.82.82 0 00-.7-.35 1.62 1.62 0 00-.83.32q-.48.31-1.2.69a11.63 11.63 0 01-1.72.68 7.55 7.55 0 01-2.37.32 7 7 0 01-2.7-.52 5.32 5.32 0 01-2-1.46 7 7 0 01-1.36-2.43 11.18 11.18 0 01-.53-3.43h13.83a.75.75 0 00.69-.28 2.3 2.3 0 00.19-1.15 11.24 11.24 0 00-.65-3.95 8.32 8.32 0 00-1.79-2.92 7.92 7.92 0 00-2.73-1.8 9.24 9.24 0 00-3.49-.58zm5 6.13a7.45 7.45 0 01.35 2.33h-11.31a7.23 7.23 0 011.89-4.24 6.32 6.32 0 016.39-1.11 4.6 4.6 0 011.65 1.19 5.28 5.28 0 011.02 1.78zm18.62-6.13a7.8 7.8 0 00-3.87.93 11.58 11.58 0 00-3 2.42l-.28-2.26a.94.94 0 00-1-.76h-2.17v20.79h3.65v-15.36a10 10 0 012.59-2.11 6.16 6.16 0 013-.78 4 4 0 013.29 1.3 5.59 5.59 0 011.08 3.66v13.24h3.65v-13.24a10.9 10.9 0 00-.45-3.22 7.06 7.06 0 00-1.32-2.49 5.75 5.75 0 00-2.18-1.6 7.43 7.43 0 00-2.99-.52zm26.12 16.47a1.13 1.13 0 00-.74.32 10.64 10.64 0 01-1 .71 6.57 6.57 0 01-1.43.7 6.28 6.28 0 01-2.2.32 5.81 5.81 0 01-2.51-.52 5.19 5.19 0 01-1.9-1.52A7.25 7.25 0 011401 391a11.86 11.86 0 01-.43-3.36 12.18 12.18 0 01.4-3.26 7.06 7.06 0 011.19-2.48 5.25 5.25 0 012-1.57 6.33 6.33 0 012.69-.54 6.44 6.44 0 011.94.25 7.39 7.39 0 011.34.57 8.87 8.87 0 01.91.56 1.18 1.18 0 00.67.26.73.73 0 00.47-.13 1.4 1.4 0 00.33-.35l1-1.31a9.21 9.21 0 00-3-2 9.92 9.92 0 00-3.86-.71 10.35 10.35 0 00-4.18.8 8.66 8.66 0 00-3.07 2.23 9.62 9.62 0 00-1.89 3.4 14.86 14.86 0 00.06 8.82 10 10 0 001.94 3.35 8.31 8.31 0 002.9 2.09 9.29 9.29 0 003.63.71 11.81 11.81 0 004.28-.77 7.82 7.82 0 003.39-2.43l-1-1.33a.77.77 0 00-.81-.33zm19.64-15.97a1.11 1.11 0 00-.42.54l-5.4 13.07c-.12.32-.23.62-.32.92s-.19.61-.29.93q-.1-.48-.24-.93a8.08 8.08 0 00-.32-.9L1419 378a1.45 1.45 0 00-.38-.52 1.08 1.08 0 00-.74-.24h-3.16l8.57 19.58-3.79 8.24h2.71a1.29 1.29 0 00.85-.24 2 2 0 00.46-.66l11.59-26.92h-2.91a1.06 1.06 0 00-.66.26zm-126.09 99.16h3.98v29.4h-3.98zm11.9 26.99a6.88 6.88 0 002.48 2 7.62 7.62 0 003.25.68 7.78 7.78 0 003.92-1 10.89 10.89 0 003-2.6l.33 2.53a.94.94 0 001 .76h2.17v-30.18h-3.65v11.54a7.68 7.68 0 00-2.42-1.82 7.57 7.57 0 00-3.27-.65 8.12 8.12 0 00-6.59 3.12 10.3 10.3 0 00-1.78 3.44 14.33 14.33 0 00-.61 4.28 17 17 0 00.55 4.57 9.72 9.72 0 001.62 3.33zm3.2-13.81a5.27 5.27 0 014.48-2.08 6.38 6.38 0 012.65.55 5.71 5.71 0 012.21 1.9v10.05a9.12 9.12 0 01-2.48 2.32 5.81 5.81 0 01-3.12.82 5.56 5.56 0 01-2.29-.4 4 4 0 01-1.66-1.37 6.61 6.61 0 01-1-2.38 15.09 15.09 0 01-.35-3.47 9.67 9.67 0 011.56-5.94zm19.53-14h3.65v30.22h-3.65zm8.62 19.41a14.16 14.16 0 00.74 4.76 9.75 9.75 0 002.06 3.48 8.59 8.59 0 003.14 2.13 10.5 10.5 0 004 .73 13.67 13.67 0 002.28-.19 13.08 13.08 0 002.23-.59 10.51 10.51 0 002-1 6.76 6.76 0 001.62-1.43l-1-1.33a.81.81 0 00-.7-.35 1.62 1.62 0 00-.83.32q-.48.31-1.2.69a11.93 11.93 0 01-1.71.68 7.59 7.59 0 01-2.37.32 7.06 7.06 0 01-2.67-.48 5.48 5.48 0 01-2-1.46 6.79 6.79 0 01-1.35-2.43 11.48 11.48 0 01-.54-3.43h13.83a.77.77 0 00.7-.28 2.45 2.45 0 00.18-1.15 11.25 11.25 0 00-.64-3.95 8.19 8.19 0 00-1.8-2.92 7.74 7.74 0 00-2.73-1.8 9.19 9.19 0 00-3.44-.63 10.19 10.19 0 00-4.07.79 8.9 8.9 0 00-3 2.18 9.36 9.36 0 00-1.92 3.27 12 12 0 00-.81 4.07zm5.62-6.08a5.62 5.62 0 014.17-1.53 5.56 5.56 0 012.22.42 4.73 4.73 0 011.66 1.19 5.1 5.1 0 011 1.83 7.45 7.45 0 01.35 2.33h-11.3a7.16 7.16 0 011.9-4.24zm-73.55 137.9a1.31 1.31 0 00.86-.29 1.55 1.55 0 00.49-.66l2.75-7.1h13.19l2.75 7.1a1.63 1.63 0 00.5.68 1.3 1.3 0 00.86.27h3.08l-11.76-29.41h-4l-11.76 29.41zm9.83-22.86c.13-.36.27-.77.42-1.24s.29-1 .44-1.55a21.33 21.33 0 00.88 2.77l4.62 12h-11zm29.77 22.37a7.84 7.84 0 003.38-2.43l-1-1.33a.79.79 0 00-.7-.35 1.15 1.15 0 00-.74.32c-.25.21-.56.45-.94.71a6.9 6.9 0 01-1.44.7 6.24 6.24 0 01-2.2.32 5.87 5.87 0 01-2.51-.52 5.27 5.27 0 01-1.9-1.52 7.25 7.25 0 01-1.21-2.46 13.41 13.41 0 010-6.62 7.24 7.24 0 011.19-2.48 5.25 5.25 0 012-1.57 7.24 7.24 0 014.63-.29 7.09 7.09 0 011.34.57 9.15 9.15 0 01.92.56 1.16 1.16 0 00.66.26.71.71 0 00.47-.13 1.4 1.4 0 00.33-.35l1-1.31a9.25 9.25 0 00-3-2 9.9 9.9 0 00-3.85-.71 10.4 10.4 0 00-4.19.8 8.66 8.66 0 00-3.07 2.23 9.62 9.62 0 00-1.89 3.4 13.67 13.67 0 00-.64 4.28 13.32 13.32 0 00.71 4.54 9.8 9.8 0 001.93 3.35 8.35 8.35 0 002.91 2.09 9.2 9.2 0 003.62.71 11.9 11.9 0 004.19-.77zm10.17-27.05a.84.84 0 00-.57.2.78.78 0 00-.27.5l-.84 6.42-3.4.43v1.46a.75.75 0 00.22.6.83.83 0 00.55.2h2.51v12.72a5.51 5.51 0 001.32 4 5 5 0 003.79 1.37 7.65 7.65 0 002.75-.5 6.75 6.75 0 002.27-1.38l-1.06-1.75a.65.65 0 00-.52-.35.74.74 0 00-.38.16l-.52.34a5 5 0 01-.73.34 3 3 0 01-1 .15 2.19 2.19 0 01-1.64-.64 2.62 2.62 0 01-.64-2v-12.46h5.95v-2.65h-5.95v-7.16zm12.72 6.75h3.65v20.78h-3.65zm-.53-7.54a2.51 2.51 0 00-.2 1 2.37 2.37 0 00.2 1 2.72 2.72 0 00.56.82 2.79 2.79 0 00.83.57 2.47 2.47 0 001 .2 2.64 2.64 0 001-.2 2.79 2.79 0 00.83-.57 2.75 2.75 0 00.57-.82 2.39 2.39 0 00.22-1 2.53 2.53 0 00-.22-1 2.71 2.71 0 00-.57-.84 2.59 2.59 0 00-.83-.56 2.47 2.47 0 00-1-.21 2.31 2.31 0 00-1 .21 2.59 2.59 0 00-.83.56 2.69 2.69 0 00-.56.84zm18.51 23.16c-.13.49-.24 1-.35 1.45-.1-.48-.2-1-.31-1.45a10.05 10.05 0 00-.45-1.48l-5.27-13.42a1.38 1.38 0 00-.41-.53 1.15 1.15 0 00-.72-.23h-3l8.48 20.79h3.3l8.47-20.79h-2.85a1.08 1.08 0 00-.69.22 1.2 1.2 0 00-.4.54l-5.33 13.38a11.54 11.54 0 00-.47 1.52zm29.26-5.5a2.45 2.45 0 00.18-1.15 11.48 11.48 0 00-.64-4 8.34 8.34 0 00-1.8-2.92 7.92 7.92 0 00-2.73-1.8 9.21 9.21 0 00-3.45-.63 10.17 10.17 0 00-4.06.79 9 9 0 00-3.06 2.18 9.5 9.5 0 00-1.91 3.27 12 12 0 00-.67 4.06 14.16 14.16 0 00.74 4.76 9.75 9.75 0 002.06 3.48 8.59 8.59 0 003.14 2.13 10.47 10.47 0 004 .73 13.67 13.67 0 002.28-.19 13 13 0 002.22-.59 10.23 10.23 0 002-1 6.76 6.76 0 001.62-1.43l-1-1.33a.82.82 0 00-.7-.35 1.62 1.62 0 00-.83.32q-.48.32-1.2.69a11.93 11.93 0 01-1.71.68 7.64 7.64 0 01-2.37.32 7.06 7.06 0 01-2.67-.48 5.4 5.4 0 01-2.05-1.46 7 7 0 01-1.36-2.43 11.82 11.82 0 01-.53-3.43h13.83a.78.78 0 00.67-.22zm-14.41-2a7.23 7.23 0 011.89-4.24 6.32 6.32 0 016.39-1.11 4.6 4.6 0 011.65 1.19 5.12 5.12 0 011 1.83 7.45 7.45 0 01.35 2.33zm-95.55 94.51v-3.25h-18.11v29.41h4v-12.64h12.06v-3.24h-12.06v-10.28h14.11zm4.95 5.37h3.65v20.78h-3.65zm4.25-5.53a2.24 2.24 0 00.22-1 2.37 2.37 0 00-.22-1 2.71 2.71 0 00-.57-.84 2.59 2.59 0 00-.83-.56 2.47 2.47 0 00-1-.21 2.38 2.38 0 00-1 .21 2.55 2.55 0 00-.82.56 2.57 2.57 0 00-.77 1.86 2.54 2.54 0 00.2 1 2.82 2.82 0 001.39 1.39 2.54 2.54 0 001 .2 2.64 2.64 0 001-.2 2.79 2.79 0 00.83-.57 2.75 2.75 0 00.57-.84zm23.14 26.32v-13.24a10.9 10.9 0 00-.45-3.22 6.92 6.92 0 00-1.33-2.49 5.72 5.72 0 00-2.17-1.6 7.45 7.45 0 00-3-.57 7.86 7.86 0 00-3.87.93 11.54 11.54 0 00-3 2.42l-.29-2.26a.93.93 0 00-1-.76h-2.18v20.79h3.65v-15.31a10 10 0 012.6-2.11 6.16 6.16 0 013-.78 4 4 0 013.29 1.3 5.59 5.59 0 011.08 3.66v13.24zm10.18-26.32a2.24 2.24 0 00.22-1 2.37 2.37 0 00-.22-1 2.71 2.71 0 00-.57-.84 2.59 2.59 0 00-.83-.56 2.44 2.44 0 00-1-.21 2.38 2.38 0 00-1 .21 2.55 2.55 0 00-.82.56 2.57 2.57 0 00-.77 1.86 2.54 2.54 0 00.2 1 2.82 2.82 0 001.39 1.39 2.54 2.54 0 001 .2 2.6 2.6 0 001-.2 2.79 2.79 0 00.83-.57 2.75 2.75 0 00.57-.84zm-4.25 5.53h3.65v20.78h-3.65zm18.67 20.6a7.36 7.36 0 002.46-1.4 5.8 5.8 0 001.52-2.12 6.8 6.8 0 00.51-2.65 4.61 4.61 0 00-.46-2.15 4.86 4.86 0 00-1.22-1.51 7.17 7.17 0 00-1.72-1q-1-.42-2-.75c-.68-.23-1.34-.44-2-.64a10.76 10.76 0 01-1.73-.68 4.06 4.06 0 01-1.22-.93 1.94 1.94 0 01-.46-1.33 2.48 2.48 0 01.28-1.18 2.89 2.89 0 01.8-1 4.15 4.15 0 011.26-.64 5.37 5.37 0 011.66-.24 6.34 6.34 0 011.85.24 9.48 9.48 0 011.34.51l1 .5a1.44 1.44 0 00.69.23.81.81 0 00.76-.45l.82-1.33a8.52 8.52 0 00-2.82-1.78 9.93 9.93 0 00-3.68-.65 9.24 9.24 0 00-3.14.5 7 7 0 00-2.32 1.32 5.56 5.56 0 00-1.93 4.22 5 5 0 00.47 2.26 4.53 4.53 0 001.22 1.57 6.69 6.69 0 001.73 1.06c.65.28 1.31.53 2 .75s1.34.43 2 .62a9.59 9.59 0 011.73.7 3.77 3.77 0 011.22 1 2.15 2.15 0 01.46 1.42 3.41 3.41 0 01-.25 1.32 2.85 2.85 0 01-.79 1.08 3.82 3.82 0 01-1.33.75 5.62 5.62 0 01-1.87.28 6.43 6.43 0 01-2.08-.29 7 7 0 01-1.42-.64c-.39-.23-.72-.44-1-.63a1.37 1.37 0 00-.77-.29 1.07 1.07 0 00-.6.15 1.19 1.19 0 00-.39.41l-.86 1.39a10.17 10.17 0 003 1.82 10.55 10.55 0 003.94.7 10.16 10.16 0 003.34-.52zm12.88-15.12a10 10 0 012.6-2.11 6.16 6.16 0 013-.78 4 4 0 013.29 1.3 5.59 5.59 0 011.08 3.66v13.24h3.67v-13.24a10.9 10.9 0 00-.45-3.22 7.08 7.08 0 00-1.33-2.49 5.72 5.72 0 00-2.17-1.6 7.45 7.45 0 00-3-.57 8 8 0 00-3.73.85 11.41 11.41 0 00-3 2.27v-12.23h-3.65v30.23h3.65zm35.83 4.64a2.45 2.45 0 00.18-1.15 11.25 11.25 0 00-.64-4 8.34 8.34 0 00-1.8-2.92 7.83 7.83 0 00-2.73-1.8 9.19 9.19 0 00-3.44-.63 10.19 10.19 0 00-4.07.79 9 9 0 00-3.06 2.18 9.5 9.5 0 00-1.91 3.27 12 12 0 00-.67 4.06 14.16 14.16 0 00.74 4.76 9.75 9.75 0 002.06 3.48 8.59 8.59 0 003.14 2.13 10.47 10.47 0 004 .73 13.67 13.67 0 002.28-.19 12.73 12.73 0 002.22-.59 10 10 0 002-1 7 7 0 001.63-1.43l-1-1.33a.81.81 0 00-.7-.35 1.62 1.62 0 00-.83.32q-.48.32-1.2.69a11.93 11.93 0 01-1.71.68 7.64 7.64 0 01-2.37.32 7.06 7.06 0 01-2.67-.48 5.4 5.4 0 01-2-1.46 6.79 6.79 0 01-1.35-2.43 11.48 11.48 0 01-.54-3.43h13.83a.78.78 0 00.61-.22zm-14.4-2a7.16 7.16 0 011.88-4.24 6.32 6.32 0 016.39-1.11 4.6 4.6 0 011.65 1.19 5 5 0 011 1.83 7.45 7.45 0 01.35 2.33zm32.39-6.02a7.68 7.68 0 00-2.42-1.82 7.52 7.52 0 00-3.26-.65 8.13 8.13 0 00-6.6 3.12 10.47 10.47 0 00-1.77 3.44 14.33 14.33 0 00-.62 4.28 17.45 17.45 0 00.55 4.57 9.72 9.72 0 001.58 3.33 6.91 6.91 0 002.49 2 7.61 7.61 0 003.24.68 7.79 7.79 0 003.93-1 11 11 0 003-2.6l.32 2.53a.94.94 0 001 .76h2.17v-30.18h-3.65zm0 12.88a9 9 0 01-2.47 2.32 5.87 5.87 0 01-3.13.82 5.56 5.56 0 01-2.26-.43 4 4 0 01-1.66-1.37 6.79 6.79 0 01-1-2.38 15.14 15.14 0 01-.34-3.47 9.67 9.67 0 011.56-5.91 5.26 5.26 0 014.47-2.08 6.42 6.42 0 012.66.55 5.69 5.69 0 012.2 1.9zM463 627.28a13.28 13.28 0 004.58-3.09 14 14 0 003-4.75 18.2 18.2 0 000-12.13 14.14 14.14 0 00-3-4.76 13.33 13.33 0 00-4.58-3.11 15.52 15.52 0 00-5.92-1.1 15.36 15.36 0 00-5.91 1.1 13.33 13.33 0 00-4.58 3.11 14 14 0 00-2.95 4.76 18 18 0 000 12.13 13.82 13.82 0 002.95 4.75 13.28 13.28 0 004.58 3.09 15.36 15.36 0 005.91 1.09 15.52 15.52 0 005.92-1.09zm-13.51-5.42a10.14 10.14 0 01-2.1-3.63 16.33 16.33 0 010-9.72 10.19 10.19 0 012.1-3.64 9.28 9.28 0 013.3-2.29 11.93 11.93 0 018.59 0 9.24 9.24 0 013.29 2.29 10.32 10.32 0 012.09 3.64 16.33 16.33 0 010 9.72 10.27 10.27 0 01-2.09 3.63 9.09 9.09 0 01-3.29 2.28 12.07 12.07 0 01-8.59 0 9.13 9.13 0 01-3.27-2.28zM488 610.89a.62.62 0 00.64-.51l.47-2.73a5.32 5.32 0 00-1.29-.54 5.73 5.73 0 00-1.56-.2 5.82 5.82 0 00-3.68 1.22 9.53 9.53 0 00-2.64 3.4l-.24-3.24a1.42 1.42 0 00-.31-.78 1.16 1.16 0 00-.82-.23h-2.1v20.79h3.66v-13.24a8.31 8.31 0 012.14-3.22 4.7 4.7 0 013.19-1.11 5.5 5.5 0 011.66.2 3.16 3.16 0 00.88.19zm18.33 13.89l.33 2.53a.93.93 0 001 .76h2.18v-30.23h-3.66v11.54a7.68 7.68 0 00-2.42-1.82 7.52 7.52 0 00-3.26-.65 8.4 8.4 0 00-3.78.83 8.56 8.56 0 00-2.82 2.29 10.47 10.47 0 00-1.77 3.44 14.33 14.33 0 00-.62 4.28 17 17 0 00.56 4.57 9.54 9.54 0 001.58 3.33 6.8 6.8 0 002.48 2 7.61 7.61 0 003.24.68 7.79 7.79 0 003.93-1 11 11 0 003.03-2.55zm-8 .19a4 4 0 01-1.66-1.37 6.61 6.61 0 01-1-2.38 14.55 14.55 0 01-.35-3.47 9.67 9.67 0 011.56-5.91 5.27 5.27 0 014.47-2.08 6.42 6.42 0 012.66.55 5.69 5.69 0 012.2 1.9v10a9 9 0 01-2.47 2.32 5.87 5.87 0 01-3.13.82 5.56 5.56 0 01-2.31-.35zm34.28-7.57a2.45 2.45 0 00.18-1.15 11.25 11.25 0 00-.64-4 8.19 8.19 0 00-1.8-2.92 7.74 7.74 0 00-2.73-1.8 9.19 9.19 0 00-3.44-.63 10.1 10.1 0 00-4.06.79 8.84 8.84 0 00-3.06 2.18 9.36 9.36 0 00-1.92 3.27 12 12 0 00-.67 4.06 14.16 14.16 0 00.74 4.76 9.75 9.75 0 002.06 3.48 8.67 8.67 0 003.14 2.13 10.5 10.5 0 004 .73 13.67 13.67 0 002.28-.19 12.84 12.84 0 002.23-.59 10.51 10.51 0 002-1 6.76 6.76 0 001.62-1.43l-1-1.33a.8.8 0 00-.7-.35 1.62 1.62 0 00-.83.32q-.48.32-1.2.69a11.93 11.93 0 01-1.71.68 7.55 7.55 0 01-2.37.32A7.13 7.13 0 01522 625a5.48 5.48 0 01-2-1.46 7.11 7.11 0 01-1.35-2.43 11.48 11.48 0 01-.54-3.43h13.83a.77.77 0 00.67-.28zm-14.4-2a7.16 7.16 0 011.88-4.24 6.34 6.34 0 016.4-1.11 4.69 4.69 0 011.65 1.19 5.1 5.1 0 011 1.83 7.17 7.17 0 01.35 2.33zm29.89-4.7a3.16 3.16 0 00.88.19.62.62 0 00.64-.51l.47-2.73a5.67 5.67 0 00-1.29-.54 6.17 6.17 0 00-5.24 1 9.53 9.53 0 00-2.64 3.4l-.25-3.24a1.35 1.35 0 00-.3-.78 1.16 1.16 0 00-.82-.23h-2.1v20.79h3.65v-13.22a8.33 8.33 0 012.15-3.22 4.7 4.7 0 013.19-1.11 5.54 5.54 0 011.66.2zm22.53 1.49h-12.06v-10.28h14.11v-3.25h-18.12v29.41h4.01v-12.64h12.06v-3.24zm11.25-10.44a2.24 2.24 0 00.22-1 2.37 2.37 0 00-.22-1 2.71 2.71 0 00-.57-.84 2.59 2.59 0 00-.83-.56 2.47 2.47 0 00-1-.21 2.38 2.38 0 00-1 .21 2.55 2.55 0 00-.82.56 2.57 2.57 0 00-.77 1.86 2.54 2.54 0 00.2 1 2.82 2.82 0 001.39 1.39 2.54 2.54 0 001 .2 2.64 2.64 0 001-.2 2.79 2.79 0 00.83-.57 2.75 2.75 0 00.57-.84zm-4.25 5.53h3.65v20.78h-3.65zM605 628.07v-13.24a10.9 10.9 0 00-.45-3.22 7.08 7.08 0 00-1.33-2.49 5.72 5.72 0 00-2.17-1.6 7.45 7.45 0 00-3-.57 7.86 7.86 0 00-3.87.93 11.54 11.54 0 00-3 2.42l-.29-2.26a.93.93 0 00-1-.76h-2.18v20.79h3.65v-15.31a10 10 0 012.6-2.11 6.16 6.16 0 013-.78 4 4 0 013.29 1.3 5.59 5.59 0 011.08 3.66v13.24zm5.95-20.79h3.65v20.78h-3.65zm4.25-5.53a2.24 2.24 0 00.22-1 2.37 2.37 0 00-.22-1 2.71 2.71 0 00-.57-.84 2.59 2.59 0 00-.83-.56 2.47 2.47 0 00-1-.21 2.38 2.38 0 00-1 .21 2.55 2.55 0 00-.82.56 2.57 2.57 0 00-.77 1.86 2.54 2.54 0 00.2 1 2.82 2.82 0 001.39 1.39 2.54 2.54 0 001 .2 2.64 2.64 0 001-.2 2.79 2.79 0 00.83-.57 2.75 2.75 0 00.57-.84zm6.6 7.02a5.56 5.56 0 00-1.93 4.22 5.14 5.14 0 00.46 2.26 4.78 4.78 0 001.22 1.57 6.92 6.92 0 001.74 1.06c.65.28 1.31.53 2 .75s1.34.43 2 .62a9.59 9.59 0 011.73.7 3.77 3.77 0 011.22 1 2.15 2.15 0 01.46 1.42 3.41 3.41 0 01-.25 1.32 3 3 0 01-.79 1.08 3.77 3.77 0 01-1.34.75 5.51 5.51 0 01-1.86.28 6.43 6.43 0 01-2.08-.29 7 7 0 01-1.42-.64c-.39-.23-.72-.44-1-.63a1.37 1.37 0 00-.77-.29 1.07 1.07 0 00-.6.15 1.19 1.19 0 00-.39.41l-.86 1.39a10.17 10.17 0 003 1.82 10.55 10.55 0 003.94.7 10.16 10.16 0 003.37-.51 7.36 7.36 0 002.46-1.4 5.8 5.8 0 001.52-2.12 6.8 6.8 0 00.51-2.65 4.61 4.61 0 00-.46-2.15 4.86 4.86 0 00-1.22-1.51 7.17 7.17 0 00-1.72-1q-1-.42-2-.75c-.68-.23-1.34-.44-2-.64A10.76 10.76 0 01625 615a4.06 4.06 0 01-1.22-.93 1.94 1.94 0 01-.46-1.33 2.48 2.48 0 01.28-1.18 2.89 2.89 0 01.8-1 4.15 4.15 0 011.26-.64 5.32 5.32 0 011.66-.24 6.34 6.34 0 011.85.24 10 10 0 011.34.51l1 .5a1.44 1.44 0 00.69.23.81.81 0 00.76-.45l.82-1.33a8.52 8.52 0 00-2.82-1.78 9.93 9.93 0 00-3.68-.65 9.24 9.24 0 00-3.14.5 7 7 0 00-2.34 1.32zm20.7 1.3v-12.23h-3.65v30.23h3.65v-15.31a10 10 0 012.6-2.11 6.12 6.12 0 013-.78 4 4 0 013.3 1.3 5.59 5.59 0 011.08 3.66v13.24h3.65v-13.24a10.9 10.9 0 00-.45-3.22 7.08 7.08 0 00-1.33-2.49 5.72 5.72 0 00-2.17-1.6 7.45 7.45 0 00-3-.57 8 8 0 00-3.73.85 11.41 11.41 0 00-2.95 2.27zm35.83 7.33a2.45 2.45 0 00.18-1.15 11.25 11.25 0 00-.64-4 8.34 8.34 0 00-1.8-2.92 7.92 7.92 0 00-2.73-1.8 9.21 9.21 0 00-3.45-.63 10.17 10.17 0 00-4.06.79 9 9 0 00-3.06 2.18 9.5 9.5 0 00-1.91 3.27 12 12 0 00-.67 4.06 14.16 14.16 0 00.74 4.76 9.75 9.75 0 002.06 3.48 8.59 8.59 0 003.14 2.13 10.47 10.47 0 004 .73 13.67 13.67 0 002.28-.19 13 13 0 002.22-.59 10 10 0 002-1 7 7 0 001.63-1.43l-1-1.33a.82.82 0 00-.7-.35 1.62 1.62 0 00-.83.32q-.48.32-1.2.69a11.93 11.93 0 01-1.71.68 7.64 7.64 0 01-2.37.32 7.06 7.06 0 01-2.67-.48 5.4 5.4 0 01-2-1.46 7 7 0 01-1.36-2.43 11.82 11.82 0 01-.53-3.43h13.83a.78.78 0 00.61-.22zm-14.41-2a7.23 7.23 0 011.89-4.24 6.32 6.32 0 016.39-1.11 4.6 4.6 0 011.65 1.19 5 5 0 011 1.83 7.45 7.45 0 01.35 2.33zm22.94-7.66A8.36 8.36 0 00684 610a10.47 10.47 0 00-1.77 3.44 14.33 14.33 0 00-.62 4.28 17 17 0 00.55 4.57 9.72 9.72 0 001.58 3.33 6.83 6.83 0 002.49 2 7.61 7.61 0 003.24.68 7.82 7.82 0 003.93-1 10.85 10.85 0 003-2.6l.33 2.53a.94.94 0 001 .76H700v-30.15h-3.65v11.54a7.68 7.68 0 00-2.42-1.82 7.52 7.52 0 00-3.26-.65 8.4 8.4 0 00-3.81.83zm7.26 2.57a5.69 5.69 0 012.2 1.9v10a9.09 9.09 0 01-2.47 2.32 5.87 5.87 0 01-3.13.82 5.56 5.56 0 01-2.26-.43 4 4 0 01-1.66-1.37 6.79 6.79 0 01-1-2.38 15.14 15.14 0 01-.34-3.47 9.74 9.74 0 011.55-5.91 5.29 5.29 0 014.48-2.08 6.46 6.46 0 012.63.6zm30.68 14.51h-14.12v-10.03h11.43v-3.12h-11.43v-9.76h14.12v-3.25h-18.12v29.41h18.12v-3.25zm6.2-17.31a1.15 1.15 0 00-.72-.23h-3l8.48 20.79h3.3l8.47-20.79h-2.85a1.08 1.08 0 00-.69.22 1.28 1.28 0 00-.4.54l-5.33 13.38a11.54 11.54 0 00-.47 1.48c-.13.49-.24 1-.35 1.45-.1-.48-.2-1-.31-1.45a10.05 10.05 0 00-.45-1.48L731.45 608a1.38 1.38 0 00-.45-.49zm34.38 19.07a6.76 6.76 0 001.62-1.43l-1-1.33a.82.82 0 00-.7-.35 1.62 1.62 0 00-.83.32q-.48.32-1.2.69a11.93 11.93 0 01-1.71.68 7.64 7.64 0 01-2.37.32 7.06 7.06 0 01-2.67-.48 5.4 5.4 0 01-2-1.46 7 7 0 01-1.36-2.43 11.82 11.82 0 01-.53-3.43h13.83a.78.78 0 00.7-.28 2.45 2.45 0 00.18-1.15 11 11 0 00-.65-4 8.17 8.17 0 00-1.79-2.92 7.92 7.92 0 00-2.73-1.8 9.21 9.21 0 00-3.45-.63 10.14 10.14 0 00-4.06.79 9 9 0 00-3.06 2.18 9.5 9.5 0 00-1.91 3.27 12 12 0 00-.67 4.06 14.16 14.16 0 00.74 4.76 9.75 9.75 0 002.06 3.48 8.59 8.59 0 003.14 2.13 10.47 10.47 0 004 .73 13.67 13.67 0 002.28-.19 13 13 0 002.22-.59 10.23 10.23 0 001.92-.94zm-10.81-15.41a6.32 6.32 0 016.39-1.11 4.6 4.6 0 011.65 1.19 5 5 0 011 1.83 7.45 7.45 0 01.35 2.33h-11.28a7.23 7.23 0 011.89-4.24zm31 3.66v13.24h3.65v-13.24a10.9 10.9 0 00-.45-3.22 7.06 7.06 0 00-1.32-2.49 5.8 5.8 0 00-2.17-1.6 7.48 7.48 0 00-3-.57 7.86 7.86 0 00-3.87.93 11.54 11.54 0 00-3 2.42l-.29-2.26a.94.94 0 00-1-.76h-2.17v20.79h3.65v-15.31a9.85 9.85 0 012.6-2.11 6.1 6.1 0 013-.78 4 4 0 013.3 1.3 5.64 5.64 0 011.07 3.66zm18.92 9.58a.71.71 0 00-.38.16l-.52.34a5.59 5.59 0 01-.73.34 3 3 0 01-1 .15 2.21 2.21 0 01-1.64-.64 2.66 2.66 0 01-.63-2v-12.42h5.95v-2.65h-5.95v-7.16h-1.85a.84.84 0 00-.57.2.73.73 0 00-.27.5l-.84 6.42-3.41.43v1.46a.75.75 0 00.23.6.81.81 0 00.55.2h2.5v12.72a5.51 5.51 0 001.33 4 5 5 0 003.78 1.37 7.61 7.61 0 002.75-.5 6.69 6.69 0 002.28-1.38l-1.07-1.79a.63.63 0 00-.51-.35zM476.6 710.55a13.28 13.28 0 00-4.59-3.11 16.45 16.45 0 00-11.83 0 13.39 13.39 0 00-4.57 3.11 14.14 14.14 0 00-3 4.76 18.2 18.2 0 000 12.13 14 14 0 003 4.75 13.34 13.34 0 004.57 3.09 16.59 16.59 0 0011.83 0 13.23 13.23 0 004.59-3.09 13.82 13.82 0 002.95-4.75 18 18 0 000-12.13 14 14 0 00-2.95-4.76zm-.82 15.68a10.27 10.27 0 01-2.09 3.63 9.09 9.09 0 01-3.29 2.28 12.1 12.1 0 01-8.6 0 9.18 9.18 0 01-3.29-2.28 10.14 10.14 0 01-2.1-3.63 16.33 16.33 0 010-9.72 10.19 10.19 0 012.1-3.64 9.33 9.33 0 013.29-2.29 12 12 0 018.6 0 9.24 9.24 0 013.29 2.29 10.32 10.32 0 012.09 3.64 16.33 16.33 0 010 9.72zm19.47-11.32a5.82 5.82 0 00-3.68 1.22 9.53 9.53 0 00-2.64 3.4l-.25-3.24a1.35 1.35 0 00-.3-.78 1.19 1.19 0 00-.83-.23h-2.09v20.79h3.65v-13.24a8.33 8.33 0 012.15-3.22 4.7 4.7 0 013.19-1.11 5.54 5.54 0 011.66.2 3.16 3.16 0 00.88.19.62.62 0 00.64-.51l.47-2.73a5.67 5.67 0 00-1.29-.54 5.84 5.84 0 00-1.56-.2zm10.44.83a8.36 8.36 0 00-2.82 2.29 10.47 10.47 0 00-1.77 3.44 14.33 14.33 0 00-.62 4.28 17 17 0 00.56 4.57 9.37 9.37 0 001.58 3.33 6.72 6.72 0 002.48 2 7.61 7.61 0 003.24.68 7.82 7.82 0 003.93-1 10.85 10.85 0 003-2.6l.33 2.53a.94.94 0 001 .76h2.17v-30.18h-3.65v11.54a7.68 7.68 0 00-2.42-1.82 7.52 7.52 0 00-3.26-.65 8.4 8.4 0 00-3.75.83zm7.26 2.57a5.69 5.69 0 012.2 1.9v10a9.09 9.09 0 01-2.47 2.32 5.87 5.87 0 01-3.13.82 5.56 5.56 0 01-2.26-.43 4 4 0 01-1.66-1.37 6.61 6.61 0 01-1-2.38 14.55 14.55 0 01-.35-3.47 9.74 9.74 0 011.55-5.91 5.3 5.3 0 014.48-2.08 6.46 6.46 0 012.69.6zm24.93 17.26a10.15 10.15 0 002-1 7 7 0 001.63-1.43l-1-1.33a.81.81 0 00-.7-.35 1.62 1.62 0 00-.83.32q-.48.32-1.2.69a11.93 11.93 0 01-1.71.68 7.64 7.64 0 01-2.37.32 7.06 7.06 0 01-2.7-.47 5.4 5.4 0 01-2-1.46 6.79 6.79 0 01-1.35-2.43 11.48 11.48 0 01-.54-3.43h13.79a.78.78 0 00.7-.28 2.45 2.45 0 00.18-1.15 11.25 11.25 0 00-.64-4 8.19 8.19 0 00-1.8-2.92 7.83 7.83 0 00-2.73-1.8 9.19 9.19 0 00-3.44-.63 10.19 10.19 0 00-4.07.79 9 9 0 00-3.06 2.18 9.5 9.5 0 00-1.91 3.27 12 12 0 00-.67 4.06 14.16 14.16 0 00.74 4.76 9.75 9.75 0 002.06 3.48 8.59 8.59 0 003.14 2.13 10.47 10.47 0 004 .73 13.67 13.67 0 002.28-.19 13.08 13.08 0 002.2-.54zm-8.8-16.4a6.32 6.32 0 016.39-1.11 4.6 4.6 0 011.65 1.19 5 5 0 011 1.83 7.45 7.45 0 01.35 2.33H527.2a7.16 7.16 0 011.88-4.24zm21.01 3.66a8.33 8.33 0 012.15-3.22 4.68 4.68 0 013.19-1.11 5.54 5.54 0 011.66.2 3.16 3.16 0 00.88.19.62.62 0 00.64-.51l.47-2.73a5.67 5.67 0 00-1.29-.54 6.19 6.19 0 00-5.25 1 9.62 9.62 0 00-2.63 3.4l-.25-3.24a1.35 1.35 0 00-.31-.78 1.15 1.15 0 00-.82-.23h-2.09v20.79h3.65zm24.47 12.85a9.1 9.1 0 003.1-2 8.46 8.46 0 001.92-3 10.07 10.07 0 00.65-3.62 7.11 7.11 0 00-.6-3.08A6.63 6.63 0 00578 722a9.53 9.53 0 00-2.26-1.43c-.84-.37-1.7-.71-2.58-1l-2.59-.87a12.72 12.72 0 01-2.26-1 5.28 5.28 0 01-1.6-1.38 3.34 3.34 0 01-.6-2 4.43 4.43 0 01.35-1.79 4 4 0 011-1.45 5 5 0 011.72-1 7.09 7.09 0 012.36-.36 7.43 7.43 0 012.46.28 9.36 9.36 0 011.7.77 11.92 11.92 0 011.17.77 1.45 1.45 0 00.81.35.86.86 0 00.53-.16 1.41 1.41 0 00.39-.46l1-1.89a10.52 10.52 0 00-3.55-2.25 12.47 12.47 0 00-4.5-.78 10.47 10.47 0 00-3.89.67 8.65 8.65 0 00-2.84 1.81 7.77 7.77 0 00-1.75 2.58 8.4 8.4 0 000 6.29 6.47 6.47 0 001.59 2.21 8.29 8.29 0 002.25 1.43 25.84 25.84 0 002.58 1l2.59.82a11.27 11.27 0 012.24 1 5 5 0 011.59 1.43 3.66 3.66 0 01.61 2.19 5.73 5.73 0 01-.41 2.19 4.82 4.82 0 01-1.18 1.69 5.22 5.22 0 01-1.88 1.1 7.58 7.58 0 01-2.52.39 7.93 7.93 0 01-2.89-.46 11.06 11.06 0 01-2-1 14.7 14.7 0 01-1.38-1 1.62 1.62 0 00-1-.46 1 1 0 00-.52.15 1.45 1.45 0 00-.4.38l-1.15 1.89a12.36 12.36 0 004 2.8 12.77 12.77 0 005.2 1 11.38 11.38 0 004.17-.77zm12.68-.68a5 5 0 003.79 1.37 7.69 7.69 0 002.75-.5 6.75 6.75 0 002.27-1.38l-1.05-1.73a.66.66 0 00-.52-.35.74.74 0 00-.38.16l-.52.34a5 5 0 01-.73.34 3 3 0 01-1 .15 2.19 2.19 0 01-1.64-.64 2.62 2.62 0 01-.64-2v-12.42h5.95v-2.65h-5.95v-7.16h-1.85a.84.84 0 00-.57.2.78.78 0 00-.27.5l-.84 6.42-3.41.43v1.46a.75.75 0 00.23.6.83.83 0 00.55.2h2.51v12.72a5.51 5.51 0 001.32 3.94zm23.13-.4c.52-.39 1.06-.83 1.6-1.32l.41 1.93a.93.93 0 00.43.69 2 2 0 00.87.17h1.62v-13.3a10.48 10.48 0 00-.47-3.2 6.77 6.77 0 00-1.4-2.48 6.23 6.23 0 00-2.28-1.6 7.72 7.72 0 00-3.1-.58 11.62 11.62 0 00-4.41.82 12 12 0 00-3.71 2.49l.66 1.17a1.44 1.44 0 00.44.48 1.07 1.07 0 00.64.19 1.63 1.63 0 001-.34l1.15-.76a8 8 0 011.58-.75 6.32 6.32 0 012.24-.34 3.73 3.73 0 013.07 1.25 5.65 5.65 0 011 3.68v1.63a26.6 26.6 0 00-6 .57 14.2 14.2 0 00-4 1.45 5.94 5.94 0 00-2.19 2 4.6 4.6 0 00-.68 2.38 6 6 0 00.47 2.46 4.85 4.85 0 001.24 1.72 5.28 5.28 0 001.83 1 7.6 7.6 0 002.27.33 10.24 10.24 0 002.16-.2 8.46 8.46 0 001.84-.61 8.57 8.57 0 001.72-.93zm-4.55-.77a4.77 4.77 0 01-1.34-.18 2.65 2.65 0 01-1.78-1.53 3.48 3.48 0 01-.27-1.43 2.63 2.63 0 01.51-1.57 4 4 0 011.61-1.21 11.94 11.94 0 012.87-.84 24.88 24.88 0 014.29-.32V731a11.35 11.35 0 01-1.26 1.17 8.67 8.67 0 01-1.36.87 6.78 6.78 0 01-1.51.55 6.92 6.92 0 01-1.76.24zm25.67-15.13a3.09 3.09 0 00.88.19.6.6 0 00.63-.51l.48-2.73a5.56 5.56 0 00-1.3-.54 5.73 5.73 0 00-1.56-.2 5.84 5.84 0 00-3.68 1.22 9.64 9.64 0 00-2.64 3.4l-.24-3.24a1.42 1.42 0 00-.31-.78 1.15 1.15 0 00-.82-.23h-2.09v20.79h3.65v-13.24a8.31 8.31 0 012.14-3.22 4.71 4.71 0 013.19-1.11 5.57 5.57 0 011.67.2zm8.88-10.17a.89.89 0 00-.58.2.72.72 0 00-.26.5l-.84 6.42-3.41.43v1.46a.75.75 0 00.23.6.81.81 0 00.55.2h2.5v12.72a5.51 5.51 0 001.33 4 5 5 0 003.78 1.37 7.61 7.61 0 002.75-.5 6.69 6.69 0 002.28-1.38l-1.07-1.75a.63.63 0 00-.51-.35.71.71 0 00-.38.16l-.52.34a5.59 5.59 0 01-.73.34 3 3 0 01-1 .15 2.21 2.21 0 01-1.64-.64 2.66 2.66 0 01-.63-2v-12.46h5.95v-2.65h-5.95v-7.16zm13.42 9.39a9.36 9.36 0 00-1.92 3.27 12 12 0 00-.67 4.06 14.16 14.16 0 00.74 4.76 9.75 9.75 0 002.06 3.48 8.59 8.59 0 003.14 2.13 10.5 10.5 0 004 .73 13.58 13.58 0 002.28-.19 12.84 12.84 0 002.23-.59 10.51 10.51 0 002-1 6.76 6.76 0 001.62-1.43l-1-1.33a.79.79 0 00-.69-.35 1.64 1.64 0 00-.84.32q-.48.32-1.2.69a11.93 11.93 0 01-1.71.68 7.55 7.55 0 01-2.37.32 7.13 7.13 0 01-2.67-.48 5.48 5.48 0 01-2-1.46 7.11 7.11 0 01-1.35-2.43 11.48 11.48 0 01-.54-3.43h13.83a.77.77 0 00.7-.28 2.42 2.42 0 00.19-1.15 11.24 11.24 0 00-.65-4 8.19 8.19 0 00-1.8-2.92 7.74 7.74 0 00-2.73-1.8 9.19 9.19 0 00-3.44-.63 10.1 10.1 0 00-4.06.79 8.84 8.84 0 00-3.15 2.24zm7.2-.28a5.53 5.53 0 012.22.42 4.55 4.55 0 011.66 1.19 5.1 5.1 0 011 1.83 7.45 7.45 0 01.35 2.33h-11.3a7.16 7.16 0 011.88-4.24 5.62 5.62 0 014.2-1.53zm19.53 18.71a7.79 7.79 0 003.93-1 11 11 0 003-2.6l.33 2.53a.93.93 0 001 .76H691v-30.2h-3.66v11.54a7.15 7.15 0 00-5.68-2.47 8.33 8.33 0 00-3.77.83 8.49 8.49 0 00-2.83 2.29 10.47 10.47 0 00-1.77 3.44 14.33 14.33 0 00-.62 4.28 17 17 0 00.56 4.57 9.54 9.54 0 001.58 3.33 6.8 6.8 0 002.48 2 7.61 7.61 0 003.23.7zm-4.08-10.6a9.67 9.67 0 011.56-5.91 5.27 5.27 0 014.47-2.08 6.42 6.42 0 012.66.55 5.69 5.69 0 012.2 1.9v10a9 9 0 01-2.47 2.32 5.85 5.85 0 01-3.13.82 5.47 5.47 0 01-2.25-.43 4.06 4.06 0 01-1.67-1.37 6.61 6.61 0 01-1-2.38 14.55 14.55 0 01-.37-3.42zm39.37-15.84v-3.25H697.7v29.41h18.11v-3.25H701.7v-10.03h11.43v-3.12H701.7v-9.76h14.11zm19.92 5.37a1 1 0 00-.68.22 1.13 1.13 0 00-.4.54l-5.34 13.38a11.54 11.54 0 00-.47 1.48c-.12.49-.24 1-.35 1.45-.09-.48-.2-1-.31-1.45a10.05 10.05 0 00-.45-1.48L722.46 716a1.29 1.29 0 00-.41-.53 1.13 1.13 0 00-.72-.23h-3l8.47 20.79h3.3l8.48-20.79zm20.11 2.1a7.74 7.74 0 00-2.73-1.8 9.19 9.19 0 00-3.44-.63 10.1 10.1 0 00-4.06.79 8.84 8.84 0 00-3.06 2.18 9.36 9.36 0 00-1.92 3.27 12 12 0 00-.67 4.06 14.16 14.16 0 00.74 4.76 9.75 9.75 0 002.06 3.48 8.59 8.59 0 003.14 2.13 10.5 10.5 0 004 .73 13.67 13.67 0 002.28-.19 12.84 12.84 0 002.23-.59 10.51 10.51 0 002-1 6.76 6.76 0 001.62-1.43l-1-1.33a.8.8 0 00-.7-.35 1.65 1.65 0 00-.83.32q-.48.32-1.2.69a11.93 11.93 0 01-1.71.68 7.55 7.55 0 01-2.37.32 7.13 7.13 0 01-2.67-.48 5.48 5.48 0 01-2-1.46 7.11 7.11 0 01-1.35-2.43 11.48 11.48 0 01-.54-3.43h13.74a.77.77 0 00.7-.28 2.42 2.42 0 00.19-1.15 11.24 11.24 0 00-.65-4 8.19 8.19 0 00-1.8-2.86zm-12.14 6a7.16 7.16 0 011.88-4.24 5.62 5.62 0 014.17-1.53 5.53 5.53 0 012.22.42 4.64 4.64 0 011.66 1.19 5.1 5.1 0 011 1.83 7.45 7.45 0 01.35 2.33zm34.76-6.26a5.72 5.72 0 00-2.17-1.6 7.45 7.45 0 00-3-.57 7.86 7.86 0 00-3.87.93 11.54 11.54 0 00-3 2.42l-.32-2.3a.93.93 0 00-1-.76h-2.18v20.79h3.65v-15.27a10 10 0 012.6-2.11 6.1 6.1 0 013-.78 4 4 0 013.3 1.3 5.59 5.59 0 011.08 3.66v13.24h3.65v-13.24a10.9 10.9 0 00-.45-3.22 7.08 7.08 0 00-1.29-2.49zm17.04 15.29a.74.74 0 00-.38.16l-.52.34a5 5 0 01-.73.34 3 3 0 01-1 .15 2.19 2.19 0 01-1.64-.64 2.62 2.62 0 01-.64-2v-12.42h5.95v-2.65h-5.94v-7.16h-1.85a.84.84 0 00-.57.2.78.78 0 00-.27.5l-.84 6.42-3.41.43v1.46a.75.75 0 00.23.6.83.83 0 00.56.2H787v12.72a5.51 5.51 0 001.32 4 5 5 0 003.79 1.37 7.65 7.65 0 002.75-.5 6.55 6.55 0 002.27-1.38l-1.13-1.79a.63.63 0 00-.5-.35zM505.71 399.39a11.42 11.42 0 004.18-.71 9.19 9.19 0 003.1-2 8.3 8.3 0 001.91-2.95 9.86 9.86 0 00.66-3.62 7.11 7.11 0 00-.6-3.08 6.63 6.63 0 00-1.6-2.11 9.53 9.53 0 00-2.26-1.43c-.84-.37-1.7-.71-2.59-1l-2.58-.87a12.41 12.41 0 01-2.26-1 5.16 5.16 0 01-1.6-1.38 3.35 3.35 0 01-.61-2.05 4.61 4.61 0 01.35-1.79 4.13 4.13 0 011-1.45 5.06 5.06 0 011.71-1 7.14 7.14 0 012.36-.36 7.35 7.35 0 012.41.35 9.47 9.47 0 011.71.77 11.92 11.92 0 011.17.77 1.43 1.43 0 00.81.35.88.88 0 00.53-.16 1.41 1.41 0 00.39-.46l1-1.89a10.38 10.38 0 00-3.54-2.25 12.51 12.51 0 00-4.5-.78 10.47 10.47 0 00-3.86.71 8.65 8.65 0 00-2.84 1.81 8.21 8.21 0 00-1.75 8.87 6.47 6.47 0 001.59 2.22 8.24 8.24 0 002.24 1.43 26 26 0 002.59 1l2.58.82a11.37 11.37 0 012.25 1 5 5 0 011.59 1.43 3.73 3.73 0 01.61 2.19 5.73 5.73 0 01-.41 2.19 4.82 4.82 0 01-1.18 1.69 5.31 5.31 0 01-1.88 1.1 7.58 7.58 0 01-2.52.39 7.93 7.93 0 01-2.89-.46 11.06 11.06 0 01-2-1 14.7 14.7 0 01-1.38-1 1.62 1.62 0 00-1-.46 1 1 0 00-.52.15 1.45 1.45 0 00-.4.38l-1.15 1.89a12.36 12.36 0 004 2.8 12.77 12.77 0 005.18.95zm31-10.99a2.3 2.3 0 00.19-1.15 11.24 11.24 0 00-.65-3.95 8.32 8.32 0 00-1.79-2.92 7.92 7.92 0 00-2.73-1.8 9.21 9.21 0 00-3.45-.63 10.14 10.14 0 00-4.06.79 9 9 0 00-3.06 2.18 9.68 9.68 0 00-1.92 3.27 12.22 12.22 0 00-.66 4.06 13.91 13.91 0 00.74 4.76 9.75 9.75 0 002.06 3.48 8.59 8.59 0 003.14 2.13 10.47 10.47 0 004 .73 13.67 13.67 0 002.28-.19 13 13 0 002.22-.59 10.23 10.23 0 002-1 6.76 6.76 0 001.62-1.43l-1-1.33a.82.82 0 00-.7-.35 1.62 1.62 0 00-.83.32q-.48.31-1.2.69a11.93 11.93 0 01-1.71.68 7.66 7.66 0 01-2.38.32 7 7 0 01-2.66-.48 5.32 5.32 0 01-2-1.46 7 7 0 01-1.36-2.43 11.18 11.18 0 01-.53-3.43H536a.75.75 0 00.71-.27zm-14.4-2a7.23 7.23 0 011.89-4.24 6.32 6.32 0 016.39-1.11 4.6 4.6 0 011.65 1.19 5.12 5.12 0 011 1.83 7.45 7.45 0 01.35 2.33zm22.24-14.87a.84.84 0 00-.57.2.78.78 0 00-.27.5l-.84 6.42-3.41.43v1.46a.75.75 0 00.23.6.83.83 0 00.55.2h2.51v12.72a5.51 5.51 0 001.32 4 5 5 0 003.79 1.37 7.69 7.69 0 002.75-.5 6.75 6.75 0 002.27-1.38l-1.06-1.75a.66.66 0 00-.52-.35.74.74 0 00-.38.16l-.52.34a5 5 0 01-.73.34 3 3 0 01-1 .15 2.19 2.19 0 01-1.64-.64 2.62 2.62 0 01-.64-1.95v-12.51h6v-2.65h-6v-7.16zm24.24 23.07a5.26 5.26 0 01-1.87 1.1 7.6 7.6 0 01-2.53.39 7.91 7.91 0 01-2.88-.46 10.44 10.44 0 01-2-1 15 15 0 01-1.39-1 1.6 1.6 0 00-1-.46.93.93 0 00-.52.15 1.32 1.32 0 00-.4.38l-1.15 1.89a12.15 12.15 0 004 2.8 12.74 12.74 0 005.2 1 11.42 11.42 0 004.18-.71 9.05 9.05 0 003.09-2 8.46 8.46 0 001.92-2.95 9.86 9.86 0 00.66-3.62 7 7 0 00-.61-3.08 6.35 6.35 0 00-1.6-2.11 9.14 9.14 0 00-2.26-1.43c-.84-.37-1.7-.71-2.58-1l-2.59-.87a12.3 12.3 0 01-2.25-1 5.05 5.05 0 01-1.6-1.38 3.29 3.29 0 01-.61-2.05 4.61 4.61 0 01.35-1.79 4 4 0 011-1.45 5.06 5.06 0 011.71-1 7.09 7.09 0 012.36-.36 7.39 7.39 0 012.41.35 9.36 9.36 0 011.7.77 9.9 9.9 0 011.17.77 1.45 1.45 0 00.81.35.91.91 0 00.54-.16 1.7 1.7 0 00.39-.46l1-1.89a10.33 10.33 0 00-3.55-2.25 12.41 12.41 0 00-4.49-.78 10.47 10.47 0 00-3.89.67 8.54 8.54 0 00-2.84 1.81 7.79 7.79 0 00-1.76 2.58 8.53 8.53 0 000 6.29 6.74 6.74 0 001.59 2.21 8.45 8.45 0 002.25 1.43 25.11 25.11 0 002.59 1l2.58.82a11.63 11.63 0 012.25 1 5 5 0 011.59 1.43 3.73 3.73 0 01.6 2.19 5.55 5.55 0 01-.41 2.19 4.57 4.57 0 01-1.16 1.69zm11.13-15.95l-3.4.43v1.46a.75.75 0 00.22.6.83.83 0 00.56.2h2.5v12.72a5.51 5.51 0 001.32 4 5 5 0 003.79 1.37 7.65 7.65 0 002.75-.5 6.69 6.69 0 002.28-1.38l-1.07-1.75a.63.63 0 00-.51-.35.71.71 0 00-.38.16l-.52.34a5.59 5.59 0 01-.73.34 3 3 0 01-1 .15 2.19 2.19 0 01-1.64-.64 2.66 2.66 0 01-.64-1.95v-12.51h5.95v-2.65h-5.95v-7.16h-1.84a.87.87 0 00-.58.2.72.72 0 00-.26.5zm13.89 2.57l.66 1.17a1.55 1.55 0 00.44.48 1.11 1.11 0 00.65.19 1.63 1.63 0 001-.34l1.15-.76a8.3 8.3 0 011.58-.75 6.42 6.42 0 012.25-.34 3.71 3.71 0 013.06 1.25 5.59 5.59 0 011 3.68v1.63a26.73 26.73 0 00-6 .57 14.33 14.33 0 00-4 1.45 6 6 0 00-2.18 2 4.6 4.6 0 00-.68 2.38 6 6 0 00.46 2.46 5 5 0 001.24 1.72 5.24 5.24 0 001.84 1 7.55 7.55 0 002.27.33 10.31 10.31 0 002.16-.2 8.64 8.64 0 001.84-.61 8.89 8.89 0 001.64-1c.52-.39 1-.83 1.6-1.32l.41 1.93a.9.9 0 00.43.69 1.93 1.93 0 00.86.17h1.62v-13.3a10.18 10.18 0 00-.47-3.2 6.63 6.63 0 00-1.4-2.48 6.19 6.19 0 00-2.27-1.6 7.79 7.79 0 00-3.1-.58 11.62 11.62 0 00-4.41.82 11.91 11.91 0 00-3.65 2.56zM605.59 394a11.35 11.35 0 01-1.26 1.17 8.15 8.15 0 01-1.35.87 7.17 7.17 0 01-1.51.55 7 7 0 01-1.77.2 4.7 4.7 0 01-1.33-.18 2.64 2.64 0 01-1.79-1.53 3.65 3.65 0 01-.26-1.43 2.62 2.62 0 01.5-1.57 4.05 4.05 0 011.61-1.21 12.08 12.08 0 012.87-.84 24.88 24.88 0 014.29-.32zm19.92-12.66v-2.65h-6v-7.16h-1.84a.85.85 0 00-.58.2.72.72 0 00-.26.5l-.84 6.42-3.41.43v1.46a.72.72 0 00.23.6.81.81 0 00.55.2h2.5v12.72a5.51 5.51 0 001.32 4 5 5 0 003.79 1.37 7.65 7.65 0 002.75-.5 6.69 6.69 0 002.28-1.38l-1-1.79a.63.63 0 00-.51-.35.71.71 0 00-.38.16c-.14.1-.32.21-.53.34a4.88 4.88 0 01-.72.34 3 3 0 01-1 .15 2.19 2.19 0 01-1.64-.64 2.66 2.66 0 01-.64-1.95v-12.47zm5.84 15.15a8.59 8.59 0 003.14 2.13 10.47 10.47 0 004 .73 13.67 13.67 0 002.28-.19 12.73 12.73 0 002.22-.59 10 10 0 002-1 7 7 0 001.63-1.43l-1-1.33a.81.81 0 00-.7-.35 1.62 1.62 0 00-.83.32q-.48.31-1.2.69a11.93 11.93 0 01-1.71.68 7.64 7.64 0 01-2.37.32 7.06 7.06 0 01-2.67-.48 5.4 5.4 0 01-2.05-1.46 6.79 6.79 0 01-1.35-2.43 11.48 11.48 0 01-.54-3.43H646a.78.78 0 00.7-.28 2.45 2.45 0 00.18-1.15 11.25 11.25 0 00-.64-3.95 8.34 8.34 0 00-1.8-2.92 7.83 7.83 0 00-2.73-1.8 9.19 9.19 0 00-3.44-.63 10.19 10.19 0 00-4.07.79 9 9 0 00-3.06 2.18 9.5 9.5 0 00-1.91 3.27 12 12 0 00-.67 4.06 14.16 14.16 0 00.74 4.76 9.75 9.75 0 002.05 3.49zm2.82-14.32a6.32 6.32 0 016.39-1.11 4.6 4.6 0 011.65 1.19 5 5 0 011 1.83 7.45 7.45 0 01.35 2.33h-11.3a7.16 7.16 0 011.91-4.24zm36.05 13.65h-14.11v-10.03h11.42v-3.12h-11.42v-9.76h14.11v-3.25H652.1v29.41h18.12v-3.25zm14.3 3.25l8.48-20.79h-2.86a1 1 0 00-.68.22 1.13 1.13 0 00-.4.54l-5.34 13.38a11.54 11.54 0 00-.47 1.48c-.12.49-.24 1-.35 1.45-.1-.48-.2-1-.31-1.45a10.05 10.05 0 00-.45-1.48L676.87 379a1.29 1.29 0 00-.41-.53 1.13 1.13 0 00-.72-.23h-3l8.48 20.79zm12.65-2.58a8.59 8.59 0 003.14 2.13 10.5 10.5 0 004 .73 13.67 13.67 0 002.28-.19 13.08 13.08 0 002.23-.59 10.51 10.51 0 002-1 6.76 6.76 0 001.62-1.43l-1-1.33a.81.81 0 00-.7-.35 1.62 1.62 0 00-.83.32q-.48.31-1.2.69a11.93 11.93 0 01-1.71.68 7.59 7.59 0 01-2.37.32 7.06 7.06 0 01-2.67-.48 5.48 5.48 0 01-2-1.46 6.79 6.79 0 01-1.35-2.43 11.48 11.48 0 01-.54-3.43h13.83a.77.77 0 00.7-.28 2.45 2.45 0 00.18-1.15 11.25 11.25 0 00-.64-3.95 8.19 8.19 0 00-1.8-2.92 7.74 7.74 0 00-2.73-1.8 9.19 9.19 0 00-3.44-.63 10.19 10.19 0 00-4.07.79 8.9 8.9 0 00-3 2.18 9.36 9.36 0 00-1.92 3.27 12 12 0 00-.67 4.06 14.16 14.16 0 00.74 4.76 9.75 9.75 0 001.92 3.49zm2.83-14.32a5.62 5.62 0 014.17-1.53 5.56 5.56 0 012.22.42 4.73 4.73 0 011.66 1.19 5.1 5.1 0 011 1.83 7.45 7.45 0 01.35 2.33h-11.3a7.16 7.16 0 011.9-4.24zm21 1.59a10 10 0 012.6-2.11 6.12 6.12 0 013-.78 4 4 0 013.3 1.3 5.58 5.58 0 011.07 3.66v13.24h3.66v-13.24a10.9 10.9 0 00-.45-3.22 7.24 7.24 0 00-1.33-2.49 5.72 5.72 0 00-2.17-1.6 7.45 7.45 0 00-3-.57 7.86 7.86 0 00-3.87.93 11.54 11.54 0 00-3 2.42l-.29-2.26a.94.94 0 00-1-.76h-2.18v20.79H721zm17.85-2.42h2.51v12.72a5.51 5.51 0 001.32 4 5 5 0 003.79 1.37 7.55 7.55 0 002.74-.5 6.69 6.69 0 002.28-1.38l-1.06-1.75a.65.65 0 00-.52-.35.74.74 0 00-.38.16l-.52.34a5.59 5.59 0 01-.73.34 3 3 0 01-1 .15 2.23 2.23 0 01-1.65-.64 2.66 2.66 0 01-.63-1.95v-12.51h6v-2.65h-6v-7.16h-1.85a.84.84 0 00-.57.2.78.78 0 00-.27.5l-.84 6.42-3.41.43v1.46a.75.75 0 00.23.6.81.81 0 00.56.2zm394.05 210.48l-2.12 2.12 17.56 17.56a1.57 1.57 0 01.2.25H843.67v3h304.6L1131 632l2.12 2.12 17.36-17.36a5.24 5.24 0 000-7.42zM1131 296l2.12 2.12 17.36-17.36a5.24 5.24 0 000-7.42l-17.56-17.56-2.12 2.12 16.81 16.81h-129.67a1.5 1.5 0 00-1.5 1.5v106.5H843.67v3h172.5V494.5a1.5 1.5 0 001.5 1.5h131.13a2.21 2.21 0 01-.46.68L1131 514l2.12 2.12 17.36-17.36a5.24 5.24 0 000-7.42l-17.56-17.56-2.12 2.12 17.04 17.1h-128.67V385.75h129.1L1131 403l2.12 2.12 17.36-17.36a5.24 5.24 0 000-7.42l-17.56-17.56-2.12 2.12 17.56 17.56a1.57 1.57 0 01.2.25h-129.1v-105h129.45a2.39 2.39 0 01-.55.93zm1.9 403.82l-2.12 2.12 17.56 17.56a1.57 1.57 0 01.2.25H843.67v3h304.6L1131 740l2.12 2.12 17.36-17.36a5.24 5.24 0 000-7.42z" fill="#222226"/></g></svg>