<svg xmlns="http://www.w3.org/2000/svg" width="1998" height="592"><defs><style>.b3ef1d9a-58cf-47e2-9a46-52353d3524c7{opacity:.5}.b12d18f3-5516-496c-8d3d-e8349c228131,.b1f96783-cff1-45f9-b630-2853fa7b3ffb{fill:#fff}.b06d846b-ee38-4f9a-a391-56c0250fd8e4{fill:#635bff}.ae5e7e19-3e76-4ff5-8fa9-b2bfc9f97ce3{fill:#15be53}.b1f96783-cff1-45f9-b630-2853fa7b3ffb{stroke:#fff;stroke-miterlimit:10;stroke-width:.5px}</style></defs><g id="e053980f-7891-4a4c-9814-e596ef1338ae" data-name="Layer 2"><g class="b3ef1d9a-58cf-47e2-9a46-52353d3524c7"><path class="b12d18f3-5516-496c-8d3d-e8349c228131" d="M1120.17 563.5a3.5 3.5 0 01-3.5-3.5V99.23h498.77V560a3.5 3.5 0 01-3.5 3.5z"/><path class="b06d846b-ee38-4f9a-a391-56c0250fd8e4" d="M1613.94 100.73V560a2 2 0 01-2 2h-491.77a2 2 0 01-2-2V100.73h495.77m3-3h-501.77V560a5 5 0 005 5h491.77a5 5 0 005-5V97.73z"/></g><path class="b06d846b-ee38-4f9a-a391-56c0250fd8e4" d="M1120.17 29.05h491.77a5 5 0 015 5v63.4h-501.77v-63.4a5 5 0 015-5z"/><path class="b12d18f3-5516-496c-8d3d-e8349c228131" d="M1280.41 54.79a1.5 1.5 0 01-.52.64 1.34 1.34 0 01-.71.18 1.79 1.79 0 01-.92-.31c-.34-.22-.75-.45-1.21-.71a10 10 0 00-1.63-.71 7 7 0 00-2.21-.32 6.61 6.61 0 00-2 .28 4.13 4.13 0 00-1.44.77 3.05 3.05 0 00-.87 1.18 3.9 3.9 0 00-.28 1.51 2.61 2.61 0 00.58 1.74 4.87 4.87 0 001.55 1.19 14.06 14.06 0 002.19.88c.82.26 1.66.54 2.52.83a25.94 25.94 0 012.51 1 8.76 8.76 0 012.2 1.48 6.66 6.66 0 011.54 2.18 7.43 7.43 0 01.59 3.14 10.22 10.22 0 01-.69 3.77 8.63 8.63 0 01-2 3 9.47 9.47 0 01-3.23 2.06 12.09 12.09 0 01-4.37.74 14.42 14.42 0 01-2.79-.27 15.22 15.22 0 01-2.64-.79 13.89 13.89 0 01-2.36-1.23 12.41 12.41 0 01-2-1.6l1.6-2.65a2.11 2.11 0 01.55-.48 1.33 1.33 0 01.71-.2 1.93 1.93 0 011.1.42c.4.28.87.59 1.41.94a10.63 10.63 0 001.91.93 7.36 7.36 0 002.63.42 5.4 5.4 0 003.66-1.12 4 4 0 001.29-3.21 3 3 0 00-.59-1.91 4.74 4.74 0 00-1.49-1.16 11.63 11.63 0 00-2.19-.85c-.82-.23-1.66-.48-2.5-.76a21.37 21.37 0 01-2.51-1 8.35 8.35 0 01-2.19-1.5A7 7 0 011264 61a8.78 8.78 0 01-.59-3.42 8.13 8.13 0 01.65-3.16 8 8 0 011.94-2.72 9.11 9.11 0 013-1.91 11 11 0 014.12-.72 13.78 13.78 0 014.84.82 10.9 10.9 0 013.78 2.3zm12.74 24.6a5.52 5.52 0 01-4.2-1.54 5.94 5.94 0 01-1.48-4.28V61.81h-2.13a1 1 0 01-.71-.27 1 1 0 01-.3-.8v-2l3.39-.55 1.06-5.75a1 1 0 01.38-.63 1.22 1.22 0 01.75-.23h2.63v6.62h5.54v3.61h-5.54v11.41a2.23 2.23 0 00.49 1.54 1.67 1.67 0 001.31.55 2.5 2.5 0 00.79-.11 5.22 5.22 0 00.56-.24l.42-.23a.65.65 0 01.37-.12.57.57 0 01.37.12 1.79 1.79 0 01.3.34l1.52 2.46a7.65 7.65 0 01-2.54 1.39 9.34 9.34 0 01-2.98.47zm25.47-.32h-2.28a2.49 2.49 0 01-1.13-.22 1.35 1.35 0 01-.61-.87l-.46-1.5a15.47 15.47 0 01-1.57 1.26 9.1 9.1 0 01-1.59.92 8 8 0 01-1.74.55 10.79 10.79 0 01-2 .18 8 8 0 01-2.46-.36 5.24 5.24 0 01-1.94-1.08 4.84 4.84 0 01-1.26-1.79 6.18 6.18 0 01-.46-2.49 4.94 4.94 0 01.63-2.36 6 6 0 012.08-2.1 13.31 13.31 0 013.88-1.55 24.83 24.83 0 016-.62V65.8a4.67 4.67 0 00-.89-3.15 3.27 3.27 0 00-2.6-1 6.34 6.34 0 00-2 .28 8.22 8.22 0 00-1.42.65l-1.12.65a2.28 2.28 0 01-1.13.28 1.5 1.5 0 01-.88-.26 2.1 2.1 0 01-.6-.66l-.92-1.62a12.5 12.5 0 018.76-3.33 8.5 8.5 0 013.29.61 7 7 0 012.45 1.68 7.25 7.25 0 011.53 2.58 9.85 9.85 0 01.53 3.28zm-9.85-3.16a7 7 0 001.43-.14 6 6 0 001.25-.43 6.32 6.32 0 001.12-.7 9.56 9.56 0 001.1-1v-3.5a20.13 20.13 0 00-3.7.28 10 10 0 00-2.39.71 3.14 3.14 0 00-1.29 1 2.56 2.56 0 00.42 3.18 3.42 3.42 0 002.06.6zm21.75 3.48a5.54 5.54 0 01-4.21-1.54 5.94 5.94 0 01-1.48-4.28V61.81h-2.13a1 1 0 01-.71-.27 1 1 0 01-.3-.8v-2l3.39-.55 1.07-5.75a1 1 0 01.38-.63 1.17 1.17 0 01.74-.23h2.63v6.62h5.54v3.61h-5.54v11.41a2.23 2.23 0 00.49 1.54 1.68 1.68 0 001.32.55 2.6 2.6 0 00.79-.11 6 6 0 00.55-.24l.42-.23a.68.68 0 01.37-.12.57.57 0 01.37.12 1.79 1.79 0 01.31.34l1.52 2.46a7.69 7.69 0 01-2.55 1.39 9.32 9.32 0 01-2.97.47zm17.66-21.7a10.26 10.26 0 013.66.63 8.17 8.17 0 012.89 1.86 8.63 8.63 0 011.89 3 11.31 11.31 0 01.67 4.05 6.39 6.39 0 010 1 1.71 1.71 0 01-.18.6.75.75 0 01-.36.3 1.37 1.37 0 01-.58.1h-13a7.28 7.28 0 001.75 4.76 5.44 5.44 0 004 1.52 7 7 0 002.12-.29 9.68 9.68 0 001.56-.64q.68-.34 1.17-.63a1.9 1.9 0 011-.29 1.12 1.12 0 01.53.12 1.18 1.18 0 01.39.35l1.48 1.85a8.69 8.69 0 01-1.89 1.65 11.29 11.29 0 01-2.18 1.07 12.64 12.64 0 01-2.32.56 16.55 16.55 0 01-2.29.16 11.29 11.29 0 01-4.08-.72 9.23 9.23 0 01-3.29-2.16 10.07 10.07 0 01-2.19-3.53 13.48 13.48 0 01-.8-4.87 11.72 11.72 0 01.69-4 9.83 9.83 0 012-3.31 9.24 9.24 0 013.18-2.22 10.4 10.4 0 014.18-.92zm.11 3.63a4.7 4.7 0 00-3.47 1.25 6.12 6.12 0 00-1.6 3.55h9.52a6.24 6.24 0 00-.27-1.86 4.34 4.34 0 00-.82-1.53 4 4 0 00-1.4-1 4.76 4.76 0 00-1.96-.41zm42.24-11.92v4.53h-8.92v25.14h-5.52V53.93h-9V49.4z"/><path class="b12d18f3-5516-496c-8d3d-e8349c228131" d="M1397.53 84.85a1.9 1.9 0 01-.59.81 1.75 1.75 0 01-1.1.28h-3.77l3.94-8.43-8.52-19.51h4.43a1.4 1.4 0 01.95.29 1.84 1.84 0 01.49.66l4.49 10.91a10.41 10.41 0 01.39 1.11c.11.39.21.77.29 1.15.11-.4.23-.78.36-1.15s.27-.74.42-1.13l4.23-10.84a1.55 1.55 0 01.54-.68 1.43 1.43 0 01.85-.27h4.07zm14.47 1.09V58h3.1a1.51 1.51 0 01.84.23 1.06 1.06 0 01.45.7l.41 2a10.54 10.54 0 012.93-2.36 7.92 7.92 0 013.86-.91 6.88 6.88 0 013.15.72 7.09 7.09 0 012.46 2.09 9.72 9.72 0 011.6 3.36 16.75 16.75 0 01.57 4.59 14.25 14.25 0 01-.64 4.37 10.8 10.8 0 01-1.81 3.49 8.45 8.45 0 01-2.85 2.3 8.26 8.26 0 01-3.75.83 7.6 7.6 0 01-3-.54 7.23 7.23 0 01-2.22-1.51v8.62zm9.85-24.31a5.25 5.25 0 00-2.7.66 7.89 7.89 0 00-2.08 1.88v9.44a4.84 4.84 0 001.87 1.49 5.69 5.69 0 002.19.42 5 5 0 002.08-.43 4 4 0 001.58-1.32 6.5 6.5 0 001-2.22 12.9 12.9 0 00.35-3.17 14 14 0 00-.3-3.13 6 6 0 00-.85-2.08 3.27 3.27 0 00-1.35-1.17 4.09 4.09 0 00-1.84-.37zm22.01-3.94a10.34 10.34 0 013.66.63 8.22 8.22 0 012.88 1.86 8.35 8.35 0 011.89 3 11.31 11.31 0 01.67 4.05 6.39 6.39 0 010 1 1.52 1.52 0 01-.18.6.75.75 0 01-.36.3 1.37 1.37 0 01-.58.1h-13a7.28 7.28 0 001.74 4.76 5.44 5.44 0 004 1.52 7.08 7.08 0 002.13-.29 9.94 9.94 0 001.55-.64q.68-.34 1.17-.63a1.9 1.9 0 011-.29 1.12 1.12 0 01.53.12 1.18 1.18 0 01.39.35l1.48 1.85a8.69 8.69 0 01-1.89 1.65 10.75 10.75 0 01-2.18 1.07 12.45 12.45 0 01-2.32.56 16.55 16.55 0 01-2.29.16 11.37 11.37 0 01-4.08-.72 9.32 9.32 0 01-3.29-2.16 10.07 10.07 0 01-2.19-3.53 13.7 13.7 0 01-.8-4.87 11.49 11.49 0 01.7-4 9.65 9.65 0 012-3.31 9.43 9.43 0 013.18-2.22 10.41 10.41 0 014.19-.92zm.1 3.63a4.7 4.7 0 00-3.47 1.25 6.18 6.18 0 00-1.6 3.55h9.52a6.24 6.24 0 00-.27-1.86 4.34 4.34 0 00-.82-1.53 3.92 3.92 0 00-1.39-1 4.81 4.81 0 00-1.93-.41zm25.62.8a1.29 1.29 0 01-.43.46 1.09 1.09 0 01-.57.13 1.74 1.74 0 01-.79-.2l-1-.46a9 9 0 00-1.26-.47 6.31 6.31 0 00-1.67-.2 3.87 3.87 0 00-2.36.64 2 2 0 00-.86 1.66 1.61 1.61 0 00.44 1.14 4.15 4.15 0 001.17.81 10.78 10.78 0 001.65.62c.62.19 1.25.39 1.89.61s1.27.47 1.89.75a6.75 6.75 0 011.65 1.06 5.15 5.15 0 011.17 1.55 5 5 0 01.44 2.18 7 7 0 01-.56 2.8 6.18 6.18 0 01-1.62 2.22 7.66 7.66 0 01-2.63 1.45 12.46 12.46 0 01-5.73.33 13 13 0 01-2-.54 11.41 11.41 0 01-1.76-.83 8.29 8.29 0 01-1.43-1l1.17-1.93a1.6 1.6 0 01.54-.53 1.4 1.4 0 01.77-.19 1.63 1.63 0 01.9.27c.28.18.6.37 1 .57a8.39 8.39 0 001.3.58 5.73 5.73 0 001.9.26 5.05 5.05 0 001.55-.21 3.27 3.27 0 001.07-.56 2.18 2.18 0 00.61-.82 2.38 2.38 0 00.2-1 1.73 1.73 0 00-.44-1.21 4.05 4.05 0 00-1.17-.82 12.57 12.57 0 00-1.66-.63c-.63-.18-1.26-.38-1.91-.6a18.58 18.58 0 01-1.91-.77 6.38 6.38 0 01-1.66-1.12 4.88 4.88 0 01-1.17-1.66 5.72 5.72 0 01-.44-2.38 6.09 6.09 0 01.51-2.46 5.66 5.66 0 011.51-2 7.34 7.34 0 012.48-1.4 10.33 10.33 0 013.44-.52 10.5 10.5 0 014 .72 8.73 8.73 0 013 1.88z"/><path class="ae5e7e19-3e76-4ff5-8fa9-b2bfc9f97ce3" d="M386.06 29.05h475.67a5 5 0 015 5v63.4H381.06v-63.4a5 5 0 015-5z"/><path class="b1f96783-cff1-45f9-b630-2853fa7b3ffb" d="M527.08 48.4v4.39h-13.16V61h10.37v4.24h-10.37v8.4h13.16v4.41h-18.72V48.4zm15.04 29.67h-4.6L529.15 57h4.2a1.58 1.58 0 01.94.27 1.44 1.44 0 01.52.68l4.06 11.24a20 20 0 01.59 1.93q.24.95.42 1.89.18-.94.42-1.89a20.18 20.18 0 01.6-1.93L545.07 58a1.48 1.48 0 01.51-.68 1.46 1.46 0 01.88-.27h4zm19.36-21.38a10.36 10.36 0 013.67.63 8.22 8.22 0 012.85 1.86 8.49 8.49 0 011.89 3 11.31 11.31 0 01.67 4.05 6.39 6.39 0 01-.05 1 1.52 1.52 0 01-.18.6.75.75 0 01-.36.3 1.37 1.37 0 01-.58.1h-13a7.28 7.28 0 001.74 4.76 5.44 5.44 0 004 1.52 7 7 0 002.12-.29 9.68 9.68 0 001.56-.64q.67-.34 1.17-.63a1.9 1.9 0 011-.29 1.12 1.12 0 01.53.12 1.18 1.18 0 01.39.35l1.48 1.85a8.69 8.69 0 01-1.89 1.65 11 11 0 01-2.18 1.07 12.64 12.64 0 01-2.32.56 16.55 16.55 0 01-2.29.16 11.33 11.33 0 01-4.08-.72 9.23 9.23 0 01-3.29-2.16 10.07 10.07 0 01-2.16-3.54 13.48 13.48 0 01-.8-4.87 11.49 11.49 0 01.7-4.05 9.65 9.65 0 012-3.31 9.33 9.33 0 013.18-2.22 10.4 10.4 0 014.23-.86zm.11 3.63a4.7 4.7 0 00-3.47 1.25 6.18 6.18 0 00-1.6 3.55H566a6.24 6.24 0 00-.27-1.86 4.34 4.34 0 00-.82-1.53 3.92 3.92 0 00-1.39-1 4.84 4.84 0 00-1.93-.41zm13.13 17.75V57h3.1a1.25 1.25 0 011.29.93l.35 1.66a11.53 11.53 0 011.34-1.19 8.87 8.87 0 011.5-.92 7.88 7.88 0 011.69-.6 9.32 9.32 0 012-.2 7.56 7.56 0 013.06.58 6 6 0 012.22 1.64 7.24 7.24 0 011.36 2.53 10.64 10.64 0 01.46 3.23v13.4H588V64.67a4.48 4.48 0 00-.89-3 3.32 3.32 0 00-2.68-1 5.25 5.25 0 00-2.46.59 8.83 8.83 0 00-2.17 1.62v15.19zm30.28.32a5.56 5.56 0 01-4.21-1.54 6 6 0 01-1.47-4.28V60.81h-2.14a1 1 0 01-1-1.07v-2l3.38-.55 1.07-5.75a1 1 0 01.38-.63 1.22 1.22 0 01.75-.23h2.63v6.62h5.53v3.61h-5.53v11.41a2.23 2.23 0 00.49 1.54 1.66 1.66 0 001.31.55 2.55 2.55 0 00.79-.11 5 5 0 00.55-.24l.42-.23a.71.71 0 01.38-.12.54.54 0 01.36.12 1.51 1.51 0 01.31.34l1.52 2.46a7.75 7.75 0 01-2.54 1.39 9.34 9.34 0 01-2.98.47zm38-29.99v4.53h-8.92v25.14h-5.48V52.93h-9V48.4z"/><path class="b1f96783-cff1-45f9-b630-2853fa7b3ffb" d="M650 83.85a1.9 1.9 0 01-.59.81 1.75 1.75 0 01-1.1.28h-3.77l3.94-8.43L640 57h4.44a1.39 1.39 0 01.94.29 1.84 1.84 0 01.49.66l4.5 10.91a10.36 10.36 0 01.38 1.11c.11.39.21.77.29 1.15.11-.4.23-.78.36-1.15s.27-.74.42-1.13L656.05 58a1.55 1.55 0 01.54-.68 1.46 1.46 0 01.85-.27h4.07zm14.46 1.09V57h3.1a1.51 1.51 0 01.84.23 1.06 1.06 0 01.45.7l.41 2a10.54 10.54 0 012.93-2.36 8 8 0 013.86-.91 6.88 6.88 0 013.15.72 7.21 7.21 0 012.47 2.09 10.09 10.09 0 011.6 3.36 17.17 17.17 0 01.56 4.59 14.25 14.25 0 01-.64 4.37 10.8 10.8 0 01-1.81 3.49 8.45 8.45 0 01-2.85 2.3 8.26 8.26 0 01-3.75.83 7.52 7.52 0 01-3-.54 7.27 7.27 0 01-2.23-1.51v8.62zm9.85-24.31a5.25 5.25 0 00-2.7.66 7.89 7.89 0 00-2.08 1.88v9.44a4.79 4.79 0 001.88 1.49 5.61 5.61 0 002.18.42 5 5 0 002.08-.43 4 4 0 001.58-1.32 6.32 6.32 0 001-2.22 12.9 12.9 0 00.35-3.17 14 14 0 00-.3-3.13 6 6 0 00-.85-2.08 3.31 3.31 0 00-1.34-1.17 4.17 4.17 0 00-1.8-.37zm22.06-3.94a10.34 10.34 0 013.66.63 8.22 8.22 0 012.88 1.86 8.35 8.35 0 011.89 3 11.31 11.31 0 01.67 4.05 6.39 6.39 0 01-.05 1 1.52 1.52 0 01-.18.6.75.75 0 01-.36.3 1.35 1.35 0 01-.57.1h-13a7.28 7.28 0 001.69 4.71 5.44 5.44 0 004 1.52 7.08 7.08 0 002.13-.29 10.5 10.5 0 001.56-.64l1.17-.63a1.87 1.87 0 011-.29 1.09 1.09 0 01.53.12 1.18 1.18 0 01.39.35l1.48 1.85a8.69 8.69 0 01-1.89 1.65 10.75 10.75 0 01-2.18 1.07 12.45 12.45 0 01-2.32.56 16.55 16.55 0 01-2.29.16 11.37 11.37 0 01-4.08-.72 9.19 9.19 0 01-3.28-2.16 9.94 9.94 0 01-2.2-3.53 13.7 13.7 0 01-.8-4.87A11.49 11.49 0 01687 63a9.65 9.65 0 012-3.31 9.43 9.43 0 013.18-2.22 10.41 10.41 0 014.19-.78zm.1 3.63a4.7 4.7 0 00-3.47 1.25 6.18 6.18 0 00-1.6 3.55h9.52a6.24 6.24 0 00-.27-1.86 4.19 4.19 0 00-.82-1.53 3.92 3.92 0 00-1.39-1 4.81 4.81 0 00-1.97-.41zm25.63.8a1.4 1.4 0 01-.44.46 1.09 1.09 0 01-.57.13 1.74 1.74 0 01-.79-.2l-1-.46a8.59 8.59 0 00-1.26-.47 6.31 6.31 0 00-1.67-.2A3.87 3.87 0 00714 61a2 2 0 00-.86 1.66 1.61 1.61 0 00.44 1.14 4.15 4.15 0 001.17.81 11.63 11.63 0 001.65.62c.62.19 1.25.39 1.89.61s1.27.47 1.89.75a6.75 6.75 0 011.65 1.06 5.15 5.15 0 011.17 1.57 5 5 0 01.44 2.18 7 7 0 01-.55 2.8 6.21 6.21 0 01-1.63 2.22 7.57 7.57 0 01-2.63 1.45 12.46 12.46 0 01-5.73.33 13 13 0 01-2-.54 11.41 11.41 0 01-1.76-.83 8.29 8.29 0 01-1.43-1l1.17-1.93a1.6 1.6 0 01.54-.53 1.41 1.41 0 01.78-.19 1.63 1.63 0 01.89.27c.28.18.6.37 1 .57a8.53 8.53 0 001.31.58 5.63 5.63 0 001.89.26 5.05 5.05 0 001.55-.21 3.27 3.27 0 001.07-.56 2.32 2.32 0 00.62-.82 2.56 2.56 0 00.19-1 1.73 1.73 0 00-.44-1.21 3.92 3.92 0 00-1.17-.82 12.57 12.57 0 00-1.66-.63c-.63-.18-1.26-.38-1.91-.6a18.58 18.58 0 01-1.91-.77 6.38 6.38 0 01-1.63-1.09 4.88 4.88 0 01-1.17-1.66 5.88 5.88 0 01-.44-2.38 6.09 6.09 0 01.51-2.46 5.78 5.78 0 011.51-2 7.34 7.34 0 012.48-1.4 10.33 10.33 0 013.44-.52 10.5 10.5 0 014 .72 8.73 8.73 0 013 1.88z"/><g class="b3ef1d9a-58cf-47e2-9a46-52353d3524c7"><path class="b12d18f3-5516-496c-8d3d-e8349c228131" d="M386.06 563.5a3.5 3.5 0 01-3.5-3.5V99.41h482.67V560a3.5 3.5 0 01-3.5 3.5z"/><path class="ae5e7e19-3e76-4ff5-8fa9-b2bfc9f97ce3" d="M863.73 100.91V560a2 2 0 01-2 2H386.06a2 2 0 01-2-2V100.91h479.67m3-3H381.06V560a5 5 0 005 5h475.67a5 5 0 005-5V97.91z"/></g><rect class="b12d18f3-5516-496c-8d3d-e8349c228131" x="406.77" y="350.55" width="434.25" height="65.39" rx="3.5"/><path class="ae5e7e19-3e76-4ff5-8fa9-b2bfc9f97ce3" d="M837.52 352.05a2 2 0 012 2v58.4a2 2 0 01-2 2H410.27a2 2 0 01-2-2v-58.4a2 2 0 012-2h427.25m0-3H410.27a5 5 0 00-5 5v58.4a5 5 0 005 5h427.25a5 5 0 005-5v-58.4a5 5 0 00-5-5z"/><rect class="b12d18f3-5516-496c-8d3d-e8349c228131" x="406.77" y="461.55" width="434.25" height="65.39" rx="3.5"/><path class="ae5e7e19-3e76-4ff5-8fa9-b2bfc9f97ce3" d="M837.52 463.05a2 2 0 012 2v58.4a2 2 0 01-2 2H410.27a2 2 0 01-2-2v-58.4a2 2 0 012-2h427.25m0-3H410.27a5 5 0 00-5 5v58.4a5 5 0 005 5h427.25a5 5 0 005-5v-58.4a5 5 0 00-5-5z"/><rect class="b12d18f3-5516-496c-8d3d-e8349c228131" x="406.77" y="242.55" width="434.25" height="65.39" rx="3.5"/><path class="ae5e7e19-3e76-4ff5-8fa9-b2bfc9f97ce3" d="M837.52 244.05a2 2 0 012 2v58.4a2 2 0 01-2 2H410.27a2 2 0 01-2-2v-58.4a2 2 0 012-2h427.25m0-3H410.27a5 5 0 00-5 5v58.4a5 5 0 005 5h427.25a5 5 0 005-5v-58.4a5 5 0 00-5-5z"/><g opacity=".25"><rect class="b06d846b-ee38-4f9a-a391-56c0250fd8e4" x="1137.25" y="224.25" width="462.9" height="318.5" rx="4.75"/><path class="b06d846b-ee38-4f9a-a391-56c0250fd8e4" d="M1595.4 224.5a4.51 4.51 0 014.5 4.5v309a4.51 4.51 0 01-4.5 4.5H1142a4.51 4.51 0 01-4.5-4.5V229a4.51 4.51 0 014.5-4.5h453.4m0-.5H1142a5 5 0 00-5 5v309a5 5 0 005 5h453.4a5 5 0 005-5V229a5 5 0 00-5-5z"/></g><path class="b12d18f3-5516-496c-8d3d-e8349c228131" d="M1351.89 292.16a21.29 21.29 0 01-.27 3.16 17.24 17.24 0 01-.77 3.07 13.87 13.87 0 01-1.33 2.77 9.94 9.94 0 01-1.94 2.24 8.69 8.69 0 01-2.57 1.52 9.91 9.91 0 01-6.51 0 8.74 8.74 0 01-2.58-1.52 10 10 0 01-1.94-2.25 13.49 13.49 0 01-1.35-2.78 17.42 17.42 0 01-.8-3.06 22.61 22.61 0 01-.28-3.15v-3.32a24.21 24.21 0 01.27-3.16 16.77 16.77 0 01.79-3.08 14.18 14.18 0 011.34-2.77 9.79 9.79 0 011.93-2.26 8.56 8.56 0 012.58-1.53 9.23 9.23 0 013.25-.55 9.38 9.38 0 013.27.55 8.53 8.53 0 012.58 1.52 9.78 9.78 0 011.94 2.25 14.18 14.18 0 011.34 2.77 17.48 17.48 0 01.78 3.09 21.42 21.42 0 01.27 3.17zm-3.67-3.36c0-.7-.06-1.42-.14-2.18a14.45 14.45 0 00-.41-2.24 12 12 0 00-.77-2.13 7.13 7.13 0 00-1.2-1.78 5.21 5.21 0 00-4-1.67 5.21 5.21 0 00-2.26.46 5.54 5.54 0 00-1.7 1.23 6.91 6.91 0 00-1.21 1.78 12 12 0 00-.77 2.13 17.31 17.31 0 00-.42 2.24 21 21 0 00-.15 2.16v3.36a21.22 21.22 0 00.15 2.17 15.67 15.67 0 00.43 2.25 12.89 12.89 0 00.78 2.13 6.9 6.9 0 001.2 1.8 5.7 5.7 0 001.71 1.23 5.24 5.24 0 002.28.46 5.22 5.22 0 004-1.69 7 7 0 001.18-1.79 11.61 11.61 0 00.76-2.12 13.26 13.26 0 00.4-2.25c.08-.77.12-1.49.13-2.19zm22.26 4.36h-5.83v11.91H1361v-29.18h8.56a14.49 14.49 0 013.85.58 9.24 9.24 0 013.15 1.63 7.61 7.61 0 012.13 2.71 9 9 0 01.77 3.84 7.92 7.92 0 01-.41 2.6 8 8 0 01-1.13 2.15 8.45 8.45 0 01-1.73 1.7 11 11 0 01-2.2 1.26l6.19 12.47v.24h-3.91zm-5.83-3h5a7.45 7.45 0 002.34-.39 6.09 6.09 0 001.94-1.07 5.08 5.08 0 001.31-1.72 5.36 5.36 0 00.48-2.33 6.07 6.07 0 00-.46-2.46 4.94 4.94 0 00-1.28-1.76 5.59 5.59 0 00-2-1.07 8.48 8.48 0 00-2.48-.38h-4.87zm23.7 14.91v-29.18h6.75a14.68 14.68 0 015.44 1 11.54 11.54 0 014 2.77 12 12 0 012.53 4.25 16.66 16.66 0 01.89 5.48v2.14a16.66 16.66 0 01-.89 5.48 12 12 0 01-2.53 4.25 11.39 11.39 0 01-4 2.76 14.29 14.29 0 01-5.44 1zm3.77-26.13V302h3a9.68 9.68 0 004.09-.83 8.06 8.06 0 002.86-2.21 9.49 9.49 0 001.68-3.31 15.1 15.1 0 00.57-4.13v-2.18a14.91 14.91 0 00-.58-4.12A9.4 9.4 0 001402 282a7.89 7.89 0 00-2.85-2.19 10 10 0 00-4.09-.84zm40.57 12.64h-12.18v10.34h14.2v3.15h-17.91v-29.18h17.73v3.17h-14v9.38h12.18zm21.52 1.58h-5.83v11.91h-3.69v-29.18h8.56a14.42 14.42 0 013.84.58 9.29 9.29 0 013.16 1.63 7.47 7.47 0 012.12 2.71 8.83 8.83 0 01.77 3.84 7.76 7.76 0 01-1.54 4.75 8.4 8.4 0 01-1.72 1.7 11.12 11.12 0 01-2.21 1.26l6.19 12.47v.24h-3.9zm-5.83-3h5a7.52 7.52 0 002.35-.39 6 6 0 001.93-1.07 5 5 0 001.32-1.72 5.36 5.36 0 00.48-2.33 6.24 6.24 0 00-.46-2.46 5 5 0 00-1.29-1.76 5.59 5.59 0 00-2-1.07 8.46 8.46 0 00-2.47-.38h-4.87z"/><rect class="b12d18f3-5516-496c-8d3d-e8349c228131" x="1153.62" y="242.55" width="365.16" height="65.39" rx="3.5"/><path class="b06d846b-ee38-4f9a-a391-56c0250fd8e4" d="M1515.28 244.05a2 2 0 012 2v58.4a2 2 0 01-2 2h-358.16a2 2 0 01-2-2v-58.4a2 2 0 012-2h358.16m0-3h-358.16a5 5 0 00-5 5v58.4a5 5 0 005 5h358.16a5 5 0 005-5v-58.4a5 5 0 00-5-5z"/><rect class="b12d18f3-5516-496c-8d3d-e8349c228131" x="1153.62" y="350.55" width="365.16" height="65.39" rx="3.5"/><path class="b06d846b-ee38-4f9a-a391-56c0250fd8e4" d="M1515.28 352.05a2 2 0 012 2v58.4a2 2 0 01-2 2h-358.16a2 2 0 01-2-2v-58.4a2 2 0 012-2h358.16m0-3h-358.16a5 5 0 00-5 5v58.4a5 5 0 005 5h358.16a5 5 0 005-5v-58.4a5 5 0 00-5-5z"/><rect class="b12d18f3-5516-496c-8d3d-e8349c228131" x="1153.62" y="458.55" width="365.16" height="65.39" rx="3.5"/><path class="b06d846b-ee38-4f9a-a391-56c0250fd8e4" d="M1515.28 460.05a2 2 0 012 2v58.4a2 2 0 01-2 2h-358.16a2 2 0 01-2-2v-58.4a2 2 0 012-2h358.16m0-3h-358.16a5 5 0 00-5 5v58.4a5 5 0 005 5h358.16a5 5 0 005-5v-58.4a5 5 0 00-5-5z"/><path class="b12d18f3-5516-496c-8d3d-e8349c228131" d="M1351.89 184.16a21.29 21.29 0 01-.27 3.16 17.24 17.24 0 01-.77 3.07 13.87 13.87 0 01-1.33 2.77 9.94 9.94 0 01-1.94 2.24 8.69 8.69 0 01-2.57 1.52 9.91 9.91 0 01-6.51 0 8.74 8.74 0 01-2.58-1.52 10 10 0 01-1.94-2.25 13.49 13.49 0 01-1.35-2.78 17.42 17.42 0 01-.8-3.06 22.61 22.61 0 01-.28-3.15v-3.32a24.21 24.21 0 01.27-3.16 16.77 16.77 0 01.79-3.08 14.18 14.18 0 011.34-2.77 9.79 9.79 0 011.93-2.26 8.56 8.56 0 012.58-1.53 9.23 9.23 0 013.25-.55 9.38 9.38 0 013.27.55 8.53 8.53 0 012.58 1.52 9.78 9.78 0 011.94 2.25 14.18 14.18 0 011.34 2.77 17.48 17.48 0 01.78 3.09 21.42 21.42 0 01.27 3.17zm-3.67-3.36c0-.7-.06-1.42-.14-2.18a14.45 14.45 0 00-.41-2.24 12 12 0 00-.77-2.13 7.13 7.13 0 00-1.2-1.78 5.21 5.21 0 00-4-1.67 5.21 5.21 0 00-2.26.46 5.54 5.54 0 00-1.7 1.23 6.91 6.91 0 00-1.21 1.78 12 12 0 00-.77 2.13 17.31 17.31 0 00-.42 2.24 21 21 0 00-.15 2.16v3.36a21.22 21.22 0 00.15 2.17 15.67 15.67 0 00.43 2.25 12.89 12.89 0 00.78 2.13 6.9 6.9 0 001.2 1.8 5.7 5.7 0 001.71 1.23 5.24 5.24 0 002.28.46 5.22 5.22 0 004-1.69 7 7 0 001.18-1.79 11.61 11.61 0 00.76-2.12 13.26 13.26 0 00.4-2.25c.08-.77.12-1.49.13-2.19zm22.26 4.36h-5.83v11.91H1361v-29.18h8.56a14.49 14.49 0 013.85.58 9.24 9.24 0 013.15 1.63 7.61 7.61 0 012.13 2.71 9 9 0 01.77 3.84 7.92 7.92 0 01-.41 2.6 8 8 0 01-1.13 2.15 8.45 8.45 0 01-1.73 1.7 11 11 0 01-2.2 1.26l6.19 12.47v.24h-3.91zm-5.83-3h5a7.45 7.45 0 002.34-.39 6.09 6.09 0 001.94-1.07 5.08 5.08 0 001.31-1.72 5.36 5.36 0 00.48-2.33 6.07 6.07 0 00-.46-2.46 4.94 4.94 0 00-1.28-1.76 5.59 5.59 0 00-2-1.07 8.48 8.48 0 00-2.48-.38h-4.87zm23.7 14.91v-29.18h6.75a14.68 14.68 0 015.44 1 11.54 11.54 0 014 2.77 12 12 0 012.53 4.25 16.66 16.66 0 01.89 5.48v2.14a16.66 16.66 0 01-.89 5.48 12 12 0 01-2.53 4.25 11.39 11.39 0 01-4 2.76 14.29 14.29 0 01-5.44 1zm3.77-26.13V194h3a9.68 9.68 0 004.09-.83 8.06 8.06 0 002.86-2.21 9.49 9.49 0 001.68-3.31 15.1 15.1 0 00.57-4.13v-2.18a14.91 14.91 0 00-.58-4.12A9.4 9.4 0 001402 174a7.89 7.89 0 00-2.85-2.19 10 10 0 00-4.09-.84zm40.57 12.64h-12.18v10.34h14.2v3.15h-17.91v-29.18h17.73v3.17h-14v9.38h12.18zm21.52 1.58h-5.83v11.91h-3.69v-29.18h8.56a14.42 14.42 0 013.84.58 9.29 9.29 0 013.16 1.63 7.47 7.47 0 012.12 2.71 8.83 8.83 0 01.77 3.84 7.76 7.76 0 01-1.54 4.75 8.4 8.4 0 01-1.72 1.7 11.12 11.12 0 01-2.21 1.26l6.19 12.47v.24h-3.9zm-5.83-3h5a7.52 7.52 0 002.35-.39 6 6 0 001.93-1.07 5 5 0 001.32-1.72 5.36 5.36 0 00.48-2.33 6.24 6.24 0 00-.46-2.46 5 5 0 00-1.29-1.76 5.59 5.59 0 00-2-1.07 8.46 8.46 0 00-2.47-.38h-4.87z"/><rect class="b12d18f3-5516-496c-8d3d-e8349c228131" x="1153.62" y="134.55" width="365.16" height="65.39" rx="3.5"/><path class="b06d846b-ee38-4f9a-a391-56c0250fd8e4" d="M1515.28 136.05a2 2 0 012 2v58.4a2 2 0 01-2 2h-358.16a2 2 0 01-2-2v-58.4a2 2 0 012-2h358.16m0-3h-358.16a5 5 0 00-5 5v58.4a5 5 0 005 5h358.16a5 5 0 005-5v-58.4a5 5 0 00-5-5z"/><path d="M1255.63 178.91a8.24 8.24 0 003.26-.62 6.76 6.76 0 002.43-1.72 7.6 7.6 0 001.52-2.65 10.42 10.42 0 00.52-3.38v-17.88h4v17.88a13.39 13.39 0 01-.81 4.71 10.91 10.91 0 01-2.32 3.77 10.51 10.51 0 01-3.68 2.49 13.57 13.57 0 01-9.77 0 10.64 10.64 0 01-3.69-2.49 10.94 10.94 0 01-2.33-3.77 13.39 13.39 0 01-.81-4.71v-17.88h4v17.85a10.71 10.71 0 00.52 3.39 7.6 7.6 0 001.52 2.65 7 7 0 002.44 1.73 8.17 8.17 0 003.2.63zm17.95 3.16v-20.79h2.18a.93.93 0 011 .76l.29 2.26a11.54 11.54 0 013-2.42 7.86 7.86 0 013.87-.93 7.45 7.45 0 013 .57 5.72 5.72 0 012.17 1.6 7.24 7.24 0 011.33 2.49 10.9 10.9 0 01.45 3.22v13.24h-3.66v-13.24a5.58 5.58 0 00-1.07-3.66 4 4 0 00-3.3-1.3 6.1 6.1 0 00-3 .78 10 10 0 00-2.6 2.11v15.31zm37.42 0a.94.94 0 01-1-.76l-.33-2.53a11 11 0 01-3 2.6 7.84 7.84 0 01-3.93 1 7.65 7.65 0 01-3.25-.68 6.88 6.88 0 01-2.48-2 9.72 9.72 0 01-1.58-3.33 17 17 0 01-.55-4.57 14.33 14.33 0 01.61-4.28 10.49 10.49 0 011.78-3.44 8.12 8.12 0 016.59-3.12 7.57 7.57 0 013.27.65 7.68 7.68 0 012.42 1.82v-11.59h3.65v30.23zm-7-2.67a5.87 5.87 0 003.13-.82 9.09 9.09 0 002.47-2.32v-10a5.71 5.71 0 00-2.21-1.9 6.38 6.38 0 00-2.65-.55 5.27 5.27 0 00-4.48 2.08 9.67 9.67 0 00-1.56 5.91 15.09 15.09 0 00.35 3.47 6.61 6.61 0 001 2.38 4 4 0 001.66 1.37 5.56 5.56 0 002.29.38zm23.56-18.4a9.21 9.21 0 013.45.63 7.92 7.92 0 012.73 1.8 8.32 8.32 0 011.79 2.92 11.24 11.24 0 01.65 3.95 2.45 2.45 0 01-.18 1.15.78.78 0 01-.7.28h-13.83a11.49 11.49 0 00.53 3.43 7 7 0 001.36 2.43 5.32 5.32 0 002.05 1.46 7.06 7.06 0 002.67.48 7.64 7.64 0 002.37-.32 11.93 11.93 0 001.71-.68q.72-.37 1.2-.69a1.62 1.62 0 01.83-.32.82.82 0 01.7.35l1 1.33a6.76 6.76 0 01-1.62 1.43 10.23 10.23 0 01-2 1 12.84 12.84 0 01-2.23.59 13.46 13.46 0 01-2.27.19 10.47 10.47 0 01-4-.73 8.59 8.59 0 01-3.14-2.13 9.75 9.75 0 01-2.06-3.48 13.91 13.91 0 01-.74-4.76 12.22 12.22 0 01.66-4.06 9.68 9.68 0 011.92-3.27 9 9 0 013.06-2.18 10.14 10.14 0 014.09-.8zm.08 2.69a5.6 5.6 0 00-4.16 1.53 7.23 7.23 0 00-1.89 4.24h11.31a7.45 7.45 0 00-.35-2.33 5.12 5.12 0 00-1-1.83 4.6 4.6 0 00-1.65-1.19 5.58 5.58 0 00-2.26-.47zm14.02 18.38V164.4l-2.3-.27a1.78 1.78 0 01-.71-.31.77.77 0 01-.27-.63v-1.5h3.28v-1.15a10.12 10.12 0 01.59-3.5 7.41 7.41 0 011.79-2.73 8 8 0 013-1.79 13 13 0 015.73-.53 6.75 6.75 0 011.4.32l-.12 1.9a.36.36 0 01-.25.33 1.78 1.78 0 01-.59.07h-1c-2.42 0-4.18.51-5.28 1.51a5.82 5.82 0 00-1.65 4.53v1h12.55v20.38h-3.65v-17.69h-8.78v17.73zm22.57 0v-20.79h2.17a.94.94 0 011 .76l.28 2.26a11.58 11.58 0 013-2.42 7.83 7.83 0 013.87-.93 7.4 7.4 0 013 .57 5.75 5.75 0 012.18 1.6 7.06 7.06 0 011.32 2.49 10.9 10.9 0 01.45 3.22v13.24h-3.65v-13.24a5.59 5.59 0 00-1.08-3.66 4 4 0 00-3.29-1.3 6.16 6.16 0 00-3 .78 10 10 0 00-2.59 2.11v15.31zm31.04-21.07a9.21 9.21 0 013.45.63 7.92 7.92 0 012.73 1.8 8.32 8.32 0 011.79 2.92 11.24 11.24 0 01.65 3.95 2.3 2.3 0 01-.19 1.15.75.75 0 01-.69.28h-13.83a11.18 11.18 0 00.53 3.43 7 7 0 001.36 2.43 5.32 5.32 0 002 1.46 7 7 0 002.66.48 7.55 7.55 0 002.37-.32 11.63 11.63 0 001.72-.68q.72-.37 1.2-.69a1.62 1.62 0 01.83-.32.82.82 0 01.7.35l1 1.33a6.76 6.76 0 01-1.62 1.43 10.23 10.23 0 01-2 1 12.84 12.84 0 01-2.23.59 13.46 13.46 0 01-2.27.19 10.47 10.47 0 01-4-.73 8.59 8.59 0 01-3.14-2.13 9.76 9.76 0 01-2.07-3.48 14.17 14.17 0 01-.73-4.76 12.22 12.22 0 01.66-4.06 9.68 9.68 0 011.92-3.27 8.94 8.94 0 013.06-2.18 10.14 10.14 0 014.14-.8zm.08 2.69a5.6 5.6 0 00-4.16 1.53 7.23 7.23 0 00-1.89 4.24h11.31a7.45 7.45 0 00-.35-2.33 5.28 5.28 0 00-1-1.83 4.6 4.6 0 00-1.65-1.19 5.58 5.58 0 00-2.26-.47zm27.82 18.38a.93.93 0 01-1-.76l-.33-2.53a10.89 10.89 0 01-3 2.6 7.78 7.78 0 01-3.92 1 7.65 7.65 0 01-3.25-.68 6.8 6.8 0 01-2.48-2 9.72 9.72 0 01-1.58-3.33 17 17 0 01-.55-4.57 14.33 14.33 0 01.61-4.28 10.3 10.3 0 011.78-3.44 8.12 8.12 0 016.59-3.12 7.57 7.57 0 013.27.65 7.68 7.68 0 012.42 1.82v-11.59h3.65v30.23zm-7.07-2.67a5.81 5.81 0 003.12-.82 9 9 0 002.48-2.32v-10a5.71 5.71 0 00-2.21-1.9 6.39 6.39 0 00-2.66-.55 5.27 5.27 0 00-4.47 2.08 9.67 9.67 0 00-1.56 5.91 15.09 15.09 0 00.35 3.47 6.61 6.61 0 001 2.38 4 4 0 001.66 1.37 5.56 5.56 0 002.29.38z" stroke="#635bff" stroke-miterlimit="10" stroke-width=".5" fill="#635bff"/><path d="M524.45 392.76a10.07 10.07 0 00.65-3.62 7.11 7.11 0 00-.6-3.08 6.63 6.63 0 00-1.6-2.11 9.53 9.53 0 00-2.26-1.43c-.84-.37-1.7-.71-2.59-1l-2.58-.87a12.72 12.72 0 01-2.26-1 5.16 5.16 0 01-1.6-1.38 3.34 3.34 0 01-.6-2.05 4.6 4.6 0 01.34-1.79 4.13 4.13 0 011-1.45 5.06 5.06 0 011.71-1 7.14 7.14 0 012.36-.36 7.45 7.45 0 012.42.35 9.36 9.36 0 011.7.77 11.92 11.92 0 011.17.77 1.43 1.43 0 00.81.35.88.88 0 00.53-.16 1.41 1.41 0 00.39-.46l1-1.89a10.52 10.52 0 00-3.55-2.25 12.51 12.51 0 00-4.5-.78 10.47 10.47 0 00-3.89.67 8.65 8.65 0 00-2.84 1.81 8.21 8.21 0 00-1.75 8.87 6.47 6.47 0 001.59 2.21 8.39 8.39 0 002.24 1.43 27 27 0 002.59 1l2.59.82a11.27 11.27 0 012.24 1 5 5 0 011.59 1.43 3.66 3.66 0 01.61 2.19 5.73 5.73 0 01-.41 2.19 4.82 4.82 0 01-1.18 1.69 5.31 5.31 0 01-1.88 1.1 7.58 7.58 0 01-2.52.39 7.93 7.93 0 01-2.89-.46 11.06 11.06 0 01-2-1 14.7 14.7 0 01-1.38-1 1.62 1.62 0 00-1-.46 1 1 0 00-.52.15 1.45 1.45 0 00-.4.38l-1.18 1.83a12.36 12.36 0 004 2.8 12.77 12.77 0 005.2 1 11.42 11.42 0 004.18-.71 9.1 9.1 0 003.1-2 8.46 8.46 0 001.97-2.89zm14.19 5.13a6.69 6.69 0 002.28-1.38l-1.07-1.75a.63.63 0 00-.51-.35.74.74 0 00-.38.16l-.52.34a5.59 5.59 0 01-.73.34 3 3 0 01-1 .15 2.21 2.21 0 01-1.64-.64 2.66 2.66 0 01-.63-1.95v-12.47h5.95v-2.65h-5.95v-7.16h-1.85a.84.84 0 00-.57.2.78.78 0 00-.27.5l-.84 6.42-3.41.43v1.46a.75.75 0 00.23.6.81.81 0 00.55.2h2.51v12.72a5.51 5.51 0 001.32 4 5 5 0 003.78 1.37 7.61 7.61 0 002.75-.54zm18.2-2.61l.41 1.93a.9.9 0 00.43.69 1.93 1.93 0 00.86.17h1.63v-13.3a10.18 10.18 0 00-.48-3.2 6.61 6.61 0 00-1.39-2.48 6.31 6.31 0 00-2.28-1.6 7.72 7.72 0 00-3.1-.58 11.62 11.62 0 00-4.41.82 12 12 0 00-3.71 2.49l.66 1.17a1.34 1.34 0 00.44.48 1.07 1.07 0 00.64.19 1.65 1.65 0 001-.34l1.15-.76a8 8 0 011.58-.75 6.32 6.32 0 012.24-.34 3.73 3.73 0 013.07 1.25 5.65 5.65 0 011 3.68v1.63a26.76 26.76 0 00-6 .57 14.25 14.25 0 00-3.94 1.45 5.94 5.94 0 00-2.19 2 4.6 4.6 0 00-.68 2.38 6.2 6.2 0 00.46 2.46 5 5 0 001.27 1.71 5.28 5.28 0 001.83 1 7.6 7.6 0 002.27.33 10.31 10.31 0 002.16-.2 8.46 8.46 0 001.84-.61 8.89 8.89 0 001.64-1c.52-.31 1.05-.75 1.6-1.24zm-4.39.35a6.92 6.92 0 01-1.76.2 4.77 4.77 0 01-1.34-.18 2.65 2.65 0 01-1.78-1.53 3.48 3.48 0 01-.27-1.43 2.69 2.69 0 01.5-1.57 4.09 4.09 0 011.62-1.21 11.8 11.8 0 012.87-.84 24.72 24.72 0 014.29-.32V393a11.42 11.42 0 01-1.27 1.17 8.15 8.15 0 01-1.35.87 6.78 6.78 0 01-1.51.59zm15.35-18.35h-2.09v20.79h3.65v-13.24a8.31 8.31 0 012.14-3.22 4.71 4.71 0 013.19-1.11 5.5 5.5 0 011.66.2 3.14 3.14 0 00.89.19.61.61 0 00.63-.51l.47-2.73a5.32 5.32 0 00-1.29-.54 5.73 5.73 0 00-1.56-.2 5.84 5.84 0 00-3.68 1.22 9.53 9.53 0 00-2.64 3.4l-.24-3.24a1.42 1.42 0 00-.31-.78 1.15 1.15 0 00-.82-.23zM584.76 397a5 5 0 003.78 1.37 7.61 7.61 0 002.75-.5 6.69 6.69 0 002.28-1.38l-1.07-1.75a.63.63 0 00-.51-.35.71.71 0 00-.38.16l-.52.34a5.59 5.59 0 01-.73.34 3 3 0 01-1 .15 2.19 2.19 0 01-1.64-.64 2.66 2.66 0 01-.64-1.95v-12.45h6v-2.65h-6v-7.16h-1.84a.87.87 0 00-.58.2.72.72 0 00-.26.5l-.84 6.42-3.41.43v1.46a.72.72 0 00.23.6.81.81 0 00.55.2h2.5v12.72a5.47 5.47 0 001.33 3.94zm23.5 1.16a13.08 13.08 0 002.23-.59 10.51 10.51 0 002-1 7 7 0 001.62-1.43l-1-1.33a.81.81 0 00-.7-.35 1.62 1.62 0 00-.83.32q-.48.31-1.2.69a11.93 11.93 0 01-1.71.68 7.55 7.55 0 01-2.37.32 7.09 7.09 0 01-2.67-.48 5.4 5.4 0 01-2-1.46 7 7 0 01-1.35-2.43 11.48 11.48 0 01-.54-3.43h13.83a.77.77 0 00.7-.28 2.45 2.45 0 00.18-1.15 11.25 11.25 0 00-.64-3.95 8.19 8.19 0 00-1.8-2.92 7.74 7.74 0 00-2.73-1.8 9.19 9.19 0 00-3.44-.63 10.19 10.19 0 00-4.07.79 8.9 8.9 0 00-3.05 2.18 9.36 9.36 0 00-1.92 3.27 12 12 0 00-.67 4.06 14.16 14.16 0 00.74 4.76 9.75 9.75 0 002.06 3.48 8.59 8.59 0 003.14 2.13 10.47 10.47 0 004 .73 13.67 13.67 0 002.19-.18zm-6.57-17a5.62 5.62 0 014.17-1.53 5.56 5.56 0 012.22.42 4.73 4.73 0 011.66 1.19 5.1 5.1 0 011 1.83 7.45 7.45 0 01.35 2.33h-11.3a7.16 7.16 0 011.9-4.23zm30.68 13.62l.33 2.53a.93.93 0 001 .76h2.18v-30.23h-3.68v11.54a7.68 7.68 0 00-2.42-1.82 7.52 7.52 0 00-3.26-.65 8.4 8.4 0 00-3.78.83 8.56 8.56 0 00-2.82 2.29 10.47 10.47 0 00-1.77 3.44 14.33 14.33 0 00-.62 4.28 17 17 0 00.56 4.57 9.54 9.54 0 001.58 3.33 6.8 6.8 0 002.48 2 7.61 7.61 0 003.24.68 7.79 7.79 0 003.93-1 11 11 0 003.05-2.55zm-8 .19a4 4 0 01-1.66-1.37 6.61 6.61 0 01-1-2.38 14.55 14.55 0 01-.35-3.47 9.67 9.67 0 011.56-5.91 5.27 5.27 0 014.47-2.08 6.42 6.42 0 012.66.55 5.69 5.69 0 012.2 1.9v10.05a9 9 0 01-2.47 2.32 5.87 5.87 0 01-3.13.82 5.56 5.56 0 01-2.31-.4zm36.31-23.06v-3.25h-18.12v29.41h18.12v-3.25h-14.11v-10.03h11.42v-3.12h-11.42v-9.76h14.11zm22.78 5.37h-2.86a1 1 0 00-.68.22 1.13 1.13 0 00-.4.54l-5.34 13.38a11.54 11.54 0 00-.47 1.48c-.12.49-.24 1-.35 1.45-.1-.48-.2-1-.31-1.45a10.05 10.05 0 00-.45-1.48L667.33 378a1.29 1.29 0 00-.41-.53 1.13 1.13 0 00-.72-.23h-3l8.48 20.79H675zM703 387.4a2.45 2.45 0 00.18-1.15 11.25 11.25 0 00-.64-3.95 8.19 8.19 0 00-1.8-2.92 7.74 7.74 0 00-2.73-1.8 9.19 9.19 0 00-3.44-.63 10.19 10.19 0 00-4.07.79 8.9 8.9 0 00-3.05 2.18 9.36 9.36 0 00-1.92 3.27 12 12 0 00-.67 4.06 14.16 14.16 0 00.74 4.76 9.75 9.75 0 002.06 3.48 8.59 8.59 0 003.14 2.13 10.47 10.47 0 004 .73 13.67 13.67 0 002.28-.19 13.08 13.08 0 002.23-.59 10.51 10.51 0 002-1 7 7 0 001.62-1.43l-1-1.33a.81.81 0 00-.7-.35 1.62 1.62 0 00-.83.32q-.48.31-1.2.69a11.93 11.93 0 01-1.71.68 7.64 7.64 0 01-2.37.32 7.06 7.06 0 01-2.67-.48 5.4 5.4 0 01-2-1.46 6.79 6.79 0 01-1.35-2.43 11.48 11.48 0 01-.54-3.43h13.83a.77.77 0 00.61-.27zm-14.4-2a7.16 7.16 0 011.88-4.24 6.32 6.32 0 016.39-1.11 4.73 4.73 0 011.66 1.19 5.1 5.1 0 011 1.83 7.45 7.45 0 01.35 2.33zm31.78-4.23a5.58 5.58 0 011.07 3.66v13.24h3.66v-13.24a10.9 10.9 0 00-.45-3.22 7.24 7.24 0 00-1.33-2.49 5.72 5.72 0 00-2.17-1.6 7.45 7.45 0 00-3-.57 7.86 7.86 0 00-3.87.93 11.54 11.54 0 00-3 2.42L711 378a.94.94 0 00-1-.76h-2.18v20.79h3.65v-15.27a10 10 0 012.6-2.11 6.1 6.1 0 013-.78 4 4 0 013.31 1.3zM742 396.51l-1.06-1.75a.66.66 0 00-.52-.35.74.74 0 00-.38.16l-.52.34a5.59 5.59 0 01-.73.34 3 3 0 01-1 .15 2.23 2.23 0 01-1.65-.64 2.66 2.66 0 01-.63-1.95v-12.47h5.95v-2.65h-5.95v-7.16h-1.85a.84.84 0 00-.57.2.78.78 0 00-.27.5l-.84 6.42-3.41.43v1.46a.75.75 0 00.23.6.81.81 0 00.55.2h2.51v12.72a5.51 5.51 0 001.32 4 5 5 0 003.79 1.37 7.55 7.55 0 002.74-.5 6.69 6.69 0 002.29-1.42zM499.43 509.07h4.01v-12.64h12.06v-3.24h-12.06v-10.28h14.11v-3.25h-18.12v29.41zm23.07-20.79h3.65v20.78h-3.65zm3.68-8.38a2.59 2.59 0 00-.83-.56 2.47 2.47 0 00-1-.21 2.34 2.34 0 00-1 .21 2.55 2.55 0 00-.82.56 2.71 2.71 0 00-.57.84 2.51 2.51 0 00-.2 1 2.37 2.37 0 00.2 1 2.82 2.82 0 001.39 1.39 2.5 2.5 0 001 .2 2.64 2.64 0 001-.2 2.79 2.79 0 00.83-.57 2.75 2.75 0 00.57-.82 2.24 2.24 0 00.22-1 2.37 2.37 0 00-.22-1 2.71 2.71 0 00-.57-.84zm21.93 10.22a5.72 5.72 0 00-2.17-1.6 7.45 7.45 0 00-3-.57 7.86 7.86 0 00-3.87.93 11.54 11.54 0 00-3 2.42l-.29-2.26a.93.93 0 00-1-.76h-2.18v20.79h3.65v-15.31a10 10 0 012.6-2.11 6.16 6.16 0 013-.78 4 4 0 013.29 1.3 5.58 5.58 0 011.07 3.66v13.24h3.66v-13.24a10.9 10.9 0 00-.45-3.22 7.24 7.24 0 00-1.31-2.49zm11.39-10.22a2.59 2.59 0 00-.83-.56 2.47 2.47 0 00-1-.21 2.38 2.38 0 00-1 .21 2.55 2.55 0 00-.82.56 2.57 2.57 0 00-.77 1.86 2.54 2.54 0 00.2 1 2.82 2.82 0 001.39 1.39 2.54 2.54 0 001 .2 2.64 2.64 0 001-.2 2.79 2.79 0 00.83-.57 2.75 2.75 0 00.57-.82 2.24 2.24 0 00.22-1 2.37 2.37 0 00-.22-1 2.71 2.71 0 00-.57-.86zm-3.68 8.38h3.65v20.78h-3.65zm21.48 10.77a7 7 0 00-1.73-1c-.64-.28-1.3-.53-2-.75s-1.34-.44-2-.64a10.76 10.76 0 01-1.73-.68 3.94 3.94 0 01-1.22-.93 1.94 1.94 0 01-.46-1.33 2.48 2.48 0 01.28-1.18 2.89 2.89 0 01.8-1 4 4 0 011.26-.64 5.32 5.32 0 011.66-.24 6.34 6.34 0 011.85.24 10 10 0 011.34.51l1 .5a1.44 1.44 0 00.69.23.81.81 0 00.76-.45l.82-1.33a8.52 8.52 0 00-2.82-1.78 9.93 9.93 0 00-3.68-.65 9.19 9.19 0 00-3.14.5 7 7 0 00-2.32 1.32 5.56 5.56 0 00-1.93 4.22 5 5 0 00.46 2.26 4.78 4.78 0 001.22 1.57 6.92 6.92 0 001.74 1.06c.65.28 1.31.53 2 .75s1.34.43 2 .62a9.59 9.59 0 011.73.7 3.77 3.77 0 011.22 1 2.15 2.15 0 01.46 1.42 3.41 3.41 0 01-.25 1.32 3 3 0 01-.79 1.08 3.77 3.77 0 01-1.34.75 5.51 5.51 0 01-1.86.28 6.54 6.54 0 01-2.09-.29 7.15 7.15 0 01-1.41-.64c-.39-.23-.72-.44-1-.63a1.37 1.37 0 00-.77-.29 1.07 1.07 0 00-.6.15 1.19 1.19 0 00-.39.41l-.86 1.39a10.17 10.17 0 003 1.82 10.55 10.55 0 003.94.7 10.2 10.2 0 003.37-.51 7.36 7.36 0 002.46-1.4 5.8 5.8 0 001.52-2.12 6.8 6.8 0 00.51-2.65 4.61 4.61 0 00-.46-2.15 4.86 4.86 0 00-1.24-1.52zm21.94-8.93a5.72 5.72 0 00-2.17-1.6 7.45 7.45 0 00-3-.57 8 8 0 00-3.73.85 11.41 11.41 0 00-3 2.27v-12.23h-3.65v30.23h3.65v-15.31a10 10 0 012.6-2.11 6.1 6.1 0 013-.78 4 4 0 013.3 1.3 5.59 5.59 0 011.08 3.66v13.24H601v-13.24a10.9 10.9 0 00-.45-3.22 7.08 7.08 0 00-1.31-2.49zm21.7.26a7.92 7.92 0 00-2.73-1.8 9.21 9.21 0 00-3.45-.63 10.14 10.14 0 00-4.06.79 9 9 0 00-3.06 2.18 9.5 9.5 0 00-1.91 3.27 12 12 0 00-.67 4.06 13.91 13.91 0 00.74 4.76 9.75 9.75 0 002.06 3.48 8.59 8.59 0 003.14 2.13 10.47 10.47 0 004 .73 13.67 13.67 0 002.28-.19 13 13 0 002.22-.59 10 10 0 002-1 7 7 0 001.63-1.43l-1-1.33a.82.82 0 00-.7-.35 1.62 1.62 0 00-.83.32q-.48.31-1.2.69a11.93 11.93 0 01-1.71.68 7.64 7.64 0 01-2.37.32 7.06 7.06 0 01-2.67-.48 5.4 5.4 0 01-2.05-1.46 7 7 0 01-1.36-2.43 11.82 11.82 0 01-.53-3.43h13.79a.78.78 0 00.7-.28 2.45 2.45 0 00.18-1.15 11 11 0 00-.65-3.95 8.17 8.17 0 00-1.79-2.91zm-12.15 6a7.23 7.23 0 011.89-4.24 6.32 6.32 0 016.39-1.11 4.6 4.6 0 011.65 1.19 5 5 0 011 1.83 7.45 7.45 0 01.35 2.33zm32.4-6a7.68 7.68 0 00-2.42-1.82 7.52 7.52 0 00-3.26-.65 8.13 8.13 0 00-6.6 3.12 10.49 10.49 0 00-1.78 3.44 14.33 14.33 0 00-.61 4.28 17.45 17.45 0 00.55 4.57 9.72 9.72 0 001.58 3.33 6.83 6.83 0 002.49 2 7.61 7.61 0 003.24.68 7.82 7.82 0 003.93-1 11 11 0 003-2.6l.33 2.53a.94.94 0 001 .76h2.17v-30.18h-3.65zm0 12.88a9.09 9.09 0 01-2.47 2.32 5.87 5.87 0 01-3.13.82 5.56 5.56 0 01-2.26-.43 4 4 0 01-1.66-1.37 6.79 6.79 0 01-1-2.38 15.09 15.09 0 01-.35-3.47 9.67 9.67 0 011.56-5.91 5.27 5.27 0 014.48-2.08 6.38 6.38 0 012.65.55 5.64 5.64 0 012.21 1.9zm10.36 5.81h18.12v-3.25h-14.12v-10.03h11.43v-3.12h-11.43v-9.76h14.12v-3.25h-18.12v29.41zm37.35-20.57a1.28 1.28 0 00-.4.54l-5.33 13.38a11.54 11.54 0 00-.47 1.48c-.13.49-.24 1-.35 1.45-.1-.48-.2-1-.31-1.45a10.05 10.05 0 00-.45-1.48L676.32 489a1.38 1.38 0 00-.41-.53 1.17 1.17 0 00-.72-.23h-3l8.48 20.79H684l8.47-20.79h-2.85a1.08 1.08 0 00-.72.26zm20.8 1.88a7.92 7.92 0 00-2.73-1.8 9.21 9.21 0 00-3.45-.63 10.14 10.14 0 00-4.06.79 9 9 0 00-3.06 2.18 9.5 9.5 0 00-1.91 3.27 12 12 0 00-.67 4.06 13.91 13.91 0 00.74 4.76 9.75 9.75 0 002.06 3.48 8.59 8.59 0 003.14 2.13 10.47 10.47 0 004 .73 13.67 13.67 0 002.28-.19 13 13 0 002.22-.59 10.23 10.23 0 002-1 7 7 0 001.63-1.43l-1-1.33a.82.82 0 00-.7-.35 1.62 1.62 0 00-.83.32q-.48.31-1.2.69a11.93 11.93 0 01-1.71.68 7.64 7.64 0 01-2.37.32 7.06 7.06 0 01-2.67-.48 5.4 5.4 0 01-2-1.46 7 7 0 01-1.36-2.43 11.49 11.49 0 01-.53-3.43h13.83a.78.78 0 00.7-.28 2.45 2.45 0 00.18-1.15 11 11 0 00-.65-3.95 8.32 8.32 0 00-1.88-2.91zm-12.15 6a7.23 7.23 0 011.89-4.24 6.32 6.32 0 016.39-1.11 4.6 4.6 0 011.65 1.19 5 5 0 011 1.83 7.45 7.45 0 01.35 2.33zm34.77-6.26a5.75 5.75 0 00-2.18-1.6 7.4 7.4 0 00-3-.57 7.86 7.86 0 00-3.87.93 11.75 11.75 0 00-3 2.42L720 489a.94.94 0 00-1-.76h-2.2v20.79h3.65v-15.27a10 10 0 012.59-2.11 6.16 6.16 0 013-.78 4 4 0 013.3 1.3 5.64 5.64 0 011.07 3.66v13.24h3.65v-13.24a10.9 10.9 0 00-.45-3.22 7.06 7.06 0 00-1.29-2.49zm17.04 15.29a.71.71 0 00-.38.16l-.52.34a5.59 5.59 0 01-.73.34 3 3 0 01-1 .15 2.21 2.21 0 01-1.64-.64 2.66 2.66 0 01-.63-1.95v-12.47h5.95v-2.65h-5.95v-7.16h-1.85a.84.84 0 00-.57.2.7.7 0 00-.27.5l-.84 6.42-3.41.43v1.46a.75.75 0 00.23.6.81.81 0 00.55.2h2.5v12.72a5.51 5.51 0 001.33 4 5 5 0 003.78 1.37 7.61 7.61 0 002.75-.5 6.69 6.69 0 002.28-1.38l-1.07-1.75a.63.63 0 00-.51-.39zM519.87 279.07h4.72a14.76 14.76 0 004.7-.69 9.82 9.82 0 003.43-1.92 8.06 8.06 0 002.11-2.93 9.76 9.76 0 00.71-3.76 10.18 10.18 0 00-.66-3.75 7.46 7.46 0 00-2-2.87 9.33 9.33 0 00-3.42-1.84 16.27 16.27 0 00-4.85-.65h-8.68v29.41h4zm0-15.27h4.72a7.58 7.58 0 015.24 1.58 5.64 5.64 0 011.73 4.39 6.69 6.69 0 01-.45 2.49 5.22 5.22 0 01-1.33 1.94 6.18 6.18 0 01-2.19 1.26 9.19 9.19 0 01-3 .45h-4.72zm20.54-3.96h3.65v30.22h-3.65zm25.36 16.93a10.18 10.18 0 00-.48-3.2 6.61 6.61 0 00-1.39-2.48 6.23 6.23 0 00-2.28-1.6 7.72 7.72 0 00-3.1-.58 11.62 11.62 0 00-4.41.82 12 12 0 00-3.71 2.49l.65 1.17a1.47 1.47 0 00.45.48 1.07 1.07 0 00.64.19 1.63 1.63 0 001-.34l1.15-.76a8 8 0 011.58-.75 6.32 6.32 0 012.24-.34 3.73 3.73 0 013.07 1.25 5.65 5.65 0 011 3.68v1.63a26.6 26.6 0 00-6 .57 14.2 14.2 0 00-4 1.45 5.94 5.94 0 00-2.19 2 4.6 4.6 0 00-.68 2.38 6 6 0 00.47 2.46 4.85 4.85 0 001.32 1.71 5.28 5.28 0 001.83 1 7.6 7.6 0 002.27.33 10.31 10.31 0 002.16-.2 8.46 8.46 0 001.84-.61 8.57 8.57 0 001.64-1c.52-.39 1-.83 1.6-1.32l.41 1.93a.9.9 0 00.43.69 1.93 1.93 0 00.86.17h1.63zm-3.59 8.23a11.42 11.42 0 01-1.27 1.17 8.15 8.15 0 01-1.35.87 6.78 6.78 0 01-1.51.55 6.92 6.92 0 01-1.76.2 4.77 4.77 0 01-1.34-.18 2.65 2.65 0 01-1.78-1.53 3.48 3.48 0 01-.27-1.43 2.69 2.69 0 01.5-1.57 4.09 4.09 0 011.62-1.21 11.8 11.8 0 012.87-.84 24.72 24.72 0 014.29-.32zm24.49 2.15l-1-1.33a.79.79 0 00-.7-.35 1.15 1.15 0 00-.74.32c-.25.21-.56.45-.94.71a6.67 6.67 0 01-1.44.7 6.18 6.18 0 01-2.19.32 5.89 5.89 0 01-2.52-.52 5.27 5.27 0 01-1.9-1.52A7.44 7.44 0 01574 283a12.23 12.23 0 01-.43-3.36 12.6 12.6 0 01.4-3.26 7.24 7.24 0 011.19-2.48 5.25 5.25 0 012-1.57 7.24 7.24 0 014.63-.29 7.09 7.09 0 011.34.57 9.15 9.15 0 01.92.56 1.18 1.18 0 00.66.26.71.71 0 00.47-.13 1.4 1.4 0 00.33-.35l1-1.31a9.25 9.25 0 00-3-2 9.9 9.9 0 00-3.85-.71 10.4 10.4 0 00-4.19.8 8.66 8.66 0 00-3.07 2.23 9.94 9.94 0 00-1.89 3.4 13.67 13.67 0 00-.64 4.28 13.32 13.32 0 00.71 4.54 9.8 9.8 0 001.93 3.35 8.35 8.35 0 002.91 2.09 9.2 9.2 0 003.62.71 11.9 11.9 0 004.29-.77 7.84 7.84 0 003.34-2.41zm20.46-7.75a2.45 2.45 0 00.18-1.15 11.25 11.25 0 00-.64-3.95 8.19 8.19 0 00-1.8-2.92 7.74 7.74 0 00-2.73-1.8 9.19 9.19 0 00-3.44-.63 10.19 10.19 0 00-4.07.79 8.9 8.9 0 00-3 2.18 9.36 9.36 0 00-1.92 3.27 12 12 0 00-.67 4.06 14.16 14.16 0 00.74 4.76 9.75 9.75 0 002.06 3.48 8.67 8.67 0 003.14 2.13 10.5 10.5 0 004 .73 13.67 13.67 0 002.28-.19 12.84 12.84 0 002.23-.59 10.51 10.51 0 002-1 6.76 6.76 0 001.62-1.43l-1-1.33a.81.81 0 00-.7-.35 1.62 1.62 0 00-.83.32q-.48.31-1.2.69a11.93 11.93 0 01-1.71.68 7.55 7.55 0 01-2.37.32 7.09 7.09 0 01-2.67-.48 5.48 5.48 0 01-2-1.46 7 7 0 01-1.35-2.43 11.48 11.48 0 01-.54-3.43h13.83a.77.77 0 00.56-.27zm-14.4-2a7.11 7.11 0 011.89-4.24 6.32 6.32 0 016.39-1.11 4.69 4.69 0 011.65 1.19 5.1 5.1 0 011 1.83 7.17 7.17 0 01.35 2.33zm19.86 10.25a6.8 6.8 0 002.48 2 7.61 7.61 0 003.24.68 7.79 7.79 0 003.93-1 11 11 0 003-2.6l.33 2.53a.93.93 0 001 .76h2.18v-30.18h-3.66v11.54a7.15 7.15 0 00-5.68-2.47 8.4 8.4 0 00-3.78.83 8.56 8.56 0 00-2.82 2.29 10.47 10.47 0 00-1.77 3.44 14.33 14.33 0 00-.62 4.28 17 17 0 00.56 4.57 9.54 9.54 0 001.61 3.33zm3.2-13.81a5.27 5.27 0 014.47-2.08 6.42 6.42 0 012.66.55 5.69 5.69 0 012.2 1.9v10.05a9 9 0 01-2.47 2.32 5.85 5.85 0 01-3.13.82 5.47 5.47 0 01-2.25-.43 4 4 0 01-1.67-1.37 6.61 6.61 0 01-1-2.38 14.55 14.55 0 01-.35-3.47 9.67 9.67 0 011.54-5.91zm37.81 12.98h-14.11v-10.03h11.42v-3.12h-11.42v-9.76h14.11v-3.25h-18.12v29.41h18.12v-3.25zm14.3 3.25l8.48-20.79h-2.85a1 1 0 00-.69.22 1.13 1.13 0 00-.4.54l-5.34 13.38a11.54 11.54 0 00-.47 1.48c-.12.49-.24 1-.35 1.45-.09-.48-.2-1-.31-1.45a9 9 0 00-.45-1.48L660.25 270a1.29 1.29 0 00-.41-.53 1.13 1.13 0 00-.72-.23h-3l8.48 20.79zm12.65-2.58a8.67 8.67 0 003.14 2.13 10.5 10.5 0 004 .73 13.67 13.67 0 002.28-.19 12.84 12.84 0 002.23-.59 10.51 10.51 0 002-1 6.76 6.76 0 001.62-1.43l-1-1.33a.81.81 0 00-.7-.35 1.62 1.62 0 00-.83.32q-.48.31-1.2.69a11.93 11.93 0 01-1.71.68 7.55 7.55 0 01-2.37.32 7.09 7.09 0 01-2.67-.48 5.48 5.48 0 01-2-1.46 7 7 0 01-1.35-2.43 11.48 11.48 0 01-.54-3.43h13.83a.77.77 0 00.7-.28 2.45 2.45 0 00.18-1.15 11.25 11.25 0 00-.64-3.95 8.19 8.19 0 00-1.8-2.92 7.74 7.74 0 00-2.73-1.8 9.19 9.19 0 00-3.44-.63 10.19 10.19 0 00-4.07.79 8.9 8.9 0 00-3 2.18 9.36 9.36 0 00-1.92 3.27 12 12 0 00-.67 4.06 14.16 14.16 0 00.74 4.76 9.75 9.75 0 001.92 3.49zm2.83-14.32a6.32 6.32 0 016.39-1.11 4.78 4.78 0 011.65 1.19 5.1 5.1 0 011 1.83 7.17 7.17 0 01.35 2.33h-11.3a7.11 7.11 0 011.91-4.24zm34.62 16.9v-13.24a10.9 10.9 0 00-.45-3.22 7.08 7.08 0 00-1.33-2.49 5.72 5.72 0 00-2.17-1.6 7.45 7.45 0 00-3-.57 7.79 7.79 0 00-3.86.93 11.42 11.42 0 00-3 2.42l-.29-2.26a.93.93 0 00-1-.76h-2.18v20.79h3.65v-15.31a10 10 0 012.6-2.11 6.16 6.16 0 013-.78 4 4 0 013.29 1.3 5.59 5.59 0 011.08 3.66v13.24zm8.06-1.07a5 5 0 003.79 1.37 7.65 7.65 0 002.75-.5 6.75 6.75 0 002.27-1.38l-1.06-1.75a.66.66 0 00-.52-.35.74.74 0 00-.38.16l-.52.34a5 5 0 01-.73.34 3 3 0 01-1 .15 2.19 2.19 0 01-1.64-.64 2.62 2.62 0 01-.64-1.95v-12.45h6v-2.65h-6v-7.16h-1.85a.84.84 0 00-.57.2.78.78 0 00-.27.5l-.84 6.42-3.41.43v1.46a.75.75 0 00.23.6.83.83 0 00.55.2h2.51v12.72a5.51 5.51 0 001.33 3.94zm404.94 7l2.12 2.12 17.36-17.36a5.24 5.24 0 000-7.42l-17.56-17.56-2.12 2.12 16.81 16.81h-129.67a1.5 1.5 0 00-1.5 1.5v106.5H974.9V276.25a1.5 1.5 0 00-1.5-1.5H841.17v3H971.9v105H843.67v3h128.5V493h-131v3h132.5a1.5 1.5 0 001.5-1.5V385.75h41V494.5a1.5 1.5 0 001.5 1.5h131.13a2.21 2.21 0 01-.46.68L1131 514l2.12 2.12 17.36-17.36a5.24 5.24 0 000-7.42l-17.56-17.56-2.12 2.12 17.04 17.1h-128.67V385.75h129.1L1131 403l2.12 2.12 17.36-17.36a5.24 5.24 0 000-7.42l-17.56-17.56-2.12 2.12 17.56 17.56a1.57 1.57 0 01.2.25h-129.1v-105h129.45a2.39 2.39 0 01-.55.93zm174.1-35.34h3.98v29.4h-3.98zm11.9 26.99a6.8 6.8 0 002.48 2 7.61 7.61 0 003.24.68 7.79 7.79 0 003.93-1 11 11 0 003-2.6l.32 2.53a.94.94 0 001 .76h2.17v-30.18h-3.65v11.54a7.68 7.68 0 00-2.42-1.82 7.52 7.52 0 00-3.26-.65 8.4 8.4 0 00-3.78.83 8.56 8.56 0 00-2.82 2.29 10.47 10.47 0 00-1.77 3.44 14.33 14.33 0 00-.62 4.28 17 17 0 00.56 4.57 9.54 9.54 0 001.62 3.33zm3.2-13.81a5.27 5.27 0 014.47-2.08 6.42 6.42 0 012.66.55 5.69 5.69 0 012.2 1.9v10.05a9 9 0 01-2.47 2.32 5.87 5.87 0 01-3.13.82 5.56 5.56 0 01-2.26-.43 4 4 0 01-1.66-1.37 6.61 6.61 0 01-1-2.38 14.55 14.55 0 01-.35-3.47 9.67 9.67 0 011.54-5.91zm19.53-14h3.65v30.22h-3.65zm11.42 27.65a8.59 8.59 0 003.14 2.13 10.47 10.47 0 004 .73 13.46 13.46 0 002.27-.19 12.84 12.84 0 002.23-.59 10.23 10.23 0 002-1 6.76 6.76 0 001.62-1.43l-1-1.33a.82.82 0 00-.7-.35 1.62 1.62 0 00-.83.32q-.48.31-1.2.69a11.63 11.63 0 01-1.72.68 7.55 7.55 0 01-2.37.32 7 7 0 01-2.66-.48 5.32 5.32 0 01-2.05-1.46 7 7 0 01-1.36-2.43 11.18 11.18 0 01-.53-3.43h13.83a.75.75 0 00.69-.28 2.3 2.3 0 00.19-1.15 11.24 11.24 0 00-.65-3.95 8.32 8.32 0 00-1.79-2.92 7.92 7.92 0 00-2.73-1.8 9.21 9.21 0 00-3.45-.63 10.14 10.14 0 00-4.06.79 9 9 0 00-3.06 2.18 9.68 9.68 0 00-1.92 3.27 12.22 12.22 0 00-.66 4.06 14.17 14.17 0 00.73 4.76 9.76 9.76 0 002.04 3.49zm2.82-14.32a6.32 6.32 0 016.39-1.11 4.6 4.6 0 011.65 1.19 5.28 5.28 0 011 1.83 7.45 7.45 0 01.35 2.33h-11.31a7.23 7.23 0 011.95-4.24zM1297.71 390l2.75 7.1a1.61 1.61 0 00.49.68 1.32 1.32 0 00.86.27h3.08l-11.76-29.41h-4l-11.76 29.41h3.08a1.31 1.31 0 00.86-.29 1.57 1.57 0 00.5-.66l2.75-7.1zm-7.47-14.81c.14-.36.28-.77.42-1.24s.29-1 .44-1.55a23 23 0 00.88 2.77l4.62 12h-11zm31.43 18.28a1.13 1.13 0 00-.73.32c-.25.21-.57.45-1 .71a6.57 6.57 0 01-1.43.7 6.28 6.28 0 01-2.2.32 5.81 5.81 0 01-2.51-.52 5.19 5.19 0 01-1.9-1.52 7.25 7.25 0 01-1.21-2.46 11.86 11.86 0 01-.43-3.36 12.18 12.18 0 01.4-3.26 6.9 6.9 0 011.19-2.48 5.18 5.18 0 012-1.57 7.21 7.21 0 014.62-.29 7.21 7.21 0 011.35.57 8.87 8.87 0 01.91.56 1.18 1.18 0 00.67.26.73.73 0 00.47-.13 1.4 1.4 0 00.33-.35l1-1.31a9.21 9.21 0 00-3-2 9.92 9.92 0 00-3.86-.71 10.44 10.44 0 00-4.19.8 8.62 8.62 0 00-3.06 2.23 9.62 9.62 0 00-1.89 3.4 14.65 14.65 0 00.06 8.82 9.81 9.81 0 001.94 3.35 8.31 8.31 0 002.9 2.09 9.24 9.24 0 003.62.71 11.82 11.82 0 004.29-.77 7.82 7.82 0 003.39-2.43l-1-1.33a.78.78 0 00-.73-.35zm6.71-.41a5.47 5.47 0 001.33 4 5 5 0 003.78 1.37 7.61 7.61 0 002.75-.5 6.69 6.69 0 002.28-1.38l-1.07-1.75a.63.63 0 00-.51-.35.71.71 0 00-.38.16l-.52.34a5.59 5.59 0 01-.73.34 3 3 0 01-1 .15 2.19 2.19 0 01-1.64-.64 2.66 2.66 0 01-.63-1.95v-12.51h6v-2.65h-6v-7.16h-1.85a.87.87 0 00-.58.2.72.72 0 00-.26.5l-.84 6.42-3.41.43v1.46a.72.72 0 00.23.6.81.81 0 00.55.2h2.5zm14.53-15.78h3.65v20.78h-3.65zm.85-4.14a2.55 2.55 0 001 .2 2.59 2.59 0 001-.2 2.67 2.67 0 00.83-.57 3 3 0 00.58-.82 2.38 2.38 0 00.21-1 2.52 2.52 0 00-.21-1 2.93 2.93 0 00-.58-.84 2.48 2.48 0 00-.83-.56 2.42 2.42 0 00-1-.21 2.39 2.39 0 00-1 .21 2.63 2.63 0 00-1.38 1.4 2.52 2.52 0 00-.21 1 2.38 2.38 0 00.21 1 2.55 2.55 0 00.56.82 2.75 2.75 0 00.82.57zm18.39 24.93l8.48-20.79h-2.85a1 1 0 00-.69.22 1.13 1.13 0 00-.4.54l-5.34 13.38a13.36 13.36 0 00-.47 1.48c-.12.49-.24 1-.35 1.45-.09-.48-.2-1-.3-1.45a9 9 0 00-.46-1.48L1354.5 378a1.29 1.29 0 00-.41-.53 1.13 1.13 0 00-.72-.23h-3l8.47 20.79zm27.91-2.92l-1-1.33a.79.79 0 00-.69-.35 1.64 1.64 0 00-.84.32q-.48.31-1.2.69a11.47 11.47 0 01-1.71.68 7.55 7.55 0 01-2.37.32 7.13 7.13 0 01-2.67-.48 5.48 5.48 0 01-2-1.46 7.11 7.11 0 01-1.35-2.43 11.18 11.18 0 01-.53-3.43h13.82a.76.76 0 00.7-.28 2.42 2.42 0 00.19-1.15 11.24 11.24 0 00-.65-3.95 8.19 8.19 0 00-1.8-2.92 7.79 7.79 0 00-2.72-1.8 9.28 9.28 0 00-3.45-.63 10.1 10.1 0 00-4.06.79 8.84 8.84 0 00-3.06 2.18 9.52 9.52 0 00-1.92 3.27 12.22 12.22 0 00-.67 4.06 14.16 14.16 0 00.74 4.76 9.75 9.75 0 002.06 3.48 8.67 8.67 0 003.14 2.13 10.5 10.5 0 004 .73 13.58 13.58 0 002.28-.19 12.84 12.84 0 002.23-.59 10.23 10.23 0 002-1 6.76 6.76 0 001.53-1.42zm-12.43-14a6.32 6.32 0 016.39-1.11 4.6 4.6 0 011.65 1.19 5.1 5.1 0 011 1.83 7.17 7.17 0 01.35 2.33h-11.3a7.11 7.11 0 011.91-4.22zm-115.56 124.92h4v-12.64h12.07v-3.24h-12.07v-10.28h14.12v-3.25h-18.12v29.41zm23.06-20.79h3.65v20.78h-3.65zm3.68-8.38a2.39 2.39 0 00-.83-.56 2.42 2.42 0 00-1-.21 2.39 2.39 0 00-1 .21 2.63 2.63 0 00-1.38 1.4 2.52 2.52 0 00-.21 1 2.38 2.38 0 00.21 1 2.55 2.55 0 00.56.82 2.75 2.75 0 00.82.57 2.55 2.55 0 001 .2 2.59 2.59 0 001-.2 2.56 2.56 0 00.83-.57 2.78 2.78 0 00.58-.82 2.38 2.38 0 00.21-1 2.52 2.52 0 00-.21-1 2.74 2.74 0 00-.58-.84zm21.94 10.22a5.75 5.75 0 00-2.18-1.6 7.4 7.4 0 00-3-.57 7.83 7.83 0 00-3.87.93 11.58 11.58 0 00-3 2.42l-.28-2.26a.94.94 0 00-1-.76h-2.17v20.79h3.65v-15.31a10 10 0 012.59-2.11 6.16 6.16 0 013-.78 4 4 0 013.29 1.3 5.59 5.59 0 011.08 3.66v13.24h3.65v-13.24a10.9 10.9 0 00-.45-3.22 7.06 7.06 0 00-1.31-2.49zm7.7-1.84h3.65v20.78h-3.65zm3.69-8.38a2.53 2.53 0 00-.84-.56 2.49 2.49 0 00-2 0 2.66 2.66 0 00-.82.56 2.69 2.69 0 00-.56.84 2.52 2.52 0 00-.21 1 2.38 2.38 0 00.21 1 2.72 2.72 0 00.56.82 2.88 2.88 0 00.82.57 2.6 2.6 0 002 0 2.71 2.71 0 00.84-.57 2.75 2.75 0 00.57-.82 2.39 2.39 0 00.22-1 2.53 2.53 0 00-.22-1 2.71 2.71 0 00-.57-.84zm17.79 19.15a7 7 0 00-1.72-1q-1-.42-2-.75c-.68-.23-1.34-.44-2-.64a10.63 10.63 0 01-1.72-.68 3.94 3.94 0 01-1.22-.93 1.94 1.94 0 01-.46-1.33 2.59 2.59 0 01.27-1.18 3 3 0 01.8-1 4.15 4.15 0 011.26-.64 5.43 5.43 0 011.67-.24 6.27 6.27 0 011.84.24 10.15 10.15 0 011.35.51c.37.19.69.35 1 .5a1.44 1.44 0 00.7.23.82.82 0 00.76-.45l.82-1.33a8.62 8.62 0 00-2.82-1.78 10 10 0 00-3.69-.65 9.28 9.28 0 00-3.14.5 7 7 0 00-2.31 1.32 5.62 5.62 0 00-1.44 1.93 5.48 5.48 0 00-.49 2.29 5 5 0 00.46 2.26 4.65 4.65 0 001.22 1.57 6.86 6.86 0 001.73 1.06c.65.28 1.32.53 2 .75s1.34.43 2 .62a10 10 0 011.74.7 4 4 0 011.22 1 2.15 2.15 0 01.46 1.42 3.24 3.24 0 01-.26 1.32 2.85 2.85 0 01-.79 1.08 3.73 3.73 0 01-1.33.75 5.58 5.58 0 01-1.87.28 6.52 6.52 0 01-2.08-.29 6.9 6.9 0 01-1.41-.64c-.39-.23-.73-.44-1-.63a1.37 1.37 0 00-.78-.29 1.06 1.06 0 00-1 .56l-.87 1.39a10.1 10.1 0 003 1.82 10.55 10.55 0 003.94.7 10.14 10.14 0 003.36-.51 7.41 7.41 0 002.47-1.4 5.77 5.77 0 001.51-2.12 6.63 6.63 0 00.52-2.65 4.43 4.43 0 00-1.69-3.66zm21.95-8.93a5.75 5.75 0 00-2.18-1.6 7.43 7.43 0 00-3-.57 8 8 0 00-3.74.85 11.36 11.36 0 00-3 2.27v-12.23h-3.65v30.23h3.69v-15.31a10 10 0 012.59-2.11 6.16 6.16 0 013-.78 4 4 0 013.29 1.3 5.59 5.59 0 011.08 3.66v13.24h3.65v-13.24a10.9 10.9 0 00-.45-3.22 7.06 7.06 0 00-1.28-2.49zm21.7.26a7.92 7.92 0 00-2.73-1.8 9.28 9.28 0 00-3.45-.63 10.14 10.14 0 00-4.06.79 8.84 8.84 0 00-3.06 2.18 9.68 9.68 0 00-1.92 3.27 12.22 12.22 0 00-.66 4.06 14.17 14.17 0 00.73 4.76 9.76 9.76 0 002.07 3.48 8.55 8.55 0 003.13 2.13 10.55 10.55 0 004 .73 13.46 13.46 0 002.27-.19 12.84 12.84 0 002.23-.59 10.23 10.23 0 002-1 6.76 6.76 0 001.62-1.43l-1-1.33a.79.79 0 00-.69-.35 1.58 1.58 0 00-.83.32c-.32.21-.73.44-1.2.69a11.63 11.63 0 01-1.72.68 7.55 7.55 0 01-2.37.32 7 7 0 01-2.66-.48 5.43 5.43 0 01-2.06-1.46 7.11 7.11 0 01-1.35-2.43 11.18 11.18 0 01-.53-3.43h13.83a.75.75 0 00.69-.28 2.3 2.3 0 00.19-1.15 11.24 11.24 0 00-.65-3.95 8.32 8.32 0 00-1.82-2.91zm-12.15 6a7.17 7.17 0 011.89-4.24 6.32 6.32 0 016.39-1.11 4.6 4.6 0 011.65 1.19 5.28 5.28 0 011 1.83 7.45 7.45 0 01.34 2.33zm32.4-6a7.68 7.68 0 00-2.42-1.82 7.57 7.57 0 00-3.27-.65 8.12 8.12 0 00-6.59 3.12 10.3 10.3 0 00-1.78 3.44 14.33 14.33 0 00-.61 4.28 17 17 0 00.55 4.57 9.72 9.72 0 001.58 3.33 6.8 6.8 0 002.48 2 7.61 7.61 0 003.24.68 7.79 7.79 0 003.93-1 10.89 10.89 0 003-2.6l.33 2.53a.93.93 0 001 .76h2.18v-30.18h-3.65zm0 12.88a9.12 9.12 0 01-2.48 2.32 5.82 5.82 0 01-3.13.82 5.51 5.51 0 01-2.22-.4 4 4 0 01-1.66-1.37 6.44 6.44 0 01-1-2.38 15.09 15.09 0 01-.35-3.47 9.67 9.67 0 011.56-5.91 5.27 5.27 0 014.47-2.08 6.42 6.42 0 012.66.55 5.71 5.71 0 012.21 1.9zm147.91-163.53a13.21 13.21 0 004.63 2.95 17.75 17.75 0 0012 0 13.35 13.35 0 004.64-2.95 12.93 12.93 0 003-4.58 15.73 15.73 0 001.06-5.9v-11h-29.4v11a15.93 15.93 0 001 5.9 13.19 13.19 0 003.07 4.58zm-.82-17.48h23v7a11.29 11.29 0 01-.78 4.28 9 9 0 01-2.26 3.29 10.27 10.27 0 01-3.61 2.09 16.23 16.23 0 01-9.69 0 10.13 10.13 0 01-3.6-2.09 9 9 0 01-2.24-3.29 11.29 11.29 0 01-.78-4.28zm-3.32 37.03a12.84 12.84 0 00.59 2.23 10.23 10.23 0 001 2 7 7 0 001.43 1.62l1.33-1a.79.79 0 00.35-.69 1.53 1.53 0 00-.32-.83 11.94 11.94 0 01-.68-1.2 10.59 10.59 0 01-.69-1.72 7.85 7.85 0 01-.32-2.37 7 7 0 01.48-2.66 5.43 5.43 0 011.46-2.06 7.11 7.11 0 012.43-1.35 11.18 11.18 0 013.43-.53v13.83a.75.75 0 00.28.69 2.32 2.32 0 001.15.19 11.24 11.24 0 004-.65 8.32 8.32 0 002.92-1.79 7.92 7.92 0 001.8-2.73 9.28 9.28 0 00.63-3.45 10.14 10.14 0 00-.79-4.06 8.71 8.71 0 00-2.18-3.06 9.68 9.68 0 00-3.27-1.92 12.22 12.22 0 00-4.06-.66 14.21 14.21 0 00-4.76.73 9.85 9.85 0 00-3.48 2.07 8.59 8.59 0 00-2.13 3.14 10.47 10.47 0 00-.73 4 13.46 13.46 0 00.13 2.23zm12.75-8.45a7.23 7.23 0 014.24 1.89 6.32 6.32 0 011.11 6.39 4.6 4.6 0 01-1.19 1.65 5.28 5.28 0 01-1.83 1 7.45 7.45 0 01-2.33.34zm14.8 31.58a1.82 1.82 0 00.07.59.37.37 0 00.33.25l1.91.12a7 7 0 00.31-1.41 12.35 12.35 0 00.11-1.58 12.08 12.08 0 00-.64-4.14 8.16 8.16 0 00-1.78-3 7.33 7.33 0 00-2.74-1.79 9.85 9.85 0 00-3.5-.59h-1.15v-3.29h-1.5a.75.75 0 00-.62.28 1.73 1.73 0 00-.32.71l-.27 2.3h-17.66v3.67h17.72v8.78h-17.72V384h20.37v-12.55h1a5.82 5.82 0 014.53 1.65q1.52 1.65 1.51 5.28v1zm-7.27 17.53a11.58 11.58 0 00-2.42-3l2.26-.29a.92.92 0 00.76-1v-2.17h-20.78v3.65h15.3a10.23 10.23 0 012.12 2.59 6.26 6.26 0 01.77 3 4 4 0 01-1.3 3.29 5.59 5.59 0 01-3.66 1.08h-13.23v3.65h13.23a10.85 10.85 0 003.22-.45 7.06 7.06 0 002.49-1.32 5.75 5.75 0 001.6-2.18 7.43 7.43 0 00.57-3 7.8 7.8 0 00-.93-3.85zm-9.52 33a2.45 2.45 0 001.15.19 11.24 11.24 0 004-.65 8.19 8.19 0 002.92-1.8 7.79 7.79 0 001.8-2.72 9.28 9.28 0 00.63-3.45 10.1 10.1 0 00-.79-4.06 8.71 8.71 0 00-2.18-3.06 9.52 9.52 0 00-3.27-1.92 12.22 12.22 0 00-4.06-.67 14.2 14.2 0 00-4.76.74 9.83 9.83 0 00-3.48 2.06 8.67 8.67 0 00-2.13 3.14 10.5 10.5 0 00-.73 4 13.58 13.58 0 00.19 2.28 12.84 12.84 0 00.59 2.23 10.23 10.23 0 001 2 7 7 0 001.43 1.62l1.33-1a.79.79 0 00.35-.69 1.56 1.56 0 00-.32-.84 11.94 11.94 0 01-.68-1.2 10.83 10.83 0 01-.69-1.71 7.85 7.85 0 01-.32-2.37 7.13 7.13 0 01.48-2.67 5.48 5.48 0 011.46-2.05 7.11 7.11 0 012.43-1.35 11.18 11.18 0 013.43-.53v13.82a.77.77 0 00.22.66zm2-14.4a7.11 7.11 0 014.24 1.89 6.32 6.32 0 011.11 6.39 4.6 4.6 0 01-1.19 1.65 5.1 5.1 0 01-1.83 1 7.17 7.17 0 01-2.33.35zm7.84 29.97a7.52 7.52 0 00.65-3.26 8.12 8.12 0 00-3.12-6.59 10.3 10.3 0 00-3.44-1.78 14.31 14.31 0 00-4.27-.61 17.11 17.11 0 00-4.58.55 9.49 9.49 0 00-3.32 1.58 6.6 6.6 0 00-2 2.48 7.47 7.47 0 00-.69 3.24 7.79 7.79 0 001 3.93 10.89 10.89 0 002.6 3.05l-2.53.33a.92.92 0 00-.75 1v2.18h30.22v-3.65h-11.53a7.84 7.84 0 001.76-2.45zm-2.75.22a5.77 5.77 0 01-1.89 2.21h-10.06a9.12 9.12 0 01-2.32-2.48 5.94 5.94 0 01-.82-3.13 5.68 5.68 0 01.43-2.25 4 4 0 011.37-1.66 6.44 6.44 0 012.38-1 15.12 15.12 0 013.46-.42 9.66 9.66 0 015.9 1.56 5.24 5.24 0 012.08 4.47 6.27 6.27 0 01-.53 2.7z" fill="#222226"/></g></svg>