<svg id="a3dc2ab1-e3ad-408a-9a31-ab1c3454e8d5" data-name="Layer 1" xmlns="http://www.w3.org/2000/svg" width="256" height="256" viewBox="0 0 256 256">
  <defs>
    <style>
      .a971b46d-3458-4e44-9ef4-a876fc6bc546 {
        fill: #1998ff;
      }
    </style>
  </defs>
  <g>
    <path class="a971b46d-3458-4e44-9ef4-a876fc6bc546" d="M192.12,2.09H54.2a33,33,0,0,0-33,33V221a33,33,0,0,0,33,33H169.45A47.93,47.93,0,0,1,201.11,170a49.94,49.94,0,0,1,13.55,2.16l10.44,4.32V35.07a33,33,0,0,0-33-33Zm-122.93,48h48a12,12,0,1,1,0,24h-48a12,12,0,0,1,0-24Zm60,119.93h-60a12,12,0,1,1,0-24h60a12,12,0,0,1,0,24Zm48-48H69.19a12,12,0,0,1,0-24H177.13a12,12,0,1,1,0,24Z"/>
    <circle class="a971b46d-3458-4e44-9ef4-a876fc6bc546" cx="202.4" cy="217.4" r="32.37"/>
  </g>
</svg>
