<svg id="f1228957-b1de-48a3-94f2-2f8dd8b6e8e3" data-name="Layer 1" xmlns="http://www.w3.org/2000/svg" width="256" height="256" viewBox="0 0 256 256">
  <defs>
    <style>
      .b1a7a103-e669-456e-ac66-e25662a61086 {
        fill: #1998ff;
      }
    </style>
  </defs>
  <g>
    <path class="b1a7a103-e669-456e-ac66-e25662a61086" d="M26,167.3l144.88-145A7.88,7.88,0,0,1,176.48,20h0a7.88,7.88,0,0,1,5.61,2.33l51.33,51.33a7.93,7.93,0,0,1,0,11.23l-145,144.9Z"/>
    <path class="b1a7a103-e669-456e-ac66-e25662a61086" d="M239.13,64.35l5.21-5.22a33.62,33.62,0,0,0,0-47.71c-12.72-12.85-35.08-12.84-47.77,0l-5.22,5.22Z"/>
    <path class="b1a7a103-e669-456e-ac66-e25662a61086" d="M21.68,178,.62,245.16A8,8,0,0,0,8.2,255.47a8.18,8.18,0,0,0,2.38-.36L77.76,234Z"/>
    <path class="b1a7a103-e669-456e-ac66-e25662a61086" d="M74,94.46a7.84,7.84,0,0,0,5.61-2.33l51.25-51.25a12.61,12.61,0,0,1,10-3.54l12.53-12.55a28.63,28.63,0,0,0-33.75,4.86L68.41,80.9A7.95,7.95,0,0,0,74,94.46Z"/>
  </g>
</svg>
