<?xml version="1.0" encoding="utf-8"?>
<!-- Generator: Adobe Illustrator 24.3.0, SVG Export Plug-In . SVG Version: 6.00 Build 0)  -->
<svg version="1.1" id="Layer_1" xmlns="http://www.w3.org/2000/svg" xmlns:xlink="http://www.w3.org/1999/xlink" x="0px" y="0px"
	 viewBox="0 0 512 512" style="enable-background:new 0 0 512 512;" xml:space="preserve">
<style type="text/css">
	.st0{fill:#1998FF;}
</style>
<g>
	<path class="st0" d="M346.9,153.8H165c-8.3,0-15,6.7-15,15v174.8c0,8.3,6.7,15,15,15h181.9c8.3,0,15-6.7,15-15V168.8
		C361.9,160.5,355.2,153.8,346.9,153.8L346.9,153.8z M271.7,183.8v25.3h-31.4v-25.3H271.7z M331.9,328.6H180V183.8h30.3v40.3
		c0,8.3,6.7,15,15,15h61.4c8.3,0,15-6.7,15-15v-40.3h30.3L331.9,328.6z"/>
	<path class="st0" d="M230.6,61.3L241,51.1v56.6c0,8.3,6.7,15,15,15c8.3,0,15-6.7,15-15V51.2l10.5,10.1c15.4,13.5,34-8.1,20.9-21.5
		L267.2,5.7c-4.8-5.6-15-7.1-21.8-0.8l-35.8,34.9C195.8,54.8,216.6,74,230.6,61.3L230.6,61.3z"/>
	<path class="st0" d="M281.4,450.7L271,460.9v-56.6c0-8.3-6.7-15-15-15s-15,6.7-15,15v56.6l-10.5-10.1c-15.4-13.4-34,7.9-20.9,21.5
		l35.1,34.1c4.8,5.6,15,7.1,21.8,0.8l35.8-34.9C316.2,457.2,295.4,438,281.4,450.7L281.4,450.7z"/>
	<path class="st0" d="M60.2,306.6c5.9-5.8,6.1-15.3,0.3-21.2l-10.2-10.4H107c8.3,0,15-6.7,15-15s-6.7-15-15-15H50.4l10.1-10.5
		c13.4-15.4-7.9-34-21.5-20.9L4.9,248.7c-5.6,4.8-7.1,15-0.8,21.8L39,306.3C44.1,311.3,53.6,312.8,60.2,306.6z"/>
	<path class="st0" d="M511.9,261.2c0.3-3.5-0.7-7.9-4.2-11.9l-34.9-35.8c-15-13.8-34.2,7-21.5,20.9l10.2,10.4h-56.6
		c-8.3,0-15,6.7-15,15c0,8.3,6.7,15,15,15h56.6l-10.1,10.5c-13,14.7,7,34.4,21.5,20.9l34.1-35.1
		C509.7,268.6,511.6,265.1,511.9,261.2L511.9,261.2z"/>
	<path class="st0" d="M392.3,139.5c3.8,0,7.7-1.5,10.6-4.4l40-40l0.2,14.6c1.5,20.6,29.7,18.3,30-0.5l-0.7-48.9
		c0.6-7-5.6-15.8-14.8-16l-50-0.6c-20.6,0.9-19.1,29.2-0.4,30l14.6,0.2l-40,40c-5.9,5.9-5.9,15.4,0,21.2
		C384.6,138.1,388.4,139.5,392.3,139.5L392.3,139.5z"/>
	<path class="st0" d="M109.9,385.7l-40,40l-0.2-14.6c-1.5-20.6-29.7-18.3-30,0.5l0.7,48.9c-0.6,7,5.6,15.8,14.8,16l50,0.6
		c20.6-0.9,19.1-29.2,0.4-30L91,447l40-40c5.9-5.9,5.9-15.4,0-21.2C125.2,379.9,115.7,379.9,109.9,385.7z"/>
	<path class="st0" d="M91.8,73.5l14.6-0.2c20.6-1.6,18.3-29.7-0.5-30l-49,0.7c-7-0.6-15.8,5.6-15.9,14.8l-0.6,50
		c1,20.6,29.2,19.1,30,0.4l0.2-14.6l40,40c2.9,2.9,6.8,4.4,10.6,4.4s7.7-1.5,10.6-4.4c5.9-5.9,5.9-15.4,0-21.2L91.8,73.5z"/>
	<path class="st0" d="M459,396c-7.5-0.2-15,6.5-15.2,14.8l-0.2,14.6l-40-40c-5.9-5.9-15.4-5.9-21.2,0s-5.9,15.4,0,21.2l40,40
		l-14.6,0.2c-20.6,1.6-18.3,29.7,0.5,30l48.9-0.7c7.1,0.7,15.8-5.6,16-14.8l0.6-50C473.9,402.9,467.3,396.1,459,396L459,396z"/>
</g>
</svg>
