<?xml version="1.0" encoding="utf-8"?>
<!-- Generator: Adobe Illustrator 24.3.0, SVG Export Plug-In . SVG Version: 6.00 Build 0)  -->
<svg version="1.1" id="Capa_1" xmlns="http://www.w3.org/2000/svg" xmlns:xlink="http://www.w3.org/1999/xlink" x="0px" y="0px"
	 viewBox="0 0 512 512" style="enable-background:new 0 0 512 512;" xml:space="preserve">
<style type="text/css">
	.st0{fill:#1998FF;}
</style>
<g>
	<path class="st0" d="M512,211v-30h-91v-60h-30V91h-60V0h-30v91h-30V0h-30v91h-30V0h-30v91h-60v30H91v60H0v30h91v30H0v30h91v30H0v30
		h91v60h30v30h60v91h30v-91h30v91h30v-91h30v91h30v-91h60v-30h30v-60h91v-30h-91v-30h91v-30h-91v-30H512z M361,361H151V151h210V361z
		"/>
	<path class="st0" d="M181,181h150v150H181V181z"/>
</g>
</svg>
