<svg id="a9da51cd-b3ab-45c5-8153-6f3d4027950a" data-name="Layer 1" xmlns="http://www.w3.org/2000/svg" width="256" height="256" viewBox="0 0 256 256">
  <defs>
    <style>
      .e693f1a2-d737-4758-bdd8-20e14bd20cec {
        fill: #1998ff;
      }
    </style>
  </defs>
  <g>
    <path class="e693f1a2-d737-4758-bdd8-20e14bd20cec" d="M166.06,63.17A85.51,85.51,0,0,0,89.29,15.28c-47.4,0-86,38.34-86,85.47a84.49,84.49,0,0,0,8.18,36.53l-8,40.18a7.33,7.33,0,0,0,8.61,8.62l40.67-8a84.65,84.65,0,0,0,17,5.94C56.67,122.17,103.51,64.16,166.06,63.17Z"/>
    <path class="e693f1a2-d737-4758-bdd8-20e14bd20cec" d="M245.22,199.8a87,87,0,0,0,3.67-9.05h-.27c18.29-53.68-20.18-110.1-77-112.85h0a85.47,85.47,0,1,0-4.11,170.85A84.62,84.62,0,0,0,204,240.56c44.55,8.8,41.07,8.18,42.1,8.18a7.33,7.33,0,0,0,7.18-8.77Z"/>
  </g>
</svg>
