<?xml version="1.0" encoding="utf-8"?>
<!-- Generator: Adobe Illustrator 24.3.0, SVG Export Plug-In . SVG Version: 6.00 Build 0)  -->
<svg version="1.1" id="Capa_1" xmlns="http://www.w3.org/2000/svg" xmlns:xlink="http://www.w3.org/1999/xlink" x="0px" y="0px"
	 viewBox="0 0 31.1 31.1" style="enable-background:new 0 0 31.1 31.1;" xml:space="preserve">
<style type="text/css">
	.st0{fill:#1998FF;}
</style>
<g>
	<g>
		<path class="st0" d="M18.4,20.9l2.8-2.8c6.2-6.2,7.4-12.6,7.6-15c0-0.3-0.1-0.5-0.3-0.7c-0.2-0.2-0.4-0.3-0.7-0.3
			C25.4,2.3,19,3.3,12.7,9.6l-2.8,2.8l-0.9-0.2c-1.7-0.3-3.4,0.2-4.6,1.4l-3.3,3.3C1,17.1,0.9,17.4,1,17.7c0.1,0.3,0.3,0.5,0.6,0.5
			l2.8,0.6c0.8,0.2,1.5,0.5,2.1,1.1l1.2,1.2L6,22.7c-0.3,0.3-0.3,0.8,0,1.1l1,1c0.3,0.3,0.8,0.3,1.1,0l1.6-1.6l1.2,1.2
			c0.6,0.6,1,1.3,1.1,2.1l0.6,2.8c0.1,0.3,0.3,0.5,0.5,0.6c0.3,0.1,0.6,0,0.8-0.2l3.3-3.3c1.2-1.2,1.7-2.9,1.4-4.6L18.4,20.9z
			 M18.6,12.2c-1-1-1-2.7,0-3.7c1-1,2.7-1,3.7,0c1,1,1,2.7,0,3.7C21.2,13.3,19.6,13.3,18.6,12.2z"/>
	</g>
</g>
</svg>
