<?xml version="1.0" encoding="utf-8"?>
<!-- Generator: Adobe Illustrator 24.3.0, SVG Export Plug-In . SVG Version: 6.00 Build 0)  -->
<svg version="1.1" id="Capa_1" xmlns="http://www.w3.org/2000/svg" xmlns:xlink="http://www.w3.org/1999/xlink" x="0px" y="0px"
	 viewBox="0 0 284.2 284.2" style="enable-background:new 0 0 284.2 284.2;" xml:space="preserve">
<style type="text/css">
	.st0{fill:#1998FF;}
</style>
<path class="st0" d="M239.6,45.4c0-25.9-41.9-45.4-97.5-45.4S44.6,19.5,44.6,45.4v47.9c0,6.2,2.4,12.1,6.9,17.4
	c-3.8,0.3-6.9,3.5-6.9,7.5V166c0,6.2,2.4,12.1,6.9,17.4c-3.8,0.3-6.9,3.5-6.9,7.5v47.9c0,25.9,41.9,45.4,97.5,45.4
	s97.5-19.5,97.5-45.4v-47.9c0-3.9-3-7.1-6.9-7.5c4.4-5.3,6.9-11.1,6.9-17.4v-47.9c0-3.9-3-7.1-6.9-7.5c4.4-5.3,6.9-11.1,6.9-17.4
	V45.4z M224.6,191c-0.1,14.4-35.4,30.4-82.5,30.4s-82.4-16-82.5-30.4c17,12.5,46.9,20.5,82.5,20.5S207.6,203.5,224.6,191z
	 M224.6,118.2c-0.1,14.4-35.4,30.4-82.5,30.4s-82.4-16-82.5-30.4c17,12.5,46.9,20.5,82.5,20.5S207.6,130.8,224.6,118.2z M142.1,15
	c47.2,0,82.5,16.1,82.5,30.4s-35.3,30.4-82.5,30.4S59.6,59.8,59.6,45.4S94.9,15,142.1,15z"/>
</svg>
