<?xml version="1.0" encoding="utf-8"?>
<!-- Generator: Adobe Illustrator 24.3.0, SVG Export Plug-In . SVG Version: 6.00 Build 0)  -->
<svg version="1.1" id="Capa_1" xmlns="http://www.w3.org/2000/svg" xmlns:xlink="http://www.w3.org/1999/xlink" x="0px" y="0px"
	 viewBox="0 0 512 512" style="enable-background:new 0 0 512 512;" xml:space="preserve">
<style type="text/css">
	.st0{fill:#1998FF;}
</style>
<g>
	<path class="st0" d="M250.7,240c3.3,1.2,7,1.3,10.5,0L451,168.9v164c4.8-1.2,9.8-1.9,15-1.9c5.2,0,10.2,0.7,15,1.9V157.6l21.3-7.6
		c12.9-4.9,12.9-23.2,0-28.1l-241-90c-3.4-1.3-7.1-1.3-10.5,0l-241,90c-12.9,4.9-12.9,23.2,0,28.1L250.7,240z"/>
	<path class="st0" d="M466,361c-25.7,0-45,32.2-45,75v30c0,8.3,6.7,15,15,15h60c8.3,0,15-6.7,15-15v-30C511,393.3,491.7,361,466,361
		z"/>
	<path class="st0" d="M411.2,215.9l-139.4,52.3c-10.4,3.9-21.5,3.8-31.5,0l-139.5-52.3c-12.5,45.9-9.3,76-9.9,85.1
		c0,10.6,10.8,17.9,20.6,13.9c0.4-0.1,35.4-13.9,69.5-13.9c31.7,0,65.3,26.5,65.7,26.7c5.4,4.3,13.2,4.4,18.7,0
		c9.3-7.4,39.2-26.7,65.6-26.7c34,0,69.1,13.8,69.5,13.9c9.7,3.9,20.6-3.3,20.6-13.9C420.5,292.2,423.6,261.5,411.2,215.9
		L411.2,215.9z"/>
</g>
</svg>
