<?xml version="1.0" encoding="UTF-8" standalone="no"?>
<!DOCTYPE svg PUBLIC "-//W3C//DTD SVG 1.1//EN" "http://www.w3.org/Graphics/SVG/1.1/DTD/svg11.dtd">
<!-- Generated by graphviz version 2.40.1 (20161225.0304)
 -->
<!-- Title: G Pages: 1 -->
<svg width="301pt" height="51pt" viewBox="0.00 0.00 300.81 50.64" xmlns="http://www.w3.org/2000/svg" xmlns:xlink="http://www.w3.org/1999/xlink">
<g id="graph0" class="graph" transform="scale(1 1) rotate(0) translate(4 46.6358)">
<title>G</title>
<polygon fill="#ffffff" stroke="transparent" points="-4,4 -4,-46.6358 296.8054,-46.6358 296.8054,4 -4,4"/>
<!-- Idle -->
<g id="node1" class="node">
<title>Idle</title>
<ellipse fill="none" stroke="#000000" cx="27" cy="-24.6358" rx="27" ry="18"/>
<text text-anchor="middle" x="27" y="-20.4358" font-family="Times,serif" font-size="14.00" fill="#000000">Idle</text>
</g>
<!-- WateringPlant -->
<g id="node2" class="node">
<title>WateringPlant</title>
<ellipse fill="none" stroke="#000000" cx="225.9904" cy="-24.6358" rx="66.6306" ry="18"/>
<text text-anchor="middle" x="225.9904" y="-20.4358" font-family="Times,serif" font-size="14.00" fill="#000000">WateringPlant</text>
</g>
<!-- Idle&#45;&gt;WateringPlant -->
<g id="edge1" class="edge">
<title>Idle-&gt;WateringPlant</title>
<path fill="none" stroke="#000000" d="M54.2515,-24.6358C78.5603,-24.6358 115.352,-24.6358 148.6543,-24.6358"/>
<polygon fill="#000000" stroke="#000000" points="148.8598,-28.1359 158.8598,-24.6358 148.8597,-21.1359 148.8598,-28.1359"/>
<text text-anchor="middle" x="106.5877" y="-28.8358" font-family="Times,serif" font-size="14.00" fill="#000000">NeedsWater</text>
</g>
<!-- WateringPlant&#45;&gt;Idle -->
<g id="edge2" class="edge">
<title>WateringPlant-&gt;Idle</title>
<path fill="none" stroke="#000000" d="M182.8438,-10.7826C151.787,-2.7545 109.0183,4.3057 72,-3.8358 67.1089,-4.9115 62.1164,-6.5728 57.3213,-8.4979"/>
<polygon fill="#000000" stroke="#000000" points="55.5617,-5.4501 47.8516,-12.7168 58.4105,-11.8442 55.5617,-5.4501"/>
<text text-anchor="middle" x="106.5877" y="-7.8358" font-family="Times,serif" font-size="14.00" fill="#000000">HasWater</text>
</g>
</g>
</svg>