<?xml version="1.0" encoding="utf-8"?>
<!-- Generator: Adobe Illustrator 25.2.1, SVG Export Plug-In . SVG Version: 6.00 Build 0)  -->
<svg version="1.1" id="f4636250-6d13-4c4b-b478-624f82329a8d"
	 xmlns="http://www.w3.org/2000/svg" xmlns:xlink="http://www.w3.org/1999/xlink" x="0px" y="0px" viewBox="0 0 153.8 32"
	 style="enable-background:new 0 0 153.8 32;" xml:space="preserve">
<style type="text/css">
	.st0{fill:#181D27;}
	.st1{fill:#1998FF;}
</style>
<g>
	<g>
		<path class="st0" d="M68.4,10.1h-2.5V7.6c0-0.1-0.1-0.2-0.2-0.2h-2.6c-0.1,0-0.2,0.1-0.2,0.2v2.5h-1.5c-0.1,0-0.2,0.1-0.2,0.2v2.4
			c0,0.1,0.1,0.2,0.2,0.2h1.5v5c0,4.1,3.3,4.6,5,4.6c0,0,0.3,0,0.5,0c0.1,0,0.2-0.1,0.2-0.2v-2.4c0-0.1-0.1-0.2-0.2-0.2
			c-0.2,0-0.4,0-0.5,0c-0.9,0-2-0.5-2-2.3v-4.6h2.5c0.1,0,0.2-0.1,0.2-0.2v-2.4C68.6,10.2,68.5,10.1,68.4,10.1z"/>
	</g>
	<g>
		<path class="st0" d="M44.7,6.9c0-0.1-0.1-0.1-0.2-0.1h-3c-0.1,0-0.1,0.1-0.2,0.1l-5.9,15.3c0,0.1,0,0.2,0.2,0.2h2.9
			c0.1,0,0.1-0.1,0.2-0.1l0.9-2.6h6.9l0.9,2.6c0,0.1,0.1,0.1,0.2,0.1h2.9c0.1,0,0.2-0.1,0.2-0.2L44.7,6.9z M40.5,16.9L43,9.6l0,0
			l2.5,7.3H40.5z"/>
	</g>
	<g>
		<path class="st0" d="M60,18.6c-0.1-0.1-0.2-0.1-0.3-0.1c-0.4,0.4-1.8,1.4-3.4,1.4c-2.3,0-3.8-1.8-3.8-3.8c0-2.1,1.5-3.8,3.7-3.8
			c1.5,0,2.6,0.8,3,1.2c0.1,0.1,0.2,0.1,0.3,0l1.1-1.8c0-0.1,0-0.2,0-0.2c-0.4-0.4-1.9-1.7-4.6-1.7c-4,0-6.6,2.9-6.6,6.4
			s2.6,6.4,6.6,6.4c2.8,0,4.5-1.5,4.9-1.9c0.1-0.1,0.1-0.1,0-0.2L60,18.6z"/>
	</g>
	<g>
		<path class="st0" d="M92,22.1l-3.9-6l3.7-5.8c0.1-0.1,0-0.3-0.2-0.3h-3c-0.1,0-0.1,0-0.2,0.1l-1.8,3.2c-0.2,0.3-0.4,0.8-0.4,0.8
			h0.1c0,0-0.2-0.4-0.4-0.8L84,10.1c0-0.1-0.1-0.1-0.2-0.1h-2.3h-1h-2.2c-0.1,0-0.1,0.1-0.2,0.1l-2.4,7c-0.2,0.6-0.4,1.2-0.4,1.2
			s-0.2-0.6-0.4-1.2l-2.5-6.9c0-0.1-0.1-0.1-0.2-0.1h-3c-0.1,0-0.2,0.1-0.2,0.3l5,12L73.8,23c-0.4,1.1-1.4,1.8-2.3,1.8
			c0,0-1,0-1.4,0c-0.1,0-0.2,0.1-0.2,0.2v2.4c0,0.1,0.1,0.2,0.2,0.2c0.4,0,1.5,0,1.6,0c1.8,0,3.6-1.2,4.4-3.4l5.1-13.1l3.3,5.1
			l-3.9,6c-0.1,0.1,0,0.3,0.1,0.3h2.9c0.1,0,0.1,0,0.2-0.1l2.2-3.6c0.2-0.3,0.3-0.7,0.3-0.7l0,0c0,0,0.2,0.4,0.3,0.7l2.1,3.6
			c0,0.1,0.1,0.1,0.2,0.1h2.9C92,22.4,92.1,22.2,92,22.1z"/>
	</g>
</g>
<g>
	<path class="st0" d="M24.6,21V8.9c0-0.1,0-0.1-0.1-0.2l-10.4-6c0,0-0.1,0-0.2,0l-10.2,6C3.6,8.8,3.6,8.9,3.7,9l5,2.9l5.2-3
		c0,0,0.1,0,0.2,0l5.1,2.9c0,0,0.1,0.1,0.1,0.2v6l0,0l-2.8,1.6L14.1,21c0,0-0.1,0-0.2,0l-5.1-3c0,0-0.1-0.1-0.1-0.2v-6l-5.2,3
		c0,0-0.1,0.1-0.1,0.2v5.9c0,0.1,0,0.1,0.1,0.2l10.4,6c0,0,0.1,0,0.2,0l5.2-3l2.4,1.4c0,0,0.1,0,0.2,0l4.9-2.8
		c0.1-0.1,0.1-0.2,0-0.3L24.6,21z"/>
</g>
<g>
	<path class="st1" d="M102.6,6.5h-5.4v16.1h5.4c5.1,0,8.2-3.1,8.2-8.1C110.8,9.5,107.6,6.5,102.6,6.5z M102.4,20.3h-2.6V8.7h2.6
		c3.5,0,5.6,2.2,5.6,5.8S105.9,20.3,102.4,20.3z"/>
	<path class="st1" d="M117.8,10.8c-3.6,0-6.3,2.6-6.3,6s2.7,6,6.3,6s6.3-2.6,6.3-6C124.1,13.4,121.4,10.8,117.8,10.8z M117.8,20.6
		c-2.1,0-3.7-1.6-3.7-3.8s1.6-3.8,3.7-3.8c2.1,0,3.6,1.6,3.6,3.8S119.9,20.6,117.8,20.6z"/>
	<path class="st1" d="M131.1,20.6c-2.2,0-3.8-1.7-3.8-3.8c0-2.2,1.6-3.8,3.7-3.8c1.6,0,2.7,0.9,3,1.2l1.1-1.8
		c-0.3-0.3-1.8-1.6-4.3-1.6c-3.6,0-6.2,2.5-6.2,6s2.6,6,6.2,6c2.5,0,4.1-1.2,4.6-1.7l0.1-0.1l-1-1.8
		C134.1,19.6,132.7,20.6,131.1,20.6z"/>
	<path class="st1" d="M144.4,19.5c0-2.2-2-3-3.6-3.6c-1.1-0.5-2.1-0.8-2.1-1.6s0.8-1.2,1.7-1.2c1.5,0,2.5,0.6,2.8,0.9l1-1.9
		c-0.3-0.3-1.6-1.2-3.8-1.2c-2.6,0-4.4,1.3-4.4,3.3c0,2.2,2,3,3.6,3.6c1.2,0.5,2.2,0.9,2.2,1.7c0,0.7-0.7,1.2-1.7,1.2
		c-1.6,0-2.8-0.9-3.2-1.2l-1,1.6v0.1l-0.1,0.1c0,0,0,0-0.1,0.1c0.4,0.4,1.9,1.6,4.4,1.6C142.6,22.8,144.4,21.4,144.4,19.5z"/>
	<path class="st1" d="M135.8,21.1L135.8,21.1l-0.2,0.1l0,0C135.7,21.2,135.8,21.2,135.8,21.1L135.8,21.1z"/>
</g>
</svg>
