<?xml version="1.0" encoding="utf-8"?>
<!-- Generator: Adobe Illustrator 25.1.0, SVG Export Plug-In . SVG Version: 6.00 Build 0)  -->
<svg version="1.1" id="aa6f859d-2cdf-4b9b-a7fa-9d3c75b2ea22"
	 xmlns="http://www.w3.org/2000/svg" xmlns:xlink="http://www.w3.org/1999/xlink" x="0px" y="0px" viewBox="0 0 2805.1 454.4"
	 style="enable-background:new 0 0 2805.1 454.4;" xml:space="preserve">
<style type="text/css">
	.st0{fill:#14191C;}
	.st1{fill:#1998FF;}
</style>
<g>
	<path class="st0" d="M607.7,138.5h-35.8v-35.1c0-1.4-1.1-2.6-2.6-2.6h-37c-1.4,0-2.6,1.1-2.6,2.6v35.1H509c-1.4,0-2.6,1.1-2.6,2.6
		v33.5c0,1.4,1.1,2.6,2.6,2.6h20.8v71.4c0,58,46.9,64.7,71,64.7c0,0,4,0,6.7,0c1.4,0,2.6-1.1,2.6-2.6v-33.6c0-1.4-1.1-2.6-2.6-2.6
		c-2.4,0-5.8,0-6.8,0c-12.3,0.2-28.8-7.4-28.8-32v-65.4h35.8c1.4,0,2.6-1.1,2.6-2.6V141C610.3,139.6,609.1,138.5,607.7,138.5z"/>
	<path class="st0" d="M270.3,92.8c-0.4-1-1.3-1.6-2.4-1.6h-43c-1.1,0-2,0.7-2.4,1.6l-83.3,216.9c-0.6,1.7,0.6,3.5,2.4,3.5h40.6
		c1.1,0,2.1-0.7,2.4-1.7l12.7-37h98.1l12.7,37c0.4,1,1.3,1.7,2.4,1.7h41.1c1.8,0,3-1.8,2.4-3.5L270.3,92.8z M210.7,235.3l35.4-103.5
		h0.5l35.5,103.5H210.7z"/>
	<path class="st0" d="M487.5,260c-0.8-1.4-2.7-1.8-3.9-0.7c-6.4,5.6-25,19.9-48.5,19.9c-32.9,0-53.9-25.1-53.9-54.3
		c0-29.5,20.7-53.6,52.6-53.6c21.6,0,37.4,11.8,42.9,16.6c1.2,1,3,0.8,3.8-0.6l16.3-25.3c0.6-1,0.5-2.3-0.3-3.2
		c-5.4-5.5-26.6-24.3-65.1-24.3c-57.3,0-94,41.4-94,90.6c0,50.2,36.6,90.6,94,90.6c40.2,0,64.2-21.1,69.9-26.8c0.8-0.8,1-2,0.4-3
		L487.5,260z"/>
	<path class="st0" d="M942.9,309.3l-55-85.1l53.2-81.8c1.1-1.7-0.1-4-2.2-4h-42.6c-0.9,0-1.8,0.5-2.2,1.3l-26.2,46.1
		c-2.7,4.4-5.8,10.9-5.8,10.9h-0.7c0,0-3.1-6.4-5.8-10.9l-26.4-46.1c-0.5-0.8-1.3-1.3-2.2-1.3h-33.1h-14h-31.4
		c-1.1,0-2.1,0.7-2.4,1.7l-33.5,99.3c-3,9-5.6,16.5-5.7,16.8c-0.1-0.4-3.1-8.5-6.4-17.5l-36.3-98.7c-0.4-1-1.3-1.7-2.4-1.7h-43.3
		c-1.8,0-3.1,1.9-2.4,3.6l71.4,171.2l-3.1,9.1c-5.2,15.5-20.5,25.1-32.4,25.1c0,0-14.3,0-20.2,0c-1.4,0-2.6,1.1-2.6,2.6v33.6
		c0,1.4,1.1,2.6,2.6,2.6c6.2,0,21.4,0,22.1,0c26.1,0,50.5-16.4,62.7-47.9l72-186.3l46.9,72.2l-56.1,85.1c-1.1,1.7,0.1,4,2.1,4h41.6
		c0.9,0,1.7-0.5,2.2-1.2l31.1-50.5c2.4-3.7,4.7-9.2,4.7-9.2h0.7c0,0,2.4,5.4,4.7,9.2l30,50.5c0.5,0.8,1.3,1.3,2.2,1.3h41.7
		C942.7,313.2,944,311,942.9,309.3z"/>
</g>
<g>
	<path class="st1" d="M1029,88.6h82.5c74.7,0,123.4,35.6,123.4,112s-48.8,112.6-123.4,112.6H1029V88.6z M1109.1,275.4
		c49.1,0,80.5-20.2,80.5-74.8c0-53.9-32-74.1-80.5-74.1H1073v148.9H1109.1z"/>
	<path class="st1" d="M1333.4,135.3c50.1,0,77.1,36.5,77.1,82.5c0,5.1-1,16.7-1,16.7h-120c2.7,30.3,26.3,46,52.2,46
		c28,0,50.1-19.1,50.1-19.1l16.7,31c0,0-26.6,24.9-69.9,24.9c-57.6,0-93.4-41.6-93.4-91C1245.1,172.8,1281.6,135.3,1333.4,135.3z
		 M1366.8,204.8c-0.7-23.5-15.3-36.1-34.4-36.1c-22.2,0-37.5,13.6-41.6,36.1H1366.8z"/>
	<path class="st1" d="M1405.8,139.4h45.7l36.1,107.7c3.4,10.2,5.8,26.3,6.1,26.3h0.7c0.3,0,2.7-16,6.1-26.3l36.1-107.7h45.7
		L1520,313.2h-51.1L1405.8,139.4z"/>
	<path class="st1" d="M1666,135.3c50.1,0,77.1,36.5,77.1,82.5c0,5.1-1,16.7-1,16.7h-120c2.7,30.3,26.3,46,52.2,46
		c28,0,50.1-19.1,50.1-19.1l16.7,31c0,0-26.6,24.9-69.9,24.9c-57.6,0-93.4-41.6-93.4-91C1577.7,172.8,1614.2,135.3,1666,135.3z
		 M1699.4,204.8c-0.7-23.5-15.3-36.1-34.4-36.1c-22.2,0-37.5,13.6-41.6,36.1H1699.4z"/>
	<path class="st1" d="M1763.5,71.2h43v181.4c0,19.1,6.5,23.9,17.7,23.9c3.4,0,6.5-0.3,6.5-0.3v37.8c0,0-6.5,1-13.6,1
		c-23.9,0-53.5-6.1-53.5-55.9V71.2z"/>
	<path class="st1" d="M1931.4,135.3c53.2,0,95.8,37.8,95.8,91c0,53.5-42.6,91-95.5,91c-53.2,0-95.8-37.5-95.8-91
		C1835.9,173.1,1878.6,135.3,1931.4,135.3z M1931.7,280.5c28,0,51.5-21.8,51.5-54.2c0-32-23.5-54.2-51.5-54.2
		c-28.3,0-51.8,22.2-51.8,54.2C1879.9,258.7,1903.5,280.5,1931.7,280.5z"/>
	<path class="st1" d="M2045.4,139.4h39.5V152c0,6.5-0.7,11.9-0.7,11.9h0.7c0,0,15-28.6,55.9-28.6c47,0,77.1,37.2,77.1,91
		c0,55.2-33.8,91-79.4,91c-34.4,0-49.8-23.9-49.8-23.9h-0.7c0,0,0.7,6.1,0.7,15v73h-43.3V139.4z M2130.6,280.9
		c23.9,0,43.6-19.4,43.6-53.9c0-33.1-17.7-54.5-43.3-54.5c-22.5,0-43.6,16.4-43.6,54.9C2087.3,254.3,2102,280.9,2130.6,280.9z"/>
	<path class="st1" d="M2323.6,135.3c50.1,0,77.1,36.5,77.1,82.5c0,5.1-1,16.7-1,16.7h-120c2.7,30.3,26.3,46,52.2,46
		c28,0,50.1-19.1,50.1-19.1l16.7,31c0,0-26.6,24.9-69.9,24.9c-57.6,0-93.4-41.6-93.4-91C2235.3,172.8,2271.7,135.3,2323.6,135.3z
		 M2357,204.8c-0.7-23.5-15.3-36.1-34.4-36.1c-22.2,0-37.5,13.6-41.6,36.1H2357z"/>
	<path class="st1" d="M2421.3,139.4h41.6v30c0,6.5-0.7,12.3-0.7,12.3h0.7c7.8-24.9,28.6-44.7,55.2-44.7c4.1,0,7.8,0.7,7.8,0.7v42.6
		c0,0-4.4-0.7-10.2-0.7c-18.4,0-39.2,10.6-47.4,36.5c-2.7,8.5-3.8,18.1-3.8,28.3v68.9h-43.3V139.4z"/>
	<path class="st1" d="M2555.8,261.4c0,0,19.1,19.1,47.4,19.1c12.3,0,22.8-5.5,22.8-15.7c0-25.9-84.6-22.5-84.6-78.4
		c0-32.4,29-51.1,66.5-51.1c39.2,0,58.3,19.8,58.3,19.8l-16,32c0,0-16-15-42.6-15c-11.3,0-22.2,4.8-22.2,15.7
		c0,24.5,84.6,21.5,84.6,77.4c0,29-25.2,52.2-66.5,52.2c-43.3,0-67.5-25.6-67.5-25.6L2555.8,261.4z"/>
</g>
</svg>
