<svg id="f4636250-6d13-4c4b-b478-624f82329a8d" data-name="aa6f859d-2cdf-4b9b-a7fa-9d3c75b2ea22" xmlns="http://www.w3.org/2000/svg" width="2395.18" height="454.4" viewBox="0 0 2395.18 454.4">
  <defs>
    <style>
      .bdcd033a-8c3a-44a9-9c25-00f35c6b29c7 {
        fill: #181d27;
      }
    </style>
  </defs>
  <g>
    <path class="bdcd033a-8c3a-44a9-9c25-00f35c6b29c7" d="M613.76,88.6h82.5c74.7,0,123.4,35.6,123.4,112s-48.8,112.6-123.4,112.6h-82.5Zm80.1,186.8c49.1,0,80.5-20.2,80.5-74.8,0-53.9-32-74.1-80.5-74.1h-36.1V275.4Z"/>
    <path class="bdcd033a-8c3a-44a9-9c25-00f35c6b29c7" d="M918.16,135.3c50.1,0,77.1,36.5,77.1,82.5,0,5.1-1,16.7-1,16.7h-120c2.7,30.3,26.3,46,52.2,46,28,0,50.1-19.1,50.1-19.1l16.7,31s-26.6,24.9-69.9,24.9c-57.6,0-93.4-41.6-93.4-91C829.86,172.8,866.36,135.3,918.16,135.3Zm33.4,69.5c-.7-23.5-15.3-36.1-34.4-36.1-22.2,0-37.5,13.6-41.6,36.1Z"/>
    <path class="bdcd033a-8c3a-44a9-9c25-00f35c6b29c7" d="M990.56,139.4h45.7l36.1,107.7c3.4,10.2,5.8,26.3,6.1,26.3h.7c.3,0,2.7-16,6.1-26.3l36.1-107.7h45.7l-62.3,173.8h-51.1Z"/>
    <path class="bdcd033a-8c3a-44a9-9c25-00f35c6b29c7" d="M1250.76,135.3c50.1,0,77.1,36.5,77.1,82.5,0,5.1-1,16.7-1,16.7h-120c2.7,30.3,26.3,46,52.2,46,28,0,50.1-19.1,50.1-19.1l16.7,31s-26.6,24.9-69.9,24.9c-57.6,0-93.4-41.6-93.4-91C1162.46,172.8,1199,135.3,1250.76,135.3Zm33.4,69.5c-.7-23.5-15.3-36.1-34.4-36.1-22.2,0-37.5,13.6-41.6,36.1Z"/>
    <path class="bdcd033a-8c3a-44a9-9c25-00f35c6b29c7" d="M1348.26,71.2h43V252.6c0,19.1,6.5,23.9,17.7,23.9,3.4,0,6.5-.3,6.5-.3V314a101.13,101.13,0,0,1-13.6,1c-23.9,0-53.5-6.1-53.5-55.9V71.2Z"/>
    <path class="bdcd033a-8c3a-44a9-9c25-00f35c6b29c7" d="M1516.16,135.3c53.2,0,95.8,37.8,95.8,91,0,53.5-42.6,91-95.5,91-53.2,0-95.8-37.5-95.8-91C1420.66,173.1,1463.36,135.3,1516.16,135.3Zm.3,145.2c28,0,51.5-21.8,51.5-54.2,0-32-23.5-54.2-51.5-54.2-28.3,0-51.8,22.2-51.8,54.2C1464.66,258.7,1488.26,280.5,1516.46,280.5Z"/>
    <path class="bdcd033a-8c3a-44a9-9c25-00f35c6b29c7" d="M1630.16,139.4h39.5V152a103.51,103.51,0,0,1-.7,11.9h.7s15-28.6,55.9-28.6c47,0,77.1,37.2,77.1,91,0,55.2-33.8,91-79.4,91-34.4,0-49.8-23.9-49.8-23.9h-.7a145.56,145.56,0,0,1,.7,15v73h-43.3v-242Zm85.2,141.5c23.9,0,43.6-19.4,43.6-53.9,0-33.1-17.7-54.5-43.3-54.5-22.5,0-43.6,16.4-43.6,54.9C1672.06,254.3,1686.76,280.9,1715.36,280.9Z"/>
    <path class="bdcd033a-8c3a-44a9-9c25-00f35c6b29c7" d="M1908.36,135.3c50.1,0,77.1,36.5,77.1,82.5,0,5.1-1,16.7-1,16.7h-120c2.7,30.3,26.3,46,52.2,46,28,0,50.1-19.1,50.1-19.1l16.7,31s-26.6,24.9-69.9,24.9c-57.6,0-93.4-41.6-93.4-91C1820.06,172.8,1856.46,135.3,1908.36,135.3Zm33.4,69.5c-.7-23.5-15.3-36.1-34.4-36.1-22.2,0-37.5,13.6-41.6,36.1Z"/>
    <path class="bdcd033a-8c3a-44a9-9c25-00f35c6b29c7" d="M2006.06,139.4h41.6v30a115.7,115.7,0,0,1-.7,12.3h.7c7.8-24.9,28.6-44.7,55.2-44.7a47.35,47.35,0,0,1,7.8.7v42.6a72,72,0,0,0-10.2-.7c-18.4,0-39.2,10.6-47.4,36.5-2.7,8.5-3.8,18.1-3.8,28.3v68.9H2006V139.4Z"/>
    <path class="bdcd033a-8c3a-44a9-9c25-00f35c6b29c7" d="M2140.56,261.4s19.1,19.1,47.4,19.1c12.3,0,22.8-5.5,22.8-15.7,0-25.9-84.6-22.5-84.6-78.4,0-32.4,29-51.1,66.5-51.1,39.2,0,58.3,19.8,58.3,19.8l-16,32s-16-15-42.6-15c-11.3,0-22.2,4.8-22.2,15.7,0,24.5,84.6,21.5,84.6,77.4,0,29-25.2,52.2-66.5,52.2-43.3,0-67.5-25.6-67.5-25.6Z"/>
  </g>
  <path class="bdcd033a-8c3a-44a9-9c25-00f35c6b29c7" d="M483.46,299.06V104.4a2.9,2.9,0,0,0-1.44-2.5L314.87,5.4a2.9,2.9,0,0,0-2.88,0L147.73,100.24a2.88,2.88,0,0,0,0,5l80.69,46.59L312,103.57a2.85,2.85,0,0,1,2.88,0L397,151a2.85,2.85,0,0,1,1.44,2.49V250h0L354.08,275.6l-39.21,22.63a2.85,2.85,0,0,1-2.88,0l-82.13-47.42a2.87,2.87,0,0,1-1.44-2.49v-96.5l-83.57,48.31a2.85,2.85,0,0,0-1.44,2.49V297.4a2.88,2.88,0,0,0,1.44,2.5L312,396.4a2.9,2.9,0,0,0,2.88,0l83.58-48.25,39.2,22.63a2.85,2.85,0,0,0,2.88,0L519.78,325a2.88,2.88,0,0,0,0-5Z"/>
</svg>
