<?xml version="1.0" encoding="utf-8"?>
<!-- Generator: Adobe Illustrator 25.2.0, SVG Export Plug-In . SVG Version: 6.00 Build 0)  -->
<svg version="1.1" id="f4636250-6d13-4c4b-b478-624f82329a8d"
	 xmlns="http://www.w3.org/2000/svg" xmlns:xlink="http://www.w3.org/1999/xlink" x="0px" y="0px" viewBox="0 0 284 32"
	 style="enable-background:new 0 0 284 32;" xml:space="preserve">
<style type="text/css">
	.st0{fill:#181D27;}
	.st1{fill:#515860;}
</style>
<g>
	<g>
		<path class="st0" d="M80.1,72.2h-2.5v-2.5c0-0.1-0.1-0.2-0.2-0.2h-2.6c-0.1,0-0.2,0.1-0.2,0.2v2.5h-1.5c-0.1,0-0.2,0.1-0.2,0.2
			v2.4c0,0.1,0.1,0.2,0.2,0.2h1.5v5c0,4.1,3.3,4.6,5,4.6c0,0,0.3,0,0.5,0c0.1,0,0.2-0.1,0.2-0.2v-2.4c0-0.1-0.1-0.2-0.2-0.2
			c-0.2,0-0.4,0-0.5,0c-0.9,0-2-0.5-2-2.3v-4.6h2.5c0.1,0,0.2-0.1,0.2-0.2v-2.4C80.3,72.3,80.2,72.2,80.1,72.2z"/>
	</g>
	<g>
		<path class="st0" d="M56.4,69c0-0.1-0.1-0.1-0.2-0.1h-3c-0.1,0-0.1,0.1-0.2,0.1l-5.9,15.3c0,0.1,0,0.2,0.2,0.2h2.9
			c0.1,0,0.1-0.1,0.2-0.1l0.9-2.6h6.9l0.9,2.6c0,0.1,0.1,0.1,0.2,0.1h2.9c0.1,0,0.2-0.1,0.2-0.2L56.4,69z M52.2,79l2.5-7.3h0
			l2.5,7.3H52.2z"/>
	</g>
	<g>
		<path class="st0" d="M71.7,80.7c-0.1-0.1-0.2-0.1-0.3-0.1c-0.4,0.4-1.8,1.4-3.4,1.4c-2.3,0-3.8-1.8-3.8-3.8c0-2.1,1.5-3.8,3.7-3.8
			c1.5,0,2.6,0.8,3,1.2c0.1,0.1,0.2,0.1,0.3,0l1.1-1.8c0-0.1,0-0.2,0-0.2c-0.4-0.4-1.9-1.7-4.6-1.7c-4,0-6.6,2.9-6.6,6.4
			c0,3.5,2.6,6.4,6.6,6.4c2.8,0,4.5-1.5,4.9-1.9c0.1-0.1,0.1-0.1,0-0.2L71.7,80.7z"/>
	</g>
	<g>
		<path class="st0" d="M103.7,84.2l-3.9-6l3.7-5.8c0.1-0.1,0-0.3-0.2-0.3h-3c-0.1,0-0.1,0-0.2,0.1l-1.8,3.2
			c-0.2,0.3-0.4,0.8-0.4,0.8H98c0,0-0.2-0.4-0.4-0.8l-1.9-3.2c0-0.1-0.1-0.1-0.2-0.1h-2.3h-1H90c-0.1,0-0.1,0.1-0.2,0.1l-2.4,7
			c-0.2,0.6-0.4,1.2-0.4,1.2c0,0-0.2-0.6-0.4-1.2l-2.5-6.9c0-0.1-0.1-0.1-0.2-0.1h-3c-0.1,0-0.2,0.1-0.2,0.3l5,12l-0.2,0.6
			c-0.4,1.1-1.4,1.8-2.3,1.8c0,0-1,0-1.4,0c-0.1,0-0.2,0.1-0.2,0.2v2.4c0,0.1,0.1,0.2,0.2,0.2c0.4,0,1.5,0,1.6,0
			c1.8,0,3.6-1.2,4.4-3.4l5.1-13.1l3.3,5.1l-3.9,6c-0.1,0.1,0,0.3,0.1,0.3h2.9c0.1,0,0.1,0,0.2-0.1l2.2-3.6c0.2-0.3,0.3-0.7,0.3-0.7
			H98c0,0,0.2,0.4,0.3,0.7l2.1,3.6c0,0.1,0.1,0.1,0.2,0.1h2.9C103.7,84.5,103.8,84.3,103.7,84.2z"/>
	</g>
</g>
<g>
	<path class="st0" d="M39.6,21V8.9c0-0.1,0-0.1-0.1-0.2l-10.4-6c0,0-0.1,0-0.2,0L18.7,8.7c-0.1,0.1-0.1,0.2,0,0.3l5,2.9l5.2-3
		c0,0,0.1,0,0.2,0l5.1,2.9c0,0,0.1,0.1,0.1,0.2v6l0,0l-2.8,1.6L29.1,21c0,0-0.1,0-0.2,0L23.8,18c0,0-0.1-0.1-0.1-0.2v-6l-5.2,3
		c0,0-0.1,0.1-0.1,0.2v5.9c0,0.1,0,0.1,0.1,0.2l10.4,6c0,0,0.1,0,0.2,0l5.2-3l2.4,1.4c0,0,0.1,0,0.2,0l4.9-2.8
		c0.1-0.1,0.1-0.2,0-0.3L39.6,21z"/>
</g>
<g>
	<path class="st1" d="M60,6.5h-5.4v16.1H60c5.1,0,8.2-3.1,8.2-8.1C68.2,9.5,65.1,6.5,60,6.5z M59.8,20.3h-2.6V8.7h2.6
		c3.5,0,5.6,2.2,5.6,5.8C65.4,18.1,63.3,20.3,59.8,20.3z"/>
	<path class="st1" d="M68.9,16.8c0,3.5,2.6,6,6.2,6c2.5,0,4.2-1.2,4.5-1.6l-1-1.8c-0.4,0.3-1.7,1.2-3.3,1.2c-1.7,0-3.5-1-3.7-3.3
		l0-0.2h8.2c0-0.2,0.1-0.7,0.1-1c0-3.3-2-5.4-5.1-5.4C71.3,10.8,68.9,13.3,68.9,16.8z M77.2,15.4l0,0.2h-5.5l0-0.2
		c0.3-1.6,1.4-2.6,3-2.6C76.2,12.8,77.1,13.8,77.2,15.4z"/>
	<path class="st1" d="M85.6,19.7c-0.1,0.4-0.1,0.4-0.2,0.4h0c-0.1,0-0.1,0-0.2-0.4c-0.1-0.4-0.2-1-0.3-1.5l-2.4-7.2h-2.8l4.2,11.5
		H87l4.1-11.5h-2.8L86,18.3C85.8,18.7,85.7,19.4,85.6,19.7z"/>
	<path class="st1" d="M91,16.8c0,3.5,2.6,6,6.2,6c2.5,0,4.2-1.2,4.5-1.6l-1-1.8c-0.4,0.3-1.7,1.2-3.3,1.2c-1.7,0-3.5-1-3.7-3.3
		l0-0.2h8.2c0-0.2,0.1-0.7,0.1-1c0-3.3-2-5.4-5.1-5.4C93.4,10.8,91,13.3,91,16.8z M99.2,15.4l0,0.2h-5.5l0-0.2
		c0.3-1.6,1.4-2.6,3-2.6C98.2,12.8,99.2,13.8,99.2,15.4z"/>
	<path class="st1" d="M105.6,18.6V6.5H103V19c0,3.2,1.9,3.6,3.5,3.6c0.3,0,0.6,0,0.8,0v-2.3c-0.1,0-0.2,0-0.3,0
		C106,20.4,105.6,19.8,105.6,18.6z"/>
	<path class="st1" d="M113.8,10.8c-3.6,0-6.3,2.6-6.3,6c0,3.4,2.7,6,6.3,6c3.6,0,6.3-2.6,6.3-6C120.2,13.4,117.4,10.8,113.8,10.8z
		 M113.8,20.6c-2.1,0-3.7-1.6-3.7-3.8s1.6-3.8,3.7-3.8c2.1,0,3.6,1.6,3.6,3.8S115.9,20.6,113.8,20.6z"/>
	<path class="st1" d="M124.1,12.7L124.1,12.7l-0.3,0.1l0-0.2c0,0,0-0.4,0-0.8v-0.7h-2.4v16.1h2.6v-4.8c0-0.6,0-1,0-1l0-0.2h0.3
		l0,0.1c0,0,1,1.5,3.2,1.5c3.1,0,5.2-2.5,5.2-6c0-3.6-2-6-5.1-6C125.1,10.8,124.1,12.6,124.1,12.7z M130.2,16.9
		c0,2.2-1.3,3.8-3.1,3.8c-2,0-3.1-1.9-3.1-3.8c0-2.9,1.7-3.9,3.1-3.9C128.9,13,130.2,14.6,130.2,16.9z"/>
	<path class="st1" d="M133.3,16.8c0,3.5,2.6,6,6.2,6c2.5,0,4.2-1.2,4.5-1.6l-1-1.8c-0.4,0.3-1.7,1.2-3.3,1.2c-1.7,0-3.5-1-3.7-3.3
		l0-0.2h8.2c0-0.2,0.1-0.7,0.1-1c0-3.3-2-5.4-5.1-5.4C135.7,10.8,133.3,13.3,133.3,16.8z M141.6,15.4l0,0.2h-5.5l0-0.2
		c0.3-1.6,1.4-2.6,3-2.6C140.5,12.8,141.5,13.8,141.6,15.4z"/>
	<path class="st1" d="M148.4,13.8l0,0.1H148l0-0.2c0,0,0-0.4,0-0.8v-1.9h-2.5v11.5h2.6V18c0-0.8,0.1-1.4,0.3-2
		c0.6-1.9,2.1-2.6,3.4-2.6c0.2,0,0.4,0,0.5,0v-2.6c-0.1,0-0.2,0-0.4,0C150.4,10.9,148.9,12.1,148.4,13.8z"/>
	<path class="st1" d="M163.4,6.5h-5.4v16.1h5.4c5.1,0,8.2-3.1,8.2-8.1C171.6,9.5,168.4,6.5,163.4,6.5z M163.2,20.3h-2.6V8.7h2.6
		c3.5,0,5.6,2.2,5.6,5.8C168.8,18.1,166.7,20.3,163.2,20.3z"/>
	<path class="st1" d="M178.6,10.8c-3.6,0-6.3,2.6-6.3,6c0,3.4,2.7,6,6.3,6c3.6,0,6.3-2.6,6.3-6C184.9,13.4,182.2,10.8,178.6,10.8z
		 M178.6,20.6c-2.1,0-3.7-1.6-3.7-3.8s1.6-3.8,3.7-3.8c2.1,0,3.6,1.6,3.6,3.8S180.7,20.6,178.6,20.6z"/>
	<path class="st1" d="M191.9,20.6c-2.2,0-3.8-1.7-3.8-3.8c0-2.2,1.6-3.8,3.7-3.8c1.6,0,2.7,0.9,3,1.2l1.1-1.8
		c-0.3-0.3-1.8-1.6-4.3-1.6c-3.6,0-6.2,2.5-6.2,6s2.6,6,6.2,6c2.5,0,4.1-1.2,4.6-1.7l0.1-0.1l-1-1.8
		C194.9,19.6,193.5,20.6,191.9,20.6z"/>
	<path class="st1" d="M205.2,19.5c0-2.2-2-3-3.6-3.6c-1.1-0.5-2.1-0.8-2.1-1.6c0-0.8,0.8-1.2,1.7-1.2c1.5,0,2.5,0.6,2.8,0.9l1-1.9
		c-0.3-0.3-1.6-1.2-3.8-1.2c-2.6,0-4.4,1.3-4.4,3.3c0,2.2,2,3,3.6,3.6c1.2,0.5,2.2,0.9,2.2,1.7c0,0.7-0.7,1.2-1.7,1.2
		c-1.6,0-2.8-0.9-3.2-1.2l-1,1.6l0,0.1l-0.1,0.1c0,0,0,0-0.1,0.1c0.4,0.4,1.9,1.6,4.4,1.6C203.4,22.8,205.2,21.4,205.2,19.5z"/>
	<path class="st1" d="M196.6,21.1L196.6,21.1l-0.2,0.1c0,0,0,0,0,0C196.5,21.2,196.6,21.2,196.6,21.1L196.6,21.1z"/>
</g>
</svg>
