<?xml version="1.0" encoding="utf-8"?>
<!-- Generator: Adobe Illustrator 25.2.0, SVG Export Plug-In . SVG Version: 6.00 Build 0)  -->
<svg version="1.1" id="f4636250-6d13-4c4b-b478-624f82329a8d"
	 xmlns="http://www.w3.org/2000/svg" xmlns:xlink="http://www.w3.org/1999/xlink" x="0px" y="0px" viewBox="0 0 3296.8 454.4"
	 style="enable-background:new 0 0 3296.8 454.4;" xml:space="preserve">
<style type="text/css">
	.st0{fill:#232B38;}
	.st1{fill:#181D27;}
	.st2{fill:#FFFFFF;}
</style>
<g>
	<path class="st0" d="M1565.7,76.2h82.5c74.7,0,123.4,35.6,123.4,112s-48.8,112.6-123.4,112.6h-82.5V76.2z M1645.8,263
		c49.1,0,80.5-20.2,80.5-74.8c0-53.9-32-74.1-80.5-74.1h-36.1V263H1645.8z"/>
	<path class="st0" d="M1870.1,122.9c50.1,0,77.1,36.5,77.1,82.5c0,5.1-1,16.7-1,16.7h-120c2.7,30.3,26.3,46,52.2,46
		c28,0,50.1-19.1,50.1-19.1l16.7,31c0,0-26.6,24.9-69.9,24.9c-57.6,0-93.4-41.6-93.4-91C1781.8,160.4,1818.3,122.9,1870.1,122.9z
		 M1903.5,192.4c-0.7-23.5-15.3-36.1-34.4-36.1c-22.2,0-37.5,13.6-41.6,36.1L1903.5,192.4z"/>
	<path class="st0" d="M1942.5,127h45.7l36.1,107.7c3.4,10.2,5.8,26.3,6.1,26.3h0.7c0.3,0,2.7-16,6.1-26.3l36.1-107.7h45.7
		l-62.3,173.8h-51.1L1942.5,127z"/>
	<path class="st0" d="M2202.7,122.9c50.1,0,77.1,36.5,77.1,82.5c0,5.1-1,16.7-1,16.7h-120c2.7,30.3,26.3,46,52.2,46
		c28,0,50.1-19.1,50.1-19.1l16.7,31c0,0-26.6,24.9-69.9,24.9c-57.6,0-93.4-41.6-93.4-91C2114.4,160.4,2151,122.9,2202.7,122.9z
		 M2236.1,192.4c-0.7-23.5-15.3-36.1-34.4-36.1c-22.2,0-37.5,13.6-41.6,36.1L2236.1,192.4z"/>
	<path class="st0" d="M2300.2,58.8h43v181.4c0,19.1,6.5,23.9,17.7,23.9c3.4,0,6.5-0.3,6.5-0.3v37.8c-4.5,0.6-9,1-13.6,1
		c-23.9,0-53.5-6.1-53.5-55.9V58.8H2300.2z"/>
	<path class="st0" d="M2468.1,122.9c53.2,0,95.8,37.8,95.8,91c0,53.5-42.6,91-95.5,91c-53.2,0-95.8-37.5-95.8-91
		C2372.6,160.7,2415.3,122.9,2468.1,122.9z M2468.4,268.1c28,0,51.5-21.8,51.5-54.2c0-32-23.5-54.2-51.5-54.2
		c-28.3,0-51.8,22.2-51.8,54.2C2416.6,246.3,2440.2,268.1,2468.4,268.1L2468.4,268.1z"/>
	<path class="st0" d="M2582.1,127h39.5v12.6c0,4-0.2,8-0.7,11.9h0.7c0,0,15-28.6,55.9-28.6c47,0,77.1,37.2,77.1,91
		c0,55.2-33.8,91-79.4,91c-34.4,0-49.8-23.9-49.8-23.9h-0.7c0.5,5,0.7,10,0.7,15v73h-43.3L2582.1,127L2582.1,127z M2667.3,268.5
		c23.9,0,43.6-19.4,43.6-53.9c0-33.1-17.7-54.5-43.3-54.5c-22.5,0-43.6,16.4-43.6,54.9C2624,241.9,2638.7,268.5,2667.3,268.5z"/>
	<path class="st0" d="M2860.3,122.9c50.1,0,77.1,36.5,77.1,82.5c0,5.1-1,16.7-1,16.7h-120c2.7,30.3,26.3,46,52.2,46
		c28,0,50.1-19.1,50.1-19.1l16.7,31c0,0-26.6,24.9-69.9,24.9c-57.6,0-93.4-41.6-93.4-91C2772,160.4,2808.4,122.9,2860.3,122.9z
		 M2893.7,192.4c-0.7-23.5-15.3-36.1-34.4-36.1c-22.2,0-37.5,13.6-41.6,36.1L2893.7,192.4z"/>
	<path class="st0" d="M2958,127h41.6v30c0,4.1-0.2,8.2-0.7,12.3h0.7c7.8-24.9,28.6-44.7,55.2-44.7c2.6,0,5.2,0.3,7.8,0.7v42.6
		c-3.4-0.5-6.8-0.7-10.2-0.7c-18.4,0-39.2,10.6-47.4,36.5c-2.7,8.5-3.8,18.1-3.8,28.3v68.9H2958L2958,127L2958,127z"/>
	<path class="st0" d="M3092.5,249c0,0,19.1,19.1,47.4,19.1c12.3,0,22.8-5.5,22.8-15.7c0-25.9-84.6-22.5-84.6-78.4
		c0-32.4,29-51.1,66.5-51.1c39.2,0,58.3,19.8,58.3,19.8l-16,32c0,0-16-15-42.6-15c-11.3,0-22.2,4.8-22.2,15.7
		c0,24.5,84.6,21.5,84.6,77.4c0,29-25.2,52.2-66.5,52.2c-43.3,0-67.5-25.6-67.5-25.6L3092.5,249z"/>
</g>
<g>
	<g>
		<path class="st1" d="M1119.1,127.9h-35.8V92.8c0-1.4-1.1-2.6-2.6-2.6h-37c-1.4,0-2.6,1.1-2.6,2.6v35.1h-20.8
			c-1.4,0-2.6,1.1-2.6,2.6V164c0,1.4,1.1,2.6,2.6,2.6h20.8V238c0,58,46.9,64.7,71,64.7c0,0,4,0,6.7,0c1.4,0,2.6-1.1,2.6-2.6v-33.6
			c0-1.4-1.1-2.6-2.6-2.6c-2.4,0-5.8,0-6.8,0c-12.3,0.2-28.8-7.4-28.8-32v-65.4h35.8c1.4,0,2.6-1.1,2.6-2.6v-33.5
			C1121.7,129,1120.5,127.9,1119.1,127.9z"/>
	</g>
	<g>
		<path class="st1" d="M781.7,82.3c-0.4-1-1.3-1.6-2.4-1.6h-43c-1.1,0-2,0.7-2.4,1.6l-83.3,216.9c-0.6,1.7,0.6,3.5,2.4,3.5h40.6
			c1.1,0,2.1-0.7,2.4-1.7l12.7-37h98.1l12.7,37c0.4,1,1.3,1.7,2.4,1.7h41.1c1.8,0,3-1.8,2.4-3.5L781.7,82.3z M722.1,224.7
			l35.4-103.5h0.5l35.5,103.5H722.1z"/>
	</g>
	<g>
		<path class="st1" d="M998.9,249.4c-0.8-1.4-2.7-1.8-3.9-0.7c-6.4,5.6-25,19.9-48.5,19.9c-32.9,0-53.9-25.1-53.9-54.3
			c0-29.5,20.7-53.6,52.6-53.6c21.6,0,37.4,11.8,42.9,16.6c1.2,1,3,0.8,3.8-0.6l16.3-25.3c0.6-1,0.5-2.3-0.3-3.2
			c-5.4-5.5-26.6-24.3-65.1-24.3c-57.3,0-94,41.4-94,90.6c0,50.2,36.6,90.6,94,90.6c40.2,0,64.2-21.1,69.9-26.8c0.8-0.8,1-2,0.4-3
			L998.9,249.4z"/>
	</g>
	<g>
		<path class="st1" d="M1454.3,298.7l-55-85.1l53.2-81.8c1.1-1.7-0.1-4-2.2-4h-42.6c-0.9,0-1.8,0.5-2.2,1.3l-26.2,46.1
			c-2.7,4.4-5.8,10.9-5.8,10.9h-0.7c0,0-3.1-6.4-5.8-10.9l-26.4-46.1c-0.5-0.8-1.3-1.3-2.2-1.3h-33.1h-14h-31.4
			c-1.1,0-2.1,0.7-2.4,1.7L1224,229c-3,9-5.6,16.5-5.7,16.8c-0.1-0.4-3.1-8.5-6.4-17.5l-36.3-98.7c-0.4-1-1.3-1.7-2.4-1.7h-43.3
			c-1.8,0-3.1,1.9-2.4,3.6l71.4,171.2l-3.1,9.1c-5.2,15.5-20.5,25.1-32.4,25.1c0,0-14.3,0-20.2,0c-1.4,0-2.6,1.1-2.6,2.6v33.6
			c0,1.4,1.1,2.6,2.6,2.6c6.2,0,21.4,0,22.1,0c26.1,0,50.5-16.4,62.7-47.9l72-186.3l46.9,72.2l-56.1,85.1c-1.1,1.7,0.1,4,2.1,4h41.6
			c0.9,0,1.7-0.5,2.2-1.2l31.1-50.5c2.4-3.7,4.7-9.2,4.7-9.2h0.7c0,0,2.4,5.4,4.7,9.2l30,50.5c0.5,0.8,1.3,1.3,2.2,1.3h41.7
			C1454.1,302.7,1455.4,300.4,1454.3,298.7z"/>
	</g>
</g>
<path class="st1" d="M429.8,9.7h-209c-42.8,0-77.4,34.7-77.4,77.4v209c0,42.8,34.7,77.4,77.4,77.4h209c42.8,0,77.4-34.7,77.4-77.4
	v-209C507.2,44.4,472.6,9.7,429.8,9.7z"/>
<g>
	<path class="st2" d="M437.8,253V114.6c0-0.7-0.4-1.4-1-1.8L317.9,44.3c-0.6-0.4-1.4-0.4-2,0l-116.8,67.4c-1.4,0.8-1.4,2.8,0,3.5
		l57.4,33.1l59.4-34.3c0.6-0.4,1.4-0.4,2,0l58.4,33.7c0.6,0.4,1,1,1,1.8v68.6v0l-31.5,18.2l-27.9,16.1c-0.6,0.4-1.4,0.4-2,0
		l-58.4-33.7c-0.6-0.4-1-1-1-1.8v-68.6l-59.4,34.3c-0.6,0.4-1,1-1,1.8v67.4c0,0.7,0.4,1.4,1,1.8l118.8,68.6c0.6,0.4,1.4,0.4,2,0
		l59.4-34.3l27.9,16.1c0.6,0.4,1.4,0.4,2,0l56.3-32.5c1.4-0.8,1.4-2.8,0-3.5L437.8,253z"/>
</g>
</svg>
