<?xml version="1.0" encoding="utf-8"?>
<!-- Generator: Adobe Illustrator 25.2.0, SVG Export Plug-In . SVG Version: 6.00 Build 0)  -->
<svg version="1.1" id="f4636250-6d13-4c4b-b478-624f82329a8d"
	 xmlns="http://www.w3.org/2000/svg" xmlns:xlink="http://www.w3.org/1999/xlink" x="0px" y="0px" viewBox="0 0 284 32"
	 style="enable-background:new 0 0 284 32;" xml:space="preserve">
<style type="text/css">
	.st0{fill:#181D27;}
	.st1{fill:#515860;}
</style>
<g>
	<g>
		<path class="st0" d="M80,10.1h-2.5V7.6c0-0.1-0.1-0.2-0.2-0.2h-2.6c-0.1,0-0.2,0.1-0.2,0.2v2.5H73c-0.1,0-0.2,0.1-0.2,0.2v2.4
			c0,0.1,0.1,0.2,0.2,0.2h1.5v5c0,4.1,3.3,4.6,5,4.6c0,0,0.3,0,0.5,0c0.1,0,0.2-0.1,0.2-0.2v-2.4c0-0.1-0.1-0.2-0.2-0.2
			c-0.2,0-0.4,0-0.5,0c-0.9,0-2-0.5-2-2.3v-4.6H80c0.1,0,0.2-0.1,0.2-0.2v-2.4C80.2,10.2,80.1,10.1,80,10.1z"/>
	</g>
	<g>
		<path class="st0" d="M56.3,6.9c0-0.1-0.1-0.1-0.2-0.1h-3c-0.1,0-0.1,0.1-0.2,0.1L47,22.2c0,0.1,0,0.2,0.2,0.2h2.9
			c0.1,0,0.1-0.1,0.2-0.1l0.9-2.6h6.9l0.9,2.6c0,0.1,0.1,0.1,0.2,0.1h2.9c0.1,0,0.2-0.1,0.2-0.2L56.3,6.9z M52.1,16.9l2.5-7.3l0,0
			l2.5,7.3H52.1z"/>
	</g>
	<g>
		<path class="st0" d="M71.6,18.6c-0.1-0.1-0.2-0.1-0.3-0.1c-0.4,0.4-1.8,1.4-3.4,1.4c-2.3,0-3.8-1.8-3.8-3.8c0-2.1,1.5-3.8,3.7-3.8
			c1.5,0,2.6,0.8,3,1.2c0.1,0.1,0.2,0.1,0.3,0l1.1-1.8c0-0.1,0-0.2,0-0.2c-0.4-0.4-1.9-1.7-4.6-1.7c-4,0-6.6,2.9-6.6,6.4
			s2.6,6.4,6.6,6.4c2.8,0,4.5-1.5,4.9-1.9c0.1-0.1,0.1-0.1,0-0.2L71.6,18.6z"/>
	</g>
	<g>
		<path class="st0" d="M103.6,22.1l-3.9-6l3.7-5.8c0.1-0.1,0-0.3-0.2-0.3h-3c-0.1,0-0.1,0-0.2,0.1l-1.8,3.2
			c-0.2,0.3-0.4,0.8-0.4,0.8h0.1c0,0-0.2-0.4-0.4-0.8l-1.9-3.2c0-0.1-0.1-0.1-0.2-0.1h-2.3h-1h-2.2c-0.1,0-0.1,0.1-0.2,0.1l-2.4,7
			c-0.2,0.6-0.4,1.2-0.4,1.2s-0.2-0.6-0.4-1.2L84,10.2c0-0.1-0.1-0.1-0.2-0.1h-3c-0.1,0-0.2,0.1-0.2,0.3l5,12L85.4,23
			c-0.4,1.1-1.4,1.8-2.3,1.8c0,0-1,0-1.4,0c-0.1,0-0.2,0.1-0.2,0.2v2.4c0,0.1,0.1,0.2,0.2,0.2c0.4,0,1.5,0,1.6,0
			c1.8,0,3.6-1.2,4.4-3.4l5.1-13.1l3.3,5.1l-3.9,6c-0.1,0.1,0,0.3,0.1,0.3h2.9c0.1,0,0.1,0,0.2-0.1l2.2-3.6c0.2-0.3,0.3-0.7,0.3-0.7
			l0,0c0,0,0.2,0.4,0.3,0.7l2.1,3.6c0,0.1,0.1,0.1,0.2,0.1h2.9C103.6,22.4,103.7,22.2,103.6,22.1z"/>
	</g>
</g>
<g>
	<path class="st0" d="M39.6,21V8.9c0-0.1,0-0.1-0.1-0.2l-10.4-6c0,0-0.1,0-0.2,0l-10.2,6c-0.1,0.1-0.1,0.2,0,0.3l5,2.9l5.2-3
		c0,0,0.1,0,0.2,0l5.1,2.9c0,0,0.1,0.1,0.1,0.2v6l0,0l-2.8,1.6L29.1,21c0,0-0.1,0-0.2,0l-5.1-3c0,0-0.1-0.1-0.1-0.2v-6l-5.2,3
		c0,0-0.1,0.1-0.1,0.2v5.9c0,0.1,0,0.1,0.1,0.2l10.4,6c0,0,0.1,0,0.2,0l5.2-3l2.4,1.4c0,0,0.1,0,0.2,0l4.9-2.8
		c0.1-0.1,0.1-0.2,0-0.3L39.6,21z"/>
</g>
<g>
	<path class="st1" d="M118.5,6.5h-5.4v16.1h5.4c5.1,0,8.2-3.1,8.2-8.1S123.6,6.5,118.5,6.5z M118.3,20.3h-2.6V8.7h2.6
		c3.5,0,5.6,2.2,5.6,5.8S121.8,20.3,118.3,20.3z"/>
	<path class="st1" d="M127.4,16.8c0,3.5,2.6,6,6.2,6c2.5,0,4.2-1.2,4.5-1.6l-1-1.8c-0.4,0.3-1.7,1.2-3.3,1.2c-1.7,0-3.5-1-3.7-3.3
		v-0.2h8.2c0-0.2,0.1-0.7,0.1-1c0-3.3-2-5.4-5.1-5.4C129.8,10.8,127.4,13.3,127.4,16.8z M135.7,15.4v0.2h-5.5v-0.2
		c0.3-1.6,1.4-2.6,3-2.6C134.7,12.8,135.6,13.8,135.7,15.4z"/>
	<path class="st1" d="M144.1,19.7c-0.1,0.4-0.1,0.4-0.2,0.4l0,0c-0.1,0-0.1,0-0.2-0.4c-0.1-0.4-0.2-1-0.3-1.5L141,11h-2.8l4.2,11.5
		h3.1l4.1-11.5h-2.8l-2.3,7.3C144.3,18.7,144.2,19.4,144.1,19.7z"/>
	<path class="st1" d="M149.5,16.8c0,3.5,2.6,6,6.2,6c2.5,0,4.2-1.2,4.5-1.6l-1-1.8c-0.4,0.3-1.7,1.2-3.3,1.2c-1.7,0-3.5-1-3.7-3.3
		v-0.2h8.2c0-0.2,0.1-0.7,0.1-1c0-3.3-2-5.4-5.1-5.4C151.9,10.8,149.5,13.3,149.5,16.8z M157.7,15.4v0.2h-5.5v-0.2
		c0.3-1.6,1.4-2.6,3-2.6C156.7,12.8,157.7,13.8,157.7,15.4z"/>
	<path class="st1" d="M164.1,18.6V6.5h-2.6V19c0,3.2,1.9,3.6,3.5,3.6c0.3,0,0.6,0,0.8,0v-2.3c-0.1,0-0.2,0-0.3,0
		C164.5,20.4,164.1,19.8,164.1,18.6z"/>
	<path class="st1" d="M172.3,10.8c-3.6,0-6.3,2.6-6.3,6s2.7,6,6.3,6c3.6,0,6.3-2.6,6.3-6C178.7,13.4,175.9,10.8,172.3,10.8z
		 M172.3,20.6c-2.1,0-3.7-1.6-3.7-3.8s1.6-3.8,3.7-3.8c2.1,0,3.6,1.6,3.6,3.8S174.4,20.6,172.3,20.6z"/>
	<path class="st1" d="M182.6,12.7L182.6,12.7l-0.3,0.1v-0.2c0,0,0-0.4,0-0.8v-0.7h-2.4v16.1h2.6v-4.8c0-0.6,0-1,0-1v-0.2h0.3v0.1
		c0,0,1,1.5,3.2,1.5c3.1,0,5.2-2.5,5.2-6c0-3.6-2-6-5.1-6C183.6,10.8,182.6,12.6,182.6,12.7z M188.7,16.9c0,2.2-1.3,3.8-3.1,3.8
		c-2,0-3.1-1.9-3.1-3.8c0-2.9,1.7-3.9,3.1-3.9C187.4,13,188.7,14.6,188.7,16.9z"/>
	<path class="st1" d="M191.8,16.8c0,3.5,2.6,6,6.2,6c2.5,0,4.2-1.2,4.5-1.6l-1-1.8c-0.4,0.3-1.7,1.2-3.3,1.2c-1.7,0-3.5-1-3.7-3.3
		v-0.2h8.2c0-0.2,0.1-0.7,0.1-1c0-3.3-2-5.4-5.1-5.4C194.2,10.8,191.8,13.3,191.8,16.8z M200.1,15.4v0.2h-5.5v-0.2
		c0.3-1.6,1.4-2.6,3-2.6C199,12.8,200,13.8,200.1,15.4z"/>
	<path class="st1" d="M206.9,13.8v0.1h-0.4v-0.2c0,0,0-0.4,0-0.8V11H204v11.5h2.6V18c0-0.8,0.1-1.4,0.3-2c0.6-1.9,2.1-2.6,3.4-2.6
		c0.2,0,0.4,0,0.5,0v-2.6c-0.1,0-0.2,0-0.4,0C208.9,10.9,207.4,12.1,206.9,13.8z"/>
	<path class="st1" d="M221.9,6.5h-5.4v16.1h5.4c5.1,0,8.2-3.1,8.2-8.1C230.1,9.5,226.9,6.5,221.9,6.5z M221.7,20.3h-2.6V8.7h2.6
		c3.5,0,5.6,2.2,5.6,5.8S225.2,20.3,221.7,20.3z"/>
	<path class="st1" d="M237.1,10.8c-3.6,0-6.3,2.6-6.3,6s2.7,6,6.3,6s6.3-2.6,6.3-6C243.4,13.4,240.7,10.8,237.1,10.8z M237.1,20.6
		c-2.1,0-3.7-1.6-3.7-3.8s1.6-3.8,3.7-3.8c2.1,0,3.6,1.6,3.6,3.8S239.2,20.6,237.1,20.6z"/>
	<path class="st1" d="M250.4,20.6c-2.2,0-3.8-1.7-3.8-3.8c0-2.2,1.6-3.8,3.7-3.8c1.6,0,2.7,0.9,3,1.2l1.1-1.8
		c-0.3-0.3-1.8-1.6-4.3-1.6c-3.6,0-6.2,2.5-6.2,6s2.6,6,6.2,6c2.5,0,4.1-1.2,4.6-1.7l0.1-0.1l-1-1.8C253.4,19.6,252,20.6,250.4,20.6
		z"/>
	<path class="st1" d="M263.7,19.5c0-2.2-2-3-3.6-3.6c-1.1-0.5-2.1-0.8-2.1-1.6s0.8-1.2,1.7-1.2c1.5,0,2.5,0.6,2.8,0.9l1-1.9
		c-0.3-0.3-1.6-1.2-3.8-1.2c-2.6,0-4.4,1.3-4.4,3.3c0,2.2,2,3,3.6,3.6c1.2,0.5,2.2,0.9,2.2,1.7c0,0.7-0.7,1.2-1.7,1.2
		c-1.6,0-2.8-0.9-3.2-1.2l-1,1.6v0.1l-0.1,0.1c0,0,0,0-0.1,0.1c0.4,0.4,1.9,1.6,4.4,1.6C261.9,22.8,263.7,21.4,263.7,19.5z"/>
	<path class="st1" d="M255.1,21.1L255.1,21.1l-0.2,0.1l0,0C255,21.2,255.1,21.2,255.1,21.1L255.1,21.1z"/>
</g>
</svg>
