<svg id="aa6f859d-2cdf-4b9b-a7fa-9d3c75b2ea22" data-name="Layer 1" xmlns="http://www.w3.org/2000/svg" width="2805.1" height="454.37" viewBox="0 0 2805.1 454.37">
  <defs>
    <style>
      .fb1bff5d-f514-4ab2-8638-88f184c6cc97 {
        fill: #191c1e;
      }

      .bbaa6760-4442-4038-a68f-2c644e13a31d {
        fill: #1998ff;
      }
    </style>
  </defs>
  <g>
    <g>
      <path class="fb1bff5d-f514-4ab2-8638-88f184c6cc97" d="M316.55,269.86H221.11L202.9,313.91H154.15l91.63-205.57h47l91.92,205.57H334.76Zm-15-36.12L269,155l-32.6,78.71Z"/>
      <path class="fb1bff5d-f514-4ab2-8638-88f184c6cc97" d="M409.67,305.84a78,78,0,0,1-31.43-28.93q-11.31-18.5-11.3-42t11.3-42A78,78,0,0,1,409.67,164q20.11-10.43,45.37-10.42,25,0,43.61,10.42a61.87,61.87,0,0,1,27.17,29.81l-35.54,19.09Q478,191.16,454.75,191.16q-17.92,0-29.66,11.74t-11.75,32q0,20.26,11.75,32t29.66,11.74q23.49,0,35.53-21.73l35.54,19.38a63.07,63.07,0,0,1-27.17,29.37Q480,316.27,455,316.26,429.78,316.26,409.67,305.84Z"/>
      <path class="fb1bff5d-f514-4ab2-8638-88f184c6cc97" d="M650.23,306.28a47.07,47.07,0,0,1-16.6,7.49,84.09,84.09,0,0,1-20.7,2.49q-28.2,0-43.61-14.39T553.9,259.58V191.26H529.52V156H553.9V121l45.81-7.34V156h76.07v35.24H599.71V259q0,10,5.14,15.41t14.54,5.44q10.86,0,18.5-5.88Z"/>
      <path class="fb1bff5d-f514-4ab2-8638-88f184c6cc97" d="M827.23,155.92,755.87,323.61Q745,350.91,729,362.08t-38.62,11.16A80.43,80.43,0,0,1,666,369.42q-12-3.82-19.67-10.57l16.74-32.6a39.27,39.27,0,0,0,12.18,7.34,38,38,0,0,0,13.66,2.64q9.39,0,15.27-4.55t10.57-15.12l.59-1.47L646.91,155.92H694.2l44.34,107.19,44.64-107.19Z"/>
      <path class="fb1bff5d-f514-4ab2-8638-88f184c6cc97" d="M929.68,313.91,895,265.46,859.2,313.91H809.27l60.79-79.58-58.73-78.41h51.39L896.2,202l34.36-46.1h48.75l-58.73,77.23,61.08,80.76Z"/>
    </g>
    <path class="bbaa6760-4442-4038-a68f-2c644e13a31d" d="M1057.1,104.51h92.7q33.92,0,60.28,13.18T1251,155q14.54,24.09,14.54,55.59T1251,266.13q-14.55,24.09-40.9,37.26t-60.28,13.18h-92.7ZM1148,283.25q23.32,0,41-8.94a63.88,63.88,0,0,0,27.26-25.45q9.54-16.5,9.54-38.32t-9.54-38.32A63.94,63.94,0,0,0,1189,146.77q-17.73-8.93-41-8.94h-51.5V283.25Z"/>
    <path class="bbaa6760-4442-4038-a68f-2c644e13a31d" d="M1442.38,247.8H1315.45q3.33,17.88,17.42,28.33t35,10.45q26.66,0,43.93-17.57l20.29,23.32a68.35,68.35,0,0,1-27.56,19.7q-16.66,6.66-37.57,6.66-26.65,0-47-10.6a76.35,76.35,0,0,1-31.36-29.54q-11.06-18.93-11.06-42.87,0-23.62,10.76-42.56a76.35,76.35,0,0,1,29.84-29.54q19.08-10.59,43-10.6,23.63,0,42.26,10.45a74.08,74.08,0,0,1,29.08,29.39Q1443,211.75,1443,236.59,1443,240.54,1442.38,247.8ZM1330.45,194q-12.59,10.75-15.3,28.63h91.79q-2.43-17.57-14.84-28.48t-30.9-10.9Q1343,183.28,1330.45,194Z"/>
    <path class="bbaa6760-4442-4038-a68f-2c644e13a31d" d="M1609.33,154.8,1540,316.57h-39.08L1431.51,154.8h39.38l50.29,120,51.8-120Z"/>
    <path class="bbaa6760-4442-4038-a68f-2c644e13a31d" d="M1764.28,247.8H1637.34q3.33,17.88,17.42,28.33t35,10.45q26.65,0,43.93-17.57l20.3,23.32a68.38,68.38,0,0,1-27.57,19.7q-16.67,6.66-37.57,6.66-26.65,0-46.95-10.6a76.41,76.41,0,0,1-31.36-29.54q-11.05-18.93-11-42.87,0-23.62,10.75-42.56a76.41,76.41,0,0,1,29.84-29.54q19.08-10.59,43-10.6,23.63,0,42.26,10.45a74.08,74.08,0,0,1,29.08,29.39q10.46,18.93,10.45,43.77Q1764.88,240.54,1764.28,247.8ZM1652.34,194q-12.57,10.75-15.3,28.63h91.79q-2.43-17.57-14.84-28.48t-30.9-10.9Q1664.91,183.28,1652.34,194Z"/>
    <path class="bbaa6760-4442-4038-a68f-2c644e13a31d" d="M1779.24,91.79h37.86V316.57h-37.86Z"/>
    <path class="bbaa6760-4442-4038-a68f-2c644e13a31d" d="M1873.26,308.09a77.32,77.32,0,0,1-30.75-29.54q-11.05-18.93-11-42.87t11-42.71a77.7,77.7,0,0,1,30.75-29.39Q1893,153,1917.49,153q24.84,0,44.53,10.6A77.7,77.7,0,0,1,1992.77,193q11.06,18.78,11.06,42.71t-11.06,42.87A77.32,77.32,0,0,1,1962,308.09q-19.69,10.61-44.53,10.6Q1893,318.69,1873.26,308.09ZM1952,272.34q13.62-13.93,13.63-36.66T1952,199q-13.63-13.93-34.54-13.94T1883.11,199q-13.48,13.93-13.48,36.65t13.48,36.66q13.47,13.94,34.38,13.94T1952,272.34Z"/>
    <path class="bbaa6760-4442-4038-a68f-2c644e13a31d" d="M2150.11,163.28a74.4,74.4,0,0,1,29.24,29.08q10.59,18.79,10.6,43.32t-10.6,43.48a74.06,74.06,0,0,1-29.24,29.23q-18.63,10.31-42.26,10.3-32.71,0-51.8-21.81v78.46h-37.87V154.8h36V176a58.5,58.5,0,0,1,23.18-17.27,78.14,78.14,0,0,1,30.44-5.76Q2131.49,153,2150.11,163.28ZM2138,272.34q13.49-13.93,13.49-36.66T2138,199q-13.47-13.93-34.38-13.94a48.81,48.81,0,0,0-24.54,6.21A44.91,44.91,0,0,0,2061.81,209q-6.37,11.5-6.37,26.65t6.37,26.66a44.84,44.84,0,0,0,17.26,17.73,48.7,48.7,0,0,0,24.54,6.21Q2124.52,286.28,2138,272.34Z"/>
    <path class="bbaa6760-4442-4038-a68f-2c644e13a31d" d="M2366.11,247.8H2239.18q3.33,17.88,17.42,28.33t35,10.45q26.65,0,43.93-17.57l20.29,23.32a68.35,68.35,0,0,1-27.56,19.7q-16.66,6.66-37.57,6.66-26.66,0-47-10.6a76.38,76.38,0,0,1-31.35-29.54q-11.05-18.93-11.06-42.87,0-23.62,10.76-42.56a76.28,76.28,0,0,1,29.84-29.54q19.08-10.59,43-10.6,23.64,0,42.27,10.45a74.08,74.08,0,0,1,29.08,29.39q10.44,18.93,10.45,43.77C2366.72,239.22,2366.51,243,2366.11,247.8ZM2254.18,194q-12.58,10.75-15.3,28.63h91.79q-2.43-17.57-14.85-28.48t-30.9-10.9Q2266.76,183.28,2254.18,194Z"/>
    <path class="bbaa6760-4442-4038-a68f-2c644e13a31d" d="M2477.52,153V189a48.6,48.6,0,0,0-8.79-.91q-22.11,0-34.53,12.88t-12.42,37.11v78.46h-37.87V154.8H2420v23.63Q2436.32,153,2477.52,153Z"/>
    <path class="bbaa6760-4442-4038-a68f-2c644e13a31d" d="M2514.66,313.54q-18.79-5.15-30-13l14.55-28.78a93.4,93.4,0,0,0,26.2,11.67,108.77,108.77,0,0,0,30.14,4.39q33.93,0,33.93-17.87,0-8.48-8.63-11.82t-27.72-6.36q-20-3-32.57-7A50,50,0,0,1,2498.75,231q-9.24-9.84-9.24-27.42,0-23,19.24-36.8T2560.7,153a150.27,150.27,0,0,1,33.33,3.79q16.65,3.79,27.26,10.15l-14.54,28.78q-20.61-12.12-46.35-12.12-16.67,0-25.3,5t-8.63,13.18q0,9.08,9.24,12.87t28.63,7.12a220.78,220.78,0,0,1,31.81,7,49.73,49.73,0,0,1,21.35,13.33q8.94,9.39,8.94,26.65,0,22.73-19.69,36.36t-53.62,13.63A144.92,144.92,0,0,1,2514.66,313.54Z"/>
  </g>
</svg>
