<?xml version="1.0" encoding="utf-8"?>
<!-- Generator: Adobe Illustrator 25.2.0, SVG Export Plug-In . SVG Version: 6.00 Build 0)  -->
<svg version="1.1" id="f4636250-6d13-4c4b-b478-624f82329a8d"
	 xmlns="http://www.w3.org/2000/svg" xmlns:xlink="http://www.w3.org/1999/xlink" x="0px" y="0px" viewBox="0 0 3296.8 454.4"
	 style="enable-background:new 0 0 3296.8 454.4;" xml:space="preserve">
<style type="text/css">
	.st0{fill:#181D27;}
	.st1{fill:url(#SVGID_1_);}
	.st2{fill:#FFFFFF;}
</style>
<g>
	<path class="st0" d="M1541.7,75.7h80.3c72.7,0,120.2,34.7,120.2,109.1s-47.5,109.6-120.2,109.6h-80.3V75.7z M1619.7,257.6
		c47.8,0,78.4-19.7,78.4-72.8c0-52.5-31.2-72.2-78.4-72.2h-35.2v145H1619.7z"/>
	<path class="st0" d="M1838.1,121.2c48.8,0,75.1,35.5,75.1,80.3c0,5-1,16.3-1,16.3h-116.9c2.6,29.5,25.6,44.8,50.8,44.8
		c27.3,0,48.8-18.6,48.8-18.6l16.3,30.2c0,0-25.9,24.2-68.1,24.2c-56.1,0-91-40.5-91-88.6C1752.1,157.7,1787.7,121.2,1838.1,121.2z
		 M1870.7,188.9c-0.7-22.9-14.9-35.2-33.5-35.2c-21.6,0-36.5,13.2-40.5,35.2H1870.7z"/>
	<path class="st0" d="M1908.6,125.2h44.5l35.2,104.9c3.3,9.9,5.6,25.6,5.9,25.6h0.7c0.3,0,2.6-15.6,5.9-25.6l35.2-104.9h44.5
		l-60.7,169.2h-49.8L1908.6,125.2z"/>
	<path class="st0" d="M2162,121.2c48.8,0,75.1,35.5,75.1,80.3c0,5-1,16.3-1,16.3h-116.9c2.6,29.5,25.6,44.8,50.8,44.8
		c27.3,0,48.8-18.6,48.8-18.6l16.3,30.2c0,0-25.9,24.2-68.1,24.2c-56.1,0-91-40.5-91-88.6C2076,157.7,2111.7,121.2,2162,121.2z
		 M2194.5,188.9c-0.7-22.9-14.9-35.2-33.5-35.2c-21.6,0-36.5,13.2-40.5,35.2H2194.5z"/>
	<path class="st0" d="M2257,58.8h41.9v176.6c0,18.6,6.3,23.3,17.2,23.3c3.3,0,6.3-0.3,6.3-0.3v36.8c-4.4,0.6-8.8,1-13.2,1
		c-23.3,0-52.1-5.9-52.1-54.4L2257,58.8L2257,58.8z"/>
	<path class="st0" d="M2420.5,121.2c51.8,0,93.3,36.8,93.3,88.6c0,52.1-41.5,88.6-93,88.6c-51.8,0-93.3-36.5-93.3-88.6
		C2327.5,158,2369,121.2,2420.5,121.2z M2420.8,262.6c27.3,0,50.2-21.2,50.2-52.8c0-31.2-22.9-52.8-50.2-52.8
		c-27.6,0-50.4,21.6-50.4,52.8C2370.3,241.4,2393.3,262.6,2420.8,262.6L2420.8,262.6z"/>
	<path class="st0" d="M2531.5,125.2h38.5v12.3c0,3.9-0.2,7.8-0.7,11.6h0.7c0,0,14.6-27.9,54.4-27.9c45.8,0,75.1,36.2,75.1,88.6
		c0,53.8-32.9,88.6-77.3,88.6c-33.5,0-48.5-23.3-48.5-23.3h-0.7c0.5,4.9,0.7,9.7,0.7,14.6v71.1h-42.2V125.2L2531.5,125.2z
		 M2614.4,263c23.3,0,42.5-18.9,42.5-52.5c0-32.2-17.2-53.1-42.2-53.1c-21.9,0-42.5,16-42.5,53.5
		C2572.3,237.1,2586.6,263,2614.4,263z"/>
	<path class="st0" d="M2802.4,121.2c48.8,0,75.1,35.5,75.1,80.3c0,5-1,16.3-1,16.3h-116.9c2.6,29.5,25.6,44.8,50.8,44.8
		c27.3,0,48.8-18.6,48.8-18.6l16.3,30.2c0,0-25.9,24.2-68.1,24.2c-56.1,0-91-40.5-91-88.6C2716.4,157.7,2751.8,121.2,2802.4,121.2z
		 M2834.9,188.9c-0.7-22.9-14.9-35.2-33.5-35.2c-21.6,0-36.5,13.2-40.5,35.2H2834.9z"/>
	<path class="st0" d="M2897.5,125.2h40.5v29.2c0,4-0.2,8-0.7,12h0.7c7.6-24.2,27.9-43.5,53.8-43.5c2.5,0,5.1,0.3,7.6,0.7V165
		c-3.3-0.5-6.6-0.7-9.9-0.7c-17.9,0-38.2,10.3-46.2,35.5c-2.6,8.3-3.7,17.6-3.7,27.6v67.1h-42.1V125.2L2897.5,125.2z"/>
	<path class="st0" d="M3028.5,244c0,0,18.6,18.6,46.2,18.6c12,0,22.2-5.4,22.2-15.3c0-25.2-82.4-21.9-82.4-76.3
		c0-31.6,28.2-49.8,64.8-49.8c38.2,0,56.8,19.3,56.8,19.3l-15.6,31.2c0,0-15.6-14.6-41.5-14.6c-11,0-21.6,4.7-21.6,15.3
		c0,23.9,82.4,20.9,82.4,75.4c0,28.2-24.5,50.8-64.8,50.8c-42.2,0-65.7-24.9-65.7-24.9L3028.5,244z"/>
</g>
<g>
	<g>
		<path class="st0" d="M1106.8,126.1H1072V91.9c0-1.4-1.1-2.5-2.5-2.5h-36c-1.4,0-2.5,1.1-2.5,2.5v34.2h-20.3
			c-1.4,0-2.5,1.1-2.5,2.5v32.6c0,1.4,1.1,2.5,2.5,2.5h20.3v69.5c0,56.5,45.7,63,69.1,63c0,0,3.9,0,6.5,0c1.4,0,2.5-1.1,2.5-2.5
			v-32.7c0-1.4-1.1-2.5-2.5-2.5c-2.3,0-5.6,0-6.6,0c-12,0.2-28-7.2-28-31.2v-63.7h34.9c1.4,0,2.5-1.1,2.5-2.5v-32.6
			C1109.3,127.2,1108.2,126.1,1106.8,126.1z"/>
	</g>
	<g>
		<path class="st0" d="M778.3,81.7c-0.4-1-1.3-1.6-2.3-1.6H734c-1.1,0-1.9,0.7-2.3,1.6l-81.1,211.2c-0.6,1.7,0.6,3.4,2.3,3.4h39.5
			c1.1,0,2-0.7,2.3-1.7l12.4-36h95.5l12.4,36c0.4,1,1.3,1.7,2.3,1.7h40c1.8,0,2.9-1.8,2.3-3.4L778.3,81.7z M720.2,220.4l34.5-100.8
			h0.5l34.6,100.8H720.2z"/>
	</g>
	<g>
		<path class="st0" d="M989.8,244.4c-0.8-1.4-2.6-1.8-3.8-0.7c-6.2,5.5-24.3,19.4-47.2,19.4c-32,0-52.5-24.4-52.5-52.9
			c0-28.7,20.2-52.2,51.2-52.2c21,0,36.4,11.5,41.8,16.2c1.2,1,2.9,0.8,3.7-0.6l15.9-24.6c0.6-1,0.5-2.2-0.3-3.1
			c-5.3-5.4-25.9-23.7-63.4-23.7c-55.8,0-91.5,40.3-91.5,88.2c0,48.9,35.6,88.2,91.5,88.2c39.1,0,62.5-20.5,68.1-26.1
			c0.8-0.8,1-1.9,0.4-2.9L989.8,244.4z"/>
	</g>
	<g>
		<path class="st0" d="M1433.2,292.4l-53.6-82.9l51.8-79.7c1.1-1.7-0.1-3.9-2.1-3.9h-41.5c-0.9,0-1.8,0.5-2.1,1.3l-25.5,44.9
			c-2.6,4.3-5.6,10.6-5.6,10.6h-0.7c0,0-3-6.2-5.6-10.6l-25.7-44.9c-0.5-0.8-1.3-1.3-2.1-1.3h-32.2h-13.6h-30.6
			c-1.1,0-2,0.7-2.3,1.7l-32.6,96.9c-2.9,8.8-5.5,16.1-5.6,16.4c-0.1-0.4-3-8.3-6.2-17l-35.3-96.1c-0.4-1-1.3-1.7-2.3-1.7h-42.2
			c-1.8,0-3,1.9-2.3,3.5l69.5,166.7l-3,8.9c-5.1,15.1-20,24.4-31.6,24.4c0,0-13.9,0-19.7,0c-1.4,0-2.5,1.1-2.5,2.5v32.7
			c0,1.4,1.1,2.5,2.5,2.5c6,0,20.8,0,21.5,0c25.4,0,49.2-16,61.1-46.6l70.1-181.4l45.7,70.3l-54.6,82.9c-1.1,1.7,0.1,3.9,2,3.9h40.5
			c0.9,0,1.7-0.5,2.1-1.2l30.3-49.2c2.3-3.6,4.6-9,4.6-9h0.7c0,0,2.3,5.3,4.6,9l29.2,49.2c0.5,0.8,1.3,1.3,2.1,1.3h40.6
			C1433,296.3,1434.3,294.1,1433.2,292.4z"/>
	</g>
</g>
<linearGradient id="SVGID_1_" gradientUnits="userSpaceOnUse" x1="325.3" y1="373.5" x2="325.3" y2="9.7">
	<stop  offset="0" style="stop-color:#0056E0"/>
	<stop  offset="1" style="stop-color:#1387FF"/>
</linearGradient>
<path class="st1" d="M429.8,9.7h-209c-42.8,0-77.4,34.7-77.4,77.4v209c0,42.8,34.7,77.4,77.4,77.4h209c42.8,0,77.4-34.7,77.4-77.4
	v-209C507.2,44.4,472.6,9.7,429.8,9.7z"/>
<g>
	<path class="st2" d="M424.8,244.6V122.9c0-0.6-0.4-1.2-0.9-1.6L319.4,61.1c-0.5-0.4-1.2-0.4-1.8,0L215,120.4
		c-1.2,0.7-1.2,2.5,0,3.1l50.5,29.1l52.2-30.2c0.5-0.4,1.2-0.4,1.8,0l51.3,29.6c0.5,0.4,0.9,0.9,0.9,1.6v60.3l0,0l-27.7,16
		L319.4,244c-0.5,0.4-1.2,0.4-1.8,0l-51.3-29.6c-0.5-0.4-0.9-0.9-0.9-1.6v-60.3l-52.2,30.2c-0.5,0.4-0.9,0.9-0.9,1.6v59.2
		c0,0.6,0.4,1.2,0.9,1.6l104.4,60.3c0.5,0.4,1.2,0.4,1.8,0l52.2-30.2l24.5,14.2c0.5,0.4,1.2,0.4,1.8,0l49.5-28.6
		c1.2-0.7,1.2-2.5,0-3.1L424.8,244.6z"/>
</g>
</svg>
