<?xml version="1.0" encoding="utf-8"?>
<!-- Generator: Adobe Illustrator 25.2.0, SVG Export Plug-In . SVG Version: 6.00 Build 0)  -->
<svg version="1.1" id="f4636250-6d13-4c4b-b478-624f82329a8d"
	 xmlns="http://www.w3.org/2000/svg" xmlns:xlink="http://www.w3.org/1999/xlink" x="0px" y="0px" viewBox="0 0 284 32"
	 style="enable-background:new 0 0 284 32;" xml:space="preserve">
<style type="text/css">
	.st0{fill:#181D27;}
	.st1{fill:#515860;}
</style>
<g>
	<g>
		<path class="st0" d="M80.1,10.3h-2.5V7.8c0-0.1-0.1-0.2-0.2-0.2h-2.6c-0.1,0-0.2,0.1-0.2,0.2v2.5h-1.5c-0.1,0-0.2,0.1-0.2,0.2v2.4
			c0,0.1,0.1,0.2,0.2,0.2h1.5v5c0,4.1,3.3,4.6,5,4.6c0,0,0.3,0,0.5,0c0.1,0,0.2-0.1,0.2-0.2V20c0-0.1-0.1-0.2-0.2-0.2
			c-0.2,0-0.4,0-0.5,0c-0.9,0-2-0.5-2-2.3V13h2.5c0.1,0,0.2-0.1,0.2-0.2v-2.4C80.3,10.3,80.2,10.3,80.1,10.3z"/>
	</g>
	<g>
		<path class="st0" d="M56.4,7c0-0.1-0.1-0.1-0.2-0.1h-3C53.1,6.9,53.1,7,53,7l-5.9,15.3c0,0.1,0,0.2,0.2,0.2h2.9
			c0.1,0,0.1-0.1,0.2-0.1l0.9-2.6h6.9l0.9,2.6c0,0.1,0.1,0.1,0.2,0.1h2.9c0.1,0,0.2-0.1,0.2-0.2L56.4,7z M52.2,17.1l2.5-7.3h0
			l2.5,7.3H52.2z"/>
	</g>
	<g>
		<path class="st0" d="M71.7,18.8c-0.1-0.1-0.2-0.1-0.3-0.1c-0.4,0.4-1.8,1.4-3.4,1.4c-2.3,0-3.8-1.8-3.8-3.8c0-2.1,1.5-3.8,3.7-3.8
			c1.5,0,2.6,0.8,3,1.2c0.1,0.1,0.2,0.1,0.3,0l1.1-1.8c0-0.1,0-0.2,0-0.2c-0.4-0.4-1.9-1.7-4.6-1.7c-4,0-6.6,2.9-6.6,6.4
			c0,3.5,2.6,6.4,6.6,6.4c2.8,0,4.5-1.5,4.9-1.9c0.1-0.1,0.1-0.1,0-0.2L71.7,18.8z"/>
	</g>
	<g>
		<path class="st0" d="M103.7,22.3l-3.9-6l3.7-5.8c0.1-0.1,0-0.3-0.2-0.3h-3c-0.1,0-0.1,0-0.2,0.1l-1.8,3.2
			c-0.2,0.3-0.4,0.8-0.4,0.8H98c0,0-0.2-0.4-0.4-0.8l-1.9-3.2c0-0.1-0.1-0.1-0.2-0.1h-2.3h-1H90c-0.1,0-0.1,0.1-0.2,0.1l-2.4,7
			c-0.2,0.6-0.4,1.2-0.4,1.2c0,0-0.2-0.6-0.4-1.2l-2.5-6.9c0-0.1-0.1-0.1-0.2-0.1h-3c-0.1,0-0.2,0.1-0.2,0.3l5,12l-0.2,0.6
			c-0.4,1.1-1.4,1.8-2.3,1.8c0,0-1,0-1.4,0c-0.1,0-0.2,0.1-0.2,0.2v2.4c0,0.1,0.1,0.2,0.2,0.2c0.4,0,1.5,0,1.6,0
			c1.8,0,3.6-1.2,4.4-3.4l5.1-13.1l3.3,5.1l-3.9,6c-0.1,0.1,0,0.3,0.1,0.3h2.9c0.1,0,0.1,0,0.2-0.1l2.2-3.6c0.2-0.3,0.3-0.7,0.3-0.7
			H98c0,0,0.2,0.4,0.3,0.7l2.1,3.6c0,0.1,0.1,0.1,0.2,0.1h2.9C103.7,22.5,103.8,22.4,103.7,22.3z"/>
	</g>
</g>
<g>
	<path class="st0" d="M39.6,21V8.9c0-0.1,0-0.1-0.1-0.2l-10.4-6c0,0-0.1,0-0.2,0L18.7,8.7c-0.1,0.1-0.1,0.2,0,0.3l5,2.9l5.2-3
		c0,0,0.1,0,0.2,0l5.1,2.9c0,0,0.1,0.1,0.1,0.2v6l0,0l-2.8,1.6L29.1,21c0,0-0.1,0-0.2,0L23.8,18c0,0-0.1-0.1-0.1-0.2v-6l-5.2,3
		c0,0-0.1,0.1-0.1,0.2v5.9c0,0.1,0,0.1,0.1,0.2l10.4,6c0,0,0.1,0,0.2,0l5.2-3l2.4,1.4c0,0,0.1,0,0.2,0l4.9-2.8
		c0.1-0.1,0.1-0.2,0-0.3L39.6,21z"/>
</g>
<g>
	<path class="st1" d="M118.2,6.5h-5.4v16.1h5.4c5.1,0,8.2-3.1,8.2-8.1C126.4,9.5,123.2,6.5,118.2,6.5z M118,20.3h-2.6V8.7h2.6
		c3.5,0,5.6,2.2,5.6,5.8C123.6,18.1,121.5,20.3,118,20.3z"/>
	<path class="st1" d="M127.1,16.8c0,3.5,2.6,6,6.2,6c2.5,0,4.2-1.2,4.5-1.6l-1-1.8c-0.4,0.3-1.7,1.2-3.3,1.2c-1.7,0-3.5-1-3.7-3.3
		l0-0.2h8.2c0-0.2,0.1-0.7,0.1-1c0-3.3-2-5.4-5.1-5.4C129.5,10.8,127.1,13.3,127.1,16.8z M135.4,15.4l0,0.2h-5.5l0-0.2
		c0.3-1.6,1.4-2.6,3-2.6C134.3,12.8,135.3,13.8,135.4,15.4z"/>
	<path class="st1" d="M143.8,19.7c-0.1,0.4-0.1,0.4-0.2,0.4h0c-0.1,0-0.1,0-0.2-0.4c-0.1-0.4-0.2-1-0.3-1.5l-2.4-7.2h-2.8l4.2,11.5
		h3.3l4.1-11.5h-2.8l-2.4,7.2C144,18.7,143.9,19.4,143.8,19.7z"/>
	<path class="st1" d="M149.1,16.8c0,3.5,2.6,6,6.2,6c2.5,0,4.2-1.2,4.5-1.6l-1-1.8c-0.4,0.3-1.7,1.2-3.3,1.2c-1.7,0-3.5-1-3.7-3.3
		l0-0.2h8.2c0-0.2,0.1-0.7,0.1-1c0-3.3-2-5.4-5.1-5.4C151.5,10.8,149.1,13.3,149.1,16.8z M157.4,15.4l0,0.2h-5.5l0-0.2
		c0.3-1.6,1.4-2.6,3-2.6C156.3,12.8,157.3,13.8,157.4,15.4z"/>
	<path class="st1" d="M163.8,18.6V6.5h-2.6V19c0,3.2,1.9,3.6,3.5,3.6c0.3,0,0.6,0,0.8,0v-2.3c-0.1,0-0.2,0-0.3,0
		C164.2,20.4,163.8,19.8,163.8,18.6z"/>
	<path class="st1" d="M172,10.8c-3.6,0-6.3,2.6-6.3,6c0,3.4,2.7,6,6.3,6c3.6,0,6.3-2.6,6.3-6C178.3,13.4,175.6,10.8,172,10.8z
		 M172,20.6c-2.1,0-3.7-1.6-3.7-3.8s1.6-3.8,3.7-3.8c2.1,0,3.6,1.6,3.6,3.8S174.1,20.6,172,20.6z"/>
	<path class="st1" d="M182.3,12.7L182.3,12.7l-0.3,0.1l0-0.2c0,0,0-0.4,0-0.8v-0.7h-2.4v16.1h2.6v-4.8c0-0.6,0-1,0-1l0-0.2h0.3
		l0,0.1c0,0,1,1.5,3.2,1.5c3.1,0,5.2-2.5,5.2-6c0-3.6-2-6-5.1-6C183.3,10.8,182.3,12.6,182.3,12.7z M188.3,16.9
		c0,2.2-1.3,3.8-3.1,3.8c-2,0-3.1-1.9-3.1-3.8c0-2.9,1.7-3.9,3.1-3.9C187.1,13,188.3,14.6,188.3,16.9z"/>
	<path class="st1" d="M191.5,16.8c0,3.5,2.6,6,6.2,6c2.5,0,4.2-1.2,4.5-1.6l-1-1.8c-0.4,0.3-1.7,1.2-3.3,1.2c-1.7,0-3.5-1-3.7-3.3
		l0-0.2h8.2c0-0.2,0.1-0.7,0.1-1c0-3.3-2-5.4-5.1-5.4C193.9,10.8,191.5,13.3,191.5,16.8z M199.7,15.4l0,0.2h-5.5l0-0.2
		c0.3-1.6,1.4-2.6,3-2.6C198.7,12.8,199.7,13.8,199.7,15.4z"/>
	<path class="st1" d="M206.5,13.8l0,0.1h-0.3l0-0.2c0,0,0-0.4,0-0.8v-1.9h-2.5v11.5h2.6V18c0-0.8,0.1-1.4,0.3-2
		c0.6-1.9,2.1-2.6,3.4-2.6c0.2,0,0.4,0,0.5,0v-2.6c-0.1,0-0.2,0-0.4,0C208.5,10.9,207.1,12.1,206.5,13.8z"/>
	<path class="st1" d="M221.5,6.5h-5.4v16.1h5.4c5.1,0,8.2-3.1,8.2-8.1C229.8,9.5,226.6,6.5,221.5,6.5z M221.4,20.3h-2.6V8.7h2.6
		c3.5,0,5.6,2.2,5.6,5.8C227,18.1,224.9,20.3,221.4,20.3z"/>
	<path class="st1" d="M236.8,10.8c-3.6,0-6.3,2.6-6.3,6c0,3.4,2.7,6,6.3,6c3.6,0,6.3-2.6,6.3-6C243.1,13.4,240.4,10.8,236.8,10.8z
		 M236.8,20.6c-2.1,0-3.7-1.6-3.7-3.8s1.6-3.8,3.7-3.8c2.1,0,3.6,1.6,3.6,3.8S238.9,20.6,236.8,20.6z"/>
	<path class="st1" d="M250,20.6c-2.2,0-3.8-1.7-3.8-3.8c0-2.2,1.6-3.8,3.7-3.8c1.6,0,2.7,0.9,3,1.2l1.1-1.8
		c-0.3-0.3-1.8-1.6-4.3-1.6c-3.6,0-6.2,2.5-6.2,6s2.6,6,6.2,6c2.5,0,4.1-1.2,4.6-1.7l0.1-0.1l-1-1.8C253,19.6,251.7,20.6,250,20.6z"
		/>
	<path class="st1" d="M263.4,19.5c0-2.2-2-3-3.6-3.6c-1.1-0.5-2.1-0.8-2.1-1.6c0-0.8,0.8-1.2,1.7-1.2c1.5,0,2.5,0.6,2.8,0.9l1-1.9
		c-0.3-0.3-1.6-1.2-3.8-1.2c-2.6,0-4.4,1.3-4.4,3.3c0,2.2,2,3,3.6,3.6c1.2,0.5,2.2,0.9,2.2,1.7c0,0.7-0.7,1.2-1.7,1.2
		c-1.6,0-2.8-0.9-3.2-1.2l-1,1.6l0,0.1l-0.1,0.1c0,0,0,0-0.1,0.1c0.4,0.4,1.9,1.6,4.4,1.6C261.6,22.8,263.4,21.4,263.4,19.5z"/>
	<path class="st1" d="M254.8,21.1L254.8,21.1l-0.2,0.1c0,0,0,0,0,0C254.7,21.2,254.7,21.2,254.8,21.1L254.8,21.1z"/>
</g>
<text transform="matrix(1 0 0 1 110.001 141.6568)" style="fill:#2B313A;stroke:#FFFFFF;stroke-width:0.3;stroke-miterlimit:10; font-family:'MuseoSans-700'; font-size:23.099px; letter-spacing:-1;">Developer Docs</text>
</svg>
