<svg id="f185c357-da66-4c4f-9942-8fd2faf6aa06" data-name="Layer 1" xmlns="http://www.w3.org/2000/svg" width="512" height="512" viewBox="0 0 512 512">
  <defs>
    <style>
      .ea818ea9-8e42-4952-ba3e-a8db367a0a1c {
        fill: #1998ff;
      }
    </style>
  </defs>
  <path class="ea818ea9-8e42-4952-ba3e-a8db367a0a1c" d="M453.53,384.29V129.88a3.78,3.78,0,0,0-1.88-3.26L233.21.5a3.79,3.79,0,0,0-3.77,0l-214.68,124a3.76,3.76,0,0,0,0,6.52l105.46,60.88,109.22-63a3.74,3.74,0,0,1,3.77,0l107.33,62a3.75,3.75,0,0,1,1.89,3.26V320.14h0l-58,33.47L233.21,383.2a3.74,3.74,0,0,1-3.77,0l-107.34-62a3.76,3.76,0,0,1-1.88-3.26V191.85L11,255a3.75,3.75,0,0,0-1.88,3.26V382.12A3.75,3.75,0,0,0,11,385.38L229.44,511.5a3.79,3.79,0,0,0,3.77,0l109.22-63.06L393.66,478a3.79,3.79,0,0,0,3.77,0L501,418.22a3.76,3.76,0,0,0,0-6.52Z"/>
</svg>
