<svg xmlns="http://www.w3.org/2000/svg" xmlns:xlink="http://www.w3.org/1999/xlink" width="1310.93" height="835.37" viewBox="0 0 1310.93 835.37">
  <defs>
    <style>
      .f2088759-f5d4-43c9-9a97-fe081eac6e94 {
        fill: none;
      }

      .fefa34c7-e669-4141-b412-bfa4b29e2674 {
        fill: #dceaf4;
      }

      .bfe39f6d-50f9-40da-a62c-64ce518670eb {
        fill: url(#bb281113-17ba-4259-ac62-f1bcae6f3baf);
      }

      .a6ce9f9e-d546-4e3a-8da9-56f61a30fde8 {
        fill: #1998ff;
      }

      .bfe9f72f-8f3f-4892-9539-0a2a39887661 {
        fill: #fff;
      }

      .a5b3cc5d-43dd-404e-bd32-58bc8e9f42b9, .aaf3d964-4e13-4dbe-8c4e-d831d6daaa00 {
        fill: #75828e;
      }

      .f2de1fff-60b7-4afc-9944-d382d846d16c {
        fill: #c0e4ff;
      }

      .ee34ac3c-9dd4-4c6a-972c-d317d50f0953 {
        fill: #eff5f9;
      }

      .b8c6328d-611b-4763-aaa1-f87daec68963, .f7df91b9-a9be-4826-84d8-0f63470956a1 {
        fill: #053151;
      }

      .fdf704e9-87d6-4828-be3b-39a895e1ae4e {
        fill: #7ac8fc;
      }

      .add604a7-39ae-4f81-b7ee-fbc24ae46a0a {
        fill: #0086e8;
      }

      .aeded329-d3e4-4358-93ab-196d35a63289 {
        fill: #5ec5fc;
      }

      .aaf3d964-4e13-4dbe-8c4e-d831d6daaa00 {
        stroke: #75828e;
      }

      .aaf3d964-4e13-4dbe-8c4e-d831d6daaa00, .f7df91b9-a9be-4826-84d8-0f63470956a1 {
        stroke-miterlimit: 10;
        stroke-width: 0.3px;
      }

      .f78d1769-f4e2-4854-81c2-5474901c7678 {
        opacity: 0.3;
      }

      .f7df91b9-a9be-4826-84d8-0f63470956a1 {
        stroke: #053151;
      }
    </style>
    <pattern id="bb281113-17ba-4259-ac62-f1bcae6f3baf" data-name="Docs Polka Background" width="60" height="60" patternTransform="translate(1244.61 2349.82) scale(0.87 0.74)" patternUnits="userSpaceOnUse" viewBox="0 0 60 60">
      <rect class="f2088759-f5d4-43c9-9a97-fe081eac6e94" width="60" height="60"/>
      <circle class="fefa34c7-e669-4141-b412-bfa4b29e2674" cx="30" cy="30" r="2.47"/>
    </pattern>
  </defs>
  <g id="aedeeed6-7ac4-4ffe-b2d6-2d466fbaf46d" data-name="Layer 2">
    <rect class="bfe39f6d-50f9-40da-a62c-64ce518670eb" x="0.13" y="-0.09" width="1308.56" height="835.01"/>
  </g>
  <g id="bafead82-cf49-4c40-8347-9b584316d125" data-name="Layer 1">
    <rect class="a6ce9f9e-d546-4e3a-8da9-56f61a30fde8" x="356.48" y="171.03" width="594.45" height="2"/>
    <path class="a6ce9f9e-d546-4e3a-8da9-56f61a30fde8" d="M939.87,186.5l-1.43-1.4,12.16-12.42a1.5,1.5,0,0,0,0-1.34l-12.16-12.43,1.43-1.39L952,169.94a3.28,3.28,0,0,1,0,4.14Z"/>
    <path class="a6ce9f9e-d546-4e3a-8da9-56f61a30fde8" d="M367.8,186.5l1.43-1.4-12.15-12.42a1.44,1.44,0,0,1,0-1.34l12.15-12.43-1.43-1.39-12.15,12.42a3.26,3.26,0,0,0,0,4.14Z"/>
    <g>
      <g>
        <g>
          <path class="bfe9f72f-8f3f-4892-9539-0a2a39887661" d="M88.32,846.94C100.61,827.47,155.19,722,177.74,722s82-64.57,96.34-83,19.47-36.89,40-56.37S338.64,391,328.39,359.21s-74.81-77.89-110.68-45.1S96.77,440.17,91.65,441.2s3-21,8.2-33.82c7.51-18.45,13.32-88.48,11.27-102.83s-9.22-27.84-16.91-33.48-20.5,18.45-26.65,45.61-22,39.45-25.11,48.68-7.68,48.17-26.13,77.38-13.15,29.55-7,74.64,15,90.87,6.14,109.32-60.12,99.07-82,116.84A194.93,194.93,0,0,0-20.88,761.8c33.17,8.33-8,78.38,9.32,84.14C25.94,858.44,88.32,846.94,88.32,846.94Z"/>
          <path class="a5b3cc5d-43dd-404e-bd32-58bc8e9f42b9" d="M33.4,852.23c-15.62,0-31.94-1.42-45.12-5.81-7.71-2.57-4.6-16.53-1-32.69C-7.82,791.82-2.28,767-21,762.29A197.42,197.42,0,0,1-66.78,744l-.62-.36.56-.46c21.75-17.67,73-98.21,81.85-116.66,7.4-15.35,2.3-50.35-3.1-87.4-1-7.08-2.1-14.4-3.09-21.64-1.13-8.3-2.21-15-3.17-20.82C1.5,471.06.75,466.46,15.9,442.47c14.13-22.37,20-50,23.53-66.52,1-4.8,1.83-8.59,2.55-10.75,1.07-3.21,3.59-6.69,6.78-11.09,6-8.33,14.28-19.73,18.32-37.54,5.34-23.63,15.16-43.6,22.82-46.46a4.6,4.6,0,0,1,4.61.56c8.07,5.92,15.11,19.82,17.11,33.81,2.14,15-4,85.1-11.31,103.09-7.47,18.33-11.08,31-9.43,33,.11.13.27.25.67.17,2.36-.47,25.42-24.54,49.83-50,27.06-28.24,57.72-60.24,76-76.94,11.94-10.92,28.12-14.08,46.78-9.13,13.81,3.66,28.33,11.64,40.88,22.46,11.91,10.27,20.6,21.92,23.84,32,5,15.39,6.81,64.39,4.38,116.5-1,22-5.41,94.66-18.86,107.44-12.57,11.93-19.41,23.62-26,34.92a189.48,189.48,0,0,1-13.89,21.39c-15.6,20.06-74.35,83.21-96.73,83.21-18,0-57,68.66-77.9,105.55-4.89,8.62-8.76,15.43-11.1,19.14l-.12.18-.21,0A346,346,0,0,1,33.4,852.23ZM-65.65,743.46a196.56,196.56,0,0,0,44.9,17.85c19.66,4.94,14,30.28,9,52.64-3.5,15.69-6.52,29.23.34,31.52,35.85,11.95,95.35,1.74,99.41,1,2.34-3.73,6.16-10.45,11-18.91,21-37.07,60.22-106.06,78.77-106.06,22,0,80.41-62.86,95.94-82.83a188.43,188.43,0,0,0,13.82-21.27c6.65-11.36,13.53-23.11,26.2-35.15,8.89-8.45,15.83-48.36,18.55-106.76,2.39-51.16.52-101.1-4.33-116.15-6.14-19-33.95-45.8-64-53.77-12.78-3.39-31.1-4.59-45.85,8.89-18.25,16.68-48.9,48.68-76,76.91-30.45,31.78-47.81,49.79-50.35,50.3a1.63,1.63,0,0,1-1.64-.51c-2.66-3.23,4.67-22.68,9.27-34,7.29-17.89,13.38-87.61,11.25-102.57-2-13.74-8.84-27.37-16.72-33.15a3.64,3.64,0,0,0-3.66-.43c-7.25,2.71-17,22.81-22.2,45.75-4.08,18-12.4,29.51-18.48,37.9-3.14,4.34-5.62,7.76-6.64,10.83-.71,2.11-1.51,5.87-2.52,10.64C36.88,392.74,31,420.48,16.74,443,1.79,466.67,2.53,471.22,6.64,496.47c1,5.87,2,12.53,3.17,20.84,1,7.24,2,14.56,3.09,21.64,5.42,37.2,10.54,72.34,3,88C7.08,645.26-43.5,724.82-65.65,743.46Z"/>
        </g>
        <g>
          <path class="bfe9f72f-8f3f-4892-9539-0a2a39887661" d="M88.31,847.4a.42.42,0,0,1-.24-.07.47.47,0,0,1-.15-.64c2.19-3.45,4.83-8,7.9-13.34,14.42-25,63.11-111.8,81.92-111.8,22,0,80.44-62.86,96-82.83a189.43,189.43,0,0,0,13.82-21.28c6.65-11.36,13.53-23.11,26.2-35.14,8.9-8.46,15.83-48.38,18.56-106.79,2.42-52,.6-100.86-4.34-116.16-6.14-19.05-34-45.83-64-53.8-12.79-3.39-31.13-4.59-45.89,8.91-18.24,16.68-48.9,48.67-75.94,76.9-29.56,30.85-47.81,49.79-50.34,50.29a1.55,1.55,0,0,1-1.6-.5c-2.65-3.21,4.67-22.65,9.28-33.95,7.29-17.89,13.38-87.62,11.24-102.59-2-13.74-8.84-27.39-16.72-33.17a3.67,3.67,0,0,0-3.7-.43c-7.27,2.71-17,22.82-22.23,45.77-4.07,18-12.4,29.5-18.47,37.89-3.14,4.34-5.62,7.76-6.65,10.84-.7,2.11-1.5,5.87-2.52,10.64-3.53,16.58-9.44,44.32-23.66,66.83C1.76,466.66,2.5,471.22,6.6,496.48c1,5.87,2,12.53,3.17,20.84,1,7.23,2.06,14.55,3.09,21.63,5.42,37.2,10.54,72.34,3,87.95C7,645.4-44.4,726.15-66.23,743.9a.46.46,0,0,1-.65-.07.45.45,0,0,1,.06-.65C-45.06,725.5,6.16,645,15.05,626.5c7.39-15.36,2.29-50.36-3.11-87.41-1-7.08-2.1-14.41-3.08-21.65-1.14-8.3-2.22-15-3.17-20.81-4.16-25.56-4.9-30.16,10.24-54.14,14.13-22.38,20-50,23.53-66.53,1-4.8,1.83-8.59,2.55-10.75,1.07-3.21,3.59-6.68,6.78-11.08,6-8.33,14.29-19.74,18.32-37.56C72.46,293,82.26,273,89.91,270.14a4.57,4.57,0,0,1,4.57.56c8.07,5.91,15.1,19.81,17.1,33.78,2.15,15-4,85.09-11.3,103.07-7.48,18.35-11.09,31-9.42,33,.1.13.28.27.7.19,2.37-.48,25.43-24.55,49.85-50,27.05-28.24,57.72-60.25,76-77,11.93-10.9,28.09-14.06,46.74-9.11,30.38,8,58.48,35.13,64.7,54.41,5,15.39,6.8,64.38,4.37,116.48-2.73,58.65-9.78,98.8-18.84,107.42-12.58,11.94-19.42,23.63-26,34.93a189.48,189.48,0,0,1-13.89,21.39c-15.6,20.05-74.33,83.19-96.7,83.19-18.27,0-66.81,86.54-81.12,111.33-3.07,5.32-5.72,9.91-7.91,13.38A.46.46,0,0,1,88.31,847.4Z"/>
          <path class="a5b3cc5d-43dd-404e-bd32-58bc8e9f42b9" d="M88.31,847.9a1,1,0,0,1-.51-.14,1,1,0,0,1-.3-1.33c2.19-3.46,4.83-8,7.89-13.33l2.9-5.05c18.39-32,61.46-107,79.45-107,21.88,0,80.08-62.72,95.58-82.64a188,188,0,0,0,13.78-21.23c6.67-11.39,13.57-23.16,26.28-35.24,8.81-8.37,15.69-48.17,18.41-106.45,2.42-51.95.61-100.73-4.31-116-6.11-18.92-33.77-45.53-63.7-53.47-12.67-3.35-30.82-4.55-45.42,8.8-18.23,16.66-48.86,48.63-75.89,76.85-33.26,34.7-48.09,49.95-50.63,50.46a2,2,0,0,1-2.08-.67C87.08,438.23,93.28,420.94,99,407c7.27-17.85,13.35-87.41,11.22-102.34-2-13.62-8.75-27.13-16.53-32.83a3.15,3.15,0,0,0-3.23-.37c-7.12,2.66-16.74,22.61-21.91,45.41C64.4,335,56,346.54,49.94,355c-3.11,4.31-5.57,7.7-6.57,10.7-.7,2.09-1.5,5.84-2.51,10.6-3.54,16.6-9.46,44.4-23.73,67C2.28,466.77,3,471.29,7.1,496.4c1,5.87,2,12.51,3.17,20.85,1,7.15,2,14.39,3.05,21.39l0,.24c5.44,37.28,10.57,72.49,3,88.24C7.42,645.64-44,726.51-65.92,744.29a1,1,0,0,1-.7.21,1,1,0,0,1-.65-.35,1,1,0,0,1,.14-1.36c21.71-17.64,72.85-98.08,81.73-116.5,7.33-15.23,2.24-50.15-3.15-87.13-1-7.06-2.1-14.37-3.09-21.65-1.13-8.28-2.21-14.91-3.16-20.77C1,471,.26,466.36,15.5,442.22c14.09-22.3,20-49.88,23.48-66.36,1-4.83,1.83-8.62,2.56-10.81,1.09-3.28,3.63-6.78,6.84-11.21,6-8.3,14.23-19.66,18.24-37.38C72,292.7,81.94,272.59,89.74,269.67a5.07,5.07,0,0,1,5,.62c8.17,6,15.28,20,17.29,34.12,2.16,15.07-4,85.3-11.33,103.33-8.29,20.36-10.75,31-9.5,32.51,0,0,.07,0,.22,0,2.27-.51,26.3-25.59,49.54-49.84,27.12-28.3,57.78-60.31,76.06-77,12.06-11,28.39-14.21,47.21-9.23,30.53,8.09,58.78,35.35,65,54.74,5,15.45,6.83,64.51,4.4,116.67-2.74,58.77-9.84,99.05-19,107.75-12.52,11.89-19.35,23.55-25.95,34.82a188.47,188.47,0,0,1-13.92,21.44C259.2,659.69,200.28,723,177.74,723c-16.88,0-61.09,77-77.73,105.94-1.1,1.92-2.09,3.64-3,5.14-3.07,5.33-5.73,9.92-7.92,13.39A.94.94,0,0,1,88.31,847.9Z"/>
        </g>
      </g>
      <g>
        <g>
          <path class="bfe9f72f-8f3f-4892-9539-0a2a39887661" d="M66.71,320.61c3.07.34,12.3-15.38,16.4-27.68s7.51-20.15,7.51-22.54-1-12.64-4.1-14.69-12.79,23.81-15.37,33.48C68.42,299.42,66.71,320.61,66.71,320.61Z"/>
          <path class="a5b3cc5d-43dd-404e-bd32-58bc8e9f42b9" d="M66.79,321.11h-.14l-.48-.05,0-.48c0-.22,1.74-21.35,4.46-31.52,2-7.57,10.78-32.29,15-33.87a1.2,1.2,0,0,1,1.15.1c3.52,2.34,4.32,13.5,4.32,15.11s-1.2,4.84-3.19,10.32c-1.22,3.36-2.74,7.55-4.35,12.38C79.61,305,70.51,321.11,66.79,321.11Zm19.36-65-.15,0c-3.23,1.22-11.73,23.29-14.37,33.19-2.42,9.1-4.06,27.1-4.37,30.71,3-1.32,11.37-15.23,15.37-27.23,1.62-4.85,3.14-9,4.36-12.41,1.82-5,3.13-8.62,3.13-10,0-2.82-1.16-12.47-3.87-14.28A.2.2,0,0,0,86.15,256.08Z"/>
        </g>
        <g>
          <path class="bfe9f72f-8f3f-4892-9539-0a2a39887661" d="M66.78,321.07h-.12a.47.47,0,0,1-.41-.5c0-.21,1.74-21.34,4.45-31.51,2.15-8.06,11-32.33,15-33.85a1.2,1.2,0,0,1,1.12.1c3.5,2.34,4.31,13.48,4.31,15.08s-1.2,4.83-3.19,10.31c-1.22,3.36-2.74,7.55-4.35,12.38C79.63,304.84,70.4,321.07,66.78,321.07Zm19.37-65a.41.41,0,0,0-.16,0c-3.24,1.22-11.75,23.31-14.39,33.22-2.44,9.14-4.08,27.29-4.38,30.76,3-1.22,11.42-15.2,15.45-27.27,1.61-4.85,3.13-9,4.36-12.41,1.82-5,3.13-8.62,3.13-10,0-2.83-1.17-12.49-3.89-14.31A.28.28,0,0,0,86.15,256Z"/>
          <path class="a5b3cc5d-43dd-404e-bd32-58bc8e9f42b9" d="M66.78,321.57H66.6a1,1,0,0,1-.85-1c0-.21,1.73-21.35,4.47-31.6A194.22,194.22,0,0,1,77,269.49c3.71-9.06,6.56-14,8.46-14.75a1.69,1.69,0,0,1,1.58.16c4,2.69,4.53,15.36,4.53,15.49,0,1.62-1.22,4.95-3.22,10.48-1.22,3.35-2.73,7.51-4.35,12.37C80.38,304.17,71,321.57,66.78,321.57Zm19.32-65c-2.2,1.17-10.1,18.13-14,32.84-2.25,8.43-3.81,24.52-4.27,29.67,3.25-2.79,10.58-15.06,14.38-26.46,1.62-4.84,3.14-9,4.36-12.4,1.74-4.79,3.11-8.56,3.11-9.84C89.66,267.12,88.41,258.37,86.1,256.58Z"/>
        </g>
      </g>
      <g>
        <path class="bfe9f72f-8f3f-4892-9539-0a2a39887661" d="M94.38,466.43H94.3a.46.46,0,0,1-.38-.53c1.45-8.34-.74-14.3-2.67-19.55a31.86,31.86,0,0,1-2.11-7.49.45.45,0,0,1,.41-.5.46.46,0,0,1,.51.41A30.8,30.8,0,0,0,92.12,446c1.87,5.1,4.2,11.44,2.72,20A.47.47,0,0,1,94.38,466.43Z"/>
        <path class="a5b3cc5d-43dd-404e-bd32-58bc8e9f42b9" d="M94.38,466.93l-.19,0a1,1,0,0,1-.6-.39,1,1,0,0,1-.16-.72c1.42-8.21-.74-14.09-2.65-19.29a32,32,0,0,1-2.14-7.61.94.94,0,0,1,.21-.7,1,1,0,0,1,.65-.35,1,1,0,0,1,1.06.86,30.68,30.68,0,0,0,2,7.14c1.89,5.15,4.25,11.56,2.74,20.28A1,1,0,0,1,94.38,466.93Z"/>
      </g>
      <g>
        <path class="bfe9f72f-8f3f-4892-9539-0a2a39887661" d="M282.28,617.43h0a.47.47,0,0,1-.43-.5c.5-5.93-6.72-26.94-17.75-35.47a.46.46,0,0,1-.09-.65.47.47,0,0,1,.65-.08c11.48,8.86,18.64,30,18.12,36.28A.47.47,0,0,1,282.28,617.43Z"/>
        <path class="a5b3cc5d-43dd-404e-bd32-58bc8e9f42b9" d="M282.28,617.93h0a1,1,0,0,1-.7-.34.91.91,0,0,1-.22-.7c.48-5.85-6.65-26.6-17.57-35a1,1,0,0,1,1.18-1.53c11.6,9,18.83,30.39,18.3,36.72A1,1,0,0,1,282.28,617.93Zm-11.9-30.57a67.62,67.62,0,0,1,9.4,17.84A66.2,66.2,0,0,0,270.38,587.36Z"/>
      </g>
      <g>
        <path class="bfe9f72f-8f3f-4892-9539-0a2a39887661" d="M220.78,641a.47.47,0,0,1-.31-.12C208.73,630,204.08,600.2,201,580.52c-.82-5.23-1.52-9.75-2.19-12.64a.46.46,0,1,1,.9-.21c.68,2.92,1.38,7.46,2.21,12.71,2.87,18.37,7.68,49.11,19.18,59.82a.47.47,0,0,1,0,.65A.45.45,0,0,1,220.78,641Z"/>
        <path class="a5b3cc5d-43dd-404e-bd32-58bc8e9f42b9" d="M220.78,641.5a.92.92,0,0,1-.65-.26c-11.87-11-16.53-40.89-19.62-60.64-.82-5.22-1.52-9.73-2.19-12.61a1,1,0,1,1,1.88-.43c.67,2.93,1.38,7.44,2.2,12.67,2.87,18.38,7.67,49,19,59.6a1,1,0,0,1,.05,1.36A1,1,0,0,1,220.78,641.5Z"/>
      </g>
      <g>
        <path class="bfe9f72f-8f3f-4892-9539-0a2a39887661" d="M46.22,369.9a16.91,16.91,0,0,1-4.4-.51.46.46,0,1,1,.24-.89c5.45,1.48,14-1,14.1-1a.45.45,0,0,1,.57.31.44.44,0,0,1-.31.57A40.74,40.74,0,0,1,46.22,369.9Z"/>
        <path class="a5b3cc5d-43dd-404e-bd32-58bc8e9f42b9" d="M46.22,370.4a17,17,0,0,1-4.53-.53.92.92,0,0,1-.59-.45,1,1,0,0,1-.09-.73,1,1,0,0,1,.45-.58,1,1,0,0,1,.74-.09c5.31,1.45,13.73-1,13.82-1a1,1,0,0,1,1.19.65.89.89,0,0,1-.08.73.91.91,0,0,1-.57.46A41.55,41.55,0,0,1,46.22,370.4Z"/>
      </g>
      <g>
        <path class="bfe9f72f-8f3f-4892-9539-0a2a39887661" d="M39.82,379.69a2.79,2.79,0,0,1-.53,0,.47.47,0,0,1-.37-.55.47.47,0,0,1,.55-.36c2,.39,9.34-2.8,12-4.06a.47.47,0,0,1,.62.22.46.46,0,0,1-.22.61C50.92,376,43,379.69,39.82,379.69Z"/>
        <path class="a5b3cc5d-43dd-404e-bd32-58bc8e9f42b9" d="M39.82,380.19a3,3,0,0,1-.63-.05,1,1,0,0,1-.61-.41.95.95,0,0,1,.27-1.34,1,1,0,0,1,.72-.14c1.56.31,7.78-2.17,11.7-4a1,1,0,0,1,.73,0,.95.95,0,0,1,.58,1.23.93.93,0,0,1-.49.54C51.18,376.4,43.08,380.19,39.82,380.19Z"/>
      </g>
      <g>
        <path class="bfe9f72f-8f3f-4892-9539-0a2a39887661" d="M97.28,408.87a.45.45,0,0,1-.37-.2c-5-7-14.65-13.65-14.75-13.72a.46.46,0,0,1-.12-.64.46.46,0,0,1,.64-.12c.1.06,9.87,6.79,15,13.94a.47.47,0,0,1-.11.65A.44.44,0,0,1,97.28,408.87Z"/>
        <path class="a5b3cc5d-43dd-404e-bd32-58bc8e9f42b9" d="M97.28,409.37a1,1,0,0,1-.78-.41c-4.93-6.9-14.52-13.53-14.62-13.6a.91.91,0,0,1-.4-.61,1,1,0,0,1,.15-.73,1,1,0,0,1,1.34-.25c.09.07,9.9,6.79,15.1,14.07a1,1,0,0,1-.23,1.35A1,1,0,0,1,97.28,409.37Z"/>
      </g>
    </g>
    <g>
      <g>
        <path class="f2de1fff-60b7-4afc-9944-d382d846d16c" d="M322.42,600.5l-191.09-1.58a27.06,27.06,0,0,1-26.83-27.28l3.73-451.12a27.05,27.05,0,0,1,27.28-26.83L326.6,95.27a27.05,27.05,0,0,1,26.83,27.28L349.7,573.67A27.06,27.06,0,0,1,322.42,600.5Z"/>
        <path class="a6ce9f9e-d546-4e3a-8da9-56f61a30fde8" d="M322.65,601.5h-.24l-191.09-1.58a28.09,28.09,0,0,1-27.82-28.29l3.73-451.12a28.06,28.06,0,0,1,28.05-27.82h.24l191.09,1.58a28,28,0,0,1,27.82,28.28L350.7,573.68a28.06,28.06,0,0,1-28.05,27.82ZM135.28,94.69a26,26,0,0,0-26,25.83L105.5,571.65a26.09,26.09,0,0,0,25.84,26.27l191.09,1.58h.22a26.07,26.07,0,0,0,26.05-25.84l3.73-451.12a26.05,26.05,0,0,0-25.84-26.27L135.5,94.69Z"/>
      </g>
      <g>
        <path class="ee34ac3c-9dd4-4c6a-972c-d317d50f0953" d="M327.37,586.89,126.6,585.23a13.06,13.06,0,0,1-12.95-13.17l3.74-451.82a13.06,13.06,0,0,1,13.17-12.95L331.33,109a13,13,0,0,1,12.95,13.16l-3.74,451.82A13.06,13.06,0,0,1,327.37,586.89Z"/>
        <path class="a6ce9f9e-d546-4e3a-8da9-56f61a30fde8" d="M327.48,587.89h-.12L126.6,586.23a14.08,14.08,0,0,1-13.95-14.17l3.74-451.82a14.08,14.08,0,0,1,14.06-13.95h.12L331.33,108a14.08,14.08,0,0,1,13.95,14.18L341.54,574a14,14,0,0,1-14.06,13.94Zm-.1-2a12.07,12.07,0,0,0,12.16-12l3.74-451.82a12.07,12.07,0,0,0-12-12.16l-200.77-1.66h-.1a12.09,12.09,0,0,0-12.06,12l-3.74,451.82a12.08,12.08,0,0,0,12,12.16Z"/>
      </g>
    </g>
    <g>
      <g>
        <path class="bfe9f72f-8f3f-4892-9539-0a2a39887661" d="M370.69,487.06c14.35-11.27,26.27-1.94,28.44,16.66,1.8,15.37-1,26.39-22.8,38.43s-30.49,14.6-37.41,9.48-16.14-17.94-12.3-25.11S363.36,492.83,370.69,487.06Z"/>
        <path class="a5b3cc5d-43dd-404e-bd32-58bc8e9f42b9" d="M346.45,554.63a12.53,12.53,0,0,1-7.83-2.6c-6.55-4.85-16.6-18-12.44-25.75,4.33-8.07,43.81-39.3,44.2-39.61,6.1-4.79,12.06-6.17,17.26-4,6.37,2.65,10.74,10.3,12,21,1.05,9,.27,15.19-2.61,20.75-3.41,6.57-9.9,12.35-20.45,18.18C361.5,550.92,352.7,554.63,346.45,554.63Zm36.22-72c-3.67,0-7.63,1.61-11.67,4.79h0c-10.25,8.05-40.33,32.56-43.94,39.3s5,19.13,12.16,24.47c6.52,4.83,14.79,2.69,36.87-9.52,21.3-11.78,24.36-22.42,22.55-37.93-1.19-10.18-5.45-17.73-11.39-20.2A11.77,11.77,0,0,0,382.67,482.67Z"/>
      </g>
      <g>
        <path class="bfe9f72f-8f3f-4892-9539-0a2a39887661" d="M346.46,554.59a12.5,12.5,0,0,1-7.81-2.59c-6.55-4.85-16.59-18-12.43-25.7,4.32-8.06,43.79-39.29,44.19-39.6,6.08-4.78,12-6.16,17.21-4,6.36,2.65,10.73,10.29,12,21,1.86,15.94-1.26,26.85-23,38.9C361.48,550.89,352.69,554.59,346.46,554.59ZM371,487.43c-10.25,8.05-40.34,32.57-44,39.31s5,19.18,12.17,24.52c6.53,4.84,14.81,2.7,36.91-9.51,21.32-11.79,24.38-22.45,22.56-38-1.2-10.34-5.36-17.71-11.4-20.22-4.86-2-10.49-.68-16.29,3.88Z"/>
        <path class="a5b3cc5d-43dd-404e-bd32-58bc8e9f42b9" d="M346.46,555.09a13,13,0,0,1-8.11-2.69c-6.67-4.93-16.86-18.33-12.58-26.33,4.39-8.19,43.93-39.45,44.33-39.76,6.23-4.9,12.36-6.31,17.71-4.08,6.54,2.72,11,10.51,12.28,21.38,1.88,16.14-1.27,27.2-23.29,39.38C361.05,551.7,352.54,555.09,346.46,555.09Zm24.83-67.27c-10.23,8-40.25,32.49-43.82,39.16-1.52,2.84-.8,7.2,2,12.27a38.94,38.94,0,0,0,10,11.61c6.33,4.69,14.48,2.55,36.36-9.55,21.08-11.65,24.1-22.16,22.32-37.48C397,493.67,393,486.45,387.07,484c-4.67-1.95-10.13-.63-15.78,3.81ZM326,533.12c.08.4.19.8.3,1.2C326.22,533.92,326.11,533.52,326,533.12Z"/>
      </g>
      <g>
        <path class="bfe9f72f-8f3f-4892-9539-0a2a39887661" d="M339.35,553.77c5.08-1.5,16.4-9.06,20.84-13.16s10.76-13,7-20.15-11.44-7.52-19.81-3.25-20.67,13-22.89,16.06,2.9,10.59,5.12,13.49S336.45,554.62,339.35,553.77Z"/>
        <path class="a5b3cc5d-43dd-404e-bd32-58bc8e9f42b9" d="M338.65,554.36c-3.66,0-8.45-6-9.43-7.29-1.85-2.42-7.68-10.57-5.14-14.1,2.33-3.22,14.83-12,23.07-16.2,9.36-4.78,16.83-3.52,20.48,3.45,4,7.56-2.6,16.61-7.1,20.76-4.34,4-15.73,11.7-21,13.27h0A2.94,2.94,0,0,1,338.65,554.36Zm18.64-39.43a21.83,21.83,0,0,0-9.69,2.73c-8.58,4.37-20.67,13.08-22.71,15.9-1.7,2.36,1.7,8.42,5.12,12.9,3,3.87,7,7.48,9.2,6.83h0c5.09-1.5,16.47-9.19,20.64-13,4-3.69,10.58-12.53,6.9-19.56A10.12,10.12,0,0,0,357.29,514.93Z"/>
      </g>
      <g>
        <path class="bfe9f72f-8f3f-4892-9539-0a2a39887661" d="M338.65,554.33c-3.64,0-8.42-6-9.4-7.29-1.85-2.41-7.66-10.54-5.14-14,2.33-3.22,14.82-12,23.06-16.2,9.34-4.77,16.79-3.51,20.43,3.44,3.95,7.54-2.6,16.57-7.1,20.71-4.34,4-15.72,11.7-21,13.26h0A2.92,2.92,0,0,1,338.65,554.33Zm.7-.56h0Zm17.94-38.87a21.84,21.84,0,0,0-9.7,2.72c-8.59,4.38-20.68,13.09-22.73,15.92-1.71,2.37,1.69,8.45,5.12,12.94,2.22,2.9,6.65,7.6,9.24,6.84,5.09-1.5,16.48-9.19,20.66-13.05,4-3.69,10.6-12.55,6.9-19.6A10.14,10.14,0,0,0,357.29,514.9Z"/>
        <path class="a5b3cc5d-43dd-404e-bd32-58bc8e9f42b9" d="M338.65,554.83c-3.78,0-8.46-5.73-9.8-7.48-2.43-3.18-7.8-11-5.14-14.65,2.35-3.26,15-12.12,23.23-16.35,9.62-4.91,17.32-3.57,21.1,3.66,4.09,7.8-2.6,17.07-7.2,21.31-4.37,4-15.86,11.79-21.22,13.37A3.39,3.39,0,0,1,338.65,554.83Zm18.64-39.43a21.3,21.3,0,0,0-9.47,2.67c-8.54,4.35-20.54,13-22.55,15.76-1.45,2,1.63,7.8,5.11,12.35,2.86,3.74,6.76,7.23,8.7,6.66,5-1.48,16.31-9.11,20.46-12.93,3.9-3.61,10.35-12.22,6.8-19A9.71,9.71,0,0,0,357.29,515.4Z"/>
      </g>
    </g>
    <g>
      <g>
        <path class="bfe9f72f-8f3f-4892-9539-0a2a39887661" d="M353,390.64c10.59,2.73,35.75,18.16,44.76,28.35,10.33,11.7,12,40.32,7.17,47.83s-40,51.59-52.27,51.93-31.09-19.82-28.35-28,14.32-28.8,21.18-37.24c6.66-8.2,10.93-9.57,11.61-15,.52-4.14-4.1-2.39-4.1-2.39Z"/>
        <path class="a5b3cc5d-43dd-404e-bd32-58bc8e9f42b9" d="M352.36,519.25c-8,0-18.31-8.11-24.06-15.86-3.83-5.15-5.45-9.82-4.46-12.81,2.85-8.54,14.57-29.16,21.27-37.4a79.11,79.11,0,0,1,6.4-6.9c2.93-2.87,4.7-4.61,5.11-7.88a2,2,0,0,0-.46-1.87c-.77-.61-2.41-.2-3,0l-.68.26V390l.63.16c10.37,2.68,35.86,18.16,45,28.51,4.69,5.31,8.11,14.7,9.38,25.76,1.12,9.77.26,18.88-2.16,22.67-5,7.8-40.23,51.81-52.67,52.16Zm2.62-84a2.52,2.52,0,0,1,2.63,3.32c-.45,3.61-2.42,5.54-5.4,8.47a76.72,76.72,0,0,0-6.32,6.81c-6.65,8.18-18.28,28.63-21.1,37.08-.89,2.68.68,7,4.31,11.91,5.68,7.65,15.88,15.68,23.56,15.45,5-.14,15.15-8.35,28.6-23.11,11-12.13,21-25.06,23.26-28.59,4.43-7,3.41-35.3-7.13-47.22-8.87-10.05-33.26-25-43.88-28V435.4A6.74,6.74,0,0,1,355,435.21Z"/>
      </g>
      <g>
        <path class="bfe9f72f-8f3f-4892-9539-0a2a39887661" d="M352.36,519.22c-8,0-18.29-8.11-24-15.85-3.82-5.15-5.44-9.8-4.45-12.78,2.84-8.53,14.57-29.15,21.26-37.38a79.25,79.25,0,0,1,6.39-6.9c2.94-2.88,4.71-4.62,5.12-7.9a2,2,0,0,0-.46-1.91c-.8-.63-2.44-.21-3,0a.5.5,0,0,1-.43-.05.49.49,0,0,1-.2-.39V390.64a.49.49,0,0,1,.18-.37.47.47,0,0,1,.4-.08c10.37,2.68,35.84,18.15,45,28.5,10.17,11.51,12.26,40.46,7.22,48.38s-40.22,51.8-52.64,52.14Zm2.62-84a2.9,2.9,0,0,1,1.78.52,2.83,2.83,0,0,1,.81,2.75c-.45,3.6-2.41,5.53-5.39,8.45a77.16,77.16,0,0,0-6.32,6.82c-6.65,8.18-18.28,28.63-21.1,37.09-.9,2.69.67,7,4.31,11.94,5.61,7.56,15.62,15.47,23.29,15.47h.3c11.56-.32,46.29-42.91,51.89-51.72,4.44-7,3.41-35.33-7.13-47.27-8.89-10.06-33.35-25-43.94-28.05v44.2A6.19,6.19,0,0,1,355,435.25Z"/>
        <path class="a5b3cc5d-43dd-404e-bd32-58bc8e9f42b9" d="M352.36,519.72c-8.13,0-18.66-8.27-24.44-16.05-3.91-5.28-5.56-10.11-4.52-13.24,2.86-8.57,14.63-29.27,21.35-37.54a80.24,80.24,0,0,1,6.43-6.94c2.86-2.8,4.59-4.49,5-7.6.06-.52.06-1.18-.28-1.46-.51-.4-1.81-.18-2.53.09a1,1,0,0,1-.88-.11,1,1,0,0,1-.42-.79V390.64a1,1,0,0,1,.37-.76,1,1,0,0,1,.84-.17c10.42,2.69,36,18.24,45.23,28.65,4.65,5.27,8.09,14.67,9.43,25.8,1.22,10.1.37,19.2-2.17,23.18-5,7.83-40.46,52-53.05,52.37Zm2.62-85a3,3,0,0,1,3.09,3.84c-.47,3.77-2.49,5.75-5.54,8.74a77.53,77.53,0,0,0-6.28,6.78c-6.62,8.14-18.21,28.51-21,36.93-.84,2.53.7,6.71,4.24,11.48,5.49,7.4,15.38,15.27,22.89,15.27h.29c11.4-.32,45.9-42.71,51.48-51.49,4.38-6.87,3.34-34.87-7.08-46.67-8.6-9.73-32.2-24.28-43.07-27.71v42.92A6.09,6.09,0,0,1,355,434.75ZM407.5,452.5a53,53,0,0,1-.6,8.33A48.9,48.9,0,0,0,407.5,452.5Z"/>
      </g>
      <g>
        <path class="bfe9f72f-8f3f-4892-9539-0a2a39887661" d="M323,498.59c3.58-3.88,20.49-25.62,30.23-29.72,7.65-3.22,18.7-2.82,21.27,4.36s2.3,17.42-7.18,27.16-20.49,19.73-23.83,20.49S320,501.92,323,498.59Z"/>
        <path class="a5b3cc5d-43dd-404e-bd32-58bc8e9f42b9" d="M343.37,521.4c-3.55,0-16.28-12.23-20-18.57-1.29-2.22-1.53-3.72-.74-4.58h0c.65-.7,1.75-2,3.15-3.67,6.23-7.39,19.19-22.77,27.26-26.17,5.57-2.35,12.3-2.61,16.74-.66a9.2,9.2,0,0,1,5.19,5.31c1.58,4.44,4.05,16-7.29,27.68-9.43,9.68-20.53,19.81-24.07,20.63A1.27,1.27,0,0,1,343.37,521.4Zm-20-22.47c-.42.47-.11,1.7.88,3.4,4,6.81,16.92,18.58,19.14,18.07,3.18-.74,14.27-10.8,23.58-20.36,10.95-11.24,8.59-22.38,7.07-26.64a8.1,8.1,0,0,0-4.65-4.73c-4.2-1.85-10.62-1.59-16,.66-7.84,3.31-20.7,18.56-26.87,25.89-1.41,1.67-2.52,3-3.19,3.71Z"/>
      </g>
      <g>
        <path class="bfe9f72f-8f3f-4892-9539-0a2a39887661" d="M343.36,521.36c-3.53,0-16.24-12.22-19.92-18.55-1.28-2.21-1.52-3.69-.74-4.53s1.75-2,3.15-3.68c6.23-7.39,19.18-22.76,27.24-26.16,5.57-2.34,12.29-2.6,16.72-.65a9,9,0,0,1,5.16,5.28c1.59,4.44,4,16-7.28,27.64-9.42,9.68-20.51,19.81-24.05,20.62A1.27,1.27,0,0,1,343.36,521.36Zm19.45-53.95a24.49,24.49,0,0,0-9.36,1.89c-7.86,3.31-20.71,18.57-26.89,25.9-1.41,1.67-2.52,3-3.18,3.71h0c-.44.47-.13,1.73.87,3.43,4,6.83,17,18.61,19.18,18.09,3.19-.73,14.29-10.8,23.6-20.37,11-11.25,8.6-22.41,7.07-26.68a8.18,8.18,0,0,0-4.66-4.75A16.76,16.76,0,0,0,362.81,467.41ZM323,498.59h0Z"/>
        <path class="a5b3cc5d-43dd-404e-bd32-58bc8e9f42b9" d="M343.36,521.86c-3.79,0-16.59-12.32-20.35-18.8-1.4-2.42-1.63-4.1-.68-5.12.64-.69,1.74-2,3.13-3.65,6.26-7.43,19.26-22.86,27.44-26.31,5.68-2.39,12.56-2.65,17.11-.65a9.5,9.5,0,0,1,5.43,5.57c1.62,4.53,4.13,16.33-7.39,28.16-8.78,9-20.41,19.86-24.3,20.76A1.72,1.72,0,0,1,343.36,521.86Zm19.45-53.95a24.1,24.1,0,0,0-9.17,1.85c-7.74,3.26-20.55,18.46-26.7,25.76-1.41,1.67-2.52,3-3.2,3.73-.11.12-.18.91.94,2.84,3.91,6.74,16.41,17.87,18.53,17.87h.11c2.69-.62,12.73-9.32,23.35-20.24s8.45-22,7-26.16a7.66,7.66,0,0,0-4.4-4.46A16.24,16.24,0,0,0,362.81,467.91Z"/>
      </g>
    </g>
    <g>
      <g>
        <path class="bfe9f72f-8f3f-4892-9539-0a2a39887661" d="M353.91,314.73s28.9,3,42.74,19.88,12.81,34.34-5.13,53.3-30.74,32.28-50.22,19.47-10.59-36.21-1-45.1,10.59-15.37,10.59-15.37Z"/>
        <path class="a5b3cc5d-43dd-404e-bd32-58bc8e9f42b9" d="M356.15,413c-4.68,0-9.63-1.58-15.12-5.19-7-4.63-11.08-11.16-11.73-18.9-.91-10.91,4.88-21.63,10.64-27,9.29-8.63,10.42-15,10.44-15.09l3.08-32.65.5.05c.29,0,29.27,3.19,43.07,20.07,14.32,17.5,12.64,35.15-5.14,53.95C378.88,402,368.49,413,356.15,413Zm-1.79-97.71-3,31.68c-.05.3-1.17,6.79-10.75,15.69-5.77,5.35-11.16,16.06-10.32,26.17.63,7.53,4.42,13.63,11.28,18.14,5.24,3.45,10,5,14.5,5,12,0,22.26-10.81,35.08-24.36,17.38-18.37,19-35.59,5.1-52.63C383.71,319.59,358.24,315.78,354.36,315.28Z"/>
      </g>
      <g>
        <path class="bfe9f72f-8f3f-4892-9539-0a2a39887661" d="M356.15,413c-4.67,0-9.62-1.58-15.1-5.18-7-4.62-11.07-11.14-11.71-18.87-.91-10.9,4.87-21.61,10.62-27,9.31-8.64,10.44-15,10.45-15.1l3-32.12a.5.5,0,0,1,.16-.34.41.41,0,0,1,.35-.11c.32,0,29.26,3.18,43.06,20.05,14.3,17.49,12.62,35.12-5.15,53.9C378.86,402,368.47,413,356.15,413Zm-1.79-97.71-3,31.68c-.05.33-1.16,6.81-10.74,15.7-5.77,5.36-11.17,16.08-10.33,26.2.63,7.54,4.43,13.65,11.3,18.17,19.28,12.68,32-.78,49.63-19.4,17.39-18.39,19.06-35.62,5.1-52.69C383.68,319.5,358.41,315.73,354.36,315.24Z"/>
        <path class="a5b3cc5d-43dd-404e-bd32-58bc8e9f42b9" d="M356.15,413.45c-5,0-10-1.72-15.38-5.27-7.14-4.7-11.27-11.35-11.93-19.24-.92-11.06,4.94-21.94,10.78-27.36,9.11-8.46,10.29-14.76,10.3-14.82l3-32.09a1,1,0,0,1,.33-.67,1,1,0,0,1,.73-.23c.29,0,29.52,3.27,43.39,20.23,14.5,17.72,12.81,35.57-5.17,54.57C379.07,402.47,368.69,413.45,356.15,413.45Zm-1.34-97.65-3,31.17c0,.3-1.11,6.93-10.9,16-5.68,5.28-11,15.83-10.17,25.79.62,7.38,4.34,13.37,11.07,17.79,18.93,12.46,31.54-.87,49-19.32,17.19-18.18,18.85-35.19,5.08-52C383.7,320.31,359.44,316.42,354.81,315.8Z"/>
      </g>
      <g>
        <path class="bfe9f72f-8f3f-4892-9539-0a2a39887661" d="M330,392c5.05-7.57,18.66-23.75,21.86-26,4.44-3.07,16.06-8.54,24.6,2.39s3.42,20.84-2.73,27.33-19.47,20.16-23.23,21.18S326.61,397.13,330,392Z"/>
        <path class="a5b3cc5d-43dd-404e-bd32-58bc8e9f42b9" d="M350.27,417.48c-3.36,0-12.51-9-17.1-15.38-2.48-3.44-5.11-8-3.56-10.37h0c5.16-7.74,18.73-23.83,22-26.1a23.86,23.86,0,0,1,11-4.14c5.66-.48,10.46,1.75,14.27,6.64,4.9,6.26,8.39,16.2-2.76,28-5.73,6.05-19.49,20.23-23.46,21.32A1.6,1.6,0,0,1,350.27,417.48Zm13.8-55.06c-5.62,0-10.48,3.06-11.89,4-3.13,2.17-16.74,18.35-21.73,25.83h0c-1,1.43.33,4.8,3.53,9.24,5.65,7.83,14.47,15.47,16.42,14.94,2.58-.7,11.18-8.57,23-21,5.89-6.21,11.14-15.89,2.71-26.68C372.34,363.93,368,362.42,364.07,362.42Z"/>
      </g>
      <g>
        <path class="bfe9f72f-8f3f-4892-9539-0a2a39887661" d="M350.26,417.44c-3.34,0-12.48-9-17.06-15.36-2.47-3.44-5.1-8-3.56-10.33h0c5.16-7.73,18.72-23.83,22-26.09,2.52-1.75,15.6-9.84,25.22,2.49,8.86,11.33,3.39,21.44-2.76,27.93-5.72,6.05-19.48,20.23-23.44,21.31A1.6,1.6,0,0,1,350.26,417.44Zm-19.85-25.18c-1,1.44.33,4.82,3.54,9.28,5.66,7.84,14.48,15.49,16.46,15,2.59-.71,11.19-8.58,23-21.06,5.9-6.22,11.15-15.91,2.71-26.72-9.12-11.67-21.57-4-24-2.3-3.14,2.17-16.75,18.35-21.75,25.84Z"/>
        <path class="a5b3cc5d-43dd-404e-bd32-58bc8e9f42b9" d="M350.26,417.94c-3.62,0-12.95-9.3-17.46-15.57-3.74-5.18-4.94-8.85-3.57-10.9,5.17-7.76,18.82-23.94,22.12-26.22,2.58-1.79,16-10.09,25.9,2.59,9.07,11.61,3.49,22-2.79,28.58-7.15,7.55-19.74,20.38-23.68,21.45A1.72,1.72,0,0,1,350.26,417.94Zm13.79-55.05c-5.48,0-10.23,3-11.61,3.94-3.11,2.15-16.64,18.25-21.61,25.71h0c-.64,1-.05,3.75,3.53,8.71,6.06,8.41,14.5,15.11,15.92,14.77,1.93-.53,8.93-6.3,22.78-20.92,5.76-6.08,10.9-15.54,2.67-26.07C372.09,364.36,367.89,362.89,364.05,362.89Z"/>
      </g>
      <g>
        <path class="bfe9f72f-8f3f-4892-9539-0a2a39887661" d="M350.78,348.14a.35.35,0,0,1-.2-.05.46.46,0,0,1-.21-.62c4-8,8-12.69,13-15.32a.46.46,0,0,1,.43.82c-4.83,2.53-8.72,7.13-12.61,14.92A.47.47,0,0,1,350.78,348.14Z"/>
        <path class="a5b3cc5d-43dd-404e-bd32-58bc8e9f42b9" d="M350.78,348.64a.94.94,0,0,1-.43-.1,1,1,0,0,1-.43-1.29c4-8.07,8.11-12.86,13.23-15.54a1,1,0,0,1,1.3.4,1,1,0,0,1-.41,1.31c-4.73,2.47-8.55,7-12.4,14.69A.94.94,0,0,1,350.78,348.64Z"/>
      </g>
    </g>
    <g>
      <g>
        <path class="bfe9f72f-8f3f-4892-9539-0a2a39887661" d="M370.24,229.39c2.74-1.37,3.63-3.2,5.68-3.54s13.46,1.28,17.3,7.56c3.11,5.08,1.71,13.62,1,16s-4.86,6.28-4.86,6.28A24.11,24.11,0,0,0,386,239.3C380.84,231.44,370.24,229.39,370.24,229.39Z"/>
        <path class="a5b3cc5d-43dd-404e-bd32-58bc8e9f42b9" d="M388.58,257.11l.31-1.51a23.81,23.81,0,0,0-3.35-16c-4.94-7.58-15.29-9.67-15.39-9.69l-1.44-.28,1.31-.66a13.42,13.42,0,0,0,2.74-1.88,6.47,6.47,0,0,1,3.08-1.71c2.26-.38,13.82,1.29,17.81,7.79,3.21,5.25,1.82,13.82,1.07,16.42s-4.83,6.34-5,6.5Zm-17-27.91c3,.81,10.6,3.41,14.79,9.83a24.37,24.37,0,0,1,3.68,15.29c1.26-1.29,3.27-3.52,3.7-5,.58-2,2.11-10.59-1-15.61-3.73-6.11-14.9-7.64-16.78-7.33a5.62,5.62,0,0,0-2.61,1.49A18.5,18.5,0,0,1,371.59,229.2Z"/>
      </g>
      <g>
        <path class="bfe9f72f-8f3f-4892-9539-0a2a39887661" d="M389.38,256.16a.46.46,0,0,1-.23-.06.47.47,0,0,1-.23-.49,23.75,23.75,0,0,0-3.35-16.06c-5-7.6-15.31-9.68-15.41-9.7a.46.46,0,0,1-.37-.4A.45.45,0,0,1,370,229a13.93,13.93,0,0,0,2.75-1.89,6.34,6.34,0,0,1,3.06-1.7c2.25-.38,13.79,1.28,17.76,7.77,3.21,5.24,1.82,13.8,1.08,16.39s-4.82,6.32-5,6.49A.47.47,0,0,1,389.38,256.16Zm-17.88-27c2.93.78,10.63,3.37,14.85,9.84A24.44,24.44,0,0,1,390,254.42c1.25-1.28,3.34-3.58,3.78-5.13.58-2,2.11-10.61-1-15.64-3.74-6.12-14.93-7.66-16.82-7.35a5.56,5.56,0,0,0-2.62,1.51A20.44,20.44,0,0,1,371.5,229.21Z"/>
        <path class="a5b3cc5d-43dd-404e-bd32-58bc8e9f42b9" d="M389.38,256.66a.94.94,0,0,1-.47-.12,1,1,0,0,1-.48-1,23.39,23.39,0,0,0-3.28-15.69c-4.81-7.38-15-9.46-15.09-9.48a1,1,0,0,1-.77-.82,1,1,0,0,1,.53-1,13.69,13.69,0,0,0,2.65-1.82,6.74,6.74,0,0,1,3.3-1.81c2.31-.39,14.17,1.3,18.27,8,3.3,5.39,1.88,14.14,1.13,16.78s-5,6.56-5.14,6.72A.94.94,0,0,1,389.38,256.66Zm0-1ZM372.65,229c3.56,1.09,10.24,3.81,14.12,9.75a24.76,24.76,0,0,1,3.83,14.3,12.4,12.4,0,0,0,2.72-3.92c.56-2,2.06-10.36-.92-15.24-3.57-5.83-14.55-7.41-16.32-7.11a5,5,0,0,0-2.38,1.39C373.38,228.45,373,228.73,372.65,229Zm-2.38.4.19,0-.17,0h0Z"/>
      </g>
      <g>
        <path class="bfe9f72f-8f3f-4892-9539-0a2a39887661" d="M354.52,234.26c7.52-4.1,11.8-8.29,23.58-5.21s22.55,10.25,5.13,37.92S354,298.92,354,298.92Z"/>
        <path class="a5b3cc5d-43dd-404e-bd32-58bc8e9f42b9" d="M353.49,299.63,354,234l.25-.14c1.09-.59,2.11-1.19,3.09-1.76,5.91-3.45,10.58-6.18,20.86-3.49,4.73,1.23,11.3,3.57,13.69,9.61,2.61,6.57-.1,16.08-8.27,29.06-17.32,27.5-29,32-29.48,32.15ZM355,234.56l-.51,63.57c2.73-1.38,13.53-8,28.29-31.43,7.88-12.51,10.64-22,8.19-28.16-2.22-5.61-8.49-7.83-13-9-9.88-2.57-14.39.06-20.1,3.39C357,233.46,356,234,355,234.56Z"/>
      </g>
      <g>
        <path class="bfe9f72f-8f3f-4892-9539-0a2a39887661" d="M354,299.38a.5.5,0,0,1-.27-.08.49.49,0,0,1-.19-.39l.52-64.66a.48.48,0,0,1,.24-.4c1.23-.66,2.79-1.25,3.87-1.89,5.59-3.34,10-6,20.05-3.36,4.73,1.24,11.29,3.57,13.67,9.59,2.6,6.57-.11,16.06-8.27,29-17.31,27.49-29,32-29.46,32.13A.45.45,0,0,1,354,299.38Zm1-64.84-.51,63.65c2.65-1.34,13.52-7.88,28.36-31.47,7.89-12.52,10.65-22,8.2-28.19-2.23-5.63-8.51-7.85-13-9-9.67-2.52-13.94,0-19.34,3.25C357.62,233.36,356.13,233.9,355,234.54Z"/>
        <path class="a5b3cc5d-43dd-404e-bd32-58bc8e9f42b9" d="M354,299.88a1,1,0,0,1-.56-.18.93.93,0,0,1-.4-.8l.52-64.65a1,1,0,0,1,.5-.84c.58-.31,1.23-.6,1.85-.89s1.44-.66,2-1c5.69-3.4,10.18-6.09,20.43-3.41,4.83,1.26,11.54,3.66,14,9.89,2.67,6.72-.05,16.36-8.31,29.47-17.37,27.59-29.21,32.16-29.71,32.34A1,1,0,0,1,354,299.88Zm1.48-65-.5,62.51c3.71-2.1,13.86-9.34,27.43-30.89,7.8-12.38,10.54-21.72,8.15-27.74-2.14-5.42-8.27-7.58-12.7-8.74-9.47-2.47-13.65,0-19,3.2a19.89,19.89,0,0,1-2,1C356.45,234.37,355.94,234.6,355.48,234.84Z"/>
      </g>
    </g>
    <g>
      <g>
        <g>
          <path class="bfe9f72f-8f3f-4892-9539-0a2a39887661" d="M1220.66,846.94c-12.3-19.47-66.87-124.92-89.42-124.92s-82-64.57-96.34-83-19.47-36.89-40-56.37S970.33,391,980.58,359.21s74.82-77.89,110.69-45.1,120.94,126.06,126.06,127.09-3-21-8.2-33.82c-7.51-18.45-13.32-88.48-11.27-102.83s9.22-27.84,16.91-33.48,20.5,18.45,26.64,45.61,22,39.45,25.11,48.68,7.69,48.17,26.14,77.38,13.15,29.55,7,74.64-15,90.87-6.15,109.32,60.13,99.07,82,116.84a194.7,194.7,0,0,1-45.65,18.26c-33.16,8.33,8,78.38-9.31,84.14C1283,858.44,1220.66,846.94,1220.66,846.94Z"/>
          <path class="a5b3cc5d-43dd-404e-bd32-58bc8e9f42b9" d="M1275.58,852.23a345.84,345.84,0,0,1-55-4.8l-.21,0-.12-.18c-2.34-3.71-6.21-10.52-11.1-19.14-21-36.89-59.93-105.55-77.9-105.55-22.38,0-81.13-63.15-96.73-83.21a188.1,188.1,0,0,1-13.89-21.39c-6.62-11.3-13.47-23-26-34.92-13.45-12.78-17.84-85.47-18.86-107.44-2.43-52.11-.59-101.11,4.38-116.5,3.24-10.06,11.93-21.71,23.84-32,12.55-10.82,27.06-18.8,40.88-22.46,18.66-4.95,34.84-1.79,46.78,9.13,18.26,16.7,48.93,48.7,76,76.94,24.41,25.48,47.47,49.55,49.83,50,.4.08.56,0,.66-.17,1.66-2-1.95-14.64-9.42-33-7.33-18-13.45-88.06-11.31-103.09,2-14,9-27.89,17.11-33.81a4.62,4.62,0,0,1,4.61-.56c7.66,2.86,17.47,22.83,22.82,46.46,4,17.81,12.29,29.21,18.32,37.54,3.19,4.4,5.71,7.88,6.78,11.09.72,2.16,1.53,5.95,2.55,10.75,3.52,16.51,9.4,44.15,23.53,66.52,15.15,24,14.4,28.59,10.24,54.16-1,5.87-2,12.52-3.16,20.82-1,7.24-2.06,14.56-3.09,21.64-5.4,37-10.5,72-3.11,87.4,8.89,18.45,60.11,99,81.86,116.66l.56.46-.62.36A197.42,197.42,0,0,1,1330,762.29c-18.72,4.7-13.18,29.53-8.29,51.44,3.61,16.16,6.72,30.12-1,32.69C1307.52,850.81,1291.2,852.23,1275.58,852.23ZM1221,846.49c4.06.72,63.56,10.93,99.41-1,6.86-2.29,3.84-15.83.33-31.52-5-22.36-10.64-47.7,9-52.64a197,197,0,0,0,44.9-17.85c-22.15-18.64-72.74-98.2-81.57-116.54-7.52-15.63-2.4-50.77,3-88,1-7.08,2.1-14.4,3.09-21.64,1.13-8.31,2.21-15,3.17-20.84,4.1-25.25,4.84-29.8-10.1-53.47-14.23-22.52-20.14-50.26-23.67-66.84-1-4.77-1.82-8.53-2.52-10.64-1-3.07-3.5-6.49-6.64-10.83-6.08-8.39-14.4-19.89-18.48-37.9-5.2-22.94-15-43-22.2-45.75a3.66,3.66,0,0,0-3.67.43c-7.87,5.78-14.74,19.41-16.71,33.15-2.13,15,4,84.68,11.24,102.57,4.61,11.31,11.94,30.76,9.27,34a1.57,1.57,0,0,1-1.63.51c-2.54-.51-19.9-18.52-50.36-50.31-27-28.22-57.69-60.22-75.94-76.9-14.75-13.48-33.07-12.28-45.85-8.89-24.14,6.39-56.37,30.05-64,53.77-4.86,15.05-6.72,65-4.33,116.15,2.72,58.4,9.65,98.31,18.55,106.76,12.67,12,19.55,23.78,26.2,35.15a188.43,188.43,0,0,0,13.82,21.27c15.52,20,73.9,82.83,95.94,82.83,18.55,0,57.72,69,78.77,106.06C1214.81,836,1218.62,842.76,1221,846.49Z"/>
        </g>
        <g>
          <path class="bfe9f72f-8f3f-4892-9539-0a2a39887661" d="M1220.66,847.4a.46.46,0,0,0,.39-.71c-2.18-3.45-4.83-8-7.89-13.34-14.42-25-63.11-111.8-81.92-111.8-22.06,0-80.44-62.86-96-82.83a189.43,189.43,0,0,1-13.82-21.28c-6.65-11.36-13.53-23.11-26.2-35.14-8.9-8.46-15.84-48.38-18.56-106.79-2.42-52-.6-100.86,4.33-116.16,6.15-19.05,34-45.83,64-53.8,12.79-3.39,31.12-4.59,45.89,8.91,18.24,16.68,48.89,48.67,75.94,76.9,29.56,30.85,47.81,49.79,50.34,50.29a1.55,1.55,0,0,0,1.6-.5c2.65-3.21-4.68-22.65-9.28-33.95-7.29-17.89-13.38-87.62-11.24-102.59,2-13.74,8.84-27.39,16.72-33.17a3.67,3.67,0,0,1,3.7-.43c7.27,2.71,17,22.82,22.22,45.77,4.08,18,12.4,29.5,18.48,37.89,3.14,4.34,5.62,7.76,6.65,10.84.7,2.11,1.5,5.87,2.52,10.64,3.53,16.58,9.44,44.32,23.66,66.83,15,23.68,14.21,28.24,10.1,53.5-.95,5.87-2,12.53-3.17,20.84-1,7.23-2,14.55-3.08,21.63-5.42,37.2-10.54,72.34-3,87.95,8.9,18.5,60.27,99.25,82.11,117a.46.46,0,0,0,.65-.07.47.47,0,0,0-.06-.65c-21.76-17.68-73-98.23-81.87-116.68-7.4-15.36-2.3-50.36,3.1-87.41,1-7.08,2.1-14.41,3.09-21.65,1.13-8.3,2.21-15,3.17-20.81,4.15-25.56,4.9-30.16-10.24-54.14-14.13-22.38-20-50-23.54-66.53-1-4.8-1.83-8.59-2.55-10.75-1.07-3.21-3.58-6.68-6.77-11.08-6-8.33-14.29-19.74-18.32-37.56-5.35-23.61-15.15-43.57-22.8-46.43a4.59,4.59,0,0,0-4.58.56c-8.06,5.91-15.09,19.81-17.09,33.78-2.15,15,4,85.09,11.3,103.07,7.48,18.35,11.09,31,9.42,33-.1.13-.28.27-.7.19-2.37-.48-25.44-24.55-49.85-50-27.06-28.24-57.72-60.25-76-77-11.93-10.9-28.09-14.06-46.74-9.11-30.38,8-58.48,35.13-64.7,54.41-5,15.39-6.8,64.38-4.38,116.48,2.74,58.65,9.79,98.8,18.85,107.42,12.57,11.94,19.42,23.63,26,34.93a189.48,189.48,0,0,0,13.89,21.39c15.59,20.05,74.33,83.19,96.7,83.19,18.27,0,66.8,86.54,81.12,111.33,3.07,5.32,5.72,9.91,7.91,13.38A.46.46,0,0,0,1220.66,847.4Z"/>
          <path class="a5b3cc5d-43dd-404e-bd32-58bc8e9f42b9" d="M1220.66,847.9a1,1,0,0,1-.81-.44c-2.19-3.47-4.84-8.05-7.9-13.35l-3-5.19C1192.33,800,1148.12,723,1131.24,723c-22.54,0-81.46-63.29-97.1-83.39a189.26,189.26,0,0,1-13.92-21.43c-6.61-11.28-13.43-22.94-26-34.83-9.16-8.7-16.26-49-19-107.75-2.44-52.16-.59-101.22,4.4-116.67,6.25-19.39,34.5-46.65,65-54.74,18.82-5,35.15-1.79,47.21,9.23,18.28,16.72,48.95,48.73,76,77,23.29,24.3,47.31,49.38,49.59,49.89.15,0,.2,0,.2,0,1.26-1.53-1.19-12.16-9.48-32.52-7.34-18-13.49-88.26-11.34-103.33,2-14.1,9.13-28.13,17.3-34.12a5.07,5.07,0,0,1,5-.62c7.8,2.92,17.73,23,23.11,46.79,4,17.72,12.24,29.08,18.25,37.38,3.21,4.43,5.74,7.93,6.84,11.21.73,2.19,1.53,6,2.55,10.77,3.52,16.52,9.4,44.1,23.48,66.4,15.25,24.14,14.49,28.77,10.31,54.49-1,5.89-2,12.52-3.16,20.8-1,7.28-2.06,14.59-3.09,21.65-5.39,37-10.48,71.9-3.15,87.13,8.87,18.42,60,98.86,81.73,116.5a1,1,0,0,1-.51,1.71,1,1,0,0,1-.7-.21c-21.88-17.78-73.34-98.65-82.25-117.17-7.59-15.75-2.46-51,3-88.24l0-.17c1-7,2.08-14.29,3.06-21.46,1.14-8.34,2.22-15,3.17-20.85,4.08-25.11,4.82-29.63-10-53.15-14.26-22.59-20.18-50.38-23.72-67-1-4.76-1.81-8.51-2.51-10.6-1-3-3.46-6.4-6.57-10.7-6.11-8.42-14.47-20-18.56-38.07-5.17-22.8-14.79-42.75-21.91-45.41a3.15,3.15,0,0,0-3.23.37c-7.79,5.7-14.58,19.21-16.53,32.83-2.13,14.93,3.94,84.49,11.21,102.34,5.68,13.92,11.88,31.21,9.2,34.45a2,2,0,0,1-2.08.67c-2.55-.51-17.37-15.76-50.6-50.44-27-28.22-57.69-60.21-75.92-76.87-14.6-13.35-32.76-12.15-45.42-8.8-29.93,7.94-57.6,34.55-63.7,53.47-4.92,15.26-6.73,64-4.31,116,2.72,58.28,9.6,98.08,18.41,106.45,12.71,12.08,19.61,23.85,26.28,35.24a188,188,0,0,0,13.78,21.23c15.5,19.92,73.7,82.64,95.58,82.64,18,0,61.06,75,79.45,107l2.9,5.05c3.06,5.29,5.7,9.86,7.89,13.33a1,1,0,0,1-.3,1.33A1.07,1.07,0,0,1,1220.66,847.9Z"/>
        </g>
      </g>
      <g>
        <g>
          <path class="bfe9f72f-8f3f-4892-9539-0a2a39887661" d="M1242.27,320.61c-3.08.34-12.3-15.38-16.4-27.68s-7.51-20.15-7.51-22.54,1-12.64,4.09-14.69,12.8,23.81,15.38,33.48C1240.56,299.42,1242.27,320.61,1242.27,320.61Z"/>
          <path class="a5b3cc5d-43dd-404e-bd32-58bc8e9f42b9" d="M1242.19,321.11c-3.72,0-12.82-16.11-16.79-28-1.61-4.83-3.13-9-4.36-12.38-2-5.48-3.18-8.79-3.18-10.32s.8-12.77,4.32-15.11a1.2,1.2,0,0,1,1.15-.1c4.2,1.58,13,26.3,15,33.87,2.71,10.17,4.44,31.3,4.46,31.52l0,.48-.49.05Zm-19.36-65a.2.2,0,0,0-.1,0c-2.71,1.81-3.87,11.46-3.87,14.28,0,1.36,1.31,5,3.12,10,1.23,3.37,2.75,7.56,4.37,12.41,4,12,12.32,25.9,15.37,27.23-.31-3.61-2-21.61-4.38-30.71-2.64-9.9-11.13-32-14.36-33.19Z"/>
        </g>
        <g>
          <path class="bfe9f72f-8f3f-4892-9539-0a2a39887661" d="M1242.19,321.07h.13a.47.47,0,0,0,.41-.5c0-.21-1.74-21.34-4.46-31.51-2.14-8.06-11-32.33-15-33.85a1.19,1.19,0,0,0-1.12.1c-3.51,2.34-4.31,13.48-4.31,15.08s1.2,4.83,3.19,10.31c1.22,3.36,2.74,7.55,4.35,12.38C1229.35,304.84,1238.58,321.07,1242.19,321.07Zm-19.36-65a.41.41,0,0,1,.16,0c3.24,1.22,11.75,23.31,14.39,33.22,2.44,9.14,4.08,27.29,4.38,30.76-3-1.22-11.43-15.2-15.45-27.27-1.62-4.85-3.14-9-4.36-12.41-1.82-5-3.13-8.62-3.13-10,0-2.83,1.17-12.49,3.89-14.31A.24.24,0,0,1,1222.83,256Z"/>
          <path class="a5b3cc5d-43dd-404e-bd32-58bc8e9f42b9" d="M1242.19,321.57c-4.22,0-13.59-17.4-17.23-28.33-1.62-4.86-3.13-9-4.35-12.37-2-5.53-3.22-8.86-3.22-10.48,0-.13.48-12.8,4.53-15.49a1.68,1.68,0,0,1,1.57-.16c1.91.73,4.76,5.69,8.46,14.75a192.23,192.23,0,0,1,6.81,19.44c2.7,10.12,4.4,30.73,4.47,31.6a1,1,0,0,1-.86,1Zm-19.31-65c-2.31,1.78-3.56,10.54-3.56,13.81,0,1.28,1.37,5.05,3.1,9.82,1.22,3.37,2.74,7.56,4.36,12.42,3.8,11.4,11.14,23.67,14.39,26.46-.46-5.15-2-21.24-4.27-29.67C1233,274.69,1225.05,257.68,1222.88,256.58Z"/>
        </g>
      </g>
      <g>
        <path class="bfe9f72f-8f3f-4892-9539-0a2a39887661" d="M1214.6,466.43h.08a.45.45,0,0,0,.37-.53c-1.44-8.34.75-14.3,2.68-19.55a32.34,32.34,0,0,0,2.11-7.49.46.46,0,0,0-.92-.09,31.28,31.28,0,0,1-2.06,7.26c-1.88,5.1-4.21,11.44-2.72,20A.47.47,0,0,0,1214.6,466.43Z"/>
        <path class="a5b3cc5d-43dd-404e-bd32-58bc8e9f42b9" d="M1214.6,466.93a1,1,0,0,1-.95-.8c-1.51-8.72.84-15.13,2.74-20.28a30.68,30.68,0,0,0,2-7.14,1,1,0,0,1,1-.86,1,1,0,0,1,.66.35,1,1,0,0,1,.21.7,32.74,32.74,0,0,1-2.14,7.6c-1.91,5.21-4.08,11.09-2.65,19.3a1,1,0,0,1-.79,1.12Zm0-1v0Z"/>
      </g>
      <g>
        <path class="bfe9f72f-8f3f-4892-9539-0a2a39887661" d="M1026.7,617.43h0a.45.45,0,0,0,.42-.5c-.49-5.93,6.72-26.94,17.76-35.47a.46.46,0,0,0,.08-.65.47.47,0,0,0-.65-.08c-11.47,8.86-18.63,30-18.11,36.28A.46.46,0,0,0,1026.7,617.43Z"/>
        <path class="a5b3cc5d-43dd-404e-bd32-58bc8e9f42b9" d="M1026.7,617.93a1,1,0,0,1-1-.88c-.52-6.33,6.71-27.75,18.31-36.72a1,1,0,0,1,1.18,1.53c-10.92,8.43-18.06,29.18-17.57,35a1,1,0,0,1-.22.7,1,1,0,0,1-.66.34Zm12-30.71a67.42,67.42,0,0,0-9.87,19.22A68.72,68.72,0,0,1,1038.65,587.22Z"/>
      </g>
      <g>
        <path class="bfe9f72f-8f3f-4892-9539-0a2a39887661" d="M1088.2,641a.47.47,0,0,0,.31-.12c11.73-10.93,16.39-40.68,19.47-60.36.81-5.23,1.52-9.75,2.19-12.64a.47.47,0,0,0-.35-.56.46.46,0,0,0-.55.35c-.68,2.92-1.39,7.46-2.21,12.71-2.87,18.37-7.68,49.11-19.18,59.82a.46.46,0,0,0,.32.8Z"/>
        <path class="a5b3cc5d-43dd-404e-bd32-58bc8e9f42b9" d="M1088.2,641.5a1,1,0,0,1-.66-1.67c11.37-10.58,16.16-41.22,19-59.53.83-5.29,1.53-9.81,2.21-12.74a1,1,0,0,1,1.15-.73,1,1,0,0,1,.73,1.16c-.67,2.87-1.37,7.38-2.19,12.6-3.09,19.76-7.76,49.61-19.62,60.65A.94.94,0,0,1,1088.2,641.5Z"/>
      </g>
      <g>
        <path class="bfe9f72f-8f3f-4892-9539-0a2a39887661" d="M1262.76,369.9a17,17,0,0,0,4.4-.51.46.46,0,0,0-.24-.89c-5.45,1.48-14-1-14.1-1a.47.47,0,0,0-.58.31.46.46,0,0,0,.32.57A40.64,40.64,0,0,0,1262.76,369.9Z"/>
        <path class="a5b3cc5d-43dd-404e-bd32-58bc8e9f42b9" d="M1262.76,370.4a41.45,41.45,0,0,1-10.34-1.56,1,1,0,0,1-.58-.46,1,1,0,0,1,.38-1.3.92.92,0,0,1,.74-.08c.09,0,8.51,2.46,13.82,1a.93.93,0,0,1,.73.09.94.94,0,0,1,.36,1.31.88.88,0,0,1-.58.45A17,17,0,0,1,1262.76,370.4Z"/>
      </g>
      <g>
        <path class="bfe9f72f-8f3f-4892-9539-0a2a39887661" d="M1269.16,379.69a2.86,2.86,0,0,0,.53,0,.47.47,0,0,0,.36-.55.46.46,0,0,0-.54-.36c-2,.39-9.34-2.8-12-4.06a.47.47,0,0,0-.62.22.46.46,0,0,0,.22.61C1258.05,376,1266,379.69,1269.16,379.69Z"/>
        <path class="a5b3cc5d-43dd-404e-bd32-58bc8e9f42b9" d="M1269.16,380.19c-3.26,0-11.36-3.79-12.27-4.23a1,1,0,0,1-.5-.54,1,1,0,0,1,0-.74.92.92,0,0,1,.55-.49.89.89,0,0,1,.73,0c3.92,1.85,10.14,4.3,11.7,4a1,1,0,0,1,.72.14.92.92,0,0,1,.41.62,1,1,0,0,1-.75,1.13A3.1,3.1,0,0,1,1269.16,380.19Z"/>
      </g>
      <g>
        <path class="bfe9f72f-8f3f-4892-9539-0a2a39887661" d="M1211.69,408.87a.46.46,0,0,0,.38-.2c5-7,14.65-13.65,14.75-13.72a.46.46,0,1,0-.53-.76c-.1.06-9.86,6.79-15,13.94a.47.47,0,0,0,.1.65A.48.48,0,0,0,1211.69,408.87Z"/>
        <path class="a5b3cc5d-43dd-404e-bd32-58bc8e9f42b9" d="M1211.69,409.37a1,1,0,0,1-.55-.18,1,1,0,0,1-.23-1.35c5.18-7.25,15-14,15.1-14.07a1,1,0,0,1,1.34.25,1,1,0,0,1,.15.73,1,1,0,0,1-.4.61c-.1.07-9.69,6.7-14.62,13.6A1,1,0,0,1,1211.69,409.37Z"/>
      </g>
    </g>
    <g>
      <g>
        <path class="f2de1fff-60b7-4afc-9944-d382d846d16c" d="M986.56,600.5l191.09-1.58a27.06,27.06,0,0,0,26.83-27.28l-3.74-451.12a27,27,0,0,0-27.28-26.83L982.38,95.27a27,27,0,0,0-26.83,27.28l3.73,451.12A27.06,27.06,0,0,0,986.56,600.5Z"/>
        <path class="a6ce9f9e-d546-4e3a-8da9-56f61a30fde8" d="M986.33,601.5a28,28,0,0,1-28.05-27.82l-3.73-451.13a28,28,0,0,1,27.82-28.28l191.09-1.58a28,28,0,0,1,28.28,27.82l3.74,451.12a28.09,28.09,0,0,1-27.82,28.29L986.57,601.5ZM1173.7,94.69h-.23L982.39,96.27a26.05,26.05,0,0,0-25.84,26.27l3.73,451.12a26.07,26.07,0,0,0,26.27,25.84l191.09-1.58a26.09,26.09,0,0,0,25.84-26.27l-3.74-451.12a26,26,0,0,0-26-25.84Z"/>
      </g>
      <g>
        <path class="ee34ac3c-9dd4-4c6a-972c-d317d50f0953" d="M981.61,586.89l200.76-1.66a13.05,13.05,0,0,0,13-13.17l-3.74-451.82a13.06,13.06,0,0,0-13.16-12.95L977.65,109a13,13,0,0,0-12.95,13.16l3.74,451.82A13.06,13.06,0,0,0,981.61,586.89Z"/>
        <path class="a6ce9f9e-d546-4e3a-8da9-56f61a30fde8" d="M981.5,587.89A14.08,14.08,0,0,1,967.44,574L963.7,122.13A14.09,14.09,0,0,1,977.64,108l200.77-1.66h.12a14.07,14.07,0,0,1,14,13.95l3.74,451.82a14.07,14.07,0,0,1-13.94,14.17l-200.76,1.66Zm.1-2v0l200.77-1.66a12.07,12.07,0,0,0,12-12.16l-3.74-451.82a12.07,12.07,0,0,0-12-12h-.1L977.66,110a12.08,12.08,0,0,0-12,12.16l3.74,451.82a12.08,12.08,0,0,0,12.06,12Z"/>
      </g>
    </g>
    <g>
      <g>
        <path class="bfe9f72f-8f3f-4892-9539-0a2a39887661" d="M938.28,487.06c-14.34-11.27-26.27-1.94-28.44,16.66-1.79,15.37,1,26.39,22.81,38.43s30.49,14.6,37.41,9.48,16.14-17.94,12.29-25.11S945.62,492.83,938.28,487.06Z"/>
        <path class="a5b3cc5d-43dd-404e-bd32-58bc8e9f42b9" d="M962.52,554.63c-6.24,0-15-3.71-30.11-12-21.8-12.05-24.92-23-23.06-38.93,1.24-10.7,5.62-18.35,12-21,5.19-2.17,11.16-.78,17.25,4h0c.4.31,39.88,31.54,44.2,39.61,4.17,7.77-5.88,20.9-12.44,25.75A12.49,12.49,0,0,1,962.52,554.63Zm-36.21-72a11.77,11.77,0,0,0-4.58.91c-6,2.47-10.2,10-11.39,20.2-1.81,15.51,1.25,26.15,22.55,37.93,22.08,12.21,30.35,14.35,36.87,9.52,7.2-5.34,15.72-17.82,12.15-24.47s-33.68-31.25-43.93-39.3h0C933.93,484.28,930,482.67,926.31,482.67Z"/>
      </g>
      <g>
        <path class="bfe9f72f-8f3f-4892-9539-0a2a39887661" d="M962.52,554.59a12.5,12.5,0,0,0,7.81-2.59c6.55-4.85,16.58-18,12.43-25.7-4.32-8.06-43.79-39.29-44.19-39.6-6.08-4.78-12-6.16-17.21-4-6.37,2.65-10.73,10.29-12,21-1.85,15.94,1.27,26.85,23,38.9C947.49,550.89,956.29,554.59,962.52,554.59ZM938,487.43c10.25,8.05,40.34,32.57,44,39.31s-5,19.18-12.17,24.52c-6.53,4.84-14.81,2.7-36.91-9.51-21.32-11.79-24.38-22.45-22.57-38,1.21-10.34,5.37-17.71,11.41-20.22,4.85-2,10.49-.68,16.29,3.88Z"/>
        <path class="a5b3cc5d-43dd-404e-bd32-58bc8e9f42b9" d="M962.52,555.09c-6.08,0-14.59-3.39-30.34-12.1-22-12.18-25.18-23.24-23.29-39.38,1.27-10.87,5.74-18.66,12.27-21.38,5.36-2.23,11.49-.82,17.72,4.08.4.31,39.92,31.54,44.32,39.76,4.29,8-5.9,21.4-12.57,26.33A13,13,0,0,1,962.52,555.09Zm-36.21-72a11.31,11.31,0,0,0-4.41.88c-5.87,2.44-9.92,9.66-11.1,19.82-1.79,15.32,1.24,25.83,22.31,37.48,21.88,12.1,30,14.23,36.37,9.55a38.94,38.94,0,0,0,10-11.61c2.84-5.07,3.56-9.43,2-12.27-3.58-6.67-33.59-31.12-43.82-39.16h0C933.73,484.71,929.87,483.13,926.31,483.13Zm56.9,48.37a21,21,0,0,1-2.32,7.15A19.73,19.73,0,0,0,983.21,531.5Z"/>
      </g>
      <g>
        <path class="bfe9f72f-8f3f-4892-9539-0a2a39887661" d="M969.63,553.77c-5.08-1.5-16.4-9.06-20.84-13.16s-10.76-13-7-20.15,11.44-7.52,19.81-3.25,20.67,13,22.89,16.06-2.9,10.59-5.12,13.49S972.53,554.62,969.63,553.77Z"/>
        <path class="a5b3cc5d-43dd-404e-bd32-58bc8e9f42b9" d="M970.33,554.36a2.94,2.94,0,0,1-.84-.11h0c-5.31-1.57-16.7-9.26-21-13.27-4.5-4.15-11.06-13.2-7.11-20.76,3.66-7,11.12-8.23,20.49-3.45,8.23,4.2,20.74,13,23.06,16.2,2.55,3.53-3.28,11.68-5.13,14.1C978.78,548.36,974,554.36,970.33,554.36Zm-.56-1.07c2.24.65,6.24-3,9.2-6.83,3.42-4.48,6.82-10.54,5.11-12.9-2-2.82-14.13-11.53-22.71-15.9-8.8-4.5-15.78-3.39-19.14,3-3.68,7,2.9,15.87,6.9,19.56,4.17,3.85,15.55,11.54,20.64,13Z"/>
      </g>
      <g>
        <path class="bfe9f72f-8f3f-4892-9539-0a2a39887661" d="M970.33,554.33c3.64,0,8.42-6,9.4-7.29,1.85-2.41,7.66-10.54,5.13-14-2.32-3.22-14.81-12-23.05-16.2-9.34-4.77-16.79-3.51-20.43,3.44-4,7.54,2.6,16.57,7.1,20.71,4.33,4,15.72,11.7,21,13.26h0A2.92,2.92,0,0,0,970.33,554.33Zm-.7-.56h0Zm-18-38.87a21.88,21.88,0,0,1,9.71,2.72c8.59,4.38,20.68,13.09,22.72,15.92,1.72,2.37-1.68,8.45-5.11,12.94-2.22,2.9-6.66,7.6-9.24,6.84-5.1-1.5-16.48-9.19-20.66-13.05-4-3.69-10.6-12.55-6.9-19.6A10.14,10.14,0,0,1,951.68,514.9Z"/>
        <path class="a5b3cc5d-43dd-404e-bd32-58bc8e9f42b9" d="M970.33,554.83a3.39,3.39,0,0,1-1-.14c-5.37-1.58-16.85-9.33-21.22-13.37-4.6-4.24-11.29-13.51-7.21-21.31,3.79-7.23,11.49-8.56,21.11-3.66,8.28,4.23,20.87,13.09,23.23,16.35,2.66,3.68-2.71,11.47-5.14,14.65C978.79,549.1,974.11,554.83,970.33,554.83ZM951.68,515.4a9.7,9.7,0,0,0-9,5.5c-3.55,6.79,2.9,15.4,6.8,19,4.15,3.82,15.43,11.45,20.46,12.93,1.93.55,5.84-2.92,8.7-6.66,3.47-4.55,6.55-10.35,5.11-12.35-2-2.78-14-11.41-22.55-15.76A21.31,21.31,0,0,0,951.68,515.4Z"/>
      </g>
    </g>
    <g>
      <g>
        <path class="bfe9f72f-8f3f-4892-9539-0a2a39887661" d="M956,390.64c-10.59,2.73-35.74,18.16-44.75,28.35-10.33,11.7-12,40.32-7.17,47.83s40,51.59,52.27,51.93,31.08-19.82,28.35-28-14.32-28.8-21.18-37.24c-6.66-8.2-10.93-9.57-11.62-15-.51-4.14,4.1-2.39,4.1-2.39Z"/>
        <path class="a5b3cc5d-43dd-404e-bd32-58bc8e9f42b9" d="M956.61,519.25h-.32c-12.44-.35-47.71-44.36-52.68-52.16s-3-36.91,7.23-48.43c9.14-10.35,34.63-25.83,45-28.51l.62-.16V436.8l-.67-.26c-.57-.21-2.2-.62-3,0a2,2,0,0,0-.45,1.88c.41,3.26,2.18,5,5.11,7.87a79.11,79.11,0,0,1,6.4,6.9c6.69,8.24,18.42,28.86,21.26,37.4,1,3-.62,7.66-4.45,12.81C974.93,511.14,964.6,519.25,956.61,519.25Zm-1.15-128c-10.61,3.08-35,18-43.87,28-10.54,11.92-11.57,40.26-7.13,47.22,2.24,3.53,12.21,16.46,23.26,28.59,13.45,14.76,23.61,23,28.6,23.11,7.71.21,17.88-7.8,23.56-15.45,3.63-4.89,5.2-9.23,4.31-11.91-2.82-8.45-14.45-28.9-21.1-37.08a78.26,78.26,0,0,0-6.32-6.81c-3-2.93-4.95-4.86-5.4-8.47a2.87,2.87,0,0,1,.83-2.79,4,4,0,0,1,3.26-.34Z"/>
      </g>
      <g>
        <path class="bfe9f72f-8f3f-4892-9539-0a2a39887661" d="M956.61,519.22c8,0,18.3-8.11,24-15.85,3.82-5.15,5.44-9.8,4.45-12.78-2.84-8.53-14.57-29.15-21.26-37.38a77.58,77.58,0,0,0-6.4-6.9c-2.93-2.88-4.71-4.62-5.12-7.9a2,2,0,0,1,.47-1.91c.8-.63,2.44-.21,3,0a.5.5,0,0,0,.43-.05.49.49,0,0,0,.2-.39V390.64a.46.46,0,0,0-.58-.45c-10.37,2.68-35.84,18.15-45,28.5-10.16,11.51-12.26,40.46-7.21,48.38s40.22,51.8,52.64,52.14Zm-2.61-84a2.89,2.89,0,0,0-1.78.52,2.85,2.85,0,0,0-.82,2.75c.45,3.6,2.42,5.53,5.4,8.45a77.16,77.16,0,0,1,6.32,6.82c6.65,8.18,18.28,28.63,21.1,37.09.9,2.69-.68,7-4.31,11.94-5.61,7.56-15.62,15.47-23.29,15.47h-.3c-11.56-.32-46.29-42.91-51.89-51.72-4.44-7-3.42-35.33,7.13-47.27,8.88-10.06,33.34-25,43.94-28.05v44.2A6.34,6.34,0,0,0,954,435.25Z"/>
        <path class="a5b3cc5d-43dd-404e-bd32-58bc8e9f42b9" d="M956.61,519.72h-.33c-12.59-.35-48.07-44.54-53.06-52.37-5.11-8-3-37.34,7.27-49,9.19-10.41,34.8-26,45.23-28.65a.93.93,0,0,1,.83.17,1,1,0,0,1,.38.76v45.44a1,1,0,0,1-1.31.9c-.71-.27-2-.49-2.52-.09-.35.28-.34.94-.28,1.46.39,3.11,2.11,4.8,5,7.6a78.55,78.55,0,0,1,6.44,6.94c6.72,8.27,18.49,29,21.34,37.54,1,3.13-.6,8-4.52,13.24C975.28,511.45,964.75,519.72,956.61,519.72ZM955,391.92c-10.87,3.43-34.48,18-43.07,27.71-10.42,11.8-11.46,39.8-7.08,46.67,5.58,8.78,40.08,51.17,51.48,51.49h.29c7.51,0,17.39-7.87,22.89-15.27,3.53-4.77,5.08-8.95,4.24-11.48-2.81-8.42-14.4-28.79-21-36.93a77.41,77.41,0,0,0-6.27-6.77c-3.06-3-5.08-5-5.55-8.75a3,3,0,0,1,3.09-3.84,6.09,6.09,0,0,1,1,.09Zm-53.52,60.57a48.1,48.1,0,0,0,.6,8.34A52,52,0,0,1,901.48,452.49Z"/>
      </g>
      <g>
        <path class="bfe9f72f-8f3f-4892-9539-0a2a39887661" d="M985.94,498.59c-3.58-3.88-20.5-25.62-30.23-29.72-7.65-3.22-18.71-2.82-21.27,4.36s-2.3,17.42,7.18,27.16,20.49,19.73,23.82,20.49S989,501.92,985.94,498.59Z"/>
        <path class="a5b3cc5d-43dd-404e-bd32-58bc8e9f42b9" d="M965.61,521.4a1.27,1.27,0,0,1-.28,0c-3.55-.82-14.65-10.95-24.07-20.63-11.34-11.65-8.88-23.24-7.29-27.68a9.22,9.22,0,0,1,5.18-5.31c4.44-1.95,11.17-1.69,16.75.66,8.07,3.4,21,18.78,27.25,26.17,1.41,1.66,2.51,3,3.16,3.67h0c.79.86.55,2.36-.75,4.58C981.88,509.17,969.16,521.4,965.61,521.4Zm-19.44-54a16.62,16.62,0,0,0-6.61,1.23,8.1,8.1,0,0,0-4.65,4.73C933.39,477.66,931,488.8,942,500c9.31,9.56,20.4,19.62,23.59,20.36,2.22.52,15.18-11.25,19.14-18.07,1-1.7,1.3-2.93.87-3.4-.66-.72-1.77-2-3.18-3.71-6.18-7.33-19-22.58-26.88-25.89A24.54,24.54,0,0,0,946.17,467.44Z"/>
      </g>
      <g>
        <path class="bfe9f72f-8f3f-4892-9539-0a2a39887661" d="M965.61,521.36c3.54,0,16.25-12.22,19.92-18.55,1.28-2.21,1.53-3.69.75-4.53s-1.75-2-3.15-3.68c-6.23-7.39-19.18-22.76-27.24-26.16-5.57-2.34-12.29-2.6-16.72-.65a9,9,0,0,0-5.16,5.28c-1.59,4.44-4,16,7.27,27.64,9.43,9.68,20.52,19.81,24.06,20.62A1.18,1.18,0,0,0,965.61,521.36Zm-19.44-53.95a24.49,24.49,0,0,1,9.36,1.89c7.86,3.31,20.71,18.57,26.89,25.9,1.41,1.67,2.52,3,3.18,3.71h0c.44.47.12,1.73-.87,3.43-4,6.83-17,18.61-19.18,18.09-3.19-.73-14.29-10.8-23.6-20.37-11-11.25-8.6-22.41-7.07-26.68a8.18,8.18,0,0,1,4.66-4.75A16.76,16.76,0,0,1,946.17,467.41Zm39.77,31.18h0Z"/>
        <path class="a5b3cc5d-43dd-404e-bd32-58bc8e9f42b9" d="M965.61,521.86a1.64,1.64,0,0,1-.38,0c-3.89-.9-15.52-11.74-24.3-20.76-11.52-11.83-9-23.63-7.4-28.16a9.55,9.55,0,0,1,5.44-5.57c4.55-2,11.43-1.74,17.11.65,8.18,3.45,21.18,18.88,27.43,26.3,1.4,1.66,2.5,3,3.14,3.66.94,1,.72,2.7-.68,5.12C982.21,509.54,969.41,521.86,965.61,521.86Zm-19.44-53.95a16.33,16.33,0,0,0-6.43,1.18,7.67,7.67,0,0,0-4.39,4.46c-1.5,4.19-3.81,15.11,7,26.16S963,519.33,965.66,520h.1c2.12,0,14.63-11.13,18.54-17.87,1.12-1.93,1.05-2.72.93-2.84-.67-.73-1.78-2.05-3.19-3.73-6.16-7.3-19-22.5-26.71-25.76A24,24,0,0,0,946.17,467.91Z"/>
      </g>
    </g>
    <g>
      <g>
        <path class="bfe9f72f-8f3f-4892-9539-0a2a39887661" d="M955.07,314.73s-28.9,3-42.74,19.88-12.81,34.34,5.13,53.3,30.74,32.28,50.21,19.47,10.6-36.21,1-45.1-10.59-15.37-10.59-15.37Z"/>
        <path class="a5b3cc5d-43dd-404e-bd32-58bc8e9f42b9" d="M952.83,413c-12.34,0-22.73-11-35.74-24.74-17.78-18.8-19.47-36.45-5.15-53.95,13.81-16.88,42.79-20,43.08-20.07l.5-.05,3.09,32.68s1.14,6.43,10.43,15.06c5.76,5.35,11.55,16.07,10.64,27-.65,7.74-4.7,14.27-11.73,18.9C962.46,411.41,957.5,413,952.83,413Zm1.79-97.71c-3.89.5-29.35,4.31-41.9,19.65-14,17-12.28,34.26,5.1,52.63,17.61,18.62,30.33,32.07,49.58,19.4,6.86-4.51,10.65-10.61,11.28-18.14.84-10.11-4.55-20.82-10.32-26.17-9.58-8.9-10.7-15.39-10.74-15.66Z"/>
      </g>
      <g>
        <path class="bfe9f72f-8f3f-4892-9539-0a2a39887661" d="M952.83,413c4.67,0,9.62-1.58,15.1-5.18,7-4.62,11.06-11.14,11.71-18.87.91-10.9-4.87-21.61-10.63-27-9.3-8.64-10.43-15-10.44-15.1l-3-32.12a.5.5,0,0,0-.16-.34.42.42,0,0,0-.35-.11c-.32,0-29.26,3.18-43.06,20.05-14.31,17.49-12.62,35.12,5.15,53.9C930.12,402,940.51,413,952.83,413Zm1.79-97.71,3,31.68c.05.33,1.16,6.81,10.73,15.7,5.78,5.36,11.18,16.08,10.34,26.2-.63,7.54-4.43,13.65-11.3,18.17-19.28,12.68-32-.78-49.63-19.4-17.39-18.39-19.06-35.62-5.1-52.69C925.3,319.5,950.57,315.73,954.62,315.24Z"/>
        <path class="a5b3cc5d-43dd-404e-bd32-58bc8e9f42b9" d="M952.83,413.45c-12.54,0-22.92-11-36.07-24.88-18-19-19.67-36.85-5.17-54.57,13.87-17,43.1-20.2,43.39-20.23a.94.94,0,0,1,.73.24,1,1,0,0,1,.33.69l3,32.09s1.19,6.33,10.29,14.79c5.84,5.42,11.71,16.3,10.79,27.36-.66,7.89-4.79,14.54-11.94,19.24C962.82,411.73,957.79,413.45,952.83,413.45Zm1.34-97.65c-4.64.62-28.89,4.51-41.09,19.42-13.78,16.84-12.11,33.85,5.08,52,17.45,18.46,30.06,31.78,49,19.33,6.73-4.42,10.45-10.41,11.07-17.79.83-10-4.49-20.51-10.18-25.79-9.79-9.09-10.85-15.72-10.89-16Z"/>
      </g>
      <g>
        <path class="bfe9f72f-8f3f-4892-9539-0a2a39887661" d="M979,392c-5.05-7.57-18.66-23.75-21.87-26-4.44-3.07-16.05-8.54-24.59,2.39s-3.42,20.84,2.73,27.33,19.47,20.16,23.23,21.18S982.36,397.13,979,392Z"/>
        <path class="a5b3cc5d-43dd-404e-bd32-58bc8e9f42b9" d="M958.71,417.48a1.6,1.6,0,0,1-.39-.05c-4-1.09-17.73-15.27-23.46-21.32-11.16-11.78-7.66-21.72-2.77-28,3.82-4.89,8.62-7.12,14.28-6.64a23.86,23.86,0,0,1,11,4.14c3.27,2.27,16.84,18.36,22,26.1h0c1.56,2.33-1.07,6.93-3.55,10.37C971.22,408.46,962.07,417.47,958.71,417.48Zm-13.8-55.06c-3.95,0-8.27,1.51-12,6.32-8.43,10.79-3.18,20.47,2.7,26.68,11.82,12.47,20.42,20.34,23,21,2,.55,10.77-7.11,16.42-14.94,3.2-4.44,4.48-7.81,3.53-9.24h0c-5-7.48-18.6-23.66-21.73-25.83C955.39,365.48,950.53,362.42,944.91,362.42Z"/>
      </g>
      <g>
        <path class="bfe9f72f-8f3f-4892-9539-0a2a39887661" d="M958.72,417.44c3.34,0,12.47-9,17.06-15.36,2.47-3.44,5.1-8,3.55-10.33h0c-5.15-7.73-18.71-23.83-22-26.09-2.53-1.75-15.6-9.84-25.23,2.49-8.85,11.33-3.38,21.44,2.76,27.93,5.73,6.05,19.49,20.23,23.45,21.31A1.6,1.6,0,0,0,958.72,417.44Zm19.84-25.18c1,1.44-.32,4.82-3.53,9.28-5.66,7.84-14.48,15.49-16.46,15-2.59-.71-11.2-8.58-23-21.06-5.9-6.22-11.16-15.91-2.71-26.72,9.12-11.67,21.57-4,24-2.3,3.14,2.17,16.75,18.35,21.74,25.84Z"/>
        <path class="a5b3cc5d-43dd-404e-bd32-58bc8e9f42b9" d="M958.72,417.94a1.72,1.72,0,0,1-.52-.07c-3.94-1.07-16.53-13.9-23.68-21.45-6.28-6.63-11.86-17-2.79-28.58,9.9-12.68,23.31-4.38,25.9-2.59,3.3,2.29,17,18.46,22.12,26.22,1.37,2,.17,5.72-3.57,10.9C971.66,408.64,962.34,417.94,958.72,417.94Zm-13.79-55.05c-3.84,0-8,1.47-11.68,6.14-8.23,10.53-3.09,20,2.67,26.07,13.84,14.62,20.85,20.39,22.78,20.92,1.41.4,9.86-6.36,15.92-14.77,3.57-5,4.17-7.75,3.53-8.71h0c-5-7.46-18.51-23.55-21.61-25.71C955.16,365.88,950.41,362.89,944.93,362.89Z"/>
      </g>
      <g>
        <path class="bfe9f72f-8f3f-4892-9539-0a2a39887661" d="M958.19,348.14a.41.41,0,0,0,.21-.05.46.46,0,0,0,.21-.62c-4-8-8-12.69-13-15.32a.46.46,0,1,0-.43.82c4.83,2.53,8.72,7.13,12.61,14.92A.46.46,0,0,0,958.19,348.14Z"/>
        <path class="a5b3cc5d-43dd-404e-bd32-58bc8e9f42b9" d="M958.19,348.64a1,1,0,0,1-.86-.53c-3.84-7.68-7.66-12.22-12.39-14.69a1,1,0,0,1,.89-1.71c5.11,2.68,9.19,7.47,13.23,15.54a1,1,0,0,1-.87,1.39Z"/>
      </g>
    </g>
    <g>
      <g>
        <path class="bfe9f72f-8f3f-4892-9539-0a2a39887661" d="M938.73,229.39c-2.73-1.37-3.63-3.2-5.68-3.54s-13.45,1.28-17.29,7.56c-3.12,5.08-1.71,13.62-1,16s4.87,6.28,4.87,6.28A24,24,0,0,1,923,239.3C928.14,231.44,938.73,229.39,938.73,229.39Z"/>
        <path class="a5b3cc5d-43dd-404e-bd32-58bc8e9f42b9" d="M920.39,257.11l-1.13-1.05c-.17-.16-4.29-4-5-6.5s-2.13-11.17,1.08-16.42c4-6.51,15.55-8.17,17.81-7.79a6.47,6.47,0,0,1,3.08,1.71,13.15,13.15,0,0,0,2.74,1.88l1.31.66-1.44.28c-.11,0-10.45,2.11-15.39,9.69a23.81,23.81,0,0,0-3.35,16Zm12-30.81c-3,0-12.73,1.75-16.16,7.37-3.08,5-1.55,13.59-1,15.61.44,1.52,2.45,3.75,3.7,5A24.46,24.46,0,0,1,922.6,239c4.19-6.42,11.79-9,14.79-9.83a17.37,17.37,0,0,1-1.81-1.37,5.62,5.62,0,0,0-2.61-1.49A3.42,3.42,0,0,0,932.35,226.3Z"/>
      </g>
      <g>
        <path class="bfe9f72f-8f3f-4892-9539-0a2a39887661" d="M919.6,256.16a.46.46,0,0,0,.23-.06.49.49,0,0,0,.23-.49,23.75,23.75,0,0,1,3.35-16.06c5-7.6,15.31-9.68,15.41-9.7a.47.47,0,0,0,.37-.4.45.45,0,0,0-.25-.47,13.93,13.93,0,0,1-2.75-1.89,6.39,6.39,0,0,0-3.06-1.7c-2.25-.38-13.79,1.28-17.77,7.77-3.2,5.24-1.81,13.8-1.07,16.39s4.82,6.32,5,6.49A.45.45,0,0,0,919.6,256.16Zm17.88-27c-2.94.78-10.63,3.37-14.85,9.84A24.31,24.31,0,0,0,919,254.42c-1.25-1.28-3.34-3.58-3.78-5.13-.58-2-2.11-10.61,1-15.64,3.75-6.12,14.94-7.66,16.83-7.35a5.56,5.56,0,0,1,2.62,1.51A19.15,19.15,0,0,0,937.48,229.21Z"/>
        <path class="a5b3cc5d-43dd-404e-bd32-58bc8e9f42b9" d="M919.6,256.66a.92.92,0,0,1-.65-.26c-.18-.16-4.38-4.07-5.14-6.72s-2.17-11.39,1.13-16.78c4.1-6.7,16-8.38,18.27-8a6.74,6.74,0,0,1,3.3,1.81,13.69,13.69,0,0,0,2.65,1.82,1,1,0,0,1,.53,1,1,1,0,0,1-.77.82c-.1,0-10.28,2.1-15.1,9.48a23.42,23.42,0,0,0-3.27,15.69,1,1,0,0,1-.48,1A1,1,0,0,1,919.6,256.66Zm12.74-29.9c-2.83,0-12.46,1.76-15.76,7.15-3,4.88-1.49,13.26-.92,15.24a12.32,12.32,0,0,0,2.71,3.92,24.86,24.86,0,0,1,3.84-14.3c3.87-5.94,10.56-8.66,14.12-9.75-.39-.28-.73-.57-1.05-.83a5.08,5.08,0,0,0-2.38-1.39A2.79,2.79,0,0,0,932.34,226.76Zm6.06,2.44.26.17h.06Z"/>
      </g>
      <g>
        <path class="bfe9f72f-8f3f-4892-9539-0a2a39887661" d="M954.45,234.26c-7.51-4.1-11.79-8.29-23.57-5.21S908.33,239.3,925.75,267,955,298.92,955,298.92Z"/>
        <path class="a5b3cc5d-43dd-404e-bd32-58bc8e9f42b9" d="M955.48,299.63l-.67-.24c-.49-.18-12.17-4.65-29.48-32.15-8.17-13-10.88-22.49-8.28-29.06,2.39-6,9-8.38,13.7-9.61,10.27-2.69,14.94,0,20.85,3.49,1,.57,2,1.17,3.09,1.76l.26.14ZM938.22,228.5a28.8,28.8,0,0,0-7.22,1c-4.52,1.18-10.79,3.4-13,9-2.44,6.18.32,15.65,8.19,28.16,14.81,23.51,25.57,30.06,28.3,31.44L954,234.56c-1-.55-2-1.1-2.86-1.64C947,230.53,943.51,228.5,938.22,228.5Z"/>
      </g>
      <g>
        <path class="bfe9f72f-8f3f-4892-9539-0a2a39887661" d="M955,299.38a.53.53,0,0,0,.27-.08.49.49,0,0,0,.19-.39l-.52-64.66a.48.48,0,0,0-.24-.4c-1.23-.66-2.79-1.25-3.88-1.89-5.59-3.34-10-6-20-3.36-4.73,1.24-11.29,3.57-13.67,9.59-2.6,6.57.11,16.06,8.27,29,17.31,27.49,29,32,29.46,32.13A.41.41,0,0,0,955,299.38Zm-1-64.84.52,63.65c-2.65-1.34-13.52-7.88-28.37-31.47-7.88-12.52-10.64-22-8.19-28.19,2.23-5.63,8.51-7.85,13-9,9.67-2.52,13.94,0,19.34,3.25C951.35,233.36,952.85,233.9,954,234.54Z"/>
        <path class="a5b3cc5d-43dd-404e-bd32-58bc8e9f42b9" d="M955,299.88a1,1,0,0,1-.33-.06c-.5-.18-12.35-4.75-29.71-32.34-8.26-13.11-11-22.75-8.32-29.47,2.47-6.23,9.18-8.63,14-9.89,10.24-2.67,14.74,0,20.43,3.41.56.33,1.26.65,2,1s1.28.58,1.86.9a1,1,0,0,1,.5.83l.52,64.66a1,1,0,0,1-.4.79A1,1,0,0,1,955,299.88ZM938,229a27.34,27.34,0,0,0-6.91,1c-4.43,1.16-10.56,3.32-12.71,8.74-2.38,6,.36,15.36,8.16,27.74C940.14,288,950.29,295.25,954,297.35l-.5-62.51c-.46-.24-1-.47-1.46-.69a20.1,20.1,0,0,1-2-1C946.27,230.91,943,229,938,229Z"/>
      </g>
    </g>
    <g>
      <g>
        <circle class="bfe9f72f-8f3f-4892-9539-0a2a39887661" cx="232.2" cy="320.65" r="32.85"/>
        <path class="a6ce9f9e-d546-4e3a-8da9-56f61a30fde8" d="M232.2,354.5a33.85,33.85,0,1,1,33.85-33.85A33.89,33.89,0,0,1,232.2,354.5Zm0-65.7a31.85,31.85,0,1,0,31.85,31.85A31.89,31.89,0,0,0,232.2,288.8Z"/>
      </g>
      <g>
        <g>
          <path class="b8c6328d-611b-4763-aaa1-f87daec68963" d="M246.82,328.53l-2.41-1.41L231,319.34l-12.62,7.23a.4.4,0,0,1,.06.22.43.43,0,0,1-.43.43.38.38,0,0,1-.22-.06l12.93,7.54a.43.43,0,0,0,.44,0l6.29-3.61a.45.45,0,0,1,.45,0l2.64,1.53a.43.43,0,0,0,.44,0l5.8-3.32A.45.45,0,0,0,246.82,328.53Z"/>
          <path class="fdf704e9-87d6-4828-be3b-39a895e1ae4e" d="M217.8,326.43l0,0a.42.42,0,0,1,.21-.06.46.46,0,0,1,.2,0l.06,0a.53.53,0,0,1,.12.14L231,319.34l0-14.55v-.87a.54.54,0,0,0-.21.05l0,0-12.46,7.22a.45.45,0,0,0,0,.77l6,3.51-6.46,3.65a.44.44,0,0,0-.22.39l0,7.23A.43.43,0,0,1,217.8,326.43Z"/>
          <path class="add604a7-39ae-4f81-b7ee-fbc24ae46a0a" d="M217.61,326.79h0v0Z"/>
          <path class="add604a7-39ae-4f81-b7ee-fbc24ae46a0a" d="M217.83,327.16h0Z"/>
          <rect class="add604a7-39ae-4f81-b7ee-fbc24ae46a0a" x="217.61" y="326.79" width="0.87" transform="translate(-133.65 151.73) rotate(-29.83)"/>
          <path class="aeded329-d3e4-4358-93ab-196d35a63289" d="M218.3,326.43l-.06,0a.46.46,0,0,0-.2,0,.42.42,0,0,0-.21.06l0,0a.43.43,0,0,0-.19.34v0a.36.36,0,0,0,.06.2l.75-.43A.53.53,0,0,0,218.3,326.43Z"/>
          <path class="b8c6328d-611b-4763-aaa1-f87daec68963" d="M218.48,326.79a.4.4,0,0,0-.06-.22l-.75.43a.37.37,0,0,0,.13.15h0a.38.38,0,0,0,.22.06A.43.43,0,0,0,218.48,326.79Z"/>
        </g>
        <g>
          <path class="bfe9f72f-8f3f-4892-9539-0a2a39887661" d="M230.78,304l0,0Z"/>
          <path class="bfe9f72f-8f3f-4892-9539-0a2a39887661" d="M231.22,304l.06,0Z"/>
          <path class="add604a7-39ae-4f81-b7ee-fbc24ae46a0a" d="M244.17,311.5,231.28,304l-.06,0a.46.46,0,0,0-.2-.05v.87l0,14.55,13.37,7.78V311.88A.46.46,0,0,0,244.17,311.5Z"/>
        </g>
        <polygon class="add604a7-39ae-4f81-b7ee-fbc24ae46a0a" points="224.37 323.21 224.32 315.5 231.04 319.34 231.04 327.05 224.37 323.21"/>
        <polygon class="b8c6328d-611b-4763-aaa1-f87daec68963" points="231.04 319.34 237.68 315.45 231.03 311.63 224.32 315.5 231.04 319.34"/>
        <polygon class="fdf704e9-87d6-4828-be3b-39a895e1ae4e" points="237.71 323.2 237.67 315.46 231.04 319.34 231.04 327.05 237.71 323.2"/>
      </g>
    </g>
    <g>
      <path class="aaf3d964-4e13-4dbe-8c4e-d831d6daaa00" d="M189.36,565.44v-14.7h4.06q7.77,0,7.77,7.17a7.22,7.22,0,0,1-2.16,5.47,8,8,0,0,1-5.78,2.06Zm1.72-13.14v11.58h2.19a6.26,6.26,0,0,0,4.51-1.54,5.84,5.84,0,0,0,1.61-4.39c0-3.77-2-5.65-6-5.65Z"/>
      <path class="aaf3d964-4e13-4dbe-8c4e-d831d6daaa00" d="M212.3,565.44h-7.8v-14.7H212v1.56h-5.75v4.89h5.32v1.55h-5.32v5.14h6.08Z"/>
      <path class="aaf3d964-4e13-4dbe-8c4e-d831d6daaa00" d="M226.48,550.74,221,565.44h-1.9l-5.33-14.7h1.92l4.07,11.66a6.94,6.94,0,0,1,.3,1.3h0a6.12,6.12,0,0,1,.34-1.32l4.15-11.64Z"/>
      <path class="aaf3d964-4e13-4dbe-8c4e-d831d6daaa00" d="M232.17,550.74v1.48h-1.44V564h1.44v1.47h-4.6V564H229V552.22h-1.44v-1.48Z"/>
      <path class="aaf3d964-4e13-4dbe-8c4e-d831d6daaa00" d="M245,564.83a8.65,8.65,0,0,1-4.06.86,6.53,6.53,0,0,1-5-2,7.44,7.44,0,0,1-1.89-5.3,7.8,7.8,0,0,1,2.13-5.7,7.2,7.2,0,0,1,5.38-2.18,8.65,8.65,0,0,1,3.46.61v1.83a7.08,7.08,0,0,0-3.48-.88,5.38,5.38,0,0,0-4.11,1.69,6.39,6.39,0,0,0-1.57,4.53,6.08,6.08,0,0,0,1.47,4.28,5,5,0,0,0,3.86,1.59,7.27,7.27,0,0,0,3.83-1Z"/>
      <path class="aaf3d964-4e13-4dbe-8c4e-d831d6daaa00" d="M256.23,565.44h-7.79v-14.7h7.46v1.56h-5.74v4.89h5.31v1.55h-5.31v5.14h6.07Z"/>
      <path class="aaf3d964-4e13-4dbe-8c4e-d831d6daaa00" d="M273.85,565.44h-8.32V564h3.32V552.54l-3.4,1V552l5.08-1.55V564h3.32Z"/>
    </g>
    <g>
      <path class="aaf3d964-4e13-4dbe-8c4e-d831d6daaa00" d="M1043.33,565.44v-14.7h4.06q7.77,0,7.77,7.17a7.22,7.22,0,0,1-2.16,5.47,8,8,0,0,1-5.78,2.06Zm1.72-13.14v11.58h2.19a6.26,6.26,0,0,0,4.51-1.54,5.84,5.84,0,0,0,1.61-4.39c0-3.77-2-5.65-6-5.65Z"/>
      <path class="aaf3d964-4e13-4dbe-8c4e-d831d6daaa00" d="M1066.27,565.44h-7.8v-14.7h7.47v1.56h-5.75v4.89h5.32v1.55h-5.32v5.14h6.08Z"/>
      <path class="aaf3d964-4e13-4dbe-8c4e-d831d6daaa00" d="M1080.45,550.74l-5.45,14.7h-1.9l-5.33-14.7h1.92l4.07,11.66a6.94,6.94,0,0,1,.3,1.3h0a6.12,6.12,0,0,1,.34-1.32l4.15-11.64Z"/>
      <path class="aaf3d964-4e13-4dbe-8c4e-d831d6daaa00" d="M1086.14,550.74v1.48h-1.44V564h1.44v1.47h-4.6V564H1083V552.22h-1.44v-1.48Z"/>
      <path class="aaf3d964-4e13-4dbe-8c4e-d831d6daaa00" d="M1099,564.83a8.65,8.65,0,0,1-4.06.86,6.53,6.53,0,0,1-5-2,7.44,7.44,0,0,1-1.89-5.3,7.8,7.8,0,0,1,2.13-5.7,7.18,7.18,0,0,1,5.38-2.18,8.65,8.65,0,0,1,3.46.61v1.83a7.08,7.08,0,0,0-3.48-.88,5.38,5.38,0,0,0-4.11,1.69,6.39,6.39,0,0,0-1.57,4.53,6.08,6.08,0,0,0,1.47,4.28,5,5,0,0,0,3.86,1.59,7.27,7.27,0,0,0,3.83-1Z"/>
      <path class="aaf3d964-4e13-4dbe-8c4e-d831d6daaa00" d="M1110.2,565.44h-7.79v-14.7h7.46v1.56h-5.74v4.89h5.31v1.55h-5.31v5.14h6.07Z"/>
      <path class="aaf3d964-4e13-4dbe-8c4e-d831d6daaa00" d="M1127.54,565.44h-8.86V564l4.29-4.3a17.91,17.91,0,0,0,2.34-2.73,4.24,4.24,0,0,0,.7-2.34,2.56,2.56,0,0,0-.73-2,2.84,2.84,0,0,0-2.07-.7,5.5,5.5,0,0,0-3.77,1.68v-1.76a6.31,6.31,0,0,1,4-1.35,4.36,4.36,0,0,1,3.1,1.07,3.74,3.74,0,0,1,1.12,2.86,5.43,5.43,0,0,1-.78,2.76,17.28,17.28,0,0,1-2.8,3.35l-3.39,3.35v0h6.84Z"/>
    </g>
    <g>
      <g>
        <rect class="f2de1fff-60b7-4afc-9944-d382d846d16c" x="136.89" y="139.04" width="52.39" height="52.39" rx="11.13"/>
        <path class="a6ce9f9e-d546-4e3a-8da9-56f61a30fde8" d="M178.15,192.43H148a12.14,12.14,0,0,1-12.13-12.13V150.17A12.14,12.14,0,0,1,148,138h30.13a12.14,12.14,0,0,1,12.13,12.13V180.3A12.14,12.14,0,0,1,178.15,192.43ZM148,140a10.15,10.15,0,0,0-10.13,10.13V180.3A10.14,10.14,0,0,0,148,190.43h30.13a10.14,10.14,0,0,0,10.13-10.13V150.17A10.14,10.14,0,0,0,178.15,140Z"/>
      </g>
      <g class="f78d1769-f4e2-4854-81c2-5474901c7678">
        <rect class="f2de1fff-60b7-4afc-9944-d382d846d16c" x="205.64" y="139.04" width="52.39" height="52.39" rx="11.13"/>
        <path class="a6ce9f9e-d546-4e3a-8da9-56f61a30fde8" d="M246.9,192.43H216.77a12.15,12.15,0,0,1-12.13-12.13V150.17A12.15,12.15,0,0,1,216.77,138H246.9A12.14,12.14,0,0,1,259,150.17V180.3A12.14,12.14,0,0,1,246.9,192.43ZM216.77,140a10.15,10.15,0,0,0-10.13,10.13V180.3a10.14,10.14,0,0,0,10.13,10.13H246.9A10.14,10.14,0,0,0,257,180.3V150.17A10.14,10.14,0,0,0,246.9,140Z"/>
      </g>
      <g class="f78d1769-f4e2-4854-81c2-5474901c7678">
        <rect class="f2de1fff-60b7-4afc-9944-d382d846d16c" x="275.12" y="139.04" width="52.39" height="52.39" rx="11.13"/>
        <path class="a6ce9f9e-d546-4e3a-8da9-56f61a30fde8" d="M316.38,192.43H286.25a12.14,12.14,0,0,1-12.13-12.13V150.17A12.14,12.14,0,0,1,286.25,138h30.13a12.14,12.14,0,0,1,12.13,12.13V180.3A12.14,12.14,0,0,1,316.38,192.43ZM286.25,140a10.14,10.14,0,0,0-10.13,10.13V180.3a10.14,10.14,0,0,0,10.13,10.13h30.13a10.14,10.14,0,0,0,10.13-10.13V150.17A10.15,10.15,0,0,0,316.38,140Z"/>
      </g>
      <g>
        <path class="f7df91b9-a9be-4826-84d8-0f63470956a1" d="M157.81,172.67H155.9l-1.56-4.13h-6.23l-1.47,4.13h-1.92L150.36,158h1.79Zm-4-5.67-2.31-6.27a6.9,6.9,0,0,1-.23-1h0a4.91,4.91,0,0,1-.23,1L148.68,167Z"/>
        <path class="f7df91b9-a9be-4826-84d8-0f63470956a1" d="M162.11,167.11v5.56h-1.72V158h4a5.34,5.34,0,0,1,3.66,1.15,4.12,4.12,0,0,1,1.29,3.24,4.46,4.46,0,0,1-1.44,3.43,5.53,5.53,0,0,1-3.89,1.33Zm0-7.59v6h1.81a4,4,0,0,0,2.72-.82,2.87,2.87,0,0,0,.94-2.3q0-2.91-3.45-2.91Z"/>
        <path class="f7df91b9-a9be-4826-84d8-0f63470956a1" d="M174.29,167.11v5.56h-1.72V158h4a5.34,5.34,0,0,1,3.66,1.15,4.12,4.12,0,0,1,1.29,3.24,4.46,4.46,0,0,1-1.44,3.43,5.53,5.53,0,0,1-3.89,1.33Zm0-7.59v6h1.81a4,4,0,0,0,2.72-.82,2.87,2.87,0,0,0,.94-2.3q0-2.91-3.45-2.91Z"/>
      </g>
    </g>
    <g>
      <g>
        <circle class="bfe9f72f-8f3f-4892-9539-0a2a39887661" cx="1078.57" cy="320.65" r="32.85"/>
        <path class="a6ce9f9e-d546-4e3a-8da9-56f61a30fde8" d="M1078.57,354.5a33.85,33.85,0,1,1,33.85-33.85A33.89,33.89,0,0,1,1078.57,354.5Zm0-65.7a31.85,31.85,0,1,0,31.85,31.85A31.89,31.89,0,0,0,1078.57,288.8Z"/>
      </g>
      <g>
        <g>
          <path class="b8c6328d-611b-4763-aaa1-f87daec68963" d="M1093.19,328.53l-2.41-1.41-13.38-7.78-12.61,7.23a.4.4,0,0,1,.06.22.44.44,0,0,1-.44.43.43.43,0,0,1-.22-.06l12.93,7.54a.45.45,0,0,0,.45,0l6.29-3.61a.45.45,0,0,1,.45,0l2.64,1.53a.43.43,0,0,0,.44,0l5.79-3.32A.45.45,0,0,0,1093.19,328.53Z"/>
          <path class="fdf704e9-87d6-4828-be3b-39a895e1ae4e" d="M1064.16,326.43l0,0a.39.39,0,0,1,.21-.06.46.46,0,0,1,.2,0l.05,0a.43.43,0,0,1,.13.14l12.61-7.23V303.92a.5.5,0,0,0-.21.05l0,0-12.45,7.22a.44.44,0,0,0,0,.77l6,3.51-6.46,3.65a.48.48,0,0,0-.23.39l0,7.23A.45.45,0,0,1,1064.16,326.43Z"/>
          <path class="add604a7-39ae-4f81-b7ee-fbc24ae46a0a" d="M1064,326.79h0v0Z"/>
          <path class="add604a7-39ae-4f81-b7ee-fbc24ae46a0a" d="M1064.19,327.16h0Z"/>
          <rect class="add604a7-39ae-4f81-b7ee-fbc24ae46a0a" x="1063.98" y="326.79" width="0.87" transform="translate(-21.54 572.68) rotate(-29.83)"/>
          <path class="aeded329-d3e4-4358-93ab-196d35a63289" d="M1064.66,326.43l-.05,0a.46.46,0,0,0-.2,0,.39.39,0,0,0-.21.06l0,0a.45.45,0,0,0-.18.34v0a.36.36,0,0,0,.06.2l.75-.43A.43.43,0,0,0,1064.66,326.43Z"/>
          <path class="b8c6328d-611b-4763-aaa1-f87daec68963" d="M1064.85,326.79a.4.4,0,0,0-.06-.22l-.75.43a.37.37,0,0,0,.13.15h0a.43.43,0,0,0,.22.06A.44.44,0,0,0,1064.85,326.79Z"/>
        </g>
        <g>
          <path class="bfe9f72f-8f3f-4892-9539-0a2a39887661" d="M1077.14,304l0,0Z"/>
          <path class="bfe9f72f-8f3f-4892-9539-0a2a39887661" d="M1077.59,304l.05,0Z"/>
          <path class="add604a7-39ae-4f81-b7ee-fbc24ae46a0a" d="M1090.54,311.5l-12.9-7.5-.05,0a.46.46,0,0,0-.2-.05v15.42l13.38,7.78,0-15.24A.43.43,0,0,0,1090.54,311.5Z"/>
        </g>
        <polygon class="add604a7-39ae-4f81-b7ee-fbc24ae46a0a" points="1070.74 323.21 1070.69 315.5 1077.4 319.34 1077.41 327.05 1070.74 323.21"/>
        <polygon class="b8c6328d-611b-4763-aaa1-f87daec68963" points="1077.4 319.34 1084.05 315.45 1077.4 311.63 1070.69 315.5 1077.4 319.34"/>
        <polygon class="fdf704e9-87d6-4828-be3b-39a895e1ae4e" points="1084.08 323.2 1084.04 315.46 1077.4 319.34 1077.41 327.05 1084.08 323.2"/>
      </g>
    </g>
    <g>
      <g>
        <rect class="f2de1fff-60b7-4afc-9944-d382d846d16c" x="983.26" y="139.04" width="52.39" height="52.39" rx="11.13"/>
        <path class="a6ce9f9e-d546-4e3a-8da9-56f61a30fde8" d="M1024.52,192.43H994.39a12.14,12.14,0,0,1-12.13-12.13V150.17A12.14,12.14,0,0,1,994.39,138h30.13a12.14,12.14,0,0,1,12.13,12.13V180.3A12.14,12.14,0,0,1,1024.52,192.43ZM994.39,140a10.14,10.14,0,0,0-10.13,10.13V180.3a10.14,10.14,0,0,0,10.13,10.13h30.13a10.14,10.14,0,0,0,10.13-10.13V150.17A10.14,10.14,0,0,0,1024.52,140Z"/>
      </g>
      <g class="f78d1769-f4e2-4854-81c2-5474901c7678">
        <rect class="f2de1fff-60b7-4afc-9944-d382d846d16c" x="1052.01" y="139.04" width="52.39" height="52.39" rx="11.13"/>
        <path class="a6ce9f9e-d546-4e3a-8da9-56f61a30fde8" d="M1093.27,192.43h-30.13A12.14,12.14,0,0,1,1051,180.3V150.17A12.14,12.14,0,0,1,1063.14,138h30.13a12.14,12.14,0,0,1,12.13,12.13V180.3A12.14,12.14,0,0,1,1093.27,192.43ZM1063.14,140A10.15,10.15,0,0,0,1053,150.17V180.3a10.14,10.14,0,0,0,10.13,10.13h30.13a10.14,10.14,0,0,0,10.13-10.13V150.17A10.14,10.14,0,0,0,1093.27,140Z"/>
      </g>
      <g class="f78d1769-f4e2-4854-81c2-5474901c7678">
        <rect class="f2de1fff-60b7-4afc-9944-d382d846d16c" x="1121.49" y="139.04" width="52.39" height="52.39" rx="11.13"/>
        <path class="a6ce9f9e-d546-4e3a-8da9-56f61a30fde8" d="M1162.75,192.43h-30.13a12.14,12.14,0,0,1-12.13-12.13V150.17A12.14,12.14,0,0,1,1132.62,138h30.13a12.15,12.15,0,0,1,12.13,12.13V180.3A12.15,12.15,0,0,1,1162.75,192.43ZM1132.62,140a10.14,10.14,0,0,0-10.13,10.13V180.3a10.14,10.14,0,0,0,10.13,10.13h30.13a10.14,10.14,0,0,0,10.13-10.13V150.17A10.15,10.15,0,0,0,1162.75,140Z"/>
      </g>
      <g>
        <path class="f7df91b9-a9be-4826-84d8-0f63470956a1" d="M1004.18,172.67h-1.91l-1.56-4.13h-6.23L993,172.67h-1.92L996.73,158h1.79Zm-4-5.67-2.31-6.27a5.73,5.73,0,0,1-.23-1h0a5.72,5.72,0,0,1-.23,1L995.05,167Z"/>
        <path class="f7df91b9-a9be-4826-84d8-0f63470956a1" d="M1008.48,167.11v5.56h-1.72V158h4a5.29,5.29,0,0,1,3.65,1.15,4.1,4.1,0,0,1,1.3,3.24,4.46,4.46,0,0,1-1.44,3.43,5.54,5.54,0,0,1-3.89,1.33Zm0-7.59v6h1.81a4,4,0,0,0,2.72-.82,2.9,2.9,0,0,0,.94-2.3q0-2.91-3.45-2.91Z"/>
        <path class="f7df91b9-a9be-4826-84d8-0f63470956a1" d="M1020.66,167.11v5.56h-1.72V158h4a5.34,5.34,0,0,1,3.66,1.15,4.12,4.12,0,0,1,1.29,3.24,4.46,4.46,0,0,1-1.44,3.43,5.54,5.54,0,0,1-3.89,1.33Zm0-7.59v6h1.81a4,4,0,0,0,2.72-.82,2.87,2.87,0,0,0,.94-2.3q0-2.91-3.45-2.91Z"/>
      </g>
    </g>
    <path class="a5b3cc5d-43dd-404e-bd32-58bc8e9f42b9" d="M161.19,192.31a3,3,0,0,1,2.07.74l12.43,12.16-1.4,1.43-12.43-12.16a1.5,1.5,0,0,0-1.34,0L148.1,206.64l-1.4-1.43,12.43-12.16A3,3,0,0,1,161.19,192.31Z"/>
    <path class="a5b3cc5d-43dd-404e-bd32-58bc8e9f42b9" d="M199.05,318.58a3,3,0,0,1-.74,2.06l-12.16,12.43-1.43-1.4,12.16-12.42a1.44,1.44,0,0,0,0-1.34l-12.16-12.43,1.43-1.4,12.16,12.43A3,3,0,0,1,199.05,318.58Z"/>
    <path class="a5b3cc5d-43dd-404e-bd32-58bc8e9f42b9" d="M160.55,193.29h2V316.75a.59.59,0,0,0,.59.59H197.4v2H163.14a2.6,2.6,0,0,1-2.59-2.59Z"/>
    <path class="a5b3cc5d-43dd-404e-bd32-58bc8e9f42b9" d="M1008.42,192.31a3,3,0,0,1,2.07.74l12.42,12.16-1.4,1.43-12.42-12.16a1.5,1.5,0,0,0-1.34,0l-12.43,12.16-1.4-1.43,12.43-12.16A3,3,0,0,1,1008.42,192.31Z"/>
    <path class="a5b3cc5d-43dd-404e-bd32-58bc8e9f42b9" d="M1046.27,318.58a2.93,2.93,0,0,1-.74,2.06l-12.16,12.43-1.43-1.4,12.16-12.42a1.44,1.44,0,0,0,0-1.34l-12.16-12.43,1.43-1.4,12.16,12.43A2.94,2.94,0,0,1,1046.27,318.58Z"/>
    <path class="a5b3cc5d-43dd-404e-bd32-58bc8e9f42b9" d="M1007.77,193.29h2V316.75a.59.59,0,0,0,.59.59h34.27v2h-34.27a2.6,2.6,0,0,1-2.59-2.59Z"/>
    <circle class="b8c6328d-611b-4763-aaa1-f87daec68963" cx="161.49" cy="255.16" r="19.03"/>
    <path class="bfe9f72f-8f3f-4892-9539-0a2a39887661" d="M160.6,260.17v.08H168v3.33H156v-3.13l5.21-5a14.55,14.55,0,0,0,2.22-2.53,4,4,0,0,0,.64-2.15q0-2.52-2.7-2.52a6.81,6.81,0,0,0-4.5,1.87V246.6a9.7,9.7,0,0,1,5.36-1.53,6.28,6.28,0,0,1,4.36,1.4,4.81,4.81,0,0,1,1.57,3.79c0,2.12-1.28,4.32-3.82,6.59Z"/>
    <circle class="b8c6328d-611b-4763-aaa1-f87daec68963" cx="653.71" cy="171.26" r="19.03"/>
    <path class="bfe9f72f-8f3f-4892-9539-0a2a39887661" d="M647.84,179.07v-3.49a7,7,0,0,0,4.26,1.33,3.81,3.81,0,0,0,2.4-.66,2.18,2.18,0,0,0,.85-1.84,2.07,2.07,0,0,0-1.06-1.87,5.36,5.36,0,0,0-2.91-.67h-1.64V168.8h1.51c2.37,0,3.56-.78,3.56-2.36s-.91-2.22-2.73-2.22a6.21,6.21,0,0,0-3.56,1.18v-3.28a9.87,9.87,0,0,1,4.47-1,6.75,6.75,0,0,1,4.35,1.26,4,4,0,0,1,1.56,3.26,4.24,4.24,0,0,1-3.62,4.47v.06a4.88,4.88,0,0,1,3,1.41,3.91,3.91,0,0,1,1.12,2.84,4.87,4.87,0,0,1-1.87,4,8.05,8.05,0,0,1-5.15,1.49A9.91,9.91,0,0,1,647.84,179.07Z"/>
    <circle class="b8c6328d-611b-4763-aaa1-f87daec68963" cx="143.2" cy="132.75" r="19.03"/>
    <path class="bfe9f72f-8f3f-4892-9539-0a2a39887661" d="M150,141.16H138.49V138h3.78V126.65l-3.88.84v-3.25l7.87-1.59V138H150Z"/>
  </g>
</svg>
