<svg xmlns="http://www.w3.org/2000/svg" xmlns:xlink="http://www.w3.org/1999/xlink" width="1310.93" height="835.37" viewBox="0 0 1310.93 835.37">
  <defs>
    <style>
      .f076fa53-cf42-4279-8bc3-667570222b47 {
        fill: none;
      }

      .a4dd822e-15b3-4f51-ab83-9cad85aae8c9 {
        fill: #dceaf4;
      }

      .fb54d559-35de-4dbf-821e-f7923b32cecd {
        fill: url(#b5410cb4-98d2-4b74-bbba-9c0b33e1bfd2);
      }

      .a8ea7be9-2502-4c6d-8d79-3370b73a7dd0 {
        fill: #1998ff;
      }

      .a2f4ee28-b68c-42c5-aa3e-e386ffb52c56, .aae3e77f-5bfd-41ad-a290-86cb336b569d, .e54f5cd5-658b-4948-8c7c-e8dfc6ee8908, .ec3921c1-877b-459f-a28b-079f04722402 {
        fill: #fff;
      }

      .e61b99c2-3fb5-40fa-91be-5b34f23c063b, .ec3921c1-877b-459f-a28b-079f04722402 {
        stroke: #75828e;
      }

      .a3178fd5-a264-4b2b-aa89-8f1b2e731619, .aae3e77f-5bfd-41ad-a290-86cb336b569d, .b93bbc90-9bab-464e-b80a-64d6ed3b515f, .e61b99c2-3fb5-40fa-91be-5b34f23c063b, .e96d1395-26a1-4e08-b685-58685f20e414, .ec3921c1-877b-459f-a28b-079f04722402, .f35084af-2b98-47ea-bb77-92994bc9c5d7 {
        stroke-miterlimit: 10;
      }

      .a3178fd5-a264-4b2b-aa89-8f1b2e731619, .f35084af-2b98-47ea-bb77-92994bc9c5d7 {
        fill: #c0e4ff;
      }

      .a3178fd5-a264-4b2b-aa89-8f1b2e731619, .aae3e77f-5bfd-41ad-a290-86cb336b569d, .e96d1395-26a1-4e08-b685-58685f20e414, .f35084af-2b98-47ea-bb77-92994bc9c5d7 {
        stroke: #1998ff;
        stroke-width: 2px;
      }

      .e96d1395-26a1-4e08-b685-58685f20e414 {
        fill: #eff5f9;
      }

      .b93bbc90-9bab-464e-b80a-64d6ed3b515f, .fe0a6ba9-6f7a-4e64-a0ce-cbe0113ab74a {
        fill: #053151;
      }

      .b6f6674d-d04f-4b7c-863f-004af516a580 {
        fill: #7ac8fc;
      }

      .a2fe656e-016b-4fa0-be22-4eff8e398697 {
        fill: #0086e8;
      }

      .f3194746-a613-4e74-ae0c-3d682b293504 {
        fill: #5ec5fc;
      }

      .b93bbc90-9bab-464e-b80a-64d6ed3b515f, .e61b99c2-3fb5-40fa-91be-5b34f23c063b {
        font-size: 21px;
        stroke-width: 0.3px;
        font-family: SegoeUI, Segoe UI;
        letter-spacing: 0.02em;
      }

      .e46ff731-25a1-48e2-9730-ac200ec71588, .e61b99c2-3fb5-40fa-91be-5b34f23c063b {
        fill: #75828e;
      }

      .a3178fd5-a264-4b2b-aa89-8f1b2e731619 {
        opacity: 0.3;
      }

      .b93bbc90-9bab-464e-b80a-64d6ed3b515f {
        stroke: #053151;
      }

      .a2f4ee28-b68c-42c5-aa3e-e386ffb52c56 {
        font-size: 26px;
        font-family: SegoeUI-Bold, Segoe UI;
        font-weight: 700;
        letter-spacing: 0.02em;
      }
    </style>
    <pattern id="b5410cb4-98d2-4b74-bbba-9c0b33e1bfd2" data-name="Docs Polka Background" width="60" height="60" patternTransform="translate(1244.61 2349.82) scale(0.87 0.74)" patternUnits="userSpaceOnUse" viewBox="0 0 60 60">
      <rect class="f076fa53-cf42-4279-8bc3-667570222b47" width="60" height="60"/>
      <circle class="a4dd822e-15b3-4f51-ab83-9cad85aae8c9" cx="30" cy="30" r="2.47"/>
    </pattern>
  </defs>
  <g id="bf9bb396-a44b-4c44-8978-351ebf7a4a6c" data-name="Layer 2">
    <rect class="fb54d559-35de-4dbf-821e-f7923b32cecd" x="0.13" y="-0.09" width="1308.56" height="835.01"/>
  </g>
  <g id="b1abea70-58a4-4f86-96b3-b42726fc3f59" data-name="Layer 1">
    <rect class="a8ea7be9-2502-4c6d-8d79-3370b73a7dd0" x="356.48" y="171.03" width="594.45" height="2"/>
    <path class="a8ea7be9-2502-4c6d-8d79-3370b73a7dd0" d="M939.87,186.5l-1.43-1.4,12.16-12.42a1.5,1.5,0,0,0,0-1.34l-12.16-12.43,1.43-1.39L952,169.94a3.28,3.28,0,0,1,0,4.14Z"/>
    <path class="a8ea7be9-2502-4c6d-8d79-3370b73a7dd0" d="M367.8,186.5l1.43-1.4-12.15-12.42a1.44,1.44,0,0,1,0-1.34l12.15-12.43-1.43-1.39-12.15,12.42a3.26,3.26,0,0,0,0,4.14Z"/>
    <g>
      <g>
        <path class="ec3921c1-877b-459f-a28b-079f04722402" d="M88.32,846.94C100.61,827.47,155.19,722,177.74,722s82-64.57,96.34-83,19.47-36.89,40-56.37S338.64,391,328.39,359.21s-74.81-77.89-110.68-45.1S96.77,440.17,91.65,441.2s3-21,8.2-33.82c7.51-18.45,13.32-88.48,11.27-102.83s-9.22-27.84-16.91-33.48-20.5,18.45-26.65,45.61-22,39.45-25.11,48.68-7.68,48.17-26.13,77.38-13.15,29.55-7,74.64,15,90.87,6.14,109.32-60.12,99.07-82,116.84A194.93,194.93,0,0,0-20.88,761.8c33.17,8.33-8,78.38,9.32,84.14C25.94,858.44,88.32,846.94,88.32,846.94Z"/>
        <path class="ec3921c1-877b-459f-a28b-079f04722402" d="M88.31,847.4a.42.42,0,0,1-.24-.07.47.47,0,0,1-.15-.64c2.19-3.45,4.83-8,7.9-13.34,14.42-25,63.11-111.8,81.92-111.8,22,0,80.44-62.86,96-82.83a189.43,189.43,0,0,0,13.82-21.28c6.65-11.36,13.53-23.11,26.2-35.14,8.9-8.46,15.83-48.38,18.56-106.79,2.42-52,.6-100.86-4.34-116.16-6.14-19.05-34-45.83-64-53.8-12.79-3.39-31.13-4.59-45.89,8.91-18.24,16.68-48.9,48.67-75.94,76.9-29.56,30.85-47.81,49.79-50.34,50.29a1.55,1.55,0,0,1-1.6-.5c-2.65-3.21,4.67-22.65,9.28-33.95,7.29-17.89,13.38-87.62,11.24-102.59-2-13.74-8.84-27.39-16.72-33.17a3.67,3.67,0,0,0-3.7-.43c-7.27,2.71-17,22.82-22.23,45.77-4.07,18-12.4,29.5-18.47,37.89-3.14,4.34-5.62,7.76-6.65,10.84-.7,2.11-1.5,5.87-2.52,10.64-3.53,16.58-9.44,44.32-23.66,66.83C1.76,466.66,2.5,471.22,6.6,496.48c1,5.87,2,12.53,3.17,20.84,1,7.23,2.06,14.55,3.09,21.63,5.42,37.2,10.54,72.34,3,87.95C7,645.4-44.4,726.15-66.23,743.9a.46.46,0,0,1-.65-.07.45.45,0,0,1,.06-.65C-45.06,725.5,6.16,645,15.05,626.5c7.39-15.36,2.29-50.36-3.11-87.41-1-7.08-2.1-14.41-3.08-21.65-1.14-8.3-2.22-15-3.17-20.81-4.16-25.56-4.9-30.16,10.24-54.14,14.13-22.38,20-50,23.53-66.53,1-4.8,1.83-8.59,2.55-10.75,1.07-3.21,3.59-6.68,6.78-11.08,6-8.33,14.29-19.74,18.32-37.56C72.46,293,82.26,273,89.91,270.14a4.57,4.57,0,0,1,4.57.56c8.07,5.91,15.1,19.81,17.1,33.78,2.15,15-4,85.09-11.3,103.07-7.48,18.35-11.09,31-9.42,33,.1.13.28.27.7.19,2.37-.48,25.43-24.55,49.85-50,27.05-28.24,57.72-60.25,76-77,11.93-10.9,28.09-14.06,46.74-9.11,30.38,8,58.48,35.13,64.7,54.41,5,15.39,6.8,64.38,4.37,116.48-2.73,58.65-9.78,98.8-18.84,107.42-12.58,11.94-19.42,23.63-26,34.93a189.48,189.48,0,0,1-13.89,21.39c-15.6,20.05-74.33,83.19-96.7,83.19-18.27,0-66.81,86.54-81.12,111.33-3.07,5.32-5.72,9.91-7.91,13.38A.46.46,0,0,1,88.31,847.4Z"/>
      </g>
      <g>
        <path class="ec3921c1-877b-459f-a28b-079f04722402" d="M66.71,320.61c3.07.34,12.3-15.38,16.4-27.68s7.51-20.15,7.51-22.54-1-12.64-4.1-14.69-12.79,23.81-15.37,33.48C68.42,299.42,66.71,320.61,66.71,320.61Z"/>
        <path class="ec3921c1-877b-459f-a28b-079f04722402" d="M66.78,321.07h-.12a.47.47,0,0,1-.41-.5c0-.21,1.74-21.34,4.45-31.51,2.15-8.06,11-32.33,15-33.85a1.2,1.2,0,0,1,1.12.1c3.5,2.34,4.31,13.48,4.31,15.08s-1.2,4.83-3.19,10.31c-1.22,3.36-2.74,7.55-4.35,12.38C79.63,304.84,70.4,321.07,66.78,321.07Zm19.37-65a.41.41,0,0,0-.16,0c-3.24,1.22-11.75,23.31-14.39,33.22-2.44,9.14-4.08,27.29-4.38,30.76,3-1.22,11.42-15.2,15.45-27.27,1.61-4.85,3.13-9,4.36-12.41,1.82-5,3.13-8.62,3.13-10,0-2.83-1.17-12.49-3.89-14.31A.28.28,0,0,0,86.15,256Z"/>
      </g>
      <path class="ec3921c1-877b-459f-a28b-079f04722402" d="M94.38,466.43H94.3a.46.46,0,0,1-.38-.53c1.45-8.34-.74-14.3-2.67-19.55a31.86,31.86,0,0,1-2.11-7.49.45.45,0,0,1,.41-.5.46.46,0,0,1,.51.41A30.8,30.8,0,0,0,92.12,446c1.87,5.1,4.2,11.44,2.72,20A.47.47,0,0,1,94.38,466.43Z"/>
      <path class="ec3921c1-877b-459f-a28b-079f04722402" d="M282.28,617.43h0a.47.47,0,0,1-.43-.5c.5-5.93-6.72-26.94-17.75-35.47a.46.46,0,0,1-.09-.65.47.47,0,0,1,.65-.08c11.48,8.86,18.64,30,18.12,36.28A.47.47,0,0,1,282.28,617.43Z"/>
      <path class="ec3921c1-877b-459f-a28b-079f04722402" d="M220.78,641a.47.47,0,0,1-.31-.12C208.73,630,204.08,600.2,201,580.52c-.82-5.23-1.52-9.75-2.19-12.64a.46.46,0,1,1,.9-.21c.68,2.92,1.38,7.46,2.21,12.71,2.87,18.37,7.68,49.11,19.18,59.82a.47.47,0,0,1,0,.65A.45.45,0,0,1,220.78,641Z"/>
      <path class="ec3921c1-877b-459f-a28b-079f04722402" d="M46.22,369.9a16.91,16.91,0,0,1-4.4-.51.46.46,0,1,1,.24-.89c5.45,1.48,14-1,14.1-1a.45.45,0,0,1,.57.31.44.44,0,0,1-.31.57A40.74,40.74,0,0,1,46.22,369.9Z"/>
      <path class="ec3921c1-877b-459f-a28b-079f04722402" d="M39.82,379.69a2.79,2.79,0,0,1-.53,0,.47.47,0,0,1-.37-.55.47.47,0,0,1,.55-.36c2,.39,9.34-2.8,12-4.06a.47.47,0,0,1,.62.22.46.46,0,0,1-.22.61C50.92,376,43,379.69,39.82,379.69Z"/>
      <path class="ec3921c1-877b-459f-a28b-079f04722402" d="M97.28,408.87a.45.45,0,0,1-.37-.2c-5-7-14.65-13.65-14.75-13.72a.46.46,0,0,1-.12-.64.46.46,0,0,1,.64-.12c.1.06,9.87,6.79,15,13.94a.47.47,0,0,1-.11.65A.44.44,0,0,1,97.28,408.87Z"/>
    </g>
    <g>
      <path class="f35084af-2b98-47ea-bb77-92994bc9c5d7" d="M322.42,600.5l-191.09-1.58a27.06,27.06,0,0,1-26.83-27.28l3.73-451.12a27.05,27.05,0,0,1,27.28-26.83L326.6,95.27a27.05,27.05,0,0,1,26.83,27.28L349.7,573.67A27.06,27.06,0,0,1,322.42,600.5Z"/>
      <path class="e96d1395-26a1-4e08-b685-58685f20e414" d="M327.37,586.89,126.6,585.23a13.06,13.06,0,0,1-12.95-13.17l3.74-451.82a13.06,13.06,0,0,1,13.17-12.95L331.33,109a13,13,0,0,1,12.95,13.16l-3.74,451.82A13.06,13.06,0,0,1,327.37,586.89Z"/>
    </g>
    <g>
      <path class="ec3921c1-877b-459f-a28b-079f04722402" d="M370.69,487.06c14.35-11.27,26.27-1.94,28.44,16.66,1.8,15.37-1,26.39-22.8,38.43s-30.49,14.6-37.41,9.48-16.14-17.94-12.3-25.11S363.36,492.83,370.69,487.06Z"/>
      <path class="ec3921c1-877b-459f-a28b-079f04722402" d="M346.46,554.59a12.5,12.5,0,0,1-7.81-2.59c-6.55-4.85-16.59-18-12.43-25.7,4.32-8.06,43.79-39.29,44.19-39.6,6.08-4.78,12-6.16,17.21-4,6.36,2.65,10.73,10.29,12,21,1.86,15.94-1.26,26.85-23,38.9C361.48,550.89,352.69,554.59,346.46,554.59ZM371,487.43c-10.25,8.05-40.34,32.57-44,39.31s5,19.18,12.17,24.52c6.53,4.84,14.81,2.7,36.91-9.51,21.32-11.79,24.38-22.45,22.56-38-1.2-10.34-5.36-17.71-11.4-20.22-4.86-2-10.49-.68-16.29,3.88Z"/>
      <path class="ec3921c1-877b-459f-a28b-079f04722402" d="M339.35,553.77c5.08-1.5,16.4-9.06,20.84-13.16s10.76-13,7-20.15-11.44-7.52-19.81-3.25-20.67,13-22.89,16.06,2.9,10.59,5.12,13.49S336.45,554.62,339.35,553.77Z"/>
      <path class="ec3921c1-877b-459f-a28b-079f04722402" d="M338.65,554.33c-3.64,0-8.42-6-9.4-7.29-1.85-2.41-7.66-10.54-5.14-14,2.33-3.22,14.82-12,23.06-16.2,9.34-4.77,16.79-3.51,20.43,3.44,3.95,7.54-2.6,16.57-7.1,20.71-4.34,4-15.72,11.7-21,13.26h0A2.92,2.92,0,0,1,338.65,554.33Zm.7-.56h0Zm17.94-38.87a21.84,21.84,0,0,0-9.7,2.72c-8.59,4.38-20.68,13.09-22.73,15.92-1.71,2.37,1.69,8.45,5.12,12.94,2.22,2.9,6.65,7.6,9.24,6.84,5.09-1.5,16.48-9.19,20.66-13.05,4-3.69,10.6-12.55,6.9-19.6A10.14,10.14,0,0,0,357.29,514.9Z"/>
    </g>
    <g>
      <path class="ec3921c1-877b-459f-a28b-079f04722402" d="M353,390.64c10.59,2.73,35.75,18.16,44.76,28.35,10.33,11.7,12,40.32,7.17,47.83s-40,51.59-52.27,51.93-31.09-19.82-28.35-28,14.32-28.8,21.18-37.24c6.66-8.2,10.93-9.57,11.61-15,.52-4.14-4.1-2.39-4.1-2.39Z"/>
      <path class="ec3921c1-877b-459f-a28b-079f04722402" d="M352.36,519.22c-8,0-18.29-8.11-24-15.85-3.82-5.15-5.44-9.8-4.45-12.78,2.84-8.53,14.57-29.15,21.26-37.38a79.25,79.25,0,0,1,6.39-6.9c2.94-2.88,4.71-4.62,5.12-7.9a2,2,0,0,0-.46-1.91c-.8-.63-2.44-.21-3,0a.5.5,0,0,1-.43-.05.49.49,0,0,1-.2-.39V390.64a.49.49,0,0,1,.18-.37.47.47,0,0,1,.4-.08c10.37,2.68,35.84,18.15,45,28.5,10.17,11.51,12.26,40.46,7.22,48.38s-40.22,51.8-52.64,52.14Zm2.62-84a2.9,2.9,0,0,1,1.78.52,2.83,2.83,0,0,1,.81,2.75c-.45,3.6-2.41,5.53-5.39,8.45a77.16,77.16,0,0,0-6.32,6.82c-6.65,8.18-18.28,28.63-21.1,37.09-.9,2.69.67,7,4.31,11.94,5.61,7.56,15.62,15.47,23.29,15.47h.3c11.56-.32,46.29-42.91,51.89-51.72,4.44-7,3.41-35.33-7.13-47.27-8.89-10.06-33.35-25-43.94-28.05v44.2A6.19,6.19,0,0,1,355,435.25Z"/>
      <path class="ec3921c1-877b-459f-a28b-079f04722402" d="M323,498.59c3.58-3.88,20.49-25.62,30.23-29.72,7.65-3.22,18.7-2.82,21.27,4.36s2.3,17.42-7.18,27.16-20.49,19.73-23.83,20.49S320,501.92,323,498.59Z"/>
      <path class="ec3921c1-877b-459f-a28b-079f04722402" d="M343.36,521.36c-3.53,0-16.24-12.22-19.92-18.55-1.28-2.21-1.52-3.69-.74-4.53s1.75-2,3.15-3.68c6.23-7.39,19.18-22.76,27.24-26.16,5.57-2.34,12.29-2.6,16.72-.65a9,9,0,0,1,5.16,5.28c1.59,4.44,4,16-7.28,27.64-9.42,9.68-20.51,19.81-24.05,20.62A1.27,1.27,0,0,1,343.36,521.36Zm19.45-53.95a24.49,24.49,0,0,0-9.36,1.89c-7.86,3.31-20.71,18.57-26.89,25.9-1.41,1.67-2.52,3-3.18,3.71h0c-.44.47-.13,1.73.87,3.43,4,6.83,17,18.61,19.18,18.09,3.19-.73,14.29-10.8,23.6-20.37,11-11.25,8.6-22.41,7.07-26.68a8.18,8.18,0,0,0-4.66-4.75A16.76,16.76,0,0,0,362.81,467.41ZM323,498.59h0Z"/>
    </g>
    <g>
      <path class="ec3921c1-877b-459f-a28b-079f04722402" d="M353.91,314.73s28.9,3,42.74,19.88,12.81,34.34-5.13,53.3-30.74,32.28-50.22,19.47-10.59-36.21-1-45.1,10.59-15.37,10.59-15.37Z"/>
      <path class="ec3921c1-877b-459f-a28b-079f04722402" d="M356.15,413c-4.67,0-9.62-1.58-15.1-5.18-7-4.62-11.07-11.14-11.71-18.87-.91-10.9,4.87-21.61,10.62-27,9.31-8.64,10.44-15,10.45-15.1l3-32.12a.5.5,0,0,1,.16-.34.41.41,0,0,1,.35-.11c.32,0,29.26,3.18,43.06,20.05,14.3,17.49,12.62,35.12-5.15,53.9C378.86,402,368.47,413,356.15,413Zm-1.79-97.71-3,31.68c-.05.33-1.16,6.81-10.74,15.7-5.77,5.36-11.17,16.08-10.33,26.2.63,7.54,4.43,13.65,11.3,18.17,19.28,12.68,32-.78,49.63-19.4,17.39-18.39,19.06-35.62,5.1-52.69C383.68,319.5,358.41,315.73,354.36,315.24Z"/>
      <path class="ec3921c1-877b-459f-a28b-079f04722402" d="M330,392c5.05-7.57,18.66-23.75,21.86-26,4.44-3.07,16.06-8.54,24.6,2.39s3.42,20.84-2.73,27.33-19.47,20.16-23.23,21.18S326.61,397.13,330,392Z"/>
      <path class="ec3921c1-877b-459f-a28b-079f04722402" d="M350.26,417.44c-3.34,0-12.48-9-17.06-15.36-2.47-3.44-5.1-8-3.56-10.33h0c5.16-7.73,18.72-23.83,22-26.09,2.52-1.75,15.6-9.84,25.22,2.49,8.86,11.33,3.39,21.44-2.76,27.93-5.72,6.05-19.48,20.23-23.44,21.31A1.6,1.6,0,0,1,350.26,417.44Zm-19.85-25.18c-1,1.44.33,4.82,3.54,9.28,5.66,7.84,14.48,15.49,16.46,15,2.59-.71,11.19-8.58,23-21.06,5.9-6.22,11.15-15.91,2.71-26.72-9.12-11.67-21.57-4-24-2.3-3.14,2.17-16.75,18.35-21.75,25.84Z"/>
      <path class="ec3921c1-877b-459f-a28b-079f04722402" d="M350.78,348.14a.35.35,0,0,1-.2-.05.46.46,0,0,1-.21-.62c4-8,8-12.69,13-15.32a.46.46,0,0,1,.43.82c-4.83,2.53-8.72,7.13-12.61,14.92A.47.47,0,0,1,350.78,348.14Z"/>
    </g>
    <g>
      <path class="ec3921c1-877b-459f-a28b-079f04722402" d="M370.24,229.39c2.74-1.37,3.63-3.2,5.68-3.54s13.46,1.28,17.3,7.56c3.11,5.08,1.71,13.62,1,16s-4.86,6.28-4.86,6.28A24.11,24.11,0,0,0,386,239.3C380.84,231.44,370.24,229.39,370.24,229.39Z"/>
      <path class="ec3921c1-877b-459f-a28b-079f04722402" d="M389.38,256.16a.46.46,0,0,1-.23-.06.47.47,0,0,1-.23-.49,23.75,23.75,0,0,0-3.35-16.06c-5-7.6-15.31-9.68-15.41-9.7a.46.46,0,0,1-.37-.4A.45.45,0,0,1,370,229a13.93,13.93,0,0,0,2.75-1.89,6.34,6.34,0,0,1,3.06-1.7c2.25-.38,13.79,1.28,17.76,7.77,3.21,5.24,1.82,13.8,1.08,16.39s-4.82,6.32-5,6.49A.47.47,0,0,1,389.38,256.16Zm-17.88-27c2.93.78,10.63,3.37,14.85,9.84A24.44,24.44,0,0,1,390,254.42c1.25-1.28,3.34-3.58,3.78-5.13.58-2,2.11-10.61-1-15.64-3.74-6.12-14.93-7.66-16.82-7.35a5.56,5.56,0,0,0-2.62,1.51A20.44,20.44,0,0,1,371.5,229.21Z"/>
      <path class="ec3921c1-877b-459f-a28b-079f04722402" d="M354.52,234.26c7.52-4.1,11.8-8.29,23.58-5.21s22.55,10.25,5.13,37.92S354,298.92,354,298.92Z"/>
      <path class="ec3921c1-877b-459f-a28b-079f04722402" d="M354,299.38a.5.5,0,0,1-.27-.08.49.49,0,0,1-.19-.39l.52-64.66a.48.48,0,0,1,.24-.4c1.23-.66,2.79-1.25,3.87-1.89,5.59-3.34,10-6,20.05-3.36,4.73,1.24,11.29,3.57,13.67,9.59,2.6,6.57-.11,16.06-8.27,29-17.31,27.49-29,32-29.46,32.13A.45.45,0,0,1,354,299.38Zm1-64.84-.51,63.65c2.65-1.34,13.52-7.88,28.36-31.47,7.89-12.52,10.65-22,8.2-28.19-2.23-5.63-8.51-7.85-13-9-9.67-2.52-13.94,0-19.34,3.25C357.62,233.36,356.13,233.9,355,234.54Z"/>
    </g>
    <g>
      <g>
        <path class="ec3921c1-877b-459f-a28b-079f04722402" d="M1220.66,846.94c-12.3-19.47-66.87-124.92-89.42-124.92s-82-64.57-96.34-83-19.47-36.89-40-56.37S970.33,391,980.58,359.21s74.82-77.89,110.69-45.1,120.94,126.06,126.06,127.09-3-21-8.2-33.82c-7.51-18.45-13.32-88.48-11.27-102.83s9.22-27.84,16.91-33.48,20.5,18.45,26.64,45.61,22,39.45,25.11,48.68,7.69,48.17,26.14,77.38,13.15,29.55,7,74.64-15,90.87-6.15,109.32,60.13,99.07,82,116.84a194.7,194.7,0,0,1-45.65,18.26c-33.16,8.33,8,78.38-9.31,84.14C1283,858.44,1220.66,846.94,1220.66,846.94Z"/>
        <path class="ec3921c1-877b-459f-a28b-079f04722402" d="M1220.66,847.4a.46.46,0,0,0,.39-.71c-2.18-3.45-4.83-8-7.89-13.34-14.42-25-63.11-111.8-81.92-111.8-22.06,0-80.44-62.86-96-82.83a189.43,189.43,0,0,1-13.82-21.28c-6.65-11.36-13.53-23.11-26.2-35.14-8.9-8.46-15.84-48.38-18.56-106.79-2.42-52-.6-100.86,4.33-116.16,6.15-19.05,34-45.83,64-53.8,12.79-3.39,31.12-4.59,45.89,8.91,18.24,16.68,48.89,48.67,75.94,76.9,29.56,30.85,47.81,49.79,50.34,50.29a1.55,1.55,0,0,0,1.6-.5c2.65-3.21-4.68-22.65-9.28-33.95-7.29-17.89-13.38-87.62-11.24-102.59,2-13.74,8.84-27.39,16.72-33.17a3.67,3.67,0,0,1,3.7-.43c7.27,2.71,17,22.82,22.22,45.77,4.08,18,12.4,29.5,18.48,37.89,3.14,4.34,5.62,7.76,6.65,10.84.7,2.11,1.5,5.87,2.52,10.64,3.53,16.58,9.44,44.32,23.66,66.83,15,23.68,14.21,28.24,10.1,53.5-.95,5.87-2,12.53-3.17,20.84-1,7.23-2,14.55-3.08,21.63-5.42,37.2-10.54,72.34-3,87.95,8.9,18.5,60.27,99.25,82.11,117a.46.46,0,0,0,.65-.07.47.47,0,0,0-.06-.65c-21.76-17.68-73-98.23-81.87-116.68-7.4-15.36-2.3-50.36,3.1-87.41,1-7.08,2.1-14.41,3.09-21.65,1.13-8.3,2.21-15,3.17-20.81,4.15-25.56,4.9-30.16-10.24-54.14-14.13-22.38-20-50-23.54-66.53-1-4.8-1.83-8.59-2.55-10.75-1.07-3.21-3.58-6.68-6.77-11.08-6-8.33-14.29-19.74-18.32-37.56-5.35-23.61-15.15-43.57-22.8-46.43a4.59,4.59,0,0,0-4.58.56c-8.06,5.91-15.09,19.81-17.09,33.78-2.15,15,4,85.09,11.3,103.07,7.48,18.35,11.09,31,9.42,33-.1.13-.28.27-.7.19-2.37-.48-25.44-24.55-49.85-50-27.06-28.24-57.72-60.25-76-77-11.93-10.9-28.09-14.06-46.74-9.11-30.38,8-58.48,35.13-64.7,54.41-5,15.39-6.8,64.38-4.38,116.48,2.74,58.65,9.79,98.8,18.85,107.42,12.57,11.94,19.42,23.63,26,34.93a189.48,189.48,0,0,0,13.89,21.39c15.59,20.05,74.33,83.19,96.7,83.19,18.27,0,66.8,86.54,81.12,111.33,3.07,5.32,5.72,9.91,7.91,13.38A.46.46,0,0,0,1220.66,847.4Z"/>
      </g>
      <g>
        <path class="ec3921c1-877b-459f-a28b-079f04722402" d="M1242.27,320.61c-3.08.34-12.3-15.38-16.4-27.68s-7.51-20.15-7.51-22.54,1-12.64,4.09-14.69,12.8,23.81,15.38,33.48C1240.56,299.42,1242.27,320.61,1242.27,320.61Z"/>
        <path class="ec3921c1-877b-459f-a28b-079f04722402" d="M1242.19,321.07h.13a.47.47,0,0,0,.41-.5c0-.21-1.74-21.34-4.46-31.51-2.14-8.06-11-32.33-15-33.85a1.19,1.19,0,0,0-1.12.1c-3.51,2.34-4.31,13.48-4.31,15.08s1.2,4.83,3.19,10.31c1.22,3.36,2.74,7.55,4.35,12.38C1229.35,304.84,1238.58,321.07,1242.19,321.07Zm-19.36-65a.41.41,0,0,1,.16,0c3.24,1.22,11.75,23.31,14.39,33.22,2.44,9.14,4.08,27.29,4.38,30.76-3-1.22-11.43-15.2-15.45-27.27-1.62-4.85-3.14-9-4.36-12.41-1.82-5-3.13-8.62-3.13-10,0-2.83,1.17-12.49,3.89-14.31A.24.24,0,0,1,1222.83,256Z"/>
      </g>
      <path class="ec3921c1-877b-459f-a28b-079f04722402" d="M1214.6,466.43h.08a.45.45,0,0,0,.37-.53c-1.44-8.34.75-14.3,2.68-19.55a32.34,32.34,0,0,0,2.11-7.49.46.46,0,0,0-.92-.09,31.28,31.28,0,0,1-2.06,7.26c-1.88,5.1-4.21,11.44-2.72,20A.47.47,0,0,0,1214.6,466.43Z"/>
      <path class="ec3921c1-877b-459f-a28b-079f04722402" d="M1026.7,617.43h0a.45.45,0,0,0,.42-.5c-.49-5.93,6.72-26.94,17.76-35.47a.46.46,0,0,0,.08-.65.47.47,0,0,0-.65-.08c-11.47,8.86-18.63,30-18.11,36.28A.46.46,0,0,0,1026.7,617.43Z"/>
      <path class="ec3921c1-877b-459f-a28b-079f04722402" d="M1088.2,641a.47.47,0,0,0,.31-.12c11.73-10.93,16.39-40.68,19.47-60.36.81-5.23,1.52-9.75,2.19-12.64a.47.47,0,0,0-.35-.56.46.46,0,0,0-.55.35c-.68,2.92-1.39,7.46-2.21,12.71-2.87,18.37-7.68,49.11-19.18,59.82a.46.46,0,0,0,.32.8Z"/>
      <path class="ec3921c1-877b-459f-a28b-079f04722402" d="M1262.76,369.9a17,17,0,0,0,4.4-.51.46.46,0,0,0-.24-.89c-5.45,1.48-14-1-14.1-1a.47.47,0,0,0-.58.31.46.46,0,0,0,.32.57A40.64,40.64,0,0,0,1262.76,369.9Z"/>
      <path class="ec3921c1-877b-459f-a28b-079f04722402" d="M1269.16,379.69a2.86,2.86,0,0,0,.53,0,.47.47,0,0,0,.36-.55.46.46,0,0,0-.54-.36c-2,.39-9.34-2.8-12-4.06a.47.47,0,0,0-.62.22.46.46,0,0,0,.22.61C1258.05,376,1266,379.69,1269.16,379.69Z"/>
      <path class="ec3921c1-877b-459f-a28b-079f04722402" d="M1211.69,408.87a.46.46,0,0,0,.38-.2c5-7,14.65-13.65,14.75-13.72a.46.46,0,1,0-.53-.76c-.1.06-9.86,6.79-15,13.94a.47.47,0,0,0,.1.65A.48.48,0,0,0,1211.69,408.87Z"/>
    </g>
    <g>
      <path class="f35084af-2b98-47ea-bb77-92994bc9c5d7" d="M986.56,600.5l191.09-1.58a27.06,27.06,0,0,0,26.83-27.28l-3.74-451.12a27,27,0,0,0-27.28-26.83L982.38,95.27a27,27,0,0,0-26.83,27.28l3.73,451.12A27.06,27.06,0,0,0,986.56,600.5Z"/>
      <path class="e96d1395-26a1-4e08-b685-58685f20e414" d="M981.61,586.89l200.76-1.66a13.05,13.05,0,0,0,13-13.17l-3.74-451.82a13.06,13.06,0,0,0-13.16-12.95L977.65,109a13,13,0,0,0-12.95,13.16l3.74,451.82A13.06,13.06,0,0,0,981.61,586.89Z"/>
    </g>
    <g>
      <path class="ec3921c1-877b-459f-a28b-079f04722402" d="M938.28,487.06c-14.34-11.27-26.27-1.94-28.44,16.66-1.79,15.37,1,26.39,22.81,38.43s30.49,14.6,37.41,9.48,16.14-17.94,12.29-25.11S945.62,492.83,938.28,487.06Z"/>
      <path class="ec3921c1-877b-459f-a28b-079f04722402" d="M962.52,554.59a12.5,12.5,0,0,0,7.81-2.59c6.55-4.85,16.58-18,12.43-25.7-4.32-8.06-43.79-39.29-44.19-39.6-6.08-4.78-12-6.16-17.21-4-6.37,2.65-10.73,10.29-12,21-1.85,15.94,1.27,26.85,23,38.9C947.49,550.89,956.29,554.59,962.52,554.59ZM938,487.43c10.25,8.05,40.34,32.57,44,39.31s-5,19.18-12.17,24.52c-6.53,4.84-14.81,2.7-36.91-9.51-21.32-11.79-24.38-22.45-22.57-38,1.21-10.34,5.37-17.71,11.41-20.22,4.85-2,10.49-.68,16.29,3.88Z"/>
      <path class="ec3921c1-877b-459f-a28b-079f04722402" d="M969.63,553.77c-5.08-1.5-16.4-9.06-20.84-13.16s-10.76-13-7-20.15,11.44-7.52,19.81-3.25,20.67,13,22.89,16.06-2.9,10.59-5.12,13.49S972.53,554.62,969.63,553.77Z"/>
      <path class="ec3921c1-877b-459f-a28b-079f04722402" d="M970.33,554.33c3.64,0,8.42-6,9.4-7.29,1.85-2.41,7.66-10.54,5.13-14-2.32-3.22-14.81-12-23.05-16.2-9.34-4.77-16.79-3.51-20.43,3.44-4,7.54,2.6,16.57,7.1,20.71,4.33,4,15.72,11.7,21,13.26h0A2.92,2.92,0,0,0,970.33,554.33Zm-.7-.56h0Zm-18-38.87a21.88,21.88,0,0,1,9.71,2.72c8.59,4.38,20.68,13.09,22.72,15.92,1.72,2.37-1.68,8.45-5.11,12.94-2.22,2.9-6.66,7.6-9.24,6.84-5.1-1.5-16.48-9.19-20.66-13.05-4-3.69-10.6-12.55-6.9-19.6A10.14,10.14,0,0,1,951.68,514.9Z"/>
    </g>
    <g>
      <path class="ec3921c1-877b-459f-a28b-079f04722402" d="M956,390.64c-10.59,2.73-35.74,18.16-44.75,28.35-10.33,11.7-12,40.32-7.17,47.83s40,51.59,52.27,51.93,31.08-19.82,28.35-28-14.32-28.8-21.18-37.24c-6.66-8.2-10.93-9.57-11.62-15-.51-4.14,4.1-2.39,4.1-2.39Z"/>
      <path class="ec3921c1-877b-459f-a28b-079f04722402" d="M956.61,519.22c8,0,18.3-8.11,24-15.85,3.82-5.15,5.44-9.8,4.45-12.78-2.84-8.53-14.57-29.15-21.26-37.38a77.58,77.58,0,0,0-6.4-6.9c-2.93-2.88-4.71-4.62-5.12-7.9a2,2,0,0,1,.47-1.91c.8-.63,2.44-.21,3,0a.5.5,0,0,0,.43-.05.49.49,0,0,0,.2-.39V390.64a.46.46,0,0,0-.58-.45c-10.37,2.68-35.84,18.15-45,28.5-10.16,11.51-12.26,40.46-7.21,48.38s40.22,51.8,52.64,52.14Zm-2.61-84a2.89,2.89,0,0,0-1.78.52,2.85,2.85,0,0,0-.82,2.75c.45,3.6,2.42,5.53,5.4,8.45a77.16,77.16,0,0,1,6.32,6.82c6.65,8.18,18.28,28.63,21.1,37.09.9,2.69-.68,7-4.31,11.94-5.61,7.56-15.62,15.47-23.29,15.47h-.3c-11.56-.32-46.29-42.91-51.89-51.72-4.44-7-3.42-35.33,7.13-47.27,8.88-10.06,33.34-25,43.94-28.05v44.2A6.34,6.34,0,0,0,954,435.25Z"/>
      <path class="ec3921c1-877b-459f-a28b-079f04722402" d="M985.94,498.59c-3.58-3.88-20.5-25.62-30.23-29.72-7.65-3.22-18.71-2.82-21.27,4.36s-2.3,17.42,7.18,27.16,20.49,19.73,23.82,20.49S989,501.92,985.94,498.59Z"/>
      <path class="ec3921c1-877b-459f-a28b-079f04722402" d="M965.61,521.36c3.54,0,16.25-12.22,19.92-18.55,1.28-2.21,1.53-3.69.75-4.53s-1.75-2-3.15-3.68c-6.23-7.39-19.18-22.76-27.24-26.16-5.57-2.34-12.29-2.6-16.72-.65a9,9,0,0,0-5.16,5.28c-1.59,4.44-4,16,7.27,27.64,9.43,9.68,20.52,19.81,24.06,20.62A1.18,1.18,0,0,0,965.61,521.36Zm-19.44-53.95a24.49,24.49,0,0,1,9.36,1.89c7.86,3.31,20.71,18.57,26.89,25.9,1.41,1.67,2.52,3,3.18,3.71h0c.44.47.12,1.73-.87,3.43-4,6.83-17,18.61-19.18,18.09-3.19-.73-14.29-10.8-23.6-20.37-11-11.25-8.6-22.41-7.07-26.68a8.18,8.18,0,0,1,4.66-4.75A16.76,16.76,0,0,1,946.17,467.41Zm39.77,31.18h0Z"/>
    </g>
    <g>
      <path class="ec3921c1-877b-459f-a28b-079f04722402" d="M955.07,314.73s-28.9,3-42.74,19.88-12.81,34.34,5.13,53.3,30.74,32.28,50.21,19.47,10.6-36.21,1-45.1-10.59-15.37-10.59-15.37Z"/>
      <path class="ec3921c1-877b-459f-a28b-079f04722402" d="M952.83,413c4.67,0,9.62-1.58,15.1-5.18,7-4.62,11.06-11.14,11.71-18.87.91-10.9-4.87-21.61-10.63-27-9.3-8.64-10.43-15-10.44-15.1l-3-32.12a.5.5,0,0,0-.16-.34.42.42,0,0,0-.35-.11c-.32,0-29.26,3.18-43.06,20.05-14.31,17.49-12.62,35.12,5.15,53.9C930.12,402,940.51,413,952.83,413Zm1.79-97.71,3,31.68c.05.33,1.16,6.81,10.73,15.7,5.78,5.36,11.18,16.08,10.34,26.2-.63,7.54-4.43,13.65-11.3,18.17-19.28,12.68-32-.78-49.63-19.4-17.39-18.39-19.06-35.62-5.1-52.69C925.3,319.5,950.57,315.73,954.62,315.24Z"/>
      <path class="ec3921c1-877b-459f-a28b-079f04722402" d="M979,392c-5.05-7.57-18.66-23.75-21.87-26-4.44-3.07-16.05-8.54-24.59,2.39s-3.42,20.84,2.73,27.33,19.47,20.16,23.23,21.18S982.36,397.13,979,392Z"/>
      <path class="ec3921c1-877b-459f-a28b-079f04722402" d="M958.72,417.44c3.34,0,12.47-9,17.06-15.36,2.47-3.44,5.1-8,3.55-10.33h0c-5.15-7.73-18.71-23.83-22-26.09-2.53-1.75-15.6-9.84-25.23,2.49-8.85,11.33-3.38,21.44,2.76,27.93,5.73,6.05,19.49,20.23,23.45,21.31A1.6,1.6,0,0,0,958.72,417.44Zm19.84-25.18c1,1.44-.32,4.82-3.53,9.28-5.66,7.84-14.48,15.49-16.46,15-2.59-.71-11.2-8.58-23-21.06-5.9-6.22-11.16-15.91-2.71-26.72,9.12-11.67,21.57-4,24-2.3,3.14,2.17,16.75,18.35,21.74,25.84Z"/>
      <path class="ec3921c1-877b-459f-a28b-079f04722402" d="M958.19,348.14a.41.41,0,0,0,.21-.05.46.46,0,0,0,.21-.62c-4-8-8-12.69-13-15.32a.46.46,0,1,0-.43.82c4.83,2.53,8.72,7.13,12.61,14.92A.46.46,0,0,0,958.19,348.14Z"/>
    </g>
    <g>
      <path class="ec3921c1-877b-459f-a28b-079f04722402" d="M938.73,229.39c-2.73-1.37-3.63-3.2-5.68-3.54s-13.45,1.28-17.29,7.56c-3.12,5.08-1.71,13.62-1,16s4.87,6.28,4.87,6.28A24,24,0,0,1,923,239.3C928.14,231.44,938.73,229.39,938.73,229.39Z"/>
      <path class="ec3921c1-877b-459f-a28b-079f04722402" d="M919.6,256.16a.46.46,0,0,0,.23-.06.49.49,0,0,0,.23-.49,23.75,23.75,0,0,1,3.35-16.06c5-7.6,15.31-9.68,15.41-9.7a.47.47,0,0,0,.37-.4.45.45,0,0,0-.25-.47,13.93,13.93,0,0,1-2.75-1.89,6.39,6.39,0,0,0-3.06-1.7c-2.25-.38-13.79,1.28-17.77,7.77-3.2,5.24-1.81,13.8-1.07,16.39s4.82,6.32,5,6.49A.45.45,0,0,0,919.6,256.16Zm17.88-27c-2.94.78-10.63,3.37-14.85,9.84A24.31,24.31,0,0,0,919,254.42c-1.25-1.28-3.34-3.58-3.78-5.13-.58-2-2.11-10.61,1-15.64,3.75-6.12,14.94-7.66,16.83-7.35a5.56,5.56,0,0,1,2.62,1.51A19.15,19.15,0,0,0,937.48,229.21Z"/>
      <path class="ec3921c1-877b-459f-a28b-079f04722402" d="M954.45,234.26c-7.51-4.1-11.79-8.29-23.57-5.21S908.33,239.3,925.75,267,955,298.92,955,298.92Z"/>
      <path class="ec3921c1-877b-459f-a28b-079f04722402" d="M955,299.38a.53.53,0,0,0,.27-.08.49.49,0,0,0,.19-.39l-.52-64.66a.48.48,0,0,0-.24-.4c-1.23-.66-2.79-1.25-3.88-1.89-5.59-3.34-10-6-20-3.36-4.73,1.24-11.29,3.57-13.67,9.59-2.6,6.57.11,16.06,8.27,29,17.31,27.49,29,32,29.46,32.13A.41.41,0,0,0,955,299.38Zm-1-64.84.52,63.65c-2.65-1.34-13.52-7.88-28.37-31.47-7.88-12.52-10.64-22-8.19-28.19,2.23-5.63,8.51-7.85,13-9,9.67-2.52,13.94,0,19.34,3.25C951.35,233.36,952.85,233.9,954,234.54Z"/>
    </g>
    <g>
      <circle class="aae3e77f-5bfd-41ad-a290-86cb336b569d" cx="232.2" cy="320.65" r="32.85"/>
      <g>
        <g>
          <path class="fe0a6ba9-6f7a-4e64-a0ce-cbe0113ab74a" d="M246.82,328.53l-2.41-1.41L231,319.34l-12.62,7.23a.4.4,0,0,1,.06.22.43.43,0,0,1-.43.43.38.38,0,0,1-.22-.06l12.93,7.54a.43.43,0,0,0,.44,0l6.29-3.61a.45.45,0,0,1,.45,0l2.64,1.53a.43.43,0,0,0,.44,0l5.8-3.32A.45.45,0,0,0,246.82,328.53Z"/>
          <path class="b6f6674d-d04f-4b7c-863f-004af516a580" d="M217.8,326.43l0,0a.42.42,0,0,1,.21-.06.46.46,0,0,1,.2,0l.06,0a.53.53,0,0,1,.12.14L231,319.34l0-14.55v-.87a.54.54,0,0,0-.21.05l0,0-12.46,7.22a.45.45,0,0,0,0,.77l6,3.51-6.46,3.65a.44.44,0,0,0-.22.39l0,7.23A.43.43,0,0,1,217.8,326.43Z"/>
          <path class="a2fe656e-016b-4fa0-be22-4eff8e398697" d="M217.61,326.79h0v0Z"/>
          <path class="a2fe656e-016b-4fa0-be22-4eff8e398697" d="M217.83,327.16h0Z"/>
          <rect class="a2fe656e-016b-4fa0-be22-4eff8e398697" x="217.61" y="326.79" width="0.87" transform="translate(-133.65 151.73) rotate(-29.83)"/>
          <path class="f3194746-a613-4e74-ae0c-3d682b293504" d="M218.3,326.43l-.06,0a.46.46,0,0,0-.2,0,.42.42,0,0,0-.21.06l0,0a.43.43,0,0,0-.19.34v0a.36.36,0,0,0,.06.2l.75-.43A.53.53,0,0,0,218.3,326.43Z"/>
          <path class="fe0a6ba9-6f7a-4e64-a0ce-cbe0113ab74a" d="M218.48,326.79a.4.4,0,0,0-.06-.22l-.75.43a.37.37,0,0,0,.13.15h0a.38.38,0,0,0,.22.06A.43.43,0,0,0,218.48,326.79Z"/>
        </g>
        <g>
          <path class="e54f5cd5-658b-4948-8c7c-e8dfc6ee8908" d="M230.78,304l0,0Z"/>
          <path class="e54f5cd5-658b-4948-8c7c-e8dfc6ee8908" d="M231.22,304l.06,0Z"/>
          <path class="a2fe656e-016b-4fa0-be22-4eff8e398697" d="M244.17,311.5,231.28,304l-.06,0a.46.46,0,0,0-.2-.05v.87l0,14.55,13.37,7.78V311.88A.46.46,0,0,0,244.17,311.5Z"/>
        </g>
        <polygon class="a2fe656e-016b-4fa0-be22-4eff8e398697" points="224.37 323.21 224.32 315.5 231.04 319.34 231.04 327.05 224.37 323.21"/>
        <polygon class="fe0a6ba9-6f7a-4e64-a0ce-cbe0113ab74a" points="231.04 319.34 237.68 315.45 231.03 311.63 224.32 315.5 231.04 319.34"/>
        <polygon class="b6f6674d-d04f-4b7c-863f-004af516a580" points="237.71 323.2 237.67 315.46 231.04 319.34 231.04 327.05 237.71 323.2"/>
      </g>
    </g>
    <text class="e61b99c2-3fb5-40fa-91be-5b34f23c063b" transform="translate(187.43 565.44)">DEVICE 1</text>
    <text class="e61b99c2-3fb5-40fa-91be-5b34f23c063b" transform="translate(1041.4 565.44)">DEVICE 2</text>
    <g>
      <rect class="f35084af-2b98-47ea-bb77-92994bc9c5d7" x="136.89" y="139.04" width="52.39" height="52.39" rx="11.13"/>
      <rect class="a3178fd5-a264-4b2b-aa89-8f1b2e731619" x="205.64" y="139.04" width="52.39" height="52.39" rx="11.13"/>
      <rect class="a3178fd5-a264-4b2b-aa89-8f1b2e731619" x="275.12" y="139.04" width="52.39" height="52.39" rx="11.13"/>
      <text class="b93bbc90-9bab-464e-b80a-64d6ed3b515f" transform="translate(144.5 172.67)">APP</text>
    </g>
    <g>
      <circle class="aae3e77f-5bfd-41ad-a290-86cb336b569d" cx="1078.57" cy="320.65" r="32.85"/>
      <g>
        <g>
          <path class="fe0a6ba9-6f7a-4e64-a0ce-cbe0113ab74a" d="M1093.19,328.53l-2.41-1.41-13.38-7.78-12.61,7.23a.4.4,0,0,1,.06.22.44.44,0,0,1-.44.43.43.43,0,0,1-.22-.06l12.93,7.54a.45.45,0,0,0,.45,0l6.29-3.61a.45.45,0,0,1,.45,0l2.64,1.53a.43.43,0,0,0,.44,0l5.79-3.32A.45.45,0,0,0,1093.19,328.53Z"/>
          <path class="b6f6674d-d04f-4b7c-863f-004af516a580" d="M1064.16,326.43l0,0a.39.39,0,0,1,.21-.06.46.46,0,0,1,.2,0l.05,0a.43.43,0,0,1,.13.14l12.61-7.23V303.92a.5.5,0,0,0-.21.05l0,0-12.45,7.22a.44.44,0,0,0,0,.77l6,3.51-6.46,3.65a.48.48,0,0,0-.23.39l0,7.23A.45.45,0,0,1,1064.16,326.43Z"/>
          <path class="a2fe656e-016b-4fa0-be22-4eff8e398697" d="M1064,326.79h0v0Z"/>
          <path class="a2fe656e-016b-4fa0-be22-4eff8e398697" d="M1064.19,327.16h0Z"/>
          <rect class="a2fe656e-016b-4fa0-be22-4eff8e398697" x="1063.98" y="326.79" width="0.87" transform="translate(-21.54 572.68) rotate(-29.83)"/>
          <path class="f3194746-a613-4e74-ae0c-3d682b293504" d="M1064.66,326.43l-.05,0a.46.46,0,0,0-.2,0,.39.39,0,0,0-.21.06l0,0a.45.45,0,0,0-.18.34v0a.36.36,0,0,0,.06.2l.75-.43A.43.43,0,0,0,1064.66,326.43Z"/>
          <path class="fe0a6ba9-6f7a-4e64-a0ce-cbe0113ab74a" d="M1064.85,326.79a.4.4,0,0,0-.06-.22l-.75.43a.37.37,0,0,0,.13.15h0a.43.43,0,0,0,.22.06A.44.44,0,0,0,1064.85,326.79Z"/>
        </g>
        <g>
          <path class="e54f5cd5-658b-4948-8c7c-e8dfc6ee8908" d="M1077.14,304l0,0Z"/>
          <path class="e54f5cd5-658b-4948-8c7c-e8dfc6ee8908" d="M1077.59,304l.05,0Z"/>
          <path class="a2fe656e-016b-4fa0-be22-4eff8e398697" d="M1090.54,311.5l-12.9-7.5-.05,0a.46.46,0,0,0-.2-.05v15.42l13.38,7.78,0-15.24A.43.43,0,0,0,1090.54,311.5Z"/>
        </g>
        <polygon class="a2fe656e-016b-4fa0-be22-4eff8e398697" points="1070.74 323.21 1070.69 315.5 1077.4 319.34 1077.41 327.05 1070.74 323.21"/>
        <polygon class="fe0a6ba9-6f7a-4e64-a0ce-cbe0113ab74a" points="1077.4 319.34 1084.05 315.45 1077.4 311.63 1070.69 315.5 1077.4 319.34"/>
        <polygon class="b6f6674d-d04f-4b7c-863f-004af516a580" points="1084.08 323.2 1084.04 315.46 1077.4 319.34 1077.41 327.05 1084.08 323.2"/>
      </g>
    </g>
    <g>
      <rect class="f35084af-2b98-47ea-bb77-92994bc9c5d7" x="983.26" y="139.04" width="52.39" height="52.39" rx="11.13"/>
      <rect class="a3178fd5-a264-4b2b-aa89-8f1b2e731619" x="1052.01" y="139.04" width="52.39" height="52.39" rx="11.13"/>
      <rect class="a3178fd5-a264-4b2b-aa89-8f1b2e731619" x="1121.49" y="139.04" width="52.39" height="52.39" rx="11.13"/>
      <text class="b93bbc90-9bab-464e-b80a-64d6ed3b515f" transform="translate(990.87 172.67)">APP</text>
    </g>
    <path class="e46ff731-25a1-48e2-9730-ac200ec71588" d="M161.19,192.31a3,3,0,0,1,2.07.74l12.43,12.16-1.4,1.43-12.43-12.16a1.5,1.5,0,0,0-1.34,0L148.1,206.64l-1.4-1.43,12.43-12.16A3,3,0,0,1,161.19,192.31Z"/>
    <path class="e46ff731-25a1-48e2-9730-ac200ec71588" d="M199.05,318.58a3,3,0,0,1-.74,2.06l-12.16,12.43-1.43-1.4,12.16-12.42a1.44,1.44,0,0,0,0-1.34l-12.16-12.43,1.43-1.4,12.16,12.43A3,3,0,0,1,199.05,318.58Z"/>
    <path class="e46ff731-25a1-48e2-9730-ac200ec71588" d="M160.55,193.29h2V316.75a.59.59,0,0,0,.59.59H197.4v2H163.14a2.6,2.6,0,0,1-2.59-2.59Z"/>
    <path class="e46ff731-25a1-48e2-9730-ac200ec71588" d="M1008.42,192.31a3,3,0,0,1,2.07.74l12.42,12.16-1.4,1.43-12.42-12.16a1.5,1.5,0,0,0-1.34,0l-12.43,12.16-1.4-1.43,12.43-12.16A3,3,0,0,1,1008.42,192.31Z"/>
    <path class="e46ff731-25a1-48e2-9730-ac200ec71588" d="M1046.27,318.58a2.93,2.93,0,0,1-.74,2.06l-12.16,12.43-1.43-1.4,12.16-12.42a1.44,1.44,0,0,0,0-1.34l-12.16-12.43,1.43-1.4,12.16,12.43A2.94,2.94,0,0,1,1046.27,318.58Z"/>
    <path class="e46ff731-25a1-48e2-9730-ac200ec71588" d="M1007.77,193.29h2V316.75a.59.59,0,0,0,.59.59h34.27v2h-34.27a2.6,2.6,0,0,1-2.59-2.59Z"/>
    <circle class="fe0a6ba9-6f7a-4e64-a0ce-cbe0113ab74a" cx="161.49" cy="255.16" r="19.03"/>
    <text class="a2f4ee28-b68c-42c5-aa3e-e386ffb52c56" transform="translate(154.62 263.57)">2</text>
    <circle class="fe0a6ba9-6f7a-4e64-a0ce-cbe0113ab74a" cx="653.71" cy="171.26" r="19.03"/>
    <text class="a2f4ee28-b68c-42c5-aa3e-e386ffb52c56" transform="translate(645.97 179.67)">3</text>
    <circle class="fe0a6ba9-6f7a-4e64-a0ce-cbe0113ab74a" cx="143.2" cy="132.75" r="19.03"/>
    <text class="a2f4ee28-b68c-42c5-aa3e-e386ffb52c56" transform="translate(136.34 141.16)">1</text>
  </g>
</svg>
