<svg xmlns="http://www.w3.org/2000/svg" width="704.54mm" height="401.78mm" viewBox="0 0 1997.11 1138.89"><defs><pattern id="a" data-name="New Pattern" width="24.48" height="24.48" patternTransform="matrix(1 0 0 .98 -59.03 184.12)" patternUnits="userSpaceOnUse"><path fill="none" d="M0 0h24.48v24.48H0z"/><circle cx="12.24" cy="12.24" r="2.24" fill="#7f96a5"/></pattern><filter id="b" x="-4%" y="-2.5%" width="107.6%" height="125.9%"><feMorphology result="shadowSpreadOuter1" radius=".75" in="SourceAlpha"/><feOffset result="shadowOffsetOuter1" dy="1.5" in="shadowSpreadOuter1"/><feGaussianBlur result="shadowBlurOuter1" stdDeviation=".5" in="shadowOffsetOuter1"/><feMorphology result="shadowSpreadOuter2" radius=".5" in="SourceAlpha"/><feOffset result="shadowOffsetOuter2" dy="2.5" in="shadowSpreadOuter2"/><feGaussianBlur result="shadowBlurOuter2" stdDeviation="4.5" in="shadowOffsetOuter2"/><feMerge><feMergeNode in="shadowMatrixOuter1"/><feMergeNode in="shadowMatrixOuter2"/></feMerge></filter></defs><g data-name="Layer 2"><path fill="#f5f9fb" d="M2.96 2.95h1991.19v1133H2.96z"/><path opacity=".15" fill="url(#a)" d="M2.96 2.95h1991.19v1133H2.96z"/><path fill="#fff" d="M2.96 0h1991.19v529.58H2.96z"/><g opacity=".2" filter="url(#b)"><rect x="1515.27" y="601.07" width="251.85" height="335.69" rx="22.93"/></g><g opacity=".2" filter="url(#b)"><rect x="1572.27" y="869.86" width="137.85" height="137.85" rx="68.93"/></g><g opacity=".2" filter="url(#b)"><rect x="870.76" y="601.07" width="251.85" height="335.69" rx="22.93"/></g><g opacity=".2" filter="url(#b)"><rect x="927.76" y="869.86" width="137.85" height="137.85" rx="68.93"/></g><g opacity=".2" filter="url(#b)"><rect x="1173.93" y="176.52" width="251.85" height="155.03" rx="22.93"/></g><g opacity=".2" filter="url(#b)"><rect x="771.58" y="176.52" width="251.85" height="155.03" rx="22.93"/></g><g opacity=".2" filter="url(#b)"><rect x="1576.27" y="176.52" width="251.85" height="155.03" rx="22.93"/></g></g><g data-name="Layer 1"><path d="M1712.14 181.91a2 2 0 01-2-2v-4.25a2 2 0 014 0v4.25a2 2 0 01-2 2zm-815.4-10.57a2 2 0 01-2-2v-12a2 2 0 114 0v12a2 2 0 01-2 2zm815.4-17.68a2 2 0 01-2-2v-12a2 2 0 014 0v12a2 2 0 01-2 2zm-815.4-18.32a2 2 0 01-2-2v-12a2 2 0 014 0v12a2 2 0 01-2 2zm815.4-17.68a2 2 0 01-2-2v-1.47h-6.54a2 2 0 010-4h8.54a2 2 0 012 2v3.47a2 2 0 01-2 2zm-32.54-3.47h-12a2 2 0 010-4h12a2 2 0 010 4zm-36 0h-12a2 2 0 010-4h12a2 2 0 010 4zm-36 0h-12a2 2 0 010-4h12a2 2 0 010 4zm-36 0h-12a2 2 0 010-4h12a2 2 0 010 4zm-36 0h-12a2 2 0 010-4h12a2 2 0 010 4zm-36 0h-12a2 2 0 010-4h12a2 2 0 010 4zm-36 0h-12a2 2 0 010-4h12a2 2 0 010 4zm-36 0h-12a2 2 0 010-4h12a2 2 0 010 4zm-36 0h-12a2 2 0 010-4h12a2 2 0 010 4zm-36 0h-12a2 2 0 010-4h12a2 2 0 010 4zm-36 0h-12a2 2 0 010-4h12a2 2 0 010 4zm-36 0h-12a2 2 0 010-4h12a2 2 0 010 4zm-36 0h-12a2 2 0 010-4h12a2 2 0 010 4zm-36 0h-12a2 2 0 010-4h12a2 2 0 010 4zm-36 0h-12a2 2 0 010-4h12a2 2 0 010 4zm-36 0h-12a2 2 0 010-4h12a2 2 0 010 4zm-36 0h-12a2 2 0 010-4h12a2 2 0 010 4zm-36 0h-12a2 2 0 010-4h12a2 2 0 010 4zm-36 0h-12a2 2 0 010-4h12a2 2 0 010 4zm-36 0h-12a2 2 0 010-4h12a2 2 0 010 4zm-36 0h-12a2 2 0 010-4h12a2 2 0 010 4zm-36 0h-12a2 2 0 010-4h12a2 2 0 010 4zm222.3 138.53h-12a2 2 0 010-4h12a2 2 0 010 4zm-36 0h-12a2 2 0 010-4h12a2 2 0 010 4zm-36 0h-12a2 2 0 010-4h12a2 2 0 010 4zm-36 0h-12a2 2 0 010-4h12a2 2 0 010 4zm656.42 148.67h-12a2 2 0 010-4h12a2 2 0 010 4zm-36 0h-12a2 2 0 010-4h12a2 2 0 010 4zm-36 0h-12a2 2 0 010-4h12a2 2 0 010 4zm-36 0h-12a2 2 0 010-4h12a2 2 0 010 4zm-36 0h-12a2 2 0 010-4h12a2 2 0 010 4zm-36 0h-12a2 2 0 010-4h12a2 2 0 010 4zm-36 0h-12a2 2 0 010-4h12a2 2 0 010 4zm-36 0h-12a2 2 0 010-4h12a2 2 0 010 4zm-36 0h-12a2 2 0 010-4h12a2 2 0 010 4zm-36 0h-12a2 2 0 010-4h12a2 2 0 010 4zm-36 0h-12a2 2 0 010-4h12a2 2 0 010 4zm377.82-6.19a2 2 0 01-2-2v-12a2 2 0 014 0v12a2 2 0 01-2 2zm-404.68-3a2 2 0 01-2-2v-12a2 2 0 014 0v12a2 2 0 01-2 2.04zm404.68-33a2 2 0 01-2-2v-12a2 2 0 014 0v12a2 2 0 01-2 2zm-404.68-3a2 2 0 01-2-2v-12a2 2 0 014 0v12a2 2 0 01-2 2.04z" fill="#7f96a5"/><path d="M193.31 800.69H190a1.46 1.46 0 01-.92-.28 1.86 1.86 0 01-.53-.73l-2.93-7.57h-14.04l-2.94 7.57a1.67 1.67 0 01-.52.7 1.38 1.38 0 01-.92.31h-3.29l12.55-31.37h4.31zM172.76 789h11.71l-4.93-12.76a24.22 24.22 0 01-.94-2.95c-.16.6-.32 1.15-.47 1.65s-.3.95-.45 1.32zm23.9 19.2v-29.68H199a1 1 0 011.05.81l.33 2.62a11.88 11.88 0 013.25-2.78 8.3 8.3 0 014.21-1 8.12 8.12 0 013.46.73 7.18 7.18 0 012.65 2.17 10.51 10.51 0 011.69 3.56 18.38 18.38 0 01.59 4.88 15.18 15.18 0 01-.66 4.56 11.31 11.31 0 01-1.88 3.66 8.79 8.79 0 01-3 2.43 8.93 8.93 0 01-4 .89 8.29 8.29 0 01-3.51-.68 7.87 7.87 0 01-2.57-1.93v9.81zm9.87-26.93a6.33 6.33 0 00-3.34.88 9.65 9.65 0 00-2.63 2.47v10.73a6.22 6.22 0 002.35 2 6.62 6.62 0 002.86.6 5.59 5.59 0 004.75-2.22 10.36 10.36 0 001.66-6.3 16.07 16.07 0 00-.38-3.72 7.33 7.33 0 00-1.11-2.55 4.36 4.36 0 00-1.77-1.46 6 6 0 00-2.39-.43zm14.3 26.93v-29.68h2.32a1 1 0 011 .81l.32 2.62a12 12 0 013.25-2.78 8.34 8.34 0 014.22-1 8.15 8.15 0 013.46.73 7.26 7.26 0 012.7 2.1 10.32 10.32 0 011.68 3.56 18 18 0 01.59 4.88 15.51 15.51 0 01-.65 4.56 11.13 11.13 0 01-1.89 3.66 8.69 8.69 0 01-3 2.43 8.89 8.89 0 01-4 .89 8.34 8.34 0 01-3.52-.68 8 8 0 01-2.57-1.93v9.81zm9.87-26.93a6.3 6.3 0 00-3.34.88 9.54 9.54 0 00-2.64 2.47v10.73a6.3 6.3 0 002.35 2 6.69 6.69 0 002.86.6 5.58 5.58 0 004.75-2.22 10.3 10.3 0 001.66-6.3 15.54 15.54 0 00-.38-3.72 7.14 7.14 0 00-1.1-2.55 4.38 4.38 0 00-1.78-1.46 6 6 0 00-2.38-.43zm26.99.9a.87.87 0 01-.81.48 1.55 1.55 0 01-.75-.24c-.28-.16-.61-.34-1-.53a9.13 9.13 0 00-1.43-.55 6.74 6.74 0 00-2-.25 5.69 5.69 0 00-1.77.25 4.29 4.29 0 00-1.35.69 3.05 3.05 0 00-.85 1 2.65 2.65 0 00-.3 1.25 2.11 2.11 0 00.5 1.43 4.19 4.19 0 001.3 1 11.74 11.74 0 001.84.74c.68.21 1.39.43 2.11.67s1.42.51 2.11.8a7.8 7.8 0 011.84 1.1 5 5 0 011.3 1.61 4.86 4.86 0 01.49 2.28 7.33 7.33 0 01-.54 2.84 6.24 6.24 0 01-1.62 2.25 7.67 7.67 0 01-2.63 1.5 10.66 10.66 0 01-3.59.55 11 11 0 01-4.2-.76 10.54 10.54 0 01-3.2-1.93l.92-1.49a1.37 1.37 0 01.42-.44 1.18 1.18 0 01.63-.15 1.48 1.48 0 01.83.3c.3.21.65.43 1.07.68a7.64 7.64 0 001.51.68 6.71 6.71 0 002.22.31 6 6 0 002-.3 4 4 0 001.42-.8A3.2 3.2 0 00255 796a3.6 3.6 0 00.27-1.4 2.37 2.37 0 00-.49-1.52 4.31 4.31 0 00-1.31-1 10.64 10.64 0 00-1.85-.74l-2.12-.67a22.51 22.51 0 01-2.12-.8 7.16 7.16 0 01-1.85-1.13 5 5 0 01-1.3-1.67 5.38 5.38 0 01-.5-2.42 5.89 5.89 0 01.53-2.44 6 6 0 011.53-2.06 7.61 7.61 0 012.47-1.41 9.94 9.94 0 013.35-.52 10.8 10.8 0 013.93.68 9.3 9.3 0 013 1.9zm14.75 18.52v-22.17h2.23a1.25 1.25 0 01.88.24 1.46 1.46 0 01.33.83l.26 3.46a10.13 10.13 0 012.81-3.63 6.28 6.28 0 013.93-1.3 6.08 6.08 0 011.66.21 5.66 5.66 0 011.38.58l-.5 2.91a.66.66 0 01-.68.55 3.38 3.38 0 01-.94-.21 5.84 5.84 0 00-1.8-.16 5.07 5.07 0 00-3.41 1.18 8.91 8.91 0 00-2.28 3.44v14.12zm21.01-22.17v14.14a5.9 5.9 0 001.16 3.89 4.33 4.33 0 003.51 1.38 6.68 6.68 0 003.21-.81 9.91 9.91 0 002.78-2.25v-16.35H308v22.17h-2.32a1 1 0 01-1.05-.81l-.31-2.39a12 12 0 01-3.24 2.58 8.57 8.57 0 01-4.11 1 8.06 8.06 0 01-3.21-.6 6.34 6.34 0 01-2.33-1.7 7.09 7.09 0 01-1.41-2.65 11.57 11.57 0 01-.47-3.43v-14.17zm20.97 22.17v-22.17h2.32a1 1 0 011.05.81l.31 2.4a12.57 12.57 0 013.23-2.58 8.35 8.35 0 014.13-1 8 8 0 013.2.6 6.22 6.22 0 012.32 1.7 7.61 7.61 0 011.41 2.66 11.67 11.67 0 01.49 3.44v14.12H329v-14.1a6 6 0 00-1.15-3.91 4.32 4.32 0 00-3.51-1.39 6.49 6.49 0 00-3.23.84 10.55 10.55 0 00-2.77 2.25v16.33zm24.34 0v-22.17h2.32a1 1 0 011.06.81l.3 2.4a12.57 12.57 0 013.23-2.58 8.35 8.35 0 014.13-1 8 8 0 013.2.6 6.22 6.22 0 012.32 1.7 7.79 7.79 0 011.42 2.66 11.67 11.67 0 01.48 3.44v14.12h-3.9v-14.1a6 6 0 00-1.15-3.91 4.31 4.31 0 00-3.51-1.39 6.51 6.51 0 00-3.23.84 10.55 10.55 0 00-2.77 2.25v16.33zm29.55-29.14a2.42 2.42 0 01-.23 1.07 2.91 2.91 0 01-.61.87 2.74 2.74 0 01-2 .82 2.52 2.52 0 01-1.06-.22 2.61 2.61 0 01-.87-.6 2.91 2.91 0 01-.61-.87 2.73 2.73 0 01-.22-1.07 2.86 2.86 0 01.22-1.08 2.9 2.9 0 011.48-1.5 2.68 2.68 0 011.06-.22 2.82 2.82 0 011.08.22 3 3 0 01.88.6 2.92 2.92 0 01.61.9 2.53 2.53 0 01.27 1.08zm-.87 7v22.17h-3.9v-22.2zm6.87 22.14v-22.17h2.32a1 1 0 011.05.81l.31 2.4a12.57 12.57 0 013.23-2.58 8.34 8.34 0 014.12-1 8 8 0 013.21.6 6.22 6.22 0 012.32 1.7 7.61 7.61 0 011.41 2.66 11.67 11.67 0 01.48 3.44v14.12h-3.89v-14.1a6 6 0 00-1.15-3.91 4.32 4.32 0 00-3.51-1.39 6.49 6.49 0 00-3.23.84 10.39 10.39 0 00-2.77 2.25v16.33zm31.81-22.55a11.1 11.1 0 012.7.32 8.47 8.47 0 012.29.93h6v1.45c0 .48-.31.78-.92.91l-2.52.36a6.65 6.65 0 01.75 3.17 6.74 6.74 0 01-.63 2.94 6.54 6.54 0 01-1.73 2.27 7.56 7.56 0 01-2.62 1.44 10.49 10.49 0 01-3.34.51 11.61 11.61 0 01-2.94-.37 3.73 3.73 0 00-1.06 1 1.76 1.76 0 00-.36 1 1.37 1.37 0 00.64 1.23 4.35 4.35 0 001.68.6 14.28 14.28 0 002.39.18h2.72a15.4 15.4 0 012.73.24 8.44 8.44 0 012.38.8 4.45 4.45 0 011.69 1.53 4.58 4.58 0 01.63 2.53 5.84 5.84 0 01-.71 2.79 7.44 7.44 0 01-2 2.4 10.3 10.3 0 01-3.27 1.69 13.92 13.92 0 01-4.35.63 16.89 16.89 0 01-4.26-.48 9.88 9.88 0 01-3-1.3 5.73 5.73 0 01-1.81-1.87 4.46 4.46 0 01-.6-2.22 4 4 0 011-2.8 7.28 7.28 0 012.86-1.83A3.85 3.85 0 01399 797a3.14 3.14 0 01-.56-2 3.07 3.07 0 01.18-1 3.64 3.64 0 01.53-1 5.31 5.31 0 01.89-1 5.63 5.63 0 011.22-.81 7 7 0 01-2.57-2.44 6.7 6.7 0 01-.93-3.56 6.81 6.81 0 01.63-2.95 6.38 6.38 0 011.74-2.25 7.81 7.81 0 012.66-1.43 10.65 10.65 0 013.33-.42zm6.88 23.67a2 2 0 00-.45-1.36 3.09 3.09 0 00-1.25-.79 8.74 8.74 0 00-1.82-.41 16.72 16.72 0 00-2.17-.14H405a8.73 8.73 0 01-2.25-.29 6.54 6.54 0 00-2 1.44 3 3 0 00-.77 2 2.68 2.68 0 00.38 1.4 3.22 3.22 0 001.17 1.11 6.71 6.71 0 002 .75 12.87 12.87 0 002.81.27 12.13 12.13 0 002.83-.29 7.15 7.15 0 002.11-.82 4 4 0 001.33-1.28 3.05 3.05 0 00.39-1.59zm-6.91-12a6.12 6.12 0 002.09-.32 4.36 4.36 0 001.52-.92 3.87 3.87 0 00.92-1.42 5.15 5.15 0 00.31-1.8 4.32 4.32 0 00-1.24-3.24 5 5 0 00-3.6-1.2 4.93 4.93 0 00-3.58 1.2 4.29 4.29 0 00-1.24 3.24 4.93 4.93 0 00.32 1.8 3.9 3.9 0 00.93 1.42 4.31 4.31 0 001.51.92 5.94 5.94 0 002.09.36zM171.22 821v32.24h-3.89V821zm15.85 9.7a11.41 11.41 0 014.39.81 9.25 9.25 0 013.33 2.3 10.18 10.18 0 012.1 3.6 15.62 15.62 0 010 9.44 10.22 10.22 0 01-2.1 3.59 9 9 0 01-3.33 2.29 12.45 12.45 0 01-8.78 0 9.06 9.06 0 01-3.33-2.29 10.28 10.28 0 01-2.13-3.59 15.42 15.42 0 010-9.44 10.24 10.24 0 012.13-3.6 9.33 9.33 0 013.33-2.3 11.41 11.41 0 014.39-.81zm0 19.79a5.72 5.72 0 004.91-2.2 10.21 10.21 0 001.62-6.14A10.32 10.32 0 00192 836a5.7 5.7 0 00-4.91-2.21 6.8 6.8 0 00-2.89.57 5.44 5.44 0 00-2 1.64 7.33 7.33 0 00-1.23 2.64 14.19 14.19 0 00-.4 3.54 14 14 0 00.4 3.52 7.15 7.15 0 001.23 2.62 5.41 5.41 0 002 1.63 6.8 6.8 0 002.87.54zM217.56 835a1.57 1.57 0 01-.35.37.79.79 0 01-.5.13 1.24 1.24 0 01-.71-.27c-.26-.18-.58-.38-1-.6a8.22 8.22 0 00-1.44-.6 6.52 6.52 0 00-2.07-.28 6.79 6.79 0 00-2.86.58 5.63 5.63 0 00-2.1 1.68 7.5 7.5 0 00-1.26 2.65 12.85 12.85 0 00-.43 3.48 12.64 12.64 0 00.46 3.58 7.56 7.56 0 001.29 2.62 5.46 5.46 0 002 1.62 6.31 6.31 0 002.69.56 6.77 6.77 0 002.34-.34 7.79 7.79 0 001.53-.75 12 12 0 001-.76 1.18 1.18 0 01.79-.34.82.82 0 01.74.37l1.09 1.43a8.4 8.4 0 01-3.61 2.59 12.72 12.72 0 01-4.57.82 9.72 9.72 0 01-3.87-.77 8.72 8.72 0 01-3.09-2.22 10.38 10.38 0 01-2.07-3.58 14.15 14.15 0 01-.76-4.83 14.61 14.61 0 01.69-4.58 10.23 10.23 0 012-3.62 9 9 0 013.27-2.38 11 11 0 014.46-.85 10.44 10.44 0 014.12.76 9.73 9.73 0 013.17 2.13zm21.61 18.22h-1.73a2 2 0 01-.92-.17 1 1 0 01-.46-.75l-.44-2c-.58.52-1.15 1-1.7 1.41a10.49 10.49 0 01-1.76 1.05 8.92 8.92 0 01-1.95.64 11.05 11.05 0 01-2.31.22 7.87 7.87 0 01-2.42-.36 5.37 5.37 0 01-2-1.09 5.09 5.09 0 01-1.33-1.83 6.55 6.55 0 01-.49-2.62 4.92 4.92 0 01.72-2.54 6.48 6.48 0 012.33-2.17 15.17 15.17 0 014.22-1.54 28.23 28.23 0 016.37-.61v-1.74a6 6 0 00-1.11-3.93 4 4 0 00-3.27-1.33 7 7 0 00-2.4.36 8.77 8.77 0 00-1.68.81c-.48.3-.88.57-1.23.81a1.76 1.76 0 01-1 .36 1.17 1.17 0 01-.69-.21 1.76 1.76 0 01-.47-.51l-.7-1.25a12.84 12.84 0 014-2.65 12.26 12.26 0 014.7-.87 8.42 8.42 0 013.31.61 6.86 6.86 0 012.43 1.71 7.37 7.37 0 011.49 2.65 11.15 11.15 0 01.5 3.41zm-10.11-2.38a7.53 7.53 0 003.49-.8 9.29 9.29 0 001.44-.93 13 13 0 001.35-1.25v-4.57a26 26 0 00-4.58.34 12.36 12.36 0 00-3.06.89 4.3 4.3 0 00-1.72 1.3 2.8 2.8 0 00-.54 1.67 3.71 3.71 0 00.29 1.52 2.84 2.84 0 00.77 1 3 3 0 001.13.59 5 5 0 001.43.24zM249.41 821v32.24h-3.89V821zm11.21 0v32.24h-3.9V821zM274 859.77a2 2 0 01-.49.7 1.37 1.37 0 01-.91.26h-2.9l4.05-8.8-9.15-20.88h3.4a1.14 1.14 0 01.79.25 1.68 1.68 0 01.42.56l5.93 14c.13.32.24.64.34 1s.18.65.25 1c.1-.33.21-.66.31-1s.22-.65.35-1l5.76-13.94a1.19 1.19 0 01.44-.58 1.21 1.21 0 01.69-.23h3.11zm33.33-29.07a11.41 11.41 0 014.39.81 9.33 9.33 0 013.33 2.3 10.18 10.18 0 012.1 3.6 15.62 15.62 0 010 9.44 10.22 10.22 0 01-2.1 3.59 9.06 9.06 0 01-3.33 2.29 12.45 12.45 0 01-8.78 0 9.19 9.19 0 01-3.34-2.29 10.42 10.42 0 01-2.12-3.59 15.42 15.42 0 010-9.44 10.37 10.37 0 012.12-3.6 9.46 9.46 0 013.34-2.3 11.41 11.41 0 014.39-.81zm0 19.79a5.7 5.7 0 004.9-2.2 10.21 10.21 0 001.62-6.14 10.32 10.32 0 00-1.62-6.18 5.68 5.68 0 00-4.9-2.21 6.8 6.8 0 00-2.89.57 5.36 5.36 0 00-2 1.64 7.33 7.33 0 00-1.23 2.64 14.17 14.17 0 00-.41 3.54 14 14 0 00.41 3.52 7.15 7.15 0 001.23 2.62 5.34 5.34 0 002 1.63 6.8 6.8 0 002.89.57zm15.37 2.73v-22.17h2.3a1 1 0 011.05.81l.31 2.41a12.36 12.36 0 013.22-2.59 8.49 8.49 0 014.13-1 8.06 8.06 0 013.21.6 6.21 6.21 0 012.32 1.71 7.52 7.52 0 011.41 2.66 11.61 11.61 0 01.48 3.43v14.12h-3.9v-14.1a6 6 0 00-1.15-3.9 4.27 4.27 0 00-3.51-1.39 6.5 6.5 0 00-3.23.83 10.75 10.75 0 00-2.77 2.25v16.33zm48.4 0a1 1 0 01-1.06-.81l-.35-2.69a11.53 11.53 0 01-3.25 2.77 8.32 8.32 0 01-4.19 1 8 8 0 01-3.46-.73 7.24 7.24 0 01-2.65-2.16 10.18 10.18 0 01-1.68-3.55 18 18 0 01-.59-4.88 15.56 15.56 0 01.65-4.56 11.11 11.11 0 011.9-3.67 8.66 8.66 0 017-3.32 8.21 8.21 0 013.48.68 8.43 8.43 0 012.58 1.94V821h3.9v32.24zm-7.56-2.84a6.21 6.21 0 003.34-.88 9.54 9.54 0 002.64-2.47V836.3a6.26 6.26 0 00-2.35-2 6.77 6.77 0 00-2.84-.58 5.62 5.62 0 00-4.77 2.21 10.3 10.3 0 00-1.66 6.3 15.91 15.91 0 00.37 3.71 7.16 7.16 0 001.09 2.54 4.3 4.3 0 001.78 1.46 6 6 0 002.4.44zm25.2-19.68a9.78 9.78 0 013.67.67 8.16 8.16 0 012.92 1.92 8.92 8.92 0 011.91 3.11 12 12 0 01.69 4.22 2.4 2.4 0 01-.2 1.22.8.8 0 01-.74.31h-14.75a12.21 12.21 0 00.57 3.65 7.57 7.57 0 001.44 2.6 5.73 5.73 0 002.19 1.55 7.56 7.56 0 002.84.52 8.56 8.56 0 002.53-.34 11.56 11.56 0 001.83-.74 12.37 12.37 0 001.28-.73 1.66 1.66 0 01.89-.34.84.84 0 01.74.37l1.1 1.43a7.68 7.68 0 01-1.73 1.52 10.83 10.83 0 01-2.16 1.06 13.77 13.77 0 01-2.37.62 14.42 14.42 0 01-2.43.21 11.23 11.23 0 01-4.24-.78 9.18 9.18 0 01-3.35-2.27 10.57 10.57 0 01-2.2-3.71 15.26 15.26 0 01-.79-5.08 13.08 13.08 0 01.71-4.34 10.38 10.38 0 012.05-3.49 9.49 9.49 0 013.26-2.32 10.77 10.77 0 014.34-.84zm.08 2.87a6 6 0 00-4.44 1.63 7.65 7.65 0 00-2 4.52h12.06a8.18 8.18 0 00-.37-2.49 5.51 5.51 0 00-1.1-1.94 4.88 4.88 0 00-1.77-1.29 5.94 5.94 0 00-2.38-.43zm10.71-2.52h3.19a1.2 1.2 0 01.77.24 1.42 1.42 0 01.44.57l5.62 14.27a10.63 10.63 0 01.49 1.58c.11.52.22 1 .32 1.55.12-.51.24-1 .38-1.55a13.73 13.73 0 01.5-1.58l5.69-14.27a1.3 1.3 0 01.43-.58 1.16 1.16 0 01.73-.23h3l-9 22.17h-3.52zm30.47-6.96a2.52 2.52 0 01-.23 1.06 3.19 3.19 0 01-.62.88 3 3 0 01-.88.6 2.82 2.82 0 01-1.08.22 2.68 2.68 0 01-1.06-.22 3 3 0 01-1.48-1.48 2.67 2.67 0 01-.21-1.06 2.9 2.9 0 01.21-1.09 2.77 2.77 0 01.61-.89 2.61 2.61 0 01.87-.6 2.52 2.52 0 011.06-.22 2.74 2.74 0 012 .82 3 3 0 01.62.89 2.73 2.73 0 01.19 1.09zm-.88 7v22.17h-3.9v-22.21zm21.96 3.91a2.11 2.11 0 01-.35.37.84.84 0 01-.51.13 1.29 1.29 0 01-.71-.27 10.86 10.86 0 00-1-.6 7.91 7.91 0 00-1.44-.6 6.49 6.49 0 00-2.06-.28 6.84 6.84 0 00-2.87.58 5.6 5.6 0 00-2.09 1.68 7.51 7.51 0 00-1.27 2.65 12.85 12.85 0 00-.43 3.48 13 13 0 00.46 3.58 7.92 7.92 0 001.29 2.62 5.49 5.49 0 002 1.62 6.27 6.27 0 002.68.56 6.73 6.73 0 002.34-.34 7.52 7.52 0 001.53-.75 10.53 10.53 0 001-.76 1.2 1.2 0 01.79-.34.82.82 0 01.74.37l1.1 1.43a8.52 8.52 0 01-3.61 2.59 12.77 12.77 0 01-4.58.82 9.67 9.67 0 01-3.86-.77 8.84 8.84 0 01-3.1-2.22 10.38 10.38 0 01-2.07-3.58 14.41 14.41 0 01-.75-4.83 14.61 14.61 0 01.69-4.58 10.37 10.37 0 012-3.62 9 9 0 013.27-2.38 11 11 0 014.47-.85 10.39 10.39 0 014.11.76 9.77 9.77 0 013.18 2.13zm14.09-4.3a9.79 9.79 0 013.68.67 8 8 0 012.91 1.92 8.8 8.8 0 011.92 3.11 12 12 0 01.69 4.22 2.52 2.52 0 01-.2 1.22.8.8 0 01-.74.31h-14.76a12.21 12.21 0 00.57 3.65 7.42 7.42 0 001.45 2.6 5.73 5.73 0 002.19 1.55 7.52 7.52 0 002.84.52 8.56 8.56 0 002.53-.34 11.56 11.56 0 001.83-.74 12.37 12.37 0 001.28-.73 1.66 1.66 0 01.89-.34.85.85 0 01.74.37l1.09 1.43a7.27 7.27 0 01-1.73 1.52 11 11 0 01-2.15 1.06 13.64 13.64 0 01-2.38.62 14.24 14.24 0 01-2.43.21 11.21 11.21 0 01-4.23-.78 9.18 9.18 0 01-3.35-2.27 10.42 10.42 0 01-2.2-3.71 15 15 0 01-.79-5.08 13.08 13.08 0 01.71-4.34 10.38 10.38 0 012.05-3.49 9.49 9.49 0 013.26-2.32 10.72 10.72 0 014.33-.84zm.09 2.87a6 6 0 00-4.44 1.63 7.72 7.72 0 00-2 4.52h12.07a7.88 7.88 0 00-.38-2.49 5.34 5.34 0 00-1.09-1.94 4.88 4.88 0 00-1.76-1.27 6 6 0 00-2.4-.45zm26.74 1.14a.85.85 0 01-.81.48 1.52 1.52 0 01-.74-.24q-.42-.24-1-.54a9.54 9.54 0 00-1.43-.55 7.2 7.2 0 00-2-.25 6.12 6.12 0 00-1.78.25 4.34 4.34 0 00-1.34.69 3 3 0 00-.86 1 2.84 2.84 0 00-.29 1.26 2.08 2.08 0 00.49 1.42 4.33 4.33 0 001.3 1 12.16 12.16 0 001.84.73c.69.21 1.39.44 2.11.68s1.43.51 2.12.8a7.58 7.58 0 011.83 1.09 5.13 5.13 0 011.31 1.61 4.93 4.93 0 01.49 2.29 7.14 7.14 0 01-.55 2.83 6.12 6.12 0 01-1.62 2.26 8 8 0 01-2.62 1.5 11 11 0 01-3.59.54 11.31 11.31 0 01-4.21-.75 10.51 10.51 0 01-3.19-1.94l.92-1.49a1.21 1.21 0 01.41-.43 1.13 1.13 0 01.64-.16 1.43 1.43 0 01.83.31c.29.2.65.43 1.06.68a8.59 8.59 0 001.51.68 7 7 0 002.22.3 6.34 6.34 0 002-.29 4.42 4.42 0 001.42-.8 3.14 3.14 0 00.84-1.16 3.67 3.67 0 00.27-1.4 2.34 2.34 0 00-.49-1.53 4.1 4.1 0 00-1.3-1 10.19 10.19 0 00-1.85-.75c-.69-.21-1.4-.43-2.12-.67a22.63 22.63 0 01-2.13-.79 7.63 7.63 0 01-1.85-1.13 5.06 5.06 0 01-1.3-1.68 5.38 5.38 0 01-.49-2.42 5.91 5.91 0 01.52-2.44 6 6 0 011.54-2.05 7.7 7.7 0 012.47-1.42 10.16 10.16 0 013.35-.52 10.59 10.59 0 013.93.69 9.38 9.38 0 013 1.89zM172.17 245.43v11.73h-4.23V225.8h9.26a17.38 17.38 0 015.18.69 9.89 9.89 0 013.64 1.95 7.91 7.91 0 012.16 3.07 10.87 10.87 0 01.71 4 10.24 10.24 0 01-.77 4 8.71 8.71 0 01-2.24 3.13 10.43 10.43 0 01-3.67 2 15.73 15.73 0 01-5 .73zm0-3.37h5a9.85 9.85 0 003.21-.48 6.59 6.59 0 002.33-1.35 5.44 5.44 0 001.42-2.07 7.06 7.06 0 00.48-2.65 6 6 0 00-1.85-4.68c-1.23-1.12-3.09-1.69-5.59-1.69h-5zm21.47 15.1V235h2.23a1.25 1.25 0 01.88.24 1.5 1.5 0 01.33.83l.26 3.46a10.2 10.2 0 012.81-3.62 6.23 6.23 0 013.93-1.31 6.08 6.08 0 011.66.21 5.66 5.66 0 011.38.58l-.5 2.91a.66.66 0 01-.68.55 3.38 3.38 0 01-.94-.21 6.24 6.24 0 00-1.77-.2 5 5 0 00-3.41 1.18 8.86 8.86 0 00-2.28 3.43v14.12zm26.62-22.52a11.41 11.41 0 014.39.81 9.17 9.17 0 013.32 2.3 10 10 0 012.1 3.6 15.42 15.42 0 010 9.44 10.08 10.08 0 01-2.1 3.59 9 9 0 01-3.32 2.29 12.45 12.45 0 01-8.78 0 9.1 9.1 0 01-3.34-2.29 10.11 10.11 0 01-2.12-3.59 15.23 15.23 0 010-9.44 10.07 10.07 0 012.12-3.6 9.25 9.25 0 013.34-2.3 11.37 11.37 0 014.39-.81zm0 19.79a5.7 5.7 0 004.9-2.2 10.21 10.21 0 001.62-6.14 10.32 10.32 0 00-1.62-6.18 5.68 5.68 0 00-4.9-2.21 6.77 6.77 0 00-2.89.57 5.47 5.47 0 00-2.05 1.64 7.15 7.15 0 00-1.22 2.64 13.72 13.72 0 00-.41 3.54 13.5 13.5 0 00.41 3.52 7 7 0 001.22 2.62 5.54 5.54 0 002.05 1.63 6.77 6.77 0 002.89.57zm30.49-15.5a1.8 1.8 0 01-.35.37.82.82 0 01-.5.13 1.29 1.29 0 01-.72-.27 10.86 10.86 0 00-1-.6 7.79 7.79 0 00-1.43-.6 6.6 6.6 0 00-2.07-.28 6.84 6.84 0 00-2.87.58 5.6 5.6 0 00-2.09 1.68 7.54 7.54 0 00-1.27 2.64 13.39 13.39 0 00-.43 3.49 12.88 12.88 0 00.46 3.57 7.88 7.88 0 001.29 2.63 5.49 5.49 0 002 1.62 6.27 6.27 0 002.68.56 6.73 6.73 0 002.34-.34 6.81 6.81 0 001.53-.76 9.15 9.15 0 001-.75 1.2 1.2 0 01.79-.34.81.81 0 01.74.37l1.1 1.42a8.4 8.4 0 01-3.61 2.6 12.77 12.77 0 01-4.58.82 9.67 9.67 0 01-3.86-.77 8.84 8.84 0 01-3.1-2.22 10.7 10.7 0 01-2.07-3.58 14.41 14.41 0 01-.75-4.83 14.61 14.61 0 01.69-4.58 10.37 10.37 0 012-3.62 9 9 0 013.27-2.38 11 11 0 014.47-.85 10.54 10.54 0 014.11.75 10 10 0 013.18 2.14zm14.1-4.29a9.78 9.78 0 013.67.67 8 8 0 012.91 1.92 8.8 8.8 0 011.92 3.11 12 12 0 01.69 4.21 2.54 2.54 0 01-.2 1.23.8.8 0 01-.74.31h-14.76a12.21 12.21 0 00.57 3.65 7.42 7.42 0 001.45 2.6 5.73 5.73 0 002.19 1.55 7.52 7.52 0 002.84.52 8.56 8.56 0 002.53-.34 12.6 12.6 0 001.83-.74 12.37 12.37 0 001.28-.73 1.66 1.66 0 01.89-.34.85.85 0 01.74.37l1.09 1.42a7.09 7.09 0 01-1.73 1.53 11 11 0 01-2.15 1.06 13.64 13.64 0 01-2.38.62 14.24 14.24 0 01-2.43.21 11.21 11.21 0 01-4.23-.78 9.31 9.31 0 01-3.35-2.27 10.42 10.42 0 01-2.2-3.71 15 15 0 01-.79-5.08 13.08 13.08 0 01.71-4.34 10.38 10.38 0 012.05-3.49 9.49 9.49 0 013.26-2.32 10.74 10.74 0 014.34-.84zm.08 2.87a6 6 0 00-4.44 1.63 7.63 7.63 0 00-2 4.52h12.06a7.84 7.84 0 00-.38-2.49 5.47 5.47 0 00-1.09-1.95 4.86 4.86 0 00-1.76-1.26 6 6 0 00-2.39-.45zm26.77 1.13a.85.85 0 01-.81.49 1.52 1.52 0 01-.74-.24c-.28-.17-.62-.34-1-.54a9.54 9.54 0 00-1.43-.55 6.79 6.79 0 00-2-.25 5.8 5.8 0 00-1.78.25 4.34 4.34 0 00-1.34.69 3.09 3.09 0 00-.86 1 2.84 2.84 0 00-.29 1.26 2.08 2.08 0 00.49 1.42 4.33 4.33 0 001.3 1 12.16 12.16 0 001.84.73c.69.21 1.39.44 2.11.68s1.43.5 2.12.8a7.64 7.64 0 011.84 1.09 5.1 5.1 0 011.3 1.61 4.9 4.9 0 01.49 2.29 7.14 7.14 0 01-.55 2.83 6.12 6.12 0 01-1.62 2.26 8 8 0 01-2.62 1.5 11 11 0 01-3.59.54 11.31 11.31 0 01-4.21-.75 10.71 10.71 0 01-3.19-1.94l.92-1.49a1.34 1.34 0 01.41-.44 1.21 1.21 0 01.64-.15 1.43 1.43 0 01.83.31c.29.2.65.43 1.06.68a9.39 9.39 0 001.51.68 7 7 0 002.22.3 6.34 6.34 0 002-.29 4.42 4.42 0 001.42-.8 3.22 3.22 0 00.84-1.16 3.67 3.67 0 00.27-1.4 2.34 2.34 0 00-.49-1.53 4.1 4.1 0 00-1.3-1 10.19 10.19 0 00-1.85-.75c-.69-.21-1.4-.43-2.12-.67a22.7 22.7 0 01-2.13-.8 7.3 7.3 0 01-1.85-1.12 5.06 5.06 0 01-1.3-1.68 5.38 5.38 0 01-.49-2.42 5.91 5.91 0 01.52-2.44 6 6 0 011.54-2 7.52 7.52 0 012.47-1.42 9.9 9.9 0 013.35-.52 10.59 10.59 0 013.93.69 9.38 9.38 0 013 1.89zm19 0a.85.85 0 01-.81.49 1.52 1.52 0 01-.74-.24c-.28-.17-.62-.34-1-.54a9.54 9.54 0 00-1.43-.55 6.84 6.84 0 00-2-.25 5.8 5.8 0 00-1.78.25 4.34 4.34 0 00-1.34.69 3 3 0 00-.86 1 2.84 2.84 0 00-.29 1.26 2.08 2.08 0 00.49 1.42 4.33 4.33 0 001.3 1 12.16 12.16 0 001.84.73c.69.21 1.39.44 2.11.68s1.43.5 2.12.8a7.58 7.58 0 011.83 1.09 5.13 5.13 0 011.31 1.61 4.9 4.9 0 01.49 2.29 7.14 7.14 0 01-.55 2.83 6.12 6.12 0 01-1.62 2.26 8 8 0 01-2.62 1.5 11 11 0 01-3.59.54 11.31 11.31 0 01-4.21-.75 10.71 10.71 0 01-3.19-1.94l.92-1.49a1.34 1.34 0 01.41-.44 1.21 1.21 0 01.64-.15 1.43 1.43 0 01.83.31c.29.2.65.43 1.06.68a9.39 9.39 0 001.51.68 7 7 0 002.22.3 6.34 6.34 0 002-.29 4.42 4.42 0 001.42-.8 3.22 3.22 0 00.84-1.16 3.67 3.67 0 00.27-1.4 2.34 2.34 0 00-.49-1.53 4.1 4.1 0 00-1.3-1 10.19 10.19 0 00-1.85-.75c-.69-.21-1.4-.43-2.12-.67a22.7 22.7 0 01-2.13-.8 7.3 7.3 0 01-1.85-1.12 5.06 5.06 0 01-1.3-1.68 5.38 5.38 0 01-.49-2.42 5.91 5.91 0 01.52-2.44 6 6 0 011.54-2 7.52 7.52 0 012.47-1.42 9.9 9.9 0 013.35-.52 10.59 10.59 0 013.93.69 9.38 9.38 0 013 1.89zm19.09-13.72v32.24h-3.9v-32.24zm15.85 9.72a11.41 11.41 0 014.39.81 9.17 9.17 0 013.32 2.3 9.89 9.89 0 012.1 3.6 15.42 15.42 0 010 9.44 9.93 9.93 0 01-2.1 3.59 9 9 0 01-3.32 2.29 12.45 12.45 0 01-8.78 0 9.1 9.1 0 01-3.34-2.29 10.11 10.11 0 01-2.12-3.59 15.23 15.23 0 010-9.44 10.07 10.07 0 012.12-3.6 9.25 9.25 0 013.34-2.3 11.37 11.37 0 014.39-.81zm0 19.79a5.7 5.7 0 004.9-2.2 10.21 10.21 0 001.62-6.14 10.32 10.32 0 00-1.62-6.18 5.68 5.68 0 00-4.9-2.21 6.77 6.77 0 00-2.89.57 5.47 5.47 0 00-2.05 1.64 7.32 7.32 0 00-1.22 2.64 14.17 14.17 0 00-.41 3.54 14 14 0 00.41 3.52 7.14 7.14 0 001.22 2.62 5.54 5.54 0 002.05 1.63 6.77 6.77 0 002.89.57zm22.83-19.81a11.11 11.11 0 012.7.31 9.16 9.16 0 012.29.93h6v1.45c0 .48-.31.79-.92.92l-2.52.35a6.71 6.71 0 01.75 3.17 6.81 6.81 0 01-.63 2.95 6.6 6.6 0 01-1.73 2.26 7.75 7.75 0 01-2.62 1.45 10.78 10.78 0 01-3.34.5 11.17 11.17 0 01-2.94-.37 3.88 3.88 0 00-1.06 1 1.81 1.81 0 00-.36 1 1.37 1.37 0 00.64 1.23 4.35 4.35 0 001.68.6 14.28 14.28 0 002.39.18h2.72a15.4 15.4 0 012.73.25 8.13 8.13 0 012.38.8 4.38 4.38 0 011.69 1.53 4.55 4.55 0 01.63 2.52 5.84 5.84 0 01-.71 2.79 7.57 7.57 0 01-2 2.41 10.55 10.55 0 01-3.26 1.68 14 14 0 01-4.36.63 16.89 16.89 0 01-4.26-.48 9.88 9.88 0 01-3-1.29 5.76 5.76 0 01-1.81-1.88 4.43 4.43 0 01-.6-2.22 4 4 0 011-2.79 7.07 7.07 0 012.86-1.83 3.85 3.85 0 01-1.5-1.17 3.17 3.17 0 01-.56-2 3 3 0 01.18-1 3.69 3.69 0 01.53-1 6.07 6.07 0 01.89-1 5.63 5.63 0 011.22-.81 6.94 6.94 0 01-2.57-2.44 7.23 7.23 0 01-.3-6.5 6.42 6.42 0 011.74-2.26 8 8 0 012.66-1.43 11 11 0 013.37-.44zm6.91 23.67a2 2 0 00-.45-1.36 3 3 0 00-1.25-.8 9.43 9.43 0 00-1.82-.41 16.76 16.76 0 00-2.17-.13h-2.32a8.31 8.31 0 01-2.25-.3 6.56 6.56 0 00-2 1.45 3 3 0 00-.77 2 2.65 2.65 0 00.38 1.39 3.41 3.41 0 001.17 1.12 7 7 0 002 .74 12.24 12.24 0 002.81.28 12.7 12.7 0 002.83-.29 7.15 7.15 0 002.11-.83 4.06 4.06 0 001.33-1.27 3.08 3.08 0 00.4-1.59zm-6.91-12a6.11 6.11 0 002.09-.33 4.36 4.36 0 001.52-.92 3.75 3.75 0 00.92-1.41 5.25 5.25 0 00.31-1.81 4.34 4.34 0 00-1.24-3.24 5 5 0 00-3.6-1.2 4.93 4.93 0 00-3.58 1.2 4.3 4.3 0 00-1.24 3.24 5 5 0 00.32 1.81 3.78 3.78 0 00.93 1.41 4.31 4.31 0 001.51.92 5.94 5.94 0 002.06.37zM388.58 228a2.38 2.38 0 01-.23 1.06 3 3 0 01-.61.88 3 3 0 01-.89.6 2.73 2.73 0 01-1.07.22 2.68 2.68 0 01-1.06-.22 2.86 2.86 0 01-1.48-1.48A2.68 2.68 0 01383 228a2.79 2.79 0 01.82-2 2.75 2.75 0 01.88-.6 2.52 2.52 0 011.06-.22 2.56 2.56 0 011.07.22 2.69 2.69 0 01.89.6 2.77 2.77 0 01.61.89 2.57 2.57 0 01.25 1.11zm-.87 7v22.17h-3.9V235zm22 3.93a2.11 2.11 0 01-.35.37.84.84 0 01-.51.13 1.27 1.27 0 01-.71-.27 10.86 10.86 0 00-1-.6 7.91 7.91 0 00-1.44-.6 6.49 6.49 0 00-2.06-.28 6.81 6.81 0 00-2.87.58 5.6 5.6 0 00-2.09 1.68 7.54 7.54 0 00-1.27 2.64 13 13 0 00-.43 3.49 12.52 12.52 0 00.46 3.57 7.88 7.88 0 001.29 2.63 5.49 5.49 0 002 1.62 6.27 6.27 0 002.68.56 6.73 6.73 0 002.34-.34 7.26 7.26 0 001.53-.76 9.15 9.15 0 001-.75 1.2 1.2 0 01.79-.34.82.82 0 01.74.37l1.1 1.42a8.43 8.43 0 01-3.62 2.6 12.72 12.72 0 01-4.57.82 9.67 9.67 0 01-3.86-.77 8.75 8.75 0 01-3.1-2.22 10.38 10.38 0 01-2.07-3.58 14.4 14.4 0 01-.76-4.83 14.61 14.61 0 01.69-4.58 10.39 10.39 0 012-3.62 9 9 0 013.27-2.38 11 11 0 014.47-.85 10.61 10.61 0 014.11.75 10 10 0 013.18 2.14zm30.05 18.23H438a2.19 2.19 0 01-.92-.17 1 1 0 01-.46-.75l-.44-2.05c-.58.52-1.15 1-1.7 1.41a10.82 10.82 0 01-1.75 1 9.18 9.18 0 01-2 .64 11.05 11.05 0 01-2.31.22 7.91 7.91 0 01-2.42-.36 5.37 5.37 0 01-2-1.09 5 5 0 01-1.32-1.83 6.39 6.39 0 01-.5-2.63 4.83 4.83 0 01.73-2.53 6.32 6.32 0 012.33-2.17 15 15 0 014.21-1.54 28.23 28.23 0 016.37-.61V243a6 6 0 00-1.11-3.93 4 4 0 00-3.27-1.33 7 7 0 00-2.4.36 9.07 9.07 0 00-1.68.81l-1.23.81a1.76 1.76 0 01-1 .36 1.13 1.13 0 01-.69-.21 1.52 1.52 0 01-.47-.51l-.7-1.25a12.51 12.51 0 014-2.65 12.26 12.26 0 014.7-.88 8.39 8.39 0 013.31.62 6.86 6.86 0 012.43 1.71 7.26 7.26 0 011.49 2.64 11.26 11.26 0 01.5 3.42zm-10.11-2.38a7.9 7.9 0 001.88-.21 7.72 7.72 0 001.61-.59 9.29 9.29 0 001.44-.93 13 13 0 001.35-1.25v-4.57a26 26 0 00-4.58.34 12.36 12.36 0 00-3.06.89 4.3 4.3 0 00-1.72 1.3 2.77 2.77 0 00-.53 1.67 3.72 3.72 0 00.28 1.52 2.84 2.84 0 001.9 1.64 5.43 5.43 0 001.43.19zm28.72-16.14a.87.87 0 01-.81.49 1.55 1.55 0 01-.75-.24c-.28-.17-.62-.34-1-.54a9.54 9.54 0 00-1.43-.55 6.74 6.74 0 00-2-.25 5.69 5.69 0 00-1.77.25 4.29 4.29 0 00-1.35.69 2.94 2.94 0 00-.85 1 2.72 2.72 0 00-.3 1.26 2.13 2.13 0 00.49 1.42 4.38 4.38 0 001.31 1 11.76 11.76 0 001.84.73l2.11.68c.72.24 1.42.5 2.11.8a7.45 7.45 0 011.84 1.09 5.1 5.1 0 011.3 1.61 4.9 4.9 0 01.49 2.29 7.32 7.32 0 01-.54 2.83 6.36 6.36 0 01-1.62 2.26 8 8 0 01-2.63 1.5 10.93 10.93 0 01-3.59.54 11.22 11.22 0 01-4.2-.75 10.76 10.76 0 01-3.2-1.94l.92-1.49a1.48 1.48 0 01.42-.44 1.18 1.18 0 01.63-.15 1.43 1.43 0 01.83.31c.29.2.65.43 1.06.68a9.14 9.14 0 001.52.68 7 7 0 002.22.3 6.28 6.28 0 002-.29 4.32 4.32 0 001.42-.8 3.22 3.22 0 00.84-1.16 3.5 3.5 0 00.28-1.4 2.4 2.4 0 00-.49-1.53 4.14 4.14 0 00-1.31-1 9.9 9.9 0 00-1.85-.75c-.69-.21-1.4-.43-2.12-.67a22.51 22.51 0 01-2.12-.8 7.13 7.13 0 01-1.85-1.12 5.08 5.08 0 01-1.31-1.68 5.52 5.52 0 01-.49-2.42 6 6 0 012.06-4.49 7.62 7.62 0 012.47-1.42 9.94 9.94 0 013.35-.52 10.59 10.59 0 013.93.69 9.27 9.27 0 013 1.89zm-284.76 71.41a5.34 5.34 0 01-4-1.47 5.85 5.85 0 01-1.41-4.22v-13.57h-2.67a.87.87 0 01-.59-.21.82.82 0 01-.24-.65v-1.55l3.63-.46.9-6.85a.84.84 0 01.28-.54.91.91 0 01.62-.21h2V288h6.34v2.83h-6.34v13.3a2.79 2.79 0 00.68 2.08 2.33 2.33 0 001.75.68 3.11 3.11 0 001.06-.16 4.75 4.75 0 00.78-.36c.21-.13.4-.26.55-.37a.82.82 0 01.41-.16.69.69 0 01.55.37L179 308a7.24 7.24 0 01-2.43 1.48 8.14 8.14 0 01-2.96.57zm6.72-22.53h3.07a1.21 1.21 0 01.78.24 1.15 1.15 0 01.42.57l4.25 14.28c.11.52.22 1 .32 1.52s.19 1 .27 1.47q.17-.74.39-1.47l.46-1.52 4.71-14.36a1.14 1.14 0 01.39-.55 1 1 0 01.69-.22h1.68a1.13 1.13 0 011.12.77l4.57 14.36c.16.51.31 1 .43 1.51l.36 1.46c.07-.48.17-1 .29-1.51s.24-1 .37-1.46l4.33-14.28a1.19 1.19 0 01.42-.58 1.17 1.17 0 01.72-.23h2.93l-7.18 22.18H203c-.38 0-.64-.25-.79-.75l-4.9-15a7.8 7.8 0 01-.29-1c-.07-.35-.14-.69-.22-1-.07.33-.14.68-.22 1a7.47 7.47 0 01-.28 1l-5 15a.91.91 0 01-.9.75h-2.93zm41.67-6.96a2.35 2.35 0 01-.23 1.06 3 3 0 01-.61.88 2.74 2.74 0 01-.89.6 2.56 2.56 0 01-1.07.22 2.52 2.52 0 01-1.06-.22 2.93 2.93 0 01-.88-.6 3.12 3.12 0 01-.6-.88 2.64 2.64 0 01-.22-1.06 2.82 2.82 0 01.22-1.08 3.08 3.08 0 01.6-.9 3.12 3.12 0 01.88-.6 2.52 2.52 0 011.06-.22 2.56 2.56 0 011.07.22 2.85 2.85 0 011.5 1.5 2.5 2.5 0 01.23 1.08zm-.87 7v22.14h-3.9v-22.18zM228 309.7v-22.18h2.32a1 1 0 011.05.81l.31 2.41a12.36 12.36 0 013.23-2.58 8.34 8.34 0 014.12-1 7.89 7.89 0 013.21.61 6.22 6.22 0 012.32 1.7 7.61 7.61 0 011.41 2.66 11.63 11.63 0 01.48 3.44v14.13h-3.89v-14.12a6 6 0 00-1.15-3.91 4.33 4.33 0 00-3.52-1.39 6.57 6.57 0 00-3.22.83 10.63 10.63 0 00-2.77 2.26v16.33zm37-18.52a.87.87 0 01-.81.48 1.55 1.55 0 01-.75-.24 19.6 19.6 0 00-1-.54 9.74 9.74 0 00-1.44-.54 6.72 6.72 0 00-2-.26 5.73 5.73 0 00-1.77.26 3.91 3.91 0 00-1.35.69 3.12 3.12 0 00-.85 1 2.72 2.72 0 00-.3 1.26 2.07 2.07 0 00.5 1.42 4.21 4.21 0 001.3 1 10.85 10.85 0 001.84.73l2.11.68c.72.24 1.43.51 2.11.8a7.48 7.48 0 011.84 1.1 4.76 4.76 0 011.8 3.89 7.37 7.37 0 01-.55 2.84 6.32 6.32 0 01-1.62 2.25 7.67 7.67 0 01-2.63 1.5 10.62 10.62 0 01-3.59.55 11 11 0 01-4.2-.76 10.74 10.74 0 01-3.2-1.93l.92-1.49a1.37 1.37 0 01.42-.44 1.18 1.18 0 01.63-.15 1.51 1.51 0 01.84.3c.29.21.64.43 1.06.68a7.64 7.64 0 001.51.68 7 7 0 002.22.31 6 6 0 002-.3 4.15 4.15 0 001.42-.8 3.2 3.2 0 00.85-1.16 3.64 3.64 0 00.27-1.4 2.31 2.31 0 00-.49-1.52 4.17 4.17 0 00-1.31-1 10.85 10.85 0 00-1.84-.74l-2.13-.67c-.72-.24-1.43-.5-2.12-.8a7.63 7.63 0 01-1.85-1.13 5.12 5.12 0 01-1.3-1.67 5.41 5.41 0 01-.5-2.42 5.89 5.89 0 01.53-2.44 6 6 0 011.53-2.06 7.55 7.55 0 012.48-1.41 9.84 9.84 0 013.34-.53 10.59 10.59 0 013.93.69 9.13 9.13 0 013 1.9zm31 18.52h-1.73a2 2 0 01-.92-.18.92.92 0 01-.46-.74l-.44-2.06a20.5 20.5 0 01-1.71 1.41 9.23 9.23 0 01-1.75 1.05 8.84 8.84 0 01-2 .65 11.62 11.62 0 01-2.31.22 8 8 0 01-2.42-.36 5.63 5.63 0 01-1.95-1.09 5.22 5.22 0 01-1.33-1.84 6.38 6.38 0 01-.49-2.62 5 5 0 01.72-2.54 6.38 6.38 0 012.33-2.16 15 15 0 014.22-1.55 28.82 28.82 0 016.37-.6v-1.74a6 6 0 00-1.11-3.94 4 4 0 00-3.27-1.33 7 7 0 00-2.4.36 8.77 8.77 0 00-1.68.81q-.72.45-1.23.81a1.76 1.76 0 01-1 .36 1.24 1.24 0 01-.69-.2 1.67 1.67 0 01-.47-.52l-.7-1.25a12.92 12.92 0 014-2.65 12.34 12.34 0 014.71-.87 8.34 8.34 0 013.3.61 6.68 6.68 0 012.43 1.71 7.09 7.09 0 011.49 2.65 10.84 10.84 0 01.51 3.41zm-10.12-2.39a7.93 7.93 0 001.89-.21 7.11 7.11 0 001.6-.59 7.75 7.75 0 001.45-.93 12 12 0 001.35-1.25v-4.57a26 26 0 00-4.58.34 13.14 13.14 0 00-3.06.89 4.3 4.3 0 00-1.72 1.3 2.8 2.8 0 00-.54 1.67 3.68 3.68 0 00.29 1.52 2.85 2.85 0 00.76 1 3 3 0 001.14.59 5 5 0 001.46.24zM302 309.7v-22.18h2.32a1 1 0 011.05.81l.3 2.41a12.53 12.53 0 013.23-2.58 8.38 8.38 0 014.13-1 7.89 7.89 0 013.21.61 6.38 6.38 0 012.32 1.7 7.61 7.61 0 011.41 2.66 11.63 11.63 0 01.48 3.44v14.13h-3.9v-14.12a6 6 0 00-1.15-3.91 4.3 4.3 0 00-3.51-1.39 6.61 6.61 0 00-3.23.83 10.8 10.8 0 00-2.77 2.26v16.33zm39.89 0a1 1 0 01-1.05-.81l-.35-2.69a11.63 11.63 0 01-3.25 2.76 8.25 8.25 0 01-4.19 1 8 8 0 01-3.46-.73 7.24 7.24 0 01-2.65-2.16 10.13 10.13 0 01-1.68-3.54 18 18 0 01-.59-4.88 15.58 15.58 0 01.65-4.57 11 11 0 011.9-3.66 8.7 8.7 0 017-3.33 8 8 0 013.48.69 8.2 8.2 0 012.59 1.94v-12.27h3.89v32.25zm-7.55-2.85a6.32 6.32 0 003.34-.87 9.59 9.59 0 002.64-2.48v-10.72a6.16 6.16 0 00-2.36-2 6.85 6.85 0 00-2.83-.58 5.62 5.62 0 00-4.77 2.21 10.35 10.35 0 00-1.67 6.31 15.92 15.92 0 00.38 3.71 7.06 7.06 0 001.09 2.54 4.25 4.25 0 001.77 1.45 5.92 5.92 0 002.41.43zM368 287.17a10 10 0 013.67.67 8.19 8.19 0 012.91 1.93 8.71 8.71 0 011.92 3.11 12 12 0 01.69 4.21 2.52 2.52 0 01-.2 1.22.8.8 0 01-.74.31h-14.77a12.33 12.33 0 00.57 3.66 7.53 7.53 0 001.45 2.59 5.73 5.73 0 002.19 1.55 7.33 7.33 0 002.84.52 8.24 8.24 0 002.53-.34 12.65 12.65 0 001.83-.73 14.35 14.35 0 001.28-.74 1.75 1.75 0 01.89-.34.85.85 0 01.74.38l1.09 1.42a7.42 7.42 0 01-1.72 1.52 11.1 11.1 0 01-2.16 1.06 13.67 13.67 0 01-2.38.63 15.32 15.32 0 01-2.43.2 11.41 11.41 0 01-4.23-.77 9.33 9.33 0 01-3.35-2.28 10.57 10.57 0 01-2.2-3.71 15 15 0 01-.79-5.08 13 13 0 01.71-4.33 10.29 10.29 0 012.05-3.49 9.36 9.36 0 013.26-2.32 10.6 10.6 0 014.35-.85zm.08 2.87a6 6 0 00-4.44 1.63 7.68 7.68 0 00-2 4.52h12.06a7.82 7.82 0 00-.38-2.48 5.47 5.47 0 00-1.09-1.95 4.88 4.88 0 00-1.76-1.27 6 6 0 00-2.4-.49zm10.7-2.52H382a1.22 1.22 0 01.77.24 1.42 1.42 0 01.44.57l5.62 14.28a9.41 9.41 0 01.48 1.57c.12.53.23 1 .33 1.56.12-.52.24-1 .37-1.56a13.65 13.65 0 01.51-1.57l5.69-14.28a1.36 1.36 0 01.43-.58 1.16 1.16 0 01.73-.23h3l-9 22.18h-3.52zm33.42-.35a10 10 0 013.68.67 8.37 8.37 0 012.91 1.93 8.71 8.71 0 011.92 3.11 12 12 0 01.69 4.21 2.52 2.52 0 01-.2 1.22.81.81 0 01-.75.31H405.7a12.33 12.33 0 00.57 3.66 7.37 7.37 0 001.45 2.59 5.78 5.78 0 002.18 1.55 7.42 7.42 0 002.85.52 8.24 8.24 0 002.53-.34 13.13 13.13 0 001.83-.73c.51-.27.93-.51 1.28-.74a1.72 1.72 0 01.88-.34.88.88 0 01.75.38l1.09 1.42a7.47 7.47 0 01-1.73 1.52 11 11 0 01-2.15 1.06 13.67 13.67 0 01-2.38.63 15.51 15.51 0 01-2.43.2 11.41 11.41 0 01-4.23-.77 9.24 9.24 0 01-3.35-2.28 10.42 10.42 0 01-2.2-3.71 15 15 0 01-.79-5.08 13 13 0 01.71-4.33 10.13 10.13 0 012.05-3.49 9.27 9.27 0 013.26-2.32 10.56 10.56 0 014.33-.85zm.09 2.87a6 6 0 00-4.44 1.63 7.75 7.75 0 00-2 4.52h12.06a7.82 7.82 0 00-.37-2.48 5.63 5.63 0 00-1.09-1.95 4.88 4.88 0 00-1.76-1.27 6 6 0 00-2.4-.49zm14.07 19.66v-22.18h2.32a1 1 0 011.06.81l.3 2.41a12.36 12.36 0 013.23-2.58 8.36 8.36 0 014.13-1 7.81 7.81 0 013.2.61 6.22 6.22 0 012.32 1.7 7.79 7.79 0 011.42 2.66 11.63 11.63 0 01.48 3.44v14.13h-3.9v-14.12a6 6 0 00-1.15-3.91 4.31 4.31 0 00-3.51-1.39 6.61 6.61 0 00-3.23.83 10.8 10.8 0 00-2.77 2.26v16.33zm31.07.35a5.33 5.33 0 01-4-1.47 5.85 5.85 0 01-1.42-4.22v-13.57h-2.71a.87.87 0 01-.59-.21.82.82 0 01-.24-.65v-1.55l3.64-.46.89-6.85a.85.85 0 01.29-.54.89.89 0 01.61-.21h2V288h6.35v2.83h-6.35v13.3a2.83 2.83 0 00.68 2.08 2.34 2.34 0 001.75.68 3.07 3.07 0 001.06-.16 4.75 4.75 0 00.78-.36c.22-.13.4-.26.56-.37a.8.8 0 01.4-.16.66.66 0 01.55.37l1.14 1.86a7.24 7.24 0 01-2.43 1.48 8.22 8.22 0 01-2.96.5zm22.3-18.87a.86.86 0 01-.81.48 1.49 1.49 0 01-.74-.24q-.42-.24-1-.54a9.33 9.33 0 00-1.44-.54 6.72 6.72 0 00-2-.26 5.77 5.77 0 00-1.77.26 4 4 0 00-1.34.69 3 3 0 00-.86 1 2.71 2.71 0 00-.29 1.26 2.06 2.06 0 00.49 1.42 4.33 4.33 0 001.3 1 10.85 10.85 0 001.84.73l2.11.68c.72.24 1.43.51 2.11.8a7.48 7.48 0 011.84 1.1 5 5 0 011.31 1.6 5.06 5.06 0 01.49 2.29 7.37 7.37 0 01-.55 2.84 6.09 6.09 0 01-1.62 2.25 7.58 7.58 0 01-2.63 1.5 10.62 10.62 0 01-3.59.55 11.1 11.1 0 01-4.2-.76 10.69 10.69 0 01-3.19-1.93l.91-1.49a1.37 1.37 0 01.42-.44 1.19 1.19 0 01.64-.15 1.48 1.48 0 01.83.3c.29.21.64.43 1.06.68a7.91 7.91 0 001.51.68 7 7 0 002.22.31 6 6 0 002-.3 4.2 4.2 0 001.43-.8 3.17 3.17 0 00.84-1.16 3.64 3.64 0 00.27-1.4 2.31 2.31 0 00-.49-1.52 4.12 4.12 0 00-1.3-1 11 11 0 00-1.85-.74l-2.13-.67c-.72-.24-1.43-.5-2.12-.8a7.63 7.63 0 01-1.85-1.13 5.12 5.12 0 01-1.3-1.67 5.41 5.41 0 01-.49-2.42 5.88 5.88 0 01.52-2.44 6 6 0 011.53-2.06 7.66 7.66 0 012.48-1.41 9.85 9.85 0 013.35-.53 10.59 10.59 0 013.93.69 9.24 9.24 0 013 1.9z" fill="#0a2540" stroke="#0a2540" stroke-width=".5"/><rect x="1515.27" y="601.07" width="251.85" height="335.69" rx="22.93" fill="#fff"/><path d="M1744.2 937.76h-206a24 24 0 01-23.93-23.93V624a24 24 0 0123.93-23.93h206a24 24 0 0123.93 23.93v289.83a24 24 0 01-23.93 23.93zm-206-335.69a22 22 0 00-21.93 21.93v289.83a22 22 0 0021.93 21.93h206a22 22 0 0021.93-21.93V624a22 22 0 00-21.93-21.93z" fill="#dae1ea"/><rect x="1572.27" y="869.86" width="137.85" height="137.85" rx="68.93" fill="#fff"/><path d="M1641.2 1008.71a69.93 69.93 0 1169.93-69.93 70 70 0 01-69.93 69.93zm0-137.85a67.93 67.93 0 1067.93 67.92 68 68 0 00-67.93-67.92z" fill="#7f96a5"/><path d="M1670.39 954.61v-33.69a.48.48 0 00-.25-.43l-28.92-16.7a.5.5 0 00-.5 0l-28.43 16.41a.5.5 0 000 .86l14 8.07 14.46-8.35a.5.5 0 01.5 0l14.21 8.2a.52.52 0 01.25.43v16.7l-7.68 4.44-6.78 3.91a.5.5 0 01-.5 0l-14.22-8.2a.51.51 0 01-.24-.43v-16.7l-14.47 8.36a.5.5 0 00-.25.43v16.4a.5.5 0 00.25.43l28.93 16.7a.5.5 0 00.5 0l14.46-8.35 6.78 3.92a.5.5 0 00.5 0l13.72-7.92a.5.5 0 000-.86z" fill="#252628"/><path d="M1587.64 1057.57a17.75 17.75 0 01-1.12 6.41 13.81 13.81 0 01-8 8.13 17 17 0 01-6.31 1.13h-11.73v-31.37h11.73a17 17 0 016.31 1.13 14 14 0 014.88 3.2 14.32 14.32 0 013.15 5 17.8 17.8 0 011.09 6.37zm-4.36 0a15.64 15.64 0 00-.79-5.17 10.81 10.81 0 00-2.23-3.85 9.58 9.58 0 00-3.5-2.41 12.21 12.21 0 00-4.58-.83h-7.46v24.49h7.46a12 12 0 004.58-.83 9.44 9.44 0 003.5-2.4 10.68 10.68 0 002.23-3.84 15.62 15.62 0 00.79-5.16zm18.3-6.86a10 10 0 013.68.67 8.37 8.37 0 012.91 1.93 8.69 8.69 0 011.91 3.11 12 12 0 01.69 4.21 2.62 2.62 0 01-.19 1.23.84.84 0 01-.75.3h-14.75a12.33 12.33 0 00.57 3.66 7.43 7.43 0 001.44 2.59 5.84 5.84 0 002.19 1.56 7.61 7.61 0 002.85.51 8.17 8.17 0 002.52-.34 11.6 11.6 0 001.83-.73 14.53 14.53 0 001.28-.73 1.69 1.69 0 01.89-.34.84.84 0 01.74.37l1.1 1.42a7.47 7.47 0 01-1.73 1.52 10.32 10.32 0 01-2.16 1.06 13.56 13.56 0 01-2.37.63 14.42 14.42 0 01-2.43.21 11.26 11.26 0 01-4.24-.78 9.33 9.33 0 01-3.35-2.28 10.48 10.48 0 01-2.2-3.71 15.19 15.19 0 01-.78-5.08 12.77 12.77 0 01.71-4.33 10.11 10.11 0 012-3.49 9.31 9.31 0 013.27-2.32 10.69 10.69 0 014.37-.85zm.09 2.87a6 6 0 00-4.45 1.63 7.68 7.68 0 00-2 4.52h12.06a7.82 7.82 0 00-.37-2.48 5.49 5.49 0 00-1.1-2 4.88 4.88 0 00-1.81-1.25 5.89 5.89 0 00-2.33-.42zm10.7-2.51h3.2a1.19 1.19 0 01.76.24 1.34 1.34 0 01.44.57l5.63 14.27a11.76 11.76 0 01.48 1.57q.16.79.33 1.56c.11-.51.24-1 .37-1.56a13.58 13.58 0 01.5-1.57l5.69-14.27a1.33 1.33 0 01.43-.59 1.17 1.17 0 01.73-.22h3l-9 22.17h-3.53zm30.43-6.97a2.57 2.57 0 01-.23 1.07 3.14 3.14 0 01-.62.87 2.74 2.74 0 01-2 .82 2.56 2.56 0 01-1.07-.22 2.93 2.93 0 01-1.47-1.47 2.56 2.56 0 01-.22-1.07 2.68 2.68 0 01.22-1.08 2.73 2.73 0 01.6-.9 3.07 3.07 0 01.87-.6 2.73 2.73 0 011.07-.22 2.81 2.81 0 011.07.22 3 3 0 01.88.6 3.14 3.14 0 01.62.9 2.69 2.69 0 01.28 1.08zm-.88 7v22.17H1638v-22.17zm22 3.9a1.8 1.8 0 01-.35.37.88.88 0 01-.5.13 1.24 1.24 0 01-.71-.27 9.09 9.09 0 00-1-.61 7.79 7.79 0 00-1.43-.6 6.84 6.84 0 00-2.07-.27 6.69 6.69 0 00-2.87.58 5.48 5.48 0 00-2.09 1.67 7.77 7.77 0 00-1.27 2.65 13.37 13.37 0 00-.43 3.48 13 13 0 00.46 3.58 7.8 7.8 0 001.3 2.63 5.67 5.67 0 002 1.62 6.3 6.3 0 002.68.56 7 7 0 002.34-.34 7.12 7.12 0 001.54-.76c.4-.28.74-.53 1-.75a1.22 1.22 0 01.79-.34.83.83 0 01.75.37l1.09 1.42a8.38 8.38 0 01-3.61 2.59 12.78 12.78 0 01-4.58.83 9.71 9.71 0 01-3.86-.77 8.84 8.84 0 01-3.1-2.22 10.8 10.8 0 01-2-3.55 15.74 15.74 0 01-.06-9.41 10.5 10.5 0 012-3.63 9.22 9.22 0 013.27-2.37 11 11 0 014.47-.86 10.62 10.62 0 014.12.76 10 10 0 013.17 2.13zm14.08-4.29a10 10 0 013.67.67 8.32 8.32 0 012.92 1.93 8.83 8.83 0 011.91 3.11 12 12 0 01.69 4.21 2.59 2.59 0 01-.2 1.23.82.82 0 01-.74.3h-14.75a12 12 0 00.56 3.66 7.44 7.44 0 001.45 2.59 5.76 5.76 0 002.19 1.56 7.52 7.52 0 002.84.51 8.24 8.24 0 002.53-.34 11.6 11.6 0 001.83-.73 14.53 14.53 0 001.28-.73 1.66 1.66 0 01.89-.34.84.84 0 01.74.37l1.1 1.42a7.68 7.68 0 01-1.73 1.52 10.32 10.32 0 01-2.16 1.06 13.8 13.8 0 01-2.37.63 14.42 14.42 0 01-2.43.21 11.23 11.23 0 01-4.24-.78 9.33 9.33 0 01-3.35-2.28 10.48 10.48 0 01-2.2-3.71 15.18 15.18 0 01-.79-5.08 13 13 0 01.71-4.33 10.29 10.29 0 012.05-3.49 9.36 9.36 0 013.26-2.32 10.77 10.77 0 014.34-.85zm.08 2.87a6 6 0 00-4.44 1.63 7.68 7.68 0 00-2 4.52h12.06a8.12 8.12 0 00-.37-2.48 5.65 5.65 0 00-1.1-2 4.88 4.88 0 00-1.76-1.27 5.94 5.94 0 00-2.37-.4zm23.16 19.66v-31.37h10a19.06 19.06 0 015 .57 9.65 9.65 0 013.44 1.62 6.38 6.38 0 012 2.57 8.74 8.74 0 01.65 3.43 7 7 0 01-.36 2.23 6.39 6.39 0 01-1.1 2 7.52 7.52 0 01-1.84 1.64 10 10 0 01-2.59 1.19 9.65 9.65 0 015.19 2.47 6.51 6.51 0 011.75 4.73 8.91 8.91 0 01-.73 3.63 7.82 7.82 0 01-2.15 2.83 10.07 10.07 0 01-3.46 1.82 15.5 15.5 0 01-4.67.65zm4.25-17.32h5.6a11 11 0 003.11-.39 6.37 6.37 0 002.18-1.09 4.43 4.43 0 001.28-1.7 5.72 5.72 0 00.41-2.18 4.8 4.8 0 00-1.66-4 8.42 8.42 0 00-5.17-1.29h-5.75zm0 3v10.92h6.78a10.24 10.24 0 003.12-.42 5.62 5.62 0 002.15-1.17 4.5 4.5 0 001.23-1.79 6.3 6.3 0 00.4-2.29 4.72 4.72 0 00-1.72-3.84 8.09 8.09 0 00-5.2-1.41z" fill="#0a2540" stroke="#0a2540" stroke-width=".5"/><rect x="1571.33" y="687.19" width="139.73" height="139.73" rx="29.41" fill="#f5f9fb"/><path d="M1681.66 688.19a28.44 28.44 0 0128.41 28.4v80.93a28.44 28.44 0 01-28.41 28.4h-80.92a28.44 28.44 0 01-28.41-28.4v-80.93a28.44 28.44 0 0128.41-28.4h80.92m0-2h-80.92a30.41 30.41 0 00-30.41 30.4v80.93a30.41 30.41 0 0030.41 30.4h80.92a30.41 30.41 0 0030.41-30.4v-80.93a30.41 30.41 0 00-30.41-30.4z" fill="#7f96a5"/><path d="M1631.76 739.41h-3.28a1.48 1.48 0 01-.92-.28 1.75 1.75 0 01-.52-.73l-2.94-7.57H1610l-2.93 7.57a1.7 1.7 0 01-.53.7 1.37 1.37 0 01-.92.31h-3.28l12.57-31.41h4.31zm-20.55-11.65h11.71L1618 715a23.09 23.09 0 01-.94-3c-.17.6-.32 1.15-.48 1.65s-.3.95-.44 1.32zm23.9 19.16v-29.68h2.32a1 1 0 011 .8l.33 2.63a11.88 11.88 0 013.25-2.78 8.34 8.34 0 014.22-1 8.15 8.15 0 013.46.73 7.23 7.23 0 012.64 2.17 10.33 10.33 0 011.69 3.56 18.38 18.38 0 01.59 4.88 15.18 15.18 0 01-.66 4.56 10.93 10.93 0 01-1.88 3.66 8.79 8.79 0 01-3 2.43 8.93 8.93 0 01-4 .89 8.29 8.29 0 01-3.51-.68 8 8 0 01-2.57-1.93v9.81zM1645 720a6.3 6.3 0 00-3.34.88 9.54 9.54 0 00-2.64 2.47v10.73a6.22 6.22 0 002.35 2 6.69 6.69 0 002.86.6 5.58 5.58 0 004.75-2.22 10.3 10.3 0 001.66-6.3 16.07 16.07 0 00-.38-3.72 7.15 7.15 0 00-1.11-2.55 4.36 4.36 0 00-1.77-1.46 6 6 0 00-2.38-.43zm14.28 26.92v-29.68h2.32a1 1 0 011.05.8l.33 2.63a11.88 11.88 0 013.25-2.78 8.3 8.3 0 014.21-1 8.12 8.12 0 013.46.73 7.18 7.18 0 012.65 2.17 10.51 10.51 0 011.69 3.56 18.38 18.38 0 01.59 4.88 15.18 15.18 0 01-.66 4.56 11.31 11.31 0 01-1.88 3.66 8.79 8.79 0 01-3 2.43 8.93 8.93 0 01-4 .89 8.29 8.29 0 01-3.51-.68 8 8 0 01-2.57-1.93v9.81zm9.87-26.93a6.33 6.33 0 00-3.34.88 9.65 9.65 0 00-2.63 2.47v10.73a6.15 6.15 0 002.35 2 6.61 6.61 0 002.85.6 5.57 5.57 0 004.75-2.22 10.3 10.3 0 001.67-6.3 16.07 16.07 0 00-.38-3.72 7.33 7.33 0 00-1.11-2.55 4.36 4.36 0 00-1.77-1.46 6 6 0 00-2.39-.42zm-38.3 77.72v-31.37h10a19.06 19.06 0 015 .57 9.73 9.73 0 013.44 1.62 6.43 6.43 0 012 2.58 8.65 8.65 0 01.64 3.42 7 7 0 01-.36 2.23 6.52 6.52 0 01-1.09 2 7.73 7.73 0 01-1.84 1.64 10.39 10.39 0 01-2.6 1.18 9.65 9.65 0 015.19 2.47 6.49 6.49 0 011.75 4.73 8.75 8.75 0 01-.73 3.63 7.79 7.79 0 01-2.14 2.83 10.27 10.27 0 01-3.46 1.83 15.63 15.63 0 01-4.68.64zm4.24-17.31h5.61a10.56 10.56 0 003.1-.4 6.11 6.11 0 002.18-1.09 4.17 4.17 0 001.28-1.7 5.54 5.54 0 00.42-2.18 4.83 4.83 0 00-1.67-4 8.39 8.39 0 00-5.16-1.29h-5.76zm0 3v10.92h6.79a10.24 10.24 0 003.12-.42 5.57 5.57 0 002.14-1.17 4.52 4.52 0 001.24-1.79 6.47 6.47 0 00.39-2.29 4.69 4.69 0 00-1.72-3.84 8 8 0 00-5.19-1.41z" fill="#0a2540"/><rect x="870.76" y="601.07" width="251.85" height="335.69" rx="22.93" fill="#fff"/><path d="M1099.69 937.76h-206a24 24 0 01-23.93-23.93V624a24 24 0 0123.93-23.93h206a24 24 0 0123.92 23.93v289.83a24 24 0 01-23.92 23.93zm-206-335.69A22 22 0 00871.76 624v289.83a22 22 0 0021.93 21.93h206a22 22 0 0021.92-21.93V624a22 22 0 00-21.92-21.93z" fill="#dae1ea"/><rect x="927.76" y="869.86" width="137.85" height="137.85" rx="68.93" fill="#fff"/><path d="M996.69 1008.71a69.93 69.93 0 1169.93-69.93 70 70 0 01-69.93 69.93zm0-137.85a67.93 67.93 0 100 135.85 67.93 67.93 0 100-135.85z" fill="#7f96a5"/><path d="M1025.88 954.61v-33.69a.5.5 0 00-.25-.43l-28.92-16.7a.5.5 0 00-.5 0l-28.43 16.41a.5.5 0 000 .86l14 8.07 14.47-8.35a.5.5 0 01.5 0l14.21 8.2a.52.52 0 01.25.43v16.7l-7.68 4.44-6.78 3.91a.5.5 0 01-.5 0l-14.25-8.2a.52.52 0 01-.25-.43v-16.7l-14.46 8.36a.5.5 0 00-.25.43v16.4a.5.5 0 00.25.43l28.93 16.7a.5.5 0 00.5 0l14.46-8.35 6.82 3.9a.5.5 0 00.5 0l13.72-7.92a.5.5 0 000-.86z" fill="#252628"/><path d="M942.4 1057.57a17.75 17.75 0 01-1.11 6.41 14.37 14.37 0 01-3.15 5 14.08 14.08 0 01-4.89 3.18 16.94 16.94 0 01-6.3 1.13h-11.73v-31.37H927a16.94 16.94 0 016.3 1.13 14 14 0 014.89 3.2 14.46 14.46 0 013.15 5 17.8 17.8 0 011.06 6.32zm-4.35 0a15.64 15.64 0 00-.79-5.17 11 11 0 00-2.23-3.85 9.62 9.62 0 00-3.51-2.41 12.15 12.15 0 00-4.57-.83h-7.46v24.49H927a12 12 0 004.57-.83 9.48 9.48 0 003.51-2.4 10.83 10.83 0 002.23-3.84 15.62 15.62 0 00.74-5.16zm18.3-6.86a10 10 0 013.67.67 8.32 8.32 0 012.92 1.93 8.83 8.83 0 011.91 3.11 12 12 0 01.69 4.21 2.59 2.59 0 01-.2 1.23.82.82 0 01-.74.3h-14.75a12 12 0 00.56 3.66 7.44 7.44 0 001.45 2.59 5.76 5.76 0 002.19 1.56 7.52 7.52 0 002.84.51 8.24 8.24 0 002.53-.34 11.6 11.6 0 001.83-.73 14.53 14.53 0 001.28-.73 1.66 1.66 0 01.89-.34.84.84 0 01.74.37l1.1 1.42a7.68 7.68 0 01-1.73 1.52 10.56 10.56 0 01-2.16 1.06 13.8 13.8 0 01-2.37.63 14.42 14.42 0 01-2.43.21 11.23 11.23 0 01-4.24-.78 9.33 9.33 0 01-3.35-2.28 10.48 10.48 0 01-2.2-3.71 15.18 15.18 0 01-.79-5.08 13 13 0 01.71-4.33 10.29 10.29 0 012-3.49 9.36 9.36 0 013.26-2.32 10.77 10.77 0 014.39-.85zm.08 2.87a6 6 0 00-4.44 1.63 7.68 7.68 0 00-2 4.52H962a8.12 8.12 0 00-.37-2.48 5.65 5.65 0 00-1.1-2 4.88 4.88 0 00-1.76-1.27 5.94 5.94 0 00-2.34-.4zm10.71-2.51h3.19a1.2 1.2 0 01.77.24 1.42 1.42 0 01.44.57l5.62 14.27a10.51 10.51 0 01.49 1.57c.11.53.22 1 .32 1.56.12-.51.24-1 .38-1.56a11.88 11.88 0 01.5-1.57l5.69-14.27a1.33 1.33 0 01.43-.59 1.15 1.15 0 01.73-.22h3l-9 22.17h-3.52zm30.42-6.97a2.42 2.42 0 01-.23 1.07 2.91 2.91 0 01-.61.87 2.59 2.59 0 01-.89.6 2.56 2.56 0 01-1.07.22 2.52 2.52 0 01-1.06-.22 2.61 2.61 0 01-.87-.6 2.91 2.91 0 01-.61-.87 2.73 2.73 0 01-.22-1.07 2.86 2.86 0 01.22-1.08 2.9 2.9 0 011.48-1.5 2.68 2.68 0 011.06-.22 2.73 2.73 0 011.07.22 2.85 2.85 0 011.5 1.5 2.53 2.53 0 01.23 1.08zm-.87 7v22.17h-3.9v-22.17zm22 3.9a2.11 2.11 0 01-.35.37.91.91 0 01-.51.13 1.29 1.29 0 01-.71-.27 8.85 8.85 0 00-1-.61 7.91 7.91 0 00-1.44-.6 6.82 6.82 0 00-2.06-.27 6.69 6.69 0 00-2.87.58 5.48 5.48 0 00-2.09 1.67 7.59 7.59 0 00-1.27 2.65 14.23 14.23 0 000 7.06 8 8 0 001.29 2.63 5.7 5.7 0 002 1.62 6.27 6.27 0 002.68.56 6.46 6.46 0 003.87-1.1c.41-.28.75-.53 1-.75a1.2 1.2 0 01.79-.34.82.82 0 01.74.37l1.1 1.42a8.44 8.44 0 01-3.61 2.59 12.78 12.78 0 01-4.58.83 9.67 9.67 0 01-3.86-.77 8.84 8.84 0 01-3.1-2.22 10.47 10.47 0 01-2.07-3.58 15.74 15.74 0 01-.06-9.41 10.5 10.5 0 012-3.63 9.13 9.13 0 013.27-2.37 11 11 0 014.47-.86 10.57 10.57 0 014.11.76 9.93 9.93 0 013.18 2.13zm14.09-4.29a10 10 0 013.68.67 8.28 8.28 0 012.91 1.93 8.71 8.71 0 011.92 3.11 12 12 0 01.69 4.21 2.59 2.59 0 01-.2 1.23.82.82 0 01-.74.3h-14.76a12.33 12.33 0 00.57 3.66 7.29 7.29 0 001.45 2.59 5.76 5.76 0 002.19 1.56 7.52 7.52 0 002.84.51 8.24 8.24 0 002.53-.34 11.6 11.6 0 001.83-.73 14.53 14.53 0 001.28-.73 1.66 1.66 0 01.88-.34.86.86 0 01.75.37l1.09 1.42a7.47 7.47 0 01-1.73 1.52 10.48 10.48 0 01-2.15 1.06 13.67 13.67 0 01-2.38.63 14.24 14.24 0 01-2.43.21 11.21 11.21 0 01-4.23-.78 9.33 9.33 0 01-3.35-2.28 10.33 10.33 0 01-2.2-3.71 14.93 14.93 0 01-.79-5.08 13 13 0 01.71-4.33 10.29 10.29 0 012.05-3.49 9.36 9.36 0 013.26-2.32 10.72 10.72 0 014.33-.85zm.09 2.87a6 6 0 00-4.44 1.63 7.75 7.75 0 00-2 4.52h12.07a7.82 7.82 0 00-.38-2.48 5.63 5.63 0 00-1.09-2 4.88 4.88 0 00-1.76-1.27 6 6 0 00-2.4-.4zm48.95 19.66h-3.29a1.48 1.48 0 01-.92-.28 1.75 1.75 0 01-.52-.73l-2.94-7.57h-14.07l-2.93 7.57a1.7 1.7 0 01-.53.7 1.37 1.37 0 01-.92.31h-3.28l12.54-31.37h4.31zm-20.56-11.65H1073l-4.92-12.76a23.09 23.09 0 01-.94-2.95c-.16.6-.32 1.15-.47 1.65s-.31 1-.45 1.32z" fill="#0a2540" stroke="#0a2540" stroke-width=".5"/><rect x="926.82" y="687.19" width="139.73" height="139.73" rx="29.41" fill="#f5f9fb"/><path d="M1037.15 688.19a28.43 28.43 0 0128.4 28.4v80.93a28.43 28.43 0 01-28.4 28.4h-80.92a28.43 28.43 0 01-28.41-28.4v-80.93a28.43 28.43 0 0128.41-28.4h80.92m0-2h-80.92a30.41 30.41 0 00-30.41 30.4v80.93a30.41 30.41 0 0030.41 30.4h80.92a30.4 30.4 0 0030.4-30.4v-80.93a30.4 30.4 0 00-30.4-30.4z" fill="#7f96a5"/><path d="M987.25 739.41H984a1.48 1.48 0 01-.92-.28 1.75 1.75 0 01-.52-.73l-2.94-7.57h-14.1l-2.94 7.57a1.59 1.59 0 01-.52.7 1.38 1.38 0 01-.92.31h-3.28L970.4 708h4.31zm-20.55-11.65h11.71L973.49 715a24.63 24.63 0 01-1-3c-.16.6-.31 1.15-.47 1.65s-.3.95-.44 1.32zm23.9 19.16v-29.68h2.32a1 1 0 011.05.8l.33 2.63a11.88 11.88 0 013.25-2.78 8.34 8.34 0 014.22-1 8.15 8.15 0 013.46.73 7.23 7.23 0 012.64 2.17 10.33 10.33 0 011.69 3.56 18.38 18.38 0 01.59 4.88 15.18 15.18 0 01-.66 4.56 10.93 10.93 0 01-1.88 3.66 8.79 8.79 0 01-3 2.43 8.93 8.93 0 01-4 .89 8.29 8.29 0 01-3.51-.68 8 8 0 01-2.57-1.93v9.81zm9.88-26.93a6.3 6.3 0 00-3.34.88 9.54 9.54 0 00-2.64 2.47v10.73a6.22 6.22 0 002.35 2 6.69 6.69 0 002.86.6 5.58 5.58 0 004.75-2.22 10.3 10.3 0 001.66-6.3 16.07 16.07 0 00-.38-3.72 7.15 7.15 0 00-1.11-2.55 4.36 4.36 0 00-1.77-1.46 6 6 0 00-2.38-.42zm14.29 26.93v-29.68h2.32a1 1 0 011 .8l.33 2.63a11.88 11.88 0 013.25-2.78 8.3 8.3 0 014.21-1 8.15 8.15 0 013.46.73 7.18 7.18 0 012.65 2.17 10.32 10.32 0 011.68 3.56 18 18 0 01.6 4.88 15.18 15.18 0 01-.66 4.56 11.31 11.31 0 01-1.88 3.66 8.79 8.79 0 01-3 2.43 8.93 8.93 0 01-4 .89 8.29 8.29 0 01-3.51-.68 8 8 0 01-2.57-1.93v9.81zm9.87-26.93a6.33 6.33 0 00-3.34.88 9.65 9.65 0 00-2.63 2.47v10.73a6.15 6.15 0 002.35 2 6.61 6.61 0 002.85.6 5.57 5.57 0 004.75-2.22 10.3 10.3 0 001.67-6.3 16.07 16.07 0 00-.38-3.72 7.33 7.33 0 00-1.11-2.55 4.36 4.36 0 00-1.77-1.46 6 6 0 00-2.39-.42zm-13.22 79.72h-3.28a1.4 1.4 0 01-.92-.28 1.74 1.74 0 01-.53-.72l-2.93-7.58h-14.08l-2.93 7.58a1.71 1.71 0 01-.52.69 1.38 1.38 0 01-.92.31H982l12.55-31.37h4.31zm-20.55-11.64h11.71l-4.93-12.77a24.22 24.22 0 01-.94-2.95c-.16.6-.32 1.15-.47 1.65s-.3 1-.45 1.33z" fill="#0a2540"/><rect x="1173.93" y="176.52" width="251.85" height="155.03" rx="22.93" fill="#fff"/><path d="M1402.85 332.56h-206a24 24 0 01-23.92-23.93V199.45a24 24 0 0123.92-23.93h206a24 24 0 0123.93 23.93v109.18a24 24 0 01-23.93 23.93zm-206-155a22 22 0 00-21.92 21.93v109.14a22 22 0 0021.92 21.93h206a22 22 0 0021.93-21.93V199.45a22 22 0 00-21.93-21.93z" fill="#dae1ea"/><rect x="771.58" y="176.52" width="251.85" height="155.03" rx="22.93" fill="#fff"/><path d="M1000.51 332.56h-206a24 24 0 01-23.93-23.93V199.45a24 24 0 0123.93-23.93h206a24 24 0 0123.93 23.93v109.18a24 24 0 01-23.93 23.93zm-206-155a22 22 0 00-21.93 21.93v109.14a22 22 0 0021.93 21.93h206a22 22 0 0021.93-21.93V199.45a22 22 0 00-21.93-21.93z" fill="#dae1ea"/><rect x="1576.27" y="176.52" width="251.85" height="155.03" rx="22.93" fill="#fff"/><path d="M1805.2 332.56h-206a24 24 0 01-23.93-23.93V199.45a24 24 0 0123.93-23.93h206a24 24 0 0123.93 23.93v109.18a24 24 0 01-23.93 23.93zm-206-155a22 22 0 00-21.93 21.93v109.14a22 22 0 0021.93 21.93h206a22 22 0 0021.93-21.93V199.45a22 22 0 00-21.93-21.93z" fill="#dae1ea"/><path d="M897.44 173.56l11-13.21a1.41 1.41 0 00-1.09-2.3h-22a1.4 1.4 0 00-1.09 2.3l11 13.21a1.4 1.4 0 002 .15c.08-.04.13-.1.18-.15zm275.07 76.08l-13.21-11a1.41 1.41 0 00-2.3 1.1v22a1.41 1.41 0 002.3 1.09l13.21-11a1.39 1.39 0 00.15-2 .75.75 0 00-.15-.19zm133.99 85.43l-11 13.22a1.41 1.41 0 00.18 2 1.39 1.39 0 00.91.32h22a1.4 1.4 0 001.41-1.38 1.37 1.37 0 00-.32-.91l-11-13.22a1.4 1.4 0 00-2-.15z" fill="#7f96a5" fill-rule="evenodd"/><path d="M994.37 597.48l-11-13.21a1.39 1.39 0 01.18-2 1.43 1.43 0 01.91-.33h22a1.41 1.41 0 011.42 1.39 1.4 1.4 0 01-.33.91l-11 13.21a1.4 1.4 0 01-2 .16 1.14 1.14 0 01-.18-.13zm646.39 0l-11-13.21a1.39 1.39 0 01.18-2 1.43 1.43 0 01.91-.33h22a1.41 1.41 0 011.42 1.39 1.4 1.4 0 01-.33.91l-11 13.21a1.4 1.4 0 01-2 .16 1.14 1.14 0 01-.18-.13z" fill="#635bff" fill-rule="evenodd"/><path d="M864.82 232.23v3.57h-10.14v27.8h-4.25v-27.8h-10.17v-3.57z" fill="#0a2540" stroke="#0a2540" stroke-width=".5"/><path d="M862.71 241.42h3.07a1.26 1.26 0 01.79.24 1.19 1.19 0 01.41.57l4.25 14.27c.12.53.23 1 .33 1.52s.19 1 .26 1.48c.12-.49.25-1 .39-1.48s.3-1 .46-1.52l4.69-14.36a1.09 1.09 0 01.38-.54 1 1 0 01.69-.22h1.69a1.12 1.12 0 01.72.22 1.05 1.05 0 01.39.54l4.58 14.36c.16.51.3 1 .42 1.51s.25 1 .37 1.47c.07-.48.16-1 .28-1.51s.24-1 .37-1.47l4.34-14.27a1.13 1.13 0 01.41-.58 1.21 1.21 0 01.72-.23h2.94l-7.18 22.18h-3.09c-.38 0-.64-.25-.79-.75l-4.9-15a7.21 7.21 0 01-.28-1c-.08-.35-.15-.69-.22-1-.08.33-.15.68-.22 1a8.54 8.54 0 01-.29 1l-5 15a.91.91 0 01-.89.75h-2.94zm41.64-6.96a2.52 2.52 0 01-.23 1.06 3.19 3.19 0 01-.62.88 3 3 0 01-.88.6 2.63 2.63 0 01-1.07.22 2.56 2.56 0 01-1.07-.22 3.07 3.07 0 01-.87-.6 2.75 2.75 0 01-.6-.88 2.52 2.52 0 01-.22-1.06 2.64 2.64 0 01.22-1.08 2.84 2.84 0 011.47-1.5 2.56 2.56 0 011.07-.22 2.74 2.74 0 012 .82 3.14 3.14 0 01.62.9 2.65 2.65 0 01.18 1.08zm-.88 7v22.14h-3.89v-22.18zm6.87 22.14v-22.18h2.33a1 1 0 011.05.81l.3 2.41a12.32 12.32 0 013.23-2.58 8.38 8.38 0 014.13-1 8 8 0 013.2.6 6.24 6.24 0 012.32 1.71 7.7 7.7 0 011.42 2.66 11.63 11.63 0 01.48 3.44v14.13h-3.9v-14.12a6 6 0 00-1.15-3.91 4.28 4.28 0 00-3.51-1.39 6.61 6.61 0 00-3.24.82 10.8 10.8 0 00-2.77 2.26v16.34zm35.88-2.98H953v-21.39c0-.64 0-1.29.07-1.95l-5.6 4.8a1.53 1.53 0 01-.44.25 1.35 1.35 0 01-.42.08 1.18 1.18 0 01-.59-.15.94.94 0 01-.39-.34l-1.23-1.68 9.33-8.08h3.17v28.46h6.1v3h-16.78zm320.66-28.39v3.57h-10.13v27.8h-4.25v-27.8h-10.18v-3.57z" fill="#0a2540" stroke="#0a2540" stroke-width=".5"/><path d="M1264.78 241.42h3.07a1.21 1.21 0 01.78.24 1.15 1.15 0 01.42.57l4.25 14.27c.11.53.22 1 .33 1.52s.18 1 .26 1.48c.11-.49.25-1 .39-1.48s.3-1 .46-1.52l4.69-14.36a1.09 1.09 0 01.38-.54 1 1 0 01.69-.22h1.68a1.13 1.13 0 01.73.22 1.11 1.11 0 01.39.54l4.58 14.36c.16.51.3 1 .42 1.51s.25 1 .36 1.47c.08-.48.17-1 .29-1.51s.24-1 .37-1.47l4.33-14.27a1.21 1.21 0 01.42-.58 1.17 1.17 0 01.72-.23h2.93l-7.18 22.18h-3.08c-.38 0-.64-.25-.79-.75l-4.9-15a8.94 8.94 0 01-.29-1c-.07-.35-.14-.69-.22-1-.07.33-.14.68-.22 1a7 7 0 01-.28 1l-5 15a.91.91 0 01-.9.75H1272zm41.64-6.96a2.39 2.39 0 01-.24 1.06 2.93 2.93 0 01-1.49 1.48 2.64 2.64 0 01-1.08.22 2.52 2.52 0 01-1.06-.22 3 3 0 01-1.48-1.48 2.68 2.68 0 01-.22-1.06 2.82 2.82 0 01.22-1.08 2.92 2.92 0 01.61-.9 2.61 2.61 0 01.87-.6 2.52 2.52 0 011.06-.22 2.74 2.74 0 012 .82 2.92 2.92 0 01.61.9 2.51 2.51 0 01.2 1.08zm-.88 7v22.14h-3.9v-22.18zm6.87 22.14v-22.18h2.32a1 1 0 011 .81l.31 2.41a12.16 12.16 0 013.23-2.58 8.34 8.34 0 014.12-1 8 8 0 013.21.6 6.24 6.24 0 012.32 1.71 7.52 7.52 0 011.41 2.66 11.63 11.63 0 01.48 3.44v14.13H1327v-14.12a6 6 0 00-1.15-3.91 4.29 4.29 0 00-3.51-1.39 6.58 6.58 0 00-3.23.83 10.63 10.63 0 00-2.77 2.26v16.33zm42.75-31.72a11.51 11.51 0 013.72.59 8.49 8.49 0 013 1.72 7.94 7.94 0 012 2.74 9 9 0 01.72 3.68 9.66 9.66 0 01-.52 3.24 13.61 13.61 0 01-1.42 2.86 21.86 21.86 0 01-2.07 2.65q-1.17 1.27-2.49 2.61l-8.25 8.45a15.5 15.5 0 011.77-.38 10.51 10.51 0 011.73-.14h10.51a1.37 1.37 0 011 .37 1.34 1.34 0 01.37 1v2.37h-20.93v-1.34a2.38 2.38 0 01.17-.85 2.19 2.19 0 01.53-.81l10-10.09c.83-.85 1.59-1.66 2.28-2.44a18.27 18.27 0 001.76-2.36 11.26 11.26 0 001.13-2.39 8.52 8.52 0 00.39-2.6 6.26 6.26 0 00-.44-2.42 4.75 4.75 0 00-1.2-1.72 5 5 0 00-1.8-1 6.87 6.87 0 00-2.21-.34 6.45 6.45 0 00-2.19.35 6 6 0 00-1.78 1 5.79 5.79 0 00-1.31 1.48 5.85 5.85 0 00-.76 1.88 1.8 1.8 0 01-.52.92 1.43 1.43 0 01-.92.29h-.51l-2-.35a11.6 11.6 0 011.18-3.8 9 9 0 012.22-2.77 9.47 9.47 0 013.09-1.69 11.69 11.69 0 013.75-.71zm310.41.35v3.57h-10.13v27.8h-4.25v-27.8H1641v-3.57z" fill="#0a2540" stroke="#0a2540" stroke-width=".5"/><path d="M1663.47 241.42h3.06a1.22 1.22 0 01.79.24 1.15 1.15 0 01.42.57l4.26 14.27c.12.53.23 1 .33 1.52s.19 1 .27 1.48c.11-.49.24-1 .39-1.48s.3-1 .46-1.52l4.68-14.36a1.11 1.11 0 01.39-.54 1 1 0 01.69-.22h1.68a1.12 1.12 0 01.72.22 1.07 1.07 0 01.4.54l4.57 14.36c.16.51.31 1 .43 1.51s.24 1 .36 1.47c.07-.48.17-1 .29-1.51s.24-1 .37-1.47l4.33-14.27a1.15 1.15 0 01.42-.58 1.17 1.17 0 01.72-.23h2.93l-7.18 22.18h-3.08c-.38 0-.65-.25-.79-.75l-4.9-15a7.25 7.25 0 01-.29-1c-.07-.35-.14-.69-.22-1-.07.33-.14.68-.22 1a7 7 0 01-.28 1l-5 15a.91.91 0 01-.9.75h-2.93zm41.63-6.96a2.38 2.38 0 01-.23 1.06 3 3 0 01-.61.88 3 3 0 01-.89.6 2.56 2.56 0 01-1.07.22 2.52 2.52 0 01-1.06-.22 2.86 2.86 0 01-1.48-1.48 2.68 2.68 0 01-.22-1.06 2.82 2.82 0 01.22-1.08 3.08 3.08 0 01.6-.9 2.75 2.75 0 01.88-.6 2.52 2.52 0 011.06-.22 2.56 2.56 0 011.07.22 2.69 2.69 0 01.89.6 2.92 2.92 0 01.61.9 2.5 2.5 0 01.23 1.08zm-.87 7v22.14h-3.9v-22.18zm6.87 22.14v-22.18h2.32a1 1 0 011 .81l.31 2.41a12.16 12.16 0 013.23-2.58 8.34 8.34 0 014.12-1 8.06 8.06 0 013.21.6 6.24 6.24 0 012.32 1.71 7.52 7.52 0 011.41 2.66 11.63 11.63 0 01.48 3.44v14.13h-3.89v-14.12a6 6 0 00-1.15-3.91 4.3 4.3 0 00-3.52-1.39 6.54 6.54 0 00-3.22.83 10.63 10.63 0 00-2.77 2.26v16.33zm43.17-31.72a11.39 11.39 0 013.67.57 8.52 8.52 0 012.9 1.62 7.25 7.25 0 011.9 2.54 7.89 7.89 0 01.68 3.3 8.41 8.41 0 01-.39 2.66 6.44 6.44 0 01-1.09 2.06 6.71 6.71 0 01-1.72 1.5 9.08 9.08 0 01-2.26 1 8.5 8.5 0 014.61 2.72 7.33 7.33 0 011.55 4.77 9 9 0 01-.83 3.9 8.66 8.66 0 01-2.24 2.94 10 10 0 01-3.31 1.86 12.58 12.58 0 01-4.07.65 12.75 12.75 0 01-4.26-.63 8.62 8.62 0 01-3-1.72 9.18 9.18 0 01-2-2.59 19.38 19.38 0 01-1.33-3.25l1.66-.7a2.35 2.35 0 01.92-.2 1.55 1.55 0 01.78.19 1.17 1.17 0 01.51.58l.09.18.09.21c.2.43.45.9.74 1.44A6.28 6.28 0 001749 259a6.67 6.67 0 001.85 1.18 7 7 0 002.75.48 7.15 7.15 0 002.88-.54 6.39 6.39 0 002.06-1.39 5.8 5.8 0 001.23-1.9 5.6 5.6 0 00.42-2.08 7.39 7.39 0 00-.34-2.32 4 4 0 00-1.22-1.82 6.35 6.35 0 00-2.46-1.2 15.29 15.29 0 00-4-.44v-2.85a12.08 12.08 0 003.4-.41 6.74 6.74 0 002.31-1.14 4.2 4.2 0 001.3-1.73 5.9 5.9 0 00.41-2.23 6.15 6.15 0 00-.43-2.37 4.57 4.57 0 00-1.17-1.66 4.74 4.74 0 00-1.76-1 7.14 7.14 0 00-2.2-.33 6.45 6.45 0 00-2.19.35 5.65 5.65 0 00-3.09 2.46 7.06 7.06 0 00-.79 1.87 1.73 1.73 0 01-.52.92 1.44 1.44 0 01-.9.28h-.5l-2-.35a11.84 11.84 0 011.18-3.8 9.09 9.09 0 015.31-4.46 11.71 11.71 0 013.74-.64z" fill="#0a2540" stroke="#0a2540" stroke-width=".5"/><path d="M1742.14 471.39h-846.4a2 2 0 01-2-2V339.22a2 2 0 014 0v128.17h842.4V339.22a2 2 0 014 0v130.17a2 2 0 01-2 2z" fill="#635bff"/><path d="M1280.43 471.3a2 2 0 01-2-2V337.53a2 2 0 014 0V469.3a2 2 0 01-2 2zM995.68 592.77a2 2 0 01-2-2V471.55a2 2 0 014 0v119.22a2 2 0 01-2 2zm646.46 0a2 2 0 01-2-2V471.55a2 2 0 114 0v119.22a2 2 0 01-2 2z" fill="#635bff"/></g></svg>