<svg xmlns="http://www.w3.org/2000/svg" xmlns:xlink="http://www.w3.org/1999/xlink" width="704.54mm" height="401.78mm" viewBox="0 0 1997.11 1138.89"><defs><pattern id="afdfd690-4505-4b35-9da5-ab14db31651a" data-name="New Pattern" width="24.48" height="24.48" patternTransform="translate(-59.03 184.12) scale(1 0.98)" patternUnits="userSpaceOnUse" viewBox="0 0 24.48 24.48"><rect width="24.48" height="24.48" style="fill:none"/><circle cx="12.24" cy="12.24" r="2.24" style="fill:#7f96a5"/></pattern><filter id="adf6e49a-fb7c-4936-acd6-6344c0ecc5d7" x="-4%" y="-2.5%" width="107.6%" height="125.9%" name="shadow-box"><feMorphology result="shadowSpreadOuter1" radius="0.75" in="SourceAlpha"/><feOffset result="shadowOffsetOuter1" dy="1.5" in="shadowSpreadOuter1"/><feGaussianBlur result="shadowBlurOuter1" stdDeviation="0.5" in="shadowOffsetOuter1"/><feMorphology result="shadowSpreadOuter2" radius="0.5" in="SourceAlpha"/><feOffset result="shadowOffsetOuter2" dy="2.5" in="shadowSpreadOuter2"/><feGaussianBlur result="shadowBlurOuter2" stdDeviation="4.5" in="shadowOffsetOuter2"/><feMerge><feMergeNode in="shadowMatrixOuter1"/><feMergeNode in="shadowMatrixOuter2"/></feMerge></filter></defs><g id="aba6be85-7b41-4b99-9772-8d682468aeb8" data-name="Layer 2"><rect x="2.96" y="2.95" width="1991.19" height="1133" style="fill:#f5f9fb"/><rect x="2.96" y="2.95" width="1991.19" height="1133" style="opacity:0.15;fill:url(#afdfd690-4505-4b35-9da5-ab14db31651a)"/><rect x="2.96" width="1991.19" height="529.58" style="fill:#fff"/><g style="opacity:0.2;filter:url(#adf6e49a-fb7c-4936-acd6-6344c0ecc5d7)"><rect x="1515.27" y="601.07" width="251.85" height="335.69" rx="22.93"/></g><g style="opacity:0.2;filter:url(#adf6e49a-fb7c-4936-acd6-6344c0ecc5d7)"><rect x="1572.27" y="869.86" width="137.85" height="137.85" rx="68.93"/></g><g style="opacity:0.2;filter:url(#adf6e49a-fb7c-4936-acd6-6344c0ecc5d7)"><rect x="870.76" y="601.07" width="251.85" height="335.69" rx="22.93"/></g><g style="opacity:0.2;filter:url(#adf6e49a-fb7c-4936-acd6-6344c0ecc5d7)"><rect x="927.76" y="869.86" width="137.85" height="137.85" rx="68.93"/></g><g style="opacity:0.2;filter:url(#adf6e49a-fb7c-4936-acd6-6344c0ecc5d7)"><rect x="1173.93" y="176.52" width="251.85" height="155.03" rx="22.93"/></g><g style="opacity:0.2;filter:url(#adf6e49a-fb7c-4936-acd6-6344c0ecc5d7)"><rect x="771.58" y="176.52" width="251.85" height="155.03" rx="22.93"/></g><g style="opacity:0.2;filter:url(#adf6e49a-fb7c-4936-acd6-6344c0ecc5d7)"><rect x="1576.27" y="176.52" width="251.85" height="155.03" rx="22.93"/></g></g><g id="a441ca9c-4e39-41ab-a50b-5bfc27790499" data-name="Layer 1"><path d="M1712.14,181.91a2,2,0,0,1-2-2v-4.25a2,2,0,0,1,4,0v4.25A2,2,0,0,1,1712.14,181.91Zm-815.4-10.57a2,2,0,0,1-2-2v-12a2,2,0,1,1,4,0v12A2,2,0,0,1,896.74,171.34Zm815.4-17.68a2,2,0,0,1-2-2v-12a2,2,0,0,1,4,0v12A2,2,0,0,1,1712.14,153.66Zm-815.4-18.32a2,2,0,0,1-2-2v-12a2,2,0,0,1,4,0v12A2,2,0,0,1,896.74,135.34Zm815.4-17.68a2,2,0,0,1-2-2v-1.47h-6.54a2,2,0,0,1,0-4h8.54a2,2,0,0,1,2,2v3.47A2,2,0,0,1,1712.14,117.66Zm-32.54-3.47h-12a2,2,0,0,1,0-4h12a2,2,0,0,1,0,4Zm-36,0h-12a2,2,0,0,1,0-4h12a2,2,0,0,1,0,4Zm-36,0h-12a2,2,0,0,1,0-4h12a2,2,0,0,1,0,4Zm-36,0h-12a2,2,0,0,1,0-4h12a2,2,0,0,1,0,4Zm-36,0h-12a2,2,0,0,1,0-4h12a2,2,0,0,1,0,4Zm-36,0h-12a2,2,0,0,1,0-4h12a2,2,0,0,1,0,4Zm-36,0h-12a2,2,0,0,1,0-4h12a2,2,0,0,1,0,4Zm-36,0h-12a2,2,0,0,1,0-4h12a2,2,0,0,1,0,4Zm-36,0h-12a2,2,0,0,1,0-4h12a2,2,0,0,1,0,4Zm-36,0h-12a2,2,0,0,1,0-4h12a2,2,0,0,1,0,4Zm-36,0h-12a2,2,0,0,1,0-4h12a2,2,0,0,1,0,4Zm-36,0h-12a2,2,0,0,1,0-4h12a2,2,0,0,1,0,4Zm-36,0h-12a2,2,0,0,1,0-4h12a2,2,0,0,1,0,4Zm-36,0h-12a2,2,0,0,1,0-4h12a2,2,0,0,1,0,4Zm-36,0h-12a2,2,0,0,1,0-4h12a2,2,0,0,1,0,4Zm-36,0h-12a2,2,0,0,1,0-4h12a2,2,0,0,1,0,4Zm-36,0h-12a2,2,0,0,1,0-4h12a2,2,0,0,1,0,4Zm-36,0h-12a2,2,0,0,1,0-4h12a2,2,0,0,1,0,4Zm-36,0h-12a2,2,0,0,1,0-4h12a2,2,0,0,1,0,4Zm-36,0h-12a2,2,0,0,1,0-4h12a2,2,0,0,1,0,4Zm-36,0h-12a2,2,0,0,1,0-4h12a2,2,0,0,1,0,4Zm-36,0h-12a2,2,0,0,1,0-4h12a2,2,0,0,1,0,4Z" style="fill:#7f96a5"/><path d="M1145.9,252.72h-12a2,2,0,0,1,0-4h12a2,2,0,0,1,0,4Zm-36,0h-12a2,2,0,0,1,0-4h12a2,2,0,0,1,0,4Zm-36,0h-12a2,2,0,0,1,0-4h12a2,2,0,0,1,0,4Zm-36,0h-12a2,2,0,0,1,0-4h12a2,2,0,0,1,0,4Z" style="fill:#7f96a5"/><path d="M1694.32,401.39h-12a2,2,0,0,1,0-4h12a2,2,0,0,1,0,4Zm-36,0h-12a2,2,0,0,1,0-4h12a2,2,0,0,1,0,4Zm-36,0h-12a2,2,0,0,1,0-4h12a2,2,0,0,1,0,4Zm-36,0h-12a2,2,0,0,1,0-4h12a2,2,0,0,1,0,4Zm-36,0h-12a2,2,0,0,1,0-4h12a2,2,0,0,1,0,4Zm-36,0h-12a2,2,0,0,1,0-4h12a2,2,0,0,1,0,4Zm-36,0h-12a2,2,0,0,1,0-4h12a2,2,0,0,1,0,4Zm-36,0h-12a2,2,0,0,1,0-4h12a2,2,0,0,1,0,4Zm-36,0h-12a2,2,0,0,1,0-4h12a2,2,0,0,1,0,4Zm-36,0h-12a2,2,0,0,1,0-4h12a2,2,0,0,1,0,4Zm-36,0h-12a2,2,0,0,1,0-4h12a2,2,0,0,1,0,4Zm377.82-6.19a2,2,0,0,1-2-2v-12a2,2,0,0,1,4,0v12A2,2,0,0,1,1712.14,395.2Zm-404.68-3a2,2,0,0,1-2-2v-12a2,2,0,0,1,4,0v12A2,2,0,0,1,1307.46,392.24Zm404.68-33a2,2,0,0,1-2-2v-12a2,2,0,0,1,4,0v12A2,2,0,0,1,1712.14,359.2Zm-404.68-3a2,2,0,0,1-2-2v-12a2,2,0,0,1,4,0v12A2,2,0,0,1,1307.46,356.24Z" style="fill:#7f96a5"/><path d="M193.31,800.69H190a1.46,1.46,0,0,1-.92-.28,1.86,1.86,0,0,1-.53-.73l-2.93-7.57H171.58l-2.94,7.57a1.67,1.67,0,0,1-.52.7,1.38,1.38,0,0,1-.92.31h-3.29l12.55-31.37h4.31ZM172.76,789h11.71l-4.93-12.76a24.22,24.22,0,0,1-.94-2.95c-.16.6-.32,1.15-.47,1.65s-.3.95-.45,1.32Z" style="fill:#0a2540;stroke:#0a2540;stroke-width:0.5px"/><path d="M196.66,808.2V778.52H199a1,1,0,0,1,1.05.81l.33,2.62a11.88,11.88,0,0,1,3.25-2.78,8.3,8.3,0,0,1,4.21-1,8.12,8.12,0,0,1,3.46.73,7.18,7.18,0,0,1,2.65,2.17,10.51,10.51,0,0,1,1.69,3.56,18.38,18.38,0,0,1,.59,4.88,15.18,15.18,0,0,1-.66,4.56,11.31,11.31,0,0,1-1.88,3.66,8.79,8.79,0,0,1-3,2.43,8.93,8.93,0,0,1-4,.89,8.29,8.29,0,0,1-3.51-.68,7.87,7.87,0,0,1-2.57-1.93v9.81Zm9.87-26.93a6.33,6.33,0,0,0-3.34.88,9.65,9.65,0,0,0-2.63,2.47v10.73a6.22,6.22,0,0,0,2.35,2,6.62,6.62,0,0,0,2.86.6,5.59,5.59,0,0,0,4.75-2.22,10.36,10.36,0,0,0,1.66-6.3,16.07,16.07,0,0,0-.38-3.72,7.33,7.33,0,0,0-1.11-2.55,4.36,4.36,0,0,0-1.77-1.46A6,6,0,0,0,206.53,781.27Z" style="fill:#0a2540;stroke:#0a2540;stroke-width:0.5px"/><path d="M220.83,808.2V778.52h2.32a1,1,0,0,1,1,.81l.32,2.62a12,12,0,0,1,3.25-2.78,8.34,8.34,0,0,1,4.22-1,8.15,8.15,0,0,1,3.46.73A7.26,7.26,0,0,1,238.1,781a10.32,10.32,0,0,1,1.68,3.56,18,18,0,0,1,.59,4.88,15.51,15.51,0,0,1-.65,4.56,11.13,11.13,0,0,1-1.89,3.66,8.69,8.69,0,0,1-3,2.43,8.89,8.89,0,0,1-4,.89,8.34,8.34,0,0,1-3.52-.68,8,8,0,0,1-2.57-1.93v9.81Zm9.87-26.93a6.3,6.3,0,0,0-3.34.88,9.54,9.54,0,0,0-2.64,2.47v10.73a6.3,6.3,0,0,0,2.35,2,6.69,6.69,0,0,0,2.86.6,5.58,5.58,0,0,0,4.75-2.22,10.3,10.3,0,0,0,1.66-6.3,15.54,15.54,0,0,0-.38-3.72,7.14,7.14,0,0,0-1.1-2.55,4.38,4.38,0,0,0-1.78-1.46A6,6,0,0,0,230.7,781.27Z" style="fill:#0a2540;stroke:#0a2540;stroke-width:0.5px"/><path d="M257.69,782.17a.87.87,0,0,1-.81.48,1.55,1.55,0,0,1-.75-.24c-.28-.16-.61-.34-1-.53a9.13,9.13,0,0,0-1.43-.55,6.74,6.74,0,0,0-2-.25,5.69,5.69,0,0,0-1.77.25,4.29,4.29,0,0,0-1.35.69,3.05,3.05,0,0,0-.85,1,2.65,2.65,0,0,0-.3,1.25,2.11,2.11,0,0,0,.5,1.43,4.19,4.19,0,0,0,1.3,1,11.74,11.74,0,0,0,1.84.74c.68.21,1.39.43,2.11.67s1.42.51,2.11.8a7.8,7.8,0,0,1,1.84,1.1,5,5,0,0,1,1.3,1.61,4.86,4.86,0,0,1,.49,2.28,7.33,7.33,0,0,1-.54,2.84,6.24,6.24,0,0,1-1.62,2.25,7.67,7.67,0,0,1-2.63,1.5,10.66,10.66,0,0,1-3.59.55,11,11,0,0,1-4.2-.76,10.54,10.54,0,0,1-3.2-1.93l.92-1.49a1.37,1.37,0,0,1,.42-.44,1.18,1.18,0,0,1,.63-.15,1.48,1.48,0,0,1,.83.3c.3.21.65.43,1.07.68a7.64,7.64,0,0,0,1.51.68,6.71,6.71,0,0,0,2.22.31,6,6,0,0,0,2-.3,4,4,0,0,0,1.42-.8A3.2,3.2,0,0,0,255,796a3.6,3.6,0,0,0,.27-1.4,2.37,2.37,0,0,0-.49-1.52,4.31,4.31,0,0,0-1.31-1,10.64,10.64,0,0,0-1.85-.74l-2.12-.67a22.51,22.51,0,0,1-2.12-.8,7.16,7.16,0,0,1-1.85-1.13,5,5,0,0,1-1.3-1.67,5.38,5.38,0,0,1-.5-2.42,5.89,5.89,0,0,1,.53-2.44,6,6,0,0,1,1.53-2.06,7.61,7.61,0,0,1,2.47-1.41,9.94,9.94,0,0,1,3.35-.52,10.8,10.8,0,0,1,3.93.68,9.3,9.3,0,0,1,3,1.9Z" style="fill:#0a2540;stroke:#0a2540;stroke-width:0.5px"/><path d="M272.44,800.69V778.52h2.23a1.25,1.25,0,0,1,.88.24,1.46,1.46,0,0,1,.33.83l.26,3.46a10.13,10.13,0,0,1,2.81-3.63,6.28,6.28,0,0,1,3.93-1.3,6.08,6.08,0,0,1,1.66.21,5.66,5.66,0,0,1,1.38.58l-.5,2.91a.66.66,0,0,1-.68.55,3.38,3.38,0,0,1-.94-.21A5.84,5.84,0,0,0,282,782a5.07,5.07,0,0,0-3.41,1.18,8.91,8.91,0,0,0-2.28,3.44v14.12Z" style="fill:#0a2540;stroke:#0a2540;stroke-width:0.5px"/><path d="M293.45,778.52v14.14a5.9,5.9,0,0,0,1.16,3.89,4.33,4.33,0,0,0,3.51,1.38,6.68,6.68,0,0,0,3.21-.81,9.91,9.91,0,0,0,2.78-2.25V778.52H308v22.17h-2.32a1,1,0,0,1-1.05-.81l-.31-2.39a12,12,0,0,1-3.24,2.58,8.57,8.57,0,0,1-4.11,1,8.06,8.06,0,0,1-3.21-.6,6.34,6.34,0,0,1-2.33-1.7,7.09,7.09,0,0,1-1.41-2.65,11.57,11.57,0,0,1-.47-3.43V778.52Z" style="fill:#0a2540;stroke:#0a2540;stroke-width:0.5px"/><path d="M314.42,800.69V778.52h2.32a1,1,0,0,1,1.05.81l.31,2.4a12.57,12.57,0,0,1,3.23-2.58,8.35,8.35,0,0,1,4.13-1,8,8,0,0,1,3.2.6,6.22,6.22,0,0,1,2.32,1.7,7.61,7.61,0,0,1,1.41,2.66,11.67,11.67,0,0,1,.49,3.44v14.12H329V786.57a6,6,0,0,0-1.15-3.91,4.32,4.32,0,0,0-3.51-1.39,6.49,6.49,0,0,0-3.23.84,10.55,10.55,0,0,0-2.77,2.25v16.33Z" style="fill:#0a2540;stroke:#0a2540;stroke-width:0.5px"/><path d="M338.76,800.69V778.52h2.32a1,1,0,0,1,1.06.81l.3,2.4a12.57,12.57,0,0,1,3.23-2.58,8.35,8.35,0,0,1,4.13-1,8,8,0,0,1,3.2.6,6.22,6.22,0,0,1,2.32,1.7,7.79,7.79,0,0,1,1.42,2.66,11.67,11.67,0,0,1,.48,3.44v14.12h-3.9V786.57a6,6,0,0,0-1.15-3.91,4.31,4.31,0,0,0-3.51-1.39,6.51,6.51,0,0,0-3.23.84,10.55,10.55,0,0,0-2.77,2.25v16.33Z" style="fill:#0a2540;stroke:#0a2540;stroke-width:0.5px"/><path d="M368.31,771.55a2.42,2.42,0,0,1-.23,1.07,2.91,2.91,0,0,1-.61.87,2.74,2.74,0,0,1-2,.82,2.52,2.52,0,0,1-1.06-.22,2.61,2.61,0,0,1-.87-.6,2.91,2.91,0,0,1-.61-.87,2.73,2.73,0,0,1-.22-1.07,2.86,2.86,0,0,1,.22-1.08,2.9,2.9,0,0,1,1.48-1.5,2.68,2.68,0,0,1,1.06-.22,2.82,2.82,0,0,1,1.08.22,3,3,0,0,1,.88.6,2.92,2.92,0,0,1,.61.9A2.53,2.53,0,0,1,368.31,771.55Zm-.87,7v22.17h-3.9V778.52Z" style="fill:#0a2540;stroke:#0a2540;stroke-width:0.5px"/><path d="M374.31,800.69V778.52h2.32a1,1,0,0,1,1.05.81l.31,2.4a12.57,12.57,0,0,1,3.23-2.58,8.34,8.34,0,0,1,4.12-1,8,8,0,0,1,3.21.6,6.22,6.22,0,0,1,2.32,1.7,7.61,7.61,0,0,1,1.41,2.66,11.67,11.67,0,0,1,.48,3.44v14.12h-3.89V786.57a6,6,0,0,0-1.15-3.91,4.32,4.32,0,0,0-3.51-1.39,6.49,6.49,0,0,0-3.23.84,10.39,10.39,0,0,0-2.77,2.25v16.33Z" style="fill:#0a2540;stroke:#0a2540;stroke-width:0.5px"/><path d="M406.12,778.14a11.1,11.1,0,0,1,2.7.32,8.47,8.47,0,0,1,2.29.93h6v1.45c0,.48-.31.78-.92.91l-2.52.36a6.65,6.65,0,0,1,.75,3.17,6.74,6.74,0,0,1-.63,2.94,6.54,6.54,0,0,1-1.73,2.27,7.56,7.56,0,0,1-2.62,1.44,10.49,10.49,0,0,1-3.34.51,11.61,11.61,0,0,1-2.94-.37,3.73,3.73,0,0,0-1.06,1,1.76,1.76,0,0,0-.36,1,1.37,1.37,0,0,0,.64,1.23,4.35,4.35,0,0,0,1.68.6,14.28,14.28,0,0,0,2.39.18h2.72a15.4,15.4,0,0,1,2.73.24,8.44,8.44,0,0,1,2.38.8,4.45,4.45,0,0,1,1.69,1.53,4.58,4.58,0,0,1,.63,2.53,5.84,5.84,0,0,1-.71,2.79,7.44,7.44,0,0,1-2,2.4,10.3,10.3,0,0,1-3.27,1.69,13.92,13.92,0,0,1-4.35.63,16.89,16.89,0,0,1-4.26-.48,9.88,9.88,0,0,1-3-1.3,5.73,5.73,0,0,1-1.81-1.87,4.46,4.46,0,0,1-.6-2.22,4,4,0,0,1,1-2.8,7.28,7.28,0,0,1,2.86-1.83A3.85,3.85,0,0,1,399,797a3.14,3.14,0,0,1-.56-2,3.07,3.07,0,0,1,.18-1,3.64,3.64,0,0,1,.53-1,5.31,5.31,0,0,1,.89-1,5.63,5.63,0,0,1,1.22-.81,7,7,0,0,1-2.57-2.44,6.7,6.7,0,0,1-.93-3.56,6.81,6.81,0,0,1,.63-2.95,6.38,6.38,0,0,1,1.74-2.25,7.81,7.81,0,0,1,2.66-1.43A10.65,10.65,0,0,1,406.12,778.14ZM413,801.81a2,2,0,0,0-.45-1.36,3.09,3.09,0,0,0-1.25-.79,8.74,8.74,0,0,0-1.82-.41,16.72,16.72,0,0,0-2.17-.14H405a8.73,8.73,0,0,1-2.25-.29,6.54,6.54,0,0,0-2,1.44,3,3,0,0,0-.77,2,2.68,2.68,0,0,0,.38,1.4,3.22,3.22,0,0,0,1.17,1.11,6.71,6.71,0,0,0,2,.75,12.87,12.87,0,0,0,2.81.27,12.13,12.13,0,0,0,2.83-.29,7.15,7.15,0,0,0,2.11-.82,4,4,0,0,0,1.33-1.28A3.05,3.05,0,0,0,413,801.81Zm-6.91-12a6.12,6.12,0,0,0,2.09-.32,4.36,4.36,0,0,0,1.52-.92,3.87,3.87,0,0,0,.92-1.42,5.15,5.15,0,0,0,.31-1.8,4.32,4.32,0,0,0-1.24-3.24,5,5,0,0,0-3.6-1.2,4.93,4.93,0,0,0-3.58,1.2,4.29,4.29,0,0,0-1.24,3.24,4.93,4.93,0,0,0,.32,1.8,3.9,3.9,0,0,0,.93,1.42,4.31,4.31,0,0,0,1.51.92A5.94,5.94,0,0,0,406.12,789.85Z" style="fill:#0a2540;stroke:#0a2540;stroke-width:0.5px"/><path d="M171.22,821v32.24h-3.89V821Z" style="fill:#0a2540;stroke:#0a2540;stroke-width:0.5px"/><path d="M187.07,830.7a11.41,11.41,0,0,1,4.39.81,9.25,9.25,0,0,1,3.33,2.3,10.18,10.18,0,0,1,2.1,3.6,15.62,15.62,0,0,1,0,9.44,10.22,10.22,0,0,1-2.1,3.59,9,9,0,0,1-3.33,2.29,12.45,12.45,0,0,1-8.78,0,9.06,9.06,0,0,1-3.33-2.29,10.28,10.28,0,0,1-2.13-3.59,15.42,15.42,0,0,1,0-9.44,10.24,10.24,0,0,1,2.13-3.6,9.33,9.33,0,0,1,3.33-2.3A11.41,11.41,0,0,1,187.07,830.7Zm0,19.79a5.72,5.72,0,0,0,4.91-2.2,10.21,10.21,0,0,0,1.62-6.14A10.32,10.32,0,0,0,192,836a5.7,5.7,0,0,0-4.91-2.21,6.8,6.8,0,0,0-2.89.57,5.44,5.44,0,0,0-2,1.64,7.33,7.33,0,0,0-1.23,2.64,14.19,14.19,0,0,0-.4,3.54,14,14,0,0,0,.4,3.52,7.15,7.15,0,0,0,1.23,2.62,5.41,5.41,0,0,0,2,1.63A6.8,6.8,0,0,0,187.07,850.49Z" style="fill:#0a2540;stroke:#0a2540;stroke-width:0.5px"/><path d="M217.56,835a1.57,1.57,0,0,1-.35.37.79.79,0,0,1-.5.13,1.24,1.24,0,0,1-.71-.27c-.26-.18-.58-.38-1-.6a8.22,8.22,0,0,0-1.44-.6,6.52,6.52,0,0,0-2.07-.28,6.79,6.79,0,0,0-2.86.58,5.63,5.63,0,0,0-2.1,1.68,7.5,7.5,0,0,0-1.26,2.65,12.85,12.85,0,0,0-.43,3.48,12.64,12.64,0,0,0,.46,3.58,7.56,7.56,0,0,0,1.29,2.62,5.46,5.46,0,0,0,2,1.62,6.31,6.31,0,0,0,2.69.56,6.77,6.77,0,0,0,2.34-.34,7.79,7.79,0,0,0,1.53-.75,12,12,0,0,0,1-.76,1.18,1.18,0,0,1,.79-.34.82.82,0,0,1,.74.37l1.09,1.43a8.4,8.4,0,0,1-3.61,2.59,12.72,12.72,0,0,1-4.57.82,9.72,9.72,0,0,1-3.87-.77,8.72,8.72,0,0,1-3.09-2.22,10.38,10.38,0,0,1-2.07-3.58,14.15,14.15,0,0,1-.76-4.83,14.61,14.61,0,0,1,.69-4.58,10.23,10.23,0,0,1,2-3.62,9,9,0,0,1,3.27-2.38,11,11,0,0,1,4.46-.85,10.44,10.44,0,0,1,4.12.76,9.73,9.73,0,0,1,3.17,2.13Z" style="fill:#0a2540;stroke:#0a2540;stroke-width:0.5px"/><path d="M239.17,853.22h-1.73a2,2,0,0,1-.92-.17,1,1,0,0,1-.46-.75l-.44-2c-.58.52-1.15,1-1.7,1.41a10.49,10.49,0,0,1-1.76,1.05,8.92,8.92,0,0,1-1.95.64,11.05,11.05,0,0,1-2.31.22,7.87,7.87,0,0,1-2.42-.36,5.37,5.37,0,0,1-2-1.09,5.09,5.09,0,0,1-1.33-1.83,6.55,6.55,0,0,1-.49-2.62,4.92,4.92,0,0,1,.72-2.54,6.48,6.48,0,0,1,2.33-2.17,15.17,15.17,0,0,1,4.22-1.54,28.23,28.23,0,0,1,6.37-.61v-1.74a6,6,0,0,0-1.11-3.93,4,4,0,0,0-3.27-1.33,7,7,0,0,0-2.4.36,8.77,8.77,0,0,0-1.68.81c-.48.3-.88.57-1.23.81a1.76,1.76,0,0,1-1,.36,1.17,1.17,0,0,1-.69-.21,1.76,1.76,0,0,1-.47-.51l-.7-1.25a12.84,12.84,0,0,1,4-2.65,12.26,12.26,0,0,1,4.7-.87,8.42,8.42,0,0,1,3.31.61,6.86,6.86,0,0,1,2.43,1.71,7.37,7.37,0,0,1,1.49,2.65,11.15,11.15,0,0,1,.5,3.41Zm-10.11-2.38a7.53,7.53,0,0,0,3.49-.8,9.29,9.29,0,0,0,1.44-.93,13,13,0,0,0,1.35-1.25v-4.57a26,26,0,0,0-4.58.34,12.36,12.36,0,0,0-3.06.89,4.3,4.3,0,0,0-1.72,1.3,2.8,2.8,0,0,0-.54,1.67,3.71,3.71,0,0,0,.29,1.52,2.84,2.84,0,0,0,.77,1,3,3,0,0,0,1.13.59A5,5,0,0,0,229.06,850.84Z" style="fill:#0a2540;stroke:#0a2540;stroke-width:0.5px"/><path d="M249.41,821v32.24h-3.89V821Z" style="fill:#0a2540;stroke:#0a2540;stroke-width:0.5px"/><path d="M260.62,821v32.24h-3.9V821Z" style="fill:#0a2540;stroke:#0a2540;stroke-width:0.5px"/><path d="M274,859.77a2,2,0,0,1-.49.7,1.37,1.37,0,0,1-.91.26H269.7l4.05-8.8-9.15-20.88H268a1.14,1.14,0,0,1,.79.25,1.68,1.68,0,0,1,.42.56l5.93,14c.13.32.24.64.34,1s.18.65.25,1c.1-.33.21-.66.31-1s.22-.65.35-1l5.76-13.94a1.19,1.19,0,0,1,.44-.58,1.21,1.21,0,0,1,.69-.23h3.11Z" style="fill:#0a2540;stroke:#0a2540;stroke-width:0.5px"/><path d="M307.33,830.7a11.41,11.41,0,0,1,4.39.81,9.33,9.33,0,0,1,3.33,2.3,10.18,10.18,0,0,1,2.1,3.6,15.62,15.62,0,0,1,0,9.44,10.22,10.22,0,0,1-2.1,3.59,9.06,9.06,0,0,1-3.33,2.29,12.45,12.45,0,0,1-8.78,0,9.19,9.19,0,0,1-3.34-2.29,10.42,10.42,0,0,1-2.12-3.59,15.42,15.42,0,0,1,0-9.44,10.37,10.37,0,0,1,2.12-3.6,9.46,9.46,0,0,1,3.34-2.3A11.41,11.41,0,0,1,307.33,830.7Zm0,19.79a5.7,5.7,0,0,0,4.9-2.2,10.21,10.21,0,0,0,1.62-6.14,10.32,10.32,0,0,0-1.62-6.18,5.68,5.68,0,0,0-4.9-2.21,6.8,6.8,0,0,0-2.89.57,5.36,5.36,0,0,0-2,1.64,7.33,7.33,0,0,0-1.23,2.64,14.17,14.17,0,0,0-.41,3.54,14,14,0,0,0,.41,3.52,7.15,7.15,0,0,0,1.23,2.62,5.34,5.34,0,0,0,2,1.63A6.8,6.8,0,0,0,307.33,850.49Z" style="fill:#0a2540;stroke:#0a2540;stroke-width:0.5px"/><path d="M322.7,853.22V831.05H325a1,1,0,0,1,1.05.81l.31,2.41a12.36,12.36,0,0,1,3.22-2.59,8.49,8.49,0,0,1,4.13-1,8.06,8.06,0,0,1,3.21.6,6.21,6.21,0,0,1,2.32,1.71,7.52,7.52,0,0,1,1.41,2.66,11.61,11.61,0,0,1,.48,3.43v14.12h-3.9V839.1a6,6,0,0,0-1.15-3.9,4.27,4.27,0,0,0-3.51-1.39,6.5,6.5,0,0,0-3.23.83,10.75,10.75,0,0,0-2.77,2.25v16.33Z" style="fill:#0a2540;stroke:#0a2540;stroke-width:0.5px"/><path d="M371.1,853.22a1,1,0,0,1-1.06-.81l-.35-2.69a11.53,11.53,0,0,1-3.25,2.77,8.32,8.32,0,0,1-4.19,1,8,8,0,0,1-3.46-.73,7.24,7.24,0,0,1-2.65-2.16,10.18,10.18,0,0,1-1.68-3.55,18,18,0,0,1-.59-4.88,15.56,15.56,0,0,1,.65-4.56,11.11,11.11,0,0,1,1.9-3.67,8.66,8.66,0,0,1,7-3.32,8.21,8.21,0,0,1,3.48.68,8.43,8.43,0,0,1,2.58,1.94V821h3.9v32.24Zm-7.56-2.84a6.21,6.21,0,0,0,3.34-.88,9.54,9.54,0,0,0,2.64-2.47V836.3a6.26,6.26,0,0,0-2.35-2,6.77,6.77,0,0,0-2.84-.58,5.62,5.62,0,0,0-4.77,2.21,10.3,10.3,0,0,0-1.66,6.3,15.91,15.91,0,0,0,.37,3.71,7.16,7.16,0,0,0,1.09,2.54,4.3,4.3,0,0,0,1.78,1.46A6,6,0,0,0,363.54,850.38Z" style="fill:#0a2540;stroke:#0a2540;stroke-width:0.5px"/><path d="M388.74,830.7a9.78,9.78,0,0,1,3.67.67,8.16,8.16,0,0,1,2.92,1.92,8.92,8.92,0,0,1,1.91,3.11,12,12,0,0,1,.69,4.22,2.4,2.4,0,0,1-.2,1.22.8.8,0,0,1-.74.31H382.24a12.21,12.21,0,0,0,.57,3.65,7.57,7.57,0,0,0,1.44,2.6,5.73,5.73,0,0,0,2.19,1.55,7.56,7.56,0,0,0,2.84.52,8.56,8.56,0,0,0,2.53-.34,11.56,11.56,0,0,0,1.83-.74,12.37,12.37,0,0,0,1.28-.73,1.66,1.66,0,0,1,.89-.34.84.84,0,0,1,.74.37l1.1,1.43a7.68,7.68,0,0,1-1.73,1.52,10.83,10.83,0,0,1-2.16,1.06,13.77,13.77,0,0,1-2.37.62,14.42,14.42,0,0,1-2.43.21,11.23,11.23,0,0,1-4.24-.78,9.18,9.18,0,0,1-3.35-2.27,10.57,10.57,0,0,1-2.2-3.71,15.26,15.26,0,0,1-.79-5.08,13.08,13.08,0,0,1,.71-4.34,10.38,10.38,0,0,1,2.05-3.49,9.49,9.49,0,0,1,3.26-2.32A10.77,10.77,0,0,1,388.74,830.7Zm.08,2.87a6,6,0,0,0-4.44,1.63,7.65,7.65,0,0,0-2,4.52h12.06a8.18,8.18,0,0,0-.37-2.49,5.51,5.51,0,0,0-1.1-1.94A4.88,4.88,0,0,0,391.2,834,5.94,5.94,0,0,0,388.82,833.57Z" style="fill:#0a2540;stroke:#0a2540;stroke-width:0.5px"/><path d="M399.53,831.05h3.19a1.2,1.2,0,0,1,.77.24,1.42,1.42,0,0,1,.44.57l5.62,14.27a10.63,10.63,0,0,1,.49,1.58c.11.52.22,1,.32,1.55.12-.51.24-1,.38-1.55a13.73,13.73,0,0,1,.5-1.58l5.69-14.27a1.3,1.3,0,0,1,.43-.58,1.16,1.16,0,0,1,.73-.23h3l-9,22.17h-3.52Z" style="fill:#0a2540;stroke:#0a2540;stroke-width:0.5px"/><path d="M430,824.09a2.52,2.52,0,0,1-.23,1.06,3.19,3.19,0,0,1-.62.88,3,3,0,0,1-.88.6,2.82,2.82,0,0,1-1.08.22,2.68,2.68,0,0,1-1.06-.22,3,3,0,0,1-1.48-1.48,2.67,2.67,0,0,1-.21-1.06,2.9,2.9,0,0,1,.21-1.09,2.77,2.77,0,0,1,.61-.89,2.61,2.61,0,0,1,.87-.6,2.52,2.52,0,0,1,1.06-.22,2.74,2.74,0,0,1,2,.82,3,3,0,0,1,.62.89A2.73,2.73,0,0,1,430,824.09Zm-.88,7v22.17h-3.9V831.05Z" style="fill:#0a2540;stroke:#0a2540;stroke-width:0.5px"/><path d="M451.08,835a2.11,2.11,0,0,1-.35.37.84.84,0,0,1-.51.13,1.29,1.29,0,0,1-.71-.27,10.86,10.86,0,0,0-1-.6,7.91,7.91,0,0,0-1.44-.6,6.49,6.49,0,0,0-2.06-.28,6.84,6.84,0,0,0-2.87.58,5.6,5.6,0,0,0-2.09,1.68,7.51,7.51,0,0,0-1.27,2.65,12.85,12.85,0,0,0-.43,3.48,13,13,0,0,0,.46,3.58,7.92,7.92,0,0,0,1.29,2.62,5.49,5.49,0,0,0,2,1.62,6.27,6.27,0,0,0,2.68.56,6.73,6.73,0,0,0,2.34-.34,7.52,7.52,0,0,0,1.53-.75,10.53,10.53,0,0,0,1-.76,1.2,1.2,0,0,1,.79-.34.82.82,0,0,1,.74.37l1.1,1.43a8.52,8.52,0,0,1-3.61,2.59,12.77,12.77,0,0,1-4.58.82,9.67,9.67,0,0,1-3.86-.77,8.84,8.84,0,0,1-3.1-2.22,10.38,10.38,0,0,1-2.07-3.58,14.41,14.41,0,0,1-.75-4.83,14.61,14.61,0,0,1,.69-4.58,10.37,10.37,0,0,1,2-3.62,9,9,0,0,1,3.27-2.38,11,11,0,0,1,4.47-.85,10.39,10.39,0,0,1,4.11.76,9.77,9.77,0,0,1,3.18,2.13Z" style="fill:#0a2540;stroke:#0a2540;stroke-width:0.5px"/><path d="M465.17,830.7a9.79,9.79,0,0,1,3.68.67,8,8,0,0,1,2.91,1.92,8.8,8.8,0,0,1,1.92,3.11,12,12,0,0,1,.69,4.22,2.52,2.52,0,0,1-.2,1.22.8.8,0,0,1-.74.31H458.67a12.21,12.21,0,0,0,.57,3.65,7.42,7.42,0,0,0,1.45,2.6,5.73,5.73,0,0,0,2.19,1.55,7.52,7.52,0,0,0,2.84.52,8.56,8.56,0,0,0,2.53-.34,11.56,11.56,0,0,0,1.83-.74,12.37,12.37,0,0,0,1.28-.73,1.66,1.66,0,0,1,.89-.34.85.85,0,0,1,.74.37l1.09,1.43a7.27,7.27,0,0,1-1.73,1.52,11,11,0,0,1-2.15,1.06,13.64,13.64,0,0,1-2.38.62,14.24,14.24,0,0,1-2.43.21,11.21,11.21,0,0,1-4.23-.78,9.18,9.18,0,0,1-3.35-2.27,10.42,10.42,0,0,1-2.2-3.71,15,15,0,0,1-.79-5.08,13.08,13.08,0,0,1,.71-4.34,10.38,10.38,0,0,1,2.05-3.49,9.49,9.49,0,0,1,3.26-2.32A10.72,10.72,0,0,1,465.17,830.7Zm.09,2.87a6,6,0,0,0-4.44,1.63,7.72,7.72,0,0,0-2,4.52h12.07a7.88,7.88,0,0,0-.38-2.49,5.34,5.34,0,0,0-1.09-1.94,4.88,4.88,0,0,0-1.76-1.27A6,6,0,0,0,465.26,833.57Z" style="fill:#0a2540;stroke:#0a2540;stroke-width:0.5px"/><path d="M492,834.71a.85.85,0,0,1-.81.48,1.52,1.52,0,0,1-.74-.24q-.42-.24-1-.54a9.54,9.54,0,0,0-1.43-.55,7.2,7.2,0,0,0-2-.25,6.12,6.12,0,0,0-1.78.25,4.34,4.34,0,0,0-1.34.69,3,3,0,0,0-.86,1,2.84,2.84,0,0,0-.29,1.26,2.08,2.08,0,0,0,.49,1.42,4.33,4.33,0,0,0,1.3,1,12.16,12.16,0,0,0,1.84.73c.69.21,1.39.44,2.11.68s1.43.51,2.12.8a7.58,7.58,0,0,1,1.83,1.09,5.13,5.13,0,0,1,1.31,1.61,4.93,4.93,0,0,1,.49,2.29,7.14,7.14,0,0,1-.55,2.83,6.12,6.12,0,0,1-1.62,2.26,8,8,0,0,1-2.62,1.5,11,11,0,0,1-3.59.54,11.31,11.31,0,0,1-4.21-.75,10.51,10.51,0,0,1-3.19-1.94l.92-1.49a1.21,1.21,0,0,1,.41-.43,1.13,1.13,0,0,1,.64-.16,1.43,1.43,0,0,1,.83.31c.29.2.65.43,1.06.68a8.59,8.59,0,0,0,1.51.68,7,7,0,0,0,2.22.3,6.34,6.34,0,0,0,2-.29,4.42,4.42,0,0,0,1.42-.8,3.14,3.14,0,0,0,.84-1.16,3.67,3.67,0,0,0,.27-1.4,2.34,2.34,0,0,0-.49-1.53,4.1,4.1,0,0,0-1.3-1,10.19,10.19,0,0,0-1.85-.75c-.69-.21-1.4-.43-2.12-.67a22.63,22.63,0,0,1-2.13-.79,7.63,7.63,0,0,1-1.85-1.13,5.06,5.06,0,0,1-1.3-1.68,5.38,5.38,0,0,1-.49-2.42,5.91,5.91,0,0,1,.52-2.44,6,6,0,0,1,1.54-2.05,7.7,7.7,0,0,1,2.47-1.42,10.16,10.16,0,0,1,3.35-.52,10.59,10.59,0,0,1,3.93.69,9.38,9.38,0,0,1,3,1.89Z" style="fill:#0a2540;stroke:#0a2540;stroke-width:0.5px"/><path d="M172.17,245.43v11.73h-4.23V225.8h9.26a17.38,17.38,0,0,1,5.18.69,9.89,9.89,0,0,1,3.64,1.95,7.91,7.91,0,0,1,2.16,3.07,10.87,10.87,0,0,1,.71,4,10.24,10.24,0,0,1-.77,4,8.71,8.71,0,0,1-2.24,3.13,10.43,10.43,0,0,1-3.67,2,15.73,15.73,0,0,1-5,.73Zm0-3.37h5a9.85,9.85,0,0,0,3.21-.48,6.59,6.59,0,0,0,2.33-1.35,5.44,5.44,0,0,0,1.42-2.07,7.06,7.06,0,0,0,.48-2.65,6,6,0,0,0-1.85-4.68c-1.23-1.12-3.09-1.69-5.59-1.69h-5Z" style="fill:#0a2540;stroke:#0a2540;stroke-width:0.5px"/><path d="M193.64,257.16V235h2.23a1.25,1.25,0,0,1,.88.24,1.5,1.5,0,0,1,.33.83l.26,3.46a10.2,10.2,0,0,1,2.81-3.62,6.23,6.23,0,0,1,3.93-1.31,6.08,6.08,0,0,1,1.66.21,5.66,5.66,0,0,1,1.38.58l-.5,2.91a.66.66,0,0,1-.68.55,3.38,3.38,0,0,1-.94-.21,6.24,6.24,0,0,0-1.77-.2,5,5,0,0,0-3.41,1.18,8.86,8.86,0,0,0-2.28,3.43v14.12Z" style="fill:#0a2540;stroke:#0a2540;stroke-width:0.5px"/><path d="M220.26,234.64a11.41,11.41,0,0,1,4.39.81,9.17,9.17,0,0,1,3.32,2.3,10,10,0,0,1,2.1,3.6,15.42,15.42,0,0,1,0,9.44,10.08,10.08,0,0,1-2.1,3.59,9,9,0,0,1-3.32,2.29,12.45,12.45,0,0,1-8.78,0,9.1,9.1,0,0,1-3.34-2.29,10.11,10.11,0,0,1-2.12-3.59,15.23,15.23,0,0,1,0-9.44,10.07,10.07,0,0,1,2.12-3.6,9.25,9.25,0,0,1,3.34-2.3A11.37,11.37,0,0,1,220.26,234.64Zm0,19.79a5.7,5.7,0,0,0,4.9-2.2,10.21,10.21,0,0,0,1.62-6.14,10.32,10.32,0,0,0-1.62-6.18,5.68,5.68,0,0,0-4.9-2.21,6.77,6.77,0,0,0-2.89.57,5.47,5.47,0,0,0-2.05,1.64,7.15,7.15,0,0,0-1.22,2.64,13.72,13.72,0,0,0-.41,3.54,13.5,13.5,0,0,0,.41,3.52,7,7,0,0,0,1.22,2.62,5.54,5.54,0,0,0,2.05,1.63A6.77,6.77,0,0,0,220.26,254.43Z" style="fill:#0a2540;stroke:#0a2540;stroke-width:0.5px"/><path d="M250.75,238.93a1.8,1.8,0,0,1-.35.37.82.82,0,0,1-.5.13,1.29,1.29,0,0,1-.72-.27,10.86,10.86,0,0,0-1-.6,7.79,7.79,0,0,0-1.43-.6,6.6,6.6,0,0,0-2.07-.28,6.84,6.84,0,0,0-2.87.58,5.6,5.6,0,0,0-2.09,1.68,7.54,7.54,0,0,0-1.27,2.64,13.39,13.39,0,0,0-.43,3.49,12.88,12.88,0,0,0,.46,3.57,7.88,7.88,0,0,0,1.29,2.63,5.49,5.49,0,0,0,2,1.62,6.27,6.27,0,0,0,2.68.56,6.73,6.73,0,0,0,2.34-.34,6.81,6.81,0,0,0,1.53-.76,9.15,9.15,0,0,0,1-.75,1.2,1.2,0,0,1,.79-.34.81.81,0,0,1,.74.37l1.1,1.42a8.4,8.4,0,0,1-3.61,2.6,12.77,12.77,0,0,1-4.58.82,9.67,9.67,0,0,1-3.86-.77,8.84,8.84,0,0,1-3.1-2.22,10.7,10.7,0,0,1-2.07-3.58,14.41,14.41,0,0,1-.75-4.83,14.61,14.61,0,0,1,.69-4.58,10.37,10.37,0,0,1,2-3.62,9,9,0,0,1,3.27-2.38,11,11,0,0,1,4.47-.85,10.54,10.54,0,0,1,4.11.75,10,10,0,0,1,3.18,2.14Z" style="fill:#0a2540;stroke:#0a2540;stroke-width:0.5px"/><path d="M264.85,234.64a9.78,9.78,0,0,1,3.67.67,8,8,0,0,1,2.91,1.92,8.8,8.8,0,0,1,1.92,3.11,12,12,0,0,1,.69,4.21,2.54,2.54,0,0,1-.2,1.23.8.8,0,0,1-.74.31H258.34a12.21,12.21,0,0,0,.57,3.65,7.42,7.42,0,0,0,1.45,2.6,5.73,5.73,0,0,0,2.19,1.55,7.52,7.52,0,0,0,2.84.52,8.56,8.56,0,0,0,2.53-.34,12.6,12.6,0,0,0,1.83-.74,12.37,12.37,0,0,0,1.28-.73,1.66,1.66,0,0,1,.89-.34.85.85,0,0,1,.74.37l1.09,1.42a7.09,7.09,0,0,1-1.73,1.53,11,11,0,0,1-2.15,1.06,13.64,13.64,0,0,1-2.38.62,14.24,14.24,0,0,1-2.43.21,11.21,11.21,0,0,1-4.23-.78,9.31,9.31,0,0,1-3.35-2.27,10.42,10.42,0,0,1-2.2-3.71,15,15,0,0,1-.79-5.08,13.08,13.08,0,0,1,.71-4.34,10.38,10.38,0,0,1,2.05-3.49,9.49,9.49,0,0,1,3.26-2.32A10.74,10.74,0,0,1,264.85,234.64Zm.08,2.87a6,6,0,0,0-4.44,1.63,7.63,7.63,0,0,0-2,4.52h12.06a7.84,7.84,0,0,0-.38-2.49,5.47,5.47,0,0,0-1.09-1.95,4.86,4.86,0,0,0-1.76-1.26A6,6,0,0,0,264.93,237.51Z" style="fill:#0a2540;stroke:#0a2540;stroke-width:0.5px"/><path d="M291.7,238.64a.85.85,0,0,1-.81.49,1.52,1.52,0,0,1-.74-.24c-.28-.17-.62-.34-1-.54a9.54,9.54,0,0,0-1.43-.55,6.79,6.79,0,0,0-2-.25,5.8,5.8,0,0,0-1.78.25,4.34,4.34,0,0,0-1.34.69,3.09,3.09,0,0,0-.86,1,2.84,2.84,0,0,0-.29,1.26,2.08,2.08,0,0,0,.49,1.42,4.33,4.33,0,0,0,1.3,1,12.16,12.16,0,0,0,1.84.73c.69.21,1.39.44,2.11.68s1.43.5,2.12.8a7.64,7.64,0,0,1,1.84,1.09,5.1,5.1,0,0,1,1.3,1.61,4.9,4.9,0,0,1,.49,2.29,7.14,7.14,0,0,1-.55,2.83,6.12,6.12,0,0,1-1.62,2.26,8,8,0,0,1-2.62,1.5,11,11,0,0,1-3.59.54,11.31,11.31,0,0,1-4.21-.75,10.71,10.71,0,0,1-3.19-1.94l.92-1.49a1.34,1.34,0,0,1,.41-.44,1.21,1.21,0,0,1,.64-.15,1.43,1.43,0,0,1,.83.31c.29.2.65.43,1.06.68a9.39,9.39,0,0,0,1.51.68,7,7,0,0,0,2.22.3,6.34,6.34,0,0,0,2-.29,4.42,4.42,0,0,0,1.42-.8,3.22,3.22,0,0,0,.84-1.16,3.67,3.67,0,0,0,.27-1.4,2.34,2.34,0,0,0-.49-1.53,4.1,4.1,0,0,0-1.3-1,10.19,10.19,0,0,0-1.85-.75c-.69-.21-1.4-.43-2.12-.67a22.7,22.7,0,0,1-2.13-.8,7.3,7.3,0,0,1-1.85-1.12,5.06,5.06,0,0,1-1.3-1.68,5.38,5.38,0,0,1-.49-2.42,5.91,5.91,0,0,1,.52-2.44,6,6,0,0,1,1.54-2,7.52,7.52,0,0,1,2.47-1.42,9.9,9.9,0,0,1,3.35-.52,10.59,10.59,0,0,1,3.93.69,9.38,9.38,0,0,1,3,1.89Z" style="fill:#0a2540;stroke:#0a2540;stroke-width:0.5px"/><path d="M310.7,238.64a.85.85,0,0,1-.81.49,1.52,1.52,0,0,1-.74-.24c-.28-.17-.62-.34-1-.54a9.54,9.54,0,0,0-1.43-.55,6.84,6.84,0,0,0-2-.25,5.8,5.8,0,0,0-1.78.25,4.34,4.34,0,0,0-1.34.69,3,3,0,0,0-.86,1,2.84,2.84,0,0,0-.29,1.26,2.08,2.08,0,0,0,.49,1.42,4.33,4.33,0,0,0,1.3,1,12.16,12.16,0,0,0,1.84.73c.69.21,1.39.44,2.11.68s1.43.5,2.12.8a7.58,7.58,0,0,1,1.83,1.09,5.13,5.13,0,0,1,1.31,1.61,4.9,4.9,0,0,1,.49,2.29,7.14,7.14,0,0,1-.55,2.83,6.12,6.12,0,0,1-1.62,2.26,8,8,0,0,1-2.62,1.5,11,11,0,0,1-3.59.54,11.31,11.31,0,0,1-4.21-.75,10.71,10.71,0,0,1-3.19-1.94l.92-1.49a1.34,1.34,0,0,1,.41-.44,1.21,1.21,0,0,1,.64-.15,1.43,1.43,0,0,1,.83.31c.29.2.65.43,1.06.68a9.39,9.39,0,0,0,1.51.68,7,7,0,0,0,2.22.3,6.34,6.34,0,0,0,2-.29,4.42,4.42,0,0,0,1.42-.8,3.22,3.22,0,0,0,.84-1.16,3.67,3.67,0,0,0,.27-1.4,2.34,2.34,0,0,0-.49-1.53,4.1,4.1,0,0,0-1.3-1,10.19,10.19,0,0,0-1.85-.75c-.69-.21-1.4-.43-2.12-.67a22.7,22.7,0,0,1-2.13-.8,7.3,7.3,0,0,1-1.85-1.12,5.06,5.06,0,0,1-1.3-1.68,5.38,5.38,0,0,1-.49-2.42,5.91,5.91,0,0,1,.52-2.44,6,6,0,0,1,1.54-2,7.52,7.52,0,0,1,2.47-1.42,9.9,9.9,0,0,1,3.35-.52,10.59,10.59,0,0,1,3.93.69,9.38,9.38,0,0,1,3,1.89Z" style="fill:#0a2540;stroke:#0a2540;stroke-width:0.5px"/><path d="M329.79,224.92v32.24h-3.9V224.92Z" style="fill:#0a2540;stroke:#0a2540;stroke-width:0.5px"/><path d="M345.64,234.64a11.41,11.41,0,0,1,4.39.81,9.17,9.17,0,0,1,3.32,2.3,9.89,9.89,0,0,1,2.1,3.6,15.42,15.42,0,0,1,0,9.44,9.93,9.93,0,0,1-2.1,3.59,9,9,0,0,1-3.32,2.29,12.45,12.45,0,0,1-8.78,0,9.1,9.1,0,0,1-3.34-2.29,10.11,10.11,0,0,1-2.12-3.59,15.23,15.23,0,0,1,0-9.44,10.07,10.07,0,0,1,2.12-3.6,9.25,9.25,0,0,1,3.34-2.3A11.37,11.37,0,0,1,345.64,234.64Zm0,19.79a5.7,5.7,0,0,0,4.9-2.2,10.21,10.21,0,0,0,1.62-6.14,10.32,10.32,0,0,0-1.62-6.18,5.68,5.68,0,0,0-4.9-2.21,6.77,6.77,0,0,0-2.89.57,5.47,5.47,0,0,0-2.05,1.64,7.32,7.32,0,0,0-1.22,2.64,14.17,14.17,0,0,0-.41,3.54,14,14,0,0,0,.41,3.52,7.14,7.14,0,0,0,1.22,2.62,5.54,5.54,0,0,0,2.05,1.63A6.77,6.77,0,0,0,345.64,254.43Z" style="fill:#0a2540;stroke:#0a2540;stroke-width:0.5px"/><path d="M368.47,234.62a11.11,11.11,0,0,1,2.7.31,9.16,9.16,0,0,1,2.29.93h6v1.45c0,.48-.31.79-.92.92l-2.52.35a6.71,6.71,0,0,1,.75,3.17,6.81,6.81,0,0,1-.63,2.95,6.6,6.6,0,0,1-1.73,2.26,7.75,7.75,0,0,1-2.62,1.45,10.78,10.78,0,0,1-3.34.5,11.17,11.17,0,0,1-2.94-.37,3.88,3.88,0,0,0-1.06,1,1.81,1.81,0,0,0-.36,1,1.37,1.37,0,0,0,.64,1.23,4.35,4.35,0,0,0,1.68.6,14.28,14.28,0,0,0,2.39.18h2.72a15.4,15.4,0,0,1,2.73.25,8.13,8.13,0,0,1,2.38.8,4.38,4.38,0,0,1,1.69,1.53,4.55,4.55,0,0,1,.63,2.52,5.84,5.84,0,0,1-.71,2.79,7.57,7.57,0,0,1-2,2.41,10.55,10.55,0,0,1-3.26,1.68,14,14,0,0,1-4.36.63,16.89,16.89,0,0,1-4.26-.48,9.88,9.88,0,0,1-3-1.29,5.76,5.76,0,0,1-1.81-1.88,4.43,4.43,0,0,1-.6-2.22,4,4,0,0,1,1-2.79,7.07,7.07,0,0,1,2.86-1.83,3.85,3.85,0,0,1-1.5-1.17,3.17,3.17,0,0,1-.56-2,3,3,0,0,1,.18-1,3.69,3.69,0,0,1,.53-1,6.07,6.07,0,0,1,.89-1,5.63,5.63,0,0,1,1.22-.81,6.94,6.94,0,0,1-2.57-2.44,7.23,7.23,0,0,1-.3-6.5,6.42,6.42,0,0,1,1.74-2.26,8,8,0,0,1,2.66-1.43A11,11,0,0,1,368.47,234.62Zm6.91,23.67a2,2,0,0,0-.45-1.36,3,3,0,0,0-1.25-.8,9.43,9.43,0,0,0-1.82-.41,16.76,16.76,0,0,0-2.17-.13h-2.32a8.31,8.31,0,0,1-2.25-.3,6.56,6.56,0,0,0-2,1.45,3,3,0,0,0-.77,2,2.65,2.65,0,0,0,.38,1.39,3.41,3.41,0,0,0,1.17,1.12,7,7,0,0,0,2,.74,12.24,12.24,0,0,0,2.81.28,12.7,12.7,0,0,0,2.83-.29,7.15,7.15,0,0,0,2.11-.83,4.06,4.06,0,0,0,1.33-1.27A3.08,3.08,0,0,0,375.38,258.29Zm-6.91-12a6.11,6.11,0,0,0,2.09-.33,4.36,4.36,0,0,0,1.52-.92,3.75,3.75,0,0,0,.92-1.41,5.25,5.25,0,0,0,.31-1.81,4.34,4.34,0,0,0-1.24-3.24,5,5,0,0,0-3.6-1.2,4.93,4.93,0,0,0-3.58,1.2,4.3,4.3,0,0,0-1.24,3.24,5,5,0,0,0,.32,1.81,3.78,3.78,0,0,0,.93,1.41,4.31,4.31,0,0,0,1.51.92A5.94,5.94,0,0,0,368.47,246.33Z" style="fill:#0a2540;stroke:#0a2540;stroke-width:0.5px"/><path d="M388.58,228a2.38,2.38,0,0,1-.23,1.06,3,3,0,0,1-.61.88,3,3,0,0,1-.89.6,2.73,2.73,0,0,1-1.07.22,2.68,2.68,0,0,1-1.06-.22,2.86,2.86,0,0,1-1.48-1.48A2.68,2.68,0,0,1,383,228a2.79,2.79,0,0,1,.82-2,2.75,2.75,0,0,1,.88-.6,2.52,2.52,0,0,1,1.06-.22,2.56,2.56,0,0,1,1.07.22,2.69,2.69,0,0,1,.89.6,2.77,2.77,0,0,1,.61.89A2.57,2.57,0,0,1,388.58,228Zm-.87,7v22.17h-3.9V235Z" style="fill:#0a2540;stroke:#0a2540;stroke-width:0.5px"/><path d="M409.71,238.93a2.11,2.11,0,0,1-.35.37.84.84,0,0,1-.51.13,1.27,1.27,0,0,1-.71-.27,10.86,10.86,0,0,0-1-.6,7.91,7.91,0,0,0-1.44-.6,6.49,6.49,0,0,0-2.06-.28,6.81,6.81,0,0,0-2.87.58,5.6,5.6,0,0,0-2.09,1.68,7.54,7.54,0,0,0-1.27,2.64,13,13,0,0,0-.43,3.49,12.52,12.52,0,0,0,.46,3.57,7.88,7.88,0,0,0,1.29,2.63,5.49,5.49,0,0,0,2,1.62,6.27,6.27,0,0,0,2.68.56,6.73,6.73,0,0,0,2.34-.34,7.26,7.26,0,0,0,1.53-.76,9.15,9.15,0,0,0,1-.75,1.2,1.2,0,0,1,.79-.34.82.82,0,0,1,.74.37l1.1,1.42a8.43,8.43,0,0,1-3.62,2.6,12.72,12.72,0,0,1-4.57.82,9.67,9.67,0,0,1-3.86-.77,8.75,8.75,0,0,1-3.1-2.22,10.38,10.38,0,0,1-2.07-3.58,14.4,14.4,0,0,1-.76-4.83,14.61,14.61,0,0,1,.69-4.58,10.39,10.39,0,0,1,2-3.62,9,9,0,0,1,3.27-2.38,11,11,0,0,1,4.47-.85,10.61,10.61,0,0,1,4.11.75,10,10,0,0,1,3.18,2.14Z" style="fill:#0a2540;stroke:#0a2540;stroke-width:0.5px"/><path d="M439.76,257.16H438a2.19,2.19,0,0,1-.92-.17,1,1,0,0,1-.46-.75l-.44-2.05c-.58.52-1.15,1-1.7,1.41a10.82,10.82,0,0,1-1.75,1,9.18,9.18,0,0,1-2,.64,11.05,11.05,0,0,1-2.31.22,7.91,7.91,0,0,1-2.42-.36,5.37,5.37,0,0,1-2-1.09,5,5,0,0,1-1.32-1.83,6.39,6.39,0,0,1-.5-2.63,4.83,4.83,0,0,1,.73-2.53,6.32,6.32,0,0,1,2.33-2.17,15,15,0,0,1,4.21-1.54,28.23,28.23,0,0,1,6.37-.61V243a6,6,0,0,0-1.11-3.93,4,4,0,0,0-3.27-1.33,7,7,0,0,0-2.4.36,9.07,9.07,0,0,0-1.68.81l-1.23.81a1.76,1.76,0,0,1-1,.36,1.13,1.13,0,0,1-.69-.21,1.52,1.52,0,0,1-.47-.51l-.7-1.25a12.51,12.51,0,0,1,4-2.65,12.26,12.26,0,0,1,4.7-.88,8.39,8.39,0,0,1,3.31.62,6.86,6.86,0,0,1,2.43,1.71,7.26,7.26,0,0,1,1.49,2.64,11.26,11.26,0,0,1,.5,3.42Zm-10.11-2.38a7.9,7.9,0,0,0,1.88-.21,7.72,7.72,0,0,0,1.61-.59,9.29,9.29,0,0,0,1.44-.93,13,13,0,0,0,1.35-1.25v-4.57a26,26,0,0,0-4.58.34,12.36,12.36,0,0,0-3.06.89,4.3,4.3,0,0,0-1.72,1.3,2.77,2.77,0,0,0-.53,1.67,3.72,3.72,0,0,0,.28,1.52,2.84,2.84,0,0,0,1.9,1.64A5.43,5.43,0,0,0,429.65,254.78Z" style="fill:#0a2540;stroke:#0a2540;stroke-width:0.5px"/><path d="M458.37,238.64a.87.87,0,0,1-.81.49,1.55,1.55,0,0,1-.75-.24c-.28-.17-.62-.34-1-.54a9.54,9.54,0,0,0-1.43-.55,6.74,6.74,0,0,0-2-.25,5.69,5.69,0,0,0-1.77.25,4.29,4.29,0,0,0-1.35.69,2.94,2.94,0,0,0-.85,1,2.72,2.72,0,0,0-.3,1.26,2.13,2.13,0,0,0,.49,1.42,4.38,4.38,0,0,0,1.31,1,11.76,11.76,0,0,0,1.84.73l2.11.68c.72.24,1.42.5,2.11.8a7.45,7.45,0,0,1,1.84,1.09,5.1,5.1,0,0,1,1.3,1.61,4.9,4.9,0,0,1,.49,2.29,7.32,7.32,0,0,1-.54,2.83,6.36,6.36,0,0,1-1.62,2.26,8,8,0,0,1-2.63,1.5,10.93,10.93,0,0,1-3.59.54,11.22,11.22,0,0,1-4.2-.75,10.76,10.76,0,0,1-3.2-1.94l.92-1.49a1.48,1.48,0,0,1,.42-.44,1.18,1.18,0,0,1,.63-.15,1.43,1.43,0,0,1,.83.31c.29.2.65.43,1.06.68a9.14,9.14,0,0,0,1.52.68,7,7,0,0,0,2.22.3,6.28,6.28,0,0,0,2-.29,4.32,4.32,0,0,0,1.42-.8,3.22,3.22,0,0,0,.84-1.16,3.5,3.5,0,0,0,.28-1.4,2.4,2.4,0,0,0-.49-1.53,4.14,4.14,0,0,0-1.31-1,9.9,9.9,0,0,0-1.85-.75c-.69-.21-1.4-.43-2.12-.67a22.51,22.51,0,0,1-2.12-.8,7.13,7.13,0,0,1-1.85-1.12,5.08,5.08,0,0,1-1.31-1.68,5.52,5.52,0,0,1-.49-2.42,6,6,0,0,1,2.06-4.49,7.62,7.62,0,0,1,2.47-1.42,9.94,9.94,0,0,1,3.35-.52,10.59,10.59,0,0,1,3.93.69,9.27,9.27,0,0,1,3,1.89Z" style="fill:#0a2540;stroke:#0a2540;stroke-width:0.5px"/><path d="M173.61,310.05a5.34,5.34,0,0,1-4-1.47,5.85,5.85,0,0,1-1.41-4.22V290.79h-2.67a.87.87,0,0,1-.59-.21.82.82,0,0,1-.24-.65v-1.55l3.63-.46.9-6.85a.84.84,0,0,1,.28-.54.91.91,0,0,1,.62-.21h2V288h6.34v2.83h-6.34v13.3a2.79,2.79,0,0,0,.68,2.08,2.33,2.33,0,0,0,1.75.68,3.11,3.11,0,0,0,1.06-.16,4.75,4.75,0,0,0,.78-.36c.21-.13.4-.26.55-.37a.82.82,0,0,1,.41-.16.69.69,0,0,1,.55.37L179,308a7.24,7.24,0,0,1-2.43,1.48A8.14,8.14,0,0,1,173.61,310.05Z" style="fill:#0a2540;stroke:#0a2540;stroke-width:0.5px"/><path d="M180.33,287.52h3.07a1.21,1.21,0,0,1,.78.24,1.15,1.15,0,0,1,.42.57l4.25,14.28c.11.52.22,1,.32,1.52s.19,1,.27,1.47q.17-.74.39-1.47l.46-1.52L195,288.25a1.14,1.14,0,0,1,.39-.55,1,1,0,0,1,.69-.22h1.68a1.13,1.13,0,0,1,1.12.77l4.57,14.36c.16.51.31,1,.43,1.51l.36,1.46c.07-.48.17-1,.29-1.51s.24-1,.37-1.46l4.33-14.28a1.19,1.19,0,0,1,.42-.58,1.17,1.17,0,0,1,.72-.23h2.93l-7.18,22.18H203c-.38,0-.64-.25-.79-.75l-4.9-15a7.8,7.8,0,0,1-.29-1c-.07-.35-.14-.69-.22-1-.07.33-.14.68-.22,1a7.47,7.47,0,0,1-.28,1l-5,15a.91.91,0,0,1-.9.75h-2.93Z" style="fill:#0a2540;stroke:#0a2540;stroke-width:0.5px"/><path d="M222,280.56a2.35,2.35,0,0,1-.23,1.06,3,3,0,0,1-.61.88,2.74,2.74,0,0,1-.89.6,2.56,2.56,0,0,1-1.07.22,2.52,2.52,0,0,1-1.06-.22,2.93,2.93,0,0,1-.88-.6,3.12,3.12,0,0,1-.6-.88,2.64,2.64,0,0,1-.22-1.06,2.82,2.82,0,0,1,.22-1.08,3.08,3.08,0,0,1,.6-.9,3.12,3.12,0,0,1,.88-.6,2.52,2.52,0,0,1,1.06-.22,2.56,2.56,0,0,1,1.07.22,2.85,2.85,0,0,1,1.5,1.5A2.5,2.5,0,0,1,222,280.56Zm-.87,7V309.7h-3.9V287.52Z" style="fill:#0a2540;stroke:#0a2540;stroke-width:0.5px"/><path d="M228,309.7V287.52h2.32a1,1,0,0,1,1.05.81l.31,2.41a12.36,12.36,0,0,1,3.23-2.58,8.34,8.34,0,0,1,4.12-1,7.89,7.89,0,0,1,3.21.61,6.22,6.22,0,0,1,2.32,1.7,7.61,7.61,0,0,1,1.41,2.66,11.63,11.63,0,0,1,.48,3.44V309.7h-3.89V295.58a6,6,0,0,0-1.15-3.91,4.33,4.33,0,0,0-3.52-1.39,6.57,6.57,0,0,0-3.22.83,10.63,10.63,0,0,0-2.77,2.26V309.7Z" style="fill:#0a2540;stroke:#0a2540;stroke-width:0.5px"/><path d="M265,291.18a.87.87,0,0,1-.81.48,1.55,1.55,0,0,1-.75-.24c-.27-.16-.61-.34-1-.54a9.74,9.74,0,0,0-1.44-.54,6.72,6.72,0,0,0-2-.26,5.73,5.73,0,0,0-1.77.26,3.91,3.91,0,0,0-1.35.69,3.12,3.12,0,0,0-.85,1,2.72,2.72,0,0,0-.3,1.26,2.07,2.07,0,0,0,.5,1.42,4.21,4.21,0,0,0,1.3,1,10.85,10.85,0,0,0,1.84.73l2.11.68c.72.24,1.43.51,2.11.8a7.48,7.48,0,0,1,1.84,1.1,4.76,4.76,0,0,1,1.8,3.89,7.37,7.37,0,0,1-.55,2.84,6.32,6.32,0,0,1-1.62,2.25,7.67,7.67,0,0,1-2.63,1.5,10.62,10.62,0,0,1-3.59.55,11,11,0,0,1-4.2-.76,10.74,10.74,0,0,1-3.2-1.93l.92-1.49a1.37,1.37,0,0,1,.42-.44,1.18,1.18,0,0,1,.63-.15,1.51,1.51,0,0,1,.84.3c.29.21.64.43,1.06.68a7.64,7.64,0,0,0,1.51.68,7,7,0,0,0,2.22.31,6,6,0,0,0,2-.3,4.15,4.15,0,0,0,1.42-.8,3.2,3.2,0,0,0,.85-1.16,3.64,3.64,0,0,0,.27-1.4,2.31,2.31,0,0,0-.49-1.52,4.17,4.17,0,0,0-1.31-1,10.85,10.85,0,0,0-1.84-.74l-2.13-.67c-.72-.24-1.43-.5-2.12-.8a7.63,7.63,0,0,1-1.85-1.13,5.12,5.12,0,0,1-1.3-1.67,5.41,5.41,0,0,1-.5-2.42,5.89,5.89,0,0,1,.53-2.44,6,6,0,0,1,1.53-2.06,7.55,7.55,0,0,1,2.48-1.41,9.84,9.84,0,0,1,3.34-.53,10.59,10.59,0,0,1,3.93.69,9.13,9.13,0,0,1,3,1.9Z" style="fill:#0a2540;stroke:#0a2540;stroke-width:0.5px"/><path d="M296,309.7h-1.73a2,2,0,0,1-.92-.18.92.92,0,0,1-.46-.74l-.44-2.06a20.5,20.5,0,0,1-1.71,1.41,9.23,9.23,0,0,1-1.75,1.05,8.84,8.84,0,0,1-2,.65,11.62,11.62,0,0,1-2.31.22,8,8,0,0,1-2.42-.36,5.63,5.63,0,0,1-1.95-1.09,5.22,5.22,0,0,1-1.33-1.84,6.38,6.38,0,0,1-.49-2.62,5,5,0,0,1,.72-2.54,6.38,6.38,0,0,1,2.33-2.16,15,15,0,0,1,4.22-1.55,28.82,28.82,0,0,1,6.37-.6v-1.74a6,6,0,0,0-1.11-3.94,4,4,0,0,0-3.27-1.33,7,7,0,0,0-2.4.36,8.77,8.77,0,0,0-1.68.81q-.72.45-1.23.81a1.76,1.76,0,0,1-1,.36,1.24,1.24,0,0,1-.69-.2,1.67,1.67,0,0,1-.47-.52l-.7-1.25a12.92,12.92,0,0,1,4-2.65,12.34,12.34,0,0,1,4.71-.87,8.34,8.34,0,0,1,3.3.61,6.68,6.68,0,0,1,2.43,1.71,7.09,7.09,0,0,1,1.49,2.65,10.84,10.84,0,0,1,.51,3.41Zm-10.12-2.39a7.93,7.93,0,0,0,1.89-.21,7.11,7.11,0,0,0,1.6-.59,7.75,7.75,0,0,0,1.45-.93,12,12,0,0,0,1.35-1.25v-4.57a26,26,0,0,0-4.58.34,13.14,13.14,0,0,0-3.06.89,4.3,4.3,0,0,0-1.72,1.3,2.8,2.8,0,0,0-.54,1.67,3.68,3.68,0,0,0,.29,1.52,2.85,2.85,0,0,0,.76,1,3,3,0,0,0,1.14.59A5,5,0,0,0,285.92,307.31Z" style="fill:#0a2540;stroke:#0a2540;stroke-width:0.5px"/><path d="M302,309.7V287.52h2.32a1,1,0,0,1,1.05.81l.3,2.41a12.53,12.53,0,0,1,3.23-2.58,8.38,8.38,0,0,1,4.13-1,7.89,7.89,0,0,1,3.21.61,6.38,6.38,0,0,1,2.32,1.7,7.61,7.61,0,0,1,1.41,2.66,11.63,11.63,0,0,1,.48,3.44V309.7h-3.9V295.58a6,6,0,0,0-1.15-3.91,4.3,4.3,0,0,0-3.51-1.39,6.61,6.61,0,0,0-3.23.83,10.8,10.8,0,0,0-2.77,2.26V309.7Z" style="fill:#0a2540;stroke:#0a2540;stroke-width:0.5px"/><path d="M341.89,309.7a1,1,0,0,1-1.05-.81l-.35-2.69a11.63,11.63,0,0,1-3.25,2.76,8.25,8.25,0,0,1-4.19,1,8,8,0,0,1-3.46-.73,7.24,7.24,0,0,1-2.65-2.16,10.13,10.13,0,0,1-1.68-3.54,18,18,0,0,1-.59-4.88,15.58,15.58,0,0,1,.65-4.57,11,11,0,0,1,1.9-3.66,8.7,8.7,0,0,1,7-3.33,8,8,0,0,1,3.48.69,8.2,8.2,0,0,1,2.59,1.94V277.45h3.89V309.7Zm-7.55-2.85a6.32,6.32,0,0,0,3.34-.87,9.59,9.59,0,0,0,2.64-2.48V292.78a6.16,6.16,0,0,0-2.36-2,6.85,6.85,0,0,0-2.83-.58,5.62,5.62,0,0,0-4.77,2.21,10.35,10.35,0,0,0-1.67,6.31,15.92,15.92,0,0,0,.38,3.71,7.06,7.06,0,0,0,1.09,2.54,4.25,4.25,0,0,0,1.77,1.45A5.92,5.92,0,0,0,334.34,306.85Z" style="fill:#0a2540;stroke:#0a2540;stroke-width:0.5px"/><path d="M368,287.17a10,10,0,0,1,3.67.67,8.19,8.19,0,0,1,2.91,1.93,8.71,8.71,0,0,1,1.92,3.11,12,12,0,0,1,.69,4.21,2.52,2.52,0,0,1-.2,1.22.8.8,0,0,1-.74.31H361.48a12.33,12.33,0,0,0,.57,3.66,7.53,7.53,0,0,0,1.45,2.59,5.73,5.73,0,0,0,2.19,1.55,7.33,7.33,0,0,0,2.84.52,8.24,8.24,0,0,0,2.53-.34,12.65,12.65,0,0,0,1.83-.73,14.35,14.35,0,0,0,1.28-.74,1.75,1.75,0,0,1,.89-.34.85.85,0,0,1,.74.38l1.09,1.42a7.42,7.42,0,0,1-1.72,1.52,11.1,11.1,0,0,1-2.16,1.06,13.67,13.67,0,0,1-2.38.63,15.32,15.32,0,0,1-2.43.2,11.41,11.41,0,0,1-4.23-.77,9.33,9.33,0,0,1-3.35-2.28,10.57,10.57,0,0,1-2.2-3.71,15,15,0,0,1-.79-5.08,13,13,0,0,1,.71-4.33,10.29,10.29,0,0,1,2.05-3.49,9.36,9.36,0,0,1,3.26-2.32A10.6,10.6,0,0,1,368,287.17Zm.08,2.87a6,6,0,0,0-4.44,1.63,7.68,7.68,0,0,0-2,4.52h12.06a7.82,7.82,0,0,0-.38-2.48,5.47,5.47,0,0,0-1.09-1.95,4.88,4.88,0,0,0-1.76-1.27A6,6,0,0,0,368.07,290Z" style="fill:#0a2540;stroke:#0a2540;stroke-width:0.5px"/><path d="M378.78,287.52H382a1.22,1.22,0,0,1,.77.24,1.42,1.42,0,0,1,.44.57l5.62,14.28a9.41,9.41,0,0,1,.48,1.57c.12.53.23,1,.33,1.56.12-.52.24-1,.37-1.56a13.65,13.65,0,0,1,.51-1.57l5.69-14.28a1.36,1.36,0,0,1,.43-.58,1.16,1.16,0,0,1,.73-.23h3l-9,22.18h-3.52Z" style="fill:#0a2540;stroke:#0a2540;stroke-width:0.5px"/><path d="M412.2,287.17a10,10,0,0,1,3.68.67,8.37,8.37,0,0,1,2.91,1.93,8.71,8.71,0,0,1,1.92,3.11,12,12,0,0,1,.69,4.21,2.52,2.52,0,0,1-.2,1.22.81.81,0,0,1-.75.31H405.7a12.33,12.33,0,0,0,.57,3.66,7.37,7.37,0,0,0,1.45,2.59,5.78,5.78,0,0,0,2.18,1.55,7.42,7.42,0,0,0,2.85.52,8.24,8.24,0,0,0,2.53-.34,13.13,13.13,0,0,0,1.83-.73c.51-.27.93-.51,1.28-.74a1.72,1.72,0,0,1,.88-.34.88.88,0,0,1,.75.38l1.09,1.42a7.47,7.47,0,0,1-1.73,1.52,11,11,0,0,1-2.15,1.06,13.67,13.67,0,0,1-2.38.63,15.51,15.51,0,0,1-2.43.2,11.41,11.41,0,0,1-4.23-.77,9.24,9.24,0,0,1-3.35-2.28,10.42,10.42,0,0,1-2.2-3.71,15,15,0,0,1-.79-5.08,13,13,0,0,1,.71-4.33,10.13,10.13,0,0,1,2.05-3.49,9.27,9.27,0,0,1,3.26-2.32A10.56,10.56,0,0,1,412.2,287.17Zm.09,2.87a6,6,0,0,0-4.44,1.63,7.75,7.75,0,0,0-2,4.52h12.06a7.82,7.82,0,0,0-.37-2.48,5.63,5.63,0,0,0-1.09-1.95,4.88,4.88,0,0,0-1.76-1.27A6,6,0,0,0,412.29,290Z" style="fill:#0a2540;stroke:#0a2540;stroke-width:0.5px"/><path d="M426.36,309.7V287.52h2.32a1,1,0,0,1,1.06.81l.3,2.41a12.36,12.36,0,0,1,3.23-2.58,8.36,8.36,0,0,1,4.13-1,7.81,7.81,0,0,1,3.2.61,6.22,6.22,0,0,1,2.32,1.7,7.79,7.79,0,0,1,1.42,2.66,11.63,11.63,0,0,1,.48,3.44V309.7h-3.9V295.58a6,6,0,0,0-1.15-3.91,4.31,4.31,0,0,0-3.51-1.39,6.61,6.61,0,0,0-3.23.83,10.8,10.8,0,0,0-2.77,2.26V309.7Z" style="fill:#0a2540;stroke:#0a2540;stroke-width:0.5px"/><path d="M457.43,310.05a5.33,5.33,0,0,1-4-1.47,5.85,5.85,0,0,1-1.42-4.22V290.79H449.3a.87.87,0,0,1-.59-.21.82.82,0,0,1-.24-.65v-1.55l3.64-.46.89-6.85a.85.85,0,0,1,.29-.54.89.89,0,0,1,.61-.21h2V288h6.35v2.83h-6.35v13.3a2.83,2.83,0,0,0,.68,2.08,2.34,2.34,0,0,0,1.75.68,3.07,3.07,0,0,0,1.06-.16,4.75,4.75,0,0,0,.78-.36c.22-.13.4-.26.56-.37a.8.8,0,0,1,.4-.16.66.66,0,0,1,.55.37l1.14,1.86a7.24,7.24,0,0,1-2.43,1.48A8.22,8.22,0,0,1,457.43,310.05Z" style="fill:#0a2540;stroke:#0a2540;stroke-width:0.5px"/><path d="M479.73,291.18a.86.86,0,0,1-.81.48,1.49,1.49,0,0,1-.74-.24q-.42-.24-1-.54a9.33,9.33,0,0,0-1.44-.54,6.72,6.72,0,0,0-2-.26,5.77,5.77,0,0,0-1.77.26,4,4,0,0,0-1.34.69,3,3,0,0,0-.86,1,2.71,2.71,0,0,0-.29,1.26,2.06,2.06,0,0,0,.49,1.42,4.33,4.33,0,0,0,1.3,1,10.85,10.85,0,0,0,1.84.73l2.11.68c.72.24,1.43.51,2.11.8a7.48,7.48,0,0,1,1.84,1.1,5,5,0,0,1,1.31,1.6,5.06,5.06,0,0,1,.49,2.29,7.37,7.37,0,0,1-.55,2.84,6.09,6.09,0,0,1-1.62,2.25,7.58,7.58,0,0,1-2.63,1.5,10.62,10.62,0,0,1-3.59.55,11.1,11.1,0,0,1-4.2-.76,10.69,10.69,0,0,1-3.19-1.93l.91-1.49a1.37,1.37,0,0,1,.42-.44,1.19,1.19,0,0,1,.64-.15,1.48,1.48,0,0,1,.83.3c.29.21.64.43,1.06.68a7.91,7.91,0,0,0,1.51.68,7,7,0,0,0,2.22.31,6,6,0,0,0,2-.3,4.2,4.2,0,0,0,1.43-.8,3.17,3.17,0,0,0,.84-1.16,3.64,3.64,0,0,0,.27-1.4,2.31,2.31,0,0,0-.49-1.52,4.12,4.12,0,0,0-1.3-1,11,11,0,0,0-1.85-.74l-2.13-.67c-.72-.24-1.43-.5-2.12-.8a7.63,7.63,0,0,1-1.85-1.13,5.12,5.12,0,0,1-1.3-1.67,5.41,5.41,0,0,1-.49-2.42,5.88,5.88,0,0,1,.52-2.44,6,6,0,0,1,1.53-2.06,7.66,7.66,0,0,1,2.48-1.41,9.85,9.85,0,0,1,3.35-.53,10.59,10.59,0,0,1,3.93.69,9.24,9.24,0,0,1,3,1.9Z" style="fill:#0a2540;stroke:#0a2540;stroke-width:0.5px"/><rect x="1515.27" y="601.07" width="251.85" height="335.69" rx="22.93" style="fill:#fff"/><path d="M1744.2,937.76h-206a24,24,0,0,1-23.93-23.93V624a24,24,0,0,1,23.93-23.93h206A24,24,0,0,1,1768.13,624V913.83A24,24,0,0,1,1744.2,937.76Zm-206-335.69A22,22,0,0,0,1516.27,624V913.83a22,22,0,0,0,21.93,21.93h206a22,22,0,0,0,21.93-21.93V624a22,22,0,0,0-21.93-21.93Z" style="fill:#dae1ea"/><rect x="1572.27" y="869.86" width="137.85" height="137.85" rx="68.93" style="fill:#fff"/><path d="M1641.2,1008.71a69.93,69.93,0,1,1,69.93-69.93A70,70,0,0,1,1641.2,1008.71Zm0-137.85a67.93,67.93,0,1,0,67.93,67.92A68,68,0,0,0,1641.2,870.86Z" style="fill:#7f96a5"/><path d="M1670.39,954.61V920.92a.48.48,0,0,0-.25-.43l-28.92-16.7a.5.5,0,0,0-.5,0l-28.43,16.41a.5.5,0,0,0,0,.86l14,8.07,14.46-8.35a.5.5,0,0,1,.5,0l14.21,8.2a.52.52,0,0,1,.25.43v16.7h0l-7.68,4.44-6.78,3.91a.5.5,0,0,1-.5,0l-14.22-8.2a.51.51,0,0,1-.24-.43v-16.7l-14.47,8.36a.5.5,0,0,0-.25.43v16.4a.5.5,0,0,0,.25.43l28.93,16.7a.5.5,0,0,0,.5,0l14.46-8.35,6.78,3.92a.5.5,0,0,0,.5,0l13.72-7.92a.5.5,0,0,0,0-.86Z" style="fill:#252628"/><path d="M1587.64,1057.57a17.75,17.75,0,0,1-1.12,6.41,13.81,13.81,0,0,1-8,8.13,17,17,0,0,1-6.31,1.13h-11.73v-31.37h11.73a17,17,0,0,1,6.31,1.13,14,14,0,0,1,4.88,3.2,14.32,14.32,0,0,1,3.15,5A17.8,17.8,0,0,1,1587.64,1057.57Zm-4.36,0a15.64,15.64,0,0,0-.79-5.17,10.81,10.81,0,0,0-2.23-3.85,9.58,9.58,0,0,0-3.5-2.41,12.21,12.21,0,0,0-4.58-.83h-7.46v24.49h7.46a12,12,0,0,0,4.58-.83,9.44,9.44,0,0,0,3.5-2.4,10.68,10.68,0,0,0,2.23-3.84A15.62,15.62,0,0,0,1583.28,1057.57Z" style="fill:#0a2540;stroke:#0a2540;stroke-width:0.5px"/><path d="M1601.58,1050.71a10,10,0,0,1,3.68.67,8.37,8.37,0,0,1,2.91,1.93,8.69,8.69,0,0,1,1.91,3.11,12,12,0,0,1,.69,4.21,2.62,2.62,0,0,1-.19,1.23.84.84,0,0,1-.75.3h-14.75a12.33,12.33,0,0,0,.57,3.66,7.43,7.43,0,0,0,1.44,2.59,5.84,5.84,0,0,0,2.19,1.56,7.61,7.61,0,0,0,2.85.51,8.17,8.17,0,0,0,2.52-.34,11.6,11.6,0,0,0,1.83-.73,14.53,14.53,0,0,0,1.28-.73,1.69,1.69,0,0,1,.89-.34.84.84,0,0,1,.74.37l1.1,1.42a7.47,7.47,0,0,1-1.73,1.52,10.32,10.32,0,0,1-2.16,1.06,13.56,13.56,0,0,1-2.37.63,14.42,14.42,0,0,1-2.43.21,11.26,11.26,0,0,1-4.24-.78,9.33,9.33,0,0,1-3.35-2.28,10.48,10.48,0,0,1-2.2-3.71,15.19,15.19,0,0,1-.78-5.08,12.77,12.77,0,0,1,.71-4.33,10.11,10.11,0,0,1,2-3.49,9.31,9.31,0,0,1,3.27-2.32A10.69,10.69,0,0,1,1601.58,1050.71Zm.09,2.87a6,6,0,0,0-4.45,1.63,7.68,7.68,0,0,0-2,4.52h12.06a7.82,7.82,0,0,0-.37-2.48,5.49,5.49,0,0,0-1.1-2A4.88,4.88,0,0,0,1604,1054,5.89,5.89,0,0,0,1601.67,1053.58Z" style="fill:#0a2540;stroke:#0a2540;stroke-width:0.5px"/><path d="M1612.37,1051.07h3.2a1.19,1.19,0,0,1,.76.24,1.34,1.34,0,0,1,.44.57l5.63,14.27a11.76,11.76,0,0,1,.48,1.57q.16.79.33,1.56c.11-.51.24-1,.37-1.56a13.58,13.58,0,0,1,.5-1.57l5.69-14.27a1.33,1.33,0,0,1,.43-.59,1.17,1.17,0,0,1,.73-.22h3l-9,22.17h-3.53Z" style="fill:#0a2540;stroke:#0a2540;stroke-width:0.5px"/><path d="M1642.8,1044.1a2.57,2.57,0,0,1-.23,1.07,3.14,3.14,0,0,1-.62.87,2.74,2.74,0,0,1-2,.82,2.56,2.56,0,0,1-1.07-.22,2.93,2.93,0,0,1-1.47-1.47,2.56,2.56,0,0,1-.22-1.07,2.68,2.68,0,0,1,.22-1.08,2.73,2.73,0,0,1,.6-.9,3.07,3.07,0,0,1,.87-.6,2.73,2.73,0,0,1,1.07-.22,2.81,2.81,0,0,1,1.07.22,3,3,0,0,1,.88.6,3.14,3.14,0,0,1,.62.9A2.69,2.69,0,0,1,1642.8,1044.1Zm-.88,7v22.17H1638v-22.17Z" style="fill:#0a2540;stroke:#0a2540;stroke-width:0.5px"/><path d="M1663.92,1055a1.8,1.8,0,0,1-.35.37.88.88,0,0,1-.5.13,1.24,1.24,0,0,1-.71-.27,9.09,9.09,0,0,0-1-.61,7.79,7.79,0,0,0-1.43-.6,6.84,6.84,0,0,0-2.07-.27,6.69,6.69,0,0,0-2.87.58,5.48,5.48,0,0,0-2.09,1.67,7.77,7.77,0,0,0-1.27,2.65,13.37,13.37,0,0,0-.43,3.48,13,13,0,0,0,.46,3.58,7.8,7.8,0,0,0,1.3,2.63,5.67,5.67,0,0,0,2,1.62,6.3,6.3,0,0,0,2.68.56,7,7,0,0,0,2.34-.34,7.12,7.12,0,0,0,1.54-.76c.4-.28.74-.53,1-.75a1.22,1.22,0,0,1,.79-.34.83.83,0,0,1,.75.37l1.09,1.42a8.38,8.38,0,0,1-3.61,2.59,12.78,12.78,0,0,1-4.58.83,9.71,9.71,0,0,1-3.86-.77,8.84,8.84,0,0,1-3.1-2.22A10.8,10.8,0,0,1,1648,1067a15.74,15.74,0,0,1-.06-9.41,10.5,10.5,0,0,1,2-3.63,9.22,9.22,0,0,1,3.27-2.37,11,11,0,0,1,4.47-.86,10.62,10.62,0,0,1,4.12.76,10,10,0,0,1,3.17,2.13Z" style="fill:#0a2540;stroke:#0a2540;stroke-width:0.5px"/><path d="M1678,1050.71a10,10,0,0,1,3.67.67,8.32,8.32,0,0,1,2.92,1.93,8.83,8.83,0,0,1,1.91,3.11,12,12,0,0,1,.69,4.21,2.59,2.59,0,0,1-.2,1.23.82.82,0,0,1-.74.3h-14.75a12,12,0,0,0,.56,3.66,7.44,7.44,0,0,0,1.45,2.59,5.76,5.76,0,0,0,2.19,1.56,7.52,7.52,0,0,0,2.84.51,8.24,8.24,0,0,0,2.53-.34,11.6,11.6,0,0,0,1.83-.73,14.53,14.53,0,0,0,1.28-.73,1.66,1.66,0,0,1,.89-.34.84.84,0,0,1,.74.37l1.1,1.42a7.68,7.68,0,0,1-1.73,1.52,10.32,10.32,0,0,1-2.16,1.06,13.8,13.8,0,0,1-2.37.63,14.42,14.42,0,0,1-2.43.21,11.23,11.23,0,0,1-4.24-.78,9.33,9.33,0,0,1-3.35-2.28,10.48,10.48,0,0,1-2.2-3.71,15.18,15.18,0,0,1-.79-5.08,13,13,0,0,1,.71-4.33,10.29,10.29,0,0,1,2.05-3.49,9.36,9.36,0,0,1,3.26-2.32A10.77,10.77,0,0,1,1678,1050.71Zm.08,2.87a6,6,0,0,0-4.44,1.63,7.68,7.68,0,0,0-2,4.52h12.06a8.12,8.12,0,0,0-.37-2.48,5.65,5.65,0,0,0-1.1-2,4.88,4.88,0,0,0-1.76-1.27A5.94,5.94,0,0,0,1678.1,1053.58Z" style="fill:#0a2540;stroke:#0a2540;stroke-width:0.5px"/><path d="M1701.24,1073.24v-31.37h10a19.06,19.06,0,0,1,5,.57,9.65,9.65,0,0,1,3.44,1.62,6.38,6.38,0,0,1,2,2.57,8.74,8.74,0,0,1,.65,3.43,7,7,0,0,1-.36,2.23,6.39,6.39,0,0,1-1.1,2,7.52,7.52,0,0,1-1.84,1.64,10,10,0,0,1-2.59,1.19,9.65,9.65,0,0,1,5.19,2.47,6.51,6.51,0,0,1,1.75,4.73,8.91,8.91,0,0,1-.73,3.63,7.82,7.82,0,0,1-2.15,2.83,10.07,10.07,0,0,1-3.46,1.82,15.5,15.5,0,0,1-4.67.65Zm4.25-17.32h5.6a11,11,0,0,0,3.11-.39,6.37,6.37,0,0,0,2.18-1.09,4.43,4.43,0,0,0,1.28-1.7,5.72,5.72,0,0,0,.41-2.18,4.8,4.8,0,0,0-1.66-4,8.42,8.42,0,0,0-5.17-1.29h-5.75Zm0,3v10.92h6.78a10.24,10.24,0,0,0,3.12-.42,5.62,5.62,0,0,0,2.15-1.17,4.5,4.5,0,0,0,1.23-1.79,6.3,6.3,0,0,0,.4-2.29,4.72,4.72,0,0,0-1.72-3.84,8.09,8.09,0,0,0-5.2-1.41Z" style="fill:#0a2540;stroke:#0a2540;stroke-width:0.5px"/><rect x="1571.33" y="687.19" width="139.73" height="139.73" rx="29.41" style="fill:#f5f9fb"/><path d="M1681.66,688.19a28.44,28.44,0,0,1,28.41,28.4v80.93a28.44,28.44,0,0,1-28.41,28.4h-80.92a28.44,28.44,0,0,1-28.41-28.4V716.59a28.44,28.44,0,0,1,28.41-28.4h80.92m0-2h-80.92a30.41,30.41,0,0,0-30.41,30.4v80.93a30.41,30.41,0,0,0,30.41,30.4h80.92a30.41,30.41,0,0,0,30.41-30.4V716.59a30.41,30.41,0,0,0-30.41-30.4Z" style="fill:#7f96a5"/><path d="M1631.76,739.41h-3.28a1.48,1.48,0,0,1-.92-.28,1.75,1.75,0,0,1-.52-.73l-2.94-7.57H1610l-2.93,7.57a1.7,1.7,0,0,1-.53.7,1.37,1.37,0,0,1-.92.31h-3.28L1614.91,708h4.31Zm-20.55-11.65h11.71L1618,715a23.09,23.09,0,0,1-.94-3c-.17.6-.32,1.15-.48,1.65s-.3.95-.44,1.32Z" style="fill:#0a2540"/><path d="M1635.11,746.92V717.24h2.32a1,1,0,0,1,1,.8l.33,2.63a11.88,11.88,0,0,1,3.25-2.78,8.34,8.34,0,0,1,4.22-1,8.15,8.15,0,0,1,3.46.73,7.23,7.23,0,0,1,2.64,2.17,10.33,10.33,0,0,1,1.69,3.56,18.38,18.38,0,0,1,.59,4.88,15.18,15.18,0,0,1-.66,4.56,10.93,10.93,0,0,1-1.88,3.66,8.79,8.79,0,0,1-3,2.43,8.93,8.93,0,0,1-4,.89,8.29,8.29,0,0,1-3.51-.68,8,8,0,0,1-2.57-1.93v9.81ZM1645,720a6.3,6.3,0,0,0-3.34.88,9.54,9.54,0,0,0-2.64,2.47v10.73a6.22,6.22,0,0,0,2.35,2,6.69,6.69,0,0,0,2.86.6,5.58,5.58,0,0,0,4.75-2.22,10.3,10.3,0,0,0,1.66-6.3,16.07,16.07,0,0,0-.38-3.72,7.15,7.15,0,0,0-1.11-2.55,4.36,4.36,0,0,0-1.77-1.46A6,6,0,0,0,1645,720Z" style="fill:#0a2540"/><path d="M1659.28,746.92V717.24h2.32a1,1,0,0,1,1.05.8l.33,2.63a11.88,11.88,0,0,1,3.25-2.78,8.3,8.3,0,0,1,4.21-1,8.12,8.12,0,0,1,3.46.73,7.18,7.18,0,0,1,2.65,2.17,10.51,10.51,0,0,1,1.69,3.56,18.38,18.38,0,0,1,.59,4.88,15.18,15.18,0,0,1-.66,4.56,11.31,11.31,0,0,1-1.88,3.66,8.79,8.79,0,0,1-3,2.43,8.93,8.93,0,0,1-4,.89,8.29,8.29,0,0,1-3.51-.68,8,8,0,0,1-2.57-1.93v9.81Zm9.87-26.93a6.33,6.33,0,0,0-3.34.88,9.65,9.65,0,0,0-2.63,2.47v10.73a6.15,6.15,0,0,0,2.35,2,6.61,6.61,0,0,0,2.85.6,5.57,5.57,0,0,0,4.75-2.22,10.3,10.3,0,0,0,1.67-6.3,16.07,16.07,0,0,0-.38-3.72,7.33,7.33,0,0,0-1.11-2.55,4.36,4.36,0,0,0-1.77-1.46A6,6,0,0,0,1669.15,720Z" style="fill:#0a2540"/><path d="M1630.85,797.71V766.34h10a19.06,19.06,0,0,1,5,.57,9.73,9.73,0,0,1,3.44,1.62,6.43,6.43,0,0,1,2,2.58,8.65,8.65,0,0,1,.64,3.42,7,7,0,0,1-.36,2.23,6.52,6.52,0,0,1-1.09,2,7.73,7.73,0,0,1-1.84,1.64,10.39,10.39,0,0,1-2.6,1.18,9.65,9.65,0,0,1,5.19,2.47,6.49,6.49,0,0,1,1.75,4.73,8.75,8.75,0,0,1-.73,3.63,7.79,7.79,0,0,1-2.14,2.83,10.27,10.27,0,0,1-3.46,1.83,15.63,15.63,0,0,1-4.68.64Zm4.24-17.31h5.61a10.56,10.56,0,0,0,3.1-.4,6.11,6.11,0,0,0,2.18-1.09,4.17,4.17,0,0,0,1.28-1.7,5.54,5.54,0,0,0,.42-2.18,4.83,4.83,0,0,0-1.67-4,8.39,8.39,0,0,0-5.16-1.29h-5.76Zm0,3v10.92h6.79a10.24,10.24,0,0,0,3.12-.42,5.57,5.57,0,0,0,2.14-1.17,4.52,4.52,0,0,0,1.24-1.79,6.47,6.47,0,0,0,.39-2.29,4.69,4.69,0,0,0-1.72-3.84,8,8,0,0,0-5.19-1.41Z" style="fill:#0a2540"/><rect x="870.76" y="601.07" width="251.85" height="335.69" rx="22.93" style="fill:#fff"/><path d="M1099.69,937.76h-206a24,24,0,0,1-23.93-23.93V624a24,24,0,0,1,23.93-23.93h206A24,24,0,0,1,1123.61,624V913.83A24,24,0,0,1,1099.69,937.76Zm-206-335.69A22,22,0,0,0,871.76,624V913.83a22,22,0,0,0,21.93,21.93h206a22,22,0,0,0,21.92-21.93V624a22,22,0,0,0-21.92-21.93Z" style="fill:#dae1ea"/><rect x="927.76" y="869.86" width="137.85" height="137.85" rx="68.93" style="fill:#fff"/><path d="M996.69,1008.71a69.93,69.93,0,1,1,69.93-69.93A70,70,0,0,1,996.69,1008.71Zm0-137.85a67.93,67.93,0,1,0,0,135.85h0a67.93,67.93,0,1,0,0-135.85Z" style="fill:#7f96a5"/><path d="M1025.88,954.61V920.92a.5.5,0,0,0-.25-.43l-28.92-16.7a.5.5,0,0,0-.5,0L967.78,920.2a.5.5,0,0,0,0,.86l14,8.07,14.47-8.35a.5.5,0,0,1,.5,0l14.21,8.2a.52.52,0,0,1,.25.43v16.7h0l-7.68,4.44-6.78,3.91a.5.5,0,0,1-.5,0L982,946.26a.52.52,0,0,1-.25-.43v-16.7l-14.46,8.36a.5.5,0,0,0-.25.43v16.4a.5.5,0,0,0,.25.43l28.93,16.7a.5.5,0,0,0,.5,0l14.46-8.35L1018,967a.5.5,0,0,0,.5,0l13.72-7.92a.5.5,0,0,0,0-.86Z" style="fill:#252628"/><path d="M942.4,1057.57a17.75,17.75,0,0,1-1.11,6.41,14.37,14.37,0,0,1-3.15,5,14.08,14.08,0,0,1-4.89,3.18,16.94,16.94,0,0,1-6.3,1.13H915.22v-31.37H927a16.94,16.94,0,0,1,6.3,1.13,14,14,0,0,1,4.89,3.2,14.46,14.46,0,0,1,3.15,5A17.8,17.8,0,0,1,942.4,1057.57Zm-4.35,0a15.64,15.64,0,0,0-.79-5.17,11,11,0,0,0-2.23-3.85,9.62,9.62,0,0,0-3.51-2.41,12.15,12.15,0,0,0-4.57-.83h-7.46v24.49H927a12,12,0,0,0,4.57-.83,9.48,9.48,0,0,0,3.51-2.4,10.83,10.83,0,0,0,2.23-3.84A15.62,15.62,0,0,0,938.05,1057.57Z" style="fill:#0a2540;stroke:#0a2540;stroke-width:0.5px"/><path d="M956.35,1050.71a10,10,0,0,1,3.67.67,8.32,8.32,0,0,1,2.92,1.93,8.83,8.83,0,0,1,1.91,3.11,12,12,0,0,1,.69,4.21,2.59,2.59,0,0,1-.2,1.23.82.82,0,0,1-.74.3H949.85a12,12,0,0,0,.56,3.66,7.44,7.44,0,0,0,1.45,2.59,5.76,5.76,0,0,0,2.19,1.56,7.52,7.52,0,0,0,2.84.51,8.24,8.24,0,0,0,2.53-.34,11.6,11.6,0,0,0,1.83-.73,14.53,14.53,0,0,0,1.28-.73,1.66,1.66,0,0,1,.89-.34.84.84,0,0,1,.74.37l1.1,1.42a7.68,7.68,0,0,1-1.73,1.52,10.56,10.56,0,0,1-2.16,1.06,13.8,13.8,0,0,1-2.37.63,14.42,14.42,0,0,1-2.43.21,11.23,11.23,0,0,1-4.24-.78,9.33,9.33,0,0,1-3.35-2.28,10.48,10.48,0,0,1-2.2-3.71,15.18,15.18,0,0,1-.79-5.08,13,13,0,0,1,.71-4.33,10.29,10.29,0,0,1,2-3.49,9.36,9.36,0,0,1,3.26-2.32A10.77,10.77,0,0,1,956.35,1050.71Zm.08,2.87a6,6,0,0,0-4.44,1.63,7.68,7.68,0,0,0-2,4.52H962a8.12,8.12,0,0,0-.37-2.48,5.65,5.65,0,0,0-1.1-2,4.88,4.88,0,0,0-1.76-1.27A5.94,5.94,0,0,0,956.43,1053.58Z" style="fill:#0a2540;stroke:#0a2540;stroke-width:0.5px"/><path d="M967.14,1051.07h3.19a1.2,1.2,0,0,1,.77.24,1.42,1.42,0,0,1,.44.57l5.62,14.27a10.51,10.51,0,0,1,.49,1.57c.11.53.22,1,.32,1.56.12-.51.24-1,.38-1.56a11.88,11.88,0,0,1,.5-1.57l5.69-14.27a1.33,1.33,0,0,1,.43-.59,1.15,1.15,0,0,1,.73-.22h3l-9,22.17h-3.52Z" style="fill:#0a2540;stroke:#0a2540;stroke-width:0.5px"/><path d="M997.56,1044.1a2.42,2.42,0,0,1-.23,1.07,2.91,2.91,0,0,1-.61.87,2.59,2.59,0,0,1-.89.6,2.56,2.56,0,0,1-1.07.22,2.52,2.52,0,0,1-1.06-.22,2.61,2.61,0,0,1-.87-.6,2.91,2.91,0,0,1-.61-.87,2.73,2.73,0,0,1-.22-1.07,2.86,2.86,0,0,1,.22-1.08,2.9,2.9,0,0,1,1.48-1.5,2.68,2.68,0,0,1,1.06-.22,2.73,2.73,0,0,1,1.07.22,2.85,2.85,0,0,1,1.5,1.5A2.53,2.53,0,0,1,997.56,1044.1Zm-.87,7v22.17h-3.9v-22.17Z" style="fill:#0a2540;stroke:#0a2540;stroke-width:0.5px"/><path d="M1018.69,1055a2.11,2.11,0,0,1-.35.37.91.91,0,0,1-.51.13,1.29,1.29,0,0,1-.71-.27,8.85,8.85,0,0,0-1-.61,7.91,7.91,0,0,0-1.44-.6,6.82,6.82,0,0,0-2.06-.27,6.69,6.69,0,0,0-2.87.58,5.48,5.48,0,0,0-2.09,1.67,7.59,7.59,0,0,0-1.27,2.65,14.23,14.23,0,0,0,0,7.06,8,8,0,0,0,1.29,2.63,5.7,5.7,0,0,0,2,1.62,6.27,6.27,0,0,0,2.68.56,6.46,6.46,0,0,0,3.87-1.1c.41-.28.75-.53,1-.75a1.2,1.2,0,0,1,.79-.34.82.82,0,0,1,.74.37l1.1,1.42a8.44,8.44,0,0,1-3.61,2.59,12.78,12.78,0,0,1-4.58.83,9.67,9.67,0,0,1-3.86-.77,8.84,8.84,0,0,1-3.1-2.22,10.47,10.47,0,0,1-2.07-3.58,15.74,15.74,0,0,1-.06-9.41,10.5,10.5,0,0,1,2-3.63,9.13,9.13,0,0,1,3.27-2.37,11,11,0,0,1,4.47-.86,10.57,10.57,0,0,1,4.11.76,9.93,9.93,0,0,1,3.18,2.13Z" style="fill:#0a2540;stroke:#0a2540;stroke-width:0.5px"/><path d="M1032.78,1050.71a10,10,0,0,1,3.68.67,8.28,8.28,0,0,1,2.91,1.93,8.71,8.71,0,0,1,1.92,3.11,12,12,0,0,1,.69,4.21,2.59,2.59,0,0,1-.2,1.23.82.82,0,0,1-.74.3h-14.76a12.33,12.33,0,0,0,.57,3.66,7.29,7.29,0,0,0,1.45,2.59,5.76,5.76,0,0,0,2.19,1.56,7.52,7.52,0,0,0,2.84.51,8.24,8.24,0,0,0,2.53-.34,11.6,11.6,0,0,0,1.83-.73,14.53,14.53,0,0,0,1.28-.73,1.66,1.66,0,0,1,.88-.34.86.86,0,0,1,.75.37l1.09,1.42a7.47,7.47,0,0,1-1.73,1.52,10.48,10.48,0,0,1-2.15,1.06,13.67,13.67,0,0,1-2.38.63,14.24,14.24,0,0,1-2.43.21,11.21,11.21,0,0,1-4.23-.78,9.33,9.33,0,0,1-3.35-2.28,10.33,10.33,0,0,1-2.2-3.71,14.93,14.93,0,0,1-.79-5.08,13,13,0,0,1,.71-4.33,10.29,10.29,0,0,1,2.05-3.49,9.36,9.36,0,0,1,3.26-2.32A10.72,10.72,0,0,1,1032.78,1050.71Zm.09,2.87a6,6,0,0,0-4.44,1.63,7.75,7.75,0,0,0-2,4.52h12.07a7.82,7.82,0,0,0-.38-2.48,5.63,5.63,0,0,0-1.09-2,4.88,4.88,0,0,0-1.76-1.27A6,6,0,0,0,1032.87,1053.58Z" style="fill:#0a2540;stroke:#0a2540;stroke-width:0.5px"/><path d="M1081.82,1073.24h-3.29a1.48,1.48,0,0,1-.92-.28,1.75,1.75,0,0,1-.52-.73l-2.94-7.57h-14.07l-2.93,7.57a1.7,1.7,0,0,1-.53.7,1.37,1.37,0,0,1-.92.31h-3.28l12.54-31.37h4.31Zm-20.56-11.65H1073l-4.92-12.76a23.09,23.09,0,0,1-.94-2.95c-.16.6-.32,1.15-.47,1.65s-.31,1-.45,1.32Z" style="fill:#0a2540;stroke:#0a2540;stroke-width:0.5px"/><rect x="926.82" y="687.19" width="139.73" height="139.73" rx="29.41" style="fill:#f5f9fb"/><path d="M1037.15,688.19a28.43,28.43,0,0,1,28.4,28.4v80.93a28.43,28.43,0,0,1-28.4,28.4H956.23a28.43,28.43,0,0,1-28.41-28.4V716.59a28.43,28.43,0,0,1,28.41-28.4h80.92m0-2H956.23a30.41,30.41,0,0,0-30.41,30.4v80.93a30.41,30.41,0,0,0,30.41,30.4h80.92a30.4,30.4,0,0,0,30.4-30.4V716.59a30.4,30.4,0,0,0-30.4-30.4Z" style="fill:#7f96a5"/><path d="M987.25,739.41H984a1.48,1.48,0,0,1-.92-.28,1.75,1.75,0,0,1-.52-.73l-2.94-7.57H965.52l-2.94,7.57a1.59,1.59,0,0,1-.52.7,1.38,1.38,0,0,1-.92.31h-3.28L970.4,708h4.31ZM966.7,727.76h11.71L973.49,715a24.63,24.63,0,0,1-1-3c-.16.6-.31,1.15-.47,1.65s-.3.95-.44,1.32Z" style="fill:#0a2540"/><path d="M990.6,746.92V717.24h2.32a1,1,0,0,1,1.05.8l.33,2.63a11.88,11.88,0,0,1,3.25-2.78,8.34,8.34,0,0,1,4.22-1,8.15,8.15,0,0,1,3.46.73,7.23,7.23,0,0,1,2.64,2.17,10.33,10.33,0,0,1,1.69,3.56,18.38,18.38,0,0,1,.59,4.88,15.18,15.18,0,0,1-.66,4.56,10.93,10.93,0,0,1-1.88,3.66,8.79,8.79,0,0,1-3,2.43,8.93,8.93,0,0,1-4,.89,8.29,8.29,0,0,1-3.51-.68,8,8,0,0,1-2.57-1.93v9.81Zm9.88-26.93a6.3,6.3,0,0,0-3.34.88,9.54,9.54,0,0,0-2.64,2.47v10.73a6.22,6.22,0,0,0,2.35,2,6.69,6.69,0,0,0,2.86.6,5.58,5.58,0,0,0,4.75-2.22,10.3,10.3,0,0,0,1.66-6.3,16.07,16.07,0,0,0-.38-3.72,7.15,7.15,0,0,0-1.11-2.55,4.36,4.36,0,0,0-1.77-1.46A6,6,0,0,0,1000.48,720Z" style="fill:#0a2540"/><path d="M1014.77,746.92V717.24h2.32a1,1,0,0,1,1,.8l.33,2.63a11.88,11.88,0,0,1,3.25-2.78,8.3,8.3,0,0,1,4.21-1,8.15,8.15,0,0,1,3.46.73,7.18,7.18,0,0,1,2.65,2.17,10.32,10.32,0,0,1,1.68,3.56,18,18,0,0,1,.6,4.88,15.18,15.18,0,0,1-.66,4.56,11.31,11.31,0,0,1-1.88,3.66,8.79,8.79,0,0,1-3,2.43,8.93,8.93,0,0,1-4,.89,8.29,8.29,0,0,1-3.51-.68,8,8,0,0,1-2.57-1.93v9.81Zm9.87-26.93a6.33,6.33,0,0,0-3.34.88,9.65,9.65,0,0,0-2.63,2.47v10.73a6.15,6.15,0,0,0,2.35,2,6.61,6.61,0,0,0,2.85.6,5.57,5.57,0,0,0,4.75-2.22,10.3,10.3,0,0,0,1.67-6.3,16.07,16.07,0,0,0-.38-3.72,7.33,7.33,0,0,0-1.11-2.55,4.36,4.36,0,0,0-1.77-1.46A6,6,0,0,0,1024.64,720Z" style="fill:#0a2540"/><path d="M1011.42,799.71h-3.28a1.4,1.4,0,0,1-.92-.28,1.74,1.74,0,0,1-.53-.72l-2.93-7.58H989.68l-2.93,7.58a1.71,1.71,0,0,1-.52.69,1.38,1.38,0,0,1-.92.31H982l12.55-31.37h4.31Zm-20.55-11.64h11.71l-4.93-12.77a24.22,24.22,0,0,1-.94-2.95c-.16.6-.32,1.15-.47,1.65s-.3,1-.45,1.33Z" style="fill:#0a2540"/><rect x="1173.93" y="176.52" width="251.85" height="155.03" rx="22.93" style="fill:#fff"/><path d="M1402.85,332.56h-206a24,24,0,0,1-23.92-23.93V199.45a24,24,0,0,1,23.92-23.93h206a24,24,0,0,1,23.93,23.93V308.63A24,24,0,0,1,1402.85,332.56Zm-206-155a22,22,0,0,0-21.92,21.93V308.63a22,22,0,0,0,21.92,21.93h206a22,22,0,0,0,21.93-21.93V199.45a22,22,0,0,0-21.93-21.93Z" style="fill:#dae1ea"/><rect x="771.58" y="176.52" width="251.85" height="155.03" rx="22.93" style="fill:#fff"/><path d="M1000.51,332.56h-206a24,24,0,0,1-23.93-23.93V199.45a24,24,0,0,1,23.93-23.93h206a24,24,0,0,1,23.93,23.93V308.63A24,24,0,0,1,1000.51,332.56Zm-206-155a22,22,0,0,0-21.93,21.93V308.63a22,22,0,0,0,21.93,21.93h206a22,22,0,0,0,21.93-21.93V199.45a22,22,0,0,0-21.93-21.93Z" style="fill:#dae1ea"/><rect x="1576.27" y="176.52" width="251.85" height="155.03" rx="22.93" style="fill:#fff"/><path d="M1805.2,332.56h-206a24,24,0,0,1-23.93-23.93V199.45a24,24,0,0,1,23.93-23.93h206a24,24,0,0,1,23.93,23.93V308.63A24,24,0,0,1,1805.2,332.56Zm-206-155a22,22,0,0,0-21.93,21.93V308.63a22,22,0,0,0,21.93,21.93h206a22,22,0,0,0,21.93-21.93V199.45a22,22,0,0,0-21.93-21.93Z" style="fill:#dae1ea"/><path d="M897.44,173.56l11-13.21a1.41,1.41,0,0,0-1.09-2.3h-22a1.4,1.4,0,0,0-1.09,2.3l11,13.21a1.4,1.4,0,0,0,2,.15C897.34,173.67,897.39,173.61,897.44,173.56Z" style="fill:#7f96a5;fill-rule:evenodd"/><path d="M1172.51,249.64l-13.21-11a1.41,1.41,0,0,0-2.3,1.1v22a1.41,1.41,0,0,0,2.3,1.09l13.21-11a1.39,1.39,0,0,0,.15-2A.75.75,0,0,0,1172.51,249.64Z" style="fill:#7f96a5;fill-rule:evenodd"/><path d="M1306.5,335.07l-11,13.22a1.41,1.41,0,0,0,.18,2,1.39,1.39,0,0,0,.91.32h22a1.4,1.4,0,0,0,1.41-1.38,1.37,1.37,0,0,0-.32-.91l-11-13.22a1.4,1.4,0,0,0-2-.15Z" style="fill:#7f96a5;fill-rule:evenodd"/><path d="M994.37,597.48l-11-13.21a1.39,1.39,0,0,1,.18-2,1.43,1.43,0,0,1,.91-.33h22a1.41,1.41,0,0,1,1.42,1.39,1.4,1.4,0,0,1-.33.91l-11,13.21a1.4,1.4,0,0,1-2,.16A1.14,1.14,0,0,1,994.37,597.48Z" style="fill:#635bff;fill-rule:evenodd"/><path d="M1640.76,597.48l-11-13.21a1.39,1.39,0,0,1,.18-2,1.43,1.43,0,0,1,.91-.33h22a1.41,1.41,0,0,1,1.42,1.39,1.4,1.4,0,0,1-.33.91l-11,13.21a1.4,1.4,0,0,1-2,.16A1.14,1.14,0,0,1,1640.76,597.48Z" style="fill:#635bff;fill-rule:evenodd"/><path d="M864.82,232.23v3.57H854.68v27.8h-4.25V235.8H840.26v-3.57Z" style="fill:#0a2540;stroke:#0a2540;stroke-width:0.5px"/><path d="M862.71,241.42h3.07a1.26,1.26,0,0,1,.79.24,1.19,1.19,0,0,1,.41.57l4.25,14.27c.12.53.23,1,.33,1.52s.19,1,.26,1.48c.12-.49.25-1,.39-1.48s.3-1,.46-1.52l4.69-14.36a1.09,1.09,0,0,1,.38-.54,1,1,0,0,1,.69-.22h1.69a1.12,1.12,0,0,1,.72.22,1.05,1.05,0,0,1,.39.54l4.58,14.36c.16.51.3,1,.42,1.51s.25,1,.37,1.47c.07-.48.16-1,.28-1.51s.24-1,.37-1.47l4.34-14.27a1.13,1.13,0,0,1,.41-.58,1.21,1.21,0,0,1,.72-.23h2.94l-7.18,22.18h-3.09c-.38,0-.64-.25-.79-.75l-4.9-15a7.21,7.21,0,0,1-.28-1c-.08-.35-.15-.69-.22-1-.08.33-.15.68-.22,1a8.54,8.54,0,0,1-.29,1l-5,15a.91.91,0,0,1-.89.75h-2.94Z" style="fill:#0a2540;stroke:#0a2540;stroke-width:0.5px"/><path d="M904.35,234.46a2.52,2.52,0,0,1-.23,1.06,3.19,3.19,0,0,1-.62.88,3,3,0,0,1-.88.6,2.63,2.63,0,0,1-1.07.22,2.56,2.56,0,0,1-1.07-.22,3.07,3.07,0,0,1-.87-.6,2.75,2.75,0,0,1-.6-.88,2.52,2.52,0,0,1-.22-1.06,2.64,2.64,0,0,1,.22-1.08,2.84,2.84,0,0,1,1.47-1.5,2.56,2.56,0,0,1,1.07-.22,2.74,2.74,0,0,1,2,.82,3.14,3.14,0,0,1,.62.9A2.65,2.65,0,0,1,904.35,234.46Zm-.88,7V263.6h-3.89V241.42Z" style="fill:#0a2540;stroke:#0a2540;stroke-width:0.5px"/><path d="M910.34,263.6V241.42h2.33a1,1,0,0,1,1.05.81l.3,2.41a12.32,12.32,0,0,1,3.23-2.58,8.38,8.38,0,0,1,4.13-1,8,8,0,0,1,3.2.6,6.24,6.24,0,0,1,2.32,1.71,7.7,7.7,0,0,1,1.42,2.66,11.63,11.63,0,0,1,.48,3.44V263.6h-3.9V249.48a6,6,0,0,0-1.15-3.91,4.28,4.28,0,0,0-3.51-1.39A6.61,6.61,0,0,0,917,245a10.8,10.8,0,0,0-2.77,2.26V263.6Z" style="fill:#0a2540;stroke:#0a2540;stroke-width:0.5px"/><path d="M946.22,260.62H953V239.23c0-.64,0-1.29.07-1.95l-5.6,4.8a1.53,1.53,0,0,1-.44.25,1.35,1.35,0,0,1-.42.08,1.18,1.18,0,0,1-.59-.15.94.94,0,0,1-.39-.34l-1.23-1.68,9.33-8.08h3.17v28.46H963v3H946.22Z" style="fill:#0a2540;stroke:#0a2540;stroke-width:0.5px"/><path d="M1266.88,232.23v3.57h-10.13v27.8h-4.25V235.8h-10.18v-3.57Z" style="fill:#0a2540;stroke:#0a2540;stroke-width:0.5px"/><path d="M1264.78,241.42h3.07a1.21,1.21,0,0,1,.78.24,1.15,1.15,0,0,1,.42.57l4.25,14.27c.11.53.22,1,.33,1.52s.18,1,.26,1.48c.11-.49.25-1,.39-1.48s.3-1,.46-1.52l4.69-14.36a1.09,1.09,0,0,1,.38-.54,1,1,0,0,1,.69-.22h1.68a1.13,1.13,0,0,1,.73.22,1.11,1.11,0,0,1,.39.54l4.58,14.36c.16.51.3,1,.42,1.51s.25,1,.36,1.47c.08-.48.17-1,.29-1.51s.24-1,.37-1.47l4.33-14.27a1.21,1.21,0,0,1,.42-.58,1.17,1.17,0,0,1,.72-.23h2.93l-7.18,22.18h-3.08c-.38,0-.64-.25-.79-.75l-4.9-15a8.94,8.94,0,0,1-.29-1c-.07-.35-.14-.69-.22-1-.07.33-.14.68-.22,1a7,7,0,0,1-.28,1l-5,15a.91.91,0,0,1-.9.75H1272Z" style="fill:#0a2540;stroke:#0a2540;stroke-width:0.5px"/><path d="M1306.42,234.46a2.39,2.39,0,0,1-.24,1.06,2.93,2.93,0,0,1-1.49,1.48,2.64,2.64,0,0,1-1.08.22,2.52,2.52,0,0,1-1.06-.22,3,3,0,0,1-1.48-1.48,2.68,2.68,0,0,1-.22-1.06,2.82,2.82,0,0,1,.22-1.08,2.92,2.92,0,0,1,.61-.9,2.61,2.61,0,0,1,.87-.6,2.52,2.52,0,0,1,1.06-.22,2.74,2.74,0,0,1,2,.82,2.92,2.92,0,0,1,.61.9A2.51,2.51,0,0,1,1306.42,234.46Zm-.88,7V263.6h-3.9V241.42Z" style="fill:#0a2540;stroke:#0a2540;stroke-width:0.5px"/><path d="M1312.41,263.6V241.42h2.32a1,1,0,0,1,1,.81l.31,2.41a12.16,12.16,0,0,1,3.23-2.58,8.34,8.34,0,0,1,4.12-1,8,8,0,0,1,3.21.6,6.24,6.24,0,0,1,2.32,1.71,7.52,7.52,0,0,1,1.41,2.66,11.63,11.63,0,0,1,.48,3.44V263.6H1327V249.48a6,6,0,0,0-1.15-3.91,4.29,4.29,0,0,0-3.51-1.39,6.58,6.58,0,0,0-3.23.83,10.63,10.63,0,0,0-2.77,2.26V263.6Z" style="fill:#0a2540;stroke:#0a2540;stroke-width:0.5px"/><path d="M1355.16,231.88a11.51,11.51,0,0,1,3.72.59,8.49,8.49,0,0,1,3,1.72,7.94,7.94,0,0,1,2,2.74,9,9,0,0,1,.72,3.68,9.66,9.66,0,0,1-.52,3.24,13.61,13.61,0,0,1-1.42,2.86,21.86,21.86,0,0,1-2.07,2.65q-1.17,1.27-2.49,2.61l-8.25,8.45a15.5,15.5,0,0,1,1.77-.38,10.51,10.51,0,0,1,1.73-.14h10.51a1.37,1.37,0,0,1,1,.37,1.34,1.34,0,0,1,.37,1v2.37h-20.93v-1.34a2.38,2.38,0,0,1,.17-.85,2.19,2.19,0,0,1,.53-.81l10-10.09c.83-.85,1.59-1.66,2.28-2.44a18.27,18.27,0,0,0,1.76-2.36,11.26,11.26,0,0,0,1.13-2.39,8.52,8.52,0,0,0,.39-2.6,6.26,6.26,0,0,0-.44-2.42,4.75,4.75,0,0,0-1.2-1.72,5,5,0,0,0-1.8-1,6.87,6.87,0,0,0-2.21-.34,6.45,6.45,0,0,0-2.19.35,6,6,0,0,0-1.78,1,5.79,5.79,0,0,0-1.31,1.48,5.85,5.85,0,0,0-.76,1.88,1.8,1.8,0,0,1-.52.92,1.43,1.43,0,0,1-.92.29l-.23,0-.28,0-2-.35a11.6,11.6,0,0,1,1.18-3.8,9,9,0,0,1,2.22-2.77,9.47,9.47,0,0,1,3.09-1.69A11.69,11.69,0,0,1,1355.16,231.88Z" style="fill:#0a2540;stroke:#0a2540;stroke-width:0.5px"/><path d="M1665.57,232.23v3.57h-10.13v27.8h-4.25V235.8H1641v-3.57Z" style="fill:#0a2540;stroke:#0a2540;stroke-width:0.5px"/><path d="M1663.47,241.42h3.06a1.22,1.22,0,0,1,.79.24,1.15,1.15,0,0,1,.42.57L1672,256.5c.12.53.23,1,.33,1.52s.19,1,.27,1.48c.11-.49.24-1,.39-1.48s.3-1,.46-1.52l4.68-14.36a1.11,1.11,0,0,1,.39-.54,1,1,0,0,1,.69-.22h1.68a1.12,1.12,0,0,1,.72.22,1.07,1.07,0,0,1,.4.54l4.57,14.36c.16.51.31,1,.43,1.51s.24,1,.36,1.47c.07-.48.17-1,.29-1.51s.24-1,.37-1.47l4.33-14.27a1.15,1.15,0,0,1,.42-.58,1.17,1.17,0,0,1,.72-.23h2.93l-7.18,22.18h-3.08c-.38,0-.65-.25-.79-.75l-4.9-15a7.25,7.25,0,0,1-.29-1c-.07-.35-.14-.69-.22-1-.07.33-.14.68-.22,1a7,7,0,0,1-.28,1l-5,15a.91.91,0,0,1-.9.75h-2.93Z" style="fill:#0a2540;stroke:#0a2540;stroke-width:0.5px"/><path d="M1705.1,234.46a2.38,2.38,0,0,1-.23,1.06,3,3,0,0,1-.61.88,3,3,0,0,1-.89.6,2.56,2.56,0,0,1-1.07.22,2.52,2.52,0,0,1-1.06-.22,2.86,2.86,0,0,1-1.48-1.48,2.68,2.68,0,0,1-.22-1.06,2.82,2.82,0,0,1,.22-1.08,3.08,3.08,0,0,1,.6-.9,2.75,2.75,0,0,1,.88-.6,2.52,2.52,0,0,1,1.06-.22,2.56,2.56,0,0,1,1.07.22,2.69,2.69,0,0,1,.89.6,2.92,2.92,0,0,1,.61.9A2.5,2.5,0,0,1,1705.1,234.46Zm-.87,7V263.6h-3.9V241.42Z" style="fill:#0a2540;stroke:#0a2540;stroke-width:0.5px"/><path d="M1711.1,263.6V241.42h2.32a1,1,0,0,1,1,.81l.31,2.41a12.16,12.16,0,0,1,3.23-2.58,8.34,8.34,0,0,1,4.12-1,8.06,8.06,0,0,1,3.21.6,6.24,6.24,0,0,1,2.32,1.71,7.52,7.52,0,0,1,1.41,2.66,11.63,11.63,0,0,1,.48,3.44V263.6h-3.89V249.48a6,6,0,0,0-1.15-3.91,4.3,4.3,0,0,0-3.52-1.39,6.54,6.54,0,0,0-3.22.83,10.63,10.63,0,0,0-2.77,2.26V263.6Z" style="fill:#0a2540;stroke:#0a2540;stroke-width:0.5px"/><path d="M1754.27,231.88a11.39,11.39,0,0,1,3.67.57,8.52,8.52,0,0,1,2.9,1.62,7.25,7.25,0,0,1,1.9,2.54,7.89,7.89,0,0,1,.68,3.3,8.41,8.41,0,0,1-.39,2.66,6.44,6.44,0,0,1-1.09,2.06,6.71,6.71,0,0,1-1.72,1.5,9.08,9.08,0,0,1-2.26,1,8.5,8.5,0,0,1,4.61,2.72,7.33,7.33,0,0,1,1.55,4.77,9,9,0,0,1-.83,3.9,8.66,8.66,0,0,1-2.24,2.94,10,10,0,0,1-3.31,1.86,12.58,12.58,0,0,1-4.07.65,12.75,12.75,0,0,1-4.26-.63,8.62,8.62,0,0,1-3-1.72,9.18,9.18,0,0,1-2-2.59,19.38,19.38,0,0,1-1.33-3.25l1.66-.7a2.35,2.35,0,0,1,.92-.2,1.55,1.55,0,0,1,.78.19,1.17,1.17,0,0,1,.51.58l.09.18.09.21c.2.43.45.9.74,1.44A6.28,6.28,0,0,0,1749,259a6.67,6.67,0,0,0,1.85,1.18,7,7,0,0,0,2.75.48,7.15,7.15,0,0,0,2.88-.54,6.39,6.39,0,0,0,2.06-1.39,5.8,5.8,0,0,0,1.23-1.9,5.6,5.6,0,0,0,.42-2.08,7.39,7.39,0,0,0-.34-2.32,4,4,0,0,0-1.22-1.82,6.35,6.35,0,0,0-2.46-1.2,15.29,15.29,0,0,0-4-.44v-2.85a12.08,12.08,0,0,0,3.4-.41,6.74,6.74,0,0,0,2.31-1.14,4.2,4.2,0,0,0,1.3-1.73,5.9,5.9,0,0,0,.41-2.23,6.15,6.15,0,0,0-.43-2.37,4.57,4.57,0,0,0-1.17-1.66,4.74,4.74,0,0,0-1.76-1,7.14,7.14,0,0,0-2.2-.33,6.45,6.45,0,0,0-2.19.35,5.65,5.65,0,0,0-3.09,2.46,7.06,7.06,0,0,0-.79,1.87,1.73,1.73,0,0,1-.52.92,1.44,1.44,0,0,1-.9.28h-.23l-.27,0-2-.35a11.84,11.84,0,0,1,1.18-3.8,9.09,9.09,0,0,1,5.31-4.46A11.71,11.71,0,0,1,1754.27,231.88Z" style="fill:#0a2540;stroke:#0a2540;stroke-width:0.5px"/><path d="M1742.14,471.39H895.74a2,2,0,0,1-2-2V339.22a2,2,0,0,1,4,0V467.39h842.4V339.22a2,2,0,0,1,4,0V469.39A2,2,0,0,1,1742.14,471.39Z" style="fill:#635bff"/><path d="M1280.43,471.3a2,2,0,0,1-2-2V337.53a2,2,0,0,1,4,0V469.3A2,2,0,0,1,1280.43,471.3Z" style="fill:#635bff"/><path d="M995.68,592.77a2,2,0,0,1-2-2V471.55a2,2,0,0,1,4,0V590.77A2,2,0,0,1,995.68,592.77Z" style="fill:#635bff"/><path d="M1642.14,592.77a2,2,0,0,1-2-2V471.55a2,2,0,1,1,4,0V590.77A2,2,0,0,1,1642.14,592.77Z" style="fill:#635bff"/></g></svg>