<svg version="1.1" id="a90075be-da97-40e7-b3e6-59f25b260394" xmlns="http://www.w3.org/2000/svg" x="0" y="0" viewBox="0 0 1366 768" xml:space="preserve"><style>.st2{fill:none}.st3{fill:#fff}.st4{fill:#425468}</style><path fill="#181d27" d="M0 0h1366v768H0z"/><g opacity=".3"><path class="st2" d="M102.7 0H359.3V768 0H1180.5V768 0h185.3v-2H0v2h51.3z"/><path class="st2" d="M1334.5 51.3h31.3V0h-31.3v51.3zm25.7-28.1c3.2 0 3.2 4.9 0 4.9s-3.2-4.9 0-4.9z"/><path class="st3" d="M1360.2 28.1c3.2 0 3.2-4.9 0-4.9s-3.2 4.9 0 4.9z"/><path class="st2" d="M1334.5 102.7h31.3V51.3h-31.3v51.4zm25.7-28.2c3.2 0 3.2 4.9 0 4.9-3.2.1-3.2-4.9 0-4.9z"/><path class="st3" d="M1360.2 79.4c3.2 0 3.2-4.9 0-4.9s-3.2 5 0 4.9z"/><path class="st2" d="M1334.5 154h31.3v-51.3h-31.3V154zm25.7-28.1c3.2 0 3.2 4.9 0 4.9s-3.2-5 0-4.9z"/><path class="st3" d="M1360.2 130.8c3.2 0 3.2-4.9 0-4.9-3.2-.1-3.2 4.9 0 4.9z"/><path class="st2" d="M1334.5 205.3h31.3V154h-31.3v51.3zm25.7-28.1c3.2 0 3.2 4.9 0 4.9s-3.2-4.9 0-4.9z"/><path class="st3" d="M1360.2 182.1c3.2 0 3.2-4.9 0-4.9s-3.2 4.9 0 4.9z"/><path class="st2" d="M1334.5 256.6h31.3v-51.3h-31.3v51.3zm25.7-28.1c3.2 0 3.2 4.9 0 4.9-3.2.1-3.2-4.9 0-4.9z"/><path class="st3" d="M1360.2 233.4c3.2 0 3.2-4.9 0-4.9s-3.2 5 0 4.9z"/><path class="st2" d="M1334.5 308h31.3v-51.3h-31.3V308zm25.7-28.1c3.2 0 3.2 4.9 0 4.9s-3.2-5 0-4.9z"/><path class="st3" d="M1360.2 284.7c3.2 0 3.2-4.9 0-4.9s-3.2 5 0 4.9z"/><path class="st2" d="M1334.5 359.3h31.3V308h-31.3v51.3zm25.7-28.1c3.2 0 3.2 4.9 0 4.9s-3.2-5 0-4.9z"/><path class="st3" d="M1360.2 336.1c3.2 0 3.2-4.9 0-4.9-3.2-.1-3.2 4.9 0 4.9z"/><path class="st2" d="M1334.5 410.6h31.3v-51.3h-31.3v51.3zm25.7-28.1c3.2 0 3.2 4.9 0 4.9s-3.2-4.9 0-4.9z"/><path class="st3" d="M1360.2 387.4c3.2 0 3.2-4.9 0-4.9s-3.2 4.9 0 4.9z"/><path class="st2" d="M1334.5 461.9h31.3v-51.3h-31.3v51.3zm25.7-28.1c3.2 0 3.2 4.9 0 4.9-3.2.1-3.2-4.9 0-4.9z"/><path class="st3" d="M1360.2 438.7c3.2 0 3.2-4.9 0-4.9s-3.2 5 0 4.9z"/><path class="st2" d="M1334.5 513.3h31.3V462h-31.3v51.3zm25.7-28.1c3.2 0 3.2 4.9 0 4.9s-3.2-5 0-4.9z"/><path class="st3" d="M1360.2 490c3.2 0 3.2-4.9 0-4.9s-3.2 5 0 4.9z"/><path class="st2" d="M1334.5 564.6h31.3v-51.3h-31.3v51.3zm25.7-28.1c3.2 0 3.2 4.9 0 4.9s-3.2-5 0-4.9z"/><path class="st3" d="M1360.2 541.4c3.2 0 3.2-4.9 0-4.9-3.2-.1-3.2 4.9 0 4.9z"/><path class="st2" d="M1334.5 615.9h31.3v-51.3h-31.3v51.3zm25.7-28.1c3.2 0 3.2 4.9 0 4.9s-3.2-4.9 0-4.9z"/><path class="st3" d="M1360.2 592.7c3.2 0 3.2-4.9 0-4.9s-3.2 4.9 0 4.9z"/><path class="st2" d="M1334.5 667.2h31.3v-51.3h-31.3v51.3zm25.7-28c3.2 0 3.2 4.9 0 4.9s-3.2-5 0-4.9z"/><path class="st3" d="M1360.2 644c3.2 0 3.2-4.9 0-4.9s-3.2 5 0 4.9z"/><path class="st2" d="M1334.5 718.6h31.3v-51.3h-31.3v51.3zm25.7-28.1c3.2 0 3.2 4.9 0 4.9s-3.2-5 0-4.9z"/><path class="st3" d="M1360.2 695.3c3.2 0 3.2-4.9 0-4.9s-3.2 5 0 4.9z"/><path class="st2" d="M1334.5 768h31.3v-49.4h-31.3V768zm25.7-26.2c3.2 0 3.2 4.9 0 4.9s-3.2-4.9 0-4.9z"/><path class="st3" d="M1360.2 746.7c3.2 0 3.2-4.9 0-4.9s-3.2 4.9 0 4.9z"/><path class="st2" d="M1334.5 51.3V0h-51.3v51.3h51.3zm-25.7-28.1c3.2 0 3.2 4.9 0 4.9-3.1 0-3.1-4.9 0-4.9z"/><path class="st3" d="M1308.8 28.1c3.2 0 3.2-4.9 0-4.9-3.1 0-3.1 4.9 0 4.9z"/><path class="st2" d="M1283.2 102.7h51.3V51.3h-51.3v51.4zm25.6-28.2c3.2 0 3.2 4.9 0 4.9-3.1.1-3.1-4.9 0-4.9z"/><path class="st3" d="M1308.8 79.4c3.2 0 3.2-4.9 0-4.9-3.1 0-3.1 5 0 4.9z"/><path class="st2" d="M1283.2 154h51.3v-51.3h-51.3V154zm25.6-28.1c3.2 0 3.2 4.9 0 4.9-3.1 0-3.1-5 0-4.9z"/><path class="st3" d="M1308.8 130.8c3.2 0 3.2-4.9 0-4.9-3.1-.1-3.1 4.9 0 4.9z"/><path class="st2" d="M1283.2 205.3h51.3V154h-51.3v51.3zm25.6-28.1c3.2 0 3.2 4.9 0 4.9-3.1 0-3.1-4.9 0-4.9z"/><path class="st3" d="M1308.8 182.1c3.2 0 3.2-4.9 0-4.9-3.1 0-3.1 4.9 0 4.9z"/><path class="st2" d="M1283.2 256.6h51.3v-51.3h-51.3v51.3zm25.6-28.1c3.2 0 3.2 4.9 0 4.9-3.1.1-3.1-4.9 0-4.9z"/><path class="st3" d="M1308.8 233.4c3.2 0 3.2-4.9 0-4.9-3.1 0-3.1 5 0 4.9z"/><path class="st2" d="M1283.2 308h51.3v-51.3h-51.3V308zm25.6-28.1c3.2 0 3.2 4.9 0 4.9-3.1 0-3.1-5 0-4.9z"/><path class="st3" d="M1308.8 284.7c3.2 0 3.2-4.9 0-4.9-3.1 0-3.1 5 0 4.9z"/><path class="st2" d="M1283.2 359.3h51.3V308h-51.3v51.3zm25.6-28.1c3.2 0 3.2 4.9 0 4.9-3.1 0-3.1-5 0-4.9z"/><path class="st3" d="M1308.8 336.1c3.2 0 3.2-4.9 0-4.9-3.1-.1-3.1 4.9 0 4.9z"/><path class="st2" d="M1283.2 410.6h51.3v-51.3h-51.3v51.3zm25.6-28.1c3.2 0 3.2 4.9 0 4.9-3.1 0-3.1-4.9 0-4.9z"/><path class="st3" d="M1308.8 387.4c3.2 0 3.2-4.9 0-4.9-3.1 0-3.1 4.9 0 4.9z"/><path class="st2" d="M1283.2 461.9h51.3v-51.3h-51.3v51.3zm25.6-28.1c3.2 0 3.2 4.9 0 4.9-3.1.1-3.1-4.9 0-4.9z"/><path class="st3" d="M1308.8 438.7c3.2 0 3.2-4.9 0-4.9-3.1 0-3.1 5 0 4.9z"/><path class="st2" d="M1283.2 513.3h51.3V462h-51.3v51.3zm25.6-28.1c3.2 0 3.2 4.9 0 4.9-3.1 0-3.1-5 0-4.9z"/><path class="st3" d="M1308.8 490c3.2 0 3.2-4.9 0-4.9-3.1 0-3.1 5 0 4.9z"/><path class="st2" d="M1283.2 564.6h51.3v-51.3h-51.3v51.3zm25.6-28.1c3.2 0 3.2 4.9 0 4.9-3.1 0-3.1-5 0-4.9z"/><path class="st3" d="M1308.8 541.4c3.2 0 3.2-4.9 0-4.9-3.1-.1-3.1 4.9 0 4.9z"/><path class="st2" d="M1283.2 615.9h51.3v-51.3h-51.3v51.3zm25.6-28.1c3.2 0 3.2 4.9 0 4.9-3.1 0-3.1-4.9 0-4.9z"/><path class="st3" d="M1308.8 592.7c3.2 0 3.2-4.9 0-4.9-3.1 0-3.1 4.9 0 4.9z"/><path class="st2" d="M1283.2 667.2h51.3v-51.3h-51.3v51.3zm25.6-28c3.2 0 3.2 4.9 0 4.9-3.1 0-3.1-5 0-4.9z"/><path class="st3" d="M1308.8 644c3.2 0 3.2-4.9 0-4.9-3.1 0-3.1 5 0 4.9z"/><path class="st2" d="M1283.2 718.6h51.3v-51.3h-51.3v51.3zm25.6-28.1c3.2 0 3.2 4.9 0 4.9-3.1 0-3.1-5 0-4.9z"/><path class="st3" d="M1308.8 695.3c3.2 0 3.2-4.9 0-4.9-3.1 0-3.1 5 0 4.9z"/><path class="st2" d="M1283.2 718.6V768h51.3v-49.4h-51.3zm25.6 28.1c-3.2 0-3.2-4.9 0-4.9s3.2 4.9 0 4.9z"/><path class="st3" d="M1308.8 741.8c-3.2 0-3.2 4.9 0 4.9s3.2-4.9 0-4.9z"/><path class="st2" d="M1283.2 51.3V0h-51.3v51.3h51.3zm-25.7-28.1c3.2 0 3.2 4.9 0 4.9s-3.2-4.9 0-4.9z"/><path class="st3" d="M1257.5 28.1c3.2 0 3.2-4.9 0-4.9s-3.2 4.9 0 4.9z"/><path class="st2" d="M1283.2 51.3h-51.3v51.3h51.3V51.3zm-25.7 28.1c-3.2 0-3.2-4.9 0-4.9s3.2 5 0 4.9z"/><path class="st3" d="M1257.5 74.5c-3.2 0-3.2 4.9 0 4.9 3.2.1 3.2-4.9 0-4.9z"/><path class="st2" d="M1283.2 102.7h-51.3V154h51.3v-51.3zm-25.7 28.1c-3.2 0-3.2-4.9 0-4.9 3.2-.1 3.2 4.9 0 4.9z"/><path class="st3" d="M1257.5 125.9c-3.2 0-3.2 4.9 0 4.9s3.2-5 0-4.9z"/><path class="st2" d="M1283.2 154h-51.3v51.3h51.3V154zm-25.7 28.1c-3.2 0-3.2-4.9 0-4.9s3.2 4.9 0 4.9z"/><path class="st3" d="M1257.5 177.2c-3.2 0-3.2 4.9 0 4.9s3.2-4.9 0-4.9z"/><path class="st2" d="M1283.2 205.3h-51.3v51.3h51.3v-51.3zm-25.7 28.1c-3.2 0-3.2-4.9 0-4.9s3.2 5 0 4.9z"/><path class="st3" d="M1257.5 228.5c-3.2 0-3.2 4.9 0 4.9 3.2.1 3.2-4.9 0-4.9z"/><path class="st2" d="M1283.2 256.6h-51.3V308h51.3v-51.4zm-25.7 28.1c-3.2 0-3.2-4.9 0-4.9s3.2 5 0 4.9z"/><path class="st3" d="M1257.5 279.9c-3.2 0-3.2 4.9 0 4.9s3.2-5 0-4.9z"/><path class="st2" d="M1283.2 308h-51.3v51.3h51.3V308zm-25.7 28.1c-3.2 0-3.2-4.9 0-4.9 3.2-.1 3.2 4.9 0 4.9z"/><path class="st3" d="M1257.5 331.2c-3.2 0-3.2 4.9 0 4.9s3.2-5 0-4.9z"/><path class="st2" d="M1283.2 359.3h-51.3v51.3h51.3v-51.3zm-25.7 28.1c-3.2 0-3.2-4.9 0-4.9s3.2 4.9 0 4.9z"/><path class="st3" d="M1257.5 382.5c-3.2 0-3.2 4.9 0 4.9s3.2-4.9 0-4.9z"/><path class="st2" d="M1283.2 410.6h-51.3v51.3h51.3v-51.3zm-25.7 28.1c-3.2 0-3.2-4.9 0-4.9s3.2 5 0 4.9z"/><path class="st3" d="M1257.5 433.8c-3.2 0-3.2 4.9 0 4.9 3.2.1 3.2-4.9 0-4.9z"/><path class="st2" d="M1283.2 462h-51.3v51.3h51.3V462zm-25.7 28c-3.2 0-3.2-4.9 0-4.9s3.2 5 0 4.9z"/><path class="st3" d="M1257.5 485.2c-3.2 0-3.2 4.9 0 4.9s3.2-5 0-4.9z"/><path class="st2" d="M1283.2 513.3h-51.3v51.3h51.3v-51.3zm-25.7 28.1c-3.2 0-3.2-4.9 0-4.9 3.2-.1 3.2 4.9 0 4.9z"/><path class="st3" d="M1257.5 536.5c-3.2 0-3.2 4.9 0 4.9s3.2-5 0-4.9z"/><path class="st2" d="M1283.2 564.6h-51.3v51.3h51.3v-51.3zm-25.7 28.1c-3.2 0-3.2-4.9 0-4.9s3.2 4.9 0 4.9z"/><path class="st3" d="M1257.5 587.8c-3.2 0-3.2 4.9 0 4.9s3.2-4.9 0-4.9z"/><path class="st2" d="M1283.2 615.9h-51.3v51.3h51.3v-51.3zm-25.7 28.1c-3.2 0-3.2-4.9 0-4.9s3.2 5 0 4.9z"/><path class="st3" d="M1257.5 639.2c-3.2 0-3.2 4.9 0 4.9s3.2-5 0-4.9z"/><path class="st2" d="M1231.8 667.2v51.3h51.3v-51.3h-51.3zm25.7 28.1c-3.2 0-3.2-4.9 0-4.9s3.2 5 0 4.9z"/><path class="st3" d="M1257.5 690.5c-3.2 0-3.2 4.9 0 4.9s3.2-5 0-4.9z"/><path class="st2" d="M1231.8 718.6V768h51.3v-49.4h-51.3zm25.7 28.1c-3.2 0-3.2-4.9 0-4.9s3.2 4.9 0 4.9z"/><path class="st3" d="M1257.5 741.8c-3.2 0-3.2 4.9 0 4.9s3.2-4.9 0-4.9z"/><path class="st2" d="M1231.8 0h-51.3v51.3h51.3V0zm-25.6 28.1c-3.2 0-3.2-4.9 0-4.9 3.1 0 3.1 4.9 0 4.9z"/><path class="st3" d="M1206.2 23.2c-3.2 0-3.2 4.9 0 4.9 3.1 0 3.1-4.9 0-4.9z"/><path class="st2" d="M1231.8 51.3h-51.3v51.3h51.3V51.3zm-25.6 28.1c-3.2 0-3.2-4.9 0-4.9 3.1 0 3.1 5 0 4.9z"/><path class="st3" d="M1206.2 74.5c-3.2 0-3.2 4.9 0 4.9 3.1.1 3.1-4.9 0-4.9z"/><path class="st2" d="M1231.8 102.7h-51.3V154h51.3v-51.3zm-25.6 28.1c-3.2 0-3.2-4.9 0-4.9 3.1-.1 3.1 4.9 0 4.9z"/><path class="st3" d="M1206.2 125.9c-3.2 0-3.2 4.9 0 4.9 3.1 0 3.1-5 0-4.9z"/><path class="st2" d="M1231.8 154h-51.3v51.3h51.3V154zm-25.6 28.1c-3.2 0-3.2-4.9 0-4.9 3.1 0 3.1 4.9 0 4.9z"/><path class="st3" d="M1206.2 177.2c-3.2 0-3.2 4.9 0 4.9 3.1 0 3.1-4.9 0-4.9z"/><path class="st2" d="M1231.8 205.3h-51.3v51.3h51.3v-51.3zm-25.6 28.1c-3.2 0-3.2-4.9 0-4.9 3.1 0 3.1 5 0 4.9z"/><path class="st3" d="M1206.2 228.5c-3.2 0-3.2 4.9 0 4.9 3.1.1 3.1-4.9 0-4.9z"/><path class="st2" d="M1231.8 256.6h-51.3V308h51.3v-51.4zm-25.6 28.1c-3.2 0-3.2-4.9 0-4.9 3.1 0 3.1 5 0 4.9z"/><path class="st3" d="M1206.2 279.9c-3.2 0-3.2 4.9 0 4.9 3.1 0 3.1-5 0-4.9z"/><path class="st2" d="M1231.8 308h-51.3v51.3h51.3V308zm-25.6 28.1c-3.2 0-3.2-4.9 0-4.9 3.1-.1 3.1 4.9 0 4.9z"/><path class="st3" d="M1206.2 331.2c-3.2 0-3.2 4.9 0 4.9 3.1 0 3.1-5 0-4.9z"/><path class="st2" d="M1231.8 359.3h-51.3v51.3h51.3v-51.3zm-25.6 28.1c-3.2 0-3.2-4.9 0-4.9 3.1 0 3.1 4.9 0 4.9z"/><path class="st3" d="M1206.2 382.5c-3.2 0-3.2 4.9 0 4.9 3.1 0 3.1-4.9 0-4.9z"/><path class="st2" d="M1231.8 410.6h-51.3v51.3h51.3v-51.3zm-25.6 28.1c-3.2 0-3.2-4.9 0-4.9 3.1 0 3.1 5 0 4.9z"/><path class="st3" d="M1206.2 433.8c-3.2 0-3.2 4.9 0 4.9 3.1.1 3.1-4.9 0-4.9z"/><path class="st2" d="M1231.8 462h-51.3v51.3h51.3V462zm-25.6 28c-3.2 0-3.2-4.9 0-4.9 3.1 0 3.1 5 0 4.9z"/><path class="st3" d="M1206.2 485.2c-3.2 0-3.2 4.9 0 4.9 3.1 0 3.1-5 0-4.9z"/><path class="st2" d="M1231.8 513.3h-51.3v51.3h51.3v-51.3zm-25.6 28.1c-3.2 0-3.2-4.9 0-4.9 3.1-.1 3.1 4.9 0 4.9z"/><path class="st3" d="M1206.2 536.5c-3.2 0-3.2 4.9 0 4.9 3.1 0 3.1-5 0-4.9z"/><path class="st2" d="M1231.8 564.6h-51.3v51.3h51.3v-51.3zm-25.6 28.1c-3.2 0-3.2-4.9 0-4.9 3.1 0 3.1 4.9 0 4.9z"/><path class="st3" d="M1206.2 587.8c-3.2 0-3.2 4.9 0 4.9 3.1 0 3.1-4.9 0-4.9z"/><path class="st2" d="M1231.8 615.9h-51.3v51.3h51.3v-51.3zm-25.6 28.1c-3.2 0-3.2-4.9 0-4.9 3.1 0 3.1 5 0 4.9z"/><path class="st3" d="M1206.2 639.2c-3.2 0-3.2 4.9 0 4.9 3.1 0 3.1-5 0-4.9z"/><path class="st2" d="M1231.8 667.2h-51.3v51.3h51.3v-51.3zm-25.6 28.1c-3.2 0-3.2-4.9 0-4.9 3.1 0 3.1 5 0 4.9z"/><path class="st3" d="M1206.2 690.5c-3.2 0-3.2 4.9 0 4.9 3.1 0 3.1-5 0-4.9z"/><path class="st2" d="M1180.5 718.6V768h51.3v-49.4h-51.3zm25.7 28.1c-3.2 0-3.2-4.9 0-4.9 3.1 0 3.1 4.9 0 4.9z"/><path class="st3" d="M1206.2 741.8c-3.2 0-3.2 4.9 0 4.9 3.1 0 3.1-4.9 0-4.9z"/><path class="st2" d="M1180.5 51.3V0h-51.3v51.3h51.3zm-25.6-28.1c3.2 0 3.2 4.9 0 4.9s-3.2-4.9 0-4.9z"/><path class="st3" d="M1154.9 28.1c3.2 0 3.2-4.9 0-4.9s-3.2 4.9 0 4.9z"/><path class="st2" d="M1129.2 102.7h51.3V51.3h-51.3v51.4zm25.7-28.2c3.2 0 3.2 4.9 0 4.9-3.2.1-3.2-4.9 0-4.9z"/><path class="st3" d="M1154.9 79.4c3.2 0 3.2-4.9 0-4.9s-3.2 5 0 4.9z"/><path class="st2" d="M1129.2 154h51.3v-51.3h-51.3V154zm25.7-28.1c3.2 0 3.2 4.9 0 4.9s-3.2-5 0-4.9z"/><path class="st3" d="M1154.9 130.8c3.2 0 3.2-4.9 0-4.9-3.2-.1-3.2 4.9 0 4.9z"/><path class="st2" d="M1129.2 205.3h51.3V154h-51.3v51.3zm25.7-28.1c3.2 0 3.2 4.9 0 4.9s-3.2-4.9 0-4.9z"/><path class="st3" d="M1154.9 182.1c3.2 0 3.2-4.9 0-4.9s-3.2 4.9 0 4.9z"/><path class="st2" d="M1129.2 256.6h51.3v-51.3h-51.3v51.3zm25.7-28.1c3.2 0 3.2 4.9 0 4.9-3.2.1-3.2-4.9 0-4.9z"/><path class="st3" d="M1154.9 233.4c3.2 0 3.2-4.9 0-4.9s-3.2 5 0 4.9z"/><path class="st2" d="M1129.2 308h51.3v-51.3h-51.3V308zm25.7-28.1c3.2 0 3.2 4.9 0 4.9s-3.2-5 0-4.9z"/><path class="st3" d="M1154.9 284.7c3.2 0 3.2-4.9 0-4.9s-3.2 5 0 4.9z"/><path class="st2" d="M1129.2 359.3h51.3V308h-51.3v51.3zm25.7-28.1c3.2 0 3.2 4.9 0 4.9s-3.2-5 0-4.9z"/><path class="st3" d="M1154.9 336.1c3.2 0 3.2-4.9 0-4.9-3.2-.1-3.2 4.9 0 4.9z"/><path class="st2" d="M1129.2 410.6h51.3v-51.3h-51.3v51.3zm25.7-28.1c3.2 0 3.2 4.9 0 4.9s-3.2-4.9 0-4.9z"/><path class="st3" d="M1154.9 387.4c3.2 0 3.2-4.9 0-4.9s-3.2 4.9 0 4.9z"/><path class="st2" d="M1129.2 461.9h51.3v-51.3h-51.3v51.3zm25.7-28.1c3.2 0 3.2 4.9 0 4.9-3.2.1-3.2-4.9 0-4.9z"/><path class="st3" d="M1154.9 438.7c3.2 0 3.2-4.9 0-4.9s-3.2 5 0 4.9z"/><path class="st2" d="M1129.2 513.3h51.3V462h-51.3v51.3zm25.7-28.1c3.2 0 3.2 4.9 0 4.9s-3.2-5 0-4.9z"/><path class="st3" d="M1154.9 490c3.2 0 3.2-4.9 0-4.9s-3.2 5 0 4.9z"/><path class="st2" d="M1129.2 564.6h51.3v-51.3h-51.3v51.3zm25.7-28.1c3.2 0 3.2 4.9 0 4.9s-3.2-5 0-4.9z"/><path class="st3" d="M1154.9 541.4c3.2 0 3.2-4.9 0-4.9-3.2-.1-3.2 4.9 0 4.9z"/><path class="st2" d="M1129.2 615.9h51.3v-51.3h-51.3v51.3zm25.7-28.1c3.2 0 3.2 4.9 0 4.9s-3.2-4.9 0-4.9z"/><path class="st3" d="M1154.9 592.7c3.2 0 3.2-4.9 0-4.9s-3.2 4.9 0 4.9z"/><path class="st2" d="M1129.2 667.2h51.3v-51.3h-51.3v51.3zm25.7-28c3.2 0 3.2 4.9 0 4.9s-3.2-5 0-4.9z"/><path class="st3" d="M1154.9 644c3.2 0 3.2-4.9 0-4.9s-3.2 5 0 4.9z"/><path class="st2" d="M1129.2 718.6h51.3v-51.3h-51.3v51.3zm25.7-28.1c3.2 0 3.2 4.9 0 4.9s-3.2-5 0-4.9z"/><path class="st3" d="M1154.9 695.3c3.2 0 3.2-4.9 0-4.9s-3.2 5 0 4.9z"/><path class="st2" d="M1129.2 718.6V768h51.3v-49.4h-51.3zm25.7 28.1c-3.2 0-3.2-4.9 0-4.9 3.1 0 3.1 4.9 0 4.9z"/><path class="st3" d="M1154.9 741.8c-3.2 0-3.2 4.9 0 4.9 3.1 0 3.1-4.9 0-4.9z"/><path class="st2" d="M1129.2 51.3V0h-51.3v51.3h51.3zm-25.7-28.1c3.2 0 3.2 4.9 0 4.9-3.1 0-3.1-4.9 0-4.9z"/><path class="st3" d="M1103.5 28.1c3.2 0 3.2-4.9 0-4.9-3.1 0-3.1 4.9 0 4.9z"/><path class="st2" d="M1129.2 102.7V51.3h-51.3v51.3h51.3zm-25.7-28.2c3.2 0 3.2 4.9 0 4.9-3.1.1-3.1-4.9 0-4.9z"/><path class="st3" d="M1103.5 79.4c3.2 0 3.2-4.9 0-4.9-3.1 0-3.1 5 0 4.9z"/><path class="st2" d="M1077.9 154h51.3v-51.3h-51.3V154zm25.6-28.1c3.2 0 3.2 4.9 0 4.9-3.1 0-3.1-5 0-4.9z"/><path class="st3" d="M1103.5 130.8c3.2 0 3.2-4.9 0-4.9-3.1-.1-3.1 4.9 0 4.9z"/><path class="st2" d="M1077.9 205.3h51.3V154h-51.3v51.3zm25.6-28.1c3.2 0 3.2 4.9 0 4.9-3.1 0-3.1-4.9 0-4.9z"/><path class="st3" d="M1103.5 182.1c3.2 0 3.2-4.9 0-4.9-3.1 0-3.1 4.9 0 4.9z"/><path class="st2" d="M1077.9 256.6h51.3v-51.3h-51.3v51.3zm25.6-28.1c3.2 0 3.2 4.9 0 4.9-3.1.1-3.1-4.9 0-4.9z"/><path class="st3" d="M1103.5 233.4c3.2 0 3.2-4.9 0-4.9-3.1 0-3.1 5 0 4.9z"/><path class="st2" d="M1077.9 308h51.3v-51.3h-51.3V308zm25.6-28.1c3.2 0 3.2 4.9 0 4.9-3.1 0-3.1-5 0-4.9z"/><path class="st3" d="M1103.5 284.7c3.2 0 3.2-4.9 0-4.9-3.1 0-3.1 5 0 4.9z"/><path class="st2" d="M1077.9 359.3h51.3V308h-51.3v51.3zm25.6-28.1c3.2 0 3.2 4.9 0 4.9-3.1 0-3.1-5 0-4.9z"/><path class="st3" d="M1103.5 336.1c3.2 0 3.2-4.9 0-4.9-3.1-.1-3.1 4.9 0 4.9z"/><path class="st2" d="M1077.9 410.6h51.3v-51.3h-51.3v51.3zm25.6-28.1c3.2 0 3.2 4.9 0 4.9-3.1 0-3.1-4.9 0-4.9z"/><path class="st3" d="M1103.5 387.4c3.2 0 3.2-4.9 0-4.9-3.1 0-3.1 4.9 0 4.9z"/><path class="st2" d="M1077.9 461.9h51.3v-51.3h-51.3v51.3zm25.6-28.1c3.2 0 3.2 4.9 0 4.9-3.1.1-3.1-4.9 0-4.9z"/><path class="st3" d="M1103.5 438.7c3.2 0 3.2-4.9 0-4.9-3.1 0-3.1 5 0 4.9z"/><path class="st2" d="M1077.9 513.3h51.3V462h-51.3v51.3zm25.6-28.1c3.2 0 3.2 4.9 0 4.9-3.1 0-3.1-5 0-4.9z"/><path class="st3" d="M1103.5 490c3.2 0 3.2-4.9 0-4.9-3.1 0-3.1 5 0 4.9z"/><path class="st2" d="M1077.9 564.6h51.3v-51.3h-51.3v51.3zm25.6-28.1c3.2 0 3.2 4.9 0 4.9-3.1 0-3.1-5 0-4.9z"/><path class="st3" d="M1103.5 541.4c3.2 0 3.2-4.9 0-4.9-3.1-.1-3.1 4.9 0 4.9z"/><path class="st2" d="M1077.9 615.9h51.3v-51.3h-51.3v51.3zm25.6-28.1c3.2 0 3.2 4.9 0 4.9-3.1 0-3.1-4.9 0-4.9z"/><path class="st3" d="M1103.5 592.7c3.2 0 3.2-4.9 0-4.9-3.1 0-3.1 4.9 0 4.9z"/><path class="st2" d="M1077.9 615.9v51.3h51.3v-51.3h-51.3zm25.6 28.1c-3.2 0-3.2-4.9 0-4.9s3.2 5 0 4.9z"/><path class="st3" d="M1103.5 639.2c-3.2 0-3.2 4.9 0 4.9s3.2-5 0-4.9z"/><path class="st2" d="M1077.9 667.2v51.3h51.3v-51.3h-51.3zm25.6 28.1c-3.2 0-3.2-4.9 0-4.9s3.2 5 0 4.9z"/><path class="st3" d="M1103.5 690.5c-3.2 0-3.2 4.9 0 4.9s3.2-5 0-4.9z"/><path class="st2" d="M1077.9 718.6V768h51.3v-49.4h-51.3zm25.6 28.1c-3.2 0-3.2-4.9 0-4.9s3.2 4.9 0 4.9z"/><path class="st3" d="M1103.5 741.8c-3.2 0-3.2 4.9 0 4.9s3.2-4.9 0-4.9z"/><path class="st2" d="M1077.9 51.3V0h-51.3v51.3h51.3zm-25.7-28.1c3.2 0 3.2 4.9 0 4.9s-3.2-4.9 0-4.9z"/><path class="st3" d="M1052.2 28.1c3.2 0 3.2-4.9 0-4.9s-3.2 4.9 0 4.9z"/><path class="st2" d="M1077.9 102.7V51.3h-51.3v51.3h51.3zm-25.7-28.2c3.2 0 3.2 4.9 0 4.9-3.2.1-3.2-4.9 0-4.9z"/><path class="st3" d="M1052.2 79.4c3.2 0 3.2-4.9 0-4.9s-3.2 5 0 4.9z"/><path class="st2" d="M1077.9 154v-51.3h-51.3V154h51.3zm-25.7-28.1c3.2 0 3.2 4.9 0 4.9s-3.2-5 0-4.9z"/><path class="st3" d="M1052.2 130.8c3.2 0 3.2-4.9 0-4.9-3.2-.1-3.2 4.9 0 4.9z"/><path class="st2" d="M1026.5 205.3h51.3V154h-51.3v51.3zm25.7-28.1c3.2 0 3.2 4.9 0 4.9s-3.2-4.9 0-4.9z"/><path class="st3" d="M1052.2 182.1c3.2 0 3.2-4.9 0-4.9s-3.2 4.9 0 4.9z"/><path class="st2" d="M1026.5 256.6h51.3v-51.3h-51.3v51.3zm25.7-28.1c3.2 0 3.2 4.9 0 4.9-3.2.1-3.2-4.9 0-4.9z"/><path class="st3" d="M1052.2 233.4c3.2 0 3.2-4.9 0-4.9s-3.2 5 0 4.9z"/><path class="st2" d="M1026.5 308h51.3v-51.3h-51.3V308zm25.7-28.1c3.2 0 3.2 4.9 0 4.9s-3.2-5 0-4.9z"/><path class="st3" d="M1052.2 284.7c3.2 0 3.2-4.9 0-4.9s-3.2 5 0 4.9z"/><path class="st2" d="M1026.5 359.3h51.3V308h-51.3v51.3zm25.7-28.1c3.2 0 3.2 4.9 0 4.9s-3.2-5 0-4.9z"/><path class="st3" d="M1052.2 336.1c3.2 0 3.2-4.9 0-4.9-3.2-.1-3.2 4.9 0 4.9z"/><path class="st2" d="M1026.5 410.6h51.3v-51.3h-51.3v51.3zm25.7-28.1c3.2 0 3.2 4.9 0 4.9s-3.2-4.9 0-4.9z"/><path class="st3" d="M1052.2 387.4c3.2 0 3.2-4.9 0-4.9s-3.2 4.9 0 4.9z"/><path class="st2" d="M1026.5 461.9h51.3v-51.3h-51.3v51.3zm25.7-28.1c3.2 0 3.2 4.9 0 4.9-3.2.1-3.2-4.9 0-4.9z"/><path class="st3" d="M1052.2 438.7c3.2 0 3.2-4.9 0-4.9s-3.2 5 0 4.9z"/><path class="st2" d="M1026.5 513.3h51.3V462h-51.3v51.3zm25.7-28.1c3.2 0 3.2 4.9 0 4.9s-3.2-5 0-4.9z"/><path class="st3" d="M1052.2 490c3.2 0 3.2-4.9 0-4.9s-3.2 5 0 4.9z"/><path class="st2" d="M1026.5 564.6h51.3v-51.3h-51.3v51.3zm25.7-28.1c3.2 0 3.2 4.9 0 4.9s-3.2-5 0-4.9z"/><path class="st3" d="M1052.2 541.4c3.2 0 3.2-4.9 0-4.9-3.2-.1-3.2 4.9 0 4.9z"/><path class="st2" d="M1026.5 615.9h51.3v-51.3h-51.3v51.3zm25.7-28.1c3.2 0 3.2 4.9 0 4.9s-3.2-4.9 0-4.9z"/><path class="st3" d="M1052.2 592.7c3.2 0 3.2-4.9 0-4.9s-3.2 4.9 0 4.9z"/><path class="st2" d="M1026.5 615.9v51.3h51.3v-51.3h-51.3zm25.7 28.1c-3.2 0-3.2-4.9 0-4.9s3.2 5 0 4.9z"/><path class="st3" d="M1052.2 639.2c-3.2 0-3.2 4.9 0 4.9s3.2-5 0-4.9z"/><path class="st2" d="M1026.5 667.2v51.3h51.3v-51.3h-51.3zm25.7 28.1c-3.2 0-3.2-4.9 0-4.9s3.2 5 0 4.9z"/><path class="st3" d="M1052.2 690.5c-3.2 0-3.2 4.9 0 4.9s3.2-5 0-4.9z"/><path class="st2" d="M1026.5 718.6V768h51.3v-49.4h-51.3zm25.7 28.1c-3.2 0-3.2-4.9 0-4.9s3.2 4.9 0 4.9z"/><path class="st3" d="M1052.2 741.8c-3.2 0-3.2 4.9 0 4.9s3.2-4.9 0-4.9z"/><path class="st2" d="M1026.5 51.3V0h-51.3v51.3h51.3zm-25.6-28.1c3.2 0 3.2 4.9 0 4.9s-3.2-4.9 0-4.9z"/><path class="st3" d="M1000.9 28.1c3.2 0 3.2-4.9 0-4.9s-3.2 4.9 0 4.9z"/><path class="st2" d="M1026.5 102.7V51.3h-51.3v51.3h51.3zm-25.6-28.2c3.2 0 3.2 4.9 0 4.9-3.2.1-3.2-4.9 0-4.9z"/><path class="st3" d="M1000.9 79.4c3.2 0 3.2-4.9 0-4.9s-3.2 5 0 4.9z"/><path class="st2" d="M1026.5 154v-51.3h-51.3V154h51.3zm-25.6-28.1c3.2 0 3.2 4.9 0 4.9s-3.2-5 0-4.9z"/><path class="st3" d="M1000.9 130.8c3.2 0 3.2-4.9 0-4.9-3.2-.1-3.2 4.9 0 4.9z"/><path class="st2" d="M1026.5 205.3V154h-51.3v51.3h51.3zm-25.6-28.1c3.2 0 3.2 4.9 0 4.9s-3.2-4.9 0-4.9z"/><path class="st3" d="M1000.9 182.1c3.2 0 3.2-4.9 0-4.9s-3.2 4.9 0 4.9z"/><path class="st2" d="M975.2 256.6h51.3v-51.3h-51.3v51.3zm25.7-28.1c3.2 0 3.2 4.9 0 4.9-3.2.1-3.2-4.9 0-4.9z"/><path class="st3" d="M1000.9 233.4c3.2 0 3.2-4.9 0-4.9s-3.2 5 0 4.9z"/><path class="st2" d="M975.2 308h51.3v-51.3h-51.3V308zm25.7-28.1c3.2 0 3.2 4.9 0 4.9s-3.2-5 0-4.9z"/><path class="st3" d="M1000.9 284.7c3.2 0 3.2-4.9 0-4.9s-3.2 5 0 4.9z"/><path class="st2" d="M975.2 359.3h51.3V308h-51.3v51.3zm25.7-28.1c3.2 0 3.2 4.9 0 4.9s-3.2-5 0-4.9z"/><path class="st3" d="M1000.9 336.1c3.2 0 3.2-4.9 0-4.9-3.2-.1-3.2 4.9 0 4.9z"/><path class="st2" d="M975.2 410.6h51.3v-51.3h-51.3v51.3zm25.7-28.1c3.2 0 3.2 4.9 0 4.9s-3.2-4.9 0-4.9z"/><path class="st3" d="M1000.9 387.4c3.2 0 3.2-4.9 0-4.9s-3.2 4.9 0 4.9z"/><path class="st2" d="M975.2 461.9h51.3v-51.3h-51.3v51.3zm25.7-28.1c3.2 0 3.2 4.9 0 4.9-3.2.1-3.2-4.9 0-4.9z"/><path class="st3" d="M1000.9 438.7c3.2 0 3.2-4.9 0-4.9s-3.2 5 0 4.9z"/><path class="st2" d="M975.2 513.3h51.3V462h-51.3v51.3zm25.7-28.1c3.2 0 3.2 4.9 0 4.9s-3.2-5 0-4.9z"/><path class="st3" d="M1000.9 490c3.2 0 3.2-4.9 0-4.9s-3.2 5 0 4.9z"/><path class="st2" d="M975.2 564.6h51.3v-51.3h-51.3v51.3zm25.7-28.1c3.2 0 3.2 4.9 0 4.9s-3.2-5 0-4.9z"/><path class="st3" d="M1000.9 541.4c3.2 0 3.2-4.9 0-4.9-3.2-.1-3.2 4.9 0 4.9z"/><path class="st2" d="M975.2 564.6v51.3h51.3v-51.3h-51.3zm25.7 28.1c-3.2 0-3.2-4.9 0-4.9 3.1 0 3.1 4.9 0 4.9z"/><path class="st3" d="M1000.9 587.8c-3.2 0-3.2 4.9 0 4.9 3.1 0 3.1-4.9 0-4.9z"/><path class="st2" d="M975.2 615.9v51.3h51.3v-51.3h-51.3zm25.7 28.1c-3.2 0-3.2-4.9 0-4.9 3.1 0 3.1 5 0 4.9z"/><path class="st3" d="M1000.9 639.2c-3.2 0-3.2 4.9 0 4.9 3.1 0 3.1-5 0-4.9z"/><path class="st2" d="M975.2 667.2v51.3h51.3v-51.3h-51.3zm25.7 28.1c-3.2 0-3.2-4.9 0-4.9 3.1 0 3.1 5 0 4.9z"/><path class="st3" d="M1000.9 690.5c-3.2 0-3.2 4.9 0 4.9 3.1 0 3.1-5 0-4.9z"/><path class="st2" d="M975.2 718.6V768h51.3v-49.4h-51.3zm25.7 28.1c-3.2 0-3.2-4.9 0-4.9 3.1 0 3.1 4.9 0 4.9z"/><path class="st3" d="M1000.9 741.8c-3.2 0-3.2 4.9 0 4.9 3.1 0 3.1-4.9 0-4.9z"/><path class="st2" d="M975.2 51.3V0h-51.3v51.3h51.3zm-25.7-28.1c3.2 0 3.2 4.9 0 4.9-3.1 0-3.1-4.9 0-4.9z"/><path class="st3" d="M949.5 28.1c3.2 0 3.2-4.9 0-4.9-3.1 0-3.1 4.9 0 4.9z"/><path class="st2" d="M975.2 102.7V51.3h-51.3v51.3h51.3zm-25.7-28.2c3.2 0 3.2 4.9 0 4.9-3.1.1-3.1-4.9 0-4.9z"/><path class="st3" d="M949.5 79.4c3.2 0 3.2-4.9 0-4.9-3.1 0-3.1 5 0 4.9z"/><path class="st2" d="M975.2 154v-51.3h-51.3V154h51.3zm-25.7-28.1c3.2 0 3.2 4.9 0 4.9-3.1 0-3.1-5 0-4.9z"/><path class="st3" d="M949.5 130.8c3.2 0 3.2-4.9 0-4.9-3.1-.1-3.1 4.9 0 4.9z"/><path class="st2" d="M975.2 205.3V154h-51.3v51.3h51.3zm-25.7-28.1c3.2 0 3.2 4.9 0 4.9-3.1 0-3.1-4.9 0-4.9z"/><path class="st3" d="M949.5 182.1c3.2 0 3.2-4.9 0-4.9-3.1 0-3.1 4.9 0 4.9z"/><path class="st2" d="M975.2 256.6v-51.3h-51.3v51.3h51.3zm-25.7-28.1c3.2 0 3.2 4.9 0 4.9-3.1.1-3.1-4.9 0-4.9z"/><path class="st3" d="M949.5 233.4c3.2 0 3.2-4.9 0-4.9-3.1 0-3.1 5 0 4.9z"/><path class="st2" d="M923.9 308h51.3v-51.3h-51.3V308zm25.6-28.1c3.2 0 3.2 4.9 0 4.9-3.1 0-3.1-5 0-4.9z"/><path class="st3" d="M949.5 284.7c3.2 0 3.2-4.9 0-4.9-3.1 0-3.1 5 0 4.9z"/><path class="st2" d="M923.9 359.3h51.3V308h-51.3v51.3zm25.6-28.1c3.2 0 3.2 4.9 0 4.9-3.1 0-3.1-5 0-4.9z"/><path class="st3" d="M949.5 336.1c3.2 0 3.2-4.9 0-4.9-3.1-.1-3.1 4.9 0 4.9z"/><path class="st2" d="M923.9 410.6h51.3v-51.3h-51.3v51.3zm25.6-28.1c3.2 0 3.2 4.9 0 4.9-3.1 0-3.1-4.9 0-4.9z"/><path class="st3" d="M949.5 387.4c3.2 0 3.2-4.9 0-4.9-3.1 0-3.1 4.9 0 4.9z"/><path class="st2" d="M923.9 461.9h51.3v-51.3h-51.3v51.3zm25.6-28.1c3.2 0 3.2 4.9 0 4.9-3.1.1-3.1-4.9 0-4.9z"/><path class="st3" d="M949.5 438.7c3.2 0 3.2-4.9 0-4.9-3.1 0-3.1 5 0 4.9z"/><path class="st2" d="M923.9 513.3h51.3V462h-51.3v51.3zm25.6-28.1c3.2 0 3.2 4.9 0 4.9-3.1 0-3.1-5 0-4.9z"/><path class="st3" d="M949.5 490c3.2 0 3.2-4.9 0-4.9-3.1 0-3.1 5 0 4.9z"/><path class="st2" d="M923.9 564.6h51.3v-51.3h-51.3v51.3zm25.6-28.1c3.2 0 3.2 4.9 0 4.9-3.1 0-3.1-5 0-4.9z"/><path class="st3" d="M949.5 541.4c3.2 0 3.2-4.9 0-4.9-3.1-.1-3.1 4.9 0 4.9z"/><path class="st2" d="M923.9 564.6v51.3h51.3v-51.3h-51.3zm25.6 28.1c-3.2 0-3.2-4.9 0-4.9s3.2 4.9 0 4.9z"/><path class="st3" d="M949.5 587.8c-3.2 0-3.2 4.9 0 4.9s3.2-4.9 0-4.9z"/><path class="st2" d="M923.9 615.9v51.3h51.3v-51.3h-51.3zm25.6 28.1c-3.2 0-3.2-4.9 0-4.9s3.2 5 0 4.9z"/><path class="st3" d="M949.5 639.2c-3.2 0-3.2 4.9 0 4.9s3.2-5 0-4.9z"/><path class="st2" d="M923.9 667.2v51.3h51.3v-51.3h-51.3zm25.6 28.1c-3.2 0-3.2-4.9 0-4.9s3.2 5 0 4.9z"/><path class="st3" d="M949.5 690.5c-3.2 0-3.2 4.9 0 4.9s3.2-5 0-4.9z"/><path class="st2" d="M923.9 718.6V768h51.3v-49.4h-51.3zm25.6 28.1c-3.2 0-3.2-4.9 0-4.9s3.2 4.9 0 4.9z"/><path class="st3" d="M949.5 741.8c-3.2 0-3.2 4.9 0 4.9s3.2-4.9 0-4.9z"/><path class="st2" d="M923.9 51.3V0h-51.3v51.3h51.3zm-25.7-28.1c3.2 0 3.2 4.9 0 4.9-3.1 0-3.1-4.9 0-4.9z"/><path class="st3" d="M898.2 28.1c3.2 0 3.2-4.9 0-4.9-3.1 0-3.1 4.9 0 4.9z"/><path class="st2" d="M923.9 102.7V51.3h-51.3v51.3h51.3zm-25.7-28.2c3.2 0 3.2 4.9 0 4.9-3.1.1-3.1-4.9 0-4.9z"/><path class="st3" d="M898.2 79.4c3.2 0 3.2-4.9 0-4.9-3.1 0-3.1 5 0 4.9z"/><path class="st2" d="M923.9 154v-51.3h-51.3V154h51.3zm-25.7-28.1c3.2 0 3.2 4.9 0 4.9-3.1 0-3.1-5 0-4.9z"/><path class="st3" d="M898.2 130.8c3.2 0 3.2-4.9 0-4.9-3.1-.1-3.1 4.9 0 4.9z"/><path class="st2" d="M923.9 205.3V154h-51.3v51.3h51.3zm-25.7-28.1c3.2 0 3.2 4.9 0 4.9-3.1 0-3.1-4.9 0-4.9z"/><path class="st3" d="M898.2 182.1c3.2 0 3.2-4.9 0-4.9-3.1 0-3.1 4.9 0 4.9z"/><path class="st2" d="M923.9 256.6v-51.3h-51.3v51.3h51.3zm-25.7-28.1c3.2 0 3.2 4.9 0 4.9-3.1.1-3.1-4.9 0-4.9z"/><path class="st3" d="M898.2 233.4c3.2 0 3.2-4.9 0-4.9-3.1 0-3.1 5 0 4.9z"/><path class="st2" d="M923.9 308v-51.3h-51.3V308h51.3zm-25.7-28.1c3.2 0 3.2 4.9 0 4.9-3.1 0-3.1-5 0-4.9z"/><path class="st3" d="M898.2 284.7c3.2 0 3.2-4.9 0-4.9-3.1 0-3.1 5 0 4.9z"/><path class="st2" d="M872.6 359.3h51.3V308h-51.3v51.3zm25.6-28.1c3.2 0 3.2 4.9 0 4.9-3.1 0-3.1-5 0-4.9z"/><path class="st3" d="M898.2 336.1c3.2 0 3.2-4.9 0-4.9-3.1-.1-3.1 4.9 0 4.9z"/><path class="st2" d="M872.6 410.6h51.3v-51.3h-51.3v51.3zm25.6-28.1c3.2 0 3.2 4.9 0 4.9-3.1 0-3.1-4.9 0-4.9z"/><path class="st3" d="M898.2 387.4c3.2 0 3.2-4.9 0-4.9-3.1 0-3.1 4.9 0 4.9z"/><path class="st2" d="M872.6 461.9h51.3v-51.3h-51.3v51.3zm25.6-28.1c3.2 0 3.2 4.9 0 4.9-3.1.1-3.1-4.9 0-4.9z"/><path class="st3" d="M898.2 438.7c3.2 0 3.2-4.9 0-4.9-3.1 0-3.1 5 0 4.9z"/><path class="st2" d="M872.6 462v51.3h51.3V462h-51.3zm25.6 28c-3.2 0-3.2-4.9 0-4.9s3.2 5 0 4.9z"/><path class="st3" d="M898.2 485.2c-3.2 0-3.2 4.9 0 4.9s3.2-5 0-4.9z"/><path class="st2" d="M872.6 513.3v51.3h51.3v-51.3h-51.3zm25.6 28.1c-3.2 0-3.2-4.9 0-4.9 3.2-.1 3.2 4.9 0 4.9z"/><path class="st3" d="M898.2 536.5c-3.2 0-3.2 4.9 0 4.9s3.2-5 0-4.9z"/><path class="st2" d="M872.6 564.6v51.3h51.3v-51.3h-51.3zm25.6 28.1c-3.2 0-3.2-4.9 0-4.9s3.2 4.9 0 4.9z"/><path class="st3" d="M898.2 587.8c-3.2 0-3.2 4.9 0 4.9s3.2-4.9 0-4.9z"/><path class="st2" d="M872.6 615.9v51.3h51.3v-51.3h-51.3zm25.6 28.1c-3.2 0-3.2-4.9 0-4.9s3.2 5 0 4.9z"/><path class="st3" d="M898.2 639.2c-3.2 0-3.2 4.9 0 4.9s3.2-5 0-4.9z"/><path class="st2" d="M872.6 667.2v51.3h51.3v-51.3h-51.3zm25.6 28.1c-3.2 0-3.2-4.9 0-4.9s3.2 5 0 4.9z"/><path class="st3" d="M898.2 690.5c-3.2 0-3.2 4.9 0 4.9s3.2-5 0-4.9z"/><path class="st2" d="M872.6 718.6V768h51.3v-49.4h-51.3zm25.6 28.1c-3.2 0-3.2-4.9 0-4.9s3.2 4.9 0 4.9z"/><path class="st3" d="M898.2 741.8c-3.2 0-3.2 4.9 0 4.9s3.2-4.9 0-4.9z"/><path class="st2" d="M872.6 51.3V0h-51.3v51.3h51.3zm-25.7-28.1c3.2 0 3.2 4.9 0 4.9s-3.2-4.9 0-4.9z"/><path class="st3" d="M846.9 28.1c3.2 0 3.2-4.9 0-4.9s-3.2 4.9 0 4.9z"/><path class="st2" d="M872.6 102.7V51.3h-51.3v51.3h51.3zm-25.7-28.2c3.2 0 3.2 4.9 0 4.9-3.2.1-3.2-4.9 0-4.9z"/><path class="st3" d="M846.9 79.4c3.2 0 3.2-4.9 0-4.9s-3.2 5 0 4.9z"/><path class="st2" d="M872.6 154v-51.3h-51.3V154h51.3zm-25.7-28.1c3.2 0 3.2 4.9 0 4.9s-3.2-5 0-4.9z"/><path class="st3" d="M846.9 130.8c3.2 0 3.2-4.9 0-4.9-3.2-.1-3.2 4.9 0 4.9z"/><path class="st2" d="M872.6 205.3V154h-51.3v51.3h51.3zm-25.7-28.1c3.2 0 3.2 4.9 0 4.9s-3.2-4.9 0-4.9z"/><path class="st3" d="M846.9 182.1c3.2 0 3.2-4.9 0-4.9s-3.2 4.9 0 4.9z"/><path class="st2" d="M872.6 256.6v-51.3h-51.3v51.3h51.3zm-25.7-28.1c3.2 0 3.2 4.9 0 4.9-3.2.1-3.2-4.9 0-4.9z"/><path class="st3" d="M846.9 233.4c3.2 0 3.2-4.9 0-4.9s-3.2 5 0 4.9z"/><path class="st2" d="M872.6 308v-51.3h-51.3V308h51.3zm-25.7-28.1c3.2 0 3.2 4.9 0 4.9s-3.2-5 0-4.9z"/><path class="st3" d="M846.9 284.7c3.2 0 3.2-4.9 0-4.9s-3.2 5 0 4.9z"/><path class="st2" d="M821.2 359.3h51.3V308h-51.3v51.3zm25.7-28.1c3.2 0 3.2 4.9 0 4.9s-3.2-5 0-4.9z"/><path class="st3" d="M846.9 336.1c3.2 0 3.2-4.9 0-4.9-3.2-.1-3.2 4.9 0 4.9z"/><path class="st2" d="M821.2 410.6h51.3v-51.3h-51.3v51.3zm25.7-28.1c3.2 0 3.2 4.9 0 4.9s-3.2-4.9 0-4.9z"/><path class="st3" d="M846.9 387.4c3.2 0 3.2-4.9 0-4.9s-3.2 4.9 0 4.9z"/><path class="st2" d="M821.2 461.9h51.3v-51.3h-51.3v51.3zm25.7-28.1c3.2 0 3.2 4.9 0 4.9-3.2.1-3.2-4.9 0-4.9z"/><path class="st3" d="M846.9 438.7c3.2 0 3.2-4.9 0-4.9s-3.2 5 0 4.9z"/><path class="st2" d="M821.2 462v51.3h51.3V462h-51.3zm25.7 28c-3.2 0-3.2-4.9 0-4.9s3.2 5 0 4.9z"/><path class="st3" d="M846.9 485.2c-3.2 0-3.2 4.9 0 4.9s3.2-5 0-4.9z"/><path class="st2" d="M821.2 513.3v51.3h51.3v-51.3h-51.3zm25.7 28.1c-3.2 0-3.2-4.9 0-4.9 3.2-.1 3.2 4.9 0 4.9z"/><path class="st3" d="M846.9 536.5c-3.2 0-3.2 4.9 0 4.9s3.2-5 0-4.9z"/><path class="st2" d="M821.2 564.6v51.3h51.3v-51.3h-51.3zm25.7 28.1c-3.2 0-3.2-4.9 0-4.9s3.2 4.9 0 4.9z"/><path class="st3" d="M846.9 587.8c-3.2 0-3.2 4.9 0 4.9s3.2-4.9 0-4.9z"/><path class="st2" d="M821.2 615.9v51.3h51.3v-51.3h-51.3zm25.7 28.1c-3.2 0-3.2-4.9 0-4.9s3.2 5 0 4.9z"/><path class="st3" d="M846.9 639.2c-3.2 0-3.2 4.9 0 4.9s3.2-5 0-4.9z"/><path class="st2" d="M821.2 667.2v51.3h51.3v-51.3h-51.3zm25.7 28.1c-3.2 0-3.2-4.9 0-4.9s3.2 5 0 4.9z"/><path class="st3" d="M846.9 690.5c-3.2 0-3.2 4.9 0 4.9s3.2-5 0-4.9z"/><path class="st2" d="M821.2 718.6V768h51.3v-49.4h-51.3zm25.7 28.1c-3.2 0-3.2-4.9 0-4.9s3.2 4.9 0 4.9z"/><path class="st3" d="M846.9 741.8c-3.2 0-3.2 4.9 0 4.9s3.2-4.9 0-4.9z"/><path class="st2" d="M821.2 51.3V0h-51.3v51.3h51.3zm-25.6-28.1c3.2 0 3.2 4.9 0 4.9s-3.2-4.9 0-4.9z"/><path class="st3" d="M795.6 28.1c3.2 0 3.2-4.9 0-4.9s-3.2 4.9 0 4.9z"/><path class="st2" d="M821.2 102.7V51.3h-51.3v51.3h51.3zm-25.6-28.2c3.2 0 3.2 4.9 0 4.9-3.2.1-3.2-4.9 0-4.9z"/><path class="st3" d="M795.6 79.4c3.2 0 3.2-4.9 0-4.9s-3.2 5 0 4.9z"/><path class="st2" d="M821.2 154v-51.3h-51.3V154h51.3zm-25.6-28.1c3.2 0 3.2 4.9 0 4.9s-3.2-5 0-4.9z"/><path class="st3" d="M795.6 130.8c3.2 0 3.2-4.9 0-4.9-3.2-.1-3.2 4.9 0 4.9z"/><path class="st2" d="M821.2 205.3V154h-51.3v51.3h51.3zm-25.6-28.1c3.2 0 3.2 4.9 0 4.9s-3.2-4.9 0-4.9z"/><path class="st3" d="M795.6 182.1c3.2 0 3.2-4.9 0-4.9s-3.2 4.9 0 4.9z"/><path class="st2" d="M821.2 256.6v-51.3h-51.3v51.3h51.3zm-25.6-28.1c3.2 0 3.2 4.9 0 4.9-3.2.1-3.2-4.9 0-4.9z"/><path class="st3" d="M795.6 233.4c3.2 0 3.2-4.9 0-4.9s-3.2 5 0 4.9z"/><path class="st2" d="M821.2 308v-51.3h-51.3V308h51.3zm-25.6-28.1c3.2 0 3.2 4.9 0 4.9s-3.2-5 0-4.9z"/><path class="st3" d="M795.6 284.7c3.2 0 3.2-4.9 0-4.9s-3.2 5 0 4.9z"/><path class="st2" d="M821.2 359.3V308h-51.3v51.3h51.3zm-25.6-28.1c3.2 0 3.2 4.9 0 4.9s-3.2-5 0-4.9z"/><path class="st3" d="M795.6 336.1c3.2 0 3.2-4.9 0-4.9-3.2-.1-3.2 4.9 0 4.9z"/><path class="st2" d="M769.9 359.3v51.3h51.3v-51.3h-51.3zm25.7 28.1c-3.2 0-3.2-4.9 0-4.9 3.1 0 3.1 4.9 0 4.9z"/><path class="st3" d="M795.6 382.5c-3.2 0-3.2 4.9 0 4.9 3.1 0 3.1-4.9 0-4.9z"/><path class="st2" d="M769.9 410.6v51.3h51.3v-51.3h-51.3zm25.7 28.1c-3.2 0-3.2-4.9 0-4.9 3.1 0 3.1 5 0 4.9z"/><path class="st3" d="M795.6 433.8c-3.2 0-3.2 4.9 0 4.9 3.1.1 3.1-4.9 0-4.9z"/><path class="st2" d="M769.9 462v51.3h51.3V462h-51.3zm25.7 28c-3.2 0-3.2-4.9 0-4.9 3.1 0 3.1 5 0 4.9z"/><path class="st3" d="M795.6 485.2c-3.2 0-3.2 4.9 0 4.9 3.1 0 3.1-5 0-4.9z"/><path class="st2" d="M769.9 513.3v51.3h51.3v-51.3h-51.3zm25.7 28.1c-3.2 0-3.2-4.9 0-4.9 3.1-.1 3.1 4.9 0 4.9z"/><path class="st3" d="M795.6 536.5c-3.2 0-3.2 4.9 0 4.9 3.1 0 3.1-5 0-4.9z"/><path class="st2" d="M769.9 564.6v51.3h51.3v-51.3h-51.3zm25.7 28.1c-3.2 0-3.2-4.9 0-4.9 3.1 0 3.1 4.9 0 4.9z"/><path class="st3" d="M795.6 587.8c-3.2 0-3.2 4.9 0 4.9 3.1 0 3.1-4.9 0-4.9z"/><path class="st2" d="M769.9 615.9v51.3h51.3v-51.3h-51.3zm25.7 28.1c-3.2 0-3.2-4.9 0-4.9 3.1 0 3.1 5 0 4.9z"/><path class="st3" d="M795.6 639.2c-3.2 0-3.2 4.9 0 4.9 3.1 0 3.1-5 0-4.9z"/><path class="st2" d="M769.9 667.2v51.3h51.3v-51.3h-51.3zm25.7 28.1c-3.2 0-3.2-4.9 0-4.9 3.1 0 3.1 5 0 4.9z"/><path class="st3" d="M795.6 690.5c-3.2 0-3.2 4.9 0 4.9 3.1 0 3.1-5 0-4.9z"/><path class="st2" d="M769.9 718.6V768h51.3v-49.4h-51.3zm25.7 28.1c-3.2 0-3.2-4.9 0-4.9 3.1 0 3.1 4.9 0 4.9z"/><path class="st3" d="M795.6 741.8c-3.2 0-3.2 4.9 0 4.9 3.1 0 3.1-4.9 0-4.9z"/><path class="st2" d="M769.9 51.3V0h-51.3v51.3h51.3zm-25.7-28.1c3.2 0 3.2 4.9 0 4.9-3.1 0-3.1-4.9 0-4.9z"/><path class="st3" d="M744.2 28.1c3.2 0 3.2-4.9 0-4.9-3.1 0-3.1 4.9 0 4.9z"/><path class="st2" d="M769.9 102.7V51.3h-51.3v51.3h51.3zm-25.7-28.2c3.2 0 3.2 4.9 0 4.9-3.1.1-3.1-4.9 0-4.9z"/><path class="st3" d="M744.2 79.4c3.2 0 3.2-4.9 0-4.9-3.1 0-3.1 5 0 4.9z"/><path class="st2" d="M769.9 154v-51.3h-51.3V154h51.3zm-25.7-28.1c3.2 0 3.2 4.9 0 4.9-3.1 0-3.1-5 0-4.9z"/><path class="st3" d="M744.2 130.8c3.2 0 3.2-4.9 0-4.9-3.1-.1-3.1 4.9 0 4.9z"/><path class="st2" d="M769.9 205.3V154h-51.3v51.3h51.3zm-25.7-28.1c3.2 0 3.2 4.9 0 4.9-3.1 0-3.1-4.9 0-4.9z"/><path class="st3" d="M744.2 182.1c3.2 0 3.2-4.9 0-4.9-3.1 0-3.1 4.9 0 4.9z"/><path class="st2" d="M769.9 256.6v-51.3h-51.3v51.3h51.3zm-25.7-28.1c3.2 0 3.2 4.9 0 4.9-3.1.1-3.1-4.9 0-4.9z"/><path class="st3" d="M744.2 233.4c3.2 0 3.2-4.9 0-4.9-3.1 0-3.1 5 0 4.9z"/><path class="st2" d="M769.9 308v-51.3h-51.3V308h51.3zm-25.7-28.1c3.2 0 3.2 4.9 0 4.9-3.1 0-3.1-5 0-4.9z"/><path class="st3" d="M744.2 284.7c3.2 0 3.2-4.9 0-4.9-3.1 0-3.1 5 0 4.9z"/><path class="st2" d="M769.9 359.3V308h-51.3v51.3h51.3zm-25.7-28.1c3.2 0 3.2 4.9 0 4.9-3.1 0-3.1-5 0-4.9z"/><path class="st3" d="M744.2 336.1c3.2 0 3.2-4.9 0-4.9-3.1-.1-3.1 4.9 0 4.9z"/><path class="st2" d="M718.6 359.3v51.3h51.3v-51.3h-51.3zm25.6 28.1c-3.2 0-3.2-4.9 0-4.9s3.2 4.9 0 4.9z"/><path class="st3" d="M744.2 382.5c-3.2 0-3.2 4.9 0 4.9s3.2-4.9 0-4.9z"/><path class="st2" d="M718.6 410.6v51.3h51.3v-51.3h-51.3zm25.6 28.1c-3.2 0-3.2-4.9 0-4.9s3.2 5 0 4.9z"/><path class="st3" d="M744.2 433.8c-3.2 0-3.2 4.9 0 4.9 3.2.1 3.2-4.9 0-4.9z"/><path class="st2" d="M718.6 462v51.3h51.3V462h-51.3zm25.6 28c-3.2 0-3.2-4.9 0-4.9s3.2 5 0 4.9z"/><path class="st3" d="M744.2 485.2c-3.2 0-3.2 4.9 0 4.9s3.2-5 0-4.9z"/><path class="st2" d="M718.6 513.3v51.3h51.3v-51.3h-51.3zm25.6 28.1c-3.2 0-3.2-4.9 0-4.9 3.2-.1 3.2 4.9 0 4.9z"/><path class="st3" d="M744.2 536.5c-3.2 0-3.2 4.9 0 4.9s3.2-5 0-4.9z"/><path class="st2" d="M718.6 564.6v51.3h51.3v-51.3h-51.3zm25.6 28.1c-3.2 0-3.2-4.9 0-4.9s3.2 4.9 0 4.9z"/><path class="st3" d="M744.2 587.8c-3.2 0-3.2 4.9 0 4.9s3.2-4.9 0-4.9z"/><path class="st2" d="M718.6 615.9v51.3h51.3v-51.3h-51.3zm25.6 28.1c-3.2 0-3.2-4.9 0-4.9s3.2 5 0 4.9z"/><path class="st3" d="M744.2 639.2c-3.2 0-3.2 4.9 0 4.9s3.2-5 0-4.9z"/><path class="st2" d="M718.6 667.2v51.3h51.3v-51.3h-51.3zm25.6 28.1c-3.2 0-3.2-4.9 0-4.9s3.2 5 0 4.9z"/><path class="st3" d="M744.2 690.5c-3.2 0-3.2 4.9 0 4.9s3.2-5 0-4.9z"/><path class="st2" d="M718.6 718.6V768h51.3v-49.4h-51.3zm25.6 28.1c-3.2 0-3.2-4.9 0-4.9s3.2 4.9 0 4.9z"/><path class="st3" d="M744.2 741.8c-3.2 0-3.2 4.9 0 4.9s3.2-4.9 0-4.9z"/><path class="st2" d="M718.6 51.3V0h-51.3v51.3h51.3zm-25.7-28.1c3.2 0 3.2 4.9 0 4.9s-3.2-4.9 0-4.9z"/><path class="st3" d="M692.9 28.1c3.2 0 3.2-4.9 0-4.9s-3.2 4.9 0 4.9z"/><path class="st2" d="M718.6 102.7V51.3h-51.3v51.3h51.3zm-25.7-28.2c3.2 0 3.2 4.9 0 4.9-3.2.1-3.2-4.9 0-4.9z"/><path class="st3" d="M692.9 79.4c3.2 0 3.2-4.9 0-4.9s-3.2 5 0 4.9z"/><path class="st2" d="M718.6 154v-51.3h-51.3V154h51.3zm-25.7-28.1c3.2 0 3.2 4.9 0 4.9s-3.2-5 0-4.9z"/><path class="st3" d="M692.9 130.8c3.2 0 3.2-4.9 0-4.9-3.2-.1-3.2 4.9 0 4.9z"/><path class="st2" d="M718.6 205.3V154h-51.3v51.3h51.3zm-25.7-28.1c3.2 0 3.2 4.9 0 4.9s-3.2-4.9 0-4.9z"/><path class="st3" d="M692.9 182.1c3.2 0 3.2-4.9 0-4.9s-3.2 4.9 0 4.9z"/><path class="st2" d="M718.6 256.6v-51.3h-51.3v51.3h51.3zm-25.7-28.1c3.2 0 3.2 4.9 0 4.9-3.2.1-3.2-4.9 0-4.9z"/><path class="st3" d="M692.9 233.4c3.2 0 3.2-4.9 0-4.9s-3.2 5 0 4.9z"/><path class="st2" d="M718.6 308v-51.3h-51.3V308h51.3zm-25.7-28.1c3.2 0 3.2 4.9 0 4.9s-3.2-5 0-4.9z"/><path class="st3" d="M692.9 284.7c3.2 0 3.2-4.9 0-4.9s-3.2 5 0 4.9z"/><path class="st2" d="M718.6 308h-51.3v51.3h51.3V308zm-25.7 28.1c-3.2 0-3.2-4.9 0-4.9 3.2-.1 3.2 4.9 0 4.9z"/><path class="st3" d="M692.9 331.2c-3.2 0-3.2 4.9 0 4.9s3.2-5 0-4.9z"/><path class="st2" d="M718.6 359.3h-51.3v51.3h51.3v-51.3zm-25.7 28.1c-3.2 0-3.2-4.9 0-4.9s3.2 4.9 0 4.9z"/><path class="st3" d="M692.9 382.5c-3.2 0-3.2 4.9 0 4.9s3.2-4.9 0-4.9z"/><path class="st2" d="M667.2 410.6v51.3h51.3v-51.3h-51.3zm25.7 28.1c-3.2 0-3.2-4.9 0-4.9s3.2 5 0 4.9z"/><path class="st3" d="M692.9 433.8c-3.2 0-3.2 4.9 0 4.9 3.2.1 3.2-4.9 0-4.9z"/><path class="st2" d="M667.2 462v51.3h51.3V462h-51.3zm25.7 28c-3.2 0-3.2-4.9 0-4.9s3.2 5 0 4.9z"/><path class="st3" d="M692.9 485.2c-3.2 0-3.2 4.9 0 4.9s3.2-5 0-4.9z"/><path class="st2" d="M667.2 513.3v51.3h51.3v-51.3h-51.3zm25.7 28.1c-3.2 0-3.2-4.9 0-4.9 3.2-.1 3.2 4.9 0 4.9z"/><path class="st3" d="M692.9 536.5c-3.2 0-3.2 4.9 0 4.9s3.2-5 0-4.9z"/><path class="st2" d="M667.2 564.6v51.3h51.3v-51.3h-51.3zm25.7 28.1c-3.2 0-3.2-4.9 0-4.9s3.2 4.9 0 4.9z"/><path class="st3" d="M692.9 587.8c-3.2 0-3.2 4.9 0 4.9s3.2-4.9 0-4.9z"/><path class="st2" d="M667.2 615.9v51.3h51.3v-51.3h-51.3zm25.7 28.1c-3.2 0-3.2-4.9 0-4.9s3.2 5 0 4.9z"/><path class="st3" d="M692.9 639.2c-3.2 0-3.2 4.9 0 4.9s3.2-5 0-4.9z"/><path class="st2" d="M667.2 667.2v51.3h51.3v-51.3h-51.3zm25.7 28.1c-3.2 0-3.2-4.9 0-4.9s3.2 5 0 4.9z"/><path class="st3" d="M692.9 690.5c-3.2 0-3.2 4.9 0 4.9s3.2-5 0-4.9z"/><path class="st2" d="M667.2 718.6V768h51.3v-49.4h-51.3zm25.7 28.1c-3.2 0-3.2-4.9 0-4.9s3.2 4.9 0 4.9z"/><path class="st3" d="M692.9 741.8c-3.2 0-3.2 4.9 0 4.9s3.2-4.9 0-4.9z"/><path class="st2" d="M667.2 51.3V0h-51.3v51.3h51.3zm-25.6-28.1c3.2 0 3.2 4.9 0 4.9s-3.2-4.9 0-4.9z"/><path class="st3" d="M641.6 28.1c3.2 0 3.2-4.9 0-4.9s-3.2 4.9 0 4.9z"/><path class="st2" d="M667.2 102.7V51.3h-51.3v51.3h51.3zm-25.6-28.2c3.2 0 3.2 4.9 0 4.9-3.2.1-3.2-4.9 0-4.9z"/><path class="st3" d="M641.6 79.4c3.2 0 3.2-4.9 0-4.9s-3.2 5 0 4.9z"/><path class="st2" d="M667.2 154v-51.3h-51.3V154h51.3zm-25.6-28.1c3.2 0 3.2 4.9 0 4.9s-3.2-5 0-4.9z"/><path class="st3" d="M641.6 130.8c3.2 0 3.2-4.9 0-4.9-3.2-.1-3.2 4.9 0 4.9z"/><path class="st2" d="M667.2 205.3V154h-51.3v51.3h51.3zm-25.6-28.1c3.2 0 3.2 4.9 0 4.9s-3.2-4.9 0-4.9z"/><path class="st3" d="M641.6 182.1c3.2 0 3.2-4.9 0-4.9s-3.2 4.9 0 4.9z"/><path class="st2" d="M667.2 256.6v-51.3h-51.3v51.3h51.3zm-25.6-28.1c3.2 0 3.2 4.9 0 4.9-3.2.1-3.2-4.9 0-4.9z"/><path class="st3" d="M641.6 233.4c3.2 0 3.2-4.9 0-4.9s-3.2 5 0 4.9z"/><path class="st2" d="M667.2 308v-51.3h-51.3V308h51.3zm-25.6-28.1c3.2 0 3.2 4.9 0 4.9s-3.2-5 0-4.9z"/><path class="st3" d="M641.6 284.7c3.2 0 3.2-4.9 0-4.9s-3.2 5 0 4.9z"/><path class="st2" d="M667.2 308h-51.3v51.3h51.3V308zm-25.6 28.1c-3.2 0-3.2-4.9 0-4.9 3.2-.1 3.2 4.9 0 4.9z"/><path class="st3" d="M641.6 331.2c-3.2 0-3.2 4.9 0 4.9s3.2-5 0-4.9z"/><path class="st2" d="M667.2 359.3h-51.3v51.3h51.3v-51.3zm-25.6 28.1c-3.2 0-3.2-4.9 0-4.9s3.2 4.9 0 4.9z"/><path class="st3" d="M641.6 382.5c-3.2 0-3.2 4.9 0 4.9s3.2-4.9 0-4.9z"/><path class="st2" d="M667.2 410.6h-51.3v51.3h51.3v-51.3zm-25.6 28.1c-3.2 0-3.2-4.9 0-4.9s3.2 5 0 4.9z"/><path class="st3" d="M641.6 433.8c-3.2 0-3.2 4.9 0 4.9 3.2.1 3.2-4.9 0-4.9z"/><path class="st2" d="M615.9 462v51.3h51.3V462h-51.3zm25.7 28c-3.2 0-3.2-4.9 0-4.9s3.2 5 0 4.9z"/><path class="st3" d="M641.6 485.2c-3.2 0-3.2 4.9 0 4.9s3.2-5 0-4.9z"/><path class="st2" d="M615.9 513.3v51.3h51.3v-51.3h-51.3zm25.7 28.1c-3.2 0-3.2-4.9 0-4.9 3.2-.1 3.2 4.9 0 4.9z"/><path class="st3" d="M641.6 536.5c-3.2 0-3.2 4.9 0 4.9s3.2-5 0-4.9z"/><path class="st2" d="M615.9 564.6v51.3h51.3v-51.3h-51.3zm25.7 28.1c-3.2 0-3.2-4.9 0-4.9s3.2 4.9 0 4.9z"/><path class="st3" d="M641.6 587.8c-3.2 0-3.2 4.9 0 4.9s3.2-4.9 0-4.9z"/><path class="st2" d="M615.9 615.9v51.3h51.3v-51.3h-51.3zm25.7 28.1c-3.2 0-3.2-4.9 0-4.9s3.2 5 0 4.9z"/><path class="st3" d="M641.6 639.2c-3.2 0-3.2 4.9 0 4.9s3.2-5 0-4.9z"/><path class="st2" d="M615.9 667.2v51.3h51.3v-51.3h-51.3zm25.7 28.1c-3.2 0-3.2-4.9 0-4.9s3.2 5 0 4.9z"/><path class="st3" d="M641.6 690.5c-3.2 0-3.2 4.9 0 4.9s3.2-5 0-4.9z"/><path class="st2" d="M615.9 718.6V768h51.3v-49.4h-51.3zm25.7 28.1c-3.2 0-3.2-4.9 0-4.9s3.2 4.9 0 4.9z"/><path class="st3" d="M641.6 741.8c-3.2 0-3.2 4.9 0 4.9s3.2-4.9 0-4.9z"/><path class="st2" d="M615.9 51.3V0h-51.3v51.3h51.3zm-25.6-28.1c3.2 0 3.2 4.9 0 4.9s-3.2-4.9 0-4.9z"/><path class="st3" d="M590.3 28.1c3.2 0 3.2-4.9 0-4.9s-3.2 4.9 0 4.9z"/><path class="st2" d="M615.9 102.7V51.3h-51.3v51.3h51.3zm-25.6-28.2c3.2 0 3.2 4.9 0 4.9-3.2.1-3.2-4.9 0-4.9z"/><path class="st3" d="M590.3 79.4c3.2 0 3.2-4.9 0-4.9s-3.2 5 0 4.9z"/><path class="st2" d="M615.9 154v-51.3h-51.3V154h51.3zm-25.6-28.1c3.2 0 3.2 4.9 0 4.9s-3.2-5 0-4.9z"/><path class="st3" d="M590.3 130.8c3.2 0 3.2-4.9 0-4.9-3.2-.1-3.2 4.9 0 4.9z"/><path class="st2" d="M615.9 205.3V154h-51.3v51.3h51.3zm-25.6-28.1c3.2 0 3.2 4.9 0 4.9s-3.2-4.9 0-4.9z"/><path class="st3" d="M590.3 182.1c3.2 0 3.2-4.9 0-4.9s-3.2 4.9 0 4.9z"/><path class="st2" d="M615.9 256.6v-51.3h-51.3v51.3h51.3zm-25.6-28.1c3.2 0 3.2 4.9 0 4.9-3.2.1-3.2-4.9 0-4.9z"/><path class="st3" d="M590.3 233.4c3.2 0 3.2-4.9 0-4.9s-3.2 5 0 4.9z"/><path class="st2" d="M615.9 256.6h-51.3V308h51.3v-51.4zm-25.6 28.1c-3.2 0-3.2-4.9 0-4.9 3.1 0 3.1 5 0 4.9z"/><path class="st3" d="M590.3 279.9c-3.2 0-3.2 4.9 0 4.9 3.1 0 3.1-5 0-4.9z"/><path class="st2" d="M615.9 308h-51.3v51.3h51.3V308zm-25.6 28.1c-3.2 0-3.2-4.9 0-4.9 3.1-.1 3.1 4.9 0 4.9z"/><path class="st3" d="M590.3 331.2c-3.2 0-3.2 4.9 0 4.9 3.1 0 3.1-5 0-4.9z"/><path class="st2" d="M615.9 359.3h-51.3v51.3h51.3v-51.3zm-25.6 28.1c-3.2 0-3.2-4.9 0-4.9 3.1 0 3.1 4.9 0 4.9z"/><path class="st3" d="M590.3 382.5c-3.2 0-3.2 4.9 0 4.9 3.1 0 3.1-4.9 0-4.9z"/><path class="st2" d="M615.9 410.6h-51.3v51.3h51.3v-51.3zm-25.6 28.1c-3.2 0-3.2-4.9 0-4.9 3.1 0 3.1 5 0 4.9z"/><path class="st3" d="M590.3 433.8c-3.2 0-3.2 4.9 0 4.9 3.1.1 3.1-4.9 0-4.9z"/><path class="st2" d="M615.9 462h-51.3v51.3h51.3V462zm-25.6 28c-3.2 0-3.2-4.9 0-4.9 3.1 0 3.1 5 0 4.9z"/><path class="st3" d="M590.3 485.2c-3.2 0-3.2 4.9 0 4.9 3.1 0 3.1-5 0-4.9z"/><path class="st2" d="M564.6 513.3v51.3h51.3v-51.3h-51.3zm25.7 28.1c-3.2 0-3.2-4.9 0-4.9 3.1-.1 3.1 4.9 0 4.9z"/><path class="st3" d="M590.3 536.5c-3.2 0-3.2 4.9 0 4.9 3.1 0 3.1-5 0-4.9z"/><path class="st2" d="M564.6 564.6v51.3h51.3v-51.3h-51.3zm25.7 28.1c-3.2 0-3.2-4.9 0-4.9 3.1 0 3.1 4.9 0 4.9z"/><path class="st3" d="M590.3 587.8c-3.2 0-3.2 4.9 0 4.9 3.1 0 3.1-4.9 0-4.9z"/><path class="st2" d="M564.6 615.9v51.3h51.3v-51.3h-51.3zm25.7 28.1c-3.2 0-3.2-4.9 0-4.9 3.1 0 3.1 5 0 4.9z"/><path class="st3" d="M590.3 639.2c-3.2 0-3.2 4.9 0 4.9 3.1 0 3.1-5 0-4.9z"/><path class="st2" d="M564.6 667.2v51.3h51.3v-51.3h-51.3zm25.7 28.1c-3.2 0-3.2-4.9 0-4.9 3.1 0 3.1 5 0 4.9z"/><path class="st3" d="M590.3 690.5c-3.2 0-3.2 4.9 0 4.9 3.1 0 3.1-5 0-4.9z"/><path class="st2" d="M564.6 718.6V768h51.3v-49.4h-51.3zm25.7 28.1c-3.2 0-3.2-4.9 0-4.9 3.1 0 3.1 4.9 0 4.9z"/><path class="st3" d="M590.3 741.8c-3.2 0-3.2 4.9 0 4.9 3.1 0 3.1-4.9 0-4.9z"/><path class="st2" d="M564.6 51.3V0h-51.3v51.3h51.3zm-25.7-28.1c3.2 0 3.2 4.9 0 4.9-3.1 0-3.1-4.9 0-4.9z"/><path class="st3" d="M538.9 28.1c3.2 0 3.2-4.9 0-4.9-3.1 0-3.1 4.9 0 4.9z"/><path class="st2" d="M564.6 102.7V51.3h-51.3v51.3h51.3zm-25.7-28.2c3.2 0 3.2 4.9 0 4.9-3.1.1-3.1-4.9 0-4.9z"/><path class="st3" d="M538.9 79.4c3.2 0 3.2-4.9 0-4.9-3.1 0-3.1 5 0 4.9z"/><path class="st2" d="M564.6 154v-51.3h-51.3V154h51.3zm-25.7-28.1c3.2 0 3.2 4.9 0 4.9-3.1 0-3.1-5 0-4.9z"/><path class="st3" d="M538.9 130.8c3.2 0 3.2-4.9 0-4.9-3.1-.1-3.1 4.9 0 4.9z"/><path class="st2" d="M564.6 154h-51.3v51.3h51.3V154zm-25.7 28.1c-3.2 0-3.2-4.9 0-4.9s3.2 4.9 0 4.9z"/><path class="st3" d="M538.9 177.2c-3.2 0-3.2 4.9 0 4.9s3.2-4.9 0-4.9z"/><path class="st2" d="M564.6 205.3h-51.3v51.3h51.3v-51.3zm-25.7 28.1c-3.2 0-3.2-4.9 0-4.9s3.2 5 0 4.9z"/><path class="st3" d="M538.9 228.5c-3.2 0-3.2 4.9 0 4.9 3.2.1 3.2-4.9 0-4.9z"/><path class="st2" d="M564.6 256.6h-51.3V308h51.3v-51.4zm-25.7 28.1c-3.2 0-3.2-4.9 0-4.9s3.2 5 0 4.9z"/><path class="st3" d="M538.9 279.9c-3.2 0-3.2 4.9 0 4.9s3.2-5 0-4.9z"/><path class="st2" d="M564.6 308h-51.3v51.3h51.3V308zm-25.7 28.1c-3.2 0-3.2-4.9 0-4.9 3.2-.1 3.2 4.9 0 4.9z"/><path class="st3" d="M538.9 331.2c-3.2 0-3.2 4.9 0 4.9s3.2-5 0-4.9z"/><path class="st2" d="M564.6 359.3h-51.3v51.3h51.3v-51.3zm-25.7 28.1c-3.2 0-3.2-4.9 0-4.9s3.2 4.9 0 4.9z"/><path class="st3" d="M538.9 382.5c-3.2 0-3.2 4.9 0 4.9s3.2-4.9 0-4.9z"/><path class="st2" d="M564.6 410.6h-51.3v51.3h51.3v-51.3zm-25.7 28.1c-3.2 0-3.2-4.9 0-4.9s3.2 5 0 4.9z"/><path class="st3" d="M538.9 433.8c-3.2 0-3.2 4.9 0 4.9 3.2.1 3.2-4.9 0-4.9z"/><path class="st2" d="M564.6 462h-51.3v51.3h51.3V462zm-25.7 28c-3.2 0-3.2-4.9 0-4.9s3.2 5 0 4.9z"/><path class="st3" d="M538.9 485.2c-3.2 0-3.2 4.9 0 4.9s3.2-5 0-4.9z"/><path class="st2" d="M564.6 513.3h-51.3v51.3h51.3v-51.3zm-25.7 28.1c-3.2 0-3.2-4.9 0-4.9 3.2-.1 3.2 4.9 0 4.9z"/><path class="st3" d="M538.9 536.5c-3.2 0-3.2 4.9 0 4.9s3.2-5 0-4.9z"/><path class="st2" d="M513.3 564.6v51.3h51.3v-51.3h-51.3zm25.6 28.1c-3.2 0-3.2-4.9 0-4.9s3.2 4.9 0 4.9z"/><path class="st3" d="M538.9 587.8c-3.2 0-3.2 4.9 0 4.9s3.2-4.9 0-4.9z"/><path class="st2" d="M513.3 615.9v51.3h51.3v-51.3h-51.3zm25.6 28.1c-3.2 0-3.2-4.9 0-4.9s3.2 5 0 4.9z"/><path class="st3" d="M538.9 639.2c-3.2 0-3.2 4.9 0 4.9s3.2-5 0-4.9z"/><path class="st2" d="M513.3 667.2v51.3h51.3v-51.3h-51.3zm25.6 28.1c-3.2 0-3.2-4.9 0-4.9s3.2 5 0 4.9z"/><path class="st3" d="M538.9 690.5c-3.2 0-3.2 4.9 0 4.9s3.2-5 0-4.9z"/><path class="st2" d="M513.3 718.6V768h51.3v-49.4h-51.3zm25.6 28.1c-3.2 0-3.2-4.9 0-4.9s3.2 4.9 0 4.9z"/><path class="st3" d="M538.9 741.8c-3.2 0-3.2 4.9 0 4.9s3.2-4.9 0-4.9z"/><path class="st2" d="M513.3 51.3V0H462v51.3h51.3zm-25.7-28.1c3.2 0 3.2 4.9 0 4.9s-3.2-4.9 0-4.9z"/><path class="st3" d="M487.6 28.1c3.2 0 3.2-4.9 0-4.9s-3.2 4.9 0 4.9z"/><path class="st2" d="M513.3 102.7V51.3H462v51.3h51.3zm-25.7-28.2c3.2 0 3.2 4.9 0 4.9-3.2.1-3.2-4.9 0-4.9z"/><path class="st3" d="M487.6 79.4c3.2 0 3.2-4.9 0-4.9s-3.2 5 0 4.9z"/><path class="st2" d="M513.3 102.7H462V154h51.3v-51.3zm-25.7 28.1c-3.2 0-3.2-4.9 0-4.9 3.2-.1 3.2 4.9 0 4.9z"/><path class="st3" d="M487.6 125.9c-3.2 0-3.2 4.9 0 4.9s3.2-5 0-4.9z"/><path class="st2" d="M513.3 154H462v51.3h51.3V154zm-25.7 28.1c-3.2 0-3.2-4.9 0-4.9s3.2 4.9 0 4.9z"/><path class="st3" d="M487.6 177.2c-3.2 0-3.2 4.9 0 4.9s3.2-4.9 0-4.9z"/><path class="st2" d="M513.3 205.3H462v51.3h51.3v-51.3zm-25.7 28.1c-3.2 0-3.2-4.9 0-4.9s3.2 5 0 4.9z"/><path class="st3" d="M487.6 228.5c-3.2 0-3.2 4.9 0 4.9 3.2.1 3.2-4.9 0-4.9z"/><path class="st2" d="M513.3 256.6H462V308h51.3v-51.4zm-25.7 28.1c-3.2 0-3.2-4.9 0-4.9s3.2 5 0 4.9z"/><path class="st3" d="M487.6 279.9c-3.2 0-3.2 4.9 0 4.9s3.2-5 0-4.9z"/><path class="st2" d="M513.3 308H462v51.3h51.3V308zm-25.7 28.1c-3.2 0-3.2-4.9 0-4.9 3.2-.1 3.2 4.9 0 4.9z"/><path class="st3" d="M487.6 331.2c-3.2 0-3.2 4.9 0 4.9s3.2-5 0-4.9z"/><path class="st2" d="M513.3 359.3H462v51.3h51.3v-51.3zm-25.7 28.1c-3.2 0-3.2-4.9 0-4.9s3.2 4.9 0 4.9z"/><path class="st3" d="M487.6 382.5c-3.2 0-3.2 4.9 0 4.9s3.2-4.9 0-4.9z"/><path class="st2" d="M513.3 410.6H462v51.3h51.3v-51.3zm-25.7 28.1c-3.2 0-3.2-4.9 0-4.9s3.2 5 0 4.9z"/><path class="st3" d="M487.6 433.8c-3.2 0-3.2 4.9 0 4.9 3.2.1 3.2-4.9 0-4.9z"/><path class="st2" d="M513.3 462H462v51.3h51.3V462zm-25.7 28c-3.2 0-3.2-4.9 0-4.9s3.2 5 0 4.9z"/><path class="st3" d="M487.6 485.2c-3.2 0-3.2 4.9 0 4.9s3.2-5 0-4.9z"/><path class="st2" d="M513.3 513.3H462v51.3h51.3v-51.3zm-25.7 28.1c-3.2 0-3.2-4.9 0-4.9 3.2-.1 3.2 4.9 0 4.9z"/><path class="st3" d="M487.6 536.5c-3.2 0-3.2 4.9 0 4.9s3.2-5 0-4.9z"/><path class="st2" d="M513.3 564.6H462v51.3h51.3v-51.3zm-25.7 28.1c-3.2 0-3.2-4.9 0-4.9s3.2 4.9 0 4.9z"/><path class="st3" d="M487.6 587.8c-3.2 0-3.2 4.9 0 4.9s3.2-4.9 0-4.9z"/><path class="st2" d="M462 615.9v51.3h51.3v-51.3H462zm25.6 28.1c-3.2 0-3.2-4.9 0-4.9s3.2 5 0 4.9z"/><path class="st3" d="M487.6 639.2c-3.2 0-3.2 4.9 0 4.9s3.2-5 0-4.9z"/><path class="st2" d="M462 667.2v51.3h51.3v-51.3H462zm25.6 28.1c-3.2 0-3.2-4.9 0-4.9s3.2 5 0 4.9z"/><path class="st3" d="M487.6 690.5c-3.2 0-3.2 4.9 0 4.9s3.2-5 0-4.9z"/><path class="st2" d="M462 718.6V768h51.3v-49.4H462zm25.6 28.1c-3.2 0-3.2-4.9 0-4.9s3.2 4.9 0 4.9z"/><path class="st3" d="M487.6 741.8c-3.2 0-3.2 4.9 0 4.9s3.2-4.9 0-4.9z"/><path class="st2" d="M461.9 51.3V0h-51.3v51.3h51.3zm-25.6-28.1c3.2 0 3.2 4.9 0 4.9s-3.2-4.9 0-4.9z"/><path class="st3" d="M436.3 28.1c3.2 0 3.2-4.9 0-4.9s-3.2 4.9 0 4.9z"/><path class="st2" d="M461.9 51.3h-51.3v51.3h51.3V51.3zm-25.6 28.1c-3.2 0-3.2-4.9 0-4.9 3.1 0 3.1 5 0 4.9z"/><path class="st3" d="M436.3 74.5c-3.2 0-3.2 4.9 0 4.9 3.1.1 3.1-4.9 0-4.9z"/><path class="st2" d="M461.9 102.7h-51.3V154h51.3v-51.3zm-25.6 28.1c-3.2 0-3.2-4.9 0-4.9 3.1-.1 3.1 4.9 0 4.9z"/><path class="st3" d="M436.3 125.9c-3.2 0-3.2 4.9 0 4.9 3.1 0 3.1-5 0-4.9z"/><path class="st2" d="M461.9 154h-51.3v51.3h51.3V154zm-25.6 28.1c-3.2 0-3.2-4.9 0-4.9 3.1 0 3.1 4.9 0 4.9z"/><path class="st3" d="M436.3 177.2c-3.2 0-3.2 4.9 0 4.9 3.1 0 3.1-4.9 0-4.9z"/><path class="st2" d="M461.9 205.3h-51.3v51.3h51.3v-51.3zm-25.6 28.1c-3.2 0-3.2-4.9 0-4.9 3.1 0 3.1 5 0 4.9z"/><path class="st3" d="M436.3 228.5c-3.2 0-3.2 4.9 0 4.9 3.1.1 3.1-4.9 0-4.9z"/><path class="st2" d="M461.9 256.6h-51.3V308h51.3v-51.4zm-25.6 28.1c-3.2 0-3.2-4.9 0-4.9 3.1 0 3.1 5 0 4.9z"/><path class="st3" d="M436.3 279.9c-3.2 0-3.2 4.9 0 4.9 3.1 0 3.1-5 0-4.9z"/><path class="st2" d="M461.9 308h-51.3v51.3h51.3V308zm-25.6 28.1c-3.2 0-3.2-4.9 0-4.9 3.1-.1 3.1 4.9 0 4.9z"/><path class="st3" d="M436.3 331.2c-3.2 0-3.2 4.9 0 4.9 3.1 0 3.1-5 0-4.9z"/><path class="st2" d="M461.9 359.3h-51.3v51.3h51.3v-51.3zm-25.6 28.1c-3.2 0-3.2-4.9 0-4.9 3.1 0 3.1 4.9 0 4.9z"/><path class="st3" d="M436.3 382.5c-3.2 0-3.2 4.9 0 4.9 3.1 0 3.1-4.9 0-4.9z"/><path class="st2" d="M461.9 410.6h-51.3v51.3h51.3v-51.3zm-25.6 28.1c-3.2 0-3.2-4.9 0-4.9 3.1 0 3.1 5 0 4.9z"/><path class="st3" d="M436.3 433.8c-3.2 0-3.2 4.9 0 4.9 3.1.1 3.1-4.9 0-4.9z"/><path class="st2" d="M461.9 462h-51.3v51.3h51.3V462zm-25.6 28c-3.2 0-3.2-4.9 0-4.9 3.1 0 3.1 5 0 4.9z"/><path class="st3" d="M436.3 485.2c-3.2 0-3.2 4.9 0 4.9 3.1 0 3.1-5 0-4.9z"/><path class="st2" d="M461.9 513.3h-51.3v51.3h51.3v-51.3zm-25.6 28.1c-3.2 0-3.2-4.9 0-4.9 3.1-.1 3.1 4.9 0 4.9z"/><path class="st3" d="M436.3 536.5c-3.2 0-3.2 4.9 0 4.9 3.1 0 3.1-5 0-4.9z"/><path class="st2" d="M461.9 564.6h-51.3v51.3h51.3v-51.3zm-25.6 28.1c-3.2 0-3.2-4.9 0-4.9 3.1 0 3.1 4.9 0 4.9z"/><path class="st3" d="M436.3 587.8c-3.2 0-3.2 4.9 0 4.9 3.1 0 3.1-4.9 0-4.9z"/><path class="st2" d="M461.9 615.9h-51.3v51.3h51.3v-51.3zM436.3 644c-3.2 0-3.2-4.9 0-4.9 3.1 0 3.1 5 0 4.9z"/><path class="st3" d="M436.3 639.2c-3.2 0-3.2 4.9 0 4.9 3.1 0 3.1-5 0-4.9z"/><path class="st2" d="M410.6 667.2v51.3h51.3v-51.3h-51.3zm25.7 28.1c-3.2 0-3.2-4.9 0-4.9 3.1 0 3.1 5 0 4.9z"/><path class="st3" d="M436.3 690.5c-3.2 0-3.2 4.9 0 4.9 3.1 0 3.1-5 0-4.9z"/><path class="st2" d="M410.6 718.6V768h51.3v-49.4h-51.3zm25.7 28.1c-3.2 0-3.2-4.9 0-4.9 3.1 0 3.1 4.9 0 4.9z"/><path class="st3" d="M436.3 741.8c-3.2 0-3.2 4.9 0 4.9 3.1 0 3.1-4.9 0-4.9z"/><path class="st2" d="M410.6 0h-51.3v51.3h51.3V0zm-25.7 28.1c-3.2 0-3.2-4.9 0-4.9s3.2 4.9 0 4.9z"/><path class="st3" d="M385 23.2c-3.2 0-3.2 4.9 0 4.9 3.1 0 3.1-4.9 0-4.9z"/><path class="st2" d="M410.6 51.3h-51.3v51.3h51.3V51.3zm-25.7 28.1c-3.2 0-3.2-4.9 0-4.9s3.2 5 0 4.9z"/><path class="st3" d="M385 74.5c-3.2 0-3.2 4.9 0 4.9 3.1.1 3.1-4.9 0-4.9z"/><path class="st2" d="M410.6 102.7h-51.3V154h51.3v-51.3zm-25.7 28.1c-3.2 0-3.2-4.9 0-4.9 3.2-.1 3.2 4.9 0 4.9z"/><path class="st3" d="M385 125.9c-3.2 0-3.2 4.9 0 4.9 3.1 0 3.1-5 0-4.9z"/><path class="st2" d="M410.6 154h-51.3v51.3h51.3V154zm-25.7 28.1c-3.2 0-3.2-4.9 0-4.9s3.2 4.9 0 4.9z"/><path class="st3" d="M385 177.2c-3.2 0-3.2 4.9 0 4.9 3.1 0 3.1-4.9 0-4.9z"/><path class="st2" d="M410.6 205.3h-51.3v51.3h51.3v-51.3zm-25.7 28.1c-3.2 0-3.2-4.9 0-4.9s3.2 5 0 4.9z"/><path class="st3" d="M385 228.5c-3.2 0-3.2 4.9 0 4.9 3.1.1 3.1-4.9 0-4.9z"/><path class="st2" d="M410.6 256.6h-51.3V308h51.3v-51.4zm-25.7 28.1c-3.2 0-3.2-4.9 0-4.9s3.2 5 0 4.9z"/><path class="st3" d="M385 279.9c-3.2 0-3.2 4.9 0 4.9 3.1 0 3.1-5 0-4.9z"/><path class="st2" d="M410.6 308h-51.3v51.3h51.3V308zm-25.7 28.1c-3.2 0-3.2-4.9 0-4.9 3.2-.1 3.2 4.9 0 4.9z"/><path class="st3" d="M385 331.2c-3.2 0-3.2 4.9 0 4.9 3.1 0 3.1-5 0-4.9z"/><path class="st2" d="M410.6 359.3h-51.3v51.3h51.3v-51.3zm-25.7 28.1c-3.2 0-3.2-4.9 0-4.9s3.2 4.9 0 4.9z"/><path class="st3" d="M385 382.5c-3.2 0-3.2 4.9 0 4.9 3.1 0 3.1-4.9 0-4.9z"/><path class="st2" d="M410.6 410.6h-51.3v51.3h51.3v-51.3zm-25.7 28.1c-3.2 0-3.2-4.9 0-4.9s3.2 5 0 4.9z"/><path class="st3" d="M385 433.8c-3.2 0-3.2 4.9 0 4.9 3.1.1 3.1-4.9 0-4.9z"/><path class="st2" d="M410.6 462h-51.3v51.3h51.3V462zm-25.7 28c-3.2 0-3.2-4.9 0-4.9s3.2 5 0 4.9z"/><path class="st3" d="M385 485.2c-3.2 0-3.2 4.9 0 4.9 3.1 0 3.1-5 0-4.9z"/><path class="st2" d="M410.6 513.3h-51.3v51.3h51.3v-51.3zm-25.7 28.1c-3.2 0-3.2-4.9 0-4.9 3.2-.1 3.2 4.9 0 4.9z"/><path class="st3" d="M385 536.5c-3.2 0-3.2 4.9 0 4.9 3.1 0 3.1-5 0-4.9z"/><path class="st2" d="M410.6 564.6h-51.3v51.3h51.3v-51.3zm-25.7 28.1c-3.2 0-3.2-4.9 0-4.9s3.2 4.9 0 4.9z"/><path class="st3" d="M385 587.8c-3.2 0-3.2 4.9 0 4.9 3.1 0 3.1-4.9 0-4.9z"/><path class="st2" d="M410.6 615.9h-51.3v51.3h51.3v-51.3zM384.9 644c-3.2 0-3.2-4.9 0-4.9s3.2 5 0 4.9z"/><path class="st3" d="M385 639.2c-3.2 0-3.2 4.9 0 4.9 3.1 0 3.1-5 0-4.9z"/><path class="st2" d="M410.6 667.2h-51.3v51.3h51.3v-51.3zm-25.7 28.1c-3.2 0-3.2-4.9 0-4.9s3.2 5 0 4.9z"/><path class="st3" d="M385 690.5c-3.2 0-3.2 4.9 0 4.9 3.1 0 3.1-5 0-4.9z"/><path class="st2" d="M359.3 718.6V768h51.3v-49.4h-51.3zm25.6 28.1c-3.2 0-3.2-4.9 0-4.9s3.2 4.9 0 4.9z"/><path class="st3" d="M385 741.8c-3.2 0-3.2 4.9 0 4.9 3.1 0 3.1-4.9 0-4.9z"/><path class="st2" d="M359.3 51.3V0H308v51.3h51.3zm-25.7-28.1c3.2 0 3.2 4.9 0 4.9-3.1 0-3.1-4.9 0-4.9z"/><path class="st3" d="M333.6 28.1c3.2 0 3.2-4.9 0-4.9-3.1 0-3.1 4.9 0 4.9z"/><path class="st2" d="M308 102.7h51.3V51.3H308v51.4zm25.6-28.2c3.2 0 3.2 4.9 0 4.9-3.1.1-3.1-4.9 0-4.9z"/><path class="st3" d="M333.6 79.4c3.2 0 3.2-4.9 0-4.9-3.1 0-3.1 5 0 4.9z"/><path class="st2" d="M308 154h51.3v-51.3H308V154zm25.6-28.1c3.2 0 3.2 4.9 0 4.9-3.1 0-3.1-5 0-4.9z"/><path class="st3" d="M333.6 130.8c3.2 0 3.2-4.9 0-4.9-3.1-.1-3.1 4.9 0 4.9z"/><path class="st2" d="M308 205.3h51.3V154H308v51.3zm25.6-28.1c3.2 0 3.2 4.9 0 4.9-3.1 0-3.1-4.9 0-4.9z"/><path class="st3" d="M333.6 182.1c3.2 0 3.2-4.9 0-4.9-3.1 0-3.1 4.9 0 4.9z"/><path class="st2" d="M308 256.6h51.3v-51.3H308v51.3zm25.6-28.1c3.2 0 3.2 4.9 0 4.9-3.1.1-3.1-4.9 0-4.9z"/><path class="st3" d="M333.6 233.4c3.2 0 3.2-4.9 0-4.9-3.1 0-3.1 5 0 4.9z"/><path class="st2" d="M308 308h51.3v-51.3H308V308zm25.6-28.1c3.2 0 3.2 4.9 0 4.9-3.1 0-3.1-5 0-4.9z"/><path class="st3" d="M333.6 284.7c3.2 0 3.2-4.9 0-4.9-3.1 0-3.1 5 0 4.9z"/><path class="st2" d="M308 359.3h51.3V308H308v51.3zm25.6-28.1c3.2 0 3.2 4.9 0 4.9-3.1 0-3.1-5 0-4.9z"/><path class="st3" d="M333.6 336.1c3.2 0 3.2-4.9 0-4.9-3.1-.1-3.1 4.9 0 4.9z"/><path class="st2" d="M308 410.6h51.3v-51.3H308v51.3zm25.6-28.1c3.2 0 3.2 4.9 0 4.9-3.1 0-3.1-4.9 0-4.9z"/><path class="st3" d="M333.6 387.4c3.2 0 3.2-4.9 0-4.9-3.1 0-3.1 4.9 0 4.9z"/><path class="st2" d="M308 461.9h51.3v-51.3H308v51.3zm25.6-28.1c3.2 0 3.2 4.9 0 4.9-3.1.1-3.1-4.9 0-4.9z"/><path class="st3" d="M333.6 438.7c3.2 0 3.2-4.9 0-4.9-3.1 0-3.1 5 0 4.9z"/><path class="st2" d="M308 513.3h51.3V462H308v51.3zm25.6-28.1c3.2 0 3.2 4.9 0 4.9-3.1 0-3.1-5 0-4.9z"/><path class="st3" d="M333.6 490c3.2 0 3.2-4.9 0-4.9-3.1 0-3.1 5 0 4.9z"/><path class="st2" d="M308 564.6h51.3v-51.3H308v51.3zm25.6-28.1c3.2 0 3.2 4.9 0 4.9-3.1 0-3.1-5 0-4.9z"/><path class="st3" d="M333.6 541.4c3.2 0 3.2-4.9 0-4.9-3.1-.1-3.1 4.9 0 4.9z"/><path class="st2" d="M308 615.9h51.3v-51.3H308v51.3zm25.6-28.1c3.2 0 3.2 4.9 0 4.9-3.1 0-3.1-4.9 0-4.9z"/><path class="st3" d="M333.6 592.7c3.2 0 3.2-4.9 0-4.9-3.1 0-3.1 4.9 0 4.9z"/><path class="st2" d="M308 667.2h51.3v-51.3H308v51.3zm25.6-28c3.2 0 3.2 4.9 0 4.9-3.1 0-3.1-5 0-4.9z"/><path class="st3" d="M333.6 644c3.2 0 3.2-4.9 0-4.9-3.1 0-3.1 5 0 4.9z"/><path class="st2" d="M308 718.6h51.3v-51.3H308v51.3zm25.6-28.1c3.2 0 3.2 4.9 0 4.9-3.1 0-3.1-5 0-4.9z"/><path class="st3" d="M333.6 695.3c3.2 0 3.2-4.9 0-4.9-3.1 0-3.1 5 0 4.9z"/><path class="st2" d="M308 718.6V768h51.3v-49.4H308zm25.6 28.1c-3.2 0-3.2-4.9 0-4.9s3.2 4.9 0 4.9z"/><path class="st3" d="M333.6 741.8c-3.2 0-3.2 4.9 0 4.9s3.2-4.9 0-4.9z"/><path class="st2" d="M308 51.3V0h-51.3v51.3H308zm-25.7-28.1c3.2 0 3.2 4.9 0 4.9s-3.2-4.9 0-4.9z"/><path class="st3" d="M282.3 28.1c3.2 0 3.2-4.9 0-4.9s-3.2 4.9 0 4.9z"/><path class="st2" d="M308 102.7V51.3h-51.3v51.3H308zm-25.7-28.2c3.2 0 3.2 4.9 0 4.9-3.2.1-3.2-4.9 0-4.9z"/><path class="st3" d="M282.3 79.4c3.2 0 3.2-4.9 0-4.9s-3.2 5 0 4.9z"/><path class="st2" d="M256.6 154H308v-51.3h-51.3V154zm25.7-28.1c3.2 0 3.2 4.9 0 4.9s-3.2-5 0-4.9z"/><path class="st3" d="M282.3 130.8c3.2 0 3.2-4.9 0-4.9-3.2-.1-3.2 4.9 0 4.9z"/><path class="st2" d="M256.6 205.3H308V154h-51.3v51.3zm25.7-28.1c3.2 0 3.2 4.9 0 4.9s-3.2-4.9 0-4.9z"/><path class="st3" d="M282.3 182.1c3.2 0 3.2-4.9 0-4.9s-3.2 4.9 0 4.9z"/><path class="st2" d="M256.6 256.6H308v-51.3h-51.3v51.3zm25.7-28.1c3.2 0 3.2 4.9 0 4.9-3.2.1-3.2-4.9 0-4.9z"/><path class="st3" d="M282.3 233.4c3.2 0 3.2-4.9 0-4.9s-3.2 5 0 4.9z"/><path class="st2" d="M256.6 308H308v-51.3h-51.3V308zm25.7-28.1c3.2 0 3.2 4.9 0 4.9s-3.2-5 0-4.9z"/><path class="st3" d="M282.3 284.7c3.2 0 3.2-4.9 0-4.9s-3.2 5 0 4.9z"/><path class="st2" d="M256.6 359.3H308V308h-51.3v51.3zm25.7-28.1c3.2 0 3.2 4.9 0 4.9s-3.2-5 0-4.9z"/><path class="st3" d="M282.3 336.1c3.2 0 3.2-4.9 0-4.9-3.2-.1-3.2 4.9 0 4.9z"/><path class="st2" d="M256.6 410.6H308v-51.3h-51.3v51.3zm25.7-28.1c3.2 0 3.2 4.9 0 4.9s-3.2-4.9 0-4.9z"/><path class="st3" d="M282.3 387.4c3.2 0 3.2-4.9 0-4.9s-3.2 4.9 0 4.9z"/><path class="st2" d="M256.6 461.9H308v-51.3h-51.3v51.3zm25.7-28.1c3.2 0 3.2 4.9 0 4.9-3.2.1-3.2-4.9 0-4.9z"/><path class="st3" d="M282.3 438.7c3.2 0 3.2-4.9 0-4.9s-3.2 5 0 4.9z"/><path class="st2" d="M256.6 513.3H308V462h-51.3v51.3zm25.7-28.1c3.2 0 3.2 4.9 0 4.9s-3.2-5 0-4.9z"/><path class="st3" d="M282.3 490c3.2 0 3.2-4.9 0-4.9s-3.2 5 0 4.9z"/><path class="st2" d="M256.6 564.6H308v-51.3h-51.3v51.3zm25.7-28.1c3.2 0 3.2 4.9 0 4.9s-3.2-5 0-4.9z"/><path class="st3" d="M282.3 541.4c3.2 0 3.2-4.9 0-4.9-3.2-.1-3.2 4.9 0 4.9z"/><path class="st2" d="M256.6 615.9H308v-51.3h-51.3v51.3zm25.7-28.1c3.2 0 3.2 4.9 0 4.9s-3.2-4.9 0-4.9z"/><path class="st3" d="M282.3 592.7c3.2 0 3.2-4.9 0-4.9s-3.2 4.9 0 4.9z"/><path class="st2" d="M256.6 667.2H308v-51.3h-51.3v51.3zm25.7-28c3.2 0 3.2 4.9 0 4.9s-3.2-5 0-4.9z"/><path class="st3" d="M282.3 644c3.2 0 3.2-4.9 0-4.9s-3.2 5 0 4.9z"/><path class="st2" d="M256.6 667.2v51.3H308v-51.3h-51.4zm25.7 28.1c-3.2 0-3.2-4.9 0-4.9s3.2 5 0 4.9z"/><path class="st3" d="M282.3 690.5c-3.2 0-3.2 4.9 0 4.9s3.2-5 0-4.9z"/><path class="st2" d="M256.6 718.6V768H308v-49.4h-51.4zm25.7 28.1c-3.2 0-3.2-4.9 0-4.9s3.2 4.9 0 4.9z"/><path class="st3" d="M282.3 741.8c-3.2 0-3.2 4.9 0 4.9s3.2-4.9 0-4.9z"/><path class="st2" d="M256.6 51.3V0h-51.3v51.3h51.3zM231 23.2c3.2 0 3.2 4.9 0 4.9s-3.2-4.9 0-4.9z"/><path class="st3" d="M231 28.1c3.2 0 3.2-4.9 0-4.9s-3.2 4.9 0 4.9z"/><path class="st2" d="M256.6 102.7V51.3h-51.3v51.3h51.3zM231 74.5c3.2 0 3.2 4.9 0 4.9-3.2.1-3.2-4.9 0-4.9z"/><path class="st3" d="M231 79.4c3.2 0 3.2-4.9 0-4.9s-3.2 5 0 4.9z"/><path class="st2" d="M256.6 154v-51.3h-51.3V154h51.3zM231 125.9c3.2 0 3.2 4.9 0 4.9s-3.2-5 0-4.9z"/><path class="st3" d="M231 130.8c3.2 0 3.2-4.9 0-4.9-3.2-.1-3.2 4.9 0 4.9z"/><path class="st2" d="M205.3 205.3h51.3V154h-51.3v51.3zm25.7-28.1c3.2 0 3.2 4.9 0 4.9s-3.2-4.9 0-4.9z"/><path class="st3" d="M231 182.1c3.2 0 3.2-4.9 0-4.9s-3.2 4.9 0 4.9z"/><path class="st2" d="M205.3 256.6h51.3v-51.3h-51.3v51.3zm25.7-28.1c3.2 0 3.2 4.9 0 4.9-3.2.1-3.2-4.9 0-4.9z"/><path class="st3" d="M231 233.4c3.2 0 3.2-4.9 0-4.9s-3.2 5 0 4.9z"/><path class="st2" d="M205.3 308h51.3v-51.3h-51.3V308zm25.7-28.1c3.2 0 3.2 4.9 0 4.9s-3.2-5 0-4.9z"/><path class="st3" d="M231 284.7c3.2 0 3.2-4.9 0-4.9s-3.2 5 0 4.9z"/><path class="st2" d="M205.3 359.3h51.3V308h-51.3v51.3zm25.7-28.1c3.2 0 3.2 4.9 0 4.9s-3.2-5 0-4.9z"/><path class="st3" d="M231 336.1c3.2 0 3.2-4.9 0-4.9-3.2-.1-3.2 4.9 0 4.9z"/><path class="st2" d="M205.3 410.6h51.3v-51.3h-51.3v51.3zm25.7-28.1c3.2 0 3.2 4.9 0 4.9s-3.2-4.9 0-4.9z"/><path class="st3" d="M231 387.4c3.2 0 3.2-4.9 0-4.9s-3.2 4.9 0 4.9z"/><path class="st2" d="M205.3 461.9h51.3v-51.3h-51.3v51.3zm25.7-28.1c3.2 0 3.2 4.9 0 4.9-3.2.1-3.2-4.9 0-4.9z"/><path class="st3" d="M231 438.7c3.2 0 3.2-4.9 0-4.9s-3.2 5 0 4.9z"/><path class="st2" d="M205.3 513.3h51.3V462h-51.3v51.3zm25.7-28.1c3.2 0 3.2 4.9 0 4.9s-3.2-5 0-4.9z"/><path class="st3" d="M231 490c3.2 0 3.2-4.9 0-4.9s-3.2 5 0 4.9z"/><path class="st2" d="M205.3 564.6h51.3v-51.3h-51.3v51.3zm25.7-28.1c3.2 0 3.2 4.9 0 4.9s-3.2-5 0-4.9z"/><path class="st3" d="M231 541.4c3.2 0 3.2-4.9 0-4.9-3.2-.1-3.2 4.9 0 4.9z"/><path class="st2" d="M205.3 615.9h51.3v-51.3h-51.3v51.3zm25.7-28.1c3.2 0 3.2 4.9 0 4.9s-3.2-4.9 0-4.9z"/><path class="st3" d="M231 592.7c3.2 0 3.2-4.9 0-4.9s-3.2 4.9 0 4.9z"/><path class="st2" d="M205.3 615.9v51.3h51.3v-51.3h-51.3zM231 644c-3.2 0-3.2-4.9 0-4.9 3.1 0 3.1 5 0 4.9z"/><path class="st3" d="M231 639.2c-3.2 0-3.2 4.9 0 4.9 3.1 0 3.1-5 0-4.9z"/><path class="st2" d="M205.3 667.2v51.3h51.3v-51.3h-51.3zm25.7 28.1c-3.2 0-3.2-4.9 0-4.9 3.1 0 3.1 5 0 4.9z"/><path class="st3" d="M231 690.5c-3.2 0-3.2 4.9 0 4.9 3.1 0 3.1-5 0-4.9z"/><path class="st2" d="M205.3 718.6V768h51.3v-49.4h-51.3zm25.7 28.1c-3.2 0-3.2-4.9 0-4.9 3.1 0 3.1 4.9 0 4.9z"/><path class="st3" d="M231 741.8c-3.2 0-3.2 4.9 0 4.9 3.1 0 3.1-4.9 0-4.9z"/><path class="st2" d="M205.3 51.3V0H154v51.3h51.3zm-25.7-28.1c3.2 0 3.2 4.9 0 4.9-3.1 0-3.1-4.9 0-4.9z"/><path class="st3" d="M179.6 28.1c3.2 0 3.2-4.9 0-4.9-3.1 0-3.1 4.9 0 4.9z"/><path class="st2" d="M205.3 102.7V51.3H154v51.3h51.3zm-25.7-28.2c3.2 0 3.2 4.9 0 4.9-3.1.1-3.1-4.9 0-4.9z"/><path class="st3" d="M179.6 79.4c3.2 0 3.2-4.9 0-4.9-3.1 0-3.1 5 0 4.9z"/><path class="st2" d="M205.3 154v-51.3H154V154h51.3zm-25.7-28.1c3.2 0 3.2 4.9 0 4.9-3.1 0-3.1-5 0-4.9z"/><path class="st3" d="M179.6 130.8c3.2 0 3.2-4.9 0-4.9-3.1-.1-3.1 4.9 0 4.9z"/><path class="st2" d="M205.3 154H154v51.3h51.3V154zm-25.7 28.1c-3.2 0-3.2-4.9 0-4.9s3.2 4.9 0 4.9z"/><path class="st3" d="M179.6 177.2c-3.2 0-3.2 4.9 0 4.9s3.2-4.9 0-4.9z"/><path class="st2" d="M205.3 205.3H154v51.3h51.3v-51.3zm-25.7 28.1c-3.2 0-3.2-4.9 0-4.9s3.2 5 0 4.9z"/><path class="st3" d="M179.6 228.5c-3.2 0-3.2 4.9 0 4.9 3.2.1 3.2-4.9 0-4.9z"/><path class="st2" d="M205.3 256.6H154V308h51.3v-51.4zm-25.7 28.1c-3.2 0-3.2-4.9 0-4.9s3.2 5 0 4.9z"/><path class="st3" d="M179.6 279.9c-3.2 0-3.2 4.9 0 4.9s3.2-5 0-4.9z"/><path class="st2" d="M205.3 308H154v51.3h51.3V308zm-25.7 28.1c-3.2 0-3.2-4.9 0-4.9 3.2-.1 3.2 4.9 0 4.9z"/><path class="st3" d="M179.6 331.2c-3.2 0-3.2 4.9 0 4.9s3.2-5 0-4.9z"/><path class="st2" d="M205.3 359.3H154v51.3h51.3v-51.3zm-25.7 28.1c-3.2 0-3.2-4.9 0-4.9s3.2 4.9 0 4.9z"/><path class="st3" d="M179.6 382.5c-3.2 0-3.2 4.9 0 4.9s3.2-4.9 0-4.9z"/><path class="st2" d="M205.3 410.6H154v51.3h51.3v-51.3zm-25.7 28.1c-3.2 0-3.2-4.9 0-4.9s3.2 5 0 4.9z"/><path class="st3" d="M179.6 433.8c-3.2 0-3.2 4.9 0 4.9 3.2.1 3.2-4.9 0-4.9z"/><path class="st2" d="M205.3 462H154v51.3h51.3V462zm-25.7 28c-3.2 0-3.2-4.9 0-4.9s3.2 5 0 4.9z"/><path class="st3" d="M179.6 485.2c-3.2 0-3.2 4.9 0 4.9s3.2-5 0-4.9z"/><path class="st2" d="M205.3 513.3H154v51.3h51.3v-51.3zm-25.7 28.1c-3.2 0-3.2-4.9 0-4.9 3.2-.1 3.2 4.9 0 4.9z"/><path class="st3" d="M179.6 536.5c-3.2 0-3.2 4.9 0 4.9s3.2-5 0-4.9z"/><path class="st2" d="M154 564.6v51.3h51.3v-51.3H154zm25.6 28.1c-3.2 0-3.2-4.9 0-4.9s3.2 4.9 0 4.9z"/><path class="st3" d="M179.6 587.8c-3.2 0-3.2 4.9 0 4.9s3.2-4.9 0-4.9z"/><path class="st2" d="M154 615.9v51.3h51.3v-51.3H154zm25.6 28.1c-3.2 0-3.2-4.9 0-4.9s3.2 5 0 4.9z"/><path class="st3" d="M179.6 639.2c-3.2 0-3.2 4.9 0 4.9s3.2-5 0-4.9z"/><path class="st2" d="M154 667.2v51.3h51.3v-51.3H154zm25.6 28.1c-3.2 0-3.2-4.9 0-4.9s3.2 5 0 4.9z"/><path class="st3" d="M179.6 690.5c-3.2 0-3.2 4.9 0 4.9s3.2-5 0-4.9z"/><path class="st2" d="M154 718.6V768h51.3v-49.4H154zm25.6 28.1c-3.2 0-3.2-4.9 0-4.9s3.2 4.9 0 4.9z"/><path class="st3" d="M179.6 741.8c-3.2 0-3.2 4.9 0 4.9s3.2-4.9 0-4.9z"/><path class="st2" d="M154 51.3V0h-51.3v51.3H154zm-25.7-28.1c3.2 0 3.2 4.9 0 4.9-3.1 0-3.1-4.9 0-4.9z"/><path class="st3" d="M128.3 28.1c3.2 0 3.2-4.9 0-4.9-3.1 0-3.1 4.9 0 4.9z"/><path class="st2" d="M154 102.7V51.3h-51.3v51.3H154zm-25.7-28.2c3.2 0 3.2 4.9 0 4.9-3.1.1-3.1-4.9 0-4.9z"/><path class="st3" d="M128.3 79.4c3.2 0 3.2-4.9 0-4.9-3.1 0-3.1 5 0 4.9z"/><path class="st2" d="M154 102.7h-51.3V154H154v-51.3zm-25.7 28.1c-3.2 0-3.2-4.9 0-4.9 3.2-.1 3.2 4.9 0 4.9z"/><path class="st3" d="M128.3 125.9c-3.2 0-3.2 4.9 0 4.9s3.2-5 0-4.9z"/><path class="st2" d="M154 154h-51.3v51.3H154V154zm-25.7 28.1c-3.2 0-3.2-4.9 0-4.9s3.2 4.9 0 4.9z"/><path class="st3" d="M128.3 177.2c-3.2 0-3.2 4.9 0 4.9s3.2-4.9 0-4.9z"/><path class="st2" d="M154 205.3h-51.3v51.3H154v-51.3zm-25.7 28.1c-3.2 0-3.2-4.9 0-4.9s3.2 5 0 4.9z"/><path class="st3" d="M128.3 228.5c-3.2 0-3.2 4.9 0 4.9 3.2.1 3.2-4.9 0-4.9z"/><path class="st2" d="M154 256.6h-51.3V308H154v-51.4zm-25.7 28.1c-3.2 0-3.2-4.9 0-4.9s3.2 5 0 4.9z"/><path class="st3" d="M128.3 279.9c-3.2 0-3.2 4.9 0 4.9s3.2-5 0-4.9z"/><path class="st2" d="M154 308h-51.3v51.3H154V308zm-25.7 28.1c-3.2 0-3.2-4.9 0-4.9 3.2-.1 3.2 4.9 0 4.9z"/><path class="st3" d="M128.3 331.2c-3.2 0-3.2 4.9 0 4.9s3.2-5 0-4.9z"/><path class="st2" d="M154 359.3h-51.3v51.3H154v-51.3zm-25.7 28.1c-3.2 0-3.2-4.9 0-4.9s3.2 4.9 0 4.9z"/><path class="st3" d="M128.3 382.5c-3.2 0-3.2 4.9 0 4.9s3.2-4.9 0-4.9z"/><path class="st2" d="M154 410.6h-51.3v51.3H154v-51.3zm-25.7 28.1c-3.2 0-3.2-4.9 0-4.9s3.2 5 0 4.9z"/><path class="st3" d="M128.3 433.8c-3.2 0-3.2 4.9 0 4.9 3.2.1 3.2-4.9 0-4.9z"/><path class="st2" d="M154 462h-51.3v51.3H154V462zm-25.7 28c-3.2 0-3.2-4.9 0-4.9s3.2 5 0 4.9z"/><path class="st3" d="M128.3 485.2c-3.2 0-3.2 4.9 0 4.9s3.2-5 0-4.9z"/><path class="st2" d="M154 513.3h-51.3v51.3H154v-51.3zm-25.7 28.1c-3.2 0-3.2-4.9 0-4.9 3.2-.1 3.2 4.9 0 4.9z"/><path class="st3" d="M128.3 536.5c-3.2 0-3.2 4.9 0 4.9s3.2-5 0-4.9z"/><path class="st2" d="M154 564.6h-51.3v51.3H154v-51.3zm-25.7 28.1c-3.2 0-3.2-4.9 0-4.9s3.2 4.9 0 4.9z"/><path class="st3" d="M128.3 587.8c-3.2 0-3.2 4.9 0 4.9s3.2-4.9 0-4.9z"/><path class="st2" d="M102.7 615.9v51.3H154v-51.3h-51.3zm25.6 28.1c-3.2 0-3.2-4.9 0-4.9s3.2 5 0 4.9z"/><path class="st3" d="M128.3 639.2c-3.2 0-3.2 4.9 0 4.9s3.2-5 0-4.9z"/><path class="st2" d="M102.7 667.2v51.3H154v-51.3h-51.3zm25.6 28.1c-3.2 0-3.2-4.9 0-4.9s3.2 5 0 4.9z"/><path class="st3" d="M128.3 690.5c-3.2 0-3.2 4.9 0 4.9s3.2-5 0-4.9z"/><path class="st2" d="M102.7 718.6V768H154v-49.4h-51.3zm25.6 28.1c-3.2 0-3.2-4.9 0-4.9s3.2 4.9 0 4.9z"/><path class="st3" d="M128.3 741.8c-3.2 0-3.2 4.9 0 4.9s3.2-4.9 0-4.9z"/><path class="st2" d="M102.7 0H51.3v51.3h51.3V0zM77 28.1c-3.2 0-3.2-4.9 0-4.9s3.2 4.9 0 4.9z"/><path class="st3" d="M77 23.2c-3.2 0-3.2 4.9 0 4.9s3.2-4.9 0-4.9z"/><path class="st2" d="M102.7 51.3H51.3v51.3h51.3V51.3zM77 79.4c-3.2 0-3.2-4.9 0-4.9s3.2 5 0 4.9z"/><path class="st3" d="M77 74.5c-3.2 0-3.2 4.9 0 4.9 3.2.1 3.2-4.9 0-4.9z"/><path class="st2" d="M102.7 102.7H51.3V154h51.3v-51.3zM77 130.8c-3.2 0-3.2-4.9 0-4.9 3.2-.1 3.2 4.9 0 4.9z"/><path class="st3" d="M77 125.9c-3.2 0-3.2 4.9 0 4.9s3.2-5 0-4.9z"/><path class="st2" d="M102.7 154H51.3v51.3h51.3V154zM77 182.1c-3.2 0-3.2-4.9 0-4.9s3.2 4.9 0 4.9z"/><path class="st3" d="M77 177.2c-3.2 0-3.2 4.9 0 4.9s3.2-4.9 0-4.9z"/><path class="st2" d="M102.7 205.3H51.3v51.3h51.3v-51.3zM77 233.4c-3.2 0-3.2-4.9 0-4.9s3.2 5 0 4.9z"/><path class="st3" d="M77 228.5c-3.2 0-3.2 4.9 0 4.9 3.2.1 3.2-4.9 0-4.9z"/><path class="st2" d="M102.7 256.6H51.3V308h51.3v-51.4zM77 284.7c-3.2 0-3.2-4.9 0-4.9s3.2 5 0 4.9z"/><path class="st3" d="M77 279.9c-3.2 0-3.2 4.9 0 4.9s3.2-5 0-4.9z"/><path class="st2" d="M102.7 308H51.3v51.3h51.3V308zM77 336.1c-3.2 0-3.2-4.9 0-4.9 3.2-.1 3.2 4.9 0 4.9z"/><path class="st3" d="M77 331.2c-3.2 0-3.2 4.9 0 4.9s3.2-5 0-4.9z"/><path class="st2" d="M102.7 359.3H51.3v51.3h51.3v-51.3zM77 387.4c-3.2 0-3.2-4.9 0-4.9s3.2 4.9 0 4.9z"/><path class="st3" d="M77 382.5c-3.2 0-3.2 4.9 0 4.9s3.2-4.9 0-4.9z"/><path class="st2" d="M102.7 410.6H51.3v51.3h51.3v-51.3zM77 438.7c-3.2 0-3.2-4.9 0-4.9s3.2 5 0 4.9z"/><path class="st3" d="M77 433.8c-3.2 0-3.2 4.9 0 4.9 3.2.1 3.2-4.9 0-4.9z"/><path class="st2" d="M102.7 462H51.3v51.3h51.3V462zM77 490c-3.2 0-3.2-4.9 0-4.9s3.2 5 0 4.9z"/><path class="st3" d="M77 485.2c-3.2 0-3.2 4.9 0 4.9s3.2-5 0-4.9z"/><path class="st2" d="M102.7 513.3H51.3v51.3h51.3v-51.3zM77 541.4c-3.2 0-3.2-4.9 0-4.9 3.2-.1 3.2 4.9 0 4.9z"/><path class="st3" d="M77 536.5c-3.2 0-3.2 4.9 0 4.9s3.2-5 0-4.9z"/><path class="st2" d="M102.7 564.6H51.3v51.3h51.3v-51.3zM77 592.7c-3.2 0-3.2-4.9 0-4.9s3.2 4.9 0 4.9z"/><path class="st3" d="M77 587.8c-3.2 0-3.2 4.9 0 4.9s3.2-4.9 0-4.9z"/><path class="st2" d="M102.7 615.9H51.3v51.3h51.3v-51.3zM77 644c-3.2 0-3.2-4.9 0-4.9s3.2 5 0 4.9z"/><path class="st3" d="M77 639.2c-3.2 0-3.2 4.9 0 4.9s3.2-5 0-4.9z"/><path class="st2" d="M102.7 667.2H51.3v51.3h51.3v-51.3zM77 695.3c-3.2 0-3.2-4.9 0-4.9s3.2 5 0 4.9z"/><path class="st3" d="M77 690.5c-3.2 0-3.2 4.9 0 4.9s3.2-5 0-4.9z"/><path class="st2" d="M51.3 718.6V768h51.3v-49.4H51.3zM77 746.7c-3.2 0-3.2-4.9 0-4.9s3.2 4.9 0 4.9z"/><path class="st3" d="M77 741.8c-3.2 0-3.2 4.9 0 4.9s3.2-4.9 0-4.9z"/><path class="st2" d="M51.3 0H0v51.3h51.3V0zM25.7 28.1c-3.2 0-3.2-4.9 0-4.9 3.1 0 3.1 4.9 0 4.9z"/><path class="st3" d="M25.7 23.2c-3.2 0-3.2 4.9 0 4.9 3.1 0 3.1-4.9 0-4.9z"/><path class="st2" d="M51.3 51.3H0v51.3h51.3V51.3zM25.7 79.4c-3.2 0-3.2-4.9 0-4.9 3.1 0 3.1 5 0 4.9z"/><path class="st3" d="M25.7 74.5c-3.2 0-3.2 4.9 0 4.9 3.1.1 3.1-4.9 0-4.9z"/><path class="st2" d="M51.3 102.7H0V154h51.3v-51.3zm-25.6 28.1c-3.2 0-3.2-4.9 0-4.9 3.1-.1 3.1 4.9 0 4.9z"/><path class="st3" d="M25.7 125.9c-3.2 0-3.2 4.9 0 4.9 3.1 0 3.1-5 0-4.9z"/><path class="st2" d="M51.3 154H0v51.3h51.3V154zm-25.6 28.1c-3.2 0-3.2-4.9 0-4.9 3.1 0 3.1 4.9 0 4.9z"/><path class="st3" d="M25.7 177.2c-3.2 0-3.2 4.9 0 4.9 3.1 0 3.1-4.9 0-4.9z"/><path class="st2" d="M51.3 205.3H0v51.3h51.3v-51.3zm-25.6 28.1c-3.2 0-3.2-4.9 0-4.9 3.1 0 3.1 5 0 4.9z"/><path class="st3" d="M25.7 228.5c-3.2 0-3.2 4.9 0 4.9 3.1.1 3.1-4.9 0-4.9z"/><path class="st2" d="M51.3 256.6H0V308h51.3v-51.4zm-25.6 28.1c-3.2 0-3.2-4.9 0-4.9 3.1 0 3.1 5 0 4.9z"/><path class="st3" d="M25.7 279.9c-3.2 0-3.2 4.9 0 4.9 3.1 0 3.1-5 0-4.9z"/><path class="st2" d="M51.3 308H0v51.3h51.3V308zm-25.6 28.1c-3.2 0-3.2-4.9 0-4.9 3.1-.1 3.1 4.9 0 4.9z"/><path class="st3" d="M25.7 331.2c-3.2 0-3.2 4.9 0 4.9 3.1 0 3.1-5 0-4.9z"/><path class="st2" d="M51.3 359.3H0v51.3h51.3v-51.3zm-25.6 28.1c-3.2 0-3.2-4.9 0-4.9 3.1 0 3.1 4.9 0 4.9z"/><path class="st3" d="M25.7 382.5c-3.2 0-3.2 4.9 0 4.9 3.1 0 3.1-4.9 0-4.9z"/><path class="st2" d="M51.3 410.6H0v51.3h51.3v-51.3zm-25.6 28.1c-3.2 0-3.2-4.9 0-4.9 3.1 0 3.1 5 0 4.9z"/><path class="st3" d="M25.7 433.8c-3.2 0-3.2 4.9 0 4.9 3.1.1 3.1-4.9 0-4.9z"/><path class="st2" d="M51.3 462H0v51.3h51.3V462zm-25.6 28c-3.2 0-3.2-4.9 0-4.9 3.1 0 3.1 5 0 4.9z"/><path class="st3" d="M25.7 485.2c-3.2 0-3.2 4.9 0 4.9 3.1 0 3.1-5 0-4.9z"/><path class="st2" d="M51.3 513.3H0v51.3h51.3v-51.3zm-25.6 28.1c-3.2 0-3.2-4.9 0-4.9 3.1-.1 3.1 4.9 0 4.9z"/><path class="st3" d="M25.7 536.5c-3.2 0-3.2 4.9 0 4.9 3.1 0 3.1-5 0-4.9z"/><path class="st2" d="M51.3 564.6H0v51.3h51.3v-51.3zm-25.6 28.1c-3.2 0-3.2-4.9 0-4.9 3.1 0 3.1 4.9 0 4.9z"/><path class="st3" d="M25.7 587.8c-3.2 0-3.2 4.9 0 4.9 3.1 0 3.1-4.9 0-4.9z"/><path class="st2" d="M51.3 615.9H0v51.3h51.3v-51.3zM25.7 644c-3.2 0-3.2-4.9 0-4.9 3.1 0 3.1 5 0 4.9z"/><path class="st3" d="M25.7 639.2c-3.2 0-3.2 4.9 0 4.9 3.1 0 3.1-5 0-4.9z"/><path class="st2" d="M51.3 667.2H0v51.3h51.3v-51.3zm-25.6 28.1c-3.2 0-3.2-4.9 0-4.9 3.1 0 3.1 5 0 4.9z"/><path class="st3" d="M25.7 690.5c-3.2 0-3.2 4.9 0 4.9 3.1 0 3.1-5 0-4.9z"/><path class="st2" d="M51.3 718.6H0V768h51.3v-49.4zm-25.6 28.1c-3.2 0-3.2-4.9 0-4.9 3.1 0 3.1 4.9 0 4.9z"/><path class="st3" d="M25.7 741.8c-3.2 0-3.2 4.9 0 4.9 3.1 0 3.1-4.9 0-4.9z"/></g><path class="st3" d="M325.7 355.7h-15.6v-15.3c0-.6-.5-1.1-1.1-1.1h-16.1c-.6 0-1.1.5-1.1 1.1v15.3h-9c-.6 0-1.1.5-1.1 1.1v14.6c0 .6.5 1.1 1.1 1.1h9v31.1c0 25.2 20.4 28.1 30.9 28.1h2.9c.6 0 1.1-.5 1.1-1.1V416c0-.6-.5-1.1-1.1-1.1h-2.9c-5.3.1-12.5-3.2-12.5-13.9v-28.5h15.6c.6 0 1.1-.5 1.1-1.1v-14.6c-.1-.6-.6-1.1-1.2-1.1zM179 335.8c-.2-.4-.6-.7-1-.7h-18.8c-.4 0-.8.3-1 .7L122 430.2c-.2.6.1 1.2.6 1.4.1 0 .2.1.4.1h17.6c.5 0 .9-.3 1-.8l5.5-16.1h42.7l5.5 16.1c.1.4.5.7 1 .8h17.9c.6 0 1.1-.5 1.1-1.2 0-.1 0-.2-.1-.4L179 335.8zm-25.9 62l15.4-45h.2l15.4 45h-31zM273.4 408.5c-.3-.5-1-.7-1.5-.5-.1 0-.1.1-.2.1-2.8 2.4-10.9 8.6-21.1 8.6-14.3 0-23.5-10.9-23.5-23.6 0-12.8 9-23.3 22.9-23.3 9.4 0 16.3 5.1 18.7 7.2.5.4 1.2.4 1.6-.1l.1-.1 7.1-11c.3-.4.2-1-.1-1.4-2.4-2.4-11.6-10.6-28.3-10.6-24.9 0-40.9 18-40.9 39.4 0 21.8 15.9 39.4 40.9 39.4 17.5 0 27.9-9.2 30.4-11.6.4-.3.4-.9.2-1.3l-6.3-11.2zM471.5 430l-23.9-37 23.1-35.6c.3-.5.2-1.2-.3-1.5-.2-.1-.4-.2-.6-.2h-18.5c-.4 0-.8.2-1 .6l-11.4 20.1c-1.2 1.9-2.5 4.7-2.5 4.7h-.4s-1.3-2.8-2.5-4.7L422 356.3c-.2-.4-.6-.6-1-.6h-34c-.5 0-.9.3-1.1.8l-14.6 43.2c-1.3 3.9-2.4 7.2-2.5 7.3-.1-.2-1.3-3.7-2.8-7.6l-15.8-42.9c-.2-.4-.6-.7-1-.7h-18.8c-.6 0-1.1.5-1.1 1.2 0 .1 0 .3.1.4l31.1 74.5-1.3 4c-2.2 6.7-8.9 10.9-14.1 10.9h-8.8c-.6 0-1.1.5-1.1 1.1v14.6c0 .6.5 1.1 1.1 1.1h9.6c11.4 0 22-7.1 27.3-20.9l31.3-81 20.4 31.4-24.4 37c-.3.5-.2 1.2.3 1.5.2.1.4.2.6.2h18.1c.4 0 .7-.2.9-.5l13.5-22c.8-1.3 1.5-2.6 2.1-4h.3c.6 1.4 1.3 2.7 2.1 4l13 22c.2.3.6.6 1 .5h18.1c.6 0 1.1-.5 1.1-1.1.1-.3 0-.5-.1-.7z"/><g><path class="st4" d="M115.8 504.5h21.1c19.1 0 31.5 11.3 31.5 30.8s-12.4 31-31.5 31h-21.1v-61.8zm20.5 52.1c12.5 0 20.5-7.4 20.5-21.3 0-13.8-8.2-21.2-20.5-21.2h-9.2v42.5h9.2zM197.8 520.8c12.8 0 19.7 9.3 19.7 21.1 0 1.3-.3 4.3-.3 4.3h-30.6c.7 7.7 6.7 11.8 13.3 11.8 7.1 0 12.8-4.9 12.8-4.9l4.3 7.9c-5 4.1-11.3 6.4-17.8 6.4-14.7 0-23.9-10.6-23.9-23.2 0-13.8 9.3-23.4 22.5-23.4zm8.6 17.8c-.2-6-3.9-9.2-8.8-9.2-5.7 0-9.6 3.5-10.6 9.2h19.4zM220.5 521.9h11.7l9.2 27.5c.9 2.6 1.5 6.7 1.6 6.7h.2c.1 0 .7-4.1 1.6-6.7l9.3-27.5h11.7l-15.9 44.4h-13.1l-16.3-44.4zM291.2 520.8c12.8 0 19.7 9.3 19.7 21.1 0 1.3-.3 4.3-.3 4.3H280c.7 7.7 6.7 11.8 13.3 11.8 7.1 0 12.8-4.9 12.8-4.9l4.3 7.9c-5 4.1-11.3 6.4-17.8 6.4-14.7 0-23.9-10.6-23.9-23.2 0-13.8 9.3-23.4 22.5-23.4zm8.5 17.8c-.2-6-3.9-9.2-8.8-9.2-5.6 0-9.6 3.5-10.6 9.2h19.4zM319.4 504.5h11v46.3c0 4.9 1.6 6.1 4.5 6.1.6 0 1.1 0 1.7-.1v9.7c-1.2.2-2.3.3-3.5.3-6.1 0-13.7-1.6-13.7-14.3v-48zM365.8 520.8c13.6 0 24.5 9.7 24.5 23.2s-10.9 23.2-24.4 23.2-24.5-9.6-24.5-23.2 10.9-23.2 24.4-23.2zm.1 37.1c7.1 0 13.1-5.6 13.1-13.8s-6-13.8-13.1-13.8-13.2 5.7-13.2 13.8 5.9 13.8 13.2 13.8zM399.1 521.9h10.1v3.2c0 1-.1 2-.2 3h.2s3.8-7.3 14.3-7.3c12 0 19.7 9.5 19.7 23.2 0 14.1-8.6 23.2-20.3 23.2-5 .2-9.7-2.1-12.7-6.1h-.2c.1 1.3.2 2.6.2 3.8v18.6h-11.1v-61.6zm21.8 36.1c6.1 0 11.1-5 11.1-13.8 0-8.4-4.5-13.9-11-13.9-5.7 0-11.1 4.2-11.1 14-.1 6.9 3.7 13.7 11 13.7zM471.7 520.8c12.8 0 19.7 9.3 19.7 21.1 0 1.3-.3 4.3-.3 4.3h-30.6c.7 7.7 6.7 11.8 13.3 11.8 7.1 0 12.8-4.9 12.8-4.9l4.3 7.9c-5 4.2-11.3 6.4-17.9 6.4-14.7 0-23.9-10.6-23.9-23.2.1-13.8 9.4-23.4 22.6-23.4zm8.5 17.8c-.2-6-3.9-9.2-8.8-9.2-5.7 0-9.6 3.5-10.6 9.2h19.4zM500.5 521.9h10.6v7.7c0 1-.1 2.1-.2 3.1h.2c2-6.4 7.3-11.4 14.1-11.4.7 0 1.3.1 2 .2v10.9c-.9-.1-1.7-.2-2.6-.2-4.7 0-10 2.7-12.1 9.3-.7 2.3-1 4.8-1 7.2v17.6h-11v-44.4zM115.8 596.9h21.1c19.1 0 31.5 11.3 31.5 30.8s-12.4 31-31.5 31h-21.1v-61.8zm20.5 52.2c12.5 0 20.5-7.4 20.5-21.3 0-13.8-8.2-21.2-20.5-21.2h-9.2v42.5h9.2zM199.5 613.3c13.6 0 24.5 9.7 24.5 23.2s-10.9 23.2-24.4 23.2-24.5-9.6-24.5-23.2 10.9-23.2 24.4-23.2zm.1 37.1c7.1 0 13.1-5.6 13.1-13.8s-6-13.8-13.1-13.8-13.2 5.7-13.2 13.8 5.9 13.8 13.2 13.8zM253.7 613.3c11.6 0 17.1 6.6 17.1 6.6l-4.9 7.6c-3.1-3-7.3-4.7-11.6-4.8-8.2 0-13.5 6.2-13.5 13.8s5.4 13.9 13.8 13.9c7.5 0 13.1-5.7 13.1-5.7l4.3 7.8s-6.4 7.2-18.3 7.2c-14.7 0-24.1-10.4-24.1-23.2 0-12.6 9.4-23.2 24.1-23.2zM279.6 614.3h11v26.3c0 5.4 1.4 9 6.9 9 8 0 12.5-7 12.5-15v-20.3h11v44.4h-10.6v-5c0-1 .1-2.1.2-3.1h-.2c-3 5.7-8.9 9.3-15.4 9.2-9.5 0-15.4-4.8-15.4-16.9v-28.6zM333.2 614.3h10.6v5.1c0 1-.1 2-.2 3h.2c2.2-4.4 7.5-9.2 14.5-9.2 6.8 0 11.1 3.1 13 9.1h.2c3-5.6 8.8-9.1 15.1-9.1 9.2 0 14.5 5.2 14.5 16.9v28.5H390v-26.4c0-5-1-8.9-6.1-8.9-5.6 0-9.4 4.5-10.7 10.1-.4 1.9-.6 3.8-.5 5.8v19.5h-11.1v-26.5c0-4.8-.8-8.9-6-8.9-5.8 0-9.5 4.5-10.9 10.2-.4 1.9-.6 3.8-.5 5.7v19.5h-11.1v-44.4zM432.1 613.3c12.8 0 19.7 9.3 19.7 21.1 0 1.3-.3 4.3-.3 4.3h-30.6c.7 7.7 6.7 11.8 13.3 11.8 7.1 0 12.8-4.9 12.8-4.9l4.3 7.9c-5 4.1-11.3 6.4-17.8 6.4-14.7 0-23.9-10.6-23.9-23.2 0-13.8 9.3-23.4 22.5-23.4zm8.5 17.7c-.2-6-3.9-9.2-8.8-9.2-5.7 0-9.6 3.5-10.6 9.2h19.4zM460.9 614.3h10.6v5.1c0 1-.1 2-.2 3h.2c3-5.8 9.2-9.4 15.8-9.2 9.8 0 15.4 5.1 15.4 16.9v28.5h-11v-26.2c0-5.4-1.4-9-7-9-5.9 0-10.3 3.7-11.9 9-.6 1.9-.8 3.9-.8 5.9v20.4h-11v-44.4zM516.2 623.8h-5.7V615h6v-12.8h10.8V615h10.1v8.8h-10.1V641c0 7.3 5.7 8.4 8.8 8.4.7 0 1.3 0 2-.2v9.7c-1.1.2-2.3.3-3.4.3-6.2 0-18.5-1.8-18.5-16.7v-18.7zM569.6 630.9h1.5v-.6c0-5.8-3.7-7.8-8.5-7.8-6.3 0-12.2 4.3-12.2 4.3l-4.2-7.9c5.1-3.6 11.2-5.5 17.4-5.5 11.7 0 18.5 6.4 18.5 17.7v27.8h-10.2v-3.7c0-1 .1-2.1.2-3.1h-.2c.1 0-3.4 7.8-13.5 7.8-7.9 0-15.1-5-15.1-13.8 0-14.3 19.1-15.2 26.3-15.2zm-8.4 20.3c5.8 0 10-6.3 10-11.7v-1h-1.9c-5.7 0-14.8.8-14.8 7 0 2.9 2.2 5.7 6.7 5.7zM595.2 623.8h-5.7V615h6v-12.8h10.8V615h10.1v8.8h-10.1V641c0 7.3 5.7 8.4 8.8 8.4.7 0 1.3 0 2-.2v9.7c-1.1.2-2.3.3-3.4.3-6.2 0-18.5-1.8-18.5-16.7v-18.7zM626.1 596.9h11v9.8h-11v-9.8zm0 17.4h11v44.4h-11v-44.4zM670.4 613.3c13.6 0 24.5 9.7 24.5 23.2s-10.9 23.2-24.4 23.2-24.5-9.6-24.5-23.2 10.9-23.2 24.4-23.2zm.1 37.1c7.1 0 13.1-5.6 13.1-13.8s-6-13.8-13.1-13.8-13.2 5.7-13.2 13.8 6 13.8 13.2 13.8zM703.7 614.3h10.6v5.1c0 1-.1 2-.2 3h.2c3.1-5.8 9.2-9.4 15.8-9.2 9.8 0 15.4 5.1 15.4 16.9v28.5h-11v-26.2c0-5.4-1.4-9-7-9-5.9 0-10.3 3.7-11.9 9-.6 1.9-.8 3.9-.8 5.9v20.4h-11.1v-44.4z"/></g><path d="M1225.7 487V226.2c0-1.4-.7-2.7-1.9-3.3l-224-129.3c-1.2-.7-2.7-.7-3.9 0l-220.1 127c-1.8 1.1-2.5 3.4-1.4 5.3.3.6.8 1.1 1.4 1.4L884 289.7 996 225c1.2-.7 2.7-.7 3.9 0l110.1 63.5c1.2.7 1.9 2 1.9 3.4v129.3l-59.5 34.3-52.6 30.3c-1.2.7-2.7.7-3.9 0l-110.1-63.5c-1.2-.7-1.9-2-1.9-3.4V289.7l-112 64.7c-1.2.7-1.9 2-1.9 3.3v127c0 1.4.7 2.7 1.9 3.3l224 129.3c1.2.7 2.7.7 3.9 0l112-64.7 52.5 30.3c1.2.7 2.7.7 3.9 0l106.2-61.3c1.8-1.1 2.5-3.4 1.4-5.3-.3-.6-.8-1.1-1.4-1.4l-48.7-27.9z" fill="#232b38"/></svg>