<svg xmlns="http://www.w3.org/2000/svg" xmlns:xlink="http://www.w3.org/1999/xlink" width="1226.58" height="771.32" viewBox="0 0 1226.58 771.32">
  <defs>
    <style>
      .ad4442c9-a4f6-4311-ac09-afc93b91708c {
        opacity: 0.5;
        filter: url(#e3336e51-89f4-4bb1-8123-890966683f23);
      }

      .e2b099c9-0b2c-456f-9803-dfe4bce84617 {
        fill: #fff;
      }

      .f1d0c8c5-68af-41c0-b0e9-a427b55b2856 {
        fill: #3d464c;
      }

      .b874b079-86ba-4515-91fb-f0591ebc516f {
        fill: #0086e8;
      }

      .b68fc7f3-555a-4bbf-a522-5d323735318c {
        fill: #596166;
      }

      .fe2e25ca-a5e0-4ea5-818c-55faf7e3cef7 {
        fill: #d1dde8;
      }
    </style>
    <filter id="e3336e51-89f4-4bb1-8123-890966683f23" x="-15%" y="-15%" width="140%" height="130%" name="AI_Shadow_2">
      <feGaussianBlur result="blur" stdDeviation="24" in="SourceAlpha"/>
      <feOffset result="offsetBlurredAlpha" in="blur"/>
      <feMerge>
        <feMergeNode in="offsetBlurredAlpha"/>
        <feMergeNode in="SourceGraphic"/>
      </feMerge>
    </filter>
  </defs>
  <g id="e58ea9ff-5828-4d37-a7d8-3e14ac8f8b59" data-name="Layer 1">
    <g class="ad4442c9-a4f6-4311-ac09-afc93b91708c">
      <path class="e2b099c9-0b2c-456f-9803-dfe4bce84617" d="M68.82,202.4a21,21,0,0,1,21-21H835.47a20,20,0,0,1,20,20V850.12H68.82Z"/>
    </g>
    <path class="f1d0c8c5-68af-41c0-b0e9-a427b55b2856" d="M64.43,201.15A24.17,24.17,0,0,1,88.59,177H945.3a23,23,0,0,1,23,23V771.54H64.43Z"/>
    <path class="b874b079-86ba-4515-91fb-f0591ebc516f" d="M732.1,613.78H132.7c-9.34,0-16.9,9.73-16.9,21.74V793.94c0,12,7.56,21.74,16.9,21.74H732.1c8.88,0,16.08-9.26,16.08-20.68V634.46C748.18,623,741,613.78,732.1,613.78Z"/>
    <rect class="b68fc7f3-555a-4bbf-a522-5d323735318c" x="114.89" y="310.28" width="631.81" height="19.75"/>
    <rect class="b68fc7f3-555a-4bbf-a522-5d323735318c" x="114.89" y="356.45" width="631.81" height="19.75"/>
    <rect class="b874b079-86ba-4515-91fb-f0591ebc516f" x="114.89" y="424.14" width="143.64" height="15.97"/>
    <rect class="b874b079-86ba-4515-91fb-f0591ebc516f" x="114.89" y="542.47" width="143.64" height="15.97"/>
    <rect class="b874b079-86ba-4515-91fb-f0591ebc516f" x="147.55" y="463.28" width="411.68" height="15.97"/>
    <rect class="b874b079-86ba-4515-91fb-f0591ebc516f" x="147.55" y="503.33" width="143.64" height="15.97"/>
    <rect class="b68fc7f3-555a-4bbf-a522-5d323735318c" x="424.31" y="580.29" width="161.33" height="19.75"/>
    <g>
      <path class="e2b099c9-0b2c-456f-9803-dfe4bce84617" d="M122.7,270.84V247H114v-4.36h22.4V247h-8.69v23.82Z"/>
      <path class="e2b099c9-0b2c-456f-9803-dfe4bce84617" d="M157.07,270.84h-4.66v-3.39h-.34c-1,2.44-3.45,3.82-6.62,3.82-4.7,0-7.61-2.91-7.61-8V249.48h4.84v12.67c0,3.28,1.54,4.87,4.45,4.87a4.73,4.73,0,0,0,5.1-5.1V249.48h4.84Z"/>
      <path class="e2b099c9-0b2c-456f-9803-dfe4bce84617" d="M168.58,244.38v5.23h4.69v3.87h-4.69V264c0,2.11.9,3,2.93,3a12.82,12.82,0,0,0,1.6-.1v3.79a13.66,13.66,0,0,1-2.5.23c-4.9,0-6.86-1.66-6.86-5.8V253.48h-3.47v-3.87h3.47v-5.23Z"/>
      <path class="e2b099c9-0b2c-456f-9803-dfe4bce84617" d="M175.94,260.16c0-6.89,3.93-11.11,10.28-11.11s10.27,4.2,10.27,11.11-3.89,11.11-10.27,11.11S175.94,267.09,175.94,260.16Zm15.57,0c0-4.45-1.93-7.05-5.29-7.05s-5.32,2.6-5.32,7.05,1.94,7,5.32,7S191.51,264.63,191.51,260.16Z"/>
      <path class="e2b099c9-0b2c-456f-9803-dfe4bce84617" d="M200.57,249.48h4.67v3.32h.33c.59-2.11,2.87-3.67,5.61-3.67a8.26,8.26,0,0,1,2,.21v4.49a11.77,11.77,0,0,0-2.46-.27c-3.11,0-5.29,1.95-5.29,4.94v12.34h-4.85Z"/>
      <path class="e2b099c9-0b2c-456f-9803-dfe4bce84617" d="M215.93,243.33a3,3,0,1,1,3,2.67A2.74,2.74,0,0,1,215.93,243.33Zm.58,6.15h4.83v21.36h-4.83Z"/>
      <path class="e2b099c9-0b2c-456f-9803-dfe4bce84617" d="M225.34,264.79c0-3.87,2.91-6.09,8.11-6.41l5.5-.33v-1.79c0-2.09-1.4-3.27-4-3.27-2.23,0-3.75.78-4.2,2.23h-4.57c.39-3.77,3.93-6.17,9-6.17,5.49,0,8.58,2.67,8.58,7.21v14.58h-4.67v-2.92h-.33a7.05,7.05,0,0,1-6.33,3.28C228.29,271.2,225.34,268.7,225.34,264.79ZM239,263v-1.7l-4.82.32c-2.72.17-4,1.15-4,2.89s1.55,2.87,3.7,2.87C236.77,267.39,239,265.49,239,263Z"/>
      <path class="e2b099c9-0b2c-456f-9803-dfe4bce84617" d="M249,241.22h4.85v29.62H249Z"/>
      <path class="e2b099c9-0b2c-456f-9803-dfe4bce84617" d="M267.18,249.05c5.08,0,8.26,2.24,8.61,6.13h-4.55c-.35-1.5-1.78-2.46-4-2.46s-3.87,1.05-3.87,2.6c0,1.21,1,1.95,3.16,2.44l3.77.86c4.09.92,6,2.67,6,5.82,0,4.1-3.77,6.83-9.1,6.83s-8.69-2.3-9.06-6.19h4.78c.47,1.59,2,2.52,4.4,2.52s4.14-1.07,4.14-2.65c0-1.21-.92-2-2.95-2.43l-3.79-.87c-4.1-.94-6-2.84-6-6.06C258.62,251.72,262.14,249.05,267.18,249.05Z"/>
    </g>
    <g class="ad4442c9-a4f6-4311-ac09-afc93b91708c">
      <path class="e2b099c9-0b2c-456f-9803-dfe4bce84617" d="M359.72,118.32a21,21,0,0,1,21-21h745.63a20,20,0,0,1,20,20V766H359.72Z"/>
    </g>
    <path class="e2b099c9-0b2c-456f-9803-dfe4bce84617" d="M353.27,113.16a21.37,21.37,0,0,1,21.37-21.37h757.85a20.33,20.33,0,0,1,20.32,20.33V771.54H353.27Z"/>
    <path class="f1d0c8c5-68af-41c0-b0e9-a427b55b2856" d="M1054.21,399.23H454.8c-9.33,0-16.9,9.74-16.9,21.74V579.39c0,12,7.57,21.74,16.9,21.74h599.41c8.87,0,16.07-9.26,16.07-20.67V419.91C1070.28,408.49,1063.08,399.23,1054.21,399.23Z"/>
    <rect class="fe2e25ca-a5e0-4ea5-818c-55faf7e3cef7" x="438.48" y="219.05" width="631.81" height="19.75"/>
    <rect class="fe2e25ca-a5e0-4ea5-818c-55faf7e3cef7" x="438.48" y="265.23" width="631.81" height="19.75"/>
    <rect class="fe2e25ca-a5e0-4ea5-818c-55faf7e3cef7" x="438.48" y="310.28" width="306.32" height="19.75"/>
    <rect class="fe2e25ca-a5e0-4ea5-818c-55faf7e3cef7" x="438.48" y="673.49" width="631.81" height="19.75"/>
    <rect class="fe2e25ca-a5e0-4ea5-818c-55faf7e3cef7" x="438.48" y="719.67" width="631.81" height="19.75"/>
    <rect class="b68fc7f3-555a-4bbf-a522-5d323735318c" x="482.67" y="442.89" width="543.97" height="19.75"/>
    <rect class="b68fc7f3-555a-4bbf-a522-5d323735318c" x="551.93" y="489.07" width="172.31" height="19.75"/>
    <rect class="b68fc7f3-555a-4bbf-a522-5d323735318c" x="747.9" y="489.07" width="161.33" height="19.75"/>
    <rect class="b68fc7f3-555a-4bbf-a522-5d323735318c" x="482.67" y="534.12" width="163.05" height="19.75"/>
    <g>
      <path class="b874b079-86ba-4515-91fb-f0591ebc516f" d="M449.84,151.44c8.38,0,13.27,5.11,13.27,14,0,9-4.83,14.22-13.27,14.22H439.28V151.44Zm-5.52,23.82h4.86c5.6,0,8.79-3.49,8.79-9.78s-3.26-9.69-8.79-9.69h-4.86Z"/>
      <path class="b874b079-86ba-4515-91fb-f0591ebc516f" d="M486.06,173.74c-.92,3.89-4.46,6.31-9.5,6.31-6.29,0-10.07-4.16-10.07-11s3.84-11.19,10-11.19,9.75,4.05,9.75,10.78v1.57H471.35v.25c.12,3.56,2.17,5.78,5.35,5.78,2.4,0,4.06-.88,4.77-2.46Zm-14.69-6.87h10.06c-.1-3.17-2-5.2-4.93-5.2S471.58,163.74,471.37,166.87Z"/>
      <path class="b874b079-86ba-4515-91fb-f0591ebc516f" d="M493.17,158.25l4.94,16.53h.33l4.9-16.53h5.12l-7.56,21.37h-5.33L488,158.25Z"/>
      <path class="b874b079-86ba-4515-91fb-f0591ebc516f" d="M529.42,173.74c-.92,3.89-4.46,6.31-9.5,6.31-6.28,0-10.07-4.16-10.07-11s3.84-11.19,10-11.19,9.74,4.05,9.74,10.78v1.57H514.71v.25c.12,3.56,2.17,5.78,5.35,5.78,2.4,0,4.06-.88,4.77-2.46Zm-14.69-6.87h10.06c-.1-3.17-2-5.2-4.92-5.2S514.94,163.74,514.73,166.87Z"/>
      <path class="b874b079-86ba-4515-91fb-f0591ebc516f" d="M533.89,150h4.84v29.63h-4.84Z"/>
      <path class="b874b079-86ba-4515-91fb-f0591ebc516f" d="M543,168.94c0-6.9,3.93-11.12,10.28-11.12s10.27,4.2,10.27,11.12-3.89,11.11-10.27,11.11S543,175.87,543,168.94Zm15.57,0c0-4.46-1.94-7.05-5.29-7.05s-5.32,2.59-5.32,7.05,1.94,7.05,5.32,7.05S558.56,173.41,558.56,168.94Z"/>
      <path class="b874b079-86ba-4515-91fb-f0591ebc516f" d="M588.07,168.94c0,6.81-3.36,11-8.75,11-3.07,0-5.43-1.33-6.52-3.59h-.33v10.08h-4.85V158.25h4.67v3.54h.33a7.25,7.25,0,0,1,6.64-3.89C584.67,157.9,588.07,162.08,588.07,168.94Zm-5,0c0-4.32-2-6.92-5.33-6.92s-5.37,2.66-5.39,6.92,2.07,6.91,5.37,6.91S583.09,173.25,583.09,168.94Z"/>
      <path class="b874b079-86ba-4515-91fb-f0591ebc516f" d="M610.65,173.74c-.92,3.89-4.45,6.31-9.49,6.31-6.29,0-10.08-4.16-10.08-11s3.85-11.19,10-11.19,9.74,4.05,9.74,10.78v1.57H595.94v.25c.12,3.56,2.17,5.78,5.35,5.78,2.41,0,4.07-.88,4.77-2.46ZM596,166.87H606c-.1-3.17-2-5.2-4.92-5.2S596.18,163.74,596,166.87Z"/>
      <path class="b874b079-86ba-4515-91fb-f0591ebc516f" d="M614.93,158.25h4.67v3.32h.33c.58-2.11,2.87-3.67,5.6-3.67a8.25,8.25,0,0,1,2,.22v4.49a11.15,11.15,0,0,0-2.47-.28c-3.1,0-5.29,2-5.29,4.95v12.34h-4.84Z"/>
      <path class="b874b079-86ba-4515-91fb-f0591ebc516f" d="M651.47,151.44c8.38,0,13.26,5.11,13.26,14,0,9-4.82,14.22-13.26,14.22H640.91V151.44ZM646,175.26h4.86c5.6,0,8.79-3.49,8.79-9.78s-3.26-9.69-8.79-9.69H646Z"/>
      <path class="b874b079-86ba-4515-91fb-f0591ebc516f" d="M668.11,168.94c0-6.9,3.93-11.12,10.28-11.12s10.27,4.2,10.27,11.12-3.89,11.11-10.27,11.11S668.11,175.87,668.11,168.94Zm15.57,0c0-4.46-1.93-7.05-5.29-7.05s-5.32,2.59-5.32,7.05S675,176,678.39,176,683.68,173.41,683.68,168.94Z"/>
      <path class="b874b079-86ba-4515-91fb-f0591ebc516f" d="M706.59,165.44a4.43,4.43,0,0,0-4.71-3.55c-3.32,0-5.29,2.55-5.29,7s2,7.11,5.29,7.11c2.52,0,4.2-1.19,4.71-3.42h4.61c-.53,4.47-3.89,7.48-9.3,7.48-6.42,0-10.21-4.14-10.21-11.17s3.77-11.06,10.19-11.06c5.49,0,8.81,3.13,9.32,7.62Z"/>
      <path class="b874b079-86ba-4515-91fb-f0591ebc516f" d="M734.07,179.62H729.4v-3.4h-.33c-1,2.44-3.45,3.83-6.62,3.83-4.71,0-7.62-2.91-7.62-8V158.25h4.85v12.68c0,3.28,1.54,4.86,4.45,4.86a4.73,4.73,0,0,0,5.1-5.1V158.25h4.84Z"/>
      <path class="b874b079-86ba-4515-91fb-f0591ebc516f" d="M739.21,158.25h4.67v3.46h.33a6,6,0,0,1,5.94-3.89,5.9,5.9,0,0,1,5.9,3.89h.33a6.91,6.91,0,0,1,6.48-3.89c4.28,0,6.86,2.68,6.86,7.11v14.69h-4.83V166.16c0-2.75-1.31-4.12-3.9-4.12a4.06,4.06,0,0,0-4.18,4.28v13.3H752.1V165.81a3.54,3.54,0,0,0-3.87-3.77,4.29,4.29,0,0,0-4.18,4.59v13h-4.84Z"/>
      <path class="b874b079-86ba-4515-91fb-f0591ebc516f" d="M793.18,173.74c-.92,3.89-4.46,6.31-9.5,6.31-6.29,0-10.07-4.16-10.07-11s3.84-11.19,10-11.19,9.75,4.05,9.75,10.78v1.57H778.47v.25c.12,3.56,2.17,5.78,5.35,5.78,2.4,0,4.06-.88,4.77-2.46Zm-14.69-6.87h10.06c-.1-3.17-2-5.2-4.93-5.2S778.7,163.74,778.49,166.87Z"/>
      <path class="b874b079-86ba-4515-91fb-f0591ebc516f" d="M797.45,158.25h4.67v3.42h.33c1-2.38,3.52-3.85,6.72-3.85,4.77,0,7.44,2.87,7.44,8v13.83h-4.82V166.94c0-3.26-1.48-4.9-4.41-4.9a4.75,4.75,0,0,0-5.08,5.14v12.44h-4.85Z"/>
      <path class="b874b079-86ba-4515-91fb-f0591ebc516f" d="M827.92,153.15v5.24h4.69v3.87h-4.69v10.48c0,2.11.9,3,2.93,3a12.57,12.57,0,0,0,1.6-.1v3.79a12.77,12.77,0,0,1-2.5.24c-4.9,0-6.85-1.66-6.85-5.8V162.26h-3.48v-3.87h3.48v-5.24Z"/>
      <path class="b874b079-86ba-4515-91fb-f0591ebc516f" d="M835.35,173.57c0-3.87,2.91-6.1,8.1-6.41l5.51-.33V165c0-2.09-1.41-3.26-4-3.26-2.23,0-3.75.78-4.2,2.22h-4.57c.39-3.76,3.92-6.17,9-6.17,5.49,0,8.57,2.68,8.57,7.21v14.59h-4.66v-2.93h-.34a7,7,0,0,1-6.32,3.28C838.3,180,835.35,177.47,835.35,173.57ZM849,171.79v-1.7l-4.82.31c-2.72.18-4,1.15-4,2.89s1.54,2.87,3.69,2.87C846.77,176.16,849,174.27,849,171.79Z"/>
      <path class="b874b079-86ba-4515-91fb-f0591ebc516f" d="M865.13,153.15v5.24h4.69v3.87h-4.69v10.48c0,2.11.9,3,2.93,3a12.69,12.69,0,0,0,1.6-.1v3.79a12.77,12.77,0,0,1-2.5.24c-4.9,0-6.85-1.66-6.85-5.8V162.26h-3.48v-3.87h3.48v-5.24Z"/>
      <path class="b874b079-86ba-4515-91fb-f0591ebc516f" d="M873.22,152.1a3,3,0,1,1,3,2.68A2.75,2.75,0,0,1,873.22,152.1Zm.58,6.15h4.83v21.37H873.8Z"/>
      <path class="b874b079-86ba-4515-91fb-f0591ebc516f" d="M882.77,168.94c0-6.9,3.93-11.12,10.27-11.12s10.28,4.2,10.28,11.12-3.89,11.11-10.28,11.11S882.77,175.87,882.77,168.94Zm15.57,0c0-4.46-1.94-7.05-5.3-7.05s-5.31,2.59-5.31,7.05S889.66,176,893,176,898.34,173.41,898.34,168.94Z"/>
      <path class="b874b079-86ba-4515-91fb-f0591ebc516f" d="M907.4,158.25h4.67v3.42h.33c1-2.38,3.52-3.85,6.72-3.85,4.76,0,7.44,2.87,7.44,8v13.83h-4.82V166.94c0-3.26-1.49-4.9-4.42-4.9a4.76,4.76,0,0,0-5.08,5.14v12.44H907.4Z"/>
    </g>
  </g>
</svg>
