<svg xmlns="http://www.w3.org/2000/svg" width="1150.07" height="438.69" viewBox="0 0 1150.07 438.69">
  <defs>
    <style>
      .fdc46574-662a-482a-aade-0677b8af27a9 {
        fill: #0086e8;
      }

      .a3e11e12-3ab3-4701-896f-7c55b8ac1092 {
        fill: #fff;
      }

      .bc0a02ef-790b-40ff-b076-eac205682a0c {
        fill: #053151;
      }

      .a2465200-435d-4f1f-bfe4-132babe37d6f {
        fill: #d1dde8;
      }

      .e7667443-667f-42e5-ac92-d746b52fc331 {
        fill: #8293a0;
      }

      .a353947a-94bc-4981-a128-673f8be9cfa8 {
        fill: #7ac8fc;
      }

      .adb055af-c396-462a-a460-566c014fb316 {
        fill: #5ec5fc;
      }
    </style>
  </defs>
  <g id="e94f4e91-a0b6-45e2-93ce-1f93512eb4bb" data-name="Layer 1">
    <rect class="fdc46574-662a-482a-aade-0677b8af27a9" x="-0.47" y="-7.07" width="1151.02" height="445.06"/>
    <path class="a3e11e12-3ab3-4701-896f-7c55b8ac1092" d="M121.08,111.4a24.21,24.21,0,0,1,24.21-24.21h858.24a23,23,0,0,1,23,23v330H121.08Z"/>
    <path class="bc0a02ef-790b-40ff-b076-eac205682a0c" d="M121.08,110.21c0-12.71,11.1-23,24.78-23H486v353H121.08Z"/>
    <rect class="fdc46574-662a-482a-aade-0677b8af27a9" x="536.64" y="121.65" width="54.21" height="54.21" rx="9.78"/>
    <rect class="a2465200-435d-4f1f-bfe4-132babe37d6f" x="611.62" y="129.05" width="360.76" height="19.75"/>
    <rect class="e7667443-667f-42e5-ac92-d746b52fc331" x="611.62" y="158" width="195.3" height="10.46"/>
    <rect class="fdc46574-662a-482a-aade-0677b8af27a9" x="536.64" y="203.87" width="54.21" height="54.21" rx="9.78"/>
    <rect class="a2465200-435d-4f1f-bfe4-132babe37d6f" x="611.62" y="211.26" width="360.76" height="19.75"/>
    <rect class="e7667443-667f-42e5-ac92-d746b52fc331" x="611.62" y="240.22" width="195.3" height="10.46"/>
    <rect class="fdc46574-662a-482a-aade-0677b8af27a9" x="536.64" y="287.77" width="54.21" height="54.21" rx="9.78"/>
    <rect class="a2465200-435d-4f1f-bfe4-132babe37d6f" x="611.62" y="295.17" width="360.76" height="19.75"/>
    <rect class="e7667443-667f-42e5-ac92-d746b52fc331" x="611.62" y="324.12" width="195.3" height="10.46"/>
    <rect class="fdc46574-662a-482a-aade-0677b8af27a9" x="536.64" y="373.36" width="54.21" height="54.21" rx="9.78"/>
    <rect class="a2465200-435d-4f1f-bfe4-132babe37d6f" x="611.62" y="380.76" width="360.76" height="19.75"/>
    <rect class="e7667443-667f-42e5-ac92-d746b52fc331" x="611.62" y="409.72" width="195.3" height="10.46"/>
    <circle class="a3e11e12-3ab3-4701-896f-7c55b8ac1092" cx="303.5" cy="253.63" r="89.14"/>
    <g>
      <g>
        <path class="bc0a02ef-790b-40ff-b076-eac205682a0c" d="M352.86,279.83,345,275.24l-43.56-25.37-41.11,23.56a1.36,1.36,0,0,1,.2.7,1.41,1.41,0,0,1-2.14,1.23l42.12,24.56a1.49,1.49,0,0,0,1.46,0l20.5-11.75a1.45,1.45,0,0,1,1.45,0l8.6,5a1.45,1.45,0,0,0,1.45,0l18.88-10.82A1.45,1.45,0,0,0,352.86,279.83Z"/>
        <path class="a353947a-94bc-4981-a128-673f8be9cfa8" d="M258.29,273l.13-.07a1.31,1.31,0,0,1,.68-.19,1.38,1.38,0,0,1,.64.16l.19.11a1.44,1.44,0,0,1,.4.45l41.11-23.56,0-47.4v-2.84a1.48,1.48,0,0,0-.69.18l-.12.07L260,223.4a1.45,1.45,0,0,0,0,2.51l19.55,11.44-21.05,11.9a1.42,1.42,0,0,0-.74,1.26l-.09,23.58A1.41,1.41,0,0,1,258.29,273Z"/>
        <path class="fdc46574-662a-482a-aade-0677b8af27a9" d="M257.68,274.13s0,0,0,0v-.07S257.68,274.12,257.68,274.13Z"/>
        <path class="fdc46574-662a-482a-aade-0677b8af27a9" d="M258.39,275.36l-.09-.06Z"/>
        <polygon class="fdc46574-662a-482a-aade-0677b8af27a9" points="260.33 273.43 257.88 274.83 257.88 274.83 260.33 273.43 260.33 273.43"/>
        <path class="adb055af-c396-462a-a460-566c014fb316" d="M259.93,273l-.19-.11a1.38,1.38,0,0,0-.64-.16,1.31,1.31,0,0,0-.68.19l-.13.07a1.41,1.41,0,0,0-.6,1.12v.07a1.37,1.37,0,0,0,.18.67l2.46-1.4A1.44,1.44,0,0,0,259.93,273Z"/>
        <path class="bc0a02ef-790b-40ff-b076-eac205682a0c" d="M260.53,274.13a1.36,1.36,0,0,0-.2-.7l-2.46,1.4a1.39,1.39,0,0,0,.43.47l.09.06a1.41,1.41,0,0,0,2.14-1.23Z"/>
      </g>
      <g>
        <path class="a3e11e12-3ab3-4701-896f-7c55b8ac1092" d="M300.61,199.88l.12-.07Z"/>
        <path class="a3e11e12-3ab3-4701-896f-7c55b8ac1092" d="M302.05,199.78l.19.11Z"/>
        <path class="fdc46574-662a-482a-aade-0677b8af27a9" d="M344.26,224.34l-42-24.45-.19-.11a1.46,1.46,0,0,0-.63-.15v2.84l0,47.4L345,275.24l0-49.64A1.45,1.45,0,0,0,344.26,224.34Z"/>
      </g>
      <polygon class="fdc46574-662a-482a-aade-0677b8af27a9" points="279.73 262.47 279.57 237.35 301.44 249.88 301.46 275.01 279.73 262.47"/>
      <polygon class="bc0a02ef-790b-40ff-b076-eac205682a0c" points="301.44 249.88 323.09 237.21 301.43 224.74 279.57 237.35 301.44 249.88"/>
      <polygon class="a353947a-94bc-4981-a128-673f8be9cfa8" points="323.18 262.45 323.07 237.26 301.44 249.88 301.46 275.01 323.18 262.45"/>
    </g>
  </g>
</svg>
