<svg xmlns="http://www.w3.org/2000/svg" width="1150.07" height="438.69" viewBox="0 0 1150.07 438.69">
  <defs>
    <style>
      .b11cbad9-0dc6-4948-8eed-1a72b531c6cd {
        fill: #3d464c;
      }

      .a58d1e53-8a97-4db6-b9fa-00d51077e877 {
        fill: none;
        stroke: #4f5a60;
        stroke-miterlimit: 10;
        stroke-width: 5px;
      }

      .a58d1e53-8a97-4db6-b9fa-00d51077e877, .b6f49cee-8fbb-4ec8-9ac0-97814eec9f52, .bc2f96cd-1f34-4d6a-b7c5-93f98339655c {
        opacity: 0.4;
      }

      .b03fefbe-ee06-4eb7-ba08-4ff36668314e, .bc2f96cd-1f34-4d6a-b7c5-93f98339655c {
        fill: #0086e8;
      }

      .b6f49cee-8fbb-4ec8-9ac0-97814eec9f52, .baa3e7db-a3d2-4529-9b67-5dea84aa8194 {
        fill: #ffc224;
      }
    </style>
  </defs>
  <g id="e3ef79d2-b628-4e5a-a36d-dcc38239122e" data-name="Layer 1">
    <rect class="b11cbad9-0dc6-4948-8eed-1a72b531c6cd" x="-0.42" y="-2.73" width="1151.02" height="445.06"/>
    <path class="a58d1e53-8a97-4db6-b9fa-00d51077e877" d="M144.32,146.43V300A20,20,0,0,0,164.37,320H563.68"/>
    <path class="a58d1e53-8a97-4db6-b9fa-00d51077e877" d="M992.94,146.43V300A20,20,0,0,1,972.88,320H560.13"/>
    <line class="a58d1e53-8a97-4db6-b9fa-00d51077e877" x1="142.63" y1="126.86" x2="990.68" y2="126.86"/>
    <g>
      <g>
        <circle class="bc2f96cd-1f34-4d6a-b7c5-93f98339655c" cx="566.64" cy="321.54" r="66.42"/>
        <circle class="b03fefbe-ee06-4eb7-ba08-4ff36668314e" cx="566.64" cy="321.54" r="23.48"/>
        <circle class="bc2f96cd-1f34-4d6a-b7c5-93f98339655c" cx="566.64" cy="321.54" r="44.89"/>
      </g>
      <g>
        <g>
          <circle class="bc2f96cd-1f34-4d6a-b7c5-93f98339655c" cx="142.32" cy="126.05" r="66.42"/>
          <circle class="b03fefbe-ee06-4eb7-ba08-4ff36668314e" cx="142.32" cy="126.05" r="23.48"/>
          <circle class="bc2f96cd-1f34-4d6a-b7c5-93f98339655c" cx="142.32" cy="126.05" r="44.89"/>
        </g>
        <g>
          <circle class="bc2f96cd-1f34-4d6a-b7c5-93f98339655c" cx="990.96" cy="126.05" r="66.42"/>
          <circle class="b03fefbe-ee06-4eb7-ba08-4ff36668314e" cx="990.96" cy="126.05" r="23.48"/>
          <circle class="bc2f96cd-1f34-4d6a-b7c5-93f98339655c" cx="990.96" cy="126.05" r="44.89"/>
        </g>
      </g>
    </g>
    <g>
      <g>
        <g>
          <polygon class="b6f49cee-8fbb-4ec8-9ac0-97814eec9f52" points="342.19 352.63 342.19 285.95 284.44 252.61 226.69 285.95 226.69 352.63 284.44 385.98 342.19 352.63"/>
          <polygon class="b6f49cee-8fbb-4ec8-9ac0-97814eec9f52" points="324.49 342.41 324.49 296.17 284.44 273.05 244.4 296.17 244.4 342.41 284.44 365.53 324.49 342.41"/>
          <polygon class="baa3e7db-a3d2-4529-9b67-5dea84aa8194" points="306.03 331.75 306.03 306.83 284.44 294.37 262.85 306.83 262.85 331.75 284.44 344.22 306.03 331.75"/>
        </g>
        <g>
          <polygon class="b6f49cee-8fbb-4ec8-9ac0-97814eec9f52" points="906.59 352.63 906.59 285.95 848.84 252.61 791.09 285.95 791.09 352.63 848.84 385.98 906.59 352.63"/>
          <polygon class="b6f49cee-8fbb-4ec8-9ac0-97814eec9f52" points="888.89 342.41 888.89 296.17 848.84 273.05 808.8 296.17 808.8 342.41 848.84 365.53 888.89 342.41"/>
          <polygon class="baa3e7db-a3d2-4529-9b67-5dea84aa8194" points="870.43 331.75 870.43 306.83 848.84 294.37 827.25 306.83 827.25 331.75 848.84 344.22 870.43 331.75"/>
        </g>
      </g>
      <g>
        <polygon class="b6f49cee-8fbb-4ec8-9ac0-97814eec9f52" points="624.39 161.41 624.39 94.73 566.64 61.39 508.89 94.73 508.89 161.41 566.64 194.76 624.39 161.41"/>
        <polygon class="b6f49cee-8fbb-4ec8-9ac0-97814eec9f52" points="606.69 151.19 606.69 104.95 566.64 81.83 526.6 104.95 526.6 151.19 566.64 174.31 606.69 151.19"/>
        <polygon class="baa3e7db-a3d2-4529-9b67-5dea84aa8194" points="588.23 140.53 588.23 115.61 566.64 103.14 545.05 115.61 545.05 140.53 566.64 153 588.23 140.53"/>
      </g>
    </g>
  </g>
</svg>
