<svg id="b731e45e-d211-44e4-b52f-726ea7960f0b" data-name="Layer 1" xmlns="http://www.w3.org/2000/svg" xmlns:xlink="http://www.w3.org/1999/xlink" width="2500" height="1000" viewBox="0 0 2500 1000">
  <defs>
    <style>
      .a257213a-9f7c-4196-ab88-c97202b4ce5c, .a4ea1c67-e17b-4156-92cf-1e45f320a026 {
        fill: #383e51;
      }

      .e3d7a00d-e5fa-4f3a-aabb-cb95868e8e05 {
        fill: #292d3e;
      }

      .a257213a-9f7c-4196-ab88-c97202b4ce5c {
        stroke: #383e51;
        stroke-miterlimit: 10;
      }

      .bc591d3f-c19e-411c-8ad5-1f47ee2c92be {
        filter: url(#b3e37a75-44c3-4da1-8419-d5a4d5f09b8b);
      }

      .e71adb48-84a9-4de8-85ad-9c76be888bd4 {
        fill: #fff;
      }

      .a759a7dd-f169-4577-952a-04d6a8ddf136 {
        fill: #ff7900;
      }

      .a30c606f-7249-45d4-941f-d34bee75857c {
        fill: #e5072d;
      }

      .ef93c949-d4bc-4b19-ab81-86de10b28adb {
        fill: #ffb600;
      }
    </style>
    <filter id="b3e37a75-44c3-4da1-8419-d5a4d5f09b8b" x="-15%" y="-15%" width="140%" height="130%" name="AI_Shadow_2">
      <feGaussianBlur result="blur" stdDeviation="20" in="SourceAlpha"/>
      <feOffset result="offsetBlurredAlpha" in="blur"/>
      <feMerge>
        <feMergeNode in="offsetBlurredAlpha"/>
        <feMergeNode in="SourceGraphic"/>
      </feMerge>
    </filter>
  </defs>
  <rect class="a4ea1c67-e17b-4156-92cf-1e45f320a026" width="2500" height="1000"/>
  <path class="e3d7a00d-e5fa-4f3a-aabb-cb95868e8e05" d="M258.73,277.31H2241.27A56.74,56.74,0,0,1,2298,334.05V1000a0,0,0,0,1,0,0H202a0,0,0,0,1,0,0V334.05A56.74,56.74,0,0,1,258.73,277.31Z"/>
  <g>
    <path class="a257213a-9f7c-4196-ab88-c97202b4ce5c" d="M364.87,449.53a18.86,18.86,0,0,1-4.47,1.89,18.1,18.1,0,0,1-4.7.62q-7.62,0-11.91-4.57t-4.29-12.65q0-8.08,4.29-12.66t11.91-4.57a17.58,17.58,0,0,1,4.63.62,19.88,19.88,0,0,1,4.54,1.9v5.66a14.8,14.8,0,0,0-4.29-2.76,13.35,13.35,0,0,0-4.88-.85,9.56,9.56,0,0,0-7.79,3.28q-2.73,3.29-2.73,9.38t2.74,9.36a9.54,9.54,0,0,0,7.78,3.29,13.81,13.81,0,0,0,5-.86,12.68,12.68,0,0,0,4.13-2.68Z"/>
    <path class="a257213a-9f7c-4196-ab88-c97202b4ce5c" d="M388.55,417.59q6.84,0,10.45,4.43t3.62,12.8q0,8.4-3.61,12.82T388.55,452q-6.82,0-10.42-4.4t-3.61-12.82q0-8.38,3.61-12.8T388.55,417.59Zm0,4.57a7,7,0,0,0-6.21,3.2c-1.4,2.12-2.11,5.28-2.11,9.46s.71,7.31,2.11,9.45a7.66,7.66,0,0,0,12.46,0q2.1-3.21,2.1-9.45c0-4.18-.7-7.34-2.1-9.46A7,7,0,0,0,388.55,422.16Z"/>
    <path class="a257213a-9f7c-4196-ab88-c97202b4ce5c" d="M438,430.86V451.2H432.6V430.86c0-2.95-.51-5.11-1.55-6.5a5.67,5.67,0,0,0-4.86-2.08,6.87,6.87,0,0,0-5.82,2.68c-1.36,1.79-2,4.35-2,7.69V451.2h-5.4V418.38h5.4v4.92a10.14,10.14,0,0,1,3.89-4.26,11.36,11.36,0,0,1,5.83-1.45q5,0,7.49,3.3T438,430.86Z"/>
    <path class="a257213a-9f7c-4196-ab88-c97202b4ce5c" d="M472.46,419.53v5.27a20.5,20.5,0,0,0-4.66-2,17.13,17.13,0,0,0-4.77-.68,10.09,10.09,0,0,0-5.47,1.19,4,4,0,0,0-1.8,3.62,4,4,0,0,0,1.35,3.28c.9.72,3.13,1.43,6.71,2.11l2.17.41a10.51,10.51,0,0,1,6.07,3.05,8.5,8.5,0,0,1,2.07,5.94,9.16,9.16,0,0,1-3.46,7.61q-3.45,2.73-9.61,2.73a27,27,0,0,1-5.09-.51,45.21,45.21,0,0,1-5.78-1.54v-5.56a31.93,31.93,0,0,0,5.78,2.33,19.46,19.46,0,0,0,5.21.77,9.17,9.17,0,0,0,5.54-1.45,4.74,4.74,0,0,0,2-4.05q0-3.75-7.18-5.19l-.23-.06-2-.41c-3.11-.6-5.37-1.62-6.8-3.06a8,8,0,0,1-2.14-5.87,8.78,8.78,0,0,1,3.2-7.28q3.18-2.57,9.11-2.57a25.32,25.32,0,0,1,5.06.49A24.81,24.81,0,0,1,472.46,419.53Z"/>
    <path class="a257213a-9f7c-4196-ab88-c97202b4ce5c" d="M498.67,409.07v9.31h12.24v4.19H498.67v17.81c0,2.43.45,4.12,1.37,5.07s2.52,1.44,4.81,1.44h6.06v4.31h-6.59c-4,0-6.89-.82-8.55-2.44s-2.49-4.41-2.49-8.38V422.57h-8.76v-4.19h8.76v-9.31Z"/>
    <path class="a257213a-9f7c-4196-ab88-c97202b4ce5c" d="M584.91,430.86V451.2h-5.42V430.86c0-2.95-.51-5.11-1.55-6.5a5.65,5.65,0,0,0-4.86-2.08,6.87,6.87,0,0,0-5.82,2.68q-2,2.69-2,7.69V451.2h-5.39V405.61h5.39V423.3a10.14,10.14,0,0,1,3.89-4.26,11.36,11.36,0,0,1,5.83-1.45q5,0,7.49,3.3T584.91,430.86Z"/>
    <path class="a257213a-9f7c-4196-ab88-c97202b4ce5c" d="M623.66,432.09v2.64H600.31v.18q-.24,6.7,2.56,9.63c1.87,2,4.5,2.93,7.9,2.93a19.14,19.14,0,0,0,5.39-.82,32.32,32.32,0,0,0,6-2.49v5.37a36.54,36.54,0,0,1-5.94,1.89,26.16,26.16,0,0,1-5.52.62q-7.65,0-12-4.58t-4.31-12.64q0-7.86,4.22-12.54a14.37,14.37,0,0,1,11.25-4.69,12.33,12.33,0,0,1,9.89,4.25A16.34,16.34,0,0,1,623.66,432.09Zm-5.39-1.58a10.47,10.47,0,0,0-2.48-5.87,7.6,7.6,0,0,0-6.11-2.48,8.58,8.58,0,0,0-6.41,2.58,9.12,9.12,0,0,0-2.76,5.8Z"/>
    <path class="a257213a-9f7c-4196-ab88-c97202b4ce5c" d="M648.63,439.33a9.32,9.32,0,0,0,1.34,5.48,4.55,4.55,0,0,0,3.94,1.84h6.3v4.55h-6.83a9.32,9.32,0,0,1-7.49-3.1c-1.76-2.06-2.65-5-2.65-8.77V409.65H634.6v-4.22h14Z"/>
    <path class="a257213a-9f7c-4196-ab88-c97202b4ce5c" d="M685.36,439.33a9.33,9.33,0,0,0,1.33,5.48,4.55,4.55,0,0,0,3.94,1.84h6.3v4.55H690.1a9.3,9.3,0,0,1-7.48-3.1Q680,445,680,439.33V409.65h-8.65v-4.22h14Z"/>
    <path class="a257213a-9f7c-4196-ab88-c97202b4ce5c" d="M719.06,417.59q6.83,0,10.45,4.43t3.62,12.8q0,8.4-3.61,12.82T719.06,452q-6.82,0-10.43-4.4T705,434.82q0-8.38,3.6-12.8T719.06,417.59Zm0,4.57a7,7,0,0,0-6.21,3.2c-1.4,2.12-2.11,5.28-2.11,9.46s.71,7.31,2.11,9.45a7.65,7.65,0,0,0,12.45,0q2.12-3.21,2.11-9.45c0-4.18-.7-7.34-2.11-9.46A7,7,0,0,0,719.06,422.16Z"/>
    <path class="a257213a-9f7c-4196-ab88-c97202b4ce5c" d="M737.74,407.46h5.77L747.7,443l5-23.49h6.18l5,23.55,4.19-35.56h5.77l-6.53,43.74h-5.6l-5.94-26-5.92,26h-5.6Z"/>
    <path class="a257213a-9f7c-4196-ab88-c97202b4ce5c" d="M792.51,417.59q6.82,0,10.44,4.43t3.62,12.8q0,8.4-3.6,12.82T792.51,452q-6.82,0-10.43-4.4t-3.6-12.82q0-8.38,3.6-12.8T792.51,417.59Zm0,4.57a7,7,0,0,0-6.21,3.2c-1.41,2.12-2.11,5.28-2.11,9.46s.7,7.31,2.11,9.45a7.65,7.65,0,0,0,12.45,0q2.12-3.21,2.11-9.45c0-4.18-.7-7.34-2.11-9.46A7,7,0,0,0,792.51,422.16Z"/>
    <path class="a257213a-9f7c-4196-ab88-c97202b4ce5c" d="M845,425.15a11.4,11.4,0,0,0-7.44-2.58q-5,0-7.7,3.17c-1.78,2.11-2.67,5.15-2.67,9.14V451.2h-5.42V418.38h5.42v6.42a10.91,10.91,0,0,1,4.15-5.35,11.67,11.67,0,0,1,6.63-1.86,13.43,13.43,0,0,1,3.72.5,11.86,11.86,0,0,1,3.31,1.55Z"/>
    <path class="a257213a-9f7c-4196-ab88-c97202b4ce5c" d="M869,439.33a9.32,9.32,0,0,0,1.34,5.48,4.53,4.53,0,0,0,3.94,1.84h6.29v4.55h-6.82a9.32,9.32,0,0,1-7.49-3.1c-1.76-2.06-2.65-5-2.65-8.77V409.65h-8.64v-4.22h14Z"/>
    <path class="a257213a-9f7c-4196-ab88-c97202b4ce5c" d="M909.77,422.57v-17h5.39V451.2h-5.39v-4.14a9.37,9.37,0,0,1-3.59,3.71A10.29,10.29,0,0,1,901,452a11,11,0,0,1-9.36-4.61q-3.42-4.62-3.42-12.73t3.43-12.55a11.07,11.07,0,0,1,9.35-4.56,10.4,10.4,0,0,1,5.21,1.28A8.93,8.93,0,0,1,909.77,422.57Zm-15.85,12.25q0,6.27,2,9.46a6.5,6.5,0,0,0,5.89,3.19,6.58,6.58,0,0,0,5.93-3.22q2-3.22,2-9.43t-2-9.45a6.59,6.59,0,0,0-5.93-3.21,6.51,6.51,0,0,0-5.89,3.2C894.58,427.48,893.92,430.64,893.92,434.82Z"/>
    <path class="a257213a-9f7c-4196-ab88-c97202b4ce5c" d="M928.18,407.46h25.75v5h-19.8v11.71h18v5h-18V451.2h-6Z"/>
    <path class="a257213a-9f7c-4196-ab88-c97202b4ce5c" d="M967.34,418.5h13.79V447h10.7v4.19H965.05V447h10.69V422.69h-8.4Zm8.4-12.74h5.39v6.79h-5.39Z"/>
    <path class="a257213a-9f7c-4196-ab88-c97202b4ce5c" d="M1023.31,419.53v5.27a20.69,20.69,0,0,0-4.66-2,17.2,17.2,0,0,0-4.78-.68,10.05,10.05,0,0,0-5.46,1.19,4,4,0,0,0-1.8,3.62,4,4,0,0,0,1.34,3.28c.9.72,3.14,1.43,6.71,2.11l2.17.41a10.54,10.54,0,0,1,6.08,3.05,8.5,8.5,0,0,1,2.07,5.94,9.18,9.18,0,0,1-3.46,7.61q-3.46,2.73-9.61,2.73a27.2,27.2,0,0,1-5.1-.51A45.09,45.09,0,0,1,1001,450v-5.56a31.85,31.85,0,0,0,5.77,2.33,19.58,19.58,0,0,0,5.22.77,9.12,9.12,0,0,0,5.53-1.45,4.75,4.75,0,0,0,2-4.05q0-3.75-7.18-5.19l-.24-.06-2-.41c-3.1-.6-5.37-1.62-6.79-3.06a8,8,0,0,1-2.14-5.87,8.77,8.77,0,0,1,3.19-7.28q3.2-2.57,9.11-2.57a25.5,25.5,0,0,1,9.85,1.94Z"/>
    <path class="a257213a-9f7c-4196-ab88-c97202b4ce5c" d="M1062.31,430.86V451.2h-5.42V430.86c0-2.95-.51-5.11-1.55-6.5a5.66,5.66,0,0,0-4.86-2.08,6.87,6.87,0,0,0-5.82,2.68c-1.36,1.79-2,4.35-2,7.69V451.2h-5.39V405.61h5.39V423.3a10.14,10.14,0,0,1,3.89-4.26,11.36,11.36,0,0,1,5.83-1.45q5,0,7.49,3.3T1062.31,430.86Z"/>
    <path class="a257213a-9f7c-4196-ab88-c97202b4ce5c" d="M1107.55,422.75h31v4.95h-31Zm0,13.8h31v4.95h-31Z"/>
    <path class="a257213a-9f7c-4196-ab88-c97202b4ce5c" d="M1208.65,452.69v4.22h-1.88q-7.29,0-9.77-2.17t-2.47-8.64v-5.86a8.7,8.7,0,0,0-1.8-5.51q-1.8-2.31-5.58-2.31h-3.58v-4.19h3.58q4.13,0,5.75-2a8.8,8.8,0,0,0,1.63-5.77v-7.61q0-6.48,2.47-8.63t9.77-2.16h1.88v4.19h-2.05q-4.11,0-5.35,1.28T1200,413v7.85c0,3.44-.68,5.75-2,6.93s-4,2-7.89,2.57q5.69.68,7.8,2.59c1.4,1.28,2.11,3.59,2.11,6.93V446q0,4.18,1.24,5.45t5.35,1.26Z"/>
    <path class="a257213a-9f7c-4196-ab88-c97202b4ce5c" d="M438.37,525.61v4.48h-6.12c-1.93,0-3.28.4-4,1.19s-1.13,2.19-1.13,4.2v2.9h11.28v4.19H427.09V571.2H421.7V542.57h-8.76v-4.19h8.76V536.1c0-3.6.83-6.24,2.48-7.94s4.22-2.55,7.72-2.55Z"/>
    <path class="a257213a-9f7c-4196-ab88-c97202b4ce5c" d="M453.21,538.5H467V567H477.7v4.19H450.93V567h10.69V542.69h-8.41Zm8.41-12.74H467v6.79h-5.39Z"/>
    <path class="a257213a-9f7c-4196-ab88-c97202b4ce5c" d="M509.18,539.53v5.27a20.43,20.43,0,0,0-4.65-2,17.25,17.25,0,0,0-4.78-.68,10.05,10.05,0,0,0-5.46,1.19,4,4,0,0,0-1.81,3.62,4,4,0,0,0,1.35,3.28c.9.72,3.14,1.43,6.71,2.11l2.17.41a10.57,10.57,0,0,1,6.08,3,8.49,8.49,0,0,1,2.06,5.94,9.18,9.18,0,0,1-3.45,7.61q-3.47,2.73-9.61,2.73a27.2,27.2,0,0,1-5.1-.51,45.09,45.09,0,0,1-5.77-1.54v-5.56a31.56,31.56,0,0,0,5.77,2.33,19.46,19.46,0,0,0,5.21.77,9.15,9.15,0,0,0,5.54-1.45,4.74,4.74,0,0,0,2-4.05q0-3.75-7.17-5.19l-.24-.06-2-.41q-4.65-.9-6.8-3.06a8,8,0,0,1-2.13-5.87,8.77,8.77,0,0,1,3.19-7.28c2.13-1.71,5.16-2.57,9.11-2.57a25.35,25.35,0,0,1,5.07.49A24.93,24.93,0,0,1,509.18,539.53Z"/>
    <path class="a257213a-9f7c-4196-ab88-c97202b4ce5c" d="M548.19,550.86V571.2h-5.42V550.86c0-3-.52-5.11-1.55-6.5a5.67,5.67,0,0,0-4.86-2.08,6.87,6.87,0,0,0-5.82,2.68q-2,2.68-2,7.69V571.2h-5.39V525.61h5.39V543.3a10.22,10.22,0,0,1,3.9-4.26,11.33,11.33,0,0,1,5.83-1.45q5,0,7.49,3.3T548.19,550.86Z"/>
    <path class="a257213a-9f7c-4196-ab88-c97202b4ce5c" d="M560,527.46H584.3v5h-9.17v33.77h9.17v5H560v-5h9.17V532.44H560Z"/>
    <path class="a257213a-9f7c-4196-ab88-c97202b4ce5c" d="M616,542.57v-17h5.39V571.2H616v-4.14a9.24,9.24,0,0,1-3.59,3.71,10.24,10.24,0,0,1-5.17,1.27,11,11,0,0,1-9.36-4.61q-3.4-4.62-3.41-12.73t3.43-12.55a11.05,11.05,0,0,1,9.34-4.56,10.43,10.43,0,0,1,5.22,1.28A9,9,0,0,1,616,542.57Zm-15.85,12.25q0,6.27,2,9.46a6.48,6.48,0,0,0,5.88,3.19,6.6,6.6,0,0,0,5.94-3.22q2-3.22,2-9.43t-2-9.45a6.61,6.61,0,0,0-5.94-3.21,6.49,6.49,0,0,0-5.88,3.2C600.8,547.48,600.13,550.64,600.13,554.82Z"/>
    <path class="a257213a-9f7c-4196-ab88-c97202b4ce5c" d="M640.14,538.41h9.14V549h-9.14Zm0,22.12h9.14V571.2h-9.14Z"/>
    <path class="a257213a-9f7c-4196-ab88-c97202b4ce5c" d="M707.84,527.46h25.75v5h-19.8v11.71h18v5h-18V571.2h-5.95Z"/>
    <path class="a257213a-9f7c-4196-ab88-c97202b4ce5c" d="M747,538.5h13.8V567h10.69v4.19H744.71V567H755.4V542.69H747Zm8.4-12.74h5.4v6.79h-5.4Z"/>
    <path class="a257213a-9f7c-4196-ab88-c97202b4ce5c" d="M803,539.53v5.27a20.5,20.5,0,0,0-4.66-2,17.15,17.15,0,0,0-4.78-.68,10.05,10.05,0,0,0-5.46,1.19,4,4,0,0,0-1.8,3.62,4,4,0,0,0,1.35,3.28c.89.72,3.13,1.43,6.71,2.11l2.16.41a10.51,10.51,0,0,1,6.08,3,8.5,8.5,0,0,1,2.07,5.94,9.16,9.16,0,0,1-3.46,7.61q-3.45,2.73-9.61,2.73a27.2,27.2,0,0,1-5.1-.51A45.53,45.53,0,0,1,780.7,570v-5.56a31.85,31.85,0,0,0,5.77,2.33,19.58,19.58,0,0,0,5.22.77,9.17,9.17,0,0,0,5.54-1.45,4.76,4.76,0,0,0,2-4.05q0-3.75-7.18-5.19l-.23-.06-2-.41q-4.66-.9-6.8-3.06a8,8,0,0,1-2.14-5.87,8.77,8.77,0,0,1,3.19-7.28q3.19-2.56,9.11-2.57a25.35,25.35,0,0,1,5.07.49A25,25,0,0,1,803,539.53Z"/>
    <path class="a257213a-9f7c-4196-ab88-c97202b4ce5c" d="M842,550.86V571.2h-5.42V550.86c0-3-.52-5.11-1.56-6.5a5.65,5.65,0,0,0-4.86-2.08,6.87,6.87,0,0,0-5.82,2.68q-2,2.68-2,7.69V571.2H816.9V525.61h5.39V543.3a10.2,10.2,0,0,1,3.89-4.26,11.38,11.38,0,0,1,5.83-1.45q5,0,7.49,3.3T842,550.86Z"/>
    <path class="a257213a-9f7c-4196-ab88-c97202b4ce5c" d="M853.8,527.46h24.28v5h-9.17v33.77h9.17v5H853.8v-5H863V532.44H853.8Z"/>
    <path class="a257213a-9f7c-4196-ab88-c97202b4ce5c" d="M909.77,542.57v-17h5.39V571.2h-5.39v-4.14a9.37,9.37,0,0,1-3.59,3.71A10.29,10.29,0,0,1,901,572a11,11,0,0,1-9.36-4.61q-3.42-4.62-3.42-12.73t3.43-12.55a11.07,11.07,0,0,1,9.35-4.56,10.4,10.4,0,0,1,5.21,1.28A8.93,8.93,0,0,1,909.77,542.57Zm-15.85,12.25q0,6.27,2,9.46a6.5,6.5,0,0,0,5.89,3.19,6.58,6.58,0,0,0,5.93-3.22q2-3.22,2-9.43t-2-9.45a6.59,6.59,0,0,0-5.93-3.21,6.51,6.51,0,0,0-5.89,3.2C894.58,547.48,893.92,550.64,893.92,554.82Z"/>
    <path class="a257213a-9f7c-4196-ab88-c97202b4ce5c" d="M932.75,559.36h10.31V571.2H932.75Z"/>
    <path class="a257213a-9f7c-4196-ab88-c97202b4ce5c" d="M976.12,537.59q6.84,0,10.45,4.43t3.62,12.8q0,8.4-3.61,12.82T976.12,572q-6.82,0-10.43-4.4t-3.6-12.82q0-8.39,3.6-12.8T976.12,537.59Zm0,4.57a7,7,0,0,0-6.21,3.2c-1.4,2.12-2.11,5.28-2.11,9.46s.71,7.31,2.11,9.45a7.65,7.65,0,0,0,12.45,0q2.11-3.21,2.11-9.45c0-4.18-.7-7.34-2.11-9.46A7,7,0,0,0,976.12,542.16Z"/>
    <path class="a257213a-9f7c-4196-ab88-c97202b4ce5c" d="M1025.94,525.61v4.48h-6.12c-1.93,0-3.28.4-4,1.19s-1.13,2.19-1.13,4.2v2.9h11.28v4.19h-11.28V571.2h-5.39V542.57h-8.76v-4.19h8.76V536.1c0-3.6.83-6.24,2.48-7.94s4.22-2.55,7.72-2.55Z"/>
    <path class="a257213a-9f7c-4196-ab88-c97202b4ce5c" d="M1056.57,522.74a58.87,58.87,0,0,0-5.81,13.31,47.51,47.51,0,0,0,0,26.74,60.19,60.19,0,0,0,5.81,13.39h-4.69a61.35,61.35,0,0,1-6.59-13.58,41,41,0,0,1,0-26.33,60,60,0,0,1,6.59-13.53Z"/>
    <path class="a257213a-9f7c-4196-ab88-c97202b4ce5c" d="M1090,525.55V543.8h-6.56V525.55Z"/>
    <path class="a257213a-9f7c-4196-ab88-c97202b4ce5c" d="M1136,552.47V571.2h-5.42v-4.87a11,11,0,0,1-4.35,4.32,13.39,13.39,0,0,1-6.37,1.39,11.19,11.19,0,0,1-8-2.82,10,10,0,0,1-3-7.58q0-5.48,3.67-8.32t10.8-2.84h7.23v-.85q0-3.92-2-5.7t-6.27-1.77a20.74,20.74,0,0,0-5.56.79,24.17,24.17,0,0,0-5.48,2.32v-5.39a37.54,37.54,0,0,1,5.73-1.72,26,26,0,0,1,5.31-.57,18.08,18.08,0,0,1,7,1.2,10.88,10.88,0,0,1,4.67,3.61,9,9,0,0,1,1.59,3.61A33.22,33.22,0,0,1,1136,552.47Zm-10.45,2.23h-1.79c-3.15,0-5.51.55-7.11,1.66a5.6,5.6,0,0,0-2.38,4.93,5.92,5.92,0,0,0,1.78,4.6,7,7,0,0,0,5,1.64,8.6,8.6,0,0,0,7-3.09c1.7-2.06,2.55-4.9,2.57-8.54v-1.2Z"/>
    <path class="a257213a-9f7c-4196-ab88-c97202b4ce5c" d="M1174.45,538.38l-11.75,15.71,12.89,17.11h-6.24L1159.74,558l-9.58,13.16h-6.24l12.89-17.11-11.75-15.71h6l8.7,11.87,8.64-11.87Z"/>
    <path class="a257213a-9f7c-4196-ab88-c97202b4ce5c" d="M1189.81,559.36h10.31V571.2h-10.31Z"/>
    <path class="a257213a-9f7c-4196-ab88-c97202b4ce5c" d="M1248,552.09v2.64H1224.6v.18q-.24,6.71,2.57,9.63c1.86,2,4.49,2.93,7.89,2.93a19.09,19.09,0,0,0,5.39-.82,32,32,0,0,0,6-2.49v5.37a36.23,36.23,0,0,1-5.94,1.89,26.16,26.16,0,0,1-5.52.62q-7.65,0-12-4.58t-4.31-12.64q0-7.86,4.22-12.54a14.37,14.37,0,0,1,11.25-4.69,12.31,12.31,0,0,1,9.89,4.25A16.34,16.34,0,0,1,1248,552.09Zm-5.39-1.58a10.46,10.46,0,0,0-2.47-5.87,7.63,7.63,0,0,0-6.11-2.48,8.59,8.59,0,0,0-6.42,2.58,9.05,9.05,0,0,0-2.75,5.8Z"/>
    <path class="a257213a-9f7c-4196-ab88-c97202b4ce5c" d="M1284.62,538.38l-11.75,15.71,12.89,17.11h-6.24L1269.91,558l-9.58,13.16h-6.24L1267,554.09l-11.75-15.71h6l8.7,11.87,8.64-11.87Z"/>
    <path class="a257213a-9f7c-4196-ab88-c97202b4ce5c" d="M1319.61,552.47V571.2h-5.42v-4.87a11,11,0,0,1-4.35,4.32,13.41,13.41,0,0,1-6.37,1.39,11.18,11.18,0,0,1-8-2.82,10,10,0,0,1-3-7.58q0-5.48,3.68-8.32t10.79-2.84h7.24v-.85q0-3.92-2-5.7t-6.27-1.77a20.81,20.81,0,0,0-5.57.79,24.36,24.36,0,0,0-5.48,2.32v-5.39a37.88,37.88,0,0,1,5.73-1.72,26.12,26.12,0,0,1,5.32-.57,18.15,18.15,0,0,1,7,1.2,10.88,10.88,0,0,1,4.67,3.61,9,9,0,0,1,1.58,3.61A33.05,33.05,0,0,1,1319.61,552.47Zm-10.46,2.23h-1.79q-4.71,0-7.1,1.66a5.61,5.61,0,0,0-2.39,4.93,5.92,5.92,0,0,0,1.79,4.6,7,7,0,0,0,4.95,1.64,8.58,8.58,0,0,0,7-3.09c1.7-2.06,2.56-4.9,2.58-8.54v-1.2Z"/>
    <path class="a257213a-9f7c-4196-ab88-c97202b4ce5c" d="M1345.11,541.72a7.46,7.46,0,0,1,2.54-3.12,6.61,6.61,0,0,1,3.7-1,5.78,5.78,0,0,1,5.58,3.06q1.63,3.06,1.63,11.53v19h-4.92V552.42q0-6.95-.78-8.63a2.85,2.85,0,0,0-2.83-1.69,3.21,3.21,0,0,0-3.2,1.81c-.58,1.2-.87,4-.87,8.51V571.2H1341V552.42q0-7-.83-8.68a3.08,3.08,0,0,0-3-1.64,3,3,0,0,0-3,1.81c-.56,1.2-.84,4-.84,8.51V571.2h-4.89V538.38h4.89v2.82a7.23,7.23,0,0,1,2.42-2.69,6.07,6.07,0,0,1,3.3-.92,6.29,6.29,0,0,1,3.7,1A6.51,6.51,0,0,1,1345.11,541.72Z"/>
    <path class="a257213a-9f7c-4196-ab88-c97202b4ce5c" d="M1373,567.06v16.62h-5.42v-45.3H1373v4.19a9.34,9.34,0,0,1,3.59-3.7,10.24,10.24,0,0,1,5.17-1.28,11,11,0,0,1,9.33,4.6q3.38,4.6,3.38,12.75,0,8-3.4,12.55a11,11,0,0,1-9.31,4.55,10.36,10.36,0,0,1-5.23-1.27A8.92,8.92,0,0,1,1373,567.06Zm15.82-12.24c0-4.18-.66-7.34-2-9.46a6.48,6.48,0,0,0-5.87-3.2,6.59,6.59,0,0,0-6,3.21q-2,3.21-2,9.45t2,9.43a6.58,6.58,0,0,0,6,3.22,6.47,6.47,0,0,0,5.87-3.19Q1388.84,561.09,1388.84,554.82Z"/>
    <path class="a257213a-9f7c-4196-ab88-c97202b4ce5c" d="M1419.82,559.33a9.33,9.33,0,0,0,1.33,5.48,4.55,4.55,0,0,0,3.94,1.84h6.3v4.55h-6.83a9.3,9.3,0,0,1-7.48-3.1q-2.65-3.09-2.65-8.77V529.65h-8.65v-4.22h14Z"/>
    <path class="a257213a-9f7c-4196-ab88-c97202b4ce5c" d="M1468.29,552.09v2.64h-23.35v.18q-.24,6.71,2.56,9.63c1.87,2,4.5,2.93,7.9,2.93a19.14,19.14,0,0,0,5.39-.82,32.32,32.32,0,0,0,6-2.49v5.37a36.54,36.54,0,0,1-5.94,1.89,26.16,26.16,0,0,1-5.52.62q-7.65,0-11.95-4.58t-4.31-12.64q0-7.86,4.22-12.54a14.37,14.37,0,0,1,11.25-4.69,12.33,12.33,0,0,1,9.89,4.25A16.34,16.34,0,0,1,1468.29,552.09Zm-5.39-1.58a10.47,10.47,0,0,0-2.48-5.87,7.6,7.6,0,0,0-6.11-2.48,8.58,8.58,0,0,0-6.41,2.58,9.12,9.12,0,0,0-2.76,5.8Z"/>
    <path class="a257213a-9f7c-4196-ab88-c97202b4ce5c" d="M1483.6,559.36h10.31V571.2H1483.6Z"/>
    <path class="a257213a-9f7c-4196-ab88-c97202b4ce5c" d="M1512.94,527.46h5.94v16.75h16.21V527.46H1541V571.2h-5.94v-22h-16.21v22h-5.94Z"/>
    <path class="a257213a-9f7c-4196-ab88-c97202b4ce5c" d="M1578.46,552.09v2.64h-23.35v.18q-.24,6.71,2.56,9.63c1.87,2,4.5,2.93,7.9,2.93a19.14,19.14,0,0,0,5.39-.82,32,32,0,0,0,6-2.49v5.37a36.13,36.13,0,0,1-5.93,1.89,26.16,26.16,0,0,1-5.52.62q-7.65,0-12-4.58t-4.31-12.64q0-7.86,4.22-12.54a14.37,14.37,0,0,1,11.25-4.69,12.33,12.33,0,0,1,9.89,4.25A16.34,16.34,0,0,1,1578.46,552.09Zm-5.39-1.58a10.47,10.47,0,0,0-2.48-5.87,7.6,7.6,0,0,0-6.11-2.48,8.58,8.58,0,0,0-6.41,2.58,9.12,9.12,0,0,0-2.76,5.8Z"/>
    <path class="a257213a-9f7c-4196-ab88-c97202b4ce5c" d="M1603.43,559.33a9.32,9.32,0,0,0,1.34,5.48,4.53,4.53,0,0,0,3.94,1.84h6.3v4.55h-6.83a9.32,9.32,0,0,1-7.49-3.1c-1.76-2.06-2.65-5-2.65-8.77V529.65h-8.64v-4.22h14Z"/>
    <path class="a257213a-9f7c-4196-ab88-c97202b4ce5c" d="M1640.16,559.33a9.33,9.33,0,0,0,1.33,5.48,4.55,4.55,0,0,0,3.94,1.84h6.3v4.55h-6.83a9.29,9.29,0,0,1-7.48-3.1q-2.65-3.09-2.65-8.77V529.65h-8.65v-4.22h14Z"/>
    <path class="a257213a-9f7c-4196-ab88-c97202b4ce5c" d="M1673.86,537.59q6.83,0,10.45,4.43t3.61,12.8q0,8.4-3.6,12.82t-10.46,4.4q-6.83,0-10.43-4.4t-3.6-12.82q0-8.39,3.6-12.8T1673.86,537.59Zm0,4.57a7,7,0,0,0-6.21,3.2c-1.41,2.12-2.11,5.28-2.11,9.46s.7,7.31,2.11,9.45a7.65,7.65,0,0,0,12.45,0q2.12-3.21,2.11-9.45c0-4.18-.7-7.34-2.11-9.46A7,7,0,0,0,1673.86,542.16Z"/>
    <path class="a257213a-9f7c-4196-ab88-c97202b4ce5c" d="M1692.54,527.46h5.77l4.19,35.5,5-23.49h6.18l5,23.55,4.19-35.56h5.77l-6.53,43.74h-5.6l-5.94-26-5.92,26h-5.6Z"/>
    <path class="a257213a-9f7c-4196-ab88-c97202b4ce5c" d="M1747.31,537.59q6.82,0,10.44,4.43t3.62,12.8q0,8.4-3.6,12.82t-10.46,4.4q-6.82,0-10.43-4.4t-3.61-12.82q0-8.39,3.61-12.8T1747.31,537.59Zm0,4.57a7,7,0,0,0-6.21,3.2c-1.41,2.12-2.11,5.28-2.11,9.46s.7,7.31,2.11,9.45a7.65,7.65,0,0,0,12.45,0c1.4-2.14,2.11-5.29,2.11-9.45s-.71-7.34-2.11-9.46A7,7,0,0,0,1747.31,542.16Z"/>
    <path class="a257213a-9f7c-4196-ab88-c97202b4ce5c" d="M1799.82,545.15a11.4,11.4,0,0,0-7.44-2.58q-5,0-7.7,3.17c-1.78,2.11-2.67,5.15-2.67,9.14V571.2h-5.42V538.38H1782v6.42a10.91,10.91,0,0,1,4.15-5.35,11.67,11.67,0,0,1,6.63-1.86,13.43,13.43,0,0,1,3.72.5,11.86,11.86,0,0,1,3.31,1.55Z"/>
    <path class="a257213a-9f7c-4196-ab88-c97202b4ce5c" d="M1823.77,559.33a9.4,9.4,0,0,0,1.33,5.48,4.56,4.56,0,0,0,4,1.84h6.29v4.55h-6.82a9.32,9.32,0,0,1-7.49-3.1q-2.65-3.09-2.65-8.77V529.65h-8.64v-4.22h14Z"/>
    <path class="a257213a-9f7c-4196-ab88-c97202b4ce5c" d="M1864.57,542.57v-17H1870V571.2h-5.39v-4.14a9.37,9.37,0,0,1-3.59,3.71,10.29,10.29,0,0,1-5.17,1.27,11,11,0,0,1-9.36-4.61q-3.42-4.62-3.42-12.73t3.43-12.55a11.07,11.07,0,0,1,9.35-4.56,10.4,10.4,0,0,1,5.21,1.28A8.93,8.93,0,0,1,1864.57,542.57Zm-15.85,12.25q0,6.27,2,9.46a6.5,6.5,0,0,0,5.89,3.19,6.58,6.58,0,0,0,5.93-3.22q2-3.22,2-9.43t-2-9.45a6.59,6.59,0,0,0-5.93-3.21,6.51,6.51,0,0,0-5.89,3.2C1849.38,547.48,1848.72,550.64,1848.72,554.82Z"/>
    <path class="a257213a-9f7c-4196-ab88-c97202b4ce5c" d="M1897.89,525.55V543.8h-6.56V525.55Z"/>
    <path class="a257213a-9f7c-4196-ab88-c97202b4ce5c" d="M1925.83,560.62H1935v7.76L1928.46,581l-5.86,0,3.23-12.66Z"/>
    <path class="a257213a-9f7c-4196-ab88-c97202b4ce5c" d="M2008.06,525.55V543.8h-6.56V525.55Z"/>
    <path class="a257213a-9f7c-4196-ab88-c97202b4ce5c" d="M2053.57,569.09q0,7.38-3.48,11.19t-10.26,3.81a28.54,28.54,0,0,1-4.66-.41,34.51,34.51,0,0,1-4.86-1.21v-5.33a31.7,31.7,0,0,0,5.22,2,16.28,16.28,0,0,0,4.3.65q4.37,0,6.36-2.37t2-7.53V566a9.16,9.16,0,0,1-3.51,4.1,10.28,10.28,0,0,1-5.42,1.35,10.85,10.85,0,0,1-9.17-4.6q-3.43-4.61-3.43-12.3t3.43-12.34a10.87,10.87,0,0,1,9.17-4.6,10.63,10.63,0,0,1,5.36,1.26,9.31,9.31,0,0,1,3.57,3.9V538.5h5.39Zm-5.39-14.56q0-6.07-2-9.22a6.37,6.37,0,0,0-5.75-3.15,6.8,6.8,0,0,0-6,3.15c-1.38,2.1-2.08,5.17-2.08,9.22s.7,7.12,2.1,9.24a6.82,6.82,0,0,0,6.08,3.18,6.3,6.3,0,0,0,5.69-3.2C2047.52,561.63,2048.18,558.55,2048.18,554.53Z"/>
    <path class="a257213a-9f7c-4196-ab88-c97202b4ce5c" d="M2092.58,552.09v2.64h-23.35v.18q-.22,6.71,2.57,9.63c1.86,2,4.49,2.93,7.89,2.93a19.09,19.09,0,0,0,5.39-.82,32,32,0,0,0,6-2.49v5.37a36.23,36.23,0,0,1-5.94,1.89,26.16,26.16,0,0,1-5.52.62q-7.65,0-12-4.58t-4.31-12.64q0-7.86,4.22-12.54a14.37,14.37,0,0,1,11.25-4.69,12.31,12.31,0,0,1,9.89,4.25A16.28,16.28,0,0,1,2092.58,552.09Zm-5.39-1.58a10.46,10.46,0,0,0-2.47-5.87,7.63,7.63,0,0,0-6.11-2.48,8.59,8.59,0,0,0-6.42,2.58,9.05,9.05,0,0,0-2.75,5.8Z"/>
    <path class="a257213a-9f7c-4196-ab88-c97202b4ce5c" d="M2114.48,529.07v9.31h12.25v4.19h-12.25v17.81q0,3.64,1.38,5.07c.91,1,2.52,1.44,4.8,1.44h6.07v4.31h-6.6c-4,0-6.89-.82-8.55-2.44s-2.49-4.41-2.49-8.38V542.57h-8.76v-4.19h8.76v-9.31Z"/>
    <path class="a257213a-9f7c-4196-ab88-c97202b4ce5c" d="M2151.2,529.07v9.31h12.25v4.19H2151.2v17.81q0,3.64,1.38,5.07t4.8,1.44h6.07v4.31h-6.59c-4.05,0-6.9-.82-8.56-2.44s-2.49-4.41-2.49-8.38V542.57h-8.76v-4.19h8.76v-9.31Z"/>
    <path class="a257213a-9f7c-4196-ab88-c97202b4ce5c" d="M2179.2,538.5H2193V567h10.7v4.19h-26.78V567h10.69V542.69h-8.4Zm8.4-12.74H2193v6.79h-5.39Z"/>
    <path class="a257213a-9f7c-4196-ab88-c97202b4ce5c" d="M2237.45,550.86V571.2H2232V550.86c0-3-.52-5.11-1.55-6.5a5.67,5.67,0,0,0-4.86-2.08,6.87,6.87,0,0,0-5.82,2.68q-2,2.68-2,7.69V571.2h-5.39V538.38h5.39v4.92a10.22,10.22,0,0,1,3.9-4.26,11.33,11.33,0,0,1,5.83-1.45q5,0,7.49,3.3T2237.45,550.86Z"/>
    <path class="a257213a-9f7c-4196-ab88-c97202b4ce5c" d="M2273.91,569.09q0,7.38-3.48,11.19t-10.26,3.81a28.45,28.45,0,0,1-4.66-.41,34.51,34.51,0,0,1-4.86-1.21v-5.33a32,32,0,0,0,5.21,2,16.41,16.41,0,0,0,4.31.65q4.36,0,6.36-2.37t2-7.53V566a9.16,9.16,0,0,1-3.51,4.1,10.31,10.31,0,0,1-5.42,1.35,10.85,10.85,0,0,1-9.17-4.6q-3.43-4.61-3.43-12.3t3.43-12.34a10.87,10.87,0,0,1,9.17-4.6,10.65,10.65,0,0,1,5.36,1.26,9.31,9.31,0,0,1,3.57,3.9V538.5h5.39Zm-5.39-14.56q0-6.07-2-9.22a6.38,6.38,0,0,0-5.75-3.15,6.8,6.8,0,0,0-6,3.15q-2.09,3.15-2.08,9.22t2.1,9.24a6.82,6.82,0,0,0,6.07,3.18,6.32,6.32,0,0,0,5.7-3.2C2267.86,561.63,2268.52,558.55,2268.52,554.53Z"/>
    <path class="a257213a-9f7c-4196-ab88-c97202b4ce5c" d="M2283.09,554.94v-5"/>
    <path class="a257213a-9f7c-4196-ab88-c97202b4ce5c" d="M416.49,658.5h13.8V687H441v4.19H414.2V687h10.7V662.69h-8.41Zm8.41-12.74h5.39v6.79H424.9Z"/>
    <path class="a257213a-9f7c-4196-ab88-c97202b4ce5c" d="M474.75,670.86V691.2h-5.42V670.86c0-3-.52-5.11-1.56-6.5a5.65,5.65,0,0,0-4.86-2.08,6.87,6.87,0,0,0-5.82,2.68q-2,2.68-2,7.69V691.2h-5.39V658.38h5.39v4.92A10.14,10.14,0,0,1,459,659a11.36,11.36,0,0,1,5.83-1.45q5,0,7.49,3.3T474.75,670.86Z"/>
    <path class="a257213a-9f7c-4196-ab88-c97202b4ce5c" d="M489.94,658.5h13.79V687h10.7v4.19H487.65V687h10.69V662.69h-8.4Zm8.4-12.74h5.39v6.79h-5.39Z"/>
    <path class="a257213a-9f7c-4196-ab88-c97202b4ce5c" d="M535.39,649.07v9.31h12.25v4.19H535.39v17.81q0,3.64,1.38,5.07c.91,1,2.52,1.44,4.8,1.44h6.07v4.31H541c-4,0-6.89-.82-8.55-2.44s-2.49-4.41-2.49-8.38V662.57h-8.76v-4.19H530v-9.31Z"/>
    <path class="a257213a-9f7c-4196-ab88-c97202b4ce5c" d="M563.38,658.5h13.8V687h10.69v4.19H561.1V687h10.69V662.69h-8.41Zm8.41-12.74h5.39v6.79h-5.39Z"/>
    <path class="a257213a-9f7c-4196-ab88-c97202b4ce5c" d="M621.87,672.47V691.2h-5.42v-4.87a11,11,0,0,1-4.35,4.32,13.41,13.41,0,0,1-6.37,1.39,11.18,11.18,0,0,1-8-2.82,10,10,0,0,1-3-7.58q0-5.48,3.68-8.32t10.8-2.84h7.23v-.85q0-3.92-2-5.7t-6.27-1.77a20.81,20.81,0,0,0-5.57.79,24.1,24.1,0,0,0-5.47,2.32v-5.39a37.77,37.77,0,0,1,5.72-1.72,26.12,26.12,0,0,1,5.32-.57,18.11,18.11,0,0,1,7,1.2,10.88,10.88,0,0,1,4.67,3.61A9,9,0,0,1,621.4,666,32.28,32.28,0,0,1,621.87,672.47Zm-10.46,2.23h-1.78q-4.73,0-7.11,1.66a5.61,5.61,0,0,0-2.39,4.93,5.92,5.92,0,0,0,1.79,4.6,7,7,0,0,0,5,1.64,8.57,8.57,0,0,0,7-3.09c1.7-2.06,2.56-4.9,2.58-8.54v-1.2Z"/>
    <path class="a257213a-9f7c-4196-ab88-c97202b4ce5c" d="M648.63,679.33a9.32,9.32,0,0,0,1.34,5.48,4.55,4.55,0,0,0,3.94,1.84h6.3v4.55h-6.83a9.32,9.32,0,0,1-7.49-3.1c-1.76-2.06-2.65-5-2.65-8.77V649.65H634.6v-4.22h14Z"/>
    <path class="a257213a-9f7c-4196-ab88-c97202b4ce5c" d="M693.94,649v6a23,23,0,0,0-5.4-2.61,17.53,17.53,0,0,0-5.47-.88,10.29,10.29,0,0,0-6.62,1.95,6.39,6.39,0,0,0-2.43,5.26,5.81,5.81,0,0,0,1.6,4.42c1.06,1,3,1.86,6,2.55l3.1.7c4.11,1,7.09,2.46,9,4.51s2.81,4.85,2.81,8.38q0,6.24-3.87,9.52T681.34,692a29.64,29.64,0,0,1-6.18-.65,34.63,34.63,0,0,1-6.24-2v-6.3a28.92,28.92,0,0,0,6.37,3.13,19,19,0,0,0,6.05,1,10.84,10.84,0,0,0,7-2,7.82,7.82,0,0,0,.77-10.62q-1.71-1.73-6-2.66l-3.16-.74q-6.11-1.37-8.85-4.16a10.12,10.12,0,0,1-2.75-7.47,12,12,0,0,1,3.94-9.39q3.93-3.53,10.47-3.53a25.71,25.71,0,0,1,5.3.58A39.88,39.88,0,0,1,693.94,649Z"/>
    <path class="a257213a-9f7c-4196-ab88-c97202b4ce5c" d="M719,649.07v9.31h12.25v4.19H719v17.81q0,3.64,1.38,5.07t4.81,1.44h6.06v4.31h-6.59c-4,0-6.9-.82-8.56-2.44s-2.49-4.41-2.49-8.38V662.57h-8.76v-4.19h8.76v-9.31Z"/>
    <path class="a257213a-9f7c-4196-ab88-c97202b4ce5c" d="M768.76,672.47V691.2h-5.42v-4.87a11,11,0,0,1-4.35,4.32,13.39,13.39,0,0,1-6.37,1.39,11.19,11.19,0,0,1-8-2.82,10,10,0,0,1-3-7.58q0-5.48,3.67-8.32t10.8-2.84h7.23v-.85q0-3.92-2-5.7t-6.27-1.77a20.74,20.74,0,0,0-5.56.79,24,24,0,0,0-5.48,2.32v-5.39a37.77,37.77,0,0,1,5.72-1.72,26.12,26.12,0,0,1,5.32-.57,18.08,18.08,0,0,1,7,1.2,10.88,10.88,0,0,1,4.67,3.61A9,9,0,0,1,768.3,666,33.22,33.22,0,0,1,768.76,672.47ZM758.3,674.7h-1.78c-3.15,0-5.51.55-7.11,1.66a5.6,5.6,0,0,0-2.38,4.93,5.92,5.92,0,0,0,1.78,4.6,7,7,0,0,0,5,1.64,8.6,8.6,0,0,0,7-3.09c1.7-2.06,2.55-4.9,2.57-8.54v-1.2Z"/>
    <path class="a257213a-9f7c-4196-ab88-c97202b4ce5c" d="M792.45,649.07v9.31H804.7v4.19H792.45v17.81q0,3.64,1.38,5.07t4.8,1.44h6.07v4.31h-6.6c-4,0-6.89-.82-8.55-2.44s-2.49-4.41-2.49-8.38V662.57H778.3v-4.19h8.76v-9.31Z"/>
    <path class="a257213a-9f7c-4196-ab88-c97202b4ce5c" d="M844,672.09v2.64H820.65v.18q-.24,6.71,2.56,9.63c1.87,2,4.5,2.93,7.9,2.93a19.14,19.14,0,0,0,5.39-.82,32.25,32.25,0,0,0,6-2.49v5.37a36.44,36.44,0,0,1-5.93,1.89,26.16,26.16,0,0,1-5.52.62q-7.65,0-12-4.58t-4.3-12.64q0-7.86,4.22-12.54a14.37,14.37,0,0,1,11.25-4.69,12.29,12.29,0,0,1,9.88,4.25A16.29,16.29,0,0,1,844,672.09Zm-5.39-1.58a10.47,10.47,0,0,0-2.48-5.87,7.6,7.6,0,0,0-6.11-2.48,8.58,8.58,0,0,0-6.41,2.58,9.12,9.12,0,0,0-2.76,5.8Z"/>
    <path class="a257213a-9f7c-4196-ab88-c97202b4ce5c" d="M860.48,658.41h9.14V669h-9.14Zm0,22.12h9.14V691.2h-9.14Z"/>
    <path class="a257213a-9f7c-4196-ab88-c97202b4ce5c" d="M943.09,645.55V663.8h-6.56V645.55Z"/>
    <path class="a257213a-9f7c-4196-ab88-c97202b4ce5c" d="M962.09,647.46H968v16.75h16.2V647.46h6V691.2h-6v-22H968v22h-5.95Z"/>
    <path class="a257213a-9f7c-4196-ab88-c97202b4ce5c" d="M1027.61,672.09v2.64h-23.35v.18q-.22,6.71,2.57,9.63c1.86,2,4.49,2.93,7.89,2.93a19.09,19.09,0,0,0,5.39-.82,32,32,0,0,0,6-2.49v5.37a36.44,36.44,0,0,1-5.93,1.89,26.33,26.33,0,0,1-5.53.62q-7.63,0-11.95-4.58t-4.31-12.64q0-7.86,4.22-12.54a14.37,14.37,0,0,1,11.25-4.69,12.31,12.31,0,0,1,9.89,4.25A16.28,16.28,0,0,1,1027.61,672.09Zm-5.39-1.58a10.46,10.46,0,0,0-2.47-5.87,7.63,7.63,0,0,0-6.11-2.48,8.59,8.59,0,0,0-6.42,2.58,9.05,9.05,0,0,0-2.75,5.8Z"/>
    <path class="a257213a-9f7c-4196-ab88-c97202b4ce5c" d="M1052.59,679.33a9.33,9.33,0,0,0,1.33,5.48,4.55,4.55,0,0,0,3.94,1.84h6.3v4.55h-6.83a9.3,9.3,0,0,1-7.48-3.1q-2.65-3.09-2.65-8.77V649.65h-8.65v-4.22h14Z"/>
    <path class="a257213a-9f7c-4196-ab88-c97202b4ce5c" d="M1089.31,679.33a9.4,9.4,0,0,0,1.33,5.48,4.56,4.56,0,0,0,3.94,1.84h6.3v4.55h-6.82a9.31,9.31,0,0,1-7.49-3.1q-2.65-3.09-2.65-8.77V649.65h-8.64v-4.22h14Z"/>
    <path class="a257213a-9f7c-4196-ab88-c97202b4ce5c" d="M1123,657.59q6.82,0,10.44,4.43t3.62,12.8q0,8.4-3.61,12.82T1123,692q-6.82,0-10.43-4.4T1109,674.82q0-8.39,3.61-12.8T1123,657.59Zm0,4.57a7,7,0,0,0-6.22,3.2c-1.4,2.12-2.1,5.28-2.1,9.46s.7,7.31,2.1,9.45a7.66,7.66,0,0,0,12.46,0c1.4-2.14,2.11-5.29,2.11-9.45s-.71-7.34-2.11-9.46A7,7,0,0,0,1123,662.16Z"/>
    <path class="a257213a-9f7c-4196-ab88-c97202b4ce5c" d="M1178.42,647.46h5.77l4.19,35.5,5-23.49h6.18l5,23.55,4.19-35.56h5.77L1208,691.2h-5.6l-6-26-5.92,26H1185Z"/>
    <path class="a257213a-9f7c-4196-ab88-c97202b4ce5c" d="M1233.18,657.59q6.84,0,10.45,4.43t3.62,12.8q0,8.4-3.61,12.82t-10.46,4.4q-6.83,0-10.42-4.4t-3.61-12.82q0-8.39,3.61-12.8T1233.18,657.59Zm0,4.57a7,7,0,0,0-6.21,3.2c-1.4,2.12-2.11,5.28-2.11,9.46s.71,7.31,2.11,9.45a7.66,7.66,0,0,0,12.46,0q2.1-3.21,2.1-9.45c0-4.18-.7-7.34-2.1-9.46A7,7,0,0,0,1233.18,662.16Z"/>
    <path class="a257213a-9f7c-4196-ab88-c97202b4ce5c" d="M1285.7,665.15a11.44,11.44,0,0,0-7.44-2.58q-5,0-7.71,3.17c-1.77,2.11-2.66,5.15-2.66,9.14V691.2h-5.42V658.38h5.42v6.42a11,11,0,0,1,4.14-5.35,11.73,11.73,0,0,1,6.64-1.86,13.43,13.43,0,0,1,3.72.5,12,12,0,0,1,3.31,1.55Z"/>
    <path class="a257213a-9f7c-4196-ab88-c97202b4ce5c" d="M1309.65,679.33a9.33,9.33,0,0,0,1.33,5.48,4.55,4.55,0,0,0,3.94,1.84h6.3v4.55h-6.83a9.3,9.3,0,0,1-7.48-3.1q-2.65-3.09-2.65-8.77V649.65h-8.64v-4.22h14Z"/>
    <path class="a257213a-9f7c-4196-ab88-c97202b4ce5c" d="M1350.44,662.57v-17h5.4V691.2h-5.4v-4.14a9.28,9.28,0,0,1-3.58,3.71,10.3,10.3,0,0,1-5.18,1.27,11,11,0,0,1-9.36-4.61q-3.4-4.62-3.41-12.73t3.43-12.55a11.05,11.05,0,0,1,9.34-4.56,10.41,10.41,0,0,1,5.22,1.28A8.91,8.91,0,0,1,1350.44,662.57Zm-15.85,12.25q0,6.27,2,9.46a6.5,6.5,0,0,0,5.89,3.19,6.59,6.59,0,0,0,5.93-3.22q2-3.22,2-9.43t-2-9.45a6.6,6.6,0,0,0-5.93-3.21,6.51,6.51,0,0,0-5.89,3.2C1335.26,667.48,1334.59,670.64,1334.59,674.82Z"/>
    <path class="a257213a-9f7c-4196-ab88-c97202b4ce5c" d="M1377.15,683.75h7.7v7.45h-7.7Zm.88-36.29H1384v19.18l-.61,9h-4.72l-.61-9Z"/>
    <path class="a257213a-9f7c-4196-ab88-c97202b4ce5c" d="M1420.49,645.55V663.8h-6.56V645.55Z"/>
    <path class="a257213a-9f7c-4196-ab88-c97202b4ce5c" d="M1448.43,680.62h9.14v7.76L1451.06,701l-5.86,0,3.23-12.66Z"/>
    <path class="a257213a-9f7c-4196-ab88-c97202b4ce5c" d="M425.28,777.59q6.83,0,10.44,4.43t3.62,12.8q0,8.4-3.6,12.82T425.28,812q-6.82,0-10.43-4.4t-3.6-12.82q0-8.39,3.6-12.8T425.28,777.59Zm0,4.57a7,7,0,0,0-6.21,3.2c-1.41,2.12-2.11,5.28-2.11,9.46s.7,7.31,2.11,9.45a7.65,7.65,0,0,0,12.45,0q2.12-3.21,2.11-9.45c0-4.18-.7-7.34-2.11-9.46A7,7,0,0,0,425.28,782.16Z"/>
    <path class="a257213a-9f7c-4196-ab88-c97202b4ce5c" d="M474.75,790.86V811.2h-5.42V790.86c0-3-.52-5.11-1.56-6.5a5.65,5.65,0,0,0-4.86-2.08,6.87,6.87,0,0,0-5.82,2.68q-2,2.68-2,7.69V811.2h-5.39V778.38h5.39v4.92A10.14,10.14,0,0,1,459,779a11.36,11.36,0,0,1,5.83-1.45q5,0,7.49,3.3T474.75,790.86Z"/>
    <path class="a257213a-9f7c-4196-ab88-c97202b4ce5c" d="M486.45,767.46h26v5h-20v11.77h19.16v5H492.37v17H513v5H486.45Z"/>
    <path class="a257213a-9f7c-4196-ab88-c97202b4ce5c" d="M520.33,778.38h5.6l9.52,27.54L545,778.38h5.59L538.93,811.2H532Z"/>
    <path class="a257213a-9f7c-4196-ab88-c97202b4ce5c" d="M586.94,792.09v2.64H563.59v.18q-.24,6.71,2.56,9.63c1.86,2,4.5,2.93,7.9,2.93a19.2,19.2,0,0,0,5.39-.82,32.25,32.25,0,0,0,6-2.49v5.37a36.44,36.44,0,0,1-5.93,1.89A26.31,26.31,0,0,1,574,812q-7.65,0-12-4.58t-4.3-12.64q0-7.86,4.22-12.54a14.37,14.37,0,0,1,11.25-4.69,12.29,12.29,0,0,1,9.88,4.25A16.29,16.29,0,0,1,586.94,792.09Zm-5.39-1.58a10.47,10.47,0,0,0-2.48-5.87,7.61,7.61,0,0,0-6.11-2.48,8.55,8.55,0,0,0-6.41,2.58,9.12,9.12,0,0,0-2.76,5.8Z"/>
    <path class="a257213a-9f7c-4196-ab88-c97202b4ce5c" d="M621.64,790.86V811.2h-5.42V790.86c0-3-.52-5.11-1.55-6.5a5.68,5.68,0,0,0-4.87-2.08A6.84,6.84,0,0,0,604,785q-2,2.68-2,7.69V811.2h-5.39V778.38H602v4.92a10.22,10.22,0,0,1,3.9-4.26,11.33,11.33,0,0,1,5.83-1.45q5,0,7.48,3.3T621.64,790.86Z"/>
    <path class="a257213a-9f7c-4196-ab88-c97202b4ce5c" d="M645.56,769.07v9.31H657.8v4.19H645.56v17.81q0,3.64,1.37,5.07t4.81,1.44h6.06v4.31h-6.59c-4,0-6.89-.82-8.55-2.44s-2.49-4.41-2.49-8.38V782.57h-8.76v-4.19h8.76v-9.31Z"/>
    <path class="a257213a-9f7c-4196-ab88-c97202b4ce5c" d="M676.86,778.41H686V789h-9.14Zm0,22.12H686V811.2h-9.14Z"/>
    <path class="a257213a-9f7c-4196-ab88-c97202b4ce5c" d="M762.79,762.74A58.92,58.92,0,0,0,757,776.05a47.51,47.51,0,0,0,0,26.74,60.25,60.25,0,0,0,5.82,13.39H758.1a60.91,60.91,0,0,1-6.59-13.58,41,41,0,0,1,0-26.33,59.58,59.58,0,0,1,6.59-13.53Z"/>
    <path class="a257213a-9f7c-4196-ab88-c97202b4ce5c" d="M803,779.53v5.27a20.5,20.5,0,0,0-4.66-2,17.15,17.15,0,0,0-4.78-.68,10.05,10.05,0,0,0-5.46,1.19,4,4,0,0,0-1.8,3.62,4,4,0,0,0,1.35,3.28c.89.72,3.13,1.43,6.71,2.11l2.16.41a10.51,10.51,0,0,1,6.08,3,8.5,8.5,0,0,1,2.07,5.94,9.16,9.16,0,0,1-3.46,7.61q-3.45,2.73-9.61,2.73a27.2,27.2,0,0,1-5.1-.51A45.53,45.53,0,0,1,780.7,810v-5.56a31.85,31.85,0,0,0,5.77,2.33,19.58,19.58,0,0,0,5.22.77,9.17,9.17,0,0,0,5.54-1.45,4.76,4.76,0,0,0,2-4.05q0-3.75-7.18-5.19l-.23-.06-2-.41q-4.66-.9-6.8-3.06a8,8,0,0,1-2.14-5.87,8.77,8.77,0,0,1,3.19-7.28q3.19-2.56,9.11-2.57a25.35,25.35,0,0,1,5.07.49A25,25,0,0,1,803,779.53Z"/>
    <path class="a257213a-9f7c-4196-ab88-c97202b4ce5c" d="M823.75,778.41h9.14V789h-9.14Zm0,22.12h9.14V811.2h-9.14Z"/>
    <path class="a257213a-9f7c-4196-ab88-c97202b4ce5c" d="M913.14,779.53v5.27a20.69,20.69,0,0,0-4.66-2,17.2,17.2,0,0,0-4.78-.68,10.05,10.05,0,0,0-5.46,1.19,4,4,0,0,0-1.8,3.62,4,4,0,0,0,1.35,3.28c.89.72,3.13,1.43,6.7,2.11l2.17.41a10.54,10.54,0,0,1,6.08,3,8.5,8.5,0,0,1,2.07,5.94,9.18,9.18,0,0,1-3.46,7.61Q907.9,812,901.74,812a27.2,27.2,0,0,1-5.1-.51,45.53,45.53,0,0,1-5.77-1.54v-5.56a31.85,31.85,0,0,0,5.77,2.33,19.58,19.58,0,0,0,5.22.77,9.12,9.12,0,0,0,5.53-1.45,4.75,4.75,0,0,0,2-4.05q0-3.75-7.18-5.19l-.23-.06-2-.41c-3.1-.6-5.37-1.62-6.79-3.06a8,8,0,0,1-2.14-5.87,8.77,8.77,0,0,1,3.19-7.28q3.2-2.56,9.11-2.57a25.5,25.5,0,0,1,9.85,1.94Z"/>
    <path class="a257213a-9f7c-4196-ab88-c97202b4ce5c" d="M939.34,769.07v9.31h12.25v4.19H939.34v17.81q0,3.64,1.38,5.07t4.8,1.44h6.07v4.31H945c-4,0-6.9-.82-8.56-2.44s-2.49-4.41-2.49-8.38V782.57h-8.76v-4.19H934v-9.31Z"/>
    <path class="a257213a-9f7c-4196-ab88-c97202b4ce5c" d="M991.92,785.15a12.29,12.29,0,0,0-3.52-2,12,12,0,0,0-3.93-.62c-3.36,0-5.92,1.06-7.7,3.17s-2.67,5.15-2.67,9.14V811.2h-5.42V778.38h5.42v6.42a10.91,10.91,0,0,1,4.15-5.35,11.7,11.7,0,0,1,6.63-1.86,13.43,13.43,0,0,1,3.72.5,11.92,11.92,0,0,1,3.32,1.55Z"/>
    <path class="a257213a-9f7c-4196-ab88-c97202b4ce5c" d="M1004.06,778.5h13.8V807h10.69v4.19h-26.78V807h10.7V782.69h-8.41Zm8.41-12.74h5.39v6.79h-5.39Z"/>
    <path class="a257213a-9f7c-4196-ab88-c97202b4ce5c" d="M1062.31,790.86V811.2h-5.42V790.86c0-3-.51-5.11-1.55-6.5a5.66,5.66,0,0,0-4.86-2.08,6.87,6.87,0,0,0-5.82,2.68c-1.36,1.79-2,4.35-2,7.69V811.2h-5.39V778.38h5.39v4.92a10.14,10.14,0,0,1,3.89-4.26,11.36,11.36,0,0,1,5.83-1.45q5,0,7.49,3.3T1062.31,790.86Z"/>
    <path class="a257213a-9f7c-4196-ab88-c97202b4ce5c" d="M1098.77,809.09q0,7.38-3.48,11.19c-2.33,2.54-5.74,3.81-10.26,3.81a28.33,28.33,0,0,1-4.65-.41,34.3,34.3,0,0,1-4.87-1.21v-5.33a32,32,0,0,0,5.22,2,16.28,16.28,0,0,0,4.3.65q4.37,0,6.36-2.37t2-7.53V806a9.16,9.16,0,0,1-3.51,4.1,10.28,10.28,0,0,1-5.42,1.35,10.85,10.85,0,0,1-9.17-4.6q-3.43-4.61-3.43-12.3t3.43-12.34a10.87,10.87,0,0,1,9.17-4.6,10.63,10.63,0,0,1,5.36,1.26,9.25,9.25,0,0,1,3.57,3.9V778.5h5.39Zm-5.39-14.56q0-6.07-2-9.22a6.39,6.39,0,0,0-5.76-3.15,6.8,6.8,0,0,0-6,3.15c-1.38,2.1-2.08,5.17-2.08,9.22s.7,7.12,2.1,9.24a6.82,6.82,0,0,0,6.08,3.18,6.33,6.33,0,0,0,5.7-3.2C1092.72,801.63,1093.38,798.55,1093.38,794.53Z"/>
    <path class="a257213a-9f7c-4196-ab88-c97202b4ce5c" d="M1117.92,800.62h9.14v7.76L1120.55,821l-5.85,0,3.22-12.66Z"/>
    <path class="a257213a-9f7c-4196-ab88-c97202b4ce5c" d="M1214.27,816.76v5h-35.85v-5Z"/>
    <path class="a257213a-9f7c-4196-ab88-c97202b4ce5c" d="M1248,792.09v2.64H1224.6v.18q-.24,6.71,2.57,9.63c1.86,2,4.49,2.93,7.89,2.93a19.09,19.09,0,0,0,5.39-.82,32,32,0,0,0,6-2.49v5.37a36.23,36.23,0,0,1-5.94,1.89,26.16,26.16,0,0,1-5.52.62q-7.65,0-12-4.58t-4.31-12.64q0-7.86,4.22-12.54a14.37,14.37,0,0,1,11.25-4.69,12.31,12.31,0,0,1,9.89,4.25A16.34,16.34,0,0,1,1248,792.09Zm-5.39-1.58a10.46,10.46,0,0,0-2.47-5.87,7.63,7.63,0,0,0-6.11-2.48,8.59,8.59,0,0,0-6.42,2.58,9.05,9.05,0,0,0-2.75,5.8Z"/>
    <path class="a257213a-9f7c-4196-ab88-c97202b4ce5c" d="M1254.79,778.38h5.6l9.52,27.54,9.55-27.54h5.59l-11.66,32.82h-6.94Z"/>
    <path class="a257213a-9f7c-4196-ab88-c97202b4ce5c" d="M1321.4,792.09v2.64h-23.35v.18q-.24,6.71,2.56,9.63c1.87,2,4.5,2.93,7.9,2.93a19.2,19.2,0,0,0,5.39-.82,32.25,32.25,0,0,0,6-2.49v5.37a36.44,36.44,0,0,1-5.93,1.89,26.23,26.23,0,0,1-5.52.62q-7.65,0-12-4.58t-4.3-12.64q0-7.86,4.22-12.54a14.37,14.37,0,0,1,11.25-4.69,12.29,12.29,0,0,1,9.88,4.25A16.29,16.29,0,0,1,1321.4,792.09Zm-5.39-1.58a10.47,10.47,0,0,0-2.48-5.87,7.61,7.61,0,0,0-6.11-2.48,8.57,8.57,0,0,0-6.41,2.58,9.12,9.12,0,0,0-2.76,5.8Z"/>
    <path class="a257213a-9f7c-4196-ab88-c97202b4ce5c" d="M1356.1,790.86V811.2h-5.42V790.86c0-3-.52-5.11-1.55-6.5a5.68,5.68,0,0,0-4.87-2.08,6.84,6.84,0,0,0-5.81,2.68q-2,2.68-2,7.69V811.2H1331V778.38h5.39v4.92a10.22,10.22,0,0,1,3.9-4.26,11.33,11.33,0,0,1,5.83-1.45q5,0,7.48,3.3T1356.1,790.86Z"/>
    <path class="a257213a-9f7c-4196-ab88-c97202b4ce5c" d="M1380,769.07v9.31h12.24v4.19H1380v17.81q0,3.64,1.38,5.07c.91,1,2.52,1.44,4.8,1.44h6.06v4.31h-6.59c-4,0-6.89-.82-8.55-2.44s-2.49-4.41-2.49-8.38V782.57h-8.76v-4.19h8.76v-9.31Z"/>
    <path class="a257213a-9f7c-4196-ab88-c97202b4ce5c" d="M1411.32,778.41h9.14V789h-9.14Zm0,22.12h9.14V811.2h-9.14Z"/>
    <path class="a257213a-9f7c-4196-ab88-c97202b4ce5c" d="M1503.22,792.47V811.2h-5.42v-4.87a11,11,0,0,1-4.35,4.32,13.39,13.39,0,0,1-6.37,1.39,11.19,11.19,0,0,1-8-2.82,10,10,0,0,1-3-7.58q0-5.48,3.67-8.32t10.8-2.84h7.23v-.85c0-2.61-.68-4.51-2-5.7s-3.4-1.77-6.27-1.77a20.74,20.74,0,0,0-5.56.79,24.17,24.17,0,0,0-5.48,2.32v-5.39a37.54,37.54,0,0,1,5.73-1.72,26,26,0,0,1,5.31-.57,18.08,18.08,0,0,1,7,1.2,10.83,10.83,0,0,1,4.67,3.61,9,9,0,0,1,1.59,3.61A33.22,33.22,0,0,1,1503.22,792.47Zm-10.45,2.23H1491c-3.15,0-5.51.55-7.11,1.66a5.6,5.6,0,0,0-2.38,4.93,5.92,5.92,0,0,0,1.78,4.6,7,7,0,0,0,5,1.64,8.6,8.6,0,0,0,7-3.09c1.7-2.06,2.56-4.9,2.57-8.54v-1.2Z"/>
    <path class="a257213a-9f7c-4196-ab88-c97202b4ce5c" d="M1539.71,790.86V811.2h-5.42V790.86c0-3-.51-5.11-1.55-6.5a5.65,5.65,0,0,0-4.86-2.08,6.87,6.87,0,0,0-5.82,2.68c-1.36,1.79-2,4.35-2,7.69V811.2h-5.39V778.38H1520v4.92a10.14,10.14,0,0,1,3.89-4.26,11.36,11.36,0,0,1,5.83-1.45q5,0,7.49,3.3T1539.71,790.86Z"/>
    <path class="a257213a-9f7c-4196-ab88-c97202b4ce5c" d="M1570.78,800.65q-1.35,3.42-3.43,9a88.05,88.05,0,0,1-3.89,9.44,9.15,9.15,0,0,1-3.37,3.42,9.46,9.46,0,0,1-4.72,1.15H1551v-4.52h3.19a5,5,0,0,0,3.72-1.37q1.35-1.38,3.43-7.12l-12.69-32.29h5.72l9.72,25.67,9.58-25.67h5.72Z"/>
    <path class="a257213a-9f7c-4196-ab88-c97202b4ce5c" d="M1595.32,800.62h9.14v7.76L1598,821l-5.86,0,3.23-12.66Z"/>
    <path class="a257213a-9f7c-4196-ab88-c97202b4ce5c" d="M1691.67,816.76v5h-35.86v-5Z"/>
    <path class="a257213a-9f7c-4196-ab88-c97202b4ce5c" d="M1712.34,781.72a7.46,7.46,0,0,1,2.54-3.12,6.61,6.61,0,0,1,3.7-1,5.78,5.78,0,0,1,5.58,3.06q1.63,3.06,1.63,11.53v19h-4.92V792.42q0-6.95-.78-8.63a2.85,2.85,0,0,0-2.83-1.69,3.21,3.21,0,0,0-3.2,1.81c-.58,1.2-.87,4-.87,8.51V811.2h-4.92V792.42q0-7-.83-8.68a3.08,3.08,0,0,0-3-1.64,3,3,0,0,0-3,1.81c-.56,1.2-.84,4-.84,8.51V811.2h-4.89V778.38h4.89v2.82a7.23,7.23,0,0,1,2.42-2.69,6.07,6.07,0,0,1,3.3-.92,6.29,6.29,0,0,1,3.7,1A6.51,6.51,0,0,1,1712.34,781.72Z"/>
    <path class="a257213a-9f7c-4196-ab88-c97202b4ce5c" d="M1762.07,792.09v2.64h-23.35v.18q-.23,6.71,2.57,9.63c1.86,2,4.49,2.93,7.89,2.93a19.09,19.09,0,0,0,5.39-.82,32,32,0,0,0,6-2.49v5.37a36.44,36.44,0,0,1-5.93,1.89,26.33,26.33,0,0,1-5.53.62q-7.63,0-11.95-4.58t-4.31-12.64q0-7.86,4.22-12.54a14.4,14.4,0,0,1,11.25-4.69,12.31,12.31,0,0,1,9.89,4.25A16.28,16.28,0,0,1,1762.07,792.09Zm-5.39-1.58a10.46,10.46,0,0,0-2.47-5.87,7.61,7.61,0,0,0-6.11-2.48,8.59,8.59,0,0,0-6.42,2.58,9.1,9.1,0,0,0-2.75,5.8Z"/>
    <path class="a257213a-9f7c-4196-ab88-c97202b4ce5c" d="M1784,769.07v9.31h12.25v4.19H1784v17.81q0,3.64,1.38,5.07t4.8,1.44h6.07v4.31h-6.59c-4.05,0-6.9-.82-8.56-2.44s-2.49-4.41-2.49-8.38V782.57h-8.76v-4.19h8.76v-9.31Z"/>
    <path class="a257213a-9f7c-4196-ab88-c97202b4ce5c" d="M1833.73,792.47V811.2h-5.42v-4.87a11,11,0,0,1-4.35,4.32,13.41,13.41,0,0,1-6.37,1.39,11.18,11.18,0,0,1-8-2.82,10,10,0,0,1-3-7.58q0-5.48,3.68-8.32t10.8-2.84h7.23v-.85q0-3.92-2-5.7t-6.27-1.77a20.86,20.86,0,0,0-5.57.79,24.1,24.1,0,0,0-5.47,2.32v-5.39a37.77,37.77,0,0,1,5.72-1.72,26.12,26.12,0,0,1,5.32-.57,18.08,18.08,0,0,1,7,1.2,10.88,10.88,0,0,1,4.67,3.61,9,9,0,0,1,1.58,3.61A32.28,32.28,0,0,1,1833.73,792.47Zm-10.46,2.23h-1.78q-4.73,0-7.11,1.66a5.61,5.61,0,0,0-2.39,4.93,5.92,5.92,0,0,0,1.79,4.6,7,7,0,0,0,5,1.64,8.57,8.57,0,0,0,7-3.09c1.7-2.06,2.56-4.9,2.58-8.54v-1.2Z"/>
    <path class="a257213a-9f7c-4196-ab88-c97202b4ce5c" d="M1864.57,782.57v-17H1870V811.2h-5.39v-4.14a9.37,9.37,0,0,1-3.59,3.71,10.29,10.29,0,0,1-5.17,1.27,11,11,0,0,1-9.36-4.61q-3.42-4.62-3.42-12.73t3.43-12.55a11.07,11.07,0,0,1,9.35-4.56,10.4,10.4,0,0,1,5.21,1.28A8.93,8.93,0,0,1,1864.57,782.57Zm-15.85,12.25q0,6.27,2,9.46a6.5,6.5,0,0,0,5.89,3.19,6.58,6.58,0,0,0,5.93-3.22q2-3.22,2-9.43t-2-9.45a6.59,6.59,0,0,0-5.93-3.21,6.51,6.51,0,0,0-5.89,3.2C1849.38,787.48,1848.72,790.64,1848.72,794.82Z"/>
    <path class="a257213a-9f7c-4196-ab88-c97202b4ce5c" d="M1907.18,792.47V811.2h-5.42v-4.87a11,11,0,0,1-4.35,4.32A13.41,13.41,0,0,1,1891,812a11.18,11.18,0,0,1-8-2.82,10,10,0,0,1-3-7.58q0-5.48,3.68-8.32t10.79-2.84h7.24v-.85q0-3.92-2-5.7t-6.27-1.77a20.81,20.81,0,0,0-5.57.79,24.36,24.36,0,0,0-5.48,2.32v-5.39a37.54,37.54,0,0,1,5.73-1.72,26.12,26.12,0,0,1,5.32-.57,18.15,18.15,0,0,1,7,1.2,10.88,10.88,0,0,1,4.67,3.61,9,9,0,0,1,1.58,3.61A33.05,33.05,0,0,1,1907.18,792.47Zm-10.46,2.23h-1.79q-4.71,0-7.1,1.66a5.61,5.61,0,0,0-2.39,4.93,5.92,5.92,0,0,0,1.79,4.6,7,7,0,0,0,5,1.64,8.58,8.58,0,0,0,7-3.09c1.7-2.06,2.56-4.9,2.58-8.54v-1.2Z"/>
    <path class="a257213a-9f7c-4196-ab88-c97202b4ce5c" d="M1930.86,769.07v9.31h12.25v4.19h-12.25v17.81q0,3.64,1.38,5.07t4.81,1.44h6.06v4.31h-6.59c-4,0-6.9-.82-8.56-2.44s-2.49-4.41-2.49-8.38V782.57h-8.76v-4.19h8.76v-9.31Z"/>
    <path class="a257213a-9f7c-4196-ab88-c97202b4ce5c" d="M1980.62,792.47V811.2h-5.42v-4.87a11,11,0,0,1-4.35,4.32,13.39,13.39,0,0,1-6.37,1.39,11.19,11.19,0,0,1-8-2.82,10,10,0,0,1-3-7.58q0-5.48,3.67-8.32t10.8-2.84h7.23v-.85q0-3.92-2-5.7t-6.27-1.77a20.74,20.74,0,0,0-5.56.79,24.17,24.17,0,0,0-5.48,2.32v-5.39a37.54,37.54,0,0,1,5.73-1.72,26,26,0,0,1,5.31-.57,18.08,18.08,0,0,1,7,1.2,10.88,10.88,0,0,1,4.67,3.61,9,9,0,0,1,1.59,3.61A33.22,33.22,0,0,1,1980.62,792.47Zm-10.45,2.23h-1.79c-3.15,0-5.51.55-7.11,1.66a5.6,5.6,0,0,0-2.38,4.93,5.92,5.92,0,0,0,1.78,4.6,7,7,0,0,0,4.95,1.64,8.6,8.6,0,0,0,7-3.09c1.7-2.06,2.55-4.9,2.57-8.54v-1.2Z"/>
    <path class="a257213a-9f7c-4196-ab88-c97202b4ce5c" d="M1998.89,778.41H2008V789h-9.14Zm0,22.12H2008V811.2h-9.14Z"/>
    <path class="a257213a-9f7c-4196-ab88-c97202b4ce5c" d="M2060.82,767.6h7.91l7.56,22.21,7.62-22.21h7.94v43.6h-5.48V772.67l-7.79,23h-4.49l-7.82-23V811.2h-5.45Z"/>
    <path class="a257213a-9f7c-4196-ab88-c97202b4ce5c" d="M2129.3,792.09v2.64H2106v.18q-.22,6.71,2.57,9.63c1.86,2,4.49,2.93,7.89,2.93a19.09,19.09,0,0,0,5.39-.82,32,32,0,0,0,6-2.49v5.37a36.44,36.44,0,0,1-5.93,1.89,26.33,26.33,0,0,1-5.53.62q-7.63,0-11.95-4.58t-4.31-12.64q0-7.86,4.22-12.54a14.4,14.4,0,0,1,11.25-4.69,12.31,12.31,0,0,1,9.89,4.25A16.28,16.28,0,0,1,2129.3,792.09Zm-5.39-1.58a10.46,10.46,0,0,0-2.47-5.87,7.61,7.61,0,0,0-6.11-2.48,8.59,8.59,0,0,0-6.42,2.58,9.1,9.1,0,0,0-2.75,5.8Z"/>
    <path class="a257213a-9f7c-4196-ab88-c97202b4ce5c" d="M2151.2,769.07v9.31h12.25v4.19H2151.2v17.81q0,3.64,1.38,5.07t4.8,1.44h6.07v4.31h-6.59c-4.05,0-6.9-.82-8.56-2.44s-2.49-4.41-2.49-8.38V782.57h-8.76v-4.19h8.76v-9.31Z"/>
    <path class="a257213a-9f7c-4196-ab88-c97202b4ce5c" d="M2201,792.47V811.2h-5.42v-4.87a11,11,0,0,1-4.35,4.32,13.41,13.41,0,0,1-6.37,1.39,11.18,11.18,0,0,1-8-2.82,10,10,0,0,1-3-7.58q0-5.48,3.68-8.32t10.8-2.84h7.23v-.85q0-3.92-2-5.7t-6.27-1.77a20.74,20.74,0,0,0-5.56.79,24,24,0,0,0-5.48,2.32v-5.39a37.77,37.77,0,0,1,5.72-1.72,26.12,26.12,0,0,1,5.32-.57,18.08,18.08,0,0,1,7,1.2,10.88,10.88,0,0,1,4.67,3.61,9,9,0,0,1,1.58,3.61A32.28,32.28,0,0,1,2201,792.47Zm-10.46,2.23h-1.78q-4.72,0-7.11,1.66a5.61,5.61,0,0,0-2.39,4.93,5.92,5.92,0,0,0,1.79,4.6,7,7,0,0,0,4.95,1.64,8.6,8.6,0,0,0,7-3.09c1.69-2.06,2.55-4.9,2.57-8.54v-1.2Z"/>
    <path class="a257213a-9f7c-4196-ab88-c97202b4ce5c" d="M2231.8,782.57v-17h5.39V811.2h-5.39v-4.14a9.37,9.37,0,0,1-3.59,3.71A10.29,10.29,0,0,1,2223,812a11,11,0,0,1-9.36-4.61q-3.42-4.62-3.42-12.73t3.43-12.55a11.07,11.07,0,0,1,9.35-4.56,10.4,10.4,0,0,1,5.21,1.28A8.93,8.93,0,0,1,2231.8,782.57ZM2216,794.82q0,6.27,2,9.46a6.5,6.5,0,0,0,5.89,3.19,6.58,6.58,0,0,0,5.93-3.22q2-3.22,2-9.43t-2-9.45a6.59,6.59,0,0,0-5.93-3.21,6.51,6.51,0,0,0-5.89,3.2C2216.61,787.48,2216,790.64,2216,794.82Z"/>
    <path class="a257213a-9f7c-4196-ab88-c97202b4ce5c" d="M2274.41,792.47V811.2H2269v-4.87a11,11,0,0,1-4.35,4.32,13.41,13.41,0,0,1-6.37,1.39,11.18,11.18,0,0,1-8-2.82,10,10,0,0,1-3-7.58q0-5.48,3.68-8.32t10.79-2.84H2269v-.85q0-3.92-2-5.7t-6.27-1.77a20.81,20.81,0,0,0-5.57.79,24.36,24.36,0,0,0-5.48,2.32v-5.39a37.88,37.88,0,0,1,5.73-1.72,26.12,26.12,0,0,1,5.32-.57,18.15,18.15,0,0,1,7,1.2,10.88,10.88,0,0,1,4.67,3.61,9,9,0,0,1,1.58,3.61A33.05,33.05,0,0,1,2274.41,792.47ZM2264,794.7h-1.79q-4.71,0-7.1,1.66a5.61,5.61,0,0,0-2.39,4.93,5.92,5.92,0,0,0,1.79,4.6,7,7,0,0,0,4.95,1.64,8.58,8.58,0,0,0,7-3.09c1.7-2.06,2.56-4.9,2.58-8.54v-1.2Z"/>
    <path class="a257213a-9f7c-4196-ab88-c97202b4ce5c" d="M2294.56,808.76q-2.49-2.43-2.49-8.38V782.57h-8.76v-4.19h8.76v-9.31h5.39v9.31h0v4.19h0v17.81q0,3.64,1.38,5.07"/>
    <path class="a257213a-9f7c-4196-ab88-c97202b4ce5c" d="M407.23,898.38h5.33l5.72,26.52L423,908h4.6l4.75,16.94L438,898.38h5.33l-7.67,32.82h-5.16l-5.24-18-5.22,18h-5.15Z"/>
    <path class="a257213a-9f7c-4196-ab88-c97202b4ce5c" d="M474.75,910.86V931.2h-5.42V910.86c0-3-.52-5.11-1.56-6.5a5.65,5.65,0,0,0-4.86-2.08,6.87,6.87,0,0,0-5.82,2.68q-2,2.68-2,7.69V931.2h-5.39V885.61h5.39V903.3A10.14,10.14,0,0,1,459,899a11.36,11.36,0,0,1,5.83-1.45q5,0,7.49,3.3T474.75,910.86Z"/>
    <path class="a257213a-9f7c-4196-ab88-c97202b4ce5c" d="M513.49,912.09v2.64H490.14v.18q-.24,6.71,2.56,9.63c1.87,2,4.5,2.93,7.9,2.93a19.09,19.09,0,0,0,5.39-.82,32,32,0,0,0,6-2.49v5.37a36.23,36.23,0,0,1-5.94,1.89,26.16,26.16,0,0,1-5.52.62q-7.65,0-12-4.58t-4.31-12.64q0-7.86,4.22-12.54a14.37,14.37,0,0,1,11.25-4.69,12.33,12.33,0,0,1,9.89,4.25A16.34,16.34,0,0,1,513.49,912.09Zm-5.39-1.58a10.4,10.4,0,0,0-2.48-5.87,7.59,7.59,0,0,0-6.1-2.48,8.59,8.59,0,0,0-6.42,2.58,9.05,9.05,0,0,0-2.75,5.8Z"/>
    <path class="a257213a-9f7c-4196-ab88-c97202b4ce5c" d="M551.24,905.15a12.16,12.16,0,0,0-3.52-2,12,12,0,0,0-3.92-.62q-5,0-7.71,3.17c-1.78,2.11-2.66,5.15-2.66,9.14V931.2H528V898.38h5.42v6.42a10.9,10.9,0,0,1,4.14-5.35,11.73,11.73,0,0,1,6.64-1.86,13.43,13.43,0,0,1,3.72.5,12,12,0,0,1,3.31,1.55Z"/>
    <path class="a257213a-9f7c-4196-ab88-c97202b4ce5c" d="M586.94,912.09v2.64H563.59v.18q-.24,6.71,2.56,9.63c1.86,2,4.5,2.93,7.9,2.93a19.2,19.2,0,0,0,5.39-.82,32.25,32.25,0,0,0,6-2.49v5.37a36.44,36.44,0,0,1-5.93,1.89A26.31,26.31,0,0,1,574,932q-7.65,0-12-4.58t-4.3-12.64q0-7.86,4.22-12.54a14.37,14.37,0,0,1,11.25-4.69,12.29,12.29,0,0,1,9.88,4.25A16.29,16.29,0,0,1,586.94,912.09Zm-5.39-1.58a10.47,10.47,0,0,0-2.48-5.87,7.61,7.61,0,0,0-6.11-2.48,8.55,8.55,0,0,0-6.41,2.58,9.12,9.12,0,0,0-2.76,5.8Z"/>
    <path class="a257213a-9f7c-4196-ab88-c97202b4ce5c" d="M603.42,898.41h9.14V909h-9.14Zm0,22.12h9.14V931.2h-9.14Z"/>
    <path class="a257213a-9f7c-4196-ab88-c97202b4ce5c" d="M695.08,910.86V931.2h-5.42V910.86c0-3-.51-5.11-1.55-6.5a5.66,5.66,0,0,0-4.86-2.08,6.87,6.87,0,0,0-5.82,2.68c-1.36,1.79-2,4.35-2,7.69V931.2H670V898.38h5.39v4.92a10.14,10.14,0,0,1,3.89-4.26,11.36,11.36,0,0,1,5.83-1.45q5,0,7.49,3.3T695.08,910.86Z"/>
    <path class="a257213a-9f7c-4196-ab88-c97202b4ce5c" d="M719.06,897.59q6.83,0,10.45,4.43t3.62,12.8q0,8.4-3.61,12.82T719.06,932q-6.82,0-10.43-4.4T705,914.82q0-8.39,3.6-12.8T719.06,897.59Zm0,4.57a7,7,0,0,0-6.21,3.2c-1.4,2.12-2.11,5.28-2.11,9.46s.71,7.31,2.11,9.45a7.65,7.65,0,0,0,12.45,0q2.12-3.21,2.11-9.45c0-4.18-.7-7.34-2.11-9.46A7,7,0,0,0,719.06,902.16Z"/>
    <path class="a257213a-9f7c-4196-ab88-c97202b4ce5c" d="M743.51,887.46h26v5h-20v11.77h19.16v5H749.43v17H770v5H743.51Z"/>
    <path class="a257213a-9f7c-4196-ab88-c97202b4ce5c" d="M777.39,898.38H783l9.52,27.54,9.55-27.54h5.6L796,931.2h-7Z"/>
    <path class="a257213a-9f7c-4196-ab88-c97202b4ce5c" d="M844,912.09v2.64H820.65v.18q-.24,6.71,2.56,9.63c1.87,2,4.5,2.93,7.9,2.93a19.14,19.14,0,0,0,5.39-.82,32.25,32.25,0,0,0,6-2.49v5.37a36.44,36.44,0,0,1-5.93,1.89,26.16,26.16,0,0,1-5.52.62q-7.65,0-12-4.58t-4.3-12.64q0-7.86,4.22-12.54a14.37,14.37,0,0,1,11.25-4.69,12.29,12.29,0,0,1,9.88,4.25A16.29,16.29,0,0,1,844,912.09Zm-5.39-1.58a10.47,10.47,0,0,0-2.48-5.87,7.6,7.6,0,0,0-6.11-2.48,8.58,8.58,0,0,0-6.41,2.58,9.12,9.12,0,0,0-2.76,5.8Z"/>
    <path class="a257213a-9f7c-4196-ab88-c97202b4ce5c" d="M878.7,910.86V931.2h-5.42V910.86c0-3-.52-5.11-1.55-6.5a5.68,5.68,0,0,0-4.87-2.08,6.84,6.84,0,0,0-5.81,2.68q-2,2.68-2,7.69V931.2h-5.39V898.38H859v4.92a10.22,10.22,0,0,1,3.9-4.26,11.33,11.33,0,0,1,5.83-1.45q5,0,7.48,3.3T878.7,910.86Z"/>
    <path class="a257213a-9f7c-4196-ab88-c97202b4ce5c" d="M902.62,889.07v9.31h12.25v4.19H902.62v17.81q0,3.64,1.38,5.07c.91,1,2.52,1.44,4.8,1.44h6.07v4.31h-6.6c-4,0-6.89-.82-8.55-2.44s-2.49-4.41-2.49-8.38V902.57h-8.76v-4.19h8.76v-9.31Z"/>
    <path class="a257213a-9f7c-4196-ab88-c97202b4ce5c" d="M949.86,899.53v5.27a20.5,20.5,0,0,0-4.66-2,17.13,17.13,0,0,0-4.77-.68,10.07,10.07,0,0,0-5.47,1.19,4,4,0,0,0-1.8,3.62,4,4,0,0,0,1.35,3.28c.9.72,3.13,1.43,6.71,2.11l2.17.41a10.51,10.51,0,0,1,6.07,3,8.5,8.5,0,0,1,2.07,5.94,9.16,9.16,0,0,1-3.46,7.61q-3.45,2.73-9.61,2.73a27,27,0,0,1-5.09-.51,45.21,45.21,0,0,1-5.78-1.54v-5.56a31.93,31.93,0,0,0,5.78,2.33,19.46,19.46,0,0,0,5.21.77,9.17,9.17,0,0,0,5.54-1.45,4.74,4.74,0,0,0,2-4.05q0-3.75-7.18-5.19l-.23-.06-2-.41c-3.11-.6-5.37-1.62-6.8-3.06a8,8,0,0,1-2.14-5.87,8.78,8.78,0,0,1,3.2-7.28q3.18-2.56,9.11-2.57a25.49,25.49,0,0,1,5.07.49A24.93,24.93,0,0,1,949.86,899.53Z"/>
    <path class="a257213a-9f7c-4196-ab88-c97202b4ce5c" d="M971,920.62h9.14v7.76L973.66,941l-5.86,0L971,928.38Z"/>
  </g>
  <g>
    <g>
      <g class="bc591d3f-c19e-411c-8ad5-1f47ee2c92be">
        <circle class="e71adb48-84a9-4de8-85ad-9c76be888bd4" cx="1250" cy="329.44" r="204.13"/>
      </g>
      <circle class="e71adb48-84a9-4de8-85ad-9c76be888bd4" cx="1250" cy="329.44" r="219.96"/>
    </g>
    <g>
      <path class="a759a7dd-f169-4577-952a-04d6a8ddf136" d="M1354.15,317.88l-80-.53,39.54-66.85a3.36,3.36,0,0,1,2.93-1.66l72.09.47a3.39,3.39,0,0,1,2.9,5.11Z"/>
      <g>
        <path class="e71adb48-84a9-4de8-85ad-9c76be888bd4" d="M1106.57,318.34l-.47-.83A3,3,0,0,0,1106.57,318.34Z"/>
        <path class="e71adb48-84a9-4de8-85ad-9c76be888bd4" d="M1106.14,315l.41-.7A3.22,3.22,0,0,0,1106.14,315Z"/>
        <rect class="e71adb48-84a9-4de8-85ad-9c76be888bd4" x="1109.22" y="312.92" height="6.71" transform="translate(785.68 1423.4) rotate(-89.62)"/>
        <path class="a759a7dd-f169-4577-952a-04d6a8ddf136" d="M1273,220h-.34l-108.14-.71a3.42,3.42,0,0,0-2.94,1.67l-55,93.34-.41.7a3.22,3.22,0,0,0-.27,1.28l6.71.05,105.27.69,53.26-90.79,3.4-5.78A3.42,3.42,0,0,0,1273,220Z"/>
      </g>
      <g>
        <path class="e71adb48-84a9-4de8-85ad-9c76be888bd4" d="M1271.58,414.52a3.71,3.71,0,0,0,.47,0h-.94A3.57,3.57,0,0,0,1271.58,414.52Z"/>
        <path class="e71adb48-84a9-4de8-85ad-9c76be888bd4" d="M1274.7,412.43l-.48.83A3.27,3.27,0,0,0,1274.7,412.43Z"/>
        <path class="a30c606f-7249-45d4-941f-d34bee75857c" d="M1302.76,268.83l-26.88-46.9-.31-.54a3.39,3.39,0,0,0-1.06-1l-3.4,5.78L1217.85,317l52.08,91.27,3.32,5.82a3.47,3.47,0,0,0,1-.82l.48-.83,55.77-94.71Z"/>
        <path class="ef93c949-d4bc-4b19-ab81-86de10b28adb" d="M1269.93,408.26,1217.85,317l-105.27-.69-6.71-.05v0a3.22,3.22,0,0,0,.23,1.24l.47.83,54,95.41h.38l55.78.36,54.35.36h.94a3.29,3.29,0,0,0,1.2-.41Z"/>
      </g>
      <polygon class="a30c606f-7249-45d4-941f-d34bee75857c" points="1161.98 316.62 1190.48 268.05 1217.85 316.99 1189.48 365.04 1161.98 316.62"/>
      <polygon class="a759a7dd-f169-4577-952a-04d6a8ddf136" points="1217.85 316.99 1274.12 317.35 1245.41 366.03 1189.1 365.45 1217.85 316.99"/>
      <polygon class="ef93c949-d4bc-4b19-ab81-86de10b28adb" points="1217.85 316.99 1274.12 317.35 1246.05 268.75 1190.37 268.18 1217.85 316.99"/>
      <path class="ef93c949-d4bc-4b19-ab81-86de10b28adb" d="M1354.15,317.88l-80-.53,38.65,68.13a3.39,3.39,0,0,0,2.93,1.71l72.11.48a3.39,3.39,0,0,0,3-5.05Z"/>
      <g>
        <path class="e71adb48-84a9-4de8-85ad-9c76be888bd4" d="M1275.57,221.39l.31.54A3.6,3.6,0,0,0,1275.57,221.39Z"/>
        <path class="e71adb48-84a9-4de8-85ad-9c76be888bd4" d="M1272.85,220h0Z"/>
      </g>
    </g>
  </g>
</svg>
