<svg xmlns="http://www.w3.org/2000/svg" width="1150.07" height="438.69" viewBox="0 0 1150.07 438.69">
  <defs>
    <style>
      .be0588c9-8364-48a1-bafb-dc2f574eaf84 {
        fill: #ffc224;
      }

      .be2e9f65-af46-493a-9214-f7c11ff9892c {
        fill: #fff;
      }

      .bd9d52c6-6d42-421e-8306-2583a5cc0e22 {
        fill: #3d464c;
      }

      .bc6e2618-0b1b-4c14-ad57-71019bac3bf6 {
        fill: #d1dde8;
      }

      .fe24faa3-9097-4e42-8abc-3c7b39ee389f {
        fill: #4f5a60;
      }

      .f737c724-25c1-4ee9-a5f9-295d3a9fbf4e {
        fill: #545f63;
      }

      .ab1b66a1-7489-40a9-9579-ba12c3c2545d {
        fill: #475156;
      }

      .f3a592f1-964d-4126-bbe1-cb5975e43c37 {
        fill: #606a6d;
      }
    </style>
  </defs>
  <g id="bc6ffca4-586c-4f59-8290-ef99142215ce" data-name="Layer 1">
    <rect class="be0588c9-8364-48a1-bafb-dc2f574eaf84" x="-0.47" y="-7.07" width="1151.02" height="445.06"/>
    <path class="be2e9f65-af46-493a-9214-f7c11ff9892c" d="M121.08,112.27a25.08,25.08,0,0,1,25.08-25.08h857.37a23,23,0,0,1,23,23v330H121.08Z"/>
    <path class="bd9d52c6-6d42-421e-8306-2583a5cc0e22" d="M121.08,110.21c0-12.71,11.1-23,24.78-23H486v353H121.08Z"/>
    <rect class="bc6e2618-0b1b-4c14-ad57-71019bac3bf6" x="536.45" y="129.05" width="169.2" height="19.75"/>
    <rect class="be0588c9-8364-48a1-bafb-dc2f574eaf84" x="166.48" y="283.62" width="236.78" height="19.75"/>
    <rect class="fe24faa3-9097-4e42-8abc-3c7b39ee389f" x="166.48" y="335.05" width="236.78" height="19.75"/>
    <rect class="fe24faa3-9097-4e42-8abc-3c7b39ee389f" x="166.48" y="386.49" width="236.78" height="19.75"/>
    <g>
      <rect class="bc6e2618-0b1b-4c14-ad57-71019bac3bf6" x="582.32" y="188.17" width="179.07" height="19.75"/>
      <rect class="bc6e2618-0b1b-4c14-ad57-71019bac3bf6" x="788.16" y="188.17" width="168.36" height="19.75"/>
    </g>
    <g>
      <rect class="bc6e2618-0b1b-4c14-ad57-71019bac3bf6" x="582.32" y="308.12" width="107.27" height="19.75"/>
      <rect class="bc6e2618-0b1b-4c14-ad57-71019bac3bf6" x="717.21" y="308.12" width="168.36" height="19.75"/>
    </g>
    <rect class="bc6e2618-0b1b-4c14-ad57-71019bac3bf6" x="582.32" y="247.3" width="314.88" height="19.75"/>
    <rect class="bc6e2618-0b1b-4c14-ad57-71019bac3bf6" x="536.45" y="366.04" width="120.21" height="19.75"/>
    <g>
      <path class="f737c724-25c1-4ee9-a5f9-295d3a9fbf4e" d="M300.46,189l-42.95-.28,21.22-35.88a1.8,1.8,0,0,1,1.57-.89l38.7.25a1.82,1.82,0,0,1,1.55,2.74Z"/>
      <g>
        <path class="be2e9f65-af46-493a-9214-f7c11ff9892c" d="M167.57,189.2l-.25-.44A1.73,1.73,0,0,0,167.57,189.2Z"/>
        <path class="be2e9f65-af46-493a-9214-f7c11ff9892c" d="M167.34,187.39l.22-.37A1.72,1.72,0,0,0,167.34,187.39Z"/>
        <rect class="be2e9f65-af46-493a-9214-f7c11ff9892c" x="169" y="186.29" height="3.6" transform="translate(-20.2 355.85) rotate(-89.62)"/>
        <path class="f737c724-25c1-4ee9-a5f9-295d3a9fbf4e" d="M256.91,136.4h-.18l-58-.38a1.83,1.83,0,0,0-1.58.9L167.56,187l-.22.37a2,2,0,0,0-.15.69l3.61,0,56.5.37,28.59-48.72,1.82-3.11A1.78,1.78,0,0,0,256.91,136.4Z"/>
      </g>
      <g>
        <path class="be2e9f65-af46-493a-9214-f7c11ff9892c" d="M256.14,240.83l.25,0h-.5A1,1,0,0,0,256.14,240.83Z"/>
        <path class="be2e9f65-af46-493a-9214-f7c11ff9892c" d="M257.82,239.71l-.26.44A2.13,2.13,0,0,0,257.82,239.71Z"/>
        <path class="ab1b66a1-7489-40a9-9579-ba12c3c2545d" d="M272.88,162.63l-14.43-25.18-.17-.29a1.78,1.78,0,0,0-.57-.52l-1.82,3.11L227.3,188.47l27.95,49,1.79,3.13a1.82,1.82,0,0,0,.52-.44l.26-.44,29.93-50.84Z"/>
        <path class="f3a592f1-964d-4126-bbe1-cb5975e43c37" d="M255.25,237.46l-27.95-49-56.5-.37-3.61,0h0a1.86,1.86,0,0,0,.13.67l.25.44,29,51.22h.21l29.94.19,29.17.19h.5a1.85,1.85,0,0,0,.65-.22Z"/>
      </g>
      <polygon class="ab1b66a1-7489-40a9-9579-ba12c3c2545d" points="197.31 188.28 212.61 162.21 227.3 188.47 212.07 214.27 197.31 188.28"/>
      <polygon class="f737c724-25c1-4ee9-a5f9-295d3a9fbf4e" points="227.3 188.47 257.51 188.67 242.1 214.8 211.87 214.49 227.3 188.47"/>
      <polygon class="f3a592f1-964d-4126-bbe1-cb5975e43c37" points="227.3 188.47 257.51 188.67 242.44 162.59 212.55 162.28 227.3 188.47"/>
      <path class="f3a592f1-964d-4126-bbe1-cb5975e43c37" d="M300.46,189l-42.95-.28,20.74,36.57a1.84,1.84,0,0,0,1.57.92l38.71.25a1.81,1.81,0,0,0,1.59-2.71Z"/>
      <g>
        <path class="be2e9f65-af46-493a-9214-f7c11ff9892c" d="M258.28,137.16l.17.29A1.69,1.69,0,0,0,258.28,137.16Z"/>
        <path class="be2e9f65-af46-493a-9214-f7c11ff9892c" d="M256.82,136.4h0Z"/>
      </g>
    </g>
  </g>
</svg>
