<svg xmlns="http://www.w3.org/2000/svg" xmlns:xlink="http://www.w3.org/1999/xlink" width="1000" height="400" viewBox="0 0 1000 400">
  <defs>
    <style>
      .b2eea365-cec1-40ec-956b-1e7c2630939f, .babda1b3-b206-4ce0-96e3-f80f7a46ae54 {
        fill: none;
      }

      .a40b07c0-10e7-41e0-aced-b4596a0646e7 {
        fill: #dceaf4;
      }

      .f31ba8a1-e1e1-4d66-a321-c17c5cdba324 {
        isolation: isolate;
      }

      .a6cd2b5c-8ee4-4501-9263-022c13cec330, .afe308a7-a978-467a-b529-bc7ba6255b94 {
        fill: #0086e8;
      }

      .a6cd2b5c-8ee4-4501-9263-022c13cec330, .ab2e4ddf-fdc0-4c2a-acc3-39c3bb9fc042 {
        stroke: #115bc9;
      }

      .a6cd2b5c-8ee4-4501-9263-022c13cec330, .ab2e4ddf-fdc0-4c2a-acc3-39c3bb9fc042, .b2eea365-cec1-40ec-956b-1e7c2630939f, .fa7f6a66-ad82-4d77-b186-c35b4d3fd5a2 {
        stroke-miterlimit: 10;
        stroke-width: 2px;
      }

      .a325f7bf-ec99-45f7-ae4e-ea8ca49dd0d9, .aaf683b7-2c0e-44df-a940-bada02592b07, .bdaef27a-6bdf-46d0-a7e6-51c6ff51a79a, .e0ef00c0-84c5-437d-850a-39ba23ff3ea8 {
        mix-blend-mode: soft-light;
      }

      .aaf683b7-2c0e-44df-a940-bada02592b07 {
        fill: url(#b0f1c3c6-2e92-441e-9bd6-16301cdb7ede);
      }

      .e0ef00c0-84c5-437d-850a-39ba23ff3ea8 {
        fill: url(#a7f71160-d4c7-429c-8c4a-a9b09796c6d1);
      }

      .bdaef27a-6bdf-46d0-a7e6-51c6ff51a79a {
        fill: url(#b3b1d8b8-61f6-4357-86ef-8dae5ee92f46);
      }

      .a325f7bf-ec99-45f7-ae4e-ea8ca49dd0d9 {
        fill: url(#e24f1435-674f-4220-ba73-1ec0128d00be);
      }

      .f54da13a-c7fc-4fe6-a8dc-77eb6672b7ef {
        opacity: 0.4;
        filter: url(#ba9f290e-cfef-445d-9112-28be44487348);
      }

      .ab2e4ddf-fdc0-4c2a-acc3-39c3bb9fc042, .e5ac3f88-9a21-4abf-91e0-8daab1ac808f, .ea0a0feb-25a7-4b34-a1ff-816df2738bb6, .fa7f6a66-ad82-4d77-b186-c35b4d3fd5a2 {
        fill: #fff;
      }

      .b2eea365-cec1-40ec-956b-1e7c2630939f {
        stroke: #bdc9d1;
      }

      .fa7f6a66-ad82-4d77-b186-c35b4d3fd5a2 {
        stroke: #97a3aa;
      }

      .bbee98d1-f5e1-44f6-9d3d-47b133b631ce {
        fill: #588399;
      }

      .e685e824-129c-4d10-9784-70f9bdd427cc {
        fill: #053151;
      }

      .b2e5231f-7e69-42de-bf31-9f8a99ce0b67 {
        fill: #7ac8fc;
      }

      .be8d33db-4cf4-4706-be3d-b57c515f8ba9 {
        fill: #5ec5fc;
      }

      .e5ac3f88-9a21-4abf-91e0-8daab1ac808f {
        opacity: 0.5;
      }
    </style>
    <pattern id="b0f1c3c6-2e92-441e-9bd6-16301cdb7ede" data-name="Docs Polka Background" width="60" height="60" patternTransform="translate(1558.9 1362.97) scale(0.8 0.73)" patternUnits="userSpaceOnUse" viewBox="0 0 60 60">
      <rect class="babda1b3-b206-4ce0-96e3-f80f7a46ae54" width="60" height="60"/>
      <circle class="a40b07c0-10e7-41e0-aced-b4596a0646e7" cx="30" cy="30" r="2.47"/>
    </pattern>
    <pattern id="a7f71160-d4c7-429c-8c4a-a9b09796c6d1" data-name="Docs Polka Background" width="60" height="60" patternTransform="translate(1581.8 1362.97) scale(0.8 0.73)" patternUnits="userSpaceOnUse" viewBox="0 0 60 60">
      <rect class="babda1b3-b206-4ce0-96e3-f80f7a46ae54" width="60" height="60"/>
      <circle class="a40b07c0-10e7-41e0-aced-b4596a0646e7" cx="30" cy="30" r="2.47"/>
    </pattern>
    <pattern id="b3b1d8b8-61f6-4357-86ef-8dae5ee92f46" data-name="Docs Polka Background" width="60" height="60" patternTransform="translate(1558.9 1384.78) scale(0.8 0.73)" patternUnits="userSpaceOnUse" viewBox="0 0 60 60">
      <rect class="babda1b3-b206-4ce0-96e3-f80f7a46ae54" width="60" height="60"/>
      <circle class="a40b07c0-10e7-41e0-aced-b4596a0646e7" cx="30" cy="30" r="2.47"/>
    </pattern>
    <pattern id="e24f1435-674f-4220-ba73-1ec0128d00be" data-name="Docs Polka Background" width="60" height="60" patternTransform="translate(1581.8 1384.78) scale(0.8 0.73)" patternUnits="userSpaceOnUse" viewBox="0 0 60 60">
      <rect class="babda1b3-b206-4ce0-96e3-f80f7a46ae54" width="60" height="60"/>
      <circle class="a40b07c0-10e7-41e0-aced-b4596a0646e7" cx="30" cy="30" r="2.47"/>
    </pattern>
    <filter id="ba9f290e-cfef-445d-9112-28be44487348" x="-15%" y="-15%" width="140%" height="130%" name="AI_Shadow_2">
      <feGaussianBlur result="blur" stdDeviation="20" in="SourceAlpha"/>
      <feOffset result="offsetBlurredAlpha" in="blur"/>
      <feMerge>
        <feMergeNode in="offsetBlurredAlpha"/>
        <feMergeNode in="SourceGraphic"/>
      </feMerge>
    </filter>
  </defs>
  <g class="f31ba8a1-e1e1-4d66-a321-c17c5cdba324">
    <g id="b89331c9-cf98-4926-8211-3de124b6a026" data-name="Layer 1">
      <rect class="a6cd2b5c-8ee4-4501-9263-022c13cec330" x="-68.84" y="-63.09" width="1131.05" height="556.25"/>
      <rect class="aaf683b7-2c0e-44df-a940-bada02592b07" x="9.04" y="-3.07" width="993.6" height="430.22"/>
      <rect class="e0ef00c0-84c5-437d-850a-39ba23ff3ea8" x="31.94" y="-3.07" width="993.6" height="430.22"/>
      <rect class="bdaef27a-6bdf-46d0-a7e6-51c6ff51a79a" x="9.04" y="18.74" width="993.6" height="430.22"/>
      <rect class="a325f7bf-ec99-45f7-ae4e-ea8ca49dd0d9" x="31.94" y="18.74" width="993.6" height="430.22"/>
      <g class="f54da13a-c7fc-4fe6-a8dc-77eb6672b7ef">
        <path class="ea0a0feb-25a7-4b34-a1ff-816df2738bb6" d="M908.92,128.94H107.63a29.16,29.16,0,0,0-29.16,29.17V446H938.08V158.11A29.17,29.17,0,0,0,908.92,128.94Z"/>
        <path class="b2eea365-cec1-40ec-956b-1e7c2630939f" d="M908.92,128.94H107.63a29.16,29.16,0,0,0-29.16,29.17V446H938.08V158.11A29.17,29.17,0,0,0,908.92,128.94Z"/>
      </g>
      <path class="fa7f6a66-ad82-4d77-b186-c35b4d3fd5a2" d="M102.43,124.3H914.12a29.17,29.17,0,0,1,29.17,29.17V450.61a0,0,0,0,1,0,0h-870a0,0,0,0,1,0,0V153.46A29.17,29.17,0,0,1,102.43,124.3Z"/>
      <g>
        <path class="bbee98d1-f5e1-44f6-9d3d-47b133b631ce" d="M139,242.15h6.21v2.09H141.7V266.8h3.51v2.1H139Z"/>
        <path class="bbee98d1-f5e1-44f6-9d3d-47b133b631ce" d="M153.07,263.93h4.6V247.41l-5.5,2.65v-2.84l5.47-2.61h3v19.32h4.54v2.48H153.07Z"/>
        <path class="bbee98d1-f5e1-44f6-9d3d-47b133b631ce" d="M173.93,254.79a5.37,5.37,0,0,1-3-1.8,5,5,0,0,1-1.06-3.18,5.19,5.19,0,0,1,1.77-4.14,8.39,8.39,0,0,1,9.66,0,5.19,5.19,0,0,1,1.77,4.14,4.9,4.9,0,0,1-1.06,3.18,5.34,5.34,0,0,1-3,1.8,5.67,5.67,0,0,1,3.36,2,5.93,5.93,0,0,1,1.16,3.79,5.86,5.86,0,0,1-1.89,4.63,9,9,0,0,1-10.45,0,5.85,5.85,0,0,1-1.88-4.61,6,6,0,0,1,1.16-3.81A5.63,5.63,0,0,1,173.93,254.79ZM176.5,256a4.06,4.06,0,0,0-3.05,1.11,4.27,4.27,0,0,0-1.08,3.12,4.37,4.37,0,0,0,1.09,3.15,4.74,4.74,0,0,0,6.11,0,5.09,5.09,0,0,0,0-6.28A4.1,4.1,0,0,0,176.5,256Zm-3.64-5.93a3.62,3.62,0,0,0,.93,2.68,4.48,4.48,0,0,0,5.44,0,3.63,3.63,0,0,0,.94-2.68,3.27,3.27,0,0,0-3.67-3.66,3.66,3.66,0,0,0-2.71.94A3.72,3.72,0,0,0,172.86,250.09Z"/>
        <path class="bbee98d1-f5e1-44f6-9d3d-47b133b631ce" d="M192.13,250h4.57v5.29h-4.57Zm0,11.06h4.57v5.34h-4.57Z"/>
        <path class="bbee98d1-f5e1-44f6-9d3d-47b133b631ce" d="M214.49,244.54h3.42v14.25h2.92v2.4h-2.92v5.22H215v-5.22H205.7v-2.8Zm.48,2.69-6.9,11.56H215Z"/>
        <path class="bbee98d1-f5e1-44f6-9d3d-47b133b631ce" d="M225.6,244.54h11.07V247h-8.38v5.37a7.23,7.23,0,0,1,1.27-.34,6.84,6.84,0,0,1,1.28-.11,7.28,7.28,0,0,1,5.39,2,7.37,7.37,0,0,1,2,5.44,7.19,7.19,0,0,1-2.08,5.45,7.94,7.94,0,0,1-5.71,2,20.88,20.88,0,0,1-3.19-.23,11.53,11.53,0,0,1-2.58-.71v-3a12.11,12.11,0,0,0,2.71,1.09,10.88,10.88,0,0,0,2.78.36,5.18,5.18,0,0,0,3.77-1.29,5.62,5.62,0,0,0,0-7.31,5.3,5.3,0,0,0-3.82-1.3,9.86,9.86,0,0,0-2.31.27,9.15,9.15,0,0,0-2.15.81Z"/>
        <path class="bbee98d1-f5e1-44f6-9d3d-47b133b631ce" d="M251.47,242.15V268.9h-6.21v-2.1h3.52V244.24h-3.52v-2.09Z"/>
        <path class="bbee98d1-f5e1-44f6-9d3d-47b133b631ce" d="M267.53,242.15h6.22v2.09h-3.52V266.8h3.52v2.1h-6.22Z"/>
        <path class="bbee98d1-f5e1-44f6-9d3d-47b133b631ce" d="M293.57,254.92l1.91,1.29a11.34,11.34,0,0,1-2.48,3.92,3.82,3.82,0,0,1-2.5,1.05,5.14,5.14,0,0,1-3.7-2.14c-1.1-1.34-1.88-2.29-2.32-2.85a2.11,2.11,0,0,0-1.75-.83,1.87,1.87,0,0,0-1.71,1.06,23.48,23.48,0,0,0-1.23,2.71l-2-1.12a9.39,9.39,0,0,1,2.2-4,4,4,0,0,1,2.71-1.29c1.65,0,3.12,1,4.43,2.93s2.41,3,3.32,3a2.16,2.16,0,0,0,1.89-1.26A19.15,19.15,0,0,0,293.57,254.92Z"/>
        <path class="bbee98d1-f5e1-44f6-9d3d-47b133b631ce" d="M302.29,250h4.57v5.29h-4.57Zm0,11.06h4.57v5.34h-4.57Z"/>
        <path class="bbee98d1-f5e1-44f6-9d3d-47b133b631ce" d="M324.92,242.15V268.9h-6.21v-2.1h3.51V244.24h-3.51v-2.09Z"/>
        <path class="bbee98d1-f5e1-44f6-9d3d-47b133b631ce" d="M342.87,270.82h-1.46l0-4.41a17.82,17.82,0,0,1-3-.41,18.15,18.15,0,0,1-2.9-.94v-2.64a13.13,13.13,0,0,0,3,1.39,9.9,9.9,0,0,0,2.94.52v-6.71a8.41,8.41,0,0,1-4.41-1.79,4.52,4.52,0,0,1-1.48-3.53,4.66,4.66,0,0,1,1.54-3.67,7.14,7.14,0,0,1,4.35-1.57v-3.45h1.46l0,3.45a17.39,17.39,0,0,1,2.34.29,20.83,20.83,0,0,1,2.42.6v2.53a14.14,14.14,0,0,0-2.43-1,10.15,10.15,0,0,0-2.35-.4v6.31a8.71,8.71,0,0,1,4.6,1.87,4.74,4.74,0,0,1,1.58,3.68,4.85,4.85,0,0,1-1.7,3.77,7.08,7.08,0,0,1-4.46,1.64Zm-1.46-15.69v-6A3.53,3.53,0,0,0,339,250a2.88,2.88,0,0,0-.85,2.19,2.56,2.56,0,0,0,.8,2A4.64,4.64,0,0,0,341.41,255.13Zm1.46,2.78v6.36a3.71,3.71,0,0,0,2.52-.9,3,3,0,0,0,.91-2.31,2.77,2.77,0,0,0-.82-2.12A5,5,0,0,0,342.87,257.91Z"/>
        <path class="bbee98d1-f5e1-44f6-9d3d-47b133b631ce" d="M385,257.05v9.36h-2.71V264a5.51,5.51,0,0,1-2.18,2.16,6.61,6.61,0,0,1-3.18.7,5.6,5.6,0,0,1-4-1.41,5.58,5.58,0,0,1,.34-7.95,8.72,8.72,0,0,1,5.4-1.42h3.62v-.43a3.68,3.68,0,0,0-1-2.84,4.59,4.59,0,0,0-3.13-.89,10.3,10.3,0,0,0-2.78.39,12.12,12.12,0,0,0-2.74,1.16v-2.69a18.72,18.72,0,0,1,2.86-.86,13,13,0,0,1,2.66-.29,9,9,0,0,1,3.48.6,5.52,5.52,0,0,1,2.33,1.81,4.41,4.41,0,0,1,.79,1.81A16,16,0,0,1,385,257.05Zm-5.23,1.11h-.89a6.28,6.28,0,0,0-3.56.83,2.8,2.8,0,0,0-1.19,2.46,3,3,0,0,0,.89,2.3,3.52,3.52,0,0,0,2.48.82A4.29,4.29,0,0,0,381,263a6.57,6.57,0,0,0,1.29-4.27v-.6Z"/>
        <path class="bbee98d1-f5e1-44f6-9d3d-47b133b631ce" d="M404.19,250l-5.87,7.85,6.45,8.56h-3.12l-4.81-6.58-4.79,6.58h-3.12l6.45-8.56L389.5,250h3l4.35,5.93,4.32-5.93Z"/>
        <path class="bbee98d1-f5e1-44f6-9d3d-47b133b631ce" d="M439.94,256.24v10.17h-2.71V256.24a5.44,5.44,0,0,0-.78-3.25,2.82,2.82,0,0,0-2.43-1,3.42,3.42,0,0,0-2.91,1.34,6.23,6.23,0,0,0-1,3.84v9.28H427.4V250h2.69v2.46a5.05,5.05,0,0,1,2-2.13,5.67,5.67,0,0,1,2.92-.73,4.38,4.38,0,0,1,3.74,1.65A8.31,8.31,0,0,1,439.94,256.24Z"/>
        <path class="bbee98d1-f5e1-44f6-9d3d-47b133b631ce" d="M451.93,249.6a6.35,6.35,0,0,1,5.22,2.22c1.2,1.47,1.81,3.6,1.81,6.4s-.6,4.94-1.8,6.41a7.3,7.3,0,0,1-10.45,0q-1.8-2.2-1.8-6.41t1.8-6.4A6.33,6.33,0,0,1,451.93,249.6Zm0,2.29a3.48,3.48,0,0,0-3.11,1.6,11.16,11.16,0,0,0,0,9.45,3.82,3.82,0,0,0,6.23,0,11.16,11.16,0,0,0,0-9.45A3.5,3.5,0,0,0,451.93,251.89Z"/>
        <path class="bbee98d1-f5e1-44f6-9d3d-47b133b631ce" d="M473.83,252.09v-8.48h2.7v22.8h-2.7v-2.07a4.63,4.63,0,0,1-1.79,1.85,5.1,5.1,0,0,1-2.59.64,5.51,5.51,0,0,1-4.68-2.31,10.47,10.47,0,0,1-1.7-6.36,10.25,10.25,0,0,1,1.71-6.28,5.53,5.53,0,0,1,4.67-2.28,5.26,5.26,0,0,1,2.61.64A4.52,4.52,0,0,1,473.83,252.09Zm-7.92,6.13a9.11,9.11,0,0,0,1,4.73,3.52,3.52,0,0,0,5.91,0,11.43,11.43,0,0,0,0-9.44,3.53,3.53,0,0,0-5.91,0A9.08,9.08,0,0,0,465.91,258.22Z"/>
        <path class="bbee98d1-f5e1-44f6-9d3d-47b133b631ce" d="M496,256.86v1.31H484.36v.09c-.08,2.24.35,3.84,1.28,4.82a5.19,5.19,0,0,0,3.95,1.47,9.72,9.72,0,0,0,2.69-.41,16.58,16.58,0,0,0,3-1.25v2.68a18.06,18.06,0,0,1-3,.95,12.76,12.76,0,0,1-2.76.31,7.81,7.81,0,0,1-6-2.29,8.9,8.9,0,0,1-2.15-6.32,9,9,0,0,1,2.11-6.27,7.2,7.2,0,0,1,5.62-2.35,6.16,6.16,0,0,1,4.95,2.13A8.17,8.17,0,0,1,496,256.86Zm-2.69-.8a5.2,5.2,0,0,0-1.24-2.93,3.8,3.8,0,0,0-3.06-1.24,4.29,4.29,0,0,0-3.2,1.29,4.55,4.55,0,0,0-1.38,2.9Z"/>
        <path class="bbee98d1-f5e1-44f6-9d3d-47b133b631ce" d="M512.24,250.57v2.64a10,10,0,0,0-2.33-1,8.42,8.42,0,0,0-2.39-.34,5.08,5.08,0,0,0-2.73.59,2,2,0,0,0-.9,1.81,2,2,0,0,0,.67,1.64,9.17,9.17,0,0,0,3.36,1.06l1.08.2a5.27,5.27,0,0,1,3,1.53,4.25,4.25,0,0,1,1,3,4.58,4.58,0,0,1-1.73,3.8,7.6,7.6,0,0,1-4.81,1.37,13.62,13.62,0,0,1-2.55-.26,23,23,0,0,1-2.88-.76V263a15.57,15.57,0,0,0,2.88,1.17,9.58,9.58,0,0,0,2.61.38,4.63,4.63,0,0,0,2.77-.72,2.38,2.38,0,0,0,1-2q0-1.87-3.59-2.59l-.12,0-1-.21a6.38,6.38,0,0,1-3.39-1.53,3.93,3.93,0,0,1-1.07-2.93,4.39,4.39,0,0,1,1.59-3.64,7.11,7.11,0,0,1,4.56-1.29,13,13,0,0,1,2.53.25A12.86,12.86,0,0,1,512.24,250.57Z"/>
        <path class="bbee98d1-f5e1-44f6-9d3d-47b133b631ce" d="M545.24,260.47a4.61,4.61,0,0,0,.67,2.74,2.26,2.26,0,0,0,2,.93H551v2.27h-3.41a4.68,4.68,0,0,1-3.75-1.55,6.56,6.56,0,0,1-1.32-4.39V245.63h-4.32v-2.1h7Z"/>
        <path class="bbee98d1-f5e1-44f6-9d3d-47b133b631ce" d="M567.32,250.57v2.64a10,10,0,0,0-2.32-1,8.47,8.47,0,0,0-2.39-.34,5.08,5.08,0,0,0-2.73.59,2,2,0,0,0-.9,1.81,2,2,0,0,0,.67,1.64A9.17,9.17,0,0,0,563,257l1.09.2a5.27,5.27,0,0,1,3,1.53,4.24,4.24,0,0,1,1,3,4.58,4.58,0,0,1-1.73,3.8,7.55,7.55,0,0,1-4.8,1.37,13.62,13.62,0,0,1-2.55-.26,23.55,23.55,0,0,1-2.89-.76V263a15.65,15.65,0,0,0,2.89,1.17,9.52,9.52,0,0,0,2.61.38,4.58,4.58,0,0,0,2.76-.72,2.37,2.37,0,0,0,1-2q0-1.87-3.59-2.59l-.12,0-1-.21a6.42,6.42,0,0,1-3.4-1.53,4,4,0,0,1-1.07-2.93,4.37,4.37,0,0,1,1.6-3.64,7.07,7.07,0,0,1,4.55-1.29,13.1,13.1,0,0,1,2.54.25A12.76,12.76,0,0,1,567.32,250.57Z"/>
        <path class="bbee98d1-f5e1-44f6-9d3d-47b133b631ce" d="M591.29,255.8h15.53v2.48H591.29Z"/>
        <path class="bbee98d1-f5e1-44f6-9d3d-47b133b631ce" d="M609.65,255.8h15.53v2.48H609.65Z"/>
        <path class="bbee98d1-f5e1-44f6-9d3d-47b133b631ce" d="M637.05,260.47a4.61,4.61,0,0,0,.67,2.74,2.26,2.26,0,0,0,2,.93h3.15v2.27h-3.42a4.66,4.66,0,0,1-3.74-1.55,6.56,6.56,0,0,1-1.33-4.39V245.63H630v-2.1h7Z"/>
        <path class="bbee98d1-f5e1-44f6-9d3d-47b133b631ce" d="M653.9,249.6a6.33,6.33,0,0,1,5.22,2.22q1.82,2.2,1.81,6.4t-1.8,6.41a7.29,7.29,0,0,1-10.44,0q-1.8-2.2-1.8-6.41t1.8-6.4A6.32,6.32,0,0,1,653.9,249.6Zm0,2.29a3.47,3.47,0,0,0-3.1,1.6,11.06,11.06,0,0,0,0,9.45,3.81,3.81,0,0,0,6.22,0,11.06,11.06,0,0,0,0-9.45A3.48,3.48,0,0,0,653.9,251.89Z"/>
        <path class="bbee98d1-f5e1-44f6-9d3d-47b133b631ce" d="M678.78,265.57a9.24,9.24,0,0,1-2.23.95,8.87,8.87,0,0,1-2.35.31,7.79,7.79,0,0,1-6-2.28,10.43,10.43,0,0,1,0-12.66,7.8,7.8,0,0,1,6-2.29,8.93,8.93,0,0,1,2.31.31,10.17,10.17,0,0,1,2.27,1v2.83a7.6,7.6,0,0,0-2.14-1.38,6.68,6.68,0,0,0-2.44-.42,4.8,4.8,0,0,0-3.9,1.64,8.72,8.72,0,0,0,0,9.37,4.77,4.77,0,0,0,3.89,1.65,6.86,6.86,0,0,0,2.52-.44,6,6,0,0,0,2.06-1.34Z"/>
        <path class="bbee98d1-f5e1-44f6-9d3d-47b133b631ce" d="M697.12,257.05v9.36h-2.71V264a5.57,5.57,0,0,1-2.18,2.16,6.65,6.65,0,0,1-3.19.7,5.6,5.6,0,0,1-4-1.41,5,5,0,0,1-1.49-3.79,4.92,4.92,0,0,1,1.84-4.16,8.68,8.68,0,0,1,5.4-1.42h3.62v-.43a3.71,3.71,0,0,0-1-2.84,4.62,4.62,0,0,0-3.14-.89,10.41,10.41,0,0,0-2.78.39,12.31,12.31,0,0,0-2.74,1.16v-2.69a18.82,18.82,0,0,1,2.87-.86,13,13,0,0,1,2.65-.29,9,9,0,0,1,3.48.6,5.55,5.55,0,0,1,2.34,1.81,4.55,4.55,0,0,1,.79,1.81A16,16,0,0,1,697.12,257.05Zm-5.23,1.11H691a6.27,6.27,0,0,0-3.55.83,2.78,2.78,0,0,0-1.19,2.46,2.93,2.93,0,0,0,.89,2.3,3.5,3.5,0,0,0,2.48.82,4.29,4.29,0,0,0,3.5-1.54,6.57,6.57,0,0,0,1.29-4.27v-.6Z"/>
        <path class="bbee98d1-f5e1-44f6-9d3d-47b133b631ce" d="M710.5,260.47a4.69,4.69,0,0,0,.66,2.74,2.27,2.27,0,0,0,2,.93h3.15v2.27h-3.41a4.66,4.66,0,0,1-3.74-1.55,6.51,6.51,0,0,1-1.33-4.39V245.63h-4.32v-2.1h7Z"/>
        <path class="bbee98d1-f5e1-44f6-9d3d-47b133b631ce" d="M747.22,260.47a4.61,4.61,0,0,0,.67,2.74,2.26,2.26,0,0,0,2,.93H753v2.27h-3.42a4.66,4.66,0,0,1-3.74-1.55,6.56,6.56,0,0,1-1.33-4.39V245.63H740.2v-2.1h7Z"/>
        <path class="bbee98d1-f5e1-44f6-9d3d-47b133b631ce" d="M764.07,249.6a6.33,6.33,0,0,1,5.22,2.22q1.82,2.2,1.81,6.4t-1.8,6.41a7.29,7.29,0,0,1-10.44,0q-1.8-2.2-1.8-6.41t1.8-6.4A6.32,6.32,0,0,1,764.07,249.6Zm0,2.29a3.46,3.46,0,0,0-3.1,1.6,11.06,11.06,0,0,0,0,9.45,3.81,3.81,0,0,0,6.22,0,11.06,11.06,0,0,0,0-9.45A3.48,3.48,0,0,0,764.07,251.89Z"/>
        <path class="bbee98d1-f5e1-44f6-9d3d-47b133b631ce" d="M789,265.57a9.41,9.41,0,0,1-2.23.95,8.87,8.87,0,0,1-2.35.31,7.79,7.79,0,0,1-6-2.28,10.43,10.43,0,0,1,0-12.66,7.8,7.8,0,0,1,6-2.29,8.93,8.93,0,0,1,2.31.31,10.17,10.17,0,0,1,2.27,1v2.83a7.6,7.6,0,0,0-2.14-1.38,6.68,6.68,0,0,0-2.44-.42,4.8,4.8,0,0,0-3.9,1.64,8.72,8.72,0,0,0,0,9.37,4.77,4.77,0,0,0,3.89,1.65,6.94,6.94,0,0,0,2.52-.44,6,6,0,0,0,2.06-1.34Z"/>
        <path class="bbee98d1-f5e1-44f6-9d3d-47b133b631ce" d="M807.28,257.05v9.36h-2.71V264a5.49,5.49,0,0,1-2.17,2.16,6.68,6.68,0,0,1-3.19.7,5.6,5.6,0,0,1-4-1.41,5,5,0,0,1-1.49-3.79,4.92,4.92,0,0,1,1.84-4.16,8.68,8.68,0,0,1,5.4-1.42h3.61v-.43a3.71,3.71,0,0,0-1-2.84,4.62,4.62,0,0,0-3.14-.89,10.41,10.41,0,0,0-2.78.39,12.31,12.31,0,0,0-2.74,1.16v-2.69a19.06,19.06,0,0,1,2.86-.86,13.11,13.11,0,0,1,2.66-.29,9,9,0,0,1,3.48.6,5.62,5.62,0,0,1,2.34,1.81,4.55,4.55,0,0,1,.79,1.81A16.12,16.12,0,0,1,807.28,257.05Zm-5.22,1.11h-.9a6.25,6.25,0,0,0-3.55.83,2.78,2.78,0,0,0-1.19,2.46,2.93,2.93,0,0,0,.89,2.3,3.49,3.49,0,0,0,2.47.82,4.3,4.3,0,0,0,3.51-1.54,6.57,6.57,0,0,0,1.28-4.27v-.6Z"/>
        <path class="bbee98d1-f5e1-44f6-9d3d-47b133b631ce" d="M820.67,260.47a4.69,4.69,0,0,0,.66,2.74,2.27,2.27,0,0,0,2,.93h3.15v2.27H823a4.66,4.66,0,0,1-3.74-1.55,6.51,6.51,0,0,1-1.33-4.39V245.63h-4.32v-2.1h7Z"/>
        <path class="bbee98d1-f5e1-44f6-9d3d-47b133b631ce" d="M843.89,256.24v10.17h-2.71V256.24a5.44,5.44,0,0,0-.78-3.25,2.8,2.8,0,0,0-2.43-1,3.42,3.42,0,0,0-2.91,1.34,6.3,6.3,0,0,0-1,3.84v9.28h-2.7v-22.8h2.7v8.85a5,5,0,0,1,1.94-2.13,5.7,5.7,0,0,1,2.92-.73,4.37,4.37,0,0,1,3.74,1.65A8.24,8.24,0,0,1,843.89,256.24Z"/>
        <path class="bbee98d1-f5e1-44f6-9d3d-47b133b631ce" d="M855.88,249.6a6.34,6.34,0,0,1,5.22,2.22q1.81,2.2,1.81,6.4t-1.8,6.41a7.3,7.3,0,0,1-10.45,0q-1.8-2.2-1.8-6.41t1.8-6.4A6.34,6.34,0,0,1,855.88,249.6Zm0,2.29a3.49,3.49,0,0,0-3.11,1.6,11.16,11.16,0,0,0,0,9.45,3.82,3.82,0,0,0,6.23,0,11.16,11.16,0,0,0,0-9.45A3.48,3.48,0,0,0,855.88,251.89Z"/>
        <path class="bbee98d1-f5e1-44f6-9d3d-47b133b631ce" d="M879.47,250.57v2.64a10,10,0,0,0-2.33-1,8.42,8.42,0,0,0-2.39-.34,5.08,5.08,0,0,0-2.73.59,2,2,0,0,0-.9,1.81,2,2,0,0,0,.67,1.64,9.17,9.17,0,0,0,3.36,1.06l1.08.2a5.27,5.27,0,0,1,3,1.53,4.25,4.25,0,0,1,1,3,4.58,4.58,0,0,1-1.73,3.8,7.6,7.6,0,0,1-4.81,1.37,13.62,13.62,0,0,1-2.55-.26,23,23,0,0,1-2.88-.76V263a15.57,15.57,0,0,0,2.88,1.17,9.58,9.58,0,0,0,2.61.38,4.61,4.61,0,0,0,2.77-.72,2.38,2.38,0,0,0,1-2q0-1.87-3.59-2.59l-.12,0-1-.21a6.38,6.38,0,0,1-3.39-1.53,3.93,3.93,0,0,1-1.07-2.93,4.39,4.39,0,0,1,1.59-3.64,7.11,7.11,0,0,1,4.56-1.29,13,13,0,0,1,2.53.25A12.86,12.86,0,0,1,879.47,250.57Z"/>
        <path class="bbee98d1-f5e1-44f6-9d3d-47b133b631ce" d="M892.57,245.34V250h6.13v2.09h-6.13V261a3.61,3.61,0,0,0,.69,2.53,3.25,3.25,0,0,0,2.4.72h3v2.16h-3.3c-2,0-3.45-.41-4.28-1.22s-1.24-2.21-1.24-4.19v-8.91H885.5V250h4.38v-4.66Z"/>
        <path class="bbee98d1-f5e1-44f6-9d3d-47b133b631ce" d="M141.3,289.15v6.49h6.52v2.48H141.3v6.48h-2.46v-6.48h-6.5v-2.48h6.5v-6.49Z"/>
        <path class="bbee98d1-f5e1-44f6-9d3d-47b133b631ce" d="M150.61,295.8h15.53v2.48H150.61Z"/>
        <path class="bbee98d1-f5e1-44f6-9d3d-47b133b631ce" d="M169,295.8H184.5v2.48H169Z"/>
        <path class="bbee98d1-f5e1-44f6-9d3d-47b133b631ce" d="M187.34,295.8h15.52v2.48H187.34Z"/>
        <path class="bbee98d1-f5e1-44f6-9d3d-47b133b631ce" d="M205.7,295.8h15.52v2.48H205.7Z"/>
        <path class="bbee98d1-f5e1-44f6-9d3d-47b133b631ce" d="M224.06,295.8h15.53v2.48H224.06Z"/>
        <path class="bbee98d1-f5e1-44f6-9d3d-47b133b631ce" d="M242.42,295.8H258v2.48H242.42Z"/>
        <path class="bbee98d1-f5e1-44f6-9d3d-47b133b631ce" d="M260.78,295.8h15.53v2.48H260.78Z"/>
        <path class="bbee98d1-f5e1-44f6-9d3d-47b133b631ce" d="M279.14,295.8h15.53v2.48H279.14Z"/>
        <path class="bbee98d1-f5e1-44f6-9d3d-47b133b631ce" d="M297.5,295.8H313v2.48H297.5Z"/>
        <path class="bbee98d1-f5e1-44f6-9d3d-47b133b631ce" d="M315.87,295.8h15.52v2.48H315.87Z"/>
        <path class="bbee98d1-f5e1-44f6-9d3d-47b133b631ce" d="M334.23,295.8h15.53v2.48H334.23Z"/>
        <path class="bbee98d1-f5e1-44f6-9d3d-47b133b631ce" d="M361.64,289.15v6.49h6.52v2.48h-6.52v6.48h-2.46v-6.48h-6.5v-2.48h6.5v-6.49Z"/>
        <path class="bbee98d1-f5e1-44f6-9d3d-47b133b631ce" d="M371,295.8h15.53v2.48H371Z"/>
        <path class="bbee98d1-f5e1-44f6-9d3d-47b133b631ce" d="M389.31,295.8h15.53v2.48H389.31Z"/>
        <path class="bbee98d1-f5e1-44f6-9d3d-47b133b631ce" d="M407.67,295.8H423.2v2.48H407.67Z"/>
        <path class="bbee98d1-f5e1-44f6-9d3d-47b133b631ce" d="M426,295.8h15.52v2.48H426Z"/>
        <path class="bbee98d1-f5e1-44f6-9d3d-47b133b631ce" d="M444.4,295.8h15.52v2.48H444.4Z"/>
        <path class="bbee98d1-f5e1-44f6-9d3d-47b133b631ce" d="M462.76,295.8h15.53v2.48H462.76Z"/>
        <path class="bbee98d1-f5e1-44f6-9d3d-47b133b631ce" d="M481.12,295.8h15.53v2.48H481.12Z"/>
        <path class="bbee98d1-f5e1-44f6-9d3d-47b133b631ce" d="M499.48,295.8H515v2.48H499.48Z"/>
        <path class="bbee98d1-f5e1-44f6-9d3d-47b133b631ce" d="M517.84,295.8h15.53v2.48H517.84Z"/>
        <path class="bbee98d1-f5e1-44f6-9d3d-47b133b631ce" d="M536.2,295.8h15.53v2.48H536.2Z"/>
        <path class="bbee98d1-f5e1-44f6-9d3d-47b133b631ce" d="M554.57,295.8h15.52v2.48H554.57Z"/>
        <path class="bbee98d1-f5e1-44f6-9d3d-47b133b631ce" d="M572.93,295.8h15.52v2.48H572.93Z"/>
        <path class="bbee98d1-f5e1-44f6-9d3d-47b133b631ce" d="M591.29,295.8h15.53v2.48H591.29Z"/>
        <path class="bbee98d1-f5e1-44f6-9d3d-47b133b631ce" d="M609.65,295.8h15.53v2.48H609.65Z"/>
        <path class="bbee98d1-f5e1-44f6-9d3d-47b133b631ce" d="M637.06,289.15v6.49h6.52v2.48h-6.52v6.48H634.6v-6.48h-6.5v-2.48h6.5v-6.49Z"/>
        <path class="bbee98d1-f5e1-44f6-9d3d-47b133b631ce" d="M646.37,295.8H661.9v2.48H646.37Z"/>
        <path class="bbee98d1-f5e1-44f6-9d3d-47b133b631ce" d="M664.73,295.8h15.53v2.48H664.73Z"/>
        <path class="bbee98d1-f5e1-44f6-9d3d-47b133b631ce" d="M683.1,295.8h15.52v2.48H683.1Z"/>
        <path class="bbee98d1-f5e1-44f6-9d3d-47b133b631ce" d="M701.46,295.8H717v2.48H701.46Z"/>
        <path class="bbee98d1-f5e1-44f6-9d3d-47b133b631ce" d="M719.82,295.8h15.53v2.48H719.82Z"/>
        <path class="bbee98d1-f5e1-44f6-9d3d-47b133b631ce" d="M738.18,295.8h15.53v2.48H738.18Z"/>
        <path class="bbee98d1-f5e1-44f6-9d3d-47b133b631ce" d="M756.54,295.8h15.53v2.48H756.54Z"/>
        <path class="bbee98d1-f5e1-44f6-9d3d-47b133b631ce" d="M774.9,295.8h15.53v2.48H774.9Z"/>
        <path class="bbee98d1-f5e1-44f6-9d3d-47b133b631ce" d="M793.27,295.8h15.52v2.48H793.27Z"/>
        <path class="bbee98d1-f5e1-44f6-9d3d-47b133b631ce" d="M820.68,289.15v6.49h6.52v2.48h-6.52v6.48h-2.46v-6.48h-6.5v-2.48h6.5v-6.49Z"/>
        <path class="bbee98d1-f5e1-44f6-9d3d-47b133b631ce" d="M830,295.8h15.53v2.48H830Z"/>
        <path class="bbee98d1-f5e1-44f6-9d3d-47b133b631ce" d="M848.35,295.8h15.53v2.48H848.35Z"/>
        <path class="bbee98d1-f5e1-44f6-9d3d-47b133b631ce" d="M866.71,295.8h15.53v2.48H866.71Z"/>
        <path class="bbee98d1-f5e1-44f6-9d3d-47b133b631ce" d="M885.07,295.8H900.6v2.48H885.07Z"/>
        <path class="bbee98d1-f5e1-44f6-9d3d-47b133b631ce" d="M903.44,295.8H919v2.48H903.44Z"/>
        <path class="bbee98d1-f5e1-44f6-9d3d-47b133b631ce" d="M921.8,295.8h15.52v2.48H921.8Z"/>
        <path class="bbee98d1-f5e1-44f6-9d3d-47b133b631ce" d="M141.63,323.48v30h-2.52v-30Z"/>
        <path class="bbee98d1-f5e1-44f6-9d3d-47b133b631ce" d="M167.76,324.61h4l8.56,17.94V324.61h3.15v21.8h-4l-8.55-18v18h-3.15Z"/>
        <path class="bbee98d1-f5e1-44f6-9d3d-47b133b631ce" d="M202.19,335.49q0,5.72-1.81,8.53a6.81,6.81,0,0,1-11,0q-1.8-2.79-1.8-8.54c0-3.82.6-6.66,1.8-8.54a6.81,6.81,0,0,1,11,0C201.59,328.83,202.19,331.67,202.19,335.49Zm-3.09,0q0-4.82-1-6.88a3.57,3.57,0,0,0-6.48,0q-1,2.07-1,6.88t1,6.87a3.57,3.57,0,0,0,6.48,0Q199.1,340.32,199.1,335.49Z"/>
        <path class="bbee98d1-f5e1-44f6-9d3d-47b133b631ce" d="M210.65,324.54c3.34,0,5.8.88,7.38,2.66s2.37,4.54,2.37,8.29-.79,6.48-2.37,8.26-4,2.66-7.38,2.66h-4.44V324.54ZM210.59,344q3.74,0,5.21-1.83c1-1.23,1.48-3.44,1.48-6.65s-.49-5.46-1.47-6.68-2.72-1.84-5.22-1.84h-1.41v17Z"/>
        <path class="bbee98d1-f5e1-44f6-9d3d-47b133b631ce" d="M225.45,324.54h13V327h-10v5.88H238v2.5h-9.58v8.51h10.3v2.49H225.45Z"/>
        <path class="bbee98d1-f5e1-44f6-9d3d-47b133b631ce" d="M262.23,324.54h12.15V327h-4.59v16.89h4.59v2.49H262.23v-2.49h4.59V327h-4.59Z"/>
        <path class="bbee98d1-f5e1-44f6-9d3d-47b133b631ce" d="M284.09,324.54c3.34,0,5.81.88,7.39,2.66s2.37,4.54,2.37,8.29-.79,6.48-2.37,8.26-4.05,2.66-7.39,2.66h-4.43V324.54ZM284,344c2.49,0,4.22-.61,5.21-1.83s1.48-3.44,1.48-6.65-.49-5.46-1.47-6.68S286.54,327,284,327h-1.41v17Z"/>
        <path class="bbee98d1-f5e1-44f6-9d3d-47b133b631ce" d="M362,323.48v30h-2.52v-30Z"/>
        <path class="bbee98d1-f5e1-44f6-9d3d-47b133b631ce" d="M394.26,324.54c3.34,0,5.8.88,7.39,2.66s2.37,4.54,2.37,8.29-.79,6.48-2.37,8.26-4,2.66-7.39,2.66h-4.44V324.54ZM394.2,344q3.74,0,5.22-1.83c1-1.23,1.48-3.44,1.48-6.65s-.49-5.46-1.47-6.68S396.7,327,394.2,327h-1.4v17Z"/>
        <path class="bbee98d1-f5e1-44f6-9d3d-47b133b631ce" d="M409.12,324.54h12.15V327h-4.59v16.89h4.59v2.49H409.12v-2.49h4.59V327h-4.59Z"/>
        <path class="bbee98d1-f5e1-44f6-9d3d-47b133b631ce" d="M439.37,325.28v3a11.82,11.82,0,0,0-2.71-1.31,8.86,8.86,0,0,0-2.73-.44,5.14,5.14,0,0,0-3.31,1,3.19,3.19,0,0,0-1.22,2.63,2.93,2.93,0,0,0,.8,2.21,6.65,6.65,0,0,0,3,1.27l1.56.35a8.55,8.55,0,0,1,4.48,2.26,6,6,0,0,1,1.41,4.19,5.89,5.89,0,0,1-1.94,4.76,8.49,8.49,0,0,1-5.62,1.64,14.76,14.76,0,0,1-3.09-.33,17.07,17.07,0,0,1-3.12-1v-3.15a14.14,14.14,0,0,0,3.18,1.57,9.62,9.62,0,0,0,3,.5,5.46,5.46,0,0,0,3.48-1,3.91,3.91,0,0,0,.39-5.31,6,6,0,0,0-3-1.34l-1.58-.36a9,9,0,0,1-4.43-2.08,5.13,5.13,0,0,1-1.37-3.74,6,6,0,0,1,2-4.69,7.53,7.53,0,0,1,5.23-1.77,13.34,13.34,0,0,1,2.66.29A20.43,20.43,0,0,1,439.37,325.28Z"/>
        <path class="bbee98d1-f5e1-44f6-9d3d-47b133b631ce" d="M445.79,324.54h6.39a8.16,8.16,0,0,1,5.55,1.66,7.25,7.25,0,0,1,0,9.76,8.13,8.13,0,0,1-5.55,1.66h-3.43v8.79h-3Zm3,2.43v8.22h3.43a4.51,4.51,0,0,0,3.2-1.09,4.57,4.57,0,0,0,0-6.06,4.52,4.52,0,0,0-3.2-1.07Z"/>
        <path class="bbee98d1-f5e1-44f6-9d3d-47b133b631ce" d="M464.41,324.54h3v19.38H478v2.49H464.41Z"/>
        <path class="bbee98d1-f5e1-44f6-9d3d-47b133b631ce" d="M486.86,324.54h3.59l6.7,21.87h-3.07l-1.61-5.7h-7.66l-1.58,5.7h-3.06Zm1.79,2.6-3.12,11.19h6.24Z"/>
        <path class="bbee98d1-f5e1-44f6-9d3d-47b133b631ce" d="M498.53,324.54h3.15l5.33,9.65,5.32-9.65h3.18l-7,12v9.82h-3v-9.82Z"/>
        <path class="bbee98d1-f5e1-44f6-9d3d-47b133b631ce" d="M535,324.61h4l8.56,17.94V324.61h3.15v21.8h-4l-8.55-18v18H535Z"/>
        <path class="bbee98d1-f5e1-44f6-9d3d-47b133b631ce" d="M560.31,324.54h3.59l6.69,21.87h-3.06l-1.61-5.7h-7.66l-1.58,5.7h-3.07Zm1.79,2.6L559,338.33h6.24Z"/>
        <path class="bbee98d1-f5e1-44f6-9d3d-47b133b631ce" d="M572,324.61h4l3.77,11.1,3.81-11.1h4v21.8h-2.74V327.14l-3.89,11.49H578.6l-3.91-11.49v19.27H572Z"/>
        <path class="bbee98d1-f5e1-44f6-9d3d-47b133b631ce" d="M592.68,324.54h13V327h-10v5.88h9.58v2.5h-9.58v8.51h10.3v2.49H592.68Z"/>
        <path class="bbee98d1-f5e1-44f6-9d3d-47b133b631ce" d="M637.39,323.48v30h-2.52v-30Z"/>
        <path class="bbee98d1-f5e1-44f6-9d3d-47b133b631ce" d="M678.06,325.28v3a11.56,11.56,0,0,0-2.7-1.31,8.86,8.86,0,0,0-2.73-.44,5.14,5.14,0,0,0-3.31,1,3.19,3.19,0,0,0-1.22,2.63,2.93,2.93,0,0,0,.8,2.21,6.7,6.7,0,0,0,3,1.27l1.56.35a8.55,8.55,0,0,1,4.48,2.26,6,6,0,0,1,1.4,4.19,5.88,5.88,0,0,1-1.93,4.76,8.49,8.49,0,0,1-5.62,1.64,14.76,14.76,0,0,1-3.09-.33,17.07,17.07,0,0,1-3.12-1v-3.15a14.14,14.14,0,0,0,3.18,1.57,9.62,9.62,0,0,0,3,.5,5.46,5.46,0,0,0,3.48-1,3.91,3.91,0,0,0,.39-5.31,6,6,0,0,0-3-1.34l-1.58-.36a9,9,0,0,1-4.43-2.08,5.13,5.13,0,0,1-1.37-3.74,6,6,0,0,1,2-4.69,7.53,7.53,0,0,1,5.23-1.77,13.34,13.34,0,0,1,2.66.29A20,20,0,0,1,678.06,325.28Z"/>
        <path class="bbee98d1-f5e1-44f6-9d3d-47b133b631ce" d="M682.29,324.54H699V327h-6.85v19.38h-3V327h-6.87Z"/>
        <path class="bbee98d1-f5e1-44f6-9d3d-47b133b631ce" d="M707.2,324.54h3.59l6.69,21.87h-3.06l-1.61-5.7h-7.66l-1.58,5.7h-3.06Zm1.79,2.6-3.12,11.19h6.24Z"/>
        <path class="bbee98d1-f5e1-44f6-9d3d-47b133b631ce" d="M719,324.54H735.7V327h-6.84v19.38h-3V327H719Z"/>
        <path class="bbee98d1-f5e1-44f6-9d3d-47b133b631ce" d="M739.57,324.54h13V327h-10v5.88h9.58v2.5h-9.58v8.51h10.3v2.49H739.57Z"/>
        <path class="bbee98d1-f5e1-44f6-9d3d-47b133b631ce" d="M821,323.48v30h-2.52v-30Z"/>
        <path class="bbee98d1-f5e1-44f6-9d3d-47b133b631ce" d="M861.68,325.28v3A12,12,0,0,0,859,327a9,9,0,0,0-2.73-.44,5.14,5.14,0,0,0-3.31,1,3.16,3.16,0,0,0-1.22,2.63,2.93,2.93,0,0,0,.8,2.21,6.59,6.59,0,0,0,3,1.27l1.55.35a8.52,8.52,0,0,1,4.48,2.26,6,6,0,0,1,1.41,4.19,5.88,5.88,0,0,1-1.93,4.76,8.52,8.52,0,0,1-5.63,1.64,14.9,14.9,0,0,1-3.09-.33,17.57,17.57,0,0,1-3.12-1v-3.15a14.2,14.2,0,0,0,3.19,1.57,9.61,9.61,0,0,0,3,.5,5.47,5.47,0,0,0,3.49-1,3.93,3.93,0,0,0,.39-5.31,6,6,0,0,0-3-1.34l-1.58-.36a9,9,0,0,1-4.42-2.08,5.09,5.09,0,0,1-1.38-3.74,6,6,0,0,1,2-4.69,7.56,7.56,0,0,1,5.24-1.77,13.25,13.25,0,0,1,2.65.29A20.07,20.07,0,0,1,861.68,325.28Z"/>
        <path class="bbee98d1-f5e1-44f6-9d3d-47b133b631ce" d="M868.1,324.54h13V327h-10v5.88h9.58v2.5h-9.58v8.51h10.3v2.49H868.1Z"/>
        <path class="bbee98d1-f5e1-44f6-9d3d-47b133b631ce" d="M884.27,324.54H901V327h-6.84v19.38h-3V327h-6.87Z"/>
        <path class="bbee98d1-f5e1-44f6-9d3d-47b133b631ce" d="M902.63,324.54h16.68V327h-6.84v19.38h-3V327h-6.87Z"/>
        <path class="bbee98d1-f5e1-44f6-9d3d-47b133b631ce" d="M923.25,324.54h12.14V327h-4.58v16.89h4.58v2.49H923.25v-2.49h4.58V327h-4.58Z"/>
        <path class="bbee98d1-f5e1-44f6-9d3d-47b133b631ce" d="M141.3,369.15v6.49h6.52v2.48H141.3v6.48h-2.46v-6.48h-6.5v-2.48h6.5v-6.49Z"/>
        <path class="bbee98d1-f5e1-44f6-9d3d-47b133b631ce" d="M150.61,375.8h15.53v2.48H150.61Z"/>
        <path class="bbee98d1-f5e1-44f6-9d3d-47b133b631ce" d="M169,375.8H184.5v2.48H169Z"/>
        <path class="bbee98d1-f5e1-44f6-9d3d-47b133b631ce" d="M187.34,375.8h15.52v2.48H187.34Z"/>
        <path class="bbee98d1-f5e1-44f6-9d3d-47b133b631ce" d="M205.7,375.8h15.52v2.48H205.7Z"/>
        <path class="bbee98d1-f5e1-44f6-9d3d-47b133b631ce" d="M224.06,375.8h15.53v2.48H224.06Z"/>
        <path class="bbee98d1-f5e1-44f6-9d3d-47b133b631ce" d="M242.42,375.8H258v2.48H242.42Z"/>
        <path class="bbee98d1-f5e1-44f6-9d3d-47b133b631ce" d="M260.78,375.8h15.53v2.48H260.78Z"/>
        <path class="bbee98d1-f5e1-44f6-9d3d-47b133b631ce" d="M279.14,375.8h15.53v2.48H279.14Z"/>
        <path class="bbee98d1-f5e1-44f6-9d3d-47b133b631ce" d="M297.5,375.8H313v2.48H297.5Z"/>
        <path class="bbee98d1-f5e1-44f6-9d3d-47b133b631ce" d="M315.87,375.8h15.52v2.48H315.87Z"/>
        <path class="bbee98d1-f5e1-44f6-9d3d-47b133b631ce" d="M334.23,375.8h15.53v2.48H334.23Z"/>
        <path class="bbee98d1-f5e1-44f6-9d3d-47b133b631ce" d="M361.64,369.15v6.49h6.52v2.48h-6.52v6.48h-2.46v-6.48h-6.5v-2.48h6.5v-6.49Z"/>
        <path class="bbee98d1-f5e1-44f6-9d3d-47b133b631ce" d="M371,375.8h15.53v2.48H371Z"/>
        <path class="bbee98d1-f5e1-44f6-9d3d-47b133b631ce" d="M389.31,375.8h15.53v2.48H389.31Z"/>
        <path class="bbee98d1-f5e1-44f6-9d3d-47b133b631ce" d="M407.67,375.8H423.2v2.48H407.67Z"/>
        <path class="bbee98d1-f5e1-44f6-9d3d-47b133b631ce" d="M426,375.8h15.52v2.48H426Z"/>
        <path class="bbee98d1-f5e1-44f6-9d3d-47b133b631ce" d="M444.4,375.8h15.52v2.48H444.4Z"/>
        <path class="bbee98d1-f5e1-44f6-9d3d-47b133b631ce" d="M462.76,375.8h15.53v2.48H462.76Z"/>
        <path class="bbee98d1-f5e1-44f6-9d3d-47b133b631ce" d="M481.12,375.8h15.53v2.48H481.12Z"/>
        <path class="bbee98d1-f5e1-44f6-9d3d-47b133b631ce" d="M499.48,375.8H515v2.48H499.48Z"/>
        <path class="bbee98d1-f5e1-44f6-9d3d-47b133b631ce" d="M517.84,375.8h15.53v2.48H517.84Z"/>
        <path class="bbee98d1-f5e1-44f6-9d3d-47b133b631ce" d="M536.2,375.8h15.53v2.48H536.2Z"/>
        <path class="bbee98d1-f5e1-44f6-9d3d-47b133b631ce" d="M554.57,375.8h15.52v2.48H554.57Z"/>
        <path class="bbee98d1-f5e1-44f6-9d3d-47b133b631ce" d="M572.93,375.8h15.52v2.48H572.93Z"/>
        <path class="bbee98d1-f5e1-44f6-9d3d-47b133b631ce" d="M591.29,375.8h15.53v2.48H591.29Z"/>
        <path class="bbee98d1-f5e1-44f6-9d3d-47b133b631ce" d="M609.65,375.8h15.53v2.48H609.65Z"/>
        <path class="bbee98d1-f5e1-44f6-9d3d-47b133b631ce" d="M637.06,369.15v6.49h6.52v2.48h-6.52v6.48H634.6v-6.48h-6.5v-2.48h6.5v-6.49Z"/>
        <path class="bbee98d1-f5e1-44f6-9d3d-47b133b631ce" d="M646.37,375.8H661.9v2.48H646.37Z"/>
        <path class="bbee98d1-f5e1-44f6-9d3d-47b133b631ce" d="M664.73,375.8h15.53v2.48H664.73Z"/>
        <path class="bbee98d1-f5e1-44f6-9d3d-47b133b631ce" d="M683.1,375.8h15.52v2.48H683.1Z"/>
        <path class="bbee98d1-f5e1-44f6-9d3d-47b133b631ce" d="M701.46,375.8H717v2.48H701.46Z"/>
        <path class="bbee98d1-f5e1-44f6-9d3d-47b133b631ce" d="M719.82,375.8h15.53v2.48H719.82Z"/>
        <path class="bbee98d1-f5e1-44f6-9d3d-47b133b631ce" d="M738.18,375.8h15.53v2.48H738.18Z"/>
        <path class="bbee98d1-f5e1-44f6-9d3d-47b133b631ce" d="M756.54,375.8h15.53v2.48H756.54Z"/>
        <path class="bbee98d1-f5e1-44f6-9d3d-47b133b631ce" d="M774.9,375.8h15.53v2.48H774.9Z"/>
        <path class="bbee98d1-f5e1-44f6-9d3d-47b133b631ce" d="M793.27,375.8h15.52v2.48H793.27Z"/>
        <path class="bbee98d1-f5e1-44f6-9d3d-47b133b631ce" d="M820.68,369.15v6.49h6.52v2.48h-6.52v6.48h-2.46v-6.48h-6.5v-2.48h6.5v-6.49Z"/>
        <path class="bbee98d1-f5e1-44f6-9d3d-47b133b631ce" d="M830,375.8h15.53v2.48H830Z"/>
        <path class="bbee98d1-f5e1-44f6-9d3d-47b133b631ce" d="M848.35,375.8h15.53v2.48H848.35Z"/>
        <path class="bbee98d1-f5e1-44f6-9d3d-47b133b631ce" d="M866.71,375.8h15.53v2.48H866.71Z"/>
        <path class="bbee98d1-f5e1-44f6-9d3d-47b133b631ce" d="M885.07,375.8H900.6v2.48H885.07Z"/>
        <path class="bbee98d1-f5e1-44f6-9d3d-47b133b631ce" d="M903.44,375.8H919v2.48H903.44Z"/>
        <path class="bbee98d1-f5e1-44f6-9d3d-47b133b631ce" d="M921.8,375.8h15.52v2.48H921.8Z"/>
      </g>
      <path class="a6cd2b5c-8ee4-4501-9263-022c13cec330" d="M102.43,124.3H914.12a29.17,29.17,0,0,1,29.17,29.17v15.65a0,0,0,0,1,0,0h-870a0,0,0,0,1,0,0V153.46A29.17,29.17,0,0,1,102.43,124.3Z"/>
      <circle class="ab2e4ddf-fdc0-4c2a-acc3-39c3bb9fc042" cx="500" cy="144.81" r="75"/>
      <g>
        <g>
          <path class="e685e824-129c-4d10-9784-70f9bdd427cc" d="M541.53,166.85,534.92,163l-36.65-21.35-34.6,19.82a1.07,1.07,0,0,1,.17.59,1.2,1.2,0,0,1-1.2,1.2,1.23,1.23,0,0,1-.6-.17l35.44,20.67a1.23,1.23,0,0,0,1.23,0L516,173.88a1.21,1.21,0,0,1,1.22,0l7.24,4.19a1.21,1.21,0,0,0,1.22,0l15.88-9.1A1.22,1.22,0,0,0,541.53,166.85Z"/>
          <path class="b2e5231f-7e69-42de-bf31-9f8a99ce0b67" d="M462,161.08l.1-.06a1.25,1.25,0,0,1,.58-.15,1.07,1.07,0,0,1,.53.13l.16.09a1.12,1.12,0,0,1,.34.38l34.6-19.82,0-39.89V99.37a1.25,1.25,0,0,0-.58.15l-.1.06-34.16,19.79a1.23,1.23,0,0,0,0,2.12l16.45,9.62-17.71,10a1.23,1.23,0,0,0-.62,1.06L461.45,162A1.18,1.18,0,0,1,462,161.08Z"/>
          <path class="afe308a7-a978-467a-b529-bc7ba6255b94" d="M461.45,162.06v0S461.44,162.05,461.45,162.06Z"/>
          <path class="afe308a7-a978-467a-b529-bc7ba6255b94" d="M462,163.09,462,163Z"/>
          <rect class="afe308a7-a978-467a-b529-bc7ba6255b94" x="461.45" y="162.06" width="2.38" transform="translate(-19.35 251.4) rotate(-29.81)"/>
          <path class="be8d33db-4cf4-4706-be3d-b57c515f8ba9" d="M463.33,161.09l-.16-.09a1.07,1.07,0,0,0-.53-.13,1.25,1.25,0,0,0-.58.15l-.1.06a1.18,1.18,0,0,0-.51.94v.06a1.11,1.11,0,0,0,.16.57l2.06-1.18A1.12,1.12,0,0,0,463.33,161.09Z"/>
          <path class="e685e824-129c-4d10-9784-70f9bdd427cc" d="M463.84,162.06a1.07,1.07,0,0,0-.17-.59l-2.06,1.18a1,1,0,0,0,.35.39l.08.05a1.23,1.23,0,0,0,.6.17A1.2,1.2,0,0,0,463.84,162.06Z"/>
        </g>
        <g>
          <path class="ea0a0feb-25a7-4b34-a1ff-816df2738bb6" d="M497.57,99.58l.1-.06Z"/>
          <path class="ea0a0feb-25a7-4b34-a1ff-816df2738bb6" d="M498.78,99.5l.16.09Z"/>
          <path class="afe308a7-a978-467a-b529-bc7ba6255b94" d="M534.29,120.16,498.94,99.59l-.16-.09a1.19,1.19,0,0,0-.53-.13v2.39l0,39.89L534.92,163l0-41.78A1.22,1.22,0,0,0,534.29,120.16Z"/>
        </g>
        <polygon class="afe308a7-a978-467a-b529-bc7ba6255b94" points="480 152.25 479.86 131.11 498.27 141.65 498.28 162.8 480 152.25"/>
        <polygon class="e685e824-129c-4d10-9784-70f9bdd427cc" points="498.27 141.65 516.48 130.99 498.26 120.5 479.86 131.11 498.27 141.65"/>
        <polygon class="b2e5231f-7e69-42de-bf31-9f8a99ce0b67" points="516.56 152.23 516.47 131.04 498.27 141.65 498.28 162.8 516.56 152.23"/>
      </g>
      <circle class="e5ac3f88-9a21-4abf-91e0-8daab1ac808f" cx="114.79" cy="146.45" r="9.86"/>
      <circle class="e5ac3f88-9a21-4abf-91e0-8daab1ac808f" cx="150.39" cy="146.45" r="9.86"/>
      <circle class="e5ac3f88-9a21-4abf-91e0-8daab1ac808f" cx="185.98" cy="146.45" r="9.86"/>
    </g>
  </g>
</svg>
