<svg xmlns="http://www.w3.org/2000/svg" width="1150.07" height="438.69" viewBox="0 0 1150.07 438.69">
  <defs>
    <style>
      .ac8e1762-2615-4858-b82c-ab809274254e {
        fill: #3d464c;
      }

      .a67f126e-dbe3-48b3-9de6-8f0ac7e73f5a {
        fill: #4f5a60;
        opacity: 0.5;
      }

      .b13e3027-646e-4fb0-a49b-c7acfeb2963b {
        fill: #053151;
      }

      .adfc514c-82ac-4727-8600-f301ac1aec3d {
        fill: #7ac8fc;
      }

      .a45cf196-d543-4bf2-9e67-fe2aef91c986, .a77e96b3-5bb7-4848-97a7-3f2bd8911198, .b2c2edf7-22a5-46b4-a0e3-0ff9a6f759bb, .b70e5b7c-53ad-4427-a470-715b4d930d3c, .eab8097e-85cc-4481-9f0f-36b941a735e1 {
        fill: #0086e8;
      }

      .bcad3c65-bada-4e8d-abe1-5e3bf026c944 {
        fill: #5ec5fc;
      }

      .e606edf0-c98e-4874-8e10-e5cf1918030d {
        fill: #fff;
      }

      .ff477b95-0d0e-47d9-b139-fa5912e8d46f {
        fill: #ff8e19;
      }

      .b402a191-388c-422b-93bb-a95bb9c26f06 {
        fill: #f0293b;
      }

      .a016124a-8616-4a30-9f43-118d6e56dfd4, .ba654a88-ac4d-4f6c-a646-722725ceef13, .bd461bd7-2e51-49d4-93cb-93be4f0ae7d1, .bfe867d2-c563-4409-bdad-ea482b7ce5df, .e70b146a-b1a7-4e60-83bf-2b672ff66308 {
        fill: #ffc224;
      }

      .b2c2edf7-22a5-46b4-a0e3-0ff9a6f759bb, .ba654a88-ac4d-4f6c-a646-722725ceef13 {
        opacity: 0.4;
      }

      .a016124a-8616-4a30-9f43-118d6e56dfd4, .a45cf196-d543-4bf2-9e67-fe2aef91c986 {
        opacity: 0.6;
      }

      .a77e96b3-5bb7-4848-97a7-3f2bd8911198, .bfe867d2-c563-4409-bdad-ea482b7ce5df {
        opacity: 0.8;
      }

      .bd461bd7-2e51-49d4-93cb-93be4f0ae7d1 {
        opacity: 0.2;
      }

      .b70e5b7c-53ad-4427-a470-715b4d930d3c {
        opacity: 0.3;
      }
    </style>
  </defs>
  <g id="b212c8ef-3818-45de-9889-c58f2994552c" data-name="Layer 1">
    <rect class="ac8e1762-2615-4858-b82c-ab809274254e" x="-0.42" y="-3.46" width="1151.02" height="445.06"/>
    <path class="a67f126e-dbe3-48b3-9de6-8f0ac7e73f5a" d="M1202.91,67.58H967a24.21,24.21,0,0,0-24.21,24.21V346.36A24.21,24.21,0,0,0,967,370.56h235.89a23,23,0,0,0,23-23V90.6A23,23,0,0,0,1202.91,67.58Z"/>
    <path class="a67f126e-dbe3-48b3-9de6-8f0ac7e73f5a" d="M192.5,67.58H-43.4A24.2,24.2,0,0,0-67.6,91.79V346.36a24.2,24.2,0,0,0,24.2,24.2H192.5a23,23,0,0,0,23-23V90.6A23,23,0,0,0,192.5,67.58Z"/>
    <g>
      <g>
        <path class="b13e3027-646e-4fb0-a49b-c7acfeb2963b" d="M153,245.21l-7.85-4.58L101.6,215.26,60.48,238.81a1.32,1.32,0,0,1,.2.7,1.41,1.41,0,0,1-2.14,1.23l42.12,24.56a1.46,1.46,0,0,0,1.46,0l20.5-11.75a1.47,1.47,0,0,1,1.45,0l8.6,5a1.45,1.45,0,0,0,1.45,0L153,247.73A1.46,1.46,0,0,0,153,245.21Z"/>
        <path class="adfc514c-82ac-4727-8600-f301ac1aec3d" d="M58.44,238.35l.13-.07a1.41,1.41,0,0,1,.68-.19,1.38,1.38,0,0,1,.64.16l.19.11a1.44,1.44,0,0,1,.4.45l41.12-23.55,0-47.41V165a1.38,1.38,0,0,0-.69.19l-.12.07L60.18,188.78a1.45,1.45,0,0,0,0,2.51l19.55,11.44-21,11.9a1.47,1.47,0,0,0-.74,1.26l-.09,23.58A1.41,1.41,0,0,1,58.44,238.35Z"/>
        <path class="eab8097e-85cc-4481-9f0f-36b941a735e1" d="M57.83,239.52v-.05A.43.43,0,0,0,57.83,239.52Z"/>
        <path class="eab8097e-85cc-4481-9f0f-36b941a735e1" d="M58.54,240.74l-.09-.06Z"/>
        <polygon class="eab8097e-85cc-4481-9f0f-36b941a735e1" points="60.48 238.81 58.02 240.22 58.02 240.22 60.48 238.81 60.48 238.81"/>
        <path class="bcad3c65-bada-4e8d-abe1-5e3bf026c944" d="M60.08,238.36l-.19-.11a1.38,1.38,0,0,0-.64-.16,1.41,1.41,0,0,0-.68.19l-.13.07a1.41,1.41,0,0,0-.6,1.12v.07a1.31,1.31,0,0,0,.19.68l2.45-1.41A1.44,1.44,0,0,0,60.08,238.36Z"/>
        <path class="b13e3027-646e-4fb0-a49b-c7acfeb2963b" d="M60.68,239.51a1.32,1.32,0,0,0-.2-.7L58,240.22a1.32,1.32,0,0,0,.42.46l.09.06a1.41,1.41,0,0,0,2.14-1.23Z"/>
      </g>
      <g>
        <path class="e606edf0-c98e-4874-8e10-e5cf1918030d" d="M100.76,165.27l.12-.07Z"/>
        <path class="e606edf0-c98e-4874-8e10-e5cf1918030d" d="M102.2,165.16l.19.11Z"/>
        <path class="eab8097e-85cc-4481-9f0f-36b941a735e1" d="M144.41,189.72l-42-24.45-.19-.11a1.46,1.46,0,0,0-.63-.15v2.84l0,47.41,43.56,25.37,0-49.65A1.45,1.45,0,0,0,144.41,189.72Z"/>
      </g>
      <polygon class="eab8097e-85cc-4481-9f0f-36b941a735e1" points="79.88 227.85 79.72 202.74 101.59 215.26 101.61 240.4 79.88 227.85"/>
      <polygon class="b13e3027-646e-4fb0-a49b-c7acfeb2963b" points="101.59 215.26 123.24 202.59 101.58 190.13 79.72 202.74 101.59 215.26"/>
      <polygon class="adfc514c-82ac-4727-8600-f301ac1aec3d" points="123.33 227.83 123.22 202.64 101.59 215.26 101.61 240.4 123.33 227.83"/>
    </g>
    <g>
      <path class="ff477b95-0d0e-47d9-b139-fa5912e8d46f" d="M1098.6,214.67l-38.16-.25,18.85-31.88a1.62,1.62,0,0,1,1.4-.79l34.38.22a1.62,1.62,0,0,1,1.38,2.44Z"/>
      <g>
        <path class="e606edf0-c98e-4874-8e10-e5cf1918030d" d="M980.55,214.89l-.22-.4A1.56,1.56,0,0,0,980.55,214.89Z"/>
        <path class="e606edf0-c98e-4874-8e10-e5cf1918030d" d="M980.35,213.28l.19-.34A2.27,2.27,0,0,0,980.35,213.28Z"/>
        <rect class="e606edf0-c98e-4874-8e10-e5cf1918030d" x="981.82" y="212.3" height="3.2" transform="translate(761.48 1194.3) rotate(-89.62)"/>
        <path class="ff477b95-0d0e-47d9-b139-fa5912e8d46f" d="M1059.92,168h-.17l-51.56-.33a1.6,1.6,0,0,0-1.4.79l-26.25,44.5-.19.34a1.55,1.55,0,0,0-.13.61l3.2,0,50.19.33L1059,171l1.62-2.76A1.44,1.44,0,0,0,1059.92,168Z"/>
      </g>
      <g>
        <path class="e606edf0-c98e-4874-8e10-e5cf1918030d" d="M1059.23,260.75l.22,0H1059Z"/>
        <path class="e606edf0-c98e-4874-8e10-e5cf1918030d" d="M1060.72,259.75l-.23.39A1.67,1.67,0,0,0,1060.72,259.75Z"/>
        <path class="b402a191-388c-422b-93bb-a95bb9c26f06" d="M1074.1,191.28l-12.82-22.36-.15-.26a1.47,1.47,0,0,0-.5-.46L1059,171l-25.4,43.28,24.83,43.52,1.59,2.78a1.75,1.75,0,0,0,.46-.4l.23-.39,26.59-45.16Z"/>
        <path class="e70b146a-b1a7-4e60-83bf-2b672ff66308" d="M1058.44,257.76l-24.83-43.52-50.19-.33-3.2,0h0a1.63,1.63,0,0,0,.11.59l.22.4,25.76,45.49h.19l26.59.18,25.91.17h.45a1.65,1.65,0,0,0,.58-.19Z"/>
      </g>
      <polygon class="b402a191-388c-422b-93bb-a95bb9c26f06" points="1006.97 214.07 1020.56 190.91 1033.61 214.24 1020.09 237.15 1006.97 214.07"/>
      <polygon class="ff477b95-0d0e-47d9-b139-fa5912e8d46f" points="1033.61 214.24 1060.44 214.42 1046.75 237.63 1019.9 237.35 1033.61 214.24"/>
      <polygon class="e70b146a-b1a7-4e60-83bf-2b672ff66308" points="1033.61 214.24 1060.44 214.42 1047.06 191.24 1020.51 190.97 1033.61 214.24"/>
      <path class="e70b146a-b1a7-4e60-83bf-2b672ff66308" d="M1098.6,214.67l-38.16-.25,18.43,32.48a1.65,1.65,0,0,0,1.4.82l34.38.22a1.62,1.62,0,0,0,1.42-2.41Z"/>
      <g>
        <path class="e606edf0-c98e-4874-8e10-e5cf1918030d" d="M1061.13,168.66l.15.26A1.35,1.35,0,0,0,1061.13,168.66Z"/>
        <path class="e606edf0-c98e-4874-8e10-e5cf1918030d" d="M1059.84,168h0Z"/>
      </g>
    </g>
    <g>
      <path class="ba654a88-ac4d-4f6c-a646-722725ceef13" d="M266.12,259.91l35.16-20.3a4.64,4.64,0,0,1,7,4v40.6a4.64,4.64,0,0,1-7,4L266.12,268A4.64,4.64,0,0,1,266.12,259.91Z"/>
      <path class="a016124a-8616-4a30-9f43-118d6e56dfd4" d="M326.91,259.91l35.16-20.3a4.64,4.64,0,0,1,7,4v40.6a4.64,4.64,0,0,1-7,4L326.91,268A4.64,4.64,0,0,1,326.91,259.91Z"/>
      <path class="bfe867d2-c563-4409-bdad-ea482b7ce5df" d="M387.7,259.91l35.16-20.3a4.64,4.64,0,0,1,7,4v40.6a4.64,4.64,0,0,1-7,4L387.7,268A4.64,4.64,0,0,1,387.7,259.91Z"/>
      <path class="ba654a88-ac4d-4f6c-a646-722725ceef13" d="M752.43,259.91l35.16-20.3a4.65,4.65,0,0,1,7,4v40.6a4.65,4.65,0,0,1-7,4L752.43,268A4.65,4.65,0,0,1,752.43,259.91Z"/>
      <path class="a016124a-8616-4a30-9f43-118d6e56dfd4" d="M813.22,259.91l35.16-20.3a4.64,4.64,0,0,1,7,4v40.6a4.64,4.64,0,0,1-7,4L813.22,268A4.65,4.65,0,0,1,813.22,259.91Z"/>
      <path class="bfe867d2-c563-4409-bdad-ea482b7ce5df" d="M874,259.91l35.16-20.3a4.64,4.64,0,0,1,7,4v40.6a4.64,4.64,0,0,1-7,4L874,268A4.65,4.65,0,0,1,874,259.91Z"/>
      <path class="e70b146a-b1a7-4e60-83bf-2b672ff66308" d="M448.49,259.91l35.16-20.3a4.64,4.64,0,0,1,7,4v40.6a4.64,4.64,0,0,1-7,4L448.49,268A4.64,4.64,0,0,1,448.49,259.91Z"/>
      <path class="bfe867d2-c563-4409-bdad-ea482b7ce5df" d="M509.28,259.91l35.16-20.3a4.64,4.64,0,0,1,7,4v40.6a4.64,4.64,0,0,1-7,4L509.28,268A4.64,4.64,0,0,1,509.28,259.91Z"/>
      <path class="a016124a-8616-4a30-9f43-118d6e56dfd4" d="M570.07,259.91l35.16-20.3a4.64,4.64,0,0,1,7,4v40.6a4.64,4.64,0,0,1-7,4L570.07,268A4.64,4.64,0,0,1,570.07,259.91Z"/>
      <path class="ba654a88-ac4d-4f6c-a646-722725ceef13" d="M630.86,259.91,666,239.61a4.64,4.64,0,0,1,7,4v40.6a4.64,4.64,0,0,1-7,4L630.86,268A4.64,4.64,0,0,1,630.86,259.91Z"/>
      <path class="bd461bd7-2e51-49d4-93cb-93be4f0ae7d1" d="M691.64,259.91l35.16-20.3a4.65,4.65,0,0,1,7,4v40.6a4.65,4.65,0,0,1-7,4L691.64,268A4.65,4.65,0,0,1,691.64,259.91Z"/>
    </g>
    <g>
      <path class="b2c2edf7-22a5-46b4-a0e3-0ff9a6f759bb" d="M913.83,165.27l-35.26-20.36a4.64,4.64,0,0,0-7,4v40.71a4.64,4.64,0,0,0,7,4l35.26-20.36A4.63,4.63,0,0,0,913.83,165.27Z"/>
      <path class="a45cf196-d543-4bf2-9e67-fe2aef91c986" d="M852.9,165.27l-35.26-20.36a4.64,4.64,0,0,0-7,4v40.71a4.64,4.64,0,0,0,7,4L852.9,173.3A4.63,4.63,0,0,0,852.9,165.27Z"/>
      <path class="a77e96b3-5bb7-4848-97a7-3f2bd8911198" d="M792,165.27l-35.27-20.36a4.64,4.64,0,0,0-7,4v40.71a4.64,4.64,0,0,0,7,4L792,173.3A4.64,4.64,0,0,0,792,165.27Z"/>
      <path class="eab8097e-85cc-4481-9f0f-36b941a735e1" d="M731.05,165.27l-35.27-20.36a4.64,4.64,0,0,0-7,4v40.71a4.64,4.64,0,0,0,7,4l35.27-20.36A4.64,4.64,0,0,0,731.05,165.27Z"/>
      <path class="b2c2edf7-22a5-46b4-a0e3-0ff9a6f759bb" d="M426.4,165.27l-35.26-20.36a4.64,4.64,0,0,0-7,4v40.71a4.64,4.64,0,0,0,7,4L426.4,173.3A4.63,4.63,0,0,0,426.4,165.27Z"/>
      <path class="a45cf196-d543-4bf2-9e67-fe2aef91c986" d="M365.47,165.27l-35.26-20.36a4.64,4.64,0,0,0-7,4v40.71a4.64,4.64,0,0,0,7,4l35.26-20.36A4.63,4.63,0,0,0,365.47,165.27Z"/>
      <path class="a77e96b3-5bb7-4848-97a7-3f2bd8911198" d="M304.55,165.27l-35.27-20.36a4.64,4.64,0,0,0-7,4v40.71a4.64,4.64,0,0,0,7,4l35.27-20.36A4.64,4.64,0,0,0,304.55,165.27Z"/>
      <path class="a77e96b3-5bb7-4848-97a7-3f2bd8911198" d="M670.12,165.27l-35.27-20.36a4.64,4.64,0,0,0-7,4v40.71a4.64,4.64,0,0,0,7,4l35.27-20.36A4.64,4.64,0,0,0,670.12,165.27Z"/>
      <path class="a45cf196-d543-4bf2-9e67-fe2aef91c986" d="M609.19,165.27l-35.26-20.36a4.64,4.64,0,0,0-7,4v40.71a4.64,4.64,0,0,0,7,4l35.26-20.36A4.64,4.64,0,0,0,609.19,165.27Z"/>
      <path class="b2c2edf7-22a5-46b4-a0e3-0ff9a6f759bb" d="M548.26,165.27,513,144.91a4.64,4.64,0,0,0-7,4v40.71a4.64,4.64,0,0,0,7,4l35.26-20.36A4.64,4.64,0,0,0,548.26,165.27Z"/>
      <path class="b70e5b7c-53ad-4427-a470-715b4d930d3c" d="M487.33,165.27l-35.26-20.36a4.64,4.64,0,0,0-7,4v40.71a4.64,4.64,0,0,0,7,4l35.26-20.36A4.63,4.63,0,0,0,487.33,165.27Z"/>
    </g>
  </g>
</svg>
