<svg id="af8717a1-7295-4b2e-a9f6-cc1a763cb28a" data-name="Layer 1" xmlns="http://www.w3.org/2000/svg" width="1140" height="531" viewBox="0 0 1140 531">
  <defs>
    <style>
      .b7e2f857-cc12-4bcc-8429-e7996059fd6f {
        fill: #fff8f2;
      }

      .b1d52fca-51ac-4351-bb2f-c457f8ef36da, .e6a030a0-5ef0-4914-b382-05a1042bb6bb, .f5581ed6-16e7-4722-8a30-cfde80b09511, .fa0f8ef9-9b94-4b00-8ead-4abaa015c067 {
        fill: none;
      }

      .b1d52fca-51ac-4351-bb2f-c457f8ef36da, .f0a643f5-561f-482b-845c-3cf35fde1992 {
        stroke: #f93;
      }

      .ac225f60-61dd-43a6-b4b1-6bda9de356cb, .f0a643f5-561f-482b-845c-3cf35fde1992, .fea9bdb3-6ca4-43b4-8f0e-149ae7aef6fe {
        fill: #fff;
      }

      .ba82b563-7626-4b81-8c42-f817de8d8dae {
        fill: #f6f5ff;
      }

      .f5581ed6-16e7-4722-8a30-cfde80b09511 {
        stroke: #635bff;
      }

      .e6a030a0-5ef0-4914-b382-05a1042bb6bb, .f5581ed6-16e7-4722-8a30-cfde80b09511, .fa0f8ef9-9b94-4b00-8ead-4abaa015c067, .fea9bdb3-6ca4-43b4-8f0e-149ae7aef6fe {
        stroke-miterlimit: 4;
        stroke-width: 1px;
      }

      .eabb0475-575c-40b0-b83e-bbf7ad25782c {
        fill: #eff7ff;
      }

      .fa0f8ef9-9b94-4b00-8ead-4abaa015c067 {
        stroke: #369aff;
      }

      .e6a030a0-5ef0-4914-b382-05a1042bb6bb {
        stroke: #15be53;
      }

      .fea9bdb3-6ca4-43b4-8f0e-149ae7aef6fe {
        stroke: #6c64ff;
      }

      .a98e692b-a603-45ff-91bf-6e78dd371955 {
        fill: #6c64ff;
      }
    </style>
  </defs>
  <g id="f7cbad35-0ebc-4e27-8093-1fc36fc744e7" data-name="Rectangle 28">
    <rect class="b7e2f857-cc12-4bcc-8429-e7996059fd6f" x="977.44" y="167.79" width="73" height="77" rx="4" transform="translate(457.99 1078.96) rotate(-69)"/>
    <rect class="b1d52fca-51ac-4351-bb2f-c457f8ef36da" x="977.94" y="168.29" width="72" height="76" rx="3.5" transform="translate(457.99 1078.96) rotate(-69)"/>
  </g>
  <g id="a93588f1-7935-40f2-988b-18a1717b7e06" data-name="Rectangle 32">
    <rect class="ac225f60-61dd-43a6-b4b1-6bda9de356cb" x="1013.93" y="196.14" width="8.03" height="32.91" rx="2" transform="translate(454.66 1086.74) rotate(-69)"/>
    <rect class="b1d52fca-51ac-4351-bb2f-c457f8ef36da" x="1014.43" y="196.64" width="7.03" height="31.91" rx="1.5" transform="translate(454.66 1086.74) rotate(-69)"/>
  </g>
  <g id="ee55abef-5537-40ae-ab3d-8fb383ce8d17" data-name="Rectangle 29">
    <rect class="ba82b563-7626-4b81-8c42-f817de8d8dae" x="52.45" y="414.26" width="77.04" height="73.04" rx="4" transform="translate(-46.8 12.04) rotate(-6.02)"/>
    <rect class="f5581ed6-16e7-4722-8a30-cfde80b09511" x="52.95" y="414.76" width="76.04" height="72.04" rx="3.5" transform="translate(-46.8 12.04) rotate(-6.02)"/>
  </g>
  <g id="a4bbb796-3e90-42ad-96c7-a124918188b9" data-name="Rectangle 30">
    <path class="eabb0475-575c-40b0-b83e-bbf7ad25782c" d="M1045.61,410.43h0A38.52,38.52,0,0,1,1088,444.7v.05a38.52,38.52,0,0,1-34.26,42.35h0a38.52,38.52,0,0,1-42.35-34.26v-.06A38.52,38.52,0,0,1,1045.61,410.43Z"/>
    <path class="fa0f8ef9-9b94-4b00-8ead-4abaa015c067" d="M1045.67,410.93h0a38,38,0,0,1,41.8,33.82v.05a38,38,0,0,1-33.82,41.8h0a38,38,0,0,1-41.8-33.82v0A38,38,0,0,1,1045.67,410.93Z"/>
  </g>
  <g id="a6e2eb98-c0fe-40ca-8b5f-5aa377beeaaa" data-name="Rectangle 31">
    <rect class="ac225f60-61dd-43a6-b4b1-6bda9de356cb" x="71.76" y="128.83" width="105.75" height="100.26" rx="20.01" transform="translate(-18.09 14.07) rotate(-6.02)"/>
    <rect class="e6a030a0-5ef0-4914-b382-05a1042bb6bb" x="72.26" y="129.33" width="104.75" height="99.26" rx="19.51" transform="translate(-18.09 14.07) rotate(-6.02)"/>
  </g>
  <path id="b0dceebb-1bec-48e2-89f6-543c899f0401" data-name="Path 1" class="fea9bdb3-6ca4-43b4-8f0e-149ae7aef6fe" d="M114.8,462.06,112,435.22a.4.4,0,0,0-.24-.32L87.28,424a.39.39,0,0,0-.39.05L65.62,439.53a.4.4,0,0,0,.07.69l11.8,5.25,10.82-7.87a.41.41,0,0,1,.4,0l12,5.34a.39.39,0,0,1,.23.32l1.41,13.31h0l-5.75,4.18-5.07,3.69a.41.41,0,0,1-.4,0l-12-5.34a.39.39,0,0,1-.23-.33l-1.41-13.3-10.82,7.88a.41.41,0,0,0-.16.36l1.38,13.07a.42.42,0,0,0,.24.32L92.58,478a.39.39,0,0,0,.39-.05l10.83-7.87,5.73,2.56a.41.41,0,0,0,.4-.05l10.26-7.46a.4.4,0,0,0,.09-.56.51.51,0,0,0-.16-.13Z"/>
  <g id="fdf86d2a-be00-472e-9bf3-5637580248ac" data-name="Group 1">
    <path id="a83ba841-e48c-47c4-bad5-35a9cd8d9105" data-name="Path 2" class="f0a643f5-561f-482b-845c-3cf35fde1992" d="M991.09,198c-.9-.34-1.17-1-1.89-1.75a2.67,2.67,0,0,1,1.54-4l12.35-5.5-5.5-12.36A2.91,2.91,0,0,1,999,170.8a3.19,3.19,0,0,1,4.31,1.36,3.73,3.73,0,0,1,.16.35l6.6,14.83a3.59,3.59,0,0,1-1.54,4L993.66,198A2.62,2.62,0,0,1,991.09,198Z"/>
  </g>
  <g id="b637118e-3785-4446-97b4-bea79980aaff" data-name="Rectangle 33">
    <path class="ac225f60-61dd-43a6-b4b1-6bda9de356cb" d="M1048.11,434.31h0a14.51,14.51,0,0,1,16,12.91v0a14.51,14.51,0,0,1-12.91,16h0a14.51,14.51,0,0,1-16-12.9v-.06A14.5,14.5,0,0,1,1048.11,434.31Z"/>
    <path class="fa0f8ef9-9b94-4b00-8ead-4abaa015c067" d="M1048.16,434.81h0a14,14,0,0,1,15.4,12.46v.05a14,14,0,0,1-12.46,15.4h0a14,14,0,0,1-15.4-12.46v-.05A14,14,0,0,1,1048.16,434.81Z"/>
  </g>
  <g id="ec6a5527-0605-40fc-8895-a27e5d18cd28" data-name="Polygon 1">
    <path class="ac225f60-61dd-43a6-b4b1-6bda9de356cb" d="M1033.09,351l-10.78,7.83a3.49,3.49,0,0,1-5.53-2.42l-1.57-13.5a3.49,3.49,0,0,1,4.93-3.59l12.35,5.67a3.49,3.49,0,0,1,.6,6Z"/>
    <path class="a98e692b-a603-45ff-91bf-6e78dd371955" d="M1016.92,340.07a3,3,0,0,0-1.22,2.77l1.58,13.5a3,3,0,0,0,4.74,2.08l10.78-7.83a3,3,0,0,0-.52-5.16l-12.35-5.66a2.94,2.94,0,0,0-3,.3m-.59-.81a4,4,0,0,1,4-.4l12.35,5.66a4,4,0,0,1,.69,6.87l-10.78,7.84a4,4,0,0,1-6.33-2.78L1014.71,343A4,4,0,0,1,1016.33,339.26Z"/>
  </g>
  <g id="ec2fd15f-38c3-4d75-8e1a-e6375f2aa411" data-name="Polygon 2">
    <path class="ac225f60-61dd-43a6-b4b1-6bda9de356cb" d="M233.57,75l-10.78,7.83a3.49,3.49,0,0,1-5.53-2.42l-1.58-13.5a3.5,3.5,0,0,1,4.94-3.59L233,69a3.5,3.5,0,0,1,.6,6Z"/>
    <path class="a98e692b-a603-45ff-91bf-6e78dd371955" d="M217.39,64.07a3,3,0,0,0-1.21,2.77l1.57,13.5a3,3,0,0,0,4.75,2.08l10.77-7.83a3,3,0,0,0-.51-5.16l-12.35-5.66a3,3,0,0,0-3,.3m-.58-.81a4,4,0,0,1,4-.4l12.35,5.66a4,4,0,0,1,.68,6.87l-10.78,7.84a4,4,0,0,1-6.32-2.78L215.18,67A4,4,0,0,1,216.81,63.26Z"/>
  </g>
  <g id="a64b6c13-6b1d-461f-9989-7a288228f7f2" data-name="Polygon 3">
    <path class="ac225f60-61dd-43a6-b4b1-6bda9de356cb" d="M637.57,395.63l-10.78,7.84a3.5,3.5,0,0,1-5.53-2.43l-1.58-13.5a3.5,3.5,0,0,1,4.94-3.58L637,389.62a3.5,3.5,0,0,1,.6,6Z"/>
    <path class="a98e692b-a603-45ff-91bf-6e78dd371955" d="M621.39,384.71a3,3,0,0,0-1.21,2.78L621.75,401a3,3,0,0,0,1.78,2.4,3,3,0,0,0,3-.32l10.77-7.83a3,3,0,0,0-.51-5.16l-12.35-5.66a3,3,0,0,0-3,.3m-.58-.81a4,4,0,0,1,4-.4l12.35,5.67a4,4,0,0,1,.68,6.87l-10.78,7.83a4,4,0,0,1-6.32-2.77l-1.58-13.5A4,4,0,0,1,620.81,383.9Z"/>
  </g>
  <g id="a22d7f68-5290-4def-a746-11d2e603863e" data-name="Polygon 4">
    <path class="ac225f60-61dd-43a6-b4b1-6bda9de356cb" d="M134.09,327.49l-10.78,7.83a3.49,3.49,0,0,1-5.53-2.42l-1.57-13.5a3.49,3.49,0,0,1,4.93-3.59l12.35,5.67a3.49,3.49,0,0,1,.6,6Z"/>
    <path class="a98e692b-a603-45ff-91bf-6e78dd371955" d="M117.92,316.57a3,3,0,0,0-1.22,2.77l1.58,13.5a3,3,0,0,0,4.74,2.08l10.78-7.83a3,3,0,0,0-.52-5.16l-12.35-5.66a2.94,2.94,0,0,0-3,.3m-.59-.81a4,4,0,0,1,4-.4L133.7,321a4,4,0,0,1,.69,6.87l-10.78,7.84a4,4,0,0,1-6.33-2.78l-1.57-13.49A4,4,0,0,1,117.33,315.76Z"/>
  </g>
  <g id="ea847a27-f507-4e4f-a437-2582509b3b6e" data-name="Polygon 5">
    <path class="ac225f60-61dd-43a6-b4b1-6bda9de356cb" d="M885.09,75l-10.78,7.83a3.49,3.49,0,0,1-5.53-2.42l-1.57-13.5a3.49,3.49,0,0,1,4.93-3.59L884.49,69a3.49,3.49,0,0,1,.6,6Z"/>
    <path class="a98e692b-a603-45ff-91bf-6e78dd371955" d="M868.92,64.07a3,3,0,0,0-1.22,2.77l1.58,13.5A3,3,0,0,0,874,82.42l10.78-7.83a3,3,0,0,0-.52-5.16l-12.35-5.66a2.94,2.94,0,0,0-3,.3m-.59-.81a4,4,0,0,1,4-.4l12.35,5.66a4,4,0,0,1,.69,6.87l-10.78,7.84a4,4,0,0,1-6.33-2.78L866.71,67A4,4,0,0,1,868.33,63.26Z"/>
  </g>
</svg>
