<svg id="f8acadc8-1dca-473c-be6a-48bf13b4f98a" data-name="Layer 1" xmlns="http://www.w3.org/2000/svg" width="1140" height="531" viewBox="0 0 1140 531">
  <defs>
    <style>
      .ac0076e8-a7d3-48fe-916d-503d7c74a86a {
        fill: #fff8f2;
      }

      .a64ce3c8-9174-4f41-8b12-8c01af4fb508, .afe3ee21-dcf1-4832-875b-257bebbf6441, .efc5519a-6867-430e-8dc6-e298f5cc0f4a {
        fill: none;
      }

      .afe3ee21-dcf1-4832-875b-257bebbf6441, .eec210b5-1bef-4663-a724-09ee46a005f3 {
        stroke: #f93;
      }

      .b833026c-fd35-42e5-8f82-664fb48b2606, .b9897a88-f486-4ff8-aff4-963763fb20c5, .eec210b5-1bef-4663-a724-09ee46a005f3, .f594954b-b6aa-40fa-813d-799fe90431b3 {
        fill: #fff;
      }

      .b7f9ebd6-b35b-42c8-8c54-c1dc0715f2b6 {
        fill: #deecf9;
      }

      .b7f9ebd6-b35b-42c8-8c54-c1dc0715f2b6, .b9897a88-f486-4ff8-aff4-963763fb20c5, .efc5519a-6867-430e-8dc6-e298f5cc0f4a {
        stroke: #369aff;
      }

      .a64ce3c8-9174-4f41-8b12-8c01af4fb508, .b2afb9e1-d5ef-4714-bc2c-2d6c6c903232, .b7f9ebd6-b35b-42c8-8c54-c1dc0715f2b6, .b833026c-fd35-42e5-8f82-664fb48b2606, .b9897a88-f486-4ff8-aff4-963763fb20c5, .efc5519a-6867-430e-8dc6-e298f5cc0f4a {
        stroke-miterlimit: 4;
        stroke-width: 1px;
      }

      .aee8d51b-0143-4e56-9727-0573d037dbe4 {
        fill: #eff7ff;
      }

      .aeb7179b-4fac-40a9-8860-0dab52c9e60d, .b2afb9e1-d5ef-4714-bc2c-2d6c6c903232 {
        fill: #f6f5ff;
      }

      .b2afb9e1-d5ef-4714-bc2c-2d6c6c903232 {
        stroke: #635bff;
      }

      .a64ce3c8-9174-4f41-8b12-8c01af4fb508, .b833026c-fd35-42e5-8f82-664fb48b2606 {
        stroke: #15be53;
      }

      .a304667b-b7e4-4bcf-aff0-6617d6f41a23 {
        fill: #6c64ff;
      }
    </style>
  </defs>
  <g id="a3da72fc-bda1-4167-8755-960aa3197097" data-name="Rectangle 28">
    <rect class="ac0076e8-a7d3-48fe-916d-503d7c74a86a" x="940.92" y="159.89" width="38.3" height="40.4" rx="2.1" transform="translate(447.88 1011.85) rotate(-69)"/>
    <rect class="afe3ee21-dcf1-4832-875b-257bebbf6441" x="941.18" y="160.15" width="37.78" height="39.88" rx="1.84" transform="translate(447.88 1011.85) rotate(-69)"/>
  </g>
  <g id="b79f9253-5dff-4b05-9a4d-858fc838411b" data-name="Rectangle 32">
    <rect class="f594954b-b6aa-40fa-813d-799fe90431b3" x="960.06" y="174.77" width="4.22" height="17.27" rx="1.05" transform="translate(446.14 1015.94) rotate(-69)"/>
    <rect class="afe3ee21-dcf1-4832-875b-257bebbf6441" x="960.32" y="175.03" width="3.69" height="16.74" rx="0.79" transform="translate(446.14 1015.94) rotate(-69)"/>
  </g>
  <g id="f0c5dded-cd96-438c-b303-28ed7f59a680" data-name="Rectangle 29">
    <rect class="b7f9ebd6-b35b-42c8-8c54-c1dc0715f2b6" x="94.25" y="391.05" width="48.91" height="46.37" rx="2.54" transform="translate(-115.43 52.49) rotate(-16.92)"/>
  </g>
  <g id="b4bae53c-f94f-40d6-b706-2a7912a74955" data-name="Rectangle 30">
    <path class="aee8d51b-0143-4e56-9727-0573d037dbe4" d="M972.9,199.57h0A11.74,11.74,0,0,1,985.8,210v0a11.73,11.73,0,0,1-10.44,12.9h0a11.73,11.73,0,0,1-12.9-10.44h0A11.74,11.74,0,0,1,972.9,199.57Z"/>
    <path class="efc5519a-6867-430e-8dc6-e298f5cc0f4a" d="M972.91,199.72h0A11.59,11.59,0,0,1,985.65,210v0a11.58,11.58,0,0,1-10.3,12.73h0a11.58,11.58,0,0,1-12.74-10.3v0A11.59,11.59,0,0,1,972.91,199.72Z"/>
  </g>
  <g id="bffd9047-baa6-4628-964b-ae75b8c7e5b0" data-name="Rectangle 31">
    <rect class="b2afb9e1-d5ef-4714-bc2c-2d6c6c903232" x="83.73" y="188.97" width="33.66" height="31.91" rx="6.37" transform="translate(-20.95 11.68) rotate(-6.02)"/>
    <rect class="b2afb9e1-d5ef-4714-bc2c-2d6c6c903232" x="83.89" y="189.12" width="33.34" height="31.59" rx="6.21" transform="translate(-20.95 11.68) rotate(-6.02)"/>
  </g>
  <path id="b285bee3-dc82-43d8-9398-9041247fbd52" data-name="Path 1" class="b9897a88-f486-4ff8-aff4-963763fb20c5" d="M134.91,418.4l-5-16.39a.23.23,0,0,0-.18-.17L113.19,398a.24.24,0,0,0-.24.08l-11.41,12.19a.25.25,0,0,0,0,.36.24.24,0,0,0,.11.06l8,1.86,5.8-6.21a.27.27,0,0,1,.24-.07l8.14,1.89a.24.24,0,0,1,.18.17l2.47,8.13h0l-3.08,3.29-2.72,2.91a.24.24,0,0,1-.24.07l-8.13-1.89a.25.25,0,0,1-.19-.17l-2.47-8.13-5.8,6.21a.28.28,0,0,0-.06.25l2.43,8a.29.29,0,0,0,.19.18L123,431a.28.28,0,0,0,.25-.07l5.8-6.21,3.88.9a.24.24,0,0,0,.24-.07l5.5-5.88a.25.25,0,0,0,0-.36.24.24,0,0,0-.11-.06Z"/>
  <g id="b1112387-49ee-4d79-969b-af8d125942d6" data-name="Group 1">
    <path id="b4bb0138-c5e4-4fb3-b9df-3dcfa673813e" data-name="Path 2" class="eec210b5-1bef-4663-a724-09ee46a005f3" d="M948.08,175.73c-.47-.17-.61-.5-1-.91a1.41,1.41,0,0,1,.44-1.95,1.73,1.73,0,0,1,.37-.16l6.48-2.89-2.89-6.48a1.52,1.52,0,0,1,.72-1.87,1.67,1.67,0,0,1,2.26.71,1.08,1.08,0,0,1,.08.19l3.47,7.77a1.87,1.87,0,0,1-.81,2.11l-7.78,3.46A1.36,1.36,0,0,1,948.08,175.73Z"/>
  </g>
  <g id="b2a46415-f116-4c8a-adcb-7ee3b851dfef" data-name="Polygon 1">
    <path class="a64ce3c8-9174-4f41-8b12-8c01af4fb508" d="M933.33,299.26a4,4,0,0,1,4-.4l12.35,5.66a4,4,0,0,1,.69,6.87l-10.78,7.84a4,4,0,0,1-6.33-2.78L931.71,303A4,4,0,0,1,933.33,299.26Z"/>
  </g>
  <g id="a321d091-ed05-457a-a185-69a613ae7231" data-name="Polygon 2">
    <path class="afe3ee21-dcf1-4832-875b-257bebbf6441" d="M202.34,84.64l-13-3.12a3.5,3.5,0,0,1-1.74-5.79l9.25-10a3.5,3.5,0,0,1,5.93,1.43l3.7,13.08a3.49,3.49,0,0,1-4.19,4.35Z"/>
  </g>
  <g id="b52306db-ea9f-49e4-bf6f-4d214bc004e6" data-name="Polygon 4">
    <path class="f594954b-b6aa-40fa-813d-799fe90431b3" d="M134.09,327.49l-10.78,7.83a3.49,3.49,0,0,1-5.53-2.42l-1.57-13.5a3.49,3.49,0,0,1,4.93-3.59l12.35,5.67a3.49,3.49,0,0,1,.6,6Z"/>
    <path class="a304667b-b7e4-4bcf-aff0-6617d6f41a23" d="M117.92,316.57a3,3,0,0,0-1.22,2.77l1.58,13.5a3,3,0,0,0,4.74,2.08l10.78-7.83a3,3,0,0,0-.52-5.16l-12.35-5.66a2.94,2.94,0,0,0-3,.3m-.59-.81a4,4,0,0,1,4-.4L133.7,321a4,4,0,0,1,.69,6.87l-10.78,7.84a4,4,0,0,1-6.33-2.78l-1.57-13.49A4,4,0,0,1,117.33,315.76Z"/>
  </g>
  <g id="f55d8267-456e-4155-8e7d-1da81f0e5fc2" data-name="Polygon 5">
    <path class="aeb7179b-4fac-40a9-8860-0dab52c9e60d" d="M924.09,86l-10.78,7.83a3.49,3.49,0,0,1-5.53-2.42l-1.57-13.5a3.49,3.49,0,0,1,4.93-3.59L923.49,80a3.49,3.49,0,0,1,.6,6Z"/>
    <path class="a304667b-b7e4-4bcf-aff0-6617d6f41a23" d="M907.92,75.07a3,3,0,0,0-1.22,2.77l1.58,13.5A3,3,0,0,0,913,93.42l10.78-7.83a3,3,0,0,0-.52-5.16l-12.35-5.66a2.94,2.94,0,0,0-3,.3m-.59-.81a4,4,0,0,1,4-.4l12.35,5.66a4,4,0,0,1,.69,6.87l-10.78,7.84a4,4,0,0,1-6.33-2.78L905.71,78A4,4,0,0,1,907.33,74.26Z"/>
  </g>
  <path class="b833026c-fd35-42e5-8f82-664fb48b2606" d="M86.36,105.59H81.91v-4.45a1.64,1.64,0,0,0-1.64-1.64H76.73a1.64,1.64,0,0,0-1.64,1.64v4.45H70.64A1.64,1.64,0,0,0,69,107.23v3.54a1.64,1.64,0,0,0,1.64,1.64h4.45v4.45a1.64,1.64,0,0,0,1.64,1.64h3.54a1.64,1.64,0,0,0,1.64-1.64v-4.45h4.45A1.64,1.64,0,0,0,88,110.77v-3.54A1.64,1.64,0,0,0,86.36,105.59Z"/>
  <path class="afe3ee21-dcf1-4832-875b-257bebbf6441" d="M274,465.63l-3.93-2.07,2.06-3.93a1.64,1.64,0,0,0-.69-2.22l-3.14-1.65a1.63,1.63,0,0,0-2.21.7l-2.07,3.93-3.93-2.06a1.64,1.64,0,0,0-2.22.69l-1.65,3.14a1.63,1.63,0,0,0,.7,2.21l3.93,2.07-2.06,3.93a1.64,1.64,0,0,0,.69,2.22l3.14,1.65a1.63,1.63,0,0,0,2.21-.7l2.07-3.93,3.93,2.06a1.64,1.64,0,0,0,2.22-.69l1.65-3.14A1.63,1.63,0,0,0,274,465.63Z"/>
  <path class="b7f9ebd6-b35b-42c8-8c54-c1dc0715f2b6" d="M934,446.63l-3.93-2.07,2.06-3.93a1.64,1.64,0,0,0-.69-2.22l-3.14-1.65a1.63,1.63,0,0,0-2.21.7l-2.07,3.93-3.93-2.06a1.64,1.64,0,0,0-2.22.69l-1.65,3.14a1.63,1.63,0,0,0,.7,2.21l3.93,2.07-2.06,3.93a1.64,1.64,0,0,0,.69,2.22l3.14,1.65a1.63,1.63,0,0,0,2.21-.7l2.07-3.93,3.93,2.06a1.64,1.64,0,0,0,2.22-.69l1.65-3.14A1.63,1.63,0,0,0,934,446.63Z"/>
  <g>
    <rect class="b833026c-fd35-42e5-8f82-664fb48b2606" x="109.34" y="204.28" width="29.25" height="35.72" rx="4.47" transform="translate(-83.31 74.66) rotate(-25.4)"/>
    <rect class="b833026c-fd35-42e5-8f82-664fb48b2606" x="108.44" y="209.58" width="20.56" height="3.01" rx="1.41" transform="translate(-79.08 71.34) rotate(-25.4)"/>
    <rect class="b833026c-fd35-42e5-8f82-664fb48b2606" x="111.17" y="215.34" width="20.56" height="3.01" rx="1.41" transform="translate(-81.28 73.07) rotate(-25.4)"/>
    <rect class="b833026c-fd35-42e5-8f82-664fb48b2606" x="113.91" y="221.1" width="20.56" height="3.01" rx="1.41" transform="translate(-83.49 74.8) rotate(-25.4)"/>
  </g>
  <rect class="b2afb9e1-d5ef-4714-bc2c-2d6c6c903232" x="999.06" y="343.8" width="39.82" height="13.76" rx="3.63" transform="translate(-57.43 402.1) rotate(-21.73)"/>
  <rect class="a64ce3c8-9174-4f41-8b12-8c01af4fb508" x="976.59" y="424.19" width="39.82" height="13.76" rx="3.63" transform="translate(-88.78 399.49) rotate(-21.73)"/>
  <path class="efc5519a-6867-430e-8dc6-e298f5cc0f4a" d="M1021.51,357.07l8.56,21.47a4.92,4.92,0,0,1-2.75,6.38L989.42,400a4.92,4.92,0,0,0-2.75,6.38L994,424.68"/>
</svg>
