<svg xmlns="http://www.w3.org/2000/svg" width="1990" height="640"><defs><pattern id="a" data-name="New Pattern" width="24.48" height="24.48" patternTransform="matrix(1 0 0 .98 379.2 -486.05)" patternUnits="userSpaceOnUse"><path fill="none" d="M0 0h24.48v24.48H0z"/><circle cx="12.24" cy="12.24" r="2.24" fill="#7f96a5"/></pattern></defs><g data-name="Layer 3"><path fill="#f5f9fb" d="M-3.5-5.09h1996.92v650.11H-3.5z"/><path opacity=".15" fill="url(#a)" d="M0 0h1990v640H0z"/></g><g data-name="abb6fa31-2e04-445e-9fd1-7671936e20d4"><path d="M340.7 136.51H334v-15.58h-16.71v15.58h-6.68v-35.66h6.68v15.34H334v-15.34h6.69zm15.83 6.96a2.43 2.43 0 01-.7 1 2.17 2.17 0 01-1.32.33H350l4.73-10.13-10.23-23.43h5.33a1.61 1.61 0 011.13.35 2.3 2.3 0 01.59.78l5.4 13.12a11.78 11.78 0 01.47 1.34c.13.46.25.92.35 1.38.13-.48.27-.94.43-1.38s.32-.9.51-1.36l5.08-13.1a1.81 1.81 0 011.67-1.13h4.89zm34.33-6.96a1.51 1.51 0 01-1.56-1.11l-.49-2.44a15.46 15.46 0 01-1.65 1.6 11 11 0 01-1.86 1.24 10 10 0 01-2.15.8 10.24 10.24 0 01-2.48.28 8.26 8.26 0 01-6.77-3.36 12 12 0 01-1.92-4.06 20.56 20.56 0 01-.68-5.53 17.2 17.2 0 01.77-5.22 12.9 12.9 0 012.19-4.2 10.31 10.31 0 013.43-2.77 9.85 9.85 0 014.49-1 8.79 8.79 0 013.62.68 9.64 9.64 0 012.69 1.81V99.87h6.09v36.64zm-8.12-4.46a6.16 6.16 0 003.23-.79 9.64 9.64 0 002.52-2.24v-11.35a6 6 0 00-2.26-1.78 6.72 6.72 0 00-2.62-.51 6 6 0 00-2.51.51 4.91 4.91 0 00-1.89 1.57 7.69 7.69 0 00-1.2 2.66 15.3 15.3 0 00-.42 3.81 16.91 16.91 0 00.36 3.77 7.56 7.56 0 001 2.51 4 4 0 001.63 1.41 5.31 5.31 0 002.16.43zm18.43 4.46v-25.3h3.57a1.87 1.87 0 011.31.35 1.94 1.94 0 01.49 1.18l.37 3.06a12 12 0 013.18-3.7 6.67 6.67 0 014.1-1.36 5.3 5.3 0 013.1.86l-.78 4.57a1 1 0 01-.33.63 1.08 1.08 0 01-.66.18 4.37 4.37 0 01-1-.17 6.6 6.6 0 00-1.7-.17 5.15 5.15 0 00-3.26 1 8.13 8.13 0 00-2.29 3.07v15.76zm39.26 0h-2.74a2.86 2.86 0 01-1.36-.26 1.67 1.67 0 01-.74-1l-.54-1.81a18.79 18.79 0 01-1.89 1.52 11.1 11.1 0 01-1.91 1.1 9.44 9.44 0 01-2.09.66 12.5 12.5 0 01-2.47.23 9.67 9.67 0 01-3-.44 6.52 6.52 0 01-2.33-1.29 6 6 0 01-1.52-2.16 7.67 7.67 0 01-.54-3 6 6 0 01.75-2.84 7.08 7.08 0 012.51-2.52 16 16 0 014.66-1.87 30 30 0 017.22-.74v-1.49a5.62 5.62 0 00-1.07-3.79 3.9 3.9 0 00-3.12-1.23 7.87 7.87 0 00-2.47.34 10.52 10.52 0 00-1.71.78c-.48.29-.93.55-1.34.78a2.75 2.75 0 01-1.36.34 1.73 1.73 0 01-1.06-.32 2.48 2.48 0 01-.72-.79l-1.1-1.94a15 15 0 0110.53-4 10.08 10.08 0 013.95.73 8.43 8.43 0 012.95 2 8.6 8.6 0 011.84 3.1 11.84 11.84 0 01.63 3.94zm-11.84-3.8a7.87 7.87 0 001.73-.17 6.4 6.4 0 001.49-.51 7.32 7.32 0 001.35-.83 11.68 11.68 0 001.32-1.18v-4.24a25 25 0 00-4.45.34 11.46 11.46 0 00-2.87.86 3.65 3.65 0 00-1.54 1.21 3.06 3.06 0 00.49 3.83 4.11 4.11 0 002.48.69zm26.14 4.2a6.64 6.64 0 01-5.06-1.87 7.15 7.15 0 01-1.77-5.14v-14.13h-2.57a1.22 1.22 0 01-.85-.32 1.2 1.2 0 01-.35-1v-2.42l4.07-.66 1.28-6.91a1.21 1.21 0 01.45-.76 1.46 1.46 0 01.9-.27H454v8h6.66v4.34H454v13.71a2.7 2.7 0 00.59 1.85 2 2 0 001.58.67 2.89 2.89 0 00.95-.14 5.42 5.42 0 00.67-.28l.5-.28a.88.88 0 01.45-.14.7.7 0 01.44.14 2.11 2.11 0 01.37.4l1.82 3a9.15 9.15 0 01-3.05 1.68 11.37 11.37 0 01-3.59.53zm18.18-33.07a3.41 3.41 0 01-.33 1.48 3.79 3.79 0 01-.85 1.2 4 4 0 01-1.24.83 3.77 3.77 0 01-1.53.31 3.59 3.59 0 01-1.49-.31 4 4 0 01-2.05-2 3.54 3.54 0 01-.31-1.48 3.7 3.7 0 01.31-1.53 4 4 0 01.83-1.24 3.85 3.85 0 011.22-.82 3.59 3.59 0 011.49-.31 3.77 3.77 0 011.53.31 3.94 3.94 0 011.24.82 3.86 3.86 0 01.85 1.24 3.56 3.56 0 01.33 1.5zm-.92 7.37v25.3h-6.09v-25.3zm6.88 25.3v-25.3h3.73a1.49 1.49 0 011.55 1.11l.42 2a13.41 13.41 0 011.61-1.43 10.85 10.85 0 011.81-1.11 9.05 9.05 0 012-.72 10.91 10.91 0 012.37-.25 9 9 0 013.67.71 7.28 7.28 0 012.68 2 8.83 8.83 0 011.63 3 12.92 12.92 0 01.55 3.89v16.1h-6.09v-16.1a5.43 5.43 0 00-1.07-3.59 4 4 0 00-3.22-1.27 6.32 6.32 0 00-3 .72 10.63 10.63 0 00-2.62 1.94v18.3zm36.8-25.74a13.67 13.67 0 013.06.33 10.67 10.67 0 012.61 1h7.27v2.27a1.24 1.24 0 01-.29.89 1.79 1.79 0 01-1 .44l-2.27.42a8.23 8.23 0 01.38 1.36 8.12 8.12 0 01.14 1.5 7.41 7.41 0 01-.76 3.39 7.62 7.62 0 01-2.07 2.58 9.42 9.42 0 01-3.13 1.64 12.74 12.74 0 01-3.93.58 14.19 14.19 0 01-2.79-.27 2 2 0 00-1.18 1.61 1.18 1.18 0 00.7 1.13 5.78 5.78 0 001.85.51 20.15 20.15 0 002.6.15c1 0 2 0 3 .13a22.51 22.51 0 013 .43 8.67 8.67 0 012.6 1 5.12 5.12 0 011.85 1.82 5.55 5.55 0 01.7 3 7 7 0 01-.82 3.27 8.92 8.92 0 01-2.39 2.82 12.64 12.64 0 01-3.84 2 16.47 16.47 0 01-5.18.75 19.9 19.9 0 01-5-.55 11.59 11.59 0 01-3.52-1.48 6.47 6.47 0 01-2.08-2.13 5 5 0 01-.69-2.52 4.3 4.3 0 011.08-3 7.43 7.43 0 013-1.93 4.07 4.07 0 01-1.5-1.38 4 4 0 01-.57-2.24 3.51 3.51 0 01.2-1.17 4.65 4.65 0 01.6-1.2 5.88 5.88 0 011-1.12 7.22 7.22 0 011.46-.95 8 8 0 01-3-2.76 7.4 7.4 0 01-1.1-4 7.41 7.41 0 012.85-6 9.58 9.58 0 013.18-1.64 13.45 13.45 0 013.98-.68zm6.68 26.8a1.76 1.76 0 00-.44-1.23 2.86 2.86 0 00-1.21-.74 8.35 8.35 0 00-1.79-.39 16.65 16.65 0 00-2.17-.13h-2.37a10.08 10.08 0 01-2.35-.27 5.69 5.69 0 00-1.67 1.34 2.78 2.78 0 00-.63 1.79 2.5 2.5 0 00.34 1.25 2.78 2.78 0 001.06 1 6.33 6.33 0 001.88.65 14.41 14.41 0 002.84.23 13.92 13.92 0 002.93-.26 7.11 7.11 0 002-.73A3.14 3.14 0 00522 139a2.72 2.72 0 00.35-1.43zm-6.68-14.33a5.87 5.87 0 002-.3 3.93 3.93 0 001.39-.85 3.6 3.6 0 00.84-1.31 4.78 4.78 0 00.29-1.68 4 4 0 00-1.13-3 5.7 5.7 0 00-6.73 0 4 4 0 00-1.12 3 4.69 4.69 0 00.28 1.65 3.64 3.64 0 00.84 1.32 3.83 3.83 0 001.41.87 5.85 5.85 0 001.93.3zm38.44-22.78a13.19 13.19 0 014.45.7 10.2 10.2 0 013.4 2 8.55 8.55 0 012.15 2.92 8.81 8.81 0 01.76 3.63 10.37 10.37 0 01-.39 3 6.69 6.69 0 01-2.88 3.89 11.12 11.12 0 01-2.38 1.11 9.26 9.26 0 014.78 3.08 8.36 8.36 0 011.58 5.2 10.66 10.66 0 01-1 4.71 10 10 0 01-2.66 3.44 11.49 11.49 0 01-3.88 2.11 15 15 0 01-4.68.72 15.94 15.94 0 01-4.68-.62 10.31 10.31 0 01-3.48-1.82 11.11 11.11 0 01-2.51-3 19.38 19.38 0 01-1.78-4l2.69-1.11a3.48 3.48 0 011.4-.29 2.41 2.41 0 011.15.27 1.8 1.8 0 01.78.79c.29.57.62 1.14 1 1.7a7 7 0 001.27 1.49 5.84 5.84 0 001.74 1.06 6.34 6.34 0 002.38.41 6.65 6.65 0 002.71-.51A6.05 6.05 0 00558 130a5.38 5.38 0 001.16-1.81 5.72 5.72 0 00.38-2 9.32 9.32 0 00-.27-2.33 3.42 3.42 0 00-1.14-1.79 6.18 6.18 0 00-2.47-1.16 17.87 17.87 0 00-4.33-.42v-4.36a14.43 14.43 0 003.72-.4 6.47 6.47 0 002.36-1.09 3.79 3.79 0 001.22-1.69 6.54 6.54 0 00.34-2.17 5 5 0 00-1.38-3.84 5.31 5.31 0 00-3.77-1.29 5.58 5.58 0 00-3.6 1.14 6 6 0 00-2 3 2.74 2.74 0 01-.81 1.34 2.16 2.16 0 01-1.36.4 5.09 5.09 0 01-.84-.07l-3.2-.56a13 13 0 011.43-4.5 10.66 10.66 0 012.65-3.23 11 11 0 013.65-2 14.67 14.67 0 014.37-.71zm36.43 22.61H595v3.53a1.21 1.21 0 01-.33.85 1.17 1.17 0 01-.93.36h-3.23v8.7h-5.33v-8.7h-15a1.66 1.66 0 01-1.09-.39 1.64 1.64 0 01-.59-.94l-.62-3.09 16.9-22.56h5.77zm-5.33-11.66v-1.7c0-.6.09-1.25.17-1.9l-11.07 15.26h10.85zm38.08 7.27a29.4 29.4 0 01-1 8.1 16.78 16.78 0 01-2.76 5.69 11.27 11.27 0 01-4.17 3.34 12.39 12.39 0 01-5.19 1.1 12.23 12.23 0 01-5.17-1.1 11.15 11.15 0 01-4.13-3.34 16.58 16.58 0 01-2.74-5.69 34 34 0 010-16.21 16.47 16.47 0 012.74-5.67 11.06 11.06 0 014.13-3.34 12.08 12.08 0 015.17-1.1 12.24 12.24 0 015.19 1.1 11.18 11.18 0 014.17 3.34 16.67 16.67 0 012.76 5.67 29.37 29.37 0 011 8.11zm-6.29 0a30 30 0 00-.57-6.41 12.75 12.75 0 00-1.52-4 5.46 5.46 0 00-2.18-2.11 5.67 5.67 0 00-2.56-.61 5.55 5.55 0 00-2.53.61 5.48 5.48 0 00-2.16 2.11 13 13 0 00-1.49 4 37 37 0 000 12.82 13 13 0 001.49 4 5.26 5.26 0 004.69 2.71 5.79 5.79 0 002.56-.6 5.6 5.6 0 002.18-2.11 12.72 12.72 0 001.52-4 30 30 0 00.57-6.41zm20.29 26.09v-33.56H641a1.84 1.84 0 011 .27 1.25 1.25 0 01.54.84l.49 2.34a12.76 12.76 0 013.52-2.83 9.46 9.46 0 014.65-1.09 8.34 8.34 0 013.78.86 8.43 8.43 0 013 2.51 12.14 12.14 0 011.93 4 20.43 20.43 0 01.67 5.51 17.37 17.37 0 01-.76 5.26 12.92 12.92 0 01-2.18 4.19 10.1 10.1 0 01-3.43 2.77 9.92 9.92 0 01-4.5 1 8.37 8.37 0 01-6.32-2.46v10.35zm11.84-29.22a6.23 6.23 0 00-3.24.8 9.57 9.57 0 00-2.51 2.26V130a5.82 5.82 0 002.26 1.79 6.74 6.74 0 002.63.51 6 6 0 002.5-.52 4.88 4.88 0 001.9-1.58 7.8 7.8 0 001.2-2.68 15.7 15.7 0 00.41-3.81 16.87 16.87 0 00-.35-3.76 7.21 7.21 0 00-1-2.5 4.08 4.08 0 00-1.61-1.41 5.11 5.11 0 00-2.19-.49zm16.05 20.96v-25.3h3.58a1.87 1.87 0 011.31.35 2 2 0 01.49 1.18l.37 3.06a11.91 11.91 0 013.18-3.7 6.67 6.67 0 014.1-1.36 5.32 5.32 0 013.1.86l-.79 4.57a1 1 0 01-.32.63 1.08 1.08 0 01-.66.18 4.29 4.29 0 01-1-.17 6.63 6.63 0 00-1.71-.17 5.14 5.14 0 00-3.25 1 8.13 8.13 0 00-2.29 3.07v15.76zm30.95-25.7a13.89 13.89 0 015.15.92 11.18 11.18 0 013.93 2.59 11.42 11.42 0 012.51 4.09 16.92 16.92 0 010 10.83 11.82 11.82 0 01-2.51 4.12 11.09 11.09 0 01-3.93 2.61 15 15 0 01-10.3 0 11.12 11.12 0 01-4-2.61 11.88 11.88 0 01-2.54-4.12 16.74 16.74 0 010-10.83 11.48 11.48 0 012.54-4.09 11.21 11.21 0 014-2.59 13.93 13.93 0 015.15-.92zm0 21.39a5.37 5.37 0 004.68-2.12 10.68 10.68 0 001.51-6.22 10.77 10.77 0 00-1.51-6.24 5.34 5.34 0 00-4.68-2.14 5.42 5.42 0 00-4.73 2.15 10.71 10.71 0 00-1.53 6.23 10.57 10.57 0 001.53 6.2 5.42 5.42 0 004.73 2.14zm35.05 4.31a1.51 1.51 0 01-1.56-1.11l-.49-2.44a15.46 15.46 0 01-1.65 1.6 11 11 0 01-1.86 1.24 10 10 0 01-2.15.8 10.24 10.24 0 01-2.48.28 8.26 8.26 0 01-6.77-3.36 12 12 0 01-1.92-4.06 20.56 20.56 0 01-.68-5.53 17.2 17.2 0 01.77-5.22 12.9 12.9 0 012.19-4.2 10.31 10.31 0 013.43-2.77 9.85 9.85 0 014.49-1 8.79 8.79 0 013.62.68 9.64 9.64 0 012.69 1.81V99.87h6.09v36.64zm-8.12-4.46a6.16 6.16 0 003.23-.79 9.64 9.64 0 002.52-2.24v-11.35a6 6 0 00-2.26-1.78 6.72 6.72 0 00-2.62-.51 6 6 0 00-2.51.51 4.91 4.91 0 00-1.89 1.57 7.69 7.69 0 00-1.2 2.66 15.3 15.3 0 00-.42 3.81 16.91 16.91 0 00.36 3.77 7.56 7.56 0 001 2.51 4 4 0 001.63 1.41 5.31 5.31 0 002.16.43zm24-20.84v16.08a5.45 5.45 0 001.07 3.59 4 4 0 003.22 1.27 6.43 6.43 0 003-.71 10.12 10.12 0 002.61-1.93v-18.3H763v25.3h-3.73a1.49 1.49 0 01-1.55-1.11l-.42-2a16.65 16.65 0 01-1.63 1.44 9.21 9.21 0 01-1.79 1.11 9.47 9.47 0 01-2 .72 10.47 10.47 0 01-2.36.26 9 9 0 01-3.66-.71 7.36 7.36 0 01-2.68-2 8.77 8.77 0 01-1.64-3.05 12.86 12.86 0 01-.55-3.88v-16.08zm40.25 5.35a3 3 0 01-.53.54 1.21 1.21 0 01-.76.2 1.67 1.67 0 01-.91-.28c-.29-.19-.65-.41-1.06-.64a7.79 7.79 0 00-1.47-.65 7 7 0 00-2.1-.28 6.43 6.43 0 00-2.82.58 5.4 5.4 0 00-2 1.67 7.44 7.44 0 00-1.19 2.62 13.78 13.78 0 00-.4 3.49 14 14 0 00.43 3.6 7.76 7.76 0 001.25 2.65 5.31 5.31 0 002 1.63 6 6 0 002.62.56 6.41 6.41 0 002.35-.36 7.41 7.41 0 001.52-.79c.41-.29.77-.55 1.07-.79a1.64 1.64 0 011-.36 1.24 1.24 0 011.11.57l1.75 2.22a11 11 0 01-2.2 2 11.76 11.76 0 01-2.45 1.29 12.53 12.53 0 01-2.63.67 17.49 17.49 0 01-2.69.2 11.27 11.27 0 01-4.41-.87 10.31 10.31 0 01-3.61-2.56 12.16 12.16 0 01-2.45-4.1 17.21 17.21 0 01-.09-10.71 11.59 11.59 0 012.35-4.11 10.87 10.87 0 013.85-2.73 13.23 13.23 0 015.28-1 12.47 12.47 0 015 .92 12.23 12.23 0 013.84 2.61zm14.05 20.35a6.62 6.62 0 01-5.05-1.87 7.11 7.11 0 01-1.78-5.14v-14.13H792a1.19 1.19 0 01-.85-.32 1.21 1.21 0 01-.36-1v-2.42l4.07-.66 1.28-6.91a1.22 1.22 0 01.46-.76 1.42 1.42 0 01.9-.27h3.15v8h6.66v4.34h-6.66v13.71a2.7 2.7 0 00.59 1.85 2 2 0 001.58.67 2.84 2.84 0 001-.14 4.84 4.84 0 00.67-.28c.19-.1.36-.19.5-.28a.88.88 0 01.45-.14.68.68 0 01.44.14 1.83 1.83 0 01.37.4l1.83 3a9.3 9.3 0 01-3.06 1.68 11.32 11.32 0 01-3.66.53zm18.18-33.07a3.55 3.55 0 01-.32 1.48 4.06 4.06 0 01-2.1 2 3.77 3.77 0 01-1.53.31 3.62 3.62 0 01-1.49-.31 4 4 0 01-2.05-2 3.7 3.7 0 01-.31-1.48 3.87 3.87 0 01.31-1.53 4 4 0 01.83-1.24 3.85 3.85 0 011.22-.82 3.62 3.62 0 011.49-.31 3.77 3.77 0 011.53.31 4.11 4.11 0 011.25.82 4.2 4.2 0 01.85 1.24 3.71 3.71 0 01.32 1.53zm-.91 7.37v25.3h-6.1v-25.3zm17.68-.4a13.84 13.84 0 015.14.92 11 11 0 013.93 2.59 11.3 11.3 0 012.52 4.09 16.92 16.92 0 010 10.83 11.69 11.69 0 01-2.52 4.12 10.92 10.92 0 01-3.93 2.61 13.83 13.83 0 01-5.14.91 14 14 0 01-5.16-.91 11.08 11.08 0 01-3.95-2.61 11.76 11.76 0 01-2.55-4.12 16.74 16.74 0 010-10.83 11.36 11.36 0 012.55-4.09 11.17 11.17 0 013.95-2.59 14 14 0 015.16-.92zm0 21.39a5.36 5.36 0 004.67-2.12 10.67 10.67 0 001.52-6.22 10.76 10.76 0 00-1.52-6.24 5.33 5.33 0 00-4.67-2.14 5.43 5.43 0 00-4.74 2.15 10.71 10.71 0 00-1.53 6.23 10.57 10.57 0 001.53 6.2 5.42 5.42 0 004.74 2.14zm17.24 4.31v-25.3h3.72a1.49 1.49 0 011.55 1.11l.42 2a12.76 12.76 0 011.62-1.43 10.37 10.37 0 011.8-1.11 9.05 9.05 0 012-.72 11 11 0 012.37-.25 9 9 0 013.67.71 7.28 7.28 0 012.68 2 8.83 8.83 0 011.63 3 12.92 12.92 0 01.55 3.89v16.1h-6.06v-16.1a5.43 5.43 0 00-1.07-3.59 4 4 0 00-3.22-1.27 6.32 6.32 0 00-3 .72 10.41 10.41 0 00-2.61 1.94v18.3zm48.36-25.7a13.84 13.84 0 015.14.92 11.09 11.09 0 013.93 2.59 11.44 11.44 0 012.52 4.09 17.1 17.1 0 010 10.83 11.84 11.84 0 01-2.52 4.12 11 11 0 01-3.93 2.61 15 15 0 01-10.3 0 11.21 11.21 0 01-4-2.61 11.88 11.88 0 01-2.54-4.12 16.74 16.74 0 010-10.83 11.48 11.48 0 012.54-4.09 11.3 11.3 0 014-2.59 13.94 13.94 0 015.16-.92zm0 21.39a5.36 5.36 0 004.67-2.12 10.67 10.67 0 001.52-6.22 10.76 10.76 0 00-1.52-6.24 5.33 5.33 0 00-4.67-2.14 5.43 5.43 0 00-4.74 2.15 10.71 10.71 0 00-1.53 6.23 10.57 10.57 0 001.53 6.2 5.42 5.42 0 004.74 2.14zm17.23 4.31v-25.3h3.58a1.89 1.89 0 011.31.35 2 2 0 01.49 1.18l.37 3.06a11.78 11.78 0 013.18-3.7 6.66 6.66 0 014.09-1.36 5.33 5.33 0 013.11.86l-.79 4.57a1 1 0 01-.32.63 1.08 1.08 0 01-.66.18 4.29 4.29 0 01-1-.17 6.63 6.63 0 00-1.71-.17 5.14 5.14 0 00-3.25 1 8 8 0 00-2.29 3.07v15.76zm37.96 0a1.51 1.51 0 01-1.56-1.11l-.49-2.44a15.46 15.46 0 01-1.65 1.6 11 11 0 01-1.86 1.24 9.85 9.85 0 01-4.63 1.08 8.23 8.23 0 01-6.77-3.36 12 12 0 01-1.92-4.06 20.56 20.56 0 01-.68-5.53 17.51 17.51 0 01.76-5.22 12.92 12.92 0 012.2-4.2 10.31 10.31 0 013.43-2.77 9.85 9.85 0 014.49-1 8.79 8.79 0 013.62.68 9.64 9.64 0 012.69 1.81V99.87h6.09v36.64zm-8.1-4.46a6.16 6.16 0 003.23-.79 9.64 9.64 0 002.52-2.24v-11.35a6 6 0 00-2.26-1.78 6.72 6.72 0 00-2.62-.51 6 6 0 00-2.51.51 5 5 0 00-1.9 1.57 7.88 7.88 0 00-1.19 2.66 15.3 15.3 0 00-.42 3.81 16.91 16.91 0 00.36 3.77 7.35 7.35 0 001 2.51 3.91 3.91 0 001.63 1.41 5.28 5.28 0 002.16.43zm28.86-21.24a12.25 12.25 0 014.4.77 9.64 9.64 0 013.47 2.23 10.34 10.34 0 012.27 3.6 13.66 13.66 0 01.81 4.87 9.07 9.07 0 01-.06 1.15 1.92 1.92 0 01-.22.71.85.85 0 01-.43.37 1.78 1.78 0 01-.69.12h-15.64q.27 3.88 2.1 5.72a6.53 6.53 0 004.83 1.82 8.33 8.33 0 002.55-.34 12 12 0 001.88-.77c.53-.28 1-.53 1.4-.76a2.38 2.38 0 011.17-.35 1.36 1.36 0 01.65.15 1.41 1.41 0 01.46.42l1.78 2.22a10.1 10.1 0 01-2.27 2 12.33 12.33 0 01-2.63 1.29 14.25 14.25 0 01-2.78.67 18.75 18.75 0 01-2.75.2 13.59 13.59 0 01-4.91-.87 11.16 11.16 0 01-4-2.59 12.34 12.34 0 01-2.63-4.24 16.25 16.25 0 01-1-5.86 14 14 0 01.84-4.87 11.59 11.59 0 012.41-4 11.21 11.21 0 013.82-2.68 12.53 12.53 0 015.17-.98zm.12 4.37a5.63 5.63 0 00-4.16 1.5 7.42 7.42 0 00-1.93 4.27h11.45a7.71 7.71 0 00-.32-2.23 5.36 5.36 0 00-1-1.84 4.61 4.61 0 00-1.68-1.24 5.6 5.6 0 00-2.34-.46zm15.79 21.33v-25.3h3.57a1.87 1.87 0 011.31.35 1.94 1.94 0 01.49 1.18l.37 3.06a12 12 0 013.18-3.7 6.69 6.69 0 014.1-1.36 5.35 5.35 0 013.11.86l-.79 4.57a1 1 0 01-.32.63 1.13 1.13 0 01-.67.18 4.37 4.37 0 01-1-.17 6.6 6.6 0 00-1.7-.17 5.17 5.17 0 00-3.26 1 8.13 8.13 0 00-2.29 3.07v15.76zm30.75 0V115.8l-2.2-.35a2.34 2.34 0 01-1.14-.49 1.29 1.29 0 01-.43-1v-2.49h3.77v-.81a11.91 11.91 0 01.76-4.31 9.27 9.27 0 012.32-3.44 10.9 10.9 0 013.92-2.28 17.08 17.08 0 015.6-.82 19.19 19.19 0 012.12.11 9 9 0 011.88.36l-.2 3.15a.69.69 0 01-.62.68 7.78 7.78 0 01-1.4.11 16.22 16.22 0 00-4 .42 6.74 6.74 0 00-2.62 1.25 4.64 4.64 0 00-1.43 2.07 9 9 0 00-.43 2.89v.62h15.69v25.08H1040v-20.78h-9.4v20.74zm43.58-20.37a1.78 1.78 0 01-.52.56 1.41 1.41 0 01-.69.16 2.21 2.21 0 01-1-.25l-1.17-.55a11.06 11.06 0 00-1.52-.56 7.46 7.46 0 00-2-.25 4.69 4.69 0 00-2.84.77 2.36 2.36 0 00-1 2 1.89 1.89 0 00.53 1.37 4.93 4.93 0 001.4 1 13.82 13.82 0 002 .75c.74.22 1.49.47 2.27.73a23.28 23.28 0 012.27.9 7.83 7.83 0 012 1.28 5.62 5.62 0 011.94 4.48 8.26 8.26 0 01-.67 3.36 7.32 7.32 0 01-1.95 2.67 9.21 9.21 0 01-3.17 1.75 14.6 14.6 0 01-6.88.39 14.51 14.51 0 01-2.39-.65 13.33 13.33 0 01-2.12-1 10.42 10.42 0 01-1.71-1.23l1.4-2.32a2.05 2.05 0 01.64-.64 1.79 1.79 0 01.94-.22 2 2 0 011.07.32c.34.21.73.44 1.18.69a9.56 9.56 0 001.56.69 7 7 0 002.28.32 5.92 5.92 0 001.86-.26 3.93 3.93 0 001.29-.68 2.65 2.65 0 00.74-1 3 3 0 00.23-1.15 2.05 2.05 0 00-.53-1.45 4.6 4.6 0 00-1.4-1 13.53 13.53 0 00-2-.75c-.75-.22-1.52-.47-2.3-.73a21.46 21.46 0 01-2.29-.92 8.17 8.17 0 01-2-1.35 6 6 0 01-1.4-2 6.83 6.83 0 01-.53-2.86 7.33 7.33 0 01.61-3 7 7 0 011.82-2.45 8.92 8.92 0 013-1.68 12.4 12.4 0 014.13-.63 12.57 12.57 0 014.76.87 10.71 10.71 0 013.58 2.27zm6.53 20.37V99.87h6.09V114a12.66 12.66 0 013.26-2.27 9.34 9.34 0 014.16-.87 9 9 0 013.68.71 7.28 7.28 0 012.68 2 8.81 8.81 0 011.62 3 12.92 12.92 0 01.56 3.89v16.1h-6.09v-16.1a5.38 5.38 0 00-1.08-3.59 3.94 3.94 0 00-3.21-1.27 6.29 6.29 0 00-3 .72 10.27 10.27 0 00-2.62 1.94v18.3zm38.5-25.7a12.29 12.29 0 014.4.77 9.6 9.6 0 013.46 2.23 10.2 10.2 0 012.27 3.6 13.66 13.66 0 01.82 4.87 7.35 7.35 0 01-.07 1.15 1.75 1.75 0 01-.22.71.82.82 0 01-.43.37 1.71 1.71 0 01-.69.12H1107c.19 2.59.88 4.5 2.1 5.72a6.57 6.57 0 004.84 1.82 8.42 8.42 0 002.55-.34 11.86 11.86 0 001.87-.77c.54-.28 1-.53 1.41-.76a2.35 2.35 0 011.23-.3 1.29 1.29 0 01.64.15 1.44 1.44 0 01.47.42l1.77 2.22a10.05 10.05 0 01-2.26 2A12.57 12.57 0 011119 136a14.18 14.18 0 01-2.79.67 18.65 18.65 0 01-2.75.2 13.63 13.63 0 01-4.91-.87 11.12 11.12 0 01-3.94-2.59 12.21 12.21 0 01-2.64-4.24 16.48 16.48 0 01-1-5.86 14 14 0 01.84-4.87 11.73 11.73 0 012.4-4 11.4 11.4 0 013.82-2.68 12.61 12.61 0 015.1-.95zm.12 4.37a5.64 5.64 0 00-4.17 1.5 7.48 7.48 0 00-1.92 4.27h11.44a7.71 7.71 0 00-.32-2.23 5 5 0 00-1-1.84 4.65 4.65 0 00-1.67-1.24 5.66 5.66 0 00-2.36-.46zm30.8.96a1.68 1.68 0 01-.52.56 1.41 1.41 0 01-.69.16 2.28 2.28 0 01-.95-.25c-.33-.16-.72-.35-1.17-.55a10.9 10.9 0 00-1.51-.56 7.46 7.46 0 00-2-.25 4.67 4.67 0 00-2.84.77 2.37 2.37 0 00-1 2 1.93 1.93 0 00.53 1.37 5.14 5.14 0 001.41 1 13.24 13.24 0 002 .75c.74.22 1.5.47 2.27.73a22.32 22.32 0 012.27.9 8.07 8.07 0 012 1.28 6 6 0 011.4 1.86 5.86 5.86 0 01.53 2.62 8.43 8.43 0 01-.66 3.36 7.56 7.56 0 01-2 2.67 9.3 9.3 0 01-3.17 1.75 13.66 13.66 0 01-4.33.63 13.44 13.44 0 01-2.55-.24 14.24 14.24 0 01-2.39-.65 12.93 12.93 0 01-2.12-1 11 11 0 01-1.72-1.23l1.41-2.32a2 2 0 01.64-.64 1.79 1.79 0 01.94-.22 2 2 0 011.07.32l1.17.69a10.1 10.1 0 001.57.69 7 7 0 002.28.32 6 6 0 001.86-.26 3.78 3.78 0 001.28-.68 2.45 2.45 0 00.74-1 2.86 2.86 0 00.24-1.15 2.05 2.05 0 00-.53-1.45 4.78 4.78 0 00-1.41-1 13.12 13.12 0 00-2-.75 66.4 66.4 0 01-2.29-.73 20.65 20.65 0 01-2.29-.92 8 8 0 01-2-1.35 6.22 6.22 0 01-1.41-2 7 7 0 01-.53-2.86 7.34 7.34 0 01.62-3 7 7 0 011.81-2.45 9 9 0 013-1.68 12.36 12.36 0 014.13-.63 12.57 12.57 0 014.76.87 10.56 10.56 0 013.57 2.27zm23.45-12.3a3.4 3.4 0 01-.32 1.48 4 4 0 01-.85 1.2 4.09 4.09 0 01-1.24.83 3.77 3.77 0 01-1.53.31 3.55 3.55 0 01-1.49-.31 4 4 0 01-1.23-.83 3.88 3.88 0 01-.82-1.2 3.54 3.54 0 01-.31-1.48 3.7 3.7 0 01.31-1.53 3.94 3.94 0 01.82-1.24 4 4 0 011.23-.82 3.55 3.55 0 011.49-.31 3.77 3.77 0 011.53.31 3.9 3.9 0 012.09 2.06 3.56 3.56 0 01.32 1.53zm-.91 7.37v25.3h-6.09v-25.3zm6.88 25.3v-25.3h3.72a1.51 1.51 0 011.56 1.11l.42 2a13.41 13.41 0 011.61-1.43 11.18 11.18 0 011.8-1.11 9.13 9.13 0 012-.72 10.91 10.91 0 012.37-.25 9 9 0 013.67.71 7.28 7.28 0 012.68 2 8.81 8.81 0 011.62 3 12.92 12.92 0 01.56 3.89v16.1h-6.09v-16.1a5.38 5.38 0 00-1.08-3.59 3.94 3.94 0 00-3.21-1.27 6.29 6.29 0 00-3 .72 10.45 10.45 0 00-2.62 1.94v18.3zm57.39 0h-2.74a2.86 2.86 0 01-1.36-.26 1.67 1.67 0 01-.74-1l-.54-1.81a18.79 18.79 0 01-1.89 1.52 11.1 11.1 0 01-1.91 1.1 9.44 9.44 0 01-2.09.66 12.5 12.5 0 01-2.47.23 9.67 9.67 0 01-3-.44 6.52 6.52 0 01-2.33-1.29 6 6 0 01-1.52-2.16 7.67 7.67 0 01-.54-3 6 6 0 01.75-2.84 7.17 7.17 0 012.51-2.52 16 16 0 014.66-1.87 30 30 0 017.22-.74v-1.49a5.62 5.62 0 00-1.07-3.79 3.9 3.9 0 00-3.12-1.23 7.8 7.8 0 00-2.46.34 10.26 10.26 0 00-1.72.78c-.48.29-.93.55-1.34.78a2.75 2.75 0 01-1.36.34 1.73 1.73 0 01-1.06-.32 2.34 2.34 0 01-.71-.79l-1.11-1.94a15 15 0 0110.53-4 10 10 0 014 .73 8.34 8.34 0 013 2 8.6 8.6 0 011.84 3.1 11.84 11.84 0 01.63 3.94zm-11.84-3.8a7.87 7.87 0 001.73-.17 6.4 6.4 0 001.49-.51 7.32 7.32 0 001.35-.83 11.68 11.68 0 001.32-1.18v-4.24a25 25 0 00-4.45.34 11.46 11.46 0 00-2.87.86 3.65 3.65 0 00-1.54 1.21 3.06 3.06 0 00.49 3.83 4.11 4.11 0 002.46.69zm42.37-16.57a1.78 1.78 0 01-.52.56 1.41 1.41 0 01-.69.16 2.24 2.24 0 01-1-.25l-1.17-.55a11.06 11.06 0 00-1.52-.56 7.46 7.46 0 00-2-.25 4.66 4.66 0 00-2.83.77 2.37 2.37 0 00-1 2 1.93 1.93 0 00.53 1.37 4.85 4.85 0 001.41 1 13.24 13.24 0 002 .75c.74.22 1.5.47 2.27.73a23.28 23.28 0 012.27.9 7.83 7.83 0 012 1.28 5.88 5.88 0 011.41 1.86 6 6 0 01.53 2.62 8.26 8.26 0 01-.67 3.36 7.41 7.41 0 01-1.94 2.67 9.4 9.4 0 01-3.17 1.75 13.66 13.66 0 01-4.33.63 13.44 13.44 0 01-2.55-.24 14.62 14.62 0 01-2.4-.65 13.33 13.33 0 01-2.12-1 10.42 10.42 0 01-1.71-1.23l1.4-2.32a2.08 2.08 0 01.65-.64 1.76 1.76 0 01.93-.22 2 2 0 011.08.32q.49.31 1.17.69a9.56 9.56 0 001.56.69 7 7 0 002.28.32 6 6 0 001.87-.26 4 4 0 001.28-.68 2.55 2.55 0 00.74-1 3 3 0 00.23-1.15 2 2 0 00-.53-1.45 4.6 4.6 0 00-1.4-1 13.53 13.53 0 00-2-.75 66.4 66.4 0 01-2.29-.73 21.62 21.62 0 01-2.3-.92 8.17 8.17 0 01-2-1.35 6 6 0 01-1.4-2 7 7 0 01-.53-2.86 7.18 7.18 0 01.62-3 7 7 0 011.81-2.45 9 9 0 013-1.68 12.4 12.4 0 014.13-.63 12.53 12.53 0 014.76.87 10.71 10.71 0 013.58 2.27zm3.45-4.93h4.83a2 2 0 011.16.32 1.38 1.38 0 01.59.81l3.63 13.52c.2.74.36 1.46.48 2.17l.36 2.12c.18-.71.37-1.41.58-2.12s.42-1.43.65-2.17l4.19-13.57a1.54 1.54 0 01.6-.81 1.73 1.73 0 011-.32h2.69a1.89 1.89 0 011.11.32 1.57 1.57 0 01.59.81l4.14 13.81c.22.71.41 1.4.58 2.06s.34 1.34.51 2c.11-.7.24-1.41.38-2.12s.32-1.44.53-2.19l3.75-13.52a1.38 1.38 0 01.59-.81 1.92 1.92 0 011.09-.32h4.61l-8 25.3h-4.9q-.79 0-1.14-1.08l-4.56-14.63c-.15-.47-.28-1-.41-1.44s-.22-1-.31-1.44c-.09.49-.2 1-.32 1.47s-.24 1-.39 1.46l-4.61 14.58a1.34 1.34 0 01-1.33 1.08h-4.67zm61.92 25.3H1324a2.86 2.86 0 01-1.36-.26 1.64 1.64 0 01-.74-1l-.54-1.81a18.79 18.79 0 01-1.89 1.52 11.49 11.49 0 01-1.91 1.1 9.7 9.7 0 01-2.1.66 12.4 12.4 0 01-2.46.23 9.62 9.62 0 01-3-.44 6.44 6.44 0 01-2.33-1.29 5.91 5.91 0 01-1.52-2.16 7.67 7.67 0 01-.54-3 6 6 0 01.75-2.84 7.13 7.13 0 012.5-2.52 16.11 16.11 0 014.67-1.87 29.9 29.9 0 017.22-.74v-1.49a5.68 5.68 0 00-1.07-3.79 3.93 3.93 0 00-3.12-1.23 7.87 7.87 0 00-2.47.34 9.79 9.79 0 00-1.71.78l-1.35.78a2.71 2.71 0 01-1.35.34 1.71 1.71 0 01-1.06-.32 2.37 2.37 0 01-.72-.79l-1.11-1.94a15 15 0 0110.53-4 10.09 10.09 0 014 .73 8.43 8.43 0 013 2 8.75 8.75 0 011.84 3.1 12.1 12.1 0 01.62 3.94zm-11.83-3.8a7.72 7.72 0 001.72-.17 6.09 6.09 0 001.49-.51 7.4 7.4 0 001.36-.83 11.68 11.68 0 001.32-1.18v-4.24a24.94 24.94 0 00-4.45.34 11.46 11.46 0 00-2.87.86 3.68 3.68 0 00-1.55 1.21 2.76 2.76 0 00-.45 1.52 2.65 2.65 0 001 2.31 4.11 4.11 0 002.43.69zm17.83 3.8v-25.3h3.57a1.87 1.87 0 011.31.35 1.94 1.94 0 01.49 1.18l.37 3.06a12 12 0 013.18-3.7 6.67 6.67 0 014.1-1.36 5.35 5.35 0 013.11.86l-.79 4.57a1 1 0 01-.32.63 1.13 1.13 0 01-.67.18 4.37 4.37 0 01-1-.17 6.6 6.6 0 00-1.7-.17 5.17 5.17 0 00-3.26 1 8.13 8.13 0 00-2.29 3.07v15.76zm20.14 0v-25.3h3.73a1.49 1.49 0 011.55 1.11l.4 1.87a13.59 13.59 0 011.39-1.35 8.51 8.51 0 011.55-1.06 8.7 8.7 0 011.78-.71 8 8 0 012.08-.26 5.94 5.94 0 013.94 1.3 7.84 7.84 0 012.3 3.44 7.87 7.87 0 011.48-2.16 7.77 7.77 0 012-1.46 8.9 8.9 0 012.26-.84 10.85 10.85 0 012.4-.28 10.09 10.09 0 013.73.65 7.09 7.09 0 012.73 1.87 8.19 8.19 0 011.69 3 13 13 0 01.58 4.07v16.1h-6.09v-16.1a5.4 5.4 0 00-1.06-3.64 3.91 3.91 0 00-3.11-1.22 4.76 4.76 0 00-1.74.32 4 4 0 00-1.4.93 4.19 4.19 0 00-1 1.51 5.93 5.93 0 00-.35 2.1v16.1h-6.11v-16.1a5.47 5.47 0 00-1-3.7 3.82 3.82 0 00-3-1.16 4.91 4.91 0 00-2.45.65A8.26 8.26 0 001359 118v18.52zm61.85-25.7a13.89 13.89 0 015.15.92 11.18 11.18 0 013.93 2.59 11.58 11.58 0 012.52 4.09 17.1 17.1 0 010 10.83 12 12 0 01-2.52 4.12 11.09 11.09 0 01-3.93 2.61 15 15 0 01-10.3 0 11 11 0 01-4-2.61 11.88 11.88 0 01-2.54-4.12 16.74 16.74 0 010-10.83 11.48 11.48 0 012.54-4.09 11.12 11.12 0 014-2.59 13.89 13.89 0 015.15-.92zm0 21.39a5.37 5.37 0 004.68-2.12 10.68 10.68 0 001.51-6.22 10.77 10.77 0 00-1.51-6.24 5.34 5.34 0 00-4.68-2.14 5.42 5.42 0 00-4.73 2.15 10.71 10.71 0 00-1.53 6.23 10.57 10.57 0 001.53 6.2 5.42 5.42 0 004.73 2.14zm18.33 4.31V115.8l-2.2-.35a2.34 2.34 0 01-1.14-.49 1.29 1.29 0 01-.44-1v-2.49h3.78v-1.87a11.07 11.07 0 01.65-3.9 8 8 0 011.88-2.93 7.92 7.92 0 013-1.85 11.31 11.31 0 013.94-.64 11 11 0 013.26.46l-.13 3.06a.88.88 0 01-.66.89 5.15 5.15 0 01-1.43.17 7.15 7.15 0 00-1.94.24 3.16 3.16 0 00-1.44.81 3.84 3.84 0 00-.9 1.53 7.56 7.56 0 00-.31 2.35v1.68h6.59v4.34h-6.39v20.74zm29.1-4.51h7.22v-20.84c0-.81 0-1.65.08-2.54l-5.13 4.29a1.76 1.76 0 01-.66.37 2.14 2.14 0 01-.65.1 1.93 1.93 0 01-.9-.21 1.67 1.67 0 01-.6-.48l-1.93-2.64 10.88-9.25h5V132h6.42v4.56h-19.73zm49.34-13.32a29 29 0 01-1 8.1 16.42 16.42 0 01-2.76 5.69 11.12 11.12 0 01-4.17 3.34 12.36 12.36 0 01-5.19 1.1 12.19 12.19 0 01-5.16-1.1 11.08 11.08 0 01-4.13-3.34 16.58 16.58 0 01-2.74-5.69 33.67 33.67 0 010-16.21 16.47 16.47 0 012.74-5.67 11 11 0 014.13-3.34 12 12 0 015.16-1.1 12.21 12.21 0 015.19 1.1 11 11 0 014.17 3.34 16.31 16.31 0 012.76 5.67 29 29 0 011 8.11zm-6.29 0a30.05 30.05 0 00-.56-6.41 13 13 0 00-1.52-4 5.46 5.46 0 00-2.18-2.11 5.68 5.68 0 00-2.57-.61 5.51 5.51 0 00-2.52.61 5.36 5.36 0 00-2.16 2.11 12.78 12.78 0 00-1.49 4 37 37 0 000 12.82 12.75 12.75 0 001.49 4 5.49 5.49 0 002.16 2.11 5.63 5.63 0 002.52.6 5.8 5.8 0 002.57-.6 5.6 5.6 0 002.18-2.11 13 13 0 001.52-4 30.05 30.05 0 00.56-6.41zm34.9 0a29 29 0 01-1 8.1 16.59 16.59 0 01-2.76 5.69 11.27 11.27 0 01-4.17 3.34 12.36 12.36 0 01-5.19 1.1 12.23 12.23 0 01-5.17-1.1 11.23 11.23 0 01-4.13-3.34 16.57 16.57 0 01-2.73-5.69 33.67 33.67 0 010-16.21 16.46 16.46 0 012.73-5.67 11.13 11.13 0 014.13-3.34 12.08 12.08 0 015.17-1.1 12.21 12.21 0 015.19 1.1 11.18 11.18 0 014.17 3.34 16.49 16.49 0 012.76 5.67 29 29 0 011 8.11zm-6.29 0a30 30 0 00-.57-6.41 12.76 12.76 0 00-1.51-4 5.48 5.48 0 00-2.19-2.11 5.64 5.64 0 00-2.56-.61 5.58 5.58 0 00-2.53.61 5.48 5.48 0 00-2.16 2.11 13 13 0 00-1.49 4 37.63 37.63 0 000 12.82 13 13 0 001.49 4 5.62 5.62 0 002.16 2.11 5.7 5.7 0 002.53.6 5.76 5.76 0 002.56-.6 5.62 5.62 0 002.19-2.11 12.73 12.73 0 001.51-4 30 30 0 00.57-6.41zm20.3 17.83v-25.3h3.72a1.49 1.49 0 011.55 1.11l.42 2a12.76 12.76 0 011.62-1.43 11.18 11.18 0 011.8-1.11 9.05 9.05 0 012-.72 11 11 0 012.37-.25 9.08 9.08 0 013.68.71 7.24 7.24 0 012.67 2 8.66 8.66 0 011.63 3 12.92 12.92 0 01.55 3.89v16.1h-6.09v-16.1a5.43 5.43 0 00-1.07-3.59 4 4 0 00-3.22-1.27 6.32 6.32 0 00-3 .72 10.41 10.41 0 00-2.61 1.94v18.3zm38.86-25.7a13.84 13.84 0 015.14.92 11 11 0 013.93 2.59 11.3 11.3 0 012.52 4.09 16.92 16.92 0 010 10.83 11.69 11.69 0 01-2.52 4.12 10.92 10.92 0 01-3.93 2.61 13.83 13.83 0 01-5.14.91 14 14 0 01-5.16-.91 11.08 11.08 0 01-4-2.61 11.9 11.9 0 01-2.55-4.12 16.92 16.92 0 010-10.83 11.5 11.5 0 012.55-4.09 11.17 11.17 0 014-2.59 14 14 0 015.16-.92zm0 21.39a5.36 5.36 0 004.67-2.12 10.67 10.67 0 001.52-6.22 10.76 10.76 0 00-1.52-6.24 5.33 5.33 0 00-4.67-2.14 5.43 5.43 0 00-4.74 2.15 10.71 10.71 0 00-1.53 6.23 10.57 10.57 0 001.53 6.2 5.42 5.42 0 004.74 2.14zm35 4.31a1.49 1.49 0 01-1.55-1.11l-.45-2.4a13.79 13.79 0 01-1.65 1.6 10.21 10.21 0 01-1.86 1.24 10 10 0 01-2.15.8 10.21 10.21 0 01-2.47.28 8.23 8.23 0 01-6.77-3.36 12.25 12.25 0 01-1.93-4.06 20.58 20.58 0 01-.67-5.53 17.2 17.2 0 01.76-5.22 12.9 12.9 0 012.19-4.2 10.41 10.41 0 013.43-2.77 9.85 9.85 0 014.49-1 8.87 8.87 0 013.63.68 9.45 9.45 0 012.68 1.81v-13.4h6.1v36.64zm-8.11-4.46a6.21 6.21 0 003.23-.79 9.45 9.45 0 002.51-2.24v-11.35a6 6 0 00-2.25-1.78 6.77 6.77 0 00-2.63-.51 6 6 0 00-2.5.51 4.94 4.94 0 00-1.9 1.57 7.69 7.69 0 00-1.2 2.66 15.3 15.3 0 00-.42 3.81 16.91 16.91 0 00.36 3.77 7.56 7.56 0 001 2.51 4 4 0 001.63 1.41 5.32 5.32 0 002.19.43zm28.9-21.24a12.29 12.29 0 014.4.77 9.6 9.6 0 013.46 2.23 10.2 10.2 0 012.27 3.6 13.66 13.66 0 01.82 4.87 8.83 8.83 0 01-.07 1.15 1.75 1.75 0 01-.22.71.85.85 0 01-.43.37 1.71 1.71 0 01-.69.12h-15.64c.19 2.59.88 4.5 2.1 5.72a6.56 6.56 0 004.83 1.82 8.45 8.45 0 002.56-.34 11.86 11.86 0 001.87-.77l1.41-.76a2.35 2.35 0 011.17-.35 1.32 1.32 0 01.64.15 1.44 1.44 0 01.47.42l1.77 2.22a9.89 9.89 0 01-2.27 2 12.26 12.26 0 01-2.62 1.29 14.18 14.18 0 01-2.79.67 18.65 18.65 0 01-2.75.2 13.63 13.63 0 01-4.91-.87 11.12 11.12 0 01-3.94-2.59 12.21 12.21 0 01-2.64-4.24 16.48 16.48 0 01-1-5.86 14 14 0 01.84-4.87 11.57 11.57 0 012.4-4 11.3 11.3 0 013.82-2.68 12.58 12.58 0 015.14-.98zm.12 4.37a5.64 5.64 0 00-4.17 1.5 7.48 7.48 0 00-1.92 4.27h11.44a7.71 7.71 0 00-.32-2.23 5 5 0 00-1-1.84 4.65 4.65 0 00-1.67-1.24 5.66 5.66 0 00-2.36-.46zm30.8.96a1.68 1.68 0 01-.52.56 1.41 1.41 0 01-.69.16 2.28 2.28 0 01-1-.25l-1.17-.55a10.59 10.59 0 00-1.52-.56 7.35 7.35 0 00-2-.25 4.66 4.66 0 00-2.83.77 2.37 2.37 0 00-1 2 1.93 1.93 0 00.53 1.37 5 5 0 001.41 1 13.24 13.24 0 002 .75c.74.22 1.5.47 2.27.73a22.32 22.32 0 012.27.9 8.07 8.07 0 012 1.28 6 6 0 011.4 1.86 5.86 5.86 0 01.53 2.62 8.43 8.43 0 01-.66 3.36 7.56 7.56 0 01-2 2.67 9.3 9.3 0 01-3.17 1.75 13.66 13.66 0 01-4.33.63 13.44 13.44 0 01-2.55-.24 14.24 14.24 0 01-2.39-.65 12.93 12.93 0 01-2.12-1 11 11 0 01-1.72-1.23l1.41-2.32a2 2 0 01.64-.64 1.79 1.79 0 01.94-.22 2 2 0 011.07.32l1.17.69a9.69 9.69 0 001.57.69 7 7 0 002.28.32 6 6 0 001.86-.26 3.88 3.88 0 001.28-.68 2.45 2.45 0 00.74-1 2.86 2.86 0 00.24-1.15 2.05 2.05 0 00-.53-1.45 4.78 4.78 0 00-1.41-1 13.12 13.12 0 00-2-.75 66.4 66.4 0 01-2.29-.73 20.65 20.65 0 01-2.29-.92 8 8 0 01-2-1.35 6.07 6.07 0 01-1.41-2 7 7 0 01-.53-2.86 7.34 7.34 0 01.62-3 7 7 0 011.81-2.45 9 9 0 013-1.68 12.36 12.36 0 014.13-.63 12.57 12.57 0 014.76.87 10.56 10.56 0 013.57 2.27zM344.7 311.82h-4.16a1.77 1.77 0 01-1.15-.35 1.93 1.93 0 01-.65-.87l-2.16-5.9h-12l-2.16 5.9a1.91 1.91 0 01-.63.84 1.73 1.73 0 01-1.15.38h-4.18l11.36-28.92h5.5zM326 300.9h9.22l-3.52-9.62c-.16-.42-.34-.93-.53-1.51s-.38-1.21-.57-1.89c-.19.68-.37 1.32-.55 1.9s-.36 1.1-.53 1.54zm35.82-5.26a2.26 2.26 0 01-.43.44 1 1 0 01-.61.16 1.31 1.31 0 01-.78-.24l-.86-.52A7.06 7.06 0 00358 295a5.57 5.57 0 00-1.71-.23 5.24 5.24 0 00-2.28.47 4.45 4.45 0 00-1.63 1.35 6.14 6.14 0 00-1 2.13 11.66 11.66 0 00-.32 2.83 11.18 11.18 0 00.35 2.92 6.13 6.13 0 001 2.15 4.32 4.32 0 001.6 1.32 4.85 4.85 0 002.12.45 5.12 5.12 0 001.91-.29 5.42 5.42 0 001.23-.64c.33-.23.62-.44.87-.64a1.33 1.33 0 01.83-.29 1 1 0 01.9.46l1.42 1.8a8.92 8.92 0 01-1.78 1.61 9.23 9.23 0 01-2 1 9.81 9.81 0 01-2.13.55 14.64 14.64 0 01-2.18.16 9 9 0 01-3.58-.71 8.24 8.24 0 01-2.93-2.07 10 10 0 01-2-3.33 12.78 12.78 0 01-.73-4.49 13.19 13.19 0 01.65-4.19 9.5 9.5 0 011.91-3.34 8.84 8.84 0 013.12-2.21A10.82 10.82 0 01356 291a10.24 10.24 0 014 .74 10 10 0 013.11 2.12zm11.4 16.5a5.39 5.39 0 01-4.1-1.51 5.77 5.77 0 01-1.44-4.17V295h-2.08a1 1 0 01-.69-.26 1 1 0 01-.29-.78v-2l3.3-.54 1-5.6a1 1 0 01.37-.62 1.22 1.22 0 01.73-.22h2.56v6.46H378V295h-5.4v11.12a2.18 2.18 0 00.48 1.5 1.63 1.63 0 001.28.54 2.16 2.16 0 00.77-.11 3.5 3.5 0 00.54-.23c.15-.08.29-.15.41-.23a.72.72 0 01.36-.11.57.57 0 01.36.11 2.57 2.57 0 01.3.33l1.48 2.4a7.39 7.39 0 01-2.48 1.36 9.12 9.12 0 01-2.88.46zm16.02 5.32a2 2 0 01-.57.79 1.74 1.74 0 01-1.07.27h-3.68l3.84-8.22-8.3-19h4.32a1.38 1.38 0 01.92.28 2 2 0 01.48.64l4.38 10.64a9.86 9.86 0 01.38 1.08c.11.38.2.75.28 1.12.11-.38.22-.76.35-1.12s.26-.72.41-1.1l4.12-10.62a1.53 1.53 0 01.53-.66 1.43 1.43 0 01.83-.26h4zm18.92-16.22l-6.74-9.94h4.76a1.64 1.64 0 01.8.15 1.37 1.37 0 01.46.49l4.3 6.86a7.08 7.08 0 01.25-.68 5.11 5.11 0 01.37-.68l3.46-5.4a2 2 0 01.5-.56 1.1 1.1 0 01.64-.18h4.54l-6.76 9.7 7 10.8H417a1.28 1.28 0 01-.87-.28 2.59 2.59 0 01-.55-.64l-4.36-7.14a3.91 3.91 0 01-.5 1.2l-3.84 5.94a3.22 3.22 0 01-.54.63 1.11 1.11 0 01-.8.29h-4.42zM442 282.58a11 11 0 013.66.59 8.43 8.43 0 012.84 1.67 7.68 7.68 0 011.84 2.6 8.42 8.42 0 01.66 3.38 9.05 9.05 0 01-.47 3 12.73 12.73 0 01-1.26 2.6 17.9 17.9 0 01-1.85 2.4c-.71.78-1.45 1.56-2.22 2.36l-6.52 6.66a16.87 16.87 0 011.88-.43 10.91 10.91 0 011.76-.15h7.42a1.78 1.78 0 011.27.45 1.59 1.59 0 01.47 1.19v3h-19.82v-1.64a2.91 2.91 0 01.88-2l8.78-8.8c.73-.74 1.39-1.46 2-2.14a14.8 14.8 0 001.46-2 9.33 9.33 0 00.9-2A7.69 7.69 0 00446 291a5.16 5.16 0 00-.3-1.83 3.52 3.52 0 00-2.19-2.14 5.23 5.23 0 00-1.73-.27 4.59 4.59 0 00-2.93.9 4.67 4.67 0 00-1.61 2.42 2 2 0 01-.66 1.09 1.84 1.84 0 01-1.12.33 4 4 0 01-.66-.06l-2.6-.46a10.65 10.65 0 011.16-3.65 8.78 8.78 0 012.15-2.62 9 9 0 013-1.58 11.89 11.89 0 013.49-.55zm12.64 26.52a3 3 0 01.23-1.18 2.74 2.74 0 01.64-1 3.15 3.15 0 011-.64 3.07 3.07 0 012.38 0 2.94 2.94 0 011.6 1.6 3 3 0 01.24 1.18 2.91 2.91 0 01-.24 1.19 3.05 3.05 0 01-.64.95 2.86 2.86 0 01-1 .63 3.19 3.19 0 01-2.38 0 2.81 2.81 0 01-1-.63 2.62 2.62 0 01-.64-.95 2.9 2.9 0 01-.19-1.15zm29.74-11.74a23.7 23.7 0 01-.81 6.57 13.49 13.49 0 01-2.24 4.61 9 9 0 01-3.38 2.71 9.94 9.94 0 01-4.21.89 9.75 9.75 0 01-4.19-.89 8.85 8.85 0 01-3.35-2.71 13.29 13.29 0 01-2.22-4.61 27.42 27.42 0 010-13.15 13.42 13.42 0 012.22-4.6 9 9 0 013.35-2.71 9.9 9.9 0 014.19-.89 10.09 10.09 0 014.21.89 9.21 9.21 0 013.38 2.71 13.62 13.62 0 012.24 4.6 23.72 23.72 0 01.81 6.58zm-5.1 0a25 25 0 00-.46-5.2 10.73 10.73 0 00-1.23-3.28 4.62 4.62 0 00-1.77-1.71 4.77 4.77 0 00-2.08-.49 4.65 4.65 0 00-2.05.49 4.45 4.45 0 00-1.75 1.71 10.5 10.5 0 00-1.21 3.28 30.27 30.27 0 000 10.4 10.31 10.31 0 001.21 3.28 4.32 4.32 0 001.75 1.71 4.51 4.51 0 002.05.49 4.64 4.64 0 002.08-.49 4.48 4.48 0 001.77-1.71 10.53 10.53 0 001.23-3.28 24.83 24.83 0 00.46-5.2zM281.2 418.14H277a1.83 1.83 0 01-1.15-.34 2 2 0 01-.65-.87l-2.12-5.93h-12l-2.16 5.91a2 2 0 01-.63.84 1.8 1.8 0 01-1.15.37H253l11.36-28.92h5.5zm-18.72-10.92h9.22l-3.52-9.62c-.16-.42-.34-.93-.53-1.51s-.39-1.21-.57-1.89c-.19.68-.37 1.32-.55 1.9s-.36 1.1-.53 1.54zm35.84-5.22a2.26 2.26 0 01-.43.44 1 1 0 01-.61.16 1.29 1.29 0 01-.74-.23l-.86-.52a7.43 7.43 0 00-1.19-.52 5.57 5.57 0 00-1.71-.23 5.24 5.24 0 00-2.28.47 4.37 4.37 0 00-1.63 1.35 6 6 0 00-1 2.13 11.18 11.18 0 00-.32 2.83 10.77 10.77 0 00.35 2.92 6 6 0 001 2.15 4.32 4.32 0 001.6 1.32 4.82 4.82 0 002.12.45 5.15 5.15 0 001.91-.29 6.4 6.4 0 001.23-.63c.33-.24.62-.45.87-.65a1.31 1.31 0 01.83-.29 1 1 0 01.9.46l1.42 1.81a8.86 8.86 0 01-1.78 1.6 9 9 0 01-2 1 9.81 9.81 0 01-2.13.55 14.73 14.73 0 01-2.18.16 9 9 0 01-3.58-.71 8.24 8.24 0 01-2.93-2.07 9.68 9.68 0 01-2-3.32 14 14 0 01-.08-8.69 9.5 9.5 0 011.91-3.34 8.84 8.84 0 013.12-2.21 10.78 10.78 0 014.28-.8 10.28 10.28 0 014 .74 10 10 0 013.11 2.12zm11.39 16.47a5.36 5.36 0 01-4.09-1.52 5.77 5.77 0 01-1.44-4.17v-11.46h-2.08a.95.95 0 01-1-1v-2l3.3-.54 1-5.6a1 1 0 01.36-.62 1.24 1.24 0 01.73-.22h2.57v6.46h5.39v3.52h-5.39v11.12a2.1 2.1 0 00.48 1.5 1.59 1.59 0 001.28.54 2.48 2.48 0 00.77-.1 4.58 4.58 0 00.54-.24l.41-.23a.65.65 0 01.36-.1.56.56 0 01.35.1 2 2 0 01.31.33l1.48 2.4a7.59 7.59 0 01-2.48 1.37 9.52 9.52 0 01-2.85.46zm16.02 5.31a1.78 1.78 0 01-.57.79 1.67 1.67 0 01-1.07.28h-3.68l3.84-8.22-8.3-19h4.32a1.38 1.38 0 01.92.28 1.72 1.72 0 01.48.64l4.38 10.64a8.13 8.13 0 01.38 1.08c.11.38.2.75.28 1.12.11-.38.23-.76.35-1.12s.27-.72.41-1.1l4.12-10.62a1.6 1.6 0 01.53-.66 1.46 1.46 0 01.83-.26h4zm18.92-16.22l-6.74-9.94h4.76a1.64 1.64 0 01.8.15 1.29 1.29 0 01.46.49l4.3 6.86a7.08 7.08 0 01.25-.68 6.58 6.58 0 01.37-.68l3.46-5.4a2 2 0 01.5-.56 1.12 1.12 0 01.64-.18H358l-6.76 9.72 7 10.8h-4.76a1.28 1.28 0 01-.87-.28 2.55 2.55 0 01-.55-.63l-4.36-7.15a3.68 3.68 0 01-.5 1.2l-3.84 6a2.83 2.83 0 01-.54.62 1.11 1.11 0 01-.8.29h-4.42zm44.76-3.88a15.94 15.94 0 01-1.06 5.89 14 14 0 01-3 4.7 13.47 13.47 0 01-4.62 3.08 16.55 16.55 0 01-12 0 13.65 13.65 0 01-4.64-3.08 14.14 14.14 0 01-3-4.7 16.89 16.89 0 010-11.78 14.1 14.1 0 013-4.69 13.67 13.67 0 014.64-3.09 16.62 16.62 0 0112 0 13.5 13.5 0 017.6 7.77 16 16 0 011.08 5.9zm-5.52 0a13.5 13.5 0 00-.63-4.27 9 9 0 00-1.81-3.21 7.75 7.75 0 00-2.87-2 10 10 0 00-3.81-.7 10.11 10.11 0 00-3.82.7 8 8 0 00-2.89 2 9.17 9.17 0 00-1.83 3.21 14.56 14.56 0 000 8.54 9 9 0 001.83 3.2 7.85 7.85 0 002.89 2 9.92 9.92 0 003.82.7 9.77 9.77 0 003.81-.7 7.61 7.61 0 002.87-2 8.85 8.85 0 001.81-3.2 13.45 13.45 0 00.63-4.27zm25.26-9.2a1.36 1.36 0 01-.51.62 1.27 1.27 0 01-.69.18 1.76 1.76 0 01-.9-.31l-1.18-.69a10 10 0 00-1.59-.69 6.83 6.83 0 00-2.15-.31 6.38 6.38 0 00-1.95.27 4.16 4.16 0 00-1.4.75 3.08 3.08 0 00-.85 1.15 3.93 3.93 0 00-.28 1.47 2.55 2.55 0 00.57 1.7 4.74 4.74 0 001.51 1.16 13.81 13.81 0 002.14.86l2.45.81a23.73 23.73 0 012.45 1 8.37 8.37 0 012.14 1.44 6.48 6.48 0 011.51 2.13 7.4 7.4 0 01.57 3.06 10 10 0 01-.67 3.68 8.37 8.37 0 01-2 3 9.08 9.08 0 01-3.15 2 11.52 11.52 0 01-4.26.74 13.08 13.08 0 01-2.72-.28 13.85 13.85 0 01-2.57-.76 14.72 14.72 0 01-2.3-1.2 11.34 11.34 0 01-1.91-1.57l1.56-2.57a2.2 2.2 0 01.53-.48 1.38 1.38 0 01.69-.19 1.85 1.85 0 011.08.42c.39.27.85.57 1.37.9a10.07 10.07 0 001.86.91 7.07 7.07 0 002.57.41 5.3 5.3 0 003.56-1.08 3.94 3.94 0 001.26-3.14 2.91 2.91 0 00-.57-1.86 4.61 4.61 0 00-1.51-1.21 11.79 11.79 0 00-2.14-.83c-.8-.22-1.61-.47-2.44-.74a19.28 19.28 0 01-2.44-1 7.88 7.88 0 01-2.14-1.46 6.74 6.74 0 01-1.51-2.25 8.57 8.57 0 01-.57-3.33 7.89 7.89 0 01.63-3.08 8 8 0 011.84-2.66 9.27 9.27 0 013-1.86 11 11 0 014-.7 13.55 13.55 0 014.72.8 10.73 10.73 0 013.68 2.24zm16.14 19.96h5.86v-16.86c0-.65 0-1.34.06-2.06l-4.16 3.48a1.36 1.36 0 01-.53.3 1.63 1.63 0 01-.53.08 1.51 1.51 0 01-.73-.17 1.32 1.32 0 01-.49-.39l-1.56-2.14 8.82-7.5h4.06v25.26h5.2v3.7h-16zm19.28.99a3.19 3.19 0 01.23-1.19 3 3 0 01.64-1 3.63 3.63 0 011-.64 3.06 3.06 0 011.2-.24 2.93 2.93 0 011.18.24 3.16 3.16 0 011 .64 3 3 0 01.64 1 3 3 0 01.24 1.19 3 3 0 01-.88 2.13 2.67 2.67 0 01-1 .63 2.93 2.93 0 01-1.18.24 3.06 3.06 0 01-1.2-.24 3 3 0 01-1-.63 2.89 2.89 0 01-.64-.95 3.06 3.06 0 01-.23-1.18zm15.04-7.87l-6.74-9.94h4.76a1.64 1.64 0 01.8.15 1.29 1.29 0 01.46.49l4.3 6.86a7.08 7.08 0 01.25-.68 6.58 6.58 0 01.37-.68l3.46-5.4a2 2 0 01.5-.56 1.12 1.12 0 01.64-.18H473l-6.76 9.72 7 10.8h-4.76a1.28 1.28 0 01-.87-.28 2.55 2.55 0 01-.55-.63l-4.36-7.15a3.68 3.68 0 01-.5 1.2l-3.84 6a2.83 2.83 0 01-.54.62 1.11 1.11 0 01-.8.29h-4.42z" fill="#252628"/><rect x="540.87" y="270.54" width="90.59" height="49.12" rx="10" fill="#635bff"/><rect x="540.87" y="377.11" width="982.66" height="49.12" rx="10" fill="#555960"/><path d="M1563.26 417h11.24v-32.33c0-1.25 0-2.57.11-3.95l-8 6.67a2.87 2.87 0 01-1 .58 3.6 3.6 0 01-1 .15 3.13 3.13 0 01-1.4-.32 2.73 2.73 0 01-.94-.75l-3-4.11 16.91-14.37h7.82V417h10v7.1h-30.68zm58.13-49a20.59 20.59 0 016.92 1.09 15.74 15.74 0 015.27 3 13.31 13.31 0 013.36 4.54 13.63 13.63 0 011.17 5.64 16.32 16.32 0 01-.6 4.66 10.85 10.85 0 01-1.72 3.51A10.59 10.59 0 011633 393a16.82 16.82 0 01-3.7 1.72 14.45 14.45 0 017.43 4.8 12.92 12.92 0 012.46 8.09 16.69 16.69 0 01-1.53 7.32 15.81 15.81 0 01-4.15 5.35 17.88 17.88 0 01-6 3.28 23.53 23.53 0 01-7.27 1.11 24.77 24.77 0 01-7.29-1 15.65 15.65 0 01-5.4-2.84 16.84 16.84 0 01-3.91-4.6 30.31 30.31 0 01-2.76-6.28l4.17-1.73a5.49 5.49 0 012.19-.46 3.69 3.69 0 011.78.42 2.82 2.82 0 011.21 1.23c.46.89 1 1.78 1.52 2.64a10.45 10.45 0 002 2.32 9.4 9.4 0 002.7 1.65 9.84 9.84 0 003.7.64 10.56 10.56 0 004.22-.79 9.11 9.11 0 003-2.05 8.36 8.36 0 001.8-2.82 8.65 8.65 0 00.6-3.13 14.57 14.57 0 00-.42-3.62 5.4 5.4 0 00-1.77-2.78 9.46 9.46 0 00-3.85-1.8 28.09 28.09 0 00-6.73-.65v-6.72a22.86 22.86 0 005.79-.61 9.89 9.89 0 003.66-1.71 5.76 5.76 0 001.9-2.63 10.05 10.05 0 00.54-3.37q0-3.94-2.15-6a8.25 8.25 0 00-5.87-2 8.67 8.67 0 00-5.6 1.78 9.3 9.3 0 00-3.1 4.57 4.18 4.18 0 01-1.27 2.09 3.31 3.31 0 01-2.11.63 8.77 8.77 0 01-1.3-.11l-5-.87a20.49 20.49 0 012.22-7 16.54 16.54 0 019.8-8.05 22.53 22.53 0 016.88-1.02zm23.61 50.26a5 5 0 01.4-2 5.11 5.11 0 011.13-1.65 5 5 0 011.77-1.11 6.14 6.14 0 012.26-.41 5.86 5.86 0 012.53.52 5.14 5.14 0 011.8 1.42 5.85 5.85 0 011.08 2.07 8.67 8.67 0 01.34 2.47 14.38 14.38 0 01-.56 3.88 20.46 20.46 0 01-1.62 4.06 24 24 0 01-6.25 7.48l-1.65-1.5a1.78 1.78 0 01-.69-1.42 1.5 1.5 0 01.21-.69 3.42 3.42 0 01.51-.69c.29-.3.63-.68 1-1.13a17.08 17.08 0 001.23-1.53 15.59 15.59 0 001.13-1.88 8.84 8.84 0 00.75-2.17 5.23 5.23 0 01-2.19-.44 5.07 5.07 0 01-1.71-1.21 5.68 5.68 0 01-1.11-1.8 6.14 6.14 0 01-.36-2.27zm56.18-49.62v4.11a9.06 9.06 0 01-.4 3 17.75 17.75 0 01-.79 1.9l-21 43.25a6.65 6.65 0 01-1.84 2.28 5.12 5.12 0 01-3.22.94h-6.87l21.47-42.37a22.21 22.21 0 013-4.49H1665a2.22 2.22 0 01-2.18-2.18v-6.41zm30.87 23.78a2.71 2.71 0 01-.81.86 2.14 2.14 0 01-1.07.25 3.34 3.34 0 01-1.48-.39l-1.82-.86a16.07 16.07 0 00-2.36-.86 11.1 11.1 0 00-3.12-.38 7.28 7.28 0 00-4.41 1.18 3.69 3.69 0 00-1.61 3.11 3 3 0 00.82 2.13 7.41 7.41 0 002.19 1.51 19.85 19.85 0 003.08 1.17c1.15.35 2.33.72 3.53 1.13s2.38.88 3.53 1.4a12.19 12.19 0 013.08 2 8.72 8.72 0 013 7 13.05 13.05 0 01-1 5.23 11.45 11.45 0 01-3 4.14 14.19 14.19 0 01-4.93 2.72 21.29 21.29 0 01-6.73 1 21.79 21.79 0 01-4-.36 23.27 23.27 0 01-3.71-1 20 20 0 01-3.3-1.53 16.32 16.32 0 01-2.67-1.92l2.19-3.6a3 3 0 011-1 2.75 2.75 0 011.45-.35 3.08 3.08 0 011.67.5c.52.33 1.13.69 1.82 1.08a16.16 16.16 0 002.44 1.07 10.72 10.72 0 003.54.5 9.17 9.17 0 002.9-.41 5.86 5.86 0 002-1.05 3.86 3.86 0 001.15-1.51 4.45 4.45 0 00.37-1.79 3.18 3.18 0 00-.83-2.26 7.16 7.16 0 00-2.18-1.53 20.26 20.26 0 00-3.11-1.17c-1.16-.35-2.35-.72-3.57-1.13a33.12 33.12 0 01-3.56-1.44 12.38 12.38 0 01-3.11-2.09 9.51 9.51 0 01-2.18-3.11 10.79 10.79 0 01-.83-4.44 11.34 11.34 0 011-4.61 10.88 10.88 0 012.82-3.81 13.94 13.94 0 014.64-2.61 19.34 19.34 0 016.42-1 19.54 19.54 0 017.4 1.35 16.65 16.65 0 015.56 3.52z" fill="#555960"/><path d="M668.6 311.05h11.24v-32.32c0-1.25 0-2.57.11-4l-8 6.67a2.83 2.83 0 01-1 .58 3.71 3.71 0 01-1 .15 3.13 3.13 0 01-1.4-.32 2.73 2.73 0 01-.94-.75l-3-4.11 16.91-14.37h7.79V311h10v7.1H668.6zm37.23 1.27a5 5 0 011.53-3.66 5 5 0 011.77-1.11 6.14 6.14 0 012.26-.41 5.83 5.83 0 012.53.52 5.14 5.14 0 011.8 1.42 5.85 5.85 0 011.08 2.07 8.67 8.67 0 01.34 2.47 14.75 14.75 0 01-.55 3.88 20.51 20.51 0 01-1.63 4.06 24 24 0 01-6.25 7.48l-1.65-1.5a1.78 1.78 0 01-.69-1.42 1.5 1.5 0 01.21-.69 3.13 3.13 0 01.52-.69l1-1.13a17.08 17.08 0 001.23-1.53 15.59 15.59 0 001.13-1.88 8.84 8.84 0 00.75-2.17 5.26 5.26 0 01-2.19-.44 4.93 4.93 0 01-1.7-1.21 5.53 5.53 0 01-1.12-1.8 6.35 6.35 0 01-.37-2.26zm37.27-50.23a21 21 0 017 1.13 15.73 15.73 0 015.44 3.2 14.38 14.38 0 013.53 5 16.14 16.14 0 011.26 6.48 17.28 17.28 0 01-.9 5.67 23.64 23.64 0 01-2.41 5 33.94 33.94 0 01-3.55 4.6q-2 2.22-4.26 4.52l-12.49 12.77a29 29 0 013.6-.82 20 20 0 013.37-.29h14.23a3.39 3.39 0 012.43.86 3 3 0 01.9 2.28v5.68h-38V315a5.43 5.43 0 01.4-2 5.6 5.6 0 011.29-1.92l16.83-16.87q2.1-2.14 3.77-4.1a27.53 27.53 0 002.8-3.87 17.63 17.63 0 001.73-3.9 14.18 14.18 0 00.59-4.16 9.92 9.92 0 00-.57-3.5 6.78 6.78 0 00-1.65-2.55 7.08 7.08 0 00-2.55-1.56 10.11 10.11 0 00-3.32-.51 8.83 8.83 0 00-5.61 1.72 9.07 9.07 0 00-3.09 4.64 3.8 3.8 0 01-1.27 2.09 3.46 3.46 0 01-2.14.63 8.5 8.5 0 01-1.27-.11l-5-.88a20.42 20.42 0 012.22-7 16.45 16.45 0 019.8-8.05 22.53 22.53 0 016.89-1.01zm49.81 24.39a2.71 2.71 0 01-.81.86 2.14 2.14 0 01-1.07.25 3.37 3.37 0 01-1.48-.39l-1.82-.86a16.07 16.07 0 00-2.36-.86 11.1 11.1 0 00-3.12-.38 7.28 7.28 0 00-4.41 1.18 3.69 3.69 0 00-1.61 3.11 3 3 0 00.82 2.13 7.41 7.41 0 002.19 1.51 19.85 19.85 0 003.08 1.17c1.15.35 2.33.72 3.53 1.13s2.38.88 3.53 1.4a12.42 12.42 0 013.09 2 9.34 9.34 0 012.18 2.89 9.2 9.2 0 01.83 4.07 13.06 13.06 0 01-1 5.23 11.45 11.45 0 01-3 4.14 14.19 14.19 0 01-4.93 2.72 21.25 21.25 0 01-6.73 1 21.61 21.61 0 01-4-.36 23.69 23.69 0 01-3.72-1 20 20 0 01-3.3-1.53 16.32 16.32 0 01-2.67-1.92l2.19-3.6a3 3 0 011-1 2.78 2.78 0 011.45-.35 3.08 3.08 0 011.67.5c.53.33 1.13.69 1.82 1.08a16.16 16.16 0 002.44 1.07 10.74 10.74 0 003.55.5 9.15 9.15 0 002.89-.41 5.77 5.77 0 002-1.05 3.86 3.86 0 001.15-1.51 4.45 4.45 0 00.37-1.79 3.18 3.18 0 00-.83-2.26 7 7 0 00-2.18-1.53 19.87 19.87 0 00-3.11-1.17c-1.16-.35-2.35-.72-3.56-1.13a32.47 32.47 0 01-3.57-1.44 12.15 12.15 0 01-3.1-2.09 9.39 9.39 0 01-2.19-3.11 10.8 10.8 0 01-.82-4.44 11.33 11.33 0 011-4.61 10.88 10.88 0 012.82-3.81 13.94 13.94 0 014.64-2.61 21.21 21.21 0 0113.82.37 16.65 16.65 0 015.56 3.52z" fill="#635bff"/><path d="M1530.06 546.93h4.4v-14.19l-3.12 2.61a1.14 1.14 0 01-.39.23 1.44 1.44 0 01-.4.06 1.14 1.14 0 01-.55-.13 1 1 0 01-.37-.29l-1.17-1.61 6.62-5.62h3v18.94h3.9v2.78h-12zm27.5-5.4h2.73v2.15a.73.73 0 01-.2.51.71.71 0 01-.57.22h-2v5.3h-3.24v-5.3h-9.15a1 1 0 01-.66-.23 1 1 0 01-.36-.58l-.38-1.87 10.32-13.73h3.51zm-3.24-7.09v-1c0-.33.05-.75.1-1.15l-6.73 9.28h6.6zm17.62 2.88a.91.91 0 01-.31.33.77.77 0 01-.42.1 1.35 1.35 0 01-.58-.15l-.71-.33a6.12 6.12 0 00-.92-.34 4.5 4.5 0 00-1.23-.15 2.83 2.83 0 00-1.72.46 1.45 1.45 0 00-.63 1.22 1.18 1.18 0 00.32.83 2.83 2.83 0 00.86.59 8.62 8.62 0 001.2.46c.45.14.91.28 1.38.44s.93.35 1.38.55a4.74 4.74 0 011.21.78 3.39 3.39 0 011.18 2.72 5.1 5.1 0 01-.41 2 4.4 4.4 0 01-1.18 1.62 5.36 5.36 0 01-1.93 1.06 8.13 8.13 0 01-2.63.39 8.76 8.76 0 01-1.55-.14 9.8 9.8 0 01-1.46-.4 8.48 8.48 0 01-1.29-.6 6.45 6.45 0 01-1-.75l.85-1.41a1.21 1.21 0 01.39-.39 1.09 1.09 0 01.57-.14 1.24 1.24 0 01.66.2c.2.13.44.27.71.42a6.57 6.57 0 00.95.42 4.24 4.24 0 001.39.19 3.42 3.42 0 001.13-.16 2.21 2.21 0 00.78-.41 1.48 1.48 0 00.45-.59 1.68 1.68 0 00.14-.7 1.21 1.21 0 00-.32-.88 2.8 2.8 0 00-.85-.6 7.79 7.79 0 00-1.22-.46c-.45-.14-.92-.28-1.39-.44a14.08 14.08 0 01-1.4-.56 4.87 4.87 0 01-1.21-.82 3.73 3.73 0 01-.86-1.22 4.33 4.33 0 01-.32-1.74 4.43 4.43 0 01.37-1.8 4.13 4.13 0 011.11-1.49 5.63 5.63 0 011.81-1 7.44 7.44 0 012.51-.38 7.72 7.72 0 012.9.52 6.52 6.52 0 012.17 1.38zm-1020.12 1.54a17.62 17.62 0 01-.61 4.93 10.34 10.34 0 01-1.68 3.46 6.75 6.75 0 01-2.54 2 7.39 7.39 0 01-3.15.67 7.31 7.31 0 01-3.14-.67 6.69 6.69 0 01-2.52-2 10.14 10.14 0 01-1.66-3.46 20.55 20.55 0 010-9.86 10.08 10.08 0 011.66-3.45 6.82 6.82 0 012.52-2 7.46 7.46 0 013.14-.66 7.53 7.53 0 013.15.66 6.88 6.88 0 012.54 2 10.28 10.28 0 011.68 3.45 17.53 17.53 0 01.61 4.93zm-3.83 0a18.38 18.38 0 00-.34-3.9 8 8 0 00-.92-2.46 3.43 3.43 0 00-1.33-1.28 3.57 3.57 0 00-1.56-.37 3.49 3.49 0 00-1.54.37 3.33 3.33 0 00-1.3 1.28 7.74 7.74 0 00-.91 2.46 22.54 22.54 0 000 7.8 7.74 7.74 0 00.91 2.46 3.36 3.36 0 001.31 1.29 3.48 3.48 0 001.54.36 3.56 3.56 0 001.56-.36 3.46 3.46 0 001.33-1.29 8 8 0 00.92-2.46 18.38 18.38 0 00.34-3.9z" fill="#252628"/><path fill="none" stroke="#555960" stroke-miterlimit="10" stroke-width="2" opacity=".3" d="M542.83 508.91v-20.78m71.45 20.78v-20.78m71.45 20.78v-20.78m71.44 20.78v-20.78m71.45 20.78v-20.78m71.44 20.78v-20.78m71.45 20.78v-20.78m71.45 20.78v-20.78m71.44 20.78v-20.78m71.45 20.78v-20.78m71.45 20.78v-20.78m71.44 20.78v-20.78m71.45 20.78v-20.78m71.45 20.78v-20.78m71.44 20.78v-20.78M541.34 510.39h1003.18"/></g></svg>