<svg xmlns="http://www.w3.org/2000/svg" width="1997.11" height="857"><defs><pattern id="a6036b81-61f9-489a-a718-439c056f1ba1" data-name="New Pattern" width="24.48" height="24.48" patternTransform="matrix(1 0 0 .98 13.28 41.06)" patternUnits="userSpaceOnUse"><path fill="none" d="M0 0h24.48v24.48H0z"/><circle cx="12.24" cy="12.24" r="2.24" fill="#7f96a5"/></pattern><style>.ef5e53fc-b32a-4018-81c3-990396cd6dad{fill:#f5f9fb}.adbe9e5b-c6fe-4f52-9012-8424b4d003de{fill:#252628}.e6cdfc47-a118-46fa-92c9-d5cde50fdbf0{fill:#0083ef}.ed70e9e0-41d5-4088-b357-d3790d763d7c{fill:#fff}</style></defs><g id="bdeaa3e3-68c4-4a67-bb9d-812e1b681738" data-name="abb6fa31-2e04-445e-9fd1-7671936e20d4"><path class="ef5e53fc-b32a-4018-81c3-990396cd6dad" d="M.05-.03h1996.92v857.32H.05z"/><rect x="3.55" y="5.05" width="1990" height="847.78" rx="20" opacity=".15" fill="url(#a6036b81-61f9-489a-a718-439c056f1ba1)"/><rect class="adbe9e5b-c6fe-4f52-9012-8424b4d003de" x="950" y="422.85" width="109.73" height="109.73" rx="54.86"/><path class="adbe9e5b-c6fe-4f52-9012-8424b4d003de" d="M1246.86 79.18a162.12 162.12 0 01162 155.93 6 6 0 01-6 6.18h-312a6 6 0 01-6-6.18 162.12 162.12 0 01162-155.93z"/><rect class="ef5e53fc-b32a-4018-81c3-990396cd6dad" x="1191.99" y="186.15" width="109.73" height="109.73" rx="54.86"/><path class="ef5e53fc-b32a-4018-81c3-990396cd6dad" d="M1246.86 524.85a154.7 154.7 0 01-154.08-141 5.66 5.66 0 011.49-4.34 5.87 5.87 0 014.37-1.92h81.13a6 6 0 015.89 4.88 62.31 62.31 0 00122.4 0 6 6 0 015.89-4.88h81.13a5.87 5.87 0 014.37 1.92 5.7 5.7 0 011.48 4.34 154.68 154.68 0 01-154.07 141z"/><path class="e6cdfc47-a118-46fa-92c9-d5cde50fdbf0" d="M1393.35 385.06a147.25 147.25 0 01-293 0h78.22a69.76 69.76 0 00136.56 0h78.21m1.73-14.88h-93.37v.62a54.87 54.87 0 01-109.73 0v-.62h-93.37a13.27 13.27 0 00-13.27 14.35 162.12 162.12 0 00323 0 13.26 13.26 0 00-13.26-14.35z"/><rect class="e6cdfc47-a118-46fa-92c9-d5cde50fdbf0" x="1299.25" y="251.04" width="109.73" height="109.73" rx="6"/><path class="e6cdfc47-a118-46fa-92c9-d5cde50fdbf0" d="M1085.32 251.04h10.26v109.73h-10.26zM1105.03 251.04h10.26v109.73h-10.26zM1124.74 251.04H1135v109.73h-10.26zM1144.45 251.04h10.26v109.73h-10.26zM1164.16 251.04h10.26v109.73h-10.26zM1183.87 251.04h10.26v109.73h-10.26z"/><path class="ef5e53fc-b32a-4018-81c3-990396cd6dad" d="M602 233.74a5.65 5.65 0 01-3-.81 5.78 5.78 0 01-2.84-5.46 154.68 154.68 0 01308.15 0 5.63 5.63 0 01-1.49 4.34 5.86 5.86 0 01-4.37 1.93z"/><path class="e6cdfc47-a118-46fa-92c9-d5cde50fdbf0" d="M750.24 93.94a147.25 147.25 0 01146.5 132.36h-293a147.25 147.25 0 01146.5-132.36m0-14.88a162.12 162.12 0 00-161.48 147.76A13.27 13.27 0 00602 241.17h296.46a13.27 13.27 0 0013.27-14.35A162.13 162.13 0 00750.24 79.06z"/><rect class="adbe9e5b-c6fe-4f52-9012-8424b4d003de" x="588.13" y="422.85" width="324.23" height="109.73" rx="6"/><path class="e6cdfc47-a118-46fa-92c9-d5cde50fdbf0" d="M756.24 251h150.12a6 6 0 016 6 156.12 156.12 0 01-156.12 156.13 6 6 0 01-6-6V257a6 6 0 016-6z"/><path d="M602.8 413.13h123.31c7.76 0 14.06-6.74 14.06-15.05v-132c0-13.41-15.15-20.13-24-10.65l-123.31 132c-8.86 9.49-2.59 25.7 9.94 25.7z" fill="#78c8ff"/><path class="ed70e9e0-41d5-4088-b357-d3790d763d7c" d="M742.95 420.65h14.58v114.8h-14.58zM771.39 420.65h14.58v114.8h-14.58zM799.83 420.65h14.58v114.8h-14.58zM828.27 420.65h14.58v114.8h-14.58zM856.7 420.65h14.58v114.8H856.7zM885.14 420.65h14.58v114.8h-14.58z"/><path class="adbe9e5b-c6fe-4f52-9012-8424b4d003de" d="M1058.27 747.34v-61a.9.9 0 00-.45-.78l-52.34-30.22a.9.9 0 00-.9 0l-51.43 29.7a.89.89 0 000 1.56l25.26 14.59 26.17-15.11a.9.9 0 01.9 0L1031.2 701a.9.9 0 01.45.78V732l-13.89 8-12.28 7.08a.9.9 0 01-.9 0l-25.72-14.84a.91.91 0 01-.45-.79v-30.21l-26.17 15.12a.91.91 0 00-.45.79v29.67a.9.9 0 00.45.78l52.34 30.22a.9.9 0 00.9 0l26.17-15.11 12.28 7.09a.9.9 0 00.9 0l24.81-14.33a.9.9 0 000-1.56z"/></g></svg>