<svg xmlns="http://www.w3.org/2000/svg" width="1997.11" height="857"><defs><pattern id="a" data-name="New Pattern" width="24.48" height="24.48" patternTransform="matrix(1 0 0 .98 133.78 89.26)" patternUnits="userSpaceOnUse"><path fill="none" d="M0 0h24.48v24.48H0z"/><circle cx="12.24" cy="12.24" r="2.24" fill="#7f96a5"/></pattern><pattern id="b" data-name="New Pattern" width="24.48" height="24.48" patternTransform="translate(128.73 24.48)" patternUnits="userSpaceOnUse"><path fill="none" d="M0 0h24.48v24.48H0z"/><circle cx="12.24" cy="12.24" r="2.24" fill="#7f96a5"/></pattern><pattern id="c" data-name="New Pattern" width="24.48" height="24.48" patternTransform="translate(136.9 .18)" patternUnits="userSpaceOnUse"><path fill="none" d="M0 0h24.48v24.48H0z"/><circle cx="12.24" cy="12.24" r="2.24" fill="#7f96a5"/></pattern></defs><g style="isolation:isolate"><g data-name="abb6fa31-2e04-445e-9fd1-7671936e20d4"><path fill="#f5f9fb" d="M.05-.03h1996.92v857.32H.05z"/><rect x="3.55" y="5.05" width="1990" height="847.78" rx="20" opacity=".15" fill="url(#a)"/><path d="M1058.27 747.34v-61a.9.9 0 00-.45-.78l-52.34-30.22a.9.9 0 00-.9 0l-51.43 29.7a.89.89 0 000 1.56l25.26 14.59 26.17-15.11a.9.9 0 01.9 0L1031.2 701a.9.9 0 01.45.78V732l-13.89 8-12.28 7.08a.9.9 0 01-.9 0l-25.72-14.84a.91.91 0 01-.45-.79v-30.21l-26.17 15.12a.91.91 0 00-.45.79v29.67a.9.9 0 00.45.78l52.34 30.22a.9.9 0 00.9 0l26.17-15.11 12.28 7.09a.9.9 0 00.9 0l24.81-14.33a.9.9 0 000-1.56z" fill="#252628"/></g><g data-name="Layer 5"><circle cx="878.94" cy="277.56" r="34.9" fill="#252628"/><rect x="591.97" y="422.76" width="320" height="110" rx="1" fill="#0083ef"/><path d="M1408.38 372.76h-109a50 50 0 01-100 0h-109a1 1 0 00-1 1 160 160 0 00320 0 1 1 0 00-1-1zm-24.44 10v56.45a150 150 0 01-10 17.2v-73.65zm-70 0h10V503q-4.9 2.82-10 5.25zm20 0h10v106.46q-4.86 4-10 7.47zm-30 14.95v114.85q-4.93 1.92-10 3.49V412.88a60.38 60.38 0 0010-15.17zm-60 124.94c-3.36-.12-6.69-.34-10-.68v-91.26a59.75 59.75 0 0010 1.78zm10-90.1a59.93 59.93 0 0010-1.61v91.12c-3.32.32-6.65.52-10 .62zm20-5.08a60.54 60.54 0 0010-5.71v97c-3.31.77-6.64 1.44-10 2zm-50-.41v93.56q-5.06-.87-10-2.06V421.1a60.56 60.56 0 0010 5.96zm-20-15.22v103.93q-5.07-1.6-10-3.57V395.64a59.94 59.94 0 0010 16.2zm-30-29.08h10v125q-5.1-2.46-10-5.33zm-10 113.32q-5.14-3.58-10-7.6V382.76h10zm-40-113.32v72.31a147.18 147.18 0 01-10-17.71v-54.6zm-20 0v26.89a149.76 149.76 0 01-4.23-26.89zm30 85.78v-85.78h10v96.67l-.31-.3q-5.13-5.13-9.69-10.59zm221.2 10.59l-1.2 1.17v-97.54h10v86.85c-2.79 3.28-5.71 6.46-8.8 9.52zm38.8-66.07v-30.3h5.12a150.41 150.41 0 01-5.12 30.3z" style="mix-blend-mode:multiply" fill="#635bff"/><path d="M1249.39 81.88a160 160 0 00-160 159 1 1 0 001 1h109a50 50 0 01100 0h109a1 1 0 001-1 160 160 0 00-160-159z" fill="#15be53"/><path style="mix-blend-mode:multiply" fill="#15be53" d="M591.467 422.403l209.917-181.068 72.88 84.491-209.918 181.068z"/><rect x="591.97" y="422.76" width="320" height="110" rx="1" style="mix-blend-mode:color-burn" fill="url(#b)"/><path d="M752 81.88a160 160 0 00-160 159 1 1 0 001 1h109a50 50 0 01100 0h109a1 1 0 001-1 160 160 0 00-160-159zm134.55 93.54v56.46h-10v-73.66a150 150 0 019.97 17.2zm-20-30.39v86.85h-10v-97.55c.4.39.81.77 1.2 1.17q4.6 4.6 8.77 9.5zm-50-38.63q5.09 2.43 10 5.25v120.23h-10zm20 11.54q5.13 3.51 10 7.47v106.47h-10zm-50 74.94a60.54 60.54 0 00-10-5.71v-93.3c3.36.56 6.7 1.22 10 2zm-40-10.74a59.75 59.75 0 00-10 1.78V92.66c3.31-.33 6.65-.56 10-.68zm10-90.19c3.35.1 6.69.31 10 .62v91.12a59.93 59.93 0 00-10-1.61zm-70 139.93h-10v-119.7q4.9-2.87 10-5.34zm-20 0h-10V126.16q4.86-4 10-7.6zm-20.3-96.38l.3-.3v96.68h-10V146.1q4.55-5.49 9.67-10.6zm-19.7 96.38h-10v-54.61a147.65 147.65 0 0110-17.7zm-20-26.9v26.9h-4.25a150.61 150.61 0 014.22-26.88zm90 14V102.43q4.93-2 10-3.56v103.92A59.94 59.94 0 00696.52 219zm20-25.46V96.08q5-1.2 10-2.06v93.56a59.83 59.83 0 00-10.03 5.95zm80 8.22V98.58q5.06 1.58 10 3.49v114.86a60.44 60.44 0 00-10.03-15.18zm100 30.13v-30.3a149.48 149.48 0 015.12 30.3z" style="mix-blend-mode:multiply" fill="#635bff"/><path d="M1004.15 432.84a44.68 44.68 0 11-44.68 44.67 44.72 44.72 0 0144.68-44.67m0-10a54.68 54.68 0 1054.68 54.67 54.68 54.68 0 00-54.68-54.67z" fill="#0083ef"/><rect x="974.43" y="447.79" width="59.45" height="59.45" rx="29.73" fill="#15be53"/><path d="M1408.66 252.24h-109.38v110h109.38a1 1 0 001-1v-108a1 1 0 00-1-1z" fill="#f93"/><path d="M1090.77 251.57a1 1 0 00-1 1v108a1 1 0 001 1h108.62v-110z" fill="#0083ef"/><path d="M1090.77 251.57a1 1 0 00-1 1v108a1 1 0 001 1h108.62v-110z" style="mix-blend-mode:color-burn" fill="url(#c)"/></g></g></svg>