<svg xmlns="http://www.w3.org/2000/svg" xmlns:xlink="http://www.w3.org/1999/xlink" width="1997.11" height="857" viewBox="0 0 1997.11 857"><defs><pattern id="e27d910d-f158-4e6e-a074-d4d9ad6bed92" data-name="New Pattern" width="24.48" height="24.48" patternTransform="translate(133.78 89.26) scale(1 0.98)" patternUnits="userSpaceOnUse" viewBox="0 0 24.48 24.48"><rect width="24.48" height="24.48" style="fill:none"/><circle cx="12.24" cy="12.24" r="2.24" style="fill:#7f96a5"/></pattern><pattern id="ab328ffd-ee8c-4c9a-8bce-f2aea1aa8a8e" data-name="New Pattern" width="24.48" height="24.48" patternTransform="translate(128.73 24.48)" patternUnits="userSpaceOnUse" viewBox="0 0 24.48 24.48"><rect width="24.48" height="24.48" style="fill:none"/><circle cx="12.24" cy="12.24" r="2.24" style="fill:#7f96a5"/></pattern><pattern id="affad8cf-724b-4248-b10f-7f17253932fa" data-name="New Pattern" width="24.48" height="24.48" patternTransform="translate(136.9 0.18)" patternUnits="userSpaceOnUse" viewBox="0 0 24.48 24.48"><rect width="24.48" height="24.48" style="fill:none"/><circle cx="12.24" cy="12.24" r="2.24" style="fill:#7f96a5"/></pattern></defs><g style="isolation:isolate"><g id="eb2059fc-cc1e-4644-86e7-87eef6bae03f" data-name="abb6fa31-2e04-445e-9fd1-7671936e20d4"><rect x="0.05" y="-0.03" width="1996.92" height="857.32" style="fill:#f5f9fb"/><rect x="3.55" y="5.05" width="1990" height="847.78" rx="20" style="opacity:0.15;fill:url(#e27d910d-f158-4e6e-a074-d4d9ad6bed92)"/><path d="M1058.27,747.34v-61a.9.9,0,0,0-.45-.78l-52.34-30.22a.9.9,0,0,0-.9,0l-51.43,29.7a.89.89,0,0,0,0,1.56l25.26,14.59,26.17-15.11a.9.9,0,0,1,.9,0L1031.2,701a.9.9,0,0,1,.45.78V732h0l-13.89,8-12.28,7.08a.9.9,0,0,1-.9,0l-25.72-14.84a.91.91,0,0,1-.45-.79V701.24l-26.17,15.12a.91.91,0,0,0-.45.79v29.67a.9.9,0,0,0,.45.78l52.34,30.22a.9.9,0,0,0,.9,0l26.17-15.11,12.28,7.09a.9.9,0,0,0,.9,0l24.81-14.33a.9.9,0,0,0,0-1.56Z" style="fill:#252628"/></g><g id="e7fe3ac8-f683-4eeb-9623-591636d00b63" data-name="Layer 5"><circle cx="878.94" cy="277.56" r="34.9" style="fill:#252628"/><rect x="591.97" y="422.76" width="320" height="110" rx="1" style="fill:#0083ef"/><path d="M1408.38,372.76h-109a50,50,0,0,1-100,0h-109a1,1,0,0,0-1,1,160,160,0,0,0,320,0A1,1,0,0,0,1408.38,372.76Zm-24.44,10v56.45a150,150,0,0,1-10,17.2V382.76Zm-70,0h10V503q-4.9,2.82-10,5.25Zm20,0h10V489.22q-4.86,4-10,7.47Zm-30,14.95V512.56q-4.93,1.92-10,3.49V412.88A60.38,60.38,0,0,0,1303.94,397.71Zm-60,124.94c-3.36-.12-6.69-.34-10-.68V430.71a59.75,59.75,0,0,0,10,1.78Zm10-90.1a59.93,59.93,0,0,0,10-1.61v91.12c-3.32.32-6.65.52-10,.62Zm20-5.08a60.54,60.54,0,0,0,10-5.71v97c-3.31.77-6.64,1.44-10,2Zm-50-.41v93.56q-5.06-.87-10-2.06V421.1A60.56,60.56,0,0,0,1223.94,427.06Zm-20-15.22V515.77q-5.07-1.6-10-3.57V395.64A59.94,59.94,0,0,0,1203.94,411.84Zm-30-29.08h10v125q-5.1-2.46-10-5.33Zm-10,113.32q-5.14-3.58-10-7.6V382.76h10Zm-40-113.32v72.31a147.18,147.18,0,0,1-10-17.71v-54.6Zm-20,0v26.89a149.76,149.76,0,0,1-4.23-26.89Zm30,85.78V382.76h10v96.67l-.31-.3Q1138.5,474,1133.94,468.54Zm221.2,10.59-1.2,1.17V382.76h10v86.85C1361.15,472.89,1358.23,476.07,1355.14,479.13Zm38.8-66.07v-30.3h5.12A150.41,150.41,0,0,1,1393.94,413.06Z" style="fill:#635bff;mix-blend-mode:multiply"/><g style="mix-blend-mode:multiply"><path d="M1249.39,81.88a160,160,0,0,0-160,159,1,1,0,0,0,1,1h109a50,50,0,0,1,100,0h109a1,1,0,0,0,1-1A160,160,0,0,0,1249.39,81.88Z" style="fill:#15be53"/></g><rect x="594.27" y="318.38" width="277.22" height="111.58" transform="translate(-66.48 569.47) rotate(-40.78)" style="fill:#15be53;mix-blend-mode:multiply"/><rect x="591.97" y="422.76" width="320" height="110" rx="1" style="mix-blend-mode:color-burn;fill:url(#ab328ffd-ee8c-4c9a-8bce-f2aea1aa8a8e)"/><path d="M752,81.88a160,160,0,0,0-160,159,1,1,0,0,0,1,1H702a50,50,0,0,1,100,0H911a1,1,0,0,0,1-1A160,160,0,0,0,752,81.88Zm134.55,93.54v56.46h-10V158.22A150,150,0,0,1,886.52,175.42Zm-20-30.39v86.85h-10V134.33c.4.39.81.77,1.2,1.17Q862.35,140.1,866.52,145Zm-50-38.63q5.09,2.43,10,5.25V231.88h-10Zm20,11.54q5.13,3.51,10,7.47V231.88h-10Zm-50,74.94a60.54,60.54,0,0,0-10-5.71V93.87c3.36.56,6.7,1.22,10,2Zm-40-10.74a59.75,59.75,0,0,0-10,1.78V92.66c3.31-.33,6.65-.56,10-.68Zm10-90.19c3.35.1,6.69.31,10,.62v91.12a59.93,59.93,0,0,0-10-1.61Zm-70,139.93h-10V112.18q4.9-2.87,10-5.34Zm-20,0h-10V126.16q4.86-4,10-7.6Zm-20.3-96.38.3-.3v96.68h-10V146.1Q641.1,140.61,646.22,135.5Zm-19.7,96.38h-10V177.27a147.65,147.65,0,0,1,10-17.7Zm-20-26.9v26.9H602.3A150.61,150.61,0,0,1,606.52,205Zm90,14V102.43q4.93-2,10-3.56V202.79A59.94,59.94,0,0,0,696.52,219Zm20-25.46V96.08q5-1.2,10-2.06v93.56A59.83,59.83,0,0,0,716.52,193.53Zm80,8.22V98.58q5.06,1.58,10,3.49V216.93A60.44,60.44,0,0,0,796.52,201.75Zm100,30.13v-30.3a149.48,149.48,0,0,1,5.12,30.3Z" style="fill:#635bff;mix-blend-mode:multiply"/><g style="mix-blend-mode:multiply"><path d="M1004.15,432.84a44.68,44.68,0,1,1-44.68,44.67,44.72,44.72,0,0,1,44.68-44.67m0-10a54.68,54.68,0,1,0,54.68,54.67,54.68,54.68,0,0,0-54.68-54.67Z" style="fill:#0083ef"/></g><rect x="974.43" y="447.79" width="59.45" height="59.45" rx="29.73" style="fill:#15be53"/><g style="mix-blend-mode:multiply"><path d="M1408.66,252.24H1299.28v110h109.38a1,1,0,0,0,1-1v-108A1,1,0,0,0,1408.66,252.24Z" style="fill:#f93"/></g><path d="M1090.77,251.57a1,1,0,0,0-1,1v108a1,1,0,0,0,1,1h108.62v-110Z" style="fill:#0083ef"/><path d="M1090.77,251.57a1,1,0,0,0-1,1v108a1,1,0,0,0,1,1h108.62v-110Z" style="mix-blend-mode:color-burn;fill:url(#affad8cf-724b-4248-b10f-7f17253932fa)"/></g></g></svg>