<svg xmlns="http://www.w3.org/2000/svg" xmlns:xlink="http://www.w3.org/1999/xlink" width="1990" height="640" viewBox="0 0 1990 640"><defs><pattern id="f112e64e-cb1f-4b8a-9e80-284b755e61c7" data-name="New Pattern" width="24.48" height="24.48" patternTransform="translate(379.2 -486.05) scale(1 0.98)" patternUnits="userSpaceOnUse" viewBox="0 0 24.48 24.48"><rect width="24.48" height="24.48" style="fill:none"/><circle cx="12.24" cy="12.24" r="2.24" style="fill:#7f96a5"/></pattern></defs><g id="acae4763-b766-4547-a34d-f3e53cf9bbb7" data-name="Layer 3"><rect x="-3.5" y="-5.09" width="1996.92" height="650.11" style="fill:#f5f9fb"/><rect width="1990" height="640" style="opacity:0.15;fill:url(#f112e64e-cb1f-4b8a-9e80-284b755e61c7)"/></g><g id="e20eeec1-0e60-4b90-842d-5341004961d2" data-name="abb6fa31-2e04-445e-9fd1-7671936e20d4"><path d="M272.71,100.85v5.45H262v30.21h-6.63V106.3H244.57v-5.45Z" style="fill:#252628"/><path d="M284,103.84a3.55,3.55,0,0,1-.32,1.48,4.16,4.16,0,0,1-2.1,2,3.77,3.77,0,0,1-1.53.31,3.59,3.59,0,0,1-1.49-.31,4,4,0,0,1-2.05-2,3.7,3.7,0,0,1-.31-1.48,3.87,3.87,0,0,1,.31-1.53,4,4,0,0,1,.83-1.24,3.85,3.85,0,0,1,1.22-.82,3.59,3.59,0,0,1,1.49-.31,3.77,3.77,0,0,1,1.53.31,3.94,3.94,0,0,1,1.24.82,4,4,0,0,1,.86,1.24A3.71,3.71,0,0,1,284,103.84Zm-.92,7.37v25.3H277v-25.3Z" style="fill:#252628"/><path d="M289.94,136.51v-25.3h3.73a1.49,1.49,0,0,1,1.55,1.11l.4,1.87a13.59,13.59,0,0,1,1.39-1.35,8.51,8.51,0,0,1,1.55-1.06,8.7,8.7,0,0,1,1.78-.71,8,8,0,0,1,2.08-.26,5.94,5.94,0,0,1,3.94,1.3,7.84,7.84,0,0,1,2.3,3.44,7.87,7.87,0,0,1,1.48-2.16,7.77,7.77,0,0,1,1.95-1.46,8.9,8.9,0,0,1,2.26-.84,10.85,10.85,0,0,1,2.4-.28,10,10,0,0,1,3.72.65,7,7,0,0,1,2.74,1.87,8.19,8.19,0,0,1,1.69,3,13,13,0,0,1,.58,4.07v16.1h-6.09v-16.1a5.4,5.4,0,0,0-1.06-3.64,3.91,3.91,0,0,0-3.11-1.22,4.76,4.76,0,0,0-1.74.32,4,4,0,0,0-1.4.93,4.06,4.06,0,0,0-.95,1.51,5.93,5.93,0,0,0-.35,2.1v16.1h-6.11v-16.1a5.47,5.47,0,0,0-1-3.7,3.82,3.82,0,0,0-3-1.16,4.91,4.91,0,0,0-2.45.65A8.26,8.26,0,0,0,296,118v18.52Z" style="fill:#252628"/><path d="M341.93,110.81a12.29,12.29,0,0,1,4.4.77,9.64,9.64,0,0,1,3.47,2.23,10.34,10.34,0,0,1,2.27,3.6,13.66,13.66,0,0,1,.81,4.87,9.07,9.07,0,0,1-.06,1.15,1.92,1.92,0,0,1-.22.71.84.84,0,0,1-.44.37,1.71,1.71,0,0,1-.69.12H335.84q.27,3.88,2.09,5.72a6.57,6.57,0,0,0,4.84,1.82,8.38,8.38,0,0,0,2.55-.34,12,12,0,0,0,1.88-.77c.53-.28,1-.53,1.4-.76a2.35,2.35,0,0,1,1.17-.35,1.29,1.29,0,0,1,.64.15,1.44,1.44,0,0,1,.47.42l1.78,2.22a10.1,10.1,0,0,1-2.27,2,12.57,12.57,0,0,1-2.63,1.29,14.25,14.25,0,0,1-2.78.67,18.85,18.85,0,0,1-2.75.2,13.59,13.59,0,0,1-4.91-.87,11.16,11.16,0,0,1-3.95-2.59,12.36,12.36,0,0,1-2.64-4.24,16.48,16.48,0,0,1-1-5.86,14,14,0,0,1,.84-4.87,11.73,11.73,0,0,1,2.4-4,11.34,11.34,0,0,1,3.83-2.68A12.53,12.53,0,0,1,341.93,110.81Zm.12,4.37a5.63,5.63,0,0,0-4.16,1.5A7.42,7.42,0,0,0,336,121H347.4a7.38,7.38,0,0,0-.32-2.23,5.17,5.17,0,0,0-1-1.84,4.78,4.78,0,0,0-1.68-1.24A5.6,5.6,0,0,0,342.05,115.18Z" style="fill:#252628"/><path d="M375.67,136.91a6.63,6.63,0,0,1-5.06-1.87,7.15,7.15,0,0,1-1.78-5.14V115.77h-2.56a1.17,1.17,0,0,1-1.21-1.28v-2.42l4.07-.66,1.28-6.91a1.22,1.22,0,0,1,.46-.76,1.46,1.46,0,0,1,.9-.27h3.16v8h6.65v4.34h-6.65v13.71a2.65,2.65,0,0,0,.59,1.85,2,2,0,0,0,1.58.67,2.93,2.93,0,0,0,.95-.14,5.24,5.24,0,0,0,.66-.28l.51-.28a.82.82,0,0,1,.44-.14.68.68,0,0,1,.44.14,1.83,1.83,0,0,1,.37.4l1.83,3a9.3,9.3,0,0,1-3.06,1.68A11.3,11.3,0,0,1,375.67,136.91Z" style="fill:#252628"/><path d="M397.24,110.81a13.89,13.89,0,0,1,5.15.92,11.18,11.18,0,0,1,3.93,2.59,11.42,11.42,0,0,1,2.51,4.09,16.92,16.92,0,0,1,0,10.83,11.82,11.82,0,0,1-2.51,4.12,11.09,11.09,0,0,1-3.93,2.61,15,15,0,0,1-10.3,0,11,11,0,0,1-4-2.61,11.88,11.88,0,0,1-2.54-4.12,16.74,16.74,0,0,1,0-10.83,11.48,11.48,0,0,1,2.54-4.09,11.12,11.12,0,0,1,4-2.59A13.89,13.89,0,0,1,397.24,110.81Zm0,21.39a5.37,5.37,0,0,0,4.68-2.12,10.68,10.68,0,0,0,1.51-6.22,10.77,10.77,0,0,0-1.51-6.24,5.34,5.34,0,0,0-4.68-2.14,5.42,5.42,0,0,0-4.73,2.15,10.71,10.71,0,0,0-1.53,6.23,10.57,10.57,0,0,0,1.53,6.2A5.42,5.42,0,0,0,397.24,132.2Z" style="fill:#252628"/><path d="M424,136.51V99.87h6.09V114a12.66,12.66,0,0,1,3.26-2.27,9.35,9.35,0,0,1,4.17-.87,9,9,0,0,1,3.67.71,7.28,7.28,0,0,1,2.68,2,8.81,8.81,0,0,1,1.62,3,12.92,12.92,0,0,1,.56,3.89v16.1H440v-16.1a5.38,5.38,0,0,0-1.08-3.59,3.94,3.94,0,0,0-3.21-1.27,6.29,6.29,0,0,0-3,.72,10.45,10.45,0,0,0-2.62,1.94v18.3Z" style="fill:#252628"/><path d="M460.13,143.47a2.43,2.43,0,0,1-.7,1,2.17,2.17,0,0,1-1.32.33h-4.54l4.73-10.13-10.23-23.43h5.33a1.61,1.61,0,0,1,1.13.35,2.3,2.3,0,0,1,.59.78l5.4,13.12a10.11,10.11,0,0,1,.47,1.34c.13.46.25.92.35,1.38.13-.48.27-.94.43-1.38s.32-.9.51-1.36l5.08-13.1a1.81,1.81,0,0,1,1.67-1.13h4.89Z" style="fill:#252628"/><path d="M494.46,136.51a1.51,1.51,0,0,1-1.56-1.11l-.49-2.44a14.58,14.58,0,0,1-1.65,1.6,11,11,0,0,1-1.86,1.24,10,10,0,0,1-2.15.8,10.24,10.24,0,0,1-2.48.28,8.26,8.26,0,0,1-6.77-3.36,12,12,0,0,1-1.92-4.06,20.56,20.56,0,0,1-.68-5.53,17.2,17.2,0,0,1,.77-5.22,12.9,12.9,0,0,1,2.19-4.2,10.31,10.31,0,0,1,3.43-2.77,9.85,9.85,0,0,1,4.49-1,8.79,8.79,0,0,1,3.62.68,9.5,9.5,0,0,1,2.69,1.81V99.87h6.09v36.64Zm-8.12-4.46a6.22,6.22,0,0,0,3.24-.79,9.77,9.77,0,0,0,2.51-2.24V117.67a6,6,0,0,0-2.26-1.78,6.69,6.69,0,0,0-2.62-.51,6,6,0,0,0-2.51.51,4.91,4.91,0,0,0-1.89,1.57,7.69,7.69,0,0,0-1.2,2.66,15.3,15.3,0,0,0-.42,3.81,16.91,16.91,0,0,0,.36,3.77,7.56,7.56,0,0,0,1,2.51,4,4,0,0,0,1.63,1.41A5.31,5.31,0,0,0,486.34,132.05Z" style="fill:#252628"/><path d="M504.77,136.51v-25.3h3.57a1.87,1.87,0,0,1,1.31.35,1.94,1.94,0,0,1,.49,1.18l.37,3.06a12,12,0,0,1,3.18-3.7,6.67,6.67,0,0,1,4.1-1.36,5.3,5.3,0,0,1,3.1.86l-.78,4.57a1,1,0,0,1-.33.63,1.08,1.08,0,0,1-.66.18,4.37,4.37,0,0,1-1-.17,6.6,6.6,0,0,0-1.7-.17,5.17,5.17,0,0,0-3.26,1,8.13,8.13,0,0,0-2.29,3.07v15.76Z" style="fill:#252628"/><path d="M544,136.51h-2.74a2.86,2.86,0,0,1-1.36-.26,1.67,1.67,0,0,1-.74-1l-.54-1.81a18.79,18.79,0,0,1-1.89,1.52,11.1,11.1,0,0,1-1.91,1.1,9.44,9.44,0,0,1-2.09.66,12.5,12.5,0,0,1-2.47.23,9.67,9.67,0,0,1-3-.44,6.52,6.52,0,0,1-2.33-1.29,6,6,0,0,1-1.52-2.16,7.67,7.67,0,0,1-.54-3,6,6,0,0,1,.75-2.84,7.08,7.08,0,0,1,2.51-2.52,16,16,0,0,1,4.66-1.87,30,30,0,0,1,7.22-.74v-1.49a5.62,5.62,0,0,0-1.07-3.79,3.9,3.9,0,0,0-3.12-1.23,7.87,7.87,0,0,0-2.47.34,10.52,10.52,0,0,0-1.71.78c-.48.29-.93.55-1.34.78a2.75,2.75,0,0,1-1.36.34,1.73,1.73,0,0,1-1.06-.32,2.48,2.48,0,0,1-.72-.79l-1.1-1.94a15,15,0,0,1,10.53-4,10,10,0,0,1,4,.73,8.43,8.43,0,0,1,2.95,2,8.6,8.6,0,0,1,1.84,3.1,11.84,11.84,0,0,1,.63,3.94Zm-11.84-3.8a7.87,7.87,0,0,0,1.73-.17,6.4,6.4,0,0,0,1.49-.51,7.32,7.32,0,0,0,1.35-.83,11.68,11.68,0,0,0,1.32-1.18v-4.24a25,25,0,0,0-4.45.34,11.46,11.46,0,0,0-2.87.86,3.65,3.65,0,0,0-1.54,1.21,3.06,3.06,0,0,0,.49,3.83A4.11,4.11,0,0,0,532.19,132.71Z" style="fill:#252628"/><path d="M558.33,136.91a6.64,6.64,0,0,1-5.06-1.87,7.15,7.15,0,0,1-1.77-5.14V115.77h-2.57a1.22,1.22,0,0,1-.85-.32,1.24,1.24,0,0,1-.35-1v-2.42l4.07-.66,1.28-6.91a1.21,1.21,0,0,1,.45-.76,1.46,1.46,0,0,1,.9-.27h3.16v8h6.66v4.34h-6.66v13.71a2.7,2.7,0,0,0,.59,1.85,2,2,0,0,0,1.58.67,2.84,2.84,0,0,0,1-.14,5.42,5.42,0,0,0,.67-.28l.5-.28a.88.88,0,0,1,.45-.14.7.7,0,0,1,.44.14,2.11,2.11,0,0,1,.37.4l1.82,3a9.15,9.15,0,0,1-3.05,1.68A11.37,11.37,0,0,1,558.33,136.91Z" style="fill:#252628"/><path d="M579.56,110.81a12.3,12.3,0,0,1,4.41.77,9.6,9.6,0,0,1,3.46,2.23,10.2,10.2,0,0,1,2.27,3.6,13.66,13.66,0,0,1,.81,4.87,9.07,9.07,0,0,1-.06,1.15,1.75,1.75,0,0,1-.22.71.85.85,0,0,1-.43.37,1.71,1.71,0,0,1-.69.12H573.47q.27,3.88,2.1,5.72a6.55,6.55,0,0,0,4.83,1.82,8.33,8.33,0,0,0,2.55-.34,12,12,0,0,0,1.88-.77c.53-.28,1-.53,1.4-.76a2.41,2.41,0,0,1,1.18-.35,1.32,1.32,0,0,1,.64.15,1.55,1.55,0,0,1,.47.42l1.77,2.22a9.89,9.89,0,0,1-2.27,2A12.49,12.49,0,0,1,585.4,136a14.52,14.52,0,0,1-2.79.67,18.75,18.75,0,0,1-2.75.2A13.59,13.59,0,0,1,575,136a11,11,0,0,1-3.94-2.59,12.21,12.21,0,0,1-2.64-4.24,16.48,16.48,0,0,1-1-5.86,14,14,0,0,1,.83-4.87,11.59,11.59,0,0,1,2.41-4,11.3,11.3,0,0,1,3.82-2.68A12.56,12.56,0,0,1,579.56,110.81Zm.13,4.37a5.64,5.64,0,0,0-4.17,1.5A7.41,7.41,0,0,0,573.6,121H585a7.71,7.71,0,0,0-.32-2.23,5.36,5.36,0,0,0-1-1.84,4.61,4.61,0,0,0-1.68-1.24A5.58,5.58,0,0,0,579.69,115.18Z" style="fill:#252628"/><path d="M617.15,100.46a13.28,13.28,0,0,1,4.45.7,10.25,10.25,0,0,1,3.39,2,8.58,8.58,0,0,1,2.16,2.92,8.8,8.8,0,0,1,.75,3.63,10.75,10.75,0,0,1-.38,3,7.12,7.12,0,0,1-1.11,2.26,6.94,6.94,0,0,1-1.78,1.63,11.12,11.12,0,0,1-2.38,1.11,9.33,9.33,0,0,1,4.79,3.08,8.35,8.35,0,0,1,1.57,5.2,10.8,10.8,0,0,1-1,4.71,10.1,10.1,0,0,1-2.67,3.44,11.39,11.39,0,0,1-3.88,2.11,15,15,0,0,1-4.67.72,16,16,0,0,1-4.69-.62,10.31,10.31,0,0,1-3.48-1.82,11.3,11.3,0,0,1-2.51-3,20.49,20.49,0,0,1-1.78-4l2.69-1.11a3.49,3.49,0,0,1,1.41-.29,2.37,2.37,0,0,1,1.14.27,1.8,1.8,0,0,1,.78.79c.3.57.62,1.14,1,1.7a7.26,7.26,0,0,0,1.27,1.49,6.1,6.1,0,0,0,1.74,1.06,6.34,6.34,0,0,0,2.38.41,6.65,6.65,0,0,0,2.71-.51A5.94,5.94,0,0,0,621,130a5.38,5.38,0,0,0,1.16-1.81,5.72,5.72,0,0,0,.38-2,9.32,9.32,0,0,0-.27-2.33,3.46,3.46,0,0,0-1.13-1.79,6.3,6.3,0,0,0-2.48-1.16,17.87,17.87,0,0,0-4.33-.42v-4.36a14.32,14.32,0,0,0,3.72-.4,6.4,6.4,0,0,0,2.36-1.09,3.79,3.79,0,0,0,1.22-1.69,6.54,6.54,0,0,0,.34-2.17,5,5,0,0,0-1.38-3.84,5.29,5.29,0,0,0-3.77-1.29,5.58,5.58,0,0,0-3.6,1.14,6.07,6.07,0,0,0-2,3,2.67,2.67,0,0,1-.81,1.34,2.16,2.16,0,0,1-1.36.4,5.09,5.09,0,0,1-.84-.07l-3.2-.56a13,13,0,0,1,1.43-4.5,10.81,10.81,0,0,1,2.65-3.23,11.15,11.15,0,0,1,3.65-2A14.73,14.73,0,0,1,617.15,100.46Z" style="fill:#252628"/><path d="M653.57,123.07h4.49v3.53a1.25,1.25,0,0,1-.32.85,1.21,1.21,0,0,1-.94.36h-3.23v8.7h-5.33v-8.7h-15a1.73,1.73,0,0,1-1.68-1.33l-.61-3.09,16.89-22.56h5.77Zm-5.33-11.66c0-.53,0-1.1,0-1.7s.09-1.25.18-1.9l-11.08,15.26h10.85Z" style="fill:#252628"/><path d="M686.32,118.68a29,29,0,0,1-1,8.1,16.78,16.78,0,0,1-2.76,5.69,11.27,11.27,0,0,1-4.17,3.34,12.36,12.36,0,0,1-5.19,1.1,12.23,12.23,0,0,1-5.17-1.1,11.23,11.23,0,0,1-4.13-3.34,16.39,16.39,0,0,1-2.73-5.69,33.67,33.67,0,0,1,0-16.21,16.28,16.28,0,0,1,2.73-5.67,11.13,11.13,0,0,1,4.13-3.34,12.08,12.08,0,0,1,5.17-1.1,12.21,12.21,0,0,1,5.19,1.1,11.18,11.18,0,0,1,4.17,3.34,16.67,16.67,0,0,1,2.76,5.67A29,29,0,0,1,686.32,118.68Zm-6.29,0a30,30,0,0,0-.57-6.41,12.76,12.76,0,0,0-1.51-4,5.48,5.48,0,0,0-2.19-2.11,5.64,5.64,0,0,0-2.56-.61,5.58,5.58,0,0,0-2.53.61,5.48,5.48,0,0,0-2.16,2.11,13,13,0,0,0-1.49,4,37.63,37.63,0,0,0,0,12.82,13,13,0,0,0,1.49,4,5.62,5.62,0,0,0,2.16,2.11,5.7,5.7,0,0,0,2.53.6,5.76,5.76,0,0,0,2.56-.6,5.62,5.62,0,0,0,2.19-2.11,12.73,12.73,0,0,0,1.51-4A30,30,0,0,0,680,118.68Z" style="fill:#252628"/><path d="M700.33,144.77V111.21h3.72a1.84,1.84,0,0,1,1,.27,1.25,1.25,0,0,1,.54.84l.5,2.34a12.86,12.86,0,0,1,3.51-2.83,9.46,9.46,0,0,1,4.65-1.09,8.13,8.13,0,0,1,6.74,3.37,12,12,0,0,1,1.93,4,20.41,20.41,0,0,1,.68,5.51,17.37,17.37,0,0,1-.77,5.26,12.92,12.92,0,0,1-2.18,4.19,10.1,10.1,0,0,1-3.43,2.77,9.92,9.92,0,0,1-4.5,1,9.18,9.18,0,0,1-3.64-.65,9.07,9.07,0,0,1-2.67-1.81v10.35Zm11.83-29.22a6.28,6.28,0,0,0-3.24.8,9.38,9.38,0,0,0-2.5,2.26V130a5.79,5.79,0,0,0,2.25,1.79,6.77,6.77,0,0,0,2.63.51,6,6,0,0,0,2.5-.52,4.88,4.88,0,0,0,1.9-1.58,7.8,7.8,0,0,0,1.2-2.68,15.19,15.19,0,0,0,.42-3.81,16.81,16.81,0,0,0-.36-3.76,7.41,7.41,0,0,0-1-2.5,4.17,4.17,0,0,0-1.62-1.41A5.11,5.11,0,0,0,712.16,115.55Z" style="fill:#252628"/><path d="M728.22,136.51v-25.3h3.57a1.87,1.87,0,0,1,1.31.35,1.94,1.94,0,0,1,.49,1.18l.37,3.06a11.93,11.93,0,0,1,3.19-3.7,6.64,6.64,0,0,1,4.09-1.36,5.35,5.35,0,0,1,3.11.86l-.79,4.57a1,1,0,0,1-.32.63,1.13,1.13,0,0,1-.67.18,4.37,4.37,0,0,1-1-.17,6.6,6.6,0,0,0-1.7-.17,5.17,5.17,0,0,0-3.26,1,8.13,8.13,0,0,0-2.29,3.07v15.76Z" style="fill:#252628"/><path d="M759.17,110.81a13.84,13.84,0,0,1,5.14.92,11,11,0,0,1,3.93,2.59,11.3,11.3,0,0,1,2.52,4.09,16.92,16.92,0,0,1,0,10.83,11.69,11.69,0,0,1-2.52,4.12,10.92,10.92,0,0,1-3.93,2.61,13.83,13.83,0,0,1-5.14.91A14,14,0,0,1,754,136a11.21,11.21,0,0,1-4-2.61,11.88,11.88,0,0,1-2.54-4.12,16.74,16.74,0,0,1,0-10.83,11.48,11.48,0,0,1,2.54-4.09,11.3,11.3,0,0,1,4-2.59A14,14,0,0,1,759.17,110.81Zm0,21.39a5.36,5.36,0,0,0,4.67-2.12,10.67,10.67,0,0,0,1.52-6.22,10.76,10.76,0,0,0-1.52-6.24,5.33,5.33,0,0,0-4.67-2.14,5.43,5.43,0,0,0-4.74,2.15,10.71,10.71,0,0,0-1.53,6.23,10.57,10.57,0,0,0,1.53,6.2A5.42,5.42,0,0,0,759.17,132.2Z" style="fill:#252628"/><path d="M794.21,136.51a1.49,1.49,0,0,1-1.55-1.11l-.5-2.44a13.79,13.79,0,0,1-1.65,1.6,10.21,10.21,0,0,1-1.86,1.24,10,10,0,0,1-2.15.8,10.21,10.21,0,0,1-2.47.28,8.42,8.42,0,0,1-3.8-.86,8.54,8.54,0,0,1-3-2.5,12.06,12.06,0,0,1-1.93-4.06,20.56,20.56,0,0,1-.68-5.53,17.2,17.2,0,0,1,.77-5.22,12.9,12.9,0,0,1,2.19-4.2,10.41,10.41,0,0,1,3.43-2.77,9.85,9.85,0,0,1,4.49-1,8.87,8.87,0,0,1,3.63.68,9.59,9.59,0,0,1,2.68,1.81V99.87h6.09v36.64Zm-8.11-4.46a6.21,6.21,0,0,0,3.23-.79,9.61,9.61,0,0,0,2.51-2.24V117.67a6,6,0,0,0-2.25-1.78,6.77,6.77,0,0,0-2.63-.51,6,6,0,0,0-2.5.51,4.94,4.94,0,0,0-1.9,1.57,7.69,7.69,0,0,0-1.2,2.66,15.3,15.3,0,0,0-.42,3.81,16.91,16.91,0,0,0,.36,3.77,7.56,7.56,0,0,0,1,2.51,4,4,0,0,0,1.63,1.41A5.32,5.32,0,0,0,786.1,132.05Z" style="fill:#252628"/><path d="M810.09,111.21v16.08a5.45,5.45,0,0,0,1.07,3.59,4,4,0,0,0,3.22,1.27,6.4,6.4,0,0,0,3-.71,10.34,10.34,0,0,0,2.62-1.93v-18.3h6.09v25.3h-3.73a1.49,1.49,0,0,1-1.55-1.11l-.42-2a16.65,16.65,0,0,1-1.63,1.44,9.44,9.44,0,0,1-1.78,1.11,9.75,9.75,0,0,1-2.05.72,10.41,10.41,0,0,1-2.36.26,9,9,0,0,1-3.66-.71,7.24,7.24,0,0,1-2.67-2,8.61,8.61,0,0,1-1.64-3.05,12.85,12.85,0,0,1-.56-3.88V111.21Z" style="fill:#252628"/><path d="M850.34,116.56a3,3,0,0,1-.53.54,1.16,1.16,0,0,1-.75.2,1.68,1.68,0,0,1-.92-.28c-.29-.19-.65-.41-1.06-.64a8,8,0,0,0-1.46-.65,7,7,0,0,0-2.11-.28,6.35,6.35,0,0,0-2.81.58,5.25,5.25,0,0,0-2,1.67,7.27,7.27,0,0,0-1.2,2.62,14.27,14.27,0,0,0-.39,3.49,13.56,13.56,0,0,0,.43,3.6,7.57,7.57,0,0,0,1.24,2.65,5.34,5.34,0,0,0,2,1.63,6,6,0,0,0,2.61.56,6.41,6.41,0,0,0,2.35-.36,7.41,7.41,0,0,0,1.52-.79c.41-.29.77-.55,1.07-.79a1.64,1.64,0,0,1,1-.36,1.24,1.24,0,0,1,1.11.57l1.75,2.22a11,11,0,0,1-2.2,2,11.52,11.52,0,0,1-2.45,1.29,12.38,12.38,0,0,1-2.63.67,17.45,17.45,0,0,1-2.68.2,11.28,11.28,0,0,1-4.42-.87,10.4,10.4,0,0,1-3.61-2.56,12.14,12.14,0,0,1-2.44-4.1,17.31,17.31,0,0,1-.1-10.71,11.74,11.74,0,0,1,2.35-4.11,10.87,10.87,0,0,1,3.85-2.73,13.23,13.23,0,0,1,5.28-1,12.56,12.56,0,0,1,5,.92,12.18,12.18,0,0,1,3.83,2.61Z" style="fill:#252628"/><path d="M864.4,136.91a6.63,6.63,0,0,1-5.06-1.87,7.15,7.15,0,0,1-1.78-5.14V115.77H855a1.17,1.17,0,0,1-1.21-1.28v-2.42l4.07-.66,1.28-6.91a1.22,1.22,0,0,1,.46-.76,1.46,1.46,0,0,1,.9-.27h3.16v8h6.65v4.34h-6.65v13.71a2.65,2.65,0,0,0,.59,1.85,2,2,0,0,0,1.58.67,2.82,2.82,0,0,0,.94-.14,4.84,4.84,0,0,0,.67-.28l.51-.28a.82.82,0,0,1,.44-.14.68.68,0,0,1,.44.14,1.83,1.83,0,0,1,.37.4l1.83,3a9.3,9.3,0,0,1-3.06,1.68A11.3,11.3,0,0,1,864.4,136.91Z" style="fill:#252628"/><path d="M882.57,103.84a3.55,3.55,0,0,1-.32,1.48,4,4,0,0,1-.85,1.2,4,4,0,0,1-1.25.83,3.69,3.69,0,0,1-1.52.31,3.63,3.63,0,0,1-1.5-.31,4,4,0,0,1-1.22-.83,3.88,3.88,0,0,1-.82-1.2,3.54,3.54,0,0,1-.31-1.48,3.7,3.7,0,0,1,.31-1.53,3.77,3.77,0,0,1,2-2.06,3.63,3.63,0,0,1,1.5-.31,3.69,3.69,0,0,1,1.52.31,3.88,3.88,0,0,1,2.1,2.06A3.71,3.71,0,0,1,882.57,103.84Zm-.91,7.37v25.3h-6.09v-25.3Z" style="fill:#252628"/><path d="M899.34,110.81a13.84,13.84,0,0,1,5.14.92,11.13,11.13,0,0,1,3.94,2.59,11.42,11.42,0,0,1,2.51,4.09,16.92,16.92,0,0,1,0,10.83,11.82,11.82,0,0,1-2.51,4.12,11,11,0,0,1-3.94,2.61,15,15,0,0,1-10.29,0,11,11,0,0,1-4-2.61,11.74,11.74,0,0,1-2.54-4.12,16.74,16.74,0,0,1,0-10.83,11.34,11.34,0,0,1,2.54-4.09,11.12,11.12,0,0,1,4-2.59A13.89,13.89,0,0,1,899.34,110.81Zm0,21.39a5.36,5.36,0,0,0,4.67-2.12,10.67,10.67,0,0,0,1.52-6.22,10.76,10.76,0,0,0-1.52-6.24,5.33,5.33,0,0,0-4.67-2.14,5.4,5.4,0,0,0-4.73,2.15,10.71,10.71,0,0,0-1.53,6.23,10.57,10.57,0,0,0,1.53,6.2A5.39,5.39,0,0,0,899.34,132.2Z" style="fill:#252628"/><path d="M916.58,136.51v-25.3h3.72a1.51,1.51,0,0,1,1.56,1.11l.41,2a12.76,12.76,0,0,1,1.62-1.43,11.18,11.18,0,0,1,1.8-1.11,9,9,0,0,1,2-.72,10.88,10.88,0,0,1,2.36-.25,9.08,9.08,0,0,1,3.68.71,7.16,7.16,0,0,1,2.67,2,8.66,8.66,0,0,1,1.63,3,12.92,12.92,0,0,1,.56,3.89v16.1h-6.1v-16.1a5.38,5.38,0,0,0-1.07-3.59,4,4,0,0,0-3.22-1.27,6.32,6.32,0,0,0-3,.72,10.41,10.41,0,0,0-2.61,1.94v18.3Z" style="fill:#252628"/><path d="M964.94,110.81a13.84,13.84,0,0,1,5.14.92,11,11,0,0,1,3.93,2.59,11.3,11.3,0,0,1,2.52,4.09,16.92,16.92,0,0,1,0,10.83,11.69,11.69,0,0,1-2.52,4.12,10.92,10.92,0,0,1-3.93,2.61,13.83,13.83,0,0,1-5.14.91,14,14,0,0,1-5.16-.91,11.08,11.08,0,0,1-3.95-2.61,11.74,11.74,0,0,1-2.54-4.12,16.74,16.74,0,0,1,0-10.83,11.34,11.34,0,0,1,2.54-4.09,11.17,11.17,0,0,1,3.95-2.59A14,14,0,0,1,964.94,110.81Zm0,21.39a5.36,5.36,0,0,0,4.67-2.12,10.67,10.67,0,0,0,1.52-6.22,10.76,10.76,0,0,0-1.52-6.24,5.33,5.33,0,0,0-4.67-2.14,5.43,5.43,0,0,0-4.74,2.15,10.71,10.71,0,0,0-1.53,6.23,10.57,10.57,0,0,0,1.53,6.2A5.42,5.42,0,0,0,964.94,132.2Z" style="fill:#252628"/><path d="M982.18,136.51v-25.3h3.57a1.87,1.87,0,0,1,1.31.35,1.94,1.94,0,0,1,.49,1.18l.37,3.06a12,12,0,0,1,3.18-3.7,6.67,6.67,0,0,1,4.1-1.36,5.3,5.3,0,0,1,3.1.86l-.78,4.57a1,1,0,0,1-.33.63,1.08,1.08,0,0,1-.66.18,4.37,4.37,0,0,1-1-.17,6.6,6.6,0,0,0-1.7-.17,5.15,5.15,0,0,0-3.26,1,8.13,8.13,0,0,0-2.29,3.07v15.76Z" style="fill:#252628"/><path d="M1020.13,136.51a1.49,1.49,0,0,1-1.55-1.11l-.5-2.44a13.79,13.79,0,0,1-1.65,1.6,11,11,0,0,1-1.86,1.24,10,10,0,0,1-2.15.8,10.24,10.24,0,0,1-2.48.28,8.41,8.41,0,0,1-3.79-.86,8.57,8.57,0,0,1-3-2.5,12,12,0,0,1-1.92-4.06,20.56,20.56,0,0,1-.68-5.53,17.2,17.2,0,0,1,.77-5.22,12.9,12.9,0,0,1,2.19-4.2,10.41,10.41,0,0,1,3.43-2.77,9.85,9.85,0,0,1,4.49-1,8.79,8.79,0,0,1,3.62.68,9.5,9.5,0,0,1,2.69,1.81V99.87h6.09v36.64Zm-8.11-4.46a6.21,6.21,0,0,0,3.23-.79,9.77,9.77,0,0,0,2.51-2.24V117.67a6,6,0,0,0-2.25-1.78,6.77,6.77,0,0,0-2.63-.51,5.94,5.94,0,0,0-2.5.51,4.94,4.94,0,0,0-1.9,1.57,7.69,7.69,0,0,0-1.2,2.66,15.3,15.3,0,0,0-.42,3.81,16.91,16.91,0,0,0,.36,3.77,7.56,7.56,0,0,0,1,2.51,4,4,0,0,0,1.63,1.41A5.32,5.32,0,0,0,1012,132.05Z" style="fill:#252628"/><path d="M1040.89,110.81a12.3,12.3,0,0,1,4.41.77,9.6,9.6,0,0,1,3.46,2.23,10.2,10.2,0,0,1,2.27,3.6,13.66,13.66,0,0,1,.81,4.87,9.07,9.07,0,0,1-.06,1.15,1.75,1.75,0,0,1-.22.71.85.85,0,0,1-.43.37,1.71,1.71,0,0,1-.69.12H1034.8q.27,3.88,2.1,5.72a6.56,6.56,0,0,0,4.83,1.82,8.33,8.33,0,0,0,2.55-.34,12,12,0,0,0,1.88-.77c.53-.28,1-.53,1.4-.76a2.41,2.41,0,0,1,1.18-.35,1.32,1.32,0,0,1,.64.15,1.55,1.55,0,0,1,.47.42l1.77,2.22a9.89,9.89,0,0,1-2.27,2,12.49,12.49,0,0,1-2.62,1.29,14.52,14.52,0,0,1-2.79.67,18.75,18.75,0,0,1-2.75.2,13.59,13.59,0,0,1-4.91-.87,11,11,0,0,1-3.94-2.59,12.21,12.21,0,0,1-2.64-4.24,16.48,16.48,0,0,1-1-5.86,14.19,14.19,0,0,1,.83-4.87,11.59,11.59,0,0,1,2.41-4,11.3,11.3,0,0,1,3.82-2.68A12.56,12.56,0,0,1,1040.89,110.81Zm.13,4.37a5.64,5.64,0,0,0-4.17,1.5,7.48,7.48,0,0,0-1.92,4.27h11.44a7.71,7.71,0,0,0-.32-2.23,5.19,5.19,0,0,0-1-1.84,4.61,4.61,0,0,0-1.68-1.24A5.58,5.58,0,0,0,1041,115.18Z" style="fill:#252628"/><path d="M1056.8,136.51v-25.3h3.58a1.84,1.84,0,0,1,1.3.35,2,2,0,0,1,.5,1.18l.37,3.06a11.78,11.78,0,0,1,3.18-3.7,6.64,6.64,0,0,1,4.09-1.36,5.33,5.33,0,0,1,3.11.86l-.79,4.57a1,1,0,0,1-.32.63,1.13,1.13,0,0,1-.67.18,4.46,4.46,0,0,1-1-.17,6.54,6.54,0,0,0-1.7-.17,5.17,5.17,0,0,0-3.26,1,8.24,8.24,0,0,0-2.29,3.07v15.76Z" style="fill:#252628"/><path d="M1087.55,136.51V115.8l-2.19-.35a2.38,2.38,0,0,1-1.15-.49,1.29,1.29,0,0,1-.43-1v-2.49h3.77v-.81a11.91,11.91,0,0,1,.77-4.31,9.25,9.25,0,0,1,2.31-3.44,11,11,0,0,1,3.93-2.28,17,17,0,0,1,5.59-.82,19.19,19.19,0,0,1,2.12.11,9,9,0,0,1,1.88.36l-.2,3.15a.69.69,0,0,1-.62.68,7.71,7.71,0,0,1-1.4.11,16.22,16.22,0,0,0-4,.42,6.62,6.62,0,0,0-2.61,1.25,4.56,4.56,0,0,0-1.43,2.07,8.75,8.75,0,0,0-.43,2.89v.62h15.68v25.08H1103V115.77h-9.4v20.74Z" style="fill:#252628"/><path d="M1131.13,116.14a1.78,1.78,0,0,1-.52.56,1.41,1.41,0,0,1-.69.16,2.24,2.24,0,0,1-1-.25l-1.17-.55a10.59,10.59,0,0,0-1.52-.56,7.46,7.46,0,0,0-2-.25,4.66,4.66,0,0,0-2.83.77,2.37,2.37,0,0,0-1,2,1.93,1.93,0,0,0,.53,1.37,4.85,4.85,0,0,0,1.41,1,13.24,13.24,0,0,0,2,.75c.74.22,1.5.47,2.27.73a23.28,23.28,0,0,1,2.27.9,7.83,7.83,0,0,1,2,1.28,5.88,5.88,0,0,1,1.41,1.86,6,6,0,0,1,.53,2.62,8.26,8.26,0,0,1-.67,3.36,7.41,7.41,0,0,1-1.94,2.67,9.4,9.4,0,0,1-3.17,1.75,13.66,13.66,0,0,1-4.33.63,13.44,13.44,0,0,1-2.55-.24,14.62,14.62,0,0,1-2.4-.65,13.33,13.33,0,0,1-2.12-1,10.42,10.42,0,0,1-1.71-1.23l1.41-2.32a2,2,0,0,1,.64-.64,1.76,1.76,0,0,1,.93-.22,2,2,0,0,1,1.08.32q.49.31,1.17.69a9.56,9.56,0,0,0,1.56.69,7,7,0,0,0,2.29.32,6,6,0,0,0,1.86-.26,4,4,0,0,0,1.28-.68,2.55,2.55,0,0,0,.74-1,2.85,2.85,0,0,0,.23-1.15,2,2,0,0,0-.53-1.45,4.6,4.6,0,0,0-1.4-1,13.53,13.53,0,0,0-2-.75c-.75-.22-1.51-.47-2.29-.73a21.62,21.62,0,0,1-2.3-.92,7.93,7.93,0,0,1-2-1.35,5.93,5.93,0,0,1-1.41-2,7,7,0,0,1-.53-2.86,7.18,7.18,0,0,1,.62-3,7,7,0,0,1,1.81-2.45,9,9,0,0,1,3-1.68,12.4,12.4,0,0,1,4.13-.63,12.53,12.53,0,0,1,4.76.87,10.61,10.61,0,0,1,3.58,2.27Z" style="fill:#252628"/><path d="M1137.66,136.51V99.87h6.09V114a12.84,12.84,0,0,1,3.26-2.27,9.35,9.35,0,0,1,4.17-.87,9,9,0,0,1,3.67.71,7.28,7.28,0,0,1,2.68,2,8.83,8.83,0,0,1,1.63,3,12.92,12.92,0,0,1,.55,3.89v16.1h-6.09v-16.1a5.43,5.43,0,0,0-1.07-3.59,4,4,0,0,0-3.22-1.27,6.32,6.32,0,0,0-3,.72,10.63,10.63,0,0,0-2.62,1.94v18.3Z" style="fill:#252628"/><path d="M1176.16,110.81a12.29,12.29,0,0,1,4.4.77,9.64,9.64,0,0,1,3.47,2.23,10.34,10.34,0,0,1,2.27,3.6,13.66,13.66,0,0,1,.81,4.87,9.07,9.07,0,0,1-.06,1.15,1.92,1.92,0,0,1-.22.71.88.88,0,0,1-.44.37,1.71,1.71,0,0,1-.69.12h-15.63q.27,3.88,2.09,5.72a6.57,6.57,0,0,0,4.84,1.82,8.42,8.42,0,0,0,2.55-.34,11.48,11.48,0,0,0,1.87-.77c.54-.28,1-.53,1.41-.76A2.35,2.35,0,0,1,1184,130a1.29,1.29,0,0,1,.64.15,1.44,1.44,0,0,1,.47.42l1.78,2.22a10.1,10.1,0,0,1-2.27,2A12.57,12.57,0,0,1,1182,136a14.25,14.25,0,0,1-2.78.67,18.85,18.85,0,0,1-2.75.2,13.59,13.59,0,0,1-4.91-.87,11.16,11.16,0,0,1-4-2.59,12.21,12.21,0,0,1-2.64-4.24,16.48,16.48,0,0,1-1-5.86,14,14,0,0,1,.84-4.87,11.73,11.73,0,0,1,2.4-4,11.34,11.34,0,0,1,3.83-2.68A12.53,12.53,0,0,1,1176.16,110.81Zm.12,4.37a5.67,5.67,0,0,0-4.17,1.5,7.48,7.48,0,0,0-1.92,4.27h11.44a7.38,7.38,0,0,0-.32-2.23,5.17,5.17,0,0,0-1-1.84,4.78,4.78,0,0,0-1.68-1.24A5.6,5.6,0,0,0,1176.28,115.18Z" style="fill:#252628"/><path d="M1207.08,116.14a1.66,1.66,0,0,1-.51.56,1.46,1.46,0,0,1-.69.16,2.21,2.21,0,0,1-1-.25l-1.18-.55a10.9,10.9,0,0,0-1.51-.56,7.46,7.46,0,0,0-2-.25,4.69,4.69,0,0,0-2.84.77,2.36,2.36,0,0,0-1,2,1.89,1.89,0,0,0,.53,1.37,4.93,4.93,0,0,0,1.4,1,13.82,13.82,0,0,0,2,.75c.74.22,1.49.47,2.27.73a23.11,23.11,0,0,1,2.26.9,7.89,7.89,0,0,1,2,1.28,6.19,6.19,0,0,1,1.41,1.86,6,6,0,0,1,.53,2.62,8.43,8.43,0,0,1-.67,3.36,7.32,7.32,0,0,1-2,2.67,9.21,9.21,0,0,1-3.17,1.75,13.62,13.62,0,0,1-4.33.63,13.44,13.44,0,0,1-2.55-.24,14.24,14.24,0,0,1-2.39-.65,13.33,13.33,0,0,1-2.12-1,10.42,10.42,0,0,1-1.71-1.23l1.4-2.32a2.05,2.05,0,0,1,.64-.64,1.79,1.79,0,0,1,.94-.22,2,2,0,0,1,1.07.32l1.17.69a10.1,10.1,0,0,0,1.57.69,7,7,0,0,0,2.28.32,6,6,0,0,0,1.86-.26,3.78,3.78,0,0,0,1.28-.68,2.45,2.45,0,0,0,.74-1,2.86,2.86,0,0,0,.24-1.15,2.05,2.05,0,0,0-.53-1.45,4.53,4.53,0,0,0-1.41-1,13.39,13.39,0,0,0-2-.75c-.75-.22-1.52-.47-2.3-.73a21.46,21.46,0,0,1-2.29-.92,8,8,0,0,1-2-1.35,6,6,0,0,1-1.4-2,6.82,6.82,0,0,1-.54-2.86,7.34,7.34,0,0,1,.62-3,7.07,7.07,0,0,1,1.81-2.45,9.07,9.07,0,0,1,3-1.68,12.4,12.4,0,0,1,4.13-.63,12.57,12.57,0,0,1,4.76.87,10.56,10.56,0,0,1,3.57,2.27Z" style="fill:#252628"/><path d="M1230.54,103.84a3.55,3.55,0,0,1-.32,1.48,4.16,4.16,0,0,1-2.1,2,3.77,3.77,0,0,1-1.53.31,3.59,3.59,0,0,1-1.49-.31,4,4,0,0,1-2-2,3.7,3.7,0,0,1-.31-1.48,3.87,3.87,0,0,1,.31-1.53,4,4,0,0,1,.83-1.24,3.85,3.85,0,0,1,1.22-.82,3.59,3.59,0,0,1,1.49-.31,3.77,3.77,0,0,1,1.53.31,3.94,3.94,0,0,1,1.24.82,4,4,0,0,1,.86,1.24A3.71,3.71,0,0,1,1230.54,103.84Zm-.92,7.37v25.3h-6.09v-25.3Z" style="fill:#252628"/><path d="M1236.5,136.51v-25.3h3.73a1.49,1.49,0,0,1,1.55,1.11l.42,2a12.76,12.76,0,0,1,1.62-1.43,10.37,10.37,0,0,1,1.8-1.11,9.05,9.05,0,0,1,2-.72,10.91,10.91,0,0,1,2.37-.25,9,9,0,0,1,3.67.71,7.28,7.28,0,0,1,2.68,2,8.83,8.83,0,0,1,1.63,3,12.92,12.92,0,0,1,.55,3.89v16.1h-6.09v-16.1a5.43,5.43,0,0,0-1.07-3.59,4,4,0,0,0-3.22-1.27,6.32,6.32,0,0,0-3,.72,10.41,10.41,0,0,0-2.61,1.94v18.3Z" style="fill:#252628"/><path d="M1293.89,136.51h-2.74a2.84,2.84,0,0,1-1.35-.26,1.64,1.64,0,0,1-.74-1l-.55-1.81a19.92,19.92,0,0,1-1.88,1.52,11.9,11.9,0,0,1-1.91,1.1,9.7,9.7,0,0,1-2.1.66,12.43,12.43,0,0,1-2.47.23,9.67,9.67,0,0,1-3-.44,6.52,6.52,0,0,1-2.33-1.29,5.89,5.89,0,0,1-1.51-2.16,7.67,7.67,0,0,1-.55-3,6,6,0,0,1,.76-2.84,7,7,0,0,1,2.5-2.52,16.16,16.16,0,0,1,4.66-1.87,30.05,30.05,0,0,1,7.23-.74v-1.49a5.62,5.62,0,0,0-1.08-3.79,3.9,3.9,0,0,0-3.12-1.23,7.84,7.84,0,0,0-2.46.34,10.26,10.26,0,0,0-1.72.78c-.48.29-.93.55-1.34.78a2.72,2.72,0,0,1-1.36.34,1.73,1.73,0,0,1-1.06-.32,2.45,2.45,0,0,1-.71-.79l-1.11-1.94a15,15,0,0,1,10.53-4,10.09,10.09,0,0,1,4,.73,8.3,8.3,0,0,1,2.94,2,8.6,8.6,0,0,1,1.84,3.1,11.84,11.84,0,0,1,.63,3.94Zm-11.84-3.8a7.81,7.81,0,0,0,1.73-.17,6.24,6.24,0,0,0,1.49-.51,7.74,7.74,0,0,0,1.36-.83A13.72,13.72,0,0,0,1288,130v-4.24a24.94,24.94,0,0,0-4.45.34,11.55,11.55,0,0,0-2.88.86,3.71,3.71,0,0,0-1.54,1.21,2.77,2.77,0,0,0-.46,1.52,2.67,2.67,0,0,0,1,2.31A4.14,4.14,0,0,0,1282.05,132.71Z" style="fill:#252628"/><path d="M1324.42,116.14a1.68,1.68,0,0,1-.52.56,1.41,1.41,0,0,1-.69.16,2.28,2.28,0,0,1-1-.25l-1.17-.55a10.59,10.59,0,0,0-1.52-.56,7.35,7.35,0,0,0-2-.25,4.66,4.66,0,0,0-2.83.77,2.37,2.37,0,0,0-1,2,1.93,1.93,0,0,0,.53,1.37,5,5,0,0,0,1.41,1,13.24,13.24,0,0,0,2,.75c.74.22,1.5.47,2.27.73a23.28,23.28,0,0,1,2.27.9,8.07,8.07,0,0,1,2,1.28,6,6,0,0,1,1.4,1.86,5.86,5.86,0,0,1,.53,2.62,8.43,8.43,0,0,1-.66,3.36,7.56,7.56,0,0,1-2,2.67,9.3,9.3,0,0,1-3.17,1.75,13.66,13.66,0,0,1-4.33.63,13.44,13.44,0,0,1-2.55-.24A14.24,14.24,0,0,1,1311,136a12.55,12.55,0,0,1-2.12-1,10.52,10.52,0,0,1-1.72-1.23l1.41-2.32a2,2,0,0,1,.64-.64,1.79,1.79,0,0,1,.94-.22,2,2,0,0,1,1.07.32l1.17.69a9.69,9.69,0,0,0,1.57.69,7,7,0,0,0,2.28.32,6,6,0,0,0,1.86-.26,3.88,3.88,0,0,0,1.28-.68,2.55,2.55,0,0,0,.74-1,2.86,2.86,0,0,0,.24-1.15,2.05,2.05,0,0,0-.53-1.45,4.78,4.78,0,0,0-1.41-1,13.12,13.12,0,0,0-2-.75c-.75-.22-1.51-.47-2.29-.73a20.65,20.65,0,0,1-2.29-.92,8,8,0,0,1-2-1.35,6.07,6.07,0,0,1-1.41-2,7,7,0,0,1-.53-2.86,7.34,7.34,0,0,1,.62-3,7,7,0,0,1,1.81-2.45,9,9,0,0,1,3-1.68,12.47,12.47,0,0,1,4.14-.63,12.6,12.6,0,0,1,4.76.87,10.56,10.56,0,0,1,3.57,2.27Z" style="fill:#252628"/><path d="M1327.87,111.21h4.84a2.05,2.05,0,0,1,1.16.32,1.38,1.38,0,0,1,.59.81l3.62,13.52c.2.74.36,1.46.48,2.17s.25,1.41.36,2.12c.18-.71.37-1.41.58-2.12s.42-1.43.65-2.17l4.2-13.57a1.52,1.52,0,0,1,.59-.81,1.73,1.73,0,0,1,1-.32h2.69a1.85,1.85,0,0,1,1.11.32,1.47,1.47,0,0,1,.59.81l4.15,13.81c.21.71.4,1.4.58,2.06s.34,1.34.5,2c.12-.7.24-1.41.38-2.12s.32-1.44.53-2.19l3.75-13.52a1.4,1.4,0,0,1,.6-.81,1.88,1.88,0,0,1,1.08-.32h4.61l-8,25.3h-4.91q-.8,0-1.14-1.08l-4.56-14.63c-.15-.47-.28-1-.4-1.44s-.23-1-.31-1.44c-.1.49-.21,1-.32,1.47s-.25,1-.4,1.46l-4.61,14.58a1.33,1.33,0,0,1-1.33,1.08h-4.66Z" style="fill:#252628"/><path d="M1389.8,136.51h-2.74a2.86,2.86,0,0,1-1.36-.26,1.67,1.67,0,0,1-.74-1l-.54-1.81a18.79,18.79,0,0,1-1.89,1.52,11.1,11.1,0,0,1-1.91,1.1,9.61,9.61,0,0,1-2.09.66,12.5,12.5,0,0,1-2.47.23,9.62,9.62,0,0,1-3-.44,6.52,6.52,0,0,1-2.33-1.29,6,6,0,0,1-1.52-2.16,7.67,7.67,0,0,1-.54-3,6,6,0,0,1,.75-2.84,7.08,7.08,0,0,1,2.51-2.52,16,16,0,0,1,4.66-1.87,30,30,0,0,1,7.22-.74v-1.49a5.62,5.62,0,0,0-1.07-3.79,3.9,3.9,0,0,0-3.12-1.23,7.87,7.87,0,0,0-2.47.34,10.52,10.52,0,0,0-1.71.78c-.48.29-.93.55-1.34.78a2.75,2.75,0,0,1-1.36.34,1.73,1.73,0,0,1-1.06-.32,2.48,2.48,0,0,1-.72-.79l-1.11-1.94a15,15,0,0,1,10.54-4,10,10,0,0,1,4,.73,8.43,8.43,0,0,1,2.95,2,8.6,8.6,0,0,1,1.84,3.1,11.84,11.84,0,0,1,.63,3.94Zm-11.84-3.8a7.87,7.87,0,0,0,1.73-.17,6.4,6.4,0,0,0,1.49-.51,7.32,7.32,0,0,0,1.35-.83,11.68,11.68,0,0,0,1.32-1.18v-4.24a25,25,0,0,0-4.45.34,11.46,11.46,0,0,0-2.87.86,3.58,3.58,0,0,0-1.54,1.21,3.06,3.06,0,0,0,.49,3.83A4.11,4.11,0,0,0,1378,132.71Z" style="fill:#252628"/><path d="M1395.79,136.51v-25.3h3.58a1.84,1.84,0,0,1,1.3.35,2,2,0,0,1,.5,1.18l.37,3.06a11.78,11.78,0,0,1,3.18-3.7,6.64,6.64,0,0,1,4.09-1.36,5.33,5.33,0,0,1,3.11.86l-.79,4.57a1,1,0,0,1-.32.63,1.13,1.13,0,0,1-.67.18,4.46,4.46,0,0,1-1-.17,6.54,6.54,0,0,0-1.7-.17,5.17,5.17,0,0,0-3.26,1,8.24,8.24,0,0,0-2.29,3.07v15.76Z" style="fill:#252628"/><path d="M1415.94,136.51v-25.3h3.72a1.51,1.51,0,0,1,1.56,1.11l.39,1.87a14.69,14.69,0,0,1,1.39-1.35,8.94,8.94,0,0,1,1.56-1.06,8.61,8.61,0,0,1,1.77-.71,8.08,8.08,0,0,1,2.09-.26,5.93,5.93,0,0,1,3.93,1.3,7.77,7.77,0,0,1,2.31,3.44,7.45,7.45,0,0,1,1.48-2.16,7.91,7.91,0,0,1,1.94-1.46,8.9,8.9,0,0,1,2.26-.84,10.92,10.92,0,0,1,2.4-.28,10.09,10.09,0,0,1,3.73.65,7.12,7.12,0,0,1,2.74,1.87,8.17,8.17,0,0,1,1.68,3,13,13,0,0,1,.58,4.07v16.1h-6.09v-16.1a5.4,5.4,0,0,0-1.06-3.64,3.89,3.89,0,0,0-3.1-1.22,4.68,4.68,0,0,0-1.74.32,3.94,3.94,0,0,0-1.41.93,4.19,4.19,0,0,0-1,1.51,5.93,5.93,0,0,0-.34,2.1v16.1h-6.12v-16.1a5.53,5.53,0,0,0-1-3.7,3.84,3.84,0,0,0-3-1.16,5,5,0,0,0-2.46.65A8.6,8.6,0,0,0,1422,118v18.52Z" style="fill:#252628"/><path d="M1477.79,110.81a13.84,13.84,0,0,1,5.14.92,11,11,0,0,1,3.93,2.59,11.3,11.3,0,0,1,2.52,4.09,16.92,16.92,0,0,1,0,10.83,11.69,11.69,0,0,1-2.52,4.12,10.92,10.92,0,0,1-3.93,2.61,13.83,13.83,0,0,1-5.14.91,14,14,0,0,1-5.16-.91,11.08,11.08,0,0,1-4-2.61,11.76,11.76,0,0,1-2.55-4.12,16.74,16.74,0,0,1,0-10.83,11.36,11.36,0,0,1,2.55-4.09,11.17,11.17,0,0,1,4-2.59A14,14,0,0,1,1477.79,110.81Zm0,21.39a5.36,5.36,0,0,0,4.67-2.12,10.67,10.67,0,0,0,1.52-6.22,10.76,10.76,0,0,0-1.52-6.24,5.33,5.33,0,0,0-4.67-2.14,5.43,5.43,0,0,0-4.74,2.15,10.71,10.71,0,0,0-1.53,6.23,10.57,10.57,0,0,0,1.53,6.2A5.42,5.42,0,0,0,1477.79,132.2Z" style="fill:#252628"/><path d="M1496.11,136.51V115.8l-2.19-.35a2.38,2.38,0,0,1-1.15-.49,1.29,1.29,0,0,1-.43-1v-2.49h3.77v-1.87a11.07,11.07,0,0,1,.65-3.9,8,8,0,0,1,1.88-2.93,7.92,7.92,0,0,1,3-1.85,11.37,11.37,0,0,1,4-.64,11,11,0,0,1,3.25.46l-.12,3.06a.9.9,0,0,1-.67.89,5.15,5.15,0,0,1-1.43.17,7.08,7.08,0,0,0-1.93.24,3.2,3.2,0,0,0-1.45.81,3.84,3.84,0,0,0-.9,1.53,7.87,7.87,0,0,0-.31,2.35v1.68h6.59v4.34h-6.39v20.74Z" style="fill:#252628"/><path d="M1525.21,132h7.23V111.16c0-.81,0-1.65.07-2.54l-5.13,4.29a1.72,1.72,0,0,1-.65.37,2.21,2.21,0,0,1-.66.1,1.93,1.93,0,0,1-.9-.21,1.67,1.67,0,0,1-.6-.48l-1.92-2.64,10.87-9.25h5V132h6.41v4.56h-19.73Z" style="fill:#252628"/><path d="M1574.56,118.68a29.4,29.4,0,0,1-1,8.1,16.78,16.78,0,0,1-2.76,5.69,11.27,11.27,0,0,1-4.17,3.34,12.42,12.42,0,0,1-5.19,1.1,12.23,12.23,0,0,1-5.17-1.1,11.15,11.15,0,0,1-4.13-3.34,16.58,16.58,0,0,1-2.74-5.69,34,34,0,0,1,0-16.21,16.47,16.47,0,0,1,2.74-5.67,11.06,11.06,0,0,1,4.13-3.34,12.08,12.08,0,0,1,5.17-1.1,12.27,12.27,0,0,1,5.19,1.1,11.18,11.18,0,0,1,4.17,3.34,16.67,16.67,0,0,1,2.76,5.67A29.37,29.37,0,0,1,1574.56,118.68Zm-6.29,0a30,30,0,0,0-.57-6.41,12.75,12.75,0,0,0-1.52-4,5.46,5.46,0,0,0-2.18-2.11,5.67,5.67,0,0,0-2.56-.61,5.55,5.55,0,0,0-2.53.61,5.48,5.48,0,0,0-2.16,2.11,13,13,0,0,0-1.49,4,37,37,0,0,0,0,12.82,13,13,0,0,0,1.49,4,5.26,5.26,0,0,0,4.69,2.71,5.79,5.79,0,0,0,2.56-.6,5.6,5.6,0,0,0,2.18-2.11,12.72,12.72,0,0,0,1.52-4A30,30,0,0,0,1568.27,118.68Z" style="fill:#252628"/><path d="M1603.16,118.68a29,29,0,0,1-1,8.1,16.42,16.42,0,0,1-2.76,5.69,11.12,11.12,0,0,1-4.17,3.34,12.36,12.36,0,0,1-5.19,1.1,12.15,12.15,0,0,1-5.16-1.1,11.08,11.08,0,0,1-4.13-3.34,16.58,16.58,0,0,1-2.74-5.69,33.67,33.67,0,0,1,0-16.21,16.47,16.47,0,0,1,2.74-5.67,11,11,0,0,1,4.13-3.34,12,12,0,0,1,5.16-1.1,12.21,12.21,0,0,1,5.19,1.1,11,11,0,0,1,4.17,3.34,16.31,16.31,0,0,1,2.76,5.67A29,29,0,0,1,1603.16,118.68Zm-6.29,0a30.72,30.72,0,0,0-.56-6.41,13,13,0,0,0-1.52-4,5.46,5.46,0,0,0-2.18-2.11,5.68,5.68,0,0,0-2.57-.61,5.51,5.51,0,0,0-2.52.61,5.36,5.36,0,0,0-2.16,2.11,12.78,12.78,0,0,0-1.49,4,37,37,0,0,0,0,12.82,12.75,12.75,0,0,0,1.49,4,5.49,5.49,0,0,0,2.16,2.11,5.63,5.63,0,0,0,2.52.6,5.8,5.8,0,0,0,2.57-.6,5.6,5.6,0,0,0,2.18-2.11,13,13,0,0,0,1.52-4A30.72,30.72,0,0,0,1596.87,118.68Z" style="fill:#252628"/><path d="M1617.17,136.51v-25.3h3.72a1.51,1.51,0,0,1,1.56,1.11l.42,2a12.68,12.68,0,0,1,1.61-1.43,11.18,11.18,0,0,1,1.8-1.11,9,9,0,0,1,2-.72,10.88,10.88,0,0,1,2.36-.25,9,9,0,0,1,3.68.71,7.16,7.16,0,0,1,2.67,2,8.66,8.66,0,0,1,1.63,3,12.92,12.92,0,0,1,.56,3.89v16.1h-6.09v-16.1a5.38,5.38,0,0,0-1.08-3.59,4,4,0,0,0-3.22-1.27,6.28,6.28,0,0,0-2.95.72,10.27,10.27,0,0,0-2.62,1.94v18.3Z" style="fill:#252628"/><path d="M1656,110.81a13.8,13.8,0,0,1,5.14.92,11.13,11.13,0,0,1,3.94,2.59,11.42,11.42,0,0,1,2.51,4.09,16.92,16.92,0,0,1,0,10.83,11.82,11.82,0,0,1-2.51,4.12,11,11,0,0,1-3.94,2.61,15,15,0,0,1-10.29,0,11,11,0,0,1-4-2.61,11.74,11.74,0,0,1-2.54-4.12,16.74,16.74,0,0,1,0-10.83,11.34,11.34,0,0,1,2.54-4.09,11.12,11.12,0,0,1,4-2.59A13.89,13.89,0,0,1,1656,110.81Zm0,21.39a5.35,5.35,0,0,0,4.67-2.12c1-1.42,1.52-3.49,1.52-6.22a10.69,10.69,0,0,0-1.52-6.24,5.32,5.32,0,0,0-4.67-2.14,5.41,5.41,0,0,0-4.73,2.15,10.71,10.71,0,0,0-1.53,6.23,10.57,10.57,0,0,0,1.53,6.2A5.41,5.41,0,0,0,1656,132.2Z" style="fill:#252628"/><path d="M1691.05,136.51a1.5,1.5,0,0,1-1.55-1.11L1689,133a15.46,15.46,0,0,1-1.65,1.6,10.65,10.65,0,0,1-1.87,1.24,9.94,9.94,0,0,1-2.14.8,10.29,10.29,0,0,1-2.48.28,8.23,8.23,0,0,1-6.77-3.36,12,12,0,0,1-1.92-4.06,20.17,20.17,0,0,1-.68-5.53,17.2,17.2,0,0,1,.76-5.22,12.73,12.73,0,0,1,2.2-4.2,10.22,10.22,0,0,1,3.43-2.77,9.81,9.81,0,0,1,4.48-1,8.81,8.81,0,0,1,3.63.68,9.64,9.64,0,0,1,2.69,1.81V99.87h6.09v36.64Zm-8.11-4.46a6.19,6.19,0,0,0,3.23-.79,9.64,9.64,0,0,0,2.52-2.24V117.67a6.08,6.08,0,0,0-2.26-1.78,6.74,6.74,0,0,0-2.63-.51,6,6,0,0,0-2.5.51,4.94,4.94,0,0,0-1.9,1.57,7.69,7.69,0,0,0-1.19,2.66,15.3,15.3,0,0,0-.42,3.81,17.58,17.58,0,0,0,.35,3.77,7.35,7.35,0,0,0,1,2.51,3.85,3.85,0,0,0,1.63,1.41A5.28,5.28,0,0,0,1682.94,132.05Z" style="fill:#252628"/><path d="M1711.82,110.81a12.29,12.29,0,0,1,4.4.77,9.64,9.64,0,0,1,3.47,2.23,10.17,10.17,0,0,1,2.26,3.6,13.44,13.44,0,0,1,.82,4.87,9.07,9.07,0,0,1-.06,1.15,1.74,1.74,0,0,1-.23.71.82.82,0,0,1-.43.37,1.71,1.71,0,0,1-.69.12h-15.63q.27,3.88,2.09,5.72a6.57,6.57,0,0,0,4.84,1.82,8.42,8.42,0,0,0,2.55-.34,11.48,11.48,0,0,0,1.87-.77c.54-.28,1-.53,1.41-.76a2.35,2.35,0,0,1,1.17-.35,1.29,1.29,0,0,1,.64.15,1.44,1.44,0,0,1,.47.42l1.78,2.22a10.1,10.1,0,0,1-2.27,2,12.57,12.57,0,0,1-2.63,1.29,14.18,14.18,0,0,1-2.79.67,18.62,18.62,0,0,1-2.74.2,13.59,13.59,0,0,1-4.91-.87,11.08,11.08,0,0,1-4-2.59,12.21,12.21,0,0,1-2.64-4.24,16.48,16.48,0,0,1-1-5.86,14,14,0,0,1,.84-4.87,11.73,11.73,0,0,1,2.4-4,11.34,11.34,0,0,1,3.83-2.68A12.53,12.53,0,0,1,1711.82,110.81Zm.12,4.37a5.67,5.67,0,0,0-4.17,1.5,7.48,7.48,0,0,0-1.92,4.27h11.44a7.38,7.38,0,0,0-.32-2.23,5.17,5.17,0,0,0-1-1.84,4.78,4.78,0,0,0-1.68-1.24A5.6,5.6,0,0,0,1711.94,115.18Z" style="fill:#252628"/><path d="M1742.74,116.14a1.66,1.66,0,0,1-.51.56,1.48,1.48,0,0,1-.7.16,2.2,2.2,0,0,1-.94-.25l-1.18-.55a10.9,10.9,0,0,0-1.51-.56,7.46,7.46,0,0,0-2-.25,4.69,4.69,0,0,0-2.84.77,2.36,2.36,0,0,0-1,2,1.89,1.89,0,0,0,.53,1.37,4.93,4.93,0,0,0,1.4,1,13.39,13.39,0,0,0,2,.75c.74.22,1.49.47,2.27.73a23.11,23.11,0,0,1,2.26.9,7.89,7.89,0,0,1,2,1.28,6.19,6.19,0,0,1,1.41,1.86,6,6,0,0,1,.53,2.62,8.43,8.43,0,0,1-.67,3.36,7.32,7.32,0,0,1-2,2.67,9.21,9.21,0,0,1-3.17,1.75,13.62,13.62,0,0,1-4.33.63,13.44,13.44,0,0,1-2.55-.24,14.24,14.24,0,0,1-2.39-.65,13.33,13.33,0,0,1-2.12-1,10.42,10.42,0,0,1-1.71-1.23l1.4-2.32a2.05,2.05,0,0,1,.64-.64,1.79,1.79,0,0,1,.94-.22,2,2,0,0,1,1.07.32l1.17.69a10.1,10.1,0,0,0,1.57.69,7,7,0,0,0,2.28.32,6,6,0,0,0,1.86-.26,3.78,3.78,0,0,0,1.28-.68,2.45,2.45,0,0,0,.74-1,2.86,2.86,0,0,0,.24-1.15,2.05,2.05,0,0,0-.53-1.45,4.53,4.53,0,0,0-1.41-1,13.39,13.39,0,0,0-2-.75c-.75-.22-1.52-.47-2.3-.73a21.46,21.46,0,0,1-2.29-.92,8,8,0,0,1-2-1.35,6,6,0,0,1-1.4-2,6.82,6.82,0,0,1-.54-2.86,7.34,7.34,0,0,1,.62-3,7.07,7.07,0,0,1,1.81-2.45,9.07,9.07,0,0,1,3-1.68,12.4,12.4,0,0,1,4.13-.63,12.57,12.57,0,0,1,4.76.87,10.56,10.56,0,0,1,3.57,2.27Z" style="fill:#252628"/><path d="M361.87,311.82h-4.16a1.77,1.77,0,0,1-1.15-.35,1.93,1.93,0,0,1-.65-.87l-2.16-5.9h-12l-2.16,5.9a1.91,1.91,0,0,1-.63.84,1.75,1.75,0,0,1-1.15.38h-4.18L345,282.9h5.5ZM343.15,300.9h9.22l-3.52-9.62c-.16-.42-.34-.93-.53-1.51s-.39-1.21-.57-1.89c-.19.68-.37,1.32-.55,1.9s-.36,1.1-.53,1.54Z" style="fill:#252628"/><path d="M379,295.64a2.26,2.26,0,0,1-.43.44,1,1,0,0,1-.61.16,1.29,1.29,0,0,1-.74-.23l-.86-.52a7.43,7.43,0,0,0-1.19-.52,5.57,5.57,0,0,0-1.71-.23,5.24,5.24,0,0,0-2.28.47,4.37,4.37,0,0,0-1.63,1.35,6,6,0,0,0-1,2.13,11.18,11.18,0,0,0-.32,2.83,10.77,10.77,0,0,0,.35,2.92,6.13,6.13,0,0,0,1,2.15,4.32,4.32,0,0,0,1.6,1.32,4.82,4.82,0,0,0,2.12.45,5.15,5.15,0,0,0,1.91-.29,5.88,5.88,0,0,0,1.23-.64c.33-.23.62-.44.87-.64a1.31,1.31,0,0,1,.83-.29,1,1,0,0,1,.9.46l1.42,1.8a8.92,8.92,0,0,1-1.78,1.61,9.47,9.47,0,0,1-2,1,9.81,9.81,0,0,1-2.13.55,14.73,14.73,0,0,1-2.18.16,9,9,0,0,1-3.58-.71,8.24,8.24,0,0,1-2.93-2.07,9.63,9.63,0,0,1-2-3.33,12.78,12.78,0,0,1-.73-4.49,12.91,12.91,0,0,1,.65-4.19,9.5,9.5,0,0,1,1.91-3.34,8.84,8.84,0,0,1,3.12-2.21,10.78,10.78,0,0,1,4.28-.8,10.28,10.28,0,0,1,4,.74,10,10,0,0,1,3.11,2.12Z" style="fill:#252628"/><path d="M390.39,312.14a5.37,5.37,0,0,1-4.1-1.51,5.77,5.77,0,0,1-1.44-4.17V295h-2.08a.95.95,0,0,1-1-1v-2l3.3-.54,1-5.6a1,1,0,0,1,.37-.62,1.2,1.2,0,0,1,.73-.22h2.56v6.46h5.4V295h-5.4v11.12a2.18,2.18,0,0,0,.48,1.5,1.62,1.62,0,0,0,1.28.54,2.2,2.2,0,0,0,.77-.11,4.61,4.61,0,0,0,.54-.23c.15-.08.29-.15.41-.23a.72.72,0,0,1,.36-.11.61.61,0,0,1,.36.11,2.57,2.57,0,0,1,.3.33l1.48,2.4a7.39,7.39,0,0,1-2.48,1.36A9.17,9.17,0,0,1,390.39,312.14Z" style="fill:#252628"/><path d="M406.41,317.46a2,2,0,0,1-.57.79,1.76,1.76,0,0,1-1.07.27h-3.68l3.84-8.22-8.3-19H401a1.4,1.4,0,0,1,.92.28,2,2,0,0,1,.48.64l4.38,10.64c.14.35.27.71.38,1.08s.2.75.28,1.12c.1-.38.22-.76.35-1.12s.26-.72.41-1.1l4.12-10.62a1.46,1.46,0,0,1,.53-.66,1.41,1.41,0,0,1,.83-.26h4Z" style="fill:#252628"/><path d="M425.33,301.24l-6.74-9.94h4.76a1.67,1.67,0,0,1,.8.15,1.46,1.46,0,0,1,.46.49l4.3,6.86a5.14,5.14,0,0,1,.62-1.36L433,292a1.86,1.86,0,0,1,.5-.56,1.08,1.08,0,0,1,.64-.18h4.54L431.91,301l7,10.8h-4.76a1.28,1.28,0,0,1-.87-.28,2.4,2.4,0,0,1-.55-.64l-4.36-7.14a3.91,3.91,0,0,1-.5,1.2l-3.84,5.94a3.22,3.22,0,0,1-.54.63,1.13,1.13,0,0,1-.8.29h-4.42Z" style="fill:#252628"/><path d="M459.19,282.58a11,11,0,0,1,3.66.59,8.43,8.43,0,0,1,2.84,1.67,7.66,7.66,0,0,1,1.83,2.6,8.26,8.26,0,0,1,.67,3.38,9.05,9.05,0,0,1-.47,3,12.73,12.73,0,0,1-1.26,2.6,17.9,17.9,0,0,1-1.85,2.4c-.71.78-1.45,1.56-2.22,2.36l-6.52,6.66a16.87,16.87,0,0,1,1.88-.43,10.91,10.91,0,0,1,1.76-.15h7.42a1.78,1.78,0,0,1,1.27.45,1.59,1.59,0,0,1,.47,1.19v3H448.82v-1.64a3.11,3.11,0,0,1,.21-1,3.07,3.07,0,0,1,.68-1l8.78-8.8c.73-.74,1.39-1.46,2-2.14a15.7,15.7,0,0,0,1.46-2,8.83,8.83,0,0,0,.89-2,7.35,7.35,0,0,0,.32-2.17,5.16,5.16,0,0,0-.31-1.83,3.54,3.54,0,0,0-.85-1.33,3.69,3.69,0,0,0-1.33-.81,5.28,5.28,0,0,0-1.73-.27,4.59,4.59,0,0,0-2.93.9,4.67,4.67,0,0,0-1.61,2.42,2,2,0,0,1-.66,1.09,1.85,1.85,0,0,1-1.13.33,4,4,0,0,1-.65-.06l-2.61-.46a10.66,10.66,0,0,1,1.17-3.65,8.64,8.64,0,0,1,2.15-2.62,9,9,0,0,1,3-1.58A11.89,11.89,0,0,1,459.19,282.58Z" style="fill:#252628"/><path d="M471.8,309.1a3.18,3.18,0,0,1,.23-1.18,3,3,0,0,1,.64-1,3.41,3.41,0,0,1,1-.64,3.06,3.06,0,0,1,1.2-.24,2.93,2.93,0,0,1,1.18.24,3,3,0,0,1,1,.64,3,3,0,0,1,.64,1,3,3,0,0,1,.24,1.18,3,3,0,0,1-.88,2.14,2.67,2.67,0,0,1-1,.63,2.92,2.92,0,0,1-1.18.23,3.05,3.05,0,0,1-1.2-.23,3,3,0,0,1-1-.63,2.89,2.89,0,0,1-.64-.95A3.08,3.08,0,0,1,471.8,309.1Z" style="fill:#252628"/><path d="M501.54,297.36a23.7,23.7,0,0,1-.81,6.57,13.31,13.31,0,0,1-2.24,4.61,8.94,8.94,0,0,1-3.38,2.71,10.36,10.36,0,0,1-8.4,0,9,9,0,0,1-3.35-2.71,13.66,13.66,0,0,1-2.22-4.61,27.42,27.42,0,0,1,0-13.15,13.79,13.79,0,0,1,2.22-4.6,9.2,9.2,0,0,1,3.35-2.71,10.36,10.36,0,0,1,8.4,0,9.13,9.13,0,0,1,3.38,2.71,13.44,13.44,0,0,1,2.24,4.6A23.72,23.72,0,0,1,501.54,297.36Zm-5.1,0a24.3,24.3,0,0,0-.46-5.2,10.24,10.24,0,0,0-1.23-3.28,4.49,4.49,0,0,0-1.77-1.71,4.74,4.74,0,0,0-2.08-.49,4.68,4.68,0,0,0-2,.49,4.52,4.52,0,0,0-1.75,1.71,10.75,10.75,0,0,0-1.21,3.28,30.27,30.27,0,0,0,0,10.4,10.55,10.55,0,0,0,1.21,3.28,4.38,4.38,0,0,0,1.75,1.71,4.55,4.55,0,0,0,2,.49,4.61,4.61,0,0,0,2.08-.49,4.36,4.36,0,0,0,1.77-1.71,10.05,10.05,0,0,0,1.23-3.28A24.17,24.17,0,0,0,496.44,297.36Z" style="fill:#252628"/><path d="M276.23,418.14h-4.16a1.83,1.83,0,0,1-1.15-.34,2,2,0,0,1-.65-.87L268.11,411h-12L254,416.93a2,2,0,0,1-.63.84,1.8,1.8,0,0,1-1.15.37H248l11.36-28.92h5.5Zm-18.72-10.92h9.22l-3.52-9.62c-.16-.42-.34-.93-.53-1.51s-.39-1.21-.57-1.89c-.19.68-.37,1.32-.55,1.9s-.36,1.1-.53,1.54Z" style="fill:#252628"/><path d="M293.35,402a2.26,2.26,0,0,1-.43.44,1,1,0,0,1-.61.16,1.29,1.29,0,0,1-.74-.23l-.86-.52a7.43,7.43,0,0,0-1.19-.52,5.57,5.57,0,0,0-1.71-.23,5.24,5.24,0,0,0-2.28.47,4.37,4.37,0,0,0-1.63,1.35,6,6,0,0,0-1,2.13,11.18,11.18,0,0,0-.32,2.83,10.77,10.77,0,0,0,.35,2.92,6,6,0,0,0,1,2.15,4.32,4.32,0,0,0,1.6,1.32,4.82,4.82,0,0,0,2.12.45,5.15,5.15,0,0,0,1.91-.29,6.4,6.4,0,0,0,1.23-.63c.33-.24.62-.45.87-.65a1.31,1.31,0,0,1,.83-.29,1,1,0,0,1,.9.46l1.42,1.81a8.86,8.86,0,0,1-1.78,1.6,9,9,0,0,1-2,1,9.81,9.81,0,0,1-2.13.55,14.73,14.73,0,0,1-2.18.16,9,9,0,0,1-3.58-.71,8.24,8.24,0,0,1-2.93-2.07,9.68,9.68,0,0,1-2-3.32,14,14,0,0,1-.08-8.69,9.5,9.5,0,0,1,1.91-3.34,8.84,8.84,0,0,1,3.12-2.21,10.78,10.78,0,0,1,4.28-.8,10.28,10.28,0,0,1,4,.74,10,10,0,0,1,3.11,2.12Z" style="fill:#252628"/><path d="M304.75,418.47a5.38,5.38,0,0,1-4.1-1.52,5.77,5.77,0,0,1-1.44-4.17V401.32h-2.08a.95.95,0,0,1-1-1v-2l3.3-.54,1-5.6a1,1,0,0,1,.37-.62,1.2,1.2,0,0,1,.73-.22h2.56v6.46h5.4v3.52h-5.4v11.12a2.15,2.15,0,0,0,.48,1.5,1.59,1.59,0,0,0,1.28.54,2.48,2.48,0,0,0,.77-.1,4.58,4.58,0,0,0,.54-.24c.15-.08.29-.15.41-.23a.7.7,0,0,1,.36-.1.61.61,0,0,1,.36.1,2.57,2.57,0,0,1,.3.33l1.48,2.4a7.59,7.59,0,0,1-2.48,1.37A9.46,9.46,0,0,1,304.75,418.47Z" style="fill:#252628"/><path d="M320.77,423.78a2,2,0,0,1-.57.79,1.69,1.69,0,0,1-1.07.28h-3.68l3.84-8.22-8.3-19h4.32a1.4,1.4,0,0,1,.92.28,2,2,0,0,1,.48.64l4.38,10.64c.14.35.27.71.38,1.08s.2.75.28,1.12c.1-.38.22-.76.35-1.12s.26-.72.41-1.1l4.12-10.62a1.46,1.46,0,0,1,.53-.66,1.41,1.41,0,0,1,.83-.26h4Z" style="fill:#252628"/><path d="M339.69,407.56,333,397.62h4.76a1.67,1.67,0,0,1,.8.15,1.46,1.46,0,0,1,.46.49l4.3,6.86a5.14,5.14,0,0,1,.62-1.36l3.46-5.4a1.86,1.86,0,0,1,.5-.56,1.08,1.08,0,0,1,.64-.18H353l-6.76,9.72,7,10.8h-4.76a1.28,1.28,0,0,1-.87-.28,2.36,2.36,0,0,1-.55-.63l-4.36-7.15a3.91,3.91,0,0,1-.5,1.2l-3.84,6a3.48,3.48,0,0,1-.54.62,1.13,1.13,0,0,1-.8.29h-4.42Z" style="fill:#252628"/><path d="M384.45,403.68a16.14,16.14,0,0,1-1.06,5.89,14.12,14.12,0,0,1-3,4.7,13.47,13.47,0,0,1-4.62,3.08,16.55,16.55,0,0,1-12,0,13.46,13.46,0,0,1-4.64-3.08,13.83,13.83,0,0,1-3-4.7,16.89,16.89,0,0,1,0-11.78,13.79,13.79,0,0,1,3-4.69,13.48,13.48,0,0,1,4.64-3.09,16.62,16.62,0,0,1,12,0,13.78,13.78,0,0,1,4.62,3.09,14,14,0,0,1,3,4.68A16.18,16.18,0,0,1,384.45,403.68Zm-5.52,0a13.5,13.5,0,0,0-.63-4.27,9.13,9.13,0,0,0-1.81-3.21,7.92,7.92,0,0,0-2.87-2,10.75,10.75,0,0,0-7.63,0,7.82,7.82,0,0,0-2.89,2,8.87,8.87,0,0,0-1.83,3.21,14.56,14.56,0,0,0,0,8.54,8.74,8.74,0,0,0,1.83,3.2,7.69,7.69,0,0,0,2.89,2,10.75,10.75,0,0,0,7.63,0,7.77,7.77,0,0,0,2.87-2,9,9,0,0,0,1.81-3.2A13.45,13.45,0,0,0,378.93,403.68Z" style="fill:#252628"/><path d="M404.19,394.48a1.49,1.49,0,0,1-.51.62,1.31,1.31,0,0,1-.69.18,1.71,1.71,0,0,1-.9-.31l-1.18-.69a10.83,10.83,0,0,0-1.59-.69,6.92,6.92,0,0,0-2.15-.31,6.29,6.29,0,0,0-1.95.27,4.07,4.07,0,0,0-1.4.75,3,3,0,0,0-.85,1.15,3.74,3.74,0,0,0-.28,1.47,2.55,2.55,0,0,0,.57,1.7,4.63,4.63,0,0,0,1.51,1.16,13.42,13.42,0,0,0,2.14.86l2.45.81a24.68,24.68,0,0,1,2.45,1,8.55,8.55,0,0,1,2.14,1.44,6.63,6.63,0,0,1,1.51,2.13,7.4,7.4,0,0,1,.57,3.06,10.19,10.19,0,0,1-.67,3.68,8.5,8.5,0,0,1-2,3,9.08,9.08,0,0,1-3.15,2,11.52,11.52,0,0,1-4.26.74,13,13,0,0,1-2.72-.28,13.63,13.63,0,0,1-2.57-.76,14.29,14.29,0,0,1-2.3-1.2,11,11,0,0,1-1.91-1.57l1.56-2.57a1.88,1.88,0,0,1,.53-.48,1.32,1.32,0,0,1,.69-.19,1.9,1.9,0,0,1,1.08.42c.38.27.84.57,1.37.9a9.48,9.48,0,0,0,1.86.91,7,7,0,0,0,2.57.41,5.31,5.31,0,0,0,3.56-1.08,3.94,3.94,0,0,0,1.26-3.14,2.91,2.91,0,0,0-.57-1.86,4.72,4.72,0,0,0-1.51-1.21,12.09,12.09,0,0,0-2.14-.83c-.8-.22-1.62-.47-2.44-.74a18.71,18.71,0,0,1-2.44-1,7.73,7.73,0,0,1-2.14-1.46,6.6,6.6,0,0,1-1.51-2.25,8.57,8.57,0,0,1-.57-3.33,8,8,0,0,1,2.47-5.74,9.05,9.05,0,0,1,3-1.86,10.92,10.92,0,0,1,4-.7,13.59,13.59,0,0,1,4.72.8,10.82,10.82,0,0,1,3.68,2.24Z" style="fill:#252628"/><path d="M420.33,414.44h5.86V397.58c0-.65,0-1.34.06-2.06L422.09,399a1.43,1.43,0,0,1-.53.3,1.67,1.67,0,0,1-.53.08,1.48,1.48,0,0,1-.73-.17,1.24,1.24,0,0,1-.49-.39l-1.56-2.14,8.82-7.5h4.06v25.26h5.2v3.7h-16Z" style="fill:#252628"/><path d="M439.61,415.43a3,3,0,0,1,.23-1.19,2.74,2.74,0,0,1,.64-1,3.34,3.34,0,0,1,1-.64,3.07,3.07,0,0,1,2.38,0,3.43,3.43,0,0,1,1,.64,3.22,3.22,0,0,1,.64,1,3,3,0,0,1,.24,1.19,2.9,2.9,0,0,1-.24,1.18,3.05,3.05,0,0,1-.64.95,2.86,2.86,0,0,1-1,.63,3.07,3.07,0,0,1-2.38,0,2.81,2.81,0,0,1-1-.63,2.62,2.62,0,0,1-.64-.95A2.89,2.89,0,0,1,439.61,415.43Z" style="fill:#252628"/><path d="M452.52,414.44h5.87V397.58c0-.65,0-1.34.06-2.06L454.28,399a1.33,1.33,0,0,1-.52.3,1.71,1.71,0,0,1-.53.08,1.48,1.48,0,0,1-.73-.17,1.18,1.18,0,0,1-.49-.39l-1.56-2.14,8.82-7.5h4.05v25.26h5.2v3.7h-16Z" style="fill:#252628"/><path d="M471.8,415.43a3.19,3.19,0,0,1,.23-1.19,3,3,0,0,1,.64-1,3.63,3.63,0,0,1,1-.64,3.06,3.06,0,0,1,1.2-.24,2.93,2.93,0,0,1,1.18.24,3.16,3.16,0,0,1,1,.64,3,3,0,0,1,.64,1,3,3,0,0,1,.24,1.19,3,3,0,0,1-.88,2.13,2.67,2.67,0,0,1-1,.63,2.93,2.93,0,0,1-1.18.24,3.06,3.06,0,0,1-1.2-.24,3,3,0,0,1-1-.63,2.89,2.89,0,0,1-.64-.95A3.06,3.06,0,0,1,471.8,415.43Z" style="fill:#252628"/><path d="M499.12,391.32a2.29,2.29,0,0,1-.67,1.72,3.1,3.1,0,0,1-2.23.66h-8l-1,6a18.57,18.57,0,0,1,3.58-.4,11,11,0,0,1,4,.68,8.22,8.22,0,0,1,2.91,1.88,7.87,7.87,0,0,1,1.78,2.81,9.88,9.88,0,0,1,.6,3.47,10.64,10.64,0,0,1-.81,4.21,9.67,9.67,0,0,1-2.25,3.25,10.34,10.34,0,0,1-3.41,2.09,12.15,12.15,0,0,1-4.29.74,11.4,11.4,0,0,1-2.58-.29,12,12,0,0,1-2.29-.75,12.52,12.52,0,0,1-2-1.08,11.87,11.87,0,0,1-1.63-1.29l1.52-2.09a1.49,1.49,0,0,1,1.28-.69,1.9,1.9,0,0,1,1,.32c.34.22.74.45,1.19.71a11.82,11.82,0,0,0,1.58.7,6.66,6.66,0,0,0,2.18.31,6.16,6.16,0,0,0,2.4-.43,4.68,4.68,0,0,0,1.73-1.24,5.13,5.13,0,0,0,1-1.88,7.46,7.46,0,0,0,.35-2.37,4.89,4.89,0,0,0-1.37-3.69,5.58,5.58,0,0,0-4-1.33,12.63,12.63,0,0,0-4.22.76l-3.08-.88,2.4-14h14.28Z" style="fill:#252628"/><rect x="545.84" y="270.54" width="90.59" height="49.12" rx="10" style="fill:#635bff"/><rect x="545.84" y="377.11" width="982.66" height="49.12" rx="10" style="fill:#555960"/><path d="M1568.23,417h11.23V384.67c0-1.25,0-2.57.12-3.95l-8,6.67a2.83,2.83,0,0,1-1,.58,3.71,3.71,0,0,1-1,.15,3.1,3.1,0,0,1-1.4-.32,2.73,2.73,0,0,1-.94-.75l-3-4.11,16.91-14.37h7.78V417h10v7.1h-30.67Z" style="fill:#555960"/><path d="M1626.36,368a20.63,20.63,0,0,1,6.92,1.09,15.93,15.93,0,0,1,5.27,3,13.44,13.44,0,0,1,3.36,4.54,13.78,13.78,0,0,1,1.16,5.64,16.34,16.34,0,0,1-.59,4.66,10.87,10.87,0,0,1-1.73,3.51A10.28,10.28,0,0,1,1638,393a16.61,16.61,0,0,1-3.7,1.72,14.44,14.44,0,0,1,7.44,4.8,12.92,12.92,0,0,1,2.46,8.09,16.69,16.69,0,0,1-1.54,7.32,15.66,15.66,0,0,1-4.14,5.35,17.93,17.93,0,0,1-6,3.28,23.47,23.47,0,0,1-7.26,1.11,24.77,24.77,0,0,1-7.29-1,15.79,15.79,0,0,1-5.41-2.84,17.19,17.19,0,0,1-3.91-4.6,31.41,31.41,0,0,1-2.76-6.28l4.18-1.73a5.49,5.49,0,0,1,2.19-.46,3.71,3.71,0,0,1,1.78.42,2.87,2.87,0,0,1,1.21,1.23c.46.89,1,1.78,1.51,2.64a10.49,10.49,0,0,0,2,2.32,9.27,9.27,0,0,0,2.7,1.65,9.84,9.84,0,0,0,3.7.64,10.56,10.56,0,0,0,4.22-.79,9.22,9.22,0,0,0,3-2.05,8.68,8.68,0,0,0,2.4-5.95,14.55,14.55,0,0,0-.43-3.62,5.38,5.38,0,0,0-1.76-2.78,9.53,9.53,0,0,0-3.85-1.8,28.09,28.09,0,0,0-6.73-.65V392.3a23,23,0,0,0,5.79-.61,9.89,9.89,0,0,0,3.66-1.71,5.76,5.76,0,0,0,1.9-2.63,10.31,10.31,0,0,0,.53-3.37q0-3.94-2.14-6a8.27,8.27,0,0,0-5.87-2,8.66,8.66,0,0,0-5.6,1.78,9.23,9.23,0,0,0-3.1,4.57,4.18,4.18,0,0,1-1.27,2.09,3.33,3.33,0,0,1-2.11.63,8.66,8.66,0,0,1-1.3-.11l-5-.87a20.72,20.72,0,0,1,2.23-7,16.56,16.56,0,0,1,9.79-8.05A22.6,22.6,0,0,1,1626.36,368Z" style="fill:#555960"/><path d="M1649.94,418.26a5,5,0,0,1,3.29-4.77,6.19,6.19,0,0,1,2.27-.41,5.86,5.86,0,0,1,2.53.52,5.33,5.33,0,0,1,1.8,1.42,6,6,0,0,1,1.07,2.07,8.67,8.67,0,0,1,.35,2.47,14.78,14.78,0,0,1-.56,3.88,19.92,19.92,0,0,1-1.63,4.06,24.07,24.07,0,0,1-2.64,3.95,23.69,23.69,0,0,1-3.61,3.53l-1.65-1.5a1.78,1.78,0,0,1-.69-1.42,1.5,1.5,0,0,1,.21-.69,3.47,3.47,0,0,1,.52-.69l1-1.13a15.45,15.45,0,0,0,1.22-1.53,15.63,15.63,0,0,0,1.14-1.88,8.43,8.43,0,0,0,.74-2.17,5.21,5.21,0,0,1-2.18-.44,4.88,4.88,0,0,1-1.71-1.21,5.68,5.68,0,0,1-1.11-1.8A6.14,6.14,0,0,1,1649.94,418.26Z" style="fill:#555960"/><path d="M1706.15,368.64v4.11a9,9,0,0,1-.41,3,17.91,17.91,0,0,1-.78,1.9l-21,43.25a6.56,6.56,0,0,1-1.85,2.28,5.08,5.08,0,0,1-3.22.94h-6.86l21.47-42.37a22.19,22.19,0,0,1,3-4.49H1670a2.06,2.06,0,0,1-1.53-.65,2.08,2.08,0,0,1-.66-1.53v-6.41Z" style="fill:#555960"/><path d="M1737,392.42a2.59,2.59,0,0,1-.8.86,2.16,2.16,0,0,1-1.08.25,3.3,3.3,0,0,1-1.47-.39l-1.82-.86a16.07,16.07,0,0,0-2.36-.86,11.17,11.17,0,0,0-3.13-.38,7.33,7.33,0,0,0-4.41,1.18,3.71,3.71,0,0,0-1.61,3.11,3,3,0,0,0,.83,2.13,7.49,7.49,0,0,0,2.18,1.51,20.38,20.38,0,0,0,3.09,1.17c1.15.35,2.33.72,3.53,1.13s2.37.88,3.53,1.4a12.37,12.37,0,0,1,3.08,2,8.72,8.72,0,0,1,3,7,13.05,13.05,0,0,1-1,5.23,11.45,11.45,0,0,1-3,4.14,14.19,14.19,0,0,1-4.93,2.72,21.34,21.34,0,0,1-6.73,1,21.71,21.71,0,0,1-4-.36,23.69,23.69,0,0,1-3.72-1,19.52,19.52,0,0,1-3.29-1.53,16.32,16.32,0,0,1-2.67-1.92l2.19-3.6a3.05,3.05,0,0,1,1-1,2.82,2.82,0,0,1,1.46-.35,3.1,3.1,0,0,1,1.67.5c.52.33,1.13.69,1.82,1.08a16.47,16.47,0,0,0,2.43,1.07,10.83,10.83,0,0,0,3.55.5,9.17,9.17,0,0,0,2.9-.41,5.86,5.86,0,0,0,2-1.05,4,4,0,0,0,1.15-1.51,4.62,4.62,0,0,0,.36-1.79,3.17,3.17,0,0,0-.82-2.26,7.09,7.09,0,0,0-2.19-1.53,19.73,19.73,0,0,0-3.1-1.17c-1.16-.35-2.35-.72-3.57-1.13a33.12,33.12,0,0,1-3.56-1.44,12.2,12.2,0,0,1-3.11-2.09,9.22,9.22,0,0,1-2.18-3.11,10.79,10.79,0,0,1-.83-4.44,11.34,11.34,0,0,1,1-4.61,10.88,10.88,0,0,1,2.82-3.81,13.84,13.84,0,0,1,4.64-2.61,19.34,19.34,0,0,1,6.42-1,19.54,19.54,0,0,1,7.4,1.35,16.75,16.75,0,0,1,5.56,3.52Z" style="fill:#555960"/><path d="M673.57,311.05H684.8V278.73c0-1.25,0-2.57.12-4l-8,6.67a2.83,2.83,0,0,1-1,.58,3.71,3.71,0,0,1-1,.15,3.1,3.1,0,0,1-1.4-.32,2.73,2.73,0,0,1-.94-.75l-3-4.11,16.91-14.37h7.78v48.42h10v7.1H673.57Z" style="fill:#635bff"/><path d="M710.8,312.32a5,5,0,0,1,.4-2,5.11,5.11,0,0,1,1.13-1.65,5,5,0,0,1,1.77-1.11,6.14,6.14,0,0,1,2.26-.41,5.86,5.86,0,0,1,2.53.52,5.24,5.24,0,0,1,1.8,1.42,5.83,5.83,0,0,1,1.07,2.07,8.67,8.67,0,0,1,.35,2.47,14.78,14.78,0,0,1-.56,3.88,19.92,19.92,0,0,1-1.63,4.06,23.45,23.45,0,0,1-2.64,3.95,23.69,23.69,0,0,1-3.61,3.53l-1.64-1.5a1.78,1.78,0,0,1-.69-1.42,1.5,1.5,0,0,1,.21-.69,3.42,3.42,0,0,1,.51-.69l1-1.13a15.3,15.3,0,0,0,2.36-3.41,8.43,8.43,0,0,0,.74-2.17,5.21,5.21,0,0,1-2.18-.44,5,5,0,0,1-1.71-1.21,5.68,5.68,0,0,1-1.11-1.8A6.14,6.14,0,0,1,710.8,312.32Z" style="fill:#635bff"/><path d="M748.07,262.09a20.91,20.91,0,0,1,7,1.13,15.68,15.68,0,0,1,5.45,3.2,14.51,14.51,0,0,1,3.53,5,16.14,16.14,0,0,1,1.26,6.48,17.28,17.28,0,0,1-.9,5.67,24.14,24.14,0,0,1-2.41,5,34.77,34.77,0,0,1-3.55,4.6q-2,2.22-4.26,4.52l-12.5,12.77a29.55,29.55,0,0,1,3.61-.82,20,20,0,0,1,3.37-.29h14.23a3.39,3.39,0,0,1,2.43.86,3,3,0,0,1,.9,2.28v5.68h-38V315a5.43,5.43,0,0,1,.4-2,5.57,5.57,0,0,1,1.28-1.92l16.84-16.87q2.1-2.14,3.77-4.1a28.37,28.37,0,0,0,2.8-3.87,18.11,18.11,0,0,0,1.73-3.9,14.52,14.52,0,0,0,.59-4.16,9.92,9.92,0,0,0-.57-3.5,6.79,6.79,0,0,0-4.2-4.11,10.15,10.15,0,0,0-3.32-.51,8.86,8.86,0,0,0-5.62,1.72,9,9,0,0,0-3.08,4.64,3.86,3.86,0,0,1-1.27,2.09,3.49,3.49,0,0,1-2.15.63,8.48,8.48,0,0,1-1.26-.11l-5-.88a20.65,20.65,0,0,1,2.23-7,16.46,16.46,0,0,1,9.79-8.05A22.6,22.6,0,0,1,748.07,262.09Z" style="fill:#635bff"/><path d="M797.87,286.48a2.59,2.59,0,0,1-.8.86,2.14,2.14,0,0,1-1.07.25,3.34,3.34,0,0,1-1.48-.39l-1.82-.86a16.07,16.07,0,0,0-2.36-.86,11.13,11.13,0,0,0-3.13-.38,7.27,7.27,0,0,0-4.4,1.18,3.69,3.69,0,0,0-1.61,3.11,3,3,0,0,0,.82,2.13A7.49,7.49,0,0,0,784.2,293a20.38,20.38,0,0,0,3.09,1.17c1.15.35,2.33.72,3.53,1.13s2.38.88,3.53,1.4a12.19,12.19,0,0,1,3.08,2,8.72,8.72,0,0,1,3,7,13.05,13.05,0,0,1-1,5.23,11.45,11.45,0,0,1-3,4.14,14.19,14.19,0,0,1-4.93,2.72,21.29,21.29,0,0,1-6.73,1,21.71,21.71,0,0,1-4-.36,23.69,23.69,0,0,1-3.72-1,20.28,20.28,0,0,1-3.29-1.53,16.32,16.32,0,0,1-2.67-1.92l2.19-3.6a3.05,3.05,0,0,1,1-1,2.82,2.82,0,0,1,1.46-.35,3.08,3.08,0,0,1,1.67.5c.52.33,1.13.69,1.82,1.08a16.16,16.16,0,0,0,2.44,1.07,10.72,10.72,0,0,0,3.54.5,9.17,9.17,0,0,0,2.9-.41,5.86,5.86,0,0,0,2-1.05,3.86,3.86,0,0,0,1.15-1.51,4.63,4.63,0,0,0,.37-1.79,3.18,3.18,0,0,0-.83-2.26,7.16,7.16,0,0,0-2.18-1.53,20.26,20.26,0,0,0-3.11-1.17c-1.16-.35-2.35-.72-3.57-1.13a33.12,33.12,0,0,1-3.56-1.44,12.2,12.2,0,0,1-3.11-2.09,9.36,9.36,0,0,1-2.18-3.11,10.79,10.79,0,0,1-.83-4.44,11.34,11.34,0,0,1,1-4.61,10.88,10.88,0,0,1,2.82-3.81,13.94,13.94,0,0,1,4.64-2.61,19.34,19.34,0,0,1,6.42-1,19.54,19.54,0,0,1,7.4,1.35,16.65,16.65,0,0,1,5.56,3.52Z" style="fill:#635bff"/><path d="M1535,546.93h4.4V534.29c0-.49,0-1,0-1.55l-3.12,2.61a1.09,1.09,0,0,1-.4.23,1.32,1.32,0,0,1-.39.06,1.12,1.12,0,0,1-.55-.13.94.94,0,0,1-.37-.29l-1.17-1.61,6.62-5.62h3v18.94h3.9v2.78h-12Z" style="fill:#252628"/><path d="M1562.53,541.53h2.73v2.15a.73.73,0,0,1-.2.51.71.71,0,0,1-.57.22h-2v5.3h-3.24v-5.3h-9.15a1,1,0,0,1-.66-.23,1,1,0,0,1-.36-.58l-.38-1.87L1559,528h3.51Zm-3.24-7.09c0-.32,0-.67,0-1s0-.75.1-1.15l-6.73,9.28h6.6Z" style="fill:#252628"/><path d="M1576.91,537.32a.91.91,0,0,1-.31.33.77.77,0,0,1-.42.1,1.32,1.32,0,0,1-.58-.15l-.71-.33a5.87,5.87,0,0,0-.93-.34,4.37,4.37,0,0,0-1.22-.15,2.83,2.83,0,0,0-1.72.46,1.45,1.45,0,0,0-.63,1.22,1.14,1.14,0,0,0,.32.83,2.78,2.78,0,0,0,.85.59,9.3,9.3,0,0,0,1.21.46c.45.14.91.28,1.38.44s.93.35,1.38.55a4.92,4.92,0,0,1,1.21.78,3.66,3.66,0,0,1,.85,1.13,3.52,3.52,0,0,1,.33,1.59,5.1,5.1,0,0,1-.41,2,4.4,4.4,0,0,1-1.18,1.62,5.44,5.44,0,0,1-1.93,1.06,8.17,8.17,0,0,1-2.63.39,9,9,0,0,1-1.56-.14,9.67,9.67,0,0,1-1.45-.4,7.67,7.67,0,0,1-1.29-.6,6,6,0,0,1-1-.75l.85-1.41a1.21,1.21,0,0,1,.39-.39,1.09,1.09,0,0,1,.57-.14,1.18,1.18,0,0,1,.65.2l.72.42a6.11,6.11,0,0,0,1,.42,4.2,4.2,0,0,0,1.39.19,3.46,3.46,0,0,0,1.13-.16,2.4,2.4,0,0,0,.78-.41,1.69,1.69,0,0,0,.45-.59,1.86,1.86,0,0,0,.14-.7,1.25,1.25,0,0,0-.32-.88,2.85,2.85,0,0,0-.86-.6,7.66,7.66,0,0,0-1.21-.46l-1.4-.44a13.91,13.91,0,0,1-1.39-.56,4.92,4.92,0,0,1-1.22-.82,3.71,3.71,0,0,1-.85-1.22,4.16,4.16,0,0,1-.32-1.74,4.43,4.43,0,0,1,.37-1.8,4.22,4.22,0,0,1,1.1-1.49,5.68,5.68,0,0,1,1.82-1,7.4,7.4,0,0,1,2.51-.38,7.72,7.72,0,0,1,2.9.52,6.52,6.52,0,0,1,2.17,1.38Z" style="fill:#252628"/><path d="M556.78,538.86a18,18,0,0,1-.6,4.93,10.34,10.34,0,0,1-1.68,3.46,6.75,6.75,0,0,1-2.54,2,7.43,7.43,0,0,1-3.16.67,7.34,7.34,0,0,1-3.14-.67,6.74,6.74,0,0,1-2.51-2,10,10,0,0,1-1.66-3.46,20.55,20.55,0,0,1,0-9.86,9.9,9.9,0,0,1,1.66-3.45,6.87,6.87,0,0,1,2.51-2,7.49,7.49,0,0,1,3.14-.66,7.58,7.58,0,0,1,3.16.66,6.88,6.88,0,0,1,2.54,2,10.28,10.28,0,0,1,1.68,3.45A17.93,17.93,0,0,1,556.78,538.86Zm-3.82,0a18.38,18.38,0,0,0-.34-3.9,8,8,0,0,0-.93-2.46,3.35,3.35,0,0,0-1.32-1.28,3.62,3.62,0,0,0-1.57-.37,3.45,3.45,0,0,0-1.53.37A3.26,3.26,0,0,0,546,532.5a7.5,7.5,0,0,0-.91,2.46,22.54,22.54,0,0,0,0,7.8,7.5,7.5,0,0,0,.91,2.46,3.29,3.29,0,0,0,1.31,1.29,3.44,3.44,0,0,0,1.53.36,3.61,3.61,0,0,0,1.57-.36,3.38,3.38,0,0,0,1.32-1.29,8,8,0,0,0,.93-2.46A18.38,18.38,0,0,0,553,538.86Z" style="fill:#252628"/><line x1="547.8" y1="508.91" x2="547.8" y2="488.13" style="fill:none;stroke:#555960;stroke-miterlimit:10;stroke-width:2px;opacity:0.3"/><line x1="619.25" y1="508.91" x2="619.25" y2="488.13" style="fill:none;stroke:#555960;stroke-miterlimit:10;stroke-width:2px;opacity:0.3"/><line x1="690.69" y1="508.91" x2="690.69" y2="488.13" style="fill:none;stroke:#555960;stroke-miterlimit:10;stroke-width:2px;opacity:0.3"/><line x1="762.14" y1="508.91" x2="762.14" y2="488.13" style="fill:none;stroke:#555960;stroke-miterlimit:10;stroke-width:2px;opacity:0.3"/><line x1="833.59" y1="508.91" x2="833.59" y2="488.13" style="fill:none;stroke:#555960;stroke-miterlimit:10;stroke-width:2px;opacity:0.3"/><line x1="905.03" y1="508.91" x2="905.03" y2="488.13" style="fill:none;stroke:#555960;stroke-miterlimit:10;stroke-width:2px;opacity:0.3"/><line x1="976.48" y1="508.91" x2="976.48" y2="488.13" style="fill:none;stroke:#555960;stroke-miterlimit:10;stroke-width:2px;opacity:0.3"/><line x1="1047.93" y1="508.91" x2="1047.93" y2="488.13" style="fill:none;stroke:#555960;stroke-miterlimit:10;stroke-width:2px;opacity:0.3"/><line x1="1119.37" y1="508.91" x2="1119.37" y2="488.13" style="fill:none;stroke:#555960;stroke-miterlimit:10;stroke-width:2px;opacity:0.3"/><line x1="1190.82" y1="508.91" x2="1190.82" y2="488.13" style="fill:none;stroke:#555960;stroke-miterlimit:10;stroke-width:2px;opacity:0.3"/><line x1="1262.26" y1="508.91" x2="1262.26" y2="488.13" style="fill:none;stroke:#555960;stroke-miterlimit:10;stroke-width:2px;opacity:0.3"/><line x1="1333.71" y1="508.91" x2="1333.71" y2="488.13" style="fill:none;stroke:#555960;stroke-miterlimit:10;stroke-width:2px;opacity:0.3"/><line x1="1405.16" y1="508.91" x2="1405.16" y2="488.13" style="fill:none;stroke:#555960;stroke-miterlimit:10;stroke-width:2px;opacity:0.3"/><line x1="1476.6" y1="508.91" x2="1476.6" y2="488.13" style="fill:none;stroke:#555960;stroke-miterlimit:10;stroke-width:2px;opacity:0.3"/><line x1="1548.05" y1="508.91" x2="1548.05" y2="488.13" style="fill:none;stroke:#555960;stroke-miterlimit:10;stroke-width:2px;opacity:0.3"/><line x1="546.31" y1="510.39" x2="1549.49" y2="510.39" style="fill:none;stroke:#555960;stroke-miterlimit:10;stroke-width:2px;opacity:0.3"/></g></svg>