<svg xmlns="http://www.w3.org/2000/svg" xmlns:xlink="http://www.w3.org/1999/xlink" width="1997.11" height="857" viewBox="0 0 1997.11 857">
  <defs>
    <style>
      .a772463e-58dd-4144-82fb-6d06586be4ae {
        fill: none;
      }

      .e522967a-b7dc-410a-81b5-5bc4480b8679 {
        fill: #7f96a5;
      }

      .ef5e53fc-b32a-4018-81c3-990396cd6dad {
        fill: #f5f9fb;
      }

      .ae8d1573-849c-4bcd-b58d-74e708782f87 {
        opacity: 0.15;
        fill: url(#a6036b81-61f9-489a-a718-439c056f1ba1);
      }

      .adbe9e5b-c6fe-4f52-9012-8424b4d003de {
        fill: #252628;
      }

      .e6cdfc47-a118-46fa-92c9-d5cde50fdbf0 {
        fill: #0083ef;
      }

      .b58a02a7-a3e7-49e2-b3b5-1fdd2d22f143 {
        fill: #78c8ff;
      }

      .ed70e9e0-41d5-4088-b357-d3790d763d7c {
        fill: #fff;
      }
    </style>
    <pattern id="a6036b81-61f9-489a-a718-439c056f1ba1" data-name="New Pattern" width="24.48" height="24.48" patternTransform="translate(13.28 41.06) scale(1 0.98)" patternUnits="userSpaceOnUse" viewBox="0 0 24.48 24.48">
      <rect class="a772463e-58dd-4144-82fb-6d06586be4ae" width="24.48" height="24.48"/>
      <circle class="e522967a-b7dc-410a-81b5-5bc4480b8679" cx="12.24" cy="12.24" r="2.24"/>
    </pattern>
  </defs>
  <g id="bdeaa3e3-68c4-4a67-bb9d-812e1b681738" data-name="abb6fa31-2e04-445e-9fd1-7671936e20d4">
    <rect class="ef5e53fc-b32a-4018-81c3-990396cd6dad" x="0.05" y="-0.03" width="1996.92" height="857.32"/>
    <rect class="ae8d1573-849c-4bcd-b58d-74e708782f87" x="3.55" y="5.05" width="1990" height="847.78" rx="20"/>
    <rect class="adbe9e5b-c6fe-4f52-9012-8424b4d003de" x="950" y="422.85" width="109.73" height="109.73" rx="54.86"/>
    <g>
      <path class="adbe9e5b-c6fe-4f52-9012-8424b4d003de" d="M1246.86,79.18a162.12,162.12,0,0,1,162,155.93,6,6,0,0,1-6,6.18h-312a6,6,0,0,1-6-6.18A162.12,162.12,0,0,1,1246.86,79.18Z"/>
      <rect class="ef5e53fc-b32a-4018-81c3-990396cd6dad" x="1191.99" y="186.15" width="109.73" height="109.73" rx="54.86"/>
      <g>
        <path class="ef5e53fc-b32a-4018-81c3-990396cd6dad" d="M1246.86,524.85a154.7,154.7,0,0,1-154.08-141,5.66,5.66,0,0,1,1.49-4.34,5.87,5.87,0,0,1,4.37-1.92h81.13a6,6,0,0,1,5.89,4.88,62.31,62.31,0,0,0,122.4,0,6,6,0,0,1,5.89-4.88h81.13a5.87,5.87,0,0,1,4.37,1.92,5.7,5.7,0,0,1,1.48,4.34,154.68,154.68,0,0,1-154.07,141Z"/>
        <path class="e6cdfc47-a118-46fa-92c9-d5cde50fdbf0" d="M1393.35,385.06a147.25,147.25,0,0,1-293,0h78.22a69.76,69.76,0,0,0,136.56,0h78.21m1.73-14.88h-93.37c0,.21,0,.41,0,.62h0a54.87,54.87,0,0,1-109.73,0h0c0-.21,0-.41,0-.62h-93.37a13.27,13.27,0,0,0-13.27,14.35,162.12,162.12,0,0,0,323,0,13.26,13.26,0,0,0-13.26-14.35Z"/>
      </g>
      <rect class="e6cdfc47-a118-46fa-92c9-d5cde50fdbf0" x="1299.25" y="251.04" width="109.73" height="109.73" rx="6"/>
      <rect class="e6cdfc47-a118-46fa-92c9-d5cde50fdbf0" x="1085.32" y="251.04" width="10.26" height="109.73"/>
      <rect class="e6cdfc47-a118-46fa-92c9-d5cde50fdbf0" x="1105.03" y="251.04" width="10.26" height="109.73"/>
      <rect class="e6cdfc47-a118-46fa-92c9-d5cde50fdbf0" x="1124.74" y="251.04" width="10.26" height="109.73"/>
      <rect class="e6cdfc47-a118-46fa-92c9-d5cde50fdbf0" x="1144.45" y="251.04" width="10.26" height="109.73"/>
      <rect class="e6cdfc47-a118-46fa-92c9-d5cde50fdbf0" x="1164.16" y="251.04" width="10.26" height="109.73"/>
      <rect class="e6cdfc47-a118-46fa-92c9-d5cde50fdbf0" x="1183.87" y="251.04" width="10.26" height="109.73"/>
    </g>
    <g>
      <path class="ef5e53fc-b32a-4018-81c3-990396cd6dad" d="M602,233.74a5.65,5.65,0,0,1-3-.81,5.78,5.78,0,0,1-2.84-5.46,154.68,154.68,0,0,1,308.15,0,5.63,5.63,0,0,1-1.49,4.34,5.86,5.86,0,0,1-4.37,1.93Z"/>
      <path class="e6cdfc47-a118-46fa-92c9-d5cde50fdbf0" d="M750.24,93.94A147.25,147.25,0,0,1,896.74,226.3h-293A147.25,147.25,0,0,1,750.24,93.94m0-14.88A162.12,162.12,0,0,0,588.76,226.82,13.27,13.27,0,0,0,602,241.17H898.46a13.27,13.27,0,0,0,13.27-14.35A162.13,162.13,0,0,0,750.24,79.06Z"/>
    </g>
    <rect class="adbe9e5b-c6fe-4f52-9012-8424b4d003de" x="588.13" y="422.85" width="324.23" height="109.73" rx="6"/>
    <path class="e6cdfc47-a118-46fa-92c9-d5cde50fdbf0" d="M756.24,251H906.36a6,6,0,0,1,6,6h0A156.12,156.12,0,0,1,756.24,413.13h0a6,6,0,0,1-6-6V257A6,6,0,0,1,756.24,251Z"/>
    <path class="b58a02a7-a3e7-49e2-b3b5-1fdd2d22f143" d="M602.8,413.13H726.11c7.76,0,14.06-6.74,14.06-15.05v-132c0-13.41-15.15-20.13-24-10.65l-123.31,132C584,396.92,590.27,413.13,602.8,413.13Z"/>
    <rect class="ed70e9e0-41d5-4088-b357-d3790d763d7c" x="742.95" y="420.65" width="14.58" height="114.8"/>
    <rect class="ed70e9e0-41d5-4088-b357-d3790d763d7c" x="771.39" y="420.65" width="14.58" height="114.8"/>
    <rect class="ed70e9e0-41d5-4088-b357-d3790d763d7c" x="799.83" y="420.65" width="14.58" height="114.8"/>
    <rect class="ed70e9e0-41d5-4088-b357-d3790d763d7c" x="828.27" y="420.65" width="14.58" height="114.8"/>
    <rect class="ed70e9e0-41d5-4088-b357-d3790d763d7c" x="856.7" y="420.65" width="14.58" height="114.8"/>
    <rect class="ed70e9e0-41d5-4088-b357-d3790d763d7c" x="885.14" y="420.65" width="14.58" height="114.8"/>
    <path class="adbe9e5b-c6fe-4f52-9012-8424b4d003de" d="M1058.27,747.34v-61a.9.9,0,0,0-.45-.78l-52.34-30.22a.9.9,0,0,0-.9,0l-51.43,29.7a.89.89,0,0,0,0,1.56l25.26,14.59,26.17-15.11a.9.9,0,0,1,.9,0L1031.2,701a.9.9,0,0,1,.45.78V732h0l-13.89,8-12.28,7.08a.9.9,0,0,1-.9,0l-25.72-14.84a.91.91,0,0,1-.45-.79V701.24l-26.17,15.12a.91.91,0,0,0-.45.79v29.67a.9.9,0,0,0,.45.78l52.34,30.22a.9.9,0,0,0,.9,0l26.17-15.11,12.28,7.09a.9.9,0,0,0,.9,0l24.81-14.33a.9.9,0,0,0,0-1.56Z"/>
  </g>
</svg>
