<svg id="a09a8caa-8d3d-46e1-b513-ddae13ff57e6" data-name="Layer 2" xmlns="http://www.w3.org/2000/svg" xmlns:xlink="http://www.w3.org/1999/xlink" width="1997.11" height="650.11" viewBox="0 0 1997.11 650.11">
  <defs>
    <style>
      .a4fa7fae-288e-4a74-85b5-e32e95856eca {
        fill: none;
      }

      .bdd87b16-3409-4bbd-97a0-7a6daa70d27f {
        fill: #7f96a5;
      }

      .aee0b0ed-680c-45df-8894-bc29b0ae046e {
        fill: #f5f9fb;
      }

      .b77452c8-21df-4d72-8c6c-8c61dda56d11 {
        opacity: 0.15;
        fill: url(#ba13ed00-4b78-4fe4-a5e3-cea189fda70d);
      }

      .ac6e04bd-2b09-4c7a-9ad8-f60da4049201 {
        fill: #aab9c1;
      }

      .aeae3ddb-637e-4793-955d-3c29ea583965 {
        fill: #394150;
      }

      .a998376a-f69a-4587-ae44-3bcf7c0ef904 {
        fill: #8fe4ba;
      }

      .bd8a05cd-7ae5-4a59-adfa-2664b21e5d3f {
        fill: #d1d5db;
      }

      .b3bdd06c-6782-4c0b-87f8-38f6020dab69 {
        fill: #c4dbfb;
      }

      .e812a5e0-0f2b-4413-a5c2-96a71ffe89c2 {
        fill: #e6e7eb;
      }

      .f1e0b0f0-712e-4a63-9fbf-b1e4d2123c16 {
        fill: #f3c04d;
      }

      .bc3f075d-462b-4b1f-96ee-0f9920a8c567 {
        fill: #374151;
      }
    </style>
    <pattern id="ba13ed00-4b78-4fe4-a5e3-cea189fda70d" data-name="New Pattern" width="24.48" height="24.48" patternTransform="translate(13.28 54.76) scale(1 0.98)" patternUnits="userSpaceOnUse" viewBox="0 0 24.48 24.48">
      <rect class="a4fa7fae-288e-4a74-85b5-e32e95856eca" width="24.48" height="24.48"/>
      <circle class="bdd87b16-3409-4bbd-97a0-7a6daa70d27f" cx="12.24" cy="12.24" r="2.24"/>
    </pattern>
  </defs>
  <g>
    <rect class="aee0b0ed-680c-45df-8894-bc29b0ae046e" x="5.05" y="6.55" width="1987" height="637" rx="18.5"/>
    <path class="bdd87b16-3409-4bbd-97a0-7a6daa70d27f" d="M1973.55,8.05a17,17,0,0,1,17,17v600a17,17,0,0,1-17,17H23.55a17,17,0,0,1-17-17v-600a17,17,0,0,1,17-17h1950m0-3H23.55a20,20,0,0,0-20,20v600a20,20,0,0,0,20,20h1950a20,20,0,0,0,20-20v-600a20,20,0,0,0-20-20Z"/>
  </g>
  <rect class="b77452c8-21df-4d72-8c6c-8c61dda56d11" x="3.55" y="5.05" width="1990" height="640"/>
  <g>
    <g>
      <rect class="aee0b0ed-680c-45df-8894-bc29b0ae046e" x="473.14" y="138.54" width="517.5" height="339.87" rx="10.5"/>
      <path class="ac6e04bd-2b09-4c7a-9ad8-f60da4049201" d="M980.13,140a9,9,0,0,1,9,9V467.9a9,9,0,0,1-9,9H483.64a9,9,0,0,1-9-9V149a9,9,0,0,1,9-9H980.13m0-3H483.64a12,12,0,0,0-12,12V467.9a12,12,0,0,0,12,12H980.13a12,12,0,0,0,12-12V149a12,12,0,0,0-12-12Z"/>
    </g>
    <g>
      <path class="aeae3ddb-637e-4793-955d-3c29ea583965" d="M534.38,277.9H514V246h5.7V272.9h14.64Z"/>
      <path class="aeae3ddb-637e-4793-955d-3c29ea583965" d="M535.88,265.81c0-7.81,4.44-12.59,11.63-12.59s11.63,4.76,11.63,12.59-4.4,12.58-11.63,12.58S535.88,273.65,535.88,265.81Zm17.62,0c0-5.05-2.19-8-6-8s-6,2.94-6,8,2.19,8,6,8S553.5,270.87,553.5,265.81Z"/>
      <path class="aeae3ddb-637e-4793-955d-3c29ea583965" d="M578.57,261.85a5,5,0,0,0-5.33-4c-3.76,0-6,2.9-6,7.92s2.26,8.05,6,8.05c2.85,0,4.75-1.35,5.33-3.87h5.21c-.59,5.06-4.4,8.47-10.52,8.47-7.28,0-11.56-4.69-11.56-12.65s4.26-12.52,11.54-12.52c6.21,0,10,3.54,10.54,8.63Z"/>
      <path class="aeae3ddb-637e-4793-955d-3c29ea583965" d="M585.9,271c0-4.37,3.3-6.89,9.18-7.25l6.23-.37v-2c0-2.36-1.59-3.69-4.55-3.69-2.52,0-4.25.88-4.76,2.52h-5.17c.44-4.27,4.44-7,10.19-7,6.22,0,9.71,3,9.71,8.16V277.9h-5.29v-3.32h-.37a8,8,0,0,1-7.16,3.72C589.24,278.3,585.9,275.47,585.9,271Zm15.41-2v-1.92l-5.46.35c-3.07.2-4.51,1.31-4.51,3.28s1.75,3.25,4.18,3.25C598.84,274,601.31,271.84,601.31,269Z"/>
      <path class="aeae3ddb-637e-4793-955d-3c29ea583965" d="M611.77,244.36h5.48V277.9h-5.48Z"/>
      <path class="aeae3ddb-637e-4793-955d-3c29ea583965" d="M633.28,277.9V246h5l15.65,21.69h.38V246h5.48V277.9h-4.93l-15.65-21.71h-.38V277.9Z"/>
      <path class="aeae3ddb-637e-4793-955d-3c29ea583965" d="M664.09,265.81c0-7.81,4.45-12.59,11.63-12.59s11.63,4.76,11.63,12.59-4.4,12.58-11.63,12.58S664.09,273.65,664.09,265.81Zm17.62,0c0-5.05-2.18-8-6-8s-6,2.94-6,8,2.19,8,6,8S681.71,270.87,681.71,265.81Z"/>
      <path class="aeae3ddb-637e-4793-955d-3c29ea583965" d="M689.91,265.78c0-7.65,3.85-12.47,10-12.47a7.83,7.83,0,0,1,7.34,4.25h.38v-13.2h5.48V277.9h-5.31v-3.83h-.37a8.14,8.14,0,0,1-7.52,4.23C693.74,278.3,689.91,273.48,689.91,265.78Zm5.62,0c0,4.88,2.28,7.82,6,7.82s6.08-3,6.08-7.82-2.32-7.83-6.08-7.83S695.53,260.94,695.53,265.81Z"/>
      <path class="aeae3ddb-637e-4793-955d-3c29ea583965" d="M739.17,271.24c-1,4.4-5,7.15-10.75,7.15-7.12,0-11.41-4.71-11.41-12.5s4.36-12.67,11.37-12.67,11,4.58,11,12.21v1.77H722.52v.29c.13,4,2.45,6.54,6.06,6.54,2.72,0,4.6-1,5.39-2.79Zm-16.63-7.78h11.39c-.11-3.58-2.28-5.88-5.57-5.88S722.78,259.92,722.54,263.46Z"/>
    </g>
    <g>
      <path class="a998376a-f69a-4587-ae44-3bcf7c0ef904" d="M512,204c0-7.58,4.08-12.24,10.69-12.24,5.29,0,9.38,3.45,9.86,8.31h-4.1a5.65,5.65,0,0,0-5.76-4.6c-4,0-6.43,3.26-6.43,8.51s2.47,8.52,6.44,8.52c3,0,5.2-1.64,5.77-4.26h4.1c-.55,4.76-4.49,8-9.87,8C516.09,216.2,512,211.52,512,204Z"/>
      <path class="a998376a-f69a-4587-ae44-3bcf7c0ef904" d="M534.58,206.78c0-5.69,3.25-9.18,8.49-9.18s8.49,3.47,8.49,9.18-3.21,9.19-8.49,9.19S534.58,212.52,534.58,206.78Zm12.87,0c0-3.68-1.6-5.82-4.38-5.82s-4.39,2.14-4.39,5.82,1.6,5.83,4.39,5.83S547.45,210.48,547.45,206.78Z"/>
      <path class="a998376a-f69a-4587-ae44-3bcf7c0ef904" d="M554.3,198h3.86v2.83h.28c.84-2,2.9-3.18,5.55-3.18,3.94,0,6.15,2.37,6.15,6.59v11.43h-4V205.14q0-4-3.65-4a3.92,3.92,0,0,0-4.19,4.24v10.29h-4Z"/>
      <path class="a998376a-f69a-4587-ae44-3bcf7c0ef904" d="M573.59,198h3.86v2.83h.27c.84-2,2.91-3.18,5.55-3.18,3.94,0,6.15,2.37,6.15,6.59v11.43h-4V205.14c0-2.7-1.23-4-3.65-4a3.93,3.93,0,0,0-4.2,4.24v10.29h-4Z"/>
      <path class="a998376a-f69a-4587-ae44-3bcf7c0ef904" d="M608.18,210.76c-.76,3.21-3.68,5.21-7.85,5.21-5.2,0-8.33-3.44-8.33-9.12s3.18-9.25,8.3-9.25,8.05,3.34,8.05,8.91v1.29H596V208c.1,2.94,1.79,4.78,4.42,4.78,2,0,3.36-.73,3.94-2ZM596,205.07h8.31c-.08-2.61-1.66-4.29-4.07-4.29S596.21,202.49,596,205.07Z"/>
      <path class="a998376a-f69a-4587-ae44-3bcf7c0ef904" d="M622.52,203.9a3.66,3.66,0,0,0-3.89-2.94c-2.74,0-4.37,2.11-4.37,5.78s1.64,5.87,4.37,5.87c2.08,0,3.47-1,3.89-2.82h3.81c-.43,3.7-3.21,6.18-7.68,6.18-5.31,0-8.45-3.42-8.45-9.23s3.12-9.14,8.43-9.14c4.54,0,7.28,2.58,7.7,6.3Z"/>
      <path class="a998376a-f69a-4587-ae44-3bcf7c0ef904" d="M634.35,193.74v4.33h3.87v3.19h-3.87v8.67c0,1.75.74,2.52,2.42,2.52a10.56,10.56,0,0,0,1.33-.08v3.13a10.37,10.37,0,0,1-2.07.2c-4,0-5.67-1.38-5.67-4.8v-9.64h-2.87v-3.19h2.87v-4.33Z"/>
      <path class="a998376a-f69a-4587-ae44-3bcf7c0ef904" d="M656,210.76c-.76,3.21-3.68,5.21-7.85,5.21-5.19,0-8.33-3.44-8.33-9.12s3.18-9.25,8.3-9.25,8.06,3.34,8.06,8.91v1.29H643.82V208c.1,2.94,1.8,4.78,4.43,4.78,2,0,3.35-.73,3.94-2Zm-12.14-5.69h8.31c-.08-2.61-1.66-4.29-4.06-4.29S644,202.49,643.84,205.07Z"/>
      <path class="a998376a-f69a-4587-ae44-3bcf7c0ef904" d="M658,206.77c0-5.59,2.81-9.11,7.26-9.11a5.73,5.73,0,0,1,5.36,3.1h.28v-9.63h4v24.49H671v-2.8h-.28a5.94,5.94,0,0,1-5.49,3.09C660.8,215.91,658,212.39,658,206.77Zm4.1,0c0,3.57,1.66,5.72,4.41,5.72s4.43-2.16,4.43-5.72-1.69-5.71-4.43-5.71S662.11,203.23,662.11,206.78Z"/>
      <path class="bd8a05cd-7ae5-4a59-adfa-2664b21e5d3f" d="M686.35,191.13h4v24.49h-4Z"/>
      <path class="bd8a05cd-7ae5-4a59-adfa-2664b21e5d3f" d="M693.24,206.78c0-5.69,3.24-9.18,8.49-9.18s8.49,3.47,8.49,9.18S707,216,701.73,216,693.24,212.52,693.24,206.78Zm12.87,0c0-3.68-1.6-5.82-4.38-5.82s-4.39,2.14-4.39,5.82,1.6,5.83,4.39,5.83S706.11,210.48,706.11,206.78Z"/>
      <path class="bd8a05cd-7ae5-4a59-adfa-2664b21e5d3f" d="M724.41,203.9a3.66,3.66,0,0,0-3.89-2.94c-2.75,0-4.38,2.11-4.38,5.78s1.65,5.87,4.38,5.87c2.08,0,3.47-1,3.89-2.82h3.81c-.44,3.7-3.22,6.18-7.69,6.18-5.31,0-8.44-3.42-8.44-9.23s3.11-9.14,8.43-9.14c4.53,0,7.28,2.58,7.7,6.3Z"/>
      <path class="bd8a05cd-7ae5-4a59-adfa-2664b21e5d3f" d="M729.76,210.61c0-3.2,2.41-5,6.7-5.29L741,205v-1.48c0-1.73-1.16-2.7-3.32-2.7-1.84,0-3.1.65-3.47,1.84h-3.78c.32-3.12,3.24-5.1,7.44-5.1,4.54,0,7.09,2.21,7.09,6v12.06h-3.86v-2.43h-.28a5.8,5.8,0,0,1-5.23,2.72C732.2,215.91,729.76,213.84,729.76,210.61ZM741,209.14v-1.4l-4,.26c-2.25.14-3.3.95-3.3,2.39s1.28,2.37,3,2.37C739.2,212.76,741,211.19,741,209.14Z"/>
      <path class="bd8a05cd-7ae5-4a59-adfa-2664b21e5d3f" d="M748.64,191.13h4v24.49h-4Z"/>
      <path class="bd8a05cd-7ae5-4a59-adfa-2664b21e5d3f" d="M756.57,191.13h3.94v9.68h.29c.84-2,2.92-3.18,5.55-3.18,4,0,6.25,2.39,6.25,6.59v11.4h-4V205.17c0-2.68-1.29-4-3.74-4a4,4,0,0,0-4.3,4.24v10.26h-4Z"/>
      <path class="bd8a05cd-7ae5-4a59-adfa-2664b21e5d3f" d="M775.17,206.78c0-5.69,3.25-9.18,8.5-9.18s8.49,3.47,8.49,9.18S789,216,783.67,216,775.17,212.52,775.17,206.78Zm12.87,0c0-3.68-1.6-5.82-4.37-5.82s-4.39,2.14-4.39,5.82,1.59,5.83,4.39,5.83S788,210.48,788,206.78Z"/>
      <path class="bd8a05cd-7ae5-4a59-adfa-2664b21e5d3f" d="M801.56,197.6c4.2,0,6.83,1.86,7.12,5.07h-3.76c-.29-1.24-1.47-2-3.34-2s-3.2.88-3.2,2.15c0,1,.84,1.62,2.62,2l3.11.71c3.38.76,4.94,2.21,4.94,4.81,0,3.39-3.11,5.65-7.52,5.65s-7.18-1.9-7.49-5.12h4c.38,1.31,1.63,2.09,3.63,2.09s3.42-.89,3.42-2.2c0-1-.76-1.63-2.44-2l-3.13-.73c-3.39-.77-5-2.34-5-5C794.49,199.81,797.4,197.6,801.56,197.6Z"/>
      <path class="bd8a05cd-7ae5-4a59-adfa-2664b21e5d3f" d="M817,193.74v4.33h3.87v3.19H817v8.67c0,1.75.74,2.52,2.42,2.52a10.28,10.28,0,0,0,1.32-.08v3.13a10.19,10.19,0,0,1-2.06.2c-4,0-5.67-1.38-5.67-4.8v-9.64H810.1v-3.19H813v-4.33Z"/>
    </g>
    <rect class="b3bdd06c-6782-4c0b-87f8-38f6020dab69" x="509.78" y="350.71" width="191.82" height="90.86" rx="12"/>
    <g>
      <path class="aeae3ddb-637e-4793-955d-3c29ea583965" d="M558.26,383.39c8,0,12.66,4.89,12.66,13.34,0,8.63-4.61,13.57-12.66,13.57H548.17V383.39ZM553,406.14h4.64c5.35,0,8.39-3.34,8.39-9.34s-3.11-9.25-8.39-9.25H553Z"/>
      <path class="aeae3ddb-637e-4793-955d-3c29ea583965" d="M592.11,404.69c-.88,3.71-4.26,6-9.07,6-6,0-9.62-4-9.62-10.54s3.68-10.68,9.59-10.68,9.3,3.86,9.3,10.29v1.5H578.07v.24c.11,3.39,2.07,5.52,5.1,5.52,2.3,0,3.88-.84,4.55-2.35Zm-14-6.57h9.61c-.1-3-1.92-5-4.7-5S578.29,395.14,578.08,398.12Z"/>
      <path class="aeae3ddb-637e-4793-955d-3c29ea583965" d="M601.55,385v5H606v3.69h-4.47v10c0,2,.85,2.91,2.79,2.91a11.55,11.55,0,0,0,1.53-.1v3.62a12.53,12.53,0,0,1-2.38.22c-4.68,0-6.55-1.58-6.55-5.53V393.72h-3.32V390h3.32v-5Z"/>
      <path class="aeae3ddb-637e-4793-955d-3c29ea583965" d="M607.91,404.52c0-3.69,2.78-5.82,7.74-6.12l5.26-.31v-1.72c0-2-1.35-3.11-3.84-3.11-2.13,0-3.58.74-4,2.12h-4.37c.38-3.6,3.75-5.89,8.6-5.89,5.24,0,8.18,2.55,8.18,6.88V410.3H621v-2.8h-.32a6.72,6.72,0,0,1-6,3.14C610.73,410.64,607.91,408.25,607.91,404.52Zm13-1.7V401.2l-4.61.3c-2.59.17-3.8,1.1-3.8,2.76S614,407,616,407C618.82,407,620.91,405.19,620.91,402.82Z"/>
      <path class="aeae3ddb-637e-4793-955d-3c29ea583965" d="M629,384a2.87,2.87,0,1,1,2.86,2.55A2.62,2.62,0,0,1,629,384Zm.56,5.87h4.61v20.4H629.6Z"/>
      <path class="aeae3ddb-637e-4793-955d-3c29ea583965" d="M638.63,382h4.63V410.3h-4.63Z"/>
      <path class="aeae3ddb-637e-4793-955d-3c29ea583965" d="M655.3,389.49c4.85,0,7.89,2.14,8.23,5.86h-4.35c-.33-1.44-1.69-2.35-3.86-2.35s-3.69,1-3.69,2.48c0,1.15,1,1.86,3,2.33l3.6.82c3.9.87,5.71,2.55,5.71,5.55,0,3.92-3.6,6.53-8.69,6.53s-8.3-2.2-8.65-5.91h4.56c.45,1.51,1.89,2.4,4.2,2.4s4-1,4-2.53c0-1.16-.87-1.89-2.81-2.31l-3.62-.84c-3.92-.9-5.76-2.71-5.76-5.78C647.14,392,650.49,389.49,655.3,389.49Z"/>
    </g>
    <rect class="e812a5e0-0f2b-4413-a5c2-96a71ffe89c2" x="721.23" y="350.71" width="210.02" height="90.86" rx="12"/>
    <g>
      <path class="aeae3ddb-637e-4793-955d-3c29ea583965" d="M764.43,410.3h-4.81V383.39h10.93c5.65,0,9.19,3.25,9.19,8.41a7.81,7.81,0,0,1-5.07,7.67l5.87,10.83H775l-5.28-10.09h-5.33Zm0-13.91H770c3.06,0,4.81-1.64,4.81-4.49s-1.87-4.52-4.92-4.52h-5.45Z"/>
      <path class="aeae3ddb-637e-4793-955d-3c29ea583965" d="M800.65,404.69c-.88,3.71-4.25,6-9.06,6-6,0-9.63-4-9.63-10.54s3.68-10.68,9.59-10.68,9.3,3.86,9.3,10.29v1.5H786.61v.24c.11,3.39,2.07,5.52,5.11,5.52,2.29,0,3.88-.84,4.55-2.35Zm-14-6.57h9.6c-.09-3-1.92-5-4.7-5S786.83,395.14,786.63,398.12Z"/>
      <path class="aeae3ddb-637e-4793-955d-3c29ea583965" d="M804,389.9h4.46v3.3h.31a5.74,5.74,0,0,1,5.67-3.71,5.61,5.61,0,0,1,5.63,3.71h.32a6.6,6.6,0,0,1,6.19-3.71c4.08,0,6.55,2.55,6.55,6.79v14h-4.61V397.45c0-2.63-1.25-3.93-3.73-3.93a3.87,3.87,0,0,0-4,4.08v12.7h-4.49V397.12a3.38,3.38,0,0,0-3.69-3.6,4.09,4.09,0,0,0-4,4.38v12.4H804Z"/>
      <path class="aeae3ddb-637e-4793-955d-3c29ea583965" d="M836.13,400.1c0-6.58,3.75-10.61,9.81-10.61s9.8,4,9.8,10.61-3.71,10.61-9.8,10.61S836.13,406.72,836.13,400.1Zm14.86,0c0-4.25-1.85-6.73-5-6.73s-5.08,2.48-5.08,6.73,1.85,6.73,5.08,6.73S851,404.37,851,400.1Z"/>
      <path class="aeae3ddb-637e-4793-955d-3c29ea583965" d="M861.31,389.9,866,405.68h.32L871,389.9h4.89l-7.22,20.4H863.6l-7.25-20.4Z"/>
      <path class="aeae3ddb-637e-4793-955d-3c29ea583965" d="M895.19,404.69c-.87,3.71-4.25,6-9.06,6-6,0-9.62-4-9.62-10.54s3.67-10.68,9.58-10.68,9.31,3.86,9.31,10.29v1.5H881.15v.24c.11,3.39,2.07,5.52,5.11,5.52,2.29,0,3.88-.84,4.55-2.35Zm-14-6.57h9.6c-.09-3-1.92-5-4.7-5S881.38,395.14,881.17,398.12Z"/>
    </g>
    <path class="f1e0b0f0-712e-4a63-9fbf-b1e4d2123c16" d="M947.57,165.49,951,175.93a1.5,1.5,0,0,0,1.42,1h11a1.5,1.5,0,0,1,.88,2.71l-8.87,6.45a1.49,1.49,0,0,0-.55,1.67l3.39,10.43a1.5,1.5,0,0,1-2.3,1.68L947,193.45a1.5,1.5,0,0,0-1.76,0l-8.87,6.45a1.5,1.5,0,0,1-2.31-1.68l3.39-10.43a1.48,1.48,0,0,0-.54-1.67l-8.88-6.45a1.5,1.5,0,0,1,.88-2.71h11a1.5,1.5,0,0,0,1.42-1l3.39-10.44A1.5,1.5,0,0,1,947.57,165.49Z"/>
  </g>
  <g>
    <g>
      <rect class="aee0b0ed-680c-45df-8894-bc29b0ae046e" x="1077.19" y="390.29" width="344.43" height="163.97" rx="10.5"/>
      <path class="ac6e04bd-2b09-4c7a-9ad8-f60da4049201" d="M1411.13,391.79a9,9,0,0,1,9,9v143a9,9,0,0,1-9,9H1087.69a9,9,0,0,1-9-9v-143a9,9,0,0,1,9-9h323.44m0-3H1087.69a12,12,0,0,0-12,12v143a12,12,0,0,0,12,12h323.44a12,12,0,0,0,12-12v-143a12,12,0,0,0-12-12Z"/>
    </g>
    <g>
      <path class="bc3f075d-462b-4b1f-96ee-0f9920a8c567" d="M1104.18,470.15q4.14-2.07,10.52-5.35t13.63-6.38q7.25-3.1,14-5.87t11.21-4.48q2.42-1,8.63-3.11t13.11-3.8a102.32,102.32,0,0,1,12.94-2.41c4-.46,7-.11,8.8,1q4.14,3.81,1.55,6.91a10.55,10.55,0,0,1-6.38,3.79l-15.53,1.73a35.85,35.85,0,0,0-8.11,3.28c-2.19,1.26-4.66,2.82-7.42,4.65-1.15.93-3.16,2.82-6,5.7s-5.69,6-8.45,9.31a55.33,55.33,0,0,0-6.56,9.67q-2.41,4.65,0,6.73c1.38,1.15,3.63,1.38,6.73.69a53.58,53.58,0,0,0,9.49-3.11q4.83-2.07,9-4.31a55.09,55.09,0,0,0,5.53-3.28A74.69,74.69,0,0,0,1187,468.43q3.1-3.45,6.73-.87c2.42,1.73,3.16,4.09,2.25,7.08a9.51,9.51,0,0,1-2.42,4.14l-3.28,3.28a12,12,0,0,0-2.59,4.31c-.92,1.61-1.15,2.82-.69,3.62a3.36,3.36,0,0,0,2.42,1.56,37.78,37.78,0,0,0,12.08-.69,137.1,137.1,0,0,0,15-3.8,153.58,153.58,0,0,0,15.35-5.69q7.59-3.28,13.12-6a14.55,14.55,0,0,0,3.79-1.9,29,29,0,0,1,5-2.59,13.4,13.4,0,0,1,5-1,3.57,3.57,0,0,1,3.45,2.07,2.82,2.82,0,0,1-.17,3.79,12.39,12.39,0,0,1-4.32,2.94q-2.76,1.2-5.52,2.24c-1.84.69-3.22,1.27-4.14,1.72q-5.86,2.78-11.73,5.35l-12.08,5.35c-2.76,1.15-5.75,2.54-9,4.14a76.34,76.34,0,0,1-10,4.14,56.64,56.64,0,0,1-10.52,2.42,19.93,19.93,0,0,1-9.84-1q-5.87-2.42-6.9-6.73a17.65,17.65,0,0,1,.35-9.14l-9.32,5.52q-5.86,3.45-12.25,7.07a33.58,33.58,0,0,1-13.29,4.32,18.11,18.11,0,0,1-11-2.76q-4.83-3.1-5.17-9.66c0-2.3.91-5.23,2.76-8.8a76.27,76.27,0,0,1,7.07-11.05,82.51,82.51,0,0,1,9.49-10.52,47.93,47.93,0,0,1,9.66-7.25,67.26,67.26,0,0,0-7.76,3.11q-5.36,2.41-12.08,5.86T1122.29,470q-7.43,3.61-13.63,6.73a4.17,4.17,0,0,1-3.45.52,4.74,4.74,0,0,1-2.59-1.73,3.9,3.9,0,0,1-.69-2.76A3.5,3.5,0,0,1,1104.18,470.15Z"/>
      <path class="bc3f075d-462b-4b1f-96ee-0f9920a8c567" d="M1254.28,500.86q14.49-5.87,28-12.94t27.26-14.66a48.54,48.54,0,0,1-4.14-14.84,126.4,126.4,0,0,0-23.64,7.94q-11.57,5.17-21.91,10.69a3.72,3.72,0,0,1-3.45.35,5.65,5.65,0,0,1-2.59-1.9,3.36,3.36,0,0,1-.52-2.76,4.07,4.07,0,0,1,2.42-2.59q11-5.52,21.91-11.21a150.2,150.2,0,0,1,22.26-9.49c1.15-.46,2.59-1,4.31-1.56a49.79,49.79,0,0,1,5-1.38,8.47,8.47,0,0,1,4.49.18,4.22,4.22,0,0,1,2.76,3.1q.69,2.77-.17,8.28a27.32,27.32,0,0,0,.52,11.05l10.35-5.53q9-5.5,18.29-10.69t18.29-11q2.76-1.71,6.21-3.62a6.23,6.23,0,0,1,8.8,6.21,6.72,6.72,0,0,1-3.63,5q-14.15,6.56-27.6,13.28t-27.26,14a21.68,21.68,0,0,0,14.15,9.83,51.43,51.43,0,0,0,19.32.17c3.91-.91,8.57-2.24,14-4s11.91-4.89,19.5-9.49a20.87,20.87,0,0,0,4.14-2.42,7.58,7.58,0,0,1,4.14-1.72c1.84,0,2.94.63,3.28,1.89a5.55,5.55,0,0,1-.17,3.63,7.33,7.33,0,0,1-3.45,3.27q-2.41,1.21-4.14,2.25l-25.54,12.77a69.57,69.57,0,0,1-10.87,4.65,50.12,50.12,0,0,1-11,2.42,31.06,31.06,0,0,1-10.7-.86,23.71,23.71,0,0,1-10.18-5.87,60.27,60.27,0,0,1-5.17-5.87q-2.43-3.11-4.83-6.55l-10.36,5.52-18.63,10.35q-9.31,5.17-18.29,11-2.76,1.73-6,4a5.44,5.44,0,0,1-6.73-.17,6.38,6.38,0,0,1-2.24-6A5.29,5.29,0,0,1,1254.28,500.86Z"/>
    </g>
    <g>
      <path class="bc3f075d-462b-4b1f-96ee-0f9920a8c567" d="M1528.2,290.08a27.48,27.48,0,0,1,10.56,4.41c10.35,7.71,12.46,21.38,4.79,31.78-1.85,2.5-3.85,4.88-5.9,7.46l-35.16-28.15c5.12-7.05,10.14-14,19.63-15.22.17,0,.31-.18.46-.28Z"/>
      <path class="bc3f075d-462b-4b1f-96ee-0f9920a8c567" d="M1498,311.05l41.65,33.41c1.28-1.58,2.5-3.12,3.77-4.62a6.69,6.69,0,0,1,7.21-2.38c4.64,1.23,6.35,6.69,3.3,10.68s-6.36,8-9.56,12q-14.21,17.76-28.4,35.53c-1.66,2.09-3.64,3.44-6.38,3.2A6.34,6.34,0,0,1,1504,395a6.48,6.48,0,0,1,.9-7q5.64-7.11,11.33-14.19l13.92-17.39c.34-.43.66-.88,1.07-1.43l-6.43-5.13L1443.05,452l-35.25-28.21Z"/>
      <path class="bc3f075d-462b-4b1f-96ee-0f9920a8c567" d="M1437.27,457.23l-19.58,8.92-16.83,7.67c-1.37.63-2.73.92-4.06-.08s-1.42-2.42-1.12-3.89q3.94-18.83,7.92-37.66c.09-.42.24-.83.46-1.55Z"/>
    </g>
  </g>
  <g>
    <g>
      <rect class="aee0b0ed-680c-45df-8894-bc29b0ae046e" x="1087.47" y="81.43" width="217.01" height="217.01" rx="47.42"/>
      <path class="ac6e04bd-2b09-4c7a-9ad8-f60da4049201" d="M1257.06,82.93A46,46,0,0,1,1303,128.85V251a46,46,0,0,1-45.92,45.92H1134.89A46,46,0,0,1,1089,251V128.85a46,46,0,0,1,45.92-45.92h122.17m0-3H1134.89A48.93,48.93,0,0,0,1086,128.85V251a48.92,48.92,0,0,0,48.92,48.92h122.17A48.92,48.92,0,0,0,1306,251V128.85a48.92,48.92,0,0,0-48.92-48.92Z"/>
    </g>
    <path class="bc3f075d-462b-4b1f-96ee-0f9920a8c567" d="M1261.74,230.1V150.44a1.19,1.19,0,0,0-.59-1l-68.4-39.49a1.18,1.18,0,0,0-1.18,0l-67.21,38.81a1.17,1.17,0,0,0,0,2l33,19.06,34.2-19.74a1.18,1.18,0,0,1,1.18,0l33.61,19.4a1.17,1.17,0,0,1,.59,1V210h0l-18.16,10.48-16,9.27a1.18,1.18,0,0,1-1.18,0L1158,210.35a1.19,1.19,0,0,1-.59-1V169.84l-34.19,19.77a1.17,1.17,0,0,0-.59,1v38.78a1.17,1.17,0,0,0,.59,1l68.39,39.48a1.14,1.14,0,0,0,1.18,0l34.2-19.74,16,9.26a1.18,1.18,0,0,0,1.18,0l32.43-18.72a1.17,1.17,0,0,0,0-2Z"/>
  </g>
</svg>
