<svg id="ab89483d-0976-4aad-9b88-f8380510cfd3" data-name="Layer 1" xmlns="http://www.w3.org/2000/svg" width="1998" height="592"><defs><style>.a3212c3a-7636-45fd-b1d4-d36bdd1c9282{fill:#242b2d}</style></defs><path d="M524.58 350.94v-21.73h2.27a1 1 0 011 .79l.28 2.23a11.34 11.34 0 012.69-2.42 6.33 6.33 0 013.47-.94 5.17 5.17 0 013.57 1.22 7 7 0 012 3.3 6.67 6.67 0 011.19-2 6.74 6.74 0 011.66-1.42 7.13 7.13 0 012-.81 8.43 8.43 0 012.12-.26 7.9 7.9 0 013.05.55 6 6 0 012.22 1.55 7 7 0 011.43 2.59 11.38 11.38 0 01.49 3.5v13.84h-3.81V337.1a5.88 5.88 0 00-1.12-3.87 4 4 0 00-3.24-1.32 4.71 4.71 0 00-1.79.34 4.31 4.31 0 00-1.49 1 4.58 4.58 0 00-1 1.62 6.3 6.3 0 00-.37 2.26v13.84h-3.82V337.1a6.09 6.09 0 00-1.05-3.9 3.72 3.72 0 00-3.07-1.29 4.88 4.88 0 00-2.62.76 8.62 8.62 0 00-2.22 2.07v16.2zm51.17 0h-1.7a2 2 0 01-.9-.18 1 1 0 01-.45-.72l-.42-2c-.58.51-1.13 1-1.68 1.38a9.36 9.36 0 01-1.71 1 8.64 8.64 0 01-1.92.63 10.6 10.6 0 01-2.27.22 7.64 7.64 0 01-2.37-.36 5.32 5.32 0 01-1.91-1.06 4.91 4.91 0 01-1.3-1.8 6.3 6.3 0 01-.49-2.57 4.8 4.8 0 01.71-2.48 6.26 6.26 0 012.29-2.13 14.88 14.88 0 014.12-1.51 27.92 27.92 0 016.25-.59v-1.71a5.91 5.91 0 00-1.09-3.85 3.92 3.92 0 00-3.2-1.31 6.67 6.67 0 00-2.35.36 8.46 8.46 0 00-1.65.79c-.47.29-.87.56-1.2.79a1.73 1.73 0 01-1 .36 1.14 1.14 0 01-.68-.21 1.57 1.57 0 01-.46-.5l-.68-1.22a12.48 12.48 0 013.88-2.6 12 12 0 014.61-.85 8.28 8.28 0 013.24.6 6.65 6.65 0 012.38 1.67 7.13 7.13 0 011.46 2.59 11.11 11.11 0 01.49 3.35zm-9.91-2.34a7.64 7.64 0 001.85-.21 7 7 0 001.57-.57 8.39 8.39 0 001.42-.92 11.42 11.42 0 001.32-1.22v-4.48a26 26 0 00-4.49.33 12.74 12.74 0 00-3 .88 4.17 4.17 0 00-1.68 1.27 2.77 2.77 0 00-.53 1.64 3.77 3.77 0 00.28 1.49 2.91 2.91 0 00.75 1 3.08 3.08 0 001.12.59 5.14 5.14 0 001.39.2zm20.78-8.79l-7.31-10.6H583a1.2 1.2 0 01.68.15 1.37 1.37 0 01.39.43l5.32 8.15a5.82 5.82 0 01.55-1.2l4.68-6.86a2.68 2.68 0 01.43-.49.8.8 0 01.54-.18h3.51l-7.31 10.38 7.61 11.35h-3.67a1 1 0 01-.73-.25 2.09 2.09 0 01-.44-.55l-5.47-8.51a3.8 3.8 0 01-.45 1.11l-5.06 7.4a4.24 4.24 0 01-.47.55.92.92 0 01-.67.25H579zm38.43 7.19a4.33 4.33 0 01-2.72-.81 3.74 3.74 0 01-1.33-2.47 7.88 7.88 0 01-2.7 2.48 6.75 6.75 0 01-3.13.75 5.13 5.13 0 01-2.23-.44 4.34 4.34 0 01-1.58-1.22 5.14 5.14 0 01-.94-1.85 8.24 8.24 0 01-.31-2.32 10.54 10.54 0 01.69-3.68 10.38 10.38 0 012.07-3.34 10.66 10.66 0 013.42-2.44 11.19 11.19 0 014.73-.94 12.5 12.5 0 012.52.22 10.45 10.45 0 012.05.66l-2 7.74a11.27 11.27 0 00-.4 2.66 3.6 3.6 0 00.19 1.28 1.84 1.84 0 001.3 1.19 4 4 0 00.93.1 3.68 3.68 0 002-.6 5.7 5.7 0 001.66-1.69 9.19 9.19 0 001.13-2.63 12.82 12.82 0 00.42-3.4 13.24 13.24 0 00-1-5.19 10.57 10.57 0 00-2.62-3.72 10.92 10.92 0 00-3.92-2.23 15.74 15.74 0 00-4.88-.74 13.49 13.49 0 00-9.76 4.12 14.36 14.36 0 00-2.94 4.57 15.19 15.19 0 00-1.07 5.74 16.48 16.48 0 001.15 6.41 12.85 12.85 0 007.78 7.43 17.07 17.07 0 005.74.94 20.92 20.92 0 005.76-.71 17.87 17.87 0 004.32-1.8 1.13 1.13 0 01.58-.19.7.7 0 01.66.51l.54 1.42a19 19 0 01-5.22 2.42 23 23 0 01-6.64.88 19.74 19.74 0 01-6.91-1.18 15.91 15.91 0 01-5.54-3.4 15.56 15.56 0 01-3.69-5.43 18.92 18.92 0 01-1.34-7.3 17.21 17.21 0 012.25-8.54 16.94 16.94 0 012.58-3.43 15.82 15.82 0 013.34-2.66 16.56 16.56 0 014-1.72 15.82 15.82 0 014.44-.61 17.17 17.17 0 013.86.43 16.43 16.43 0 013.57 1.26 15 15 0 013.1 2.07 13.43 13.43 0 012.43 2.83A13.76 13.76 0 01633 332a15.11 15.11 0 01.57 4.25 13.34 13.34 0 01-.66 4.28 10.7 10.7 0 01-1.8 3.4 8.3 8.3 0 01-2.7 2.25 7.07 7.07 0 01-3.36.82zm-9.13-2.58a4.51 4.51 0 001.34-.21 3.81 3.81 0 001.31-.75 5.51 5.51 0 001.15-1.46 9.45 9.45 0 00.89-2.32l1.63-6.32a7.93 7.93 0 00-1.82-.2 6.5 6.5 0 00-2.95.68 7.57 7.57 0 00-2.3 1.77 8.19 8.19 0 00-1.52 2.51 8 8 0 00-.54 2.89 4 4 0 00.71 2.48 2.47 2.47 0 002.1.88zm38.45 6.52h-1.7a2 2 0 01-.9-.18 1 1 0 01-.45-.72l-.42-2c-.58.51-1.13 1-1.68 1.38a9.36 9.36 0 01-1.71 1 8.64 8.64 0 01-1.92.63 10.6 10.6 0 01-2.27.22 7.53 7.53 0 01-2.36-.36 5.28 5.28 0 01-1.92-1.06 4.91 4.91 0 01-1.3-1.8 6.3 6.3 0 01-.49-2.57A4.8 4.8 0 01638 343a6.26 6.26 0 012.29-2.13 14.83 14.83 0 014.13-1.51 27.76 27.76 0 016.24-.59v-1.71a5.91 5.91 0 00-1.09-3.85 3.92 3.92 0 00-3.2-1.31 6.67 6.67 0 00-2.35.36 8.46 8.46 0 00-1.65.79c-.47.29-.87.56-1.2.79a1.73 1.73 0 01-1 .36 1.14 1.14 0 01-.68-.21 1.57 1.57 0 01-.46-.5l-.68-1.22a12.48 12.48 0 013.88-2.6 12 12 0 014.61-.85 8.28 8.28 0 013.24.6 6.65 6.65 0 012.38 1.67 7.13 7.13 0 011.46 2.59 10.8 10.8 0 01.49 3.35zm-9.91-2.34a7.64 7.64 0 001.85-.21 7 7 0 001.57-.57 8 8 0 001.42-.92 11.42 11.42 0 001.32-1.22v-4.48a26 26 0 00-4.49.33 12.74 12.74 0 00-3 .88 4.17 4.17 0 00-1.68 1.27 2.77 2.77 0 00-.53 1.64 3.77 3.77 0 00.28 1.49 2.91 2.91 0 00.75 1 3.08 3.08 0 001.12.59 5.14 5.14 0 001.39.2zM675 333.07a2.1 2.1 0 01-.34.37.88.88 0 01-.5.12 1.19 1.19 0 01-.69-.26 8.8 8.8 0 00-1-.59 7.76 7.76 0 00-1.4-.59 7.43 7.43 0 00-4.84.3 5.45 5.45 0 00-2 1.64 7.43 7.43 0 00-1.24 2.59 12.84 12.84 0 00-.42 3.41 12.46 12.46 0 00.45 3.51 7.45 7.45 0 001.27 2.57 5.25 5.25 0 002 1.59 6.19 6.19 0 002.63.55 6.47 6.47 0 002.29-.34 6.55 6.55 0 001.5-.74 9.78 9.78 0 001-.74 1.19 1.19 0 01.77-.33.8.8 0 01.73.37l1.07 1.39a8.14 8.14 0 01-3.54 2.54 12.44 12.44 0 01-4.48.81 9.45 9.45 0 01-3.78-.75 8.64 8.64 0 01-3-2.18 10.21 10.21 0 01-2-3.51 13.88 13.88 0 01-.74-4.74 14.31 14.31 0 01.67-4.48 10.22 10.22 0 012-3.55 9.1 9.1 0 013.21-2.33 10.92 10.92 0 014.37-.83 10.25 10.25 0 014 .74 9.63 9.63 0 013.01 2.09zm11.77 18.21a5.22 5.22 0 01-3.95-1.44 5.69 5.69 0 01-1.39-4.14v-13.29h-2.61a.84.84 0 01-.58-.21.77.77 0 01-.24-.63v-1.52l3.56-.45.88-6.72a.82.82 0 01.28-.52.87.87 0 01.6-.2h1.93v7.48h6.22v2.77h-6.22v13a2.73 2.73 0 00.67 2 2.28 2.28 0 001.71.67 3.2 3.2 0 001-.16 4.5 4.5 0 00.76-.36 4.84 4.84 0 00.55-.35.69.69 0 01.4-.16.65.65 0 01.53.36l1.12 1.83a7.18 7.18 0 01-2.38 1.44 8.12 8.12 0 01-2.84.6zm15.79 6.07a2.07 2.07 0 01-.48.68 1.31 1.31 0 01-.9.26h-2.83l4-8.62-9-20.46h3.3a1.08 1.08 0 01.77.25 1.49 1.49 0 01.41.54l5.81 13.69a8.77 8.77 0 01.33.94c.1.32.18.64.25 1l.3-1c.1-.31.22-.64.34-1l5.65-13.63a1.33 1.33 0 01.44-.56 1.16 1.16 0 01.68-.23h3zm20.67-17.54l-7.31-10.6h3.67a1.2 1.2 0 01.68.15 1.37 1.37 0 01.39.43l5.32 8.15a5.82 5.82 0 01.55-1.2l4.68-6.86a2.68 2.68 0 01.43-.49.79.79 0 01.53-.18h3.52l-7.31 10.38 7.62 11.35h-3.67a1.08 1.08 0 01-.74-.25 2.27 2.27 0 01-.43-.55l-5.47-8.51a3.8 3.8 0 01-.45 1.11l-5.06 7.4a4.24 4.24 0 01-.47.55.92.92 0 01-.67.25h-3.41zm15.29 8.77a2.83 2.83 0 01.76-1.91 2.52 2.52 0 01.85-.58 2.62 2.62 0 012.1 0 2.56 2.56 0 01.86.58 2.69 2.69 0 01.57.86 2.88 2.88 0 010 2.11 2.88 2.88 0 01-.57.85 2.51 2.51 0 01-.86.56 2.73 2.73 0 01-2.1 0 2.47 2.47 0 01-.85-.56 2.82 2.82 0 01-.55-.85 2.64 2.64 0 01-.21-1.06zm25.16-15.51a2.1 2.1 0 01-.34.37.88.88 0 01-.5.12 1.19 1.19 0 01-.69-.26 8.8 8.8 0 00-1-.59 7.76 7.76 0 00-1.4-.59 7.43 7.43 0 00-4.84.3 5.45 5.45 0 00-2.05 1.64 7.43 7.43 0 00-1.24 2.59 12.84 12.84 0 00-.42 3.41 12.46 12.46 0 00.45 3.51 7.45 7.45 0 001.27 2.57 5.25 5.25 0 002 1.59 6.19 6.19 0 002.63.55 6.47 6.47 0 002.29-.34 6.55 6.55 0 001.5-.74 9.78 9.78 0 001-.74 1.19 1.19 0 01.77-.33.8.8 0 01.73.37l1.07 1.39a8.14 8.14 0 01-3.54 2.54 12.44 12.44 0 01-4.48.81 9.45 9.45 0 01-3.78-.75 8.64 8.64 0 01-3-2.18 10.21 10.21 0 01-2-3.51 13.88 13.88 0 01-.74-4.74 14.31 14.31 0 01.67-4.48 10.22 10.22 0 012-3.55 9.1 9.1 0 013.21-2.33 10.92 10.92 0 014.37-.83 10.25 10.25 0 014 .74 9.63 9.63 0 013.11 2.09zm14-4.2a11.13 11.13 0 014.3.79 9.07 9.07 0 013.26 2.25 10 10 0 012.06 3.53 15.25 15.25 0 010 9.26 9.88 9.88 0 01-2.06 3.51 8.92 8.92 0 01-3.26 2.24 12.1 12.1 0 01-8.6 0 9 9 0 01-3.27-2.24 10.07 10.07 0 01-2.11-3.51 15 15 0 010-9.26 10.16 10.16 0 012.08-3.53 9.2 9.2 0 013.27-2.25 11.17 11.17 0 014.33-.79zm0 19.39a5.58 5.58 0 004.81-2.16 12.3 12.3 0 000-12.06 5.56 5.56 0 00-4.81-2.17 6.71 6.71 0 00-2.83.56 5.23 5.23 0 00-2 1.61 7 7 0 00-1.2 2.58 15.16 15.16 0 000 6.92 6.9 6.9 0 001.2 2.56 5.3 5.3 0 002 1.6 6.71 6.71 0 002.83.56zm15.06 2.68v-21.73H795a1 1 0 011 .79l.28 2.23a11.34 11.34 0 012.69-2.42 6.32 6.32 0 013.46-.94 5.14 5.14 0 013.57 1.22 6.92 6.92 0 012 3.3 6.67 6.67 0 011.19-2 6.74 6.74 0 011.66-1.42 7 7 0 012-.81 8.41 8.41 0 012.11-.26 7.92 7.92 0 013.06.55 6 6 0 012.27 1.59 7 7 0 011.43 2.59 11.38 11.38 0 01.49 3.5v13.84h-3.81V337.1a5.88 5.88 0 00-1.12-3.87 4 4 0 00-3.24-1.32 4.71 4.71 0 00-1.79.34 4.31 4.31 0 00-1.49 1 4.58 4.58 0 00-1 1.62 6.3 6.3 0 00-.37 2.26v13.84h-3.82V337.1a6.09 6.09 0 00-1-3.9 3.72 3.72 0 00-3.07-1.29 4.93 4.93 0 00-2.63.76 9 9 0 00-2.22 2.07v16.2z" stroke="#242b2d" stroke-miterlimit="10" stroke-width=".5" fill="#242b2d"/><path class="a3212c3a-7636-45fd-b1d4-d36bdd1c9282" d="M925.14 291a2 2 0 012 2v95.33a2 2 0 01-2 2H438.06a2 2 0 01-2-2V293a2 2 0 012-2h487.08m0-3H438.06a5 5 0 00-5 5v95.33a5 5 0 005 5h487.08a5 5 0 005-5V293a5 5 0 00-5-5z"/><rect class="a3212c3a-7636-45fd-b1d4-d36bdd1c9282" x="433.06" y="198.65" width="497.08" height="70.17" rx="5"/><path d="M477.16 216.32h3.46a1.46 1.46 0 01.92.28 1.33 1.33 0 01.49.7l6.35 21.37c.11.38.22.8.31 1.24s.18.91.27 1.39c.1-.48.2-1 .3-1.4a10.8 10.8 0 01.34-1.23l7.23-21.37a1.53 1.53 0 01.5-.67 1.38 1.38 0 01.91-.31h1.21a1.41 1.41 0 01.91.28 1.54 1.54 0 01.5.7l7.19 21.37a22.06 22.06 0 01.68 2.55q.13-.71.24-1.35a8.13 8.13 0 01.28-1.2l6.37-21.37a1.34 1.34 0 01.48-.68 1.4 1.4 0 01.91-.3h3.24l-9.59 30.73h-3.73l-7.78-23.44a12.77 12.77 0 01-.43-1.54c-.07.28-.14.56-.21.82a7.23 7.23 0 01-.2.72l-7.83 23.44h-3.73zm54.65 8.68a11.13 11.13 0 014.3.8 9 9 0 013.26 2.25 10 10 0 012.06 3.53 15.21 15.21 0 010 9.25 10.16 10.16 0 01-2.06 3.52 9 9 0 01-3.26 2.24 12.24 12.24 0 01-8.6 0 9 9 0 01-3.27-2.24 10.05 10.05 0 01-2.08-3.52 15 15 0 010-9.25 9.92 9.92 0 012.08-3.53 9.07 9.07 0 013.27-2.25 11.13 11.13 0 014.3-.8zm0 19.39a5.59 5.59 0 004.8-2.15 12.25 12.25 0 000-12.07 5.57 5.57 0 00-4.8-2.16 6.68 6.68 0 00-2.83.55 5.34 5.34 0 00-2 1.61 7.3 7.3 0 00-1.2 2.59 14 14 0 00-.4 3.46 13.86 13.86 0 00.4 3.45 7.28 7.28 0 001.2 2.57 5.39 5.39 0 002 1.59 6.68 6.68 0 002.83.54zm15.05 2.66v-21.72h2.19a1.2 1.2 0 01.86.23 1.46 1.46 0 01.32.82l.26 3.38a9.93 9.93 0 012.75-3.54 6.11 6.11 0 013.85-1.28 6.27 6.27 0 011.63.2 5.83 5.83 0 011.35.57l-.49 2.85a.64.64 0 01-.66.54 3.61 3.61 0 01-.93-.2 5.6 5.6 0 00-1.73-.21 4.94 4.94 0 00-3.34 1.16 8.74 8.74 0 00-2.24 3.37v13.83zm21.26-31.59v18.59h1a2 2 0 00.71-.11 1.91 1.91 0 00.62-.49l6.87-7.35a3.56 3.56 0 01.64-.56 1.54 1.54 0 01.86-.21h3.47l-8 8.51a6.21 6.21 0 01-.59.64 3.62 3.62 0 01-.65.5 3.59 3.59 0 01.7.59 5.22 5.22 0 01.58.76l8.5 10.72h-3.43a1.67 1.67 0 01-.81-.18 2.06 2.06 0 01-.63-.57l-7.14-8.9a1.66 1.66 0 00-.65-.59 2.56 2.56 0 00-1-.14h-1.07v10.38h-3.84v-31.59zm46.32.86v3.39h-14.75v10.21h11.94v3.25h-11.94v10.49h14.75v3.39H595.5v-30.73zm4.4 16.25h10.59v3.24h-10.59zm15.86 14.48v-21.72h2.3a1 1 0 011 .79l.28 2.23a10.94 10.94 0 012.69-2.42 6.32 6.32 0 013.46-1 5.13 5.13 0 013.57 1.23 6.81 6.81 0 012 3.3 6.81 6.81 0 011.19-2 7.24 7.24 0 011.67-1.42 7 7 0 012-.81 8.83 8.83 0 012.11-.26 8.14 8.14 0 013.06.55 6 6 0 012.27 1.6 7.16 7.16 0 011.43 2.58 11.4 11.4 0 01.49 3.51v13.83h-3.82v-13.82a5.88 5.88 0 00-1.11-3.87A4 4 0 00656 228a4.86 4.86 0 00-1.79.33 4.25 4.25 0 00-1.49 1 4.4 4.4 0 00-1 1.62 6.26 6.26 0 00-.38 2.26v13.83h-3.81v-13.82a6.1 6.1 0 00-1-3.91 3.77 3.77 0 00-3.07-1.28 4.85 4.85 0 00-2.63.76 8.62 8.62 0 00-2.22 2.07v16.19zm51.18 0h-1.7a2.09 2.09 0 01-.9-.17 1 1 0 01-.45-.73l-.43-2c-.57.52-1.13 1-1.67 1.39a10 10 0 01-1.72 1 8.64 8.64 0 01-1.92.63 11.21 11.21 0 01-2.26.21 7.64 7.64 0 01-2.37-.35 5.3 5.3 0 01-1.92-1.07 5.2 5.2 0 01-1.3-1.79 6.39 6.39 0 01-.48-2.58 4.82 4.82 0 01.71-2.48 6.2 6.2 0 012.28-2.12 14.94 14.94 0 014.13-1.52 28.36 28.36 0 016.24-.59v-1.7a5.94 5.94 0 00-1.08-3.86 3.92 3.92 0 00-3.21-1.3 7 7 0 00-2.35.35 9.77 9.77 0 00-1.65.79c-.46.3-.86.56-1.2.8a1.76 1.76 0 01-1 .35 1.12 1.12 0 01-.68-.2 1.56 1.56 0 01-.46-.5l-.69-1.23a12.38 12.38 0 013.88-2.59 12.07 12.07 0 014.62-.86 8.2 8.2 0 013.23.6 6.6 6.6 0 012.38 1.67 7 7 0 011.46 2.6 10.74 10.74 0 01.5 3.34zm-9.88-2.34a7.58 7.58 0 001.84-.2 7.44 7.44 0 001.58-.58 8.25 8.25 0 001.41-.91 13.53 13.53 0 001.32-1.22v-4.49a25.79 25.79 0 00-4.48.34 12.32 12.32 0 00-3 .87 4.23 4.23 0 00-1.67 1.28 2.71 2.71 0 00-.52 1.63 3.54 3.54 0 00.28 1.49 2.72 2.72 0 00.75 1 3 3 0 001.11.58 5.21 5.21 0 001.38.21zm20.77-26.2a2.47 2.47 0 01-.23 1 3 3 0 01-1.46 1.44 2.52 2.52 0 01-1.06.22 2.46 2.46 0 01-1-.22 2.91 2.91 0 01-1.44-1.44 2.46 2.46 0 01-.22-1 2.6 2.6 0 01.22-1.07 2.89 2.89 0 01.59-.88 3 3 0 01.83-.56 2.61 2.61 0 011-.21 2.67 2.67 0 011.06.21 3 3 0 01.86.59 2.93 2.93 0 01.6.88 2.6 2.6 0 01.25 1.04zm-.86 6.82v21.72h-3.81v-21.72zm10.98-9.87v31.59h-3.82v-31.59zm40.9 31.59h-3.22a1.36 1.36 0 01-.9-.28 1.61 1.61 0 01-.51-.71l-2.88-7.42h-13.79l-2.87 7.42a1.62 1.62 0 01-.52.69 1.36 1.36 0 01-.9.3H719l12.29-30.73h4.22zm-20.14-11.41h11.48l-4.83-12.5a22.37 22.37 0 01-.92-2.9c-.16.59-.31 1.13-.46 1.62s-.3.93-.44 1.3zm38.71 11.41a1 1 0 01-1-.79l-.34-2.64a11.37 11.37 0 01-3.19 2.71 8.13 8.13 0 01-4.1 1 7.8 7.8 0 01-3.39-.72 7 7 0 01-2.6-2.11 10.27 10.27 0 01-1.65-3.47 18.22 18.22 0 01-.58-4.79 15 15 0 01.65-4.47 10.9 10.9 0 011.84-3.57 8.52 8.52 0 016.9-3.26 7.88 7.88 0 013.41.68 8.34 8.34 0 012.53 1.89v-12h3.81v31.59zm-7.4-2.79a6 6 0 003.27-.86 9.31 9.31 0 002.59-2.42v-10.51a6 6 0 00-2.31-2 6.61 6.61 0 00-2.78-.57 5.48 5.48 0 00-4.67 2.17 10.07 10.07 0 00-1.63 6.17 15.93 15.93 0 00.36 3.64 7 7 0 001.08 2.49 4.21 4.21 0 001.73 1.42 5.88 5.88 0 002.4.47zm31.38 2.79a1 1 0 01-1-.79l-.34-2.64a11.52 11.52 0 01-3.19 2.71 8.14 8.14 0 01-4.11 1 7.86 7.86 0 01-3.39-.72 7 7 0 01-2.59-2.11 10.08 10.08 0 01-1.65-3.47 17.81 17.81 0 01-.58-4.79 15 15 0 01.64-4.47 10.92 10.92 0 011.87-3.57 8.52 8.52 0 016.89-3.26 7.85 7.85 0 013.41.68 8.1 8.1 0 012.53 1.89v-12h3.82v31.59zm-7.4-2.79a6.09 6.09 0 003.27-.86 9.14 9.14 0 002.58-2.42v-10.51a6.1 6.1 0 00-2.3-2 6.64 6.64 0 00-2.78-.57 5.47 5.47 0 00-4.67 2.17 10.07 10.07 0 00-1.63 6.17 15.93 15.93 0 00.36 3.64 7 7 0 001.07 2.49 4.17 4.17 0 001.74 1.42 5.84 5.84 0 002.36.47zm16.06 2.79v-21.72h2.19a1.2 1.2 0 01.86.23 1.46 1.46 0 01.32.82l.26 3.38a9.93 9.93 0 012.75-3.54 6.11 6.11 0 013.85-1.28 6.27 6.27 0 011.63.2 5.83 5.83 0 011.35.57l-.49 2.85a.64.64 0 01-.66.54 3.61 3.61 0 01-.93-.2 5.6 5.6 0 00-1.73-.21 5 5 0 00-3.34 1.16 8.74 8.74 0 00-2.24 3.37v13.83zM824.91 225a9.61 9.61 0 013.6.66 8 8 0 012.85 1.88 8.69 8.69 0 011.88 3 11.77 11.77 0 01.68 4.13 2.45 2.45 0 01-.2 1.2.8.8 0 01-.73.3h-14.45a11.79 11.79 0 00.56 3.58 7.23 7.23 0 001.41 2.54 5.6 5.6 0 002.15 1.52 7.25 7.25 0 002.78.51 8.23 8.23 0 002.48-.33 13.83 13.83 0 001.79-.72q.75-.39 1.26-.72a1.64 1.64 0 01.87-.33.83.83 0 01.72.36l1.08 1.4a7.43 7.43 0 01-1.7 1.49 11.19 11.19 0 01-2.11 1 14 14 0 01-2.33.61 14.8 14.8 0 01-2.38.2 11 11 0 01-4.15-.76 9.15 9.15 0 01-3.28-2.23 10.16 10.16 0 01-2.15-3.64 14.61 14.61 0 01-.78-5 12.8 12.8 0 01.7-4.25 10.07 10.07 0 012-3.42 9.22 9.22 0 013.19-2.27 10.53 10.53 0 014.26-.71zm.08 2.81a5.84 5.84 0 00-4.35 1.6 7.53 7.53 0 00-2 4.43h11.81a7.86 7.86 0 00-.36-2.44 5.36 5.36 0 00-1.07-1.9 4.72 4.72 0 00-1.73-1.25 5.87 5.87 0 00-2.29-.46zm26.23 1.1a.84.84 0 01-.79.47 1.46 1.46 0 01-.73-.24c-.27-.15-.6-.33-1-.52a9.13 9.13 0 00-1.4-.54 6.92 6.92 0 00-1.93-.24 5.86 5.86 0 00-1.74.24 4.33 4.33 0 00-1.32.68 3 3 0 00-.83 1 2.6 2.6 0 00-.29 1.24 2 2 0 00.48 1.39 4.27 4.27 0 001.27 1 10.51 10.51 0 001.81.71c.67.21 1.36.43 2.07.67s1.39.5 2.07.78a7.68 7.68 0 011.8 1.08 4.76 4.76 0 011.27 1.57 4.84 4.84 0 01.48 2.24 7.06 7.06 0 01-.53 2.78 6.1 6.1 0 01-1.59 2.21 7.76 7.76 0 01-2.57 1.47 10.55 10.55 0 01-3.52.53 10.87 10.87 0 01-4.12-.74 10.41 10.41 0 01-3.13-1.89l.9-1.46a1.31 1.31 0 01.41-.43 1.16 1.16 0 01.62-.15 1.46 1.46 0 01.82.3c.28.2.63.42 1 .66a7.6 7.6 0 001.48.67 6.72 6.72 0 002.17.3 6.08 6.08 0 002-.29 4.06 4.06 0 001.39-.78 3.16 3.16 0 00.83-1.14 3.71 3.71 0 00.26-1.37 2.28 2.28 0 00-.48-1.49 4 4 0 00-1.28-1 10.18 10.18 0 00-1.81-.73l-2.08-.65a21.7 21.7 0 01-2.08-.79 7.29 7.29 0 01-1.81-1.1 5.08 5.08 0 01-1.28-1.64 5.33 5.33 0 01-.48-2.37 5.65 5.65 0 01.52-2.39 5.77 5.77 0 011.5-2 7.2 7.2 0 012.42-1.45 9.53 9.53 0 013.28-.52 10.4 10.4 0 013.85.68 9.18 9.18 0 013 1.85zm18.62 0a.86.86 0 01-.8.47 1.52 1.52 0 01-.73-.24c-.27-.15-.6-.33-1-.52a9.28 9.28 0 00-1.41-.54 6.83 6.83 0 00-1.93-.24 5.9 5.9 0 00-1.74.24 4.16 4.16 0 00-1.31.68 2.91 2.91 0 00-.84 1 2.73 2.73 0 00-.29 1.24 2 2 0 00.48 1.39 4.19 4.19 0 001.28 1 10.72 10.72 0 001.8.71c.67.21 1.36.43 2.07.67s1.4.5 2.07.78a7.68 7.68 0 011.8 1.08 4.78 4.78 0 011.28 1.57 4.84 4.84 0 01.48 2.24 7.07 7.07 0 01-.54 2.78 6 6 0 01-1.58 2.21 7.71 7.71 0 01-2.58 1.47 10.45 10.45 0 01-3.51.53 10.84 10.84 0 01-4.12-.74 10.29 10.29 0 01-3.13-1.89l.9-1.46a1.28 1.28 0 01.4-.43 1.18 1.18 0 01.63-.15 1.43 1.43 0 01.81.3c.29.2.63.42 1 .66a7.6 7.6 0 001.48.67 6.78 6.78 0 002.18.3 6.06 6.06 0 002-.29 4 4 0 001.39-.78 3 3 0 00.83-1.14 3.52 3.52 0 00.27-1.37 2.28 2.28 0 00-.48-1.49 4.1 4.1 0 00-1.28-1 10.49 10.49 0 00-1.81-.73l-2.08-.65a21.7 21.7 0 01-2.08-.79 7.36 7.36 0 01-1.82-1.1 4.92 4.92 0 01-1.27-1.64 5.33 5.33 0 01-.48-2.37 5.83 5.83 0 012-4.41 7.4 7.4 0 012.42-1.38 9.59 9.59 0 013.29-.52 10.4 10.4 0 013.85.68 9.13 9.13 0 012.94 1.85z" fill="#fff" stroke="#fff" stroke-miterlimit="10" stroke-width=".5"/><path class="a3212c3a-7636-45fd-b1d4-d36bdd1c9282" d="M1030.74 298.74h82.03v4h-82.03z"/><path class="a3212c3a-7636-45fd-b1d4-d36bdd1c9282" d="M1095.41 322.43l-2.82-2.83 16.77-16.77a3 3 0 000-4.17L1092.68 282l2.83-2.83 16.68 16.68a7 7 0 010 9.82zm378.06-15.65v-32.2a.49.49 0 00-.24-.42l-27.65-16a.46.46 0 00-.48 0l-27.17 15.69a.47.47 0 000 .82l13.35 7.71 13.82-8a.46.46 0 01.48 0l13.59 7.84a.49.49 0 01.24.42v16l-7.34 4.24-6.49 3.74a.46.46 0 01-.48 0l-13.58-7.84a.49.49 0 01-.24-.42v-16l-13.83 8a.49.49 0 00-.23.42v15.72a.5.5 0 00.23.42l27.65 16a.46.46 0 00.48 0l13.83-8 6.48 3.74a.46.46 0 00.48 0l13.11-7.57a.47.47 0 000-.82z"/><path class="a3212c3a-7636-45fd-b1d4-d36bdd1c9282" d="M1445.47 556.9c-144.9 0-262.78-117.89-262.78-262.79s117.88-262.78 262.78-262.78 262.79 117.88 262.79 262.78-117.89 262.79-262.79 262.79zm0-522.59c-143.25 0-259.8 116.55-259.8 259.8s116.55 259.81 259.8 259.81 259.81-116.55 259.81-259.81-116.55-259.8-259.81-259.8z"/><path class="a3212c3a-7636-45fd-b1d4-d36bdd1c9282" d="M1445.47 489.15c-107.54 0-195-87.49-195-195s87.5-195 195-195 195 87.5 195 195-87.47 195-195 195zm0-387.1c-105.9 0-192.06 86.16-192.06 192.06s86.16 192.07 192.06 192.07 192.07-86.18 192.07-192.07-86.16-192.06-192.07-192.06z"/><path class="a3212c3a-7636-45fd-b1d4-d36bdd1c9282" d="M1264 297.14a30.84 30.84 0 003.58 13.82 30.32 30.32 0 004.81 27.35 30.14 30.14 0 008.89 26.25 31.12 31.12 0 003.5 13.91 30.73 30.73 0 009.4 10.68 30.56 30.56 0 0016.61 22.38 30.39 30.39 0 0019.77 19.47 30.25 30.25 0 0022.52 16.15 30.48 30.48 0 0024.81 12.48 30.54 30.54 0 0026.5 8.49 30.14 30.14 0 0027.39 4.26 30.6 30.6 0 0013.87 3.38 32.26 32.26 0 0019.65-7 32.34 32.34 0 0020.71 2.46 30.77 30.77 0 0012.78-6.38 30.17 30.17 0 0025.75-10.24 30.57 30.57 0 0024-14.16 30.54 30.54 0 0021.44-17.73 30.15 30.15 0 0018.31-20.71 31.14 31.14 0 0010.36-9.92 30.75 30.75 0 004.63-13.46 30.36 30.36 0 0011.2-25.47 30.36 30.36 0 007.15-26.89 30.17 30.17 0 002.87-27.5 30.56 30.56 0 00-1.41-27.79 30.35 30.35 0 00-5.74-27.17 30.15 30.15 0 00-9.84-26 30.17 30.17 0 00-13.73-24.13 30.19 30.19 0 00-17.25-21.67 30.43 30.43 0 00-20.53-18.78 30.13 30.13 0 00-23-15.36 30.53 30.53 0 00-24.23-11.69h-1a31 31 0 00-12.47-7 30.22 30.22 0 00-8.3-1.17 32.8 32.8 0 00-6 .58 30.91 30.91 0 00-13.39-5 30.67 30.67 0 00-14.24 1.66 30.91 30.91 0 00-12.91-2.9h-1a30.86 30.86 0 00-13.75 3.81 31.56 31.56 0 00-8.58-1.2 30.48 30.48 0 00-5.7.54 30.93 30.93 0 00-13 5.92 32.83 32.83 0 00-3.82-.26 30.44 30.44 0 00-22.29 9.64 31 31 0 00-13.78 3.72 30.64 30.64 0 00-10.54 9.61 30.22 30.22 0 00-22 17 30.13 30.13 0 00-19.11 20.12 30.34 30.34 0 00-15.83 22.9 30.12 30.12 0 00-12 25 30.07 30.07 0 00-8 26.48 30.57 30.57 0 00-3.84 27.61 30.81 30.81 0 00-3.22 13.91zm2.21 0a28.4 28.4 0 012-11 42.14 42.14 0 007 10.8 41.8 41.8 0 00-6.64 11 28.22 28.22 0 01-2.41-10.84zm11.94-24.72a60.11 60.11 0 0011.49 12.16 61.5 61.5 0 00-10.87 8.55c-.71.71-1.39 1.43-2 2.16a38.73 38.73 0 01-7.21-11.9 38.68 38.68 0 018.54-11.01zm15-67.07a38.61 38.61 0 0112.65-5.92 60.16 60.16 0 004.82 16.08 60.52 60.52 0 00-16.36 3.75 38.54 38.54 0 01-1.21-13.95zm15.57-22.55a38.65 38.65 0 0113.41-3.89 60.07 60.07 0 002.27 16.61c-1.4-.09-2.79-.13-4.16-.13a58.65 58.65 0 00-12.57 1.32 38.92 38.92 0 01.95-13.95zm64.52-49.8a38.59 38.59 0 0113.69 2.53c-.45.87-.88 1.76-1.3 2.68a62.42 62.42 0 00-4.13 13.15 62.15 62.15 0 00-12.58-5.63c-1-.3-1.92-.55-2.87-.79a38.28 38.28 0 017.19-11.94zm25.78-9.27a38.72 38.72 0 0113.14 4.62c-.58.8-1.15 1.61-1.7 2.45a61.53 61.53 0 00-6.12 12.35 61.58 61.58 0 00-11.56-7.51c-.9-.44-1.8-.85-2.7-1.24a38.6 38.6 0 018.92-10.63zm115.86 16.14a59.94 59.94 0 00-15 7.48 61.39 61.39 0 00-5-12.88c-.47-.89-1-1.75-1.48-2.59a38.28 38.28 0 0113.49-3.46 38.73 38.73 0 017.99 11.49zm61.87 47.53a56.77 56.77 0 00-8.35-.61 64.12 64.12 0 00-8.43.58 60.61 60.61 0 001.13-16.74 38.86 38.86 0 0113.65 3 38.47 38.47 0 012 13.81zm14.9 21.59a60 60 0 00-16.52-2.64 61.83 61.83 0 003.4-13.41c.14-1 .23-2 .31-2.95a38.74 38.74 0 0113 5 38.68 38.68 0 01-.19 14.01zm11.4 23.6a59.82 59.82 0 00-16-5.17 60.4 60.4 0 006.19-15.58 38.81 38.81 0 0112.08 7 38.79 38.79 0 01-2.27 13.79zm10.84 77.27c-.59-.79-1.2-1.57-1.85-2.34a61.58 61.58 0 00-10.06-9.43 61.73 61.73 0 0010.54-8.89c.69-.73 1.33-1.48 2-2.22a38.86 38.86 0 017.63 11.65 38.76 38.76 0 01-8.26 11.27zm-12.69 67.57a38.47 38.47 0 01-12.43 6.35 59.84 59.84 0 00-5.37-15.9 60.34 60.34 0 0016.21-4.32 38.76 38.76 0 011.59 13.91zm-14.79 23.07a38.55 38.55 0 01-13.22 4.34c0-1-.06-2-.14-3a62.16 62.16 0 00-2.69-13.52 61.49 61.49 0 0013.74-1.09c1-.2 2-.42 2.9-.67a38.78 38.78 0 01-.59 13.98zm-64.33 51.94a39.49 39.49 0 01-12.35-2.12 60.3 60.3 0 004.89-16 61.64 61.64 0 0012.8 5.22c1 .27 1.93.5 2.89.71a38.82 38.82 0 01-6.78 12.16c-.48.04-.96.07-1.45.07zm-24 10.09c-6.82-.77-13.76-3.73-20.21-8.47a68.79 68.79 0 006.92-17.15 65.59 65.59 0 0019.13 13.51c.91.41 1.82.79 2.74 1.14a38.74 38.74 0 01-8.58 11.01zm-119.29-5.18a38.59 38.59 0 01-7.58-11.67c.94-.27 1.88-.57 2.84-.9a62 62 0 0012.41-6.08 60 60 0 006 15.65 38.65 38.65 0 01-13.67 3.04zm-67.79-61.3a60.27 60.27 0 0016.76.61 60.11 60.11 0 00-1.7 16.7 38.59 38.59 0 01-13.53-3.43 38.75 38.75 0 01-1.53-13.88zM1296.81 374a60.48 60.48 0 0016.48 3.2 60.56 60.56 0 00-4.29 16.2 38.87 38.87 0 01-12.84-5.48 38.59 38.59 0 01.65-13.92zm-13.36-10.33a38.65 38.65 0 012.78-13.67 60.2 60.2 0 0015.74 5.71 61.47 61.47 0 00-5.86 12.52c-.32.94-.6 1.89-.85 2.82a38.6 38.6 0 01-11.81-7.4zM1383.12 155a76.27 76.27 0 0116.65 14.84v3c.54 15.69 5.33 30.3 13.49 41.15a52.14 52.14 0 004 4.66 40.25 40.25 0 01-1.72 8.47 39.84 39.84 0 01-7.52-4.37c-1.19-14.46-9-30.49-22.65-43.42-.72-.69-1.46-1.35-2.2-2a76.26 76.26 0 01-.05-22.33zm97.53 11.39c-.57.79-1.15 1.58-1.7 2.41-10.4 15.63-14.49 33-12.44 47.37a40.16 40.16 0 01-6.37 5.94 40 40 0 01-3.56-7.89 51.18 51.18 0 002.83-5.42c5.55-12.39 7-27.71 4-43.13-.19-1-.39-1.95-.61-2.91a76.09 76.09 0 0112.91-18.15 76.26 76.26 0 014.94 21.78zm19.35 6.91c-.69.71-1.38 1.43-2 2.16-12.69 13.83-19.43 30.36-19.63 44.86a39.56 39.56 0 01-7.2 4.88 39.76 39.76 0 01-2.29-8.33 53.25 53.25 0 003.62-4.91c7.41-11.39 11.19-26.3 10.65-42 0-1-.09-2-.16-3a76.48 76.48 0 0115.6-15.93 76 76 0 011.41 22.27zm18 9.87c-.8.59-1.58 1.19-2.36 1.81-12.28 9.78-21.16 22.34-25 35.37a51.68 51.68 0 00-1.37 5.94 39.91 39.91 0 01-7.83 3.67 39.85 39.85 0 01-1-8.64c10.89-9.58 19.09-25.44 21.35-44.06.12-1 .23-2 .31-3a76.63 76.63 0 0117.9-13.32 76.24 76.24 0 01-2 22.23zm74 68.07a76.69 76.69 0 01-17 14.45c-1-.14-2-.26-3-.36a84 84 0 00-8.77-.46c-12.44 0-24.22 2.8-33.86 8.15a52.24 52.24 0 00-5.13 3.27 40.74 40.74 0 01-8.18-2.87 39.29 39.29 0 015.33-6.8 51.93 51.93 0 006.11 0c13.55-.84 27.78-6.7 40.06-16.48.78-.62 1.54-1.26 2.3-1.9a75.82 75.82 0 0122.14 3zm-12 114.81c-1.84.15-3.7.25-5.6.25a78.29 78.29 0 01-16.61-1.83c-.6-.79-1.22-1.56-1.86-2.33-10-12.11-22.7-20.77-35.79-24.4a51.39 51.39 0 00-6-1.27 40.17 40.17 0 01-3.81-7.77 39.84 39.84 0 018.57-1.12 50.69 50.69 0 004.37 4.28c10.25 8.9 24.5 14.7 40.12 16.32 1 .11 2 .19 3 .26a76.26 76.26 0 0113.61 17.61zm-67 64.76a77.34 77.34 0 01-19.56-17.05 80 80 0 01-7-10 70.51 70.51 0 00-9.35-26c-.11-.86-.2-1.72-.27-2.59a43.36 43.36 0 011.35-15.35 39.44 39.44 0 017.63 4.08 50.94 50.94 0 001.06 6c3.16 13.21 11.37 26.22 23.11 36.63.75.67 1.51 1.31 2.27 1.94a76.26 76.26 0 01.66 22.34zm-27.8-14.09a79.92 79.92 0 01-1.55 15.7 80.87 80.87 0 01-9.32-12.72 82 82 0 01-5.42-11 70.14 70.14 0 00-5.21-27.07 47.37 47.37 0 012.31-13.67 47.19 47.19 0 018.9 10.5 69.9 69.9 0 009.37 26.06 81.77 81.77 0 01.82 12.2zm-19.47 4.63a79.64 79.64 0 01-3.94 15.27 79.82 79.82 0 01-7.25-14 81.28 81.28 0 01-3.66-11.67 70.21 70.21 0 00-1-27.55 47 47 0 014.39-13.15 47.1 47.1 0 017.21 11.85 70.13 70.13 0 005.18 27.07 81.27 81.27 0 01-1.03 12.18zm-78.41-8.54c.72-.68 1.43-1.37 2.12-2.09 13.16-13.38 20.46-29.67 21.15-44.16a40.18 40.18 0 017.37-4.62 40.07 40.07 0 012 8.46c-9.74 10.82-15.96 27.6-15.96 46.32v3a76.44 76.44 0 01-16.11 15.4 76.18 76.18 0 01-.67-22.31zm-17.68-10.47c.81-.56 1.62-1.14 2.42-1.73 12.61-9.36 21.91-21.61 26.21-34.5a52 52 0 001.57-5.89 40.56 40.56 0 018-3.4 40.28 40.28 0 01.68 8.66c-11.22 9.2-19.95 24.78-22.86 43.32-.15 1-.29 2-.41 2.95a76.36 76.36 0 01-18.32 12.73 76.22 76.22 0 012.61-22.14zm-53.39-103.95c18 5.43 35.78 4.32 48.94-1.8a40.39 40.39 0 017.51 4.38 39.84 39.84 0 01-6.51 5.68 50.59 50.59 0 00-6-1.13 57.86 57.86 0 00-7.5-.47 76.1 76.1 0 00-34.94 9.1c-.88.46-1.76.94-2.62 1.43a76.41 76.41 0 01-21.12-7.11 76.52 76.52 0 0119.4-11c.84.32 1.78.63 2.74.92zm.53-2.16h.11c16.4-5.58 32.85-5.45 45.47-.75a60.14 60.14 0 01-22.88 4.26 78.19 78.19 0 01-22.59-3.43zm102.55-75.66a40.25 40.25 0 006 4.66 31 31 0 01-2.83 4 31.24 31.24 0 01-4.8-1.34 41.49 41.49 0 001.53-7.32zm59.12 2.5a40.69 40.69 0 001 7.52 30.85 30.85 0 01-4.88.93 31.05 31.05 0 01-2.48-4.32 41.65 41.65 0 006.26-4.13zm21.18-46.07c-2.1 17.21-9.36 32-19.08 41.3.78-13.45 7.29-28.56 19-41.33l.08-.09a.49.49 0 000 .12zm-69.08 187.25A31.82 31.82 0 011435 362a33.68 33.68 0 016 6.64 46.78 46.78 0 00-5.67 9.77 45 45 0 00-4.78-14.17zm-20-.45a42.06 42.06 0 00-.74-7.53 31 31 0 014.91-.75 31.82 31.82 0 012.34 4.4 42.33 42.33 0 00-6.51 3.87zm-36.23-61.45a32.6 32.6 0 013.54 3.51 32.18 32.18 0 01-2.11 4.45 41.06 41.06 0 00-7-2.9 41.75 41.75 0 005.57-5.07zm122.83-52.17l-.57-.31a72.846 72.846 0 00-3.39-3.65c-.07-.16-.12-.33-.19-.5a35.43 35.43 0 004 .42 33.87 33.87 0 00.15 4.03zm-3 94.38a33.67 33.67 0 00-3.78.21c.07-.17.14-.34.22-.51a70.27 70.27 0 003.62-3.5l.5-.2a35.14 35.14 0 00-.36 4zm-35.76 16l-.43-.2.74-.13zm-75.82-75.28c.13-.92.19-1.84.24-2.76.25-1.41.54-2.81.89-4.19a28 28 0 001-2.7 26.13 26.13 0 00.67-2.71c.48-1.36 1-2.71 1.57-4 .48-.8.94-1.62 1.35-2.47s.75-1.69 1.07-2.55c.71-1.33 1.49-2.62 2.29-3.9.56-.67 1.1-1.36 1.61-2.09s1-1.49 1.4-2.26c.94-1.25 1.94-2.46 3-3.64.64-.56 1.26-1.15 1.85-1.77s1.15-1.28 1.68-1.94c1.13-1.1 2.3-2.17 3.52-3.18.73-.47 1.45-1 2.15-1.5s1.34-1.09 2-1.68c1.24-.87 2.51-1.72 3.81-2.51.84-.37 1.68-.76 2.49-1.2s1.59-.94 2.35-1.45c1.31-.65 2.63-1.24 4-1.8.9-.23 1.79-.49 2.67-.81s1.8-.71 2.67-1.12c1.35-.42 2.71-.78 4.09-1.1.93-.09 1.85-.21 2.77-.39s1.85-.42 2.76-.68c1.41-.21 2.84-.35 4.28-.47.92.06 1.85.08 2.78.05s1.86-.12 2.78-.24c1.48 0 2.93.08 4.38.2.89.19 1.8.36 2.71.47s1.87.16 2.8.19c1.43.24 2.84.52 4.24.85.87.34 1.75.65 2.65.91s1.8.45 2.71.62c1.38.46 2.75 1 4.09 1.51.8.46 1.62.9 2.47 1.29s1.65.71 2.49 1q2 1 3.92 2.17c.71.57 1.44 1.13 2.21 1.64s1.49.93 2.25 1.34c1.27.93 2.51 1.91 3.71 2.92.58.64 1.18 1.25 1.82 1.84s1.35 1.17 2 1.71c1.11 1.1 2.17 2.26 3.19 3.44.47.71 1 1.41 1.5 2.08s1.14 1.34 1.74 2q1.36 1.86 2.6 3.83c.37.8.76 1.59 1.2 2.37s.94 1.54 1.45 2.27c.67 1.31 1.31 2.63 1.9 4 .25.9.52 1.8.86 2.68s.71 1.72 1.12 2.55c.44 1.33.85 2.68 1.21 4.06a28 28 0 00.47 2.84c.19.93.45 1.83.72 2.72.23 1.4.42 2.82.56 4.25 0 .94-.06 1.88 0 2.83s.16 1.87.29 2.79v.48c0 1.29 0 2.56-.12 3.83-.18.92-.34 1.84-.44 2.78a27.71 27.71 0 00-.14 2.87c-.21 1.4-.48 2.79-.78 4.16-.32.88-.62 1.77-.86 2.69s-.43 1.87-.59 2.81c-.43 1.37-.92 2.71-1.44 4-.44.81-.87 1.62-1.24 2.47s-.69 1.71-1 2.58c-.67 1.35-1.38 2.66-2.14 3.95-.54.71-1.07 1.43-1.55 2.18s-.9 1.5-1.3 2.27a68.11 68.11 0 01-2.81 3.71c-.64.61-1.26 1.24-1.85 1.9s-1.1 1.31-1.6 2q-1.62 1.68-3.34 3.24c-.75.51-1.47 1.05-2.17 1.63s-1.33 1.17-2 1.79q-1.85 1.39-3.8 2.67c-.79.37-1.57.77-2.33 1.22s-1.55 1-2.3 1.53c-1.27.68-2.58 1.32-3.91 1.92-.89.26-1.78.56-2.66.91s-1.7.75-2.52 1.17c-1.35.47-2.72.9-4.11 1.28a26.89 26.89 0 00-2.8.49 27.5 27.5 0 00-2.69.76 63.06 63.06 0 01-8.65 1c-.93-.08-1.86-.14-2.8-.14s-1.87.06-2.79.14c-1.45-.06-2.89-.17-4.31-.33-.9-.23-1.82-.43-2.75-.58a28.18 28.18 0 00-2.87-.29c-1.4-.28-2.77-.62-4.12-1-.86-.36-1.73-.7-2.62-1a28.12 28.12 0 00-2.76-.73c-1.37-.51-2.7-1.07-4-1.67-.77-.48-1.55-.93-2.37-1.34s-1.64-.77-2.47-1.1c-1.34-.74-2.64-1.54-3.91-2.37-.67-.57-1.35-1.13-2.07-1.65s-1.46-1-2.21-1.43q-1.83-1.43-3.56-3c-.57-.67-1.16-1.32-1.8-1.95s-1.18-1.07-1.79-1.58a63.508 63.508 0 01-3.24-3.7c-.45-.74-.93-1.47-1.45-2.17s-1.13-1.42-1.73-2.09c-.85-1.25-1.65-2.54-2.41-3.85-.34-.82-.71-1.63-1.12-2.43s-.91-1.61-1.42-2.39c-.62-1.32-1.19-2.67-1.73-4-.21-.89-.45-1.78-.75-2.66s-.66-1.76-1-2.61c-.4-1.37-.76-2.76-1.07-4.17-.07-.93-.17-1.86-.33-2.79s-.38-1.81-.62-2.7c-.19-1.43-.33-2.87-.42-4.33.07-.93.12-1.87.1-2.8s-.09-1.83-.19-2.74c0-1.47.12-2.93.25-4.37a28 28 0 00.5-2.81zm65.7 76.16l-.35.28-.38-.26zm-69.77-74.08c-.17 1.7-.26 3.41-.3 5.14l-.2.47a36.91 36.91 0 00-2.44-3.19 35.68 35.68 0 002.79-2.85zm-.22 10.48c.09 1.74.27 3.46.5 5.17l-.15.49a32.05 32.05 0 00-2.93-2.77 36.9 36.9 0 002.36-3.3zm1.13 10l.27.36q.54 2.55 1.28 5l-.06.46a33.14 33.14 0 00-3.26-2.27 33.67 33.67 0 001.8-3.55zm1.06 8.34a32.89 32.89 0 01-1.41 4.74 41.76 41.76 0 00-7.29-1.78 40.46 40.46 0 004.71-5.86 31.57 31.57 0 014.02 2.9zm1.86 1.71l.35.35c.62 1.61 1.29 3.19 2 4.74v.47a33.43 33.43 0 00-3.61-1.75 35.84 35.84 0 001.29-3.81zm2.35 8.1a31.67 31.67 0 01-.66 4.9 41.5 41.5 0 00-7.24-.63h-.29a41 41 0 003.77-6.53 32.2 32.2 0 014.45 2.27zm2.1 1.41c.15.11.3.2.44.31.85 1.47 1.75 2.92 2.71 4.32 0 .16 0 .32.08.48a34.73 34.73 0 00-3.84-1.14 36.67 36.67 0 00.64-3.97zm3.59 7.64a31.92 31.92 0 01.12 5h-.83a41.34 41.34 0 00-6.76.58 41.53 41.53 0 002.74-7.1 31.55 31.55 0 014.76 1.48zm2.31 1.08l.47.23c1.06 1.31 2.16 2.57 3.31 3.8.07.18.13.37.19.55a34.45 34.45 0 00-4-.56 35.89 35.89 0 00.06-4.02zm4.71 7a32.45 32.45 0 01.88 4.89 41.71 41.71 0 00-7.35 1.7 41 41 0 001.59-7.38 32.88 32.88 0 014.91.78zm2.45.7l.49.16q1.86 1.68 3.84 3.21l.28.52h-1.37c-.87 0-1.74 0-2.61.11a36.11 36.11 0 00-.6-4.01zm5.71 6.17a31.14 31.14 0 011.62 4.71 41.59 41.59 0 00-7 2.81 40.42 40.42 0 00.43-7.54 32.43 32.43 0 014.98.03zm2.51.31l.55.09c1.41.93 2.85 1.8 4.33 2.63l.31.41a34.24 34.24 0 00-4 .7 32.88 32.88 0 00-1.16-3.84zm9.16 5.13h.52c1.57.71 3.15 1.38 4.77 2l.33.32a36.42 36.42 0 00-3.81 1.3 35.61 35.61 0 00-1.78-3.63zm7.36 4.14a31.88 31.88 0 013 4 42 42 0 00-5.82 4.87 41.14 41.14 0 00-1.9-7.34 30.62 30.62 0 014.75-1.54zm2.48-.48l.5-.07q2.48.69 5 1.19l.39.28a36.55 36.55 0 00-3.56 1.86 35.09 35.09 0 00-2.3-3.27zm10.29 2.09l.48-.15c1.69.19 3.4.33 5.12.39a30.69 30.69 0 013.18 1.74 36.44 36.44 0 00-3.7 3.75 36.37 36.37 0 00-5.05-5.74zm10.67 3.26a35.34 35.34 0 014.62 4.08 47.31 47.31 0 00-4.1 10.56 47.58 47.58 0 00-4.83-10.27 34.28 34.28 0 014.34-4.38zm1.79-1.39a28.09 28.09 0 013.05-2l.56-.07a30.55 30.55 0 013.43 1.24 37.33 37.33 0 00-3.07 4.29 36.27 36.27 0 00-3.94-3.51zm9.1.18a35.4 35.4 0 015.18 3.31 47.44 47.44 0 00-2.43 11.06 47.17 47.17 0 00-6.34-9.38 34.44 34.44 0 013.62-5zm1.54-1.65a29.7 29.7 0 012.73-2.42q2.51-.67 4.93-1.54h.49a36.18 36.18 0 00-3.7 6.77 36.4 36.4 0 00-4.42-2.82zm10.66-3.61a33 33 0 014.79 1.15 45 45 0 00-1.54 14.94 47 47 0 00-7.68-8.23 33.48 33.48 0 014.46-7.83zm1.61-1.95l.35-.39c1.57-.7 3.11-1.44 4.62-2.26h.45a32.25 32.25 0 00-1.57 3.71 35.92 35.92 0 00-3.82-1.08zm8-2.78a31.78 31.78 0 014.92.4 41.17 41.17 0 00-.23 7.57 40.93 40.93 0 00-6.73-3.41 31.3 31.3 0 012.04-4.57zm1.3-2.17c.09-.15.18-.3.28-.45a69.41 69.41 0 004.13-2.89l.52-.13a34.4 34.4 0 00-1 3.85 35.81 35.81 0 00-3.95-.39zm7.43-3.95a32.15 32.15 0 014.93-.37 41.68 41.68 0 00.93 7.46 40.85 40.85 0 00-7.16-2.32 33.46 33.46 0 011.3-4.78zm7.69-7.43a31.49 31.49 0 014.81-1.13 41.4 41.4 0 002.09 7.28 40.62 40.62 0 00-7.45-1.18 31.11 31.11 0 01.55-4.98zm.57-2.47c0-.17.09-.34.14-.51 1.07-1.3 2.08-2.66 3.05-4 .15-.1.3-.18.45-.27a33.35 33.35 0 00.26 4 35.54 35.54 0 00-3.9.77zm5.87-6a31.87 31.87 0 014.62-1.87 41.47 41.47 0 003.19 6.85c-1.35-.13-2.69-.21-4-.21s-2.4.07-3.57.18a31.79 31.79 0 01-.24-5.01zm.19-2.55v-.49q1.31-2.21 2.45-4.52l.37-.31a36.44 36.44 0 00.88 3.9 35.78 35.78 0 00-3.7 1.36zm4.87-6.87a32.33 32.33 0 014.22-2.54 41.35 41.35 0 004.19 6.25 41.7 41.7 0 00-7.41 1.14 31.89 31.89 0 01-1-4.91zm-.21-2.54v-.48c.63-1.6 1.22-3.22 1.73-4.88l.27-.32a37.37 37.37 0 001.46 3.7 35 35 0 00-3.46 1.92zm3.73-7.53a31.5 31.5 0 013.79-3.17 41.21 41.21 0 005.11 5.53 41 41 0 00-7.18 2.27 32.8 32.8 0 01-1.72-4.69zm-.6-2.48c0-.15-.06-.29-.09-.44.38-1.68.7-3.38.94-5.11l.24-.37a34.19 34.19 0 002 3.43 34.59 34.59 0 00-3.09 2.43zm2.53-8a31.94 31.94 0 013.28-3.74 41.87 41.87 0 005.93 4.68 40.52 40.52 0 00-6.79 3.37 31.13 31.13 0 01-2.42-4.4zm-1-2.35c0-.15-.12-.29-.16-.43.09-1.44.15-2.89.15-4.36v-.81c0-.27.13-.3.2-.45a36.58 36.58 0 002.53 3.08 34.15 34.15 0 00-2.69 2.88zm1.26-8.33a30.21 30.21 0 012.66-4.2 41 41 0 006.57 3.71 40.81 40.81 0 00-6.17 4.37 33 33 0 01-3.03-3.97zm-1.33-2.17c-.08-.14-.16-.27-.23-.41-.16-1.73-.38-3.44-.67-5.13l.13-.46a32.93 32.93 0 003 2.65 34 34 0 00-2.2 3.26zm0-8.43a33 33 0 012-4.55 41.9 41.9 0 007.07 2.64 41.73 41.73 0 00-5.42 5.27 31.34 31.34 0 01-3.67-3.45zm-1.65-1.93l-.27-.35c-.42-1.68-.92-3.33-1.46-5 0-.17 0-.34.05-.51a33 33 0 003.35 2.16 34 34 0 00-1.69 3.66zm-1.34-8.31a31.33 31.33 0 011.25-4.77 41.6 41.6 0 007.35 1.51 41.71 41.71 0 00-4.51 6 32.11 32.11 0 01-4.12-2.83zm-1.93-1.73l-.37-.36c-.67-1.57-1.41-3.11-2.2-4.61v-.49a35.8 35.8 0 003.67 1.63 32.59 32.59 0 00-1.1 3.83zm-2.65-8a33 33 0 01.48-4.91 41.94 41.94 0 007.58.36 41.56 41.56 0 00-3.55 6.66 31.49 31.49 0 01-4.51-2.11zm-2.16-1.35l-.42-.27q-1.33-2.14-2.84-4.19c0-.17-.08-.35-.11-.52a34.21 34.21 0 003.83 1 36 36 0 00-.46 3.96zm-3.81-7.49a31.53 31.53 0 01-.28-5 42.27 42.27 0 007.49-.82 41.22 41.22 0 00-2.48 7.14 31.79 31.79 0 01-4.73-1.34zm-2.36-7.21a32.21 32.21 0 01-4.94-.6 32.14 32.14 0 01-1-4.87 41.69 41.69 0 007.34-2 42.15 42.15 0 00-1.4 7.45zm-7.41-1.23l-.56-.18q-1.89-1.61-3.9-3.06c-.1-.16-.2-.33-.29-.5a33.36 33.36 0 004-.2 33.47 33.47 0 00.75 3.92zm-5.93-6a32.85 32.85 0 01-1.78-4.65 41 41 0 006.88-3.06 40.94 40.94 0 00-.17 7.56 32.62 32.62 0 01-4.93.16zm-2.51-.22l-.52-.07c-1.44-.88-2.93-1.7-4.44-2.48-.12-.13-.23-.28-.35-.42a32.08 32.08 0 003.94-.82 32.87 32.87 0 001.37 3.8zm-9.33-4.82h-.5c-1.58-.66-3.2-1.25-4.85-1.79l-.35-.33a35.71 35.71 0 003.76-1.42 34.42 34.42 0 001.94 3.55zm-7.51-3.87a32.5 32.5 0 01-3.1-3.84 40.91 40.91 0 005.66-5 41.91 41.91 0 002.13 7.22 31.62 31.62 0 01-4.69 1.63zm-2.49.56l-.45.08c-1.67-.4-3.37-.75-5.09-1-.12-.07-.23-.16-.36-.24a34 34 0 003.47-1.95 34.48 34.48 0 002.43 3.12zm-8-2.66a33.46 33.46 0 01-3.66-3.32 40.64 40.64 0 004.78-5.82 41 41 0 003.23 6.8 31.56 31.56 0 01-4.29 2.35zm-2.37.93l-.44.16c-1.71-.14-3.43-.23-5.17-.24-.14 0-.27-.12-.4-.18a34.11 34.11 0 003.12-2.47 33.65 33.65 0 002.91 2.74zm-8.3-1.4a31.52 31.52 0 01-4.13-2.71 41.53 41.53 0 003.82-6.48 41.15 41.15 0 004.25 6.21 31.84 31.84 0 01-3.92 2.99zm-2.2 1.29l-.41.23c-1.73.13-3.45.3-5.14.56l-.43-.11a34.19 34.19 0 002.7-2.92 34.61 34.61 0 003.3 2.25zm-8.41-.09a31.71 31.71 0 01-4.49-2 41.69 41.69 0 002.76-7 40.93 40.93 0 005.16 5.48 32.18 32.18 0 01-3.41 3.53zm-2 1.62l-.35.27q-2.55.58-5 1.36h-.44a33.27 33.27 0 002.21-3.3 32.63 32.63 0 003.62 1.68zm-10 3.1l-.32.33c-1.58.65-3.14 1.35-4.66 2.11h-.54a33.88 33.88 0 001.67-3.61 36.74 36.74 0 003.87 1.18zm-8 2.46a30.91 30.91 0 01-4.94-.57 41.29 41.29 0 00.48-7.52 40.79 40.79 0 006.61 3.66 31.81 31.81 0 01-2.17 4.44zm-1.39 2.16l-.28.4c-1.45.87-2.85 1.8-4.22 2.77l-.57.13a35.22 35.22 0 001.1-3.84 34.07 34.07 0 003.95.55zm-7.57 3.71a31.69 31.69 0 01-3.66.21h-1.3a41 41 0 00-.69-7.5 41.53 41.53 0 007.11 2.59 32.19 32.19 0 01-1.48 4.71zm-1 2.31l-.25.49a68.21 68.21 0 00-3.68 3.33l-.57.2a33.92 33.92 0 00.48-3.94 31.59 31.59 0 003.98-.07zm-6.91 4.81a32.64 32.64 0 01-4.88.95 41.65 41.65 0 00-1.84-7.29 41 41 0 007.42 1.46 31.52 31.52 0 01-.74 4.89zm-.65 2.45l-.18.57q-1.65 1.88-3.17 3.87l-.48.27a31.89 31.89 0 00-.13-4 34.1 34.1 0 003.92-.7zm-6.08 5.85a32.06 32.06 0 01-4.67 1.7 41.84 41.84 0 00-3-7 42.23 42.23 0 007.58.31 31.78 31.78 0 01.03 5zm-.26 2.51l-.09.56c-.9 1.42-1.76 2.88-2.56 4.37l-.41.32a33.91 33.91 0 00-.75-3.95 35.6 35.6 0 003.77-1.29zm-5.11 6.72a31.55 31.55 0 01-4.35 2.4 42.14 42.14 0 00-4-6.43 41.24 41.24 0 007.54-.87 32.16 32.16 0 01.77 4.91zm.13 2.53v.5c-.68 1.57-1.3 3.16-1.86 4.79l-.35.37a32.9 32.9 0 00-1.35-3.79 36.43 36.43 0 003.52-1.86zm-4 7.43a32.28 32.28 0 01-3.89 3 41 41 0 00-4.94-5.72 42.06 42.06 0 007.25-2 31.52 31.52 0 011.53 4.73zm.52 2.47c0 .15.06.3.08.45-.43 1.63-.78 3.3-1.08 5l-.29.46a33.37 33.37 0 00-1.91-3.51 33.19 33.19 0 003.15-2.39zm-2.81 7.93a31.12 31.12 0 01-3.39 3.61 41.08 41.08 0 00-5.75-4.88 41.25 41.25 0 006.87-3.12 31.54 31.54 0 012.22 4.4zm-3.57 6.68a31.92 31.92 0 012.94 4 32.16 32.16 0 01-2.83 4.13 40.86 40.86 0 00-6.49-4 42.55 42.55 0 006.33-4.12zm-55.23 24.92c13.5-7.09 28.11-10.07 41.13-8.4 1.27.16 2.5.38 3.71.63-9 5.46-20.75 8.63-33.64 8.63a80.83 80.83 0 01-11.19-.79h-.12zm-.29 2.26c18.59 2.59 36-1.26 48.07-9.34a39 39 0 018.12 3.16 39.9 39.9 0 01-5.55 6.61c-1.5-.13-3-.2-4.6-.2h-1.53c-13.57.38-28 5.74-40.59 15.09-.81.6-1.59 1.21-2.37 1.83a76.22 76.22 0 01-22-3.77 76.34 76.34 0 0117.48-13.86c.95.2 1.93.36 2.92.49zm5.24 17.12c12.24-9.09 26.21-14.3 39.34-14.66h3.75c-.94.8-1.91 1.58-3 2.33-10.63 7.71-24.87 12.1-40.12 12.36h-.12zm.06 2.28c15.69-.26 30.39-4.81 41.38-12.78a52.69 52.69 0 004.73-3.89 39.75 39.75 0 018.43 1.86 40.4 40.4 0 01-4.46 7.41 50.17 50.17 0 00-6.06.76c-13.36 2.47-26.77 10-37.78 21.19-.7.72-1.38 1.44-2 2.17a78.38 78.38 0 01-10.16.66 73.45 73.45 0 01-12.13-1 76.32 76.32 0 0115.12-16.38c.89.03 1.88.03 2.88.01zm7.82 16.1c10.69-10.87 23.69-18.18 36.6-20.57 1.25-.23 2.49-.4 3.71-.54-8.87 10.25-23.24 18.25-40.32 21.19h-.12zm.42 2.25c18.49-3.22 33.91-12.22 42.91-23.6a39.75 39.75 0 018.68.52 39.5 39.5 0 01-3.29 8.06c-14.15 3.17-29 13.17-39.88 28.43-.58.81-1.15 1.63-1.7 2.46a76.84 76.84 0 01-21.34 3.13h-.71a76.46 76.46 0 0112.35-18.53c1-.13 1.94-.29 2.93-.46zm10.22 14.69c10.09-14.09 23.55-23.56 36.55-27.08-7.13 11.43-20.09 21.56-36.51 27.15h-.11zm.76 2.16c17.76-6 31.6-17.32 38.74-30a40.5 40.5 0 018.67-.82 39.44 39.44 0 01-2 8.46c-13.49 5.32-26.57 17.48-35 34.25-.44.89-.87 1.78-1.28 2.67a76.51 76.51 0 01-21.32 6.5 76.5 76.5 0 019.37-20.2c.86-.22 1.86-.53 2.77-.82zm12.37 12.94c7.79-15.49 19.62-26.94 31.92-32.42-.48 1.13-1 2.26-1.58 3.39-6 11.67-16.79 22-30.29 29.08l-.1.05zm1.08 2c13.9-7.3 25-18 31.22-30a51.15 51.15 0 002.47-5.58 40.06 40.06 0 018.39-2.13 39.85 39.85 0 01-.67 8.66c-12.51 7.35-23.55 21.39-29.29 39.26-.31.95-.59 1.9-.86 2.85a76.32 76.32 0 01-20.07 9.74 76.35 76.35 0 016.14-21.44c.85-.43 1.73-.88 2.62-1.34zm14.22 10.87c5.3-16.51 15.22-29.65 26.53-37-.3 1.2-.64 2.39-1 3.61-4.15 12.45-13.18 24.32-25.42 33.41l-.1.07zm17.12 10.35c2.68-17.13 10.44-31.64 20.48-40.62-1.24 13.41-8.26 28.29-20.41 40.65l-.09.09v-.12zm18.51 7.58c0-17.34 5.42-32.87 14-43.31.86 13.45-3.78 29.24-13.88 43.33a.36.36 0 01-.07.1zm1.87 1.31c10.93-15.26 15.62-32.48 14.06-46.9a39.79 39.79 0 016.57-5.71 44.79 44.79 0 015 17.16 70 70 0 00-3.35 27.49 80.18 80.18 0 01-4.64 11.29 77.6 77.6 0 01-15.29 21 76.91 76.91 0 01-4.16-21.9c.59-.8 1.18-1.6 1.76-2.44zm25.87-28.19a68.23 68.23 0 01-1.54 12.68 68 68 0 011.54-12.68zm2-6.88c.29-.82.59-1.64.92-2.44a46.19 46.19 0 015.45-9.88 47.73 47.73 0 015.29 12.83 70.29 70.29 0 00.93 27.56 81.28 81.28 0 01-9.11 26.38 80.19 80.19 0 01-5-15 81.22 81.22 0 01-1.81-12.09 70.39 70.39 0 003.33-27.36zm13 7.58a68.4 68.4 0 01.44 12.64 67.64 67.64 0 01-.44-12.64zm14.89-1.68a68.62 68.62 0 012.39 12.42 68.6 68.6 0 01-2.43-12.42zm14.43-4a68.3 68.3 0 014.32 12 68.51 68.51 0 01-4.36-12zm33 20.1c-11.41-10.12-19.37-22.72-22.43-35.49-.29-1.25-.53-2.47-.72-3.68 10.63 8.27 19.37 22.22 23.22 39.13v.12zm2.22-.53c-4.17-18.3-14-33.25-25.77-41.65a40.1 40.1 0 01.08-8.71 40.22 40.22 0 018.17 2.86 50.68 50.68 0 002 5.78c5.16 12.56 15.28 24.15 28.5 32.62.84.54 1.69 1.06 2.54 1.56a76.68 76.68 0 014.25 21.88 76.79 76.79 0 01-19.14-11.42c-.23-.97-.43-1.95-.66-2.92zm14.15-11c-12.83-8.23-22.65-19.45-27.65-31.6-.48-1.18-.9-2.36-1.28-3.52 1.07.59 2.15 1.23 3.21 1.93 11 7.2 20.14 19 25.78 33.14a.36.36 0 010 .11zm2.12-.87c-5.82-14.59-15.27-26.72-26.62-34.17a53.13 53.13 0 00-5.31-3.05 40 40 0 01-1.25-8.54 40 40 0 018.52 1.55 51.86 51.86 0 002.84 5.4c7 11.61 18.84 21.49 33.21 27.81.91.4 1.83.79 2.75 1.16a76.37 76.37 0 017.6 21 76.49 76.49 0 01-20.69-8.35q-.52-1.35-1.08-2.77zm12.28-13c-14-6.15-25.39-15.71-32.21-26.94-.66-1.09-1.25-2.18-1.81-3.28 12.65 4.64 25.24 15.24 34.07 30.16l.06.1zm2-1.19c-9.56-16.14-23.44-27.37-37.26-31.75a39.53 39.53 0 01-2.6-8.33 39.4 39.4 0 018.71.23c8 12.11 22.57 22.41 40.71 27.23 1 .25 1.93.49 2.89.71a76.21 76.21 0 0110.67 19.56 76.08 76.08 0 01-21.72-5c-.49-.9-.97-1.77-1.49-2.63zm10.12-14.76c-16.76-4.45-30.38-13.67-38.28-24.59 1.2.24 2.42.52 3.65.86 12.65 3.5 25 11.9 34.67 23.66l.08.1zm-32.17-36c1.23.05 2.48.13 3.75.28 13 1.5 26.51 7.9 37.92 18l.08.08h-.12c-15.16-1.58-29-7.19-38.89-15.79-1.05-.81-1.95-1.67-2.78-2.54zm45.32 18.65q-1.07-1-2.19-2c-11.74-10.42-25.64-17-39.13-18.56a50.74 50.74 0 00-6-.35h-.16a39.94 39.94 0 01-5-7.07 39.55 39.55 0 018.31-2.43 50.82 50.82 0 005 3.54c11.51 7.21 26.48 10.73 42.16 9.93q1.5-.07 3-.21a76.44 76.44 0 0116.2 15.32 75.33 75.33 0 01-17.42 2c-1.63.02-3.24-.04-4.85-.14zm2.93-19.16c-1.43.07-2.86.11-4.28.11-13.65 0-26.51-3.39-36.59-9.7-1.08-.68-2.11-1.39-3.1-2.12 1.22-.14 2.47-.25 3.74-.3 13.12-.54 27.42 3.71 40.25 11.93l.1.07zm1.22-1.94c-12.47-8-26.31-12.33-39.23-12.33-.77 0-1.54 0-2.31.05a53.48 53.48 0 00-6.08.61 39.52 39.52 0 01-6-6.23 40.06 40.06 0 017.89-3.7c12.57 7.23 30.23 9.88 48.6 6 1-.21 1.94-.43 2.9-.66a76.3 76.3 0 0118.38 12.63 76.63 76.63 0 01-21.66 5.26c-.9-.51-1.73-1.06-2.57-1.6zm2.4-17.73c-17 3.55-33.29 1.44-45.25-4.77 1.19-.32 2.4-.62 3.65-.87 12.88-2.56 27.65-.59 41.61 5.56l.11.05zm.9-2.11a77.85 77.85 0 00-31.08-6.83 60.6 60.6 0 00-11.85 1.13 52.63 52.63 0 00-5.91 1.54 39.51 39.51 0 01-6.89-5.23 39.31 39.31 0 017.2-4.87c13.54 5.2 31.4 5.09 49-1.56.93-.36 1.86-.73 2.77-1.11A76.24 76.24 0 011598 298a76.45 76.45 0 01-20.6 8.55c-.85-.4-1.75-.81-2.67-1.22zm-.36-17.89c-16.22 6.14-32.67 6.57-45.45 2.3 1.12-.51 2.27-1 3.47-1.43 12.33-4.52 27.23-4.86 42-.95h.12zm.56-2.22a81.71 81.71 0 00-20.83-2.78 65.39 65.39 0 00-22.47 3.79 50.82 50.82 0 00-5.6 2.44 39.91 39.91 0 01-7.62-4.1 39.77 39.77 0 016.36-5.93c14.18 3 31.81.17 48.12-9.12.87-.49 1.72-1 2.56-1.52a76.22 76.22 0 0121.34 6.4 76.14 76.14 0 01-19 11.64c-1.02-.26-1.98-.53-2.94-.79zm-3.13-17.62c-11.86 6.75-24.41 10-35.69 10a52.92 52.92 0 01-8.85-.74c1-.67 2.08-1.33 3.2-1.95 11.48-6.37 26.15-9 41.32-7.42h.12zm-48.18-3.11c.91-.83 1.86-1.64 2.87-2.43 10.35-8.07 24.44-12.95 39.67-13.73h.12l-.09.08c-11.93 9.5-25.71 15.19-38.82 16-1.35.1-2.6.12-3.83.11zM1569 246c-1 0-2 0-3 .08-15.68.81-30.21 5.85-40.92 14.2a51.87 51.87 0 00-4.6 4 39.91 39.91 0 01-8.49-1.56 40.22 40.22 0 014.21-7.57 50.6 50.6 0 006-1c13.26-2.93 26.41-10.91 37-22.48.67-.73 1.33-1.48 2-2.23a76.8 76.8 0 0122.28-.43A76.55 76.55 0 011569 246zm-11.32-15.74c-10.31 11.23-23 19-35.87 21.81-1.25.28-2.48.49-3.69.66 8.46-10.48 22.55-19 39.52-22.54h.11zm-.5-2.23c-18.36 3.85-33.46 13.37-42.07 25-1.14.09-2.28.15-3.39.15a36.89 36.89 0 01-5.32-.39 40 40 0 013-8.15c14-3.65 28.49-14.14 38.89-29.76.55-.84 1.09-1.67 1.6-2.52a76.87 76.87 0 0122-3.87 75.92 75.92 0 01-11.78 19c-.99.21-1.95.37-2.93.58zm-10.71-14.34c-9.61 14.44-22.74 24.36-35.61 28.32.61-1.06 1.26-2.12 2-3.17 7.39-10.86 19.32-19.81 33.58-25.21h.11zm-.84-2.13c-14.68 5.56-27 14.81-34.62 26a50.16 50.16 0 00-3.12 5.24 40.09 40.09 0 01-8.57 1.09 39.52 39.52 0 011.71-8.51c13.3-5.79 26-18.38 33.81-35.43q.62-1.35 1.2-2.73a76.48 76.48 0 0121.07-7.22 76.44 76.44 0 01-8.68 20.54c-.93.39-1.87.71-2.8 1.06zm-12.8-12.5c-7.26 15.74-18.69 27.59-30.8 33.49 4.85-12.57 15.67-25 30.74-33.54l.1-.06-.04.15zm-1.15-2c-16.31 9.29-27.78 23-32.41 36.72a40 40 0 01-8.36 2.44 40.12 40.12 0 01.38-8.69c12.25-7.78 22.8-22.18 27.93-40.24.27-1 .52-1.92.76-2.88a76.54 76.54 0 0119.72-10.4 76.42 76.42 0 01-5.43 21.68c-.86.51-1.74.94-2.59 1.43zm-14.59-10.37c-4.74 16.68-14.2 30.16-25.25 37.87.26-1.21.56-2.42.92-3.65 3.72-12.59 12.34-24.76 24.26-34.26l.1-.07zm-36.22-16.7c.52 15.24-3.13 29.69-10.29 40.7-.7 1.07-1.42 2.08-2.17 3.06-1.32-13.41 2.78-29.35 12.38-43.78l.07-.1s.01.13.01.18zm-19.61-4c2.87 15 1.5 29.82-3.87 41.81a47.76 47.76 0 01-1.67 3.36c-.3-1.19-.58-2.41-.81-3.67-2.34-12.92-.11-27.66 6.27-41.51a.37.37 0 000-.11zm-2.09-.93c-6.57 14.25-8.85 29.46-6.44 42.83a53.15 53.15 0 001.45 5.94 39.91 39.91 0 01-5.34 6.81 39.44 39.44 0 01-4.74-7.25 49.79 49.79 0 002-5.79c3.56-13.11 2.61-28.46-2.7-43.23-.34-.94-.7-1.87-1.06-2.79a76 76 0 0110-20 76.19 76.19 0 018.2 20.74c-.54 1.03-.95 1.93-1.37 2.84zm-17.9.06c5.16 14.35 6.1 29.23 2.65 41.9-.33 1.23-.71 2.42-1.12 3.58-.49-1.13-1-2.29-1.38-3.5-4.3-12.4-4.38-27.31-.22-42v-.11a.36.36 0 01.07.23zm-2.2-.6c-4.29 15.1-4.19 30.48.26 43.31a54.32 54.32 0 002.35 5.65 40.05 40.05 0 01-4.22 7.55 39.65 39.65 0 01-5.8-6.43 53.55 53.55 0 001-6c1.49-13.5-1.83-28.52-9.36-42.29-.48-.88-1-1.74-1.48-2.6a76.39 76.39 0 016.76-21.25 75.94 75.94 0 0111.31 19.22c-.26 1.02-.55 1.98-.82 2.94zm-17.68 2.83c7.32 13.38 10.55 27.93 9.11 41a53.3 53.3 0 01-.56 3.71c-.66-1-1.3-2.11-1.9-3.24-6.18-11.58-8.56-26.3-6.72-41.44a.5.5 0 010-.12.54.54 0 01.07.19zm4.7 42.49a52.14 52.14 0 003.19 5.22 39 39 0 01-3 8.11 40.11 40.11 0 01-6.76-5.48c1.07-14.47-4.21-31.54-15.66-46.41-.6-.79-1.23-1.57-1.86-2.34a76.42 76.42 0 013.39-22 76.12 76.12 0 0114.16 17.24c-.16 1-.3 2-.42 2.95-1.9 15.65.57 30.87 6.96 42.81zm-24-37.21c10.57 13.74 15.75 29.36 15.35 42.83-.81-.93-1.6-1.89-2.37-2.91-7.89-10.49-12.53-24.66-13-39.9v-.12a.86.86 0 01.03.2zm-18.24 8.19c12.57 12 20.1 26.59 21.79 40-.94-.79-1.88-1.62-2.79-2.51-9.42-9.15-16.2-22.43-19.07-37.41a.5.5 0 010-.12zm-2.24.46c3 15.42 10 29.11 19.7 38.57a51.11 51.11 0 004.62 4 40 40 0 01-.39 8.66 40.76 40.76 0 01-8.1-3.17c-3.41-14.1-13.65-28.73-29.09-39.39q-1.24-.85-2.49-1.65a76.37 76.37 0 01-3.51-22 76.81 76.81 0 0118.75 12.07q.24 1.54.52 3.01zm-14.52 10.47c14.27 9.85 24 23.15 27.71 36.09-1-.63-2.1-1.3-3.15-2-10.72-7.58-19.47-19.65-24.62-34a.56.56 0 010-.12zm-2.14.79c5.31 14.78 14.34 27.23 25.43 35.07a49.56 49.56 0 005.19 3.21 40 40 0 011 8.59 39.36 39.36 0 01-8.5-1.86c-5.55-13.4-17.93-26.26-34.84-34.41-.89-.43-1.79-.81-2.69-1.2a76.46 76.46 0 01-6.87-21.24 76.81 76.81 0 0120.37 9c.26 1.06.58 2.01.96 2.94zm-12.73 12.6c15.62 7.52 27.27 19.15 33 31.36-1.14-.46-2.28-1-3.43-1.53-11.76-5.82-22.27-16.4-29.59-29.78v-.1zm-2 1.11c7.53 13.78 18.38 24.68 30.55 30.71a51.48 51.48 0 005.62 2.37 39.77 39.77 0 012.28 8.33c-.65 0-1.29.06-1.94.06a41.37 41.37 0 01-6.76-.59c-7.56-12.37-21.78-23.16-39.73-28.59-1-.28-1.91-.55-2.87-.81a76.42 76.42 0 01-10.03-19.73 76.59 76.59 0 0121.52 5.76l1.38 2.59zm-10.62 14.41c16.59 5 29.89 14.7 37.41 25.88-13.11-3.07-26.88-12.08-37.45-25.82l-.07-.09zm-1.8 1.41c11.45 14.88 26.58 24.35 40.83 27a40.15 40.15 0 013.57 7.93 40.15 40.15 0 01-8.66.83c-9.39-11.06-25.11-19.52-43.69-22.11-1-.14-2-.26-3-.36a76.62 76.62 0 01-13-18.08 76.33 76.33 0 0122.16 2.36c.61.94 1.2 1.74 1.81 2.53zm32.71 35.66c-13.43-1-28.43-7.77-41-19.71l-.09-.08h.12c17.19 2.5 31.84 10.06 40.99 19.89zm-44.65-20.2c.69.71 1.4 1.41 2.12 2.09 13.61 12.93 30 20 44.53 20.39a40 40 0 014.74 7.29 40 40 0 01-8.37 2.15 51.42 51.42 0 00-4.84-3.71c-10.91-7.36-25.18-11.37-40.33-11.37h-1.47c-1 0-2 .05-3 .1a76.4 76.4 0 01-15.68-15.86 76.46 76.46 0 0122.32-.98zm-3.58 19.06c15.25-.27 29.64 3.64 40.52 11 1.06.72 2.06 1.46 3 2.22-13.43 1.09-29.3-3.28-43.56-13.13l-.1-.07zm-1.28 1.89c15.44 10.67 32.75 15.06 47.15 13.26a39.77 39.77 0 015.82 6.46 40.29 40.29 0 01-8 3.42 52.4 52.4 0 00-5.36-2.91 67.9 67.9 0 00-28.77-6 83 83 0 00-14.28 1.25c-1 .17-2 .36-2.93.56a76.32 76.32 0 01-17.92-13.24 76.47 76.47 0 0121.82-4.52c.86.68 1.67 1.24 2.47 1.82zm-3 17.65c15-2.62 29.84-1 41.73 4.58 1.16.54 2.26 1.12 3.33 1.72-13.1 3.16-29.45 1.3-45.07-6.23l-.11-.05zm-1 2.07c16.91 8.14 34.68 9.8 48.63 5.79a39.78 39.78 0 016.75 5.49 40.08 40.08 0 01-7.42 4.63 60.33 60.33 0 00-23.41-4.45 79.45 79.45 0 00-25.51 4.34c-.95.32-1.88.66-2.81 1a76.54 76.54 0 01-19.76-10.32 76.45 76.45 0 0120.86-7.84c.92.57 1.8 1.02 2.67 1.46zm-6.82 18.05a77.32 77.32 0 00-18.41 11 59.28 59.28 0 01-11.45-8.27 40.6 40.6 0 01-2.18-2.17c.67-.75 1.36-1.5 2.1-2.24a60.38 60.38 0 0111.17-8.66 77.54 77.54 0 0018.81 10.44zm-31.37 4.33a61.3 61.3 0 0011.16 8.17 59.93 59.93 0 00-11.08 12.56 38.5 38.5 0 01-9-10.67 38.3 38.3 0 016.8-12.15c.72.81 1.42 1.51 2.16 2.19zm13.2 9.31a77.76 77.76 0 0020.15 7.29 77.62 77.62 0 00-16.48 13.82 60.18 60.18 0 01-12.55-6.39c-.86-.58-1.69-1.19-2.49-1.8a58.06 58.06 0 0111.41-12.81zm-10.16 16.42a61.34 61.34 0 0012.25 6.33 61.51 61.51 0 00-7.71 11.43c-.46.9-.89 1.79-1.29 2.69a38.83 38.83 0 01-10.5-9.14 38.52 38.52 0 014.84-13c.82.65 1.62 1.23 2.45 1.79zm6.5 18.78a60.41 60.41 0 018-11.64 77.83 77.83 0 0021.07 4.09 77.27 77.27 0 00-14.2 16.07 57.92 57.92 0 01-16.15-5.75c.41-.86.85-1.75 1.32-2.67zm9.82 23.71a59.64 59.64 0 016.08-12.75 77 77 0 0021.42.81 78 78 0 00-11.5 18.07 57.83 57.83 0 01-16.88-3.19c.3-.87.59-1.85.92-2.84zm17.41 8.38a77.47 77.47 0 0021.27-2.51 77 77 0 00-8.55 19.61 64.36 64.36 0 01-7 .42 55 55 0 01-10.18-.94 58.09 58.09 0 014.5-16.48zm14.45 19.12a77.36 77.36 0 0020.62-5.78 77.93 77.93 0 00-5.46 20.75 59.11 59.11 0 01-13.92 2.12h-3.07a58.1 58.1 0 011.87-16.99zm1.3 19.3a61.3 61.3 0 0013.64-2 61.26 61.26 0 00.39 13.78c.14 1 .32 2 .51 2.93-1.16.09-2.31.15-3.43.15a36.56 36.56 0 01-10.43-1.47 38.65 38.65 0 01-3.65-13.42c1.02.15 2 .16 3.01.13zm16.21 11.48a60 60 0 01-.3-14.08 78.18 78.18 0 0019.51-8.94 77.4 77.4 0 00-2.19 21.34 60.24 60.24 0 01-13.43 4.25c-1 .19-2 .33-3 .46-.21-.89-.39-1.9-.55-2.93zm4 4.74a61.69 61.69 0 0013.17-4.07 61.52 61.52 0 002.52 13.55c.29 1 .62 1.89 1 2.8a41.31 41.31 0 01-9.42 1.18 32.65 32.65 0 01-4.46-.3 38.32 38.32 0 01-5.7-12.7c.95-.03 1.93-.17 2.92-.36zm17.8 8.83a60.1 60.1 0 01-2.48-13.87 77.69 77.69 0 0017.92-11.78 77.21 77.21 0 001.18 21.4 59.48 59.48 0 01-12.65 6.3c-1 .35-2 .64-2.94.91-.37-.91-.69-1.87-1-2.86zm19-3.29a77.9 77.9 0 0015.9-14.36 77.57 77.57 0 004.47 20.95 59.29 59.29 0 01-11.52 8.19c-.91.49-1.83.94-2.74 1.36a58.1 58.1 0 01-6.04-16.04zm9.83 16.62a61.46 61.46 0 0011.33-7.93 60.22 60.22 0 008.31 14.52 38.35 38.35 0 01-13 5.1 38.59 38.59 0 01-9.31-10.36c.97-.31 1.86-.75 2.74-1.23zm13.06-9.49a79.34 79.34 0 0016.42-22.24c1.2-2.37 2.25-4.77 3.19-7.16.34 2.56.79 5.14 1.37 7.72a81.91 81.91 0 005.8 16.82 64 64 0 01-15.84 18c-.83.63-1.66 1.21-2.5 1.77a57.69 57.69 0 01-8.37-14.81zm12.28 14.9a65.55 65.55 0 0015.65-17.42 68.25 68.25 0 0010.56 15.18c-5.24 6.06-11.36 10.49-17.84 12.75a38.8 38.8 0 01-10.79-8.78c.91-.45 1.69-1.02 2.49-1.63zm17-19.65a81.8 81.8 0 007.22-16.26 73.95 73.95 0 002-7.59c.72 2.48 1.56 5 2.55 7.43a81.71 81.71 0 008.32 15.72 67 67 0 01-9.51 16.42 66.78 66.78 0 01-10.51-15.62zm21.63 1.43a68.64 68.64 0 0012.86 13.48 46.77 46.77 0 01-10 11.56 46.63 46.63 0 01-12.28-9.06 68.75 68.75 0 009.49-15.88zm1-2.41a81.39 81.39 0 004.62-17.17c.41-2.63.68-5.23.84-7.81a82.7 82.7 0 003.67 6.94 82.25 82.25 0 0010.73 14.35 66.61 66.61 0 01-6.85 17.69 66.72 66.72 0 01-12.95-13.9zm41.63 9.59a64.2 64.2 0 01-19.44-14 81.14 81.14 0 001.92-17.69c0-2.66-.14-5.27-.38-7.83 1.46 2.14 3 4.24 4.7 6.28a79.45 79.45 0 0020.95 18 57.94 57.94 0 01-4.91 16.42c-.89-.27-1.83-.66-2.78-1.08zm23.18-11a60.22 60.22 0 01-13-5.42 77.24 77.24 0 00-.29-21.43 77.94 77.94 0 0018.64 10.55 57.77 57.77 0 01-2.32 17c-.98-.11-1.98-.34-2.98-.62zm7.49-15.49a60.37 60.37 0 0016.43 3.43 38.46 38.46 0 01-4.81 13.08 34.69 34.69 0 01-7 .71 43.22 43.22 0 01-7-.61 60.2 60.2 0 002.44-16.53zm0-2.33a77.6 77.6 0 00-3.6-21.12 77.72 77.72 0 0020.07 7.59 59.81 59.81 0 01.66 14.07c-.08 1-.2 2.06-.33 3.06a58.11 58.11 0 01-16.76-3.52zm18.78-13.07a62 62 0 0013.74 1c1 0 2-.12 3-.21a38.66 38.66 0 01-2.72 13.61 38.49 38.49 0 01-13.41 2.29h-.35c.13-1 .24-1.95.32-2.95a61.68 61.68 0 00-.54-13.66zm13.65-1.16h-2.22a60.74 60.74 0 01-11.81-1.19 77.79 77.79 0 00-6.87-20.34 77.44 77.44 0 0021 4.39 59.86 59.86 0 012.83 13.8c.08 1 .12 2.06.14 3.07-.94.22-1.94.31-3.03.35zm15.76-20.26a58.59 58.59 0 01-11.42 1.09c-.87 0-1.75 0-2.63-.08a77.15 77.15 0 00-9.93-19 77.59 77.59 0 0021.39 1 58.2 58.2 0 015.58 16.25c-.93.38-1.93.62-2.95.82zm-1.33-19.27a77.39 77.39 0 00-12.71-17.25 77.7 77.7 0 0021.29-2.28 57.91 57.91 0 018 15.17 57.92 57.92 0 01-16.54 4.44zm10.83-20.14a60.37 60.37 0 0015.35-6.78 38.76 38.76 0 013.71 13.42 38.84 38.84 0 01-11.29 8.23 60.24 60.24 0 00-7.73-14.79zm-1.36-1.88a77.75 77.75 0 00-15.23-15.07 77.58 77.58 0 0020.72-5.52 58 58 0 0110.29 13.84 58 58 0 01-15.74 6.83zm7.62-21.54a61.82 61.82 0 0011.82-7.17c.79-.62 1.55-1.26 2.29-1.9a38.4 38.4 0 015.73 12.68 38.82 38.82 0 01-9.9 9.86 60.11 60.11 0 00-9.9-13.39zm10.46-8.91a59.9 59.9 0 01-12.13 7.24 77.44 77.44 0 00-17.38-12.54 77.43 77.43 0 0019.63-8.66 59.9 59.9 0 0110.34 9.57c.67.8 1.3 1.6 1.9 2.41-.72.75-1.5 1.41-2.32 2.06zm1-25.65a60 60 0 01-10.82 9 77.9 77.9 0 00-19.15-9.68 77.71 77.71 0 0018-11.6 58.09 58.09 0 0114 10c-.6.83-1.26 1.63-1.98 2.36zm-10.23-13.83a60.65 60.65 0 0010.67-13 38.3 38.3 0 019.36 10.36 38.28 38.28 0 01-6.41 12.4 60.38 60.38 0 00-13.57-9.68zm-2.08-1.07a77.78 77.78 0 00-20.37-6.62 77.5 77.5 0 0016-14.26 59.79 59.79 0 0112.8 6c.89.55 1.73 1.12 2.55 1.71a57.63 57.63 0 01-10.93 13.25zm9.62-16.79a61.93 61.93 0 00-12.5-5.92 59.92 59.92 0 008.51-14.41 38.8 38.8 0 0110.85 8.78 38.7 38.7 0 01-4.39 13.2c-.75-.48-1.57-1.04-2.42-1.61zm-14.74-6.62a77.63 77.63 0 00-21.18-3.36 77.37 77.37 0 0013.63-16.58 58.21 58.21 0 0116.36 5.21 58.07 58.07 0 01-8.76 14.81zm-8.68-22.34a74.63 74.63 0 00-10.81-.78 80.64 80.64 0 00-10.63.74 77.73 77.73 0 0010.93-18.48 58.14 58.14 0 0116.93 2.6 58.08 58.08 0 01-6.37 16zm-8.45-34.39a59.73 59.73 0 01-3.57 13.67 77.78 77.78 0 00-21.19 3.26 78 78 0 007.89-19.93 57.81 57.81 0 0117.17-.05c-.02 1.08-.11 2.1-.25 3.13zm-18.69-4.91a77.36 77.36 0 00-20.41 6.47 77.41 77.41 0 004.75-20.93 57.88 57.88 0 0116.92-2.69 58.06 58.06 0 01-1.21 17.23zm-15.47-16.7a61.66 61.66 0 00-.85-13.8c-.18-1-.39-2-.62-2.91a38.49 38.49 0 0113.89.82 38.92 38.92 0 014.12 13.34 60.51 60.51 0 00-16.54 2.55zm-3-13.4a59.65 59.65 0 01.78 14.09 77.78 77.78 0 00-19.18 9.57 77.76 77.76 0 001.45-21.4 60.08 60.08 0 0113.28-4.71c1-.22 2-.4 3-.56.23.97.45 1.97.64 3zM1535 153a61.77 61.77 0 00-13 4.52 62 62 0 00-3-13.46c-.33-.95-.69-1.87-1.06-2.77a38.72 38.72 0 0113.87-1.34 38.63 38.63 0 016.12 12.49c-1.02.14-1.99.32-2.93.56zm-18.09-8.21a59.76 59.76 0 013 13.77 77.72 77.72 0 00-17.56 12.44 77.74 77.74 0 00-1.88-21.36 58.29 58.29 0 0115.29-7.74c.39.94.76 1.88 1.1 2.87zm-23.95-9.22a59.69 59.69 0 015.06 13.2 77.73 77.73 0 00-15.34 15 77.59 77.59 0 00-5.2-20.83 60.41 60.41 0 0111.24-8.57c.9-.52 1.8-1 2.7-1.46.48.83 1 1.72 1.49 2.64zm-5.36-3.12a61.89 61.89 0 00-11 8.32 59.8 59.8 0 00-8.82-14.24 38.42 38.42 0 0112.83-5.53 38.54 38.54 0 019.65 10c-.97.45-1.84.93-2.71 1.43zm-12.73 9.95a77.37 77.37 0 00-12.8 17.18 77.91 77.91 0 00-8.33-19.78 59.7 59.7 0 019.75-10.17c.8-.65 1.61-1.26 2.42-1.84a58 58 0 018.91 14.59zM1462 127.9a61.31 61.31 0 00-9.6 9.89 62.29 62.29 0 00-8.71-10.69c-.72-.7-1.46-1.36-2.2-2a38.69 38.69 0 0111.75-7.41 39 39 0 0111.11 8.44c-.75.56-1.53 1.13-2.35 1.77zm-19.85.79a60.26 60.26 0 018.83 11 77.84 77.84 0 00-10 19 78 78 0 00-11.28-18.24 59.51 59.51 0 018-11.56c.7-.78 1.41-1.51 2.13-2.22.85.61 1.61 1.33 2.36 2.02zm-6-1.33a61.86 61.86 0 00-8 11.26 61.54 61.54 0 00-10.26-9.21c-.82-.58-1.65-1.12-2.48-1.64a38.46 38.46 0 0110.49-9.16 38.4 38.4 0 0112.26 6.6c-.66.69-1.35 1.4-2.02 2.15zm-19.49 3.86a59.8 59.8 0 0110.42 9.48 77.16 77.16 0 00-7 20.29 78 78 0 00-14-16.28 59.24 59.24 0 016.17-12.66c.56-.88 1.16-1.71 1.76-2.53.93.54 1.78 1.09 2.64 1.7zm-24.85 6.44a60.08 60.08 0 0111.76 7.76 77.63 77.63 0 00-3.72 21.13 77.75 77.75 0 00-16.32-13.93 59.88 59.88 0 014.13-13.46c.43-1 .88-1.87 1.35-2.77.92.4 1.86.81 2.79 1.27zm-23.54 10.22a60 60 0 0112.82 5.84 77.22 77.22 0 00-.41 21.47 77.17 77.17 0 00-18.29-11.19 59.62 59.62 0 012-14c.27-1 .58-2 .9-2.94.98.24 1.97.51 2.97.82zm-6 1.54a62.11 62.11 0 00-2 13.67 59.8 59.8 0 00-16.26-4 38.92 38.92 0 015.27-12.95 38.39 38.39 0 0113.91.39c-.38.97-.67 1.91-.94 2.89zm-2.11 16a77.69 77.69 0 002.92 21.24 77.36 77.36 0 00-19.78-8.22 58.11 58.11 0 01.24-17.17 58 58 0 0116.6 4.15zM1341 177.9a62.07 62.07 0 00-13.37-1.53c-1.13 0-2.24 0-3.34.12a38.65 38.65 0 013.19-13.59 38.7 38.7 0 0113.85-1.77 59.92 59.92 0 00-.33 16.77zm.3 2.31a78.07 78.07 0 006.14 20.56 77.15 77.15 0 00-20.82-5.08 58.4 58.4 0 01-2.42-17 58.11 58.11 0 0117.11 1.52zm-16.3 17.52a77.54 77.54 0 009.23 19.33 78.46 78.46 0 00-17.08-1.92c-1.44 0-2.86.05-4.27.13a58 58 0 01-5-16.42 58.16 58.16 0 0117.12-1.12zm-13.45 19.84a77.86 77.86 0 0012.11 17.66c-1.78-.11-3.56-.18-5.31-.18a75.63 75.63 0 00-16.09 1.7 59.86 59.86 0 01-6.49-12.51c-.37-1-.68-1.94-1-2.91a58 58 0 0116.74-3.76zm-17.9 7.43a61.76 61.76 0 006.28 12.29 61.91 61.91 0 00-12.93 4.79c-.89.46-1.75.94-2.6 1.43a38.72 38.72 0 01-3.23-13.53 38.63 38.63 0 0111.53-7.79c.3.94.6 1.88.95 2.81zm-5.65 19.06a59.91 59.91 0 0113.24-4.82 77.51 77.51 0 0014.76 15.58 77.54 77.54 0 00-20.86 4.83 58.17 58.17 0 01-9.81-14.1c.86-.55 1.75-1.02 2.67-1.49zm5 16.48a59.82 59.82 0 00-14.42 8.58 38.59 38.59 0 01-5.31-12.92 38.53 38.53 0 0110.22-9.5 60.22 60.22 0 009.51 13.84zm1.59 1.7a77.66 77.66 0 0016.93 13.12 77.79 77.79 0 00-19.9 8 57.82 57.82 0 01-11.86-12.36 57.83 57.83 0 0114.8-8.76zm-25.76 62.6a28.37 28.37 0 01.31-11.16 41.74 41.74 0 008.64 9.63 42.63 42.63 0 00-4.85 11.95 28.1 28.1 0 01-4.13-10.42zm5.5 15.89a42.34 42.34 0 0010 8.15 42.21 42.21 0 00-3 12.57 27.87 27.87 0 01-7-20.72zm12.39 36.71a28.55 28.55 0 01-3.12-10.77 42.46 42.46 0 0011.14 6.52 41.75 41.75 0 00-1 12.87 28.28 28.28 0 01-7.05-8.62zm14.79 23.56a28.54 28.54 0 01-4.75-10.16 42.15 42.15 0 0012.07 4.73 42.61 42.61 0 001 12.93 28.57 28.57 0 01-8.32-7.5zm18.3 21a28.16 28.16 0 01-6.23-9.26 42.14 42.14 0 0012.62 2.8 42.2 42.2 0 003 12.54 28.5 28.5 0 01-9.39-6.03zm21.32 18a28.35 28.35 0 01-7.57-8.17 41.91 41.91 0 0012.84.81 42 42 0 004.92 11.92 28.45 28.45 0 01-10.19-4.56zm15.08 7.51a41.78 41.78 0 0012.83-1.18 42 42 0 006.7 11 28 28 0 01-19.53-9.83zm43.19 18.8a28 28 0 01-18.37-6.8 42.17 42.17 0 0012.54-3.18 42.18 42.18 0 008.34 9.86c-.84.05-1.68.1-2.51.1zm22.77 5.42a27.17 27.17 0 01-4.3-.33 28.15 28.15 0 01-10.43-3.89 41.75 41.75 0 0011.87-5.07 42.55 42.55 0 009.75 8.44 29.21 29.21 0 01-6.89.83zm23.48 1.83a28.2 28.2 0 01-11-2.25 46.05 46.05 0 0016.62-12.47 49.49 49.49 0 0011.78 8.85 29.87 29.87 0 01-17.4 5.85zm39.87-4.48a27.64 27.64 0 01-6.19.69 31.39 31.39 0 01-12.11-2.54 50 50 0 009.52-11.25 46.09 46.09 0 0019 8.47 28.31 28.31 0 01-10.22 4.61zm26.6-8.28a28.16 28.16 0 01-10.52 2h-.51a42.33 42.33 0 007.64-10.4 41.9 41.9 0 0012.71 2.31 28.34 28.34 0 01-9.32 6.07zm25-12.29a28.43 28.43 0 01-10.6 3.67 42.5 42.5 0 005.94-11.47 41.88 41.88 0 0012.93.32 28.5 28.5 0 01-8.26 7.46zm22.8-16a28.48 28.48 0 01-9.84 5.24 41.93 41.93 0 004.08-12.26 42.37 42.37 0 0012.8-1.7 28.32 28.32 0 01-7.03 8.68zm20-19.34a28.34 28.34 0 01-8.9 6.65 41.91 41.91 0 002.13-12.66 42.12 42.12 0 0012.35-3.64 28.41 28.41 0 01-5.5 9.61zm16.82-22.23a28.37 28.37 0 01-7.82 8 42.5 42.5 0 00.15-12.91 41.87 41.87 0 0011.68-5.52 28.31 28.31 0 01-3.96 10.39zm13.26-24.59a28.33 28.33 0 01-6.48 9.15 42.29 42.29 0 00-1.86-12.82 42.23 42.23 0 0010.69-7.27 28.32 28.32 0 01-2.35 10.94zm9.21-26.29a28.27 28.27 0 01-5 10 42.29 42.29 0 00-3.82-12.33 42.48 42.48 0 009.46-8.86 28.33 28.33 0 01-.68 11.19zm5-27.41a28.35 28.35 0 01-3.34 10.64 42.05 42.05 0 00-5.66-11.58 41.85 41.85 0 007.92-10.15 28.25 28.25 0 011.07 11.09zm.73-27.85a28.21 28.21 0 01-1.67 11.08 42.26 42.26 0 00-7.39-10.58 41.72 41.72 0 006.28-11.31 28.31 28.31 0 012.77 10.81zm-3.58-27.63a28.46 28.46 0 01.07 11.15 41.87 41.87 0 00-9-9.32 42.35 42.35 0 004.44-12.1 28.24 28.24 0 014.48 10.27zm-7.82-26.75a28.54 28.54 0 011.78 11 42.42 42.42 0 00-10.3-7.81 42.38 42.38 0 002.53-12.68 28.35 28.35 0 015.98 9.49zm-11.87-25.21a28.19 28.19 0 013.47 10.64 42.51 42.51 0 00-11.38-6.13 42.31 42.31 0 00.53-12.93 28.25 28.25 0 017.37 8.42zM1586 182.14a28.35 28.35 0 015.08 10 42.65 42.65 0 00-12.16-4.29 42 42 0 00-1.42-12.85 28.38 28.38 0 018.5 7.14zm-19-20.38a28.43 28.43 0 016.57 9.08 42.29 42.29 0 00-12.73-2.36 42.34 42.34 0 00-3.45-12.49 28.57 28.57 0 019.61 5.77zm-21.93-17.19a28.23 28.23 0 017.86 7.92 39.12 39.12 0 00-7.44-.71 45.84 45.84 0 00-5.43.33 42.23 42.23 0 00-5.31-11.73 28.43 28.43 0 0110.36 4.19zm-15.28-6.94h-1.27a43 43 0 00-11.53 1.68 42 42 0 00-7.1-10.84 27.91 27.91 0 0119.9 9.2zm-35.18-16.31a28.54 28.54 0 019.92 5.13 42 42 0 00-12.38 3.59 42.26 42.26 0 00-8.66-9.57 28.52 28.52 0 0111.16.85zm-27.31-5.5a28.46 28.46 0 0110.59 3.53 42 42 0 00-11.71 5.5 42.25 42.25 0 00-10-8.13 28.37 28.37 0 0111.16-.9zm-27.84-1.21a28.43 28.43 0 0111 1.86 42 42 0 00-10.65 7.2 41.82 41.82 0 00-11.15-6.47 28.44 28.44 0 0110.84-2.59zm-27.69 3.11a28.72 28.72 0 0111.16.12 41.92 41.92 0 00-9.47 8.79 42 42 0 00-12-4.65 28.45 28.45 0 0110.35-4.26zm-26.87 7.36a28.24 28.24 0 0111-1.6 41.83 41.83 0 00-8 10.12 41.94 41.94 0 00-12.6-2.73 28.39 28.39 0 019.64-5.79zm-25.41 11.43a28.27 28.27 0 0110.66-3.29 42 42 0 00-6.33 11.26 44.76 44.76 0 00-9-1 38.33 38.33 0 00-3.89.23 28.31 28.31 0 018.6-7.2zm-23.34 15.23a28.28 28.28 0 0110.08-4.92 42.23 42.23 0 00-4.53 12.14c-.79 0-1.58-.07-2.36-.07a41.46 41.46 0 00-10.51 1.32 28.31 28.31 0 017.36-8.47zm-20.7 18.65a28.2 28.2 0 019.19-6.4 42.23 42.23 0 00-2.58 12.68 42.44 42.44 0 00-12.53 3.22 28.4 28.4 0 015.96-9.5zM1297.93 192a28.37 28.37 0 018.08-7.74 42.28 42.28 0 00-.58 12.93 42.16 42.16 0 00-11.9 5.15 28.31 28.31 0 014.4-10.34zm-14 24.09a28.52 28.52 0 016.75-8.87 42 42 0 001.42 12.86 42.33 42.33 0 00-10.9 6.9 28.49 28.49 0 012.72-10.87zm-10.11 26a28.45 28.45 0 015.33-9.84 42.52 42.52 0 003.38 12.44 41.91 41.91 0 00-9.73 8.5 28.38 28.38 0 011.01-11.12zm-6 27.22a28.29 28.29 0 013.73-10.57 42.48 42.48 0 005.29 11.82 42.72 42.72 0 00-8.32 9.94 28.42 28.42 0 01-.67-11.21z"/><path class="a3212c3a-7636-45fd-b1d4-d36bdd1c9282" d="M1445.65 351.16a57.14 57.14 0 10-57.13-57.16 57.2 57.2 0 0057.13 57.16zm0-112.06a54.93 54.93 0 11-54.92 54.9 55 55 0 0154.92-54.9z"/><circle class="a3212c3a-7636-45fd-b1d4-d36bdd1c9282" cx="1231.08" cy="359.62" r="5.96"/><circle class="a3212c3a-7636-45fd-b1d4-d36bdd1c9282" cx="1661.36" cy="359.62" r="5.96"/><path class="a3212c3a-7636-45fd-b1d4-d36bdd1c9282" d="M1226.87 306.46l.68 8.82 6.13 1.47.4 5.26-25.76-6.78-.47-6.17 24.42-10.64.44 5.68zm-3.46 8l-.51-6.58-9.6 3.87v.31zm-3.72-22.71c-8.17-.5-12.93-5.3-12.49-12.6.37-5.95 4.6-10.28 10.09-10.33l-.31 5.12a5.65 5.65 0 00-5.14 5.5c-.24 3.95 2.88 6.6 8.18 6.93s8.73-1.94 9-5.91a5.54 5.54 0 00-4.19-6.06l.31-5.12c5.41.77 8.88 5.42 8.51 11.48-.47 7.24-5.77 11.49-13.96 10.99zm16.37-36.03l-20.28-4-1.46 7.41-4.41-.87 3.94-20 4.41.87-1.46 7.41 20.28 4zm6.94-27.45l-8.78-3-17.9 3.2 1.83-5.41 11.78-1.86.1-.3-8.21-8.63 1.84-5.41 12.25 13.42 8.78 3zm-.61-32.27l-14.75 1.53 2.78-5.53 10.23-.74.14-.28-5.49-8.69 2.7-5.29 7.52 13.05 14.92-1.64-2.7 5.36-10 1-.14.28 5.16 8.72-2.55 5.08zm26.01-61c5-5.56 11.26-5.74 17.12-.47 6.08 5.47 6.64 11.72 1.6 17.32l-6.63 7.36-18.72-16.84zm12.27 17.29l2.54-2.83c3.12-3.46 2.74-7.32-1.21-10.88-3.79-3.4-7.76-3.34-10.82.06l-2.54 2.82zm33.56-26.05L1301.52 137l-16.29-19.19 12.71-10.79 2.91 3.43-8.69 7.38 3.8 4.48 8.21-7 2.69 3.17-8.2 7 4 4.67 8.7-7.39zm13.19-9.34l-20.8-16.55 5-3.23 15.24 13.08.27-.17-5.71-19.23 4.77-3.07 6.59 25.72zm34.73-18.9l-15.08 7.13-10.76-22.75 15.08-7.13 1.92 4.07-10.31 4.91 2.51 5.31 9.73-4.6 1.78 3.77-9.73 4.6 2.62 5.53 10.31-4.84zm24.45-8.57l-15.66 5.1-7.81-23.94 5-1.63 6.39 19.57 10.65-3.47zm27.98-19.02c1.56 8-2 13.89-9.34 15.32s-12.88-2.67-14.44-10.73 2.11-13.89 9.37-15.31 12.83 2.72 14.41 10.72zM1396.09 74c1 5.16 4.2 8 8.26 7.17s6-4.59 5-9.74-4.21-7.95-8.24-7.17-6.03 4.57-5.02 9.74zM1435 56.26c5.17-.27 8.88 3 9.15 8.25s-3.23 8.82-8.53 9.1l-5 .25.39 7.8-5.26.27-1.28-25.14zm-4.56 13.33l3.81-.19c3-.16 4.7-1.78 4.55-4.6s-2-4.31-5-4.15l-3.83.19zm39.91 12.91l-16.63-1.29 2-25.1 16.63 1.29-.35 4.49-11.43-.89-.45 5.86 10.74.84-.33 4.16-10.73-.86-.48 6.11 11.38.89zm14.52 2.36l-5.16-1.08 5.16-24.65 10.35 2.17c5.41 1.13 8.11 4.84 7.09 9.74a7.45 7.45 0 01-5.94 6.07l3.15 10.82-5.84-1.22-2.72-9.9-4.22-.88zm2.69-12.86l4.53.94c2.6.55 4.41-.54 4.91-2.91s-.81-4.15-3.37-4.68l-4.48-.94zm50.01 16c3.7-7.28 10-9.74 16.51-6.43 5.31 2.71 7.59 8.3 5.45 13.36l-4.53-2.3a5.63 5.63 0 00-3-6.89c-3.52-1.8-7.2 0-9.6 4.73s-1.7 8.78 1.84 10.58a5.54 5.54 0 007.22-1.43l4.57 2.32c-2.85 4.65-8.5 6-13.91 3.24-6.52-3.31-8.27-9.84-4.55-17.18zm35.72 35.67l-13.74-9.45 14.27-20.74 13.74 9.45-2.55 3.71-9.4-6.46-3.34 4.84 8.87 6.1-2.36 3.43-8.87-6.09-3.47 5 9.4 6.47zm11.37 9.33l-3.93-3.52 16.82-18.77 7.88 7.06c4.12 3.69 4.61 8.25 1.27 12a7.45 7.45 0 01-8.19 2.29l-2.69 10.94-4.44-4 2.59-9.94-3.22-2.88zm8.8-9.83l3.45 3.09c2 1.77 4.09 1.74 5.71-.06s1.37-4-.58-5.75l-3.41-3.05zm12.13 30.58l15.7-13.45-4.91-5.74 3.42-2.93 13.25 15.48-3.42 2.93-4.91-5.74-15.72 13.45zm13.35 16.88l20.69-14.34 3 4.32-20.69 14.39zm8.59 12.85l22-12.26 8 14.4-3.94 2.19-5.46-9.8-5.73 3.2 5 8.95-3.77 2.1-5-8.95-8.56 4.78zm11.74 22.52l23-10.1 2.11 4.82-23 10.1zm17.73 9.29c7.8-2.48 14 .29 16.18 7.26 1.81 5.69-.58 11.25-5.69 13.27l-1.55-4.89a5.66 5.66 0 002.82-7c-1.2-3.77-5.07-5.13-10.13-3.52s-7.45 4.95-6.25 8.74a5.55 5.55 0 006.09 4.15l1.56 4.89c-5.33 1.23-10.24-1.86-12.08-7.65-2.21-6.93 1.23-12.77 9.05-15.25zm5 46.29l-1.5-8.72-6.24-.89-.89-5.21 26.29 4.35 1 6.11-23.33 12.87-1-5.62zm2.7-8.29l1.12 6.5L1675 255v-.31zm-6.7 28.39l20.65-1-.36-7.54 4.5-.21 1 20.35-4.49.21-.36-7.54-20.64 1zm-1 38.03l1.34-16.62 25.1 2-1.35 16.63-4.48-.36.92-11.38-5.87-.47-.86 10.73-4.16-.33.87-10.74-6.11-.49-.91 11.38zm-332.16 164.08c4.07-7.1 10.48-9.24 16.83-5.61 5.18 3 7.18 8.68 4.79 13.63l-4.46-2.55a5.64 5.64 0 00-2.64-7.05c-3.44-2-7.2-.34-9.84 4.26s-2.14 8.69 1.31 10.67a5.56 5.56 0 007.3-1.07l4.45 2.55c-3.09 4.5-8.8 5.56-14.07 2.54-6.33-3.63-7.75-10.25-3.67-17.37zm50.16 24.09c-3 7.59-9.2 10.61-16.13 7.86s-9.41-9.2-6.4-16.79 9.28-10.56 16.16-7.84 9.37 9.19 6.37 16.77zm-17.51-6.95c-1.94 4.89-.77 9 3.08 10.51s7.49-.66 9.43-5.54.74-9-3.08-10.48-7.49.58-9.43 5.51zm24.32 22.3l5.53-24.57 6.07 1.36 3.07 18.05.31.07 10.53-15 6 1.36-5.54 24.57-4.77-1.07 3.7-16.43-.27-.07-9.63 13.62-3.43-.77-2.88-16.44-.27-.06-3.7 16.44zm38.85 4.71a3.09 3.09 0 112.77 3.33 2.91 2.91 0 01-2.77-3.33zm32.52-1.94l-8.84.06-1.9 6h-5.29l8.57-25.24 6.2-.05 8.92 25.13h-5.71zm-7.74-4l6.6-.05-3.19-9.86h-.32zm22.33-3.26c-1.16-8.1 2.59-13.73 9.82-14.76 5.91-.84 11 2.43 12.14 7.8l-5.07.73a5.65 5.65 0 00-6.41-3.94c-3.92.56-5.9 4.16-5.15 9.41s3.65 8.16 7.59 7.6a5.54 5.54 0 005.09-5.32l5.08-.73c.33 5.45-3.52 9.79-9.53 10.65-7.22 1.03-12.41-3.33-13.56-11.44zm40.88 5.17l-5.58-19.9-7.28 2-1.21-4.34 19.62-5.5 1.21 4.33-7.27 2 5.59 19.91zm29.4-10l-3.65-8.52-14.33-11.16 5.24-2.25 9.25 7.5.29-.13.93-11.86 5.24-2.25-1.78 18.08 3.65 8.51zm21.68-24.79l-13.29-6.58 5.31-3.19 9 4.84.26-.17v-10.28l5.06-3-.61 15.05 13.49 6.58-5.14 3.1-9-4.52-.27.16-.29 10.14-4.88 2.93z"/></svg>