<svg id="e6adcc15-c457-4e65-9763-1dfa68202409" data-name="Layer 1" xmlns="http://www.w3.org/2000/svg" width="1150.07" height="438.69" viewBox="0 0 1150.07 438.69">
  <defs>
    <style>
      .a4e84a6c-5127-4621-b58e-8eb2cadc5947 {
        fill: #c6d4e2;
      }

      .f48702da-a5e8-480e-98e0-f4529c500748 {
        opacity: 0.3;
      }

      .b1262ac0-2596-4c55-8fc5-a3be21612204 {
        fill: #fff;
      }

      .b87ac421-cdd3-45b9-aab9-8a34ec701305 {
        opacity: 0.7;
      }

      .bcf28f90-cf34-46fe-a25e-36b343f18fc2 {
        fill: #1372e4;
      }

      .bfbd4e7a-b2eb-4c02-af85-33507c4e457e {
        fill: #b6d9fc;
      }

      .a31ab1ae-00ad-408c-843f-8134cd2cb005 {
        fill: #4e575a;
      }

      .bf8e1073-ee8a-475b-a7a3-89c1a0010ee4 {
        opacity: 0.5;
      }
    </style>
  </defs>
  <rect class="a4e84a6c-5127-4621-b58e-8eb2cadc5947" x="-0.47" y="-7.07" width="1151.02" height="445.06"/>
  <g class="f48702da-a5e8-480e-98e0-f4529c500748">
    <path class="b1262ac0-2596-4c55-8fc5-a3be21612204" d="M161.08,72.27a25.08,25.08,0,0,1,25.08-25.08h857.37a23,23,0,0,1,23,23V439.37H161.08Z"/>
  </g>
  <g class="b87ac421-cdd3-45b9-aab9-8a34ec701305">
    <path class="b1262ac0-2596-4c55-8fc5-a3be21612204" d="M141.08,92.27a25.08,25.08,0,0,1,25.08-25.08h857.37a23,23,0,0,1,23,23V438.4H141.08Z"/>
  </g>
  <path class="b1262ac0-2596-4c55-8fc5-a3be21612204" d="M121.08,112.27a25.08,25.08,0,0,1,25.08-25.08h857.37a23,23,0,0,1,23,23v330H121.08Z"/>
  <g>
    <rect class="bcf28f90-cf34-46fe-a25e-36b343f18fc2" x="217.71" y="158.21" width="20.21" height="284.85" rx="2.04"/>
    <rect class="bfbd4e7a-b2eb-4c02-af85-33507c4e457e" x="217.71" y="264.27" width="20.21" height="178.79" rx="2.04"/>
  </g>
  <g>
    <rect class="bcf28f90-cf34-46fe-a25e-36b343f18fc2" x="294.21" y="261.58" width="20.21" height="181.48" rx="2.04"/>
    <rect class="bfbd4e7a-b2eb-4c02-af85-33507c4e457e" x="294.21" y="329.16" width="20.21" height="113.91" rx="2.04"/>
  </g>
  <g>
    <rect class="bcf28f90-cf34-46fe-a25e-36b343f18fc2" x="370.72" y="230.6" width="20.21" height="212.47" rx="2.04"/>
    <rect class="bfbd4e7a-b2eb-4c02-af85-33507c4e457e" x="370.72" y="309.71" width="20.21" height="133.36" rx="2.04"/>
  </g>
  <g>
    <rect class="bcf28f90-cf34-46fe-a25e-36b343f18fc2" x="600.23" y="230.6" width="20.21" height="212.47" rx="2.04"/>
    <rect class="bfbd4e7a-b2eb-4c02-af85-33507c4e457e" x="600.23" y="309.71" width="20.21" height="133.36" rx="2.04"/>
  </g>
  <g>
    <rect class="bcf28f90-cf34-46fe-a25e-36b343f18fc2" x="447.22" y="343.39" width="20.21" height="99.67" rx="2.04"/>
    <rect class="bfbd4e7a-b2eb-4c02-af85-33507c4e457e" x="447.22" y="380.5" width="20.21" height="62.56" rx="2.04"/>
  </g>
  <g>
    <rect class="bcf28f90-cf34-46fe-a25e-36b343f18fc2" x="523.73" y="193.9" width="20.21" height="249.16" rx="2.04"/>
    <rect class="bfbd4e7a-b2eb-4c02-af85-33507c4e457e" x="523.73" y="286.67" width="20.21" height="156.39" rx="2.04"/>
  </g>
  <rect class="bcf28f90-cf34-46fe-a25e-36b343f18fc2" x="705.97" y="136.08" width="263.11" height="28.15"/>
  <rect class="a31ab1ae-00ad-408c-843f-8134cd2cb005" x="705.97" y="324.54" width="263.11" height="14.32"/>
  <rect class="a31ab1ae-00ad-408c-843f-8134cd2cb005" x="705.97" y="351.6" width="263.11" height="14.32"/>
  <rect class="a31ab1ae-00ad-408c-843f-8134cd2cb005" x="705.97" y="379.63" width="263.11" height="14.32"/>
  <g class="bf8e1073-ee8a-475b-a7a3-89c1a0010ee4">
    <rect class="a4e84a6c-5127-4621-b58e-8eb2cadc5947" x="705.97" y="181.75" width="263.11" height="118.45"/>
  </g>
</svg>
