<svg id="e6adcc15-c457-4e65-9763-1dfa68202409" data-name="Layer 1" xmlns="http://www.w3.org/2000/svg" width="1150.07" height="438.69"><defs><style>.a4e84a6c-5127-4621-b58e-8eb2cadc5947{fill:#c6d4e2}.b1262ac0-2596-4c55-8fc5-a3be21612204{fill:#fff}.bcf28f90-cf34-46fe-a25e-36b343f18fc2{fill:#1372e4}.bfbd4e7a-b2eb-4c02-af85-33507c4e457e{fill:#b6d9fc}.a31ab1ae-00ad-408c-843f-8134cd2cb005{fill:#4e575a}</style></defs><path class="a4e84a6c-5127-4621-b58e-8eb2cadc5947" d="M-.47-7.07h1151.02v445.06H-.47z"/><path class="b1262ac0-2596-4c55-8fc5-a3be21612204" d="M161.08 72.27a25.08 25.08 0 0125.08-25.08h857.37a23 23 0 0123 23v369.18H161.08z" opacity=".3"/><path class="b1262ac0-2596-4c55-8fc5-a3be21612204" d="M141.08 92.27a25.08 25.08 0 0125.08-25.08h857.37a23 23 0 0123 23V438.4H141.08z" opacity=".7"/><path class="b1262ac0-2596-4c55-8fc5-a3be21612204" d="M121.08 112.27a25.08 25.08 0 0125.08-25.08h857.37a23 23 0 0123 23v330H121.08z"/><rect class="bcf28f90-cf34-46fe-a25e-36b343f18fc2" x="217.71" y="158.21" width="20.21" height="284.85" rx="2.04"/><rect class="bfbd4e7a-b2eb-4c02-af85-33507c4e457e" x="217.71" y="264.27" width="20.21" height="178.79" rx="2.04"/><rect class="bcf28f90-cf34-46fe-a25e-36b343f18fc2" x="294.21" y="261.58" width="20.21" height="181.48" rx="2.04"/><rect class="bfbd4e7a-b2eb-4c02-af85-33507c4e457e" x="294.21" y="329.16" width="20.21" height="113.91" rx="2.04"/><rect class="bcf28f90-cf34-46fe-a25e-36b343f18fc2" x="370.72" y="230.6" width="20.21" height="212.47" rx="2.04"/><rect class="bfbd4e7a-b2eb-4c02-af85-33507c4e457e" x="370.72" y="309.71" width="20.21" height="133.36" rx="2.04"/><rect class="bcf28f90-cf34-46fe-a25e-36b343f18fc2" x="600.23" y="230.6" width="20.21" height="212.47" rx="2.04"/><rect class="bfbd4e7a-b2eb-4c02-af85-33507c4e457e" x="600.23" y="309.71" width="20.21" height="133.36" rx="2.04"/><rect class="bcf28f90-cf34-46fe-a25e-36b343f18fc2" x="447.22" y="343.39" width="20.21" height="99.67" rx="2.04"/><rect class="bfbd4e7a-b2eb-4c02-af85-33507c4e457e" x="447.22" y="380.5" width="20.21" height="62.56" rx="2.04"/><rect class="bcf28f90-cf34-46fe-a25e-36b343f18fc2" x="523.73" y="193.9" width="20.21" height="249.16" rx="2.04"/><rect class="bfbd4e7a-b2eb-4c02-af85-33507c4e457e" x="523.73" y="286.67" width="20.21" height="156.39" rx="2.04"/><path class="bcf28f90-cf34-46fe-a25e-36b343f18fc2" d="M705.97 136.08h263.11v28.15H705.97z"/><path class="a31ab1ae-00ad-408c-843f-8134cd2cb005" d="M705.97 324.54h263.11v14.32H705.97zM705.97 351.6h263.11v14.32H705.97zM705.97 379.63h263.11v14.32H705.97z"/><g opacity=".5"><path class="a4e84a6c-5127-4621-b58e-8eb2cadc5947" d="M705.97 181.75h263.11V300.2H705.97z"/></g></svg>