<svg id="b5a1faa4-74b4-40a9-a90f-455a96f11f6b" data-name="Layer 1" xmlns="http://www.w3.org/2000/svg" xmlns:xlink="http://www.w3.org/1999/xlink" width="1150.07" height="438.69" viewBox="0 0 1150.07 438.69">
  <defs>
    <style>
      .e91375f2-3b99-4d9e-a584-e8c044363438 {
        opacity: 0.3;
        filter: url(#e3b7041a-64ee-4521-ac8f-69a43308e75f);
      }

      .a4e898ed-8be6-461a-9938-f3123d1ec04a {
        fill: #fff;
      }

      .ed7ca0a8-fe55-44fa-9414-f029c380f9b6 {
        fill: #2f363b;
      }

      .adea7c0f-0726-46eb-8491-b52a2e5d82ef, .ecdb939b-c2c6-4ed3-bbfe-b42a1010cbc5 {
        fill: #4e575a;
      }

      .f566db89-f4c6-48f6-8288-c620051cad6f {
        fill: #1372e4;
      }

      .b461aa11-dc04-4645-97d8-17584ab03556 {
        fill: #b6d9fc;
      }

      .b0d8bab7-6f97-4897-94f0-9fad405ef254 {
        fill: #c6d4e2;
      }

      .ecdb939b-c2c6-4ed3-bbfe-b42a1010cbc5, .f23ade5a-c8e0-4b1d-af02-a70bb102cb40 {
        opacity: 0.5;
      }
    </style>
    <filter id="e3b7041a-64ee-4521-ac8f-69a43308e75f" x="-15%" y="-15%" width="140%" height="130%" name="AI_Shadow_2">
      <feGaussianBlur result="blur" stdDeviation="16" in="SourceAlpha"/>
      <feOffset result="offsetBlurredAlpha" in="blur"/>
      <feMerge>
        <feMergeNode in="offsetBlurredAlpha"/>
        <feMergeNode in="SourceGraphic"/>
      </feMerge>
    </filter>
  </defs>
  <g class="e91375f2-3b99-4d9e-a584-e8c044363438">
    <path class="a4e898ed-8be6-461a-9938-f3123d1ec04a" d="M361.8,173.7A24.75,24.75,0,0,1,386.55,149H1011.7a22.72,22.72,0,0,1,22.72,22.72V497.28H361.8Z"/>
  </g>
  <path class="ed7ca0a8-fe55-44fa-9414-f029c380f9b6" d="M584.43,171.22a25.07,25.07,0,0,1,25.08-25.07h403.9a23,23,0,0,1,23,23v330h-452Z"/>
  <g>
    <rect class="adea7c0f-0726-46eb-8491-b52a2e5d82ef" x="618" y="182.64" width="300.1" height="28.15"/>
    <rect class="f566db89-f4c6-48f6-8288-c620051cad6f" x="936.46" y="182.64" width="63.79" height="28.15"/>
  </g>
  <g>
    <rect class="adea7c0f-0726-46eb-8491-b52a2e5d82ef" x="618" y="244.25" width="300.1" height="28.15"/>
    <rect class="f566db89-f4c6-48f6-8288-c620051cad6f" x="936.46" y="244.25" width="63.79" height="28.15"/>
  </g>
  <g>
    <rect class="adea7c0f-0726-46eb-8491-b52a2e5d82ef" x="618" y="305.86" width="300.1" height="28.15"/>
    <rect class="f566db89-f4c6-48f6-8288-c620051cad6f" x="936.46" y="305.86" width="63.79" height="28.15"/>
  </g>
  <g>
    <rect class="adea7c0f-0726-46eb-8491-b52a2e5d82ef" x="618" y="367.47" width="300.1" height="28.15"/>
    <rect class="f566db89-f4c6-48f6-8288-c620051cad6f" x="936.46" y="367.47" width="63.79" height="28.15"/>
  </g>
  <g class="e91375f2-3b99-4d9e-a584-e8c044363438">
    <path class="a4e898ed-8be6-461a-9938-f3123d1ec04a" d="M115.36,114.26A24.75,24.75,0,0,1,140.1,89.51H765.26A22.72,22.72,0,0,1,788,112.23V437.85H115.36Z"/>
  </g>
  <path class="a4e898ed-8be6-461a-9938-f3123d1ec04a" d="M110.87,112.27A25.08,25.08,0,0,1,136,87.19H769.44a23,23,0,0,1,23,23v330H110.87Z"/>
  <g>
    <rect class="f566db89-f4c6-48f6-8288-c620051cad6f" x="190.99" y="163.21" width="12.56" height="284.85" rx="2.04"/>
    <rect class="b461aa11-dc04-4645-97d8-17584ab03556" x="190.99" y="269.27" width="12.56" height="178.79" rx="2.04"/>
  </g>
  <g>
    <rect class="f566db89-f4c6-48f6-8288-c620051cad6f" x="253.16" y="266.58" width="12.56" height="181.48" rx="2.04"/>
    <rect class="b461aa11-dc04-4645-97d8-17584ab03556" x="253.16" y="334.16" width="12.56" height="113.91" rx="2.04"/>
  </g>
  <g>
    <rect class="f566db89-f4c6-48f6-8288-c620051cad6f" x="315.34" y="235.6" width="12.56" height="212.47" rx="2.04"/>
    <rect class="b461aa11-dc04-4645-97d8-17584ab03556" x="315.34" y="314.71" width="12.56" height="133.36" rx="2.04"/>
  </g>
  <g>
    <rect class="f566db89-f4c6-48f6-8288-c620051cad6f" x="377.51" y="348.39" width="12.56" height="99.67" rx="2.04"/>
    <rect class="b461aa11-dc04-4645-97d8-17584ab03556" x="377.51" y="385.5" width="12.56" height="62.56" rx="2.04"/>
  </g>
  <g>
    <rect class="f566db89-f4c6-48f6-8288-c620051cad6f" x="439.69" y="198.9" width="12.56" height="249.16" rx="2.04"/>
    <rect class="b461aa11-dc04-4645-97d8-17584ab03556" x="439.69" y="291.67" width="12.56" height="156.39" rx="2.04"/>
  </g>
  <g>
    <rect class="b0d8bab7-6f97-4897-94f0-9fad405ef254" x="169.32" y="264.68" width="12.56" height="183.38" rx="2.04"/>
    <rect class="ecdb939b-c2c6-4ed3-bbfe-b42a1010cbc5" x="169.32" y="332.96" width="12.56" height="115.1" rx="2.04"/>
  </g>
  <g>
    <rect class="b0d8bab7-6f97-4897-94f0-9fad405ef254" x="231.5" y="225.54" width="12.56" height="222.52" rx="2.04"/>
    <rect class="ecdb939b-c2c6-4ed3-bbfe-b42a1010cbc5" x="231.5" y="308.4" width="12.56" height="139.67" rx="2.04"/>
  </g>
  <g>
    <rect class="b0d8bab7-6f97-4897-94f0-9fad405ef254" x="293.67" y="338.61" width="12.56" height="109.45" rx="2.04"/>
    <rect class="ecdb939b-c2c6-4ed3-bbfe-b42a1010cbc5" x="293.67" y="379.37" width="12.56" height="68.7" rx="2.04"/>
  </g>
  <g>
    <rect class="b0d8bab7-6f97-4897-94f0-9fad405ef254" x="355.85" y="383.9" width="12.56" height="64.17" rx="2.04"/>
    <rect class="ecdb939b-c2c6-4ed3-bbfe-b42a1010cbc5" x="355.85" y="407.79" width="12.56" height="40.28" rx="2.04"/>
  </g>
  <g>
    <rect class="b0d8bab7-6f97-4897-94f0-9fad405ef254" x="418.02" y="287.66" width="12.56" height="160.41" rx="2.04"/>
    <rect class="ecdb939b-c2c6-4ed3-bbfe-b42a1010cbc5" x="418.02" y="347.38" width="12.56" height="100.68" rx="2.04"/>
  </g>
  <rect class="f566db89-f4c6-48f6-8288-c620051cad6f" x="499.62" y="141.88" width="234.61" height="28.15"/>
  <g class="f23ade5a-c8e0-4b1d-af02-a70bb102cb40">
    <rect class="adea7c0f-0726-46eb-8491-b52a2e5d82ef" x="499.62" y="366.16" width="234.61" height="10.81"/>
  </g>
  <g class="f23ade5a-c8e0-4b1d-af02-a70bb102cb40">
    <rect class="adea7c0f-0726-46eb-8491-b52a2e5d82ef" x="499.62" y="386.6" width="234.61" height="10.81"/>
  </g>
  <g class="f23ade5a-c8e0-4b1d-af02-a70bb102cb40">
    <rect class="adea7c0f-0726-46eb-8491-b52a2e5d82ef" x="499.62" y="189.3" width="234.61" height="10.81"/>
  </g>
  <g class="f23ade5a-c8e0-4b1d-af02-a70bb102cb40">
    <rect class="adea7c0f-0726-46eb-8491-b52a2e5d82ef" x="499.62" y="209.74" width="234.61" height="10.81"/>
  </g>
  <g class="f23ade5a-c8e0-4b1d-af02-a70bb102cb40">
    <rect class="adea7c0f-0726-46eb-8491-b52a2e5d82ef" x="499.62" y="407.77" width="234.61" height="10.81"/>
  </g>
  <g class="f23ade5a-c8e0-4b1d-af02-a70bb102cb40">
    <rect class="b0d8bab7-6f97-4897-94f0-9fad405ef254" x="499.62" y="233.21" width="234.61" height="118.45"/>
  </g>
</svg>
