<svg xmlns="http://www.w3.org/2000/svg" width="1150.07" height="438.69"><defs><style>.e36b6c37-35b0-4004-bfdc-22001af3b76c{fill:#d1dde8}.ed6fa94e-5e81-4354-a4d9-fa5cca016584{fill:#ffc224}.a689fdf1-6a9d-4969-9672-44656e5bf3da{fill:#ffa727}.ba274b68-2f26-4dcb-b8cd-6e64cc74d115{fill:#606a6d}</style></defs><g id="ac5f2f23-1b66-48d9-9851-a0d249cba33a" data-name="Layer 1"><path class="e36b6c37-35b0-4004-bfdc-22001af3b76c" d="M-.47-7.07h1151.02v445.06H-.47z"/><path d="M121.08 112.27a25.08 25.08 0 0125.08-25.08h857.37a23 23 0 0123 23v330H121.08z" fill="#fff"/><path d="M121.08 110.21c0-12.71 11.1-23 24.78-23H486v353H121.08z" fill="#3d464c"/><path d="M242.76 290.68h190.33v21.38H242.76zm0 83.91h190.33v21.38H242.76z" fill="#475156"/><rect class="e36b6c37-35b0-4004-bfdc-22001af3b76c" x="527.15" y="123.68" width="311.11" height="46.26" rx="23.13"/><rect class="ed6fa94e-5e81-4354-a4d9-fa5cca016584" x="683.7" y="298.74" width="311.11" height="46.26" rx="23.13"/><rect class="ed6fa94e-5e81-4354-a4d9-fa5cca016584" x="881.76" y="351.68" width="113.05" height="46.26" rx="23.13"/><rect class="e36b6c37-35b0-4004-bfdc-22001af3b76c" x="527.15" y="179.93" width="208.9" height="46.26" rx="23.13"/><circle class="a689fdf1-6a9d-4969-9672-44656e5bf3da" cx="969.05" cy="374.85" r="10.14"/><circle class="a689fdf1-6a9d-4969-9672-44656e5bf3da" cx="939.2" cy="374.85" r="10.14"/><circle class="a689fdf1-6a9d-4969-9672-44656e5bf3da" cx="909.36" cy="374.85" r="10.14"/><path class="e36b6c37-35b0-4004-bfdc-22001af3b76c" d="M529.39 205.91s-5.49 19.71-16.47 19.71c16.19 3.52 24.36-3.1 26.33-5.21s-9.86-14.5-9.86-14.5z"/><path class="ed6fa94e-5e81-4354-a4d9-fa5cca016584" d="M986.73 324.45s5.49 19.71 16.47 19.71c-16.19 3.52-24.36-3.1-26.33-5.21s9.86-14.5 9.86-14.5z"/><circle class="ba274b68-2f26-4dcb-b8cd-6e64cc74d115" cx="187.01" cy="301.37" r="29.56"/><circle class="ba274b68-2f26-4dcb-b8cd-6e64cc74d115" cx="187.01" cy="385.84" r="29.56"/><path class="ed6fa94e-5e81-4354-a4d9-fa5cca016584" d="M157.75 156.44c0-11.85 6.39-19.15 16.72-19.15 8.28 0 14.67 5.41 15.43 13h-6.41a8.84 8.84 0 00-9-7.2c-6.19 0-10.05 5.1-10.05 13.31s3.86 13.34 10.08 13.34c4.62 0 8.13-2.58 9-6.67h6.42c-.86 7.45-7 12.47-15.43 12.47-10.34.01-16.76-7.31-16.76-19.1zm38.99-20.11h6.16v15.16h.46c1.31-3.11 4.57-5 8.68-5 6.19 0 9.78 3.74 9.78 10.31v17.82h-6.24v-16.31c0-4.2-2-6.34-5.86-6.34-4.12 0-6.72 2.67-6.72 6.64v16h-6.26zm30.96 30.49c0-5 3.76-7.88 10.48-8.29l7.12-.43v-2.32c0-2.7-1.82-4.22-5.2-4.22-2.88 0-4.85 1-5.43 2.88h-5.91c.5-4.87 5.07-8 11.64-8 7.1 0 11.08 3.46 11.08 9.32v18.86h-6v-3.78H245c-1.54 2.67-4.57 4.24-8.18 4.24-5.31.02-9.12-3.21-9.12-8.26zm17.6-2.3v-2.2l-6.24.4c-3.51.23-5.15 1.49-5.15 3.74s2 3.71 4.77 3.71c3.79 0 6.62-2.45 6.62-5.65zm21.94-24.09v6.76h6.06v5h-6.06v13.56c0 2.73 1.16 3.94 3.79 3.94a18.21 18.21 0 002.07-.12v4.9a17.59 17.59 0 01-3.23.3c-6.34 0-8.87-2.15-8.87-7.5v-15.08h-4.49v-5H261v-6.76zm47.04 24.9h-13.41l-3.13 9.31h-6.59l12.93-36.44h7.32l13 36.44h-7zm-11.89-5.16h10.38l-4.95-15h-.43zm54.01.66c0 8.81-4.34 14.27-11.31 14.27-4 0-7-1.72-8.44-4.65h-.43v13H330V147h6v4.57h.43a9.36 9.36 0 018.58-5c6.99-.01 11.39 5.43 11.39 14.26zm-6.44 0c0-5.58-2.6-8.94-6.89-8.94s-6.95 3.44-7 8.94 2.67 8.94 6.94 8.94 6.99-3.36 6.99-8.94zm39.17 0c0 8.81-4.35 14.27-11.32 14.27-4 0-7-1.72-8.43-4.65H369v13h-6.26V147h6v4.57h.43a9.37 9.37 0 018.59-5c6.97-.01 11.37 5.43 11.37 14.26zm-6.44 0c0-5.58-2.6-8.94-6.9-8.94s-6.94 3.44-7 8.94 2.68 8.94 6.95 8.94 6.95-3.36 6.95-8.94z"/></g></svg>