<svg xmlns="http://www.w3.org/2000/svg" width="1150.07" height="438.69"><defs><style>.af4275e2-856a-43de-8162-6457f2ae8ef2{fill:#d1dde8}.bf5e9e6a-c3dd-431c-974b-2efc119df2e9{fill:#0086e8}</style></defs><g id="b6b9985c-947a-49cd-8b87-f4f0695f3424" data-name="Layer 1"><path class="af4275e2-856a-43de-8162-6457f2ae8ef2" d="M-.47-7.07h1151.02v445.06H-.47z"/><path d="M121.08 111.4a24.21 24.21 0 0124.21-24.21h858.24a23 23 0 0123 23v330H121.08z" fill="#fff"/><path d="M121.08 109.93c0-12.71 11.1-23 24.78-23H486v353H121.08z" fill="#053151"/><path class="af4275e2-856a-43de-8162-6457f2ae8ef2" d="M555.87 193.24h423.45v19.75H555.87zm0 100.8h423.45v19.75H555.87zm0 101.36h423.45v19.75H555.87z"/><path d="M521.24 154.39h162.45v19.75H521.24zm0 100.8h162.45v19.75H521.24zm0 101.36h162.45v19.75H521.24z" fill="#8293a0"/><path class="bf5e9e6a-c3dd-431c-974b-2efc119df2e9" d="M189 178.41l-2.78-3.87a19.91 19.91 0 01-6.42 1c-10.65 0-17.27-7.27-17.27-19.11s6.69-19.15 17.27-19.15 17.2 7.35 17.2 19.15c0 6.79-2.17 12.17-6 15.25l4.55 6.72zm-6.12-9.07l-4.36-6.21h6.26l2.3 2.88c2.09-1.95 3.25-5.33 3.25-9.57 0-8.19-4.11-13.36-10.53-13.36s-10.6 5.15-10.6 13.36 4.11 13.33 10.6 13.33a11.23 11.23 0 003.08-.43zm45.53 5.3h-6v-4.39H222c-1.34 3.16-4.47 4.95-8.56 4.95-6.09 0-9.85-3.76-9.85-10.3V147h6.26v16.39c0 4.24 2 6.28 5.76 6.28 4 0 6.59-2.5 6.59-6.59V147h6.26zm6.99-35.58c0-2 1.59-3.46 3.87-3.46s3.86 1.47 3.86 3.46-1.56 3.46-3.86 3.46-3.87-1.46-3.87-3.46zm.76 8h6.24v27.62h-6.24zm31.89 9.25c-.58-2.68-2.65-4.6-6.08-4.6-4.29 0-6.85 3.31-6.85 9S257.7 170 262 170c3.26 0 5.43-1.54 6.08-4.42h6c-.68 5.78-5 9.67-12 9.67-8.3 0-13.2-5.35-13.2-14.45s4.87-14.29 13.18-14.29c7.09 0 11.39 4 12 9.85zm29.09-9.31h7.28l-11 11.84 11.76 15.78h-7.58l-8.87-11.84-2.22 2.22v9.62h-6.26v-38.29h6.26v21.95h.43zm22.2-.54c6.56 0 10.68 2.91 11.13 7.93h-5.88c-.45-1.94-2.3-3.18-5.23-3.18s-5 1.36-5 3.36c0 1.56 1.32 2.52 4.09 3.15l4.88 1.12c5.28 1.18 7.73 3.46 7.73 7.52 0 5.3-4.88 8.84-11.77 8.84s-11.24-3-11.72-8h6.19c.6 2.05 2.55 3.26 5.68 3.26s5.35-1.39 5.35-3.43c0-1.57-1.18-2.55-3.81-3.13l-4.9-1.14c-5.3-1.21-7.8-3.66-7.8-7.83 0-5.01 4.54-8.47 11.06-8.47zm26.11-6.03v6.76h6.06v5h-6.06v13.56c0 2.73 1.16 3.94 3.78 3.94a18.39 18.39 0 002.08-.12v4.9a17.71 17.71 0 01-3.24.3c-6.34 0-8.86-2.15-8.86-7.5v-15.08h-4.5v-5h4.5v-6.76zm10.63 26.39c0-5 3.76-7.88 10.48-8.29l7.12-.43v-2.32c0-2.7-1.82-4.22-5.21-4.22-2.87 0-4.84 1-5.42 2.88h-5.91c.5-4.87 5.07-8 11.64-8 7.09 0 11.08 3.46 11.08 9.32v18.86h-6v-3.78h-.43c-1.54 2.67-4.57 4.24-8.18 4.24-5.36.02-9.17-3.21-9.17-8.26zm17.6-2.3v-2.2l-6.24.4c-3.51.23-5.15 1.49-5.15 3.74s2 3.71 4.77 3.71c3.79 0 6.62-2.45 6.62-5.65zM387.39 147h6v4.29h.43c.76-2.73 3.71-4.75 7.25-4.75a10.77 10.77 0 012.58.28v5.81a14.41 14.41 0 00-3.19-.36c-4 0-6.84 2.53-6.84 6.39v16h-6.26zm30.7-6.57v6.76h6.06v5h-6.06v13.56c0 2.73 1.16 3.94 3.79 3.94a18.21 18.21 0 002.07-.12v4.9a17.5 17.5 0 01-3.23.3c-6.34 0-8.87-2.15-8.87-7.5v-15.08h-4.49v-5h4.49v-6.76z"/><path class="bf5e9e6a-c3dd-431c-974b-2efc119df2e9" d="M177.33 240.54l-9.39-26.88h5.31l6.75 21.27h.32l6.68-21.27h5.12l-9.3 26.88zm15.67-5.77c0-3.69 2.77-5.82 7.73-6.12l5.25-.31v-1.72c0-2-1.34-3.11-3.83-3.11-2.13 0-3.58.75-4 2.13h-4.36c.37-3.6 3.74-5.89 8.59-5.89 5.23 0 8.18 2.55 8.18 6.87v13.92h-4.46v-2.79h-.31a6.74 6.74 0 01-6 3.13c-3.97 0-6.79-2.39-6.79-6.11zm13-1.7v-1.62l-4.6.3c-2.59.17-3.8 1.1-3.8 2.75s1.47 2.74 3.52 2.74c2.79 0 4.88-1.8 4.88-4.17zm10.29-20.79h4.62v28.26h-4.62zm9.94 2.01a2.87 2.87 0 112.85 2.55 2.62 2.62 0 01-2.85-2.55zm.56 5.87h4.6v20.38h-4.6zm9.31 10.17c0-6.44 3.24-10.51 8.39-10.51a6.62 6.62 0 016.18 3.58h.33v-11.12h4.62v28.26h-4.47v-3.22h-.32a6.87 6.87 0 01-6.33 3.56c-5.18 0-8.4-4.06-8.4-10.55zm4.73 0c0 4.12 1.92 6.6 5.09 6.6s5.12-2.5 5.12-6.6-1.95-6.6-5.12-6.6-5.09 2.52-5.09 6.62zm19.46 4.44c0-3.69 2.78-5.82 7.74-6.12l5.25-.31v-1.72c0-2-1.34-3.11-3.84-3.11-2.12 0-3.58.75-4 2.13h-4.36c.37-3.6 3.74-5.89 8.58-5.89 5.24 0 8.18 2.55 8.18 6.87v13.92h-4.45v-2.79h-.32a6.72 6.72 0 01-6 3.13c-3.96 0-6.78-2.39-6.78-6.11zm13-1.7v-1.62l-4.6.3c-2.59.17-3.8 1.1-3.8 2.75s1.47 2.74 3.52 2.74c2.78 0 4.87-1.8 4.87-4.17zm16.17-17.77v5h4.47v3.7h-4.47v10c0 2 .86 2.91 2.8 2.91a13.67 13.67 0 001.52-.09v3.61a12.53 12.53 0 01-2.38.22c-4.68 0-6.54-1.58-6.54-5.53V224h-3.32v-3.69h3.32v-5zm26.45 19.63c-.88 3.71-4.25 6-9.05 6-6 0-9.62-4-9.62-10.53s3.67-10.67 9.58-10.67 9.3 3.86 9.3 10.28v1.49h-14.24v.25c.11 3.39 2.07 5.51 5.11 5.51 2.29 0 3.87-.84 4.54-2.35zm-14-6.55h9.59c-.09-3-1.91-5-4.69-5s-4.71 2.01-4.91 5zm-121.13 39.76c5.36 0 9 3.67 9 9.1s-3.8 9-9.24 9h-5.83V295h-4.81v-26.86zm-6 14.09h4.75c3.43 0 5.44-1.79 5.44-5s-2-5.07-5.42-5.07h-4.77zm17.95 7.02c0-3.69 2.77-5.81 7.73-6.11l5.25-.31v-1.72c0-2-1.34-3.11-3.83-3.11-2.13 0-3.58.74-4 2.12h-4.36c.37-3.59 3.74-5.88 8.59-5.88 5.23 0 8.18 2.55 8.18 6.87V295h-4.45v-2.8h-.32a6.71 6.71 0 01-6 3.13c-3.98.03-6.79-2.33-6.79-6.08zm13-1.69v-1.62l-4.6.29c-2.59.17-3.8 1.1-3.8 2.76s1.47 2.74 3.52 2.74c2.78 0 4.86-1.81 4.86-4.17zM229 281.5a4.24 4.24 0 00-4.49-3.39c-3.17 0-5 2.44-5 6.67s1.9 6.78 5 6.78c2.4 0 4-1.13 4.49-3.26h4.4c-.51 4.27-3.71 7.14-8.87 7.14-6.13 0-9.75-3.95-9.75-10.66s3.6-10.54 9.73-10.54c5.24 0 8.4 3 8.89 7.26zm21.48-6.85h5.37l-8.12 8.73 8.68 11.62h-5.59l-6.54-8.74-1.64 1.64v7.1H238v-28.23h4.62V283h.38zm7.67 14.6c0-3.69 2.78-5.81 7.73-6.11l5.26-.31v-1.72c0-2-1.34-3.11-3.84-3.11-2.12 0-3.58.74-4 2.12h-4.36c.38-3.59 3.75-5.88 8.59-5.88 5.24 0 8.18 2.55 8.18 6.87V295h-4.45v-2.8h-.32a6.7 6.7 0 01-6 3.13c-3.94.03-6.79-2.33-6.79-6.08zm13-1.69v-1.62l-4.6.29c-2.59.17-3.81 1.1-3.81 2.76s1.48 2.74 3.53 2.74c2.78 0 4.87-1.81 4.87-4.17zM281 297h4.63c.3 1.39 1.94 2.29 4.48 2.29 3.16 0 5-1.49 5-4.05v-3.85h-.32a6.66 6.66 0 01-6.22 3.37c-5.14 0-8.35-4-8.35-10.12s3.22-10.3 8.42-10.3a6.92 6.92 0 016.32 3.6h.32v-3.26h4.45v20.42c0 4.72-3.77 7.68-9.71 7.68-5.25 0-8.68-2.31-9.02-5.78zm9-18.73c-3.22 0-5.05 2.48-5.05 6.37S286.78 291 290 291s5.16-2.46 5.16-6.36-1.95-6.4-5.16-6.4zm33 11.15c-.87 3.71-4.24 6-9 6-6 0-9.61-4-9.61-10.53s3.67-10.67 9.57-10.67 9.3 3.85 9.3 10.28v1.5H309v.24c.12 3.39 2.07 5.52 5.11 5.52 2.29 0 3.88-.84 4.55-2.35zm-14-6.56h9.6c-.09-3-1.92-4.95-4.7-4.95s-4.68 1.97-4.9 4.95zm-129 39.77c8 0 12.65 4.88 12.65 13.32 0 8.63-4.6 13.57-12.65 13.57h-10.07v-26.89zm-5.27 22.73h4.64c5.35 0 8.38-3.33 8.38-9.33s-3.11-9.24-8.38-9.24h-4.64zm40.58-1.45c-.88 3.7-4.25 6-9.06 6-6 0-9.61-4-9.61-10.52s3.67-10.68 9.58-10.68 9.29 3.86 9.29 10.29v1.49h-14.23v.24c.11 3.39 2.07 5.51 5.1 5.51 2.29 0 3.88-.83 4.55-2.34zm-14-6.56h9.59c-.09-3-1.92-5-4.69-5s-4.71 2.02-4.91 5zm38.34 1.97c0 6.51-3.21 10.53-8.35 10.53-2.92 0-5.18-1.27-6.22-3.43h-.32V356h-4.62v-26.87h4.45v3.37h.32a6.91 6.91 0 016.34-3.7c5.16 0 8.4 3.98 8.4 10.52zm-4.75 0c0-4.11-1.92-6.59-5.09-6.59s-5.12 2.53-5.14 6.59 2 6.6 5.12 6.6 5.11-2.48 5.11-6.6zm9.56-18.07h4.62v28.27h-4.62zm9.45 18.07c0-6.57 3.74-10.6 9.8-10.6s9.8 4 9.8 10.6-3.71 10.6-9.8 10.6-9.8-3.98-9.8-10.6zm14.84 0c0-4.24-1.84-6.72-5-6.72s-5.07 2.48-5.07 6.72 1.84 6.73 5.07 6.73 5-2.46 5-6.73zm9.01 17.54v-3.77a12.59 12.59 0 001.27.06 3.36 3.36 0 003.65-2.65l.24-.89-7.28-20.48h5.07l4.77 15.87h.31l4.75-15.91h4.88l-7.35 21c-1.74 5.06-3.92 6.76-8.48 6.76-.28.08-1.53.06-1.83.01zM174.74 404h-4.81v-26.88h10.92c5.65 0 9.19 3.24 9.19 8.4a7.81 7.81 0 01-5.07 7.66l5.87 10.82h-5.5l-5.27-10.08h-5.33zm0-13.9h5.55c3.06 0 4.81-1.64 4.81-4.49s-1.86-4.51-4.92-4.51h-5.44zm38.78 13.9h-4.45v-3.24h-.32c-1 2.33-3.3 3.65-6.32 3.65-4.49 0-7.26-2.77-7.26-7.6v-13.19h4.62v12.09c0 3.13 1.47 4.64 4.25 4.64a4.51 4.51 0 004.86-4.86v-11.87h4.62zm5.65-20.38h4.46v3.26h.31c1-2.27 3.36-3.67 6.41-3.67 4.55 0 7.1 2.74 7.1 7.6V404h-4.6v-12.09c0-3.11-1.42-4.68-4.21-4.68a4.54 4.54 0 00-4.85 4.9V404h-4.62z" opacity=".6"/></g></svg>