<svg width="1024" height="1024" viewBox="0 0 1024 1024" xmlns="http://www.w3.org/2000/svg">
  <defs>
    <linearGradient id="outer-left" x1="18.3" y1="383.04" x2="462.21" y2="383.04"
                    gradientUnits="userSpaceOnUse">
      <stop offset="0" stop-color="#157eff"/>
      <stop offset="1" stop-color="#85c6ff"/>
    </linearGradient>
    <linearGradient id="outer-bottom" x1="512.1" y1="1024" x2="512.1" y2="512.62"
                    gradientUnits="userSpaceOnUse">
      <stop offset="0" stop-color="#082a4a"/>
      <stop offset="0.99" stop-color="#031120"/>
    </linearGradient>
    <linearGradient id="outer-right" x1="683.22" y1="-2" x2="683.22" y2="769.81"
                    gradientUnits="userSpaceOnUse">
      <stop offset="0" stop-color="#095eff"/>
      <stop offset="1" stop-color="#093a83"/>
    </linearGradient>
    <linearGradient id="inner-right" x1="462.21" y1="575.55" x2="682.3" y2="575.55"
                    gradientUnits="userSpaceOnUse">
      <stop offset="0" stop-color="#157eff"/>
      <stop offset="1" stop-color="#85c6ff"/>
    </linearGradient>
    <linearGradient id="inner-left" x1="351.38" y1="-11707.35" x2="351.38" y2="-12089.55"
                    gradientUnits="userSpaceOnUse"
                    gradientTransform="matrix(1, 0, 0, -1, 0, -11322.54)">
      <stop offset="0" stop-color="#095eff"/>
      <stop offset="1" stop-color="#093a83"/>
    </linearGradient>
    <linearGradient id="inner-top" x1="461.42" y1="-11835.16" x2="461.42" y2="-11579.52"
                    gradientUnits="userSpaceOnUse"
                    gradientTransform="matrix(1, 0, 0, -1, 0, -11322.54)">
      <stop offset="0" stop-color="#082a4a"/>
      <stop offset="0.99" stop-color="#031120"/>
    </linearGradient>
  </defs>
  <polygon fill="url(#outer-left)"
           points="20.38 255.85 240.55 384.81 19.44 509.6 18.3 766.09 462.21 512.62 462.21 0 20.38 255.85"/>
  <polygon fill="url(#outer-bottom)"
           points="1005.9 828.95 904.23 769.92 904.23 769.91 462.21 512.62 18.3 766.09 462.21 1024 682.87 896.47 784.82 955.5 1005.9 828.95"/>
  <polygon fill="url(#outer-right)"
           points="904.23 255.36 904.23 769.81 462.21 512.62 462.21 -2 904.23 255.36"/>
  <polygon fill="url(#inner-right)"
           points="682.3 638.83 682.3 384.09 462.21 512.62 462.21 767.01 682.3 638.83"/>
  <polygon fill="url(#inner-left)"
           points="242.04 640.46 240.55 384.81 462.21 512.62 462.21 767.01 242.04 640.46"/>
  <polygon fill="url(#inner-top)"
           points="462.21 512.62 682.3 383.54 462.21 256.99 240.55 384.81 462.21 512.62"/>
</svg>
