<svg id="b4b429e9-7287-4167-89a8-d9c119e02cec" data-name="Layer 1" xmlns="http://www.w3.org/2000/svg" width="2169" height="1080" viewBox="0 0 2169 1080">
  <defs>
    <style>
      .bdcc130d-9a63-4574-9e8b-fac611b7a5f3 {
        fill: #212a30;
      }

      .b69cb0b0-ab37-43f8-a42c-cbecbc8789b1 {
        fill: #369aff;
      }

      .a0bb53f5-2971-433f-8444-0b0bbe830a6f {
        opacity: 0.5;
      }

      .a4d649cd-91a3-4920-afbe-99d6f2cb8829 {
        fill: #777e82;
      }

      .a8551a31-ed70-4386-abfa-d8bd85f2c837 {
        fill: #f9f9f9;
      }

      .e88da000-1732-4e9a-b043-cf380e600531 {
        fill: #fff;
      }

      .e0a05881-5bf6-4ca0-bd2a-5594eafb2467 {
        fill: #2a2e30;
      }

      .e5de2ac9-1589-464d-a03d-2ebf8ab5acdb {
        isolation: isolate;
      }

      .aedfef00-3696-40ff-9c7e-bc5eea1054cd {
        fill: #bddef4;
      }

      .ba18963f-77d0-4084-a365-5743d4ad2474 {
        opacity: 0.3;
      }

      .ad2d72e9-5e3f-4435-9390-a0190701123e {
        opacity: 0.6;
      }

      .b53c9b02-7f41-4c5b-abb1-2c3059b0cc25 {
        fill: #80bced;
      }

      .a744cae4-7054-4abe-bf1f-5368b05414dc {
        fill: #0066ba;
      }
    </style>
  </defs>
  <path class="bdcc130d-9a63-4574-9e8b-fac611b7a5f3" d="M425.91,880h0c-140.24,0-272.29-28.65-371.81-80.67C3.57,772.92-35.58,742.11-62.27,707.74c-25.84-33.26-39-68.42-39-104.49,0-35.82,12.81-70.72,38.23-103.72,26.25-34.1,64.84-64.69,114.71-90.93,98.88-52,230.57-80.67,370.83-80.67s272.3,28.65,371.83,80.67C844.84,435,884,465.82,910.67,500.18c25.83,33.26,39,68.41,39,104.48,0,35.83-12.82,70.73-38.23,103.74-26.26,34.1-64.86,64.69-114.72,90.93C697.85,851.35,566.15,880,425.91,880Zm-3.42-550.07c-139.94,0-271.31,28.57-369.9,80.44-49.61,26.1-88,56.51-114.06,90.38-25.14,32.64-37.86,67.13-37.81,102.5,0,35.62,13,70.36,38.59,103.26,26.51,34.14,65.44,64.77,115.71,91C154.26,849.43,286,878,425.9,878s271.29-28.57,369.89-80.44c49.61-26.1,88-56.51,114.06-90.38C935,674.53,947.71,640,947.67,604.67c0-35.62-13-70.36-38.58-103.26-26.51-34.14-65.44-64.77-115.7-91C694.15,358.5,562.42,329.93,422.49,329.93Z"/>
  <path class="bdcc130d-9a63-4574-9e8b-fac611b7a5f3" d="M1581.7,935h0c-100,0-194.14-20.43-265.1-57.52-36-18.84-64-40.83-83-65.35-18.45-23.75-27.82-48.87-27.86-74.64-.07-52.55,38.69-101.9,109.14-139S1479.27,541,1579.26,541s194.15,20.43,265.12,57.52c36,18.84,64,40.82,83,65.34,18.44,23.76,27.81,48.87,27.85,74.64.07,52.55-38.7,101.91-109.15,139S1681.68,935,1581.7,935Zm-2.43-391.92c-95.56,0-191,19.07-263.48,57.21C1246,637,1207.65,685.72,1207.72,737.49c.07,52.16,39.07,101.24,109.81,138.22,145.94,76.28,382.63,76.28,527.63,0,69.76-36.71,108.15-85.44,108.08-137.21-.07-52.15-39.06-101.24-109.79-138.21C1770.48,562.15,1674.8,543.08,1579.27,543.08Z"/>
  <path class="b69cb0b0-ab37-43f8-a42c-cbecbc8789b1" d="M635.38,936.76l-.41-4c27.1-2.78,54.27-37,80.55-70C742,829.43,767,798,791.71,798.28c10.54.14,20,5.93,28.85,17.73,23.69,31.47,45.66,47.81,67.15,49.94,28.83,2.86,54.51-20,81.7-44.19,35.1-31.23,74.88-66.63,129.61-52.23,34.46,9.07,48.2-16.66,62.76-43.89,12.27-23,25-46.69,51.1-46.69h.52c10.43.12,22.6,12.12,36.7,26,20.84,20.53,46.77,46.08,74.45,38.87l1,3.87c-29.87,7.78-56.7-18.65-78.26-39.89-13.48-13.28-25.12-24.75-33.93-24.85h-.47c-23.76,0-35.33,21.66-47.58,44.57-14.65,27.41-29.81,55.74-67.31,45.88-52.66-13.86-89.91,19.29-125.93,51.35C945.85,848.08,921,870.2,892.69,870.2q-2.67,0-5.37-.27c-22.67-2.25-45.55-19.1-70-51.52-8.08-10.73-16.49-16-25.7-16.13h-.33c-22.62,0-46.94,30.6-72.68,63C691.86,899,664.16,933.8,635.38,936.76Z"/>
  <path class="b69cb0b0-ab37-43f8-a42c-cbecbc8789b1" d="M667.59,880.37l-2.83-2.83c63.12-63.1,104.47-46.54,137.69-33.22,31.21,12.5,55.86,22.38,89-33.87,22.77-38.69,51.8-25.87,79.87-13.48,18.66,8.24,38,16.76,56.64,11.79,19.09-5.08,40.52-27.91,63.21-52.07,29.55-31.49,63-67.17,98.22-69.19,18.65-1,37.14,13.44,55,27.48,19.48,15.29,36.31,28.49,48.31,17.62l2.68,3c-14.49,13.15-33.42-1.71-53.46-17.43-17.31-13.58-35.23-27.63-52.34-26.64-33.58,1.93-66.5,37-95.54,67.93C1071,784,1049.15,807.25,1029,812.63c-20,5.33-40-3.48-59.29-12-28.89-12.76-53.84-23.77-74.8,11.85C860,871.69,832.65,860.73,801,848,767.16,834.48,728.84,819.13,667.59,880.37Z"/>
  <g class="a0bb53f5-2971-433f-8444-0b0bbe830a6f">
    <path class="b69cb0b0-ab37-43f8-a42c-cbecbc8789b1" d="M768.05,888.88c-14.23,0-30.2-4.18-47-8.58-23.29-6.09-47.36-12.39-71.26-9.32l-.38-3c24.48-3.13,48.84,3.24,72.4,9.4,37.31,9.77,69.54,18.2,87.36-17.75,25-50.48,55.69-44.86,85.35-39.42,12.94,2.37,26.31,4.82,38.87,2.34,15.69-3.1,30.7-16.94,45.22-30.31,19.25-17.74,37.42-34.48,56-25.6,44.79,21.4,71.73,5.51,100.25-11.32,13-7.69,26.51-15.64,41.72-19.6,5.1-1.33,14.37,1.24,26.11,4.49,20.64,5.72,48.91,13.55,66.66,2.3,8.35-5.3,16.53-22.06,25.19-39.81,10.56-21.65,21.48-44,34.55-48.73l1,2.82c-11.92,4.28-22.57,26.11-32.87,47.23-8.85,18.14-17.2,35.27-26.27,41-18.87,12-47.89,3.93-69.07-1.94-10.86-3-20.24-5.6-24.55-4.48-14.81,3.86-28.1,11.7-40.95,19.28-18.41,10.86-37.23,22-61.14,22-12.4,0-26.15-3-41.93-10.53-16.75-8-34.2,8.08-52.68,25.1-14.82,13.66-30.15,27.79-46.67,31-13.11,2.6-26.78.09-40-2.33-29.88-5.48-58.11-10.66-82.12,37.81-8.66,17.46-20.89,26.26-38.51,27.68C771.61,888.81,769.85,888.88,768.05,888.88Z"/>
  </g>
  <g class="a0bb53f5-2971-433f-8444-0b0bbe830a6f">
    <path class="b69cb0b0-ab37-43f8-a42c-cbecbc8789b1" d="M698.05,936.69c-7.92,0-15.78-6.45-24.09-13.25-14-11.48-28.47-23.34-47-11.1l-1.65-2.51c20.4-13.45,36.43-.31,50.57,11.29,7.88,6.45,15.34,12.57,22.2,12.57l.75,0c26.84-1.79,42.59-22,60.83-45.42,6.27-8,12.76-16.38,20-24.27,9.7-10.58,24.9-13.14,41-15.85,19.31-3.26,39.29-6.62,52.36-24,18.25-24.23,39.89-11.21,62.8,2.57,18.27,11,37.16,22.35,55.93,16,13.45-4.58,27.35-25.16,40.79-45.06,15.68-23.23,31.9-47.25,49.18-49.17,6.59-.73,13,1.8,19.07,7.52,17.2,16.23,35.13,19.51,58.1,10.63,24-9.26,53.92-31.69,97-72.7l2.07,2.17c-43.4,41.3-73.62,63.92-98,73.33-24.2,9.35-43.09,5.88-61.25-11.25-5.47-5.16-10.92-7.35-16.68-6.72-15.9,1.77-31.72,25.2-47,47.86-14.35,21.25-27.9,41.32-42.31,46.23-20.07,6.84-39.58-4.89-58.43-16.24-22.67-13.63-42.25-25.4-58.87-3.34-13.79,18.31-35.29,21.93-54.25,25.13-15.57,2.62-30.27,5.1-39.28,14.92-7.16,7.8-13.61,16.08-19.84,24.08-17.91,23-34.82,44.69-63,46.57C698.69,936.67,698.37,936.69,698.05,936.69Z"/>
  </g>
  <g>
    <path class="a4d649cd-91a3-4920-afbe-99d6f2cb8829" d="M1764.92,672a385.75,385.75,0,0,1-386.06-386.07,386.07,386.07,0,1,1,772.13,0,388.28,388.28,0,0,1-10.39,89.32,1,1,0,0,1-.84.76,1,1,0,0,1-1-.5L1898.42-51.81a20.27,20.27,0,0,0-27.57-7.72L1526.84,134l-.49-.87.49.87a20.27,20.27,0,0,0-7.72,27.57l285.2,507.08a1,1,0,0,1,0,.95,1,1,0,0,1-.78.54C1790.78,671.36,1777.78,672,1764.92,672Zm0-770.13a383.74,383.74,0,0,0-384.06,384.06A383.74,383.74,0,0,0,1764.92,670c12.28,0,24.69-.59,36.91-1.75L1517.38,162.5a22.27,22.27,0,0,1,8.48-30.29l344-193.48a22.27,22.27,0,0,1,30.29,8.48l239.07,425.08a385.81,385.81,0,0,0,9.76-86.36A383.74,383.74,0,0,0,1764.92-98.13Z"/>
    <g>
      <path class="a8551a31-ed70-4386-abfa-d8bd85f2c837" d="M1567.92,205.07,1910.28,12.51l220.87,392.71q4.84-14.85,8.47-30.2L1899.29-52.3a21.25,21.25,0,0,0-28.93-8.1l-344,193.48a21.24,21.24,0,0,0-8.1,28.93l285.2,507.08q12-1.19,23.71-3.1Z"/>
      <path class="a4d649cd-91a3-4920-afbe-99d6f2cb8829" d="M1803.45,670.09a1,1,0,0,1-.87-.51L1517.38,162.5a22.27,22.27,0,0,1,8.48-30.29l344-193.48a22.27,22.27,0,0,1,30.29,8.48L2140.5,374.53a1,1,0,0,1,.1.72c-2.42,10.21-5.28,20.4-8.49,30.28a1,1,0,0,1-1.83.18L1909.9,13.88,1569.28,205.45,1828,665.5a1,1,0,0,1-.71,1.48c-7.86,1.27-15.86,2.32-23.77,3.11Zm77.29-732.21a20.11,20.11,0,0,0-9.89,2.59L1526.84,134a20.27,20.27,0,0,0-7.72,27.57L1804,668c7.19-.72,14.44-1.67,21.58-2.8L1567.05,205.56a1,1,0,0,1,.38-1.36L1909.79,11.64a1,1,0,0,1,.76-.09,1,1,0,0,1,.61.47L2130.9,402.73c2.88-9,5.45-18.27,7.66-27.56l-240.14-427A20.27,20.27,0,0,0,1880.74-62.12Z"/>
    </g>
    <g>
      <path class="e88da000-1732-4e9a-b043-cf380e600531" d="M1567.92,205.07,1827.16,666c143.26-23.28,260-125.61,304-260.77L1910.28,12.51Z"/>
      <path class="a4d649cd-91a3-4920-afbe-99d6f2cb8829" d="M1827.16,667a1,1,0,0,1-.87-.51L1567.05,205.56a1,1,0,0,1,.38-1.36L1909.79,11.64a1,1,0,0,1,.76-.09,1,1,0,0,1,.61.47L2132,404.73a1.06,1.06,0,0,1,.08.8A386.58,386.58,0,0,1,1827.32,667ZM1569.28,205.45l258.41,459.44a384.61,384.61,0,0,0,302.38-259.56L1909.9,13.88Z"/>
    </g>
  </g>
  <g>
    <g>
      <path d="M1721.15,286c-5.9,3.28-11.65,1.53-15.26-5l-1.75-3.15c-3.63-6.54-2.09-12.55,3.77-15.81s11.75-1.34,15.37,5.18l1.75,3.15C1728.64,276.89,1727,282.72,1721.15,286Zm-11.44-20.65c-3.27,1.82-4.37,5.6-1.73,10.35l1.77,3.19c2.64,4.76,6.34,5.67,9.61,3.85s4.44-5.42,1.8-10.19l-1.77-3.18C1716.75,264.6,1713,263.52,1709.71,265.33Z"/>
      <path d="M1724.64,260.15l3.74-2.07,1.3,2.34.14-.08a5.06,5.06,0,0,1,2.82-5,8.11,8.11,0,0,1,1.32-.6l1.83,3.3a9.21,9.21,0,0,0-1.67.76c-3,1.66-3,4.08-1.66,6.47l5.86,10.55-3.79,2.1Z"/>
      <path d="M1749.7,249.58l.13-.08-5-8.95,3.74-2.07L1762,262.69l-3.64,2-1.5-2.71-.14.07a6.29,6.29,0,0,1-3.53,5.82c-4.48,2.49-8.79.56-11.61-4.51l-.86-1.55c-2.76-5-2-9.8,2.32-12.22A6.33,6.33,0,0,1,1749.7,249.58Zm-5.06,10.27.73,1.32c2,3.62,4.74,4.44,7.13,3.11,2.63-1.45,3.2-4.28,1.27-7.75l-.73-1.33c-1.86-3.34-4.66-4.5-7.3-3C1743.38,253.48,1742.63,256.23,1744.64,259.85Z"/>
      <path d="M1761.63,252.3l-1-1.81c-2.76-5-1.58-9.83,3.11-12.43s9.46-.89,12.25,4.13l1,1.7-11.58,6.43.23.42c1.67,3,4.39,4.09,6.93,2.68a4,4,0,0,0,2.28-4.51l3.56-2c1.06,3.18.15,7-4.25,9.45C1769.34,259,1764.56,257.57,1761.63,252.3Zm10.2-9,0,0c-1.4-2.53-4.07-3.65-6.45-2.33s-2.87,4.19-1.47,6.72l0,0Z"/>
      <path d="M1775.5,231.93l3.74-2.08,1.3,2.34.13-.07a5.05,5.05,0,0,1,2.83-5,8.11,8.11,0,0,1,1.32-.6l1.83,3.3a9.07,9.07,0,0,0-1.68.75c-3,1.67-3,4.08-1.65,6.48l5.85,10.54-3.79,2.11Z"/>
      <path d="M1802.55,240.21l-4.84-27.4,4.28-2.37,20.67,18.61-4.05,2.25-5.57-5.24-8.07,4.48,1.48,7.51Zm-.63-24.53,2.28,11.45,6.35-3.52-8.48-8Z"/>
      <path d="M1828.44,225.85l-10.67-19.23-.12.06c-.9,1.52-2.47,4.33-3.46,6.36l-2-3.66c1.07-2.2,2.42-4.61,3.64-6.61l3.65-2,12.76,23Z"/>
      <path d="M1839.42,196.91a4.07,4.07,0,0,0-5.33-.79c-2.95,1.64-3.39,5.77-.32,11.49l.11-.06a6.72,6.72,0,0,1,3.72-6.45,8.28,8.28,0,0,1,11.59,3.4c2.8,5.05.8,10-3.72,12.49a8.76,8.76,0,0,1-7.81.65c-2.56-1-5-3.39-7.06-7.15-4.64-8.36-3.37-14.61,1.89-17.53,4.57-2.54,8.83-.76,10.61,1.92Zm4.36,16.94c2.3-1.28,3.56-4,1.82-7.12a5.11,5.11,0,1,0-1.82,7.12Z"/>
      <path d="M1857,202.17c1.5,2,4,2.18,6.39.82a5.34,5.34,0,0,0,2-7.41,5.17,5.17,0,0,0-7.27-2.23,5.44,5.44,0,0,0-3,5.24l-3.3,1.83-6.3-14.09,13.38-7.42,1.75,3.16-10.26,5.7,3,6.89.11-.06a7.26,7.26,0,0,1,3.85-4.71,8.49,8.49,0,0,1,11.84,3.43c2.71,4.89.81,10.15-4.11,12.88s-9.41,1.32-11.52-2Z"/>
      <path d="M1867.41,182.81l-.1-.18c-2.07-3.73-1-8.5,3.83-11.17,4.48-2.48,8.94-1.45,11,2.24,1.51,2.71,1,5.43.09,9.52l-2.06,9.63,0,.1,10.06-5.58,1.77,3.18-15.32,8.5-1.33-2.39,3.23-14.17c.54-2.31.93-4.44-.13-6.35a4,4,0,0,0-5.75-1.46,4.22,4.22,0,0,0-1.77,5.9l.11.2Z"/>
      <path d="M1900.83,185.67l-10.68-19.22-.11.06c-.9,1.51-2.47,4.32-3.46,6.35l-2-3.65c1.08-2.21,2.43-4.61,3.66-6.61l3.63-2,12.77,23Z"/>
      <path d="M1909.76,173.18a4.36,4.36,0,0,0,5.75.83c3.49-1.93,3.14-6.54.32-11.5l-.17.09c.35,2.06-.66,4.76-3.88,6.55-3.71,2-8.61,1.36-11.36-3.6s-.57-10,3.62-12.32c5.31-2.95,10.63-1.38,15.14,6.74,4.26,7.66,3.57,14.09-2.06,17.21-5,2.76-9.29.74-11-2Zm-3.84-16.94a5,5,0,0,0-1.88,7.19c1.72,3.1,4.62,3.52,7,2.2a5.14,5.14,0,0,0,2-7.1C1911.27,155.37,1908.39,154.87,1905.92,156.24Z"/>
    </g>
    <g>
      <path d="M1753.42,344.13c-5.9,3.27-11.65,1.53-15.26-5l-1.75-3.15c-3.63-6.54-2.09-12.54,3.77-15.8s11.75-1.34,15.37,5.18l1.75,3.15C1760.91,335,1759.3,340.87,1753.42,344.13ZM1742,323.48c-3.27,1.81-4.37,5.6-1.73,10.35L1742,337c2.65,4.77,6.34,5.67,9.61,3.86s4.44-5.42,1.8-10.19l-1.77-3.18C1749,322.74,1745.25,321.66,1742,323.48Z"/>
      <path d="M1756.91,318.3l3.74-2.08,1.3,2.34.14-.07a5.06,5.06,0,0,1,2.82-5,8.11,8.11,0,0,1,1.32-.6l1.83,3.3a9.21,9.21,0,0,0-1.67.76c-3,1.66-3,4.07-1.65,6.47l5.85,10.55-3.79,2.1Z"/>
      <path d="M1782,307.72l.13-.07-5-8.95,3.74-2.08,13.43,24.22-3.63,2-1.51-2.71-.13.07a6.35,6.35,0,0,1-3.54,5.82c-4.48,2.49-8.79.56-11.61-4.51L1773,320c-2.76-5-2-9.8,2.32-12.22A6.36,6.36,0,0,1,1782,307.72ZM1776.91,318l.73,1.31c2,3.63,4.74,4.45,7.13,3.12,2.63-1.46,3.2-4.29,1.27-7.76l-.73-1.33c-1.86-3.33-4.66-4.49-7.3-3C1775.65,311.63,1774.9,314.38,1776.91,318Z"/>
      <path d="M1793.9,310.44l-1-1.8c-2.76-5-1.58-9.83,3.11-12.43s9.46-.89,12.25,4.13l1,1.7-11.58,6.42.23.42c1.67,3,4.39,4.1,6.93,2.68a4,4,0,0,0,2.29-4.5l3.55-2c1.06,3.18.15,7-4.25,9.46C1801.61,317.19,1796.83,315.72,1793.9,310.44Zm10.2-9,0,0c-1.4-2.52-4.07-3.64-6.45-2.32s-2.87,4.19-1.47,6.72l0,0Z"/>
      <path d="M1807.77,290.08l3.74-2.08,1.3,2.34.13-.07a5.05,5.05,0,0,1,2.83-5,7.34,7.34,0,0,1,1.32-.6l1.83,3.3a9.07,9.07,0,0,0-1.68.75c-3,1.67-3,4.08-1.65,6.47l5.86,10.55-3.8,2.11Z"/>
      <path d="M1834.82,298.36,1830,271l4.28-2.37,20.67,18.61-4,2.25-5.57-5.24-8.07,4.48,1.48,7.51Zm-.63-24.53,2.28,11.45,6.35-3.53-8.48-8Z"/>
      <path d="M1860.71,284,1850,264.77l-.12.06c-.9,1.52-2.47,4.33-3.46,6.35l-2-3.65c1.07-2.2,2.42-4.61,3.65-6.61l3.63-2,12.77,23Z"/>
      <path d="M1871.69,255.06a4.06,4.06,0,0,0-5.33-.79c-2.95,1.64-3.39,5.77-.32,11.49l.12-.07a6.68,6.68,0,0,1,3.71-6.44,8.27,8.27,0,0,1,11.59,3.4c2.8,5.05.8,10-3.72,12.48a8.76,8.76,0,0,1-7.81.66c-2.56-1-5-3.39-7-7.15-4.64-8.36-3.38-14.62,1.88-17.53,4.57-2.54,8.84-.76,10.61,1.91ZM1876,272c2.31-1.28,3.57-4,1.83-7.12A5.11,5.11,0,1,0,1876,272Z"/>
      <path d="M1886.38,252.22l2.29-1.27c2.38-1.32,3.19-3.71,2-5.82s-3.44-2.54-5.8-1.23a4.15,4.15,0,0,0-2,5.57l-3.61,2c-1.78-3.44-.94-8,4-10.68,4.45-2.47,8.92-1.67,10.9,1.68a6.09,6.09,0,0,1-1.14,7.76l.06.11a6.28,6.28,0,0,1,8,2.82c2.3,4,.12,9-4.72,11.63-5.27,2.93-9.49,1.28-11.62-2.28l3.55-2c1.34,1.86,3.69,2.63,6.45,1.09,3-1.63,3.69-4.23,2.43-6.46s-3.79-2.83-6.71-1.21l-2.43,1.35Z"/>
      <path d="M1905.73,241.49l2.29-1.28c2.37-1.32,3.19-3.71,2-5.81s-3.44-2.55-5.8-1.24a4.16,4.16,0,0,0-2,5.58l-3.6,2c-1.78-3.45-.94-8,4-10.69,4.45-2.47,8.93-1.67,10.9,1.69a6.08,6.08,0,0,1-1.14,7.75l.06.12a6.27,6.27,0,0,1,8,2.81c2.31,4,.12,9-4.71,11.63-5.28,2.93-9.5,1.28-11.63-2.27l3.56-2c1.34,1.86,3.68,2.63,6.45,1.1,2.95-1.64,3.69-4.23,2.43-6.47s-3.8-2.82-6.71-1.21l-2.43,1.35Z"/>
      <path d="M1932.66,244.06,1922,224.84l-.12.06c-.9,1.52-2.47,4.33-3.46,6.35l-2-3.65c1.07-2.21,2.42-4.61,3.65-6.61l3.64-2,12.76,23Z"/>
      <path d="M1941.59,231.57a4.38,4.38,0,0,0,5.76.84c3.49-1.94,3.13-6.55.31-11.51l-.17.1c.35,2.05-.66,4.75-3.88,6.54-3.71,2.05-8.61,1.36-11.36-3.59s-.57-10,3.63-12.33c5.3-3,10.63-1.38,15.13,6.74,4.26,7.67,3.57,14.09-2.06,17.21-5,2.76-9.28.75-11-2Zm-3.84-16.94a5,5,0,0,0-1.87,7.19c1.72,3.1,4.62,3.52,7,2.2a5.14,5.14,0,0,0,2-7.1C1943.1,213.76,1940.23,213.26,1937.75,214.63Z"/>
    </g>
    <g>
      <path d="M1785.69,402.28c-5.9,3.27-11.65,1.53-15.26-5l-1.75-3.15c-3.63-6.53-2.09-12.54,3.77-15.8s11.76-1.34,15.37,5.18l1.75,3.15C1793.18,393.18,1791.57,399,1785.69,402.28Zm-11.44-20.65c-3.27,1.81-4.36,5.6-1.73,10.35l1.77,3.18c2.65,4.77,6.34,5.67,9.61,3.86s4.44-5.42,1.8-10.19l-1.77-3.18C1781.29,380.89,1777.52,379.81,1774.25,381.63Z"/>
      <path d="M1789.19,376.45l3.74-2.08,1.3,2.34.13-.07a5.07,5.07,0,0,1,2.82-5,8.11,8.11,0,0,1,1.32-.6l1.84,3.3a8.34,8.34,0,0,0-1.68.76c-3,1.66-3,4.07-1.65,6.47l5.85,10.55-3.79,2.1Z"/>
      <path d="M1814.24,365.87l.13-.07-5-8.95,3.74-2.07L1826.59,379l-3.64,2-1.51-2.71-.13.07a6.33,6.33,0,0,1-3.54,5.82c-4.48,2.49-8.79.56-11.61-4.51l-.86-1.55c-2.76-5-2-9.8,2.32-12.22A6.36,6.36,0,0,1,1814.24,365.87Zm-5,10.28.73,1.31c2,3.63,4.73,4.45,7.12,3.12,2.63-1.46,3.2-4.29,1.28-7.76l-.74-1.33c-1.85-3.33-4.66-4.49-7.3-3C1807.92,369.78,1807.17,372.53,1809.19,376.15Z"/>
      <path d="M1826.17,368.59l-1-1.8c-2.76-5-1.58-9.83,3.11-12.43s9.47-.89,12.25,4.13l1,1.7-11.58,6.42.23.43c1.67,3,4.39,4.08,6.94,2.67a4,4,0,0,0,2.28-4.5l3.55-2c1.06,3.18.15,7-4.25,9.46C1833.88,375.34,1829.1,373.87,1826.17,368.59Zm10.2-9,0,0c-1.4-2.52-4.07-3.64-6.45-2.32s-2.87,4.19-1.47,6.72l0,0Z"/>
      <path d="M1840,348.23l3.74-2.08,1.3,2.34.14-.07a5,5,0,0,1,2.82-5,7.34,7.34,0,0,1,1.32-.6l1.83,3.3a8.75,8.75,0,0,0-1.67.75c-3,1.67-3,4.08-1.66,6.47l5.86,10.55-3.8,2.11Z"/>
      <path d="M1867.09,356.51l-4.84-27.4,4.28-2.37,20.67,18.61-4,2.25-5.57-5.24-8.07,4.48,1.48,7.51Zm-.63-24.53,2.28,11.45,6.35-3.53-8.48-8Z"/>
      <path d="M1893,342.14l-10.67-19.22-.12.06c-.9,1.52-2.47,4.33-3.46,6.35l-2-3.65c1.07-2.21,2.42-4.61,3.65-6.61l3.64-2,12.76,23Z"/>
      <path d="M1904,313.21a4.06,4.06,0,0,0-5.33-.79c-2.94,1.64-3.39,5.77-.32,11.49l.12-.07a6.7,6.7,0,0,1,3.71-6.44,8.27,8.27,0,0,1,11.59,3.4c2.81,5.05.8,10-3.72,12.48a8.76,8.76,0,0,1-7.81.66c-2.55-1-5-3.39-7-7.15-4.64-8.36-3.38-14.62,1.88-17.53,4.57-2.54,8.84-.76,10.61,1.91Zm4.36,16.94c2.3-1.28,3.56-4,1.82-7.12a5.11,5.11,0,1,0-1.82,7.12Z"/>
      <path d="M1922.93,295.44l1.83,3.3,1.56,24.9-4,2.23L1921,300.79l-.06-.1-11.56,6.41-1.76-3.18Z"/>
      <path d="M1938.09,287l8.51,15.33,2.9-1.6,1.77,3.18-2.9,1.61,2.49,4.48-3.61,2-2.48-4.48-11.16,6.19-1.76-3.17c-.06-6.66.28-13.71.78-20.51Zm4.91,17.34-6.82-12.29-.12.07c-.42,5.23-.68,11.07-.66,16.36l0,.05Z"/>
      <path d="M1952.8,300.72a6.65,6.65,0,0,1,1.51-8.42l0-.1a6,6,0,0,1-6.7-3.05c-2-3.52-.25-7.84,4.27-10.35s9.06-1.66,11,1.87a6.07,6.07,0,0,1-1,7.3l0,.1a6.67,6.67,0,0,1,7.94,3.14c2.22,4,.25,8.72-4.84,11.54S1955,304.72,1952.8,300.72Zm6.58-17.64c-1.17-2.11-3.63-2.62-5.92-1.34s-3.19,3.63-2,5.74,3.69,2.67,6,1.4S1960.56,285.2,1959.38,283.08Zm6.62,10c-1.34-2.43-4.32-3-7-1.45s-3.86,4.32-2.51,6.75,4.33,2.91,7,1.41S1967.34,295.52,1966,293.11Z"/>
      <path d="M1974.46,279.4l2.3-1.27c2.37-1.32,3.18-3.71,2-5.82s-3.44-2.54-5.79-1.23a4.15,4.15,0,0,0-2,5.57l-3.61,2c-1.78-3.44-.94-8,4-10.69,4.45-2.46,8.92-1.67,10.9,1.69a6.08,6.08,0,0,1-1.14,7.75l.06.12a6.28,6.28,0,0,1,8,2.81c2.31,4,.12,8.95-4.72,11.64-5.27,2.92-9.49,1.28-11.62-2.28l3.56-2c1.33,1.85,3.68,2.62,6.44,1.09,2.95-1.64,3.69-4.23,2.43-6.46s-3.79-2.83-6.71-1.21l-2.42,1.34Z"/>
    </g>
    <g>
      <circle class="b69cb0b0-ab37-43f8-a42c-cbecbc8789b1" cx="1676.69" cy="295.42" r="19.35"/>
      <path class="e0a05881-5bf6-4ca0-bd2a-5594eafb2467" d="M1676.72,315.78a20.46,20.46,0,0,1-5.63-.79,20.35,20.35,0,1,1,23.39-29.44h0a20.37,20.37,0,0,1-7.92,27.66A20.13,20.13,0,0,1,1676.72,315.78Zm-.06-38.7a18.35,18.35,0,1,0,16.07,9.44A18.29,18.29,0,0,0,1676.66,277.08Z"/>
    </g>
    <g>
      <circle class="b69cb0b0-ab37-43f8-a42c-cbecbc8789b1" cx="1708.37" cy="352.52" r="19.35"/>
      <path class="e0a05881-5bf6-4ca0-bd2a-5594eafb2467" d="M1708.41,372.86a20.33,20.33,0,1,1,9.83-2.55A20.37,20.37,0,0,1,1708.41,372.86Zm-.07-38.7a18.35,18.35,0,0,0-16,27.26,18.34,18.34,0,1,0,32.08-17.8h0a18.2,18.2,0,0,0-11-8.74A18.44,18.44,0,0,0,1708.34,334.16Z"/>
    </g>
    <g>
      <circle class="b69cb0b0-ab37-43f8-a42c-cbecbc8789b1" cx="1740.06" cy="409.61" r="19.35"/>
      <path class="e0a05881-5bf6-4ca0-bd2a-5594eafb2467" d="M1740.09,430a20.48,20.48,0,0,1-5.63-.8,20.34,20.34,0,1,1,23.39-29.43h0A20.37,20.37,0,0,1,1740.09,430Zm-.06-38.72a18.36,18.36,0,1,0,16.07,9.46h0a18.43,18.43,0,0,0-16.07-9.46Z"/>
    </g>
    <g>
      <rect class="b69cb0b0-ab37-43f8-a42c-cbecbc8789b1" x="1755.97" y="367.15" width="328.9" height="130.59" rx="3.52" transform="translate(31.41 986.22) rotate(-29.03)"/>
      <path class="e0a05881-5bf6-4ca0-bd2a-5594eafb2467" d="M1809.69,569.08a4.54,4.54,0,0,1-4-2.33l-60-108a4.52,4.52,0,0,1,1.76-6.14L2029,296.39a4.53,4.53,0,0,1,6.14,1.75l60,108a4.52,4.52,0,0,1-1.75,6.14L1811.88,568.51A4.58,4.58,0,0,1,1809.69,569.08Zm221.46-271.26a2.51,2.51,0,0,0-1.21.31L1748.51,454.32a2.51,2.51,0,0,0-1,3.42l60,108a2.5,2.5,0,0,0,1.5,1.2,2.57,2.57,0,0,0,1.92-.22l281.43-156.19h0a2.52,2.52,0,0,0,1-3.42l-60-108A2.53,2.53,0,0,0,2031.15,297.82Z"/>
    </g>
    <g>
      <path class="e88da000-1732-4e9a-b043-cf380e600531" d="M1865.79,440.48c1.27,1.89,4,2.62,7.22.81,3-1.65,4-4,2.77-6.2-1-1.76-2.68-2-5.46-1.27L1866,435c-3.35.95-7,.66-9.07-3.08-2.44-4.39.06-8.94,4.53-11.42s9.53-2.13,12,2.12l-3.67,2c-1.25-1.86-3.65-2.65-6.63-1-2.63,1.46-3.72,3.69-2.54,5.83.83,1.5,2.48,2,4.89,1.3l4.27-1.15c3.92-1.08,7.46-.9,9.63,3,2.51,4.52.26,9.1-5,12-6.4,3.55-10.62,1-12.42-2.06Z"/>
      <path class="e88da000-1732-4e9a-b043-cf380e600531" d="M1891.56,434.53l-11-19.74-6.76,3.75-1.81-3.26,17.3-9.61,1.82,3.27-6.76,3.75,10.95,19.73Z"/>
      <path class="e88da000-1732-4e9a-b043-cf380e600531" d="M1901.2,429.18l-4.85-27.4,4.28-2.37L1921.3,418l-4,2.25-5.58-5.24-8.07,4.48,1.48,7.51Zm-.63-24.53,2.28,11.45,6.35-3.53-8.48-8Z"/>
      <path class="e88da000-1732-4e9a-b043-cf380e600531" d="M1931.93,391.3a7.49,7.49,0,0,1-.64,8.77l9.91,6.91-4.29,2.38-9-6.55-4.77,2.64,4.91,8.85-3.79,2.1-12.77-23,8.8-4.88C1925.56,385.58,1929.79,387.46,1931.93,391.3ZM1925.8,400c2.84-1.58,3.68-3.85,2.28-6.38-1.51-2.71-4-3.1-6.62-1.66l-4.48,2.48,4.44,8Z"/>
      <path class="e88da000-1732-4e9a-b043-cf380e600531" d="M1949.56,402.34l-11-19.73-6.76,3.75-1.81-3.27,17.3-9.61,1.82,3.27-6.76,3.75,10.95,19.73Z"/>
      <path class="e88da000-1732-4e9a-b043-cf380e600531" d="M1829.65,523.05l-12.76-23,3.84-2.13,16,12.28.12-.07-1.95-20.08,3.82-2.12,12.77,23-3.46,1.92L1839.21,497l-.15.08,1.52,16.75-2.75,1.53-13.43-10.14-.13.07,8.82,15.9Z"/>
      <path class="e88da000-1732-4e9a-b043-cf380e600531" d="M1854.47,509.28l-4.84-27.4,4.28-2.37,20.66,18.61-4,2.25-5.57-5.24-8.08,4.48,1.48,7.51Zm-.63-24.53,2.28,11.45,6.35-3.53-8.48-8Z"/>
      <path class="e88da000-1732-4e9a-b043-cf380e600531" d="M1877.49,496.5l-12.77-23,3.83-2.12,12.76,23Z"/>
      <path class="e88da000-1732-4e9a-b043-cf380e600531" d="M1886.49,491.51l-12.77-23,3.37-1.87,20,10.48.12-.07-9.16-16.51,3.59-2,12.76,23-3.33,1.85L1881,472.89l-.1.05,9.19,16.57Z"/>
      <path class="e88da000-1732-4e9a-b043-cf380e600531" d="M1914.07,476.2l-11-19.73-6.76,3.75-1.81-3.27,17.31-9.6,1.81,3.27-6.76,3.75,10.95,19.73Z"/>
      <path class="e88da000-1732-4e9a-b043-cf380e600531" d="M1941.84,460.79l-14.36,8-12.76-23,14.36-8,1.78,3.22-10.55,5.85,3.64,6.56,9.94-5.52,1.72,3.08-9.95,5.52,3.85,6.93,10.54-5.86Z"/>
      <path class="e88da000-1732-4e9a-b043-cf380e600531" d="M1946.26,458.34l-12.77-23,3.37-1.87,20,10.48.12-.07-9.16-16.51,3.59-2,12.76,23-3.33,1.85-20.1-10.51-.1,0,9.19,16.57Z"/>
      <path class="e88da000-1732-4e9a-b043-cf380e600531" d="M1967.13,446.75l-4.84-27.39,4.28-2.38,20.67,18.62-4,2.24-5.57-5.24-8.07,4.48,1.48,7.51Zm-.63-24.53,2.28,11.45,6.35-3.52-8.48-8Z"/>
      <path class="e88da000-1732-4e9a-b043-cf380e600531" d="M1990.15,434l-12.76-23,3.37-1.87,20,10.48.12-.07L1991.74,403l3.59-2,12.77,23-3.34,1.85-20.09-10.51-.11.05,9.2,16.57Z"/>
      <path class="e88da000-1732-4e9a-b043-cf380e600531" d="M2010.66,409.49c2.56,4.61,6,6.09,9.5,4.13,3-1.66,3.94-4.65,2.49-7.38l3.73-2.06.14.25c2.47,4.45.52,9.67-4.55,12.49-5.94,3.29-11.55,1.25-15.18-5.31l-1.57-2.81c-3.66-6.61-2.46-12.5,3.48-15.79,5.08-2.83,10.59-1.61,13.18,3.06l.14.25-3.72,2.07a5.46,5.46,0,0,0-7.76-2.09c-3.52,1.95-4.06,5.67-1.46,10.35Z"/>
      <path class="e88da000-1732-4e9a-b043-cf380e600531" d="M2048.94,401.35l-14.35,8-12.77-23,14.36-8,1.78,3.22-10.54,5.85,3.63,6.56,10-5.52,1.71,3.08-9.94,5.52,3.84,6.93,10.55-5.86Z"/>
    </g>
    <g>
      <path class="e88da000-1732-4e9a-b043-cf380e600531" d="M1715.15,339.82l-6.54,22.87-10.48-3,.77-2.69,7.79,2.22,5.78-20.17Z"/>
      <path class="e88da000-1732-4e9a-b043-cf380e600531" d="M1709,363.3,1697.51,360l1-3.65,7.79,2.22,5.78-20.17,3.65,1.05Zm-10.2-4,9.52,2.73,6.27-21.91-1.73-.49L1707,359.84l-7.79-2.22Z"/>
    </g>
    <g>
      <path class="e88da000-1732-4e9a-b043-cf380e600531" d="M1683.47,282.73l-6.55,22.86-10.48-3,.77-2.68,7.79,2.22,5.78-20.17Z"/>
      <path class="e88da000-1732-4e9a-b043-cf380e600531" d="M1677.27,306.21l-11.44-3.27,1-3.65,7.79,2.22,5.78-20.17,3.65,1.05Zm-10.21-4,9.52,2.73,6.27-21.91-1.73-.49-5.78,20.16-7.78-2.21Z"/>
    </g>
    <g>
      <path class="e88da000-1732-4e9a-b043-cf380e600531" d="M1746.84,396.91l-6.55,22.87-10.47-3,.76-2.69,7.79,2.22,5.78-20.16Z"/>
      <path class="e88da000-1732-4e9a-b043-cf380e600531" d="M1740.64,420.4l-11.44-3.28,1-3.65,7.79,2.22,5.78-20.16,3.65,1Zm-10.21-4,9.52,2.72,6.27-21.9-1.72-.5-5.79,20.17-7.78-2.22Z"/>
    </g>
    <g>
      <rect class="b69cb0b0-ab37-43f8-a42c-cbecbc8789b1" x="1607.04" y="134.98" width="328.9" height="58.04" rx="4.09" transform="translate(142.96 880.23) rotate(-29.03)"/>
      <path class="e0a05881-5bf6-4ca0-bd2a-5594eafb2467" d="M1643.38,268.71a5.22,5.22,0,0,1-1.41-.2,5,5,0,0,1-3-2.42l-24.19-43.6a5.07,5.07,0,0,1,2-6.92L1897.13,59.94a5.1,5.1,0,0,1,6.92,2l24.2,43.6a5.09,5.09,0,0,1-2,6.92L1645.84,268.07A5.1,5.1,0,0,1,1643.38,268.71ZM1899.59,61.3a3,3,0,0,0-1.49.39L1617.68,217.32h0a3.1,3.1,0,0,0-1.21,4.2l24.2,43.6a3.1,3.1,0,0,0,4.2,1.2l280.42-155.63a3.07,3.07,0,0,0,1.48-1.85,3.1,3.1,0,0,0-.27-2.35l-24.2-43.6a3.09,3.09,0,0,0-1.85-1.47A3.13,3.13,0,0,0,1899.59,61.3Zm-282.4,155.14h0Z"/>
    </g>
    <g>
      <path class="e88da000-1732-4e9a-b043-cf380e600531" d="M1655.89,224.13c1.78,3.2.9,6.64-2.55,8.55l-3.67,2,3.33,6-2.81,1.56-9.39-16.92,6.49-3.6A6,6,0,0,1,1655.89,224.13Zm-7.73.19-3.26,1.81,3.49,6.28,2.26-1.25c2.59-1.44,3.77-2.92,2.38-5.44A3.28,3.28,0,0,0,1648.16,224.32Z"/>
      <path class="e88da000-1732-4e9a-b043-cf380e600531" d="M1670.42,215.73a5.53,5.53,0,0,1-.47,6.46l7.29,5.08-3.16,1.75-6.65-4.82-3.51,1.94,3.61,6.51-2.79,1.55-9.38-16.92,6.47-3.59C1665.73,211.52,1668.85,212.91,1670.42,215.73Zm-4.51,6.4c2.09-1.17,2.7-2.84,1.67-4.7s-3-2.27-4.86-1.22l-3.3,1.83,3.26,5.87Z"/>
      <path class="e88da000-1732-4e9a-b043-cf380e600531" d="M1686.64,222.49c-4.34,2.4-8.57,1.12-11.22-3.66l-1.29-2.32c-2.67-4.81-1.54-9.23,2.77-11.63s8.65-1,11.31,3.81l1.29,2.32C1692.15,215.8,1691,220.09,1686.64,222.49Zm-8.41-15.19c-2.41,1.33-3.22,4.11-1.27,7.61l1.29,2.34c2,3.51,4.67,4.17,7.07,2.84s3.27-4,1.33-7.5l-1.3-2.34C1683.41,206.76,1680.63,206,1678.23,207.3Z"/>
      <path class="e88da000-1732-4e9a-b043-cf380e600531" d="M1693.07,196.35c5-2.8,9.17-1.18,12.19,4.26s2.22,9.87-2.8,12.66l-5.84,3.24-9.39-16.92Zm5,16.23,2.73-1.51c3.14-1.74,3.94-4.46,1.53-8.81-2.15-3.87-4.83-5.3-8.29-3.38l-2.73,1.52Z"/>
      <path class="e88da000-1732-4e9a-b043-cf380e600531" d="M1719.8,195.72l-6-10.86,2.8-1.56,6.24,11.25c2,3.54.83,7.4-3.31,9.69s-8,1.22-10-2.32l-6.24-11.24,2.79-1.55,6,10.86a4.4,4.4,0,1,0,7.69-4.27Z"/>
      <path class="e88da000-1732-4e9a-b043-cf380e600531" d="M1727.63,189.65c1.89,3.4,4.4,4.48,7,3,2.21-1.23,2.9-3.43,1.84-5.43l2.74-1.52.1.18c1.82,3.28.38,7.12-3.35,9.19-4.36,2.42-8.49.92-11.16-3.9l-1.15-2.07c-2.7-4.86-1.81-9.2,2.55-11.62,3.74-2.08,7.79-1.18,9.7,2.26l.1.18-2.74,1.52a4,4,0,0,0-5.7-1.54c-2.59,1.44-3,4.17-1.07,7.62Z"/>
      <path class="e88da000-1732-4e9a-b043-cf380e600531" d="M1748.51,187.71l-8-14.51-5,2.75-1.34-2.4,12.73-7.06,1.34,2.4-5,2.76,8,14.51Z"/>
      <path class="e88da000-1732-4e9a-b043-cf380e600531" d="M1758.38,182.24,1749,165.32l2.81-1.56,9.39,16.92Z"/>
      <path class="e88da000-1732-4e9a-b043-cf380e600531" d="M1771.54,175.37c-4.34,2.41-8.57,1.13-11.23-3.66l-1.28-2.32c-2.67-4.81-1.54-9.23,2.77-11.62s8.64-1,11.31,3.81l1.28,2.32C1777.05,168.68,1775.86,173,1771.54,175.37Zm-8.42-15.19c-2.4,1.34-3.21,4.12-1.27,7.61l1.3,2.35c1.95,3.5,4.67,4.17,7.07,2.83s3.27-4,1.32-7.49l-1.3-2.34C1768.3,159.64,1765.53,158.85,1763.12,160.18Z"/>
      <path class="e88da000-1732-4e9a-b043-cf380e600531" d="M1781.52,169.39l-9.39-16.92,2.48-1.37,14.73,7.71.09-.05-6.74-12.15,2.64-1.46,9.39,16.92-2.45,1.36-14.79-7.73-.07,0,6.76,12.18Z"/>
      <path class="e88da000-1732-4e9a-b043-cf380e600531" d="M1803.55,157.17l-9.39-16.92,10.44-5.79,1.32,2.39-7.62,4.23,2.88,5.18,7-3.87,1.31,2.36-7,3.87,3.88,7Z"/>
      <path class="e88da000-1732-4e9a-b043-cf380e600531" d="M1816.57,149.94,1807.18,133l2.81-1.56,9.39,16.92Z"/>
      <path class="e88da000-1732-4e9a-b043-cf380e600531" d="M1823.19,146.27l-9.39-16.92,2.48-1.38,14.73,7.71.09,0-6.74-12.15L1827,122l9.39,16.92-2.46,1.36-14.78-7.73-.07,0,6.76,12.19Z"/>
      <path class="e88da000-1732-4e9a-b043-cf380e600531" d="M1840.19,136.83l-9.39-16.91,2.81-1.57,9.39,16.92Z"/>
      <path class="e88da000-1732-4e9a-b043-cf380e600531" d="M1845.79,127.58c.94,1.39,2.92,1.93,5.32.6,2.19-1.22,2.92-3,2-4.57-.71-1.29-2-1.5-4-.93l-3.16.85c-2.46.7-5.14.49-6.67-2.26-1.79-3.24,0-6.58,3.33-8.4s7-1.58,8.83,1.55l-2.71,1.5c-.92-1.37-2.68-1.94-4.87-.73-1.94,1.08-2.74,2.72-1.87,4.3.61,1.1,1.82,1.47,3.59,1l3.15-.85c2.88-.79,5.48-.66,7.08,2.21,1.84,3.33.19,6.69-3.64,8.82-4.71,2.61-7.81.73-9.14-1.51Z"/>
      <path class="e88da000-1732-4e9a-b043-cf380e600531" d="M1872,119.17l-4.16-7.5-7.75,4.3,4.16,7.5-2.81,1.56-9.39-16.92,2.81-1.56,3.9,7,7.75-4.3-3.9-7,2.81-1.56,9.39,16.92Z"/>
      <path class="e88da000-1732-4e9a-b043-cf380e600531" d="M1889.19,109.64l-10.56,5.86-9.39-16.92,10.56-5.86,1.32,2.37-7.76,4.3,2.67,4.82,7.32-4,1.26,2.26-7.32,4.06,2.83,5.1,7.76-4.31Z"/>
      <path class="e88da000-1732-4e9a-b043-cf380e600531" d="M1888.88,87.68c5-2.8,9.17-1.18,12.19,4.26s2.22,9.87-2.8,12.66l-5.84,3.24L1883,90.92Zm5,16.23,2.73-1.51c3.14-1.74,3.95-4.46,1.53-8.81-2.15-3.87-4.83-5.3-8.29-3.38l-2.73,1.52Z"/>
    </g>
  </g>
  <g>
    <g>
      <g>
        <polygon class="a8551a31-ed70-4386-abfa-d8bd85f2c837" points="41.89 775.84 25 766.08 25 402.34 41.89 412.09 41.89 775.84"/>
        <path class="a4d649cd-91a3-4920-afbe-99d6f2cb8829" d="M41.89,776.83a1,1,0,0,1-.5-.13L24.5,767a1,1,0,0,1-.5-.87V402.34a1,1,0,0,1,.5-.87,1,1,0,0,1,1,0l16.89,9.75a1,1,0,0,1,.5.87V775.83a1,1,0,0,1-.5.87A1,1,0,0,1,41.89,776.83ZM26,765.51l14.89,8.59V412.67L26,404.07Z"/>
      </g>
      <g>
        <polygon class="a8551a31-ed70-4386-abfa-d8bd85f2c837" points="41.89 413.43 526.5 133.62 526.5 271.27 41.89 551.09 41.89 413.43"/>
        <path class="a4d649cd-91a3-4920-afbe-99d6f2cb8829" d="M41.89,552.09a1,1,0,0,1-.5-.14,1,1,0,0,1-.5-.86V413.43a1,1,0,0,1,.5-.87L526,132.75a1,1,0,0,1,1,0,1,1,0,0,1,.5.87V271.27a1,1,0,0,1-.5.87L42.39,552A1,1,0,0,1,41.89,552.09Zm1-138.08V549.35L525.5,270.7V135.35Z"/>
      </g>
      <g>
        <polygon class="a8551a31-ed70-4386-abfa-d8bd85f2c837" points="41.89 413.4 25.01 403.65 509.61 123.87 526.5 133.62 41.89 413.4"/>
        <path class="a4d649cd-91a3-4920-afbe-99d6f2cb8829" d="M41.89,414.4a1,1,0,0,1-.5-.13l-16.88-9.75a1,1,0,0,1,0-1.73L509.11,123a1,1,0,0,1,1,0L527,132.75a1,1,0,0,1,0,1.73L42.39,414.27A1,1,0,0,1,41.89,414.4ZM27,403.66l14.88,8.59L524.5,133.62,509.61,125Z"/>
      </g>
    </g>
    <g>
      <g>
        <g>
          <polygon class="a8551a31-ed70-4386-abfa-d8bd85f2c837" points="243.4 892.2 41.74 775.77 41.74 663.44 243.4 779.87 243.4 892.2"/>
          <path class="a4d649cd-91a3-4920-afbe-99d6f2cb8829" d="M243.4,893.2a1,1,0,0,1-.5-.14L41.24,776.63a1,1,0,0,1-.5-.86V663.44a1,1,0,0,1,.5-.87,1,1,0,0,1,1,0L243.9,779a1,1,0,0,1,.5.87V892.2a1,1,0,0,1-.5.86A1,1,0,0,1,243.4,893.2Zm-200.66-118L242.4,890.47v-110L42.74,665.17Z"/>
        </g>
        <g>
          <polygon class="a8551a31-ed70-4386-abfa-d8bd85f2c837" points="243.4 779.85 41.74 663.41 41.74 551.09 243.4 667.52 243.4 779.85"/>
          <path class="a4d649cd-91a3-4920-afbe-99d6f2cb8829" d="M243.4,780.84a1,1,0,0,1-.5-.13L41.24,664.28a1,1,0,0,1-.5-.87V551.09a1,1,0,0,1,.5-.87,1,1,0,0,1,1,0L243.9,666.65a1,1,0,0,1,.5.87V779.84a1,1,0,0,1-.5.87A1,1,0,0,1,243.4,780.84Zm-200.66-118L242.4,778.11v-110L42.74,552.82Z"/>
        </g>
        <g>
          <polygon class="a8551a31-ed70-4386-abfa-d8bd85f2c837" points="195.54 725.55 89.6 664.39 89.6 605.38 195.54 666.54 195.54 725.55"/>
          <path class="a4d649cd-91a3-4920-afbe-99d6f2cb8829" d="M195.54,726.55a1,1,0,0,1-.5-.13L89.1,665.25a1,1,0,0,1-.5-.86v-59a1,1,0,0,1,.5-.87,1,1,0,0,1,1,0L196,665.68a1,1,0,0,1,.5.86v59a1,1,0,0,1-.5.87A1,1,0,0,1,195.54,726.55ZM90.6,663.81l103.94,60v-56.7l-103.94-60Z"/>
        </g>
        <g>
          <polygon class="a8551a31-ed70-4386-abfa-d8bd85f2c837" points="182.13 710.34 103.01 664.66 103.01 620.6 182.13 666.27 182.13 710.34"/>
          <path class="a4d649cd-91a3-4920-afbe-99d6f2cb8829" d="M182.12,711.34a1,1,0,0,1-.5-.14l-79.11-45.67a1,1,0,0,1-.5-.87V620.6a1,1,0,0,1,.5-.87,1,1,0,0,1,1,0l79.11,45.67a1,1,0,0,1,.5.87v44.07a1,1,0,0,1-.5.86A1,1,0,0,1,182.12,711.34ZM104,664.08l77.11,44.52V666.85L104,622.33Z"/>
        </g>
      </g>
      <g>
        <g>
          <polygon class="a8551a31-ed70-4386-abfa-d8bd85f2c837" points="243.4 892.2 903 516.25 903 403.92 243.4 779.87 243.4 892.2"/>
          <path class="a4d649cd-91a3-4920-afbe-99d6f2cb8829" d="M243.4,893.2a1,1,0,0,1-1-1V779.87a1,1,0,0,1,.51-.87L902.5,403.05a1,1,0,0,1,1,0,1,1,0,0,1,.5.86V516.25a1,1,0,0,1-.5.87l-659.6,376A1.13,1.13,0,0,1,243.4,893.2Zm1-112.75v110L902,515.67v-110Z"/>
        </g>
        <g>
          <g>
            <polygon class="a8551a31-ed70-4386-abfa-d8bd85f2c837" points="375.05 764.91 771.58 535.97 771.58 526.21 375.05 755.14 375.05 764.91"/>
            <path class="a4d649cd-91a3-4920-afbe-99d6f2cb8829" d="M375.05,765.91a1,1,0,0,1-.5-.13,1,1,0,0,1-.5-.87v-9.77a1,1,0,0,1,.5-.86L771.08,525.34a1,1,0,0,1,1,0,1,1,0,0,1,.5.87V536a1,1,0,0,1-.5.87L375.55,765.78A1,1,0,0,1,375.05,765.91Zm1-10.19v7.46L770.58,535.4v-7.46Z"/>
          </g>
          <g>
            <polygon class="a8551a31-ed70-4386-abfa-d8bd85f2c837" points="375.05 788.11 771.58 559.17 771.58 549.4 375.05 778.34 375.05 788.11"/>
            <path class="a4d649cd-91a3-4920-afbe-99d6f2cb8829" d="M375.05,789.11a1,1,0,0,1-.5-.14,1,1,0,0,1-.5-.86v-9.77a1,1,0,0,1,.5-.87L771.08,548.54a1,1,0,0,1,1,0,1,1,0,0,1,.5.87v9.76a1,1,0,0,1-.5.87L375.55,789A1,1,0,0,1,375.05,789.11Zm1-10.19v7.46L770.58,558.6v-7.46Z"/>
          </g>
        </g>
        <g>
          <g>
            <path class="a8551a31-ed70-4386-abfa-d8bd85f2c837" d="M282.22,780.09c0,5.07,3.56,7.12,7.95,4.59a17.58,17.58,0,0,0,7.95-13.77c0-5.07-3.56-7.13-7.95-4.59S282.22,775,282.22,780.09Z"/>
            <path class="a4d649cd-91a3-4920-afbe-99d6f2cb8829" d="M286.61,786.77a5.16,5.16,0,0,1-2.57-.67c-1.82-1.05-2.82-3.19-2.82-6a18.44,18.44,0,0,1,8.45-14.64c2.44-1.41,4.79-1.61,6.62-.55s2.83,3.18,2.83,6a18.43,18.43,0,0,1-8.45,14.63A8.17,8.17,0,0,1,286.61,786.77Zm7.1-20.54a6.23,6.23,0,0,0-3,.95,16.5,16.5,0,0,0-7.45,12.91c0,2.08.65,3.6,1.82,4.28s2.82.48,4.63-.56a16.51,16.51,0,0,0,7.45-12.9c0-2.08-.65-3.6-1.83-4.28A3.09,3.09,0,0,0,293.71,766.23Z"/>
          </g>
          <g>
            <polygon class="a8551a31-ed70-4386-abfa-d8bd85f2c837" points="274.89 844.31 320.77 817.82 320.77 796 274.89 822.49 274.89 844.31"/>
            <path class="a4d649cd-91a3-4920-afbe-99d6f2cb8829" d="M274.89,845.31a1,1,0,0,1-.5-.14,1,1,0,0,1-.5-.86V822.49a1,1,0,0,1,.5-.87l45.89-26.49a1,1,0,0,1,1,0,1,1,0,0,1,.5.87v21.82a1,1,0,0,1-.5.87l-45.89,26.48A1,1,0,0,1,274.89,845.31Zm1-22.24v19.51l43.89-25.34V797.73Z"/>
          </g>
        </g>
        <g>
          <g>
            <path class="a8551a31-ed70-4386-abfa-d8bd85f2c837" d="M864.62,443.84a17.55,17.55,0,0,1-8,13.76c-4.39,2.54-7.95.49-7.95-4.58s3.56-11.24,7.95-13.77S864.62,438.77,864.62,443.84Z"/>
            <path class="a4d649cd-91a3-4920-afbe-99d6f2cb8829" d="M853.12,459.7a5.13,5.13,0,0,1-2.57-.67c-1.83-1.06-2.83-3.19-2.83-6a18.42,18.42,0,0,1,8.45-14.64c2.45-1.41,4.8-1.61,6.62-.56s2.83,3.19,2.83,6a18.41,18.41,0,0,1-8.45,14.63A8.27,8.27,0,0,1,853.12,459.7Zm7.1-20.54a6.27,6.27,0,0,0-3.05.95A16.48,16.48,0,0,0,849.72,453c0,2.07.65,3.6,1.83,4.28s2.82.48,4.62-.56a16.48,16.48,0,0,0,7.45-12.9c0-2.08-.65-3.6-1.83-4.28A3.06,3.06,0,0,0,860.22,439.16Z"/>
          </g>
          <g>
            <polygon class="a8551a31-ed70-4386-abfa-d8bd85f2c837" points="868.18 501.83 822.3 528.31 822.3 506.5 868.18 480.01 868.18 501.83"/>
            <path class="a4d649cd-91a3-4920-afbe-99d6f2cb8829" d="M822.3,529.31a1,1,0,0,1-.5-.13,1,1,0,0,1-.5-.87V506.5a1,1,0,0,1,.5-.87l45.88-26.49a1,1,0,0,1,1,0,1,1,0,0,1,.5.87v21.82a1,1,0,0,1-.5.86L822.8,529.18A1,1,0,0,1,822.3,529.31Zm1-22.24v19.51l43.88-25.33V481.74Zm44.88-5.24h0Z"/>
          </g>
        </g>
        <g>
          <polygon class="a8551a31-ed70-4386-abfa-d8bd85f2c837" points="243.4 667.65 903.23 286.7 903.23 398.92 243.4 779.87 243.4 667.65"/>
          <path class="a4d649cd-91a3-4920-afbe-99d6f2cb8829" d="M243.4,780.87a1,1,0,0,1-.5-.13,1,1,0,0,1-.5-.87V667.65a1,1,0,0,1,.5-.87L902.72,285.83a1,1,0,0,1,1,0,1,1,0,0,1,.5.87V398.92a1,1,0,0,1-.5.87l-659.82,381A1,1,0,0,1,243.4,780.87Zm1-112.64V778.14l657.82-379.8V288.43Z"/>
        </g>
        <g>
          <polygon class="a8551a31-ed70-4386-abfa-d8bd85f2c837" points="728.01 500.08 864.62 421.21 864.62 308.99 728.01 387.86 728.01 500.08"/>
          <path class="a4d649cd-91a3-4920-afbe-99d6f2cb8829" d="M728,501.08a1,1,0,0,1-.5-.13,1,1,0,0,1-.5-.87V387.86a1,1,0,0,1,.5-.86l136.61-78.88a1,1,0,0,1,1,0,1,1,0,0,1,.5.87V421.21a1,1,0,0,1-.5.87L728.51,501A1,1,0,0,1,728,501.08Zm1-112.64V498.35l134.61-77.72V310.72Z"/>
        </g>
        <g>
          <polygon class="a8551a31-ed70-4386-abfa-d8bd85f2c837" points="738.38 494.1 854.25 427.2 854.25 314.98 738.38 381.88 738.38 494.1"/>
          <path class="a4d649cd-91a3-4920-afbe-99d6f2cb8829" d="M738.38,495.1a1,1,0,0,1-.5-.14,1,1,0,0,1-.5-.86V381.88a1,1,0,0,1,.5-.87l115.87-66.9a1,1,0,0,1,1,0,1,1,0,0,1,.5.87V427.2a1,1,0,0,1-.5.86L738.88,495A1,1,0,0,1,738.38,495.1Zm1-112.65V492.36l113.87-65.74V316.71Z"/>
        </g>
        <g>
          <g>
            <path class="a8551a31-ed70-4386-abfa-d8bd85f2c837" d="M824.53,388.24c0,6.6,4.64,9.28,10.36,6s10.35-11.33,10.35-17.93-4.64-9.28-10.35-6S824.53,381.64,824.53,388.24Z"/>
            <path class="a4d649cd-91a3-4920-afbe-99d6f2cb8829" d="M830.26,396.64a6.3,6.3,0,0,1-3.19-.83c-2.28-1.32-3.54-4-3.54-7.57,0-6.91,4.87-15.34,10.86-18.79,3.08-1.78,6-2,8.32-.73s3.53,4,3.53,7.57c0,6.91-4.87,15.34-10.85,18.79A10.36,10.36,0,0,1,830.26,396.64Zm9.24-26.74a8.4,8.4,0,0,0-4.11,1.28c-5.44,3.14-9.86,10.79-9.86,17.06,0,2.82.9,4.89,2.54,5.84s3.87.68,6.32-.73c5.43-3.13,9.85-10.79,9.85-17.06,0-2.82-.9-4.89-2.53-5.84A4.39,4.39,0,0,0,839.5,369.9Z"/>
          </g>
          <g>
            <path class="a8551a31-ed70-4386-abfa-d8bd85f2c837" d="M786,410.51c0,6.6,4.64,9.28,10.35,6s10.35-11.33,10.35-17.93-4.63-9.28-10.35-6S786,403.91,786,410.51Z"/>
            <path class="a4d649cd-91a3-4920-afbe-99d6f2cb8829" d="M791.69,418.91a6.36,6.36,0,0,1-3.2-.83c-2.27-1.32-3.53-4-3.53-7.57,0-6.91,4.87-15.34,10.85-18.79,3.09-1.78,6-2,8.32-.73s3.53,4,3.53,7.57c0,6.91-4.86,15.34-10.85,18.79A10.32,10.32,0,0,1,791.69,418.91Zm9.24-26.74a8.46,8.46,0,0,0-4.12,1.28c-5.43,3.13-9.85,10.79-9.85,17.06,0,2.82.9,4.9,2.53,5.84s3.88.68,6.32-.73c5.44-3.13,9.85-10.79,9.85-17.06,0-2.82-.9-4.89-2.53-5.84A4.36,4.36,0,0,0,800.93,392.17Z"/>
          </g>
          <g>
            <path class="a8551a31-ed70-4386-abfa-d8bd85f2c837" d="M747.39,432.78c0,6.6,4.63,9.28,10.35,6s10.35-11.33,10.35-17.93-4.63-9.28-10.35-6S747.39,426.18,747.39,432.78Z"/>
            <path class="a4d649cd-91a3-4920-afbe-99d6f2cb8829" d="M753.11,441.18a6.35,6.35,0,0,1-3.19-.83c-2.28-1.31-3.53-4-3.53-7.57,0-6.91,4.87-15.34,10.85-18.79,3.09-1.78,6-2,8.32-.73s3.53,4,3.53,7.57c0,6.91-4.87,15.34-10.85,18.79A10.33,10.33,0,0,1,753.11,441.18Zm9.25-26.74a8.46,8.46,0,0,0-4.12,1.28c-5.43,3.14-9.85,10.79-9.85,17.06,0,2.82.9,4.89,2.53,5.84s3.88.68,6.32-.73c5.43-3.13,9.85-10.79,9.85-17.06,0-2.82-.9-4.89-2.53-5.84A4.38,4.38,0,0,0,762.36,414.44Z"/>
          </g>
        </g>
        <g>
          <polygon class="a8551a31-ed70-4386-abfa-d8bd85f2c837" points="243.4 745.19 728.01 465.4 728.01 422.55 243.4 702.33 243.4 745.19"/>
          <path class="a4d649cd-91a3-4920-afbe-99d6f2cb8829" d="M243.4,746.19a1,1,0,0,1-1-1V702.33a1,1,0,0,1,.5-.86L727.51,421.68a1,1,0,0,1,1,0,1,1,0,0,1,.5.87V465.4a1,1,0,0,1-.5.87L243.9,746.05A1,1,0,0,1,243.4,746.19Zm1-43.28v40.54L727,464.82V424.28Z"/>
        </g>
        <g>
          <polygon class="a8551a31-ed70-4386-abfa-d8bd85f2c837" points="243.4 690.07 728.01 410.28 728.01 422.55 243.4 702.33 243.4 690.07"/>
          <path class="a4d649cd-91a3-4920-afbe-99d6f2cb8829" d="M243.4,703.33a1,1,0,0,1-.5-.13,1,1,0,0,1-.5-.87V690.07a1,1,0,0,1,.5-.87L727.51,409.42a1,1,0,0,1,1,0,1,1,0,0,1,.5.86v12.27a1,1,0,0,1-.5.86L243.9,703.2A1,1,0,0,1,243.4,703.33Zm1-12.69v10L727,422V412Z"/>
        </g>
      </g>
      <g>
        <g>
          <polygon class="a8551a31-ed70-4386-abfa-d8bd85f2c837" points="903.23 286.68 701.57 170.25 526.35 271.41 728.01 387.84 903.23 286.68"/>
          <path class="a4d649cd-91a3-4920-afbe-99d6f2cb8829" d="M728,388.84a1,1,0,0,1-.5-.14L525.85,272.28a1,1,0,0,1,0-1.74L701.07,169.38a1,1,0,0,1,1,0L903.72,285.81a1,1,0,0,1,0,1.73L728.51,388.7A1,1,0,0,1,728,388.84ZM528.35,271.41,728,386.68l173.21-100L701.57,171.4Z"/>
        </g>
        <g>
          <g>
            <polygon class="a8551a31-ed70-4386-abfa-d8bd85f2c837" points="243.4 667.63 41.74 551.2 526.35 271.41 728.01 387.84 243.4 667.63"/>
            <path class="a4d649cd-91a3-4920-afbe-99d6f2cb8829" d="M243.4,668.62a1,1,0,0,1-.5-.13L41.24,552.06a1,1,0,0,1-.5-.86,1,1,0,0,1,.5-.87L525.85,270.54a1,1,0,0,1,1,0L728.51,387a1,1,0,0,1,.5.87,1,1,0,0,1-.5.86L243.9,668.49A1,1,0,0,1,243.4,668.62ZM43.74,551.2,243.4,666.47,726,387.84,526.35,272.57Z"/>
          </g>
          <g>
            <polygon class="a8551a31-ed70-4386-abfa-d8bd85f2c837" points="188.47 635.91 96.67 582.91 581.27 303.12 673.08 356.13 188.47 635.91"/>
            <path class="a4d649cd-91a3-4920-afbe-99d6f2cb8829" d="M188.47,636.91a1,1,0,0,1-.5-.13l-91.8-53a1,1,0,0,1,0-1.74l484.6-279.78a1,1,0,0,1,1,0l91.81,53a1,1,0,0,1,0,1.73L189,636.78A1,1,0,0,1,188.47,636.91Zm-89.8-54,89.8,51.85L671.08,356.13l-89.81-51.85Z"/>
          </g>
          <g>
            <polygon class="a8551a31-ed70-4386-abfa-d8bd85f2c837" points="170.96 625.8 114.18 593.02 598.79 313.24 655.57 346.01 170.96 625.8"/>
            <path class="a4d649cd-91a3-4920-afbe-99d6f2cb8829" d="M171,626.8a1,1,0,0,1-.5-.13l-56.78-32.78a1,1,0,0,1-.5-.87,1,1,0,0,1,.5-.86L598.29,312.37a1,1,0,0,1,1,0l56.78,32.78a1,1,0,0,1,0,1.73L171.46,626.67A1,1,0,0,1,171,626.8ZM116.18,593,171,624.65,653.57,346l-54.78-31.62Z"/>
          </g>
          <g>
            <polygon class="a8551a31-ed70-4386-abfa-d8bd85f2c837" points="151.61 614.63 636.21 334.84 618.14 324.41 133.53 604.19 151.61 614.63"/>
            <path class="a4d649cd-91a3-4920-afbe-99d6f2cb8829" d="M151.61,615.63a1.09,1.09,0,0,1-.5-.13L133,605.06a1,1,0,0,1,0-1.73l484.6-279.79a1,1,0,0,1,1,0L636.71,334a1,1,0,0,1,.5.86,1,1,0,0,1-.5.87L152.11,615.5A1.13,1.13,0,0,1,151.61,615.63Zm-16.07-11.44,16.07,9.28,482.6-278.63-16.07-9.28Z"/>
          </g>
        </g>
      </g>
      <g>
        <g>
          <g>
            <polygon class="a8551a31-ed70-4386-abfa-d8bd85f2c837" points="903.23 127.97 701.57 11.54 526.35 112.7 728.01 229.13 903.23 127.97"/>
            <path class="a4d649cd-91a3-4920-afbe-99d6f2cb8829" d="M728,230.13a1,1,0,0,1-.5-.14L525.85,113.57a1,1,0,0,1,0-1.74L701.07,10.67a1,1,0,0,1,1,0L903.72,127.1a1,1,0,0,1,0,1.73L728.51,230A1,1,0,0,1,728,230.13ZM528.35,112.7,728,228,901.22,128,701.57,12.69Z"/>
          </g>
          <g>
            <polygon class="a8551a31-ed70-4386-abfa-d8bd85f2c837" points="728.01 229.13 526.35 112.7 476.67 141.38 678.33 257.81 728.01 229.13"/>
            <path class="a4d649cd-91a3-4920-afbe-99d6f2cb8829" d="M678.33,258.81a1,1,0,0,1-.5-.13L476.17,142.25a1,1,0,0,1,0-1.73l49.68-28.69a1,1,0,0,1,1,0L728.51,228.26a1,1,0,0,1,.5.87,1,1,0,0,1-.5.86l-49.68,28.69A1,1,0,0,1,678.33,258.81ZM478.67,141.38,678.33,256.66,726,229.13,526.35,113.85Z"/>
          </g>
        </g>
        <g>
          <polygon class="a8551a31-ed70-4386-abfa-d8bd85f2c837" points="476.66 141.4 476.66 300.09 678.33 416.52 678.33 257.83 476.66 141.4"/>
          <path class="a4d649cd-91a3-4920-afbe-99d6f2cb8829" d="M678.33,417.52a1,1,0,0,1-.5-.13L476.16,301a1,1,0,0,1-.5-.87V141.4a1,1,0,0,1,.5-.87,1,1,0,0,1,1,0L678.83,257a1,1,0,0,1,.5.87V416.52a1,1,0,0,1-1,1Zm-200.67-118L677.33,414.79V258.41L477.66,143.13Z"/>
        </g>
        <g>
          <g>
            <polygon class="a8551a31-ed70-4386-abfa-d8bd85f2c837" points="903.23 286.68 903.23 127.98 728.01 229.15 728.01 387.84 903.23 286.68"/>
            <path class="a4d649cd-91a3-4920-afbe-99d6f2cb8829" d="M728,388.84a1,1,0,0,1-1-1V229.15a1,1,0,0,1,.5-.87L902.72,127.12a1,1,0,0,1,1.5.86v158.7a1,1,0,0,1-.5.86L728.51,388.7A1,1,0,0,1,728,388.84Zm1-159.12V386.11l173.21-100V129.72Zm174.21,57h0Z"/>
          </g>
          <g>
            <polygon class="a8551a31-ed70-4386-abfa-d8bd85f2c837" points="728.01 387.84 728.01 229.15 678.33 257.83 678.33 416.52 728.01 387.84"/>
            <path class="a4d649cd-91a3-4920-afbe-99d6f2cb8829" d="M678.33,417.52a1,1,0,0,1-.5-.13,1,1,0,0,1-.5-.87V257.83a1,1,0,0,1,.5-.87l49.68-28.68a1,1,0,0,1,1,0,1,1,0,0,1,.5.87V387.84a1,1,0,0,1-.5.86l-49.68,28.69A1,1,0,0,1,678.33,417.52Zm1-159.11V414.79L727,387.26V230.88ZM728,387.84h0Z"/>
          </g>
          <g>
            <g>
              <polygon class="a8551a31-ed70-4386-abfa-d8bd85f2c837" points="738.38 346.09 892.86 256.9 892.86 195.25 738.38 284.44 738.38 346.09"/>
              <path class="a4d649cd-91a3-4920-afbe-99d6f2cb8829" d="M738.38,347.09a1,1,0,0,1-1-1V284.44a1,1,0,0,1,.5-.86l154.48-89.19a1,1,0,0,1,1,0,1,1,0,0,1,.5.86V256.9a1,1,0,0,1-.5.86L738.88,347A1,1,0,0,1,738.38,347.09Zm1-62.07v59.34l152.48-88V197Z"/>
            </g>
            <g>
              <polygon class="a8551a31-ed70-4386-abfa-d8bd85f2c837" points="809.99 201.43 890.56 154.91 890.56 176.41 809.99 222.93 809.99 201.43"/>
              <path class="a4d649cd-91a3-4920-afbe-99d6f2cb8829" d="M810,223.93a1,1,0,0,1-.5-.13,1,1,0,0,1-.5-.87v-21.5a1,1,0,0,1,.5-.87L890.06,154a1,1,0,0,1,1,0,1,1,0,0,1,.5.87v21.5a1,1,0,0,1-.5.87L810.49,223.8A1,1,0,0,1,810,223.93ZM811,202V221.2l78.57-45.37V156.64Z"/>
            </g>
          </g>
          <g>
            <path class="a8551a31-ed70-4386-abfa-d8bd85f2c837" d="M768.38,297.94c0,11,7.7,15.43,17.21,9.94S802.8,289,802.8,278.07s-7.71-15.43-17.21-9.94S768.38,287,768.38,297.94Z"/>
            <path class="a4d649cd-91a3-4920-afbe-99d6f2cb8829" d="M777.9,311.24a9.83,9.83,0,0,1-5-1.29c-3.58-2.06-5.54-6.33-5.54-12,0-11.27,7.94-25,17.71-30.67,4.92-2.84,9.59-3.27,13.17-1.21s5.54,6.33,5.54,12c0,11.28-7.95,25-17.71,30.68A16.7,16.7,0,0,1,777.9,311.24Zm15.37-44.46a14.59,14.59,0,0,0-7.18,2.22c-9.22,5.32-16.71,18.3-16.71,28.94,0,4.94,1.61,8.59,4.54,10.28s6.89,1.26,11.17-1.21c9.21-5.32,16.71-18.3,16.71-28.94,0-4.94-1.61-8.59-4.54-10.28A7.87,7.87,0,0,0,793.27,266.78Z"/>
          </g>
          <g>
            <path class="a8551a31-ed70-4386-abfa-d8bd85f2c837" d="M844.54,192.23c0,3.66,2.57,5.14,5.74,3.31a12.68,12.68,0,0,0,5.73-9.93c0-3.66-2.57-5.14-5.73-3.31A12.67,12.67,0,0,0,844.54,192.23Z"/>
            <path class="a4d649cd-91a3-4920-afbe-99d6f2cb8829" d="M847.71,197.33a3.89,3.89,0,0,1-2-.52c-1.4-.81-2.18-2.44-2.18-4.58a13.59,13.59,0,0,1,6.24-10.8c1.85-1.07,3.64-1.21,5.05-.4s2.18,2.44,2.18,4.58a13.61,13.61,0,0,1-6.23,10.8A6.27,6.27,0,0,1,847.71,197.33Zm5.12-14.82a4.26,4.26,0,0,0-2.05.65,11.77,11.77,0,0,0-5.24,9.07,2.54,2.54,0,0,0,4.24,2.45,11.8,11.8,0,0,0,5.23-9.07,3.11,3.11,0,0,0-1.18-2.85A1.93,1.93,0,0,0,852.83,182.51Z"/>
          </g>
        </g>
      </g>
      <g>
        <g>
          <path class="a8551a31-ed70-4386-abfa-d8bd85f2c837" d="M515,229l12.64,21.25,54.67,91.88,11.29,19,25.36-14.62,2.29-1.34c7.59-4.74,12.72-13.59,14.46-25.67a64.23,64.23,0,0,0,.55-9,78.79,78.79,0,0,0-.55-9.64c-3.55-29.23-22.12-61.46-45.74-79.08a75.73,75.73,0,0,0-8.06-5.37,61.49,61.49,0,0,0-8.06-4c-11.69-4.74-22.2-4.51-30.18.08v-.08Z"/>
          <path class="a4d649cd-91a3-4920-afbe-99d6f2cb8829" d="M593.55,362.09a1,1,0,0,1-.86-.49l-11.29-19L514.09,229.51a1,1,0,0,1-.11-.76,1,1,0,0,1,.46-.62l28.68-16.59a1,1,0,0,1,.36-.12c8.34-4.61,19.21-4.59,30.7.06a63.41,63.41,0,0,1,8.18,4,76.55,76.55,0,0,1,8.16,5.44c23.59,17.59,42.56,50.39,46.14,79.76a81.52,81.52,0,0,1,.55,9.76,66.38,66.38,0,0,1-.56,9.15c-1.76,12.26-6.92,21.38-14.92,26.38l-2.31,1.36L594.05,362A1,1,0,0,1,593.55,362.09ZM516.32,229.36l77.59,130.37,26.79-15.46c7.46-4.66,12.3-13.3,14-25a63.76,63.76,0,0,0,.54-8.86,79.57,79.57,0,0,0-.54-9.52c-3.51-28.86-22.16-61.1-45.35-78.4a73.63,73.63,0,0,0-8-5.3,60.88,60.88,0,0,0-7.93-3.89c-11.24-4.56-21.37-4.55-29.32,0a.73.73,0,0,1-.34.12Z"/>
        </g>
        <g>
          <path class="a8551a31-ed70-4386-abfa-d8bd85f2c837" d="M474.56,232,490,258l67,112.54,13.83,23.22,31.07-17.9,2.8-1.65c9.29-5.8,15.58-16.64,17.71-31.44a80.1,80.1,0,0,0,.68-11,98.44,98.44,0,0,0-.68-11.8c-4.36-35.8-27.1-75.28-56-96.86a90.53,90.53,0,0,0-9.87-6.58,75.84,75.84,0,0,0-9.87-4.84c-14.32-5.81-27.19-5.52-37,.1v-.1Z"/>
          <path class="a4d649cd-91a3-4920-afbe-99d6f2cb8829" d="M570.84,394.74a1,1,0,0,1-.86-.49L556.15,371,473.7,232.46a1.06,1.06,0,0,1-.11-.76,1,1,0,0,1,.47-.61l35.13-20.33a1.11,1.11,0,0,1,.4-.13C519.74,205,533,205,547,210.7a77,77,0,0,1,10,4.9,93.91,93.91,0,0,1,10,6.65c28.84,21.51,52,61.62,56.41,97.54a97.72,97.72,0,0,1,.69,11.92,79.67,79.67,0,0,1-.69,11.18C621.26,357.84,615,369,605.24,375l-2.83,1.66-31.07,17.91A1,1,0,0,1,570.84,394.74Zm-94.9-162.43L571.2,392.38l33-19.05c9.19-5.75,15.16-16.38,17.22-30.73a78.49,78.49,0,0,0,.67-10.89,97.87,97.87,0,0,0-.67-11.68c-4.31-35.41-27.19-75-55.64-96.18a91.56,91.56,0,0,0-9.76-6.52,77.6,77.6,0,0,0-9.74-4.77c-13.83-5.61-26.31-5.59-36.1,0a1.2,1.2,0,0,1-.39.13Z"/>
        </g>
        <g>
          <path class="a8551a31-ed70-4386-abfa-d8bd85f2c837" d="M456.12,274.41a93.49,93.49,0,0,0,.76,11.85c4.27,35.85,27.06,75.33,55.89,96.91a94.8,94.8,0,0,0,9.89,6.58,74.81,74.81,0,0,0,9.89,4.84c28.91,11.76,51.7-1.4,56-32.32a75.89,75.89,0,0,0,.75-11,95.35,95.35,0,0,0-.75-11.85c-4.28-35.76-27.07-75.24-56-96.86a94.8,94.8,0,0,0-9.89-6.58,74.81,74.81,0,0,0-9.89-4.84c-28.83-11.71-51.62,1.45-55.89,32.27A74.54,74.54,0,0,0,456.12,274.41Z"/>
          <path class="a4d649cd-91a3-4920-afbe-99d6f2cb8829" d="M552.5,399.88a54.23,54.23,0,0,1-20.33-4.36,76.55,76.55,0,0,1-10-4.9,96.24,96.24,0,0,1-10-6.65c-28.87-21.61-52-61.74-56.29-97.59a96.44,96.44,0,0,1-.76-12,75.9,75.9,0,0,1,.77-11.13c2.14-15.43,8.79-26.77,19.23-32.8s23.59-6.11,38-.25a76.55,76.55,0,0,1,10,4.9,94.67,94.67,0,0,1,10,6.65c28.91,21.62,52.09,61.73,56.37,97.54a94.54,94.54,0,0,1,.76,12,77.36,77.36,0,0,1-.76,11.13c-2.14,15.48-8.8,26.85-19.24,32.88A35.12,35.12,0,0,1,552.5,399.88Zm-59.59-172a33.16,33.16,0,0,0-16.79,4.31c-9.89,5.71-16.2,16.55-18.25,31.36a73.43,73.43,0,0,0-.75,10.84,92.74,92.74,0,0,0,.75,11.73c4.21,35.36,27,74.93,55.5,96.23a95.1,95.1,0,0,0,9.79,6.52,74.56,74.56,0,0,0,9.76,4.77c13.89,5.65,26.46,5.62,36.36-.09s16.2-16.58,18.26-31.43a75,75,0,0,0,.74-10.85,94.61,94.61,0,0,0-.74-11.73c-4.23-35.31-27.08-74.86-55.59-96.18a93,93,0,0,0-9.79-6.52,73.94,73.94,0,0,0-9.76-4.77A52.14,52.14,0,0,0,492.91,227.9Z"/>
        </g>
      </g>
      <g>
        <g>
          <g>
            <polygon class="a8551a31-ed70-4386-abfa-d8bd85f2c837" points="434.68 504 516.09 457 375.61 375.89 294.2 422.89 434.68 504"/>
            <path class="a4d649cd-91a3-4920-afbe-99d6f2cb8829" d="M434.68,505a1,1,0,0,1-.5-.13L293.7,423.76a1,1,0,0,1,0-1.73l81.41-47a1,1,0,0,1,1,0l140.48,81.11a1,1,0,0,1,0,1.74l-81.41,47A1,1,0,0,1,434.68,505ZM296.2,422.89l138.48,80L514.09,457,375.61,377Z"/>
          </g>
          <g>
            <g>
              <polygon class="a8551a31-ed70-4386-abfa-d8bd85f2c837" points="434.69 504.01 434.69 527.59 294.19 446.48 294.19 422.89 434.69 504.01"/>
              <path class="a4d649cd-91a3-4920-afbe-99d6f2cb8829" d="M434.68,528.59a1,1,0,0,1-.5-.13L293.69,447.35a1,1,0,0,1-.5-.87V422.9a1,1,0,0,1,.5-.87,1,1,0,0,1,1,0l140.49,81.11a1,1,0,0,1,.5.87v23.58a1,1,0,0,1-.5.87A1,1,0,0,1,434.68,528.59ZM295.19,445.9l138.49,80V504.58L295.19,424.63Z"/>
            </g>
            <g>
              <polygon class="a8551a31-ed70-4386-abfa-d8bd85f2c837" points="434.69 527.59 434.69 504.01 516.1 457 516.1 480.59 434.69 527.59"/>
              <path class="a4d649cd-91a3-4920-afbe-99d6f2cb8829" d="M434.68,528.59a1,1,0,0,1-.5-.13,1,1,0,0,1-.5-.87V504a1,1,0,0,1,.5-.87l81.41-47a1,1,0,0,1,1.5.86v23.59a1,1,0,0,1-.5.87l-81.41,47A1,1,0,0,1,434.68,528.59Zm1-24v21.28L515.09,480V458.74Z"/>
            </g>
          </g>
        </g>
        <g>
          <g>
            <polygon class="a8551a31-ed70-4386-abfa-d8bd85f2c837" points="427.01 465.44 487.29 430.64 383.28 370.59 323 405.39 427.01 465.44"/>
            <path class="a4d649cd-91a3-4920-afbe-99d6f2cb8829" d="M427,466.44a1.13,1.13,0,0,1-.5-.13l-104-60.05a1,1,0,0,1,0-1.74l60.28-34.79a1,1,0,0,1,1,0l104,60a1,1,0,0,1,.5.86,1,1,0,0,1-.5.87l-60.28,34.8A1.06,1.06,0,0,1,427,466.44ZM325,405.39l102,58.9,58.28-33.65-102-58.89Z"/>
          </g>
          <g>
            <g>
              <polygon class="a8551a31-ed70-4386-abfa-d8bd85f2c837" points="427.01 465.44 427.01 482.9 323 422.85 323 405.39 427.01 465.44"/>
              <path class="a4d649cd-91a3-4920-afbe-99d6f2cb8829" d="M427,483.9a1,1,0,0,1-.5-.13l-104-60a1,1,0,0,1-.5-.87V405.39a1,1,0,0,1,.5-.86,1,1,0,0,1,1,0l104,60.05a1,1,0,0,1,.5.86V482.9a1,1,0,0,1-.5.87A1,1,0,0,1,427,483.9ZM324,422.28l102,58.89V466l-102-58.9Z"/>
            </g>
            <g>
              <polygon class="a8551a31-ed70-4386-abfa-d8bd85f2c837" points="427.01 482.9 427.01 465.44 487.29 430.64 487.29 448.11 427.01 482.9"/>
              <path class="a4d649cd-91a3-4920-afbe-99d6f2cb8829" d="M427,483.9a1,1,0,0,1-.5-.13,1,1,0,0,1-.5-.87V465.44a1,1,0,0,1,.5-.86l60.28-34.8a1,1,0,0,1,1.5.86v17.47a1,1,0,0,1-.5.86l-60.28,34.8A1,1,0,0,1,427,483.9ZM428,466v15.15l58.28-33.64V432.38Z"/>
            </g>
          </g>
        </g>
        <g>
          <g>
            <g>
              <polygon class="a8551a31-ed70-4386-abfa-d8bd85f2c837" points="434.69 504 516.1 457 516.1 345.86 434.69 392.86 434.69 504"/>
              <path class="a4d649cd-91a3-4920-afbe-99d6f2cb8829" d="M434.68,505a1,1,0,0,1-.5-.13,1,1,0,0,1-.5-.87V392.86a1,1,0,0,1,.5-.86l81.41-47a1,1,0,0,1,1,0,1,1,0,0,1,.5.87V457a1,1,0,0,1-.5.87l-81.41,47A1,1,0,0,1,434.68,505Zm1-111.56V502.27l79.41-45.85V347.59Z"/>
            </g>
            <g>
              <path class="a8551a31-ed70-4386-abfa-d8bd85f2c837" d="M461.37,453.67l28-16.19c5.2-3,9.42-11.07,9.42-18V392c0-6.94-4.22-10.13-9.42-7.13l-28,16.19c-5.2,3-9.42,11.07-9.42,18v27.52C452,453.48,456.17,456.67,461.37,453.67Z"/>
              <path class="a4d649cd-91a3-4920-afbe-99d6f2cb8829" d="M457.62,455.8a5.82,5.82,0,0,1-2.92-.77c-2.38-1.38-3.75-4.47-3.75-8.49V419c0-7.24,4.45-15.7,9.92-18.86l28-16.19c2.59-1.5,5.13-1.67,7.17-.5,2.38,1.38,3.75,4.47,3.75,8.49v27.51c0,7.25-4.45,15.71-9.92,18.87l-28,16.19h0A8.6,8.6,0,0,1,457.62,455.8Zm35.53-71.09a6.59,6.59,0,0,0-3.24,1l-28,16.19C457,404.73,453,412.42,453,419v27.52c0,3.28,1,5.74,2.75,6.76,1.39.8,3.22.62,5.17-.5l28-16.19c4.92-2.84,8.92-10.53,8.92-17.14V392c0-3.29-1-5.75-2.75-6.76A3.85,3.85,0,0,0,493.15,384.71Zm-31.78,69h0Z"/>
            </g>
          </g>
          <g>
            <polygon class="a8551a31-ed70-4386-abfa-d8bd85f2c837" points="424.5 386.97 505.91 339.96 516.1 345.84 434.68 392.85 424.5 386.97"/>
            <path class="a4d649cd-91a3-4920-afbe-99d6f2cb8829" d="M434.68,393.85a1,1,0,0,1-.5-.14L424,387.83a1,1,0,0,1,0-1.73l81.41-47a1,1,0,0,1,1,0L516.59,345a1,1,0,0,1,0,1.73l-81.41,47A1,1,0,0,1,434.68,393.85ZM426.5,387l8.18,4.72,79.41-45.85-8.18-4.72Z"/>
          </g>
          <g>
            <polygon class="a8551a31-ed70-4386-abfa-d8bd85f2c837" points="424.5 498.12 424.5 386.98 434.69 392.86 434.69 504 424.5 498.12"/>
            <path class="a4d649cd-91a3-4920-afbe-99d6f2cb8829" d="M434.68,505a1,1,0,0,1-.5-.13L424,499a1,1,0,0,1-.5-.87V387a1,1,0,0,1,.5-.86,1,1,0,0,1,1,0L435.18,392a1,1,0,0,1,.5.86V504a1,1,0,0,1-.5.87A1,1,0,0,1,434.68,505Zm-9.18-7.46,8.18,4.73V393.44l-8.18-4.73Z"/>
          </g>
        </g>
      </g>
      <g>
        <g>
          <g>
            <path class="a8551a31-ed70-4386-abfa-d8bd85f2c837" d="M300,419.68l13.74,22.24,14.11-8.07.52-.32c1.63-1,2.63-3,2.63-5.93,0-5.92-4.15-13.11-9.24-16.05-2.57-1.46-4.87-1.62-6.5-.68Z"/>
            <path class="a4d649cd-91a3-4920-afbe-99d6f2cb8829" d="M313.76,442.92a1,1,0,0,1-.85-.47l-13.74-22.24a1,1,0,0,1,.35-1.39L314.78,410c2-1.18,4.68-.93,7.5.68,5.37,3.1,9.74,10.68,9.74,16.91,0,3.15-1.11,5.56-3.1,6.78l-.54.32-14.12,8.09A1,1,0,0,1,313.76,442.92ZM301.41,420l12.69,20.54,13.78-7.9c1.37-.84,2.14-2.64,2.14-5.07,0-5.59-3.92-12.4-8.74-15.18-2.13-1.22-4.14-1.47-5.5-.68Z"/>
          </g>
          <g>
            <path class="a8551a31-ed70-4386-abfa-d8bd85f2c837" d="M316.05,436.23c0,5.91-4.15,8.31-9.26,5.35s-9.27-10.14-9.27-16,4.15-8.31,9.27-5.35S316.05,430.33,316.05,436.23Z"/>
            <path class="a4d649cd-91a3-4920-afbe-99d6f2cb8829" d="M310.93,443.85a9.4,9.4,0,0,1-4.64-1.4c-5.39-3.11-9.77-10.7-9.77-16.91,0-3.23,1.14-5.67,3.22-6.87s4.75-1,7.55.65c5.38,3.11,9.76,10.7,9.76,16.92,0,3.22-1.14,5.66-3.21,6.86A5.81,5.81,0,0,1,310.93,443.85Zm-8.28-23.93a3.79,3.79,0,0,0-1.91.48c-1.43.83-2.22,2.65-2.22,5.14,0,5.58,3.93,12.39,8.77,15.18,2.15,1.24,4.12,1.47,5.55.65s2.21-2.65,2.21-5.13c0-5.59-3.93-12.4-8.76-15.19A7.51,7.51,0,0,0,302.65,419.92Z"/>
          </g>
        </g>
        <g>
          <g>
            <path class="a8551a31-ed70-4386-abfa-d8bd85f2c837" d="M277.09,428.11l18.12,29.32,18.59-10.65.69-.41c2.15-1.32,3.46-4,3.46-7.82,0-7.81-5.46-17.28-12.17-21.15-3.38-1.94-6.43-2.15-8.57-.9Z"/>
            <path class="a4d649cd-91a3-4920-afbe-99d6f2cb8829" d="M295.21,458.43a1,1,0,0,1-.85-.48l-18.12-29.31a1,1,0,0,1-.12-.77,1,1,0,0,1,.47-.62l20.12-11.62c2.56-1.48,6-1.17,9.57.9,7,4,12.67,13.91,12.67,22,0,4-1.4,7.11-3.93,8.67l-.7.42L295.7,458.3A1.05,1.05,0,0,1,295.21,458.43Zm-16.73-30,17.07,27.62L314,445.51c1.91-1.18,3-3.65,3-7,0-7.47-5.23-16.57-11.67-20.29-2.92-1.67-5.68-2-7.57-.9Z"/>
          </g>
          <g>
            <path class="a8551a31-ed70-4386-abfa-d8bd85f2c837" d="M298.23,449.93c0,7.79-5.47,10.94-12.21,7.05s-12.22-13.36-12.22-21.15,5.47-10.95,12.22-7.05S298.23,442.14,298.23,449.93Z"/>
            <path class="a4d649cd-91a3-4920-afbe-99d6f2cb8829" d="M291.47,459.65a12.05,12.05,0,0,1-6-1.8c-7-4.05-12.72-13.93-12.72-22,0-4.14,1.45-7.26,4.08-8.78s6.05-1.21,9.64.86c7,4,12.71,13.92,12.71,22,0,4.14-1.45,7.25-4.08,8.77A7.21,7.21,0,0,1,291.47,459.65ZM280.56,428.1a5.27,5.27,0,0,0-2.68.69c-2,1.14-3.08,3.64-3.08,7,0,7.45,5.26,16.55,11.72,20.28,2.94,1.7,5.65,2,7.63.86s3.08-3.65,3.08-7c0-7.46-5.26-16.56-11.71-20.29A10.16,10.16,0,0,0,280.56,428.1Z"/>
          </g>
        </g>
        <g>
          <g>
            <polygon class="a8551a31-ed70-4386-abfa-d8bd85f2c837" points="232.65 595.94 319.47 545.81 219.17 487.9 132.35 538.03 232.65 595.94"/>
            <path class="a4d649cd-91a3-4920-afbe-99d6f2cb8829" d="M232.65,596.94a1,1,0,0,1-.5-.14l-100.3-57.9a1,1,0,0,1-.5-.87,1,1,0,0,1,.5-.86L218.67,487a1,1,0,0,1,1,0L320,545a1,1,0,0,1,.5.86,1,1,0,0,1-.5.87L233.15,596.8A1,1,0,0,1,232.65,596.94ZM134.35,538l98.3,56.75,84.82-49-98.3-56.75Z"/>
          </g>
          <g>
            <polygon class="a8551a31-ed70-4386-abfa-d8bd85f2c837" points="232.65 595.87 319.47 545.74 319.47 573.08 232.65 623.21 232.65 595.87"/>
            <path class="a4d649cd-91a3-4920-afbe-99d6f2cb8829" d="M232.65,624.21a1,1,0,0,1-.5-.13,1,1,0,0,1-.5-.87V595.87a1,1,0,0,1,.5-.87L319,544.88a1,1,0,0,1,1,0,1,1,0,0,1,.5.86v27.34a1,1,0,0,1-.5.87l-86.82,50.13A1,1,0,0,1,232.65,624.21Zm1-27.76v25l84.82-49v-25Z"/>
          </g>
          <g>
            <polygon class="a8551a31-ed70-4386-abfa-d8bd85f2c837" points="132.35 537.96 232.65 595.87 232.65 623.21 132.35 565.3 132.35 537.96"/>
            <path class="a4d649cd-91a3-4920-afbe-99d6f2cb8829" d="M232.65,624.21a1,1,0,0,1-.5-.13l-100.3-57.91a1,1,0,0,1-.5-.87V538a1,1,0,0,1,1.5-.86L233.15,595a1,1,0,0,1,.5.87v27.34a1,1,0,0,1-1,1Zm-99.3-59.48,98.3,56.75v-25l-98.3-56.75Z"/>
          </g>
        </g>
        <g class="e5de2ac9-1589-464d-a03d-2ebf8ab5acdb">
          <g>
            <polygon class="a8551a31-ed70-4386-abfa-d8bd85f2c837" points="210.57 522.11 189.9 510.09 181.8 523.46 202.48 535.47 210.57 522.11"/>
            <path class="a4d649cd-91a3-4920-afbe-99d6f2cb8829" d="M202.48,536.47a1,1,0,0,1-.5-.13l-20.68-12a1,1,0,0,1-.35-1.38L189,509.57a1,1,0,0,1,1.36-.34l20.68,12a1,1,0,0,1,.46.62,1,1,0,0,1-.11.76L203.34,536A1,1,0,0,1,202.48,536.47ZM183.19,523.1l18.94,11,7.06-11.65-18.95-11Z"/>
          </g>
          <g>
            <polygon class="a8551a31-ed70-4386-abfa-d8bd85f2c837" points="202.48 535.47 181.8 523.46 181.9 556.24 202.57 568.26 202.48 535.47"/>
            <path class="a4d649cd-91a3-4920-afbe-99d6f2cb8829" d="M202.57,569.26a1,1,0,0,1-.5-.14l-20.68-12a1,1,0,0,1-.49-.86l-.1-32.79a1,1,0,0,1,1.51-.87l20.67,12a1,1,0,0,1,.5.86l.09,32.79a1,1,0,0,1-.5.86A1,1,0,0,1,202.57,569.26Zm-19.68-13.59,18.68,10.85-.09-30.47L182.81,525.2Z"/>
          </g>
          <g>
            <polygon class="a8551a31-ed70-4386-abfa-d8bd85f2c837" points="210.53 505.75 189.85 493.73 189.9 510.09 210.57 522.11 210.53 505.75"/>
            <path class="a4d649cd-91a3-4920-afbe-99d6f2cb8829" d="M210.57,523.11a1,1,0,0,1-.5-.14l-20.68-12a1,1,0,0,1-.49-.86l-.05-16.35a1,1,0,0,1,.5-.87,1,1,0,0,1,1,0l20.68,12a1,1,0,0,1,.5.87l0,16.35a1,1,0,0,1-.5.87A1,1,0,0,1,210.57,523.11Zm-19.68-13.6,18.68,10.86,0-14.05-18.68-10.85Z"/>
          </g>
          <g>
            <polygon class="a8551a31-ed70-4386-abfa-d8bd85f2c837" points="202.38 500.96 181.71 488.95 189.85 493.73 210.53 505.75 202.38 500.96"/>
            <path class="a4d649cd-91a3-4920-afbe-99d6f2cb8829" d="M210.52,506.75a1,1,0,0,1-.5-.14l-20.67-12-8.15-4.79a1,1,0,0,1-.36-1.37,1,1,0,0,1,1.37-.36l20.68,12h0l8.14,4.79a1,1,0,0,1,.36,1.36A1,1,0,0,1,210.52,506.75Z"/>
          </g>
          <g>
            <polygon class="a8551a31-ed70-4386-abfa-d8bd85f2c837" points="202.33 482.81 181.65 470.8 181.71 488.95 202.38 500.96 202.33 482.81"/>
            <path class="a4d649cd-91a3-4920-afbe-99d6f2cb8829" d="M202.38,502a1,1,0,0,1-.5-.13l-20.68-12a1,1,0,0,1-.49-.86l-.06-18.15a1,1,0,0,1,1.51-.87l20.67,12a1,1,0,0,1,.5.86l0,18.15a1,1,0,0,1-.5.87A1,1,0,0,1,202.38,502ZM182.7,488.37l18.68,10.85,0-15.83-18.67-10.85Z"/>
          </g>
          <g>
            <polygon class="a8551a31-ed70-4386-abfa-d8bd85f2c837" points="297.73 427.73 277.06 415.72 181.65 470.8 202.33 482.81 297.73 427.73"/>
            <path class="a4d649cd-91a3-4920-afbe-99d6f2cb8829" d="M202.33,483.81a1,1,0,0,1-.5-.13l-20.68-12a1,1,0,0,1-.5-.86,1,1,0,0,1,.5-.87l95.4-55.08a1,1,0,0,1,1,0l20.67,12a1,1,0,0,1,0,1.73l-95.4,55.08A1,1,0,0,1,202.33,483.81Zm-18.68-13,18.68,10.86,93.41-53.93-18.69-10.86Z"/>
          </g>
          <g>
            <polygon class="a8551a31-ed70-4386-abfa-d8bd85f2c837" points="202.33 482.81 202.38 500.96 210.53 505.75 210.57 522.11 202.48 535.47 202.57 568.26 272.38 527.96 272.24 478.81 297.83 464.04 297.73 427.73 202.33 482.81"/>
            <path class="a4d649cd-91a3-4920-afbe-99d6f2cb8829" d="M202.57,569.26a1.13,1.13,0,0,1-.5-.13,1,1,0,0,1-.5-.87l-.09-32.79a1.07,1.07,0,0,1,.14-.52l7.95-13.12,0-15.51-7.65-4.49a1,1,0,0,1-.5-.86l0-18.15a1,1,0,0,1,.5-.87l95.4-55.08a1,1,0,0,1,1,0,1,1,0,0,1,.5.86l.1,36.3a1,1,0,0,1-.5.87l-25.09,14.49.14,48.57a1,1,0,0,1-.5.86l-69.81,40.3A1,1,0,0,1,202.57,569.26Zm.91-33.51.09,30.78,67.8-39.15-.13-48.56a1,1,0,0,1,.5-.87l25.09-14.49-.09-34-93.41,53.93,0,17,7.65,4.5a1,1,0,0,1,.5.86l0,16.35a1,1,0,0,1-.14.52Z"/>
          </g>
        </g>
      </g>
    </g>
  </g>
  <g>
    <circle class="e88da000-1732-4e9a-b043-cf380e600531" cx="1427.47" cy="426.24" r="59.03"/>
    <path class="a4d649cd-91a3-4920-afbe-99d6f2cb8829" d="M1427.47,486.27a60,60,0,1,1,60-60A60.1,60.1,0,0,1,1427.47,486.27Zm0-118.06a58,58,0,1,0,58,58A58.09,58.09,0,0,0,1427.47,368.21Z"/>
  </g>
  <g>
    <g>
      <g>
        <path class="aedfef00-3696-40ff-9c7e-bc5eea1054cd" d="M1390.67,405l30.26-17.18a5.08,5.08,0,0,1,6.55,1.34l35.87,52.33a3.43,3.43,0,0,1-1,5L1432.28,464a5.1,5.1,0,0,1-6.6-1.33l-36-52.56A3.42,3.42,0,0,1,1390.67,405Z"/>
        <path class="e0a05881-5bf6-4ca0-bd2a-5594eafb2467" d="M1429.74,465.63a6.07,6.07,0,0,1-4.85-2.4l-36.08-52.61a4.4,4.4,0,0,1,1.36-6.47h0L1420.43,387a6.1,6.1,0,0,1,7.85,1.61L1464.17,441a4.4,4.4,0,0,1-1.33,6.45l-30.06,17.41A6.06,6.06,0,0,1,1429.74,465.63Zm-38.58-59.75a2.41,2.41,0,0,0-.73,3.57l36.08,52.61a4.09,4.09,0,0,0,5.27,1l30.06-17.41a2.4,2.4,0,0,0,.71-3.55l-35.89-52.37a4.09,4.09,0,0,0-5.24-1l-30.26,17.18Z"/>
      </g>
      <g>
        <polygon class="b69cb0b0-ab37-43f8-a42c-cbecbc8789b1" points="1393.17 408.37 1424.12 390.8 1459.83 443.19 1429.21 460.93 1393.17 408.37"/>
        <path class="e0a05881-5bf6-4ca0-bd2a-5594eafb2467" d="M1429.22,461.93a1,1,0,0,1-.83-.44l-36.05-52.55a1,1,0,0,1-.15-.79,1,1,0,0,1,.48-.65l31-17.57a1,1,0,0,1,1.32.31l35.71,52.39a1,1,0,0,1,.15.79,1,1,0,0,1-.48.64l-30.61,17.73A1,1,0,0,1,1429.22,461.93Zm-34.61-53.23,34.91,50.9,28.88-16.73-34.58-50.74Z"/>
      </g>
    </g>
    <g>
      <g>
        <g>
          <path class="a8551a31-ed70-4386-abfa-d8bd85f2c837" d="M1558.32,783.58s0,6.15,7.56,11.7c1.07.8,2.52,1.78,4,2.75a105.36,105.36,0,0,1,13.77,11.19,11.47,11.47,0,0,0,7.47,3.45c4.61.23,8.68-1.25,8.11-8.21,0-.47-.1-1.3-.19-2.14,0-.38-.09-.75-.14-1.12-.09-.52-.38-13.41-.43-13.69-.56,2.33-3.79-6.77-5.8-6.86-3-.14-2.61,7.09-4.66,5.18-3.68-3.5-7.62-1.9-17.73-7.07l-1.93-.31c-7.85-.92-9.05,1.68-9.84,4.06A10,10,0,0,0,1558.32,783.58Z"/>
          <path class="a4d649cd-91a3-4920-afbe-99d6f2cb8829" d="M1592.05,813.69l-.94,0A12.38,12.38,0,0,1,1583,810a104.46,104.46,0,0,0-13.62-11.07c-1.59-1-3.05-2-4.12-2.79-7.87-5.78-8-12.24-8-12.51,0-.05,0-.09,0-.14a10.17,10.17,0,0,1,.26-1.18c1-3,2.63-5.78,10.92-4.8l2,.32a1,1,0,0,1,.3.09,46.79,46.79,0,0,0,11.1,4.09c2.62.66,4.71,1.19,6.69,3,.15-.33.32-.84.45-1.21.56-1.66,1.42-4.18,3.74-4.08,1.46.07,2.6,1.9,4.3,4.9.37.66.84,1.5,1.19,2a1,1,0,0,1,1.25.79c0,.15,0,.36.16,5.16.09,3.22.22,8.08.27,8.54l.14,1.14c.07.55.11,1.09.14,1.53,0,.26,0,.47,0,.64.27,3.18-.38,5.59-1.9,7.16S1594.88,813.69,1592.05,813.69Zm-32.72-30.05c0,.69.46,5.93,7.14,10.84,1,.76,2.46,1.73,4,2.71a106.24,106.24,0,0,1,13.92,11.3,10.28,10.28,0,0,0,6.82,3.18c2.71.14,4.58-.37,5.72-1.54s1.56-3,1.35-5.59c0-.16,0-.39,0-.66,0-.43-.08-.94-.13-1.45l-.14-1.11c0-.25-.1-2-.29-8.76,0-1.43-.07-2.89-.1-3.85-.68-.41-1.29-1.49-2.24-3.17-.68-1.19-2.09-3.68-2.71-3.9h0c-.69,0-1.17,1.24-1.68,2.74-.45,1.32-.84,2.47-1.87,2.72a1.74,1.74,0,0,1-1.67-.54c-1.65-1.57-3.37-2-6-2.66a49.49,49.49,0,0,1-11.38-4.17l-1.79-.29c-7.3-.86-8.1,1.49-8.72,3.38C1559.45,783.06,1559.37,783.37,1559.33,783.64Zm29.52,1.54Z"/>
        </g>
        <g>
          <path class="a8551a31-ed70-4386-abfa-d8bd85f2c837" d="M1499,815.41s7.11-.69,9.48-.78c5.6-.21,17.83-3.71,21.65-1.07,4.35,3,14,5.52,14.13-2.59l5.53,1.78c.1,1.72.59,11.77.63,12.4a14.27,14.27,0,0,1-2,8.53c-3.66,5.78-18.35,2.42-24.86,1.1l-16.1-2.6c-7.06-1.43-11.68-6.4-13-10.69A5.53,5.53,0,0,1,1499,815.41Z"/>
          <path class="a4d649cd-91a3-4920-afbe-99d6f2cb8829" d="M1539.06,838c-5.06,0-10.77-1.17-14.69-2l-1-.22-16.06-2.59c-7.63-1.55-12.4-6.84-13.76-11.4a1,1,0,0,1,0-.17,6.57,6.57,0,0,1,5.35-7.18h.08c.29,0,7.17-.69,9.55-.78a62.16,62.16,0,0,0,6.72-.88c6.19-1,12.59-2,15.53,0,2.65,1.83,7.81,3.6,10.59,2.17,1.3-.66,1.94-2,2-3.95a1,1,0,0,1,.42-.8,1,1,0,0,1,.89-.14l5.52,1.78a1,1,0,0,1,.69.89c.07,1.1.29,5.56.46,8.83.09,1.86.16,3.34.18,3.57a15.21,15.21,0,0,1-2.18,9.13C1547.43,837.05,1543.49,838,1539.06,838Zm-43.62-16.66c1.19,3.84,5.48,8.56,12.18,9.91l17.15,2.82c6.38,1.31,19.66,4,22.77-.87a13.23,13.23,0,0,0,1.87-7.94c0-.23-.09-1.71-.18-3.59-.14-2.79-.32-6.44-.41-8.13l-3.67-1.18a5.6,5.6,0,0,1-3,4.38c-3.68,1.89-9.61-.21-12.65-2.31-2.27-1.57-8.82-.51-14.07.35a64.2,64.2,0,0,1-7,.9c-2.23.08-8.8.71-9.38.77A4.55,4.55,0,0,0,1495.44,821.29Z"/>
        </g>
        <g>
          <path class="a8551a31-ed70-4386-abfa-d8bd85f2c837" d="M1602.19,536.56l2.29,8.42a39.1,39.1,0,0,1,1.16,6.36,177.69,177.69,0,0,1,.35,30.34l-1.63,22.1-5,181.7c.5,7.31-23.88,8-23.8-.72l-11.76-185.68L1550.64,811.8c0,7.51-24.35,8.21-24.59-.83,0,0-8-216.16-8-250.09,0-33.33,42.83-17.48,42.83-18.49l-22.53-17.6Z"/>
          <path class="a4d649cd-91a3-4920-afbe-99d6f2cb8829" d="M1538.5,818.59c-6.66,0-13.31-2.32-13.45-7.59-.08-2.15-8-216.56-8-250.12,0-8,2.4-13.89,7.13-17.64,9.33-7.4,25.23-4.36,32.78-2.64l-19.22-15a1,1,0,0,1,.79-1.78l63.88,11.78a1,1,0,0,1,.78.72l2.29,8.42a40,40,0,0,1,1.2,6.52,179.7,179.7,0,0,1,.35,30.51l-1.64,22.11-5,181.65c.08,1.1-.31,2.84-2.63,4.31-4.66,3-14.54,3.11-19.59.3-2.36-1.31-3.6-3.17-3.58-5.37L1563.79,615.1l-12.16,196.76c0,4.49-6.61,6.65-12.76,6.73Zm2.28-278.1c-5.58,0-11.25,1-15.4,4.32s-6.37,8.76-6.37,16.07c0,33.53,8,247.89,8,250,.1,4,6.22,5.75,11.79,5.66,5.31-.07,10.8-1.88,10.8-4.79L1562.78,599a1,1,0,0,1,1-.94h0a1,1,0,0,1,1,.94l11.76,185.68c0,1.52.85,2.73,2.55,3.67,4.45,2.48,13.47,2.35,17.55-.24,1.19-.76,1.77-1.63,1.7-2.58l5-181.8,1.64-22.14a177.89,177.89,0,0,0-.35-30.18,37.26,37.26,0,0,0-1.14-6.19l-2.12-7.81-59.25-10.92,19.31,15.09a1,1,0,0,1,.38.78,1.05,1.05,0,0,1-.39.81c-.49.4-.88.31-3.39-.28A77.16,77.16,0,0,0,1540.78,540.49Z"/>
        </g>
        <g>
          <path class="a8551a31-ed70-4386-abfa-d8bd85f2c837" d="M1542.34,496s74.69,29.62,87,3.71c8.55-17.94-16.79-85.84-16.79-85.84l-6.08-8.87L1587,408.91c-2.6.52-6-3.62-6-3.62,2.33,10.48,14.78,61.62,17.73,73.61.46,1.87-56,1.3-56,1.3C1546.91,481.72,1546.53,494.53,1542.34,496Z"/>
          <path class="a4d649cd-91a3-4920-afbe-99d6f2cb8829" d="M1604.52,511.33c-25.73,0-60.43-13.59-62.55-14.43a1,1,0,0,1,0-1.87c1.48-.52,2.63-3.64,2.65-7.27,0-3.4-.92-6.12-2.29-6.62a1,1,0,0,1-.65-1.12,1,1,0,0,1,1-.82h0c19.17.19,49.86.12,54.88-.85-3.16-12.87-15.23-62.42-17.55-72.85a1,1,0,0,1,1.75-.85c1,1.2,3.48,3.58,5,3.28l19.51-3.94a1,1,0,0,1,1,.41l6.09,8.88a1.39,1.39,0,0,1,.11.21c.06.17,6.41,17.24,11.63,36.28,7,25.74,8.77,42.68,5.12,50.34C1626.3,508.45,1616.36,511.33,1604.52,511.33Zm-60.1-15.64c11.14,4.17,73.26,26.21,84,3.56,8.11-17-15.61-81.79-16.77-84.94l-5.64-8.23-18.86,3.81c-1.52.31-3.15-.54-4.44-1.54,3.56,15.32,14.39,59.77,17,70.31a1.19,1.19,0,0,1-.21.95c-.49.63-1.16,1.48-29.31,1.64-10.17.07-20.35,0-25,0a13.37,13.37,0,0,1,1.41,6.55C1546.65,490.53,1546,493.84,1544.42,495.69Zm53.38-16.55Z"/>
        </g>
        <g>
          <path class="a8551a31-ed70-4386-abfa-d8bd85f2c837" d="M1518.74,497.65c-1,20.76-2.26,52.26-1,55,6.6,13.76,89.45,9.95,90.54-10.63l-2.37-40.56a66.18,66.18,0,0,1,.2-10.15L1613,420.4c.6-17.72-12.6-26.69-25.85-27.36a34.75,34.75,0,0,0-3.68,0,32.33,32.33,0,0,0-9.26,2c-1,0-3.39-1.13-5.76-2.26s-4.56-2.13-5.14-1.84l-1.08.56-13.87,7.4-.42.19s-1.89,1.09-4.59,2.55a49,49,0,0,1-9.44,4.06L1515.73,463A131.33,131.33,0,0,1,1518.74,497.65Z"/>
          <path class="a4d649cd-91a3-4920-afbe-99d6f2cb8829" d="M1551.72,561.73c-17.07,0-32.07-2.84-34.88-8.69-1.06-2.27-.75-20.92.9-55.44a130.08,130.08,0,0,0-3-34.4,1,1,0,0,1,0-.52l18.14-57.25a1,1,0,0,1,.66-.65,48.47,48.47,0,0,0,9.25-4c2.66-1.45,4.55-2.53,4.57-2.54l.5-.24,14.91-7.94c.91-.45,2.3.06,6,1.82l.49.23a25.44,25.44,0,0,0,4.67,1.94,33.34,33.34,0,0,1,9.37-2,36.64,36.64,0,0,1,3.78,0c13.36.67,27.44,9.84,26.81,28.4l-6.85,70.93a64.66,64.66,0,0,0-.19,10l2.36,40.56a.41.41,0,0,1,0,.11c-.53,10-17.64,14.86-27.79,16.89A156.8,156.8,0,0,1,1551.72,561.73Zm-35-98.7a131.68,131.68,0,0,1,3,34.67h0c-2.29,47.71-1.41,53.77-1.09,54.49,3.6,7.5,36.29,10,62.46,4.76,16.26-3.25,25.79-8.7,26.17-15l-2.36-40.51a67.39,67.39,0,0,1,.2-10.3l6.84-70.86c.58-17.14-12.5-25.65-24.9-26.27a32.51,32.51,0,0,0-3.56,0,31,31,0,0,0-9,2,1.55,1.55,0,0,1-.31.06c-1.13,0-2.91-.78-5.75-2.13l-.48-.23a24.71,24.71,0,0,0-4.38-1.78l-.95.49L1548.32,400h0s-1.89,1.09-4.53,2.52a50.6,50.6,0,0,1-9.12,4Zm2,34.62h0Z"/>
        </g>
        <g>
          <path class="a8551a31-ed70-4386-abfa-d8bd85f2c837" d="M1446.65,465.15a16.36,16.36,0,0,1-3-1c-.12-.05-12.32-16.56-14.63-15.11-2,1.25.43,5.32,2,7.58-2-2.7-6.28-8.18-9.69-10.3,0,0-9.42-8.44-6.29,5.3.46,2,7.08,13.67,9.66,16.19a74.68,74.68,0,0,0,18.2,12.54c1.34.55,2.8,1.15,4.35,1.85l5.29-15.79C1450.59,466,1448.64,465.62,1446.65,465.15Z"/>
          <path class="a4d649cd-91a3-4920-afbe-99d6f2cb8829" d="M1447.22,483.24a1,1,0,0,1-.41-.09c-1.52-.69-2.92-1.26-4.28-1.82A76.31,76.31,0,0,1,1424,468.57c-2.77-2.71-9.44-14.51-9.93-16.69-1.12-4.91-.83-7.68.92-8.71,2.39-1.41,6.07,1.62,6.94,2.39a28.12,28.12,0,0,1,5.38,4.91,3.3,3.3,0,0,1,.07-.56,2.52,2.52,0,0,1,1.14-1.67c1.4-.89,3.74-.5,15.31,14.53l.46.59a14.42,14.42,0,0,0,2.61.81h0c1.07.26,2.13.49,3.18.71s1.79.39,2.68.6a1,1,0,0,1,.64.48,1,1,0,0,1,.08.81l-5.29,15.78a1,1,0,0,1-.55.6A1,1,0,0,1,1447.22,483.24Zm-30.81-38.45a.87.87,0,0,0-.44.1c-.22.13-1.24,1.05,0,6.55.42,1.81,7,13.35,9.39,15.7a73.85,73.85,0,0,0,17.88,12.33c1,.43,2.18.89,3.37,1.41l4.59-13.7-1.57-.34c-1.06-.23-2.13-.46-3.21-.72a17.35,17.35,0,0,1-3.15-1c-.28-.11-.28-.11-1.06-1.13-9.4-12.2-12.08-13.82-12.76-14a.5.5,0,0,0-.15.31c-.21,1,.73,3.17,2.51,5.78a1,1,0,0,1-1.63,1.16c-1.72-2.33-6.09-8-9.42-10.05l-.14-.1C1419.43,446,1417.48,444.79,1416.41,444.79Z"/>
        </g>
        <g>
          <path class="a8551a31-ed70-4386-abfa-d8bd85f2c837" d="M1511.86,418.15c-9.82,17.08-17.7,56-20.69,62.76-.48,1.11-42.43-17.5-42.43-17.5-6.84,2.23-12.32,13.53-10.09,20.38,0,0,54.06,36.49,66.29,31.22,1.4-.62,3.22-2.59,5.33-5.56a59.52,59.52,0,0,0,9.2-20.72l20.28-85.21C1533.18,405.9,1517.11,409,1511.86,418.15Z"/>
          <path class="a4d649cd-91a3-4920-afbe-99d6f2cb8829" d="M1502.07,516.5c-16.55,0-61.92-30.49-64-31.88a1,1,0,0,1-.4-.52c-2.43-7.52,3.39-19.24,10.74-21.64a1,1,0,0,1,.72,0c14.27,6.33,37.19,16.22,41.38,17.36.93-2.47,2.3-7.6,4-13.95,3.89-14.56,9.76-36.57,16.48-48.26h0c4.46-7.77,16.18-11.31,23.93-13.66,1.76-.53,3.28-1,4.48-1.42a1,1,0,0,1,1.31,1.17L1520.45,489a60.07,60.07,0,0,1-9.37,21.07c-2.33,3.29-4.21,5.22-5.73,5.9A8.64,8.64,0,0,1,1502.07,516.5Zm-62.57-33.34c15.15,10.19,55.49,35.06,65,30.93.79-.35,2.29-1.54,4.9-5.22a58.05,58.05,0,0,0,9-20.37L1538.36,405c-.86.28-1.82.56-2.85.88-7.45,2.25-18.71,5.66-22.78,12.73h0c-6.59,11.46-12.42,33.32-16.27,47.78-1.89,7.07-3.38,12.65-4.37,14.89a1.19,1.19,0,0,1-.59.56c-.47.18-1.88.75-42.8-17.39C1442.74,466.75,1437.74,476.88,1439.5,483.16Zm50.76-2.66h0Zm21.6-62.35h0Z"/>
        </g>
        <g>
          <path class="a8551a31-ed70-4386-abfa-d8bd85f2c837" d="M1580,403c0,6.52-10.61,11.85-23.73,11.85-11,0-20.38-4.18-22.93-9.28a49,49,0,0,0,10-3.84c2.69-1.46,4.59-2.55,4.59-2.55l.42-.19,13.87-7.4a38.15,38.15,0,0,1,6.22,1.28,25.13,25.13,0,0,1,5.58,2.3C1577.76,397.2,1580,399.94,1580,403Z"/>
          <path class="a4d649cd-91a3-4920-afbe-99d6f2cb8829" d="M1556.29,415.8c-11,0-21-4.14-23.82-9.83a1,1,0,0,1,0-.84,1,1,0,0,1,.63-.56,49.09,49.09,0,0,0,9.75-3.76c2.68-1.46,4.57-2.54,4.57-2.54l.5-.24,13.82-7.37a1,1,0,0,1,.59-.12,40,40,0,0,1,6.39,1.32,25.82,25.82,0,0,1,5.79,2.4c4.21,2.31,6.53,5.41,6.53,8.7C1581,410.16,1570.16,415.8,1556.29,415.8Zm-21.41-9.69c3.2,4.45,12,7.69,21.41,7.69,12.33,0,22.73-5,22.73-10.84,0-2.53-2-5-5.52-7a23.35,23.35,0,0,0-5.37-2.22,36.35,36.35,0,0,0-5.75-1.21L1548.32,400s-1.88,1.08-4.53,2.52A46.26,46.26,0,0,1,1534.88,406.11Z"/>
        </g>
        <g>
          <path class="a8551a31-ed70-4386-abfa-d8bd85f2c837" d="M1529.51,373.79c4,19.63,17,21.5,29.29,15.58,13.67-6.6,22-22.66,22.87-34.4,1.23-17.89-10-29.58-24.87-30.6C1523,322,1528.13,367,1529.51,373.79Z"/>
          <path class="a4d649cd-91a3-4920-afbe-99d6f2cb8829" d="M1547.27,393.35a16.8,16.8,0,0,1-7.6-1.72c-5.59-2.77-9.33-8.7-11.14-17.64h0c-1.48-7.3-3.3-30.86,7.33-43,5-5.69,12.07-8.26,21-7.64a27.36,27.36,0,0,1,19.15,9.32c5,5.8,7.25,13.53,6.64,22.35-.83,12-9.32,28.42-23.43,35.23A27.75,27.75,0,0,1,1547.27,393.35Zm-16.78-19.76c1.68,8.3,5.06,13.77,10.07,16.25,6.09,3,13,.92,17.8-1.37,13.43-6.48,21.52-22.13,22.31-33.57.57-8.29-1.56-15.52-6.17-20.91a25.42,25.42,0,0,0-17.77-8.63c-8.29-.57-14.81,1.77-19.37,7s-7.17,13.17-7.81,23.34a77.69,77.69,0,0,0,.94,17.92Z"/>
        </g>
        <g>
          <path class="a8551a31-ed70-4386-abfa-d8bd85f2c837" d="M1573.36,364.51l-1.38,39c-.06,1.83-1.81,3.52-4.94,4.54-5.4,1.77-12.9,1-16.81-1.72a4.47,4.47,0,0,1-2.26-3.67l1.31-39Z"/>
          <path class="a4d649cd-91a3-4920-afbe-99d6f2cb8829" d="M1560.54,410c-4.12,0-8.22-1-10.88-2.86a5.48,5.48,0,0,1-2.69-4.52l1.31-39a1,1,0,0,1,.32-.7,1.06,1.06,0,0,1,.72-.27l24.07.85a1,1,0,0,1,1,1l-1.38,39c-.08,2.33-2.14,4.31-5.63,5.45A22.31,22.31,0,0,1,1560.54,410Zm-10.29-45.34-1.28,38a3.66,3.66,0,0,0,1.84,2.81c3.65,2.56,10.79,3.27,15.92,1.59,2.61-.85,4.2-2.2,4.25-3.62l1.34-38Z"/>
        </g>
        <g>
          <path class="a8551a31-ed70-4386-abfa-d8bd85f2c837" d="M1557.8,349.31a20.3,20.3,0,0,1-16.74,8.26c-2-.07-3.85-4.89-6.35-7.73-1.62-1.85-4.08-1.75-5.08-2.64-4.39-3.89-5.07-18,4.75-23.65a38,38,0,0,1,26-4.34c1,.19-5.3,3.21-4.5,3.83C1563.55,328.91,1564.39,340.66,1557.8,349.31Z"/>
          <path class="a4d649cd-91a3-4920-afbe-99d6f2cb8829" d="M1541.89,358.59l-.88,0c-1.74-.07-3-2.12-4.55-4.51a28.73,28.73,0,0,0-2.5-3.56,5.88,5.88,0,0,0-2.9-1.57,5.58,5.58,0,0,1-2.1-1c-2.48-2.2-3.8-7-3.29-11.94a17,17,0,0,1,8.21-13.32,39.05,39.05,0,0,1,26.69-4.46,1.09,1.09,0,0,1,.9.86c.17.88-.53,1.33-2.4,2.51-.51.32-1.32.84-1.85,1.23,7.4,6.35,8.08,18.29,1.37,27.08h0A21.3,21.3,0,0,1,1541.89,358.59Zm11.36-39a36.69,36.69,0,0,0-18.38,4.87c-5.54,3.18-6.9,8.75-7.21,11.8-.44,4.26.64,8.47,2.63,10.24a4.59,4.59,0,0,0,1.37.56,7.66,7.66,0,0,1,3.8,2.16,29.23,29.23,0,0,1,2.69,3.81c.95,1.5,2.25,3.55,2.95,3.58a19.18,19.18,0,0,0,15.9-7.87c6.26-8.2,5.49-19.35-1.71-24.87a1.17,1.17,0,0,1-.47-1c0-.87.91-1.5,3.18-2.94l.09-.05A36.46,36.46,0,0,0,1553.25,319.55Zm4.55,29.76h0Z"/>
        </g>
        <g>
          <path class="a8551a31-ed70-4386-abfa-d8bd85f2c837" d="M1560.39,319.21c-14.18-1.28-25.79,10.38-25.82,27.54,0,1.06.07,2.07.14,3.09.7,9.82,4.89,17.94,13.94,27.5,4.37,4.61,9.08,7.41,13.6,8.42,8.71,1.95,18.69-4.52,22.06-16.69C1586.08,362.66,1601.61,322.94,1560.39,319.21Z"/>
          <path class="a4d649cd-91a3-4920-afbe-99d6f2cb8829" d="M1565.38,387.11a15.22,15.22,0,0,1-3.35-.37c-4.86-1.09-9.74-4.1-14.1-8.71-9.26-9.77-13.51-18.18-14.21-28.12-.08-1-.15-2.08-.15-3.16,0-9.21,3.25-17.23,9.1-22.57a23,23,0,0,1,17.81-6h0c11.76,1.07,20.09,5.15,24.75,12.14,8.32,12.45,2.69,30.47.56,37.25-.22.72-.4,1.3-.52,1.73C1582.34,379.9,1574,387.11,1565.38,387.11Zm-7.09-67a21.06,21.06,0,0,0-14.28,5.55c-5.43,4.95-8.43,12.45-8.44,21.1,0,1,.07,2,.14,3,.68,9.6,4.64,17.39,13.67,26.92,4.09,4.32,8.62,7.14,13.09,8.14,9.7,2.16,18.22-6.43,20.87-16,.13-.45.31-1.05.55-1.79,2-6.54,7.46-23.9-.32-35.55-4.31-6.46-12.14-10.25-23.27-11.25A19.46,19.46,0,0,0,1558.29,320.11Z"/>
        </g>
        <g>
          <path class="a8551a31-ed70-4386-abfa-d8bd85f2c837" d="M1539.18,369.69c-3.26,4-3.77,9-1.16,11.12s7.38.56,10.63-3.47,3.77-9,1.16-11.12S1542.43,365.66,1539.18,369.69Z"/>
          <path class="a4d649cd-91a3-4920-afbe-99d6f2cb8829" d="M1540.88,382.75a5.4,5.4,0,0,1-3.48-1.17c-3.1-2.49-2.66-8,1-12.52a13.22,13.22,0,0,1,6-4.36,6.23,6.23,0,0,1,6,.74c3.09,2.5,2.65,8-1,12.53a13.37,13.37,0,0,1-6,4.36A8.37,8.37,0,0,1,1540.88,382.75Zm6.06-16.48a6.13,6.13,0,0,0-1.9.33,11.31,11.31,0,0,0-5.08,3.71c-2.86,3.54-3.45,8-1.31,9.72a4.35,4.35,0,0,0,4.14.4,11.36,11.36,0,0,0,5.09-3.72c2.85-3.53,3.45-8,1.3-9.71A3.5,3.5,0,0,0,1546.94,366.27Z"/>
        </g>
      </g>
      <g>
        <g>
          <path class="a8551a31-ed70-4386-abfa-d8bd85f2c837" d="M1514.76,334.16c1.94-9.37,17.12-14.15,33.9-10.67,11.52,2.39,20.79,8.05,24.85,14.39l1.2-.31,8.8,10.39a10,10,0,0,1-4.48,15.93,50.9,50.9,0,0,1-47-8l-5-3.81C1518.5,347.26,1513.45,340.48,1514.76,334.16Z"/>
          <path class="a4d649cd-91a3-4920-afbe-99d6f2cb8829" d="M1563,367.47a51.9,51.9,0,0,1-31.65-10.78l-4.89-3.77c-9.2-5.21-14.07-12.47-12.72-19h0c2-9.9,17.79-15,35.08-11.45,11,2.29,20.56,7.7,25.09,14.22l.51-.13a1,1,0,0,1,1,.32l8.8,10.4a11,11,0,0,1-4.93,17.52A51.72,51.72,0,0,1,1563,367.47Zm-47.3-33.11c-1.17,5.63,3.35,12.09,11.8,16.85a.36.36,0,0,1,.12.08l4.95,3.81a49.85,49.85,0,0,0,46.1,7.85,9,9,0,0,0,4-14.34l-8.4-9.92-.59.16a1,1,0,0,1-1.09-.43c-4.06-6.35-13.34-11.7-24.21-13.95-16.22-3.36-30.9,1.08-32.72,9.89Z"/>
        </g>
        <g>
          <path class="a8551a31-ed70-4386-abfa-d8bd85f2c837" d="M1523.07,337.59c-2.11,10.17,11.36,21.55,30.08,25.43a60.92,60.92,0,0,0,12.17,1.3c8.35,0,15.62-1.86,20.27-5.2a12.31,12.31,0,0,0,5.27-7.47A34.63,34.63,0,0,0,1564,310.72a36.64,36.64,0,0,0-5.13-.68,34.63,34.63,0,0,0-35.79,27.55Z"/>
          <path class="a4d649cd-91a3-4920-afbe-99d6f2cb8829" d="M1565.48,365.32h-.17a62,62,0,0,1-12.37-1.32c-19.23-4-33.07-15.93-30.85-26.61h0A35.64,35.64,0,0,1,1558.91,309a37.5,37.5,0,0,1,5.28.7,35.67,35.67,0,0,1,27.65,42.11,13.19,13.19,0,0,1-5.67,8.08C1581.34,363.41,1574,365.32,1565.48,365.32Zm-41.43-27.53c-2,9.61,11.15,20.49,29.3,24.25a59.59,59.59,0,0,0,12,1.28h.15c8,0,15.11-1.82,19.53-5a11.27,11.27,0,0,0,4.88-6.87,33.66,33.66,0,0,0-26.09-39.74,35,35,0,0,0-5-.66,33.64,33.64,0,0,0-34.75,26.75Z"/>
        </g>
        <g>
          <path class="a8551a31-ed70-4386-abfa-d8bd85f2c837" d="M1568.12,361c-.1.48-.43,1.94-.74,3.16a1.37,1.37,0,0,0,1.35,1.71c6.75-.21,12.69-1.7,17-4.22a4,4,0,0,0,1.85-2.7c.19-.9.39-1.85.43-2.07a41.75,41.75,0,0,0-19.32-44.27,24.06,24.06,0,0,0-15.16-3.4,31.92,31.92,0,0,0-10.58,2.95C1561,320.37,1572.32,340.71,1568.12,361Z"/>
          <path class="a4d649cd-91a3-4920-afbe-99d6f2cb8829" d="M1568.68,366.84a2.36,2.36,0,0,1-2.27-2.95c.31-1.22.64-2.66.73-3.13,4-19.31-6.36-39.38-24.65-47.72a1,1,0,0,1,0-1.8,32.83,32.83,0,0,1,10.9-3.06,25.27,25.27,0,0,1,15.79,3.54,42.82,42.82,0,0,1,19.79,45.33l-.43,2.07a5.1,5.1,0,0,1-2.32,3.37c-4.45,2.63-10.48,4.13-17.43,4.35Zm-23.41-54.67c17.91,9.22,27.88,29.48,23.83,49h0c-.1.48-.44,2-.75,3.21a.4.4,0,0,0,.07.33.34.34,0,0,0,.28.13c6.52-.2,12.37-1.65,16.47-4.08a3.06,3.06,0,0,0,1.38-2.05l.44-2.06a40.84,40.84,0,0,0-18.87-43.22,23.27,23.27,0,0,0-14.53-3.26A32.42,32.42,0,0,0,1545.27,312.17Zm22.85,48.8h0Z"/>
        </g>
      </g>
    </g>
  </g>
  <g>
    <circle class="e88da000-1732-4e9a-b043-cf380e600531" cx="678.14" cy="852.57" r="124.57"/>
    <g>
      <g class="ba18963f-77d0-4084-a365-5743d4ad2474">
        <path class="b69cb0b0-ab37-43f8-a42c-cbecbc8789b1" d="M675.93,977.43a123.9,123.9,0,1,1,123.89-123.9A124,124,0,0,1,675.93,977.43Zm0-242.8a118.9,118.9,0,1,0,118.89,118.9A119,119,0,0,0,675.93,734.63Z"/>
      </g>
      <g class="ad2d72e9-5e3f-4435-9390-a0190701123e">
        <path class="b69cb0b0-ab37-43f8-a42c-cbecbc8789b1" d="M675.93,956.37A102.84,102.84,0,1,1,778.76,853.53,103,103,0,0,1,675.93,956.37Zm0-200.67a97.84,97.84,0,1,0,97.83,97.83A97.94,97.94,0,0,0,675.93,755.7Z"/>
      </g>
      <path class="b69cb0b0-ab37-43f8-a42c-cbecbc8789b1" d="M675.93,936.18a82.65,82.65,0,1,1,82.64-82.65A82.75,82.75,0,0,1,675.93,936.18Zm0-160.3a77.65,77.65,0,1,0,77.64,77.65A77.74,77.74,0,0,0,675.93,775.88Z"/>
      <g>
        <g>
          <path class="bdcc130d-9a63-4574-9e8b-fac611b7a5f3" d="M686.62,862.07l-2.84,2.84-3.73,3.73-9.85,9.85-3.73,3.73L663,885.69a2.88,2.88,0,0,1-.27.22v3.79a3.74,3.74,0,0,0,.52,1.9l1.83,3.1,2.73-2.73,2.73-2.72,10-10,3.73-3.74,3.73-3.73v-6.92A3.72,3.72,0,0,0,686.62,862.07Z"/>
          <path class="bdcc130d-9a63-4574-9e8b-fac611b7a5f3" d="M678.72,891.62l-4.27,4.26-2.72,2.73L669,901.34l3.07,5.19a3.76,3.76,0,0,0,3.2,1.84h0a3.74,3.74,0,0,0,3.21-1.82l8.93-14.93a3.7,3.7,0,0,0,.53-1.92v-7.31l-3.73,3.73Z"/>
          <path class="bdcc130d-9a63-4574-9e8b-fac611b7a5f3" d="M673.22,864.91l3.74-3.73H666.47a3.74,3.74,0,0,0-3.74,3.73V875.4l3.74-3.73Z"/>
        </g>
        <g>
          <rect class="bdcc130d-9a63-4574-9e8b-fac611b7a5f3" x="627.44" y="810.98" width="95.81" height="11.6" rx="3.73"/>
          <rect class="bdcc130d-9a63-4574-9e8b-fac611b7a5f3" x="649.12" y="830.43" width="54.85" height="22.86" rx="3.73"/>
        </g>
      </g>
    </g>
  </g>
  <g>
    <circle class="e88da000-1732-4e9a-b043-cf380e600531" cx="1263.14" cy="689.57" r="124.57"/>
    <g>
      <g class="ba18963f-77d0-4084-a365-5743d4ad2474">
        <path class="b69cb0b0-ab37-43f8-a42c-cbecbc8789b1" d="M1260.93,814.43a123.9,123.9,0,1,1,123.89-123.9A124,124,0,0,1,1260.93,814.43Zm0-242.8a118.9,118.9,0,1,0,118.89,118.9A119,119,0,0,0,1260.93,571.63Z"/>
      </g>
      <g class="ad2d72e9-5e3f-4435-9390-a0190701123e">
        <path class="b69cb0b0-ab37-43f8-a42c-cbecbc8789b1" d="M1260.93,793.37a102.84,102.84,0,1,1,102.83-102.84A103,103,0,0,1,1260.93,793.37Zm0-200.67a97.84,97.84,0,1,0,97.83,97.83A97.94,97.94,0,0,0,1260.93,592.7Z"/>
      </g>
      <path class="b69cb0b0-ab37-43f8-a42c-cbecbc8789b1" d="M1260.93,773.18a82.65,82.65,0,1,1,82.64-82.65A82.75,82.75,0,0,1,1260.93,773.18Zm0-160.3a77.65,77.65,0,1,0,77.64,77.65A77.74,77.74,0,0,0,1260.93,612.88Z"/>
      <g>
        <g>
          <path class="bdcc130d-9a63-4574-9e8b-fac611b7a5f3" d="M1271.62,699.07l-2.84,2.84-3.73,3.73-9.85,9.85-3.73,3.73-3.47,3.47a2.88,2.88,0,0,1-.27.22v3.79a3.74,3.74,0,0,0,.52,1.9l1.83,3.1,2.73-2.73,2.73-2.72,10-10,3.73-3.74,3.73-3.73v-6.92A3.72,3.72,0,0,0,1271.62,699.07Z"/>
          <path class="bdcc130d-9a63-4574-9e8b-fac611b7a5f3" d="M1263.72,728.62l-4.27,4.26-2.72,2.73-2.73,2.73,3.07,5.19a3.76,3.76,0,0,0,3.2,1.84h0a3.74,3.74,0,0,0,3.21-1.82l8.93-14.93a3.7,3.7,0,0,0,.53-1.92v-7.31l-3.73,3.73Z"/>
          <path class="bdcc130d-9a63-4574-9e8b-fac611b7a5f3" d="M1258.22,701.91l3.74-3.73h-10.49a3.74,3.74,0,0,0-3.74,3.73V712.4l3.74-3.73Z"/>
        </g>
        <g>
          <rect class="bdcc130d-9a63-4574-9e8b-fac611b7a5f3" x="1212.44" y="647.98" width="95.81" height="11.6" rx="3.73"/>
          <rect class="bdcc130d-9a63-4574-9e8b-fac611b7a5f3" x="1234.12" y="667.43" width="54.85" height="22.86" rx="3.73"/>
        </g>
      </g>
    </g>
  </g>
  <g>
    <g>
      <polygon class="b69cb0b0-ab37-43f8-a42c-cbecbc8789b1" points="612.97 604.3 589.39 590.69 589.39 478.47 612.97 492.08 612.97 604.3"/>
      <path class="e0a05881-5bf6-4ca0-bd2a-5594eafb2467" d="M613,605.3a1.13,1.13,0,0,1-.5-.13l-23.57-13.61a1,1,0,0,1-.5-.87V478.47a1,1,0,0,1,.5-.87,1,1,0,0,1,1,0l23.57,13.61a1,1,0,0,1,.5.87V604.3a1,1,0,0,1-.5.87A1.06,1.06,0,0,1,613,605.3Zm-22.57-15.19L612,602.57V492.66L590.39,480.2Z"/>
    </g>
    <g>
      <polygon class="aedfef00-3696-40ff-9c7e-bc5eea1054cd" points="721.18 402.33 744.76 415.94 612.96 492.03 589.39 478.42 721.18 402.33"/>
      <path class="e0a05881-5bf6-4ca0-bd2a-5594eafb2467" d="M613,493a1.13,1.13,0,0,1-.5-.13l-23.57-13.61a1,1,0,0,1,0-1.74l131.79-76.09a1,1,0,0,1,1,0l23.58,13.61a1,1,0,0,1,.5.87,1,1,0,0,1-.5.86l-131.8,76.1A1.06,1.06,0,0,1,613,493Zm-21.57-14.61L613,490.88l129.8-74.94-21.58-12.46Z"/>
    </g>
    <g>
      <g>
        <polygon class="b53c9b02-7f41-4c5b-abb1-2c3059b0cc25" points="612.97 604.3 744.76 528.21 744.76 415.99 612.97 492.08 612.97 604.3"/>
        <path class="e0a05881-5bf6-4ca0-bd2a-5594eafb2467" d="M613,605.3a1.13,1.13,0,0,1-.5-.13,1,1,0,0,1-.5-.87V492.08a1,1,0,0,1,.5-.87l131.8-76.09a1,1,0,0,1,1,0,1,1,0,0,1,.5.87V528.21a1,1,0,0,1-.5.87l-131.8,76.09A1.06,1.06,0,0,1,613,605.3Zm1-112.64V602.57l129.8-74.94V417.72Z"/>
      </g>
      <g>
        <polygon class="b69cb0b0-ab37-43f8-a42c-cbecbc8789b1" points="623.73 565.19 639.02 556.36 639.02 509.93 623.73 518.76 623.73 565.19"/>
        <path class="e0a05881-5bf6-4ca0-bd2a-5594eafb2467" d="M623.73,566.19a1,1,0,0,1-.5-.14,1,1,0,0,1-.5-.86V518.76a1,1,0,0,1,.5-.87l15.29-8.83a1,1,0,0,1,1,0,1,1,0,0,1,.5.87v46.43a1,1,0,0,1-.5.87l-15.29,8.82A1,1,0,0,1,623.73,566.19Zm1-46.86v44.13L638,555.79V511.66Z"/>
      </g>
      <g>
        <g>
          <path class="a744cae4-7054-4abe-bf1f-5368b05414dc" d="M659.57,496.77a14,14,0,0,0,6.33-11c0-4-2.83-5.67-6.33-3.66a14,14,0,0,0-6.33,11C653.24,497.16,656.08,498.79,659.57,496.77Z"/>
          <path class="e0a05881-5bf6-4ca0-bd2a-5594eafb2467" d="M656.75,498.64a4.18,4.18,0,0,1-2.15-.56c-1.52-.87-2.36-2.64-2.36-5a14.9,14.9,0,0,1,6.83-11.83c2-1.16,4-1.32,5.48-.44s2.35,2.64,2.35,5a14.9,14.9,0,0,1-6.83,11.83A6.66,6.66,0,0,1,656.75,498.64Zm5.65-16.35a4.77,4.77,0,0,0-2.33.73,13.1,13.1,0,0,0-5.83,10.1c0,1.58.48,2.73,1.36,3.23s2.11.35,3.47-.44a13.12,13.12,0,0,0,5.83-10.1c0-1.58-.48-2.73-1.35-3.23A2.21,2.21,0,0,0,662.4,482.29Z"/>
        </g>
        <g>
          <path class="a744cae4-7054-4abe-bf1f-5368b05414dc" d="M659.57,528.59a14,14,0,0,0,6.33-11c0-4-2.83-5.67-6.33-3.65a14,14,0,0,0-6.33,11C653.24,529,656.08,530.61,659.57,528.59Z"/>
          <path class="e0a05881-5bf6-4ca0-bd2a-5594eafb2467" d="M656.75,530.46a4.28,4.28,0,0,1-2.15-.56c-1.52-.88-2.36-2.64-2.36-5a14.91,14.91,0,0,1,6.83-11.83c2-1.16,4-1.32,5.48-.44s2.35,2.64,2.35,5a14.88,14.88,0,0,1-6.83,11.83A6.68,6.68,0,0,1,656.75,530.46Zm5.65-16.36a4.8,4.8,0,0,0-2.33.74,13.08,13.08,0,0,0-5.83,10.09c0,1.58.48,2.73,1.36,3.24s2.11.34,3.47-.45a13.1,13.1,0,0,0,5.83-10.1c0-1.58-.48-2.72-1.35-3.23A2.31,2.31,0,0,0,662.4,514.1Z"/>
        </g>
        <g>
          <path class="a744cae4-7054-4abe-bf1f-5368b05414dc" d="M659.57,560.4a14,14,0,0,0,6.33-11c0-4-2.83-5.67-6.33-3.65a14,14,0,0,0-6.33,11C653.24,560.79,656.08,562.42,659.57,560.4Z"/>
          <path class="e0a05881-5bf6-4ca0-bd2a-5594eafb2467" d="M656.75,562.27a4.18,4.18,0,0,1-2.15-.56c-1.52-.87-2.36-2.64-2.36-5a14.9,14.9,0,0,1,6.83-11.83c2-1.16,4-1.32,5.48-.44s2.35,2.64,2.35,5a14.9,14.9,0,0,1-6.83,11.83A6.66,6.66,0,0,1,656.75,562.27Zm5.65-16.35a4.88,4.88,0,0,0-2.33.73,13.12,13.12,0,0,0-5.83,10.1c0,1.58.48,2.73,1.36,3.23s2.1.35,3.47-.44a13.12,13.12,0,0,0,5.83-10.1c0-1.58-.48-2.73-1.35-3.23A2.21,2.21,0,0,0,662.4,545.92Z"/>
        </g>
      </g>
      <g>
        <path class="b69cb0b0-ab37-43f8-a42c-cbecbc8789b1" d="M692.05,502.53c0,11.2,7.87,15.74,17.57,10.14s17.57-19.23,17.57-30.43-7.86-15.75-17.57-10.14S692.05,491.32,692.05,502.53Z"/>
        <path class="e0a05881-5bf6-4ca0-bd2a-5594eafb2467" d="M701.77,516.08a10.05,10.05,0,0,1-5.07-1.31c-3.64-2.1-5.65-6.45-5.65-12.24,0-11.51,8.11-25.55,18.07-31.3,5-2.9,9.79-3.33,13.43-1.23s5.64,6.45,5.64,12.24c0,11.5-8.1,25.55-18.07,31.3A16.9,16.9,0,0,1,701.77,516.08Zm15.7-45.39a15,15,0,0,0-7.35,2.27c-9.41,5.43-17.07,18.7-17.07,29.57,0,5.05,1.65,8.78,4.65,10.51s7,1.29,11.42-1.23c9.42-5.44,17.07-18.7,17.07-29.57,0-5.05-1.65-8.78-4.64-10.51A8,8,0,0,0,717.47,470.69Z"/>
      </g>
    </g>
  </g>
</svg>
