<svg xmlns="http://www.w3.org/2000/svg" width="81.93" height="82.78"><defs><style>.b0e5b1a8-a1b7-44da-b9b7-9f40aca3528a{stroke-miterlimit:10;fill:#fff;stroke:#fff}</style></defs><g id="bb0c5d71-9714-4846-8e8a-bed7a735674c" data-name="Layer 1"><rect x="4.16" y="4.58" width="73.62" height="73.62" rx="16.76" stroke-miterlimit="10" fill="#213a6b" stroke="#213a6b"/><path class="b0e5b1a8-a1b7-44da-b9b7-9f40aca3528a" d="M23 51V30h5.8q11.1 0 11.11 10.24a10.29 10.29 0 01-3.09 7.81A11.42 11.42 0 0128.58 51zm2.46-18.77v16.59h3.14a8.93 8.93 0 006.4-2.21 8.32 8.32 0 002.3-6.27q0-8.07-8.59-8.07zM61.32 51H58.6l-2.23-5.88h-8.9L45.37 51h-2.74l8.06-21h2.55zm-5.75-8.1l-3.3-8.9a7.61 7.61 0 01-.32-1.4h-.06a7.75 7.75 0 01-.34 1.4l-3.26 8.95z"/></g></svg>