<svg xmlns="http://www.w3.org/2000/svg" width="81.93" height="82.78" viewBox="0 0 81.93 82.78">
  <defs>
    <style>
      .a8d6734b-bbf9-47d0-a54f-9322aaf09e3b {
        fill: #1f84ff;
      }

      .fee06147-9f60-4aae-a36f-edf70ec086c4 {
        fill: #fff;
        stroke: #fff;
        stroke-miterlimit: 10;
      }
    </style>
  </defs>
  <g id="abcb13c9-f546-4521-b9c3-0d60ed419d68" data-name="Layer 1">
    <g>
      <g>
        <rect class="a8d6734b-bbf9-47d0-a54f-9322aaf09e3b" x="4.16" y="4.58" width="73.62" height="73.62" rx="16.76"/>
        <path class="a8d6734b-bbf9-47d0-a54f-9322aaf09e3b" d="M61,79.2H20.91A17.78,17.78,0,0,1,3.16,61.44V21.34A17.77,17.77,0,0,1,20.91,3.58H61A17.78,17.78,0,0,1,78.78,21.34v40.1A17.78,17.78,0,0,1,61,79.2ZM20.91,5.58A15.78,15.78,0,0,0,5.16,21.34v40.1A15.78,15.78,0,0,0,20.91,77.2H61A15.78,15.78,0,0,0,76.78,61.44V21.34A15.78,15.78,0,0,0,61,5.58Z"/>
      </g>
      <g>
        <path class="fee06147-9f60-4aae-a36f-edf70ec086c4" d="M21.06,51.4a9.25,9.25,0,0,1-7.16-2.95,10.91,10.91,0,0,1-2.68-7.66A11.58,11.58,0,0,1,14,32.7a9.55,9.55,0,0,1,7.45-3,9,9,0,0,1,7,2.93,11,11,0,0,1,2.66,7.66,11.63,11.63,0,0,1-2.72,8.13A9.41,9.41,0,0,1,21.06,51.4Zm.18-19.49a6.79,6.79,0,0,0-5.38,2.39,9.22,9.22,0,0,0-2.06,6.27,9.33,9.33,0,0,0,2,6.25,6.55,6.55,0,0,0,5.25,2.36,6.9,6.9,0,0,0,5.45-2.25,9.23,9.23,0,0,0,2-6.32,9.64,9.64,0,0,0-1.93-6.43A6.65,6.65,0,0,0,21.24,31.91Z"/>
        <path class="fee06147-9f60-4aae-a36f-edf70ec086c4" d="M52.58,51H49.85l-2.23-5.88h-8.9L36.62,51H33.88l8.06-21h2.55Zm-5.76-8.1L43.52,34a9.76,9.76,0,0,1-.32-1.4h-.06A7.75,7.75,0,0,1,42.8,34l-3.26,8.95Z"/>
        <path class="fee06147-9f60-4aae-a36f-edf70ec086c4" d="M59.63,43.11V51H57.17V30h5.77a7.65,7.65,0,0,1,5.22,1.64A5.87,5.87,0,0,1,70,36.31,6.37,6.37,0,0,1,68,41.2a7.89,7.89,0,0,1-5.56,1.91Zm0-10.84v8.61h2.58a5.73,5.73,0,0,0,3.88-1.17,4.08,4.08,0,0,0,1.34-3.28c0-2.78-1.64-4.16-4.92-4.16Z"/>
      </g>
    </g>
  </g>
</svg>
