<svg xmlns="http://www.w3.org/2000/svg" width="81.93" height="82.78"><defs><style>.f782be63-3eea-42a1-ba2c-71047a601c81{fill:#1f84ff}.a128f346-2ede-4bbc-8ff1-bc201076e793{fill:#fff;stroke:#fff;stroke-miterlimit:10}</style></defs><g id="f49e0293-f55b-480e-a82a-5bffdffea056" data-name="Layer 1"><rect class="f782be63-3eea-42a1-ba2c-71047a601c81" x="4.16" y="4.58" width="73.62" height="73.62" rx="16.76"/><path class="f782be63-3eea-42a1-ba2c-71047a601c81" d="M61 79.2H20.91A17.78 17.78 0 013.16 61.44v-40.1A17.77 17.77 0 0120.91 3.58H61a17.78 17.78 0 0117.78 17.76v40.1A17.78 17.78 0 0161 79.2zM20.91 5.58A15.78 15.78 0 005.16 21.34v40.1A15.78 15.78 0 0020.91 77.2H61a15.78 15.78 0 0015.78-15.76v-40.1A15.78 15.78 0 0061 5.58z"/><g><path class="a128f346-2ede-4bbc-8ff1-bc201076e793" d="M28.38 50.57H17.24v-21h10.67v2.22H19.7v7h7.59V41H19.7v7.35h8.68zM32.94 49.72v-2.9a5.59 5.59 0 001.19.79 9.62 9.62 0 001.47.6 11.89 11.89 0 001.54.37 8.45 8.45 0 001.44.13 5.64 5.64 0 003.42-.84 2.84 2.84 0 001.12-2.43 3 3 0 00-.4-1.44 4.12 4.12 0 00-1-1.14 10.25 10.25 0 00-1.56-1c-.6-.32-1.24-.65-1.94-1s-1.41-.75-2-1.13a8.64 8.64 0 01-1.65-1.26 5.3 5.3 0 01-1.11-1.56 5.33 5.33 0 01.23-4.54 5.41 5.41 0 011.65-1.75 7.64 7.64 0 012.34-1 10.86 10.86 0 012.67-.34 10.24 10.24 0 014.53.75v2.77A8.2 8.2 0 0040 31.44a8.08 8.08 0 00-1.61.17 4.3 4.3 0 00-1.43.55 3.12 3.12 0 00-1 1 2.63 2.63 0 00-.39 1.46 3 3 0 00.29 1.4 3.68 3.68 0 00.89 1.07 8.85 8.85 0 001.43.93c.56.31 1.21.64 1.94 1s1.47.76 2.14 1.17A10.34 10.34 0 0144 41.53a6 6 0 011.21 1.66 4.61 4.61 0 01.45 2.08 5.35 5.35 0 01-.61 2.63 5 5 0 01-1.64 1.75 7.14 7.14 0 01-2.38 1 13.08 13.08 0 01-2.84.3 9.91 9.91 0 01-1.19-.11c-.49-.05-1-.13-1.5-.23a13.7 13.7 0 01-1.5-.38 4.28 4.28 0 01-1.06-.51zM67.62 50.57h-2.73l-2.22-5.89h-8.91l-2.1 5.89h-2.73l8-21h2.55zm-5.76-8.1l-3.3-8.95a9.64 9.64 0 01-.32-1.41h-.06a7.79 7.79 0 01-.33 1.41l-3.27 8.95z"/></g></g></svg>