<svg xmlns="http://www.w3.org/2000/svg" width="81.93" height="82.78" viewBox="0 0 81.93 82.78">
  <defs>
    <style>
      .f782be63-3eea-42a1-ba2c-71047a601c81 {
        fill: #1f84ff;
      }

      .a128f346-2ede-4bbc-8ff1-bc201076e793 {
        fill: #fff;
        stroke: #fff;
        stroke-miterlimit: 10;
      }
    </style>
  </defs>
  <g id="f49e0293-f55b-480e-a82a-5bffdffea056" data-name="Layer 1">
    <g>
      <rect class="f782be63-3eea-42a1-ba2c-71047a601c81" x="4.16" y="4.58" width="73.62" height="73.62" rx="16.76"/>
      <path class="f782be63-3eea-42a1-ba2c-71047a601c81" d="M61,79.2H20.91A17.78,17.78,0,0,1,3.16,61.44V21.34A17.77,17.77,0,0,1,20.91,3.58H61A17.78,17.78,0,0,1,78.78,21.34v40.1A17.78,17.78,0,0,1,61,79.2ZM20.91,5.58A15.78,15.78,0,0,0,5.16,21.34v40.1A15.78,15.78,0,0,0,20.91,77.2H61A15.78,15.78,0,0,0,76.78,61.44V21.34A15.78,15.78,0,0,0,61,5.58Z"/>
    </g>
    <g>
      <path class="a128f346-2ede-4bbc-8ff1-bc201076e793" d="M28.38,50.57H17.24v-21H27.91v2.22H19.7v7h7.59V41H19.7v7.35h8.68Z"/>
      <path class="a128f346-2ede-4bbc-8ff1-bc201076e793" d="M32.94,49.72v-2.9a5.59,5.59,0,0,0,1.19.79,9.62,9.62,0,0,0,1.47.6,11.89,11.89,0,0,0,1.54.37,8.45,8.45,0,0,0,1.44.13A5.64,5.64,0,0,0,42,47.87a2.84,2.84,0,0,0,1.12-2.43A3,3,0,0,0,42.72,44a4.12,4.12,0,0,0-1-1.14,10.25,10.25,0,0,0-1.56-1c-.6-.32-1.24-.65-1.94-1s-1.41-.75-2-1.13a8.64,8.64,0,0,1-1.65-1.26,5.3,5.3,0,0,1-1.11-1.56,5.33,5.33,0,0,1,.23-4.54,5.41,5.41,0,0,1,1.65-1.75,7.64,7.64,0,0,1,2.34-1,10.86,10.86,0,0,1,2.67-.34,10.24,10.24,0,0,1,4.53.75v2.77A8.2,8.2,0,0,0,40,31.44a8.08,8.08,0,0,0-1.61.17,4.3,4.3,0,0,0-1.43.55,3.12,3.12,0,0,0-1,1,2.63,2.63,0,0,0-.39,1.46,3,3,0,0,0,.29,1.4,3.68,3.68,0,0,0,.89,1.07,8.85,8.85,0,0,0,1.43.93c.56.31,1.21.64,1.94,1s1.47.76,2.14,1.17A10.34,10.34,0,0,1,44,41.53a6,6,0,0,1,1.21,1.66,4.61,4.61,0,0,1,.45,2.08,5.35,5.35,0,0,1-.61,2.63,5,5,0,0,1-1.64,1.75,7.14,7.14,0,0,1-2.38,1,13.08,13.08,0,0,1-2.84.3A9.91,9.91,0,0,1,37,50.84c-.49-.05-1-.13-1.5-.23A13.7,13.7,0,0,1,34,50.23,4.28,4.28,0,0,1,32.94,49.72Z"/>
      <path class="a128f346-2ede-4bbc-8ff1-bc201076e793" d="M67.62,50.57H64.89l-2.22-5.89H53.76l-2.1,5.89H48.93l8-21h2.55Zm-5.76-8.1-3.3-8.95a9.64,9.64,0,0,1-.32-1.41h-.06a7.79,7.79,0,0,1-.33,1.41l-3.27,8.95Z"/>
    </g>
  </g>
</svg>
