<svg xmlns="http://www.w3.org/2000/svg" width="81.93" height="82.78"><g data-name="Layer 1" stroke-miterlimit="10"><rect x="4.16" y="4.58" width="73.62" height="73.62" rx="16.76" fill="#51cf69" stroke="#51cf69"/><path d="M40.2 51h-2.44V37c0-1.11.07-2.47.2-4.08h-.06a12.27 12.27 0 01-.63 2L30.1 51h-1.2l-7.17-16a13.77 13.77 0 01-.63-2.15H21q.12 1.26.12 4.11V51h-2.33V30H22l6.44 14.65a17.47 17.47 0 011 2.52h.09c.42-1.16.76-2 1-2.58L37.13 30h3.07zm23.29 0h-2.73l-2.23-5.88h-8.9L47.53 51h-2.74l8.06-21h2.55zm-5.76-8.1l-3.3-8.9a9.76 9.76 0 01-.32-1.4h-.06a8.85 8.85 0 01-.33 1.4l-3.27 8.95z" fill="#fff" stroke="#fff"/></g></svg>