<svg xmlns="http://www.w3.org/2000/svg" width="1310.26" height="532.05"><defs><clipPath id="a1d64b19-b69f-4a8e-94d6-44b9986de38c"><path class="bdf2049d-638d-4efd-b12b-efed57f8f4ce" d="M2.05.65h1305.87v998.41H2.05z"/></clipPath><style>.bdf2049d-638d-4efd-b12b-efed57f8f4ce{fill:none}.bfdabf6a-2589-4003-aed0-a548978c3e94{fill:#d4e4f1}.baac4cfe-1a28-4899-a1eb-cf3a2dbf0572{stroke-miterlimit:10}.bfa3d198-26f7-4ed9-acfc-0bdb4bf691e0{fill:#f4f8fa}.aaaa320a-3bd9-4ae4-8093-6cdd92522e61{fill:#c7d3dd}.baac4cfe-1a28-4899-a1eb-cf3a2dbf0572,.bbebb571-0cbf-4a19-aaf2-77a43001b731{fill:#fff}.b7643534-8936-414b-9d73-a734f6b1e5db{fill:#1f84ff}.b1fbacb4-d42b-4a4b-a5e3-7a040ab97009{fill:#b4ddff}.a58a1501-ef6a-4ea6-94ba-0c4c0f036226{fill:#a2b1c3}.baac4cfe-1a28-4899-a1eb-cf3a2dbf0572{stroke:#fff}</style></defs><g clip-path="url(#a1d64b19-b69f-4a8e-94d6-44b9986de38c)" id="f9fa4ec9-430c-4479-a11b-88cea4e087dd" data-name="Layer 2"><path class="bdf2049d-638d-4efd-b12b-efed57f8f4ce" d="M1270.36-4.68h52.48v44.17h-52.48z"/><ellipse class="bfdabf6a-2589-4003-aed0-a548978c3e94" cx="1296.6" cy="17.4" rx="2.16" ry="1.82"/><path class="bdf2049d-638d-4efd-b12b-efed57f8f4ce" d="M1270.36 39.49h52.48v44.17h-52.48z"/><ellipse class="bfdabf6a-2589-4003-aed0-a548978c3e94" cx="1296.6" cy="61.57" rx="2.16" ry="1.82"/><path class="bdf2049d-638d-4efd-b12b-efed57f8f4ce" d="M1270.36 83.66h52.48v44.17h-52.48z"/><ellipse class="bfdabf6a-2589-4003-aed0-a548978c3e94" cx="1296.6" cy="105.75" rx="2.16" ry="1.82"/><path class="bdf2049d-638d-4efd-b12b-efed57f8f4ce" d="M1270.36 127.83h52.48V172h-52.48z"/><ellipse class="bfdabf6a-2589-4003-aed0-a548978c3e94" cx="1296.6" cy="149.92" rx="2.16" ry="1.82"/><path class="bdf2049d-638d-4efd-b12b-efed57f8f4ce" d="M1270.36 172h52.48v44.17h-52.48z"/><ellipse class="bfdabf6a-2589-4003-aed0-a548978c3e94" cx="1296.6" cy="194.09" rx="2.16" ry="1.82"/><path class="bdf2049d-638d-4efd-b12b-efed57f8f4ce" d="M1270.36 216.17h52.48v44.17h-52.48z"/><ellipse class="bfdabf6a-2589-4003-aed0-a548978c3e94" cx="1296.6" cy="238.26" rx="2.16" ry="1.82"/><path class="bdf2049d-638d-4efd-b12b-efed57f8f4ce" d="M1270.36 260.35h52.48v44.17h-52.48z"/><ellipse class="bfdabf6a-2589-4003-aed0-a548978c3e94" cx="1296.6" cy="282.43" rx="2.16" ry="1.82"/><path class="bdf2049d-638d-4efd-b12b-efed57f8f4ce" d="M1270.36 304.52h52.48v44.17h-52.48z"/><ellipse class="bfdabf6a-2589-4003-aed0-a548978c3e94" cx="1296.6" cy="326.6" rx="2.16" ry="1.82"/><path class="bdf2049d-638d-4efd-b12b-efed57f8f4ce" d="M1270.36 348.69h52.48v44.17h-52.48z"/><ellipse class="bfdabf6a-2589-4003-aed0-a548978c3e94" cx="1296.6" cy="370.77" rx="2.16" ry="1.82"/><path class="bdf2049d-638d-4efd-b12b-efed57f8f4ce" d="M1270.36 392.86h52.48v44.17h-52.48z"/><ellipse class="bfdabf6a-2589-4003-aed0-a548978c3e94" cx="1296.6" cy="414.95" rx="2.16" ry="1.82"/><path class="bdf2049d-638d-4efd-b12b-efed57f8f4ce" d="M1270.36 437.03h52.48v44.17h-52.48z"/><ellipse class="bfdabf6a-2589-4003-aed0-a548978c3e94" cx="1296.6" cy="459.12" rx="2.16" ry="1.82"/><path class="bdf2049d-638d-4efd-b12b-efed57f8f4ce" d="M1270.36 481.2h52.48v44.17h-52.48z"/><ellipse class="bfdabf6a-2589-4003-aed0-a548978c3e94" cx="1296.6" cy="503.29" rx="2.16" ry="1.82"/><path class="bdf2049d-638d-4efd-b12b-efed57f8f4ce" d="M1270.36 525.37h52.48v44.17h-52.48zM1217.88-4.68h52.48v44.17h-52.48z"/><ellipse class="bfdabf6a-2589-4003-aed0-a548978c3e94" cx="1244.12" cy="17.4" rx="2.16" ry="1.82"/><path class="bdf2049d-638d-4efd-b12b-efed57f8f4ce" d="M1217.88 39.49h52.48v44.17h-52.48z"/><ellipse class="bfdabf6a-2589-4003-aed0-a548978c3e94" cx="1244.12" cy="61.57" rx="2.16" ry="1.82"/><path class="bdf2049d-638d-4efd-b12b-efed57f8f4ce" d="M1217.88 83.66h52.48v44.17h-52.48z"/><ellipse class="bfdabf6a-2589-4003-aed0-a548978c3e94" cx="1244.12" cy="105.75" rx="2.16" ry="1.82"/><path class="bdf2049d-638d-4efd-b12b-efed57f8f4ce" d="M1217.88 127.83h52.48V172h-52.48z"/><ellipse class="bfdabf6a-2589-4003-aed0-a548978c3e94" cx="1244.12" cy="149.92" rx="2.16" ry="1.82"/><path class="bdf2049d-638d-4efd-b12b-efed57f8f4ce" d="M1217.88 172h52.48v44.17h-52.48z"/><ellipse class="bfdabf6a-2589-4003-aed0-a548978c3e94" cx="1244.12" cy="194.09" rx="2.16" ry="1.82"/><path class="bdf2049d-638d-4efd-b12b-efed57f8f4ce" d="M1217.88 216.17h52.48v44.17h-52.48z"/><ellipse class="bfdabf6a-2589-4003-aed0-a548978c3e94" cx="1244.12" cy="238.26" rx="2.16" ry="1.82"/><path class="bdf2049d-638d-4efd-b12b-efed57f8f4ce" d="M1217.88 260.35h52.48v44.17h-52.48z"/><ellipse class="bfdabf6a-2589-4003-aed0-a548978c3e94" cx="1244.12" cy="282.43" rx="2.16" ry="1.82"/><path class="bdf2049d-638d-4efd-b12b-efed57f8f4ce" d="M1217.88 304.52h52.48v44.17h-52.48z"/><ellipse class="bfdabf6a-2589-4003-aed0-a548978c3e94" cx="1244.12" cy="326.6" rx="2.16" ry="1.82"/><path class="bdf2049d-638d-4efd-b12b-efed57f8f4ce" d="M1217.88 348.69h52.48v44.17h-52.48z"/><ellipse class="bfdabf6a-2589-4003-aed0-a548978c3e94" cx="1244.12" cy="370.77" rx="2.16" ry="1.82"/><path class="bdf2049d-638d-4efd-b12b-efed57f8f4ce" d="M1217.88 392.86h52.48v44.17h-52.48z"/><ellipse class="bfdabf6a-2589-4003-aed0-a548978c3e94" cx="1244.12" cy="414.95" rx="2.16" ry="1.82"/><path class="bdf2049d-638d-4efd-b12b-efed57f8f4ce" d="M1217.88 437.03h52.48v44.17h-52.48z"/><ellipse class="bfdabf6a-2589-4003-aed0-a548978c3e94" cx="1244.12" cy="459.12" rx="2.16" ry="1.82"/><path class="bdf2049d-638d-4efd-b12b-efed57f8f4ce" d="M1217.88 481.2h52.48v44.17h-52.48z"/><ellipse class="bfdabf6a-2589-4003-aed0-a548978c3e94" cx="1244.12" cy="503.29" rx="2.16" ry="1.82"/><path class="bdf2049d-638d-4efd-b12b-efed57f8f4ce" d="M1217.88 525.37h52.48v44.17h-52.48zM1165.39-4.68h52.48v44.17h-52.48z"/><ellipse class="bfdabf6a-2589-4003-aed0-a548978c3e94" cx="1191.64" cy="17.4" rx="2.16" ry="1.82"/><path class="bdf2049d-638d-4efd-b12b-efed57f8f4ce" d="M1165.39 39.49h52.48v44.17h-52.48z"/><ellipse class="bfdabf6a-2589-4003-aed0-a548978c3e94" cx="1191.64" cy="61.57" rx="2.16" ry="1.82"/><path class="bdf2049d-638d-4efd-b12b-efed57f8f4ce" d="M1165.39 83.66h52.48v44.17h-52.48z"/><ellipse class="bfdabf6a-2589-4003-aed0-a548978c3e94" cx="1191.64" cy="105.75" rx="2.16" ry="1.82"/><path class="bdf2049d-638d-4efd-b12b-efed57f8f4ce" d="M1165.39 127.83h52.48V172h-52.48z"/><ellipse class="bfdabf6a-2589-4003-aed0-a548978c3e94" cx="1191.64" cy="149.92" rx="2.16" ry="1.82"/><path class="bdf2049d-638d-4efd-b12b-efed57f8f4ce" d="M1165.39 172h52.48v44.17h-52.48z"/><ellipse class="bfdabf6a-2589-4003-aed0-a548978c3e94" cx="1191.64" cy="194.09" rx="2.16" ry="1.82"/><path class="bdf2049d-638d-4efd-b12b-efed57f8f4ce" d="M1165.39 216.17h52.48v44.17h-52.48z"/><ellipse class="bfdabf6a-2589-4003-aed0-a548978c3e94" cx="1191.64" cy="238.26" rx="2.16" ry="1.82"/><path class="bdf2049d-638d-4efd-b12b-efed57f8f4ce" d="M1165.39 260.35h52.48v44.17h-52.48z"/><ellipse class="bfdabf6a-2589-4003-aed0-a548978c3e94" cx="1191.64" cy="282.43" rx="2.16" ry="1.82"/><path class="bdf2049d-638d-4efd-b12b-efed57f8f4ce" d="M1165.39 304.52h52.48v44.17h-52.48z"/><ellipse class="bfdabf6a-2589-4003-aed0-a548978c3e94" cx="1191.64" cy="326.6" rx="2.16" ry="1.82"/><path class="bdf2049d-638d-4efd-b12b-efed57f8f4ce" d="M1165.39 348.69h52.48v44.17h-52.48z"/><ellipse class="bfdabf6a-2589-4003-aed0-a548978c3e94" cx="1191.64" cy="370.77" rx="2.16" ry="1.82"/><path class="bdf2049d-638d-4efd-b12b-efed57f8f4ce" d="M1165.39 392.86h52.48v44.17h-52.48z"/><ellipse class="bfdabf6a-2589-4003-aed0-a548978c3e94" cx="1191.64" cy="414.95" rx="2.16" ry="1.82"/><path class="bdf2049d-638d-4efd-b12b-efed57f8f4ce" d="M1165.39 437.03h52.48v44.17h-52.48z"/><ellipse class="bfdabf6a-2589-4003-aed0-a548978c3e94" cx="1191.64" cy="459.12" rx="2.16" ry="1.82"/><path class="bdf2049d-638d-4efd-b12b-efed57f8f4ce" d="M1165.39 481.2h52.48v44.17h-52.48z"/><ellipse class="bfdabf6a-2589-4003-aed0-a548978c3e94" cx="1191.64" cy="503.29" rx="2.16" ry="1.82"/><path class="bdf2049d-638d-4efd-b12b-efed57f8f4ce" d="M1165.39 525.37h52.48v44.17h-52.48zM1112.91-4.68h52.48v44.17h-52.48z"/><ellipse class="bfdabf6a-2589-4003-aed0-a548978c3e94" cx="1139.15" cy="17.4" rx="2.16" ry="1.82"/><path class="bdf2049d-638d-4efd-b12b-efed57f8f4ce" d="M1112.91 39.49h52.48v44.17h-52.48z"/><ellipse class="bfdabf6a-2589-4003-aed0-a548978c3e94" cx="1139.15" cy="61.57" rx="2.16" ry="1.82"/><path class="bdf2049d-638d-4efd-b12b-efed57f8f4ce" d="M1112.91 83.66h52.48v44.17h-52.48z"/><ellipse class="bfdabf6a-2589-4003-aed0-a548978c3e94" cx="1139.15" cy="105.75" rx="2.16" ry="1.82"/><path class="bdf2049d-638d-4efd-b12b-efed57f8f4ce" d="M1112.91 127.83h52.48V172h-52.48z"/><ellipse class="bfdabf6a-2589-4003-aed0-a548978c3e94" cx="1139.15" cy="149.92" rx="2.16" ry="1.82"/><path class="bdf2049d-638d-4efd-b12b-efed57f8f4ce" d="M1112.91 172h52.48v44.17h-52.48z"/><ellipse class="bfdabf6a-2589-4003-aed0-a548978c3e94" cx="1139.15" cy="194.09" rx="2.16" ry="1.82"/><path class="bdf2049d-638d-4efd-b12b-efed57f8f4ce" d="M1112.91 216.17h52.48v44.17h-52.48z"/><ellipse class="bfdabf6a-2589-4003-aed0-a548978c3e94" cx="1139.15" cy="238.26" rx="2.16" ry="1.82"/><path class="bdf2049d-638d-4efd-b12b-efed57f8f4ce" d="M1112.91 260.35h52.48v44.17h-52.48z"/><ellipse class="bfdabf6a-2589-4003-aed0-a548978c3e94" cx="1139.15" cy="282.43" rx="2.16" ry="1.82"/><path class="bdf2049d-638d-4efd-b12b-efed57f8f4ce" d="M1112.91 304.52h52.48v44.17h-52.48z"/><ellipse class="bfdabf6a-2589-4003-aed0-a548978c3e94" cx="1139.15" cy="326.6" rx="2.16" ry="1.82"/><path class="bdf2049d-638d-4efd-b12b-efed57f8f4ce" d="M1112.91 348.69h52.48v44.17h-52.48z"/><ellipse class="bfdabf6a-2589-4003-aed0-a548978c3e94" cx="1139.15" cy="370.77" rx="2.16" ry="1.82"/><path class="bdf2049d-638d-4efd-b12b-efed57f8f4ce" d="M1112.91 392.86h52.48v44.17h-52.48z"/><ellipse class="bfdabf6a-2589-4003-aed0-a548978c3e94" cx="1139.15" cy="414.95" rx="2.16" ry="1.82"/><path class="bdf2049d-638d-4efd-b12b-efed57f8f4ce" d="M1112.91 437.03h52.48v44.17h-52.48z"/><ellipse class="bfdabf6a-2589-4003-aed0-a548978c3e94" cx="1139.15" cy="459.12" rx="2.16" ry="1.82"/><path class="bdf2049d-638d-4efd-b12b-efed57f8f4ce" d="M1112.91 481.2h52.48v44.17h-52.48z"/><ellipse class="bfdabf6a-2589-4003-aed0-a548978c3e94" cx="1139.15" cy="503.29" rx="2.16" ry="1.82"/><path class="bdf2049d-638d-4efd-b12b-efed57f8f4ce" d="M1112.91 525.37h52.48v44.17h-52.48zM1060.43-4.68h52.48v44.17h-52.48z"/><ellipse class="bfdabf6a-2589-4003-aed0-a548978c3e94" cx="1086.67" cy="17.4" rx="2.16" ry="1.82"/><path class="bdf2049d-638d-4efd-b12b-efed57f8f4ce" d="M1060.43 39.49h52.48v44.17h-52.48z"/><ellipse class="bfdabf6a-2589-4003-aed0-a548978c3e94" cx="1086.67" cy="61.57" rx="2.16" ry="1.82"/><path class="bdf2049d-638d-4efd-b12b-efed57f8f4ce" d="M1060.43 83.66h52.48v44.17h-52.48z"/><ellipse class="bfdabf6a-2589-4003-aed0-a548978c3e94" cx="1086.67" cy="105.75" rx="2.16" ry="1.82"/><path class="bdf2049d-638d-4efd-b12b-efed57f8f4ce" d="M1060.43 127.83h52.48V172h-52.48z"/><ellipse class="bfdabf6a-2589-4003-aed0-a548978c3e94" cx="1086.67" cy="149.92" rx="2.16" ry="1.82"/><path class="bdf2049d-638d-4efd-b12b-efed57f8f4ce" d="M1060.43 172h52.48v44.17h-52.48z"/><ellipse class="bfdabf6a-2589-4003-aed0-a548978c3e94" cx="1086.67" cy="194.09" rx="2.16" ry="1.82"/><path class="bdf2049d-638d-4efd-b12b-efed57f8f4ce" d="M1060.43 216.17h52.48v44.17h-52.48z"/><ellipse class="bfdabf6a-2589-4003-aed0-a548978c3e94" cx="1086.67" cy="238.26" rx="2.16" ry="1.82"/><path class="bdf2049d-638d-4efd-b12b-efed57f8f4ce" d="M1060.43 260.35h52.48v44.17h-52.48z"/><ellipse class="bfdabf6a-2589-4003-aed0-a548978c3e94" cx="1086.67" cy="282.43" rx="2.16" ry="1.82"/><path class="bdf2049d-638d-4efd-b12b-efed57f8f4ce" d="M1060.43 304.52h52.48v44.17h-52.48z"/><ellipse class="bfdabf6a-2589-4003-aed0-a548978c3e94" cx="1086.67" cy="326.6" rx="2.16" ry="1.82"/><path class="bdf2049d-638d-4efd-b12b-efed57f8f4ce" d="M1060.43 348.69h52.48v44.17h-52.48z"/><ellipse class="bfdabf6a-2589-4003-aed0-a548978c3e94" cx="1086.67" cy="370.77" rx="2.16" ry="1.82"/><path class="bdf2049d-638d-4efd-b12b-efed57f8f4ce" d="M1060.43 392.86h52.48v44.17h-52.48z"/><ellipse class="bfdabf6a-2589-4003-aed0-a548978c3e94" cx="1086.67" cy="414.95" rx="2.16" ry="1.82"/><path class="bdf2049d-638d-4efd-b12b-efed57f8f4ce" d="M1060.43 437.03h52.48v44.17h-52.48z"/><ellipse class="bfdabf6a-2589-4003-aed0-a548978c3e94" cx="1086.67" cy="459.12" rx="2.16" ry="1.82"/><path class="bdf2049d-638d-4efd-b12b-efed57f8f4ce" d="M1060.43 481.2h52.48v44.17h-52.48z"/><ellipse class="bfdabf6a-2589-4003-aed0-a548978c3e94" cx="1086.67" cy="503.29" rx="2.16" ry="1.82"/><path class="bdf2049d-638d-4efd-b12b-efed57f8f4ce" d="M1060.43 525.37h52.48v44.17h-52.48zM1007.94-4.68h52.48v44.17h-52.48z"/><ellipse class="bfdabf6a-2589-4003-aed0-a548978c3e94" cx="1034.18" cy="17.4" rx="2.16" ry="1.82"/><path class="bdf2049d-638d-4efd-b12b-efed57f8f4ce" d="M1007.94 39.49h52.48v44.17h-52.48z"/><ellipse class="bfdabf6a-2589-4003-aed0-a548978c3e94" cx="1034.18" cy="61.57" rx="2.16" ry="1.82"/><path class="bdf2049d-638d-4efd-b12b-efed57f8f4ce" d="M1007.94 83.66h52.48v44.17h-52.48z"/><ellipse class="bfdabf6a-2589-4003-aed0-a548978c3e94" cx="1034.18" cy="105.75" rx="2.16" ry="1.82"/><path class="bdf2049d-638d-4efd-b12b-efed57f8f4ce" d="M1007.94 127.83h52.48V172h-52.48z"/><ellipse class="bfdabf6a-2589-4003-aed0-a548978c3e94" cx="1034.18" cy="149.92" rx="2.16" ry="1.82"/><path class="bdf2049d-638d-4efd-b12b-efed57f8f4ce" d="M1007.94 172h52.48v44.17h-52.48z"/><ellipse class="bfdabf6a-2589-4003-aed0-a548978c3e94" cx="1034.18" cy="194.09" rx="2.16" ry="1.82"/><path class="bdf2049d-638d-4efd-b12b-efed57f8f4ce" d="M1007.94 216.17h52.48v44.17h-52.48z"/><ellipse class="bfdabf6a-2589-4003-aed0-a548978c3e94" cx="1034.18" cy="238.26" rx="2.16" ry="1.82"/><path class="bdf2049d-638d-4efd-b12b-efed57f8f4ce" d="M1007.94 260.35h52.48v44.17h-52.48z"/><ellipse class="bfdabf6a-2589-4003-aed0-a548978c3e94" cx="1034.18" cy="282.43" rx="2.16" ry="1.82"/><path class="bdf2049d-638d-4efd-b12b-efed57f8f4ce" d="M1007.94 304.52h52.48v44.17h-52.48z"/><ellipse class="bfdabf6a-2589-4003-aed0-a548978c3e94" cx="1034.18" cy="326.6" rx="2.16" ry="1.82"/><path class="bdf2049d-638d-4efd-b12b-efed57f8f4ce" d="M1007.94 348.69h52.48v44.17h-52.48z"/><ellipse class="bfdabf6a-2589-4003-aed0-a548978c3e94" cx="1034.18" cy="370.77" rx="2.16" ry="1.82"/><path class="bdf2049d-638d-4efd-b12b-efed57f8f4ce" d="M1007.94 392.86h52.48v44.17h-52.48z"/><ellipse class="bfdabf6a-2589-4003-aed0-a548978c3e94" cx="1034.18" cy="414.95" rx="2.16" ry="1.82"/><path class="bdf2049d-638d-4efd-b12b-efed57f8f4ce" d="M1007.94 437.03h52.48v44.17h-52.48z"/><ellipse class="bfdabf6a-2589-4003-aed0-a548978c3e94" cx="1034.18" cy="459.12" rx="2.16" ry="1.82"/><path class="bdf2049d-638d-4efd-b12b-efed57f8f4ce" d="M1007.94 481.2h52.48v44.17h-52.48z"/><ellipse class="bfdabf6a-2589-4003-aed0-a548978c3e94" cx="1034.18" cy="503.29" rx="2.16" ry="1.82"/><path class="bdf2049d-638d-4efd-b12b-efed57f8f4ce" d="M1007.94 525.37h52.48v44.17h-52.48zM955.46-4.68h52.48v44.17h-52.48z"/><ellipse class="bfdabf6a-2589-4003-aed0-a548978c3e94" cx="981.7" cy="17.4" rx="2.16" ry="1.82"/><path class="bdf2049d-638d-4efd-b12b-efed57f8f4ce" d="M955.46 39.49h52.48v44.17h-52.48z"/><ellipse class="bfdabf6a-2589-4003-aed0-a548978c3e94" cx="981.7" cy="61.57" rx="2.16" ry="1.82"/><path class="bdf2049d-638d-4efd-b12b-efed57f8f4ce" d="M955.46 83.66h52.48v44.17h-52.48z"/><ellipse class="bfdabf6a-2589-4003-aed0-a548978c3e94" cx="981.7" cy="105.75" rx="2.16" ry="1.82"/><path class="bdf2049d-638d-4efd-b12b-efed57f8f4ce" d="M955.46 127.83h52.48V172h-52.48z"/><ellipse class="bfdabf6a-2589-4003-aed0-a548978c3e94" cx="981.7" cy="149.92" rx="2.16" ry="1.82"/><path class="bdf2049d-638d-4efd-b12b-efed57f8f4ce" d="M955.46 172h52.48v44.17h-52.48z"/><ellipse class="bfdabf6a-2589-4003-aed0-a548978c3e94" cx="981.7" cy="194.09" rx="2.16" ry="1.82"/><path class="bdf2049d-638d-4efd-b12b-efed57f8f4ce" d="M955.46 216.17h52.48v44.17h-52.48z"/><ellipse class="bfdabf6a-2589-4003-aed0-a548978c3e94" cx="981.7" cy="238.26" rx="2.16" ry="1.82"/><path class="bdf2049d-638d-4efd-b12b-efed57f8f4ce" d="M955.46 260.35h52.48v44.17h-52.48z"/><ellipse class="bfdabf6a-2589-4003-aed0-a548978c3e94" cx="981.7" cy="282.43" rx="2.16" ry="1.82"/><path class="bdf2049d-638d-4efd-b12b-efed57f8f4ce" d="M955.46 304.52h52.48v44.17h-52.48z"/><ellipse class="bfdabf6a-2589-4003-aed0-a548978c3e94" cx="981.7" cy="326.6" rx="2.16" ry="1.82"/><path class="bdf2049d-638d-4efd-b12b-efed57f8f4ce" d="M955.46 348.69h52.48v44.17h-52.48z"/><ellipse class="bfdabf6a-2589-4003-aed0-a548978c3e94" cx="981.7" cy="370.77" rx="2.16" ry="1.82"/><path class="bdf2049d-638d-4efd-b12b-efed57f8f4ce" d="M955.46 392.86h52.48v44.17h-52.48z"/><ellipse class="bfdabf6a-2589-4003-aed0-a548978c3e94" cx="981.7" cy="414.95" rx="2.16" ry="1.82"/><path class="bdf2049d-638d-4efd-b12b-efed57f8f4ce" d="M955.46 437.03h52.48v44.17h-52.48z"/><ellipse class="bfdabf6a-2589-4003-aed0-a548978c3e94" cx="981.7" cy="459.12" rx="2.16" ry="1.82"/><path class="bdf2049d-638d-4efd-b12b-efed57f8f4ce" d="M955.46 481.2h52.48v44.17h-52.48z"/><ellipse class="bfdabf6a-2589-4003-aed0-a548978c3e94" cx="981.7" cy="503.29" rx="2.16" ry="1.82"/><path class="bdf2049d-638d-4efd-b12b-efed57f8f4ce" d="M955.46 525.37h52.48v44.17h-52.48zM902.98-4.68h52.48v44.17h-52.48z"/><ellipse class="bfdabf6a-2589-4003-aed0-a548978c3e94" cx="929.22" cy="17.4" rx="2.16" ry="1.82"/><path class="bdf2049d-638d-4efd-b12b-efed57f8f4ce" d="M902.98 39.49h52.48v44.17h-52.48z"/><ellipse class="bfdabf6a-2589-4003-aed0-a548978c3e94" cx="929.22" cy="61.57" rx="2.16" ry="1.82"/><path class="bdf2049d-638d-4efd-b12b-efed57f8f4ce" d="M902.98 83.66h52.48v44.17h-52.48z"/><ellipse class="bfdabf6a-2589-4003-aed0-a548978c3e94" cx="929.22" cy="105.75" rx="2.16" ry="1.82"/><path class="bdf2049d-638d-4efd-b12b-efed57f8f4ce" d="M902.98 127.83h52.48V172h-52.48z"/><ellipse class="bfdabf6a-2589-4003-aed0-a548978c3e94" cx="929.22" cy="149.92" rx="2.16" ry="1.82"/><path class="bdf2049d-638d-4efd-b12b-efed57f8f4ce" d="M902.98 172h52.48v44.17h-52.48z"/><ellipse class="bfdabf6a-2589-4003-aed0-a548978c3e94" cx="929.22" cy="194.09" rx="2.16" ry="1.82"/><path class="bdf2049d-638d-4efd-b12b-efed57f8f4ce" d="M902.98 216.17h52.48v44.17h-52.48z"/><ellipse class="bfdabf6a-2589-4003-aed0-a548978c3e94" cx="929.22" cy="238.26" rx="2.16" ry="1.82"/><path class="bdf2049d-638d-4efd-b12b-efed57f8f4ce" d="M902.98 260.35h52.48v44.17h-52.48z"/><ellipse class="bfdabf6a-2589-4003-aed0-a548978c3e94" cx="929.22" cy="282.43" rx="2.16" ry="1.82"/><path class="bdf2049d-638d-4efd-b12b-efed57f8f4ce" d="M902.98 304.52h52.48v44.17h-52.48z"/><ellipse class="bfdabf6a-2589-4003-aed0-a548978c3e94" cx="929.22" cy="326.6" rx="2.16" ry="1.82"/><path class="bdf2049d-638d-4efd-b12b-efed57f8f4ce" d="M902.98 348.69h52.48v44.17h-52.48z"/><ellipse class="bfdabf6a-2589-4003-aed0-a548978c3e94" cx="929.22" cy="370.77" rx="2.16" ry="1.82"/><path class="bdf2049d-638d-4efd-b12b-efed57f8f4ce" d="M902.98 392.86h52.48v44.17h-52.48z"/><ellipse class="bfdabf6a-2589-4003-aed0-a548978c3e94" cx="929.22" cy="414.95" rx="2.16" ry="1.82"/><path class="bdf2049d-638d-4efd-b12b-efed57f8f4ce" d="M902.98 437.03h52.48v44.17h-52.48z"/><ellipse class="bfdabf6a-2589-4003-aed0-a548978c3e94" cx="929.22" cy="459.12" rx="2.16" ry="1.82"/><path class="bdf2049d-638d-4efd-b12b-efed57f8f4ce" d="M902.98 481.2h52.48v44.17h-52.48z"/><ellipse class="bfdabf6a-2589-4003-aed0-a548978c3e94" cx="929.22" cy="503.29" rx="2.16" ry="1.82"/><path class="bdf2049d-638d-4efd-b12b-efed57f8f4ce" d="M902.98 525.37h52.48v44.17h-52.48zM850.49-4.68h52.48v44.17h-52.48z"/><ellipse class="bfdabf6a-2589-4003-aed0-a548978c3e94" cx="876.73" cy="17.4" rx="2.16" ry="1.82"/><path class="bdf2049d-638d-4efd-b12b-efed57f8f4ce" d="M850.49 39.49h52.48v44.17h-52.48z"/><ellipse class="bfdabf6a-2589-4003-aed0-a548978c3e94" cx="876.73" cy="61.57" rx="2.16" ry="1.82"/><path class="bdf2049d-638d-4efd-b12b-efed57f8f4ce" d="M850.49 83.66h52.48v44.17h-52.48z"/><ellipse class="bfdabf6a-2589-4003-aed0-a548978c3e94" cx="876.73" cy="105.75" rx="2.16" ry="1.82"/><path class="bdf2049d-638d-4efd-b12b-efed57f8f4ce" d="M850.49 127.83h52.48V172h-52.48z"/><ellipse class="bfdabf6a-2589-4003-aed0-a548978c3e94" cx="876.73" cy="149.92" rx="2.16" ry="1.82"/><path class="bdf2049d-638d-4efd-b12b-efed57f8f4ce" d="M850.49 172h52.48v44.17h-52.48z"/><ellipse class="bfdabf6a-2589-4003-aed0-a548978c3e94" cx="876.73" cy="194.09" rx="2.16" ry="1.82"/><path class="bdf2049d-638d-4efd-b12b-efed57f8f4ce" d="M850.49 216.17h52.48v44.17h-52.48z"/><ellipse class="bfdabf6a-2589-4003-aed0-a548978c3e94" cx="876.73" cy="238.26" rx="2.16" ry="1.82"/><path class="bdf2049d-638d-4efd-b12b-efed57f8f4ce" d="M850.49 260.35h52.48v44.17h-52.48z"/><ellipse class="bfdabf6a-2589-4003-aed0-a548978c3e94" cx="876.73" cy="282.43" rx="2.16" ry="1.82"/><path class="bdf2049d-638d-4efd-b12b-efed57f8f4ce" d="M850.49 304.52h52.48v44.17h-52.48z"/><ellipse class="bfdabf6a-2589-4003-aed0-a548978c3e94" cx="876.73" cy="326.6" rx="2.16" ry="1.82"/><path class="bdf2049d-638d-4efd-b12b-efed57f8f4ce" d="M850.49 348.69h52.48v44.17h-52.48z"/><ellipse class="bfdabf6a-2589-4003-aed0-a548978c3e94" cx="876.73" cy="370.77" rx="2.16" ry="1.82"/><path class="bdf2049d-638d-4efd-b12b-efed57f8f4ce" d="M850.49 392.86h52.48v44.17h-52.48z"/><ellipse class="bfdabf6a-2589-4003-aed0-a548978c3e94" cx="876.73" cy="414.95" rx="2.16" ry="1.82"/><path class="bdf2049d-638d-4efd-b12b-efed57f8f4ce" d="M850.49 437.03h52.48v44.17h-52.48z"/><ellipse class="bfdabf6a-2589-4003-aed0-a548978c3e94" cx="876.73" cy="459.12" rx="2.16" ry="1.82"/><path class="bdf2049d-638d-4efd-b12b-efed57f8f4ce" d="M850.49 481.2h52.48v44.17h-52.48z"/><ellipse class="bfdabf6a-2589-4003-aed0-a548978c3e94" cx="876.73" cy="503.29" rx="2.16" ry="1.82"/><path class="bdf2049d-638d-4efd-b12b-efed57f8f4ce" d="M850.49 525.37h52.48v44.17h-52.48zM798.01-4.68h52.48v44.17h-52.48z"/><ellipse class="bfdabf6a-2589-4003-aed0-a548978c3e94" cx="824.25" cy="17.4" rx="2.16" ry="1.82"/><path class="bdf2049d-638d-4efd-b12b-efed57f8f4ce" d="M798.01 39.49h52.48v44.17h-52.48z"/><ellipse class="bfdabf6a-2589-4003-aed0-a548978c3e94" cx="824.25" cy="61.57" rx="2.16" ry="1.82"/><path class="bdf2049d-638d-4efd-b12b-efed57f8f4ce" d="M798.01 83.66h52.48v44.17h-52.48z"/><ellipse class="bfdabf6a-2589-4003-aed0-a548978c3e94" cx="824.25" cy="105.75" rx="2.16" ry="1.82"/><path class="bdf2049d-638d-4efd-b12b-efed57f8f4ce" d="M798.01 127.83h52.48V172h-52.48z"/><ellipse class="bfdabf6a-2589-4003-aed0-a548978c3e94" cx="824.25" cy="149.92" rx="2.16" ry="1.82"/><path class="bdf2049d-638d-4efd-b12b-efed57f8f4ce" d="M798.01 172h52.48v44.17h-52.48z"/><ellipse class="bfdabf6a-2589-4003-aed0-a548978c3e94" cx="824.25" cy="194.09" rx="2.16" ry="1.82"/><path class="bdf2049d-638d-4efd-b12b-efed57f8f4ce" d="M798.01 216.17h52.48v44.17h-52.48z"/><ellipse class="bfdabf6a-2589-4003-aed0-a548978c3e94" cx="824.25" cy="238.26" rx="2.16" ry="1.82"/><path class="bdf2049d-638d-4efd-b12b-efed57f8f4ce" d="M798.01 260.35h52.48v44.17h-52.48z"/><ellipse class="bfdabf6a-2589-4003-aed0-a548978c3e94" cx="824.25" cy="282.43" rx="2.16" ry="1.82"/><path class="bdf2049d-638d-4efd-b12b-efed57f8f4ce" d="M798.01 304.52h52.48v44.17h-52.48z"/><ellipse class="bfdabf6a-2589-4003-aed0-a548978c3e94" cx="824.25" cy="326.6" rx="2.16" ry="1.82"/><path class="bdf2049d-638d-4efd-b12b-efed57f8f4ce" d="M798.01 348.69h52.48v44.17h-52.48z"/><ellipse class="bfdabf6a-2589-4003-aed0-a548978c3e94" cx="824.25" cy="370.77" rx="2.16" ry="1.82"/><path class="bdf2049d-638d-4efd-b12b-efed57f8f4ce" d="M798.01 392.86h52.48v44.17h-52.48z"/><ellipse class="bfdabf6a-2589-4003-aed0-a548978c3e94" cx="824.25" cy="414.95" rx="2.16" ry="1.82"/><path class="bdf2049d-638d-4efd-b12b-efed57f8f4ce" d="M798.01 437.03h52.48v44.17h-52.48z"/><ellipse class="bfdabf6a-2589-4003-aed0-a548978c3e94" cx="824.25" cy="459.12" rx="2.16" ry="1.82"/><path class="bdf2049d-638d-4efd-b12b-efed57f8f4ce" d="M798.01 481.2h52.48v44.17h-52.48z"/><ellipse class="bfdabf6a-2589-4003-aed0-a548978c3e94" cx="824.25" cy="503.29" rx="2.16" ry="1.82"/><path class="bdf2049d-638d-4efd-b12b-efed57f8f4ce" d="M798.01 525.37h52.48v44.17h-52.48zM745.52-4.68H798v44.17h-52.48z"/><ellipse class="bfdabf6a-2589-4003-aed0-a548978c3e94" cx="771.77" cy="17.4" rx="2.16" ry="1.82"/><path class="bdf2049d-638d-4efd-b12b-efed57f8f4ce" d="M745.52 39.49H798v44.17h-52.48z"/><ellipse class="bfdabf6a-2589-4003-aed0-a548978c3e94" cx="771.77" cy="61.57" rx="2.16" ry="1.82"/><path class="bdf2049d-638d-4efd-b12b-efed57f8f4ce" d="M745.52 83.66H798v44.17h-52.48z"/><ellipse class="bfdabf6a-2589-4003-aed0-a548978c3e94" cx="771.77" cy="105.75" rx="2.16" ry="1.82"/><path class="bdf2049d-638d-4efd-b12b-efed57f8f4ce" d="M745.52 127.83H798V172h-52.48z"/><ellipse class="bfdabf6a-2589-4003-aed0-a548978c3e94" cx="771.77" cy="149.92" rx="2.16" ry="1.82"/><path class="bdf2049d-638d-4efd-b12b-efed57f8f4ce" d="M745.52 172H798v44.17h-52.48z"/><ellipse class="bfdabf6a-2589-4003-aed0-a548978c3e94" cx="771.77" cy="194.09" rx="2.16" ry="1.82"/><path class="bdf2049d-638d-4efd-b12b-efed57f8f4ce" d="M745.52 216.17H798v44.17h-52.48z"/><ellipse class="bfdabf6a-2589-4003-aed0-a548978c3e94" cx="771.77" cy="238.26" rx="2.16" ry="1.82"/><path class="bdf2049d-638d-4efd-b12b-efed57f8f4ce" d="M745.52 260.35H798v44.17h-52.48z"/><ellipse class="bfdabf6a-2589-4003-aed0-a548978c3e94" cx="771.77" cy="282.43" rx="2.16" ry="1.82"/><path class="bdf2049d-638d-4efd-b12b-efed57f8f4ce" d="M745.52 304.52H798v44.17h-52.48z"/><ellipse class="bfdabf6a-2589-4003-aed0-a548978c3e94" cx="771.77" cy="326.6" rx="2.16" ry="1.82"/><path class="bdf2049d-638d-4efd-b12b-efed57f8f4ce" d="M745.52 348.69H798v44.17h-52.48z"/><ellipse class="bfdabf6a-2589-4003-aed0-a548978c3e94" cx="771.77" cy="370.77" rx="2.16" ry="1.82"/><path class="bdf2049d-638d-4efd-b12b-efed57f8f4ce" d="M745.52 392.86H798v44.17h-52.48z"/><ellipse class="bfdabf6a-2589-4003-aed0-a548978c3e94" cx="771.77" cy="414.95" rx="2.16" ry="1.82"/><path class="bdf2049d-638d-4efd-b12b-efed57f8f4ce" d="M745.52 437.03H798v44.17h-52.48z"/><ellipse class="bfdabf6a-2589-4003-aed0-a548978c3e94" cx="771.77" cy="459.12" rx="2.16" ry="1.82"/><path class="bdf2049d-638d-4efd-b12b-efed57f8f4ce" d="M745.52 481.2H798v44.17h-52.48z"/><ellipse class="bfdabf6a-2589-4003-aed0-a548978c3e94" cx="771.77" cy="503.29" rx="2.16" ry="1.82"/><path class="bdf2049d-638d-4efd-b12b-efed57f8f4ce" d="M745.52 525.37H798v44.17h-52.48zM693.04-4.68h52.48v44.17h-52.48z"/><ellipse class="bfdabf6a-2589-4003-aed0-a548978c3e94" cx="719.28" cy="17.4" rx="2.16" ry="1.82"/><path class="bdf2049d-638d-4efd-b12b-efed57f8f4ce" d="M693.04 39.49h52.48v44.17h-52.48z"/><ellipse class="bfdabf6a-2589-4003-aed0-a548978c3e94" cx="719.28" cy="61.57" rx="2.16" ry="1.82"/><path class="bdf2049d-638d-4efd-b12b-efed57f8f4ce" d="M693.04 83.66h52.48v44.17h-52.48z"/><ellipse class="bfdabf6a-2589-4003-aed0-a548978c3e94" cx="719.28" cy="105.75" rx="2.16" ry="1.82"/><path class="bdf2049d-638d-4efd-b12b-efed57f8f4ce" d="M693.04 127.83h52.48V172h-52.48z"/><ellipse class="bfdabf6a-2589-4003-aed0-a548978c3e94" cx="719.28" cy="149.92" rx="2.16" ry="1.82"/><path class="bdf2049d-638d-4efd-b12b-efed57f8f4ce" d="M693.04 172h52.48v44.17h-52.48z"/><ellipse class="bfdabf6a-2589-4003-aed0-a548978c3e94" cx="719.28" cy="194.09" rx="2.16" ry="1.82"/><path class="bdf2049d-638d-4efd-b12b-efed57f8f4ce" d="M693.04 216.17h52.48v44.17h-52.48z"/><ellipse class="bfdabf6a-2589-4003-aed0-a548978c3e94" cx="719.28" cy="238.26" rx="2.16" ry="1.82"/><path class="bdf2049d-638d-4efd-b12b-efed57f8f4ce" d="M693.04 260.35h52.48v44.17h-52.48z"/><ellipse class="bfdabf6a-2589-4003-aed0-a548978c3e94" cx="719.28" cy="282.43" rx="2.16" ry="1.82"/><path class="bdf2049d-638d-4efd-b12b-efed57f8f4ce" d="M693.04 304.52h52.48v44.17h-52.48z"/><ellipse class="bfdabf6a-2589-4003-aed0-a548978c3e94" cx="719.28" cy="326.6" rx="2.16" ry="1.82"/><path class="bdf2049d-638d-4efd-b12b-efed57f8f4ce" d="M693.04 348.69h52.48v44.17h-52.48z"/><ellipse class="bfdabf6a-2589-4003-aed0-a548978c3e94" cx="719.28" cy="370.77" rx="2.16" ry="1.82"/><path class="bdf2049d-638d-4efd-b12b-efed57f8f4ce" d="M693.04 392.86h52.48v44.17h-52.48z"/><ellipse class="bfdabf6a-2589-4003-aed0-a548978c3e94" cx="719.28" cy="414.95" rx="2.16" ry="1.82"/><path class="bdf2049d-638d-4efd-b12b-efed57f8f4ce" d="M693.04 437.03h52.48v44.17h-52.48z"/><ellipse class="bfdabf6a-2589-4003-aed0-a548978c3e94" cx="719.28" cy="459.12" rx="2.16" ry="1.82"/><path class="bdf2049d-638d-4efd-b12b-efed57f8f4ce" d="M693.04 481.2h52.48v44.17h-52.48z"/><ellipse class="bfdabf6a-2589-4003-aed0-a548978c3e94" cx="719.28" cy="503.29" rx="2.16" ry="1.82"/><path class="bdf2049d-638d-4efd-b12b-efed57f8f4ce" d="M693.04 525.37h52.48v44.17h-52.48zM640.56-4.68h52.48v44.17h-52.48z"/><ellipse class="bfdabf6a-2589-4003-aed0-a548978c3e94" cx="666.8" cy="17.4" rx="2.16" ry="1.82"/><path class="bdf2049d-638d-4efd-b12b-efed57f8f4ce" d="M640.56 39.49h52.48v44.17h-52.48z"/><ellipse class="bfdabf6a-2589-4003-aed0-a548978c3e94" cx="666.8" cy="61.57" rx="2.16" ry="1.82"/><path class="bdf2049d-638d-4efd-b12b-efed57f8f4ce" d="M640.56 83.66h52.48v44.17h-52.48z"/><ellipse class="bfdabf6a-2589-4003-aed0-a548978c3e94" cx="666.8" cy="105.75" rx="2.16" ry="1.82"/><path class="bdf2049d-638d-4efd-b12b-efed57f8f4ce" d="M640.56 127.83h52.48V172h-52.48z"/><ellipse class="bfdabf6a-2589-4003-aed0-a548978c3e94" cx="666.8" cy="149.92" rx="2.16" ry="1.82"/><path class="bdf2049d-638d-4efd-b12b-efed57f8f4ce" d="M640.56 172h52.48v44.17h-52.48z"/><ellipse class="bfdabf6a-2589-4003-aed0-a548978c3e94" cx="666.8" cy="194.09" rx="2.16" ry="1.82"/><path class="bdf2049d-638d-4efd-b12b-efed57f8f4ce" d="M640.56 216.17h52.48v44.17h-52.48z"/><ellipse class="bfdabf6a-2589-4003-aed0-a548978c3e94" cx="666.8" cy="238.26" rx="2.16" ry="1.82"/><path class="bdf2049d-638d-4efd-b12b-efed57f8f4ce" d="M640.56 260.35h52.48v44.17h-52.48z"/><ellipse class="bfdabf6a-2589-4003-aed0-a548978c3e94" cx="666.8" cy="282.43" rx="2.16" ry="1.82"/><path class="bdf2049d-638d-4efd-b12b-efed57f8f4ce" d="M640.56 304.52h52.48v44.17h-52.48z"/><ellipse class="bfdabf6a-2589-4003-aed0-a548978c3e94" cx="666.8" cy="326.6" rx="2.16" ry="1.82"/><path class="bdf2049d-638d-4efd-b12b-efed57f8f4ce" d="M640.56 348.69h52.48v44.17h-52.48z"/><ellipse class="bfdabf6a-2589-4003-aed0-a548978c3e94" cx="666.8" cy="370.77" rx="2.16" ry="1.82"/><path class="bdf2049d-638d-4efd-b12b-efed57f8f4ce" d="M640.56 392.86h52.48v44.17h-52.48z"/><ellipse class="bfdabf6a-2589-4003-aed0-a548978c3e94" cx="666.8" cy="414.95" rx="2.16" ry="1.82"/><path class="bdf2049d-638d-4efd-b12b-efed57f8f4ce" d="M640.56 437.03h52.48v44.17h-52.48z"/><ellipse class="bfdabf6a-2589-4003-aed0-a548978c3e94" cx="666.8" cy="459.12" rx="2.16" ry="1.82"/><path class="bdf2049d-638d-4efd-b12b-efed57f8f4ce" d="M640.56 481.2h52.48v44.17h-52.48z"/><ellipse class="bfdabf6a-2589-4003-aed0-a548978c3e94" cx="666.8" cy="503.29" rx="2.16" ry="1.82"/><path class="bdf2049d-638d-4efd-b12b-efed57f8f4ce" d="M640.56 525.37h52.48v44.17h-52.48zM588.07-4.68h52.48v44.17h-52.48z"/><ellipse class="bfdabf6a-2589-4003-aed0-a548978c3e94" cx="614.31" cy="17.4" rx="2.16" ry="1.82"/><path class="bdf2049d-638d-4efd-b12b-efed57f8f4ce" d="M588.07 39.49h52.48v44.17h-52.48z"/><ellipse class="bfdabf6a-2589-4003-aed0-a548978c3e94" cx="614.31" cy="61.57" rx="2.16" ry="1.82"/><path class="bdf2049d-638d-4efd-b12b-efed57f8f4ce" d="M588.07 83.66h52.48v44.17h-52.48z"/><ellipse class="bfdabf6a-2589-4003-aed0-a548978c3e94" cx="614.31" cy="105.75" rx="2.16" ry="1.82"/><path class="bdf2049d-638d-4efd-b12b-efed57f8f4ce" d="M588.07 127.83h52.48V172h-52.48z"/><ellipse class="bfdabf6a-2589-4003-aed0-a548978c3e94" cx="614.31" cy="149.92" rx="2.16" ry="1.82"/><path class="bdf2049d-638d-4efd-b12b-efed57f8f4ce" d="M588.07 172h52.48v44.17h-52.48z"/><ellipse class="bfdabf6a-2589-4003-aed0-a548978c3e94" cx="614.31" cy="194.09" rx="2.16" ry="1.82"/><path class="bdf2049d-638d-4efd-b12b-efed57f8f4ce" d="M588.07 216.17h52.48v44.17h-52.48z"/><ellipse class="bfdabf6a-2589-4003-aed0-a548978c3e94" cx="614.31" cy="238.26" rx="2.16" ry="1.82"/><path class="bdf2049d-638d-4efd-b12b-efed57f8f4ce" d="M588.07 260.35h52.48v44.17h-52.48z"/><ellipse class="bfdabf6a-2589-4003-aed0-a548978c3e94" cx="614.31" cy="282.43" rx="2.16" ry="1.82"/><path class="bdf2049d-638d-4efd-b12b-efed57f8f4ce" d="M588.07 304.52h52.48v44.17h-52.48z"/><ellipse class="bfdabf6a-2589-4003-aed0-a548978c3e94" cx="614.31" cy="326.6" rx="2.16" ry="1.82"/><path class="bdf2049d-638d-4efd-b12b-efed57f8f4ce" d="M588.07 348.69h52.48v44.17h-52.48z"/><ellipse class="bfdabf6a-2589-4003-aed0-a548978c3e94" cx="614.31" cy="370.77" rx="2.16" ry="1.82"/><path class="bdf2049d-638d-4efd-b12b-efed57f8f4ce" d="M588.07 392.86h52.48v44.17h-52.48z"/><ellipse class="bfdabf6a-2589-4003-aed0-a548978c3e94" cx="614.31" cy="414.95" rx="2.16" ry="1.82"/><path class="bdf2049d-638d-4efd-b12b-efed57f8f4ce" d="M588.07 437.03h52.48v44.17h-52.48z"/><ellipse class="bfdabf6a-2589-4003-aed0-a548978c3e94" cx="614.31" cy="459.12" rx="2.16" ry="1.82"/><path class="bdf2049d-638d-4efd-b12b-efed57f8f4ce" d="M588.07 481.2h52.48v44.17h-52.48z"/><ellipse class="bfdabf6a-2589-4003-aed0-a548978c3e94" cx="614.31" cy="503.29" rx="2.16" ry="1.82"/><path class="bdf2049d-638d-4efd-b12b-efed57f8f4ce" d="M588.07 525.37h52.48v44.17h-52.48zM535.59-4.68h52.48v44.17h-52.48z"/><ellipse class="bfdabf6a-2589-4003-aed0-a548978c3e94" cx="561.83" cy="17.4" rx="2.16" ry="1.82"/><path class="bdf2049d-638d-4efd-b12b-efed57f8f4ce" d="M535.59 39.49h52.48v44.17h-52.48z"/><ellipse class="bfdabf6a-2589-4003-aed0-a548978c3e94" cx="561.83" cy="61.57" rx="2.16" ry="1.82"/><path class="bdf2049d-638d-4efd-b12b-efed57f8f4ce" d="M535.59 83.66h52.48v44.17h-52.48z"/><ellipse class="bfdabf6a-2589-4003-aed0-a548978c3e94" cx="561.83" cy="105.75" rx="2.16" ry="1.82"/><path class="bdf2049d-638d-4efd-b12b-efed57f8f4ce" d="M535.59 127.83h52.48V172h-52.48z"/><ellipse class="bfdabf6a-2589-4003-aed0-a548978c3e94" cx="561.83" cy="149.92" rx="2.16" ry="1.82"/><path class="bdf2049d-638d-4efd-b12b-efed57f8f4ce" d="M535.59 172h52.48v44.17h-52.48z"/><ellipse class="bfdabf6a-2589-4003-aed0-a548978c3e94" cx="561.83" cy="194.09" rx="2.16" ry="1.82"/><path class="bdf2049d-638d-4efd-b12b-efed57f8f4ce" d="M535.59 216.17h52.48v44.17h-52.48z"/><ellipse class="bfdabf6a-2589-4003-aed0-a548978c3e94" cx="561.83" cy="238.26" rx="2.16" ry="1.82"/><path class="bdf2049d-638d-4efd-b12b-efed57f8f4ce" d="M535.59 260.35h52.48v44.17h-52.48z"/><ellipse class="bfdabf6a-2589-4003-aed0-a548978c3e94" cx="561.83" cy="282.43" rx="2.16" ry="1.82"/><path class="bdf2049d-638d-4efd-b12b-efed57f8f4ce" d="M535.59 304.52h52.48v44.17h-52.48z"/><ellipse class="bfdabf6a-2589-4003-aed0-a548978c3e94" cx="561.83" cy="326.6" rx="2.16" ry="1.82"/><path class="bdf2049d-638d-4efd-b12b-efed57f8f4ce" d="M535.59 348.69h52.48v44.17h-52.48z"/><ellipse class="bfdabf6a-2589-4003-aed0-a548978c3e94" cx="561.83" cy="370.77" rx="2.16" ry="1.82"/><path class="bdf2049d-638d-4efd-b12b-efed57f8f4ce" d="M535.59 392.86h52.48v44.17h-52.48z"/><ellipse class="bfdabf6a-2589-4003-aed0-a548978c3e94" cx="561.83" cy="414.95" rx="2.16" ry="1.82"/><path class="bdf2049d-638d-4efd-b12b-efed57f8f4ce" d="M535.59 437.03h52.48v44.17h-52.48z"/><ellipse class="bfdabf6a-2589-4003-aed0-a548978c3e94" cx="561.83" cy="459.12" rx="2.16" ry="1.82"/><path class="bdf2049d-638d-4efd-b12b-efed57f8f4ce" d="M535.59 481.2h52.48v44.17h-52.48z"/><ellipse class="bfdabf6a-2589-4003-aed0-a548978c3e94" cx="561.83" cy="503.29" rx="2.16" ry="1.82"/><path class="bdf2049d-638d-4efd-b12b-efed57f8f4ce" d="M535.59 525.37h52.48v44.17h-52.48zM483.1-4.68h52.48v44.17H483.1z"/><ellipse class="bfdabf6a-2589-4003-aed0-a548978c3e94" cx="509.35" cy="17.4" rx="2.16" ry="1.82"/><path class="bdf2049d-638d-4efd-b12b-efed57f8f4ce" d="M483.1 39.49h52.48v44.17H483.1z"/><ellipse class="bfdabf6a-2589-4003-aed0-a548978c3e94" cx="509.35" cy="61.57" rx="2.16" ry="1.82"/><path class="bdf2049d-638d-4efd-b12b-efed57f8f4ce" d="M483.1 83.66h52.48v44.17H483.1z"/><ellipse class="bfdabf6a-2589-4003-aed0-a548978c3e94" cx="509.35" cy="105.75" rx="2.16" ry="1.82"/><path class="bdf2049d-638d-4efd-b12b-efed57f8f4ce" d="M483.1 127.83h52.48V172H483.1z"/><ellipse class="bfdabf6a-2589-4003-aed0-a548978c3e94" cx="509.35" cy="149.92" rx="2.16" ry="1.82"/><path class="bdf2049d-638d-4efd-b12b-efed57f8f4ce" d="M483.1 172h52.48v44.17H483.1z"/><ellipse class="bfdabf6a-2589-4003-aed0-a548978c3e94" cx="509.35" cy="194.09" rx="2.16" ry="1.82"/><path class="bdf2049d-638d-4efd-b12b-efed57f8f4ce" d="M483.1 216.17h52.48v44.17H483.1z"/><ellipse class="bfdabf6a-2589-4003-aed0-a548978c3e94" cx="509.35" cy="238.26" rx="2.16" ry="1.82"/><path class="bdf2049d-638d-4efd-b12b-efed57f8f4ce" d="M483.1 260.35h52.48v44.17H483.1z"/><ellipse class="bfdabf6a-2589-4003-aed0-a548978c3e94" cx="509.35" cy="282.43" rx="2.16" ry="1.82"/><path class="bdf2049d-638d-4efd-b12b-efed57f8f4ce" d="M483.1 304.52h52.48v44.17H483.1z"/><ellipse class="bfdabf6a-2589-4003-aed0-a548978c3e94" cx="509.35" cy="326.6" rx="2.16" ry="1.82"/><path class="bdf2049d-638d-4efd-b12b-efed57f8f4ce" d="M483.1 348.69h52.48v44.17H483.1z"/><ellipse class="bfdabf6a-2589-4003-aed0-a548978c3e94" cx="509.35" cy="370.77" rx="2.16" ry="1.82"/><path class="bdf2049d-638d-4efd-b12b-efed57f8f4ce" d="M483.1 392.86h52.48v44.17H483.1z"/><ellipse class="bfdabf6a-2589-4003-aed0-a548978c3e94" cx="509.35" cy="414.95" rx="2.16" ry="1.82"/><path class="bdf2049d-638d-4efd-b12b-efed57f8f4ce" d="M483.1 437.03h52.48v44.17H483.1z"/><ellipse class="bfdabf6a-2589-4003-aed0-a548978c3e94" cx="509.35" cy="459.12" rx="2.16" ry="1.82"/><path class="bdf2049d-638d-4efd-b12b-efed57f8f4ce" d="M483.1 481.2h52.48v44.17H483.1z"/><ellipse class="bfdabf6a-2589-4003-aed0-a548978c3e94" cx="509.35" cy="503.29" rx="2.16" ry="1.82"/><path class="bdf2049d-638d-4efd-b12b-efed57f8f4ce" d="M483.1 525.37h52.48v44.17H483.1zM430.62-4.68h52.48v44.17h-52.48z"/><ellipse class="bfdabf6a-2589-4003-aed0-a548978c3e94" cx="456.86" cy="17.4" rx="2.16" ry="1.82"/><path class="bdf2049d-638d-4efd-b12b-efed57f8f4ce" d="M430.62 39.49h52.48v44.17h-52.48z"/><ellipse class="bfdabf6a-2589-4003-aed0-a548978c3e94" cx="456.86" cy="61.57" rx="2.16" ry="1.82"/><path class="bdf2049d-638d-4efd-b12b-efed57f8f4ce" d="M430.62 83.66h52.48v44.17h-52.48z"/><ellipse class="bfdabf6a-2589-4003-aed0-a548978c3e94" cx="456.86" cy="105.75" rx="2.16" ry="1.82"/><path class="bdf2049d-638d-4efd-b12b-efed57f8f4ce" d="M430.62 127.83h52.48V172h-52.48z"/><ellipse class="bfdabf6a-2589-4003-aed0-a548978c3e94" cx="456.86" cy="149.92" rx="2.16" ry="1.82"/><path class="bdf2049d-638d-4efd-b12b-efed57f8f4ce" d="M430.62 172h52.48v44.17h-52.48z"/><ellipse class="bfdabf6a-2589-4003-aed0-a548978c3e94" cx="456.86" cy="194.09" rx="2.16" ry="1.82"/><path class="bdf2049d-638d-4efd-b12b-efed57f8f4ce" d="M430.62 216.17h52.48v44.17h-52.48z"/><ellipse class="bfdabf6a-2589-4003-aed0-a548978c3e94" cx="456.86" cy="238.26" rx="2.16" ry="1.82"/><path class="bdf2049d-638d-4efd-b12b-efed57f8f4ce" d="M430.62 260.35h52.48v44.17h-52.48z"/><ellipse class="bfdabf6a-2589-4003-aed0-a548978c3e94" cx="456.86" cy="282.43" rx="2.16" ry="1.82"/><path class="bdf2049d-638d-4efd-b12b-efed57f8f4ce" d="M430.62 304.52h52.48v44.17h-52.48z"/><ellipse class="bfdabf6a-2589-4003-aed0-a548978c3e94" cx="456.86" cy="326.6" rx="2.16" ry="1.82"/><path class="bdf2049d-638d-4efd-b12b-efed57f8f4ce" d="M430.62 348.69h52.48v44.17h-52.48z"/><ellipse class="bfdabf6a-2589-4003-aed0-a548978c3e94" cx="456.86" cy="370.77" rx="2.16" ry="1.82"/><path class="bdf2049d-638d-4efd-b12b-efed57f8f4ce" d="M430.62 392.86h52.48v44.17h-52.48z"/><ellipse class="bfdabf6a-2589-4003-aed0-a548978c3e94" cx="456.86" cy="414.95" rx="2.16" ry="1.82"/><path class="bdf2049d-638d-4efd-b12b-efed57f8f4ce" d="M430.62 437.03h52.48v44.17h-52.48z"/><ellipse class="bfdabf6a-2589-4003-aed0-a548978c3e94" cx="456.86" cy="459.12" rx="2.16" ry="1.82"/><path class="bdf2049d-638d-4efd-b12b-efed57f8f4ce" d="M430.62 481.2h52.48v44.17h-52.48z"/><ellipse class="bfdabf6a-2589-4003-aed0-a548978c3e94" cx="456.86" cy="503.29" rx="2.16" ry="1.82"/><path class="bdf2049d-638d-4efd-b12b-efed57f8f4ce" d="M430.62 525.37h52.48v44.17h-52.48zM378.14-4.68h52.48v44.17h-52.48z"/><ellipse class="bfdabf6a-2589-4003-aed0-a548978c3e94" cx="404.38" cy="17.4" rx="2.16" ry="1.82"/><path class="bdf2049d-638d-4efd-b12b-efed57f8f4ce" d="M378.14 39.49h52.48v44.17h-52.48z"/><ellipse class="bfdabf6a-2589-4003-aed0-a548978c3e94" cx="404.38" cy="61.57" rx="2.16" ry="1.82"/><path class="bdf2049d-638d-4efd-b12b-efed57f8f4ce" d="M378.14 83.66h52.48v44.17h-52.48z"/><ellipse class="bfdabf6a-2589-4003-aed0-a548978c3e94" cx="404.38" cy="105.75" rx="2.16" ry="1.82"/><path class="bdf2049d-638d-4efd-b12b-efed57f8f4ce" d="M378.14 127.83h52.48V172h-52.48z"/><ellipse class="bfdabf6a-2589-4003-aed0-a548978c3e94" cx="404.38" cy="149.92" rx="2.16" ry="1.82"/><path class="bdf2049d-638d-4efd-b12b-efed57f8f4ce" d="M378.14 172h52.48v44.17h-52.48z"/><ellipse class="bfdabf6a-2589-4003-aed0-a548978c3e94" cx="404.38" cy="194.09" rx="2.16" ry="1.82"/><path class="bdf2049d-638d-4efd-b12b-efed57f8f4ce" d="M378.14 216.17h52.48v44.17h-52.48z"/><ellipse class="bfdabf6a-2589-4003-aed0-a548978c3e94" cx="404.38" cy="238.26" rx="2.16" ry="1.82"/><path class="bdf2049d-638d-4efd-b12b-efed57f8f4ce" d="M378.14 260.35h52.48v44.17h-52.48z"/><ellipse class="bfdabf6a-2589-4003-aed0-a548978c3e94" cx="404.38" cy="282.43" rx="2.16" ry="1.82"/><path class="bdf2049d-638d-4efd-b12b-efed57f8f4ce" d="M378.14 304.52h52.48v44.17h-52.48z"/><ellipse class="bfdabf6a-2589-4003-aed0-a548978c3e94" cx="404.38" cy="326.6" rx="2.16" ry="1.82"/><path class="bdf2049d-638d-4efd-b12b-efed57f8f4ce" d="M378.14 348.69h52.48v44.17h-52.48z"/><ellipse class="bfdabf6a-2589-4003-aed0-a548978c3e94" cx="404.38" cy="370.77" rx="2.16" ry="1.82"/><path class="bdf2049d-638d-4efd-b12b-efed57f8f4ce" d="M378.14 392.86h52.48v44.17h-52.48z"/><ellipse class="bfdabf6a-2589-4003-aed0-a548978c3e94" cx="404.38" cy="414.95" rx="2.16" ry="1.82"/><path class="bdf2049d-638d-4efd-b12b-efed57f8f4ce" d="M378.14 437.03h52.48v44.17h-52.48z"/><ellipse class="bfdabf6a-2589-4003-aed0-a548978c3e94" cx="404.38" cy="459.12" rx="2.16" ry="1.82"/><path class="bdf2049d-638d-4efd-b12b-efed57f8f4ce" d="M378.14 481.2h52.48v44.17h-52.48z"/><ellipse class="bfdabf6a-2589-4003-aed0-a548978c3e94" cx="404.38" cy="503.29" rx="2.16" ry="1.82"/><path class="bdf2049d-638d-4efd-b12b-efed57f8f4ce" d="M378.14 525.37h52.48v44.17h-52.48zM325.65-4.68h52.48v44.17h-52.48z"/><ellipse class="bfdabf6a-2589-4003-aed0-a548978c3e94" cx="351.89" cy="17.4" rx="2.16" ry="1.82"/><path class="bdf2049d-638d-4efd-b12b-efed57f8f4ce" d="M325.65 39.49h52.48v44.17h-52.48z"/><ellipse class="bfdabf6a-2589-4003-aed0-a548978c3e94" cx="351.89" cy="61.57" rx="2.16" ry="1.82"/><path class="bdf2049d-638d-4efd-b12b-efed57f8f4ce" d="M325.65 83.66h52.48v44.17h-52.48z"/><ellipse class="bfdabf6a-2589-4003-aed0-a548978c3e94" cx="351.89" cy="105.75" rx="2.16" ry="1.82"/><path class="bdf2049d-638d-4efd-b12b-efed57f8f4ce" d="M325.65 127.83h52.48V172h-52.48z"/><ellipse class="bfdabf6a-2589-4003-aed0-a548978c3e94" cx="351.89" cy="149.92" rx="2.16" ry="1.82"/><path class="bdf2049d-638d-4efd-b12b-efed57f8f4ce" d="M325.65 172h52.48v44.17h-52.48z"/><ellipse class="bfdabf6a-2589-4003-aed0-a548978c3e94" cx="351.89" cy="194.09" rx="2.16" ry="1.82"/><path class="bdf2049d-638d-4efd-b12b-efed57f8f4ce" d="M325.65 216.17h52.48v44.17h-52.48z"/><ellipse class="bfdabf6a-2589-4003-aed0-a548978c3e94" cx="351.89" cy="238.26" rx="2.16" ry="1.82"/><path class="bdf2049d-638d-4efd-b12b-efed57f8f4ce" d="M325.65 260.35h52.48v44.17h-52.48z"/><ellipse class="bfdabf6a-2589-4003-aed0-a548978c3e94" cx="351.89" cy="282.43" rx="2.16" ry="1.82"/><path class="bdf2049d-638d-4efd-b12b-efed57f8f4ce" d="M325.65 304.52h52.48v44.17h-52.48z"/><ellipse class="bfdabf6a-2589-4003-aed0-a548978c3e94" cx="351.89" cy="326.6" rx="2.16" ry="1.82"/><path class="bdf2049d-638d-4efd-b12b-efed57f8f4ce" d="M325.65 348.69h52.48v44.17h-52.48z"/><ellipse class="bfdabf6a-2589-4003-aed0-a548978c3e94" cx="351.89" cy="370.77" rx="2.16" ry="1.82"/><path class="bdf2049d-638d-4efd-b12b-efed57f8f4ce" d="M325.65 392.86h52.48v44.17h-52.48z"/><ellipse class="bfdabf6a-2589-4003-aed0-a548978c3e94" cx="351.89" cy="414.95" rx="2.16" ry="1.82"/><path class="bdf2049d-638d-4efd-b12b-efed57f8f4ce" d="M325.65 437.03h52.48v44.17h-52.48z"/><ellipse class="bfdabf6a-2589-4003-aed0-a548978c3e94" cx="351.89" cy="459.12" rx="2.16" ry="1.82"/><path class="bdf2049d-638d-4efd-b12b-efed57f8f4ce" d="M325.65 481.2h52.48v44.17h-52.48z"/><ellipse class="bfdabf6a-2589-4003-aed0-a548978c3e94" cx="351.89" cy="503.29" rx="2.16" ry="1.82"/><path class="bdf2049d-638d-4efd-b12b-efed57f8f4ce" d="M325.65 525.37h52.48v44.17h-52.48zM273.17-4.68h52.48v44.17h-52.48z"/><ellipse class="bfdabf6a-2589-4003-aed0-a548978c3e94" cx="299.41" cy="17.4" rx="2.16" ry="1.82"/><path class="bdf2049d-638d-4efd-b12b-efed57f8f4ce" d="M273.17 39.49h52.48v44.17h-52.48z"/><ellipse class="bfdabf6a-2589-4003-aed0-a548978c3e94" cx="299.41" cy="61.57" rx="2.16" ry="1.82"/><path class="bdf2049d-638d-4efd-b12b-efed57f8f4ce" d="M273.17 83.66h52.48v44.17h-52.48z"/><ellipse class="bfdabf6a-2589-4003-aed0-a548978c3e94" cx="299.41" cy="105.75" rx="2.16" ry="1.82"/><path class="bdf2049d-638d-4efd-b12b-efed57f8f4ce" d="M273.17 127.83h52.48V172h-52.48z"/><ellipse class="bfdabf6a-2589-4003-aed0-a548978c3e94" cx="299.41" cy="149.92" rx="2.16" ry="1.82"/><path class="bdf2049d-638d-4efd-b12b-efed57f8f4ce" d="M273.17 172h52.48v44.17h-52.48z"/><ellipse class="bfdabf6a-2589-4003-aed0-a548978c3e94" cx="299.41" cy="194.09" rx="2.16" ry="1.82"/><path class="bdf2049d-638d-4efd-b12b-efed57f8f4ce" d="M273.17 216.17h52.48v44.17h-52.48z"/><ellipse class="bfdabf6a-2589-4003-aed0-a548978c3e94" cx="299.41" cy="238.26" rx="2.16" ry="1.82"/><path class="bdf2049d-638d-4efd-b12b-efed57f8f4ce" d="M273.17 260.35h52.48v44.17h-52.48z"/><ellipse class="bfdabf6a-2589-4003-aed0-a548978c3e94" cx="299.41" cy="282.43" rx="2.16" ry="1.82"/><path class="bdf2049d-638d-4efd-b12b-efed57f8f4ce" d="M273.17 304.52h52.48v44.17h-52.48z"/><ellipse class="bfdabf6a-2589-4003-aed0-a548978c3e94" cx="299.41" cy="326.6" rx="2.16" ry="1.82"/><path class="bdf2049d-638d-4efd-b12b-efed57f8f4ce" d="M273.17 348.69h52.48v44.17h-52.48z"/><ellipse class="bfdabf6a-2589-4003-aed0-a548978c3e94" cx="299.41" cy="370.77" rx="2.16" ry="1.82"/><path class="bdf2049d-638d-4efd-b12b-efed57f8f4ce" d="M273.17 392.86h52.48v44.17h-52.48z"/><ellipse class="bfdabf6a-2589-4003-aed0-a548978c3e94" cx="299.41" cy="414.95" rx="2.16" ry="1.82"/><path class="bdf2049d-638d-4efd-b12b-efed57f8f4ce" d="M273.17 437.03h52.48v44.17h-52.48z"/><ellipse class="bfdabf6a-2589-4003-aed0-a548978c3e94" cx="299.41" cy="459.12" rx="2.16" ry="1.82"/><path class="bdf2049d-638d-4efd-b12b-efed57f8f4ce" d="M273.17 481.2h52.48v44.17h-52.48z"/><ellipse class="bfdabf6a-2589-4003-aed0-a548978c3e94" cx="299.41" cy="503.29" rx="2.16" ry="1.82"/><path class="bdf2049d-638d-4efd-b12b-efed57f8f4ce" d="M273.17 525.37h52.48v44.17h-52.48zM220.69-4.68h52.48v44.17h-52.48z"/><ellipse class="bfdabf6a-2589-4003-aed0-a548978c3e94" cx="246.93" cy="17.4" rx="2.16" ry="1.82"/><path class="bdf2049d-638d-4efd-b12b-efed57f8f4ce" d="M220.69 39.49h52.48v44.17h-52.48z"/><ellipse class="bfdabf6a-2589-4003-aed0-a548978c3e94" cx="246.93" cy="61.57" rx="2.16" ry="1.82"/><path class="bdf2049d-638d-4efd-b12b-efed57f8f4ce" d="M220.69 83.66h52.48v44.17h-52.48z"/><ellipse class="bfdabf6a-2589-4003-aed0-a548978c3e94" cx="246.93" cy="105.75" rx="2.16" ry="1.82"/><path class="bdf2049d-638d-4efd-b12b-efed57f8f4ce" d="M220.69 127.83h52.48V172h-52.48z"/><ellipse class="bfdabf6a-2589-4003-aed0-a548978c3e94" cx="246.93" cy="149.92" rx="2.16" ry="1.82"/><path class="bdf2049d-638d-4efd-b12b-efed57f8f4ce" d="M220.69 172h52.48v44.17h-52.48z"/><ellipse class="bfdabf6a-2589-4003-aed0-a548978c3e94" cx="246.93" cy="194.09" rx="2.16" ry="1.82"/><path class="bdf2049d-638d-4efd-b12b-efed57f8f4ce" d="M220.69 216.17h52.48v44.17h-52.48z"/><ellipse class="bfdabf6a-2589-4003-aed0-a548978c3e94" cx="246.93" cy="238.26" rx="2.16" ry="1.82"/><path class="bdf2049d-638d-4efd-b12b-efed57f8f4ce" d="M220.69 260.35h52.48v44.17h-52.48z"/><ellipse class="bfdabf6a-2589-4003-aed0-a548978c3e94" cx="246.93" cy="282.43" rx="2.16" ry="1.82"/><path class="bdf2049d-638d-4efd-b12b-efed57f8f4ce" d="M220.69 304.52h52.48v44.17h-52.48z"/><ellipse class="bfdabf6a-2589-4003-aed0-a548978c3e94" cx="246.93" cy="326.6" rx="2.16" ry="1.82"/><path class="bdf2049d-638d-4efd-b12b-efed57f8f4ce" d="M220.69 348.69h52.48v44.17h-52.48z"/><ellipse class="bfdabf6a-2589-4003-aed0-a548978c3e94" cx="246.93" cy="370.77" rx="2.16" ry="1.82"/><path class="bdf2049d-638d-4efd-b12b-efed57f8f4ce" d="M220.69 392.86h52.48v44.17h-52.48z"/><ellipse class="bfdabf6a-2589-4003-aed0-a548978c3e94" cx="246.93" cy="414.95" rx="2.16" ry="1.82"/><path class="bdf2049d-638d-4efd-b12b-efed57f8f4ce" d="M220.69 437.03h52.48v44.17h-52.48z"/><ellipse class="bfdabf6a-2589-4003-aed0-a548978c3e94" cx="246.93" cy="459.12" rx="2.16" ry="1.82"/><path class="bdf2049d-638d-4efd-b12b-efed57f8f4ce" d="M220.69 481.2h52.48v44.17h-52.48z"/><ellipse class="bfdabf6a-2589-4003-aed0-a548978c3e94" cx="246.93" cy="503.29" rx="2.16" ry="1.82"/><path class="bdf2049d-638d-4efd-b12b-efed57f8f4ce" d="M220.69 525.37h52.48v44.17h-52.48zM168.2-4.68h52.48v44.17H168.2z"/><ellipse class="bfdabf6a-2589-4003-aed0-a548978c3e94" cx="194.44" cy="17.4" rx="2.16" ry="1.82"/><path class="bdf2049d-638d-4efd-b12b-efed57f8f4ce" d="M168.2 39.49h52.48v44.17H168.2z"/><ellipse class="bfdabf6a-2589-4003-aed0-a548978c3e94" cx="194.44" cy="61.57" rx="2.16" ry="1.82"/><path class="bdf2049d-638d-4efd-b12b-efed57f8f4ce" d="M168.2 83.66h52.48v44.17H168.2z"/><ellipse class="bfdabf6a-2589-4003-aed0-a548978c3e94" cx="194.44" cy="105.75" rx="2.16" ry="1.82"/><path class="bdf2049d-638d-4efd-b12b-efed57f8f4ce" d="M168.2 127.83h52.48V172H168.2z"/><ellipse class="bfdabf6a-2589-4003-aed0-a548978c3e94" cx="194.44" cy="149.92" rx="2.16" ry="1.82"/><path class="bdf2049d-638d-4efd-b12b-efed57f8f4ce" d="M168.2 172h52.48v44.17H168.2z"/><ellipse class="bfdabf6a-2589-4003-aed0-a548978c3e94" cx="194.44" cy="194.09" rx="2.16" ry="1.82"/><path class="bdf2049d-638d-4efd-b12b-efed57f8f4ce" d="M168.2 216.17h52.48v44.17H168.2z"/><ellipse class="bfdabf6a-2589-4003-aed0-a548978c3e94" cx="194.44" cy="238.26" rx="2.16" ry="1.82"/><path class="bdf2049d-638d-4efd-b12b-efed57f8f4ce" d="M168.2 260.35h52.48v44.17H168.2z"/><ellipse class="bfdabf6a-2589-4003-aed0-a548978c3e94" cx="194.44" cy="282.43" rx="2.16" ry="1.82"/><path class="bdf2049d-638d-4efd-b12b-efed57f8f4ce" d="M168.2 304.52h52.48v44.17H168.2z"/><ellipse class="bfdabf6a-2589-4003-aed0-a548978c3e94" cx="194.44" cy="326.6" rx="2.16" ry="1.82"/><path class="bdf2049d-638d-4efd-b12b-efed57f8f4ce" d="M168.2 348.69h52.48v44.17H168.2z"/><ellipse class="bfdabf6a-2589-4003-aed0-a548978c3e94" cx="194.44" cy="370.77" rx="2.16" ry="1.82"/><path class="bdf2049d-638d-4efd-b12b-efed57f8f4ce" d="M168.2 392.86h52.48v44.17H168.2z"/><ellipse class="bfdabf6a-2589-4003-aed0-a548978c3e94" cx="194.44" cy="414.95" rx="2.16" ry="1.82"/><path class="bdf2049d-638d-4efd-b12b-efed57f8f4ce" d="M168.2 437.03h52.48v44.17H168.2z"/><ellipse class="bfdabf6a-2589-4003-aed0-a548978c3e94" cx="194.44" cy="459.12" rx="2.16" ry="1.82"/><path class="bdf2049d-638d-4efd-b12b-efed57f8f4ce" d="M168.2 481.2h52.48v44.17H168.2z"/><ellipse class="bfdabf6a-2589-4003-aed0-a548978c3e94" cx="194.44" cy="503.29" rx="2.16" ry="1.82"/><path class="bdf2049d-638d-4efd-b12b-efed57f8f4ce" d="M168.2 525.37h52.48v44.17H168.2zM115.72-4.68h52.48v44.17h-52.48z"/><ellipse class="bfdabf6a-2589-4003-aed0-a548978c3e94" cx="141.96" cy="17.4" rx="2.16" ry="1.82"/><path class="bdf2049d-638d-4efd-b12b-efed57f8f4ce" d="M115.72 39.49h52.48v44.17h-52.48z"/><ellipse class="bfdabf6a-2589-4003-aed0-a548978c3e94" cx="141.96" cy="61.57" rx="2.16" ry="1.82"/><path class="bdf2049d-638d-4efd-b12b-efed57f8f4ce" d="M115.72 83.66h52.48v44.17h-52.48z"/><ellipse class="bfdabf6a-2589-4003-aed0-a548978c3e94" cx="141.96" cy="105.75" rx="2.16" ry="1.82"/><path class="bdf2049d-638d-4efd-b12b-efed57f8f4ce" d="M115.72 127.83h52.48V172h-52.48z"/><ellipse class="bfdabf6a-2589-4003-aed0-a548978c3e94" cx="141.96" cy="149.92" rx="2.16" ry="1.82"/><path class="bdf2049d-638d-4efd-b12b-efed57f8f4ce" d="M115.72 172h52.48v44.17h-52.48z"/><ellipse class="bfdabf6a-2589-4003-aed0-a548978c3e94" cx="141.96" cy="194.09" rx="2.16" ry="1.82"/><path class="bdf2049d-638d-4efd-b12b-efed57f8f4ce" d="M115.72 216.17h52.48v44.17h-52.48z"/><ellipse class="bfdabf6a-2589-4003-aed0-a548978c3e94" cx="141.96" cy="238.26" rx="2.16" ry="1.82"/><path class="bdf2049d-638d-4efd-b12b-efed57f8f4ce" d="M115.72 260.35h52.48v44.17h-52.48z"/><ellipse class="bfdabf6a-2589-4003-aed0-a548978c3e94" cx="141.96" cy="282.43" rx="2.16" ry="1.82"/><path class="bdf2049d-638d-4efd-b12b-efed57f8f4ce" d="M115.72 304.52h52.48v44.17h-52.48z"/><ellipse class="bfdabf6a-2589-4003-aed0-a548978c3e94" cx="141.96" cy="326.6" rx="2.16" ry="1.82"/><path class="bdf2049d-638d-4efd-b12b-efed57f8f4ce" d="M115.72 348.69h52.48v44.17h-52.48z"/><ellipse class="bfdabf6a-2589-4003-aed0-a548978c3e94" cx="141.96" cy="370.77" rx="2.16" ry="1.82"/><path class="bdf2049d-638d-4efd-b12b-efed57f8f4ce" d="M115.72 392.86h52.48v44.17h-52.48z"/><ellipse class="bfdabf6a-2589-4003-aed0-a548978c3e94" cx="141.96" cy="414.95" rx="2.16" ry="1.82"/><path class="bdf2049d-638d-4efd-b12b-efed57f8f4ce" d="M115.72 437.03h52.48v44.17h-52.48z"/><ellipse class="bfdabf6a-2589-4003-aed0-a548978c3e94" cx="141.96" cy="459.12" rx="2.16" ry="1.82"/><path class="bdf2049d-638d-4efd-b12b-efed57f8f4ce" d="M115.72 481.2h52.48v44.17h-52.48z"/><ellipse class="bfdabf6a-2589-4003-aed0-a548978c3e94" cx="141.96" cy="503.29" rx="2.16" ry="1.82"/><path class="bdf2049d-638d-4efd-b12b-efed57f8f4ce" d="M115.72 525.37h52.48v44.17h-52.48zM63.23-4.68h52.48v44.17H63.23z"/><ellipse class="bfdabf6a-2589-4003-aed0-a548978c3e94" cx="89.48" cy="17.4" rx="2.16" ry="1.82"/><path class="bdf2049d-638d-4efd-b12b-efed57f8f4ce" d="M63.23 39.49h52.48v44.17H63.23z"/><ellipse class="bfdabf6a-2589-4003-aed0-a548978c3e94" cx="89.48" cy="61.57" rx="2.16" ry="1.82"/><path class="bdf2049d-638d-4efd-b12b-efed57f8f4ce" d="M63.23 83.66h52.48v44.17H63.23z"/><ellipse class="bfdabf6a-2589-4003-aed0-a548978c3e94" cx="89.48" cy="105.75" rx="2.16" ry="1.82"/><path class="bdf2049d-638d-4efd-b12b-efed57f8f4ce" d="M63.23 127.83h52.48V172H63.23z"/><ellipse class="bfdabf6a-2589-4003-aed0-a548978c3e94" cx="89.48" cy="149.92" rx="2.16" ry="1.82"/><path class="bdf2049d-638d-4efd-b12b-efed57f8f4ce" d="M63.23 172h52.48v44.17H63.23z"/><ellipse class="bfdabf6a-2589-4003-aed0-a548978c3e94" cx="89.48" cy="194.09" rx="2.16" ry="1.82"/><path class="bdf2049d-638d-4efd-b12b-efed57f8f4ce" d="M63.23 216.17h52.48v44.17H63.23z"/><ellipse class="bfdabf6a-2589-4003-aed0-a548978c3e94" cx="89.48" cy="238.26" rx="2.16" ry="1.82"/><path class="bdf2049d-638d-4efd-b12b-efed57f8f4ce" d="M63.23 260.35h52.48v44.17H63.23z"/><ellipse class="bfdabf6a-2589-4003-aed0-a548978c3e94" cx="89.48" cy="282.43" rx="2.16" ry="1.82"/><path class="bdf2049d-638d-4efd-b12b-efed57f8f4ce" d="M63.23 304.52h52.48v44.17H63.23z"/><ellipse class="bfdabf6a-2589-4003-aed0-a548978c3e94" cx="89.48" cy="326.6" rx="2.16" ry="1.82"/><path class="bdf2049d-638d-4efd-b12b-efed57f8f4ce" d="M63.23 348.69h52.48v44.17H63.23z"/><ellipse class="bfdabf6a-2589-4003-aed0-a548978c3e94" cx="89.48" cy="370.77" rx="2.16" ry="1.82"/><path class="bdf2049d-638d-4efd-b12b-efed57f8f4ce" d="M63.23 392.86h52.48v44.17H63.23z"/><ellipse class="bfdabf6a-2589-4003-aed0-a548978c3e94" cx="89.48" cy="414.95" rx="2.16" ry="1.82"/><path class="bdf2049d-638d-4efd-b12b-efed57f8f4ce" d="M63.23 437.03h52.48v44.17H63.23z"/><ellipse class="bfdabf6a-2589-4003-aed0-a548978c3e94" cx="89.48" cy="459.12" rx="2.16" ry="1.82"/><path class="bdf2049d-638d-4efd-b12b-efed57f8f4ce" d="M63.23 481.2h52.48v44.17H63.23z"/><ellipse class="bfdabf6a-2589-4003-aed0-a548978c3e94" cx="89.48" cy="503.29" rx="2.16" ry="1.82"/><path class="bdf2049d-638d-4efd-b12b-efed57f8f4ce" d="M63.23 525.37h52.48v44.17H63.23zM10.75-4.68h52.48v44.17H10.75z"/><ellipse class="bfdabf6a-2589-4003-aed0-a548978c3e94" cx="36.99" cy="17.4" rx="2.16" ry="1.82"/><path class="bdf2049d-638d-4efd-b12b-efed57f8f4ce" d="M10.75 39.49h52.48v44.17H10.75z"/><ellipse class="bfdabf6a-2589-4003-aed0-a548978c3e94" cx="36.99" cy="61.57" rx="2.16" ry="1.82"/><path class="bdf2049d-638d-4efd-b12b-efed57f8f4ce" d="M10.75 83.66h52.48v44.17H10.75z"/><ellipse class="bfdabf6a-2589-4003-aed0-a548978c3e94" cx="36.99" cy="105.75" rx="2.16" ry="1.82"/><path class="bdf2049d-638d-4efd-b12b-efed57f8f4ce" d="M10.75 127.83h52.48V172H10.75z"/><ellipse class="bfdabf6a-2589-4003-aed0-a548978c3e94" cx="36.99" cy="149.92" rx="2.16" ry="1.82"/><path class="bdf2049d-638d-4efd-b12b-efed57f8f4ce" d="M10.75 172h52.48v44.17H10.75z"/><ellipse class="bfdabf6a-2589-4003-aed0-a548978c3e94" cx="36.99" cy="194.09" rx="2.16" ry="1.82"/><path class="bdf2049d-638d-4efd-b12b-efed57f8f4ce" d="M10.75 216.17h52.48v44.17H10.75z"/><ellipse class="bfdabf6a-2589-4003-aed0-a548978c3e94" cx="36.99" cy="238.26" rx="2.16" ry="1.82"/><path class="bdf2049d-638d-4efd-b12b-efed57f8f4ce" d="M10.75 260.35h52.48v44.17H10.75z"/><ellipse class="bfdabf6a-2589-4003-aed0-a548978c3e94" cx="36.99" cy="282.43" rx="2.16" ry="1.82"/><path class="bdf2049d-638d-4efd-b12b-efed57f8f4ce" d="M10.75 304.52h52.48v44.17H10.75z"/><ellipse class="bfdabf6a-2589-4003-aed0-a548978c3e94" cx="36.99" cy="326.6" rx="2.16" ry="1.82"/><path class="bdf2049d-638d-4efd-b12b-efed57f8f4ce" d="M10.75 348.69h52.48v44.17H10.75z"/><ellipse class="bfdabf6a-2589-4003-aed0-a548978c3e94" cx="36.99" cy="370.77" rx="2.16" ry="1.82"/><path class="bdf2049d-638d-4efd-b12b-efed57f8f4ce" d="M10.75 392.86h52.48v44.17H10.75z"/><ellipse class="bfdabf6a-2589-4003-aed0-a548978c3e94" cx="36.99" cy="414.95" rx="2.16" ry="1.82"/><path class="bdf2049d-638d-4efd-b12b-efed57f8f4ce" d="M10.75 437.03h52.48v44.17H10.75z"/><ellipse class="bfdabf6a-2589-4003-aed0-a548978c3e94" cx="36.99" cy="459.12" rx="2.16" ry="1.82"/><path class="bdf2049d-638d-4efd-b12b-efed57f8f4ce" d="M10.75 481.2h52.48v44.17H10.75z"/><ellipse class="bfdabf6a-2589-4003-aed0-a548978c3e94" cx="36.99" cy="503.29" rx="2.16" ry="1.82"/><path class="bdf2049d-638d-4efd-b12b-efed57f8f4ce" d="M10.75 525.37h52.48v44.17H10.75zM-41.73-4.68h52.48v44.17h-52.48zm0 44.17h52.48v44.17h-52.48zm0 44.17h52.48v44.17h-52.48zm0 44.17h52.48V172h-52.48zm0 44.17h52.48v44.17h-52.48z"/><path class="bdf2049d-638d-4efd-b12b-efed57f8f4ce" d="M-41.73 216.17h52.48v44.17h-52.48zm0 44.18h52.48v44.17h-52.48zm0 44.17h52.48v44.17h-52.48zm0 44.17h52.48v44.17h-52.48zm0 44.17h52.48v44.17h-52.48z"/><path class="bdf2049d-638d-4efd-b12b-efed57f8f4ce" d="M-41.73 437.03h52.48v44.17h-52.48zm0 44.17h52.48v44.17h-52.48zm0 44.17h52.48v44.17h-52.48z"/></g><g id="b63d3305-8cea-45de-8be9-0ac3f355ccc8" data-name="Layer 1"><path d="M619.16 41.45h-5.47v4.84h5.06v1.47h-5.06V54h-1.64V40h7.11zM632.36 54h-1.82l-1.48-4h-5.94l-1.4 4h-1.82l5.37-14H627zm-3.84-5.4l-2.2-6a6 6 0 01-.21-.94 5.15 5.15 0 01-.23.94l-2.17 6zm16.16 4.78a8.26 8.26 0 01-3.86.82 6.22 6.22 0 01-4.82-1.93 7.06 7.06 0 01-1.79-5 7.43 7.43 0 012-5.43 6.83 6.83 0 015.12-2.07 8.28 8.28 0 013.3.57v1.75a6.69 6.69 0 00-3.32-.84 5.1 5.1 0 00-3.91 1.61 6.08 6.08 0 00-1.5 4.31 5.82 5.82 0 001.4 4.08 4.78 4.78 0 003.7 1.47 6.93 6.93 0 003.65-.93zm12.13-11.93h-4V54h-1.64V41.45h-4V40h9.71zm7.94 12.75a6.16 6.16 0 01-4.77-2 7.28 7.28 0 01-1.79-5.1 7.7 7.7 0 011.81-5.36 6.38 6.38 0 015-2 6 6 0 014.67 2 7.3 7.3 0 011.77 5.11 7.75 7.75 0 01-1.81 5.42 6.32 6.32 0 01-4.88 1.93zm.12-13a4.51 4.51 0 00-3.58 1.59 6.16 6.16 0 00-1.38 4.21 6.25 6.25 0 001.34 4.17 4.38 4.38 0 003.5 1.57 4.58 4.58 0 003.63-1.5 6.13 6.13 0 001.33-4.24 6.38 6.38 0 00-1.29-4.28 4.4 4.4 0 00-3.55-1.51zM685.22 54h-2l-2.3-4a7.13 7.13 0 00-.62-.93 3.37 3.37 0 00-.62-.63 2 2 0 00-.68-.36 2.69 2.69 0 00-.83-.11h-1.35v6h-1.64V40h4.18a6.13 6.13 0 011.7.23 3.81 3.81 0 011.34.7 3.17 3.17 0 01.9 1.17 3.92 3.92 0 01.32 1.63 3.81 3.81 0 01-.22 1.27 3.77 3.77 0 01-.62 1.09 4.11 4.11 0 01-1 .82 5 5 0 01-1.29.52 2.66 2.66 0 01.62.36 3.58 3.58 0 01.49.47 6.66 6.66 0 01.46.62c.15.23.33.5.51.8zm-8.4-12.51v5.07h2.23a3.49 3.49 0 001.14-.18 2.68 2.68 0 00.9-.53 2.73 2.73 0 00.6-.85 2.92 2.92 0 00.21-1.13 2.17 2.17 0 00-.73-1.75 3.1 3.1 0 00-2.1-.63zM696.86 40l-4.61 8.83V54h-1.65v-5.17L686.1 40h1.9l3.13 6.33c0 .08.15.36.34.86a5.79 5.79 0 01.37-.86l3.29-6.33zm318.9 102.5h-1.63v-9.39c0-.74 0-1.65.14-2.72a9.36 9.36 0 01-.42 1.35L1009 142.5h-.8l-4.77-10.68a7.78 7.78 0 01-.42-1.43c0 .55.08 1.47.08 2.74v9.37h-1.58v-14h2.16l4.3 9.76a13.09 13.09 0 01.64 1.68h.06c.28-.76.5-1.34.67-1.71l4.39-9.73h2zm10.32.24a6.16 6.16 0 01-4.77-2 7.28 7.28 0 01-1.79-5.1 7.7 7.7 0 011.83-5.39 6.38 6.38 0 015-2 6 6 0 014.67 1.95 7.3 7.3 0 011.77 5.11 7.71 7.71 0 01-1.81 5.41 6.29 6.29 0 01-4.9 2.02zm.12-13a4.5 4.5 0 00-3.58 1.59 6.16 6.16 0 00-1.38 4.18 6.25 6.25 0 001.34 4.17 4.38 4.38 0 003.5 1.57 4.58 4.58 0 003.63-1.5 6.13 6.13 0 001.33-4.21 6.43 6.43 0 00-1.29-4.29 4.42 4.42 0 00-3.55-1.5zm10.31 12.76v-14h4a4.37 4.37 0 012.88.89 2.86 2.86 0 011.06 2.31 3.36 3.36 0 01-2.45 3.3 3.6 3.6 0 012.27 1.07 3.32 3.32 0 01.85 2.35 3.65 3.65 0 01-1.29 2.91 4.82 4.82 0 01-3.25 1.11zm1.64-12.52v4.53h1.68a3.2 3.2 0 002.12-.65 2.27 2.27 0 00.77-1.84c0-1.36-.89-2-2.68-2zm0 6v5h2.23a3.32 3.32 0 002.24-.69 2.33 2.33 0 00.8-1.87c0-1.65-1.13-2.48-3.38-2.48zm13.85-7.48v1.41h-1.36v11.19h1.36v1.4h-4.37v-1.4h1.37v-11.19h-1.37v-1.41zm10.56 14h-7.26v-14h1.64V141h5.62zm10.57 0h-7.42v-14h7.11v1.5h-5.47v4.66h5.06v1.48h-5.06V141h5.78zm11.81-5.29v5.29h-1.64v-14h3.85a5.14 5.14 0 013.48 1.09 3.92 3.92 0 011.23 3.09 4.26 4.26 0 01-1.37 3.26 5.21 5.21 0 01-3.7 1.27zm0-7.23v5.75h1.72a3.84 3.84 0 002.59-.78 2.74 2.74 0 00.89-2.19q0-2.77-3.28-2.78zM1106 142.5h-1.64v-6.38h-7.24v6.38h-1.64v-14h1.64v6.14h7.24v-6.14h1.64zm10.34.24a6.13 6.13 0 01-4.77-2 7.23 7.23 0 01-1.79-5.1 7.7 7.7 0 011.82-5.39 6.39 6.39 0 015-2 6 6 0 014.67 1.95 7.31 7.31 0 011.78 5.11 7.71 7.71 0 01-1.82 5.41 6.25 6.25 0 01-4.89 2.02zm.11-13a4.51 4.51 0 00-3.58 1.59 7.07 7.07 0 000 8.35 4.37 4.37 0 003.5 1.57 4.61 4.61 0 003.63-1.5 6.18 6.18 0 001.33-4.21 6.43 6.43 0 00-1.29-4.29 4.46 4.46 0 00-3.59-1.5zm21.61 12.76h-2l-7.2-11.16a4.87 4.87 0 01-.45-.88h-.06a14.73 14.73 0 01.08 1.93v10.11h-1.64v-14h2.13l7 11c.29.46.48.77.56.94a15.52 15.52 0 01-.1-2.06v-9.88h1.65zm12.09 0h-7.42v-14h7.1v1.5h-5.46v4.66h5.05v1.48h-5.05V141h5.78zm16.27-14l-6.72 16.32h-1.49l6.7-16.32zm17.44 1.5h-4v12.5h-1.64V130h-4v-1.5h9.71zm12.54 12.5h-1.82l-1.48-3.92h-5.94l-1.4 3.92h-1.82l5.37-14h1.7zm-3.84-5.4l-2.2-6a6 6 0 01-.21-.94 5.15 5.15 0 01-.23.94l-2.17 6zm6.9 5.4v-14h4a4.37 4.37 0 012.88.89 2.86 2.86 0 011.06 2.31 3.36 3.36 0 01-2.4 3.3 3.58 3.58 0 012.27 1.07 3.32 3.32 0 01.85 2.35 3.65 3.65 0 01-1.29 2.91 4.82 4.82 0 01-3.25 1.11zm1.64-12.5v4.53h1.68a3.19 3.19 0 002.11-.65 2.27 2.27 0 00.77-1.84c0-1.36-.89-2-2.68-2zm0 6v5h2.22a3.32 3.32 0 002.24-.69 2.33 2.33 0 00.8-1.87c0-1.65-1.13-2.48-3.38-2.48zm18.08 6.5h-7.26v-14h1.64V141h5.62zm10.57 0h-7.42v-14h7.11v1.5H1224v4.66h5v1.48h-5V141h5.78zm12.01-12.5h-4v12.5h-1.64V130h-4v-1.5h9.71zM82.51 142.5h-1.63v-9.39c0-.74 0-1.65.13-2.72a7.34 7.34 0 01-.42 1.35l-4.82 10.76H75l-4.78-10.68a9.78 9.78 0 01-.42-1.43c.06.55.08 1.47.08 2.74v9.37h-1.65v-14h2.17l4.29 9.76a12.07 12.07 0 01.65 1.68h.06c.28-.76.5-1.34.67-1.71l4.39-9.73h2.05zm10.32.24a6.13 6.13 0 01-4.77-2 7.28 7.28 0 01-1.79-5.1 7.75 7.75 0 011.82-5.39 6.39 6.39 0 015-2 6 6 0 014.68 1.95 7.3 7.3 0 011.77 5.11 7.71 7.71 0 01-1.82 5.41 6.25 6.25 0 01-4.89 2.02zm.12-13a4.53 4.53 0 00-3.59 1.59 7.11 7.11 0 000 8.35 4.37 4.37 0 003.5 1.57 4.58 4.58 0 003.63-1.5 6.13 6.13 0 001.33-4.21 6.43 6.43 0 00-1.29-4.29 4.44 4.44 0 00-3.53-1.5zm10.31 12.76v-14h4a4.37 4.37 0 012.88.89 2.86 2.86 0 011.07 2.31 3.39 3.39 0 01-2.42 3.32 3.55 3.55 0 012.26 1.07 3.28 3.28 0 01.85 2.35 3.65 3.65 0 01-1.29 2.91 4.8 4.8 0 01-3.25 1.11zm1.64-12.5v4.53h1.68a3.22 3.22 0 002.12-.65 2.3 2.3 0 00.77-1.84c0-1.36-.89-2-2.68-2zm0 6v5h2.23a3.32 3.32 0 002.24-.69 2.33 2.33 0 00.79-1.87c0-1.65-1.12-2.48-3.37-2.48zm13.83-7.5v1.41h-1.37v11.19h1.37v1.4h-4.37v-1.4h1.36v-11.19h-1.36v-1.41zm10.58 14H122v-14h1.64V141h5.63zm10.57 0h-7.42v-14h7.1v1.5h-5.47v4.66h5.06v1.48h-5.06V141h5.79zm11.81-5.29v5.29h-1.64v-14h3.84a5.11 5.11 0 013.48 1.09 3.89 3.89 0 011.24 3.09 4.26 4.26 0 01-1.37 3.26 5.24 5.24 0 01-3.71 1.27zm0-7.23v5.75h1.72A3.84 3.84 0 00156 135a2.77 2.77 0 00.89-2.19q0-2.77-3.28-2.78zm21.08 12.52h-1.64v-6.38h-7.25v6.38h-1.63v-14h1.63v6.14h7.25v-6.14h1.64zm10.31.24a6.16 6.16 0 01-4.77-2 7.28 7.28 0 01-1.79-5.1 7.7 7.7 0 011.83-5.39 6.38 6.38 0 015-2 6 6 0 014.67 1.95 7.3 7.3 0 011.77 5.11 7.71 7.71 0 01-1.81 5.41 6.29 6.29 0 01-4.9 2.02zm.12-13a4.51 4.51 0 00-3.58 1.59 6.16 6.16 0 00-1.38 4.18 6.25 6.25 0 001.34 4.17 4.38 4.38 0 003.5 1.57 4.62 4.62 0 003.64-1.5 6.18 6.18 0 001.32-4.21 6.43 6.43 0 00-1.29-4.29 4.42 4.42 0 00-3.55-1.5zm21.6 12.76h-2l-7.2-11.16a3.85 3.85 0 01-.45-.88h-.06a14.73 14.73 0 01.08 1.93v10.11h-1.64v-14h2.12l7 11a10 10 0 01.57.94 13.94 13.94 0 01-.1-2.06v-9.88h1.64zm12.09 0h-7.42v-14h7.11v1.5h-5.47v4.66h5.06v1.48h-5.06V141h5.78zm16.28-14l-6.72 16.32H225l6.69-16.32zm17.44 1.5h-4v12.5h-1.64V130h-4v-1.5h9.71zm12.53 12.5h-1.81l-1.49-3.92h-5.93l-1.4 3.92h-1.83l5.37-14h1.7zm-3.84-5.4l-2.19-6a7.06 7.06 0 01-.22-.94 5.26 5.26 0 01-.22.94l-2.18 6zm6.9 5.4v-14h4a4.37 4.37 0 012.88.89 2.89 2.89 0 011.06 2.31 3.38 3.38 0 01-.64 2.07 3.44 3.44 0 01-1.78 1.25 3.55 3.55 0 012.26 1.07 3.28 3.28 0 01.85 2.35 3.65 3.65 0 01-1.29 2.91 4.8 4.8 0 01-3.25 1.11zm1.64-12.5v4.53h1.68a3.2 3.2 0 002.12-.65 2.3 2.3 0 00.77-1.84c0-1.36-.89-2-2.68-2zm0 6v5h2.23a3.32 3.32 0 002.24-.69 2.33 2.33 0 00.79-1.87c0-1.65-1.12-2.48-3.37-2.48zm18.09 6.5h-7.27v-14h1.64V141h5.63zm10.57 0h-7.42v-14h7.1v1.5h-5.46v4.66h5v1.48h-5V141h5.78zm12.01-12.5h-4v12.5h-1.64V130h-4v-1.5h9.72zM573 142.5h-1.63v-9.39c0-.74 0-1.65.13-2.72a7.34 7.34 0 01-.42 1.35l-4.78 10.76h-.8l-4.78-10.68a9.78 9.78 0 01-.42-1.43c.06.55.08 1.47.08 2.74v9.37h-1.68v-14h2.17l4.29 9.76a12.07 12.07 0 01.65 1.68h.06c.28-.76.5-1.34.67-1.71l4.39-9.73H573zm15.49 0h-1.81l-1.49-3.92h-5.93l-1.4 3.92H576l5.37-14h1.69zm-3.83-5.4l-2.2-6a7.06 7.06 0 01-.22-.94 5.15 5.15 0 01-.23.94l-2.18 6zm16.16 4.82a8.33 8.33 0 01-3.87.82 6.21 6.21 0 01-4.78-1.93 7.07 7.07 0 01-1.8-5 7.47 7.47 0 012-5.43 6.87 6.87 0 015.13-2.07 8.28 8.28 0 013.3.57v1.75a6.69 6.69 0 00-3.32-.84 5.1 5.1 0 00-3.91 1.61 6.08 6.08 0 00-1.5 4.31 5.78 5.78 0 001.4 4.07 4.74 4.74 0 003.68 1.52 6.86 6.86 0 003.65-.94zm14.37.58h-1.64v-6.38h-7.24v6.38h-1.64v-14h1.64v6.14h7.24v-6.14h1.64zm7.68-14v1.41h-1.36v11.19h1.36v1.4h-4.37v-1.4h1.37v-11.19h-1.37v-1.41zm14.6 14h-2l-7.2-11.16a3.85 3.85 0 01-.45-.88h-.06a14.73 14.73 0 01.08 1.93v10.11h-1.64v-14h2.12l7 11a10 10 0 01.57.94 13.94 13.94 0 01-.1-2.06v-9.88h1.64zm12.09 0h-7.42v-14h7.11v1.5h-5.47v4.66h5.06v1.48h-5.06V141h5.78zm20.64-.96a9.33 9.33 0 01-4.69 1.2 6.39 6.39 0 01-4.84-1.94 7.05 7.05 0 01-1.85-5.11 7.28 7.28 0 012-5.34 7 7 0 015.21-2.08 8.83 8.83 0 013.84.74v1.81a7.45 7.45 0 00-4-1.07 5 5 0 00-3.86 1.62 6.75 6.75 0 00-.11 8.37 4.86 4.86 0 003.79 1.52 5.93 5.93 0 002.84-.65v-3.93h-3.07v-1.48h4.71zm15.09.96h-1.82l-1.47-3.92h-5.94l-1.39 3.92h-1.83l5.37-14h1.7zm-3.84-5.4l-2.19-6a4.86 4.86 0 01-.22-.94 5.26 5.26 0 01-.22.94l-2.18 6zm13.74-7.1h-4v12.5h-1.64V130h-4v-1.5h9.71zm10.62 12.5h-7.42v-14h7.11v1.5H700v4.66h5.06v1.48H700V141h5.78zm20.58-14l-4 14h-1.92l-2.88-10.23a6.29 6.29 0 01-.23-1.43 6.61 6.61 0 01-.25 1.41l-2.9 10.25h-1.9l-4.1-14H710l3 10.74a8 8 0 01.24 1.41 9.05 9.05 0 01.31-1.41l3.09-10.74h1.57l3 10.82a9.39 9.39 0 01.24 1.31 8.35 8.35 0 01.27-1.35l2.86-10.78zm13.19 14h-1.82l-1.48-3.92h-5.94L729 142.5h-1.83l5.37-14h1.7zm-3.84-5.4l-2.19-6a4.86 4.86 0 01-.22-.94 5.26 5.26 0 01-.22.94l-2.18 6zm14.48-8.6l-4.62 8.83v5.17H744v-5.13l-4.5-8.87h1.86l3.14 6.33c0 .08.15.36.34.86a4.89 4.89 0 01.37-.86l3.28-6.33z" fill="#636f7c" stroke="#636f7c" stroke-width=".3" stroke-miterlimit="10"/><rect class="bfa3d198-26f7-4ed9-acfc-0bdb4bf691e0" x="937.73" y="226.08" width="367.79" height="242.39" rx="13.73"/><path class="aaaa320a-3bd9-4ae4-8093-6cdd92522e61" d="M1291.79 469.47H951.46a14.75 14.75 0 01-14.73-14.74V239.81a14.75 14.75 0 0114.73-14.73h340.33a14.75 14.75 0 0114.73 14.73v214.92a14.75 14.75 0 01-14.73 14.74zM951.46 227.08a12.74 12.74 0 00-12.73 12.73v214.92a12.75 12.75 0 0012.73 12.74h340.33a12.75 12.75 0 0012.73-12.74V239.81a12.74 12.74 0 00-12.73-12.73z"/><rect class="bbebb571-0cbf-4a19-aaf2-77a43001b731" x="944.61" y="235" width="354.03" height="224.54" rx="6.97"/><path class="aaaa320a-3bd9-4ae4-8093-6cdd92522e61" d="M1291.67 460.54H951.58a8 8 0 01-8-8V242a8 8 0 018-8h340.09a8 8 0 018 8v210.57a8 8 0 01-8 7.97zM951.58 236a6 6 0 00-6 6v210.57a6 6 0 006 6h340.09a6 6 0 006-6V242a6 6 0 00-6-6z"/><rect class="bfa3d198-26f7-4ed9-acfc-0bdb4bf691e0" x="960.44" y="249.8" width="98.47" height="61.09" rx="3.55"/><path class="aaaa320a-3bd9-4ae4-8093-6cdd92522e61" d="M1055.36 311.89H964a4.55 4.55 0 01-4.55-4.55v-54a4.55 4.55 0 014.55-4.54h91.37a4.55 4.55 0 014.55 4.55v54a4.55 4.55 0 01-4.56 4.54zM964 250.8a2.55 2.55 0 00-2.55 2.55v54a2.55 2.55 0 002.55 2.55h91.37a2.55 2.55 0 002.55-2.55v-54a2.55 2.55 0 00-2.55-2.55z"/><rect class="bfa3d198-26f7-4ed9-acfc-0bdb4bf691e0" x="1078.42" y="249.8" width="202.57" height="61.09" rx="3.55"/><path class="aaaa320a-3bd9-4ae4-8093-6cdd92522e61" d="M1277.45 311.89H1082a4.55 4.55 0 01-4.55-4.55v-54a4.55 4.55 0 014.55-4.55h195.48a4.55 4.55 0 014.54 4.55v54a4.55 4.55 0 01-4.57 4.55zM1082 250.8a2.55 2.55 0 00-2.55 2.55v54a2.55 2.55 0 002.55 2.55h195.48a2.55 2.55 0 002.54-2.55v-54a2.55 2.55 0 00-2.54-2.55z"/><rect class="bfa3d198-26f7-4ed9-acfc-0bdb4bf691e0" x="1078.42" y="330.97" width="91.91" height="112.81" rx="3.55"/><path class="aaaa320a-3bd9-4ae4-8093-6cdd92522e61" d="M1166.78 444.79H1082a4.55 4.55 0 01-4.55-4.55V334.52A4.55 4.55 0 011082 330h84.81a4.55 4.55 0 014.55 4.55v105.69a4.55 4.55 0 01-4.58 4.55zM1082 332a2.56 2.56 0 00-2.55 2.55v105.69a2.56 2.56 0 002.55 2.55h84.81a2.55 2.55 0 002.55-2.55V334.52a2.55 2.55 0 00-2.55-2.55z"/><rect class="bfa3d198-26f7-4ed9-acfc-0bdb4bf691e0" x="1189.19" y="330.97" width="91.72" height="112.81" rx="3.55"/><path class="aaaa320a-3bd9-4ae4-8093-6cdd92522e61" d="M1277.37 444.79h-84.63a4.55 4.55 0 01-4.55-4.55V334.52a4.55 4.55 0 014.55-4.55h84.63a4.55 4.55 0 014.55 4.55v105.72a4.55 4.55 0 01-4.55 4.55zM1192.74 332a2.56 2.56 0 00-2.55 2.55v105.69a2.56 2.56 0 002.55 2.55h84.63a2.56 2.56 0 002.55-2.55V334.52a2.56 2.56 0 00-2.55-2.55z"/><rect class="bfa3d198-26f7-4ed9-acfc-0bdb4bf691e0" x="960.44" y="330.24" width="98.47" height="113.94" rx="3.55"/><path class="aaaa320a-3bd9-4ae4-8093-6cdd92522e61" d="M1055.36 445.18H964a4.55 4.55 0 01-4.55-4.55V333.79a4.55 4.55 0 014.55-4.55h91.37a4.55 4.55 0 014.55 4.55v106.84a4.55 4.55 0 01-4.56 4.55zM964 331.24a2.55 2.55 0 00-2.55 2.55v106.84a2.55 2.55 0 002.55 2.55h91.37a2.55 2.55 0 002.55-2.55V333.79a2.55 2.55 0 00-2.55-2.55z"/><path class="b7643534-8936-414b-9d73-a734f6b1e5db" d="M1090.62 362.08h5.38a2.06 2.06 0 012.06 2.06v78.66h-9.54v-78.66a2.06 2.06 0 012.1-2.06zm20.15 29.2h5.42a2.06 2.06 0 012.06 2.06v49.46h-9.54v-49.45a2.06 2.06 0 012.06-2.07zm20.15 15.5h5.42a2.06 2.06 0 012.06 2.06v34h-9.54v-34a2.06 2.06 0 012.06-2.06zm20.14-28.51h5.42a2.06 2.06 0 012.06 2.06v62.47H1149v-62.47a2.06 2.06 0 012.06-2.06z"/><path class="b1fbacb4-d42b-4a4b-a5e3-7a040ab97009" d="M1088.56 404.13h9.54v38.67h-9.54zm-111.78-141.9h65.31v22.07h-65.31z"/><path class="b7643534-8936-414b-9d73-a734f6b1e5db" d="M976.78 289.14h65.31v8.94h-65.31z"/><path class="b1fbacb4-d42b-4a4b-a5e3-7a040ab97009" d="M1095.03 262.23h43.16v22.07h-43.16z"/><path class="b7643534-8936-414b-9d73-a734f6b1e5db" d="M1095.03 289.14h43.16v8.94h-43.16z"/><path class="b1fbacb4-d42b-4a4b-a5e3-7a040ab97009" d="M1158.67 262.23h43.16v22.07h-43.16z"/><path class="b7643534-8936-414b-9d73-a734f6b1e5db" d="M1158.67 289.14h43.16v8.94h-43.16z"/><path class="b1fbacb4-d42b-4a4b-a5e3-7a040ab97009" d="M1222.3 262.23h43.16v22.07h-43.16z"/><path class="b7643534-8936-414b-9d73-a734f6b1e5db" d="M1222.3 289.14h43.16v8.94h-43.16z"/><path class="b1fbacb4-d42b-4a4b-a5e3-7a040ab97009" d="M1108.71 418.12h9.54v24.68h-9.54zm20.14 7.42h9.54v17.26h-9.54zm20.15-13.65h9.54v30.92H1149z"/><path class="b7643534-8936-414b-9d73-a734f6b1e5db" d="M1202.49 395.55h5.42a2.06 2.06 0 012.06 2.06v45.19h-9.54v-45.18a2.06 2.06 0 012.06-2.07zm20.15-24.97h5.42a2.06 2.06 0 012.06 2.06v70.16h-9.54v-70.16a2.06 2.06 0 012.06-2.06zm20.15 10.86h5.42a2.06 2.06 0 012.06 2.06v59.3h-9.54v-59.3a2.06 2.06 0 012.06-2.06zm20.15-34.22h5.42a2.06 2.06 0 012.06 2.06v93.52h-9.54v-93.52a2.06 2.06 0 012.06-2.06z"/><path class="b1fbacb4-d42b-4a4b-a5e3-7a040ab97009" d="M1200.43 425.78h9.54v17.02h-9.54zm20.15-14.72h9.54v31.74h-9.54zm20.15-12.7h9.54v44.45h-9.54zm20.14-19.73h9.54v64.17h-9.54z"/><path class="b7643534-8936-414b-9d73-a734f6b1e5db" d="M961.41 424v-10L990 382.39a3.54 3.54 0 012.53-1.14 3.46 3.46 0 012.57 1.06l10.57 10.87 30.53-33a3.5 3.5 0 015.21.09l9.55 11.05 7-6.82v9.71l-4.76 4.79a3.5 3.5 0 01-5.12-.19l-9.46-10.93-30.37 32.79a3.54 3.54 0 01-2.53 1.13 3.46 3.46 0 01-2.55-1.06l-10.55-10.85z"/><rect class="bfa3d198-26f7-4ed9-acfc-0bdb4bf691e0" x="4.47" y="226.08" width="367.79" height="242.39" rx="13.73"/><path class="aaaa320a-3bd9-4ae4-8093-6cdd92522e61" d="M358.53 469.47H18.21a14.75 14.75 0 01-14.73-14.74V239.81a14.74 14.74 0 0114.73-14.73h340.32a14.75 14.75 0 0114.74 14.73v214.92a14.75 14.75 0 01-14.74 14.74zM18.21 227.08a12.74 12.74 0 00-12.73 12.73v214.92a12.75 12.75 0 0012.73 12.74h340.32a12.75 12.75 0 0012.74-12.74V239.81a12.75 12.75 0 00-12.74-12.73z"/><rect class="bbebb571-0cbf-4a19-aaf2-77a43001b731" x="11.36" y="235" width="354.03" height="224.54" rx="6.97"/><path class="aaaa320a-3bd9-4ae4-8093-6cdd92522e61" d="M358.41 460.54H18.33a8 8 0 01-8-8V242a8 8 0 018-8h340.08a8 8 0 018 8v210.57a8 8 0 01-8 7.97zM18.33 236a6 6 0 00-6 6v210.57a6 6 0 006 6h340.08a6 6 0 006-6V242a6 6 0 00-6-6z"/><path class="bfa3d198-26f7-4ed9-acfc-0bdb4bf691e0" d="M18.49 233.66h340.22a6.78 6.78 0 016.78 6.78v12H11.71v-12a6.78 6.78 0 016.78-6.78z"/><path class="aaaa320a-3bd9-4ae4-8093-6cdd92522e61" d="M366.49 253.48H10.71v-13a7.79 7.79 0 017.78-7.78h340.22a7.79 7.79 0 017.78 7.78zm-353.78-2h351.78v-11a5.78 5.78 0 00-5.78-5.78H18.49a5.79 5.79 0 00-5.78 5.78z"/><rect class="b7643534-8936-414b-9d73-a734f6b1e5db" x="31.69" y="288.16" width="13.92" height="13.2" rx="3.55"/><path class="b7643534-8936-414b-9d73-a734f6b1e5db" d="M42.06 302.36h-6.82a4.55 4.55 0 01-4.55-4.55v-6.1a4.56 4.56 0 014.55-4.55h6.82a4.56 4.56 0 014.55 4.55v6.1a4.55 4.55 0 01-4.55 4.55zm-6.82-13.2a2.55 2.55 0 00-2.55 2.55v6.1a2.55 2.55 0 002.55 2.55h6.82a2.55 2.55 0 002.55-2.55v-6.1a2.55 2.55 0 00-2.55-2.55z"/><rect class="b1fbacb4-d42b-4a4b-a5e3-7a040ab97009" x="308.29" y="288.16" width="38.42" height="13.2" rx="3.55"/><path class="b1fbacb4-d42b-4a4b-a5e3-7a040ab97009" d="M343.16 302.36h-31.32a4.55 4.55 0 01-4.55-4.55v-6.1a4.56 4.56 0 014.55-4.55h31.32a4.56 4.56 0 014.55 4.55v6.1a4.55 4.55 0 01-4.55 4.55zm-31.32-13.2a2.56 2.56 0 00-2.55 2.55v6.1a2.55 2.55 0 002.55 2.55h31.32a2.55 2.55 0 002.55-2.55v-6.1a2.55 2.55 0 00-2.55-2.55z"/><rect class="bfa3d198-26f7-4ed9-acfc-0bdb4bf691e0" x="59.26" y="288.16" width="206.43" height="13.2" rx="3.55"/><path class="aaaa320a-3bd9-4ae4-8093-6cdd92522e61" d="M262.14 302.36H62.81a4.55 4.55 0 01-4.55-4.55v-6.1a4.56 4.56 0 014.55-4.55h199.33a4.56 4.56 0 014.55 4.55v6.1a4.55 4.55 0 01-4.55 4.55zm-199.33-13.2a2.55 2.55 0 00-2.55 2.55v6.1a2.55 2.55 0 002.55 2.55h199.33a2.55 2.55 0 002.55-2.55v-6.1a2.55 2.55 0 00-2.55-2.55z"/><rect class="b1fbacb4-d42b-4a4b-a5e3-7a040ab97009" x="308.29" y="318.17" width="38.42" height="13.2" rx="3.55"/><path class="b1fbacb4-d42b-4a4b-a5e3-7a040ab97009" d="M343.16 332.36h-31.32a4.55 4.55 0 01-4.55-4.55v-6.1a4.55 4.55 0 014.55-4.54h31.32a4.55 4.55 0 014.55 4.54v6.1a4.55 4.55 0 01-4.55 4.55zm-31.32-13.19a2.55 2.55 0 00-2.55 2.54v6.1a2.55 2.55 0 002.55 2.55h31.32a2.55 2.55 0 002.55-2.55v-6.1a2.55 2.55 0 00-2.55-2.54z"/><rect class="b7643534-8936-414b-9d73-a734f6b1e5db" x="31.69" y="318.17" width="13.92" height="13.2" rx="3.55"/><path class="b7643534-8936-414b-9d73-a734f6b1e5db" d="M42.06 332.36h-6.82a4.55 4.55 0 01-4.55-4.55v-6.1a4.55 4.55 0 014.55-4.54h6.82a4.55 4.55 0 014.55 4.54v6.1a4.55 4.55 0 01-4.55 4.55zm-6.82-13.19a2.55 2.55 0 00-2.55 2.54v6.1a2.55 2.55 0 002.55 2.55h6.82a2.55 2.55 0 002.55-2.55v-6.1a2.55 2.55 0 00-2.55-2.54z"/><rect class="bfa3d198-26f7-4ed9-acfc-0bdb4bf691e0" x="59.26" y="318.17" width="143.72" height="13.2" rx="3.55"/><path class="aaaa320a-3bd9-4ae4-8093-6cdd92522e61" d="M199.44 332.36H62.81a4.55 4.55 0 01-4.55-4.55v-6.1a4.55 4.55 0 014.55-4.54h136.63a4.55 4.55 0 014.54 4.54v6.1a4.55 4.55 0 01-4.54 4.55zM62.81 319.17a2.55 2.55 0 00-2.55 2.54v6.1a2.55 2.55 0 002.55 2.55h136.63a2.55 2.55 0 002.54-2.55v-6.1a2.54 2.54 0 00-2.54-2.54z"/><rect class="b1fbacb4-d42b-4a4b-a5e3-7a040ab97009" x="308.29" y="348.17" width="38.42" height="13.2" rx="3.55"/><path class="b1fbacb4-d42b-4a4b-a5e3-7a040ab97009" d="M343.16 362.36h-31.32a4.55 4.55 0 01-4.55-4.55v-6.1a4.55 4.55 0 014.55-4.54h31.32a4.55 4.55 0 014.55 4.54v6.1a4.55 4.55 0 01-4.55 4.55zm-31.32-13.19a2.55 2.55 0 00-2.55 2.54v6.1a2.55 2.55 0 002.55 2.55h31.32a2.55 2.55 0 002.55-2.55v-6.1a2.55 2.55 0 00-2.55-2.54z"/><rect class="b7643534-8936-414b-9d73-a734f6b1e5db" x="31.69" y="348.17" width="13.92" height="13.2" rx="3.55"/><path class="b7643534-8936-414b-9d73-a734f6b1e5db" d="M42.06 362.36h-6.82a4.55 4.55 0 01-4.55-4.55v-6.1a4.55 4.55 0 014.55-4.54h6.82a4.55 4.55 0 014.55 4.54v6.1a4.55 4.55 0 01-4.55 4.55zm-6.82-13.19a2.55 2.55 0 00-2.55 2.54v6.1a2.55 2.55 0 002.55 2.55h6.82a2.55 2.55 0 002.55-2.55v-6.1a2.55 2.55 0 00-2.55-2.54z"/><rect class="bfa3d198-26f7-4ed9-acfc-0bdb4bf691e0" x="59.26" y="348.17" width="183.28" height="13.2" rx="3.55"/><path class="aaaa320a-3bd9-4ae4-8093-6cdd92522e61" d="M239 362.36H62.81a4.55 4.55 0 01-4.55-4.55v-6.1a4.55 4.55 0 014.55-4.54H239a4.55 4.55 0 014.55 4.54v6.1a4.55 4.55 0 01-4.55 4.55zM62.81 349.17a2.55 2.55 0 00-2.55 2.54v6.1a2.55 2.55 0 002.55 2.55H239a2.55 2.55 0 002.55-2.55v-6.1a2.55 2.55 0 00-2.55-2.54z"/><rect class="b1fbacb4-d42b-4a4b-a5e3-7a040ab97009" x="308.29" y="378.17" width="38.42" height="13.2" rx="3.55"/><path class="b1fbacb4-d42b-4a4b-a5e3-7a040ab97009" d="M343.16 392.36h-31.32a4.55 4.55 0 01-4.55-4.55v-6.1a4.55 4.55 0 014.55-4.54h31.32a4.55 4.55 0 014.55 4.54v6.1a4.55 4.55 0 01-4.55 4.55zm-31.32-13.19a2.55 2.55 0 00-2.55 2.54v6.1a2.55 2.55 0 002.55 2.55h31.32a2.55 2.55 0 002.55-2.55v-6.1a2.55 2.55 0 00-2.55-2.54z"/><rect class="b7643534-8936-414b-9d73-a734f6b1e5db" x="31.69" y="378.17" width="13.92" height="13.2" rx="3.55"/><path class="b7643534-8936-414b-9d73-a734f6b1e5db" d="M42.06 392.36h-6.82a4.55 4.55 0 01-4.55-4.55v-6.1a4.55 4.55 0 014.55-4.54h6.82a4.55 4.55 0 014.55 4.54v6.1a4.55 4.55 0 01-4.55 4.55zm-6.82-13.19a2.55 2.55 0 00-2.55 2.54v6.1a2.55 2.55 0 002.55 2.55h6.82a2.55 2.55 0 002.55-2.55v-6.1a2.55 2.55 0 00-2.55-2.54z"/><rect class="bfa3d198-26f7-4ed9-acfc-0bdb4bf691e0" x="59.26" y="378.17" width="206.43" height="13.2" rx="3.55"/><path class="aaaa320a-3bd9-4ae4-8093-6cdd92522e61" d="M262.14 392.36H62.81a4.55 4.55 0 01-4.55-4.55v-6.1a4.55 4.55 0 014.55-4.54h199.33a4.55 4.55 0 014.55 4.54v6.1a4.55 4.55 0 01-4.55 4.55zM62.81 379.17a2.55 2.55 0 00-2.55 2.54v6.1a2.55 2.55 0 002.55 2.55h199.33a2.55 2.55 0 002.55-2.55v-6.1a2.55 2.55 0 00-2.55-2.54z"/><rect class="b1fbacb4-d42b-4a4b-a5e3-7a040ab97009" x="308.29" y="408.17" width="38.42" height="13.2" rx="3.55"/><path class="b1fbacb4-d42b-4a4b-a5e3-7a040ab97009" d="M343.16 422.36h-31.32a4.55 4.55 0 01-4.55-4.55v-6.1a4.55 4.55 0 014.55-4.54h31.32a4.55 4.55 0 014.55 4.54v6.1a4.55 4.55 0 01-4.55 4.55zm-31.32-13.19a2.55 2.55 0 00-2.55 2.54v6.1a2.55 2.55 0 002.55 2.55h31.32a2.55 2.55 0 002.55-2.55v-6.1a2.55 2.55 0 00-2.55-2.54z"/><rect class="b7643534-8936-414b-9d73-a734f6b1e5db" x="31.69" y="408.17" width="13.92" height="13.2" rx="3.55"/><path class="b7643534-8936-414b-9d73-a734f6b1e5db" d="M42.06 422.36h-6.82a4.55 4.55 0 01-4.55-4.55v-6.1a4.55 4.55 0 014.55-4.54h6.82a4.55 4.55 0 014.55 4.54v6.1a4.55 4.55 0 01-4.55 4.55zm-6.82-13.19a2.55 2.55 0 00-2.55 2.54v6.1a2.55 2.55 0 002.55 2.55h6.82a2.55 2.55 0 002.55-2.55v-6.1a2.55 2.55 0 00-2.55-2.54z"/><rect class="bfa3d198-26f7-4ed9-acfc-0bdb4bf691e0" x="59.26" y="408.17" width="101.81" height="13.2" rx="3.55"/><path class="aaaa320a-3bd9-4ae4-8093-6cdd92522e61" d="M157.52 422.36H62.81a4.55 4.55 0 01-4.55-4.55v-6.1a4.55 4.55 0 014.55-4.54h94.71a4.55 4.55 0 014.55 4.54v6.1a4.55 4.55 0 01-4.55 4.55zm-94.71-13.19a2.55 2.55 0 00-2.55 2.54v6.1a2.55 2.55 0 002.55 2.55h94.71a2.55 2.55 0 002.55-2.55v-6.1a2.55 2.55 0 00-2.55-2.54z"/><rect class="bfa3d198-26f7-4ed9-acfc-0bdb4bf691e0" x="494.46" y="267.77" width="91.72" height="205.77" rx="3.55"/><path class="aaaa320a-3bd9-4ae4-8093-6cdd92522e61" d="M582.63 474.54H498a4.55 4.55 0 01-4.54-4.55V271.32a4.55 4.55 0 014.54-4.55h84.63a4.55 4.55 0 014.55 4.55V470a4.55 4.55 0 01-4.55 4.54zM498 268.77a2.55 2.55 0 00-2.54 2.55V470a2.55 2.55 0 002.54 2.55h84.63a2.55 2.55 0 002.55-2.55V271.32a2.55 2.55 0 00-2.55-2.55z"/><path class="bbebb571-0cbf-4a19-aaf2-77a43001b731" d="M603.2 378.22h39.42v44.3H603.2z"/><path class="aaaa320a-3bd9-4ae4-8093-6cdd92522e61" d="M643.62 423.52H602.2v-46.3h41.42zm-39.42-2h37.42v-42.3H604.2z"/><path class="bfa3d198-26f7-4ed9-acfc-0bdb4bf691e0" d="M701.74 362.24h71.34v49.35h-71.34z"/><path class="aaaa320a-3bd9-4ae4-8093-6cdd92522e61" d="M774.08 412.59h-73.34v-51.35h73.34zm-71.34-2h69.34v-47.35h-69.34z"/><path class="bbebb571-0cbf-4a19-aaf2-77a43001b731" d="M611.52 298.96h22.78v55.99h-22.78z"/><path class="aaaa320a-3bd9-4ae4-8093-6cdd92522e61" d="M635.3 356h-24.78v-58h24.78zm-22.78-2h20.78v-54h-20.78z"/><path class="bbebb571-0cbf-4a19-aaf2-77a43001b731" transform="rotate(-27.52 727.405 313.09)" d="M720.28 299.08h14.16v28.01h-14.16z"/><path class="aaaa320a-3bd9-4ae4-8093-6cdd92522e61" d="M727.13 330.13l-13.87-26.61 14.34-7.47 13.86 26.62zM716 304.37l12 23.07 10.79-5.62-12-23.07z"/><path class="bfa3d198-26f7-4ed9-acfc-0bdb4bf691e0" transform="rotate(-27.52 737.445 332.366)" d="M733.27 323.56h8.26v17.6h-8.26z"/><path class="aaaa320a-3bd9-4ae4-8093-6cdd92522e61" d="M737.38 343.42L728.32 326l9.1-4.74 9.06 17.38zM731 326.89l7.21 13.83 5.55-2.89-7.19-13.83z"/><path class="bfa3d198-26f7-4ed9-acfc-0bdb4bf691e0" transform="rotate(-27.52 734.322 326.385)" d="M715.75 322.09h37.07v8.57h-37.07z"/><path class="aaaa320a-3bd9-4ae4-8093-6cdd92522e61" d="M719.4 340.09l-4.89-9.38 34.66-18 4.88 9.37zm-2.19-8.53l3 5.83 31.1-16.21-3-5.83z"/><path class="bbebb571-0cbf-4a19-aaf2-77a43001b731" transform="rotate(-90 660.385 291.255)" d="M652.19 243.27h16.39v95.97h-16.39z"/><path class="aaaa320a-3bd9-4ae4-8093-6cdd92522e61" d="M709.37 300.45h-98v-18.39h98zm-96-2h94v-14.39h-94z"/><rect class="bfa3d198-26f7-4ed9-acfc-0bdb4bf691e0" x="571.76" y="409.97" width="242.7" height="63.63" rx="31.82"/><path class="aaaa320a-3bd9-4ae4-8093-6cdd92522e61" d="M782.64 474.6H603.57a32.82 32.82 0 010-65.63h179.07a32.82 32.82 0 110 65.63zM603.57 411a30.82 30.82 0 000 61.63h179.07a30.82 30.82 0 100-61.63z"/><rect class="bbebb571-0cbf-4a19-aaf2-77a43001b731" x="582.82" y="419.78" width="220.57" height="44" rx="22"/><path class="aaaa320a-3bd9-4ae4-8093-6cdd92522e61" d="M781.4 464.78H604.82a23 23 0 110-46H781.4a23 23 0 010 46zm-176.58-44a21 21 0 100 42H781.4a21 21 0 000-42z"/><path class="bfa3d198-26f7-4ed9-acfc-0bdb4bf691e0" d="M649.67 430.72a11.06 11.06 0 1011.06 11.07 11.08 11.08 0 00-11.06-11.07zm0 14.77a3.71 3.71 0 113.71-3.7 3.7 3.7 0 01-3.71 3.7z"/><path class="aaaa320a-3bd9-4ae4-8093-6cdd92522e61" d="M649.67 453.84a12.06 12.06 0 1112.06-12 12.06 12.06 0 01-12.06 12zm0-22.12a10.06 10.06 0 1010.06 10.07 10.07 10.07 0 00-10.06-10.07zm0 14.77a4.71 4.71 0 114.71-4.7 4.71 4.71 0 01-4.71 4.7zm0-7.42a2.71 2.71 0 102.71 2.72 2.71 2.71 0 00-2.71-2.72z"/><path class="bfa3d198-26f7-4ed9-acfc-0bdb4bf691e0" d="M693.52 430.72a11.06 11.06 0 1011.05 11 11.07 11.07 0 00-11.05-11zm0 14.77a3.71 3.71 0 113.7-3.72 3.72 3.72 0 01-3.7 3.72z"/><path class="aaaa320a-3bd9-4ae4-8093-6cdd92522e61" d="M693.52 453.84a12.06 12.06 0 1112.05-12.07 12.08 12.08 0 01-12.05 12.07zm0-22.12a10.06 10.06 0 1010.05 10 10.07 10.07 0 00-10.05-10zm0 14.77a4.71 4.71 0 114.7-4.72 4.71 4.71 0 01-4.7 4.72zm0-7.42a2.71 2.71 0 102.7 2.7 2.71 2.71 0 00-2.7-2.7z"/><path class="bfa3d198-26f7-4ed9-acfc-0bdb4bf691e0" d="M737.35 430.72a11.06 11.06 0 1011.06 11 11.06 11.06 0 00-11.06-11zm0 14.77a3.71 3.71 0 113.71-3.72 3.72 3.72 0 01-3.71 3.72z"/><path class="aaaa320a-3bd9-4ae4-8093-6cdd92522e61" d="M737.35 453.84a12.06 12.06 0 1112.06-12.07 12.07 12.07 0 01-12.06 12.07zm0-22.12a10.06 10.06 0 1010.06 10 10.06 10.06 0 00-10.06-10zm0 14.77a4.71 4.71 0 114.71-4.72 4.71 4.71 0 01-4.71 4.72zm0-7.42a2.71 2.71 0 102.71 2.7 2.7 2.7 0 00-2.71-2.7z"/><path class="bfa3d198-26f7-4ed9-acfc-0bdb4bf691e0" d="M781.2 430.72a11.06 11.06 0 1011 11.07 11.09 11.09 0 00-11-11.07zm0 14.77a3.71 3.71 0 113.7-3.7 3.72 3.72 0 01-3.7 3.7z"/><path class="aaaa320a-3bd9-4ae4-8093-6cdd92522e61" d="M781.2 453.84a12.06 12.06 0 1112-12 12.07 12.07 0 01-12 12zm0-22.12a10.06 10.06 0 1010 10.07 10.08 10.08 0 00-10-10.07zm0 14.77a4.71 4.71 0 114.7-4.7 4.72 4.72 0 01-4.7 4.7zm0-7.42a2.71 2.71 0 102.7 2.72 2.72 2.72 0 00-2.7-2.72z"/><path class="bfa3d198-26f7-4ed9-acfc-0bdb4bf691e0" d="M605.84 430.73a11.06 11.06 0 1011 11 11.07 11.07 0 00-11-11zm0 14.75a3.7 3.7 0 113.7-3.7 3.7 3.7 0 01-3.7 3.7z"/><path class="aaaa320a-3bd9-4ae4-8093-6cdd92522e61" d="M605.84 453.84a12.06 12.06 0 1112-12.06 12.07 12.07 0 01-12 12.06zm0-22.11a10.06 10.06 0 1010 10 10.06 10.06 0 00-10-10zm0 14.75a4.7 4.7 0 114.7-4.7 4.7 4.7 0 01-4.7 4.7zm0-7.4a2.7 2.7 0 102.7 2.7 2.7 2.7 0 00-2.7-2.7z"/><circle class="bfa3d198-26f7-4ed9-acfc-0bdb4bf691e0" cx="622.91" cy="363.58" r="24.78"/><path class="aaaa320a-3bd9-4ae4-8093-6cdd92522e61" d="M622.91 389.36a25.78 25.78 0 1125.77-25.78 25.8 25.8 0 01-25.77 25.78zm0-49.55a23.78 23.78 0 1023.77 23.77 23.8 23.8 0 00-23.77-23.77z"/><circle class="bbebb571-0cbf-4a19-aaf2-77a43001b731" cx="622.91" cy="363.58" r="15.61"/><path class="aaaa320a-3bd9-4ae4-8093-6cdd92522e61" d="M622.91 380.19a16.61 16.61 0 1116.6-16.61 16.63 16.63 0 01-16.6 16.61zm0-31.21a14.61 14.61 0 1014.6 14.6 14.62 14.62 0 00-14.6-14.58z"/><circle class="bfa3d198-26f7-4ed9-acfc-0bdb4bf691e0" cx="622.91" cy="291.26" r="20.18"/><path class="aaaa320a-3bd9-4ae4-8093-6cdd92522e61" d="M622.91 312.43a21.18 21.18 0 1121.17-21.17 21.2 21.2 0 01-21.17 21.17zm0-40.35a19.18 19.18 0 1019.17 19.18 19.2 19.2 0 00-19.17-19.18z"/><circle class="bbebb571-0cbf-4a19-aaf2-77a43001b731" cx="622.91" cy="291.26" r="12.71"/><path class="aaaa320a-3bd9-4ae4-8093-6cdd92522e61" d="M622.91 305a13.71 13.71 0 1113.71-13.71A13.73 13.73 0 01622.91 305zm0-25.42a11.71 11.71 0 1011.71 11.71 11.72 11.72 0 00-11.71-11.74z"/><circle class="bfa3d198-26f7-4ed9-acfc-0bdb4bf691e0" cx="718.83" cy="293.06" r="20.18"/><path class="aaaa320a-3bd9-4ae4-8093-6cdd92522e61" d="M718.87 314.23a21.17 21.17 0 1118.74-31 21.16 21.16 0 01-18.74 31zm-.06-40.36a19.19 19.19 0 00-17 28.05 19.18 19.18 0 1034-17.72 19 19 0 00-11.25-9.43 19.2 19.2 0 00-5.75-.9z"/><circle class="bbebb571-0cbf-4a19-aaf2-77a43001b731" cx="718.83" cy="293.06" r="12.71"/><path class="aaaa320a-3bd9-4ae4-8093-6cdd92522e61" d="M718.85 306.77a13.72 13.72 0 116.31-1.55 13.72 13.72 0 01-6.31 1.55zm0-25.43a11.73 11.73 0 1010.39 6.31 11.75 11.75 0 00-10.39-6.31z"/><path class="bbebb571-0cbf-4a19-aaf2-77a43001b731" d="M720 362.41h34.91v10.73a4.07 4.07 0 01-4.07 4.07H724a4.07 4.07 0 01-4.07-4.07v-10.73h.07z"/><path class="aaaa320a-3bd9-4ae4-8093-6cdd92522e61" d="M750.8 378.2H724a5.08 5.08 0 01-5.07-5.07v-11.72h36.92v11.72a5.08 5.08 0 01-5.05 5.07zM721 363.41v9.72a3.07 3.07 0 003 3.07h26.8a3.07 3.07 0 003.07-3.07v-9.72z"/><rect class="bbebb571-0cbf-4a19-aaf2-77a43001b731" x="505.3" y="278.23" width="70.03" height="70.43" rx="1.23"/><path class="aaaa320a-3bd9-4ae4-8093-6cdd92522e61" d="M574.1 349.66h-67.56a2.24 2.24 0 01-2.24-2.23v-68a2.24 2.24 0 012.24-2.23h67.56a2.23 2.23 0 012.23 2.23v68a2.23 2.23 0 01-2.23 2.23zm-67.56-70.43a.24.24 0 00-.24.23v68a.23.23 0 00.24.23h67.56a.23.23 0 00.23-.23v-68a.23.23 0 00-.23-.23z"/><rect class="b1fbacb4-d42b-4a4b-a5e3-7a040ab97009" x="515.14" y="287.8" width="13.92" height="13.2" rx="3.55"/><path class="b1fbacb4-d42b-4a4b-a5e3-7a040ab97009" d="M525.51 302h-6.82a4.55 4.55 0 01-4.55-4.55v-6.09a4.55 4.55 0 014.55-4.55h6.82a4.55 4.55 0 014.55 4.55v6.09a4.55 4.55 0 01-4.55 4.55zm-6.82-13.19a2.55 2.55 0 00-2.55 2.55v6.09a2.55 2.55 0 002.55 2.55h6.82a2.55 2.55 0 002.55-2.55v-6.09a2.55 2.55 0 00-2.55-2.55z"/><rect class="bfa3d198-26f7-4ed9-acfc-0bdb4bf691e0" x="539.52" y="287.8" width="24.84" height="13.2" rx="3.55"/><path class="aaaa320a-3bd9-4ae4-8093-6cdd92522e61" d="M560.81 302h-17.74a4.55 4.55 0 01-4.55-4.55v-6.09a4.55 4.55 0 014.55-4.55h17.74a4.55 4.55 0 014.55 4.55v6.09a4.55 4.55 0 01-4.55 4.55zm-17.74-13.2a2.55 2.55 0 00-2.55 2.55v6.09a2.55 2.55 0 002.55 2.55h17.74a2.55 2.55 0 002.55-2.55v-6.09a2.55 2.55 0 00-2.55-2.55z"/><rect class="bfa3d198-26f7-4ed9-acfc-0bdb4bf691e0" x="539.52" y="312.42" width="24.84" height="13.2" rx="3.55"/><path class="aaaa320a-3bd9-4ae4-8093-6cdd92522e61" d="M560.81 326.61h-17.74a4.55 4.55 0 01-4.55-4.54V316a4.55 4.55 0 014.55-4.55h17.74a4.55 4.55 0 014.55 4.55v6.1a4.55 4.55 0 01-4.55 4.51zm-17.74-13.19a2.55 2.55 0 00-2.55 2.55v6.1a2.55 2.55 0 002.55 2.54h17.74a2.55 2.55 0 002.55-2.54V316a2.55 2.55 0 00-2.55-2.55z"/><rect class="b1fbacb4-d42b-4a4b-a5e3-7a040ab97009" x="515.14" y="312.42" width="13.92" height="13.2" rx="3.55"/><path class="b1fbacb4-d42b-4a4b-a5e3-7a040ab97009" d="M525.51 326.61h-6.82a4.55 4.55 0 01-4.55-4.54V316a4.55 4.55 0 014.55-4.55h6.82a4.55 4.55 0 014.55 4.55v6.1a4.55 4.55 0 01-4.55 4.51zm-6.82-13.19a2.55 2.55 0 00-2.55 2.55v6.1a2.55 2.55 0 002.55 2.54h6.82a2.55 2.55 0 002.55-2.54V316a2.55 2.55 0 00-2.55-2.55z"/><rect class="b7643534-8936-414b-9d73-a734f6b1e5db" x="515.14" y="362.72" width="48.64" height="13.2" rx="3.55"/><path class="b7643534-8936-414b-9d73-a734f6b1e5db" d="M560.23 376.92h-41.54a4.55 4.55 0 01-4.55-4.55v-6.1a4.55 4.55 0 014.55-4.55h41.54a4.55 4.55 0 014.55 4.55v6.1a4.55 4.55 0 01-4.55 4.55zm-41.54-13.2a2.55 2.55 0 00-2.55 2.55v6.1a2.55 2.55 0 002.55 2.55h41.54a2.55 2.55 0 002.55-2.55v-6.1a2.55 2.55 0 00-2.55-2.55z"/><path class="bbebb571-0cbf-4a19-aaf2-77a43001b731" d="M175 95.14V86a5.5 5.5 0 015.5-5.5l930.42-.56a5.5 5.5 0 015.5 5.5v9.14"/><path class="a58a1501-ef6a-4ea6-94ba-0c4c0f036226" d="M176 95.14h-2V86a6.51 6.51 0 016.5-6.5l930.42-.57a6.51 6.51 0 016.5 6.5v9.15h-2v-9.16a4.51 4.51 0 00-4.5-4.5l-930.42.57A4.51 4.51 0 00176 86z"/><path class="a58a1501-ef6a-4ea6-94ba-0c4c0f036226" d="M653.46 63.44h2v32.95h-2z"/><rect class="b7643534-8936-414b-9d73-a734f6b1e5db" x="151.56" y="168.27" width="73.62" height="73.62" rx="16.76"/><path class="b7643534-8936-414b-9d73-a734f6b1e5db" d="M208.42 242.89h-40.1a17.78 17.78 0 01-17.76-17.75V185a17.78 17.78 0 0117.76-17.76h40.1A17.78 17.78 0 01226.18 185v40.11a17.77 17.77 0 01-17.76 17.78zm-40.1-73.62A15.78 15.78 0 00152.56 185v40.11a15.77 15.77 0 0015.76 15.75h40.1a15.77 15.77 0 0015.76-15.75V185a15.78 15.78 0 00-15.76-15.76z"/><path class="baac4cfe-1a28-4899-a1eb-cf3a2dbf0572" d="M168.46 215.09a9.22 9.22 0 01-7.15-2.94 11 11 0 01-2.69-7.67 11.55 11.55 0 012.74-8.08 9.58 9.58 0 017.46-3 9 9 0 017 2.93 11 11 0 012.65 7.66c0 3.43-.9 6.14-2.72 8.13a9.41 9.41 0 01-7.29 2.97zm.18-19.48a6.76 6.76 0 00-5.38 2.39 10.63 10.63 0 000 12.51 6.57 6.57 0 005.25 2.37 6.86 6.86 0 005.45-2.26 9.2 9.2 0 002-6.31 9.63 9.63 0 00-1.94-6.43 6.6 6.6 0 00-5.38-2.27zM200 214.74h-2.73l-2.27-5.89h-8.91l-2.09 5.89h-2.74l8.05-21h2.55zm-5.76-8.1l-3.29-8.95a8.51 8.51 0 01-.33-1.41 7.67 7.67 0 01-.34 1.41l-3.27 8.95zm12.76.16v7.94h-2.46v-21h5.77a7.61 7.61 0 015.22 1.64 5.86 5.86 0 011.86 4.63 6.36 6.36 0 01-2.06 4.89 7.87 7.87 0 01-5.56 1.91zm0-10.8v8.61h2.58a5.81 5.81 0 003.89-1.16 4.14 4.14 0 001.34-3.29q0-4.16-4.92-4.16z"/><rect x="1084.81" y="168.27" width="73.62" height="73.62" rx="16.76" fill="#213a6b"/><path class="baac4cfe-1a28-4899-a1eb-cf3a2dbf0572" d="M1103.67 214.74v-21h5.8q11.1 0 11.1 10.24a10.35 10.35 0 01-3.08 7.82 11.44 11.44 0 01-8.26 3zm2.46-18.78v16.55h3.13a8.9 8.9 0 006.43-2.21 8.25 8.25 0 002.31-6.3q0-8.07-8.58-8.07zm35.87 18.78h-2.73l-2.22-5.89h-8.91l-2.09 5.89h-2.74l8-21h2.55zm-5.76-8.1l-3.29-8.95a8.51 8.51 0 01-.33-1.41 7.67 7.67 0 01-.34 1.41l-3.27 8.95z"/><rect x="617.65" y="168.27" width="73.62" height="73.62" rx="16.76" fill="#51cf69"/><path class="baac4cfe-1a28-4899-a1eb-cf3a2dbf0572" d="M653.7 214.74h-2.45v-14.09c0-1.12.07-2.48.2-4.09h-.05a14.39 14.39 0 01-.63 2l-7.18 16.14h-1.2l-7.17-16a13.44 13.44 0 01-.63-2.15h-.05c.07.84.11 2.21.11 4.12v14.06h-2.37v-21h3.25l6.47 14.65a18.39 18.39 0 011 2.52c.42-1.15.76-2 1-2.58l6.58-14.59h3.08zm23.3 0h-2.73l-2.27-5.89h-8.91l-2.09 5.89h-2.74l8.05-21h2.55zm-5.76-8.1l-3.3-8.95a10 10 0 01-.32-1.41h-.06a7.79 7.79 0 01-.33 1.41l-3.27 8.95z"/></g></svg>