<svg xmlns="http://www.w3.org/2000/svg" width="1310.26" height="490.94"><defs><clipPath id="bf190aff-91fc-485c-ae66-a9475ed8a1c6"><path class="e0dd5463-729c-4e4a-86d0-66bec171932b" d="M2.05.65h1305.87v998.41H2.05z"/></clipPath><style>.e0dd5463-729c-4e4a-86d0-66bec171932b{fill:none}.ad612ee1-31fe-4d71-bc30-b6418724b55c{fill:#d4e4f1}.b4654475-5935-4d02-bd8c-11af37185747{fill:#f4f8fa}.bcdded38-892b-4b4f-802b-c5cc1e5f74ef{fill:#c7d3dd}.ac424f7d-6591-4aca-9598-7e15a5ce8df0{fill:#fff}.bf58f529-41d0-4ae0-8a01-3b7d59feea20{fill:#1f84ff}.eb741e5e-7f8f-478b-b178-fdeab1afc9c3{fill:#b4ddff}.b6f3e842-8e6c-4e00-b3ad-724bee1542c5{fill:#a2b1c3}</style></defs><g clip-path="url(#bf190aff-91fc-485c-ae66-a9475ed8a1c6)" id="babb8082-df1a-4954-8866-bed90aae3beb" data-name="Layer 2"><path class="e0dd5463-729c-4e4a-86d0-66bec171932b" d="M1270.36-4.68h52.48v44.17h-52.48z"/><ellipse class="ad612ee1-31fe-4d71-bc30-b6418724b55c" cx="1296.6" cy="17.4" rx="2.16" ry="1.82"/><path class="e0dd5463-729c-4e4a-86d0-66bec171932b" d="M1270.36 39.49h52.48v44.17h-52.48z"/><ellipse class="ad612ee1-31fe-4d71-bc30-b6418724b55c" cx="1296.6" cy="61.57" rx="2.16" ry="1.82"/><path class="e0dd5463-729c-4e4a-86d0-66bec171932b" d="M1270.36 83.66h52.48v44.17h-52.48z"/><ellipse class="ad612ee1-31fe-4d71-bc30-b6418724b55c" cx="1296.6" cy="105.75" rx="2.16" ry="1.82"/><path class="e0dd5463-729c-4e4a-86d0-66bec171932b" d="M1270.36 127.83h52.48V172h-52.48z"/><ellipse class="ad612ee1-31fe-4d71-bc30-b6418724b55c" cx="1296.6" cy="149.92" rx="2.16" ry="1.82"/><path class="e0dd5463-729c-4e4a-86d0-66bec171932b" d="M1270.36 172h52.48v44.17h-52.48z"/><ellipse class="ad612ee1-31fe-4d71-bc30-b6418724b55c" cx="1296.6" cy="194.09" rx="2.16" ry="1.82"/><path class="e0dd5463-729c-4e4a-86d0-66bec171932b" d="M1270.36 216.17h52.48v44.17h-52.48z"/><ellipse class="ad612ee1-31fe-4d71-bc30-b6418724b55c" cx="1296.6" cy="238.26" rx="2.16" ry="1.82"/><path class="e0dd5463-729c-4e4a-86d0-66bec171932b" d="M1270.36 260.35h52.48v44.17h-52.48z"/><ellipse class="ad612ee1-31fe-4d71-bc30-b6418724b55c" cx="1296.6" cy="282.43" rx="2.16" ry="1.82"/><path class="e0dd5463-729c-4e4a-86d0-66bec171932b" d="M1270.36 304.52h52.48v44.17h-52.48z"/><ellipse class="ad612ee1-31fe-4d71-bc30-b6418724b55c" cx="1296.6" cy="326.6" rx="2.16" ry="1.82"/><path class="e0dd5463-729c-4e4a-86d0-66bec171932b" d="M1270.36 348.69h52.48v44.17h-52.48z"/><ellipse class="ad612ee1-31fe-4d71-bc30-b6418724b55c" cx="1296.6" cy="370.77" rx="2.16" ry="1.82"/><path class="e0dd5463-729c-4e4a-86d0-66bec171932b" d="M1270.36 392.86h52.48v44.17h-52.48z"/><ellipse class="ad612ee1-31fe-4d71-bc30-b6418724b55c" cx="1296.6" cy="414.95" rx="2.16" ry="1.82"/><path class="e0dd5463-729c-4e4a-86d0-66bec171932b" d="M1270.36 437.03h52.48v44.17h-52.48z"/><ellipse class="ad612ee1-31fe-4d71-bc30-b6418724b55c" cx="1296.6" cy="459.12" rx="2.16" ry="1.82"/><path class="e0dd5463-729c-4e4a-86d0-66bec171932b" d="M1270.36 481.2h52.48v44.17h-52.48zM1217.88-4.68h52.48v44.17h-52.48z"/><ellipse class="ad612ee1-31fe-4d71-bc30-b6418724b55c" cx="1244.12" cy="17.4" rx="2.16" ry="1.82"/><path class="e0dd5463-729c-4e4a-86d0-66bec171932b" d="M1217.88 39.49h52.48v44.17h-52.48z"/><ellipse class="ad612ee1-31fe-4d71-bc30-b6418724b55c" cx="1244.12" cy="61.57" rx="2.16" ry="1.82"/><path class="e0dd5463-729c-4e4a-86d0-66bec171932b" d="M1217.88 83.66h52.48v44.17h-52.48z"/><ellipse class="ad612ee1-31fe-4d71-bc30-b6418724b55c" cx="1244.12" cy="105.75" rx="2.16" ry="1.82"/><path class="e0dd5463-729c-4e4a-86d0-66bec171932b" d="M1217.88 127.83h52.48V172h-52.48z"/><ellipse class="ad612ee1-31fe-4d71-bc30-b6418724b55c" cx="1244.12" cy="149.92" rx="2.16" ry="1.82"/><path class="e0dd5463-729c-4e4a-86d0-66bec171932b" d="M1217.88 172h52.48v44.17h-52.48z"/><ellipse class="ad612ee1-31fe-4d71-bc30-b6418724b55c" cx="1244.12" cy="194.09" rx="2.16" ry="1.82"/><path class="e0dd5463-729c-4e4a-86d0-66bec171932b" d="M1217.88 216.17h52.48v44.17h-52.48z"/><ellipse class="ad612ee1-31fe-4d71-bc30-b6418724b55c" cx="1244.12" cy="238.26" rx="2.16" ry="1.82"/><path class="e0dd5463-729c-4e4a-86d0-66bec171932b" d="M1217.88 260.35h52.48v44.17h-52.48z"/><ellipse class="ad612ee1-31fe-4d71-bc30-b6418724b55c" cx="1244.12" cy="282.43" rx="2.16" ry="1.82"/><path class="e0dd5463-729c-4e4a-86d0-66bec171932b" d="M1217.88 304.52h52.48v44.17h-52.48z"/><ellipse class="ad612ee1-31fe-4d71-bc30-b6418724b55c" cx="1244.12" cy="326.6" rx="2.16" ry="1.82"/><path class="e0dd5463-729c-4e4a-86d0-66bec171932b" d="M1217.88 348.69h52.48v44.17h-52.48z"/><ellipse class="ad612ee1-31fe-4d71-bc30-b6418724b55c" cx="1244.12" cy="370.77" rx="2.16" ry="1.82"/><path class="e0dd5463-729c-4e4a-86d0-66bec171932b" d="M1217.88 392.86h52.48v44.17h-52.48z"/><ellipse class="ad612ee1-31fe-4d71-bc30-b6418724b55c" cx="1244.12" cy="414.95" rx="2.16" ry="1.82"/><path class="e0dd5463-729c-4e4a-86d0-66bec171932b" d="M1217.88 437.03h52.48v44.17h-52.48z"/><ellipse class="ad612ee1-31fe-4d71-bc30-b6418724b55c" cx="1244.12" cy="459.12" rx="2.16" ry="1.82"/><path class="e0dd5463-729c-4e4a-86d0-66bec171932b" d="M1217.88 481.2h52.48v44.17h-52.48zM1165.39-4.68h52.48v44.17h-52.48z"/><ellipse class="ad612ee1-31fe-4d71-bc30-b6418724b55c" cx="1191.64" cy="17.4" rx="2.16" ry="1.82"/><path class="e0dd5463-729c-4e4a-86d0-66bec171932b" d="M1165.39 39.49h52.48v44.17h-52.48z"/><ellipse class="ad612ee1-31fe-4d71-bc30-b6418724b55c" cx="1191.64" cy="61.57" rx="2.16" ry="1.82"/><path class="e0dd5463-729c-4e4a-86d0-66bec171932b" d="M1165.39 83.66h52.48v44.17h-52.48z"/><ellipse class="ad612ee1-31fe-4d71-bc30-b6418724b55c" cx="1191.64" cy="105.75" rx="2.16" ry="1.82"/><path class="e0dd5463-729c-4e4a-86d0-66bec171932b" d="M1165.39 127.83h52.48V172h-52.48z"/><ellipse class="ad612ee1-31fe-4d71-bc30-b6418724b55c" cx="1191.64" cy="149.92" rx="2.16" ry="1.82"/><path class="e0dd5463-729c-4e4a-86d0-66bec171932b" d="M1165.39 172h52.48v44.17h-52.48z"/><ellipse class="ad612ee1-31fe-4d71-bc30-b6418724b55c" cx="1191.64" cy="194.09" rx="2.16" ry="1.82"/><path class="e0dd5463-729c-4e4a-86d0-66bec171932b" d="M1165.39 216.17h52.48v44.17h-52.48z"/><ellipse class="ad612ee1-31fe-4d71-bc30-b6418724b55c" cx="1191.64" cy="238.26" rx="2.16" ry="1.82"/><path class="e0dd5463-729c-4e4a-86d0-66bec171932b" d="M1165.39 260.35h52.48v44.17h-52.48z"/><ellipse class="ad612ee1-31fe-4d71-bc30-b6418724b55c" cx="1191.64" cy="282.43" rx="2.16" ry="1.82"/><path class="e0dd5463-729c-4e4a-86d0-66bec171932b" d="M1165.39 304.52h52.48v44.17h-52.48z"/><ellipse class="ad612ee1-31fe-4d71-bc30-b6418724b55c" cx="1191.64" cy="326.6" rx="2.16" ry="1.82"/><path class="e0dd5463-729c-4e4a-86d0-66bec171932b" d="M1165.39 348.69h52.48v44.17h-52.48z"/><ellipse class="ad612ee1-31fe-4d71-bc30-b6418724b55c" cx="1191.64" cy="370.77" rx="2.16" ry="1.82"/><path class="e0dd5463-729c-4e4a-86d0-66bec171932b" d="M1165.39 392.86h52.48v44.17h-52.48z"/><ellipse class="ad612ee1-31fe-4d71-bc30-b6418724b55c" cx="1191.64" cy="414.95" rx="2.16" ry="1.82"/><path class="e0dd5463-729c-4e4a-86d0-66bec171932b" d="M1165.39 437.03h52.48v44.17h-52.48z"/><ellipse class="ad612ee1-31fe-4d71-bc30-b6418724b55c" cx="1191.64" cy="459.12" rx="2.16" ry="1.82"/><path class="e0dd5463-729c-4e4a-86d0-66bec171932b" d="M1165.39 481.2h52.48v44.17h-52.48zM1112.91-4.68h52.48v44.17h-52.48z"/><ellipse class="ad612ee1-31fe-4d71-bc30-b6418724b55c" cx="1139.15" cy="17.4" rx="2.16" ry="1.82"/><path class="e0dd5463-729c-4e4a-86d0-66bec171932b" d="M1112.91 39.49h52.48v44.17h-52.48z"/><ellipse class="ad612ee1-31fe-4d71-bc30-b6418724b55c" cx="1139.15" cy="61.57" rx="2.16" ry="1.82"/><path class="e0dd5463-729c-4e4a-86d0-66bec171932b" d="M1112.91 83.66h52.48v44.17h-52.48z"/><ellipse class="ad612ee1-31fe-4d71-bc30-b6418724b55c" cx="1139.15" cy="105.75" rx="2.16" ry="1.82"/><path class="e0dd5463-729c-4e4a-86d0-66bec171932b" d="M1112.91 127.83h52.48V172h-52.48z"/><ellipse class="ad612ee1-31fe-4d71-bc30-b6418724b55c" cx="1139.15" cy="149.92" rx="2.16" ry="1.82"/><path class="e0dd5463-729c-4e4a-86d0-66bec171932b" d="M1112.91 172h52.48v44.17h-52.48z"/><ellipse class="ad612ee1-31fe-4d71-bc30-b6418724b55c" cx="1139.15" cy="194.09" rx="2.16" ry="1.82"/><path class="e0dd5463-729c-4e4a-86d0-66bec171932b" d="M1112.91 216.17h52.48v44.17h-52.48z"/><ellipse class="ad612ee1-31fe-4d71-bc30-b6418724b55c" cx="1139.15" cy="238.26" rx="2.16" ry="1.82"/><path class="e0dd5463-729c-4e4a-86d0-66bec171932b" d="M1112.91 260.35h52.48v44.17h-52.48z"/><ellipse class="ad612ee1-31fe-4d71-bc30-b6418724b55c" cx="1139.15" cy="282.43" rx="2.16" ry="1.82"/><path class="e0dd5463-729c-4e4a-86d0-66bec171932b" d="M1112.91 304.52h52.48v44.17h-52.48z"/><ellipse class="ad612ee1-31fe-4d71-bc30-b6418724b55c" cx="1139.15" cy="326.6" rx="2.16" ry="1.82"/><path class="e0dd5463-729c-4e4a-86d0-66bec171932b" d="M1112.91 348.69h52.48v44.17h-52.48z"/><ellipse class="ad612ee1-31fe-4d71-bc30-b6418724b55c" cx="1139.15" cy="370.77" rx="2.16" ry="1.82"/><path class="e0dd5463-729c-4e4a-86d0-66bec171932b" d="M1112.91 392.86h52.48v44.17h-52.48z"/><ellipse class="ad612ee1-31fe-4d71-bc30-b6418724b55c" cx="1139.15" cy="414.95" rx="2.16" ry="1.82"/><path class="e0dd5463-729c-4e4a-86d0-66bec171932b" d="M1112.91 437.03h52.48v44.17h-52.48z"/><ellipse class="ad612ee1-31fe-4d71-bc30-b6418724b55c" cx="1139.15" cy="459.12" rx="2.16" ry="1.82"/><path class="e0dd5463-729c-4e4a-86d0-66bec171932b" d="M1112.91 481.2h52.48v44.17h-52.48zM1060.43-4.68h52.48v44.17h-52.48z"/><ellipse class="ad612ee1-31fe-4d71-bc30-b6418724b55c" cx="1086.67" cy="17.4" rx="2.16" ry="1.82"/><path class="e0dd5463-729c-4e4a-86d0-66bec171932b" d="M1060.43 39.49h52.48v44.17h-52.48z"/><ellipse class="ad612ee1-31fe-4d71-bc30-b6418724b55c" cx="1086.67" cy="61.57" rx="2.16" ry="1.82"/><path class="e0dd5463-729c-4e4a-86d0-66bec171932b" d="M1060.43 83.66h52.48v44.17h-52.48z"/><ellipse class="ad612ee1-31fe-4d71-bc30-b6418724b55c" cx="1086.67" cy="105.75" rx="2.16" ry="1.82"/><path class="e0dd5463-729c-4e4a-86d0-66bec171932b" d="M1060.43 127.83h52.48V172h-52.48z"/><ellipse class="ad612ee1-31fe-4d71-bc30-b6418724b55c" cx="1086.67" cy="149.92" rx="2.16" ry="1.82"/><path class="e0dd5463-729c-4e4a-86d0-66bec171932b" d="M1060.43 172h52.48v44.17h-52.48z"/><ellipse class="ad612ee1-31fe-4d71-bc30-b6418724b55c" cx="1086.67" cy="194.09" rx="2.16" ry="1.82"/><path class="e0dd5463-729c-4e4a-86d0-66bec171932b" d="M1060.43 216.17h52.48v44.17h-52.48z"/><ellipse class="ad612ee1-31fe-4d71-bc30-b6418724b55c" cx="1086.67" cy="238.26" rx="2.16" ry="1.82"/><path class="e0dd5463-729c-4e4a-86d0-66bec171932b" d="M1060.43 260.35h52.48v44.17h-52.48z"/><ellipse class="ad612ee1-31fe-4d71-bc30-b6418724b55c" cx="1086.67" cy="282.43" rx="2.16" ry="1.82"/><path class="e0dd5463-729c-4e4a-86d0-66bec171932b" d="M1060.43 304.52h52.48v44.17h-52.48z"/><ellipse class="ad612ee1-31fe-4d71-bc30-b6418724b55c" cx="1086.67" cy="326.6" rx="2.16" ry="1.82"/><path class="e0dd5463-729c-4e4a-86d0-66bec171932b" d="M1060.43 348.69h52.48v44.17h-52.48z"/><ellipse class="ad612ee1-31fe-4d71-bc30-b6418724b55c" cx="1086.67" cy="370.77" rx="2.16" ry="1.82"/><path class="e0dd5463-729c-4e4a-86d0-66bec171932b" d="M1060.43 392.86h52.48v44.17h-52.48z"/><ellipse class="ad612ee1-31fe-4d71-bc30-b6418724b55c" cx="1086.67" cy="414.95" rx="2.16" ry="1.82"/><path class="e0dd5463-729c-4e4a-86d0-66bec171932b" d="M1060.43 437.03h52.48v44.17h-52.48z"/><ellipse class="ad612ee1-31fe-4d71-bc30-b6418724b55c" cx="1086.67" cy="459.12" rx="2.16" ry="1.82"/><path class="e0dd5463-729c-4e4a-86d0-66bec171932b" d="M1060.43 481.2h52.48v44.17h-52.48zM1007.94-4.68h52.48v44.17h-52.48z"/><ellipse class="ad612ee1-31fe-4d71-bc30-b6418724b55c" cx="1034.18" cy="17.4" rx="2.16" ry="1.82"/><path class="e0dd5463-729c-4e4a-86d0-66bec171932b" d="M1007.94 39.49h52.48v44.17h-52.48z"/><ellipse class="ad612ee1-31fe-4d71-bc30-b6418724b55c" cx="1034.18" cy="61.57" rx="2.16" ry="1.82"/><path class="e0dd5463-729c-4e4a-86d0-66bec171932b" d="M1007.94 83.66h52.48v44.17h-52.48z"/><ellipse class="ad612ee1-31fe-4d71-bc30-b6418724b55c" cx="1034.18" cy="105.75" rx="2.16" ry="1.82"/><path class="e0dd5463-729c-4e4a-86d0-66bec171932b" d="M1007.94 127.83h52.48V172h-52.48z"/><ellipse class="ad612ee1-31fe-4d71-bc30-b6418724b55c" cx="1034.18" cy="149.92" rx="2.16" ry="1.82"/><path class="e0dd5463-729c-4e4a-86d0-66bec171932b" d="M1007.94 172h52.48v44.17h-52.48z"/><ellipse class="ad612ee1-31fe-4d71-bc30-b6418724b55c" cx="1034.18" cy="194.09" rx="2.16" ry="1.82"/><path class="e0dd5463-729c-4e4a-86d0-66bec171932b" d="M1007.94 216.17h52.48v44.17h-52.48z"/><ellipse class="ad612ee1-31fe-4d71-bc30-b6418724b55c" cx="1034.18" cy="238.26" rx="2.16" ry="1.82"/><path class="e0dd5463-729c-4e4a-86d0-66bec171932b" d="M1007.94 260.35h52.48v44.17h-52.48z"/><ellipse class="ad612ee1-31fe-4d71-bc30-b6418724b55c" cx="1034.18" cy="282.43" rx="2.16" ry="1.82"/><path class="e0dd5463-729c-4e4a-86d0-66bec171932b" d="M1007.94 304.52h52.48v44.17h-52.48z"/><ellipse class="ad612ee1-31fe-4d71-bc30-b6418724b55c" cx="1034.18" cy="326.6" rx="2.16" ry="1.82"/><path class="e0dd5463-729c-4e4a-86d0-66bec171932b" d="M1007.94 348.69h52.48v44.17h-52.48z"/><ellipse class="ad612ee1-31fe-4d71-bc30-b6418724b55c" cx="1034.18" cy="370.77" rx="2.16" ry="1.82"/><path class="e0dd5463-729c-4e4a-86d0-66bec171932b" d="M1007.94 392.86h52.48v44.17h-52.48z"/><ellipse class="ad612ee1-31fe-4d71-bc30-b6418724b55c" cx="1034.18" cy="414.95" rx="2.16" ry="1.82"/><path class="e0dd5463-729c-4e4a-86d0-66bec171932b" d="M1007.94 437.03h52.48v44.17h-52.48z"/><ellipse class="ad612ee1-31fe-4d71-bc30-b6418724b55c" cx="1034.18" cy="459.12" rx="2.16" ry="1.82"/><path class="e0dd5463-729c-4e4a-86d0-66bec171932b" d="M1007.94 481.2h52.48v44.17h-52.48zM955.46-4.68h52.48v44.17h-52.48z"/><ellipse class="ad612ee1-31fe-4d71-bc30-b6418724b55c" cx="981.7" cy="17.4" rx="2.16" ry="1.82"/><path class="e0dd5463-729c-4e4a-86d0-66bec171932b" d="M955.46 39.49h52.48v44.17h-52.48z"/><ellipse class="ad612ee1-31fe-4d71-bc30-b6418724b55c" cx="981.7" cy="61.57" rx="2.16" ry="1.82"/><path class="e0dd5463-729c-4e4a-86d0-66bec171932b" d="M955.46 83.66h52.48v44.17h-52.48z"/><ellipse class="ad612ee1-31fe-4d71-bc30-b6418724b55c" cx="981.7" cy="105.75" rx="2.16" ry="1.82"/><path class="e0dd5463-729c-4e4a-86d0-66bec171932b" d="M955.46 127.83h52.48V172h-52.48z"/><ellipse class="ad612ee1-31fe-4d71-bc30-b6418724b55c" cx="981.7" cy="149.92" rx="2.16" ry="1.82"/><path class="e0dd5463-729c-4e4a-86d0-66bec171932b" d="M955.46 172h52.48v44.17h-52.48z"/><ellipse class="ad612ee1-31fe-4d71-bc30-b6418724b55c" cx="981.7" cy="194.09" rx="2.16" ry="1.82"/><path class="e0dd5463-729c-4e4a-86d0-66bec171932b" d="M955.46 216.17h52.48v44.17h-52.48z"/><ellipse class="ad612ee1-31fe-4d71-bc30-b6418724b55c" cx="981.7" cy="238.26" rx="2.16" ry="1.82"/><path class="e0dd5463-729c-4e4a-86d0-66bec171932b" d="M955.46 260.35h52.48v44.17h-52.48z"/><ellipse class="ad612ee1-31fe-4d71-bc30-b6418724b55c" cx="981.7" cy="282.43" rx="2.16" ry="1.82"/><path class="e0dd5463-729c-4e4a-86d0-66bec171932b" d="M955.46 304.52h52.48v44.17h-52.48z"/><ellipse class="ad612ee1-31fe-4d71-bc30-b6418724b55c" cx="981.7" cy="326.6" rx="2.16" ry="1.82"/><path class="e0dd5463-729c-4e4a-86d0-66bec171932b" d="M955.46 348.69h52.48v44.17h-52.48z"/><ellipse class="ad612ee1-31fe-4d71-bc30-b6418724b55c" cx="981.7" cy="370.77" rx="2.16" ry="1.82"/><path class="e0dd5463-729c-4e4a-86d0-66bec171932b" d="M955.46 392.86h52.48v44.17h-52.48z"/><ellipse class="ad612ee1-31fe-4d71-bc30-b6418724b55c" cx="981.7" cy="414.95" rx="2.16" ry="1.82"/><path class="e0dd5463-729c-4e4a-86d0-66bec171932b" d="M955.46 437.03h52.48v44.17h-52.48z"/><ellipse class="ad612ee1-31fe-4d71-bc30-b6418724b55c" cx="981.7" cy="459.12" rx="2.16" ry="1.82"/><path class="e0dd5463-729c-4e4a-86d0-66bec171932b" d="M955.46 481.2h52.48v44.17h-52.48zM902.98-4.68h52.48v44.17h-52.48z"/><ellipse class="ad612ee1-31fe-4d71-bc30-b6418724b55c" cx="929.22" cy="17.4" rx="2.16" ry="1.82"/><path class="e0dd5463-729c-4e4a-86d0-66bec171932b" d="M902.98 39.49h52.48v44.17h-52.48z"/><ellipse class="ad612ee1-31fe-4d71-bc30-b6418724b55c" cx="929.22" cy="61.57" rx="2.16" ry="1.82"/><path class="e0dd5463-729c-4e4a-86d0-66bec171932b" d="M902.98 83.66h52.48v44.17h-52.48z"/><ellipse class="ad612ee1-31fe-4d71-bc30-b6418724b55c" cx="929.22" cy="105.75" rx="2.16" ry="1.82"/><path class="e0dd5463-729c-4e4a-86d0-66bec171932b" d="M902.98 127.83h52.48V172h-52.48z"/><ellipse class="ad612ee1-31fe-4d71-bc30-b6418724b55c" cx="929.22" cy="149.92" rx="2.16" ry="1.82"/><path class="e0dd5463-729c-4e4a-86d0-66bec171932b" d="M902.98 172h52.48v44.17h-52.48z"/><ellipse class="ad612ee1-31fe-4d71-bc30-b6418724b55c" cx="929.22" cy="194.09" rx="2.16" ry="1.82"/><path class="e0dd5463-729c-4e4a-86d0-66bec171932b" d="M902.98 216.17h52.48v44.17h-52.48z"/><ellipse class="ad612ee1-31fe-4d71-bc30-b6418724b55c" cx="929.22" cy="238.26" rx="2.16" ry="1.82"/><path class="e0dd5463-729c-4e4a-86d0-66bec171932b" d="M902.98 260.35h52.48v44.17h-52.48z"/><ellipse class="ad612ee1-31fe-4d71-bc30-b6418724b55c" cx="929.22" cy="282.43" rx="2.16" ry="1.82"/><path class="e0dd5463-729c-4e4a-86d0-66bec171932b" d="M902.98 304.52h52.48v44.17h-52.48z"/><ellipse class="ad612ee1-31fe-4d71-bc30-b6418724b55c" cx="929.22" cy="326.6" rx="2.16" ry="1.82"/><path class="e0dd5463-729c-4e4a-86d0-66bec171932b" d="M902.98 348.69h52.48v44.17h-52.48z"/><ellipse class="ad612ee1-31fe-4d71-bc30-b6418724b55c" cx="929.22" cy="370.77" rx="2.16" ry="1.82"/><path class="e0dd5463-729c-4e4a-86d0-66bec171932b" d="M902.98 392.86h52.48v44.17h-52.48z"/><ellipse class="ad612ee1-31fe-4d71-bc30-b6418724b55c" cx="929.22" cy="414.95" rx="2.16" ry="1.82"/><path class="e0dd5463-729c-4e4a-86d0-66bec171932b" d="M902.98 437.03h52.48v44.17h-52.48z"/><ellipse class="ad612ee1-31fe-4d71-bc30-b6418724b55c" cx="929.22" cy="459.12" rx="2.16" ry="1.82"/><path class="e0dd5463-729c-4e4a-86d0-66bec171932b" d="M902.98 481.2h52.48v44.17h-52.48zM850.49-4.68h52.48v44.17h-52.48z"/><ellipse class="ad612ee1-31fe-4d71-bc30-b6418724b55c" cx="876.73" cy="17.4" rx="2.16" ry="1.82"/><path class="e0dd5463-729c-4e4a-86d0-66bec171932b" d="M850.49 39.49h52.48v44.17h-52.48z"/><ellipse class="ad612ee1-31fe-4d71-bc30-b6418724b55c" cx="876.73" cy="61.57" rx="2.16" ry="1.82"/><path class="e0dd5463-729c-4e4a-86d0-66bec171932b" d="M850.49 83.66h52.48v44.17h-52.48z"/><ellipse class="ad612ee1-31fe-4d71-bc30-b6418724b55c" cx="876.73" cy="105.75" rx="2.16" ry="1.82"/><path class="e0dd5463-729c-4e4a-86d0-66bec171932b" d="M850.49 127.83h52.48V172h-52.48z"/><ellipse class="ad612ee1-31fe-4d71-bc30-b6418724b55c" cx="876.73" cy="149.92" rx="2.16" ry="1.82"/><path class="e0dd5463-729c-4e4a-86d0-66bec171932b" d="M850.49 172h52.48v44.17h-52.48z"/><ellipse class="ad612ee1-31fe-4d71-bc30-b6418724b55c" cx="876.73" cy="194.09" rx="2.16" ry="1.82"/><path class="e0dd5463-729c-4e4a-86d0-66bec171932b" d="M850.49 216.17h52.48v44.17h-52.48z"/><ellipse class="ad612ee1-31fe-4d71-bc30-b6418724b55c" cx="876.73" cy="238.26" rx="2.16" ry="1.82"/><path class="e0dd5463-729c-4e4a-86d0-66bec171932b" d="M850.49 260.35h52.48v44.17h-52.48z"/><ellipse class="ad612ee1-31fe-4d71-bc30-b6418724b55c" cx="876.73" cy="282.43" rx="2.16" ry="1.82"/><path class="e0dd5463-729c-4e4a-86d0-66bec171932b" d="M850.49 304.52h52.48v44.17h-52.48z"/><ellipse class="ad612ee1-31fe-4d71-bc30-b6418724b55c" cx="876.73" cy="326.6" rx="2.16" ry="1.82"/><path class="e0dd5463-729c-4e4a-86d0-66bec171932b" d="M850.49 348.69h52.48v44.17h-52.48z"/><ellipse class="ad612ee1-31fe-4d71-bc30-b6418724b55c" cx="876.73" cy="370.77" rx="2.16" ry="1.82"/><path class="e0dd5463-729c-4e4a-86d0-66bec171932b" d="M850.49 392.86h52.48v44.17h-52.48z"/><ellipse class="ad612ee1-31fe-4d71-bc30-b6418724b55c" cx="876.73" cy="414.95" rx="2.16" ry="1.82"/><path class="e0dd5463-729c-4e4a-86d0-66bec171932b" d="M850.49 437.03h52.48v44.17h-52.48z"/><ellipse class="ad612ee1-31fe-4d71-bc30-b6418724b55c" cx="876.73" cy="459.12" rx="2.16" ry="1.82"/><path class="e0dd5463-729c-4e4a-86d0-66bec171932b" d="M850.49 481.2h52.48v44.17h-52.48zM798.01-4.68h52.48v44.17h-52.48z"/><ellipse class="ad612ee1-31fe-4d71-bc30-b6418724b55c" cx="824.25" cy="17.4" rx="2.16" ry="1.82"/><path class="e0dd5463-729c-4e4a-86d0-66bec171932b" d="M798.01 39.49h52.48v44.17h-52.48z"/><ellipse class="ad612ee1-31fe-4d71-bc30-b6418724b55c" cx="824.25" cy="61.57" rx="2.16" ry="1.82"/><path class="e0dd5463-729c-4e4a-86d0-66bec171932b" d="M798.01 83.66h52.48v44.17h-52.48z"/><ellipse class="ad612ee1-31fe-4d71-bc30-b6418724b55c" cx="824.25" cy="105.75" rx="2.16" ry="1.82"/><path class="e0dd5463-729c-4e4a-86d0-66bec171932b" d="M798.01 127.83h52.48V172h-52.48z"/><ellipse class="ad612ee1-31fe-4d71-bc30-b6418724b55c" cx="824.25" cy="149.92" rx="2.16" ry="1.82"/><path class="e0dd5463-729c-4e4a-86d0-66bec171932b" d="M798.01 172h52.48v44.17h-52.48z"/><ellipse class="ad612ee1-31fe-4d71-bc30-b6418724b55c" cx="824.25" cy="194.09" rx="2.16" ry="1.82"/><path class="e0dd5463-729c-4e4a-86d0-66bec171932b" d="M798.01 216.17h52.48v44.17h-52.48z"/><ellipse class="ad612ee1-31fe-4d71-bc30-b6418724b55c" cx="824.25" cy="238.26" rx="2.16" ry="1.82"/><path class="e0dd5463-729c-4e4a-86d0-66bec171932b" d="M798.01 260.35h52.48v44.17h-52.48z"/><ellipse class="ad612ee1-31fe-4d71-bc30-b6418724b55c" cx="824.25" cy="282.43" rx="2.16" ry="1.82"/><path class="e0dd5463-729c-4e4a-86d0-66bec171932b" d="M798.01 304.52h52.48v44.17h-52.48z"/><ellipse class="ad612ee1-31fe-4d71-bc30-b6418724b55c" cx="824.25" cy="326.6" rx="2.16" ry="1.82"/><path class="e0dd5463-729c-4e4a-86d0-66bec171932b" d="M798.01 348.69h52.48v44.17h-52.48z"/><ellipse class="ad612ee1-31fe-4d71-bc30-b6418724b55c" cx="824.25" cy="370.77" rx="2.16" ry="1.82"/><path class="e0dd5463-729c-4e4a-86d0-66bec171932b" d="M798.01 392.86h52.48v44.17h-52.48z"/><ellipse class="ad612ee1-31fe-4d71-bc30-b6418724b55c" cx="824.25" cy="414.95" rx="2.16" ry="1.82"/><path class="e0dd5463-729c-4e4a-86d0-66bec171932b" d="M798.01 437.03h52.48v44.17h-52.48z"/><ellipse class="ad612ee1-31fe-4d71-bc30-b6418724b55c" cx="824.25" cy="459.12" rx="2.16" ry="1.82"/><path class="e0dd5463-729c-4e4a-86d0-66bec171932b" d="M798.01 481.2h52.48v44.17h-52.48zM745.52-4.68H798v44.17h-52.48z"/><ellipse class="ad612ee1-31fe-4d71-bc30-b6418724b55c" cx="771.77" cy="17.4" rx="2.16" ry="1.82"/><path class="e0dd5463-729c-4e4a-86d0-66bec171932b" d="M745.52 39.49H798v44.17h-52.48z"/><ellipse class="ad612ee1-31fe-4d71-bc30-b6418724b55c" cx="771.77" cy="61.57" rx="2.16" ry="1.82"/><path class="e0dd5463-729c-4e4a-86d0-66bec171932b" d="M745.52 83.66H798v44.17h-52.48z"/><ellipse class="ad612ee1-31fe-4d71-bc30-b6418724b55c" cx="771.77" cy="105.75" rx="2.16" ry="1.82"/><path class="e0dd5463-729c-4e4a-86d0-66bec171932b" d="M745.52 127.83H798V172h-52.48z"/><ellipse class="ad612ee1-31fe-4d71-bc30-b6418724b55c" cx="771.77" cy="149.92" rx="2.16" ry="1.82"/><path class="e0dd5463-729c-4e4a-86d0-66bec171932b" d="M745.52 172H798v44.17h-52.48z"/><ellipse class="ad612ee1-31fe-4d71-bc30-b6418724b55c" cx="771.77" cy="194.09" rx="2.16" ry="1.82"/><path class="e0dd5463-729c-4e4a-86d0-66bec171932b" d="M745.52 216.17H798v44.17h-52.48z"/><ellipse class="ad612ee1-31fe-4d71-bc30-b6418724b55c" cx="771.77" cy="238.26" rx="2.16" ry="1.82"/><path class="e0dd5463-729c-4e4a-86d0-66bec171932b" d="M745.52 260.35H798v44.17h-52.48z"/><ellipse class="ad612ee1-31fe-4d71-bc30-b6418724b55c" cx="771.77" cy="282.43" rx="2.16" ry="1.82"/><path class="e0dd5463-729c-4e4a-86d0-66bec171932b" d="M745.52 304.52H798v44.17h-52.48z"/><ellipse class="ad612ee1-31fe-4d71-bc30-b6418724b55c" cx="771.77" cy="326.6" rx="2.16" ry="1.82"/><path class="e0dd5463-729c-4e4a-86d0-66bec171932b" d="M745.52 348.69H798v44.17h-52.48z"/><ellipse class="ad612ee1-31fe-4d71-bc30-b6418724b55c" cx="771.77" cy="370.77" rx="2.16" ry="1.82"/><path class="e0dd5463-729c-4e4a-86d0-66bec171932b" d="M745.52 392.86H798v44.17h-52.48z"/><ellipse class="ad612ee1-31fe-4d71-bc30-b6418724b55c" cx="771.77" cy="414.95" rx="2.16" ry="1.82"/><path class="e0dd5463-729c-4e4a-86d0-66bec171932b" d="M745.52 437.03H798v44.17h-52.48z"/><ellipse class="ad612ee1-31fe-4d71-bc30-b6418724b55c" cx="771.77" cy="459.12" rx="2.16" ry="1.82"/><path class="e0dd5463-729c-4e4a-86d0-66bec171932b" d="M745.52 481.2H798v44.17h-52.48zM693.04-4.68h52.48v44.17h-52.48z"/><ellipse class="ad612ee1-31fe-4d71-bc30-b6418724b55c" cx="719.28" cy="17.4" rx="2.16" ry="1.82"/><path class="e0dd5463-729c-4e4a-86d0-66bec171932b" d="M693.04 39.49h52.48v44.17h-52.48z"/><ellipse class="ad612ee1-31fe-4d71-bc30-b6418724b55c" cx="719.28" cy="61.57" rx="2.16" ry="1.82"/><path class="e0dd5463-729c-4e4a-86d0-66bec171932b" d="M693.04 83.66h52.48v44.17h-52.48z"/><ellipse class="ad612ee1-31fe-4d71-bc30-b6418724b55c" cx="719.28" cy="105.75" rx="2.16" ry="1.82"/><path class="e0dd5463-729c-4e4a-86d0-66bec171932b" d="M693.04 127.83h52.48V172h-52.48z"/><ellipse class="ad612ee1-31fe-4d71-bc30-b6418724b55c" cx="719.28" cy="149.92" rx="2.16" ry="1.82"/><path class="e0dd5463-729c-4e4a-86d0-66bec171932b" d="M693.04 172h52.48v44.17h-52.48z"/><ellipse class="ad612ee1-31fe-4d71-bc30-b6418724b55c" cx="719.28" cy="194.09" rx="2.16" ry="1.82"/><path class="e0dd5463-729c-4e4a-86d0-66bec171932b" d="M693.04 216.17h52.48v44.17h-52.48z"/><ellipse class="ad612ee1-31fe-4d71-bc30-b6418724b55c" cx="719.28" cy="238.26" rx="2.16" ry="1.82"/><path class="e0dd5463-729c-4e4a-86d0-66bec171932b" d="M693.04 260.35h52.48v44.17h-52.48z"/><ellipse class="ad612ee1-31fe-4d71-bc30-b6418724b55c" cx="719.28" cy="282.43" rx="2.16" ry="1.82"/><path class="e0dd5463-729c-4e4a-86d0-66bec171932b" d="M693.04 304.52h52.48v44.17h-52.48z"/><ellipse class="ad612ee1-31fe-4d71-bc30-b6418724b55c" cx="719.28" cy="326.6" rx="2.16" ry="1.82"/><path class="e0dd5463-729c-4e4a-86d0-66bec171932b" d="M693.04 348.69h52.48v44.17h-52.48z"/><ellipse class="ad612ee1-31fe-4d71-bc30-b6418724b55c" cx="719.28" cy="370.77" rx="2.16" ry="1.82"/><path class="e0dd5463-729c-4e4a-86d0-66bec171932b" d="M693.04 392.86h52.48v44.17h-52.48z"/><ellipse class="ad612ee1-31fe-4d71-bc30-b6418724b55c" cx="719.28" cy="414.95" rx="2.16" ry="1.82"/><path class="e0dd5463-729c-4e4a-86d0-66bec171932b" d="M693.04 437.03h52.48v44.17h-52.48z"/><ellipse class="ad612ee1-31fe-4d71-bc30-b6418724b55c" cx="719.28" cy="459.12" rx="2.16" ry="1.82"/><path class="e0dd5463-729c-4e4a-86d0-66bec171932b" d="M693.04 481.2h52.48v44.17h-52.48zM640.56-4.68h52.48v44.17h-52.48z"/><ellipse class="ad612ee1-31fe-4d71-bc30-b6418724b55c" cx="666.8" cy="17.4" rx="2.16" ry="1.82"/><path class="e0dd5463-729c-4e4a-86d0-66bec171932b" d="M640.56 39.49h52.48v44.17h-52.48z"/><ellipse class="ad612ee1-31fe-4d71-bc30-b6418724b55c" cx="666.8" cy="61.57" rx="2.16" ry="1.82"/><path class="e0dd5463-729c-4e4a-86d0-66bec171932b" d="M640.56 83.66h52.48v44.17h-52.48z"/><ellipse class="ad612ee1-31fe-4d71-bc30-b6418724b55c" cx="666.8" cy="105.75" rx="2.16" ry="1.82"/><path class="e0dd5463-729c-4e4a-86d0-66bec171932b" d="M640.56 127.83h52.48V172h-52.48z"/><ellipse class="ad612ee1-31fe-4d71-bc30-b6418724b55c" cx="666.8" cy="149.92" rx="2.16" ry="1.82"/><path class="e0dd5463-729c-4e4a-86d0-66bec171932b" d="M640.56 172h52.48v44.17h-52.48z"/><ellipse class="ad612ee1-31fe-4d71-bc30-b6418724b55c" cx="666.8" cy="194.09" rx="2.16" ry="1.82"/><path class="e0dd5463-729c-4e4a-86d0-66bec171932b" d="M640.56 216.17h52.48v44.17h-52.48z"/><ellipse class="ad612ee1-31fe-4d71-bc30-b6418724b55c" cx="666.8" cy="238.26" rx="2.16" ry="1.82"/><path class="e0dd5463-729c-4e4a-86d0-66bec171932b" d="M640.56 260.35h52.48v44.17h-52.48z"/><ellipse class="ad612ee1-31fe-4d71-bc30-b6418724b55c" cx="666.8" cy="282.43" rx="2.16" ry="1.82"/><path class="e0dd5463-729c-4e4a-86d0-66bec171932b" d="M640.56 304.52h52.48v44.17h-52.48z"/><ellipse class="ad612ee1-31fe-4d71-bc30-b6418724b55c" cx="666.8" cy="326.6" rx="2.16" ry="1.82"/><path class="e0dd5463-729c-4e4a-86d0-66bec171932b" d="M640.56 348.69h52.48v44.17h-52.48z"/><ellipse class="ad612ee1-31fe-4d71-bc30-b6418724b55c" cx="666.8" cy="370.77" rx="2.16" ry="1.82"/><path class="e0dd5463-729c-4e4a-86d0-66bec171932b" d="M640.56 392.86h52.48v44.17h-52.48z"/><ellipse class="ad612ee1-31fe-4d71-bc30-b6418724b55c" cx="666.8" cy="414.95" rx="2.16" ry="1.82"/><path class="e0dd5463-729c-4e4a-86d0-66bec171932b" d="M640.56 437.03h52.48v44.17h-52.48z"/><ellipse class="ad612ee1-31fe-4d71-bc30-b6418724b55c" cx="666.8" cy="459.12" rx="2.16" ry="1.82"/><path class="e0dd5463-729c-4e4a-86d0-66bec171932b" d="M640.56 481.2h52.48v44.17h-52.48zM588.07-4.68h52.48v44.17h-52.48z"/><ellipse class="ad612ee1-31fe-4d71-bc30-b6418724b55c" cx="614.31" cy="17.4" rx="2.16" ry="1.82"/><path class="e0dd5463-729c-4e4a-86d0-66bec171932b" d="M588.07 39.49h52.48v44.17h-52.48z"/><ellipse class="ad612ee1-31fe-4d71-bc30-b6418724b55c" cx="614.31" cy="61.57" rx="2.16" ry="1.82"/><path class="e0dd5463-729c-4e4a-86d0-66bec171932b" d="M588.07 83.66h52.48v44.17h-52.48z"/><ellipse class="ad612ee1-31fe-4d71-bc30-b6418724b55c" cx="614.31" cy="105.75" rx="2.16" ry="1.82"/><path class="e0dd5463-729c-4e4a-86d0-66bec171932b" d="M588.07 127.83h52.48V172h-52.48z"/><ellipse class="ad612ee1-31fe-4d71-bc30-b6418724b55c" cx="614.31" cy="149.92" rx="2.16" ry="1.82"/><path class="e0dd5463-729c-4e4a-86d0-66bec171932b" d="M588.07 172h52.48v44.17h-52.48z"/><ellipse class="ad612ee1-31fe-4d71-bc30-b6418724b55c" cx="614.31" cy="194.09" rx="2.16" ry="1.82"/><path class="e0dd5463-729c-4e4a-86d0-66bec171932b" d="M588.07 216.17h52.48v44.17h-52.48z"/><ellipse class="ad612ee1-31fe-4d71-bc30-b6418724b55c" cx="614.31" cy="238.26" rx="2.16" ry="1.82"/><path class="e0dd5463-729c-4e4a-86d0-66bec171932b" d="M588.07 260.35h52.48v44.17h-52.48z"/><ellipse class="ad612ee1-31fe-4d71-bc30-b6418724b55c" cx="614.31" cy="282.43" rx="2.16" ry="1.82"/><path class="e0dd5463-729c-4e4a-86d0-66bec171932b" d="M588.07 304.52h52.48v44.17h-52.48z"/><ellipse class="ad612ee1-31fe-4d71-bc30-b6418724b55c" cx="614.31" cy="326.6" rx="2.16" ry="1.82"/><path class="e0dd5463-729c-4e4a-86d0-66bec171932b" d="M588.07 348.69h52.48v44.17h-52.48z"/><ellipse class="ad612ee1-31fe-4d71-bc30-b6418724b55c" cx="614.31" cy="370.77" rx="2.16" ry="1.82"/><path class="e0dd5463-729c-4e4a-86d0-66bec171932b" d="M588.07 392.86h52.48v44.17h-52.48z"/><ellipse class="ad612ee1-31fe-4d71-bc30-b6418724b55c" cx="614.31" cy="414.95" rx="2.16" ry="1.82"/><path class="e0dd5463-729c-4e4a-86d0-66bec171932b" d="M588.07 437.03h52.48v44.17h-52.48z"/><ellipse class="ad612ee1-31fe-4d71-bc30-b6418724b55c" cx="614.31" cy="459.12" rx="2.16" ry="1.82"/><path class="e0dd5463-729c-4e4a-86d0-66bec171932b" d="M588.07 481.2h52.48v44.17h-52.48zM535.59-4.68h52.48v44.17h-52.48z"/><ellipse class="ad612ee1-31fe-4d71-bc30-b6418724b55c" cx="561.83" cy="17.4" rx="2.16" ry="1.82"/><path class="e0dd5463-729c-4e4a-86d0-66bec171932b" d="M535.59 39.49h52.48v44.17h-52.48z"/><ellipse class="ad612ee1-31fe-4d71-bc30-b6418724b55c" cx="561.83" cy="61.57" rx="2.16" ry="1.82"/><path class="e0dd5463-729c-4e4a-86d0-66bec171932b" d="M535.59 83.66h52.48v44.17h-52.48z"/><ellipse class="ad612ee1-31fe-4d71-bc30-b6418724b55c" cx="561.83" cy="105.75" rx="2.16" ry="1.82"/><path class="e0dd5463-729c-4e4a-86d0-66bec171932b" d="M535.59 127.83h52.48V172h-52.48z"/><ellipse class="ad612ee1-31fe-4d71-bc30-b6418724b55c" cx="561.83" cy="149.92" rx="2.16" ry="1.82"/><path class="e0dd5463-729c-4e4a-86d0-66bec171932b" d="M535.59 172h52.48v44.17h-52.48z"/><ellipse class="ad612ee1-31fe-4d71-bc30-b6418724b55c" cx="561.83" cy="194.09" rx="2.16" ry="1.82"/><path class="e0dd5463-729c-4e4a-86d0-66bec171932b" d="M535.59 216.17h52.48v44.17h-52.48z"/><ellipse class="ad612ee1-31fe-4d71-bc30-b6418724b55c" cx="561.83" cy="238.26" rx="2.16" ry="1.82"/><path class="e0dd5463-729c-4e4a-86d0-66bec171932b" d="M535.59 260.35h52.48v44.17h-52.48z"/><ellipse class="ad612ee1-31fe-4d71-bc30-b6418724b55c" cx="561.83" cy="282.43" rx="2.16" ry="1.82"/><path class="e0dd5463-729c-4e4a-86d0-66bec171932b" d="M535.59 304.52h52.48v44.17h-52.48z"/><ellipse class="ad612ee1-31fe-4d71-bc30-b6418724b55c" cx="561.83" cy="326.6" rx="2.16" ry="1.82"/><path class="e0dd5463-729c-4e4a-86d0-66bec171932b" d="M535.59 348.69h52.48v44.17h-52.48z"/><ellipse class="ad612ee1-31fe-4d71-bc30-b6418724b55c" cx="561.83" cy="370.77" rx="2.16" ry="1.82"/><path class="e0dd5463-729c-4e4a-86d0-66bec171932b" d="M535.59 392.86h52.48v44.17h-52.48z"/><ellipse class="ad612ee1-31fe-4d71-bc30-b6418724b55c" cx="561.83" cy="414.95" rx="2.16" ry="1.82"/><path class="e0dd5463-729c-4e4a-86d0-66bec171932b" d="M535.59 437.03h52.48v44.17h-52.48z"/><ellipse class="ad612ee1-31fe-4d71-bc30-b6418724b55c" cx="561.83" cy="459.12" rx="2.16" ry="1.82"/><path class="e0dd5463-729c-4e4a-86d0-66bec171932b" d="M535.59 481.2h52.48v44.17h-52.48zM483.1-4.68h52.48v44.17H483.1z"/><ellipse class="ad612ee1-31fe-4d71-bc30-b6418724b55c" cx="509.35" cy="17.4" rx="2.16" ry="1.82"/><path class="e0dd5463-729c-4e4a-86d0-66bec171932b" d="M483.1 39.49h52.48v44.17H483.1z"/><ellipse class="ad612ee1-31fe-4d71-bc30-b6418724b55c" cx="509.35" cy="61.57" rx="2.16" ry="1.82"/><path class="e0dd5463-729c-4e4a-86d0-66bec171932b" d="M483.1 83.66h52.48v44.17H483.1z"/><ellipse class="ad612ee1-31fe-4d71-bc30-b6418724b55c" cx="509.35" cy="105.75" rx="2.16" ry="1.82"/><path class="e0dd5463-729c-4e4a-86d0-66bec171932b" d="M483.1 127.83h52.48V172H483.1z"/><ellipse class="ad612ee1-31fe-4d71-bc30-b6418724b55c" cx="509.35" cy="149.92" rx="2.16" ry="1.82"/><path class="e0dd5463-729c-4e4a-86d0-66bec171932b" d="M483.1 172h52.48v44.17H483.1z"/><ellipse class="ad612ee1-31fe-4d71-bc30-b6418724b55c" cx="509.35" cy="194.09" rx="2.16" ry="1.82"/><path class="e0dd5463-729c-4e4a-86d0-66bec171932b" d="M483.1 216.17h52.48v44.17H483.1z"/><ellipse class="ad612ee1-31fe-4d71-bc30-b6418724b55c" cx="509.35" cy="238.26" rx="2.16" ry="1.82"/><path class="e0dd5463-729c-4e4a-86d0-66bec171932b" d="M483.1 260.35h52.48v44.17H483.1z"/><ellipse class="ad612ee1-31fe-4d71-bc30-b6418724b55c" cx="509.35" cy="282.43" rx="2.16" ry="1.82"/><path class="e0dd5463-729c-4e4a-86d0-66bec171932b" d="M483.1 304.52h52.48v44.17H483.1z"/><ellipse class="ad612ee1-31fe-4d71-bc30-b6418724b55c" cx="509.35" cy="326.6" rx="2.16" ry="1.82"/><path class="e0dd5463-729c-4e4a-86d0-66bec171932b" d="M483.1 348.69h52.48v44.17H483.1z"/><ellipse class="ad612ee1-31fe-4d71-bc30-b6418724b55c" cx="509.35" cy="370.77" rx="2.16" ry="1.82"/><path class="e0dd5463-729c-4e4a-86d0-66bec171932b" d="M483.1 392.86h52.48v44.17H483.1z"/><ellipse class="ad612ee1-31fe-4d71-bc30-b6418724b55c" cx="509.35" cy="414.95" rx="2.16" ry="1.82"/><path class="e0dd5463-729c-4e4a-86d0-66bec171932b" d="M483.1 437.03h52.48v44.17H483.1z"/><ellipse class="ad612ee1-31fe-4d71-bc30-b6418724b55c" cx="509.35" cy="459.12" rx="2.16" ry="1.82"/><path class="e0dd5463-729c-4e4a-86d0-66bec171932b" d="M483.1 481.2h52.48v44.17H483.1zM430.62-4.68h52.48v44.17h-52.48z"/><ellipse class="ad612ee1-31fe-4d71-bc30-b6418724b55c" cx="456.86" cy="17.4" rx="2.16" ry="1.82"/><path class="e0dd5463-729c-4e4a-86d0-66bec171932b" d="M430.62 39.49h52.48v44.17h-52.48z"/><ellipse class="ad612ee1-31fe-4d71-bc30-b6418724b55c" cx="456.86" cy="61.57" rx="2.16" ry="1.82"/><path class="e0dd5463-729c-4e4a-86d0-66bec171932b" d="M430.62 83.66h52.48v44.17h-52.48z"/><ellipse class="ad612ee1-31fe-4d71-bc30-b6418724b55c" cx="456.86" cy="105.75" rx="2.16" ry="1.82"/><path class="e0dd5463-729c-4e4a-86d0-66bec171932b" d="M430.62 127.83h52.48V172h-52.48z"/><ellipse class="ad612ee1-31fe-4d71-bc30-b6418724b55c" cx="456.86" cy="149.92" rx="2.16" ry="1.82"/><path class="e0dd5463-729c-4e4a-86d0-66bec171932b" d="M430.62 172h52.48v44.17h-52.48z"/><ellipse class="ad612ee1-31fe-4d71-bc30-b6418724b55c" cx="456.86" cy="194.09" rx="2.16" ry="1.82"/><path class="e0dd5463-729c-4e4a-86d0-66bec171932b" d="M430.62 216.17h52.48v44.17h-52.48z"/><ellipse class="ad612ee1-31fe-4d71-bc30-b6418724b55c" cx="456.86" cy="238.26" rx="2.16" ry="1.82"/><path class="e0dd5463-729c-4e4a-86d0-66bec171932b" d="M430.62 260.35h52.48v44.17h-52.48z"/><ellipse class="ad612ee1-31fe-4d71-bc30-b6418724b55c" cx="456.86" cy="282.43" rx="2.16" ry="1.82"/><path class="e0dd5463-729c-4e4a-86d0-66bec171932b" d="M430.62 304.52h52.48v44.17h-52.48z"/><ellipse class="ad612ee1-31fe-4d71-bc30-b6418724b55c" cx="456.86" cy="326.6" rx="2.16" ry="1.82"/><path class="e0dd5463-729c-4e4a-86d0-66bec171932b" d="M430.62 348.69h52.48v44.17h-52.48z"/><ellipse class="ad612ee1-31fe-4d71-bc30-b6418724b55c" cx="456.86" cy="370.77" rx="2.16" ry="1.82"/><path class="e0dd5463-729c-4e4a-86d0-66bec171932b" d="M430.62 392.86h52.48v44.17h-52.48z"/><ellipse class="ad612ee1-31fe-4d71-bc30-b6418724b55c" cx="456.86" cy="414.95" rx="2.16" ry="1.82"/><path class="e0dd5463-729c-4e4a-86d0-66bec171932b" d="M430.62 437.03h52.48v44.17h-52.48z"/><ellipse class="ad612ee1-31fe-4d71-bc30-b6418724b55c" cx="456.86" cy="459.12" rx="2.16" ry="1.82"/><path class="e0dd5463-729c-4e4a-86d0-66bec171932b" d="M430.62 481.2h52.48v44.17h-52.48zM378.14-4.68h52.48v44.17h-52.48z"/><ellipse class="ad612ee1-31fe-4d71-bc30-b6418724b55c" cx="404.38" cy="17.4" rx="2.16" ry="1.82"/><path class="e0dd5463-729c-4e4a-86d0-66bec171932b" d="M378.14 39.49h52.48v44.17h-52.48z"/><ellipse class="ad612ee1-31fe-4d71-bc30-b6418724b55c" cx="404.38" cy="61.57" rx="2.16" ry="1.82"/><path class="e0dd5463-729c-4e4a-86d0-66bec171932b" d="M378.14 83.66h52.48v44.17h-52.48z"/><ellipse class="ad612ee1-31fe-4d71-bc30-b6418724b55c" cx="404.38" cy="105.75" rx="2.16" ry="1.82"/><path class="e0dd5463-729c-4e4a-86d0-66bec171932b" d="M378.14 127.83h52.48V172h-52.48z"/><ellipse class="ad612ee1-31fe-4d71-bc30-b6418724b55c" cx="404.38" cy="149.92" rx="2.16" ry="1.82"/><path class="e0dd5463-729c-4e4a-86d0-66bec171932b" d="M378.14 172h52.48v44.17h-52.48z"/><ellipse class="ad612ee1-31fe-4d71-bc30-b6418724b55c" cx="404.38" cy="194.09" rx="2.16" ry="1.82"/><path class="e0dd5463-729c-4e4a-86d0-66bec171932b" d="M378.14 216.17h52.48v44.17h-52.48z"/><ellipse class="ad612ee1-31fe-4d71-bc30-b6418724b55c" cx="404.38" cy="238.26" rx="2.16" ry="1.82"/><path class="e0dd5463-729c-4e4a-86d0-66bec171932b" d="M378.14 260.35h52.48v44.17h-52.48z"/><ellipse class="ad612ee1-31fe-4d71-bc30-b6418724b55c" cx="404.38" cy="282.43" rx="2.16" ry="1.82"/><path class="e0dd5463-729c-4e4a-86d0-66bec171932b" d="M378.14 304.52h52.48v44.17h-52.48z"/><ellipse class="ad612ee1-31fe-4d71-bc30-b6418724b55c" cx="404.38" cy="326.6" rx="2.16" ry="1.82"/><path class="e0dd5463-729c-4e4a-86d0-66bec171932b" d="M378.14 348.69h52.48v44.17h-52.48z"/><ellipse class="ad612ee1-31fe-4d71-bc30-b6418724b55c" cx="404.38" cy="370.77" rx="2.16" ry="1.82"/><path class="e0dd5463-729c-4e4a-86d0-66bec171932b" d="M378.14 392.86h52.48v44.17h-52.48z"/><ellipse class="ad612ee1-31fe-4d71-bc30-b6418724b55c" cx="404.38" cy="414.95" rx="2.16" ry="1.82"/><path class="e0dd5463-729c-4e4a-86d0-66bec171932b" d="M378.14 437.03h52.48v44.17h-52.48z"/><ellipse class="ad612ee1-31fe-4d71-bc30-b6418724b55c" cx="404.38" cy="459.12" rx="2.16" ry="1.82"/><path class="e0dd5463-729c-4e4a-86d0-66bec171932b" d="M378.14 481.2h52.48v44.17h-52.48zM325.65-4.68h52.48v44.17h-52.48z"/><ellipse class="ad612ee1-31fe-4d71-bc30-b6418724b55c" cx="351.89" cy="17.4" rx="2.16" ry="1.82"/><path class="e0dd5463-729c-4e4a-86d0-66bec171932b" d="M325.65 39.49h52.48v44.17h-52.48z"/><ellipse class="ad612ee1-31fe-4d71-bc30-b6418724b55c" cx="351.89" cy="61.57" rx="2.16" ry="1.82"/><path class="e0dd5463-729c-4e4a-86d0-66bec171932b" d="M325.65 83.66h52.48v44.17h-52.48z"/><ellipse class="ad612ee1-31fe-4d71-bc30-b6418724b55c" cx="351.89" cy="105.75" rx="2.16" ry="1.82"/><path class="e0dd5463-729c-4e4a-86d0-66bec171932b" d="M325.65 127.83h52.48V172h-52.48z"/><ellipse class="ad612ee1-31fe-4d71-bc30-b6418724b55c" cx="351.89" cy="149.92" rx="2.16" ry="1.82"/><path class="e0dd5463-729c-4e4a-86d0-66bec171932b" d="M325.65 172h52.48v44.17h-52.48z"/><ellipse class="ad612ee1-31fe-4d71-bc30-b6418724b55c" cx="351.89" cy="194.09" rx="2.16" ry="1.82"/><path class="e0dd5463-729c-4e4a-86d0-66bec171932b" d="M325.65 216.17h52.48v44.17h-52.48z"/><ellipse class="ad612ee1-31fe-4d71-bc30-b6418724b55c" cx="351.89" cy="238.26" rx="2.16" ry="1.82"/><path class="e0dd5463-729c-4e4a-86d0-66bec171932b" d="M325.65 260.35h52.48v44.17h-52.48z"/><ellipse class="ad612ee1-31fe-4d71-bc30-b6418724b55c" cx="351.89" cy="282.43" rx="2.16" ry="1.82"/><path class="e0dd5463-729c-4e4a-86d0-66bec171932b" d="M325.65 304.52h52.48v44.17h-52.48z"/><ellipse class="ad612ee1-31fe-4d71-bc30-b6418724b55c" cx="351.89" cy="326.6" rx="2.16" ry="1.82"/><path class="e0dd5463-729c-4e4a-86d0-66bec171932b" d="M325.65 348.69h52.48v44.17h-52.48z"/><ellipse class="ad612ee1-31fe-4d71-bc30-b6418724b55c" cx="351.89" cy="370.77" rx="2.16" ry="1.82"/><path class="e0dd5463-729c-4e4a-86d0-66bec171932b" d="M325.65 392.86h52.48v44.17h-52.48z"/><ellipse class="ad612ee1-31fe-4d71-bc30-b6418724b55c" cx="351.89" cy="414.95" rx="2.16" ry="1.82"/><path class="e0dd5463-729c-4e4a-86d0-66bec171932b" d="M325.65 437.03h52.48v44.17h-52.48z"/><ellipse class="ad612ee1-31fe-4d71-bc30-b6418724b55c" cx="351.89" cy="459.12" rx="2.16" ry="1.82"/><path class="e0dd5463-729c-4e4a-86d0-66bec171932b" d="M325.65 481.2h52.48v44.17h-52.48zM273.17-4.68h52.48v44.17h-52.48z"/><ellipse class="ad612ee1-31fe-4d71-bc30-b6418724b55c" cx="299.41" cy="17.4" rx="2.16" ry="1.82"/><path class="e0dd5463-729c-4e4a-86d0-66bec171932b" d="M273.17 39.49h52.48v44.17h-52.48z"/><ellipse class="ad612ee1-31fe-4d71-bc30-b6418724b55c" cx="299.41" cy="61.57" rx="2.16" ry="1.82"/><path class="e0dd5463-729c-4e4a-86d0-66bec171932b" d="M273.17 83.66h52.48v44.17h-52.48z"/><ellipse class="ad612ee1-31fe-4d71-bc30-b6418724b55c" cx="299.41" cy="105.75" rx="2.16" ry="1.82"/><path class="e0dd5463-729c-4e4a-86d0-66bec171932b" d="M273.17 127.83h52.48V172h-52.48z"/><ellipse class="ad612ee1-31fe-4d71-bc30-b6418724b55c" cx="299.41" cy="149.92" rx="2.16" ry="1.82"/><path class="e0dd5463-729c-4e4a-86d0-66bec171932b" d="M273.17 172h52.48v44.17h-52.48z"/><ellipse class="ad612ee1-31fe-4d71-bc30-b6418724b55c" cx="299.41" cy="194.09" rx="2.16" ry="1.82"/><path class="e0dd5463-729c-4e4a-86d0-66bec171932b" d="M273.17 216.17h52.48v44.17h-52.48z"/><ellipse class="ad612ee1-31fe-4d71-bc30-b6418724b55c" cx="299.41" cy="238.26" rx="2.16" ry="1.82"/><path class="e0dd5463-729c-4e4a-86d0-66bec171932b" d="M273.17 260.35h52.48v44.17h-52.48z"/><ellipse class="ad612ee1-31fe-4d71-bc30-b6418724b55c" cx="299.41" cy="282.43" rx="2.16" ry="1.82"/><path class="e0dd5463-729c-4e4a-86d0-66bec171932b" d="M273.17 304.52h52.48v44.17h-52.48z"/><ellipse class="ad612ee1-31fe-4d71-bc30-b6418724b55c" cx="299.41" cy="326.6" rx="2.16" ry="1.82"/><path class="e0dd5463-729c-4e4a-86d0-66bec171932b" d="M273.17 348.69h52.48v44.17h-52.48z"/><ellipse class="ad612ee1-31fe-4d71-bc30-b6418724b55c" cx="299.41" cy="370.77" rx="2.16" ry="1.82"/><path class="e0dd5463-729c-4e4a-86d0-66bec171932b" d="M273.17 392.86h52.48v44.17h-52.48z"/><ellipse class="ad612ee1-31fe-4d71-bc30-b6418724b55c" cx="299.41" cy="414.95" rx="2.16" ry="1.82"/><path class="e0dd5463-729c-4e4a-86d0-66bec171932b" d="M273.17 437.03h52.48v44.17h-52.48z"/><ellipse class="ad612ee1-31fe-4d71-bc30-b6418724b55c" cx="299.41" cy="459.12" rx="2.16" ry="1.82"/><path class="e0dd5463-729c-4e4a-86d0-66bec171932b" d="M273.17 481.2h52.48v44.17h-52.48zM220.69-4.68h52.48v44.17h-52.48z"/><ellipse class="ad612ee1-31fe-4d71-bc30-b6418724b55c" cx="246.93" cy="17.4" rx="2.16" ry="1.82"/><path class="e0dd5463-729c-4e4a-86d0-66bec171932b" d="M220.69 39.49h52.48v44.17h-52.48z"/><ellipse class="ad612ee1-31fe-4d71-bc30-b6418724b55c" cx="246.93" cy="61.57" rx="2.16" ry="1.82"/><path class="e0dd5463-729c-4e4a-86d0-66bec171932b" d="M220.69 83.66h52.48v44.17h-52.48z"/><ellipse class="ad612ee1-31fe-4d71-bc30-b6418724b55c" cx="246.93" cy="105.75" rx="2.16" ry="1.82"/><path class="e0dd5463-729c-4e4a-86d0-66bec171932b" d="M220.69 127.83h52.48V172h-52.48z"/><ellipse class="ad612ee1-31fe-4d71-bc30-b6418724b55c" cx="246.93" cy="149.92" rx="2.16" ry="1.82"/><path class="e0dd5463-729c-4e4a-86d0-66bec171932b" d="M220.69 172h52.48v44.17h-52.48z"/><ellipse class="ad612ee1-31fe-4d71-bc30-b6418724b55c" cx="246.93" cy="194.09" rx="2.16" ry="1.82"/><path class="e0dd5463-729c-4e4a-86d0-66bec171932b" d="M220.69 216.17h52.48v44.17h-52.48z"/><ellipse class="ad612ee1-31fe-4d71-bc30-b6418724b55c" cx="246.93" cy="238.26" rx="2.16" ry="1.82"/><path class="e0dd5463-729c-4e4a-86d0-66bec171932b" d="M220.69 260.35h52.48v44.17h-52.48z"/><ellipse class="ad612ee1-31fe-4d71-bc30-b6418724b55c" cx="246.93" cy="282.43" rx="2.16" ry="1.82"/><path class="e0dd5463-729c-4e4a-86d0-66bec171932b" d="M220.69 304.52h52.48v44.17h-52.48z"/><ellipse class="ad612ee1-31fe-4d71-bc30-b6418724b55c" cx="246.93" cy="326.6" rx="2.16" ry="1.82"/><path class="e0dd5463-729c-4e4a-86d0-66bec171932b" d="M220.69 348.69h52.48v44.17h-52.48z"/><ellipse class="ad612ee1-31fe-4d71-bc30-b6418724b55c" cx="246.93" cy="370.77" rx="2.16" ry="1.82"/><path class="e0dd5463-729c-4e4a-86d0-66bec171932b" d="M220.69 392.86h52.48v44.17h-52.48z"/><ellipse class="ad612ee1-31fe-4d71-bc30-b6418724b55c" cx="246.93" cy="414.95" rx="2.16" ry="1.82"/><path class="e0dd5463-729c-4e4a-86d0-66bec171932b" d="M220.69 437.03h52.48v44.17h-52.48z"/><ellipse class="ad612ee1-31fe-4d71-bc30-b6418724b55c" cx="246.93" cy="459.12" rx="2.16" ry="1.82"/><path class="e0dd5463-729c-4e4a-86d0-66bec171932b" d="M220.69 481.2h52.48v44.17h-52.48zM168.2-4.68h52.48v44.17H168.2z"/><ellipse class="ad612ee1-31fe-4d71-bc30-b6418724b55c" cx="194.44" cy="17.4" rx="2.16" ry="1.82"/><path class="e0dd5463-729c-4e4a-86d0-66bec171932b" d="M168.2 39.49h52.48v44.17H168.2z"/><ellipse class="ad612ee1-31fe-4d71-bc30-b6418724b55c" cx="194.44" cy="61.57" rx="2.16" ry="1.82"/><path class="e0dd5463-729c-4e4a-86d0-66bec171932b" d="M168.2 83.66h52.48v44.17H168.2z"/><ellipse class="ad612ee1-31fe-4d71-bc30-b6418724b55c" cx="194.44" cy="105.75" rx="2.16" ry="1.82"/><path class="e0dd5463-729c-4e4a-86d0-66bec171932b" d="M168.2 127.83h52.48V172H168.2z"/><ellipse class="ad612ee1-31fe-4d71-bc30-b6418724b55c" cx="194.44" cy="149.92" rx="2.16" ry="1.82"/><path class="e0dd5463-729c-4e4a-86d0-66bec171932b" d="M168.2 172h52.48v44.17H168.2z"/><ellipse class="ad612ee1-31fe-4d71-bc30-b6418724b55c" cx="194.44" cy="194.09" rx="2.16" ry="1.82"/><path class="e0dd5463-729c-4e4a-86d0-66bec171932b" d="M168.2 216.17h52.48v44.17H168.2z"/><ellipse class="ad612ee1-31fe-4d71-bc30-b6418724b55c" cx="194.44" cy="238.26" rx="2.16" ry="1.82"/><path class="e0dd5463-729c-4e4a-86d0-66bec171932b" d="M168.2 260.35h52.48v44.17H168.2z"/><ellipse class="ad612ee1-31fe-4d71-bc30-b6418724b55c" cx="194.44" cy="282.43" rx="2.16" ry="1.82"/><path class="e0dd5463-729c-4e4a-86d0-66bec171932b" d="M168.2 304.52h52.48v44.17H168.2z"/><ellipse class="ad612ee1-31fe-4d71-bc30-b6418724b55c" cx="194.44" cy="326.6" rx="2.16" ry="1.82"/><path class="e0dd5463-729c-4e4a-86d0-66bec171932b" d="M168.2 348.69h52.48v44.17H168.2z"/><ellipse class="ad612ee1-31fe-4d71-bc30-b6418724b55c" cx="194.44" cy="370.77" rx="2.16" ry="1.82"/><path class="e0dd5463-729c-4e4a-86d0-66bec171932b" d="M168.2 392.86h52.48v44.17H168.2z"/><ellipse class="ad612ee1-31fe-4d71-bc30-b6418724b55c" cx="194.44" cy="414.95" rx="2.16" ry="1.82"/><path class="e0dd5463-729c-4e4a-86d0-66bec171932b" d="M168.2 437.03h52.48v44.17H168.2z"/><ellipse class="ad612ee1-31fe-4d71-bc30-b6418724b55c" cx="194.44" cy="459.12" rx="2.16" ry="1.82"/><path class="e0dd5463-729c-4e4a-86d0-66bec171932b" d="M168.2 481.2h52.48v44.17H168.2zM115.72-4.68h52.48v44.17h-52.48z"/><ellipse class="ad612ee1-31fe-4d71-bc30-b6418724b55c" cx="141.96" cy="17.4" rx="2.16" ry="1.82"/><path class="e0dd5463-729c-4e4a-86d0-66bec171932b" d="M115.72 39.49h52.48v44.17h-52.48z"/><ellipse class="ad612ee1-31fe-4d71-bc30-b6418724b55c" cx="141.96" cy="61.57" rx="2.16" ry="1.82"/><path class="e0dd5463-729c-4e4a-86d0-66bec171932b" d="M115.72 83.66h52.48v44.17h-52.48z"/><ellipse class="ad612ee1-31fe-4d71-bc30-b6418724b55c" cx="141.96" cy="105.75" rx="2.16" ry="1.82"/><path class="e0dd5463-729c-4e4a-86d0-66bec171932b" d="M115.72 127.83h52.48V172h-52.48z"/><ellipse class="ad612ee1-31fe-4d71-bc30-b6418724b55c" cx="141.96" cy="149.92" rx="2.16" ry="1.82"/><path class="e0dd5463-729c-4e4a-86d0-66bec171932b" d="M115.72 172h52.48v44.17h-52.48z"/><ellipse class="ad612ee1-31fe-4d71-bc30-b6418724b55c" cx="141.96" cy="194.09" rx="2.16" ry="1.82"/><path class="e0dd5463-729c-4e4a-86d0-66bec171932b" d="M115.72 216.17h52.48v44.17h-52.48z"/><ellipse class="ad612ee1-31fe-4d71-bc30-b6418724b55c" cx="141.96" cy="238.26" rx="2.16" ry="1.82"/><path class="e0dd5463-729c-4e4a-86d0-66bec171932b" d="M115.72 260.35h52.48v44.17h-52.48z"/><ellipse class="ad612ee1-31fe-4d71-bc30-b6418724b55c" cx="141.96" cy="282.43" rx="2.16" ry="1.82"/><path class="e0dd5463-729c-4e4a-86d0-66bec171932b" d="M115.72 304.52h52.48v44.17h-52.48z"/><ellipse class="ad612ee1-31fe-4d71-bc30-b6418724b55c" cx="141.96" cy="326.6" rx="2.16" ry="1.82"/><path class="e0dd5463-729c-4e4a-86d0-66bec171932b" d="M115.72 348.69h52.48v44.17h-52.48z"/><ellipse class="ad612ee1-31fe-4d71-bc30-b6418724b55c" cx="141.96" cy="370.77" rx="2.16" ry="1.82"/><path class="e0dd5463-729c-4e4a-86d0-66bec171932b" d="M115.72 392.86h52.48v44.17h-52.48z"/><ellipse class="ad612ee1-31fe-4d71-bc30-b6418724b55c" cx="141.96" cy="414.95" rx="2.16" ry="1.82"/><path class="e0dd5463-729c-4e4a-86d0-66bec171932b" d="M115.72 437.03h52.48v44.17h-52.48z"/><ellipse class="ad612ee1-31fe-4d71-bc30-b6418724b55c" cx="141.96" cy="459.12" rx="2.16" ry="1.82"/><path class="e0dd5463-729c-4e4a-86d0-66bec171932b" d="M115.72 481.2h52.48v44.17h-52.48zM63.23-4.68h52.48v44.17H63.23z"/><ellipse class="ad612ee1-31fe-4d71-bc30-b6418724b55c" cx="89.48" cy="17.4" rx="2.16" ry="1.82"/><path class="e0dd5463-729c-4e4a-86d0-66bec171932b" d="M63.23 39.49h52.48v44.17H63.23z"/><ellipse class="ad612ee1-31fe-4d71-bc30-b6418724b55c" cx="89.48" cy="61.57" rx="2.16" ry="1.82"/><path class="e0dd5463-729c-4e4a-86d0-66bec171932b" d="M63.23 83.66h52.48v44.17H63.23z"/><ellipse class="ad612ee1-31fe-4d71-bc30-b6418724b55c" cx="89.48" cy="105.75" rx="2.16" ry="1.82"/><path class="e0dd5463-729c-4e4a-86d0-66bec171932b" d="M63.23 127.83h52.48V172H63.23z"/><ellipse class="ad612ee1-31fe-4d71-bc30-b6418724b55c" cx="89.48" cy="149.92" rx="2.16" ry="1.82"/><path class="e0dd5463-729c-4e4a-86d0-66bec171932b" d="M63.23 172h52.48v44.17H63.23z"/><ellipse class="ad612ee1-31fe-4d71-bc30-b6418724b55c" cx="89.48" cy="194.09" rx="2.16" ry="1.82"/><path class="e0dd5463-729c-4e4a-86d0-66bec171932b" d="M63.23 216.17h52.48v44.17H63.23z"/><ellipse class="ad612ee1-31fe-4d71-bc30-b6418724b55c" cx="89.48" cy="238.26" rx="2.16" ry="1.82"/><path class="e0dd5463-729c-4e4a-86d0-66bec171932b" d="M63.23 260.35h52.48v44.17H63.23z"/><ellipse class="ad612ee1-31fe-4d71-bc30-b6418724b55c" cx="89.48" cy="282.43" rx="2.16" ry="1.82"/><path class="e0dd5463-729c-4e4a-86d0-66bec171932b" d="M63.23 304.52h52.48v44.17H63.23z"/><ellipse class="ad612ee1-31fe-4d71-bc30-b6418724b55c" cx="89.48" cy="326.6" rx="2.16" ry="1.82"/><path class="e0dd5463-729c-4e4a-86d0-66bec171932b" d="M63.23 348.69h52.48v44.17H63.23z"/><ellipse class="ad612ee1-31fe-4d71-bc30-b6418724b55c" cx="89.48" cy="370.77" rx="2.16" ry="1.82"/><path class="e0dd5463-729c-4e4a-86d0-66bec171932b" d="M63.23 392.86h52.48v44.17H63.23z"/><ellipse class="ad612ee1-31fe-4d71-bc30-b6418724b55c" cx="89.48" cy="414.95" rx="2.16" ry="1.82"/><path class="e0dd5463-729c-4e4a-86d0-66bec171932b" d="M63.23 437.03h52.48v44.17H63.23z"/><ellipse class="ad612ee1-31fe-4d71-bc30-b6418724b55c" cx="89.48" cy="459.12" rx="2.16" ry="1.82"/><path class="e0dd5463-729c-4e4a-86d0-66bec171932b" d="M63.23 481.2h52.48v44.17H63.23zM10.75-4.68h52.48v44.17H10.75z"/><ellipse class="ad612ee1-31fe-4d71-bc30-b6418724b55c" cx="36.99" cy="17.4" rx="2.16" ry="1.82"/><path class="e0dd5463-729c-4e4a-86d0-66bec171932b" d="M10.75 39.49h52.48v44.17H10.75z"/><ellipse class="ad612ee1-31fe-4d71-bc30-b6418724b55c" cx="36.99" cy="61.57" rx="2.16" ry="1.82"/><path class="e0dd5463-729c-4e4a-86d0-66bec171932b" d="M10.75 83.66h52.48v44.17H10.75z"/><ellipse class="ad612ee1-31fe-4d71-bc30-b6418724b55c" cx="36.99" cy="105.75" rx="2.16" ry="1.82"/><path class="e0dd5463-729c-4e4a-86d0-66bec171932b" d="M10.75 127.83h52.48V172H10.75z"/><ellipse class="ad612ee1-31fe-4d71-bc30-b6418724b55c" cx="36.99" cy="149.92" rx="2.16" ry="1.82"/><path class="e0dd5463-729c-4e4a-86d0-66bec171932b" d="M10.75 172h52.48v44.17H10.75z"/><ellipse class="ad612ee1-31fe-4d71-bc30-b6418724b55c" cx="36.99" cy="194.09" rx="2.16" ry="1.82"/><path class="e0dd5463-729c-4e4a-86d0-66bec171932b" d="M10.75 216.17h52.48v44.17H10.75z"/><ellipse class="ad612ee1-31fe-4d71-bc30-b6418724b55c" cx="36.99" cy="238.26" rx="2.16" ry="1.82"/><path class="e0dd5463-729c-4e4a-86d0-66bec171932b" d="M10.75 260.35h52.48v44.17H10.75z"/><ellipse class="ad612ee1-31fe-4d71-bc30-b6418724b55c" cx="36.99" cy="282.43" rx="2.16" ry="1.82"/><path class="e0dd5463-729c-4e4a-86d0-66bec171932b" d="M10.75 304.52h52.48v44.17H10.75z"/><ellipse class="ad612ee1-31fe-4d71-bc30-b6418724b55c" cx="36.99" cy="326.6" rx="2.16" ry="1.82"/><path class="e0dd5463-729c-4e4a-86d0-66bec171932b" d="M10.75 348.69h52.48v44.17H10.75z"/><ellipse class="ad612ee1-31fe-4d71-bc30-b6418724b55c" cx="36.99" cy="370.77" rx="2.16" ry="1.82"/><path class="e0dd5463-729c-4e4a-86d0-66bec171932b" d="M10.75 392.86h52.48v44.17H10.75z"/><ellipse class="ad612ee1-31fe-4d71-bc30-b6418724b55c" cx="36.99" cy="414.95" rx="2.16" ry="1.82"/><path class="e0dd5463-729c-4e4a-86d0-66bec171932b" d="M10.75 437.03h52.48v44.17H10.75z"/><ellipse class="ad612ee1-31fe-4d71-bc30-b6418724b55c" cx="36.99" cy="459.12" rx="2.16" ry="1.82"/><path class="e0dd5463-729c-4e4a-86d0-66bec171932b" d="M10.75 481.2h52.48v44.17H10.75zM-41.73-4.68h52.48v44.17h-52.48zm0 44.17h52.48v44.17h-52.48zm0 44.17h52.48v44.17h-52.48zm0 44.17h52.48V172h-52.48zm0 44.17h52.48v44.17h-52.48z"/><path class="e0dd5463-729c-4e4a-86d0-66bec171932b" d="M-41.73 216.17h52.48v44.17h-52.48zm0 44.18h52.48v44.17h-52.48zm0 44.17h52.48v44.17h-52.48zm0 44.17h52.48v44.17h-52.48zm0 44.17h52.48v44.17h-52.48z"/><path class="e0dd5463-729c-4e4a-86d0-66bec171932b" d="M-41.73 437.03h52.48v44.17h-52.48zm0 44.17h52.48v44.17h-52.48z"/></g><g id="af8d5284-fd20-4b19-a7b6-b75386f992f7" data-name="Layer 1"><path d="M619.32 41.45h-5.47v4.84h5.06v1.47h-5.06V54h-1.64V40h7.11zM632.51 54h-1.81l-1.49-4h-5.93l-1.4 4h-1.82l5.37-14h1.69zm-3.83-5.4l-2.2-6a6 6 0 01-.21-.94 5.15 5.15 0 01-.23.94l-2.17 6zm16.16 4.78a8.28 8.28 0 01-3.87.82 6.21 6.21 0 01-4.78-1.93 7.07 7.07 0 01-1.8-5 7.47 7.47 0 012-5.43 6.87 6.87 0 015.13-2.07 8.28 8.28 0 013.3.57v1.75a6.69 6.69 0 00-3.32-.84 5.1 5.1 0 00-3.91 1.61 6.08 6.08 0 00-1.5 4.31 5.82 5.82 0 001.4 4.08 4.78 4.78 0 003.68 1.51 7 7 0 003.65-.93zM657 41.45h-4V54h-1.64V41.45h-4V40H657zm7.91 12.75a6.16 6.16 0 01-4.77-2 7.28 7.28 0 01-1.79-5.1 7.7 7.7 0 011.83-5.39 6.36 6.36 0 015-2 6 6 0 014.67 2 7.3 7.3 0 011.77 5.11 7.76 7.76 0 01-1.82 5.42 6.28 6.28 0 01-4.89 1.96zm.12-13a4.5 4.5 0 00-3.58 1.59 6.16 6.16 0 00-1.38 4.21 6.25 6.25 0 001.34 4.17 4.38 4.38 0 003.5 1.57 4.58 4.58 0 003.63-1.5 6.13 6.13 0 001.33-4.24 6.38 6.38 0 00-1.29-4.28 4.41 4.41 0 00-3.58-1.51zM685.38 54h-2l-2.3-4a7.13 7.13 0 00-.62-.93 3.37 3.37 0 00-.62-.63 2 2 0 00-.68-.36 2.69 2.69 0 00-.83-.11H677v6h-1.64V40h4.18a6 6 0 011.69.23 3.77 3.77 0 011.35.7 3.28 3.28 0 01.9 1.17 3.92 3.92 0 01.32 1.63 4 4 0 01-.22 1.34 3.58 3.58 0 01-.63 1.09 3.87 3.87 0 01-1 .82 5 5 0 01-1.29.52 2.4 2.4 0 01.61.36 3.14 3.14 0 01.5.47 6.66 6.66 0 01.46.62l.51.8zM677 41.45v5.07h2.23a3.49 3.49 0 001.14-.18 2.78 2.78 0 00.9-.53 2.55 2.55 0 00.59-.85 2.75 2.75 0 00.22-1.13 2.17 2.17 0 00-.73-1.75 3.1 3.1 0 00-2.1-.63zM697 40l-4.62 8.83V54h-1.64v-5.17L686.26 40h1.87l3.13 6.33c0 .08.15.36.34.86a5.79 5.79 0 01.37-.86l3.31-6.33zm318.2 102.5h-1.62v-9.39c0-.74 0-1.65.13-2.72a7.34 7.34 0 01-.42 1.35l-4.78 10.76h-.8l-4.78-10.68a9.78 9.78 0 01-.42-1.43c.06.55.08 1.47.08 2.74v9.37h-1.58v-14h2.17l4.29 9.76a12.07 12.07 0 01.65 1.68h.06c.28-.76.5-1.34.67-1.71l4.39-9.73h2zm10.33.24a6.13 6.13 0 01-4.77-2 7.28 7.28 0 01-1.79-5.1 7.75 7.75 0 011.82-5.39 6.39 6.39 0 015-2 6 6 0 014.68 1.95 7.3 7.3 0 011.77 5.11 7.71 7.71 0 01-1.82 5.41 6.25 6.25 0 01-4.89 2.02zm.12-13a4.53 4.53 0 00-3.59 1.59 7.11 7.11 0 000 8.35 4.37 4.37 0 003.5 1.57 4.58 4.58 0 003.63-1.5 6.13 6.13 0 001.33-4.21 6.43 6.43 0 00-1.29-4.29 4.44 4.44 0 00-3.58-1.5zM1036 142.5v-14h4a4.37 4.37 0 012.88.89 2.86 2.86 0 011.07 2.31 3.39 3.39 0 01-2.42 3.32 3.55 3.55 0 012.26 1.07 3.28 3.28 0 01.85 2.35 3.65 3.65 0 01-1.29 2.91 4.8 4.8 0 01-3.25 1.11zm1.6-12.5v4.53h1.68a3.22 3.22 0 002.12-.65 2.3 2.3 0 00.77-1.84c0-1.36-.89-2-2.68-2zm0 6v5h2.23a3.32 3.32 0 002.24-.69 2.33 2.33 0 00.79-1.87c0-1.65-1.12-2.48-3.37-2.48zm13.83-7.5v1.41h-1.37v11.19h1.37v1.4h-4.37v-1.4h1.36v-11.19h-1.36v-1.41zm10.57 14h-7.27v-14h1.64V141h5.63zm10.58 0h-7.42v-14h7.1v1.5h-5.47v4.66h5.06v1.48h-5.06V141h5.79zm11.81-5.29v5.29h-1.64v-14h3.84a5.11 5.11 0 013.48 1.09 3.89 3.89 0 011.24 3.09 4.26 4.26 0 01-1.37 3.26 5.24 5.24 0 01-3.71 1.27zm0-7.23v5.75h1.72a3.84 3.84 0 002.59-.78 2.77 2.77 0 00.89-2.19q0-2.77-3.28-2.78zm21.08 12.52h-1.64v-6.38h-7.25v6.38H1095v-14h1.63v6.14h7.25v-6.14h1.64zm10.31.24a6.16 6.16 0 01-4.77-2 7.28 7.28 0 01-1.79-5.1 7.7 7.7 0 011.83-5.39 6.38 6.38 0 015-2 6 6 0 014.67 1.95 7.3 7.3 0 011.77 5.11 7.71 7.71 0 01-1.81 5.41 6.29 6.29 0 01-4.9 2.02zm.12-13a4.51 4.51 0 00-3.58 1.59 6.16 6.16 0 00-1.38 4.18 6.25 6.25 0 001.34 4.17 4.38 4.38 0 003.5 1.57 4.58 4.58 0 003.63-1.5 6.13 6.13 0 001.33-4.21 6.43 6.43 0 00-1.29-4.29 4.42 4.42 0 00-3.55-1.5zm21.6 12.76h-2l-7.2-11.16a3.85 3.85 0 01-.45-.88h-.06a14.73 14.73 0 01.08 1.93v10.11h-1.64v-14h2.12l7 11a10 10 0 01.57.94 13.94 13.94 0 01-.1-2.06v-9.88h1.64zm12.09 0h-7.42v-14h7.11v1.5h-5.47v4.66h5.06v1.48h-5.06V141h5.78zm16.28-14l-6.72 16.32h-1.49l6.69-16.32zm17.44 1.5h-4v12.5h-1.64V130h-4v-1.5h9.71zm12.53 12.5H1194l-1.49-3.92h-5.93l-1.4 3.92h-1.83l5.37-14h1.7zm-3.84-5.4l-2.19-6a5.76 5.76 0 01-.22-.94 5.26 5.26 0 01-.22.94l-2.18 6zm6.9 5.4v-14h4a4.37 4.37 0 012.88.89 2.89 2.89 0 011.06 2.31 3.38 3.38 0 01-.64 2.07 3.44 3.44 0 01-1.78 1.25 3.55 3.55 0 012.26 1.07 3.28 3.28 0 01.85 2.35 3.65 3.65 0 01-1.29 2.91 4.8 4.8 0 01-3.25 1.11zm1.64-12.52v4.53h1.68a3.2 3.2 0 002.12-.65 2.3 2.3 0 00.77-1.84c0-1.36-.89-2-2.68-2zm0 6v5h2.23a3.32 3.32 0 002.24-.69 2.33 2.33 0 00.79-1.87c0-1.65-1.12-2.48-3.37-2.48zm18.09 6.52h-7.27v-14h1.64V141h5.63zm10.57 0h-7.42v-14h7.1v1.5h-5.47v4.66h5.06v1.48h-5.06V141h5.79zm12.01-12.5h-4v12.5h-1.64V130h-4v-1.5h9.72zM83.69 142.5h-1.63v-9.39c0-.74 0-1.65.14-2.72a9.36 9.36 0 01-.42 1.35L77 142.5h-.8l-4.78-10.68a7.78 7.78 0 01-.42-1.43c0 .55.08 1.47.08 2.74v9.37h-1.66v-14h2.17l4.29 9.76a13.53 13.53 0 01.65 1.68h.06c.27-.76.5-1.34.67-1.71l4.38-9.73h2zm10.31.24a6.13 6.13 0 01-4.77-2 7.23 7.23 0 01-1.79-5.1 7.7 7.7 0 011.82-5.39 6.39 6.39 0 015-2 6 6 0 014.67 1.95 7.31 7.31 0 011.78 5.11 7.71 7.71 0 01-1.82 5.41 6.25 6.25 0 01-4.89 2.02zm.11-13a4.51 4.51 0 00-3.58 1.59 7.07 7.07 0 000 8.35 4.37 4.37 0 003.5 1.57 4.61 4.61 0 003.63-1.5 6.18 6.18 0 001.34-4.2 6.43 6.43 0 00-1.29-4.29 4.46 4.46 0 00-3.58-1.51zm10.34 12.76v-14h4a4.37 4.37 0 012.88.89 2.86 2.86 0 011.07 2.31 3.38 3.38 0 01-2.4 3.3 3.58 3.58 0 012.27 1.07 3.28 3.28 0 01.85 2.35 3.65 3.65 0 01-1.29 2.91 4.8 4.8 0 01-3.25 1.11zm1.64-12.5v4.53h1.68a3.22 3.22 0 002.12-.65 2.3 2.3 0 00.77-1.84c0-1.36-.9-2-2.69-2zm0 6v5h2.22a3.35 3.35 0 002.25-.69 2.33 2.33 0 00.79-1.87c0-1.65-1.12-2.48-3.38-2.48zm13.83-7.5v1.41h-1.37v11.19h1.37v1.4h-4.38v-1.4h1.37v-11.19h-1.37v-1.41zm10.57 14h-7.26v-14h1.64V141h5.62zm10.57 0h-7.42v-14h7.11v1.5h-5.47v4.66h5.06v1.48h-5.06V141h5.78zm11.81-5.29v5.29h-1.64v-14h3.85a5.11 5.11 0 013.48 1.09 3.89 3.89 0 011.24 3.09 4.26 4.26 0 01-1.37 3.26 5.24 5.24 0 01-3.71 1.27zm0-7.23v5.75h1.72a3.8 3.8 0 002.59-.78 2.74 2.74 0 00.9-2.19c0-1.85-1.1-2.78-3.28-2.78zM174 142.5h-1.64v-6.38h-7.25v6.38h-1.64v-14h1.64v6.14h7.25v-6.14H174zm10.27.24a6.16 6.16 0 01-4.77-2 7.28 7.28 0 01-1.79-5.1 7.7 7.7 0 011.83-5.39 6.36 6.36 0 015-2 6 6 0 014.67 1.95 7.3 7.3 0 011.77 5.11 7.71 7.71 0 01-1.82 5.41 6.25 6.25 0 01-4.89 2.02zm.12-13a4.5 4.5 0 00-3.58 1.59 6.16 6.16 0 00-1.38 4.18 6.25 6.25 0 001.34 4.17 4.38 4.38 0 003.5 1.57 4.58 4.58 0 003.63-1.5 6.13 6.13 0 001.33-4.21 6.43 6.43 0 00-1.29-4.29 4.44 4.44 0 00-3.55-1.5zM206 142.5h-2l-7.21-11.16a4.87 4.87 0 01-.45-.88 15.42 15.42 0 01.07 1.93v10.11h-1.71v-14h2.13l7 11c.29.46.48.77.57.94a13.94 13.94 0 01-.1-2.06v-9.88h1.7zm12.08 0h-7.42v-14h7.11v1.5h-5.47v4.66h5.06v1.48h-5.06V141h5.78zm16.27-14l-6.71 16.32h-1.5l6.7-16.32zm17.45 1.5h-4v12.5h-1.64V130h-4v-1.5h9.72zm12.53 12.5h-1.82l-1.51-3.92h-5.94l-1.39 3.92h-1.83l5.37-14h1.7zm-3.84-5.4l-2.19-6a4.86 4.86 0 01-.22-.94 5.26 5.26 0 01-.22.94l-2.18 6zm6.9 5.4v-14h4a4.37 4.37 0 012.88.89 2.86 2.86 0 011.07 2.31 3.39 3.39 0 01-2.44 3.3 3.55 3.55 0 012.26 1.07 3.28 3.28 0 01.85 2.35 3.65 3.65 0 01-1.29 2.91 4.8 4.8 0 01-3.25 1.11zM269 130v4.53h1.68a3.22 3.22 0 002.12-.65 2.3 2.3 0 00.77-1.84c0-1.36-.9-2-2.69-2zm0 6v5h2.23a3.32 3.32 0 002.24-.69 2.33 2.33 0 00.79-1.87c0-1.65-1.12-2.48-3.38-2.48zm18.12 6.5h-7.27v-14h1.64V141h5.63zm10.56 0h-7.42v-14h7.11v1.5h-5.47v4.66h5.1v1.48h-5.1V141h5.78zM309.7 130h-4.05v12.5H304V130h-4v-1.5h9.72zm262.48 12.5h-1.63v-9.39c0-.74.05-1.65.14-2.72a9.36 9.36 0 01-.42 1.35l-4.79 10.76h-.8l-4.77-10.68a7.78 7.78 0 01-.42-1.43c.05.55.08 1.47.08 2.74v9.37h-1.58v-14h2.16l4.3 9.76a11.71 11.71 0 01.64 1.68h.06c.28-.76.51-1.34.68-1.71l4.38-9.73h2zm15.52 0h-1.82l-1.48-3.92h-5.94l-1.39 3.92h-1.83l5.37-14h1.7zm-3.84-5.4l-2.2-6a6 6 0 01-.21-.94 5.26 5.26 0 01-.22.94l-2.18 6zm16.14 4.82a8.26 8.26 0 01-3.86.82 6.23 6.23 0 01-4.79-1.93 7.11 7.11 0 01-1.79-5 7.43 7.43 0 012-5.43 6.83 6.83 0 015.12-2.07 8.28 8.28 0 013.3.57v1.75a6.69 6.69 0 00-3.32-.84 5.12 5.12 0 00-3.91 1.61 6.08 6.08 0 00-1.5 4.31 5.74 5.74 0 001.41 4.07 4.72 4.72 0 003.67 1.52 6.84 6.84 0 003.65-.94zm14.4.58h-1.64v-6.38h-7.25v6.38h-1.64v-14h1.64v6.14h7.25v-6.14h1.64zm7.68-14v1.41h-1.37v11.19h1.37v1.4h-4.38v-1.4h1.37v-11.19h-1.37v-1.41zm14.6 14h-2l-7.21-11.16a4.87 4.87 0 01-.45-.88H627a14.73 14.73 0 01.08 1.93v10.11h-1.64v-14h2.13l7 11c.29.46.48.77.57.94a16 16 0 01-.09-2.06v-9.88h1.64zm12.09 0h-7.42v-14h7.11v1.5H643v4.66h5.06v1.48H643V141h5.78zm20.64-.96a9.33 9.33 0 01-4.69 1.2 6.4 6.4 0 01-4.85-1.94 7.1 7.1 0 01-1.85-5.11 7.29 7.29 0 012.06-5.34 7 7 0 015.21-2.08 8.75 8.75 0 013.83.74v1.81a7.4 7.4 0 00-4-1.07 5 5 0 00-3.86 1.62 6.77 6.77 0 00-.1 8.37 4.86 4.86 0 003.78 1.52 5.94 5.94 0 002.85-.65v-3.93h-3.09v-1.48h4.71zm15.08.96h-1.81l-1.49-3.92h-5.93l-1.4 3.92H672l5.37-14h1.69zm-3.83-5.4l-2.2-6a6 6 0 01-.21-.94 5.15 5.15 0 01-.23.94l-2.17 6zm13.74-7.1h-4v12.5h-1.64V130h-4v-1.5h9.72zm10.6 12.5h-7.4v-14h7.1v1.5h-5.47v4.66h5.06v1.48h-5.06V141H705zm20.59-14l-4 14h-1.93l-2.88-10.23a6.3 6.3 0 01-.22-1.43 7.3 7.3 0 01-.25 1.41l-2.9 10.25h-1.91l-4.1-14h1.81l3 10.74a7.16 7.16 0 01.23 1.41h.05a7.83 7.83 0 01.3-1.41l3.1-10.74h1.57l3 10.82a8.2 8.2 0 01.23 1.31 8.14 8.14 0 01.26-1.35l2.86-10.78zm13.19 14H737l-1.49-3.92h-5.93l-1.4 3.92h-1.82l5.37-14h1.69zm-3.78-5.4l-2.2-6a6 6 0 01-.21-.94 5.15 5.15 0 01-.23.94l-2.17 6zm14.42-8.6l-4.62 8.83v5.17h-1.64v-5.13l-4.5-8.87h1.87l3.13 6.33c0 .08.15.36.34.86a5.79 5.79 0 01.37-.86l3.28-6.33z" fill="#636f7c" stroke="#636f7c" stroke-miterlimit="10" stroke-width=".3"/><rect class="b4654475-5935-4d02-bd8c-11af37185747" x="936.94" y="182.43" width="367.79" height="242.39" rx="13.73"/><path class="bcdded38-892b-4b4f-802b-c5cc1e5f74ef" d="M1291 425.82H950.67a14.75 14.75 0 01-14.73-14.74V196.16a14.74 14.74 0 0114.73-14.73H1291a14.74 14.74 0 0114.73 14.73v214.92a14.75 14.75 0 01-14.73 14.74zM950.67 183.43a12.74 12.74 0 00-12.73 12.73v214.92a12.75 12.75 0 0012.73 12.74H1291a12.75 12.75 0 0012.73-12.74V196.16a12.74 12.74 0 00-12.73-12.73z"/><rect class="ac424f7d-6591-4aca-9598-7e15a5ce8df0" x="943.82" y="191.35" width="354.03" height="224.54" rx="6.97"/><path class="bcdded38-892b-4b4f-802b-c5cc1e5f74ef" d="M1290.88 416.89H950.79a8 8 0 01-8-8V198.32a8 8 0 018-8h340.09a8 8 0 018 8v210.6a8 8 0 01-8 7.97zM950.79 192.35a6 6 0 00-6 6v210.6a6 6 0 006 6h340.09a6 6 0 006-6V198.32a6 6 0 00-6-6z"/><rect class="b4654475-5935-4d02-bd8c-11af37185747" x="959.65" y="206.15" width="98.47" height="61.09" rx="3.55"/><path class="bcdded38-892b-4b4f-802b-c5cc1e5f74ef" d="M1054.57 268.24H963.2a4.55 4.55 0 01-4.55-4.55v-54a4.55 4.55 0 014.55-4.55h91.37a4.55 4.55 0 014.55 4.55v54a4.55 4.55 0 01-4.55 4.55zm-91.37-61.09a2.55 2.55 0 00-2.55 2.55v54a2.55 2.55 0 002.55 2.55h91.37a2.55 2.55 0 002.55-2.55v-54a2.55 2.55 0 00-2.55-2.55z"/><rect class="b4654475-5935-4d02-bd8c-11af37185747" x="1077.63" y="206.15" width="202.57" height="61.09" rx="3.55"/><path class="bcdded38-892b-4b4f-802b-c5cc1e5f74ef" d="M1276.66 268.24h-195.48a4.55 4.55 0 01-4.55-4.55v-54a4.55 4.55 0 014.55-4.55h195.48a4.55 4.55 0 014.54 4.55v54a4.55 4.55 0 01-4.54 4.55zm-195.48-61.09a2.55 2.55 0 00-2.55 2.55v54a2.55 2.55 0 002.55 2.55h195.48a2.55 2.55 0 002.54-2.55v-54a2.55 2.55 0 00-2.54-2.55z"/><rect class="b4654475-5935-4d02-bd8c-11af37185747" x="1077.63" y="287.32" width="91.91" height="112.81" rx="3.55"/><path class="bcdded38-892b-4b4f-802b-c5cc1e5f74ef" d="M1166 401.13h-84.81a4.55 4.55 0 01-4.55-4.54V290.87a4.55 4.55 0 014.55-4.55H1166a4.55 4.55 0 014.55 4.55v105.72a4.55 4.55 0 01-4.55 4.54zm-84.81-112.81a2.55 2.55 0 00-2.55 2.55v105.72a2.55 2.55 0 002.55 2.54H1166a2.55 2.55 0 002.55-2.54V290.87a2.55 2.55 0 00-2.55-2.55z"/><rect class="b4654475-5935-4d02-bd8c-11af37185747" x="1188.4" y="287.32" width="91.72" height="112.81" rx="3.55"/><path class="bcdded38-892b-4b4f-802b-c5cc1e5f74ef" d="M1276.58 401.13H1192a4.55 4.55 0 01-4.55-4.54V290.87a4.55 4.55 0 014.55-4.55h84.63a4.55 4.55 0 014.55 4.55v105.72a4.55 4.55 0 01-4.6 4.54zM1192 288.32a2.55 2.55 0 00-2.55 2.55v105.72a2.55 2.55 0 002.55 2.54h84.63a2.55 2.55 0 002.55-2.54V290.87a2.55 2.55 0 00-2.55-2.55z"/><rect class="b4654475-5935-4d02-bd8c-11af37185747" x="959.65" y="286.59" width="98.47" height="113.94" rx="3.55"/><path class="bcdded38-892b-4b4f-802b-c5cc1e5f74ef" d="M1054.57 401.53H963.2a4.55 4.55 0 01-4.55-4.55V290.14a4.55 4.55 0 014.55-4.55h91.37a4.55 4.55 0 014.55 4.55V397a4.55 4.55 0 01-4.55 4.53zM963.2 287.59a2.55 2.55 0 00-2.55 2.55V397a2.55 2.55 0 002.55 2.55h91.37a2.55 2.55 0 002.55-2.55V290.14a2.55 2.55 0 00-2.55-2.55z"/><path class="bf58f529-41d0-4ae0-8a01-3b7d59feea20" d="M1089.83 318.43h5.42a2.06 2.06 0 012.06 2.06v78.66h-9.54v-78.66a2.06 2.06 0 012.06-2.06zm20.17 29.2h5.42a2.06 2.06 0 012.06 2.06v49.45h-9.54V349.7a2.06 2.06 0 012.06-2.07zm20.12 15.5h5.42a2.06 2.06 0 012.06 2.06v34h-9.54v-34a2.06 2.06 0 012.06-2.06zm20.15-28.51h5.42a2.06 2.06 0 012.06 2.06v62.47h-9.54v-62.47a2.06 2.06 0 012.06-2.06z"/><path class="eb741e5e-7f8f-478b-b178-fdeab1afc9c3" d="M1087.77 360.48h9.54v38.67h-9.54zM975.99 218.57h65.31v22.07h-65.31z"/><path class="bf58f529-41d0-4ae0-8a01-3b7d59feea20" d="M975.99 245.49h65.31v8.94h-65.31z"/><path class="eb741e5e-7f8f-478b-b178-fdeab1afc9c3" d="M1094.24 218.57h43.16v22.07h-43.16z"/><path class="bf58f529-41d0-4ae0-8a01-3b7d59feea20" d="M1094.24 245.49h43.16v8.94h-43.16z"/><path class="eb741e5e-7f8f-478b-b178-fdeab1afc9c3" d="M1157.88 218.57h43.16v22.07h-43.16z"/><path class="bf58f529-41d0-4ae0-8a01-3b7d59feea20" d="M1157.88 245.49h43.16v8.94h-43.16z"/><path class="eb741e5e-7f8f-478b-b178-fdeab1afc9c3" d="M1221.51 218.57h43.16v22.07h-43.16z"/><path class="bf58f529-41d0-4ae0-8a01-3b7d59feea20" d="M1221.51 245.49h43.16v8.94h-43.16z"/><path class="eb741e5e-7f8f-478b-b178-fdeab1afc9c3" d="M1107.91 374.47h9.54v24.68h-9.54zm20.15 7.42h9.54v17.26h-9.54zm20.15-13.66h9.54v30.92h-9.54z"/><path class="bf58f529-41d0-4ae0-8a01-3b7d59feea20" d="M1201.7 351.9h5.42a2.06 2.06 0 012.06 2.06v45.18h-9.54V354a2.06 2.06 0 012.06-2.1zm20.15-24.98h5.42a2.06 2.06 0 012.06 2.06v70.16h-9.54V329a2.06 2.06 0 012.06-2.08zm20.15 10.87h5.42a2.06 2.06 0 012.06 2.06v59.3h-9.54v-59.3a2.06 2.06 0 012.06-2.06zm20.14-34.22h5.42a2.06 2.06 0 012.06 2.06v93.52h-9.54v-93.52a2.06 2.06 0 012.06-2.06z"/><path class="eb741e5e-7f8f-478b-b178-fdeab1afc9c3" d="M1199.64 382.13h9.54v17.02h-9.54zm20.15-14.72h9.54v31.74h-9.54zm20.14-12.71h9.54v44.45h-9.54zm20.15-19.72h9.54v64.17h-9.54z"/><path class="bf58f529-41d0-4ae0-8a01-3b7d59feea20" d="M960.62 380.39V370.3l28.54-31.56a3.54 3.54 0 012.53-1.14 3.46 3.46 0 012.57 1.06l10.57 10.87 30.53-33a3.47 3.47 0 012.62-1.12 3.52 3.52 0 012.59 1.21l9.55 11 7-6.82v9.71l-4.68 4.72a3.5 3.5 0 01-5.12-.19l-9.46-10.93-30.41 32.89a3.45 3.45 0 01-2.52 1.12 3.39 3.39 0 01-2.55-1.06l-10.55-10.86z"/><rect class="b4654475-5935-4d02-bd8c-11af37185747" x="5.42" y="182.43" width="367.79" height="242.39" rx="13.73"/><path class="bcdded38-892b-4b4f-802b-c5cc1e5f74ef" d="M359.48 425.82H19.16a14.75 14.75 0 01-14.74-14.74V196.16a14.75 14.75 0 0114.74-14.73h340.32a14.75 14.75 0 0114.74 14.73v214.92a14.75 14.75 0 01-14.74 14.74zM19.16 183.43a12.75 12.75 0 00-12.74 12.73v214.92a12.76 12.76 0 0012.74 12.74h340.32a12.76 12.76 0 0012.74-12.74V196.16a12.75 12.75 0 00-12.74-12.73z"/><rect class="ac424f7d-6591-4aca-9598-7e15a5ce8df0" x="12.31" y="191.35" width="354.03" height="224.54" rx="6.97"/><path class="bcdded38-892b-4b4f-802b-c5cc1e5f74ef" d="M359.36 416.89H19.28a8 8 0 01-8-8V198.32a8 8 0 018-8h340.08a8 8 0 018 8v210.6a8 8 0 01-8 7.97zM19.28 192.35a6 6 0 00-6 6v210.6a6 6 0 006 6h340.08a6 6 0 006-6V198.32a6 6 0 00-6-6z"/><path class="b4654475-5935-4d02-bd8c-11af37185747" d="M19.44 190h340.22a6.78 6.78 0 016.78 6.78v22H12.66v-22a6.78 6.78 0 016.78-6.78z"/><path class="bcdded38-892b-4b4f-802b-c5cc1e5f74ef" d="M367.44 219.82H11.66v-23a7.79 7.79 0 017.78-7.82h340.22a7.79 7.79 0 017.78 7.78zm-353.78-2h351.78v-21a5.78 5.78 0 00-5.78-5.78H19.44a5.78 5.78 0 00-5.78 5.78z"/><rect class="bf58f529-41d0-4ae0-8a01-3b7d59feea20" x="32.64" y="244.51" width="13.92" height="13.2" rx="3.55"/><path class="bf58f529-41d0-4ae0-8a01-3b7d59feea20" d="M43 258.71h-6.81a4.55 4.55 0 01-4.55-4.55v-6.1a4.55 4.55 0 014.55-4.55H43a4.55 4.55 0 014.55 4.55v6.1a4.55 4.55 0 01-4.55 4.55zm-6.82-13.2a2.55 2.55 0 00-2.55 2.55v6.1a2.55 2.55 0 002.55 2.55H43a2.55 2.55 0 002.55-2.55v-6.1a2.56 2.56 0 00-2.55-2.55z"/><rect class="eb741e5e-7f8f-478b-b178-fdeab1afc9c3" x="309.24" y="244.51" width="38.42" height="13.2" rx="3.55"/><path class="eb741e5e-7f8f-478b-b178-fdeab1afc9c3" d="M344.11 258.71h-31.32a4.55 4.55 0 01-4.55-4.55v-6.1a4.55 4.55 0 014.55-4.55h31.32a4.55 4.55 0 014.55 4.55v6.1a4.55 4.55 0 01-4.55 4.55zm-31.32-13.2a2.56 2.56 0 00-2.55 2.55v6.1a2.55 2.55 0 002.55 2.55h31.32a2.55 2.55 0 002.55-2.55v-6.1a2.55 2.55 0 00-2.55-2.55z"/><rect class="b4654475-5935-4d02-bd8c-11af37185747" x="60.21" y="244.51" width="206.43" height="13.2" rx="3.55"/><path class="bcdded38-892b-4b4f-802b-c5cc1e5f74ef" d="M263.09 258.71H63.76a4.55 4.55 0 01-4.55-4.55v-6.1a4.55 4.55 0 014.55-4.55h199.33a4.55 4.55 0 014.55 4.55v6.1a4.55 4.55 0 01-4.55 4.55zm-199.33-13.2a2.55 2.55 0 00-2.55 2.55v6.1a2.55 2.55 0 002.55 2.55h199.33a2.55 2.55 0 002.55-2.55v-6.1a2.55 2.55 0 00-2.55-2.55z"/><rect class="eb741e5e-7f8f-478b-b178-fdeab1afc9c3" x="309.24" y="274.51" width="38.42" height="13.2" rx="3.55"/><path class="eb741e5e-7f8f-478b-b178-fdeab1afc9c3" d="M344.11 288.71h-31.32a4.55 4.55 0 01-4.55-4.55v-6.1a4.55 4.55 0 014.55-4.55h31.32a4.55 4.55 0 014.55 4.55v6.1a4.55 4.55 0 01-4.55 4.55zm-31.32-13.2a2.56 2.56 0 00-2.55 2.55v6.1a2.55 2.55 0 002.55 2.55h31.32a2.55 2.55 0 002.55-2.55v-6.1a2.55 2.55 0 00-2.55-2.55z"/><rect class="bf58f529-41d0-4ae0-8a01-3b7d59feea20" x="32.64" y="274.51" width="13.92" height="13.2" rx="3.55"/><path class="bf58f529-41d0-4ae0-8a01-3b7d59feea20" d="M43 288.71h-6.81a4.55 4.55 0 01-4.55-4.55v-6.1a4.55 4.55 0 014.55-4.55H43a4.55 4.55 0 014.55 4.55v6.1a4.55 4.55 0 01-4.55 4.55zm-6.82-13.2a2.55 2.55 0 00-2.55 2.55v6.1a2.55 2.55 0 002.55 2.55H43a2.55 2.55 0 002.55-2.55v-6.1a2.56 2.56 0 00-2.55-2.55z"/><rect class="b4654475-5935-4d02-bd8c-11af37185747" x="60.21" y="274.51" width="143.72" height="13.2" rx="3.55"/><path class="bcdded38-892b-4b4f-802b-c5cc1e5f74ef" d="M200.39 288.71H63.76a4.55 4.55 0 01-4.55-4.55v-6.1a4.55 4.55 0 014.55-4.55h136.63a4.55 4.55 0 014.54 4.55v6.1a4.55 4.55 0 01-4.54 4.55zm-136.63-13.2a2.55 2.55 0 00-2.55 2.55v6.1a2.55 2.55 0 002.55 2.55h136.63a2.55 2.55 0 002.54-2.55v-6.1a2.55 2.55 0 00-2.54-2.55z"/><rect class="eb741e5e-7f8f-478b-b178-fdeab1afc9c3" x="309.24" y="304.51" width="38.42" height="13.2" rx="3.55"/><path class="eb741e5e-7f8f-478b-b178-fdeab1afc9c3" d="M344.11 318.71h-31.32a4.55 4.55 0 01-4.55-4.55v-6.1a4.55 4.55 0 014.55-4.55h31.32a4.55 4.55 0 014.55 4.55v6.1a4.55 4.55 0 01-4.55 4.55zm-31.32-13.2a2.56 2.56 0 00-2.55 2.55v6.1a2.55 2.55 0 002.55 2.55h31.32a2.55 2.55 0 002.55-2.55v-6.1a2.55 2.55 0 00-2.55-2.55z"/><rect class="bf58f529-41d0-4ae0-8a01-3b7d59feea20" x="32.64" y="304.51" width="13.92" height="13.2" rx="3.55"/><path class="bf58f529-41d0-4ae0-8a01-3b7d59feea20" d="M43 318.71h-6.81a4.55 4.55 0 01-4.55-4.55v-6.1a4.55 4.55 0 014.55-4.55H43a4.55 4.55 0 014.55 4.55v6.1a4.55 4.55 0 01-4.55 4.55zm-6.82-13.2a2.55 2.55 0 00-2.55 2.55v6.1a2.55 2.55 0 002.55 2.55H43a2.55 2.55 0 002.55-2.55v-6.1a2.56 2.56 0 00-2.55-2.55z"/><rect class="b4654475-5935-4d02-bd8c-11af37185747" x="60.21" y="304.51" width="183.28" height="13.2" rx="3.55"/><path class="bcdded38-892b-4b4f-802b-c5cc1e5f74ef" d="M239.94 318.71H63.76a4.55 4.55 0 01-4.55-4.55v-6.1a4.55 4.55 0 014.55-4.55h176.18a4.55 4.55 0 014.55 4.55v6.1a4.55 4.55 0 01-4.55 4.55zm-176.18-13.2a2.55 2.55 0 00-2.55 2.55v6.1a2.55 2.55 0 002.55 2.55h176.18a2.55 2.55 0 002.55-2.55v-6.1a2.55 2.55 0 00-2.55-2.55z"/><rect class="eb741e5e-7f8f-478b-b178-fdeab1afc9c3" x="309.24" y="334.51" width="38.42" height="13.2" rx="3.55"/><path class="eb741e5e-7f8f-478b-b178-fdeab1afc9c3" d="M344.11 348.71h-31.32a4.55 4.55 0 01-4.55-4.55v-6.1a4.56 4.56 0 014.55-4.55h31.32a4.56 4.56 0 014.55 4.55v6.1a4.55 4.55 0 01-4.55 4.55zm-31.32-13.2a2.56 2.56 0 00-2.55 2.55v6.1a2.55 2.55 0 002.55 2.55h31.32a2.55 2.55 0 002.55-2.55v-6.1a2.55 2.55 0 00-2.55-2.55z"/><rect class="bf58f529-41d0-4ae0-8a01-3b7d59feea20" x="32.64" y="334.51" width="13.92" height="13.2" rx="3.55"/><path class="bf58f529-41d0-4ae0-8a01-3b7d59feea20" d="M43 348.71h-6.81a4.55 4.55 0 01-4.55-4.55v-6.1a4.56 4.56 0 014.55-4.55H43a4.56 4.56 0 014.55 4.55v6.1a4.55 4.55 0 01-4.55 4.55zm-6.82-13.2a2.55 2.55 0 00-2.55 2.55v6.1a2.55 2.55 0 002.55 2.55H43a2.55 2.55 0 002.55-2.55v-6.1a2.56 2.56 0 00-2.55-2.55z"/><rect class="b4654475-5935-4d02-bd8c-11af37185747" x="60.21" y="334.51" width="206.43" height="13.2" rx="3.55"/><path class="bcdded38-892b-4b4f-802b-c5cc1e5f74ef" d="M263.09 348.71H63.76a4.55 4.55 0 01-4.55-4.55v-6.1a4.56 4.56 0 014.55-4.55h199.33a4.56 4.56 0 014.55 4.55v6.1a4.55 4.55 0 01-4.55 4.55zm-199.33-13.2a2.55 2.55 0 00-2.55 2.55v6.1a2.55 2.55 0 002.55 2.55h199.33a2.55 2.55 0 002.55-2.55v-6.1a2.55 2.55 0 00-2.55-2.55z"/><rect class="eb741e5e-7f8f-478b-b178-fdeab1afc9c3" x="309.24" y="364.51" width="38.42" height="13.2" rx="3.55"/><path class="eb741e5e-7f8f-478b-b178-fdeab1afc9c3" d="M344.11 378.71h-31.32a4.55 4.55 0 01-4.55-4.55v-6.1a4.56 4.56 0 014.55-4.55h31.32a4.56 4.56 0 014.55 4.55v6.1a4.55 4.55 0 01-4.55 4.55zm-31.32-13.2a2.56 2.56 0 00-2.55 2.55v6.1a2.55 2.55 0 002.55 2.55h31.32a2.55 2.55 0 002.55-2.55v-6.1a2.55 2.55 0 00-2.55-2.55z"/><rect class="bf58f529-41d0-4ae0-8a01-3b7d59feea20" x="32.64" y="364.51" width="13.92" height="13.2" rx="3.55"/><path class="bf58f529-41d0-4ae0-8a01-3b7d59feea20" d="M43 378.71h-6.81a4.55 4.55 0 01-4.55-4.55v-6.1a4.56 4.56 0 014.55-4.55H43a4.56 4.56 0 014.55 4.55v6.1a4.55 4.55 0 01-4.55 4.55zm-6.82-13.2a2.55 2.55 0 00-2.55 2.55v6.1a2.55 2.55 0 002.55 2.55H43a2.55 2.55 0 002.55-2.55v-6.1a2.56 2.56 0 00-2.55-2.55z"/><rect class="b4654475-5935-4d02-bd8c-11af37185747" x="60.21" y="364.51" width="101.81" height="13.2" rx="3.55"/><path class="bcdded38-892b-4b4f-802b-c5cc1e5f74ef" d="M158.47 378.71H63.76a4.55 4.55 0 01-4.55-4.55v-6.1a4.56 4.56 0 014.55-4.55h94.71a4.56 4.56 0 014.55 4.55v6.1a4.55 4.55 0 01-4.55 4.55zm-94.71-13.2a2.55 2.55 0 00-2.55 2.55v6.1a2.55 2.55 0 002.55 2.55h94.71a2.55 2.55 0 002.55-2.55v-6.1a2.55 2.55 0 00-2.55-2.55z"/><rect class="b4654475-5935-4d02-bd8c-11af37185747" x="493.3" y="224.12" width="91.72" height="205.77" rx="3.55"/><path class="bcdded38-892b-4b4f-802b-c5cc1e5f74ef" d="M581.48 430.89h-84.63a4.56 4.56 0 01-4.55-4.55V227.67a4.55 4.55 0 014.55-4.55h84.63a4.55 4.55 0 014.55 4.55v198.67a4.56 4.56 0 01-4.55 4.55zm-84.63-205.77a2.55 2.55 0 00-2.55 2.55v198.67a2.56 2.56 0 002.55 2.55h84.63a2.56 2.56 0 002.55-2.55V227.67a2.55 2.55 0 00-2.55-2.55z"/><path class="ac424f7d-6591-4aca-9598-7e15a5ce8df0" d="M602.04 334.57h39.42v44.3h-39.42z"/><path class="bcdded38-892b-4b4f-802b-c5cc1e5f74ef" d="M642.46 379.87H601v-46.3h41.42zm-39.42-2h37.42v-42.3H603z"/><path class="b4654475-5935-4d02-bd8c-11af37185747" d="M700.59 318.59h71.34v49.35h-71.34z"/><path class="bcdded38-892b-4b4f-802b-c5cc1e5f74ef" d="M772.92 368.94h-73.33v-51.35h73.33zm-71.33-2h69.33v-47.35h-69.33z"/><path class="ac424f7d-6591-4aca-9598-7e15a5ce8df0" d="M610.36 225.31h22.78v85.99h-22.78z"/><path class="bcdded38-892b-4b4f-802b-c5cc1e5f74ef" d="M634.14 312.3h-24.78v-88h24.78zm-22.78-2h20.78v-84h-20.78z"/><path class="ac424f7d-6591-4aca-9598-7e15a5ce8df0" transform="rotate(-27.52 726.245 239.44)" d="M719.13 225.43h14.16v28.01h-14.16z"/><path class="bcdded38-892b-4b4f-802b-c5cc1e5f74ef" d="M726 256.48l-13.87-26.61 14.33-7.47 13.85 26.6zm-11.17-25.76l12 23.07 10.78-5.62-12-23.07z"/><path class="b4654475-5935-4d02-bd8c-11af37185747" transform="rotate(-27.52 736.285 258.714)" d="M732.12 249.91h8.26v17.6h-8.26z"/><path class="bcdded38-892b-4b4f-802b-c5cc1e5f74ef" d="M736.23 269.77l-9.06-17.38 9.1-4.74 9.06 17.35zm-6.36-16.53l7.21 13.83 5.55-2.89-7.21-13.84z"/><path class="b4654475-5935-4d02-bd8c-11af37185747" transform="rotate(-27.52 733.161 252.733)" d="M714.59 248.44h37.07v8.57h-37.07z"/><path class="bcdded38-892b-4b4f-802b-c5cc1e5f74ef" d="M718.25 266.44l-4.89-9.38L748 239l4.89 9.37zm-2.19-8.53l3 5.83 31.11-16.21-3-5.83z"/><path class="ac424f7d-6591-4aca-9598-7e15a5ce8df0" transform="rotate(-90 659.225 217.605)" d="M651.03 169.62h16.39v95.97h-16.39z"/><path class="bcdded38-892b-4b4f-802b-c5cc1e5f74ef" d="M708.21 226.8h-98v-18.39h98zm-96-2h94v-14.39h-94z"/><rect class="b4654475-5935-4d02-bd8c-11af37185747" x="570.6" y="366.32" width="242.7" height="63.63" rx="31.82"/><path class="bcdded38-892b-4b4f-802b-c5cc1e5f74ef" d="M781.49 431H602.42a32.82 32.82 0 110-65.64h179.07a32.82 32.82 0 010 65.64zm-179.07-63.69a30.82 30.82 0 100 61.64h179.07a30.82 30.82 0 000-61.64z"/><rect class="ac424f7d-6591-4aca-9598-7e15a5ce8df0" x="581.67" y="376.13" width="220.57" height="44" rx="22"/><path class="bcdded38-892b-4b4f-802b-c5cc1e5f74ef" d="M780.24 421.13H603.67a23 23 0 010-46h176.57a23 23 0 010 46zm-176.57-44a21 21 0 000 42h176.57a21 21 0 000-42z"/><path class="b4654475-5935-4d02-bd8c-11af37185747" d="M648.52 387.07a11.06 11.06 0 1011.06 11.07 11.06 11.06 0 00-11.06-11.07zm0 14.77a3.71 3.71 0 113.71-3.7 3.7 3.7 0 01-3.71 3.7z"/><path class="bcdded38-892b-4b4f-802b-c5cc1e5f74ef" d="M648.52 410.19a12.06 12.06 0 1112.06-12.05 12.06 12.06 0 01-12.06 12.05zm0-22.12a10.06 10.06 0 1010.06 10.07 10.07 10.07 0 00-10.06-10.07zm0 14.77a4.71 4.71 0 114.71-4.7 4.71 4.71 0 01-4.71 4.7zm0-7.42a2.71 2.71 0 102.71 2.72 2.71 2.71 0 00-2.71-2.72z"/><path class="b4654475-5935-4d02-bd8c-11af37185747" d="M692.37 387.07a11.06 11.06 0 1011 11.05 11.08 11.08 0 00-11-11.05zm0 14.77a3.71 3.71 0 113.7-3.72 3.73 3.73 0 01-3.7 3.72z"/><path class="bcdded38-892b-4b4f-802b-c5cc1e5f74ef" d="M692.37 410.19a12.06 12.06 0 1112-12.07 12.08 12.08 0 01-12 12.07zm0-22.12a10.06 10.06 0 1010 10.05 10.07 10.07 0 00-10-10.05zm0 14.77a4.71 4.71 0 114.7-4.72 4.71 4.71 0 01-4.7 4.72zm0-7.42a2.71 2.71 0 102.7 2.7 2.7 2.7 0 00-2.7-2.7z"/><path class="b4654475-5935-4d02-bd8c-11af37185747" d="M736.19 387.07a11.06 11.06 0 1011.07 11.05 11.07 11.07 0 00-11.07-11.05zm0 14.77a3.71 3.71 0 113.72-3.72 3.72 3.72 0 01-3.72 3.72z"/><path class="bcdded38-892b-4b4f-802b-c5cc1e5f74ef" d="M736.19 410.19a12.06 12.06 0 1112.07-12.07 12.07 12.07 0 01-12.07 12.07zm0-22.12a10.06 10.06 0 1010.07 10.05 10.06 10.06 0 00-10.07-10.05zm0 14.77a4.71 4.71 0 114.72-4.72 4.71 4.71 0 01-4.72 4.72zm0-7.42a2.71 2.71 0 102.72 2.7 2.7 2.7 0 00-2.72-2.7z"/><path class="b4654475-5935-4d02-bd8c-11af37185747" d="M780 387.07a11.06 11.06 0 1011.05 11.07A11.08 11.08 0 00780 387.07zm0 14.77a3.71 3.71 0 113.7-3.7 3.71 3.71 0 01-3.7 3.7z"/><path class="bcdded38-892b-4b4f-802b-c5cc1e5f74ef" d="M780 410.19a12.06 12.06 0 1112.05-12.05A12.06 12.06 0 01780 410.19zm0-22.12a10.06 10.06 0 1010.05 10.07A10.08 10.08 0 00780 388.07zm0 14.77a4.71 4.71 0 114.7-4.7 4.71 4.71 0 01-4.7 4.7zm0-7.42a2.71 2.71 0 102.7 2.72 2.72 2.72 0 00-2.7-2.72z"/><path class="b4654475-5935-4d02-bd8c-11af37185747" d="M604.69 387.08a11.06 11.06 0 1011 11.05 11.06 11.06 0 00-11-11.05zm0 14.75a3.7 3.7 0 113.7-3.7 3.7 3.7 0 01-3.7 3.7z"/><path class="bcdded38-892b-4b4f-802b-c5cc1e5f74ef" d="M604.69 410.19a12.06 12.06 0 1112-12.06 12.06 12.06 0 01-12 12.06zm0-22.11a10.06 10.06 0 1010 10.05 10.06 10.06 0 00-10-10.05zm0 14.75a4.7 4.7 0 114.7-4.7 4.7 4.7 0 01-4.7 4.7zm0-7.4a2.7 2.7 0 102.7 2.7 2.7 2.7 0 00-2.7-2.7z"/><circle class="b4654475-5935-4d02-bd8c-11af37185747" cx="621.75" cy="319.93" r="24.78"/><path class="bcdded38-892b-4b4f-802b-c5cc1e5f74ef" d="M621.75 345.71a25.78 25.78 0 1125.78-25.78 25.8 25.8 0 01-25.78 25.78zm0-49.56a23.78 23.78 0 1023.78 23.78 23.8 23.8 0 00-23.78-23.78z"/><circle class="ac424f7d-6591-4aca-9598-7e15a5ce8df0" cx="621.75" cy="319.93" r="15.61"/><path class="bcdded38-892b-4b4f-802b-c5cc1e5f74ef" d="M621.75 336.54a16.61 16.61 0 1116.61-16.61 16.63 16.63 0 01-16.61 16.61zm0-31.21a14.61 14.61 0 1014.61 14.6 14.62 14.62 0 00-14.61-14.6z"/><circle class="b4654475-5935-4d02-bd8c-11af37185747" cx="621.75" cy="217.6" r="20.18"/><path class="bcdded38-892b-4b4f-802b-c5cc1e5f74ef" d="M621.75 238.78a21.18 21.18 0 1121.18-21.18 21.2 21.2 0 01-21.18 21.18zm0-40.35a19.18 19.18 0 1019.18 19.17 19.2 19.2 0 00-19.18-19.17z"/><circle class="ac424f7d-6591-4aca-9598-7e15a5ce8df0" cx="621.75" cy="217.6" r="12.71"/><path class="bcdded38-892b-4b4f-802b-c5cc1e5f74ef" d="M621.75 231.31a13.71 13.71 0 1113.71-13.71 13.73 13.73 0 01-13.71 13.71zm0-25.41a11.71 11.71 0 1011.71 11.7 11.72 11.72 0 00-11.71-11.7z"/><circle class="b4654475-5935-4d02-bd8c-11af37185747" cx="717.68" cy="219.41" r="20.18"/><path class="bcdded38-892b-4b4f-802b-c5cc1e5f74ef" d="M717.71 240.58a21.17 21.17 0 1118.75-31 21.17 21.17 0 01-18.75 31zm-.06-40.36a19.18 19.18 0 105.79.89 19.52 19.52 0 00-5.79-.89z"/><circle class="ac424f7d-6591-4aca-9598-7e15a5ce8df0" cx="717.68" cy="219.41" r="12.71"/><path class="bcdded38-892b-4b4f-802b-c5cc1e5f74ef" d="M717.7 233.12a13.7 13.7 0 116.31-1.55 13.72 13.72 0 01-6.31 1.55zm0-25.43a11.73 11.73 0 1010.4 6.31 11.77 11.77 0 00-10.4-6.31z"/><path class="ac424f7d-6591-4aca-9598-7e15a5ce8df0" d="M718.8 318.76h34.91v10.73a4.07 4.07 0 01-4.07 4.07h-26.77a4.07 4.07 0 01-4.07-4.07v-10.73z"/><path class="bcdded38-892b-4b4f-802b-c5cc1e5f74ef" d="M749.64 334.55h-26.77a5.07 5.07 0 01-5.07-5.07v-11.72h36.91v11.72a5.07 5.07 0 01-5.07 5.07zm-29.84-14.79v9.72a3.07 3.07 0 003.07 3.07h26.77a3.06 3.06 0 003.07-3.07v-9.72z"/><rect class="ac424f7d-6591-4aca-9598-7e15a5ce8df0" x="504.15" y="234.58" width="70.03" height="70.43" rx="1.23"/><path class="bcdded38-892b-4b4f-802b-c5cc1e5f74ef" d="M573 306h-67.62a2.23 2.23 0 01-2.23-2.23v-68a2.23 2.23 0 012.23-2.23H573a2.23 2.23 0 012.23 2.23v68A2.23 2.23 0 01573 306zm-67.57-70.43a.23.23 0 00-.23.23v68a.23.23 0 00.23.23H573a.23.23 0 00.23-.23v-68a.23.23 0 00-.23-.23z"/><rect class="eb741e5e-7f8f-478b-b178-fdeab1afc9c3" x="513.99" y="244.15" width="13.92" height="13.2" rx="3.55"/><path class="eb741e5e-7f8f-478b-b178-fdeab1afc9c3" d="M524.36 258.34h-6.82a4.55 4.55 0 01-4.55-4.55v-6.09a4.55 4.55 0 014.55-4.55h6.82a4.55 4.55 0 014.55 4.55v6.09a4.55 4.55 0 01-4.55 4.55zm-6.82-13.19a2.55 2.55 0 00-2.54 2.55v6.09a2.55 2.55 0 002.55 2.55h6.82a2.55 2.55 0 002.55-2.55v-6.09a2.55 2.55 0 00-2.55-2.55z"/><rect class="b4654475-5935-4d02-bd8c-11af37185747" x="538.37" y="244.15" width="24.84" height="13.2" rx="3.55"/><path class="bcdded38-892b-4b4f-802b-c5cc1e5f74ef" d="M559.66 258.34h-17.74a4.55 4.55 0 01-4.55-4.55v-6.09a4.55 4.55 0 014.55-4.55h17.74a4.55 4.55 0 014.55 4.55v6.09a4.55 4.55 0 01-4.55 4.55zm-17.74-13.19a2.55 2.55 0 00-2.55 2.55v6.09a2.55 2.55 0 002.55 2.55h17.74a2.55 2.55 0 002.55-2.55v-6.09a2.55 2.55 0 00-2.55-2.55z"/><rect class="b4654475-5935-4d02-bd8c-11af37185747" x="538.37" y="268.77" width="24.84" height="13.2" rx="3.55"/><path class="bcdded38-892b-4b4f-802b-c5cc1e5f74ef" d="M559.66 283h-17.74a4.55 4.55 0 01-4.55-4.55v-6.09a4.55 4.55 0 014.55-4.55h17.74a4.55 4.55 0 014.55 4.55v6.09a4.55 4.55 0 01-4.55 4.55zm-17.74-13.19a2.55 2.55 0 00-2.55 2.55v6.09a2.55 2.55 0 002.55 2.55h17.74a2.55 2.55 0 002.55-2.55v-6.09a2.55 2.55 0 00-2.55-2.55z"/><rect class="eb741e5e-7f8f-478b-b178-fdeab1afc9c3" x="513.99" y="268.77" width="13.92" height="13.2" rx="3.55"/><path class="eb741e5e-7f8f-478b-b178-fdeab1afc9c3" d="M524.36 283h-6.82a4.55 4.55 0 01-4.55-4.55v-6.09a4.55 4.55 0 014.55-4.55h6.82a4.55 4.55 0 014.55 4.55v6.09a4.55 4.55 0 01-4.55 4.55zm-6.82-13.19a2.55 2.55 0 00-2.55 2.55v6.09a2.55 2.55 0 002.55 2.55h6.82a2.55 2.55 0 002.55-2.55v-6.09a2.55 2.55 0 00-2.55-2.55z"/><rect class="bf58f529-41d0-4ae0-8a01-3b7d59feea20" x="513.99" y="319.07" width="48.64" height="13.2" rx="3.55"/><path class="bf58f529-41d0-4ae0-8a01-3b7d59feea20" d="M559.08 333.27h-41.54a4.55 4.55 0 01-4.55-4.55v-6.1a4.55 4.55 0 014.55-4.55h41.54a4.55 4.55 0 014.55 4.55v6.1a4.55 4.55 0 01-4.55 4.55zm-41.54-13.2a2.55 2.55 0 00-2.55 2.55v6.1a2.55 2.55 0 002.55 2.55h41.54a2.56 2.56 0 002.55-2.55v-6.1a2.56 2.56 0 00-2.55-2.55z"/><path class="ac424f7d-6591-4aca-9598-7e15a5ce8df0" d="M175 95.14V86a5.5 5.5 0 015.5-5.5l930.42-.56a5.5 5.5 0 015.5 5.5v9.14"/><path class="b6f3e842-8e6c-4e00-b3ad-724bee1542c5" d="M176 95.14h-2V86a6.51 6.51 0 016.5-6.5l930.42-.57a6.51 6.51 0 016.5 6.5v9.15h-2v-9.16a4.51 4.51 0 00-4.5-4.5l-930.42.57A4.51 4.51 0 00176 86z"/><path class="b6f3e842-8e6c-4e00-b3ad-724bee1542c5" d="M653.26 63.44h2v32.95h-2z"/></g></svg>