<svg version="1.1" id="f4636250-6d13-4c4b-b478-624f82329a8d" xmlns="http://www.w3.org/2000/svg" x="0" y="0" viewBox="0 0 153.8 32" xml:space="preserve"><style>.st1{fill:#1998ff}</style><path d="M68.4 10.1h-2.5V7.6c0-.1-.1-.2-.2-.2h-2.6c-.1 0-.2.1-.2.2v2.5h-1.5c-.1 0-.2.1-.2.2v2.4c0 .1.1.2.2.2h1.5v5c0 4.1 3.3 4.6 5 4.6h.5c.1 0 .2-.1.2-.2v-2.4c0-.1-.1-.2-.2-.2h-.5c-.9 0-2-.5-2-2.3v-4.6h2.5c.1 0 .2-.1.2-.2v-2.4s-.1-.1-.2-.1zM44.7 6.9c0-.1-.1-.1-.2-.1h-3c-.1 0-.1.1-.2.1l-5.9 15.3c0 .1 0 .2.2.2h2.9c.1 0 .1-.1.2-.1l.9-2.6h6.9l.9 2.6c0 .1.1.1.2.1h2.9c.1 0 .2-.1.2-.2l-6-15.3zm-4.2 10L43 9.6l2.5 7.3h-5zM60 18.6c-.1-.1-.2-.1-.3-.1-.4.4-1.8 1.4-3.4 1.4-2.3 0-3.8-1.8-3.8-3.8 0-2.1 1.5-3.8 3.7-3.8 1.5 0 2.6.8 3 1.2.1.1.2.1.3 0l1.1-1.8v-.2c-.4-.4-1.9-1.7-4.6-1.7-4 0-6.6 2.9-6.6 6.4s2.6 6.4 6.6 6.4c2.8 0 4.5-1.5 4.9-1.9.1-.1.1-.1 0-.2l-.9-1.9zm32 3.5l-3.9-6 3.7-5.8c.1-.1 0-.3-.2-.3h-3c-.1 0-.1 0-.2.1l-1.8 3.2c-.2.3-.4.8-.4.8h.1l-.4-.8-1.9-3.2c0-.1-.1-.1-.2-.1h-5.5c-.1 0-.1.1-.2.1l-2.4 7-.4 1.2-.4-1.2-2.5-6.9c0-.1-.1-.1-.2-.1h-3c-.1 0-.2.1-.2.3l5 12-.2.6c-.4 1.1-1.4 1.8-2.3 1.8h-1.4c-.1 0-.2.1-.2.2v2.4c0 .1.1.2.2.2h1.6c1.8 0 3.6-1.2 4.4-3.4l5.1-13.1 3.3 5.1-3.9 6c-.1.1 0 .3.1.3h2.9c.1 0 .1 0 .2-.1l2.2-3.6c.2-.3.3-.7.3-.7s.2.4.3.7l2.1 3.6c0 .1.1.1.2.1h2.9c.2-.1.3-.3.2-.4zM24.6 21V8.9c0-.1 0-.1-.1-.2l-10.4-6h-.2l-10.2 6c-.1.1-.1.2 0 .3l5 2.9 5.2-3h.2l5.1 2.9s.1.1.1.2v6l-2.8 1.6-2.4 1.4h-.2l-5.1-3s-.1-.1-.1-.2v-6l-5.2 3s-.1.1-.1.2v5.9c0 .1 0 .1.1.2l10.4 6h.2l5.2-3 2.4 1.4h.2l4.9-2.8c.1-.1.1-.2 0-.3L24.6 21z" fill="#181d27"/><path class="st1" d="M102.6 6.5h-5.4v16.1h5.4c5.1 0 8.2-3.1 8.2-8.1s-3.2-8-8.2-8zm-.2 13.8h-2.6V8.7h2.6c3.5 0 5.6 2.2 5.6 5.8s-2.1 5.8-5.6 5.8zm15.4-9.5c-3.6 0-6.3 2.6-6.3 6s2.7 6 6.3 6 6.3-2.6 6.3-6-2.7-6-6.3-6zm0 9.8c-2.1 0-3.7-1.6-3.7-3.8s1.6-3.8 3.7-3.8 3.6 1.6 3.6 3.8-1.5 3.8-3.6 3.8zm13.3 0c-2.2 0-3.8-1.7-3.8-3.8 0-2.2 1.6-3.8 3.7-3.8 1.6 0 2.7.9 3 1.2l1.1-1.8c-.3-.3-1.8-1.6-4.3-1.6-3.6 0-6.2 2.5-6.2 6s2.6 6 6.2 6c2.5 0 4.1-1.2 4.6-1.7l.1-.1-1-1.8c-.4.4-1.8 1.4-3.4 1.4zm13.3-1.1c0-2.2-2-3-3.6-3.6-1.1-.5-2.1-.8-2.1-1.6s.8-1.2 1.7-1.2c1.5 0 2.5.6 2.8.9l1-1.9c-.3-.3-1.6-1.2-3.8-1.2-2.6 0-4.4 1.3-4.4 3.3 0 2.2 2 3 3.6 3.6 1.2.5 2.2.9 2.2 1.7 0 .7-.7 1.2-1.7 1.2-1.6 0-2.8-.9-3.2-1.2l-1 1.6v.1l-.1.1-.1.1c.4.4 1.9 1.6 4.4 1.6 2.5-.2 4.3-1.6 4.3-3.5z"/><path class="st1" d="M135.8 21.1l-.2.1c.1 0 .2 0 .2-.1z"/></svg>