<svg id="f8acadc8-1dca-473c-be6a-48bf13b4f98a" data-name="Layer 1" xmlns="http://www.w3.org/2000/svg" width="1140" height="531"><defs><style>.a64ce3c8-9174-4f41-8b12-8c01af4fb508,.afe3ee21-dcf1-4832-875b-257bebbf6441,.efc5519a-6867-430e-8dc6-e298f5cc0f4a{fill:none}.afe3ee21-dcf1-4832-875b-257bebbf6441{stroke:#f93}.b833026c-fd35-42e5-8f82-664fb48b2606,.f594954b-b6aa-40fa-813d-799fe90431b3{fill:#fff}.b7f9ebd6-b35b-42c8-8c54-c1dc0715f2b6{fill:#deecf9;stroke:#369aff}.efc5519a-6867-430e-8dc6-e298f5cc0f4a{stroke:#369aff}.a64ce3c8-9174-4f41-8b12-8c01af4fb508,.b2afb9e1-d5ef-4714-bc2c-2d6c6c903232,.b7f9ebd6-b35b-42c8-8c54-c1dc0715f2b6,.b833026c-fd35-42e5-8f82-664fb48b2606,.efc5519a-6867-430e-8dc6-e298f5cc0f4a{stroke-miterlimit:4;stroke-width:1px}.b2afb9e1-d5ef-4714-bc2c-2d6c6c903232{fill:#f6f5ff;stroke:#635bff}.a64ce3c8-9174-4f41-8b12-8c01af4fb508,.b833026c-fd35-42e5-8f82-664fb48b2606{stroke:#15be53}.a304667b-b7e4-4bcf-aff0-6617d6f41a23{fill:#6c64ff}</style></defs><g id="a3da72fc-bda1-4167-8755-960aa3197097" data-name="Rectangle 28"><rect x="940.92" y="159.89" width="38.3" height="40.4" rx="2.1" transform="rotate(-69 960.065 180.09)" fill="#fff8f2"/><rect class="afe3ee21-dcf1-4832-875b-257bebbf6441" x="941.18" y="160.15" width="37.78" height="39.88" rx="1.84" transform="rotate(-69 960.065 180.09)"/></g><g id="b79f9253-5dff-4b05-9a4d-858fc838411b" data-name="Rectangle 32"><rect class="f594954b-b6aa-40fa-813d-799fe90431b3" x="960.06" y="174.77" width="4.22" height="17.27" rx="1.05" transform="rotate(-69 962.17 183.401)"/><rect class="afe3ee21-dcf1-4832-875b-257bebbf6441" x="960.32" y="175.03" width="3.69" height="16.74" rx=".79" transform="rotate(-69 962.17 183.401)"/></g><rect class="b7f9ebd6-b35b-42c8-8c54-c1dc0715f2b6" x="94.25" y="391.05" width="48.91" height="46.37" rx="2.54" transform="rotate(-16.92 118.737 414.278)" id="f0c5dded-cd96-438c-b303-28ed7f59a680" data-name="Rectangle 29"/><g id="b4bae53c-f94f-40d6-b706-2a7912a74955" data-name="Rectangle 30"><path d="M972.9 199.57A11.74 11.74 0 01985.8 210a11.73 11.73 0 01-10.44 12.9 11.73 11.73 0 01-12.9-10.44 11.74 11.74 0 0110.44-12.89z" fill="#eff7ff"/><path class="efc5519a-6867-430e-8dc6-e298f5cc0f4a" d="M972.91 199.72A11.59 11.59 0 01985.65 210a11.58 11.58 0 01-10.3 12.73 11.58 11.58 0 01-12.74-10.3 11.59 11.59 0 0110.3-12.71z"/></g><g id="bffd9047-baa6-4628-964b-ae75b8c7e5b0" data-name="Rectangle 31"><rect class="b2afb9e1-d5ef-4714-bc2c-2d6c6c903232" x="83.73" y="188.97" width="33.66" height="31.91" rx="6.37" transform="rotate(-6.02 100.588 205.05)"/><rect class="b2afb9e1-d5ef-4714-bc2c-2d6c6c903232" x="83.89" y="189.12" width="33.34" height="31.59" rx="6.21" transform="rotate(-6.02 100.588 205.05)"/></g><path id="b285bee3-dc82-43d8-9398-9041247fbd52" data-name="Path 1" d="M134.91 418.4l-5-16.39a.23.23 0 00-.18-.17L113.19 398a.24.24 0 00-.24.08l-11.41 12.19a.25.25 0 000 .36.24.24 0 00.11.06l8 1.86 5.8-6.21a.27.27 0 01.24-.07l8.14 1.89a.24.24 0 01.18.17l2.47 8.13h0l-3.08 3.29-2.72 2.91a.24.24 0 01-.24.07l-8.13-1.89a.25.25 0 01-.19-.17l-2.47-8.13-5.8 6.21a.28.28 0 00-.06.25l2.43 8a.29.29 0 00.19.18L123 431a.28.28 0 00.25-.07l5.8-6.21 3.88.9a.24.24 0 00.24-.07l5.5-5.88a.25.25 0 000-.36.24.24 0 00-.11-.06z" stroke-miterlimit="4" stroke-width="1" stroke="#369aff" fill="#fff"/><g id="b1112387-49ee-4d79-969b-af8d125942d6" data-name="Group 1"><path id="b4bb0138-c5e4-4fb3-b9df-3dcfa673813e" data-name="Path 2" d="M948.08 175.73c-.47-.17-.61-.5-1-.91a1.41 1.41 0 01.44-1.95 1.73 1.73 0 01.37-.16l6.48-2.89-2.89-6.48a1.52 1.52 0 01.72-1.87 1.67 1.67 0 012.26.71 1.08 1.08 0 01.08.19l3.47 7.77a1.87 1.87 0 01-.81 2.11l-7.78 3.46a1.36 1.36 0 01-1.34.02z" fill="#fff" stroke="#f93"/></g><path class="a64ce3c8-9174-4f41-8b12-8c01af4fb508" d="M933.33 299.26a4 4 0 014-.4l12.35 5.66a4 4 0 01.69 6.87l-10.78 7.84a4 4 0 01-6.33-2.78L931.71 303a4 4 0 011.62-3.74z" id="b2a46415-f116-4c8a-adcb-7ee3b851dfef" data-name="Polygon 1"/><path class="afe3ee21-dcf1-4832-875b-257bebbf6441" d="M202.34 84.64l-13-3.12a3.5 3.5 0 01-1.74-5.79l9.25-10a3.5 3.5 0 015.93 1.43l3.7 13.08a3.49 3.49 0 01-4.19 4.35z" id="a321d091-ed05-457a-a185-69a613ae7231" data-name="Polygon 2"/><g id="b52306db-ea9f-49e4-bf6f-4d214bc004e6" data-name="Polygon 4"><path class="f594954b-b6aa-40fa-813d-799fe90431b3" d="M134.09 327.49l-10.78 7.83a3.49 3.49 0 01-5.53-2.42l-1.57-13.5a3.49 3.49 0 014.93-3.59l12.35 5.67a3.49 3.49 0 01.6 6z"/><path class="a304667b-b7e4-4bcf-aff0-6617d6f41a23" d="M117.92 316.57a3 3 0 00-1.22 2.77l1.58 13.5a3 3 0 004.74 2.08l10.78-7.83a3 3 0 00-.52-5.16l-12.35-5.66a2.94 2.94 0 00-3 .3m-.59-.81a4 4 0 014-.4L133.7 321a4 4 0 01.69 6.87l-10.78 7.84a4 4 0 01-6.33-2.78l-1.57-13.49a4 4 0 011.62-3.68z"/></g><g id="f55d8267-456e-4155-8e7d-1da81f0e5fc2" data-name="Polygon 5"><path d="M924.09 86l-10.78 7.83a3.49 3.49 0 01-5.53-2.42l-1.57-13.5a3.49 3.49 0 014.93-3.59L923.49 80a3.49 3.49 0 01.6 6z" fill="#f6f5ff"/><path class="a304667b-b7e4-4bcf-aff0-6617d6f41a23" d="M907.92 75.07a3 3 0 00-1.22 2.77l1.58 13.5a3 3 0 004.72 2.08l10.78-7.83a3 3 0 00-.52-5.16l-12.35-5.66a2.94 2.94 0 00-3 .3m-.59-.81a4 4 0 014-.4l12.35 5.66a4 4 0 01.69 6.87l-10.78 7.84a4 4 0 01-6.33-2.78L905.71 78a4 4 0 011.62-3.74z"/></g><path class="b833026c-fd35-42e5-8f82-664fb48b2606" d="M86.36 105.59h-4.45v-4.45a1.64 1.64 0 00-1.64-1.64h-3.54a1.64 1.64 0 00-1.64 1.64v4.45h-4.45a1.64 1.64 0 00-1.64 1.64v3.54a1.64 1.64 0 001.64 1.64h4.45v4.45a1.64 1.64 0 001.64 1.64h3.54a1.64 1.64 0 001.64-1.64v-4.45h4.45a1.64 1.64 0 001.64-1.64v-3.54a1.64 1.64 0 00-1.64-1.64z"/><path class="afe3ee21-dcf1-4832-875b-257bebbf6441" d="M274 465.63l-3.93-2.07 2.06-3.93a1.64 1.64 0 00-.69-2.22l-3.14-1.65a1.63 1.63 0 00-2.21.7l-2.07 3.93-3.93-2.06a1.64 1.64 0 00-2.22.69l-1.65 3.14a1.63 1.63 0 00.7 2.21l3.93 2.07-2.06 3.93a1.64 1.64 0 00.69 2.22l3.14 1.65a1.63 1.63 0 002.21-.7l2.07-3.93 3.93 2.06a1.64 1.64 0 002.22-.69l1.65-3.14a1.63 1.63 0 00-.7-2.21z"/><path class="b7f9ebd6-b35b-42c8-8c54-c1dc0715f2b6" d="M934 446.63l-3.93-2.07 2.06-3.93a1.64 1.64 0 00-.69-2.22l-3.14-1.65a1.63 1.63 0 00-2.21.7l-2.07 3.93-3.93-2.06a1.64 1.64 0 00-2.22.69l-1.65 3.14a1.63 1.63 0 00.7 2.21l3.93 2.07-2.06 3.93a1.64 1.64 0 00.69 2.22l3.14 1.65a1.63 1.63 0 002.21-.7l2.07-3.93 3.93 2.06a1.64 1.64 0 002.22-.69l1.65-3.14a1.63 1.63 0 00-.7-2.21z"/><rect class="b833026c-fd35-42e5-8f82-664fb48b2606" x="109.34" y="204.28" width="29.25" height="35.72" rx="4.47" transform="rotate(-25.4 123.991 222.168)"/><rect class="b833026c-fd35-42e5-8f82-664fb48b2606" x="108.44" y="209.58" width="20.56" height="3.01" rx="1.41" transform="rotate(-25.4 118.74 211.123)"/><rect class="b833026c-fd35-42e5-8f82-664fb48b2606" x="111.17" y="215.34" width="20.56" height="3.01" rx="1.41" transform="rotate(-25.4 121.479 216.869)"/><rect class="b833026c-fd35-42e5-8f82-664fb48b2606" x="113.91" y="221.1" width="20.56" height="3.01" rx="1.41" transform="rotate(-25.4 124.212 222.637)"/><rect class="b2afb9e1-d5ef-4714-bc2c-2d6c6c903232" x="999.06" y="343.8" width="39.82" height="13.76" rx="3.63" transform="rotate(-21.73 1018.768 350.657)"/><rect class="a64ce3c8-9174-4f41-8b12-8c01af4fb508" x="976.59" y="424.19" width="39.82" height="13.76" rx="3.63" transform="rotate(-21.73 996.294 431.02)"/><path class="efc5519a-6867-430e-8dc6-e298f5cc0f4a" d="M1021.51 357.07l8.56 21.47a4.92 4.92 0 01-2.75 6.38L989.42 400a4.92 4.92 0 00-2.75 6.38l7.33 18.3"/></svg>