<svg xmlns="http://www.w3.org/2000/svg" xmlns:xlink="http://www.w3.org/1999/xlink" width="1310.93" height="656.33" viewBox="0 0 1310.93 656.33">
  <defs>
    <style>
      .a3fc1c00-0153-41bb-9136-d11824066888 {
        fill: none;
      }

      .b2348e80-6c41-4ccb-815c-96aa1b77e70d {
        fill: #dceaf4;
      }

      .ecf83eb5-d218-4d0f-aaa9-566046d5e3d0 {
        fill: url(#b93e93ff-05d3-45a6-a336-1745a3ebd242);
      }

      .e0f1bea9-150b-4475-a446-581a5c0a7a25 {
        fill: #fff;
      }

      .ba96d68e-6c9e-4c6b-8dec-d66ea465357e {
        fill: #b2bfce;
      }

      .fd3a4061-31ed-4455-a42a-661060ebae7f {
        fill: #2a4b7d;
        stroke: #2a4b7d;
      }

      .ba8c094b-5abc-48fd-91ea-d2a9e8e3983d, .e30564fe-8ae3-439b-aa3c-5fdbd6be28f7, .fd3a4061-31ed-4455-a42a-661060ebae7f {
        stroke-miterlimit: 10;
      }

      .ba8c094b-5abc-48fd-91ea-d2a9e8e3983d, .fd3a4061-31ed-4455-a42a-661060ebae7f {
        stroke-width: 0.5px;
      }

      .b9bb263c-656b-42a9-ada6-3236ea98e0bc, .ba8c094b-5abc-48fd-91ea-d2a9e8e3983d {
        fill: #1998ff;
      }

      .ba8c094b-5abc-48fd-91ea-d2a9e8e3983d {
        stroke: #1998ff;
      }

      .ab1f9347-76a8-4d32-a2f8-849c7614d83c, .e30564fe-8ae3-439b-aa3c-5fdbd6be28f7 {
        fill: #75828e;
      }

      .e30564fe-8ae3-439b-aa3c-5fdbd6be28f7 {
        stroke: #75828e;
        stroke-width: 0.3px;
      }

      .f6e7d379-ada3-41db-b1ec-d8f7bf63e397 {
        opacity: 0.3;
      }

      .b3a2ed36-2850-4c6f-afa0-48928bdbe7df {
        opacity: 0.5;
      }

      .bc2b3045-7ccd-4c75-b412-c62e648c5058 {
        opacity: 0.7;
      }
    </style>
    <pattern id="b93e93ff-05d3-45a6-a336-1745a3ebd242" data-name="Docs Polka Background" width="60" height="60" patternTransform="translate(515.88 848.85) scale(0.87 0.65)" patternUnits="userSpaceOnUse" viewBox="0 0 60 60">
      <rect class="a3fc1c00-0153-41bb-9136-d11824066888" width="60" height="60"/>
      <circle class="b2348e80-6c41-4ccb-815c-96aa1b77e70d" cx="30" cy="30" r="2.47"/>
    </pattern>
  </defs>
  <g id="bf275e95-57c2-4e27-a84d-d1e41de98647" data-name="Layer 2">
    <rect class="ecf83eb5-d218-4d0f-aaa9-566046d5e3d0" x="3.54" y="3.74" width="1305.22" height="651.58"/>
  </g>
  <g id="b6d25e6d-d1c8-450c-8b86-cf43b866bed3" data-name="Layer 1">
    <g>
      <rect class="e0f1bea9-150b-4475-a446-581a5c0a7a25" x="764.48" y="237.15" width="247.65" height="99.83" rx="19.88"/>
      <path class="ba96d68e-6c9e-4c6b-8dec-d66ea465357e" d="M992.25,338H784.36a20.9,20.9,0,0,1-20.88-20.87V257a20.91,20.91,0,0,1,20.88-20.88H992.25A20.91,20.91,0,0,1,1013.13,257v60.08A20.9,20.9,0,0,1,992.25,338ZM784.36,238.15A18.9,18.9,0,0,0,765.48,257v60.08A18.89,18.89,0,0,0,784.36,336H992.25a18.89,18.89,0,0,0,18.88-18.87V257a18.9,18.9,0,0,0-18.88-18.88Z"/>
    </g>
    <g>
      <path class="fd3a4061-31ed-4455-a42a-661060ebae7f" d="M827.1,290.24v6.35h-2v-16.8h4.62a6.09,6.09,0,0,1,4.17,1.31,4.69,4.69,0,0,1,1.49,3.7,5.1,5.1,0,0,1-1.65,3.92,6.32,6.32,0,0,1-4.45,1.52Zm0-8.67v6.89h2.06a4.6,4.6,0,0,0,3.11-.93,3.28,3.28,0,0,0,1.07-2.63q0-3.33-3.93-3.33Z"/>
      <path class="fd3a4061-31ed-4455-a42a-661060ebae7f" d="M844.57,286.54a2.32,2.32,0,0,0-1.45-.39,2.47,2.47,0,0,0-2.06,1.16,5.37,5.37,0,0,0-.82,3.17v6.11h-1.93v-12h1.93v2.47h0a4.18,4.18,0,0,1,1.26-2,2.86,2.86,0,0,1,1.88-.71,3.09,3.09,0,0,1,1.15.17Z"/>
      <path class="fd3a4061-31ed-4455-a42a-661060ebae7f" d="M847.64,281.55a1.21,1.21,0,0,1-.88-.36,1.28,1.28,0,0,1,0-1.78,1.21,1.21,0,0,1,.88-.36,1.25,1.25,0,0,1,.9.36,1.24,1.24,0,0,1,0,1.77A1.26,1.26,0,0,1,847.64,281.55Zm.94,15h-1.92v-12h1.92Z"/>
      <path class="fd3a4061-31ed-4455-a42a-661060ebae7f" d="M861.9,284.59l-4.78,12h-1.88l-4.55-12h2.11l3,8.72a8,8,0,0,1,.43,1.68h0a8.13,8.13,0,0,1,.38-1.63l3.19-8.77Z"/>
      <path class="fd3a4061-31ed-4455-a42a-661060ebae7f" d="M872.12,296.59H870.2v-1.87h-.05a4,4,0,0,1-3.69,2.15,3.9,3.9,0,0,1-2.8-.95,3.27,3.27,0,0,1-1-2.52q0-3.36,4-3.91l3.6-.5c0-2-.82-3.06-2.47-3.06a5.94,5.94,0,0,0-3.92,1.47v-2a7.44,7.44,0,0,1,4.08-1.13q4.23,0,4.23,4.48Zm-1.92-6.07-2.89.4a4.82,4.82,0,0,0-2,.66,1.92,1.92,0,0,0-.68,1.68,1.83,1.83,0,0,0,.63,1.44,2.43,2.43,0,0,0,1.67.56,3.08,3.08,0,0,0,2.36-1,3.56,3.56,0,0,0,.93-2.53Z"/>
      <path class="fd3a4061-31ed-4455-a42a-661060ebae7f" d="M881.31,296.48a3.69,3.69,0,0,1-1.79.37q-3.16,0-3.16-3.52v-7.1H874.3v-1.64h2.06v-2.93l1.93-.62v3.55h3v1.64h-3V293a2.79,2.79,0,0,0,.41,1.73,1.63,1.63,0,0,0,1.36.51,2,2,0,0,0,1.25-.4Z"/>
      <path class="fd3a4061-31ed-4455-a42a-661060ebae7f" d="M893.33,291.07h-8.47a4.49,4.49,0,0,0,1.08,3.1,3.74,3.74,0,0,0,2.83,1.09,5.89,5.89,0,0,0,3.73-1.34v1.81a7,7,0,0,1-4.18,1.14,5.07,5.07,0,0,1-4-1.63,6.68,6.68,0,0,1-1.45-4.6,6.57,6.57,0,0,1,1.59-4.57,5.09,5.09,0,0,1,3.94-1.76,4.52,4.52,0,0,1,3.64,1.52,6.36,6.36,0,0,1,1.29,4.23Zm-2-1.63a3.86,3.86,0,0,0-.8-2.59,2.76,2.76,0,0,0-2.2-.92,3.08,3.08,0,0,0-2.3,1,4.4,4.4,0,0,0-1.18,2.54Z"/>
      <path class="fd3a4061-31ed-4455-a42a-661060ebae7f" d="M902.29,295.91v-2.32a4.26,4.26,0,0,0,1,.64,8.65,8.65,0,0,0,1.17.47,9.31,9.31,0,0,0,1.24.3,6.88,6.88,0,0,0,1.15.1,4.49,4.49,0,0,0,2.71-.67,2.28,2.28,0,0,0,.9-1.94,2.25,2.25,0,0,0-.3-1.18,3.26,3.26,0,0,0-.83-.92,7.7,7.7,0,0,0-1.25-.8l-1.55-.8c-.58-.3-1.13-.6-1.64-.9a7.39,7.39,0,0,1-1.32-1,4.33,4.33,0,0,1-.89-1.25,4,4,0,0,1-.32-1.64,3.87,3.87,0,0,1,.5-2,4.24,4.24,0,0,1,1.33-1.4,5.87,5.87,0,0,1,1.87-.82,8.54,8.54,0,0,1,2.14-.27,8.36,8.36,0,0,1,3.62.59v2.22a6.57,6.57,0,0,0-3.82-1,6.27,6.27,0,0,0-1.29.13,3.67,3.67,0,0,0-1.15.44,2.48,2.48,0,0,0-.82.79,2.09,2.09,0,0,0-.32,1.17,2.39,2.39,0,0,0,.24,1.11,2.83,2.83,0,0,0,.71.86,6.62,6.62,0,0,0,1.14.75c.45.24,1,.51,1.56.79s1.17.61,1.71.94a8,8,0,0,1,1.42,1.09,5,5,0,0,1,1,1.33,3.68,3.68,0,0,1,.36,1.66,4.13,4.13,0,0,1-.49,2.1,3.91,3.91,0,0,1-1.31,1.4,5.68,5.68,0,0,1-1.9.78,10.49,10.49,0,0,1-2.28.24c-.26,0-.59,0-1-.06s-.79-.11-1.2-.19a9.65,9.65,0,0,1-1.15-.3A3.37,3.37,0,0,1,902.29,295.91Z"/>
      <path class="fd3a4061-31ed-4455-a42a-661060ebae7f" d="M920.36,296.48a3.74,3.74,0,0,1-1.8.37q-3.15,0-3.15-3.52v-7.1h-2.06v-1.64h2.06v-2.93l1.92-.62v3.55h3v1.64h-3V293a2.85,2.85,0,0,0,.41,1.73,1.66,1.66,0,0,0,1.36.51,2,2,0,0,0,1.26-.4Z"/>
      <path class="fd3a4061-31ed-4455-a42a-661060ebae7f" d="M931.51,296.59h-1.92v-1.87h-.05a4,4,0,0,1-3.69,2.15,3.9,3.9,0,0,1-2.8-.95,3.27,3.27,0,0,1-1-2.52q0-3.36,4-3.91l3.6-.5c0-2-.82-3.06-2.47-3.06a5.94,5.94,0,0,0-3.92,1.47v-2a7.44,7.44,0,0,1,4.08-1.13q4.23,0,4.23,4.48Zm-1.92-6.07-2.89.4a4.87,4.87,0,0,0-2,.66,1.92,1.92,0,0,0-.68,1.68,1.83,1.83,0,0,0,.63,1.44,2.43,2.43,0,0,0,1.67.56,3.08,3.08,0,0,0,2.36-1,3.56,3.56,0,0,0,.93-2.53Z"/>
      <path class="fd3a4061-31ed-4455-a42a-661060ebae7f" d="M940.7,296.48a3.69,3.69,0,0,1-1.79.37c-2.1,0-3.16-1.17-3.16-3.52v-7.1h-2.06v-1.64h2.06v-2.93l1.93-.62v3.55h3v1.64h-3V293a2.79,2.79,0,0,0,.41,1.73,1.63,1.63,0,0,0,1.36.51,2,2,0,0,0,1.25-.4Z"/>
      <path class="fd3a4061-31ed-4455-a42a-661060ebae7f" d="M952.72,291.07h-8.47a4.49,4.49,0,0,0,1.08,3.1,3.74,3.74,0,0,0,2.83,1.09,5.89,5.89,0,0,0,3.73-1.34v1.81a7,7,0,0,1-4.18,1.14,5.07,5.07,0,0,1-4-1.63,6.68,6.68,0,0,1-1.45-4.6,6.57,6.57,0,0,1,1.59-4.57,5.1,5.1,0,0,1,3.94-1.76,4.52,4.52,0,0,1,3.64,1.52,6.36,6.36,0,0,1,1.29,4.23Zm-2-1.63a3.86,3.86,0,0,0-.8-2.59,2.76,2.76,0,0,0-2.2-.92,3.08,3.08,0,0,0-2.3,1,4.4,4.4,0,0,0-1.18,2.54Z"/>
    </g>
    <g>
      <path class="ba8c094b-5abc-48fd-91ea-d2a9e8e3983d" d="M301.32,111.75h-2v-7.67h-8.7v7.67h-2V94.94h2v7.37h8.7V94.94h2Z"/>
      <path class="ba8c094b-5abc-48fd-91ea-d2a9e8e3983d" d="M315.17,111.75h-1.92v-1.9h-.05a4,4,0,0,1-3.7,2.18q-4.29,0-4.29-5.11V99.75h1.91v6.86c0,2.54,1,3.8,2.9,3.8a2.93,2.93,0,0,0,2.32-1,4,4,0,0,0,.91-2.71V99.75h1.92Z"/>
      <path class="ba8c094b-5abc-48fd-91ea-d2a9e8e3983d" d="M336.09,111.75h-1.93v-6.89a5.24,5.24,0,0,0-.61-2.89,2.34,2.34,0,0,0-2.07-.89,2.56,2.56,0,0,0-2.09,1.13,4.27,4.27,0,0,0-.86,2.69v6.85h-1.92v-7.13q0-3.54-2.74-3.54a2.55,2.55,0,0,0-2.08,1.06,4.38,4.38,0,0,0-.82,2.76v6.85h-1.92v-12H321v1.9h0a4.06,4.06,0,0,1,3.72-2.18,3.44,3.44,0,0,1,3.4,2.48,4.27,4.27,0,0,1,4-2.48q4,0,4,4.88Z"/>
      <path class="ba8c094b-5abc-48fd-91ea-d2a9e8e3983d" d="M348.31,111.75h-1.92v-1.88h-.05a4,4,0,0,1-3.69,2.16,4,4,0,0,1-2.81-1,3.3,3.3,0,0,1-1-2.52c0-2.24,1.32-3.55,4-3.91l3.6-.51c0-2-.83-3.06-2.48-3.06a5.93,5.93,0,0,0-3.91,1.48v-2a7.44,7.44,0,0,1,4.08-1.12q4.23,0,4.23,4.47Zm-1.92-6.07-2.9.4a4.55,4.55,0,0,0-2,.66,1.88,1.88,0,0,0-.68,1.68,1.83,1.83,0,0,0,.62,1.43,2.39,2.39,0,0,0,1.67.56,3.06,3.06,0,0,0,2.36-1,3.55,3.55,0,0,0,.94-2.54Z"/>
      <path class="ba8c094b-5abc-48fd-91ea-d2a9e8e3983d" d="M361.89,111.75H360V104.9c0-2.54-.93-3.82-2.79-3.82a3,3,0,0,0-2.39,1.09,4,4,0,0,0-.94,2.73v6.85h-1.92v-12h1.92v2h0a4.32,4.32,0,0,1,3.94-2.27,3.67,3.67,0,0,1,3,1.27,5.69,5.69,0,0,1,1,3.67Z"/>
      <path class="ba8c094b-5abc-48fd-91ea-d2a9e8e3983d" d="M376,94.94v1.69h-1.64v13.43H376v1.69H370.7v-1.69h1.64V96.63H370.7V94.94Z"/>
      <path class="ba8c094b-5abc-48fd-91ea-d2a9e8e3983d" d="M388.43,111.75h-1.92V104.9c0-2.54-.93-3.82-2.79-3.82a3,3,0,0,0-2.38,1.09,4,4,0,0,0-.95,2.73v6.85h-1.92v-12h1.92v2h.05a4.33,4.33,0,0,1,3.94-2.27,3.66,3.66,0,0,1,3,1.27,5.63,5.63,0,0,1,1,3.67Z"/>
      <path class="ba8c094b-5abc-48fd-91ea-d2a9e8e3983d" d="M394,110h0v7.26h-1.93V99.75H394v2.11h0a4.54,4.54,0,0,1,4.15-2.39,4.36,4.36,0,0,1,3.62,1.61,6.64,6.64,0,0,1,1.3,4.32,7.43,7.43,0,0,1-1.46,4.82,4.87,4.87,0,0,1-4,1.81A4,4,0,0,1,394,110Zm0-4.84v1.68a3.57,3.57,0,0,0,1,2.52,3.45,3.45,0,0,0,5.19-.29,6.14,6.14,0,0,0,1-3.72,4.82,4.82,0,0,0-.92-3.14,3.06,3.06,0,0,0-2.51-1.14,3.39,3.39,0,0,0-2.69,1.17A4.28,4.28,0,0,0,394,105.17Z"/>
      <path class="ba8c094b-5abc-48fd-91ea-d2a9e8e3983d" d="M415.87,111.75H414v-1.9h-.05a4,4,0,0,1-3.7,2.18q-4.29,0-4.29-5.11V99.75h1.91v6.86c0,2.54,1,3.8,2.9,3.8a2.93,2.93,0,0,0,2.32-1,4,4,0,0,0,.91-2.71V99.75h1.92Z"/>
      <path class="ba8c094b-5abc-48fd-91ea-d2a9e8e3983d" d="M425.31,111.63a3.69,3.69,0,0,1-1.79.38c-2.1,0-3.15-1.18-3.15-3.52v-7.1H418.3V99.75h2.07V96.82l1.92-.62v3.55h3v1.64h-3v6.76a2.82,2.82,0,0,0,.41,1.72,1.62,1.62,0,0,0,1.36.52,2,2,0,0,0,1.25-.4Z"/>
    </g>
    <g>
      <path class="ba8c094b-5abc-48fd-91ea-d2a9e8e3983d" d="M829.53,105q0,7.08-6.39,7.08-6.12,0-6.12-6.81V94.94h2v10.15q0,5.18,4.36,5.17c2.8,0,4.21-1.66,4.21-5V94.94h2Z"/>
      <path class="ba8c094b-5abc-48fd-91ea-d2a9e8e3983d" d="M832.74,111.31v-2.06a5.69,5.69,0,0,0,3.45,1.16c1.69,0,2.53-.56,2.53-1.69a1.48,1.48,0,0,0-.21-.81,2.21,2.21,0,0,0-.59-.59,4.41,4.41,0,0,0-.87-.47l-1.07-.42a14.58,14.58,0,0,1-1.4-.64,4.45,4.45,0,0,1-1-.73,2.69,2.69,0,0,1-.61-.92,3.35,3.35,0,0,1-.2-1.2,2.84,2.84,0,0,1,.39-1.5,3.34,3.34,0,0,1,1-1.09,4.92,4.92,0,0,1,1.47-.66,6.45,6.45,0,0,1,1.7-.22,6.87,6.87,0,0,1,2.79.54V102a5.41,5.41,0,0,0-3-.87,3.32,3.32,0,0,0-1,.13,2.29,2.29,0,0,0-.74.34,1.54,1.54,0,0,0-.48.54,1.3,1.3,0,0,0-.17.68,1.59,1.59,0,0,0,.17.79,1.75,1.75,0,0,0,.5.56,3.64,3.64,0,0,0,.79.44l1.07.44a15.28,15.28,0,0,1,1.43.62,5.23,5.23,0,0,1,1.08.73,2.94,2.94,0,0,1,.68.93,3,3,0,0,1,.24,1.26,2.94,2.94,0,0,1-.39,1.54,3.31,3.31,0,0,1-1,1.09,4.79,4.79,0,0,1-1.51.65A7.5,7.5,0,0,1,836,112,6.73,6.73,0,0,1,832.74,111.31Z"/>
      <path class="ba8c094b-5abc-48fd-91ea-d2a9e8e3983d" d="M853.29,106.23h-8.47a4.46,4.46,0,0,0,1.08,3.09,3.68,3.68,0,0,0,2.83,1.09,5.9,5.9,0,0,0,3.73-1.33v1.8a6.94,6.94,0,0,1-4.18,1.15,5.08,5.08,0,0,1-4-1.64,6.68,6.68,0,0,1-1.45-4.6,6.61,6.61,0,0,1,1.58-4.56,5.09,5.09,0,0,1,4-1.76A4.49,4.49,0,0,1,852,101a6.36,6.36,0,0,1,1.29,4.23Zm-2-1.63a3.91,3.91,0,0,0-.8-2.59,2.74,2.74,0,0,0-2.2-.93,3.13,3.13,0,0,0-2.31,1,4.4,4.4,0,0,0-1.17,2.54Z"/>
      <path class="ba8c094b-5abc-48fd-91ea-d2a9e8e3983d" d="M862.45,101.69a2.39,2.39,0,0,0-1.45-.38,2.43,2.43,0,0,0-2,1.16,5.27,5.27,0,0,0-.83,3.16v6.12H856.2v-12h1.92v2.47h0a4.17,4.17,0,0,1,1.25-2,2.82,2.82,0,0,1,1.89-.71,3.07,3.07,0,0,1,1.14.16Z"/>
      <path class="ba8c094b-5abc-48fd-91ea-d2a9e8e3983d" d="M875,94.94v1.69h-1.64v13.43H875v1.69h-5.25v-1.69h1.64V96.63h-1.64V94.94Z"/>
      <path class="ba8c094b-5abc-48fd-91ea-d2a9e8e3983d" d="M887.46,111.75h-1.92V104.9c0-2.54-.93-3.82-2.79-3.82a3,3,0,0,0-2.38,1.09,4,4,0,0,0-1,2.73v6.85H877.5v-12h1.92v2h.05a4.33,4.33,0,0,1,3.94-2.27,3.67,3.67,0,0,1,3,1.27,5.69,5.69,0,0,1,1,3.67Z"/>
      <path class="ba8c094b-5abc-48fd-91ea-d2a9e8e3983d" d="M896.65,111.63a3.69,3.69,0,0,1-1.79.38c-2.1,0-3.16-1.18-3.16-3.52v-7.1h-2.06V99.75h2.06V96.82l1.93-.62v3.55h3v1.64h-3v6.76a2.75,2.75,0,0,0,.41,1.72,1.61,1.61,0,0,0,1.36.52,2,2,0,0,0,1.25-.4Z"/>
      <path class="ba8c094b-5abc-48fd-91ea-d2a9e8e3983d" d="M908.67,106.23H900.2a4.46,4.46,0,0,0,1.08,3.09,3.7,3.7,0,0,0,2.83,1.09,5.88,5.88,0,0,0,3.73-1.33v1.8a6.92,6.92,0,0,1-4.18,1.15,5.08,5.08,0,0,1-4-1.64,6.68,6.68,0,0,1-1.45-4.6,6.56,6.56,0,0,1,1.59-4.56,5.07,5.07,0,0,1,3.94-1.76,4.47,4.47,0,0,1,3.64,1.52,6.36,6.36,0,0,1,1.29,4.23Zm-2-1.63a3.86,3.86,0,0,0-.8-2.59,2.74,2.74,0,0,0-2.2-.93,3.09,3.09,0,0,0-2.3,1,4.34,4.34,0,0,0-1.18,2.54Z"/>
      <path class="ba8c094b-5abc-48fd-91ea-d2a9e8e3983d" d="M917.84,101.69a2.58,2.58,0,0,0-3.51.78,5.34,5.34,0,0,0-.83,3.16v6.12h-1.92v-12h1.92v2.47h0a4.17,4.17,0,0,1,1.25-2,2.82,2.82,0,0,1,1.89-.71,3.16,3.16,0,0,1,1.15.16Z"/>
      <path class="ba8c094b-5abc-48fd-91ea-d2a9e8e3983d" d="M926.31,95.67a2.56,2.56,0,0,0-1.28-.32q-2,0-2,2.55v1.85h2.81v1.64H923v10.36h-1.91V101.39h-2.05V99.75h2.05v-2a4,4,0,0,1,1.09-3,3.67,3.67,0,0,1,2.72-1.1,3.55,3.55,0,0,1,1.39.22Z"/>
      <path class="ba8c094b-5abc-48fd-91ea-d2a9e8e3983d" d="M936.48,111.75h-1.92v-1.88h0a4,4,0,0,1-3.69,2.16,3.94,3.94,0,0,1-2.8-1,3.27,3.27,0,0,1-1-2.52c0-2.24,1.32-3.55,4-3.91l3.6-.51c0-2-.82-3.06-2.47-3.06a6,6,0,0,0-3.92,1.48v-2a7.44,7.44,0,0,1,4.08-1.12q4.23,0,4.23,4.47Zm-1.92-6.07-2.89.4a4.6,4.6,0,0,0-2,.66,1.9,1.9,0,0,0-.68,1.68,1.81,1.81,0,0,0,.63,1.43,2.38,2.38,0,0,0,1.67.56,3.08,3.08,0,0,0,2.36-1,3.58,3.58,0,0,0,.93-2.54Z"/>
      <path class="ba8c094b-5abc-48fd-91ea-d2a9e8e3983d" d="M948.28,111.2A6.27,6.27,0,0,1,945,112a5.44,5.44,0,0,1-4.14-1.67,6.06,6.06,0,0,1-1.58-4.33,6.64,6.64,0,0,1,1.7-4.76,6,6,0,0,1,4.54-1.8,6.36,6.36,0,0,1,2.79.58v2a4.94,4.94,0,0,0-2.86-.94,3.85,3.85,0,0,0-3,1.32,5,5,0,0,0-1.18,3.46,4.75,4.75,0,0,0,1.11,3.33,3.8,3.8,0,0,0,3,1.22,4.83,4.83,0,0,0,2.95-1Z"/>
      <path class="ba8c094b-5abc-48fd-91ea-d2a9e8e3983d" d="M960.83,106.23h-8.47a4.46,4.46,0,0,0,1.08,3.09,3.71,3.71,0,0,0,2.84,1.09,5.87,5.87,0,0,0,3.72-1.33v1.8a6.92,6.92,0,0,1-4.18,1.15,5.08,5.08,0,0,1-4-1.64,6.68,6.68,0,0,1-1.45-4.6,6.56,6.56,0,0,1,1.59-4.56,5.07,5.07,0,0,1,3.94-1.76,4.47,4.47,0,0,1,3.64,1.52,6.36,6.36,0,0,1,1.29,4.23Zm-2-1.63a3.86,3.86,0,0,0-.8-2.59,2.74,2.74,0,0,0-2.2-.93,3.09,3.09,0,0,0-2.3,1,4.34,4.34,0,0,0-1.18,2.54Z"/>
    </g>
    <g>
      <rect class="e0f1bea9-150b-4475-a446-581a5c0a7a25" x="254.8" y="248.43" width="176.94" height="77.73"/>
      <path class="b9bb263c-656b-42a9-ada6-3236ea98e0bc" d="M432.74,327.16H253.8V247.43H432.74Zm-176.94-2H430.74V249.43H255.8Z"/>
    </g>
    <g>
      <path class="ba8c094b-5abc-48fd-91ea-d2a9e8e3983d" d="M281.32,297.1a5.57,5.57,0,0,1-4.25-1.68,6.23,6.23,0,0,1-1.59-4.46,6.48,6.48,0,0,1,1.65-4.72,5.92,5.92,0,0,1,4.47-1.7,5.39,5.39,0,0,1,4.19,1.65,6.57,6.57,0,0,1,1.5,4.58,6.44,6.44,0,0,1-1.62,4.6A5.69,5.69,0,0,1,281.32,297.1Zm.14-11a3.64,3.64,0,0,0-2.93,1.26,5.18,5.18,0,0,0-1.08,3.48,4.87,4.87,0,0,0,1.09,3.36,3.7,3.7,0,0,0,2.92,1.23,3.52,3.52,0,0,0,2.86-1.2,5.24,5.24,0,0,0,1-3.44,5.33,5.33,0,0,0-1-3.47A3.5,3.5,0,0,0,281.46,286.15Z"/>
      <path class="ba8c094b-5abc-48fd-91ea-d2a9e8e3983d" d="M300.32,296.82H298.4V290q0-3.83-2.79-3.83a3,3,0,0,0-2.38,1.09,4,4,0,0,0-1,2.74v6.84h-1.92v-12h1.92v2h.05a4.34,4.34,0,0,1,3.94-2.27,3.67,3.67,0,0,1,3,1.27,5.63,5.63,0,0,1,1,3.67Z"/>
      <path class="ba8c094b-5abc-48fd-91ea-d2a9e8e3983d" d="M315.64,296.12a9.93,9.93,0,0,1-4.64,1,7.47,7.47,0,0,1-5.74-2.31,8.51,8.51,0,0,1-2.16-6.06,8.91,8.91,0,0,1,2.43-6.51,8.2,8.2,0,0,1,6.15-2.49,9.9,9.9,0,0,1,4,.69v2.1a8,8,0,0,0-4-1,6.13,6.13,0,0,0-4.7,1.94,7.28,7.28,0,0,0-1.8,5.17,7,7,0,0,0,1.68,4.89,5.77,5.77,0,0,0,4.42,1.82,8.27,8.27,0,0,0,4.38-1.12Z"/>
      <path class="ba8c094b-5abc-48fd-91ea-d2a9e8e3983d" d="M323.82,297.1a5.58,5.58,0,0,1-4.25-1.68A6.23,6.23,0,0,1,318,291a6.44,6.44,0,0,1,1.66-4.72,5.91,5.91,0,0,1,4.46-1.7,5.38,5.38,0,0,1,4.19,1.65,6.57,6.57,0,0,1,1.51,4.58,6.45,6.45,0,0,1-1.63,4.6A5.69,5.69,0,0,1,323.82,297.1Zm.14-11a3.66,3.66,0,0,0-2.93,1.26,5.18,5.18,0,0,0-1.08,3.48,4.92,4.92,0,0,0,1.09,3.36,3.71,3.71,0,0,0,2.92,1.23,3.5,3.5,0,0,0,2.86-1.2,5.25,5.25,0,0,0,1-3.44,5.33,5.33,0,0,0-1-3.47A3.49,3.49,0,0,0,324,286.15Z"/>
      <path class="ba8c094b-5abc-48fd-91ea-d2a9e8e3983d" d="M349.91,296.82H348v-6.89a5.18,5.18,0,0,0-.61-2.88,2.32,2.32,0,0,0-2.07-.9,2.56,2.56,0,0,0-2.09,1.13,4.28,4.28,0,0,0-.86,2.7v6.84h-1.93v-7.13q0-3.54-2.73-3.54a2.53,2.53,0,0,0-2.08,1.07,4.34,4.34,0,0,0-.82,2.76v6.84h-1.92v-12h1.92v1.9h0a4.08,4.08,0,0,1,3.73-2.18,3.53,3.53,0,0,1,2.15.68A3.48,3.48,0,0,1,342,287a4.29,4.29,0,0,1,4-2.48c2.64,0,4,1.63,4,4.88Z"/>
      <path class="ba8c094b-5abc-48fd-91ea-d2a9e8e3983d" d="M370.58,296.82h-1.92v-6.89a5.17,5.17,0,0,0-.62-2.88,2.32,2.32,0,0,0-2.07-.9,2.56,2.56,0,0,0-2.09,1.13A4.34,4.34,0,0,0,363,290v6.84H361.1v-7.13q0-3.54-2.73-3.54a2.53,2.53,0,0,0-2.09,1.07,4.34,4.34,0,0,0-.82,2.76v6.84h-1.92v-12h1.92v1.9h.05a4.06,4.06,0,0,1,3.72-2.18,3.53,3.53,0,0,1,2.15.68,3.42,3.42,0,0,1,1.25,1.8,4.29,4.29,0,0,1,4-2.48q4,0,4,4.88Z"/>
      <path class="ba8c094b-5abc-48fd-91ea-d2a9e8e3983d" d="M382.8,296.82h-1.92v-1.88h-.05a4,4,0,0,1-3.69,2.16,4,4,0,0,1-2.81-1,3.3,3.3,0,0,1-1-2.52c0-2.24,1.32-3.55,4-3.91l3.6-.51c0-2-.83-3.06-2.47-3.06a6,6,0,0,0-3.92,1.48v-2a7.44,7.44,0,0,1,4.08-1.12q4.23,0,4.23,4.47Zm-1.92-6.07-2.9.4a4.55,4.55,0,0,0-2,.66,1.9,1.9,0,0,0-.68,1.68,1.85,1.85,0,0,0,.62,1.44,2.44,2.44,0,0,0,1.67.55,3.1,3.1,0,0,0,2.37-1,3.58,3.58,0,0,0,.93-2.54Z"/>
      <path class="ba8c094b-5abc-48fd-91ea-d2a9e8e3983d" d="M396.38,296.82h-1.92V290q0-3.83-2.79-3.83a3,3,0,0,0-2.38,1.09,4,4,0,0,0-1,2.74v6.84h-1.92v-12h1.92v2h.05a4.34,4.34,0,0,1,3.94-2.27,3.67,3.67,0,0,1,3,1.27,5.69,5.69,0,0,1,1,3.67Z"/>
      <path class="ba8c094b-5abc-48fd-91ea-d2a9e8e3983d" d="M410.24,296.82h-1.92v-2h0a4.84,4.84,0,0,1-7.74.71,6.59,6.59,0,0,1-1.36-4.39,7.21,7.21,0,0,1,1.5-4.77,5,5,0,0,1,4-1.79,3.86,3.86,0,0,1,3.6,1.94h0v-7.43h1.92Zm-1.92-5.43v-1.77a3.43,3.43,0,0,0-1-2.46,3.23,3.23,0,0,0-2.44-1,3.31,3.31,0,0,0-2.76,1.29,5.68,5.68,0,0,0-1,3.57,5,5,0,0,0,1,3.27,3.15,3.15,0,0,0,2.59,1.2,3.27,3.27,0,0,0,2.61-1.16A4.31,4.31,0,0,0,408.32,291.39Z"/>
    </g>
    <g>
      <path class="e30564fe-8ae3-439b-aa3c-5fdbd6be28f7" d="M519.89,498.7h-7.42v-14h7.11v1.49h-5.47v4.66h5.06v1.47h-5.06v4.9h5.78Z"/>
      <path class="e30564fe-8ae3-439b-aa3c-5fdbd6be28f7" d="M534,484.69l-5.19,14H527l-5.07-14h1.82l3.88,11.11a6.5,6.5,0,0,1,.28,1.24h0a6.14,6.14,0,0,1,.32-1.26l4-11.09Z"/>
      <path class="e30564fe-8ae3-439b-aa3c-5fdbd6be28f7" d="M544.43,498.7H537v-14h7.11v1.49h-5.47v4.66h5.06v1.47h-5.06v4.9h5.78Z"/>
      <path class="e30564fe-8ae3-439b-aa3c-5fdbd6be28f7" d="M559.41,498.7h-2l-7.2-11.16a4.07,4.07,0,0,1-.45-.88h-.06a14.65,14.65,0,0,1,.08,1.92V498.7h-1.64v-14h2.12l7,11c.29.46.48.77.56.94h0a15.52,15.52,0,0,1-.1-2.06v-9.87h1.64Z"/>
      <path class="e30564fe-8ae3-439b-aa3c-5fdbd6be28f7" d="M572.37,486.18h-4V498.7h-1.64V486.18h-4v-1.49h9.72Z"/>
      <path class="e30564fe-8ae3-439b-aa3c-5fdbd6be28f7" d="M574.91,498.13V496.2a4.11,4.11,0,0,0,.8.53,7.55,7.55,0,0,0,1,.39,7.72,7.72,0,0,0,1,.25,5.72,5.72,0,0,0,1,.09,3.78,3.78,0,0,0,2.26-.56,1.91,1.91,0,0,0,.75-1.62,2,2,0,0,0-.25-1,2.89,2.89,0,0,0-.69-.76,7.5,7.5,0,0,0-1-.67l-1.29-.67c-.49-.24-.95-.49-1.37-.75a5.6,5.6,0,0,1-1.1-.84,3.3,3.3,0,0,1-.74-1,3.52,3.52,0,0,1,.15-3,3.52,3.52,0,0,1,1.1-1.17,4.77,4.77,0,0,1,1.56-.68,7.12,7.12,0,0,1,1.78-.23,6.86,6.86,0,0,1,3,.5v1.84a5.5,5.5,0,0,0-3.18-.86,5,5,0,0,0-1.08.12,2.93,2.93,0,0,0-.95.36,2.18,2.18,0,0,0-.69.66,1.75,1.75,0,0,0-.26,1,2.06,2.06,0,0,0,.2.93,2.17,2.17,0,0,0,.59.71,5.59,5.59,0,0,0,.95.63l1.3.66c.5.25,1,.51,1.42.79a6.43,6.43,0,0,1,1.18.9,4.11,4.11,0,0,1,.81,1.11,3,3,0,0,1,.3,1.38,3.55,3.55,0,0,1-.41,1.76,3.36,3.36,0,0,1-1.09,1.16,4.71,4.71,0,0,1-1.59.65,8.3,8.3,0,0,1-1.89.2,6.6,6.6,0,0,1-.82-.05c-.33,0-.66-.09-1-.16a8.39,8.39,0,0,1-1-.25A2.77,2.77,0,0,1,574.91,498.13Z"/>
    </g>
    <g>
      <path class="e30564fe-8ae3-439b-aa3c-5fdbd6be28f7" d="M574.45,278.42v-1.93a4,4,0,0,0,.79.53,7.52,7.52,0,0,0,2,.64,5.63,5.63,0,0,0,1,.09,3.78,3.78,0,0,0,2.26-.56,1.91,1.91,0,0,0,.75-1.62,2,2,0,0,0-.25-1,2.89,2.89,0,0,0-.69-.76,6.68,6.68,0,0,0-1-.67l-1.3-.67c-.48-.24-.94-.49-1.36-.75a5.67,5.67,0,0,1-1.11-.84,3.43,3.43,0,0,1-.73-1,3.54,3.54,0,0,1,.15-3,3.59,3.59,0,0,1,1.1-1.16,5,5,0,0,1,1.56-.69,7.11,7.11,0,0,1,1.78-.22,6.86,6.86,0,0,1,3,.5v1.84a5.51,5.51,0,0,0-3.19-.86,4.94,4.94,0,0,0-1.07.12,2.9,2.9,0,0,0-1,.36,2.14,2.14,0,0,0-.68.66,1.67,1.67,0,0,0-.26,1,1.93,1.93,0,0,0,.2.93,2.17,2.17,0,0,0,.59.71,5.22,5.22,0,0,0,.95.63c.37.2.81.42,1.29.66s1,.51,1.43.78a7,7,0,0,1,1.18.91,4,4,0,0,1,.81,1.11,3,3,0,0,1,.29,1.38,3.55,3.55,0,0,1-.4,1.76,3.46,3.46,0,0,1-1.09,1.16,4.71,4.71,0,0,1-1.59.65,8.33,8.33,0,0,1-1.9.2c-.22,0-.49,0-.82-.05s-.65-.09-1-.16a8.39,8.39,0,0,1-1-.25A2.62,2.62,0,0,1,574.45,278.42Z"/>
      <path class="e30564fe-8ae3-439b-aa3c-5fdbd6be28f7" d="M595,266.47h-4V279h-1.65V266.47h-4V265H595Z"/>
      <path class="e30564fe-8ae3-439b-aa3c-5fdbd6be28f7" d="M607.54,279h-1.81l-1.49-3.93H598.3L596.91,279h-1.83l5.37-14h1.7Zm-3.84-5.4-2.19-6a4.68,4.68,0,0,1-.22-.94h0a5.26,5.26,0,0,1-.22.94l-2.18,6Z"/>
      <path class="e30564fe-8ae3-439b-aa3c-5fdbd6be28f7" d="M617.45,266.47h-4V279h-1.65V266.47h-4V265h9.72Z"/>
      <path class="e30564fe-8ae3-439b-aa3c-5fdbd6be28f7" d="M628.07,279h-7.42V265h7.1v1.49h-5.46v4.66h5.05v1.47h-5.05v4.9h5.78Z"/>
    </g>
    <g class="f6e7d379-ada3-41db-b1ec-d8f7bf63e397">
      <rect class="e0f1bea9-150b-4475-a446-581a5c0a7a25" x="736.12" y="439.2" width="338.91" height="103.27" rx="19.88"/>
      <path class="ba96d68e-6c9e-4c6b-8dec-d66ea465357e" d="M1055.16,543.47H756a20.91,20.91,0,0,1-20.88-20.88V459.07A20.9,20.9,0,0,1,756,438.2h299.16A20.89,20.89,0,0,1,1076,459.07v63.52A20.9,20.9,0,0,1,1055.16,543.47ZM756,440.2a18.89,18.89,0,0,0-18.88,18.87v63.52A18.9,18.9,0,0,0,756,541.47h299.16A18.9,18.9,0,0,0,1074,522.59V459.07a18.89,18.89,0,0,0-18.87-18.87Z"/>
    </g>
    <g class="b3a2ed36-2850-4c6f-afa0-48928bdbe7df">
      <rect class="e0f1bea9-150b-4475-a446-581a5c0a7a25" x="730.12" y="445.2" width="338.91" height="103.27" rx="19.88"/>
      <path class="ba96d68e-6c9e-4c6b-8dec-d66ea465357e" d="M1049.16,549.47H750a20.91,20.91,0,0,1-20.88-20.88V465.07A20.9,20.9,0,0,1,750,444.2h299.16A20.89,20.89,0,0,1,1070,465.07v63.52A20.9,20.9,0,0,1,1049.16,549.47ZM750,446.2a18.89,18.89,0,0,0-18.88,18.87v63.52A18.9,18.9,0,0,0,750,547.47h299.16A18.9,18.9,0,0,0,1068,528.59V465.07a18.89,18.89,0,0,0-18.87-18.87Z"/>
    </g>
    <g class="bc2b3045-7ccd-4c75-b412-c62e648c5058">
      <rect class="e0f1bea9-150b-4475-a446-581a5c0a7a25" x="724.12" y="451.2" width="338.91" height="103.27" rx="19.88"/>
      <path class="ba96d68e-6c9e-4c6b-8dec-d66ea465357e" d="M1043.16,555.47H744a20.91,20.91,0,0,1-20.88-20.88V471.07A20.9,20.9,0,0,1,744,450.2h299.16A20.89,20.89,0,0,1,1064,471.07v63.52A20.9,20.9,0,0,1,1043.16,555.47ZM744,452.2a18.89,18.89,0,0,0-18.88,18.87v63.52A18.9,18.9,0,0,0,744,553.47h299.16A18.9,18.9,0,0,0,1062,534.59V471.07a18.89,18.89,0,0,0-18.87-18.87Z"/>
    </g>
    <g>
      <rect class="e0f1bea9-150b-4475-a446-581a5c0a7a25" x="718.12" y="457.2" width="338.91" height="103.27" rx="19.88"/>
      <path class="ba96d68e-6c9e-4c6b-8dec-d66ea465357e" d="M1037.16,561.47H738a20.91,20.91,0,0,1-20.88-20.88V477.07A20.9,20.9,0,0,1,738,456.2h299.16A20.89,20.89,0,0,1,1058,477.07v63.52A20.9,20.9,0,0,1,1037.16,561.47ZM738,458.2a18.89,18.89,0,0,0-18.88,18.87v63.52A18.9,18.9,0,0,0,738,559.47h299.16A18.9,18.9,0,0,0,1056,540.59V477.07a18.89,18.89,0,0,0-18.87-18.87Z"/>
    </g>
    <g>
      <path class="fd3a4061-31ed-4455-a42a-661060ebae7f" d="M826.56,514.8h-8.91V498h8.53v1.78h-6.56v5.59h6.07v1.77h-6.07V513h6.94Z"/>
      <path class="fd3a4061-31ed-4455-a42a-661060ebae7f" d="M839.54,502.8l-4.78,12h-1.88l-4.55-12h2.11l3,8.72a8.55,8.55,0,0,1,.42,1.68h0a8.13,8.13,0,0,1,.38-1.63l3.19-8.77Z"/>
      <path class="fd3a4061-31ed-4455-a42a-661060ebae7f" d="M851.69,509.28h-8.48a4.49,4.49,0,0,0,1.08,3.1,3.74,3.74,0,0,0,2.84,1.09,5.88,5.88,0,0,0,3.72-1.34v1.81a7,7,0,0,1-4.18,1.14,5.07,5.07,0,0,1-4-1.63,6.73,6.73,0,0,1-1.45-4.6,6.57,6.57,0,0,1,1.59-4.57,5.1,5.1,0,0,1,3.94-1.76A4.54,4.54,0,0,1,850.4,504a6.36,6.36,0,0,1,1.29,4.23Zm-2-1.63a3.91,3.91,0,0,0-.81-2.59,2.74,2.74,0,0,0-2.19-.92,3.09,3.09,0,0,0-2.31,1,4.46,4.46,0,0,0-1.17,2.54Z"/>
      <path class="fd3a4061-31ed-4455-a42a-661060ebae7f" d="M865.13,514.8h-1.92V508q0-3.82-2.79-3.82a3,3,0,0,0-2.39,1.08,4,4,0,0,0-.94,2.74v6.84h-1.92v-12h1.92v2h0a4.33,4.33,0,0,1,3.93-2.27,3.68,3.68,0,0,1,3,1.27,5.7,5.7,0,0,1,1,3.68Z"/>
      <path class="fd3a4061-31ed-4455-a42a-661060ebae7f" d="M874.89,514.69a3.69,3.69,0,0,1-1.79.37q-3.15,0-3.15-3.52v-7.1h-2.06V502.8H870v-2.93l1.92-.62v3.55h3v1.64h-3v6.76a2.85,2.85,0,0,0,.41,1.73,1.65,1.65,0,0,0,1.36.51,2,2,0,0,0,1.25-.4Z"/>
      <path class="fd3a4061-31ed-4455-a42a-661060ebae7f" d="M884.66,514.12V511.8a4.26,4.26,0,0,0,1,.64,8.65,8.65,0,0,0,1.17.47,9.7,9.7,0,0,0,1.24.3,7,7,0,0,0,1.15.1,4.49,4.49,0,0,0,2.71-.67,2.28,2.28,0,0,0,.9-1.94,2.25,2.25,0,0,0-.3-1.18,3.12,3.12,0,0,0-.83-.92,7.59,7.59,0,0,0-1.24-.8l-1.56-.8c-.58-.3-1.13-.6-1.64-.9a7.39,7.39,0,0,1-1.32-1,4.33,4.33,0,0,1-.89-1.25,4,4,0,0,1-.32-1.64,3.78,3.78,0,0,1,.51-2,4.11,4.11,0,0,1,1.32-1.4,6,6,0,0,1,1.87-.82,8.54,8.54,0,0,1,2.14-.27,8.36,8.36,0,0,1,3.62.59v2.22a6.55,6.55,0,0,0-3.82-1,6.27,6.27,0,0,0-1.29.13,3.77,3.77,0,0,0-1.15.44,2.48,2.48,0,0,0-.82.79,2.09,2.09,0,0,0-.32,1.17,2.39,2.39,0,0,0,.24,1.11,2.83,2.83,0,0,0,.71.86,7.16,7.16,0,0,0,1.15.75c.44.24,1,.51,1.55.79s1.17.61,1.71.94a8,8,0,0,1,1.42,1.09,4.74,4.74,0,0,1,1,1.33,3.68,3.68,0,0,1,.36,1.66,4.23,4.23,0,0,1-.48,2.1,4,4,0,0,1-1.32,1.4,5.68,5.68,0,0,1-1.9.78,10.49,10.49,0,0,1-2.28.24c-.26,0-.59,0-1-.06s-.79-.11-1.19-.19a9.34,9.34,0,0,1-1.16-.3A3.54,3.54,0,0,1,884.66,514.12Z"/>
      <path class="fd3a4061-31ed-4455-a42a-661060ebae7f" d="M903.3,514.69a3.69,3.69,0,0,1-1.79.37q-3.15,0-3.15-3.52v-7.1H896.3V502.8h2.06v-2.93l1.92-.62v3.55h3v1.64h-3v6.76a2.85,2.85,0,0,0,.41,1.73,1.65,1.65,0,0,0,1.36.51,2,2,0,0,0,1.25-.4Z"/>
      <path class="fd3a4061-31ed-4455-a42a-661060ebae7f" d="M912.7,504.75a2.32,2.32,0,0,0-1.45-.39,2.48,2.48,0,0,0-2.06,1.16,5.37,5.37,0,0,0-.82,3.17v6.11h-1.92v-12h1.92v2.47h0a4.17,4.17,0,0,1,1.25-2,2.87,2.87,0,0,1,1.89-.71,3,3,0,0,1,1.14.17Z"/>
      <path class="fd3a4061-31ed-4455-a42a-661060ebae7f" d="M924.69,509.28h-8.47a4.49,4.49,0,0,0,1.08,3.1,3.74,3.74,0,0,0,2.84,1.09,5.88,5.88,0,0,0,3.72-1.34v1.81a7,7,0,0,1-4.18,1.14,5.07,5.07,0,0,1-4-1.63,6.68,6.68,0,0,1-1.45-4.6,6.57,6.57,0,0,1,1.59-4.57,5.1,5.1,0,0,1,3.94-1.76,4.54,4.54,0,0,1,3.65,1.52,6.42,6.42,0,0,1,1.28,4.23Zm-2-1.63a3.91,3.91,0,0,0-.81-2.59,2.74,2.74,0,0,0-2.19-.92,3.09,3.09,0,0,0-2.31,1,4.33,4.33,0,0,0-1.17,2.54Z"/>
      <path class="fd3a4061-31ed-4455-a42a-661060ebae7f" d="M936.77,514.8h-1.93v-1.87h0a4,4,0,0,1-3.69,2.15,3.92,3.92,0,0,1-2.81-1,3.26,3.26,0,0,1-1-2.52q0-3.36,4-3.91l3.59-.5c0-2-.82-3.06-2.47-3.06a5.91,5.91,0,0,0-3.91,1.47v-2a7.44,7.44,0,0,1,4.08-1.13q4.23,0,4.23,4.48Zm-1.93-6.07-2.89.4a4.92,4.92,0,0,0-2,.66,1.92,1.92,0,0,0-.68,1.68,1.83,1.83,0,0,0,.63,1.44,2.44,2.44,0,0,0,1.67.56,3.08,3.08,0,0,0,2.36-1,3.56,3.56,0,0,0,.93-2.53Z"/>
      <path class="fd3a4061-31ed-4455-a42a-661060ebae7f" d="M958,514.8h-1.92v-6.89a5.18,5.18,0,0,0-.61-2.88,2.34,2.34,0,0,0-2.07-.89,2.55,2.55,0,0,0-2.09,1.12,4.28,4.28,0,0,0-.87,2.7v6.84h-1.92v-7.12q0-3.54-2.73-3.54a2.51,2.51,0,0,0-2.08,1.06,4.38,4.38,0,0,0-.82,2.76v6.84H941v-12h1.93v1.9h0a4.09,4.09,0,0,1,3.73-2.18,3.49,3.49,0,0,1,3.4,2.49,4.28,4.28,0,0,1,4-2.49q4,0,4,4.89Z"/>
    </g>
    <path class="ab1f9347-76a8-4d32-a2f8-849c7614d83c" d="M473.9,303.42,461.74,291a3.27,3.27,0,0,1,0-4.13l12.16-12.43,1.43,1.4-12.16,12.43a1.5,1.5,0,0,0,0,1.34L475.33,302Z"/>
    <rect class="ab1f9347-76a8-4d32-a2f8-849c7614d83c" x="462.8" y="288.16" width="283.88" height="2"/>
    <g>
      <path class="ab1f9347-76a8-4d32-a2f8-849c7614d83c" d="M907,357.84l-12.42-12.15a1.44,1.44,0,0,0-1.34,0l-12.42,12.15-1.4-1.43,12.42-12.15a3.26,3.26,0,0,1,4.14,0l12.42,12.15Z"/>
      <rect class="ab1f9347-76a8-4d32-a2f8-849c7614d83c" x="893.11" y="345.32" width="2" height="83.76"/>
    </g>
    <g>
      <path class="ab1f9347-76a8-4d32-a2f8-849c7614d83c" d="M343.27,220.12a3,3,0,0,1-2.07-.74l-12.42-12.16,1.4-1.43L342.6,218a1.5,1.5,0,0,0,1.34,0l12.43-12.16,1.4,1.43-12.43,12.16A3,3,0,0,1,343.27,220.12Z"/>
      <rect class="ab1f9347-76a8-4d32-a2f8-849c7614d83c" x="342.51" y="134.56" width="2" height="83.76"/>
    </g>
    <g>
      <path class="ab1f9347-76a8-4d32-a2f8-849c7614d83c" d="M897,220.12a3,3,0,0,1-2.07-.74l-12.42-12.16,1.4-1.43L896.33,218a1.5,1.5,0,0,0,1.34,0l12.43-12.16,1.4,1.43-12.43,12.16A3,3,0,0,1,897,220.12Z"/>
      <rect class="ab1f9347-76a8-4d32-a2f8-849c7614d83c" x="896.24" y="134.56" width="2" height="83.76"/>
    </g>
    <path class="ab1f9347-76a8-4d32-a2f8-849c7614d83c" d="M693,523.59l-1.42-1.39,12.15-12.43a1.44,1.44,0,0,0,0-1.34L691.61,496l1.42-1.4L705.19,507a3.26,3.26,0,0,1,0,4.14Z"/>
    <path class="ab1f9347-76a8-4d32-a2f8-849c7614d83c" d="M704.13,510.34H348.76a6.51,6.51,0,0,1-6.5-6.5V339.12h2V503.84a4.51,4.51,0,0,0,4.5,4.5H704.13Z"/>
  </g>
</svg>
