<svg xmlns="http://www.w3.org/2000/svg" width="1310.93" height="738.72"><defs><pattern id="b2785922-f91c-4e36-ba42-77954d9ac430" data-name="Docs Polka Background" width="60" height="60" patternTransform="matrix(.87 0 0 .74 509.84 673.07)" patternUnits="userSpaceOnUse"><path fill="none" d="M0 0h60v60H0z"/><circle cx="30" cy="30" r="2.47" fill="#dceaf4"/></pattern><style>.e8046b51-6c81-4fc9-9935-cc264fa737fd{fill:#fff}.ac2eb512-1d93-4ccf-99df-b81c525f518b{fill:#b2bfce}.ac6dcf08-f3fc-4212-836d-b1f5546b99c8{fill:#2a4b7d;stroke:#2a4b7d}.ac495a1e-70d2-4bad-9a58-14fcd9b95c2c,.ac6dcf08-f3fc-4212-836d-b1f5546b99c8{stroke-miterlimit:10;stroke-width:.5px}.ac495a1e-70d2-4bad-9a58-14fcd9b95c2c{fill:#1998ff;stroke:#1998ff}.e8435787-846b-4338-a1f0-e910bbe917a4{fill:#f7fafc}.ac741725-010e-4f3b-9bf8-ff6d737655ed{fill:#75828e}</style></defs><path fill="url(#b2785922-f91c-4e36-ba42-77954d9ac430)" d="M2.16 3.74h1308.95v733.34H2.16z" id="aa37291b-9bbb-455b-98bf-c7a43c17bc6d" data-name="Layer 2"/><g id="fdc87213-d36d-4aba-b5b1-e47a6446a74f" data-name="Layer 1"><rect class="e8046b51-6c81-4fc9-9935-cc264fa737fd" x="25.5" y="104.66" width="247.65" height="99.83" rx="19.88"/><path class="ac2eb512-1d93-4ccf-99df-b81c525f518b" d="M253.28 205.49H45.38a20.91 20.91 0 01-20.88-20.88v-60.07a20.91 20.91 0 0120.88-20.88h207.9a20.9 20.9 0 0120.87 20.88v60.07a20.9 20.9 0 01-20.87 20.88zm-207.9-99.83a18.9 18.9 0 00-18.88 18.88v60.07a18.9 18.9 0 0018.88 18.88h207.9a18.9 18.9 0 0018.87-18.88v-60.07a18.9 18.9 0 00-18.87-18.88z"/><path class="ac6dcf08-f3fc-4212-836d-b1f5546b99c8" d="M96.57 147.29V149h-1.64v13.43h1.64v1.69h-5.25v-1.69H93V149h-1.68v-1.69zM109.05 164.1h-1.92v-6.84q0-3.82-2.79-3.83a3.05 3.05 0 00-2.39 1.09 4 4 0 00-.94 2.74v6.84h-1.92v-12H101v2a4.33 4.33 0 013.94-2.27 3.67 3.67 0 013 1.27 5.69 5.69 0 011 3.67zM113.66 149.05a1.22 1.22 0 01-.88-.35 1.16 1.16 0 01-.37-.89 1.23 1.23 0 011.25-1.25 1.21 1.21 0 01.89.35 1.19 1.19 0 01.37.9 1.18 1.18 0 01-.37.88 1.21 1.21 0 01-.89.36zm.93 15h-1.92v-12h1.92zM124.05 164a3.69 3.69 0 01-1.79.38c-2.1 0-3.16-1.18-3.16-3.52v-7.1H117v-1.66h2.06v-2.93l1.93-.62v3.55h3v1.64h-3v6.76a2.73 2.73 0 00.41 1.72 1.61 1.61 0 001.36.52 2 2 0 001.25-.4zM127.6 149.05a1.24 1.24 0 01-.88-.35 1.18 1.18 0 01-.36-.89 1.22 1.22 0 01.36-.9 1.2 1.2 0 01.88-.35 1.24 1.24 0 01.9.35 1.23 1.23 0 01.37.9 1.22 1.22 0 01-.37.88 1.25 1.25 0 01-.9.36zm.94 15h-1.92v-12h1.92zM141 164.1h-1.9v-1.88a4 4 0 01-3.69 2.16 4 4 0 01-2.81-.95 3.3 3.3 0 01-1-2.52c0-2.24 1.32-3.55 4-3.91l3.6-.51c0-2-.83-3.06-2.48-3.06a5.93 5.93 0 00-3.91 1.48v-2a7.44 7.44 0 014.08-1.12q4.23 0 4.23 4.47zm-1.9-6.1l-2.9.4a4.55 4.55 0 00-2 .66 1.9 1.9 0 00-.68 1.68 1.85 1.85 0 00.62 1.44 2.44 2.44 0 001.67.55 3.1 3.1 0 002.37-1 3.58 3.58 0 00.93-2.54zM146.56 164.1h-1.92v-17.77h1.92zM156.5 163.42v-2.32a4.61 4.61 0 00.95.63 8.1 8.1 0 001.18.48 11 11 0 001.23.3 7 7 0 001.15.1 4.47 4.47 0 002.71-.67 2.53 2.53 0 00.6-3.13 3.51 3.51 0 00-.82-.92 9 9 0 00-1.25-.79c-.48-.26-1-.52-1.56-.81s-1.13-.59-1.64-.9a6.86 6.86 0 01-1.32-1 4.16 4.16 0 01-.89-1.24 4 4 0 01-.32-1.64 3.84 3.84 0 01.51-2 4.3 4.3 0 011.32-1.4 6.21 6.21 0 011.87-.82 8.54 8.54 0 012.14-.27 8.19 8.19 0 013.62.6v2.22a6.55 6.55 0 00-3.82-1 6.29 6.29 0 00-1.29.14 3.77 3.77 0 00-1.15.44 2.55 2.55 0 00-.82.78 2.1 2.1 0 00-.31 1.18 2.39 2.39 0 00.24 1.11 2.65 2.65 0 00.7.85 7.16 7.16 0 001.15.75c.45.25 1 .51 1.55.8s1.17.61 1.71.94a8 8 0 011.42 1.09 5.11 5.11 0 011 1.32 3.87 3.87 0 01.35 1.67 4.26 4.26 0 01-.48 2.1 4.11 4.11 0 01-1.32 1.4 5.68 5.68 0 01-1.9.78 10.46 10.46 0 01-2.27.24q-.41 0-1-.06c-.39 0-.79-.11-1.19-.19a9.82 9.82 0 01-1.16-.31 3.55 3.55 0 01-.89-.45zM174.57 164a3.69 3.69 0 01-1.79.38c-2.1 0-3.16-1.18-3.16-3.52v-7.1h-2.06v-1.66h2.06v-2.93l1.93-.62v3.55h3v1.64h-3v6.76a2.73 2.73 0 00.41 1.72 1.61 1.61 0 001.36.52 2 2 0 001.25-.4zM185.73 164.1h-1.93v-1.88a4 4 0 01-3.69 2.16 4 4 0 01-2.81-.95 3.26 3.26 0 01-1-2.52c0-2.24 1.32-3.55 4-3.91l3.59-.51c0-2-.82-3.06-2.47-3.06a5.93 5.93 0 00-3.91 1.48v-2a7.44 7.44 0 014.08-1.12q4.23 0 4.23 4.47zm-1.93-6.1l-2.89.4a4.64 4.64 0 00-2 .66 1.92 1.92 0 00-.68 1.68 1.83 1.83 0 00.63 1.44 2.44 2.44 0 001.67.55 3.08 3.08 0 002.36-1 3.58 3.58 0 00.93-2.54zM194.91 164a3.69 3.69 0 01-1.79.38c-2.1 0-3.15-1.18-3.15-3.52v-7.1h-2.06v-1.66H190v-2.93l1.92-.62v3.55h3v1.64h-3v6.76a2.8 2.8 0 00.41 1.72 1.62 1.62 0 001.36.52 2 2 0 001.25-.4zM206.94 158.58h-8.48a4.49 4.49 0 001.08 3.09 3.72 3.72 0 002.84 1.09 5.87 5.87 0 003.72-1.33v1.8a6.9 6.9 0 01-4.18 1.15 5.05 5.05 0 01-4-1.63 6.7 6.7 0 01-1.46-4.6 6.57 6.57 0 011.59-4.57 5.1 5.1 0 013.94-1.76 4.54 4.54 0 013.65 1.52 6.36 6.36 0 011.29 4.23zM205 157a4 4 0 00-.8-2.59 2.74 2.74 0 00-2.2-.93 3.1 3.1 0 00-2.31 1 4.43 4.43 0 00-1.17 2.54z"/><rect class="e8046b51-6c81-4fc9-9935-cc264fa737fd" x="378.56" y="104.66" width="247.65" height="99.83" rx="19.88"/><path class="ac2eb512-1d93-4ccf-99df-b81c525f518b" d="M606.33 205.49h-207.9a20.9 20.9 0 01-20.87-20.88v-60.07a20.9 20.9 0 0120.87-20.88h207.9a20.91 20.91 0 0120.88 20.88v60.07a20.91 20.91 0 01-20.88 20.88zm-207.9-99.83a18.9 18.9 0 00-18.87 18.88v60.07a18.9 18.9 0 0018.87 18.88h207.9a18.9 18.9 0 0018.88-18.88v-60.07a18.9 18.9 0 00-18.88-18.88z"/><path class="ac6dcf08-f3fc-4212-836d-b1f5546b99c8" d="M441.17 157.75v6.35h-2v-16.81h4.61a6.08 6.08 0 014.18 1.32 4.67 4.67 0 011.48 3.7 5.1 5.1 0 01-1.64 3.91 6.28 6.28 0 01-4.45 1.53zm0-8.67V156h2.07a4.57 4.57 0 003.11-.94 3.3 3.3 0 001.07-2.63c0-2.22-1.31-3.32-3.94-3.32zM458.65 154a2.58 2.58 0 00-3.51.78 5.36 5.36 0 00-.83 3.16v6.12h-1.92v-12h1.92v2.47h.05a4.17 4.17 0 011.25-2 2.82 2.82 0 011.89-.71 3.16 3.16 0 011.15.16zM461.72 149.05a1.22 1.22 0 01-.88-.35 1.18 1.18 0 01-.36-.89 1.22 1.22 0 01.36-.9 1.18 1.18 0 01.88-.35 1.21 1.21 0 01.89.35 1.19 1.19 0 01.37.9 1.18 1.18 0 01-.37.88 1.21 1.21 0 01-.89.36zm.94 15h-1.93v-12h1.93zM476 152.1l-4.78 12h-1.89l-4.55-12h2.11l3.05 8.72a7.39 7.39 0 01.42 1.67h.05a8.31 8.31 0 01.37-1.63l3.22-8.76zM486.2 164.1h-1.92v-1.88a4 4 0 01-3.69 2.16 4 4 0 01-2.81-.95 3.3 3.3 0 01-1-2.52c0-2.24 1.32-3.55 4-3.91l3.6-.51c0-2-.83-3.06-2.48-3.06a5.93 5.93 0 00-3.91 1.48v-2a7.44 7.44 0 014.08-1.12q4.23 0 4.23 4.47zm-1.92-6.1l-2.9.4a4.55 4.55 0 00-2 .66 1.9 1.9 0 00-.68 1.68 1.85 1.85 0 00.62 1.44 2.44 2.44 0 001.67.55 3.06 3.06 0 002.36-1 3.55 3.55 0 00.94-2.54zM495.39 164a3.76 3.76 0 01-1.8.38c-2.1 0-3.15-1.18-3.15-3.52v-7.1h-2.06v-1.66h2.06v-2.93l1.92-.62v3.55h3v1.64h-3v6.76a2.8 2.8 0 00.41 1.72 1.63 1.63 0 001.36.52 2 2 0 001.26-.4zM507.41 158.58h-8.47a4.49 4.49 0 001.07 3.09 3.72 3.72 0 002.84 1.09 5.92 5.92 0 003.73-1.33v1.8a7 7 0 01-4.19 1.15 5.06 5.06 0 01-4-1.63 6.7 6.7 0 01-1.46-4.6 6.57 6.57 0 011.59-4.57 5.12 5.12 0 014-1.76 4.52 4.52 0 013.64 1.52 6.36 6.36 0 011.29 4.23zm-2-1.63a4 4 0 00-.8-2.59 2.74 2.74 0 00-2.2-.93 3.1 3.1 0 00-2.31 1A4.43 4.43 0 00499 157zM516.36 163.42v-2.32a5 5 0 001 .63 7.55 7.55 0 001.17.48 10.66 10.66 0 001.24.3 6.77 6.77 0 001.14.1 4.53 4.53 0 002.72-.67 2.54 2.54 0 00.59-3.13 3.34 3.34 0 00-.82-.92 8.43 8.43 0 00-1.25-.79l-1.55-.81c-.59-.29-1.14-.59-1.64-.9a6.94 6.94 0 01-1.33-1 4.13 4.13 0 01-.88-1.24 4.3 4.3 0 01.18-3.64 4.53 4.53 0 011.32-1.4 6.21 6.21 0 011.87-.82 8.54 8.54 0 012.14-.27 8.16 8.16 0 013.62.6v2.22a6.53 6.53 0 00-3.82-1 6.29 6.29 0 00-1.29.14 3.77 3.77 0 00-1.15.44 2.65 2.65 0 00-.82.78 2.1 2.1 0 00-.31 1.18 2.39 2.39 0 00.24 1.11 2.56 2.56 0 00.71.85 6.62 6.62 0 001.14.75c.45.25 1 .51 1.55.8s1.17.61 1.71.94a7.61 7.61 0 011.42 1.09 4.88 4.88 0 011 1.32 3.73 3.73 0 01.36 1.67 4.26 4.26 0 01-.49 2.1 4 4 0 01-1.31 1.4 5.73 5.73 0 01-1.91.78 10.39 10.39 0 01-2.27.24c-.27 0-.59 0-1-.06s-.78-.11-1.19-.19a9.16 9.16 0 01-1.15-.31 3.47 3.47 0 01-.94-.45zM534.43 164a3.69 3.69 0 01-1.79.38c-2.1 0-3.15-1.18-3.15-3.52v-7.1h-2.07v-1.66h2.07v-2.93l1.92-.62v3.55h3v1.64h-3v6.76a2.8 2.8 0 00.41 1.72 1.62 1.62 0 001.36.52 2 2 0 001.25-.4zM545.59 164.1h-1.92v-1.88a4 4 0 01-3.69 2.16 4 4 0 01-2.81-.95 3.3 3.3 0 01-1-2.52c0-2.24 1.32-3.55 4-3.91l3.6-.51c0-2-.83-3.06-2.48-3.06a5.93 5.93 0 00-3.91 1.48v-2a7.44 7.44 0 014.08-1.12q4.23 0 4.23 4.47zm-1.92-6.1l-2.9.4a4.55 4.55 0 00-2 .66 1.9 1.9 0 00-.68 1.68 1.85 1.85 0 00.62 1.44 2.44 2.44 0 001.67.55 3.1 3.1 0 002.37-1 3.58 3.58 0 00.93-2.54zM554.78 164a3.73 3.73 0 01-1.8.38c-2.1 0-3.15-1.18-3.15-3.52v-7.1h-2.06v-1.66h2.06v-2.93l1.92-.62v3.55h3v1.64h-3v6.76a2.8 2.8 0 00.41 1.72 1.63 1.63 0 001.36.52 2 2 0 001.26-.4zM566.8 158.58h-8.47a4.44 4.44 0 001.08 3.09 3.68 3.68 0 002.83 1.09 5.92 5.92 0 003.73-1.33v1.8a7 7 0 01-4.19 1.15 5.06 5.06 0 01-4-1.63 6.7 6.7 0 01-1.46-4.6 6.57 6.57 0 011.59-4.57 5.12 5.12 0 014-1.76 4.52 4.52 0 013.64 1.52 6.36 6.36 0 011.29 4.23zm-2-1.63a3.91 3.91 0 00-.8-2.59 2.74 2.74 0 00-2.2-.93 3.11 3.11 0 00-2.31 1 4.43 4.43 0 00-1.17 2.54z"/><g><path class="e8046b51-6c81-4fc9-9935-cc264fa737fd" d="M413.91 312.78h176.94v77.73H413.91z"/><path d="M591.85 391.51H412.91v-79.73h178.94zm-176.94-2h174.94v-75.73H414.91z" fill="#1998ff"/></g><g><path class="ac495a1e-70d2-4bad-9a58-14fcd9b95c2c" d="M466.64 361.45a5.58 5.58 0 01-4.25-1.68 6.23 6.23 0 01-1.59-4.46 6.46 6.46 0 011.66-4.72 6 6 0 014.46-1.7 5.38 5.38 0 014.19 1.65 6.57 6.57 0 011.51 4.58 6.45 6.45 0 01-1.63 4.6 5.65 5.65 0 01-4.35 1.73zm.14-10.94a3.66 3.66 0 00-2.93 1.26 5.15 5.15 0 00-1.08 3.47 4.92 4.92 0 001.09 3.36 3.72 3.72 0 002.92 1.24 3.54 3.54 0 002.87-1.21 6.45 6.45 0 000-6.9 3.49 3.49 0 00-2.87-1.22zM485.65 361.17h-1.92v-6.84q0-3.82-2.79-3.82a3 3 0 00-2.39 1.08 4 4 0 00-.94 2.74v6.84h-1.92v-12h1.92v2h.05a4.32 4.32 0 013.93-2.27 3.64 3.64 0 013 1.27 5.64 5.64 0 011 3.68zM498.43 361.17h-8.9v-16.8h8.53v1.78h-6.57v5.59h6.08v1.77h-6.08v5.88h6.94zM510.84 349.17l-4.78 12h-1.89l-4.54-12h2.11l3 8.72a8 8 0 01.43 1.68 8 8 0 01.38-1.63l3.19-8.77zM522.41 355.65h-8.47a4.53 4.53 0 001.07 3.1 3.76 3.76 0 002.84 1.09 5.93 5.93 0 003.73-1.34v1.8a7 7 0 01-4.19 1.15 5.06 5.06 0 01-4-1.63 6.7 6.7 0 01-1.46-4.6 6.57 6.57 0 011.59-4.57 5.12 5.12 0 014-1.76 4.52 4.52 0 013.64 1.52 6.36 6.36 0 011.29 4.23zm-2-1.63a4 4 0 00-.8-2.59 2.76 2.76 0 00-2.2-.92 3.09 3.09 0 00-2.31 1A4.46 4.46 0 00514 354zM535.28 361.17h-1.93v-6.84q0-3.82-2.78-3.82a3 3 0 00-2.39 1.08 4 4 0 00-.94 2.74v6.84h-1.92v-12h1.92v2a4.34 4.34 0 013.94-2.27 3.66 3.66 0 013 1.27 5.64 5.64 0 011 3.68zM544.46 361.05a3.69 3.69 0 01-1.79.38q-3.15 0-3.15-3.52v-7.1h-2.06v-1.64h2.06v-2.93l1.92-.62v3.55h3v1.64h-3v6.76a2.85 2.85 0 00.41 1.73 1.65 1.65 0 001.36.51 2 2 0 001.25-.4z"/></g><g><path class="e8435787-846b-4338-a1f0-e910bbe917a4" d="M733.53 115.72h192.75v77.7H733.53z"/><path class="ac2eb512-1d93-4ccf-99df-b81c525f518b" d="M926.78 193.92H733v-78.7h193.78zm-192.75-1h191.75v-76.7H734z"/></g><g><path class="ac6dcf08-f3fc-4212-836d-b1f5546b99c8" d="M756.17 164.38a5.56 5.56 0 01-4.24-1.68 6.23 6.23 0 01-1.59-4.46 6.48 6.48 0 011.65-4.72 5.92 5.92 0 014.47-1.7 5.41 5.41 0 014.19 1.65 6.57 6.57 0 011.5 4.58 6.44 6.44 0 01-1.62 4.6 5.71 5.71 0 01-4.36 1.73zm.15-10.95a3.64 3.64 0 00-2.93 1.26 5.18 5.18 0 00-1.08 3.48 4.87 4.87 0 001.09 3.36 3.7 3.7 0 002.92 1.23 3.52 3.52 0 002.86-1.2 5.24 5.24 0 001-3.44 5.33 5.33 0 00-1-3.47 3.5 3.5 0 00-2.86-1.22zM775.18 164.1h-1.92v-6.84q0-3.82-2.79-3.83a3 3 0 00-2.38 1.09 4 4 0 00-1 2.74v6.84h-1.92v-12h1.92v2h.05a4.34 4.34 0 013.94-2.27 3.67 3.67 0 013 1.27 5.69 5.69 0 011 3.67zM778.28 163.42v-2.32a4.61 4.61 0 001 .63 7.55 7.55 0 001.17.48 11.17 11.17 0 001.24.3 6.88 6.88 0 001.15.1 4.49 4.49 0 002.71-.67 2.53 2.53 0 00.6-3.13 3.55 3.55 0 00-.83-.92 8.43 8.43 0 00-1.25-.79l-1.55-.81c-.58-.29-1.13-.59-1.64-.9a6.57 6.57 0 01-1.32-1 4.16 4.16 0 01-.89-1.24 4.3 4.3 0 01.18-3.64 4.44 4.44 0 011.33-1.4 6.1 6.1 0 011.87-.82 8.54 8.54 0 012.14-.27 8.19 8.19 0 013.62.6v2.22a6.57 6.57 0 00-3.82-1 6.29 6.29 0 00-1.29.14 3.67 3.67 0 00-1.15.44 2.45 2.45 0 00-.82.78 2.1 2.1 0 00-.32 1.18 2.39 2.39 0 00.24 1.11 2.69 2.69 0 00.71.85 6.62 6.62 0 001.14.75c.45.25 1 .51 1.56.8s1.17.61 1.71.94a8 8 0 011.42 1.09 5.06 5.06 0 011 1.32 3.73 3.73 0 01.36 1.67A4.16 4.16 0 01788 162a4 4 0 01-1.31 1.4 5.68 5.68 0 01-1.9.78 10.49 10.49 0 01-2.28.24c-.26 0-.59 0-1-.06s-.79-.11-1.2-.19a9.65 9.65 0 01-1.15-.31 3.38 3.38 0 01-.88-.44zM796.35 164a3.73 3.73 0 01-1.8.38c-2.1 0-3.15-1.18-3.15-3.52v-7.1h-2.06v-1.66h2.06v-2.93l1.92-.62v3.55h3v1.64h-3v6.76a2.8 2.8 0 00.41 1.72 1.63 1.63 0 001.36.52 2 2 0 001.26-.4zM807.5 164.1h-1.92v-1.88h-.05a4 4 0 01-3.69 2.16 3.94 3.94 0 01-2.8-.95 3.27 3.27 0 01-1-2.52c0-2.24 1.32-3.55 4-3.91l3.6-.51c0-2-.82-3.06-2.47-3.06a6 6 0 00-3.92 1.48v-2a7.44 7.44 0 014.08-1.12q4.23 0 4.23 4.47zm-1.92-6.1l-2.89.4a4.6 4.6 0 00-2 .66 1.92 1.92 0 00-.68 1.68 1.83 1.83 0 00.63 1.44 2.42 2.42 0 001.67.55 3.08 3.08 0 002.36-1 3.58 3.58 0 00.93-2.54zM816.69 164a3.69 3.69 0 01-1.79.38c-2.1 0-3.16-1.18-3.16-3.52v-7.1h-2.06v-1.66h2.06v-2.93l1.93-.62v3.55h3v1.64h-3v6.76a2.73 2.73 0 00.41 1.72 1.61 1.61 0 001.36.52 2 2 0 001.25-.4zM828.71 158.58h-8.47a4.44 4.44 0 001.08 3.09 3.71 3.71 0 002.84 1.09 5.87 5.87 0 003.72-1.33v1.8a6.92 6.92 0 01-4.18 1.15 5.07 5.07 0 01-4-1.63 6.7 6.7 0 01-1.45-4.6 6.57 6.57 0 011.59-4.57 5.1 5.1 0 013.94-1.76 4.5 4.5 0 013.64 1.52 6.36 6.36 0 011.29 4.23zm-2-1.63a3.86 3.86 0 00-.8-2.59 2.74 2.74 0 00-2.2-.93 3.09 3.09 0 00-2.3 1 4.37 4.37 0 00-1.18 2.54zM843.32 163.4a10 10 0 01-4.65 1 7.48 7.48 0 01-5.74-2.31 8.51 8.51 0 01-2.15-6.06 8.9 8.9 0 012.42-6.51 8.23 8.23 0 016.15-2.49 9.92 9.92 0 014 .69v2.1a8.1 8.1 0 00-4-1 6.11 6.11 0 00-4.69 1.94 7.28 7.28 0 00-1.8 5.17 7 7 0 001.68 4.89 5.73 5.73 0 004.41 1.82 8.31 8.31 0 004.39-1.12zM856.44 164.1h-1.92v-6.92q0-3.75-2.79-3.75a3.06 3.06 0 00-2.37 1.09 4 4 0 00-1 2.78v6.8h-1.92v-17.77h1.92v7.76h.05a4.37 4.37 0 013.94-2.27q4.05 0 4.05 4.88zM868.65 164.1h-1.92v-1.88h-.05a4.38 4.38 0 01-6.5 1.21 3.3 3.3 0 01-1-2.52c0-2.24 1.32-3.55 4-3.91l3.6-.51c0-2-.82-3.06-2.47-3.06a6 6 0 00-3.92 1.48v-2a7.44 7.44 0 014.08-1.12q4.23 0 4.23 4.47zm-1.92-6.1l-2.9.4a4.55 4.55 0 00-2 .66 1.92 1.92 0 00-.68 1.68 1.83 1.83 0 00.63 1.44 2.4 2.4 0 001.67.55 3.08 3.08 0 002.36-1 3.58 3.58 0 00.93-2.54zM882.23 164.1h-1.92v-6.84q0-3.82-2.79-3.83a3 3 0 00-2.38 1.09 4 4 0 00-.95 2.74v6.84h-1.92v-12h1.92v2a4.34 4.34 0 013.94-2.27 3.67 3.67 0 013 1.27 5.63 5.63 0 011 3.67zM896.1 163.14q0 6.6-6.33 6.61a8.39 8.39 0 01-3.89-.85V167a8 8 0 003.86 1.13c3 0 4.43-1.57 4.43-4.71v-1.32a4.85 4.85 0 01-7.73.7 6.4 6.4 0 01-1.37-4.29 7.5 7.5 0 011.47-4.87 4.94 4.94 0 014-1.8 3.92 3.92 0 013.6 1.94v-1.68h1.93zm-1.93-4.47v-1.77a3.45 3.45 0 00-1-2.45 3.2 3.2 0 00-2.41-1 3.35 3.35 0 00-2.79 1.3 5.78 5.78 0 00-1 3.63 4.93 4.93 0 001 3.2 3.12 3.12 0 002.56 1.2 3.32 3.32 0 002.63-1.15 4.24 4.24 0 001.01-2.96zM909.63 158.58h-8.47a4.44 4.44 0 001.08 3.09 3.68 3.68 0 002.83 1.09 5.9 5.9 0 003.73-1.33v1.8a6.94 6.94 0 01-4.18 1.15 5.07 5.07 0 01-4-1.63 6.7 6.7 0 01-1.45-4.6 6.61 6.61 0 011.58-4.57 5.12 5.12 0 014-1.76 4.52 4.52 0 013.64 1.52 6.36 6.36 0 011.29 4.23zm-2-1.63a3.86 3.86 0 00-.8-2.59 2.74 2.74 0 00-2.2-.93 3.13 3.13 0 00-2.31 1 4.43 4.43 0 00-1.17 2.54z"/></g><g><rect class="e8435787-846b-4338-a1f0-e910bbe917a4" x="1037.58" y="104.66" width="247.65" height="99.83" rx="19.88"/><path class="ac2eb512-1d93-4ccf-99df-b81c525f518b" d="M1265.36 205.49h-207.9a20.91 20.91 0 01-20.88-20.88v-60.07a20.91 20.91 0 0120.88-20.88h207.9a20.9 20.9 0 0120.87 20.88v60.07a20.9 20.9 0 01-20.87 20.88zm-207.9-99.83a18.9 18.9 0 00-18.88 18.88v60.07a18.9 18.9 0 0018.88 18.88h207.9a18.9 18.9 0 0018.87-18.88v-60.07a18.9 18.9 0 00-18.87-18.88z"/></g><g><path class="ac6dcf08-f3fc-4212-836d-b1f5546b99c8" d="M1104 157.75v6.35h-2v-16.81h4.62a6.08 6.08 0 014.18 1.32 4.67 4.67 0 011.48 3.7 5.08 5.08 0 01-1.65 3.91 6.26 6.26 0 01-4.44 1.53zm0-8.67V156h2a4.6 4.6 0 003.12-.94 3.3 3.3 0 001.07-2.63c0-2.22-1.31-3.32-3.94-3.32zM1124.88 164.1H1123v-1.9a4 4 0 01-3.7 2.18q-4.29 0-4.29-5.11v-7.17h1.91v6.9q0 3.79 2.91 3.79a3 3 0 002.31-1 4 4 0 00.86-2.79v-6.9h1.92zM1130.73 162.36v1.74h-1.92v-17.77h1.92v7.88a4.53 4.53 0 014.15-2.39 4.37 4.37 0 013.61 1.61 6.65 6.65 0 011.31 4.32 7.41 7.41 0 01-1.47 4.82 4.85 4.85 0 01-4 1.81 3.94 3.94 0 01-3.6-2.02zm0-4.84v1.68a3.58 3.58 0 001 2.53 3.46 3.46 0 005.19-.3 6.14 6.14 0 001-3.72 4.84 4.84 0 00-.93-3.14 3 3 0 00-2.5-1.14 3.41 3.41 0 00-2.7 1.17 4.28 4.28 0 00-1.11 2.92zM1144.79 164.1h-1.92v-17.77h1.92zM1149.67 149.05a1.22 1.22 0 01-.88-.35 1.16 1.16 0 01-.37-.89 1.23 1.23 0 011.25-1.25 1.21 1.21 0 01.89.35 1.19 1.19 0 01.37.9 1.18 1.18 0 01-.37.88 1.21 1.21 0 01-.89.36zm.93 15h-1.92v-12h1.92zM1162.67 163.55a6.27 6.27 0 01-3.28.83 5.44 5.44 0 01-4.14-1.67 6.06 6.06 0 01-1.58-4.33 6.65 6.65 0 011.7-4.76 6 6 0 014.54-1.8 6.36 6.36 0 012.79.58v2a4.94 4.94 0 00-2.86-.94 3.85 3.85 0 00-3 1.32 5 5 0 00-1.18 3.47 4.74 4.74 0 001.11 3.32 3.8 3.8 0 003 1.22 4.77 4.77 0 003-1zM1171.63 163.42v-2.32a4.61 4.61 0 00.95.63 7.55 7.55 0 001.17.48 11.17 11.17 0 001.24.3 6.88 6.88 0 001.15.1 4.49 4.49 0 002.71-.67 2.53 2.53 0 00.6-3.13 3.55 3.55 0 00-.83-.92 8.43 8.43 0 00-1.25-.79l-1.55-.81c-.58-.29-1.13-.59-1.64-.9a6.57 6.57 0 01-1.32-1 4.16 4.16 0 01-.89-1.24 4.3 4.3 0 01.18-3.64 4.44 4.44 0 011.33-1.4 6.1 6.1 0 011.87-.82 8.54 8.54 0 012.14-.27 8.19 8.19 0 013.62.6v2.22a6.57 6.57 0 00-3.82-1 6.29 6.29 0 00-1.29.14 3.67 3.67 0 00-1.15.44 2.45 2.45 0 00-.82.78 2.1 2.1 0 00-.32 1.18 2.39 2.39 0 00.24 1.11 2.69 2.69 0 00.71.85 6.62 6.62 0 001.14.75c.45.25 1 .51 1.56.8s1.17.61 1.71.94a8 8 0 011.42 1.09 5.06 5.06 0 011 1.32 3.73 3.73 0 01.36 1.67 4.16 4.16 0 01-.49 2.1 4 4 0 01-1.31 1.4 5.68 5.68 0 01-1.9.78 10.49 10.49 0 01-2.28.24c-.26 0-.59 0-1-.06s-.79-.11-1.2-.19a9.65 9.65 0 01-1.15-.31 3.38 3.38 0 01-.89-.45zM1189.7 164a3.73 3.73 0 01-1.8.38c-2.1 0-3.15-1.18-3.15-3.52v-7.1h-2.06v-1.66h2.06v-2.93l1.92-.62v3.55h3v1.64h-3v6.76a2.8 2.8 0 00.41 1.72 1.63 1.63 0 001.36.52 2 2 0 001.26-.4zM1200.85 164.1h-1.92v-1.88a4 4 0 01-3.69 2.16 3.94 3.94 0 01-2.8-.95 3.27 3.27 0 01-1-2.52c0-2.24 1.32-3.55 4-3.91l3.6-.51c0-2-.82-3.06-2.47-3.06a6 6 0 00-3.92 1.48v-2a7.44 7.44 0 014.08-1.12q4.23 0 4.23 4.47zm-1.92-6.07l-2.89.4a4.6 4.6 0 00-2 .66 1.92 1.92 0 00-.68 1.68 1.83 1.83 0 00.63 1.44 2.42 2.42 0 001.67.55 3.08 3.08 0 002.36-1 3.58 3.58 0 00.93-2.54zM1210 164a3.69 3.69 0 01-1.79.38c-2.1 0-3.16-1.18-3.16-3.52v-7.1H1203v-1.66h2.06v-2.93l1.93-.62v3.55h3v1.64h-3v6.76a2.73 2.73 0 00.41 1.72 1.61 1.61 0 001.36.52 2 2 0 001.25-.4zM1222.06 158.58h-8.47a4.44 4.44 0 001.08 3.09 3.71 3.71 0 002.84 1.09 5.87 5.87 0 003.72-1.33v1.8a6.92 6.92 0 01-4.18 1.15 5.07 5.07 0 01-4-1.63 6.7 6.7 0 01-1.45-4.6 6.57 6.57 0 011.59-4.57 5.1 5.1 0 013.94-1.76 4.5 4.5 0 013.64 1.52 6.36 6.36 0 011.29 4.23zm-2-1.63a3.86 3.86 0 00-.8-2.59 2.74 2.74 0 00-2.2-.93 3.09 3.09 0 00-2.3 1 4.37 4.37 0 00-1.18 2.54z"/></g><g opacity=".3"><rect class="e8046b51-6c81-4fc9-9935-cc264fa737fd" x="341.93" y="501.55" width="338.91" height="103.27" rx="19.88"/><path class="ac2eb512-1d93-4ccf-99df-b81c525f518b" d="M661 605.82H361.8a20.9 20.9 0 01-20.87-20.88v-63.52a20.89 20.89 0 0120.87-20.87H661a20.9 20.9 0 0120.88 20.87v63.52A20.91 20.91 0 01661 605.82zM361.8 502.55a18.89 18.89 0 00-18.87 18.87v63.52a18.9 18.9 0 0018.87 18.88H661a18.9 18.9 0 0018.88-18.88v-63.52A18.89 18.89 0 00661 502.55z"/></g><g opacity=".5"><rect class="e8046b51-6c81-4fc9-9935-cc264fa737fd" x="335.93" y="507.55" width="338.91" height="103.27" rx="19.88"/><path class="ac2eb512-1d93-4ccf-99df-b81c525f518b" d="M655 611.82H355.8a20.9 20.9 0 01-20.87-20.88v-63.52a20.89 20.89 0 0120.87-20.87H655a20.9 20.9 0 0120.88 20.87v63.52A20.91 20.91 0 01655 611.82zM355.8 508.55a18.89 18.89 0 00-18.87 18.87v63.52a18.9 18.9 0 0018.87 18.88H655a18.9 18.9 0 0018.88-18.88v-63.52A18.89 18.89 0 00655 508.55z"/></g><g opacity=".7"><rect class="e8046b51-6c81-4fc9-9935-cc264fa737fd" x="329.93" y="513.55" width="338.91" height="103.27" rx="19.88"/><path class="ac2eb512-1d93-4ccf-99df-b81c525f518b" d="M649 617.82H349.8a20.9 20.9 0 01-20.87-20.88v-63.52a20.89 20.89 0 0120.87-20.87H649a20.9 20.9 0 0120.88 20.87v63.52A20.91 20.91 0 01649 617.82zM349.8 514.55a18.89 18.89 0 00-18.87 18.87v63.52a18.9 18.9 0 0018.87 18.88H649a18.9 18.9 0 0018.88-18.88v-63.52A18.89 18.89 0 00649 514.55z"/></g><g><rect class="e8046b51-6c81-4fc9-9935-cc264fa737fd" x="323.93" y="519.55" width="338.91" height="103.27" rx="19.88"/><path class="ac2eb512-1d93-4ccf-99df-b81c525f518b" d="M643 623.82H343.8a20.9 20.9 0 01-20.87-20.88v-63.52a20.89 20.89 0 0120.87-20.87H643a20.9 20.9 0 0120.88 20.87v63.52A20.91 20.91 0 01643 623.82zM343.8 520.55a18.89 18.89 0 00-18.87 18.87v63.52a18.9 18.9 0 0018.87 18.88H643a18.9 18.9 0 0018.88-18.88v-63.52A18.89 18.89 0 00643 520.55z"/></g><g><path class="ac6dcf08-f3fc-4212-836d-b1f5546b99c8" d="M432.36 577.15h-8.9v-16.8H432v1.78h-6.56v5.59h6.07v1.77h-6.07v5.88h6.93zM445.35 565.15l-4.78 12h-1.89l-4.55-12h2.11l3.05 8.72a7.33 7.33 0 01.42 1.68h.05a8.15 8.15 0 01.37-1.63l3.19-8.77zM457.49 571.63H449a4.49 4.49 0 001.08 3.1 3.68 3.68 0 002.83 1.09 5.91 5.91 0 003.73-1.34v1.81a7 7 0 01-4.18 1.15 5.08 5.08 0 01-4-1.64 6.68 6.68 0 01-1.45-4.6 6.57 6.57 0 011.58-4.56 5.1 5.1 0 013.95-1.77 4.49 4.49 0 013.64 1.53 6.33 6.33 0 011.29 4.23zm-2-1.62a3.89 3.89 0 00-.8-2.59 2.74 2.74 0 00-2.2-.93 3.12 3.12 0 00-2.31 1A4.46 4.46 0 00449 570zM470.93 577.15H469v-6.84q0-3.82-2.79-3.82a3 3 0 00-2.38 1.08 4 4 0 00-.94 2.74v6.84H461v-12h1.93v2a4.34 4.34 0 013.94-2.28 3.69 3.69 0 013 1.27 5.66 5.66 0 011 3.68zM480.7 577a3.72 3.72 0 01-1.79.37q-3.17 0-3.16-3.51v-7.1h-2.06v-1.65h2.06v-2.93l1.92-.62v3.55h3v1.65h-3v6.76a2.82 2.82 0 00.41 1.72 1.66 1.66 0 001.36.52 2.06 2.06 0 001.26-.4zM490.46 576.47v-2.32a4.58 4.58 0 001 .64 8.65 8.65 0 001.17.47 9 9 0 001.24.3 6.84 6.84 0 001.14.11 4.5 4.5 0 002.72-.68 2.26 2.26 0 00.89-1.94 2.37 2.37 0 00-.29-1.18 3.4 3.4 0 00-.83-.92 8.44 8.44 0 00-1.25-.8l-1.55-.8c-.59-.3-1.13-.6-1.64-.9a7.37 7.37 0 01-1.33-1 4.17 4.17 0 01-.88-1.25 3.76 3.76 0 01-.32-1.63 3.81 3.81 0 01.5-2 4.42 4.42 0 011.32-1.4 6 6 0 011.87-.82 8.6 8.6 0 012.14-.27 8.13 8.13 0 013.62.6v2.21a6.53 6.53 0 00-3.82-1 6.27 6.27 0 00-1.29.13 3.61 3.61 0 00-1.14.44 2.58 2.58 0 00-.82.79 2 2 0 00-.32 1.17 2.39 2.39 0 00.24 1.11 2.72 2.72 0 00.71.86 6.62 6.62 0 001.14.75l1.55.8c.61.29 1.18.61 1.71.93a8.06 8.06 0 011.42 1.09 4.78 4.78 0 011 1.33 3.68 3.68 0 01.36 1.66 4.3 4.3 0 01-.49 2.11 4 4 0 01-1.31 1.4 5.73 5.73 0 01-1.91.78 10.39 10.39 0 01-2.27.24c-.27 0-.59 0-1-.07a10.64 10.64 0 01-1.2-.19 9.18 9.18 0 01-1.15-.3 3.46 3.46 0 01-.93-.45zM509.11 577a3.69 3.69 0 01-1.79.37c-2.1 0-3.16-1.17-3.16-3.51v-7.1h-2.06v-1.65h2.06v-2.93l1.93-.62v3.55h3v1.65h-3v6.76a2.75 2.75 0 00.41 1.72 1.64 1.64 0 001.36.52 2.05 2.05 0 001.25-.4zM518.51 567.1a2.34 2.34 0 00-1.45-.39 2.47 2.47 0 00-2.06 1.16 5.39 5.39 0 00-.83 3.17v6.11h-1.92v-12h1.92v2.48h.05a4.2 4.2 0 011.25-2 2.91 2.91 0 011.89-.71 3.13 3.13 0 011.15.17zM530.5 571.63H522a4.49 4.49 0 001.08 3.1 3.68 3.68 0 002.83 1.09 5.93 5.93 0 003.73-1.34v1.81a7 7 0 01-4.19 1.15 5.07 5.07 0 01-4-1.64 6.68 6.68 0 01-1.46-4.6 6.53 6.53 0 011.59-4.56 5.1 5.1 0 014-1.77 4.49 4.49 0 013.64 1.53 6.33 6.33 0 011.29 4.23zm-2-1.62a3.89 3.89 0 00-.8-2.59 2.74 2.74 0 00-2.2-.93 3.1 3.1 0 00-2.31 1 4.46 4.46 0 00-1.17 2.55zM542.57 577.15h-1.92v-1.87a4.38 4.38 0 01-6.5 1.21 3.33 3.33 0 01-1-2.52c0-2.25 1.32-3.55 4-3.92l3.6-.5c0-2-.82-3.06-2.47-3.06a5.9 5.9 0 00-3.92 1.48v-2a7.44 7.44 0 014.08-1.13c2.82 0 4.23 1.5 4.23 4.48zm-1.92-6.07l-2.89.4a4.82 4.82 0 00-2 .66 1.93 1.93 0 00-.68 1.69 1.82 1.82 0 00.63 1.43 2.41 2.41 0 001.67.56 3.11 3.11 0 002.36-1 3.6 3.6 0 00.93-2.54zM563.81 577.15h-1.92v-6.89a5.19 5.19 0 00-.62-2.88 2.34 2.34 0 00-2.07-.89 2.56 2.56 0 00-2.09 1.13 4.31 4.31 0 00-.86 2.69v6.84h-1.92V570q0-3.54-2.73-3.54a2.52 2.52 0 00-2.09 1.06 4.38 4.38 0 00-.82 2.76v6.84h-1.92v-12h1.92v1.9a4.07 4.07 0 013.72-2.18 3.48 3.48 0 012.15.69 3.42 3.42 0 011.25 1.8 4.28 4.28 0 014-2.49q4 0 4 4.89z"/></g><path class="ac741725-010e-4f3b-9bf8-ff6d737655ed" d="M355.25 171.76l-1.43-1.4L366 157.94a1.44 1.44 0 000-1.34l-12.16-12.43 1.43-1.4 12.16 12.43a3.28 3.28 0 010 4.14z"/><path class="ac741725-010e-4f3b-9bf8-ff6d737655ed" d="M282.59 156.5h83.76v2h-83.76zM514.34 416.54l-12.42-12.16a1.5 1.5 0 00-1.34 0l-12.43 12.16-1.4-1.43L499.18 403a3.28 3.28 0 014.14 0l12.42 12.16z"/><path class="ac741725-010e-4f3b-9bf8-ff6d737655ed" d="M500.48 404.01h2v83.76h-2z"/><g><path class="ac741725-010e-4f3b-9bf8-ff6d737655ed" d="M492.32 230.23l-12.42-12.16a1.5 1.5 0 00-1.34 0l-12.43 12.16-1.4-1.43 12.43-12.16a3.28 3.28 0 014.14 0l12.42 12.16z"/><path class="ac741725-010e-4f3b-9bf8-ff6d737655ed" d="M478.46 217.7h2v83.76h-2z"/></g><g><path class="ac741725-010e-4f3b-9bf8-ff6d737655ed" d="M523.27 302.47a3 3 0 01-2.07-.74l-12.42-12.16 1.39-1.43 12.43 12.16a1.5 1.5 0 001.34 0l12.42-12.16 1.4 1.43-12.42 12.16a3 3 0 01-2.07.74z"/><path class="ac741725-010e-4f3b-9bf8-ff6d737655ed" d="M522.51 216.91h2v83.76h-2z"/></g><path class="ac741725-010e-4f3b-9bf8-ff6d737655ed" d="M710.05 171.76l-1.42-1.4 12.15-12.42a1.44 1.44 0 000-1.34l-12.15-12.43 1.42-1.4 12.16 12.43a3.26 3.26 0 010 4.14z"/><path class="ac741725-010e-4f3b-9bf8-ff6d737655ed" d="M637.4 156.5h83.76v2H637.4zM1011.42 171.76l-1.43-1.4 12.16-12.42a1.47 1.47 0 000-1.34L1010 144.17l1.43-1.4 12.15 12.43a3.26 3.26 0 010 4.14z"/><path class="ac741725-010e-4f3b-9bf8-ff6d737655ed" d="M938.76 156.5h83.76v2h-83.76z"/></g></svg>