<svg xmlns="http://www.w3.org/2000/svg" xmlns:xlink="http://www.w3.org/1999/xlink" width="1310.93" height="738.72" viewBox="0 0 1310.93 738.72">
  <defs>
    <style>
      .f1733608-ecd4-4974-b827-776eeb3827be, .f61bcff3-3f7d-4532-b940-edab6efe005f {
        fill: none;
      }

      .a7807834-b9ae-4abb-828b-801c6e5b38f4 {
        fill: #dceaf4;
      }

      .f8b9cf54-a84e-4ee1-9aed-7ec898feee5e {
        fill: url(#b7d12e24-6663-4829-a9a0-4e739a952c44);
      }

      .a2f85ab7-e30f-46cb-a3bd-32bbdf8f0522, .b3638616-f488-4f3d-853b-e783fc03d5e7, .b864a283-bff4-430d-9f8b-5fccad267f26, .e84a178a-c6be-4008-92d5-95492db6ccd1, .f376b745-9cf7-4491-b979-19d1b2e85825 {
        fill: #fff;
      }

      .a2f85ab7-e30f-46cb-a3bd-32bbdf8f0522, .b864a283-bff4-430d-9f8b-5fccad267f26, .bd8d053d-4a87-4d82-9f6f-090da18ca8be, .bea029e5-1a3c-4f5a-ab36-41209040d8a9, .e84a178a-c6be-4008-92d5-95492db6ccd1, .f376b745-9cf7-4491-b979-19d1b2e85825 {
        stroke: #b2bfce;
      }

      .a2f85ab7-e30f-46cb-a3bd-32bbdf8f0522, .afbf6da9-2723-4689-a4c1-af1b3d761d7c, .b3638616-f488-4f3d-853b-e783fc03d5e7, .b864a283-bff4-430d-9f8b-5fccad267f26, .b8753d48-2345-4751-9765-d0cd058f28dc, .bd8d053d-4a87-4d82-9f6f-090da18ca8be, .bea029e5-1a3c-4f5a-ab36-41209040d8a9, .bfd4d203-ef8f-4c8c-ac76-3ce06210eb0b, .e84a178a-c6be-4008-92d5-95492db6ccd1, .f1733608-ecd4-4974-b827-776eeb3827be, .f376b745-9cf7-4491-b979-19d1b2e85825 {
        stroke-miterlimit: 10;
      }

      .a2f85ab7-e30f-46cb-a3bd-32bbdf8f0522, .b3638616-f488-4f3d-853b-e783fc03d5e7, .b864a283-bff4-430d-9f8b-5fccad267f26, .bea029e5-1a3c-4f5a-ab36-41209040d8a9, .e84a178a-c6be-4008-92d5-95492db6ccd1, .f1733608-ecd4-4974-b827-776eeb3827be, .f376b745-9cf7-4491-b979-19d1b2e85825 {
        stroke-width: 2px;
      }

      .afbf6da9-2723-4689-a4c1-af1b3d761d7c, .b8753d48-2345-4751-9765-d0cd058f28dc, .bfd4d203-ef8f-4c8c-ac76-3ce06210eb0b {
        font-size: 24px;
        stroke-width: 0.5px;
        font-family: SegoeUI, Segoe UI;
      }

      .afbf6da9-2723-4689-a4c1-af1b3d761d7c, .bfd4d203-ef8f-4c8c-ac76-3ce06210eb0b {
        fill: #2a4b7d;
        stroke: #2a4b7d;
      }

      .f682ff43-d894-422d-9ab6-3d32d8cbed88 {
        letter-spacing: -0.03em;
      }

      .e6c6ec10-ae6f-4c36-b6b8-6b9c81654d21 {
        letter-spacing: -0.01em;
      }

      .ae1f559d-d7a6-47d3-975b-d31f667e5187 {
        letter-spacing: -0.02em;
      }

      .b3638616-f488-4f3d-853b-e783fc03d5e7, .b8753d48-2345-4751-9765-d0cd058f28dc {
        stroke: #1998ff;
      }

      .b8753d48-2345-4751-9765-d0cd058f28dc {
        fill: #1998ff;
      }

      .b354c0f2-81b9-4c1d-8415-587f8c6a1808 {
        letter-spacing: -0.01em;
      }

      .bd8d053d-4a87-4d82-9f6f-090da18ca8be, .bea029e5-1a3c-4f5a-ab36-41209040d8a9 {
        fill: #f7fafc;
      }

      .a2f85ab7-e30f-46cb-a3bd-32bbdf8f0522 {
        opacity: 0.3;
      }

      .b864a283-bff4-430d-9f8b-5fccad267f26 {
        opacity: 0.5;
      }

      .f376b745-9cf7-4491-b979-19d1b2e85825 {
        opacity: 0.7;
      }

      .bfd4d203-ef8f-4c8c-ac76-3ce06210eb0b {
        letter-spacing: 0.02em;
      }

      .a7d98ddd-2bf7-4f38-93c0-204901853527 {
        letter-spacing: 0.02em;
      }

      .a3fca14f-99a6-4985-8b1f-8bcb45d2a8ef {
        letter-spacing: -0.01em;
      }

      .ed9a59b6-3d3e-420f-8458-02301554676d {
        letter-spacing: 0.02em;
      }

      .f67ecd8a-63a7-4e10-8f6f-1d69942f02d6 {
        letter-spacing: 0.01em;
      }

      .f1733608-ecd4-4974-b827-776eeb3827be {
        stroke: #75828e;
      }
    </style>
    <pattern id="b7d12e24-6663-4829-a9a0-4e739a952c44" data-name="Docs Polka Background" width="60" height="60" patternTransform="translate(653.46 907.84) scale(0.87 0.74)" patternUnits="userSpaceOnUse" viewBox="0 0 60 60">
      <rect class="f61bcff3-3f7d-4532-b940-edab6efe005f" width="60" height="60"/>
      <circle class="a7807834-b9ae-4abb-828b-801c6e5b38f4" cx="30" cy="30" r="2.47"/>
    </pattern>
  </defs>
  <g id="b7c8b7e9-ad68-4b04-ac90-27bc63ccac75" data-name="Layer 2">
    <rect class="f8b9cf54-a84e-4ee1-9aed-7ec898feee5e" x="2.16" y="3.74" width="1308.95" height="733.34"/>
  </g>
  <g id="b08cf087-53cd-44e7-9c07-ea1e9920fea8" data-name="Layer 1">
    <rect class="e84a178a-c6be-4008-92d5-95492db6ccd1" x="25.5" y="104.66" width="247.65" height="99.83" rx="19.88"/>
    <text class="afbf6da9-2723-4689-a4c1-af1b3d761d7c" transform="translate(90.76 164.1)">Initial <tspan class="f682ff43-d894-422d-9ab6-3d32d8cbed88" x="64.32" y="0">S</tspan><tspan x="76.3" y="0">ta</tspan><tspan class="e6c6ec10-ae6f-4c36-b6b8-6b9c81654d21" x="96.64" y="0">t</tspan><tspan x="104.59" y="0">e</tspan></text>
    <rect class="e84a178a-c6be-4008-92d5-95492db6ccd1" x="378.56" y="104.66" width="247.65" height="99.83" rx="19.88"/>
    <text class="afbf6da9-2723-4689-a4c1-af1b3d761d7c" transform="translate(437 164.1)">Pri<tspan class="ae1f559d-d7a6-47d3-975b-d31f667e5187" x="27.6" y="0">v</tspan><tspan x="38.66" y="0">a</tspan><tspan class="e6c6ec10-ae6f-4c36-b6b8-6b9c81654d21" x="50.87" y="0">t</tspan><tspan x="58.82" y="0">e </tspan><tspan class="f682ff43-d894-422d-9ab6-3d32d8cbed88" x="77.94" y="0">S</tspan><tspan x="89.92" y="0">ta</tspan><tspan class="e6c6ec10-ae6f-4c36-b6b8-6b9c81654d21" x="110.26" y="0">t</tspan><tspan x="118.21" y="0">e</tspan></text>
    <rect class="b3638616-f488-4f3d-853b-e783fc03d5e7" x="413.91" y="312.78" width="176.94" height="77.73"/>
    <text class="b8753d48-2345-4751-9765-d0cd058f28dc" transform="translate(459.68 361.17)">onE<tspan class="b354c0f2-81b9-4c1d-8415-587f8c6a1808" x="39.79" y="0">v</tspan><tspan x="51.14" y="0">ent</tspan></text>
    <rect class="bd8d053d-4a87-4d82-9f6f-090da18ca8be" x="733.53" y="115.72" width="192.75" height="77.7"/>
    <text class="afbf6da9-2723-4689-a4c1-af1b3d761d7c" transform="translate(749.21 164.1)">on<tspan class="f682ff43-d894-422d-9ab6-3d32d8cbed88" x="27.64" y="0">S</tspan><tspan x="39.62" y="0">ta</tspan><tspan class="e6c6ec10-ae6f-4c36-b6b8-6b9c81654d21" x="59.96" y="0">t</tspan><tspan x="67.91" y="0">eChange</tspan></text>
    <rect class="bea029e5-1a3c-4f5a-ab36-41209040d8a9" x="1037.58" y="104.66" width="247.65" height="99.83" rx="19.88"/>
    <text class="afbf6da9-2723-4689-a4c1-af1b3d761d7c" transform="translate(1099.79 164.1)">Public <tspan class="f682ff43-d894-422d-9ab6-3d32d8cbed88" x="70.42" y="0">S</tspan><tspan x="82.39" y="0">ta</tspan><tspan class="e6c6ec10-ae6f-4c36-b6b8-6b9c81654d21" x="102.74" y="0">t</tspan><tspan x="110.68" y="0">e</tspan></text>
    <rect class="a2f85ab7-e30f-46cb-a3bd-32bbdf8f0522" x="341.93" y="501.55" width="338.91" height="103.27" rx="19.88"/>
    <rect class="b864a283-bff4-430d-9f8b-5fccad267f26" x="335.93" y="507.55" width="338.91" height="103.27" rx="19.88"/>
    <rect class="f376b745-9cf7-4491-b979-19d1b2e85825" x="329.93" y="513.55" width="338.91" height="103.27" rx="19.88"/>
    <rect class="e84a178a-c6be-4008-92d5-95492db6ccd1" x="323.93" y="519.55" width="338.91" height="103.27" rx="19.88"/>
    <text class="bfd4d203-ef8f-4c8c-ac76-3ce06210eb0b" transform="translate(421.25 577.15)">E<tspan class="a7d98ddd-2bf7-4f38-93c0-204901853527" x="12.72" y="0">v</tspan><tspan x="24.65" y="0">ent </tspan><tspan class="a3fca14f-99a6-4985-8b1f-8bcb45d2a8ef" x="67.79" y="0">S</tspan><tspan class="ed9a59b6-3d3e-420f-8458-02301554676d" x="80.34" y="0">t</tspan><tspan class="f67ecd8a-63a7-4e10-8f6f-1d69942f02d6" x="89.05" y="0">r</tspan><tspan class="ed9a59b6-3d3e-420f-8458-02301554676d" x="97.66" y="0">eam</tspan></text>
    <path class="f1733608-ecd4-4974-b827-776eeb3827be" d="M354.54,171.06l6.75-6.9,5.41-5.52a2.34,2.34,0,0,0,0-2.74l-5.41-5.53-6.75-6.9"/>
    <line class="f1733608-ecd4-4974-b827-776eeb3827be" x1="282.59" y1="157.5" x2="366.35" y2="157.5"/>
    <path class="f1733608-ecd4-4974-b827-776eeb3827be" d="M515,415.82l-6.89-6.75-5.53-5.41a2.34,2.34,0,0,0-2.74,0l-5.53,5.41-6.9,6.75"/>
    <line class="f1733608-ecd4-4974-b827-776eeb3827be" x1="501.48" y1="487.77" x2="501.48" y2="404.01"/>
    <g>
      <path class="f1733608-ecd4-4974-b827-776eeb3827be" d="M493,229.52l-6.9-6.75-5.52-5.41a2.31,2.31,0,0,0-2.74,0l-5.53,5.41-6.9,6.75"/>
      <line class="f1733608-ecd4-4974-b827-776eeb3827be" x1="479.46" y1="301.46" x2="479.46" y2="217.7"/>
    </g>
    <g>
      <path class="f1733608-ecd4-4974-b827-776eeb3827be" d="M537.06,288.85l-6.89,6.75L524.64,301a2.31,2.31,0,0,1-2.74,0l-5.53-5.41-6.9-6.75"/>
      <line class="f1733608-ecd4-4974-b827-776eeb3827be" x1="523.51" y1="216.91" x2="523.51" y2="300.67"/>
    </g>
    <path class="f1733608-ecd4-4974-b827-776eeb3827be" d="M709.34,171.06l6.75-6.9,5.41-5.52a2.31,2.31,0,0,0,0-2.74l-5.41-5.53-6.75-6.9"/>
    <line class="f1733608-ecd4-4974-b827-776eeb3827be" x1="637.4" y1="157.5" x2="721.15" y2="157.5"/>
    <path class="f1733608-ecd4-4974-b827-776eeb3827be" d="M1010.7,171.06l6.75-6.9,5.41-5.52a2.31,2.31,0,0,0,0-2.74l-5.41-5.53-6.75-6.9"/>
    <line class="f1733608-ecd4-4974-b827-776eeb3827be" x1="938.76" y1="157.5" x2="1022.51" y2="157.5"/>
  </g>
</svg>
