<svg xmlns="http://www.w3.org/2000/svg" width="1310.93" height="656.33"><defs><pattern id="b93e93ff-05d3-45a6-a336-1745a3ebd242" data-name="Docs Polka Background" width="60" height="60" patternTransform="matrix(.87 0 0 .65 515.88 848.85)" patternUnits="userSpaceOnUse"><path fill="none" d="M0 0h60v60H0z"/><circle cx="30" cy="30" r="2.47" fill="#dceaf4"/></pattern><style>.e0f1bea9-150b-4475-a446-581a5c0a7a25{fill:#fff}.ba96d68e-6c9e-4c6b-8dec-d66ea465357e{fill:#b2bfce}.fd3a4061-31ed-4455-a42a-661060ebae7f{fill:#2a4b7d;stroke:#2a4b7d}.ba8c094b-5abc-48fd-91ea-d2a9e8e3983d,.fd3a4061-31ed-4455-a42a-661060ebae7f{stroke-miterlimit:10;stroke-width:.5px}.ba8c094b-5abc-48fd-91ea-d2a9e8e3983d{fill:#1998ff;stroke:#1998ff}.ab1f9347-76a8-4d32-a2f8-849c7614d83c{fill:#75828e}</style></defs><path fill="url(#b93e93ff-05d3-45a6-a336-1745a3ebd242)" d="M3.54 3.74h1305.22v651.58H3.54z" id="bf275e95-57c2-4e27-a84d-d1e41de98647" data-name="Layer 2"/><g id="b6d25e6d-d1c8-450c-8b86-cf43b866bed3" data-name="Layer 1"><rect class="e0f1bea9-150b-4475-a446-581a5c0a7a25" x="764.48" y="237.15" width="247.65" height="99.83" rx="19.88"/><path class="ba96d68e-6c9e-4c6b-8dec-d66ea465357e" d="M992.25 338H784.36a20.9 20.9 0 01-20.88-20.87V257a20.91 20.91 0 0120.88-20.88h207.89a20.91 20.91 0 0120.88 20.88v60.08A20.9 20.9 0 01992.25 338zm-207.89-99.85A18.9 18.9 0 00765.48 257v60.08A18.89 18.89 0 00784.36 336h207.89a18.89 18.89 0 0018.88-18.87V257a18.9 18.9 0 00-18.88-18.88z"/><path class="fd3a4061-31ed-4455-a42a-661060ebae7f" d="M827.1 290.24v6.35h-2v-16.8h4.62a6.09 6.09 0 014.17 1.31 4.69 4.69 0 011.49 3.7 5.1 5.1 0 01-1.65 3.92 6.32 6.32 0 01-4.45 1.52zm0-8.67v6.89h2.06a4.6 4.6 0 003.11-.93 3.28 3.28 0 001.07-2.63q0-3.33-3.93-3.33zm17.47 4.97a2.32 2.32 0 00-1.45-.39 2.47 2.47 0 00-2.06 1.16 5.37 5.37 0 00-.82 3.17v6.11h-1.93v-12h1.93v2.47a4.18 4.18 0 011.26-2 2.86 2.86 0 011.88-.71 3.09 3.09 0 011.15.17zm3.07-4.99a1.21 1.21 0 01-.88-.36 1.28 1.28 0 010-1.78 1.21 1.21 0 01.88-.36 1.25 1.25 0 01.9.36 1.24 1.24 0 010 1.77 1.26 1.26 0 01-.9.37zm.94 15h-1.92v-12h1.92zm13.32-11.96l-4.78 12h-1.88l-4.55-12h2.11l3 8.72a8 8 0 01.43 1.68 8.13 8.13 0 01.38-1.63l3.19-8.77zm10.22 12h-1.92v-1.87h-.05a4 4 0 01-3.69 2.15 3.9 3.9 0 01-2.8-.95 3.27 3.27 0 01-1-2.52q0-3.36 4-3.91l3.6-.5c0-2-.82-3.06-2.47-3.06a5.94 5.94 0 00-3.92 1.47v-2a7.44 7.44 0 014.08-1.13q4.23 0 4.23 4.48zm-1.92-6.07l-2.89.4a4.82 4.82 0 00-2 .66 1.92 1.92 0 00-.68 1.68 1.83 1.83 0 00.63 1.44 2.43 2.43 0 001.67.56 3.08 3.08 0 002.36-1 3.56 3.56 0 00.93-2.53zm11.11 5.96a3.69 3.69 0 01-1.79.37q-3.16 0-3.16-3.52v-7.1h-2.06v-1.64h2.06v-2.93l1.93-.62v3.55h3v1.64h-3V293a2.79 2.79 0 00.41 1.73 1.63 1.63 0 001.36.51 2 2 0 001.25-.4zm12.02-5.41h-8.47a4.49 4.49 0 001.08 3.1 3.74 3.74 0 002.83 1.09 5.89 5.89 0 003.73-1.34v1.81a7 7 0 01-4.18 1.14 5.07 5.07 0 01-4-1.63 6.68 6.68 0 01-1.45-4.6 6.57 6.57 0 011.59-4.57 5.09 5.09 0 013.94-1.76 4.52 4.52 0 013.64 1.52 6.36 6.36 0 011.29 4.23zm-2-1.63a3.86 3.86 0 00-.8-2.59 2.76 2.76 0 00-2.2-.92 3.08 3.08 0 00-2.3 1 4.4 4.4 0 00-1.18 2.54zm10.96 6.47v-2.32a4.26 4.26 0 001 .64 8.65 8.65 0 001.17.47 9.31 9.31 0 001.24.3 6.88 6.88 0 001.15.1 4.49 4.49 0 002.71-.67 2.28 2.28 0 00.9-1.94 2.25 2.25 0 00-.3-1.18 3.26 3.26 0 00-.83-.92 7.7 7.7 0 00-1.25-.8l-1.55-.8c-.58-.3-1.13-.6-1.64-.9a7.39 7.39 0 01-1.32-1 4.33 4.33 0 01-.89-1.25 4 4 0 01-.32-1.64 3.87 3.87 0 01.5-2 4.24 4.24 0 011.33-1.4 5.87 5.87 0 011.87-.82 8.54 8.54 0 012.14-.27 8.36 8.36 0 013.62.59v2.22a6.57 6.57 0 00-3.82-1 6.27 6.27 0 00-1.29.13 3.67 3.67 0 00-1.15.44 2.48 2.48 0 00-.82.79 2.09 2.09 0 00-.32 1.17 2.39 2.39 0 00.24 1.11 2.83 2.83 0 00.71.86 6.62 6.62 0 001.14.75c.45.24 1 .51 1.56.79s1.17.61 1.71.94a8 8 0 011.42 1.09 5 5 0 011 1.33 3.68 3.68 0 01.36 1.66 4.13 4.13 0 01-.49 2.1 3.91 3.91 0 01-1.31 1.4 5.68 5.68 0 01-1.9.78 10.49 10.49 0 01-2.28.24c-.26 0-.59 0-1-.06s-.79-.11-1.2-.19a9.65 9.65 0 01-1.15-.3 3.37 3.37 0 01-.94-.44zm18.07.57a3.74 3.74 0 01-1.8.37q-3.15 0-3.15-3.52v-7.1h-2.06v-1.64h2.06v-2.93l1.92-.62v3.55h3v1.64h-3V293a2.85 2.85 0 00.41 1.73 1.66 1.66 0 001.36.51 2 2 0 001.26-.4zm11.15.11h-1.92v-1.87h-.05a4 4 0 01-3.69 2.15 3.9 3.9 0 01-2.8-.95 3.27 3.27 0 01-1-2.52q0-3.36 4-3.91l3.6-.5c0-2-.82-3.06-2.47-3.06a5.94 5.94 0 00-3.92 1.47v-2a7.44 7.44 0 014.08-1.13q4.23 0 4.23 4.48zm-1.92-6.07l-2.89.4a4.87 4.87 0 00-2 .66 1.92 1.92 0 00-.68 1.68 1.83 1.83 0 00.63 1.44 2.43 2.43 0 001.67.56 3.08 3.08 0 002.36-1 3.56 3.56 0 00.93-2.53zm11.11 5.96a3.69 3.69 0 01-1.79.37c-2.1 0-3.16-1.17-3.16-3.52v-7.1h-2.06v-1.64h2.06v-2.93l1.93-.62v3.55h3v1.64h-3V293a2.79 2.79 0 00.41 1.73 1.63 1.63 0 001.36.51 2 2 0 001.25-.4zm12.02-5.41h-8.47a4.49 4.49 0 001.08 3.1 3.74 3.74 0 002.83 1.09 5.89 5.89 0 003.73-1.34v1.81a7 7 0 01-4.18 1.14 5.07 5.07 0 01-4-1.63 6.68 6.68 0 01-1.45-4.6 6.57 6.57 0 011.59-4.57 5.1 5.1 0 013.94-1.76 4.52 4.52 0 013.64 1.52 6.36 6.36 0 011.29 4.23zm-2-1.63a3.86 3.86 0 00-.8-2.59 2.76 2.76 0 00-2.2-.92 3.08 3.08 0 00-2.3 1 4.4 4.4 0 00-1.18 2.54z"/><path class="ba8c094b-5abc-48fd-91ea-d2a9e8e3983d" d="M301.32 111.75h-2v-7.67h-8.7v7.67h-2V94.94h2v7.37h8.7v-7.37h2zm13.85 0h-1.92v-1.9h-.05a4 4 0 01-3.7 2.18q-4.29 0-4.29-5.11v-7.17h1.91v6.86c0 2.54 1 3.8 2.9 3.8a2.93 2.93 0 002.32-1 4 4 0 00.91-2.71v-6.95h1.92zm20.92 0h-1.93v-6.89a5.24 5.24 0 00-.61-2.89 2.34 2.34 0 00-2.07-.89 2.56 2.56 0 00-2.09 1.13 4.27 4.27 0 00-.86 2.69v6.85h-1.92v-7.13q0-3.54-2.74-3.54a2.55 2.55 0 00-2.08 1.06 4.38 4.38 0 00-.82 2.76v6.85h-1.92v-12H321v1.9a4.06 4.06 0 013.72-2.18 3.44 3.44 0 013.4 2.48 4.27 4.27 0 014-2.48q4 0 4 4.88zm12.22 0h-1.92v-1.88h-.05a4 4 0 01-3.69 2.16 4 4 0 01-2.81-1 3.3 3.3 0 01-1-2.52c0-2.24 1.32-3.55 4-3.91l3.6-.51c0-2-.83-3.06-2.48-3.06a5.93 5.93 0 00-3.91 1.48v-2a7.44 7.44 0 014.08-1.12q4.23 0 4.23 4.47zm-1.92-6.07l-2.9.4a4.55 4.55 0 00-2 .66 1.88 1.88 0 00-.68 1.68 1.83 1.83 0 00.62 1.43 2.39 2.39 0 001.67.56 3.06 3.06 0 002.36-1 3.55 3.55 0 00.94-2.54zm15.5 6.07H360v-6.85c0-2.54-.93-3.82-2.79-3.82a3 3 0 00-2.39 1.09 4 4 0 00-.94 2.73v6.85h-1.92v-12h1.92v2a4.32 4.32 0 013.94-2.27 3.67 3.67 0 013 1.27 5.69 5.69 0 011 3.67zM376 94.94v1.69h-1.64v13.43H376v1.69h-5.3v-1.69h1.64V96.63h-1.64v-1.69zm12.43 16.81h-1.92v-6.85c0-2.54-.93-3.82-2.79-3.82a3 3 0 00-2.38 1.09 4 4 0 00-.95 2.73v6.85h-1.92v-12h1.92v2h.05a4.33 4.33 0 013.94-2.27 3.66 3.66 0 013 1.27 5.63 5.63 0 011 3.67zM394 110v7.26h-1.93V99.75H394v2.11a4.54 4.54 0 014.15-2.39 4.36 4.36 0 013.62 1.61 6.64 6.64 0 011.3 4.32 7.43 7.43 0 01-1.46 4.82 4.87 4.87 0 01-4 1.81A4 4 0 01394 110zm0-4.84v1.68a3.57 3.57 0 001 2.52 3.45 3.45 0 005.19-.29 6.14 6.14 0 001-3.72 4.82 4.82 0 00-.92-3.14 3.06 3.06 0 00-2.51-1.14 3.39 3.39 0 00-2.69 1.17 4.28 4.28 0 00-1.07 2.93zm21.87 6.59H414v-1.9h-.05a4 4 0 01-3.7 2.18q-4.29 0-4.29-5.11v-7.17h1.91v6.86c0 2.54 1 3.8 2.9 3.8a2.93 2.93 0 002.32-1 4 4 0 00.91-2.71v-6.95h1.92zm9.44-.12a3.69 3.69 0 01-1.79.38c-2.1 0-3.15-1.18-3.15-3.52v-7.1h-2.07v-1.64h2.07v-2.93l1.92-.62v3.55h3v1.64h-3v6.76a2.82 2.82 0 00.41 1.72 1.62 1.62 0 001.36.52 2 2 0 001.25-.4zM829.53 105q0 7.08-6.39 7.08-6.12 0-6.12-6.81V94.94h2v10.15q0 5.18 4.36 5.17c2.8 0 4.21-1.66 4.21-5V94.94h2zm3.21 6.31v-2.06a5.69 5.69 0 003.45 1.16c1.69 0 2.53-.56 2.53-1.69a1.48 1.48 0 00-.21-.81 2.21 2.21 0 00-.59-.59 4.41 4.41 0 00-.87-.47l-1.07-.42a14.58 14.58 0 01-1.4-.64 4.45 4.45 0 01-1-.73 2.69 2.69 0 01-.61-.92 3.35 3.35 0 01-.2-1.2 2.84 2.84 0 01.39-1.5 3.34 3.34 0 011-1.09 4.92 4.92 0 011.47-.66 6.45 6.45 0 011.7-.22 6.87 6.87 0 012.79.54V102a5.41 5.41 0 00-3-.87 3.32 3.32 0 00-1 .13 2.29 2.29 0 00-.74.34 1.54 1.54 0 00-.48.54 1.3 1.3 0 00-.17.68 1.59 1.59 0 00.17.79 1.75 1.75 0 00.5.56 3.64 3.64 0 00.79.44l1.07.44a15.28 15.28 0 011.43.62 5.23 5.23 0 011.08.73 2.94 2.94 0 01.68.93 3 3 0 01.24 1.26 2.94 2.94 0 01-.39 1.54 3.31 3.31 0 01-1 1.09 4.79 4.79 0 01-1.51.65 7.5 7.5 0 01-1.79.13 6.73 6.73 0 01-3.26-.69zm20.55-5.08h-8.47a4.46 4.46 0 001.08 3.09 3.68 3.68 0 002.83 1.09 5.9 5.9 0 003.73-1.33v1.8a6.94 6.94 0 01-4.18 1.15 5.08 5.08 0 01-4-1.64 6.68 6.68 0 01-1.45-4.6 6.61 6.61 0 011.58-4.56 5.09 5.09 0 014-1.76A4.49 4.49 0 01852 101a6.36 6.36 0 011.29 4.23zm-2-1.63a3.91 3.91 0 00-.8-2.59 2.74 2.74 0 00-2.2-.93 3.13 3.13 0 00-2.31 1 4.4 4.4 0 00-1.17 2.54zm11.16-2.91a2.39 2.39 0 00-1.45-.38 2.43 2.43 0 00-2 1.16 5.27 5.27 0 00-.83 3.16v6.12h-1.97v-12h1.92v2.47a4.17 4.17 0 011.25-2 2.82 2.82 0 011.89-.71 3.07 3.07 0 011.14.16zM875 94.94v1.69h-1.64v13.43H875v1.69h-5.25v-1.69h1.64V96.63h-1.64v-1.69zm12.46 16.81h-1.92v-6.85c0-2.54-.93-3.82-2.79-3.82a3 3 0 00-2.38 1.09 4 4 0 00-1 2.73v6.85h-1.87v-12h1.92v2h.05a4.33 4.33 0 013.94-2.27 3.67 3.67 0 013 1.27 5.69 5.69 0 011 3.67zm9.19-.12a3.69 3.69 0 01-1.79.38c-2.1 0-3.16-1.18-3.16-3.52v-7.1h-2.06v-1.64h2.06v-2.93l1.93-.62v3.55h3v1.64h-3v6.76a2.75 2.75 0 00.41 1.72 1.61 1.61 0 001.36.52 2 2 0 001.25-.4zm12.02-5.4h-8.47a4.46 4.46 0 001.08 3.09 3.7 3.7 0 002.83 1.09 5.88 5.88 0 003.73-1.33v1.8a6.92 6.92 0 01-4.18 1.15 5.08 5.08 0 01-4-1.64 6.68 6.68 0 01-1.45-4.6 6.56 6.56 0 011.59-4.56 5.07 5.07 0 013.94-1.76 4.47 4.47 0 013.64 1.52 6.36 6.36 0 011.29 4.23zm-2-1.63a3.86 3.86 0 00-.8-2.59 2.74 2.74 0 00-2.2-.93 3.09 3.09 0 00-2.3 1 4.34 4.34 0 00-1.18 2.54zm11.17-2.91a2.58 2.58 0 00-3.51.78 5.34 5.34 0 00-.83 3.16v6.12h-1.92v-12h1.92v2.47a4.17 4.17 0 011.25-2 2.82 2.82 0 011.89-.71 3.16 3.16 0 011.15.16zm8.47-6.02a2.56 2.56 0 00-1.28-.32q-2 0-2 2.55v1.85h2.81v1.64H923v10.36h-1.91v-10.36h-2.05v-1.64h2.05v-2a4 4 0 011.09-3 3.67 3.67 0 012.72-1.1 3.55 3.55 0 011.39.22zm10.17 16.08h-1.92v-1.88a4 4 0 01-3.69 2.16 3.94 3.94 0 01-2.8-1 3.27 3.27 0 01-1-2.52c0-2.24 1.32-3.55 4-3.91l3.6-.51c0-2-.82-3.06-2.47-3.06a6 6 0 00-3.92 1.48v-2a7.44 7.44 0 014.08-1.12q4.23 0 4.23 4.47zm-1.92-6.07l-2.89.4a4.6 4.6 0 00-2 .66 1.9 1.9 0 00-.68 1.68 1.81 1.81 0 00.63 1.43 2.38 2.38 0 001.67.56 3.08 3.08 0 002.36-1 3.58 3.58 0 00.93-2.54zm13.72 5.52a6.27 6.27 0 01-3.28.8 5.44 5.44 0 01-4.14-1.67 6.06 6.06 0 01-1.58-4.33 6.64 6.64 0 011.7-4.76 6 6 0 014.54-1.8 6.36 6.36 0 012.79.58v2a4.94 4.94 0 00-2.86-.94 3.85 3.85 0 00-3 1.32 5 5 0 00-1.18 3.46 4.75 4.75 0 001.11 3.33 3.8 3.8 0 003 1.22 4.83 4.83 0 002.95-1zm12.55-4.97h-8.47a4.46 4.46 0 001.08 3.09 3.71 3.71 0 002.84 1.09 5.87 5.87 0 003.72-1.33v1.8a6.92 6.92 0 01-4.18 1.15 5.08 5.08 0 01-4-1.64 6.68 6.68 0 01-1.45-4.6 6.56 6.56 0 011.59-4.56 5.07 5.07 0 013.94-1.76 4.47 4.47 0 013.64 1.52 6.36 6.36 0 011.29 4.23zm-2-1.63a3.86 3.86 0 00-.8-2.59 2.74 2.74 0 00-2.2-.93 3.09 3.09 0 00-2.3 1 4.34 4.34 0 00-1.18 2.54z"/><path class="e0f1bea9-150b-4475-a446-581a5c0a7a25" d="M254.8 248.43h176.94v77.73H254.8z"/><path d="M432.74 327.16H253.8v-79.73h178.94zm-176.94-2h174.94v-75.73H255.8z" fill="#1998ff"/><path class="ba8c094b-5abc-48fd-91ea-d2a9e8e3983d" d="M281.32 297.1a5.57 5.57 0 01-4.25-1.68 6.23 6.23 0 01-1.59-4.46 6.48 6.48 0 011.65-4.72 5.92 5.92 0 014.47-1.7 5.39 5.39 0 014.19 1.65 6.57 6.57 0 011.5 4.58 6.44 6.44 0 01-1.62 4.6 5.69 5.69 0 01-4.35 1.73zm.14-11a3.64 3.64 0 00-2.93 1.26 5.18 5.18 0 00-1.08 3.48 4.87 4.87 0 001.09 3.36 3.7 3.7 0 002.92 1.23 3.52 3.52 0 002.86-1.2 5.24 5.24 0 001-3.44 5.33 5.33 0 00-1-3.47 3.5 3.5 0 00-2.86-1.17zm18.86 10.72h-1.92V290q0-3.83-2.79-3.83a3 3 0 00-2.38 1.09 4 4 0 00-1 2.74v6.84h-1.92v-12h1.92v2h.05a4.34 4.34 0 013.94-2.27 3.67 3.67 0 013 1.27 5.63 5.63 0 011 3.67zm15.32-.7a9.93 9.93 0 01-4.64 1 7.47 7.47 0 01-5.74-2.31 8.51 8.51 0 01-2.16-6.06 8.91 8.91 0 012.43-6.51 8.2 8.2 0 016.15-2.49 9.9 9.9 0 014 .69v2.1a8 8 0 00-4-1 6.13 6.13 0 00-4.7 1.94 7.28 7.28 0 00-1.8 5.17 7 7 0 001.68 4.89 5.77 5.77 0 004.42 1.82 8.27 8.27 0 004.38-1.12zm8.18.98a5.58 5.58 0 01-4.25-1.68A6.23 6.23 0 01318 291a6.44 6.44 0 011.66-4.72 5.91 5.91 0 014.46-1.7 5.38 5.38 0 014.19 1.65 6.57 6.57 0 011.51 4.58 6.45 6.45 0 01-1.63 4.6 5.69 5.69 0 01-4.37 1.69zm.14-11a3.66 3.66 0 00-2.93 1.26 5.18 5.18 0 00-1.08 3.48 4.92 4.92 0 001.09 3.36 3.71 3.71 0 002.92 1.23 3.5 3.5 0 002.86-1.2 5.25 5.25 0 001-3.44 5.33 5.33 0 00-1-3.47 3.49 3.49 0 00-2.82-1.17zm25.95 10.72H348v-6.89a5.18 5.18 0 00-.61-2.88 2.32 2.32 0 00-2.07-.9 2.56 2.56 0 00-2.09 1.13 4.28 4.28 0 00-.86 2.7v6.84h-1.93v-7.13q0-3.54-2.73-3.54a2.53 2.53 0 00-2.08 1.07 4.34 4.34 0 00-.82 2.76v6.84h-1.92v-12h1.92v1.9a4.08 4.08 0 013.73-2.18 3.53 3.53 0 012.15.68A3.48 3.48 0 01342 287a4.29 4.29 0 014-2.48c2.64 0 4 1.63 4 4.88zm20.67 0h-1.92v-6.89a5.17 5.17 0 00-.62-2.88 2.32 2.32 0 00-2.07-.9 2.56 2.56 0 00-2.09 1.13A4.34 4.34 0 00363 290v6.84h-1.9v-7.13q0-3.54-2.73-3.54a2.53 2.53 0 00-2.09 1.07 4.34 4.34 0 00-.82 2.76v6.84h-1.92v-12h1.92v1.9h.05a4.06 4.06 0 013.72-2.18 3.53 3.53 0 012.15.68 3.42 3.42 0 011.25 1.8 4.29 4.29 0 014-2.48q4 0 4 4.88zm12.22 0h-1.92v-1.88h-.05a4 4 0 01-3.69 2.16 4 4 0 01-2.81-1 3.3 3.3 0 01-1-2.52c0-2.24 1.32-3.55 4-3.91l3.6-.51c0-2-.83-3.06-2.47-3.06a6 6 0 00-3.92 1.48v-2a7.44 7.44 0 014.08-1.12q4.23 0 4.23 4.47zm-1.92-6.07l-2.9.4a4.55 4.55 0 00-2 .66 1.9 1.9 0 00-.68 1.68 1.85 1.85 0 00.62 1.44 2.44 2.44 0 001.67.55 3.1 3.1 0 002.37-1 3.58 3.58 0 00.93-2.54zm15.5 6.07h-1.92V290q0-3.83-2.79-3.83a3 3 0 00-2.38 1.09 4 4 0 00-1 2.74v6.84h-1.92v-12h1.92v2h.05a4.34 4.34 0 013.94-2.27 3.67 3.67 0 013 1.27 5.69 5.69 0 011 3.67zm13.86 0h-1.92v-2a4.84 4.84 0 01-7.74.71 6.59 6.59 0 01-1.36-4.39 7.21 7.21 0 011.5-4.77 5 5 0 014-1.79 3.86 3.86 0 013.6 1.94v-7.43h1.92zm-1.92-5.43v-1.77a3.43 3.43 0 00-1-2.46 3.23 3.23 0 00-2.44-1 3.31 3.31 0 00-2.76 1.29 5.68 5.68 0 00-1 3.57 5 5 0 001 3.27 3.15 3.15 0 002.59 1.2 3.27 3.27 0 002.61-1.16 4.31 4.31 0 001-2.94z"/><path d="M519.89 498.7h-7.42v-14h7.11v1.49h-5.47v4.66h5.06v1.47h-5.06v4.9h5.78zM534 484.69l-5.19 14H527l-5.07-14h1.82l3.88 11.11a6.5 6.5 0 01.28 1.24 6.14 6.14 0 01.32-1.26l4-11.09zm10.43 14.01H537v-14h7.11v1.49h-5.47v4.66h5.06v1.47h-5.06v4.9h5.78zm14.98 0h-2l-7.2-11.16a4.07 4.07 0 01-.45-.88h-.06a14.65 14.65 0 01.08 1.92v10.12h-1.64v-14h2.12l7 11c.29.46.48.77.56.94a15.52 15.52 0 01-.1-2.06v-9.87h1.64zm12.96-12.52h-4v12.52h-1.64v-12.52h-4v-1.49h9.72zm2.54 11.95v-1.93a4.11 4.11 0 00.8.53 7.55 7.55 0 001 .39 7.72 7.72 0 001 .25 5.72 5.72 0 001 .09 3.78 3.78 0 002.26-.56 1.91 1.91 0 00.75-1.62 2 2 0 00-.25-1 2.89 2.89 0 00-.69-.76 7.5 7.5 0 00-1-.67l-1.29-.67c-.49-.24-.95-.49-1.37-.75a5.6 5.6 0 01-1.1-.84 3.3 3.3 0 01-.74-1 3.52 3.52 0 01.15-3 3.52 3.52 0 011.1-1.17 4.77 4.77 0 011.56-.68 7.12 7.12 0 011.78-.23 6.86 6.86 0 013 .5v1.84a5.5 5.5 0 00-3.18-.86 5 5 0 00-1.08.12 2.93 2.93 0 00-.95.36 2.18 2.18 0 00-.69.66 1.75 1.75 0 00-.26 1 2.06 2.06 0 00.2.93 2.17 2.17 0 00.59.71 5.59 5.59 0 00.95.63l1.3.66c.5.25 1 .51 1.42.79a6.43 6.43 0 011.18.9 4.11 4.11 0 01.81 1.11 3 3 0 01.3 1.38 3.55 3.55 0 01-.41 1.76 3.36 3.36 0 01-1.09 1.16 4.71 4.71 0 01-1.59.65 8.3 8.3 0 01-1.89.2 6.6 6.6 0 01-.82-.05c-.33 0-.66-.09-1-.16a8.39 8.39 0 01-1-.25 2.77 2.77 0 01-.75-.42zm-.46-219.71v-1.93a4 4 0 00.79.53 7.52 7.52 0 002 .64 5.63 5.63 0 001 .09 3.78 3.78 0 002.26-.56 1.91 1.91 0 00.75-1.62 2 2 0 00-.25-1 2.89 2.89 0 00-.69-.76 6.68 6.68 0 00-1-.67l-1.3-.67c-.48-.24-.94-.49-1.36-.75a5.67 5.67 0 01-1.11-.84 3.43 3.43 0 01-.73-1 3.54 3.54 0 01.15-3 3.59 3.59 0 011.1-1.16 5 5 0 011.56-.69 7.11 7.11 0 011.78-.22 6.86 6.86 0 013 .5v1.84a5.51 5.51 0 00-3.19-.86 4.94 4.94 0 00-1.07.12 2.9 2.9 0 00-1 .36 2.14 2.14 0 00-.68.66 1.67 1.67 0 00-.26 1 1.93 1.93 0 00.2.93 2.17 2.17 0 00.59.71 5.22 5.22 0 00.95.63c.37.2.81.42 1.29.66s1 .51 1.43.78a7 7 0 011.18.91 4 4 0 01.81 1.11 3 3 0 01.29 1.38 3.55 3.55 0 01-.4 1.76 3.46 3.46 0 01-1.09 1.16 4.71 4.71 0 01-1.59.65 8.33 8.33 0 01-1.9.2c-.22 0-.49 0-.82-.05s-.65-.09-1-.16a8.39 8.39 0 01-1-.25 2.62 2.62 0 01-.69-.43zM595 266.47h-4V279h-1.65v-12.53h-4V265H595zM607.54 279h-1.81l-1.49-3.93h-5.94l-1.39 3.93h-1.83l5.37-14h1.7zm-3.84-5.4l-2.19-6a4.68 4.68 0 01-.22-.94 5.26 5.26 0 01-.22.94l-2.18 6zm13.75-7.13h-4V279h-1.65v-12.53h-4V265h9.72zM628.07 279h-7.42v-14h7.1v1.49h-5.46v4.66h5.05v1.47h-5.05v4.9h5.78z" stroke="#75828e" stroke-width=".3" fill="#75828e" stroke-miterlimit="10"/><g opacity=".3"><rect class="e0f1bea9-150b-4475-a446-581a5c0a7a25" x="736.12" y="439.2" width="338.91" height="103.27" rx="19.88"/><path class="ba96d68e-6c9e-4c6b-8dec-d66ea465357e" d="M1055.16 543.47H756a20.91 20.91 0 01-20.88-20.88v-63.52A20.9 20.9 0 01756 438.2h299.16a20.89 20.89 0 0120.84 20.87v63.52a20.9 20.9 0 01-20.84 20.88zM756 440.2a18.89 18.89 0 00-18.88 18.87v63.52A18.9 18.9 0 00756 541.47h299.16a18.9 18.9 0 0018.84-18.88v-63.52a18.89 18.89 0 00-18.87-18.87z"/></g><g opacity=".5"><rect class="e0f1bea9-150b-4475-a446-581a5c0a7a25" x="730.12" y="445.2" width="338.91" height="103.27" rx="19.88"/><path class="ba96d68e-6c9e-4c6b-8dec-d66ea465357e" d="M1049.16 549.47H750a20.91 20.91 0 01-20.88-20.88v-63.52A20.9 20.9 0 01750 444.2h299.16a20.89 20.89 0 0120.84 20.87v63.52a20.9 20.9 0 01-20.84 20.88zM750 446.2a18.89 18.89 0 00-18.88 18.87v63.52A18.9 18.9 0 00750 547.47h299.16a18.9 18.9 0 0018.84-18.88v-63.52a18.89 18.89 0 00-18.87-18.87z"/></g><g opacity=".7"><rect class="e0f1bea9-150b-4475-a446-581a5c0a7a25" x="724.12" y="451.2" width="338.91" height="103.27" rx="19.88"/><path class="ba96d68e-6c9e-4c6b-8dec-d66ea465357e" d="M1043.16 555.47H744a20.91 20.91 0 01-20.88-20.88v-63.52A20.9 20.9 0 01744 450.2h299.16a20.89 20.89 0 0120.84 20.87v63.52a20.9 20.9 0 01-20.84 20.88zM744 452.2a18.89 18.89 0 00-18.88 18.87v63.52A18.9 18.9 0 00744 553.47h299.16a18.9 18.9 0 0018.84-18.88v-63.52a18.89 18.89 0 00-18.87-18.87z"/></g><rect class="e0f1bea9-150b-4475-a446-581a5c0a7a25" x="718.12" y="457.2" width="338.91" height="103.27" rx="19.88"/><path class="ba96d68e-6c9e-4c6b-8dec-d66ea465357e" d="M1037.16 561.47H738a20.91 20.91 0 01-20.88-20.88v-63.52A20.9 20.9 0 01738 456.2h299.16a20.89 20.89 0 0120.84 20.87v63.52a20.9 20.9 0 01-20.84 20.88zM738 458.2a18.89 18.89 0 00-18.88 18.87v63.52A18.9 18.9 0 00738 559.47h299.16a18.9 18.9 0 0018.84-18.88v-63.52a18.89 18.89 0 00-18.87-18.87z"/><path class="fd3a4061-31ed-4455-a42a-661060ebae7f" d="M826.56 514.8h-8.91V498h8.53v1.78h-6.56v5.59h6.07v1.77h-6.07V513h6.94zm12.98-12l-4.78 12h-1.88l-4.55-12h2.11l3 8.72a8.55 8.55 0 01.42 1.68 8.13 8.13 0 01.38-1.63l3.19-8.77zm12.15 6.48h-8.48a4.49 4.49 0 001.08 3.1 3.74 3.74 0 002.84 1.09 5.88 5.88 0 003.72-1.34v1.81a7 7 0 01-4.18 1.14 5.07 5.07 0 01-4-1.63 6.73 6.73 0 01-1.45-4.6 6.57 6.57 0 011.59-4.57 5.1 5.1 0 013.94-1.76 4.54 4.54 0 013.65 1.48 6.36 6.36 0 011.29 4.23zm-2-1.63a3.91 3.91 0 00-.81-2.59 2.74 2.74 0 00-2.19-.92 3.09 3.09 0 00-2.31 1 4.46 4.46 0 00-1.17 2.54zm15.44 7.15h-1.92V508q0-3.82-2.79-3.82a3 3 0 00-2.39 1.08 4 4 0 00-.94 2.74v6.84h-1.92v-12h1.92v2a4.33 4.33 0 013.93-2.27 3.68 3.68 0 013 1.27 5.7 5.7 0 011 3.68zm9.76-.11a3.69 3.69 0 01-1.79.37q-3.15 0-3.15-3.52v-7.1h-2.06v-1.64H870v-2.93l1.92-.62v3.55h3v1.64h-3v6.76a2.85 2.85 0 00.41 1.73 1.65 1.65 0 001.36.51 2 2 0 001.25-.4zm9.77-.57v-2.32a4.26 4.26 0 001 .64 8.65 8.65 0 001.17.47 9.7 9.7 0 001.24.3 7 7 0 001.15.1 4.49 4.49 0 002.71-.67 2.28 2.28 0 00.9-1.94 2.25 2.25 0 00-.3-1.18 3.12 3.12 0 00-.83-.92 7.59 7.59 0 00-1.24-.8l-1.56-.8c-.58-.3-1.13-.6-1.64-.9a7.39 7.39 0 01-1.32-1 4.33 4.33 0 01-.89-1.25 4 4 0 01-.32-1.64 3.78 3.78 0 01.51-2 4.11 4.11 0 011.32-1.4 6 6 0 011.87-.82 8.54 8.54 0 012.14-.27 8.36 8.36 0 013.62.59v2.22a6.55 6.55 0 00-3.82-1 6.27 6.27 0 00-1.29.13 3.77 3.77 0 00-1.15.44 2.48 2.48 0 00-.82.79 2.09 2.09 0 00-.32 1.17 2.39 2.39 0 00.24 1.11 2.83 2.83 0 00.71.86 7.16 7.16 0 001.15.75c.44.24 1 .51 1.55.79s1.17.61 1.71.94a8 8 0 011.42 1.09 4.74 4.74 0 011 1.33 3.68 3.68 0 01.36 1.66 4.23 4.23 0 01-.48 2.1 4 4 0 01-1.32 1.4 5.68 5.68 0 01-1.9.78 10.49 10.49 0 01-2.28.24c-.26 0-.59 0-1-.06s-.79-.11-1.19-.19a9.34 9.34 0 01-1.16-.3 3.54 3.54 0 01-.94-.44zm18.64.57a3.69 3.69 0 01-1.79.37q-3.15 0-3.15-3.52v-7.1h-2.06v-1.64h2.06v-2.93l1.92-.62v3.55h3v1.64h-3v6.76a2.85 2.85 0 00.41 1.73 1.65 1.65 0 001.36.51 2 2 0 001.25-.4zm9.4-9.94a2.32 2.32 0 00-1.45-.39 2.48 2.48 0 00-2.06 1.16 5.37 5.37 0 00-.82 3.17v6.11h-1.92v-12h1.92v2.47a4.17 4.17 0 011.25-2 2.87 2.87 0 011.89-.71 3 3 0 011.14.17zm11.99 4.53h-8.47a4.49 4.49 0 001.08 3.1 3.74 3.74 0 002.84 1.09 5.88 5.88 0 003.72-1.34v1.81a7 7 0 01-4.18 1.14 5.07 5.07 0 01-4-1.63 6.68 6.68 0 01-1.45-4.6 6.57 6.57 0 011.59-4.57 5.1 5.1 0 013.94-1.76 4.54 4.54 0 013.65 1.52 6.42 6.42 0 011.28 4.23zm-2-1.63a3.91 3.91 0 00-.81-2.59 2.74 2.74 0 00-2.19-.92 3.09 3.09 0 00-2.31 1 4.33 4.33 0 00-1.17 2.54zm14.08 7.15h-1.93v-1.87a4 4 0 01-3.69 2.15 3.92 3.92 0 01-2.81-1 3.26 3.26 0 01-1-2.52q0-3.36 4-3.91l3.59-.5c0-2-.82-3.06-2.47-3.06a5.91 5.91 0 00-3.91 1.47v-2a7.44 7.44 0 014.08-1.13q4.23 0 4.23 4.48zm-1.93-6.07l-2.89.4a4.92 4.92 0 00-2 .66 1.92 1.92 0 00-.68 1.68 1.83 1.83 0 00.63 1.44 2.44 2.44 0 001.67.56 3.08 3.08 0 002.36-1 3.56 3.56 0 00.93-2.53zM958 514.8h-1.92v-6.89a5.18 5.18 0 00-.61-2.88 2.34 2.34 0 00-2.07-.89 2.55 2.55 0 00-2.09 1.12 4.28 4.28 0 00-.87 2.7v6.84h-1.92v-7.12q0-3.54-2.73-3.54a2.51 2.51 0 00-2.08 1.06 4.38 4.38 0 00-.82 2.76v6.84H941v-12h1.93v1.9a4.09 4.09 0 013.73-2.18 3.49 3.49 0 013.4 2.49 4.28 4.28 0 014-2.49q4 0 4 4.89z"/><path class="ab1f9347-76a8-4d32-a2f8-849c7614d83c" d="M473.9 303.42L461.74 291a3.27 3.27 0 010-4.13l12.16-12.43 1.43 1.4-12.16 12.43a1.5 1.5 0 000 1.34L475.33 302z"/><path class="ab1f9347-76a8-4d32-a2f8-849c7614d83c" d="M462.8 288.16h283.88v2H462.8zM907 357.84l-12.42-12.15a1.44 1.44 0 00-1.34 0l-12.42 12.15-1.4-1.43 12.42-12.15a3.26 3.26 0 014.14 0l12.42 12.15z"/><path class="ab1f9347-76a8-4d32-a2f8-849c7614d83c" d="M893.11 345.32h2v83.76h-2zm-549.84-125.2a3 3 0 01-2.07-.74l-12.42-12.16 1.4-1.43L342.6 218a1.5 1.5 0 001.34 0l12.43-12.16 1.4 1.43-12.43 12.16a3 3 0 01-2.07.69z"/><path class="ab1f9347-76a8-4d32-a2f8-849c7614d83c" d="M342.51 134.56h2v83.76h-2zM897 220.12a3 3 0 01-2.07-.74l-12.42-12.16 1.4-1.43L896.33 218a1.5 1.5 0 001.34 0l12.43-12.16 1.4 1.43-12.43 12.16a3 3 0 01-2.07.69z"/><path class="ab1f9347-76a8-4d32-a2f8-849c7614d83c" d="M896.24 134.56h2v83.76h-2zM693 523.59l-1.42-1.39 12.15-12.43a1.44 1.44 0 000-1.34L691.61 496l1.42-1.4 12.16 12.4a3.26 3.26 0 010 4.14z"/><path class="ab1f9347-76a8-4d32-a2f8-849c7614d83c" d="M704.13 510.34H348.76a6.51 6.51 0 01-6.5-6.5V339.12h2v164.72a4.51 4.51 0 004.5 4.5h355.37z"/></g></svg>