<svg xmlns="http://www.w3.org/2000/svg" width="1310.93" height="835.37"><defs><pattern id="b4ee80a8-6d0a-498c-82ea-8354b065e92b" data-name="Docs Polka Background" width="60" height="60" patternTransform="matrix(.87 0 0 .74 653.46 1093.4)" patternUnits="userSpaceOnUse"><path fill="none" d="M0 0h60v60H0z"/><circle cx="30" cy="30" r="2.47" fill="#dceaf4"/></pattern><style>.f1ea3d2a-952f-4831-ba50-50d7bb07032b{fill:#f0f9ff}.b73eea66-e701-48fd-90d3-5af8689df8eb,.e0b846ef-9096-4afc-bda1-c616b053c7f6{fill:#1998ff}.fc96f097-72b0-4866-bf19-db9492d8f72d{fill:#f7fafc}.b86c6fe0-dd38-4f44-b2ef-ef560b61b862{fill:#b2bfce}.fd59a498-88a2-4968-98c4-46b1cd492095{fill:#2a4b7d;stroke:#2a4b7d}.a2042c27-21ff-4930-a4b3-27ec6f93e999,.b73eea66-e701-48fd-90d3-5af8689df8eb,.fd59a498-88a2-4968-98c4-46b1cd492095{stroke-miterlimit:10}.b73eea66-e701-48fd-90d3-5af8689df8eb,.fd59a498-88a2-4968-98c4-46b1cd492095{stroke-width:.5px}.a17c4303-5b1f-4e44-8707-f7eb4b1c8b03{fill:#c0e4ff}.b73eea66-e701-48fd-90d3-5af8689df8eb{stroke:#1998ff}.a2042c27-21ff-4930-a4b3-27ec6f93e999{fill:#75828e;stroke:#75828e;stroke-width:.3px}.fd106785-6525-40f7-b2cb-8665a9149a3d{fill:#51d680}</style></defs><path fill="url(#b4ee80a8-6d0a-498c-82ea-8354b065e92b)" d="M.13-.09h1308.56v835.01H.13z" id="f203a43f-d44a-43da-879e-b911ca6177fe" data-name="Layer 2"/><g id="a8cb6397-f7e8-41de-8f88-83faa2e90fa1" data-name="Layer 1"><path class="f1ea3d2a-952f-4831-ba50-50d7bb07032b" d="M180.37 658.15H5.93v-55.81h174.44l-8.77 27.79 8.77 28.02z"/><path class="e0b846ef-9096-4afc-bda1-c616b053c7f6" d="M181.74 659.15H4.93v-57.81h176.81l-9.09 28.79zm-174.81-2H179l-8.46-27 8.46-26.81H6.93z"/><path class="fc96f097-72b0-4866-bf19-db9492d8f72d" d="M356.67 658.15H182.23l-8.78-27.66 8.78-28.15h174.44v55.81z"/><path class="b86c6fe0-dd38-4f44-b2ef-ef560b61b862" d="M357.67 659.15H181.5l-9.1-28.66 9.09-29.15h176.18zm-174.71-2h172.71v-53.81H183l-8.47 27.15z"/><path class="fd59a498-88a2-4968-98c4-46b1cd492095" d="M64.53 627.81h-6.81v6.31h7.59V636h-9.85v-17.5h9.46v1.9h-7.2v5.53h6.81zM68.87 623.44l2.47 7.07a31.08 31.08 0 011 3.22h.08c.28-1 .65-2.08 1.06-3.22l2.52-7.07h2.39L73.4 636h-2.19l-4.78-12.58zM81.51 630.15c0 3.09 2 4.36 4.32 4.36a8.16 8.16 0 003.48-.65l.39 1.64a10.1 10.1 0 01-4.19.78c-3.87 0-6.18-2.55-6.18-6.34s2.23-6.79 5.9-6.79c4.11 0 5.2 3.62 5.2 5.93a8 8 0 01-.08 1.07zm6.71-1.64c0-1.46-.6-3.72-3.17-3.72-2.32 0-3.33 2.13-3.51 3.72zM93.26 626.84c0-1.3 0-2.36-.1-3.4h2l.13 2.08h.05a4.62 4.62 0 014.16-2.37c1.74 0 4.44 1 4.44 5.36V636h-2.28v-7.25c0-2-.76-3.72-2.92-3.72a3.25 3.25 0 00-3.06 2.34 3.17 3.17 0 00-.16 1.07V636h-2.26zM110.34 619.82v3.62h3.28v1.74h-3.28V632c0 1.56.45 2.44 1.72 2.44a5 5 0 001.33-.16l.1 1.72a5.63 5.63 0 01-2 .31 3.2 3.2 0 01-2.47-1 4.67 4.67 0 01-.88-3.28v-6.86h-2v-1.74h2v-3zM132.21 627.39c0 5.75-2.13 8.92-5.88 8.92-3.3 0-5.53-3.1-5.59-8.69s2.45-8.78 5.88-8.78 5.59 3.16 5.59 8.55zm-9.18.26c0 4.39 1.35 6.89 3.43 6.89 2.34 0 3.46-2.73 3.46-7 0-4.16-1.06-6.89-3.43-6.89-2-.05-3.49 2.4-3.49 7zM233 633.27a8 8 0 004 1.14c2.32 0 3.67-1.22 3.67-3s-.94-2.57-3.3-3.48c-2.86-1-4.63-2.5-4.63-5 0-2.73 2.26-4.76 5.67-4.76a8 8 0 013.87.86l-.62 1.85a6.93 6.93 0 00-3.33-.84c-2.39 0-3.3 1.43-3.3 2.63 0 1.64 1.06 2.44 3.48 3.38 3 1.14 4.47 2.57 4.47 5.15s-2 5-6.13 5a9 9 0 01-4.48-1.12zM248.75 619.82v3.62H252v1.74h-3.27V632c0 1.56.44 2.44 1.71 2.44a5 5 0 001.33-.16l.1 1.72a5.63 5.63 0 01-2 .31 3.2 3.2 0 01-2.47-1 4.67 4.67 0 01-.88-3.28v-6.86h-1.95v-1.74h1.95v-3zM261.56 636l-.18-1.58h-.08a4.69 4.69 0 01-3.84 1.87 3.59 3.59 0 01-3.85-3.62c0-3 2.7-4.7 7.56-4.68v-.26a2.59 2.59 0 00-2.86-2.91 6.26 6.26 0 00-3.27.94l-.52-1.51a7.78 7.78 0 014.13-1.12c3.85 0 4.79 2.63 4.79 5.15V633a18.37 18.37 0 00.2 3zm-.33-6.42c-2.5-.05-5.33.39-5.33 2.83a2 2 0 002.15 2.19 3.14 3.14 0 003.05-2.11 2.61 2.61 0 00.13-.73zM269.78 619.82v3.62h3.28v1.74h-3.28V632c0 1.56.44 2.44 1.72 2.44a4.93 4.93 0 001.32-.16l.11 1.72a5.71 5.71 0 01-2 .31 3.17 3.17 0 01-2.47-1 4.67 4.67 0 01-.89-3.28v-6.86h-2v-1.74h2v-3zM276.75 630.15c.05 3.09 2 4.36 4.31 4.36a8.21 8.21 0 003.49-.65l.39 1.64a10.14 10.14 0 01-4.19.78c-3.87 0-6.19-2.55-6.19-6.34s2.24-6.79 5.91-6.79c4.1 0 5.2 3.62 5.2 5.93a10.09 10.09 0 01-.08 1.07zm6.71-1.64c0-1.46-.6-3.72-3.18-3.72-2.31 0-3.32 2.13-3.51 3.72zM304.52 627.39c0 5.75-2.14 8.92-5.88 8.92-3.3 0-5.54-3.1-5.59-8.69s2.44-8.78 5.88-8.78 5.59 3.16 5.59 8.55zm-9.18.26c0 4.39 1.35 6.89 3.43 6.89 2.34 0 3.46-2.73 3.46-7 0-4.16-1.07-6.89-3.43-6.89-2.01-.05-3.46 2.4-3.46 7z"/><path class="f1ea3d2a-952f-4831-ba50-50d7bb07032b" d="M180.37 594.08H5.93v-55.81h174.44l8.78 27.79-8.78 28.02z"/><path class="e0b846ef-9096-4afc-bda1-c616b053c7f6" d="M181.11 595.08H4.93v-57.81h176.18l9.09 28.79zm-174.18-2h172.71l8.46-27-8.46-26.79H6.93z"/><path class="fc96f097-72b0-4866-bf19-db9492d8f72d" d="M356.67 594.08H182.23l8.78-27.66-8.78-28.15h174.44v55.81z"/><path class="b86c6fe0-dd38-4f44-b2ef-ef560b61b862" d="M357.67 595.08H180.86l9.1-28.66-9.09-29.15h176.8zm-174.07-2h172.07v-53.81H183.59l8.46 27.15z"/><path class="fd59a498-88a2-4968-98c4-46b1cd492095" d="M64.53 563.74h-6.81v6.32h7.59V572h-9.85v-17.57h9.46v1.9h-7.2v5.54h6.81zM68.87 559.37l2.47 7.07a32 32 0 011 3.23h.08c.28-1 .65-2.08 1.06-3.23l2.52-7.07h2.39L73.4 572h-2.19l-4.78-12.58zM81.51 566.08c0 3.09 2 4.37 4.32 4.37a8.32 8.32 0 003.48-.65l.39 1.63a10.1 10.1 0 01-4.19.78c-3.87 0-6.18-2.54-6.18-6.34s2.23-6.79 5.9-6.79c4.11 0 5.2 3.62 5.2 5.93a8 8 0 01-.08 1.07zm6.71-1.64c0-1.46-.6-3.72-3.17-3.72-2.32 0-3.33 2.13-3.51 3.72zM93.26 562.78c0-1.3 0-2.37-.1-3.41h2l.13 2.08h.05a4.62 4.62 0 014.16-2.37c1.74 0 4.44 1 4.44 5.36V572h-2.28v-7.3c0-2-.76-3.72-2.92-3.72a3.25 3.25 0 00-3.06 2.34 3.17 3.17 0 00-.16 1.07V572h-2.26zM110.34 555.76v3.61h3.28v1.74h-3.28v6.79c0 1.56.45 2.44 1.72 2.44a5.58 5.58 0 001.33-.15l.1 1.71a5.63 5.63 0 01-2 .31 3.16 3.16 0 01-2.47-1 4.64 4.64 0 01-.88-3.27v-6.87h-2v-1.74h2v-3zM125.94 557.19l-2.94 1.58-.44-1.74 3.69-2h2V572h-2.21zM233 569.2a8 8 0 004 1.14c2.32 0 3.67-1.22 3.67-3s-.94-2.57-3.3-3.48c-2.86-1-4.63-2.5-4.63-5 0-2.73 2.26-4.76 5.67-4.76a8 8 0 013.87.86l-.62 1.85a7.07 7.07 0 00-3.33-.83c-2.39 0-3.3 1.43-3.3 2.62 0 1.64 1.06 2.45 3.48 3.38 3 1.15 4.47 2.58 4.47 5.15s-2 5-6.13 5a9.15 9.15 0 01-4.48-1.11zM248.75 555.76v3.61H252v1.74h-3.27v6.79c0 1.56.44 2.44 1.71 2.44a5.58 5.58 0 001.33-.15l.1 1.71a5.63 5.63 0 01-2 .31 3.16 3.16 0 01-2.47-1 4.64 4.64 0 01-.88-3.27v-6.87h-1.95v-1.74h1.95v-3zM261.56 572l-.18-1.58h-.08a4.67 4.67 0 01-3.84 1.87 3.58 3.58 0 01-3.85-3.61c0-3 2.7-4.71 7.56-4.68v-.26a2.6 2.6 0 00-2.86-2.92 6.26 6.26 0 00-3.27.94l-.52-1.51a7.87 7.87 0 014.13-1.12c3.85 0 4.79 2.63 4.79 5.15v4.71a18.29 18.29 0 00.2 3zm-.33-6.42c-2.5 0-5.33.39-5.33 2.84a2 2 0 002.15 2.18 3.14 3.14 0 003.05-2.11 2.6 2.6 0 00.13-.72zM269.78 555.76v3.61h3.28v1.74h-3.28v6.79c0 1.56.44 2.44 1.72 2.44a5.49 5.49 0 001.32-.15l.11 1.71a5.71 5.71 0 01-2 .31 3.13 3.13 0 01-2.47-1 4.64 4.64 0 01-.89-3.27v-6.87h-2v-1.74h2v-3zM276.75 566.08c.05 3.09 2 4.37 4.31 4.37a8.37 8.37 0 003.49-.65l.39 1.63a10.14 10.14 0 01-4.19.78c-3.87 0-6.19-2.54-6.19-6.34s2.24-6.79 5.91-6.79c4.1 0 5.2 3.62 5.2 5.93a10.09 10.09 0 01-.08 1.07zm6.71-1.64c0-1.46-.6-3.72-3.18-3.72-2.31 0-3.32 2.13-3.51 3.72zM298.25 557.19h-.05l-2.94 1.58-.44-1.74 3.69-2h1.95V572h-2.21z"/><path class="f1ea3d2a-952f-4831-ba50-50d7bb07032b" d="M180.37 530.01H5.93V474.2h174.44l-8.77 27.79 8.77 28.02z"/><path class="e0b846ef-9096-4afc-bda1-c616b053c7f6" d="M181.74 531H4.93v-57.79h176.81L172.65 502zM6.93 529H179l-8.46-27 8.46-26.79H6.93z"/><path class="fc96f097-72b0-4866-bf19-db9492d8f72d" d="M356.67 530.01H182.23l-8.78-27.66 8.78-28.15h174.44v55.81z"/><path class="b86c6fe0-dd38-4f44-b2ef-ef560b61b862" d="M357.67 531H181.5l-9.1-28.66 9.09-29.15h176.18zM183 529h172.67v-53.79H183l-8.47 27.14z"/><path class="fd59a498-88a2-4968-98c4-46b1cd492095" d="M64.53 499.67h-6.81V506h7.59v1.9h-9.85v-17.54h9.46v1.9h-7.2v5.54h6.81zM68.87 495.3l2.47 7.07a32 32 0 011 3.23h.08c.28-1 .65-2.08 1.06-3.23L76 495.3h2.39l-4.99 12.59h-2.19l-4.78-12.59zM81.51 502c0 3.09 2 4.37 4.32 4.37a8.32 8.32 0 003.48-.65l.39 1.64a10.27 10.27 0 01-4.19.78c-3.87 0-6.18-2.55-6.18-6.35s2.23-6.78 5.9-6.78c4.11 0 5.2 3.61 5.2 5.92a7.82 7.82 0 01-.08 1.07zm6.71-1.64c0-1.45-.6-3.72-3.17-3.72-2.32 0-3.33 2.14-3.51 3.72zM93.26 498.71c0-1.3 0-2.37-.1-3.41h2l.13 2.08h.05a4.63 4.63 0 014.19-2.38c1.74 0 4.44 1 4.44 5.35v7.52h-2.28v-7.26c0-2-.76-3.72-2.92-3.72a3.25 3.25 0 00-3.06 2.34 3.17 3.17 0 00-.16 1.07v7.57h-2.29zM110.34 491.69v3.61h3.28v1.7h-3.28v6.79c0 1.56.45 2.44 1.72 2.44a5.1 5.1 0 001.33-.15l.1 1.71a5.39 5.39 0 01-2 .32 3.17 3.17 0 01-2.47-1 4.64 4.64 0 01-.88-3.27V497h-2v-1.7h2v-3zM121 507.89v-1.41l1.79-1.74c4.32-4.11 6.27-6.29 6.29-8.84a3 3 0 00-3.35-3.3 5.77 5.77 0 00-3.59 1.43l-.73-1.61a7.42 7.42 0 014.79-1.72c3.64 0 5.17 2.5 5.17 4.91 0 3.12-2.26 5.65-5.82 9.08l-1.35 1.25v.06h7.59v1.9zM233 505.13a8 8 0 004 1.14c2.32 0 3.67-1.22 3.67-3s-.94-2.57-3.3-3.48c-2.86-1-4.63-2.5-4.63-5 0-2.73 2.26-4.75 5.67-4.75a8 8 0 013.87.85l-.62 1.85a7.07 7.07 0 00-3.33-.83c-2.39 0-3.3 1.43-3.3 2.62 0 1.64 1.06 2.45 3.48 3.38 3 1.15 4.47 2.58 4.47 5.15s-2 5-6.13 5a9.14 9.14 0 01-4.48-1.12zM248.75 491.69v3.61H252v1.7h-3.27v6.79c0 1.56.44 2.44 1.71 2.44a5.1 5.1 0 001.33-.15l.1 1.71a5.39 5.39 0 01-2 .32 3.17 3.17 0 01-2.47-1 4.64 4.64 0 01-.88-3.27V497h-1.95v-1.7h1.95v-3zM261.56 507.89l-.18-1.59h-.08a4.67 4.67 0 01-3.84 1.87 3.58 3.58 0 01-3.85-3.61c0-3 2.7-4.71 7.56-4.68v-.26a2.59 2.59 0 00-2.86-2.91 6.25 6.25 0 00-3.27.93l-.52-1.51a7.86 7.86 0 014.13-1.11c3.85 0 4.79 2.62 4.79 5.14v4.71a18.5 18.5 0 00.2 3zm-.33-6.43c-2.5 0-5.33.39-5.33 2.84a2 2 0 002.15 2.18 3.15 3.15 0 003.05-2.1 2.74 2.74 0 00.13-.73zM269.78 491.69v3.61h3.28v1.7h-3.28v6.79c0 1.56.44 2.44 1.72 2.44a5 5 0 001.32-.15l.11 1.71a5.46 5.46 0 01-2 .32 3.14 3.14 0 01-2.47-1 4.64 4.64 0 01-.89-3.27V497h-2v-1.7h2v-3zM276.75 502c.05 3.09 2 4.37 4.31 4.37a8.37 8.37 0 003.49-.65l.39 1.64a10.31 10.31 0 01-4.19.78c-3.87 0-6.19-2.55-6.19-6.35s2.24-6.78 5.91-6.78c4.1 0 5.2 3.61 5.2 5.92a9.87 9.87 0 01-.08 1.07zm6.71-1.64c0-1.45-.6-3.72-3.18-3.72-2.31 0-3.32 2.14-3.51 3.72zM293.28 507.89v-1.41l1.8-1.74c4.31-4.11 6.26-6.29 6.29-8.84a3 3 0 00-3.35-3.3 5.75 5.75 0 00-3.59 1.43l-.73-1.61a7.4 7.4 0 014.78-1.72c3.64 0 5.18 2.5 5.18 4.91 0 3.12-2.26 5.65-5.83 9.08l-1.35 1.25v.06h7.59v1.9z"/><path class="f1ea3d2a-952f-4831-ba50-50d7bb07032b" d="M180.37 465.95H5.93v-55.81h174.44l8.78 27.78-8.78 28.03z"/><path class="e0b846ef-9096-4afc-bda1-c616b053c7f6" d="M181.11 467H4.93v-57.86h176.18l9.09 28.78zM6.93 465h172.71l8.46-27-8.46-26.78H6.93z"/><path class="fc96f097-72b0-4866-bf19-db9492d8f72d" d="M356.67 465.95H182.23l8.78-27.67-8.78-28.14h174.44v55.81z"/><path class="b86c6fe0-dd38-4f44-b2ef-ef560b61b862" d="M357.67 467H180.86l9.1-28.67-9.09-29.14h176.8zm-174.07-2h172.07v-53.86H183.59l8.46 27.15z"/><path class="fd59a498-88a2-4968-98c4-46b1cd492095" d="M64.53 435.6h-6.81v6.32h7.59v1.9h-9.85v-17.53h9.46v1.9h-7.2v5.54h6.81zM68.87 431.23l2.47 7.08a31.08 31.08 0 011 3.22h.08c.28-1 .65-2.08 1.06-3.22l2.52-7.08h2.39l-4.99 12.59h-2.19l-4.78-12.59zM81.51 437.94c0 3.1 2 4.37 4.32 4.37a8.32 8.32 0 003.48-.65l.39 1.64a10.27 10.27 0 01-4.19.78c-3.87 0-6.18-2.55-6.18-6.35s2.23-6.78 5.9-6.78c4.11 0 5.2 3.61 5.2 5.93a7.78 7.78 0 01-.08 1.06zm6.71-1.64c0-1.45-.6-3.71-3.17-3.71-2.32 0-3.33 2.13-3.51 3.71zM93.26 434.64c0-1.3 0-2.37-.1-3.41h2l.13 2.08h.05a4.63 4.63 0 014.19-2.31c1.74 0 4.44 1 4.44 5.35v7.52h-2.28v-7.26c0-2-.76-3.71-2.92-3.71a3.24 3.24 0 00-3.06 2.34 3.07 3.07 0 00-.16 1.06v7.57h-2.29zM110.34 427.62v3.61h3.28V433h-3.28v6.78c0 1.56.45 2.45 1.72 2.45a5 5 0 001.33-.16l.1 1.72a5.63 5.63 0 01-2 .31 3.2 3.2 0 01-2.47-1 4.68 4.68 0 01-.88-3.28V433h-2v-1.75h2v-3zM121.52 441.19a7.61 7.61 0 003.75 1.07c2.94 0 3.85-1.87 3.82-3.28 0-2.36-2.16-3.38-4.37-3.38h-1.27v-1.71h1.27c1.67 0 3.77-.86 3.77-2.86 0-1.36-.86-2.55-3-2.55a6.22 6.22 0 00-3.38 1.12l-.6-1.67a8 8 0 014.42-1.3c3.33 0 4.84 2 4.84 4a4.2 4.2 0 01-3.12 4v.05a4.41 4.41 0 013.77 4.34c0 2.71-2.11 5.07-6.17 5.07a8.56 8.56 0 01-4.35-1.09zM233 441.06a7.92 7.92 0 004 1.15c2.32 0 3.67-1.23 3.67-3s-.94-2.58-3.3-3.49c-2.86-1-4.63-2.49-4.63-5 0-2.73 2.26-4.76 5.67-4.76a7.86 7.86 0 013.87.86l-.62 1.84a7.07 7.07 0 00-3.33-.83c-2.39 0-3.3 1.43-3.3 2.63 0 1.63 1.06 2.44 3.48 3.38 3 1.14 4.47 2.57 4.47 5.14s-2 5.05-6.13 5.05a9.14 9.14 0 01-4.48-1.12zM248.75 427.62v3.61H252V433h-3.27v6.78c0 1.56.44 2.45 1.71 2.45a5 5 0 001.33-.16l.1 1.72a5.63 5.63 0 01-2 .31 3.2 3.2 0 01-2.47-1 4.68 4.68 0 01-.88-3.28V433h-1.95v-1.75h1.95v-3zM261.56 443.82l-.18-1.59h-.08a4.67 4.67 0 01-3.84 1.87 3.58 3.58 0 01-3.85-3.61c0-3 2.7-4.71 7.56-4.68v-.26a2.59 2.59 0 00-2.86-2.91 6.25 6.25 0 00-3.27.93l-.52-1.5a7.78 7.78 0 014.13-1.12c3.85 0 4.79 2.62 4.79 5.15v4.7a18.5 18.5 0 00.2 3zm-.33-6.42c-2.5-.06-5.33.39-5.33 2.83a2 2 0 002.15 2.18 3.15 3.15 0 003.05-2.1 2.74 2.74 0 00.13-.73zM269.78 427.62v3.61h3.28V433h-3.28v6.78c0 1.56.44 2.45 1.72 2.45a4.93 4.93 0 001.32-.16l.11 1.72a5.71 5.71 0 01-2 .31 3.17 3.17 0 01-2.47-1 4.68 4.68 0 01-.89-3.28V433h-2v-1.75h2v-3zM276.75 437.94c.05 3.1 2 4.37 4.31 4.37a8.37 8.37 0 003.49-.65l.39 1.64a10.31 10.31 0 01-4.19.78c-3.87 0-6.19-2.55-6.19-6.35s2.24-6.78 5.91-6.78c4.1 0 5.2 3.61 5.2 5.93a9.86 9.86 0 01-.08 1.06zm6.71-1.64c0-1.45-.6-3.71-3.18-3.71-2.31 0-3.32 2.13-3.51 3.71zM293.83 441.19a7.6 7.6 0 003.74 1.07c2.94 0 3.85-1.87 3.83-3.28 0-2.36-2.16-3.38-4.37-3.38h-1.28v-1.71H297c1.66 0 3.77-.86 3.77-2.86 0-1.36-.86-2.55-3-2.55a6.22 6.22 0 00-3.38 1.12l-.59-1.67a8 8 0 014.42-1.3c3.32 0 4.83 2 4.83 4a4.2 4.2 0 01-3.12 4v.05a4.41 4.41 0 013.77 4.34c0 2.71-2.1 5.07-6.16 5.07a8.53 8.53 0 01-4.39-1.14z"/><path class="f1ea3d2a-952f-4831-ba50-50d7bb07032b" d="M180.37 401.88H5.93v-55.81h174.44l-8.77 27.78 8.77 28.03z"/><path class="e0b846ef-9096-4afc-bda1-c616b053c7f6" d="M181.74 402.88H4.93v-57.81h176.81l-9.09 28.79zm-174.81-2H179l-8.46-27 8.46-26.81H6.93z"/><path class="fc96f097-72b0-4866-bf19-db9492d8f72d" d="M356.67 401.88H182.23l-8.78-27.66 8.78-28.15h174.44v55.81z"/><path class="b86c6fe0-dd38-4f44-b2ef-ef560b61b862" d="M357.67 402.88H181.5l-9.1-28.66 9.09-29.15h176.18zm-174.71-2h172.71v-53.81H183l-8.47 27.14z"/><path class="fd59a498-88a2-4968-98c4-46b1cd492095" d="M64.53 371.53h-6.81v6.32h7.59v1.9h-9.85v-17.52h9.46v1.89h-7.2v5.54h6.81zM68.87 367.17l2.47 7.07a31.08 31.08 0 011 3.22h.08c.28-1 .65-2.08 1.06-3.22l2.52-7.07h2.39l-4.99 12.58h-2.19l-4.78-12.58zM81.51 373.87c0 3.1 2 4.37 4.32 4.37a8.16 8.16 0 003.48-.65l.39 1.64a10.27 10.27 0 01-4.19.78c-3.87 0-6.18-2.55-6.18-6.34s2.23-6.79 5.9-6.79c4.11 0 5.2 3.61 5.2 5.93a7.64 7.64 0 01-.08 1.06zm6.71-1.63c0-1.46-.6-3.72-3.17-3.72-2.32 0-3.33 2.13-3.51 3.72zM93.26 370.57c0-1.3 0-2.36-.1-3.4h2l.13 2.08h.05a4.62 4.62 0 014.16-2.37c1.74 0 4.44 1 4.44 5.36v7.51h-2.28v-7.25c0-2-.76-3.72-2.92-3.72a3.24 3.24 0 00-3.06 2.34 3.07 3.07 0 00-.16 1.06v7.57h-2.26zM110.34 363.55v3.62h3.28v1.74h-3.28v6.78c0 1.56.45 2.45 1.72 2.45a5 5 0 001.33-.16l.1 1.72a5.63 5.63 0 01-2 .31 3.2 3.2 0 01-2.47-1 4.68 4.68 0 01-.88-3.28v-6.86h-2v-1.74h2v-3zM128.05 379.75v-4.6h-7.85v-1.51l7.54-10.79h2.47v10.5h2.36v1.8h-2.36v4.6zm0-6.4v-5.64c0-.88 0-1.77.08-2.65h-.08c-.52 1-.94 1.72-1.4 2.5l-4.14 5.74v.05zM233 377a7.92 7.92 0 004 1.15c2.32 0 3.67-1.22 3.67-3s-.94-2.58-3.3-3.49c-2.86-1-4.63-2.49-4.63-5 0-2.73 2.26-4.76 5.67-4.76a8 8 0 013.87.86l-.62 1.84a7.07 7.07 0 00-3.33-.83c-2.39 0-3.3 1.43-3.3 2.63 0 1.64 1.06 2.44 3.48 3.38 3 1.14 4.47 2.57 4.47 5.15s-2 5-6.13 5a9 9 0 01-4.48-1.12zM248.75 363.55v3.62H252v1.74h-3.27v6.78c0 1.56.44 2.45 1.71 2.45a5 5 0 001.33-.16l.1 1.72a5.63 5.63 0 01-2 .31 3.2 3.2 0 01-2.47-1 4.68 4.68 0 01-.88-3.28v-6.86h-1.95v-1.74h1.95v-3zM261.56 379.75l-.18-1.59h-.08a4.67 4.67 0 01-3.84 1.88 3.59 3.59 0 01-3.85-3.62c0-3 2.7-4.7 7.56-4.68v-.26a2.59 2.59 0 00-2.86-2.91 6.17 6.17 0 00-3.27.94l-.52-1.51a7.78 7.78 0 014.13-1.12c3.85 0 4.79 2.63 4.79 5.15v4.7a18.42 18.42 0 00.2 3zm-.33-6.42c-2.5-.05-5.33.39-5.33 2.83a2 2 0 002.15 2.19 3.14 3.14 0 003.05-2.11 2.61 2.61 0 00.13-.73zM269.78 363.55v3.62h3.28v1.74h-3.28v6.78c0 1.56.44 2.45 1.72 2.45a4.93 4.93 0 001.32-.16l.11 1.72a5.71 5.71 0 01-2 .31 3.17 3.17 0 01-2.47-1 4.68 4.68 0 01-.89-3.28v-6.86h-2v-1.74h2v-3zM276.75 373.87c.05 3.1 2 4.37 4.31 4.37a8.21 8.21 0 003.49-.65l.39 1.64a10.31 10.31 0 01-4.19.78c-3.87 0-6.19-2.55-6.19-6.34s2.24-6.79 5.91-6.79c4.1 0 5.2 3.61 5.2 5.93a9.64 9.64 0 01-.08 1.06zm6.71-1.63c0-1.46-.6-3.72-3.18-3.72-2.31 0-3.32 2.13-3.51 3.72zM300.36 379.75v-4.6h-7.86v-1.51l7.5-10.79h2.47v10.5h2.37v1.8h-2.37v4.6zm0-6.4v-5.64c0-.88 0-1.77.07-2.65h-.07c-.52 1-.94 1.72-1.41 2.5l-4.13 5.74v.05z"/><path class="f1ea3d2a-952f-4831-ba50-50d7bb07032b" d="M180.37 337.81H5.93V282h174.44l8.78 27.79-8.78 28.02z"/><path class="e0b846ef-9096-4afc-bda1-c616b053c7f6" d="M181.11 338.81H4.93V281h176.18l9.09 28.79zm-174.18-2h172.71l8.46-27-8.46-26.81H6.93z"/><path class="fc96f097-72b0-4866-bf19-db9492d8f72d" d="M356.67 337.81H182.23l8.78-27.66-8.78-28.15h174.44v55.81z"/><path class="b86c6fe0-dd38-4f44-b2ef-ef560b61b862" d="M357.67 338.81H180.86l9.1-28.66-9.09-29.15h176.8zm-174.07-2h172.07V283H183.59l8.46 27.15z"/><path class="fd59a498-88a2-4968-98c4-46b1cd492095" d="M64.53 307.47h-6.81v6.31h7.59v1.9h-9.85v-17.52h9.46v1.9h-7.2v5.53h6.81zM68.87 303.1l2.47 7.07a31.08 31.08 0 011 3.22h.08c.28-1 .65-2.08 1.06-3.22L76 303.1h2.39l-4.99 12.58h-2.19l-4.78-12.58zM81.51 309.81c0 3.09 2 4.36 4.32 4.36a8.16 8.16 0 003.48-.65l.39 1.64a10.1 10.1 0 01-4.19.78c-3.87 0-6.18-2.55-6.18-6.34s2.23-6.79 5.9-6.79c4.11 0 5.2 3.62 5.2 5.93a8 8 0 01-.08 1.07zm6.71-1.64c0-1.46-.6-3.72-3.17-3.72-2.32 0-3.33 2.13-3.51 3.72zM93.26 306.5c0-1.3 0-2.36-.1-3.4h2l.13 2.08h.05a4.62 4.62 0 014.16-2.37c1.74 0 4.44 1 4.44 5.36v7.51h-2.28v-7.25c0-2-.76-3.72-2.92-3.72a3.25 3.25 0 00-3.06 2.34 3.17 3.17 0 00-.16 1.07v7.56h-2.26zM110.34 299.48v3.62h3.28v1.74h-3.28v6.79c0 1.56.45 2.44 1.72 2.44a5 5 0 001.33-.16l.1 1.72a5.63 5.63 0 01-2 .31 3.2 3.2 0 01-2.47-1 4.67 4.67 0 01-.88-3.28v-6.86h-2v-1.7h2v-3zM131.07 300.71h-6.45l-.65 4.34a9.13 9.13 0 011.38-.11 7.18 7.18 0 013.64.91 4.83 4.83 0 012.41 4.35c0 3.3-2.62 5.77-6.29 5.77a8.29 8.29 0 01-4.21-1l.57-1.74a7.64 7.64 0 003.62.93 3.73 3.73 0 004-3.66c0-2.19-1.48-3.75-4.86-3.75a19 19 0 00-2.34.18l1.09-8.11h8.09zM233 312.93a8 8 0 004 1.14c2.32 0 3.67-1.22 3.67-3s-.94-2.57-3.3-3.48c-2.86-1-4.63-2.5-4.63-5 0-2.73 2.26-4.76 5.67-4.76a8 8 0 013.87.86l-.62 1.85a6.93 6.93 0 00-3.33-.84c-2.39 0-3.3 1.43-3.3 2.63 0 1.64 1.06 2.44 3.48 3.38 3 1.14 4.47 2.57 4.47 5.15s-2 5-6.13 5a9 9 0 01-4.48-1.12zM248.75 299.48v3.62H252v1.74h-3.27v6.79c0 1.56.44 2.44 1.71 2.44a5 5 0 001.33-.16l.1 1.72a5.63 5.63 0 01-2 .31 3.2 3.2 0 01-2.47-1 4.67 4.67 0 01-.88-3.28v-6.86h-1.95v-1.7h1.95v-3zM261.56 315.68l-.18-1.58h-.08a4.69 4.69 0 01-3.84 1.87 3.59 3.59 0 01-3.85-3.62c0-3 2.7-4.7 7.56-4.68v-.26a2.59 2.59 0 00-2.86-2.91 6.26 6.26 0 00-3.27.94l-.52-1.51a7.78 7.78 0 014.13-1.12c3.85 0 4.79 2.63 4.79 5.15v4.71a18.37 18.37 0 00.2 3zm-.33-6.42c-2.5-.05-5.33.39-5.33 2.83a2 2 0 002.15 2.19 3.14 3.14 0 003.05-2.11 2.61 2.61 0 00.13-.73zM269.78 299.48v3.62h3.28v1.74h-3.28v6.79c0 1.56.44 2.44 1.72 2.44a4.93 4.93 0 001.32-.16l.11 1.72a5.71 5.71 0 01-2 .31 3.17 3.17 0 01-2.47-1 4.67 4.67 0 01-.89-3.28v-6.86h-2v-1.7h2v-3zM276.75 309.81c.05 3.09 2 4.36 4.31 4.36a8.21 8.21 0 003.49-.65l.39 1.64a10.14 10.14 0 01-4.19.78c-3.87 0-6.19-2.55-6.19-6.34s2.24-6.79 5.91-6.79c4.1 0 5.2 3.62 5.2 5.93a10.09 10.09 0 01-.08 1.07zm6.71-1.64c0-1.46-.6-3.72-3.18-3.72-2.31 0-3.32 2.13-3.51 3.72zM303.37 300.71h-6.45l-.65 4.34a9.25 9.25 0 011.38-.11 7.18 7.18 0 013.64.91 4.82 4.82 0 012.42 4.35c0 3.3-2.63 5.77-6.29 5.77a8.24 8.24 0 01-4.21-1l.57-1.74a7.63 7.63 0 003.61.93 3.73 3.73 0 004-3.66c0-2.19-1.49-3.75-4.87-3.75a19.12 19.12 0 00-2.34.18l1.1-8.11h8.08z"/><path class="f1ea3d2a-952f-4831-ba50-50d7bb07032b" d="M180.37 273.74H5.93v-55.81h174.44l-8.77 27.79 8.77 28.02z"/><path class="e0b846ef-9096-4afc-bda1-c616b053c7f6" d="M181.74 274.74H4.93v-57.81h176.81l-9.09 28.79zm-174.81-2H179l-8.46-27 8.46-26.81H6.93z"/><path class="fc96f097-72b0-4866-bf19-db9492d8f72d" d="M356.67 273.74H182.23l-8.78-27.66 8.78-28.15h174.44v55.81z"/><path class="b86c6fe0-dd38-4f44-b2ef-ef560b61b862" d="M357.67 274.74H181.5l-9.1-28.66 9.09-29.15h176.18zm-174.71-2h172.71v-53.81H183l-8.47 27.15z"/><path class="fd59a498-88a2-4968-98c4-46b1cd492095" d="M64.53 243.4h-6.81v6.32h7.59v1.89h-9.85v-17.52h9.46V236h-7.2v5.54h6.81zM68.87 239l2.47 7.07a32 32 0 011 3.23h.08c.28-1 .65-2.08 1.06-3.23L76 239h2.39l-4.99 12.61h-2.19L66.43 239zM81.51 245.74c0 3.09 2 4.37 4.32 4.37a8.32 8.32 0 003.48-.65l.39 1.63a10.1 10.1 0 01-4.19.78c-3.87 0-6.18-2.54-6.18-6.34s2.23-6.79 5.9-6.79c4.11 0 5.2 3.62 5.2 5.93a8 8 0 01-.08 1.07zm6.71-1.64c0-1.46-.6-3.72-3.17-3.72-2.32 0-3.33 2.13-3.51 3.72zM93.26 242.44c0-1.3 0-2.37-.1-3.41h2l.13 2.08h.05a4.62 4.62 0 014.16-2.37c1.74 0 4.44 1 4.44 5.36v7.51h-2.28v-7.25c0-2-.76-3.72-2.92-3.72a3.25 3.25 0 00-3.03 2.36 3.17 3.17 0 00-.16 1.07v7.56h-2.29zM110.34 235.42V239h3.28v1.74h-3.28v6.79c0 1.56.45 2.44 1.72 2.44a5.58 5.58 0 001.33-.15l.1 1.71a5.63 5.63 0 01-2 .31 3.16 3.16 0 01-2.47-1 4.64 4.64 0 01-.88-3.27v-6.87h-2V239h2v-3zM130.62 236.33a8.2 8.2 0 00-1.71.1 6.87 6.87 0 00-5.88 6h.08a5 5 0 014.08-1.95c3 0 5.1 2.15 5.1 5.46a5.65 5.65 0 01-5.62 6c-3.61 0-6-2.81-6-7.2a10.64 10.64 0 012.86-7.62 9.22 9.22 0 015.41-2.5 11.59 11.59 0 011.66-.13zm-.65 9.75c0-2.42-1.37-3.88-3.48-3.88a3.78 3.78 0 00-3.28 2.08 2 2 0 00-.26 1c.06 2.78 1.33 4.83 3.72 4.83 1.98.02 3.33-1.62 3.33-4.03zM233 248.86a8 8 0 004 1.14c2.32 0 3.67-1.22 3.67-3s-.94-2.57-3.3-3.48c-2.86-1-4.63-2.5-4.63-5 0-2.73 2.26-4.76 5.67-4.76a8 8 0 013.87.86l-.62 1.85a7.07 7.07 0 00-3.33-.83c-2.39 0-3.3 1.43-3.3 2.62 0 1.64 1.06 2.45 3.48 3.38 3 1.15 4.47 2.58 4.47 5.15s-2 5-6.13 5a9.15 9.15 0 01-4.48-1.11zM248.75 235.42V239H252v1.74h-3.27v6.79c0 1.56.44 2.44 1.71 2.44a5.58 5.58 0 001.33-.15l.1 1.71a5.63 5.63 0 01-2 .31 3.16 3.16 0 01-2.47-1 4.64 4.64 0 01-.88-3.27v-6.87h-1.95V239h1.95v-3zM261.56 251.61l-.18-1.58h-.08a4.67 4.67 0 01-3.84 1.87 3.58 3.58 0 01-3.85-3.61c0-3 2.7-4.71 7.56-4.68v-.26a2.6 2.6 0 00-2.86-2.92 6.26 6.26 0 00-3.27.94l-.52-1.51a7.87 7.87 0 014.13-1.12c3.85 0 4.79 2.63 4.79 5.15v4.71a18.29 18.29 0 00.2 3zm-.33-6.42c-2.5-.05-5.33.39-5.33 2.84a2 2 0 002.15 2.18 3.14 3.14 0 003.05-2.11 2.6 2.6 0 00.13-.72zM269.78 235.42V239h3.28v1.74h-3.28v6.79c0 1.56.44 2.44 1.72 2.44a5.49 5.49 0 001.32-.15l.11 1.71a5.71 5.71 0 01-2 .31 3.13 3.13 0 01-2.47-1 4.64 4.64 0 01-.89-3.27v-6.87h-2V239h2v-3zM276.75 245.74c.05 3.09 2 4.37 4.31 4.37a8.37 8.37 0 003.49-.65l.39 1.63a10.14 10.14 0 01-4.19.78c-3.87 0-6.19-2.54-6.19-6.34s2.24-6.79 5.91-6.79c4.1 0 5.2 3.62 5.2 5.93a10.09 10.09 0 01-.08 1.07zm6.71-1.64c0-1.46-.6-3.72-3.18-3.72-2.31 0-3.32 2.13-3.51 3.72zM302.93 236.33a8.26 8.26 0 00-1.72.1 6.87 6.87 0 00-5.87 6h.08a5 5 0 014.08-1.95c3 0 5.09 2.15 5.09 5.46a5.65 5.65 0 01-5.61 6c-3.62 0-6-2.81-6-7.2a10.6 10.6 0 012.86-7.62 9.16 9.16 0 015.41-2.5 11.39 11.39 0 011.66-.13zm-.65 9.75c0-2.42-1.38-3.88-3.48-3.88a3.77 3.77 0 00-3.28 2.08 1.92 1.92 0 00-.26 1c.05 2.78 1.33 4.83 3.72 4.83 2.02.02 3.3-1.62 3.3-4.03z"/><path class="f1ea3d2a-952f-4831-ba50-50d7bb07032b" d="M180.37 145.61H5.93V89.8h174.44l-8.77 27.78 8.77 28.03z"/><path class="e0b846ef-9096-4afc-bda1-c616b053c7f6" d="M181.74 146.61H4.93V88.8h176.81l-9.09 28.78zm-174.81-2H179l-8.46-27L179 90.8H6.93z"/><path class="fc96f097-72b0-4866-bf19-db9492d8f72d" d="M356.67 145.61H182.23l-8.78-27.67 8.78-28.14h174.44v55.81z"/><path class="b86c6fe0-dd38-4f44-b2ef-ef560b61b862" d="M357.67 146.61H181.5L172.4 118l9.09-29.15h176.18zm-174.71-2h172.71V90.8H183l-8.47 27.14z"/><g><path class="fd59a498-88a2-4968-98c4-46b1cd492095" d="M64.53 115.26h-6.81v6.32h7.59v1.9h-9.85V106h9.46v1.9h-7.2v5.54h6.81zM68.87 110.89l2.47 7.11a31.08 31.08 0 011 3.22h.08c.28-1 .65-2.08 1.06-3.22l2.52-7.11h2.39l-4.99 12.59h-2.19l-4.78-12.59zM81.51 117.6c0 3.1 2 4.37 4.32 4.37a8.32 8.32 0 003.48-.65l.39 1.68a10.27 10.27 0 01-4.19.78c-3.87 0-6.18-2.55-6.18-6.35s2.23-6.78 5.9-6.78c4.11 0 5.2 3.61 5.2 5.93a7.78 7.78 0 01-.08 1.06zm6.71-1.6c0-1.45-.6-3.71-3.17-3.71-2.32 0-3.33 2.13-3.51 3.71zM93.26 114.3c0-1.3 0-2.37-.1-3.41h2l.13 2.08h.05a4.63 4.63 0 014.16-2.36c1.74 0 4.44 1 4.44 5.35v7.52h-2.28v-7.26c0-2-.76-3.71-2.92-3.71a3.24 3.24 0 00-3.06 2.34 3.07 3.07 0 00-.16 1.06v7.57h-2.26zM110.34 107.28v3.61h3.28v1.75h-3.28v6.78c0 1.56.45 2.45 1.72 2.45a5 5 0 001.33-.16l.1 1.72a5.63 5.63 0 01-2 .31 3.2 3.2 0 01-2.47-1 4.68 4.68 0 01-.88-3.28v-6.86h-2v-1.75h2v-3zM120.77 119.19c0-2.13 1.27-3.64 3.35-4.53v-.07a4.2 4.2 0 01-2.68-3.8c0-2.68 2.26-4.5 5.23-4.5 3.27 0 4.91 2.06 4.91 4.16a4.28 4.28 0 01-2.78 4v.08c2.1.83 3.4 2.32 3.4 4.37 0 2.94-2.52 4.91-5.74 4.91-3.56-.05-5.69-2.15-5.69-4.62zm9.1-.11c0-2-1.43-3-3.72-3.69-2 .57-3 1.87-3 3.49a3.12 3.12 0 003.38 3.22 3.06 3.06 0 003.34-3.02zm-6.29-8.45c0 1.69 1.27 2.6 3.22 3.12a3.32 3.32 0 002.58-3.06 2.63 2.63 0 00-2.86-2.76 2.69 2.69 0 00-2.94 2.7z"/></g><g><path class="fd59a498-88a2-4968-98c4-46b1cd492095" d="M233 120.72a7.92 7.92 0 004 1.15c2.32 0 3.67-1.23 3.67-3s-.94-2.58-3.3-3.49c-2.86-1-4.63-2.49-4.63-5 0-2.73 2.26-4.76 5.67-4.76a7.86 7.86 0 013.87.86l-.62 1.84a7.07 7.07 0 00-3.33-.83c-2.39 0-3.3 1.43-3.3 2.63 0 1.63 1.06 2.44 3.48 3.38 3 1.14 4.47 2.57 4.47 5.14s-2 5-6.13 5a9.14 9.14 0 01-4.48-1.12zM248.75 107.28v3.61H252v1.75h-3.27v6.78c0 1.56.44 2.45 1.71 2.45a5 5 0 001.33-.16l.1 1.72a5.63 5.63 0 01-2 .31 3.2 3.2 0 01-2.47-1 4.68 4.68 0 01-.88-3.28v-6.86h-1.95v-1.75h1.95v-3zM261.56 123.48l-.18-1.59h-.08a4.67 4.67 0 01-3.84 1.87 3.58 3.58 0 01-3.85-3.61c0-3 2.7-4.71 7.56-4.68v-.26a2.59 2.59 0 00-2.86-2.91 6.25 6.25 0 00-3.27.93l-.52-1.5a7.78 7.78 0 014.13-1.12c3.85 0 4.79 2.62 4.79 5.15v4.7a18.5 18.5 0 00.2 3zm-.33-6.42c-2.5-.06-5.33.39-5.33 2.83a2 2 0 002.15 2.18 3.15 3.15 0 003.05-2.1 2.74 2.74 0 00.13-.73zM269.78 107.28v3.61h3.28v1.75h-3.28v6.78c0 1.56.44 2.45 1.72 2.45a4.93 4.93 0 001.32-.16l.11 1.72a5.71 5.71 0 01-2 .31 3.17 3.17 0 01-2.47-1 4.68 4.68 0 01-.89-3.28v-6.86h-2v-1.75h2v-3zM276.75 117.6c.05 3.1 2 4.37 4.31 4.37a8.37 8.37 0 003.49-.65l.39 1.64a10.31 10.31 0 01-4.19.78c-3.87 0-6.19-2.55-6.19-6.35s2.24-6.78 5.91-6.78c4.1 0 5.2 3.61 5.2 5.93a9.86 9.86 0 01-.08 1.06zm6.71-1.64c0-1.45-.6-3.71-3.18-3.71-2.31 0-3.32 2.13-3.51 3.71zM293.08 119.19c0-2.13 1.27-3.64 3.35-4.53v-.07a4.19 4.19 0 01-2.67-3.8c0-2.68 2.26-4.5 5.22-4.5 3.28 0 4.92 2.06 4.92 4.16a4.29 4.29 0 01-2.79 4v.08c2.11.83 3.41 2.32 3.41 4.37 0 2.94-2.52 4.91-5.75 4.91-3.56-.05-5.69-2.15-5.69-4.62zm9.1-.11c0-2-1.43-3-3.72-3.69-2 .57-3 1.87-3 3.49a3.12 3.12 0 003.38 3.22 3.06 3.06 0 003.34-3.02zm-6.3-8.45c0 1.69 1.28 2.6 3.23 3.12a3.32 3.32 0 002.57-3.06 2.62 2.62 0 00-2.86-2.76 2.69 2.69 0 00-2.94 2.7z"/></g><g><path class="f1ea3d2a-952f-4831-ba50-50d7bb07032b" d="M180.37 209.68H5.93v-55.81h174.44l8.78 27.78-8.78 28.03z"/><path class="e0b846ef-9096-4afc-bda1-c616b053c7f6" d="M181.11 210.68H4.93v-57.81h176.18l9.09 28.78zm-174.18-2h172.71l8.46-27-8.46-26.78H6.93z"/></g><g><path class="fc96f097-72b0-4866-bf19-db9492d8f72d" d="M356.67 209.68H182.23l8.78-27.67-8.78-28.14h174.44v55.81z"/><path class="b86c6fe0-dd38-4f44-b2ef-ef560b61b862" d="M357.67 210.68H180.86L190 182l-9.09-29.14h176.8zm-174.07-2h172.07v-53.81H183.59l8.46 27.13z"/></g><g><path class="fd59a498-88a2-4968-98c4-46b1cd492095" d="M64.53 179.33h-6.81v6.32h7.59v1.9h-9.85V170h9.46v1.9h-7.2v5.54h6.81zM68.87 175l2.47 7a31.08 31.08 0 011 3.22h.08c.28-1 .65-2.08 1.06-3.22l2.52-7h2.39l-4.99 12.55h-2.19L66.43 175zM81.51 181.67c0 3.09 2 4.37 4.32 4.37a8.32 8.32 0 003.48-.65l.39 1.61a10.27 10.27 0 01-4.19.78c-3.87 0-6.18-2.55-6.18-6.35s2.23-6.78 5.9-6.78c4.11 0 5.2 3.61 5.2 5.92a7.82 7.82 0 01-.08 1.07zm6.71-1.67c0-1.45-.6-3.72-3.17-3.72-2.32 0-3.33 2.14-3.51 3.72zM93.26 178.37c0-1.3 0-2.37-.1-3.41h2l.13 2.08h.05a4.63 4.63 0 014.16-2.36c1.74 0 4.44 1 4.44 5.35v7.52h-2.28v-7.26c0-2-.76-3.72-2.92-3.72a3.25 3.25 0 00-3.06 2.34 3.17 3.17 0 00-.16 1.07v7.57h-2.26zM110.34 171.35V175h3.28v1.74h-3.28v6.79c0 1.56.45 2.44 1.72 2.44a5.1 5.1 0 001.33-.15l.1 1.72a5.63 5.63 0 01-2 .31 3.17 3.17 0 01-2.47-1 4.64 4.64 0 01-.88-3.27v-6.88h-2V175h2v-3zM132 170.65v1.5l-7.36 15.4h-2.36l7.33-15v-.06h-8.27v-1.89z"/></g><g><path class="fd59a498-88a2-4968-98c4-46b1cd492095" d="M233 184.79a7.92 7.92 0 004 1.14c2.32 0 3.67-1.22 3.67-3s-.94-2.57-3.3-3.48c-2.86-1-4.63-2.5-4.63-5 0-2.73 2.26-4.75 5.67-4.75a8 8 0 013.87.85l-.62 1.85a7.07 7.07 0 00-3.33-.83c-2.39 0-3.3 1.43-3.3 2.62 0 1.64 1.06 2.45 3.48 3.38 3 1.15 4.47 2.58 4.47 5.15s-2 5.05-6.13 5.05a9.14 9.14 0 01-4.48-1.12zM248.75 171.35V175H252v1.74h-3.27v6.79c0 1.56.44 2.44 1.71 2.44a5.1 5.1 0 001.33-.15l.1 1.72a5.63 5.63 0 01-2 .31 3.17 3.17 0 01-2.47-1 4.64 4.64 0 01-.88-3.27v-6.88h-1.95V175h1.95v-3zM261.56 187.55l-.18-1.59h-.08a4.67 4.67 0 01-3.84 1.87 3.58 3.58 0 01-3.85-3.61c0-3 2.7-4.71 7.56-4.68v-.26a2.59 2.59 0 00-2.86-2.91 6.25 6.25 0 00-3.27.93l-.52-1.51a7.86 7.86 0 014.13-1.11c3.85 0 4.79 2.62 4.79 5.14v4.71a18.5 18.5 0 00.2 3zm-.33-6.43c-2.5-.05-5.33.39-5.33 2.84a2 2 0 002.15 2.18 3.15 3.15 0 003.05-2.1 2.74 2.74 0 00.13-.73zM269.78 171.35V175h3.28v1.74h-3.28v6.79c0 1.56.44 2.44 1.72 2.44a5 5 0 001.32-.15l.11 1.72a5.71 5.71 0 01-2 .31 3.14 3.14 0 01-2.47-1 4.64 4.64 0 01-.89-3.27v-6.88h-2V175h2v-3zM276.75 181.67c.05 3.09 2 4.37 4.31 4.37a8.37 8.37 0 003.49-.65l.39 1.64a10.31 10.31 0 01-4.19.78c-3.87 0-6.19-2.55-6.19-6.35s2.24-6.78 5.91-6.78c4.1 0 5.2 3.61 5.2 5.92a9.87 9.87 0 01-.08 1.07zm6.71-1.64c0-1.45-.6-3.72-3.18-3.72-2.31 0-3.32 2.14-3.51 3.72zM304.26 170.65v1.5l-7.36 15.4h-2.37l7.33-15v-.06h-8.26v-1.89z"/></g><g><path class="fc96f097-72b0-4866-bf19-db9492d8f72d" d="M175.25 666.41h181.93v55.81H175.25z"/><path class="b86c6fe0-dd38-4f44-b2ef-ef560b61b862" d="M358.18 723.22H174.25v-57.81h183.93zm-181.93-2h179.93v-53.81H176.25z"/></g><g><path class="fd59a498-88a2-4968-98c4-46b1cd492095" d="M239 682.57v17.52h-2.26v-17.52zM243.08 690.91c0-1.3 0-2.36-.1-3.41h2l.13 2.08h.05a4.63 4.63 0 014.16-2.36c1.74 0 4.44 1 4.44 5.36v7.51h-2.28v-7.25c0-2-.76-3.72-2.92-3.72a3.24 3.24 0 00-3.06 2.34 3.07 3.07 0 00-.16 1.06v7.57h-2.29zM260.06 684a1.42 1.42 0 01-2.83 0 1.39 1.39 0 011.43-1.43 1.36 1.36 0 011.4 1.43zm-2.55 16.12V687.5h2.29v12.59zM266.35 683.89v3.61h3.28v1.75h-3.28V696c0 1.56.44 2.45 1.72 2.45a4.87 4.87 0 001.32-.16l.11 1.72a5.67 5.67 0 01-2 .31 3.18 3.18 0 01-2.47-1 4.68 4.68 0 01-.89-3.28v-6.86h-1.95v-1.68h1.95v-3zM274.75 684a1.42 1.42 0 01-2.84 0 1.39 1.39 0 011.43-1.43 1.36 1.36 0 011.41 1.43zm-2.55 16.12V687.5h2.29v12.59zM285.25 700.09l-.18-1.59H285a4.67 4.67 0 01-3.84 1.88 3.59 3.59 0 01-3.85-3.62c0-3 2.7-4.7 7.56-4.68v-.26a2.59 2.59 0 00-2.86-2.91 6.17 6.17 0 00-3.27.94l-.52-1.51a7.78 7.78 0 014.13-1.12c3.85 0 4.79 2.63 4.79 5.15v4.7a18.42 18.42 0 00.2 3zm-.33-6.42c-2.5 0-5.33.39-5.33 2.83a2 2 0 002.15 2.19 3.14 3.14 0 003.05-2.11 2.61 2.61 0 00.13-.73zM290.82 681.63h2.28v18.46h-2.28z"/></g><g><path class="f1ea3d2a-952f-4831-ba50-50d7bb07032b" d="M487.22 602.34h174.44v55.81H487.22z"/><path class="e0b846ef-9096-4afc-bda1-c616b053c7f6" d="M662.66 659.15H486.22v-57.81h176.44zm-174.44-2h172.44v-53.81H488.22z"/></g><g><path class="fc96f097-72b0-4866-bf19-db9492d8f72d" d="M663.52 602.34h174.44v55.81H663.52z"/><path class="b86c6fe0-dd38-4f44-b2ef-ef560b61b862" d="M839 659.15H662.52v-57.81H839zm-174.44-2H837v-53.81H664.52z"/></g><g><path class="fd59a498-88a2-4968-98c4-46b1cd492095" d="M545.82 627.81H539v6.31h7.59V636h-9.85v-17.5h9.46v1.9H539v5.53h6.81zM550.16 623.44l2.47 7.07a31.08 31.08 0 011 3.22h.07c.29-1 .65-2.08 1.07-3.22l2.45-7.07h2.39L554.69 636h-2.19l-4.78-12.58zM562.8 630.15c.05 3.09 2 4.36 4.31 4.36a8.21 8.21 0 003.49-.65l.39 1.64a10.14 10.14 0 01-4.19.78c-3.87 0-6.19-2.55-6.19-6.34s2.24-6.79 5.91-6.79c4.11 0 5.2 3.62 5.2 5.93a8 8 0 01-.08 1.07zm6.71-1.64c0-1.46-.6-3.72-3.18-3.72-2.31 0-3.32 2.13-3.51 3.72zM574.55 626.84c0-1.3 0-2.36-.1-3.4h2l.13 2.08h.06a4.62 4.62 0 014.16-2.37c1.74 0 4.44 1 4.44 5.36V636H583v-7.25c0-2-.75-3.72-2.91-3.72a3.26 3.26 0 00-3.07 2.34 3.46 3.46 0 00-.15 1.07V636h-2.29zM591.63 619.82v3.62h3.28v1.74h-3.28V632c0 1.56.44 2.44 1.72 2.44a4.87 4.87 0 001.32-.16l.11 1.72a5.67 5.67 0 01-2 .31 3.18 3.18 0 01-2.47-1 4.67 4.67 0 01-.88-3.28v-6.86h-1.95v-1.74h1.95v-3zM613.5 627.39c0 5.75-2.13 8.92-5.88 8.92-3.3 0-5.54-3.1-5.59-8.69s2.45-8.78 5.88-8.78 5.59 3.16 5.59 8.55zm-9.18.26c0 4.39 1.35 6.89 3.43 6.89 2.34 0 3.46-2.73 3.46-7 0-4.16-1.07-6.89-3.43-6.89-2-.05-3.46 2.4-3.46 7z"/></g><g><path class="fd59a498-88a2-4968-98c4-46b1cd492095" d="M714.3 633.27a8.09 8.09 0 004.06 1.14c2.31 0 3.67-1.22 3.67-3s-.94-2.57-3.31-3.48c-2.86-1-4.62-2.5-4.62-5 0-2.73 2.26-4.76 5.66-4.76a8 8 0 013.88.86l-.63 1.85a6.85 6.85 0 00-3.32-.84c-2.4 0-3.31 1.43-3.31 2.63 0 1.64 1.07 2.44 3.49 3.38 3 1.14 4.47 2.57 4.47 5.15s-2 5-6.14 5a9 9 0 01-4.47-1.12zM730 619.82v3.62h3.28v1.74H730V632c0 1.56.45 2.44 1.72 2.44a5 5 0 001.33-.16l.1 1.72a5.63 5.63 0 01-2 .31 3.2 3.2 0 01-2.47-1 4.67 4.67 0 01-.88-3.28v-6.86h-1.95v-1.74h1.95v-3zM742.85 636l-.18-1.58h-.08a4.7 4.7 0 01-3.85 1.87 3.59 3.59 0 01-3.84-3.62c0-3 2.7-4.7 7.56-4.68v-.26a2.59 2.59 0 00-2.86-2.91 6.26 6.26 0 00-3.27.94l-.52-1.51a7.75 7.75 0 014.13-1.12c3.85 0 4.78 2.63 4.78 5.15V633a18.3 18.3 0 00.21 3zm-.34-6.42c-2.49-.05-5.33.39-5.33 2.83a2 2 0 002.16 2.19 3.12 3.12 0 003-2.11 2.29 2.29 0 00.13-.73zM751.07 619.82v3.62h3.27v1.74h-3.27V632c0 1.56.44 2.44 1.71 2.44a5 5 0 001.33-.16l.1 1.72a5.61 5.61 0 01-2 .31 3.17 3.17 0 01-2.47-1 4.67 4.67 0 01-.89-3.28v-6.86h-2v-1.74h2v-3zM758 630.15c.05 3.09 2 4.36 4.31 4.36a8.21 8.21 0 003.49-.65l.39 1.64a10.14 10.14 0 01-4.19.78c-3.87 0-6.19-2.55-6.19-6.34s2.24-6.79 5.9-6.79c4.11 0 5.2 3.62 5.2 5.93a10.69 10.69 0 01-.07 1.07zm6.7-1.64c0-1.46-.59-3.72-3.17-3.72-2.31 0-3.33 2.13-3.51 3.72zM785.8 627.39c0 5.75-2.13 8.92-5.87 8.92-3.3 0-5.54-3.1-5.59-8.69s2.44-8.78 5.87-8.78 5.59 3.16 5.59 8.55zm-9.17.26c0 4.39 1.35 6.89 3.43 6.89 2.34 0 3.46-2.73 3.46-7 0-4.16-1.07-6.89-3.44-6.89-2-.05-3.45 2.4-3.45 7z"/></g><g><path class="f1ea3d2a-952f-4831-ba50-50d7bb07032b" d="M487.22 538.27h174.44v55.81H487.22z"/><path class="e0b846ef-9096-4afc-bda1-c616b053c7f6" d="M662.66 595.08H486.22v-57.81h176.44zm-174.44-2h172.44v-53.81H488.22z"/></g><g><path class="fc96f097-72b0-4866-bf19-db9492d8f72d" d="M663.52 538.27h174.44v55.81H663.52z"/><path class="b86c6fe0-dd38-4f44-b2ef-ef560b61b862" d="M839 595.08H662.52v-57.81H839zm-174.44-2H837v-53.81H664.52z"/></g><g><path class="fd59a498-88a2-4968-98c4-46b1cd492095" d="M545.82 563.74H539v6.32h7.59V572h-9.85v-17.57h9.46v1.9H539v5.54h6.81zM550.16 559.37l2.47 7.07a32 32 0 011 3.23h.07c.29-1 .65-2.08 1.07-3.23l2.45-7.07h2.39L554.69 572h-2.19l-4.78-12.58zM562.8 566.08c.05 3.09 2 4.37 4.31 4.37a8.37 8.37 0 003.49-.65l.39 1.63a10.14 10.14 0 01-4.19.78c-3.87 0-6.19-2.54-6.19-6.34s2.24-6.79 5.91-6.79c4.11 0 5.2 3.62 5.2 5.93a8 8 0 01-.08 1.07zm6.71-1.64c0-1.46-.6-3.72-3.18-3.72-2.31 0-3.32 2.13-3.51 3.72zM574.55 562.78c0-1.3 0-2.37-.1-3.41h2l.13 2.08h.06a4.62 4.62 0 014.16-2.37c1.74 0 4.44 1 4.44 5.36V572H583v-7.3c0-2-.75-3.72-2.91-3.72a3.26 3.26 0 00-3.07 2.34 3.46 3.46 0 00-.15 1.07V572h-2.29zM591.63 555.76v3.61h3.28v1.74h-3.28v6.79c0 1.56.44 2.44 1.72 2.44a5.42 5.42 0 001.32-.15l.11 1.71a5.67 5.67 0 01-2 .31 3.15 3.15 0 01-2.47-1 4.64 4.64 0 01-.88-3.27v-6.87h-1.95v-1.74h1.95v-3zM607.23 557.19h-.05l-2.94 1.58-.44-1.77 3.69-2h2v17h-2.21z"/></g><g><path class="fd59a498-88a2-4968-98c4-46b1cd492095" d="M714.3 569.2a8.09 8.09 0 004.06 1.14c2.31 0 3.67-1.22 3.67-3s-.94-2.57-3.31-3.48c-2.86-1-4.62-2.5-4.62-5 0-2.73 2.26-4.76 5.66-4.76a8 8 0 013.88.86l-.63 1.85a7 7 0 00-3.32-.83c-2.4 0-3.31 1.43-3.31 2.62 0 1.64 1.07 2.45 3.49 3.38 3 1.15 4.47 2.58 4.47 5.15s-2 5-6.14 5a9.11 9.11 0 01-4.47-1.11zM730 555.76v3.61h3.28v1.74H730v6.79c0 1.56.45 2.44 1.72 2.44a5.58 5.58 0 001.33-.15l.1 1.71a5.63 5.63 0 01-2 .31 3.16 3.16 0 01-2.47-1 4.64 4.64 0 01-.88-3.27v-6.87h-1.95v-1.74h1.95v-3zM742.85 572l-.18-1.58h-.08a4.67 4.67 0 01-3.85 1.87 3.58 3.58 0 01-3.84-3.61c0-3 2.7-4.71 7.56-4.68v-.26a2.6 2.6 0 00-2.86-2.92 6.26 6.26 0 00-3.27.94l-.52-1.51a7.84 7.84 0 014.13-1.12c3.85 0 4.78 2.63 4.78 5.15v4.71a18.22 18.22 0 00.21 3zm-.34-6.42c-2.49 0-5.33.39-5.33 2.84a2 2 0 002.16 2.18 3.12 3.12 0 003-2.11 2.28 2.28 0 00.13-.72zM751.07 555.76v3.61h3.27v1.74h-3.27v6.79c0 1.56.44 2.44 1.71 2.44a5.58 5.58 0 001.33-.15l.1 1.71a5.61 5.61 0 01-2 .31 3.13 3.13 0 01-2.47-1 4.64 4.64 0 01-.89-3.27v-6.87h-2v-1.74h2v-3zM758 566.08c.05 3.09 2 4.37 4.31 4.37a8.37 8.37 0 003.49-.65l.39 1.63a10.14 10.14 0 01-4.19.78c-3.87 0-6.19-2.54-6.19-6.34s2.24-6.79 5.9-6.79c4.11 0 5.2 3.62 5.2 5.93a10.69 10.69 0 01-.07 1.07zm6.7-1.64c0-1.46-.59-3.72-3.17-3.72-2.31 0-3.33 2.13-3.51 3.72zM779.54 557.19l-2.94 1.58-.44-1.74 3.69-2h2V572h-2.21z"/></g><g><path class="f1ea3d2a-952f-4831-ba50-50d7bb07032b" d="M487.22 474.2h174.44v55.81H487.22z"/><path class="e0b846ef-9096-4afc-bda1-c616b053c7f6" d="M662.66 531H486.22v-57.79h176.44zm-174.44-2h172.44v-53.79H488.22z"/></g><g><path class="fc96f097-72b0-4866-bf19-db9492d8f72d" d="M663.52 474.2h174.44v55.81H663.52z"/><path class="b86c6fe0-dd38-4f44-b2ef-ef560b61b862" d="M839 531H662.52v-57.79H839zm-174.44-2H837v-53.79H664.52z"/></g><g><path class="fd59a498-88a2-4968-98c4-46b1cd492095" d="M545.82 499.67H539V506h7.59v1.9h-9.85v-17.54h9.46v1.9H539v5.54h6.81zM550.16 495.3l2.47 7.07a32 32 0 011 3.23h.07c.29-1 .65-2.08 1.07-3.23l2.45-7.07h2.39l-4.94 12.59h-2.17l-4.78-12.59zM562.8 502c.05 3.09 2 4.37 4.31 4.37a8.37 8.37 0 003.49-.65l.39 1.64a10.31 10.31 0 01-4.19.78c-3.87 0-6.19-2.55-6.19-6.35s2.24-6.78 5.91-6.78c4.11 0 5.2 3.61 5.2 5.92a7.82 7.82 0 01-.08 1.07zm6.71-1.64c0-1.45-.6-3.72-3.18-3.72-2.31 0-3.32 2.14-3.51 3.72zM574.55 498.71c0-1.3 0-2.37-.1-3.41h2l.13 2.08h.06a4.63 4.63 0 014.16-2.36c1.74 0 4.44 1 4.44 5.35v7.52H583v-7.26c0-2-.75-3.72-2.91-3.72a3.26 3.26 0 00-3.07 2.34 3.46 3.46 0 00-.15 1.07v7.57h-2.29zM591.63 491.69v3.61h3.28v1.7h-3.28v6.79c0 1.56.44 2.44 1.72 2.44a5 5 0 001.32-.15l.11 1.71a5.42 5.42 0 01-2 .32 3.15 3.15 0 01-2.47-1 4.64 4.64 0 01-.88-3.27V497h-1.95v-1.7h1.95v-3zM602.27 507.89v-1.41l1.79-1.74c4.32-4.11 6.27-6.29 6.29-8.84a3 3 0 00-3.35-3.3 5.75 5.75 0 00-3.59 1.43l-.73-1.61a7.42 7.42 0 014.79-1.72c3.64 0 5.17 2.5 5.17 4.91 0 3.12-2.26 5.65-5.82 9.08l-1.36 1.25v.06h7.6v1.9z"/></g><g><path class="fd59a498-88a2-4968-98c4-46b1cd492095" d="M714.3 505.13a8.09 8.09 0 004.06 1.14c2.31 0 3.67-1.22 3.67-3s-.94-2.57-3.31-3.48c-2.86-1-4.62-2.5-4.62-5 0-2.73 2.26-4.75 5.66-4.75a8 8 0 013.88.85l-.63 1.85a7 7 0 00-3.32-.83c-2.4 0-3.31 1.43-3.31 2.62 0 1.64 1.07 2.45 3.49 3.38 3 1.15 4.47 2.58 4.47 5.15s-2 5-6.14 5a9.1 9.1 0 01-4.47-1.12zM730 491.69v3.61h3.28v1.7H730v6.79c0 1.56.45 2.44 1.72 2.44a5.1 5.1 0 001.33-.15l.1 1.71a5.39 5.39 0 01-2 .32 3.17 3.17 0 01-2.47-1 4.64 4.64 0 01-.88-3.27V497h-1.95v-1.7h1.95v-3zM742.85 507.89l-.18-1.59h-.08a4.67 4.67 0 01-3.85 1.87 3.58 3.58 0 01-3.84-3.61c0-3 2.7-4.71 7.56-4.68v-.26a2.59 2.59 0 00-2.86-2.91 6.25 6.25 0 00-3.27.93l-.52-1.51a7.84 7.84 0 014.13-1.11c3.85 0 4.78 2.62 4.78 5.14v4.71a18.42 18.42 0 00.21 3zm-.34-6.43c-2.49 0-5.33.39-5.33 2.84a2 2 0 002.16 2.18 3.13 3.13 0 003-2.1 2.39 2.39 0 00.13-.73zM751.07 491.69v3.61h3.27v1.7h-3.27v6.79c0 1.56.44 2.44 1.71 2.44a5.1 5.1 0 001.33-.15l.1 1.71a5.37 5.37 0 01-2 .32 3.14 3.14 0 01-2.47-1 4.64 4.64 0 01-.89-3.27V497h-2v-1.7h2v-3zM758 502c.05 3.09 2 4.37 4.31 4.37a8.37 8.37 0 003.49-.65l.39 1.64a10.31 10.31 0 01-4.19.78c-3.87 0-6.19-2.55-6.19-6.35s2.24-6.78 5.9-6.78c4.11 0 5.2 3.61 5.2 5.92a10.47 10.47 0 01-.07 1.07zm6.7-1.64c0-1.45-.59-3.72-3.17-3.72-2.31 0-3.33 2.14-3.51 3.72zM774.57 507.89v-1.41l1.79-1.74c4.32-4.11 6.27-6.29 6.3-8.84a3 3 0 00-3.36-3.3 5.74 5.74 0 00-3.58 1.43l-.73-1.61a7.4 7.4 0 014.78-1.72c3.64 0 5.18 2.5 5.18 4.91 0 3.12-2.27 5.65-5.83 9.08l-1.35 1.25v.06h7.59v1.9z"/></g><g><path class="f1ea3d2a-952f-4831-ba50-50d7bb07032b" d="M487.22 410.14h174.44v55.81H487.22z"/><path class="e0b846ef-9096-4afc-bda1-c616b053c7f6" d="M662.66 467H486.22v-57.86h176.44zm-174.44-2h172.44v-53.86H488.22z"/></g><g><path class="fc96f097-72b0-4866-bf19-db9492d8f72d" d="M663.52 410.14h174.44v55.81H663.52z"/><path class="b86c6fe0-dd38-4f44-b2ef-ef560b61b862" d="M839 467H662.52v-57.86H839zm-174.44-2H837v-53.86H664.52z"/></g><g><path class="fd59a498-88a2-4968-98c4-46b1cd492095" d="M545.82 435.6H539v6.32h7.59v1.9h-9.85v-17.53h9.46v1.9H539v5.54h6.81zM550.16 431.23l2.47 7.08a31.08 31.08 0 011 3.22h.07c.29-1 .65-2.08 1.07-3.22l2.45-7.08h2.39l-4.94 12.59h-2.17l-4.78-12.59zM562.8 437.94c.05 3.1 2 4.37 4.31 4.37a8.37 8.37 0 003.49-.65l.39 1.64a10.31 10.31 0 01-4.19.78c-3.87 0-6.19-2.55-6.19-6.35s2.24-6.78 5.91-6.78c4.11 0 5.2 3.61 5.2 5.93a7.78 7.78 0 01-.08 1.06zm6.71-1.64c0-1.45-.6-3.71-3.18-3.71-2.31 0-3.32 2.13-3.51 3.71zM574.55 434.64c0-1.3 0-2.37-.1-3.41h2l.13 2.08h.06a4.63 4.63 0 014.16-2.36c1.74 0 4.44 1 4.44 5.35v7.52H583v-7.26c0-2-.75-3.71-2.91-3.71a3.24 3.24 0 00-3.07 2.34 3.35 3.35 0 00-.15 1.06v7.57h-2.29zM591.63 427.62v3.61h3.28V433h-3.28v6.78c0 1.56.44 2.45 1.72 2.45a4.87 4.87 0 001.32-.16l.11 1.72a5.67 5.67 0 01-2 .31 3.18 3.18 0 01-2.47-1 4.68 4.68 0 01-.88-3.28V433h-1.95v-1.75h1.95v-3zM602.81 441.19a7.61 7.61 0 003.75 1.07c2.93 0 3.84-1.87 3.82-3.28 0-2.36-2.16-3.38-4.37-3.38h-1.27v-1.71H606c1.66 0 3.77-.86 3.77-2.86 0-1.36-.86-2.55-3-2.55a6.16 6.16 0 00-3.38 1.12l-.6-1.67a8 8 0 014.42-1.3c3.33 0 4.83 2 4.83 4a4.2 4.2 0 01-3.12 4v.05a4.41 4.41 0 013.77 4.34c0 2.71-2.1 5.07-6.16 5.07a8.53 8.53 0 01-4.39-1.14z"/></g><g><path class="fd59a498-88a2-4968-98c4-46b1cd492095" d="M714.3 441.06a8 8 0 004.06 1.15c2.31 0 3.67-1.23 3.67-3s-.94-2.58-3.31-3.49c-2.86-1-4.62-2.49-4.62-5 0-2.73 2.26-4.76 5.66-4.76a7.88 7.88 0 013.88.86l-.63 1.84a7 7 0 00-3.32-.83c-2.4 0-3.31 1.43-3.31 2.63 0 1.63 1.07 2.44 3.49 3.38 3 1.14 4.47 2.57 4.47 5.14s-2 5.05-6.14 5.05a9.1 9.1 0 01-4.47-1.12zM730 427.62v3.61h3.28V433H730v6.78c0 1.56.45 2.45 1.72 2.45a5 5 0 001.33-.16l.1 1.72a5.63 5.63 0 01-2 .31 3.2 3.2 0 01-2.47-1 4.68 4.68 0 01-.88-3.28V433h-1.95v-1.75h1.95v-3zM742.85 443.82l-.18-1.59h-.08a4.67 4.67 0 01-3.85 1.87 3.58 3.58 0 01-3.84-3.61c0-3 2.7-4.71 7.56-4.68v-.26a2.59 2.59 0 00-2.86-2.91 6.25 6.25 0 00-3.27.93l-.52-1.5a7.75 7.75 0 014.13-1.12c3.85 0 4.78 2.62 4.78 5.15v4.7a18.42 18.42 0 00.21 3zm-.34-6.42c-2.49-.06-5.33.39-5.33 2.83a2 2 0 002.16 2.18 3.13 3.13 0 003-2.1 2.39 2.39 0 00.13-.73zM751.07 427.62v3.61h3.27V433h-3.27v6.78c0 1.56.44 2.45 1.71 2.45a5 5 0 001.33-.16l.1 1.72a5.61 5.61 0 01-2 .31 3.17 3.17 0 01-2.47-1 4.68 4.68 0 01-.89-3.28V433h-2v-1.75h2v-3zM758 437.94c.05 3.1 2 4.37 4.31 4.37a8.37 8.37 0 003.49-.65l.39 1.64a10.31 10.31 0 01-4.19.78c-3.87 0-6.19-2.55-6.19-6.35s2.24-6.78 5.9-6.78c4.11 0 5.2 3.61 5.2 5.93a10.44 10.44 0 01-.07 1.06zm6.7-1.64c0-1.45-.59-3.71-3.17-3.71-2.31 0-3.33 2.13-3.51 3.71zM775.12 441.19a7.6 7.6 0 003.74 1.07c2.94 0 3.85-1.87 3.82-3.28 0-2.36-2.15-3.38-4.36-3.38H777v-1.71h1.28c1.66 0 3.77-.86 3.77-2.86 0-1.36-.86-2.55-3-2.55a6.22 6.22 0 00-3.38 1.12l-.6-1.67a8.05 8.05 0 014.42-1.3c3.33 0 4.84 2 4.84 4a4.2 4.2 0 01-3.12 4v.05a4.41 4.41 0 013.77 4.34c0 2.71-2.11 5.07-6.16 5.07a8.57 8.57 0 01-4.4-1.14z"/></g><g><path class="a17c4303-5b1f-4e44-8707-f7eb4b1c8b03" d="M457.22 346.07h174.44v55.81H457.22z"/><path class="e0b846ef-9096-4afc-bda1-c616b053c7f6" d="M632.66 402.88H456.22v-57.81h176.44zm-174.44-2h172.44v-53.81H458.22z"/></g><g><path class="b73eea66-e701-48fd-90d3-5af8689df8eb" d="M506.46 371.53h-6.81v6.32h7.59v1.9h-9.85v-17.52h9.46v1.89h-7.2v5.54h6.81zM510.8 367.17l2.47 7.07a31.08 31.08 0 011 3.22h.07c.29-1 .65-2.08 1.07-3.22l2.45-7.07h2.39l-4.94 12.58h-2.19l-4.78-12.58zM523.44 373.87c0 3.1 2 4.37 4.32 4.37a8.19 8.19 0 003.48-.65l.39 1.64a10.27 10.27 0 01-4.19.78c-3.87 0-6.19-2.55-6.19-6.34s2.24-6.79 5.91-6.79c4.11 0 5.2 3.61 5.2 5.93a7.64 7.64 0 01-.08 1.06zm6.71-1.63c0-1.46-.6-3.72-3.17-3.72-2.32 0-3.33 2.13-3.51 3.72zM535.19 370.57c0-1.3 0-2.36-.1-3.4h2l.13 2.08h.06a4.62 4.62 0 014.16-2.37c1.74 0 4.44 1 4.44 5.36v7.51h-2.29v-7.25c0-2-.75-3.72-2.91-3.72a3.26 3.26 0 00-3.07 2.34 3.35 3.35 0 00-.15 1.06v7.57h-2.29zM552.27 363.55v3.62h3.28v1.74h-3.28v6.78c0 1.56.44 2.45 1.72 2.45a4.87 4.87 0 001.32-.16l.11 1.72a5.67 5.67 0 01-2 .31 3.18 3.18 0 01-2.47-1 4.68 4.68 0 01-.88-3.28v-6.86h-1.95v-1.74H550v-3zM563.45 377.12a7.61 7.61 0 003.75 1.07c2.93 0 3.84-1.87 3.82-3.28 0-2.36-2.16-3.38-4.37-3.38h-1.27v-1.71h1.27c1.66 0 3.77-.86 3.77-2.86 0-1.35-.86-2.55-3-2.55a6.16 6.16 0 00-3.38 1.12l-.6-1.67a8 8 0 014.42-1.3c3.33 0 4.83 2 4.83 4a4.19 4.19 0 01-3.12 4v.05a4.41 4.41 0 013.77 4.35c0 2.7-2.1 5.07-6.16 5.07a8.52 8.52 0 01-4.39-1.15zM576.43 378.4a1.54 1.54 0 011.56-1.64 1.64 1.64 0 010 3.28 1.53 1.53 0 01-1.56-1.64zM591.71 364.77h-6.44l-.65 4.35A7.94 7.94 0 01586 369a7.18 7.18 0 013.64.91 4.82 4.82 0 012.42 4.34c0 3.31-2.62 5.78-6.29 5.78a8.24 8.24 0 01-4.21-1l.57-1.75a7.51 7.51 0 003.61.94 3.73 3.73 0 004-3.67c0-2.18-1.48-3.74-4.86-3.74a17 17 0 00-2.34.18l1.09-8.11h8.08z"/></g><g><path class="f1ea3d2a-952f-4831-ba50-50d7bb07032b" d="M487.22 282h174.44v55.81H487.22z"/><path class="e0b846ef-9096-4afc-bda1-c616b053c7f6" d="M662.66 338.81H486.22V281h176.44zm-174.44-2h172.44V283H488.22z"/></g><g><path class="fd59a498-88a2-4968-98c4-46b1cd492095" d="M545.82 307.47H539v6.31h7.59v1.9h-9.85v-17.52h9.46v1.9H539v5.53h6.81zM550.16 303.1l2.47 7.07a31.08 31.08 0 011 3.22h.07c.29-1 .65-2.08 1.07-3.22l2.45-7.07h2.39l-4.94 12.58h-2.17l-4.78-12.58zM562.8 309.81c.05 3.09 2 4.36 4.31 4.36a8.21 8.21 0 003.49-.65l.39 1.64a10.14 10.14 0 01-4.19.78c-3.87 0-6.19-2.55-6.19-6.34s2.24-6.79 5.91-6.79c4.11 0 5.2 3.62 5.2 5.93a8 8 0 01-.08 1.07zm6.71-1.64c0-1.46-.6-3.72-3.18-3.72-2.31 0-3.32 2.13-3.51 3.72zM574.55 306.5c0-1.3 0-2.36-.1-3.4h2l.13 2.08h.06a4.62 4.62 0 014.16-2.37c1.74 0 4.44 1 4.44 5.36v7.51H583v-7.25c0-2-.75-3.72-2.91-3.72a3.26 3.26 0 00-3.07 2.34 3.46 3.46 0 00-.15 1.07v7.56h-2.29zM591.63 299.48v3.62h3.28v1.74h-3.28v6.79c0 1.56.44 2.44 1.72 2.44a4.87 4.87 0 001.32-.16l.11 1.72a5.67 5.67 0 01-2 .31 3.18 3.18 0 01-2.47-1 4.67 4.67 0 01-.88-3.28v-6.86h-1.95v-1.7h1.95v-3zM609.34 315.68v-4.6h-7.85v-1.51l7.51-10.79h2.47v10.51h2.36v1.79h-2.33v4.6zm0-6.39v-5.65c0-.88 0-1.76.08-2.65h-.08c-.52 1-.94 1.72-1.41 2.5l-4.13 5.74v.06z"/></g><g><path class="f1ea3d2a-952f-4831-ba50-50d7bb07032b" d="M487.22 217.93h174.44v55.81H487.22z"/><path class="e0b846ef-9096-4afc-bda1-c616b053c7f6" d="M662.66 274.74H486.22v-57.81h176.44zm-174.44-2h172.44v-53.81H488.22z"/></g><g><path class="fd59a498-88a2-4968-98c4-46b1cd492095" d="M545.82 243.4H539v6.32h7.59v1.89h-9.85v-17.52h9.46V236H539v5.54h6.81zM550.16 239l2.47 7.07a32 32 0 011 3.23h.07c.29-1 .65-2.08 1.07-3.23l2.45-7.07h2.39l-4.94 12.58h-2.17L547.72 239zM562.8 245.74c.05 3.09 2 4.37 4.31 4.37a8.37 8.37 0 003.49-.65l.39 1.63a10.14 10.14 0 01-4.19.78c-3.87 0-6.19-2.54-6.19-6.34s2.24-6.79 5.91-6.79c4.11 0 5.2 3.62 5.2 5.93a8 8 0 01-.08 1.07zm6.71-1.64c0-1.46-.6-3.72-3.18-3.72-2.31 0-3.32 2.13-3.51 3.72zM574.55 242.44c0-1.3 0-2.37-.1-3.41h2l.13 2.08h.06a4.62 4.62 0 014.16-2.37c1.74 0 4.44 1 4.44 5.36v7.51H583v-7.25c0-2-.75-3.72-2.91-3.72A3.26 3.26 0 00577 243a3.46 3.46 0 00-.15 1.07v7.56h-2.29zM591.63 235.42V239h3.28v1.74h-3.28v6.79c0 1.56.44 2.44 1.72 2.44a5.42 5.42 0 001.32-.15l.11 1.71a5.67 5.67 0 01-2 .31 3.15 3.15 0 01-2.47-1 4.64 4.64 0 01-.88-3.27v-6.87h-1.95V239h1.95v-3zM612.35 236.64h-6.44l-.65 4.34a9.31 9.31 0 011.37-.1 7.08 7.08 0 013.64.91 4.81 4.81 0 012.42 4.34c0 3.3-2.62 5.77-6.29 5.77a8.24 8.24 0 01-4.21-1l.57-1.74a7.63 7.63 0 003.61.93 3.73 3.73 0 004-3.66c0-2.19-1.48-3.75-4.86-3.75a16.82 16.82 0 00-2.34.19l1.09-8.12h8.08z"/></g><g><path class="f1ea3d2a-952f-4831-ba50-50d7bb07032b" d="M487.22 89.8h174.44v55.81H487.22z"/><path class="e0b846ef-9096-4afc-bda1-c616b053c7f6" d="M662.66 146.61H486.22V88.8h176.44zm-174.44-2h172.44V90.8H488.22z"/></g><g><path class="fd59a498-88a2-4968-98c4-46b1cd492095" d="M545.82 115.26H539v6.32h7.59v1.9h-9.85V106h9.46v1.9H539v5.54h6.81zM550.16 110.89l2.47 7.08a31.08 31.08 0 011 3.22h.07c.29-1 .65-2.08 1.07-3.22l2.45-7.08h2.39l-4.94 12.59h-2.17l-4.78-12.59zM562.8 117.6c.05 3.1 2 4.37 4.31 4.37a8.37 8.37 0 003.49-.65l.4 1.68a10.31 10.31 0 01-4.19.78c-3.87 0-6.19-2.55-6.19-6.35s2.24-6.78 5.91-6.78c4.11 0 5.2 3.61 5.2 5.93a7.78 7.78 0 01-.08 1.06zm6.71-1.64c0-1.45-.6-3.71-3.18-3.71-2.31 0-3.32 2.13-3.51 3.71zM574.55 114.3c0-1.3 0-2.37-.1-3.41h2l.13 2.08h.06a4.63 4.63 0 014.16-2.36c1.74 0 4.44 1 4.44 5.35v7.52H583v-7.26c0-2-.75-3.71-2.91-3.71a3.24 3.24 0 00-3.07 2.34 3.35 3.35 0 00-.15 1.06v7.57h-2.29zM591.63 107.28v3.61h3.28v1.75h-3.28v6.78c0 1.56.44 2.45 1.72 2.45a4.87 4.87 0 001.32-.16l.11 1.72a5.67 5.67 0 01-2 .31 3.18 3.18 0 01-2.47-1 4.68 4.68 0 01-.88-3.28v-6.86h-1.95v-1.75h1.95v-3zM613.24 106.58v1.51l-7.36 15.39h-2.37l7.34-15h-8.27v-1.9z"/></g><g><path class="f1ea3d2a-952f-4831-ba50-50d7bb07032b" d="M487.22 153.87h174.44v55.81H487.22z"/><path class="e0b846ef-9096-4afc-bda1-c616b053c7f6" d="M662.66 210.68H486.22v-57.81h176.44zm-174.44-2h172.44v-53.81H488.22z"/></g><g><path class="fd59a498-88a2-4968-98c4-46b1cd492095" d="M545.82 179.33H539v6.32h7.59v1.9h-9.85V170h9.46v1.9H539v5.54h6.81zM550.16 175l2.47 7.08a31.08 31.08 0 011 3.22h.07c.29-1 .65-2.08 1.07-3.22l2.45-7.08h2.39l-4.94 12.59h-2.17L547.72 175zM562.8 181.67c.05 3.09 2 4.37 4.31 4.37a8.37 8.37 0 003.49-.65l.4 1.61a10.31 10.31 0 01-4.19.78c-3.87 0-6.19-2.55-6.19-6.35s2.24-6.78 5.91-6.78c4.11 0 5.2 3.61 5.2 5.92a7.82 7.82 0 01-.08 1.07zm6.71-1.64c0-1.45-.6-3.72-3.18-3.72-2.31 0-3.32 2.14-3.51 3.72zM574.55 178.37c0-1.3 0-2.37-.1-3.41h2l.13 2.08h.06a4.63 4.63 0 014.16-2.36c1.74 0 4.44 1 4.44 5.35v7.52H583v-7.26c0-2-.75-3.72-2.91-3.72a3.26 3.26 0 00-3.07 2.34 3.46 3.46 0 00-.15 1.07v7.57h-2.29zM591.63 171.35V175h3.28v1.74h-3.28v6.79c0 1.56.44 2.44 1.72 2.44a5 5 0 001.32-.15l.11 1.72a5.67 5.67 0 01-2 .31 3.15 3.15 0 01-2.47-1 4.64 4.64 0 01-.88-3.27v-6.88h-1.95V175h1.95v-3zM611.91 172.26a8.17 8.17 0 00-1.71.1 6.88 6.88 0 00-5.88 6h.08a5 5 0 014.08-2c3 0 5.1 2.16 5.1 5.46a5.65 5.65 0 01-5.62 6c-3.61 0-6-2.81-6-7.2a10.66 10.66 0 012.86-7.62 9.18 9.18 0 015.41-2.49 10.21 10.21 0 011.66-.13zm-.65 9.75c0-2.42-1.38-3.88-3.48-3.88a3.78 3.78 0 00-3.28 2.08 2 2 0 00-.26 1c0 2.78 1.33 4.83 3.72 4.83 1.98.02 3.3-1.61 3.3-4.04z"/></g><g><path class="fc96f097-72b0-4866-bf19-db9492d8f72d" d="M663.17 666.41h175.29v55.81H663.17z"/><path class="b86c6fe0-dd38-4f44-b2ef-ef560b61b862" d="M839.47 723.22h-177.3v-57.81h177.3zm-175.3-2h173.3v-53.81h-173.3z"/></g><g><path class="fd59a498-88a2-4968-98c4-46b1cd492095" d="M720.24 682.57v17.52H718v-17.52zM724.37 690.91c0-1.3 0-2.36-.11-3.41h2l.13 2.08h.05a4.64 4.64 0 014.16-2.36c1.75 0 4.45 1 4.45 5.36v7.51h-2.29v-7.25c0-2-.75-3.72-2.91-3.72a3.24 3.24 0 00-3.07 2.34 3.35 3.35 0 00-.15 1.06v7.57h-2.29zM741.35 684a1.42 1.42 0 01-2.84 0 1.39 1.39 0 011.43-1.43 1.36 1.36 0 011.41 1.43zm-2.55 16.12V687.5h2.29v12.59zM747.64 683.89v3.61h3.27v1.75h-3.27V696c0 1.56.44 2.45 1.71 2.45a5 5 0 001.33-.16l.1 1.72a5.61 5.61 0 01-2 .31 3.17 3.17 0 01-2.47-1 4.68 4.68 0 01-.89-3.28v-6.86h-1.95v-1.68h1.95v-3zM756 684a1.42 1.42 0 01-2.84 0 1.39 1.39 0 011.43-1.43A1.36 1.36 0 01756 684zm-2.55 16.12V687.5h2.29v12.59zM766.54 700.09l-.18-1.59h-.08a4.68 4.68 0 01-3.85 1.88 3.59 3.59 0 01-3.85-3.62c0-3 2.71-4.7 7.57-4.68v-.26a2.59 2.59 0 00-2.86-2.91 6.23 6.23 0 00-3.28.94l-.52-1.51a7.79 7.79 0 014.14-1.12c3.85 0 4.78 2.63 4.78 5.15v4.7a18.34 18.34 0 00.21 3zm-.34-6.42c-2.49 0-5.33.39-5.33 2.83a2 2 0 002.16 2.19 3.12 3.12 0 003-2.11 2.29 2.29 0 00.13-.73zM772.1 681.63h2.29v18.46h-2.29z"/></g><g><path class="f1ea3d2a-952f-4831-ba50-50d7bb07032b" d="M1127.88 658.15H953.44v-55.81h174.44l-8.77 27.79 8.77 28.02z"/><path class="e0b846ef-9096-4afc-bda1-c616b053c7f6" d="M1129.25 659.15H952.44v-57.81h176.81l-9.09 28.79zm-174.81-2h172.08l-8.46-27 8.46-26.78H954.44z"/></g><g><path class="fc96f097-72b0-4866-bf19-db9492d8f72d" d="M1304.18 658.15h-174.44l-8.78-27.66 8.78-28.15h174.44v55.81z"/><path class="b86c6fe0-dd38-4f44-b2ef-ef560b61b862" d="M1305.18 659.15H1129l-9.09-28.66 9.08-29.15h176.18zm-174.71-2h172.71v-53.81h-172.7l-8.48 27.15z"/></g><g><path class="fd59a498-88a2-4968-98c4-46b1cd492095" d="M1012 627.81h-6.81v6.31h7.59V636H1003v-17.5h9.46v1.9h-7.2v5.53h6.74zM1016.39 623.44l2.47 7.07a33.52 33.52 0 011 3.22h.08c.28-1 .65-2.08 1.06-3.22l2.45-7.07h2.39l-4.93 12.56h-2.18l-4.79-12.58zM1029 630.15c0 3.09 2 4.36 4.32 4.36a8.16 8.16 0 003.48-.65l.39 1.64a10 10 0 01-4.18.78c-3.88 0-6.19-2.55-6.19-6.34s2.23-6.79 5.9-6.79c4.11 0 5.2 3.62 5.2 5.93a8 8 0 01-.08 1.07zm6.71-1.64c0-1.46-.6-3.72-3.17-3.72-2.32 0-3.33 2.13-3.51 3.72zM1040.77 626.84c0-1.3 0-2.36-.1-3.4h2l.13 2.08h.05a4.62 4.62 0 014.16-2.37c1.74 0 4.45 1 4.45 5.36V636h-2.29v-7.25c0-2-.76-3.72-2.91-3.72a3.26 3.26 0 00-3.07 2.34 3.17 3.17 0 00-.16 1.07V636h-2.29zM1057.86 619.82v3.62h3.27v1.74h-3.27V632c0 1.56.44 2.44 1.71 2.44a5 5 0 001.33-.16l.1 1.72a5.63 5.63 0 01-2 .31 3.2 3.2 0 01-2.47-1 4.67 4.67 0 01-.88-3.28v-6.86h-1.95v-1.74h1.95v-3zM1079.72 627.39c0 5.75-2.13 8.92-5.87 8.92-3.31 0-5.54-3.1-5.6-8.69s2.45-8.78 5.88-8.78 5.59 3.16 5.59 8.55zm-9.18.26c0 4.39 1.36 6.89 3.44 6.89 2.34 0 3.45-2.73 3.45-7 0-4.16-1.06-6.89-3.43-6.89-2-.05-3.46 2.4-3.46 7z"/></g><g><path class="fd59a498-88a2-4968-98c4-46b1cd492095" d="M1180.53 633.27a8 8 0 004 1.14c2.32 0 3.67-1.22 3.67-3s-.94-2.57-3.3-3.48c-2.86-1-4.63-2.5-4.63-5 0-2.73 2.26-4.76 5.67-4.76a8 8 0 013.87.86l-.62 1.85a6.93 6.93 0 00-3.33-.84c-2.39 0-3.3 1.43-3.3 2.63 0 1.64 1.06 2.44 3.48 3.38 3 1.14 4.47 2.57 4.47 5.15s-2 5-6.13 5a9 9 0 01-4.48-1.12zM1196.26 619.82v3.62h3.27v1.74h-3.27V632c0 1.56.44 2.44 1.71 2.44a5 5 0 001.33-.16l.1 1.72a5.61 5.61 0 01-2 .31 3.17 3.17 0 01-2.47-1 4.67 4.67 0 01-.93-3.31v-6.86h-2v-1.74h2v-3zM1209.07 636l-.18-1.58h-.07a4.73 4.73 0 01-3.85 1.87 3.59 3.59 0 01-3.85-3.62c0-3 2.7-4.7 7.56-4.68v-.26a2.59 2.59 0 00-2.86-2.91 6.29 6.29 0 00-3.27.94l-.52-1.51a7.78 7.78 0 014.13-1.12c3.85 0 4.79 2.63 4.79 5.15V633a17.26 17.26 0 00.21 3zm-.33-6.42c-2.5-.05-5.33.39-5.33 2.83a2 2 0 002.15 2.19 3.14 3.14 0 003-2.11 2.61 2.61 0 00.13-.73zM1217.29 619.82v3.62h3.28v1.74h-3.28V632c0 1.56.44 2.44 1.72 2.44a4.93 4.93 0 001.32-.16l.11 1.72a5.71 5.71 0 01-2 .31 3.17 3.17 0 01-2.47-1 4.67 4.67 0 01-.89-3.28v-6.86h-2v-1.74h2v-3zM1224.26 630.15c0 3.09 2 4.36 4.31 4.36a8.21 8.21 0 003.49-.65l.39 1.64a10.14 10.14 0 01-4.19.78c-3.87 0-6.19-2.55-6.19-6.34s2.24-6.79 5.91-6.79c4.11 0 5.2 3.62 5.2 5.93a8 8 0 01-.08 1.07zm6.71-1.64c0-1.46-.6-3.72-3.17-3.72-2.32 0-3.33 2.13-3.52 3.72zM1252 627.39c0 5.75-2.14 8.92-5.88 8.92-3.3 0-5.54-3.1-5.59-8.69s2.44-8.78 5.88-8.78 5.59 3.16 5.59 8.55zm-9.18.26c0 4.39 1.35 6.89 3.43 6.89 2.34 0 3.46-2.73 3.46-7 0-4.16-1.07-6.89-3.43-6.89-1.98-.05-3.43 2.4-3.43 7z"/></g><g><path class="f1ea3d2a-952f-4831-ba50-50d7bb07032b" d="M1127.88 594.08H953.44v-55.81h174.44l8.78 27.79-8.78 28.02z"/><path class="e0b846ef-9096-4afc-bda1-c616b053c7f6" d="M1128.62 595.08H952.44v-57.81h176.18l9.09 28.79zm-174.18-2h172.71l8.46-27-8.46-26.79H954.44z"/></g><g><path class="fc96f097-72b0-4866-bf19-db9492d8f72d" d="M1304.18 594.08h-174.44l8.78-27.66-8.78-28.15h174.44v55.81z"/><path class="b86c6fe0-dd38-4f44-b2ef-ef560b61b862" d="M1305.18 595.08h-176.81l9.1-28.66-9.09-29.15h176.8zm-174.07-2h172.07v-53.81H1131.1l8.47 27.15z"/></g><g><path class="fd59a498-88a2-4968-98c4-46b1cd492095" d="M1012 563.74h-6.81v6.32h7.59V572H1003v-17.57h9.46v1.9h-7.2v5.54h6.74zM1016.39 559.37l2.47 7.07c.41 1.15.75 2.19 1 3.23h.08c.28-1 .65-2.08 1.06-3.23l2.45-7.07h2.39l-4.93 12.63h-2.18l-4.79-12.58zM1029 566.08c0 3.09 2 4.37 4.32 4.37a8.32 8.32 0 003.48-.65l.39 1.63a10 10 0 01-4.18.78c-3.88 0-6.19-2.54-6.19-6.34s2.23-6.79 5.9-6.79c4.11 0 5.2 3.62 5.2 5.93a8 8 0 01-.08 1.07zm6.71-1.64c0-1.46-.6-3.72-3.17-3.72-2.32 0-3.33 2.13-3.51 3.72zM1040.77 562.78c0-1.3 0-2.37-.1-3.41h2l.13 2.08h.05a4.62 4.62 0 014.16-2.37c1.74 0 4.45 1 4.45 5.36V572h-2.29v-7.3c0-2-.76-3.72-2.91-3.72a3.26 3.26 0 00-3.07 2.34 3.17 3.17 0 00-.16 1.07V572h-2.29zM1057.86 555.76v3.61h3.27v1.74h-3.27v6.79c0 1.56.44 2.44 1.71 2.44a5.58 5.58 0 001.33-.15l.1 1.71a5.63 5.63 0 01-2 .31 3.16 3.16 0 01-2.47-1 4.64 4.64 0 01-.88-3.27v-6.87h-1.95v-1.74h1.95v-3zM1073.45 557.19l-2.94 1.58-.51-1.77 3.7-2h1.94v17h-2.21z"/></g><g><path class="fd59a498-88a2-4968-98c4-46b1cd492095" d="M1180.53 569.2a8 8 0 004 1.14c2.32 0 3.67-1.22 3.67-3s-.94-2.57-3.3-3.48c-2.86-1-4.63-2.5-4.63-5 0-2.73 2.26-4.76 5.67-4.76a8 8 0 013.87.86l-.62 1.85a7.07 7.07 0 00-3.33-.83c-2.39 0-3.3 1.43-3.3 2.62 0 1.64 1.06 2.45 3.48 3.38 3 1.15 4.47 2.58 4.47 5.15s-2 5-6.13 5a9.15 9.15 0 01-4.48-1.11zM1196.26 555.76v3.61h3.27v1.74h-3.27v6.79c0 1.56.44 2.44 1.71 2.44a5.58 5.58 0 001.33-.15l.1 1.71a5.61 5.61 0 01-2 .31 3.13 3.13 0 01-2.47-1 4.64 4.64 0 01-.93-3.21v-6.87h-2v-1.74h2v-3zM1209.07 572l-.18-1.58h-.07a4.7 4.7 0 01-3.85 1.87 3.58 3.58 0 01-3.85-3.61c0-3 2.7-4.71 7.56-4.68v-.26a2.6 2.6 0 00-2.86-2.92 6.29 6.29 0 00-3.27.94l-.52-1.51a7.87 7.87 0 014.13-1.12c3.85 0 4.79 2.63 4.79 5.15v4.71a17.19 17.19 0 00.21 3zm-.33-6.42c-2.5 0-5.33.39-5.33 2.84a2 2 0 002.15 2.18 3.14 3.14 0 003-2.11 2.6 2.6 0 00.13-.72zM1217.29 555.76v3.61h3.28v1.74h-3.28v6.79c0 1.56.44 2.44 1.72 2.44a5.49 5.49 0 001.32-.15l.11 1.71a5.71 5.71 0 01-2 .31 3.13 3.13 0 01-2.47-1 4.64 4.64 0 01-.89-3.27v-6.87h-2v-1.74h2v-3zM1224.26 566.08c0 3.09 2 4.37 4.31 4.37a8.37 8.37 0 003.49-.65l.39 1.63a10.14 10.14 0 01-4.19.78c-3.87 0-6.19-2.54-6.19-6.34s2.24-6.79 5.91-6.79c4.11 0 5.2 3.62 5.2 5.93a8 8 0 01-.08 1.07zm6.71-1.64c0-1.46-.6-3.72-3.17-3.72-2.32 0-3.33 2.13-3.52 3.72zM1245.76 557.19l-2.94 1.58-.44-1.74 3.69-2h2V572h-2.21z"/></g><g><path class="f1ea3d2a-952f-4831-ba50-50d7bb07032b" d="M1127.88 530.01H953.44V474.2h174.44l-8.77 27.79 8.77 28.02z"/><path class="e0b846ef-9096-4afc-bda1-c616b053c7f6" d="M1129.25 531H952.44v-57.79h176.81l-9.09 28.79zm-174.81-2h172.08l-8.46-27 8.46-26.78H954.44z"/></g><g><path class="fc96f097-72b0-4866-bf19-db9492d8f72d" d="M1304.18 530.01h-174.44l-8.78-27.66 8.78-28.15h174.44v55.81z"/><path class="b86c6fe0-dd38-4f44-b2ef-ef560b61b862" d="M1305.18 531H1129l-9.09-28.66 9.08-29.15h176.18zm-174.71-2h172.71v-53.79h-172.7l-8.48 27.14z"/></g><g><path class="fd59a498-88a2-4968-98c4-46b1cd492095" d="M1012 499.67h-6.81V506h7.59v1.9H1003v-17.54h9.46v1.9h-7.2v5.54h6.74zM1016.39 495.3l2.47 7.07c.41 1.15.75 2.19 1 3.23h.08c.28-1 .65-2.08 1.06-3.23l2.45-7.07h2.39l-4.94 12.59h-2.18l-4.79-12.59zM1029 502c0 3.09 2 4.37 4.32 4.37a8.32 8.32 0 003.48-.65l.39 1.64a10.21 10.21 0 01-4.18.78c-3.88 0-6.19-2.55-6.19-6.35s2.23-6.78 5.9-6.78c4.11 0 5.2 3.61 5.2 5.92a7.82 7.82 0 01-.08 1.07zm6.71-1.64c0-1.45-.6-3.72-3.17-3.72-2.32 0-3.33 2.14-3.51 3.72zM1040.77 498.71c0-1.3 0-2.37-.1-3.41h2l.13 2.08h.05A4.63 4.63 0 011047 495c1.74 0 4.45 1 4.45 5.35v7.52h-2.29v-7.26c0-2-.76-3.72-2.91-3.72a3.26 3.26 0 00-3.07 2.34 3.17 3.17 0 00-.16 1.07v7.57h-2.29zM1057.86 491.69v3.61h3.27v1.7h-3.27v6.79c0 1.56.44 2.44 1.71 2.44a5.1 5.1 0 001.33-.15l.1 1.71a5.39 5.39 0 01-2 .32 3.17 3.17 0 01-2.47-1 4.64 4.64 0 01-.88-3.27V497h-1.95v-1.7h1.95v-3zM1068.49 507.89v-1.41l1.79-1.74c4.32-4.11 6.27-6.29 6.29-8.84a3 3 0 00-3.35-3.3 5.77 5.77 0 00-3.59 1.43l-.72-1.61a7.37 7.37 0 014.78-1.72c3.64 0 5.17 2.5 5.17 4.91 0 3.12-2.26 5.65-5.82 9.08l-1.35 1.25v.06h7.59v1.9z"/></g><g><path class="fd59a498-88a2-4968-98c4-46b1cd492095" d="M1180.53 505.13a8 8 0 004 1.14c2.32 0 3.67-1.22 3.67-3s-.94-2.57-3.3-3.48c-2.86-1-4.63-2.5-4.63-5 0-2.73 2.26-4.75 5.67-4.75a8 8 0 013.87.85l-.62 1.85a7.07 7.07 0 00-3.33-.83c-2.39 0-3.3 1.43-3.3 2.62 0 1.64 1.06 2.45 3.48 3.38 3 1.15 4.47 2.58 4.47 5.15s-2 5-6.13 5A9.14 9.14 0 011180 507zM1196.26 491.69v3.61h3.27v1.7h-3.27v6.79c0 1.56.44 2.44 1.71 2.44a5.1 5.1 0 001.33-.15l.1 1.71a5.37 5.37 0 01-2 .32 3.14 3.14 0 01-2.47-1 4.64 4.64 0 01-.89-3.27V497h-2v-1.7h2v-3zM1209.07 507.89l-.18-1.59h-.07a4.7 4.7 0 01-3.85 1.87 3.58 3.58 0 01-3.85-3.61c0-3 2.7-4.71 7.56-4.68v-.26a2.59 2.59 0 00-2.86-2.91 6.28 6.28 0 00-3.27.93l-.52-1.51a7.86 7.86 0 014.13-1.11c3.85 0 4.79 2.62 4.79 5.14v4.71a17.38 17.38 0 00.21 3zm-.33-6.43c-2.5 0-5.33.39-5.33 2.84a2 2 0 002.15 2.18 3.15 3.15 0 003-2.1 2.74 2.74 0 00.13-.73zM1217.29 491.69v3.61h3.28v1.7h-3.28v6.79c0 1.56.44 2.44 1.72 2.44a5 5 0 001.32-.15l.11 1.71a5.46 5.46 0 01-2 .32 3.14 3.14 0 01-2.47-1 4.64 4.64 0 01-.89-3.27V497h-2v-1.7h2v-3zM1224.26 502c0 3.09 2 4.37 4.31 4.37a8.37 8.37 0 003.49-.65l.39 1.64a10.31 10.31 0 01-4.19.78c-3.87 0-6.19-2.55-6.19-6.35s2.24-6.78 5.91-6.78c4.11 0 5.2 3.61 5.2 5.92a7.82 7.82 0 01-.08 1.07zm6.71-1.64c0-1.45-.6-3.72-3.17-3.72-2.32 0-3.33 2.14-3.52 3.72zM1240.79 507.89v-1.41l1.8-1.74c4.31-4.11 6.26-6.29 6.29-8.84a3 3 0 00-3.35-3.3 5.75 5.75 0 00-3.59 1.43l-.73-1.61a7.4 7.4 0 014.78-1.72c3.64 0 5.18 2.5 5.18 4.91 0 3.12-2.26 5.65-5.83 9.08l-1.35 1.25v.06h7.59v1.9z"/></g><g><path class="f1ea3d2a-952f-4831-ba50-50d7bb07032b" d="M1127.88 465.95H953.44v-55.81h174.44l8.78 27.78-8.78 28.03z"/><path class="e0b846ef-9096-4afc-bda1-c616b053c7f6" d="M1128.62 467H952.44v-57.86h176.18l9.09 28.78zm-174.18-2h172.71l8.46-27-8.46-26.78H954.44z"/></g><g><path class="fc96f097-72b0-4866-bf19-db9492d8f72d" d="M1304.18 465.95h-174.44l8.78-27.67-8.78-28.14h174.44v55.81z"/><path class="b86c6fe0-dd38-4f44-b2ef-ef560b61b862" d="M1305.18 467h-176.81l9.1-28.67-9.09-29.14h176.8zm-174.07-2h172.07v-53.86H1131.1l8.47 27.15z"/></g><g><path class="fd59a498-88a2-4968-98c4-46b1cd492095" d="M1012 435.6h-6.81v6.32h7.59v1.9H1003v-17.53h9.46v1.9h-7.2v5.54h6.74zM1016.39 431.23l2.47 7.08a33.52 33.52 0 011 3.22h.08c.28-1 .65-2.08 1.06-3.22l2.45-7.08h2.39l-4.94 12.59h-2.18l-4.79-12.59zM1029 437.94c0 3.1 2 4.37 4.32 4.37a8.32 8.32 0 003.48-.65l.39 1.64a10.21 10.21 0 01-4.18.78c-3.88 0-6.19-2.55-6.19-6.35s2.23-6.78 5.9-6.78c4.11 0 5.2 3.61 5.2 5.93a7.78 7.78 0 01-.08 1.06zm6.71-1.64c0-1.45-.6-3.71-3.17-3.71-2.32 0-3.33 2.13-3.51 3.71zM1040.77 434.64c0-1.3 0-2.37-.1-3.41h2l.13 2.08h.05A4.63 4.63 0 011047 431c1.74 0 4.45 1 4.45 5.35v7.52h-2.29v-7.26c0-2-.76-3.71-2.91-3.71a3.24 3.24 0 00-3.07 2.34 3.07 3.07 0 00-.16 1.06v7.57h-2.29zM1057.86 427.62v3.61h3.27V433h-3.27v6.78c0 1.56.44 2.45 1.71 2.45a5 5 0 001.33-.16l.1 1.72a5.63 5.63 0 01-2 .31 3.2 3.2 0 01-2.47-1 4.68 4.68 0 01-.88-3.28V433h-1.95v-1.75h1.95v-3zM1069 441.19a7.65 7.65 0 003.75 1.07c2.94 0 3.85-1.87 3.82-3.28 0-2.36-2.16-3.38-4.37-3.38h-1.2v-1.71h1.27c1.67 0 3.77-.86 3.77-2.86 0-1.36-.85-2.55-3-2.55a6.22 6.22 0 00-3.38 1.12l-.6-1.67a8.05 8.05 0 014.42-1.3c3.33 0 4.84 2 4.84 4a4.2 4.2 0 01-3.12 4v.05a4.41 4.41 0 013.8 4.32c0 2.71-2.11 5.07-6.16 5.07a8.57 8.57 0 01-4.4-1.14z"/></g><g><path class="fd59a498-88a2-4968-98c4-46b1cd492095" d="M1180.53 441.06a7.92 7.92 0 004 1.15c2.32 0 3.67-1.23 3.67-3s-.94-2.58-3.3-3.49c-2.86-1-4.63-2.49-4.63-5 0-2.73 2.26-4.76 5.67-4.76a7.86 7.86 0 013.87.86l-.62 1.84a7.07 7.07 0 00-3.33-.83c-2.39 0-3.3 1.43-3.3 2.63 0 1.63 1.06 2.44 3.48 3.38 3 1.14 4.47 2.57 4.47 5.14s-2 5.05-6.13 5.05A9.14 9.14 0 011180 443zM1196.26 427.62v3.61h3.27V433h-3.27v6.78c0 1.56.44 2.45 1.71 2.45a5 5 0 001.33-.16l.1 1.72a5.61 5.61 0 01-2 .31 3.17 3.17 0 01-2.47-1 4.68 4.68 0 01-.89-3.28V433h-2v-1.75h2v-3zM1209.07 443.82l-.18-1.59h-.07a4.7 4.7 0 01-3.85 1.87 3.58 3.58 0 01-3.85-3.61c0-3 2.7-4.71 7.56-4.68v-.26a2.59 2.59 0 00-2.86-2.91 6.28 6.28 0 00-3.27.93l-.52-1.5a7.78 7.78 0 014.13-1.12c3.85 0 4.79 2.62 4.79 5.15v4.7a17.38 17.38 0 00.21 3zm-.33-6.42c-2.5-.06-5.33.39-5.33 2.83a2 2 0 002.15 2.18 3.15 3.15 0 003-2.1 2.74 2.74 0 00.13-.73zM1217.29 427.62v3.61h3.28V433h-3.28v6.78c0 1.56.44 2.45 1.72 2.45a4.93 4.93 0 001.32-.16l.11 1.72a5.71 5.71 0 01-2 .31 3.17 3.17 0 01-2.47-1 4.68 4.68 0 01-.89-3.28V433h-2v-1.75h2v-3zM1224.26 437.94c0 3.1 2 4.37 4.31 4.37a8.37 8.37 0 003.49-.65l.39 1.64a10.31 10.31 0 01-4.19.78c-3.87 0-6.19-2.55-6.19-6.35s2.24-6.78 5.91-6.78c4.11 0 5.2 3.61 5.2 5.93a7.78 7.78 0 01-.08 1.06zm6.71-1.64c0-1.45-.6-3.71-3.17-3.71-2.32 0-3.33 2.13-3.52 3.71zM1241.34 441.19a7.6 7.6 0 003.74 1.07c2.94 0 3.85-1.87 3.83-3.28 0-2.36-2.16-3.38-4.37-3.38h-1.28v-1.71h1.28c1.66 0 3.77-.86 3.77-2.86 0-1.36-.86-2.55-3-2.55a6.22 6.22 0 00-3.38 1.12l-.59-1.67a8 8 0 014.42-1.3c3.32 0 4.83 2 4.83 4a4.2 4.2 0 01-3.12 4v.05a4.41 4.41 0 013.77 4.34c0 2.71-2.1 5.07-6.16 5.07a8.53 8.53 0 01-4.39-1.14z"/></g><g><path class="a17c4303-5b1f-4e44-8707-f7eb4b1c8b03" d="M1127.88 401.88H953.44v-55.81h174.44l-8.77 27.78 8.77 28.03z"/><path class="e0b846ef-9096-4afc-bda1-c616b053c7f6" d="M1129.25 402.88H952.44v-57.81h176.81l-9.09 28.79zm-174.81-2h172.08l-8.46-27 8.46-26.78H954.44z"/></g><g><path class="fc96f097-72b0-4866-bf19-db9492d8f72d" d="M1304.18 401.88h-174.44l-8.78-27.66 8.78-28.15h174.44v55.81z"/><path class="b86c6fe0-dd38-4f44-b2ef-ef560b61b862" d="M1305.18 402.88H1129l-9.09-28.66 9.08-29.15h176.18zm-174.71-2h172.71v-53.81h-172.7l-8.48 27.14z"/></g><g><path class="b73eea66-e701-48fd-90d3-5af8689df8eb" d="M1002.68 371.53h-6.81v6.32h7.59v1.9h-9.85v-17.52h9.46v1.89h-7.2v5.54h6.81zM1007 367.17l2.47 7.07a33.52 33.52 0 011 3.22h.08c.28-1 .65-2.08 1.06-3.22l2.45-7.07h2.39l-4.94 12.58h-2.18l-4.79-12.58zM1019.66 373.87c.05 3.1 2 4.37 4.32 4.37a8.16 8.16 0 003.48-.65l.39 1.64a10.21 10.21 0 01-4.18.78c-3.88 0-6.19-2.55-6.19-6.34s2.23-6.79 5.9-6.79c4.11 0 5.2 3.61 5.2 5.93a7.64 7.64 0 01-.08 1.06zm6.71-1.63c0-1.46-.6-3.72-3.17-3.72-2.32 0-3.33 2.13-3.51 3.72zM1031.41 370.57c0-1.3 0-2.36-.1-3.4h2l.13 2.08a4.62 4.62 0 014.16-2.37c1.74 0 4.45 1 4.45 5.36v7.51h-2.29v-7.25c0-2-.76-3.72-2.91-3.72a3.24 3.24 0 00-3.07 2.34 3.07 3.07 0 00-.16 1.06v7.57h-2.29zM1048.5 363.55v3.62h3.27v1.74h-3.27v6.78c0 1.56.44 2.45 1.71 2.45a5 5 0 001.33-.16l.1 1.72a5.63 5.63 0 01-2 .31 3.2 3.2 0 01-2.47-1 4.68 4.68 0 01-.88-3.28v-6.86h-2v-1.74h2v-3zM1059.68 377.12a7.57 7.57 0 003.74 1.07c2.94 0 3.85-1.87 3.82-3.28 0-2.36-2.16-3.38-4.37-3.38h-1.27v-1.71h1.27c1.67 0 3.77-.86 3.77-2.86 0-1.35-.85-2.55-3-2.55a6.22 6.22 0 00-3.38 1.12l-.6-1.67a8.05 8.05 0 014.42-1.3c3.33 0 4.84 2 4.84 4a4.19 4.19 0 01-3.12 4v.05a4.41 4.41 0 013.77 4.35c0 2.7-2.11 5.07-6.16 5.07a8.56 8.56 0 01-4.4-1.15zM1072.65 378.4a1.54 1.54 0 011.56-1.64 1.64 1.64 0 010 3.28 1.53 1.53 0 01-1.56-1.64zM1087.94 364.77h-6.45l-.65 4.35a8 8 0 011.38-.11 7.18 7.18 0 013.64.91 4.84 4.84 0 012.42 4.34c0 3.31-2.63 5.78-6.3 5.78a8.29 8.29 0 01-4.21-1l.57-1.75a7.52 7.52 0 003.62.94 3.73 3.73 0 004-3.67c0-2.18-1.48-3.74-4.86-3.74a17.17 17.17 0 00-2.34.18l1.09-8.11h8.09z"/></g><g><path class="fd59a498-88a2-4968-98c4-46b1cd492095" d="M1171.17 377a7.92 7.92 0 004 1.15c2.32 0 3.67-1.22 3.67-3s-.94-2.58-3.3-3.49c-2.86-1-4.63-2.49-4.63-5 0-2.73 2.26-4.76 5.67-4.76a8 8 0 013.87.86l-.62 1.84a7.07 7.07 0 00-3.33-.83c-2.39 0-3.3 1.43-3.3 2.63 0 1.64 1.06 2.44 3.48 3.38 3 1.14 4.47 2.57 4.47 5.15s-2 5-6.13 5a9 9 0 01-4.48-1.12zM1186.9 363.55v3.62h3.27v1.74h-3.27v6.78c0 1.56.44 2.45 1.71 2.45a5 5 0 001.33-.16l.1 1.72a5.63 5.63 0 01-2 .31 3.16 3.16 0 01-2.46-1 4.63 4.63 0 01-.89-3.28v-6.86h-2v-1.74h2v-3zM1199.72 379.75l-.19-1.59h-.07a4.71 4.71 0 01-3.85 1.88 3.59 3.59 0 01-3.85-3.62c0-3 2.7-4.7 7.57-4.68v-.26a2.59 2.59 0 00-2.86-2.91 6.2 6.2 0 00-3.28.94l-.52-1.51a7.78 7.78 0 014.13-1.12c3.85 0 4.79 2.63 4.79 5.15v4.7a17.31 17.31 0 00.21 3zm-.34-6.42c-2.5-.05-5.33.39-5.33 2.83a2 2 0 002.16 2.19 3.14 3.14 0 003-2.11 2.29 2.29 0 00.13-.73zM1207.93 363.55v3.62h3.28v1.74h-3.28v6.78c0 1.56.44 2.45 1.72 2.45a4.93 4.93 0 001.35-.14l.11 1.72a5.71 5.71 0 01-2 .31 3.17 3.17 0 01-2.47-1 4.68 4.68 0 01-.89-3.28v-6.86h-2v-1.74h2v-3zM1214.9 373.87c0 3.1 2 4.37 4.32 4.37a8.19 8.19 0 003.48-.65l.39 1.64a10.27 10.27 0 01-4.19.78c-3.87 0-6.18-2.55-6.18-6.34s2.23-6.79 5.9-6.79c4.11 0 5.2 3.61 5.2 5.93a7.64 7.64 0 01-.08 1.06zm6.71-1.63c0-1.46-.6-3.72-3.18-3.72-2.31 0-3.32 2.13-3.5 3.72zM1232 377.12a7.6 7.6 0 003.74 1.07c2.94 0 3.85-1.87 3.83-3.28 0-2.36-2.16-3.38-4.37-3.38h-1.28v-1.71h1.28c1.66 0 3.77-.86 3.77-2.86 0-1.35-.86-2.55-3-2.55a6.22 6.22 0 00-3.38 1.12l-.59-1.67a8 8 0 014.42-1.3c3.32 0 4.83 2 4.83 4a4.19 4.19 0 01-3.12 4v.05a4.41 4.41 0 013.77 4.35c0 2.7-2.1 5.07-6.16 5.07a8.52 8.52 0 01-4.39-1.15zM1245 378.4a1.54 1.54 0 011.56-1.64 1.64 1.64 0 010 3.28 1.54 1.54 0 01-1.56-1.64zM1260.24 364.77h-6.45l-.65 4.35a8.08 8.08 0 011.38-.11 7.18 7.18 0 013.64.91 4.82 4.82 0 012.42 4.34c0 3.31-2.63 5.78-6.29 5.78a8.24 8.24 0 01-4.21-1l.57-1.75a7.51 7.51 0 003.61.94 3.73 3.73 0 004-3.67c0-2.18-1.49-3.74-4.87-3.74a17.31 17.31 0 00-2.34.18l1.1-8.11h8.08z"/></g><g><path class="f1ea3d2a-952f-4831-ba50-50d7bb07032b" d="M1127.88 337.81H953.44V282h174.44l8.78 27.79-8.78 28.02z"/><path class="e0b846ef-9096-4afc-bda1-c616b053c7f6" d="M1128.62 338.81H952.44V281h176.18l9.09 28.79zm-174.18-2h172.71l8.46-27-8.46-26.81H954.44z"/></g><g><path class="fc96f097-72b0-4866-bf19-db9492d8f72d" d="M1304.18 337.81h-174.44l8.78-27.66-8.78-28.15h174.44v55.81z"/><path class="b86c6fe0-dd38-4f44-b2ef-ef560b61b862" d="M1305.18 338.81h-176.81l9.1-28.66-9.09-29.15h176.8zm-174.07-2h172.07V283H1131.1l8.47 27.15z"/></g><g><path class="fd59a498-88a2-4968-98c4-46b1cd492095" d="M1012 307.47h-6.81v6.31h7.59v1.9H1003v-17.52h9.46v1.9h-7.2v5.53h6.74zM1016.39 303.1l2.47 7.07a33.52 33.52 0 011 3.22h.08c.28-1 .65-2.08 1.06-3.22l2.45-7.07h2.39l-4.94 12.58h-2.18l-4.79-12.58zM1029 309.81c0 3.09 2 4.36 4.32 4.36a8.16 8.16 0 003.48-.65l.39 1.64a10 10 0 01-4.18.78c-3.88 0-6.19-2.55-6.19-6.34s2.23-6.79 5.9-6.79c4.11 0 5.2 3.62 5.2 5.93a8 8 0 01-.08 1.07zm6.71-1.64c0-1.46-.6-3.72-3.17-3.72-2.32 0-3.33 2.13-3.51 3.72zM1040.77 306.5c0-1.3 0-2.36-.1-3.4h2l.13 2.08h.05a4.62 4.62 0 014.16-2.37c1.74 0 4.45 1 4.45 5.36v7.51h-2.29v-7.25c0-2-.76-3.72-2.91-3.72a3.26 3.26 0 00-3.07 2.34 3.17 3.17 0 00-.16 1.07v7.56h-2.29zM1057.86 299.48v3.62h3.27v1.74h-3.27v6.79c0 1.56.44 2.44 1.71 2.44a5 5 0 001.33-.16l.1 1.72a5.63 5.63 0 01-2 .31 3.2 3.2 0 01-2.47-1 4.67 4.67 0 01-.88-3.28v-6.86h-1.95v-1.7h1.95v-3zM1075.56 315.68v-4.6h-7.85v-1.51l7.54-10.79h2.47v10.51h2.37v1.79h-2.37v4.6zm0-6.39v-5.65c0-.88 0-1.76.08-2.65h-.08c-.52 1-.94 1.72-1.4 2.5l-4.14 5.74v.06z"/></g><g><path class="fd59a498-88a2-4968-98c4-46b1cd492095" d="M1179 312.93a8.09 8.09 0 004.06 1.14c2.31 0 3.67-1.22 3.67-3s-.94-2.57-3.31-3.48c-2.86-1-4.62-2.5-4.62-5 0-2.73 2.26-4.76 5.66-4.76a8 8 0 013.88.86l-.63 1.85a6.85 6.85 0 00-3.32-.84c-2.4 0-3.31 1.43-3.31 2.63 0 1.64 1.07 2.44 3.49 3.38 3 1.14 4.47 2.57 4.47 5.15s-2 5-6.14 5a9 9 0 01-4.47-1.12zM1194.68 299.48v3.62h3.32v1.74h-3.28v6.79c0 1.56.45 2.44 1.72 2.44a5 5 0 001.33-.16l.1 1.72a5.63 5.63 0 01-2 .31 3.2 3.2 0 01-2.47-1 4.67 4.67 0 01-.88-3.28v-6.86h-2v-1.7h2v-3zM1207.5 315.68l-.18-1.58h-.08a4.7 4.7 0 01-3.85 1.87 3.59 3.59 0 01-3.84-3.62c0-3 2.7-4.7 7.56-4.68v-.26a2.59 2.59 0 00-2.86-2.91 6.26 6.26 0 00-3.27.94l-.52-1.51a7.75 7.75 0 014.13-1.12c3.85 0 4.78 2.63 4.78 5.15v4.71a18.3 18.3 0 00.21 3zm-.34-6.42c-2.49-.05-5.33.39-5.33 2.83a2 2 0 002.16 2.19 3.12 3.12 0 003-2.11 2.29 2.29 0 00.13-.73zM1215.72 299.48v3.62h3.28v1.74h-3.27v6.79c0 1.56.44 2.44 1.71 2.44a5 5 0 001.33-.16l.1 1.72a5.61 5.61 0 01-2 .31 3.17 3.17 0 01-2.47-1 4.67 4.67 0 01-.89-3.28v-6.86h-2v-1.7h2v-3zM1222.69 309.81c0 3.09 2 4.36 4.31 4.36a8.21 8.21 0 003.49-.65l.39 1.64a10.14 10.14 0 01-4.19.78c-3.87 0-6.19-2.55-6.19-6.34s2.24-6.79 5.9-6.79c4.11 0 5.2 3.62 5.2 5.93a10.69 10.69 0 01-.07 1.07zm6.7-1.64c0-1.46-.59-3.72-3.17-3.72-2.31 0-3.33 2.13-3.51 3.72zM1246.29 315.68v-4.6h-7.85v-1.51l7.54-10.79h2.47v10.51h2.37v1.79h-2.37v4.6zm0-6.39v-5.65c0-.88 0-1.76.08-2.65h-.08c-.52 1-.93 1.72-1.4 2.5l-4.13 5.74v.06zM1256.17 297.87a29.71 29.71 0 01-2.44 6.16l-1.46.19a37.61 37.61 0 001.54-6.11z"/></g><g><path class="f1ea3d2a-952f-4831-ba50-50d7bb07032b" d="M1127.88 273.74H953.44v-55.81h174.44l-8.77 27.79 8.77 28.02z"/><path class="e0b846ef-9096-4afc-bda1-c616b053c7f6" d="M1129.25 274.74H952.44v-57.81h176.81l-9.09 28.79zm-174.81-2h172.08l-8.46-27 8.46-26.79H954.44z"/></g><g><path class="fc96f097-72b0-4866-bf19-db9492d8f72d" d="M1304.18 273.74h-174.44l-8.78-27.66 8.78-28.15h174.44v55.81z"/><path class="b86c6fe0-dd38-4f44-b2ef-ef560b61b862" d="M1305.18 274.74H1129l-9.09-28.66 9.08-29.15h176.18zm-174.71-2h172.71v-53.81h-172.7l-8.48 27.15z"/></g><g><path class="fd59a498-88a2-4968-98c4-46b1cd492095" d="M1012 243.4h-6.81v6.32h7.59v1.89H1003v-17.52h9.46V236h-7.2v5.54h6.74zM1016.39 239l2.47 7.07c.41 1.15.75 2.19 1 3.23h.08c.28-1 .65-2.08 1.06-3.23l2.45-7.07h2.39l-4.94 12.58h-2.18l-4.78-12.58zM1029 245.74c0 3.09 2 4.37 4.32 4.37a8.32 8.32 0 003.48-.65l.39 1.63a10 10 0 01-4.18.78c-3.88 0-6.19-2.54-6.19-6.34s2.23-6.79 5.9-6.79c4.11 0 5.2 3.62 5.2 5.93a8 8 0 01-.08 1.07zm6.71-1.64c0-1.46-.6-3.72-3.17-3.72-2.32 0-3.33 2.13-3.51 3.72zM1040.77 242.44c0-1.3 0-2.37-.1-3.41h2l.13 2.08h.05a4.62 4.62 0 014.16-2.37c1.74 0 4.45 1 4.45 5.36v7.51h-2.29v-7.25c0-2-.76-3.72-2.91-3.72a3.26 3.26 0 00-3.07 2.34 3.17 3.17 0 00-.16 1.07v7.56h-2.29zM1057.86 235.42V239h3.27v1.74h-3.27v6.79c0 1.56.44 2.44 1.71 2.44a5.58 5.58 0 001.33-.15l.1 1.71a5.63 5.63 0 01-2 .31 3.16 3.16 0 01-2.47-1 4.64 4.64 0 01-.88-3.27v-6.87h-1.95V239h1.95v-3zM1078.58 236.64h-6.45l-.65 4.34a9.35 9.35 0 011.38-.1 7.08 7.08 0 013.64.91 4.82 4.82 0 012.42 4.34c0 3.3-2.63 5.77-6.3 5.77a8.29 8.29 0 01-4.21-1l.57-1.74a7.68 7.68 0 003.62.93 3.72 3.72 0 004-3.66c0-2.19-1.48-3.75-4.86-3.75a17 17 0 00-2.34.19l1.09-8.12h8.09z"/></g><g><path class="fd59a498-88a2-4968-98c4-46b1cd492095" d="M1179 248.86a8.09 8.09 0 004 1.14c2.31 0 3.67-1.22 3.67-3s-.94-2.57-3.31-3.48c-2.86-1-4.62-2.5-4.62-5 0-2.73 2.26-4.76 5.66-4.76a8 8 0 013.88.86l-.63 1.85a7 7 0 00-3.32-.83c-2.4 0-3.31 1.43-3.31 2.62 0 1.64 1.07 2.45 3.49 3.38 3 1.15 4.47 2.58 4.47 5.15s-2 5-6.14 5a9.11 9.11 0 01-4.47-1.11zM1194.68 235.42V239h3.32v1.74h-3.28v6.79c0 1.56.45 2.44 1.72 2.44a5.58 5.58 0 001.33-.15l.1 1.71a5.63 5.63 0 01-2 .31 3.16 3.16 0 01-2.47-1 4.64 4.64 0 01-.88-3.27v-6.87h-2V239h2v-3zM1207.5 251.61l-.18-1.58h-.08a4.67 4.67 0 01-3.85 1.87 3.58 3.58 0 01-3.84-3.61c0-3 2.7-4.71 7.56-4.68v-.26a2.6 2.6 0 00-2.86-2.92 6.26 6.26 0 00-3.27.94l-.52-1.51a7.84 7.84 0 014.13-1.12c3.85 0 4.78 2.63 4.78 5.15v4.71a18.22 18.22 0 00.21 3zm-.34-6.42c-2.49-.05-5.33.39-5.33 2.84a2 2 0 002.16 2.18 3.12 3.12 0 003-2.11 2.28 2.28 0 00.13-.72zM1215.72 235.42V239h3.28v1.74h-3.27v6.79c0 1.56.44 2.44 1.71 2.44a5.58 5.58 0 001.33-.15l.1 1.71a5.61 5.61 0 01-2 .31 3.13 3.13 0 01-2.47-1 4.64 4.64 0 01-.89-3.27v-6.87h-2V239h2v-3zM1222.69 245.74c0 3.09 2 4.37 4.31 4.37a8.37 8.37 0 003.49-.65l.39 1.63a10.14 10.14 0 01-4.19.78c-3.87 0-6.19-2.54-6.19-6.34s2.24-6.79 5.9-6.79c4.11 0 5.2 3.62 5.2 5.93a10.69 10.69 0 01-.07 1.07zm6.7-1.64c0-1.46-.59-3.72-3.17-3.72-2.31 0-3.33 2.13-3.51 3.72zM1249.31 236.64h-6.45l-.65 4.34a9.47 9.47 0 011.38-.1 7.08 7.08 0 013.64.91 4.81 4.81 0 012.42 4.34c0 3.3-2.63 5.77-6.29 5.77a8.31 8.31 0 01-4.22-1l.58-1.74a7.63 7.63 0 003.61.93 3.72 3.72 0 004-3.66c0-2.19-1.48-3.75-4.86-3.75a17.1 17.1 0 00-2.34.19l1.09-8.12h8.09zM1256.17 233.8a30.06 30.06 0 01-2.44 6.17l-1.46.18a37.61 37.61 0 001.54-6.11z"/></g><g><path class="f1ea3d2a-952f-4831-ba50-50d7bb07032b" d="M1127.88 145.61H953.44V89.8h174.44l-8.77 27.78 8.77 28.03z"/><path class="e0b846ef-9096-4afc-bda1-c616b053c7f6" d="M1129.25 146.61H952.44V88.8h176.81l-9.09 28.78zm-174.81-2h172.08l-8.46-27 8.46-26.78H954.44z"/></g><g><path class="fc96f097-72b0-4866-bf19-db9492d8f72d" d="M1304.18 145.61h-174.44l-8.78-27.67 8.78-28.14h174.44v55.81z"/><path class="b86c6fe0-dd38-4f44-b2ef-ef560b61b862" d="M1305.18 146.61H1129l-9.08-28.61 9.08-29.2h176.18zm-174.71-2h172.71V90.8h-172.7l-8.48 27.14z"/></g><g><path class="fd59a498-88a2-4968-98c4-46b1cd492095" d="M1012 115.26h-6.81v6.32h7.59v1.9H1003V106h9.46v1.9h-7.2v5.54h6.74zM1016.39 110.89l2.47 7.08a33.52 33.52 0 011 3.22h.08c.28-1 .65-2.08 1.06-3.22l2.45-7.08h2.39l-4.94 12.59h-2.18l-4.79-12.59zM1029 117.6c0 3.1 2 4.37 4.32 4.37a8.32 8.32 0 003.48-.65l.39 1.64a10.21 10.21 0 01-4.18.78c-3.88 0-6.19-2.55-6.19-6.35s2.23-6.78 5.9-6.78c4.11 0 5.2 3.61 5.2 5.93a7.78 7.78 0 01-.08 1.06zm6.71-1.64c0-1.45-.6-3.71-3.17-3.71-2.32 0-3.33 2.13-3.51 3.71zM1040.77 114.3c0-1.3 0-2.37-.1-3.41h2l.13 2.08h.05a4.63 4.63 0 014.16-2.36c1.74 0 4.45 1 4.45 5.35v7.52h-2.29v-7.26c0-2-.76-3.71-2.91-3.71a3.24 3.24 0 00-3.07 2.34 3.07 3.07 0 00-.16 1.06v7.57h-2.29zM1057.86 107.28v3.61h3.27v1.75h-3.27v6.78c0 1.56.44 2.45 1.71 2.45a5 5 0 001.33-.16l.1 1.72a5.63 5.63 0 01-2 .31 3.2 3.2 0 01-2.47-1 4.68 4.68 0 01-.88-3.28v-6.86h-1.95v-1.75h1.95v-3zM1079.46 106.58v1.51l-7.36 15.39h-2.36l7.33-15h-8.27v-1.9z"/></g><g><path class="fd59a498-88a2-4968-98c4-46b1cd492095" d="M1179 120.72a8 8 0 004.06 1.15c2.31 0 3.67-1.23 3.67-3s-.94-2.58-3.31-3.49c-2.86-1-4.62-2.49-4.62-5 0-2.73 2.26-4.76 5.66-4.76a7.88 7.88 0 013.88.86l-.63 1.84a7 7 0 00-3.32-.83c-2.4 0-3.31 1.43-3.31 2.63 0 1.63 1.07 2.44 3.49 3.38 3 1.14 4.47 2.57 4.47 5.14s-2 5-6.14 5a9.1 9.1 0 01-4.47-1.12zM1194.68 107.28v3.61h3.32v1.75h-3.28v6.78c0 1.56.45 2.45 1.72 2.45a5 5 0 001.33-.16l.1 1.72a5.63 5.63 0 01-2 .31 3.2 3.2 0 01-2.47-1 4.68 4.68 0 01-.88-3.28v-6.86h-2v-1.75h2v-3zM1207.5 123.48l-.18-1.59h-.08a4.67 4.67 0 01-3.85 1.87 3.58 3.58 0 01-3.84-3.61c0-3 2.7-4.71 7.56-4.68v-.26a2.59 2.59 0 00-2.86-2.91 6.25 6.25 0 00-3.27.93l-.52-1.5a7.75 7.75 0 014.13-1.12c3.85 0 4.78 2.62 4.78 5.15v4.7a18.42 18.42 0 00.21 3zm-.34-6.42c-2.49-.06-5.33.39-5.33 2.83a2 2 0 002.16 2.18 3.13 3.13 0 003-2.1 2.39 2.39 0 00.13-.73zM1215.72 107.28v3.61h3.28v1.75h-3.27v6.78c0 1.56.44 2.45 1.71 2.45a5 5 0 001.33-.16l.1 1.72a5.61 5.61 0 01-2 .31 3.17 3.17 0 01-2.47-1 4.68 4.68 0 01-.89-3.28v-6.86h-2v-1.75h2v-3zM1222.69 117.6c0 3.1 2 4.37 4.31 4.37a8.37 8.37 0 003.49-.65l.39 1.64a10.31 10.31 0 01-4.19.78c-3.87 0-6.19-2.55-6.19-6.35s2.24-6.78 5.9-6.78c4.11 0 5.2 3.61 5.2 5.93a10.44 10.44 0 01-.07 1.06zm6.7-1.64c0-1.45-.59-3.71-3.17-3.71-2.31 0-3.33 2.13-3.51 3.71zM1250.19 106.58v1.51l-7.35 15.39h-2.37l7.33-15h-8.27v-1.9zM1256.17 105.67a30.18 30.18 0 01-2.44 6.16l-1.46.18a37.35 37.35 0 001.54-6.11z"/></g><g><path class="f1ea3d2a-952f-4831-ba50-50d7bb07032b" d="M487.22 26.01h174.44v55.81H487.22z"/><path class="e0b846ef-9096-4afc-bda1-c616b053c7f6" d="M662.66 82.82H486.22V25h176.44zm-174.44-2h172.44V27H488.22z"/></g><g><path class="fd59a498-88a2-4968-98c4-46b1cd492095" d="M545.82 51.48H539v6.31h7.59v1.9h-9.85V42.17h9.46v1.9H539v5.53h6.81zM550.16 47.11l2.47 7.07a32 32 0 011 3.23h.07c.29-1 .65-2.08 1.07-3.23l2.45-7.07h2.39l-4.94 12.58h-2.17l-4.78-12.58zM562.8 53.82c.05 3.09 2 4.37 4.31 4.37a8.37 8.37 0 003.49-.65l.39 1.63a10.14 10.14 0 01-4.19.78c-3.87 0-6.19-2.54-6.19-6.34s2.24-6.79 5.91-6.79c4.11 0 5.2 3.62 5.2 5.93a8 8 0 01-.08 1.07zm6.71-1.64c0-1.46-.6-3.72-3.18-3.72-2.31 0-3.32 2.13-3.51 3.72zM574.55 50.51c0-1.3 0-2.36-.1-3.4h2l.13 2.08h.06a4.62 4.62 0 014.16-2.37c1.74 0 4.44 1 4.44 5.36v7.51H583v-7.25c0-2-.75-3.72-2.91-3.72a3.26 3.26 0 00-3.09 2.34 3.46 3.46 0 00-.15 1.07v7.56h-2.29zM591.63 43.5v3.61h3.28v1.74h-3.28v6.79c0 1.56.44 2.44 1.72 2.44a4.87 4.87 0 001.32-.16l.11 1.72a5.67 5.67 0 01-2 .31 3.15 3.15 0 01-2.47-1 4.65 4.65 0 01-.88-3.28v-6.82h-1.95v-1.74h1.95v-3zM602.06 55.4c0-2.13 1.27-3.64 3.35-4.52v-.08a4.17 4.17 0 01-2.68-3.8c0-2.67 2.26-4.49 5.22-4.49 3.28 0 4.92 2.05 4.92 4.16a4.29 4.29 0 01-2.78 3.95v.08c2.1.83 3.4 2.31 3.4 4.37C613.47 58 611 60 607.73 60c-3.54 0-5.67-2.13-5.67-4.6zm9.1-.1c0-2-1.43-3-3.72-3.69-2 .57-3 1.87-3 3.48a3.13 3.13 0 003.38 3.23 3.06 3.06 0 003.34-3.02zm-6.29-8.45c0 1.69 1.27 2.6 3.22 3.12a3.33 3.33 0 002.57-3.07 2.63 2.63 0 00-2.86-2.76 2.69 2.69 0 00-2.93 2.71z"/></g><g><path class="f1ea3d2a-952f-4831-ba50-50d7bb07032b" d="M1127.88 81.82H953.44V26.01h174.44l-8.77 27.79 8.77 28.02z"/><path class="e0b846ef-9096-4afc-bda1-c616b053c7f6" d="M1129.25 82.82H952.44V25h176.81l-9.09 28.79zm-174.81-2h172.08l-8.46-27 8.46-26.82H954.44z"/></g><g><path class="fc96f097-72b0-4866-bf19-db9492d8f72d" d="M1304.18 81.82h-174.44l-8.78-27.66 8.78-28.15h174.44v55.81z"/><path class="b86c6fe0-dd38-4f44-b2ef-ef560b61b862" d="M1305.18 82.82H1129l-9.09-28.66L1129 25h176.18zm-174.71-2h172.71V27h-172.7L1122 54.16z"/></g><g><path class="fd59a498-88a2-4968-98c4-46b1cd492095" d="M1012 51.48h-6.81v6.31h7.59v1.9H1003V42.17h9.46v1.9h-7.2v5.53h6.74zM1016.39 47.11l2.47 7.07c.41 1.15.75 2.19 1 3.23h.08c.28-1 .65-2.08 1.06-3.23l2.45-7.07h2.39l-4.94 12.58h-2.18l-4.79-12.58zM1029 53.82c0 3.09 2 4.37 4.32 4.37a8.32 8.32 0 003.48-.65l.39 1.63a10 10 0 01-4.19.83c-3.88 0-6.19-2.54-6.19-6.34s2.23-6.79 5.9-6.79c4.11 0 5.2 3.62 5.2 5.93a8 8 0 01-.08 1.07zm6.71-1.64c0-1.46-.6-3.72-3.17-3.72-2.32 0-3.33 2.13-3.51 3.72zM1040.77 50.51c0-1.3 0-2.36-.1-3.4h2l.13 2.08h.05a4.62 4.62 0 014.16-2.37c1.74 0 4.45 1 4.45 5.36v7.51h-2.29v-7.25c0-2-.76-3.72-2.91-3.72a3.26 3.26 0 00-3.07 2.34 3.17 3.17 0 00-.16 1.07v7.56h-2.29zM1057.86 43.5v3.61h3.27v1.74h-3.27v6.79c0 1.56.44 2.44 1.71 2.44a5 5 0 001.33-.16l.1 1.72a5.63 5.63 0 01-2 .31 3.16 3.16 0 01-2.47-1 4.65 4.65 0 01-.88-3.28v-6.82h-1.95v-1.74h1.95v-3zM1068.28 55.4c0-2.13 1.28-3.64 3.36-4.52v-.08a4.19 4.19 0 01-2.68-3.8c0-2.67 2.26-4.49 5.23-4.49 3.27 0 4.91 2.05 4.91 4.16a4.29 4.29 0 01-2.78 3.95v.08c2.11.83 3.41 2.31 3.41 4.37 0 2.93-2.53 4.91-5.75 4.91-3.57.02-5.7-2.11-5.7-4.58zm9.1-.1c0-2-1.43-3-3.72-3.69-2 .57-3 1.87-3 3.48a3.13 3.13 0 003.38 3.23 3.06 3.06 0 003.34-3.02zm-6.29-8.45c0 1.69 1.27 2.6 3.22 3.12a3.34 3.34 0 002.58-3.07 2.63 2.63 0 00-2.86-2.76 2.69 2.69 0 00-2.94 2.71z"/></g><g><path class="fd59a498-88a2-4968-98c4-46b1cd492095" d="M1179 56.94a8.09 8.09 0 004.06 1.14c2.31 0 3.67-1.22 3.67-3s-.94-2.57-3.31-3.48c-2.86-1-4.62-2.5-4.62-5 0-2.73 2.26-4.76 5.66-4.76a8 8 0 013.88.86l-.63 1.85a6.85 6.85 0 00-3.32-.84c-2.4 0-3.31 1.43-3.31 2.63 0 1.64 1.07 2.45 3.49 3.38 3 1.15 4.47 2.57 4.47 5.15s-2 5-6.14 5a9 9 0 01-4.47-1.12zM1194.68 43.5v3.61h3.32v1.74h-3.28v6.79c0 1.56.45 2.44 1.72 2.44a5 5 0 001.33-.16l.1 1.72a5.63 5.63 0 01-2 .31 3.16 3.16 0 01-2.47-1 4.65 4.65 0 01-.88-3.28v-6.82h-2v-1.74h2v-3zM1207.5 59.69l-.18-1.58h-.08a4.67 4.67 0 01-3.85 1.87 3.58 3.58 0 01-3.84-3.61c0-3 2.7-4.71 7.56-4.69v-.26a2.59 2.59 0 00-2.86-2.91 6.26 6.26 0 00-3.27.94l-.52-1.51a7.75 7.75 0 014.13-1.12c3.85 0 4.78 2.63 4.78 5.15v4.71a18.3 18.3 0 00.21 3zm-.34-6.42c-2.49-.05-5.33.39-5.33 2.84a2 2 0 002.16 2.18 3.12 3.12 0 003-2.11 2.28 2.28 0 00.13-.72zM1215.72 43.5v3.61h3.28v1.74h-3.27v6.79c0 1.56.44 2.44 1.71 2.44a5 5 0 001.33-.16l.1 1.72a5.61 5.61 0 01-2 .31 3.13 3.13 0 01-2.47-1 4.65 4.65 0 01-.89-3.28v-6.82h-2v-1.74h2v-3zM1222.69 53.82c0 3.09 2 4.37 4.31 4.37a8.37 8.37 0 003.49-.65l.39 1.63a10.14 10.14 0 01-4.19.78c-3.87 0-6.19-2.54-6.19-6.34s2.24-6.79 5.9-6.79c4.11 0 5.2 3.62 5.2 5.93a10.69 10.69 0 01-.07 1.07zm6.7-1.64c0-1.46-.59-3.72-3.17-3.72-2.31 0-3.33 2.13-3.51 3.72zM1239 55.4c0-2.13 1.28-3.64 3.36-4.52v-.08a4.19 4.19 0 01-2.68-3.8c0-2.67 2.27-4.49 5.23-4.49 3.28 0 4.91 2.05 4.91 4.16a4.29 4.29 0 01-2.78 3.95v.08c2.11.83 3.41 2.31 3.41 4.37 0 2.93-2.52 4.91-5.75 4.91-3.55.02-5.7-2.11-5.7-4.58zm9.1-.1c0-2-1.43-3-3.71-3.69-2 .57-3.05 1.87-3.05 3.48a3.14 3.14 0 003.38 3.23 3.06 3.06 0 003.39-3.02zm-6.29-8.45c0 1.69 1.27 2.6 3.23 3.12a3.34 3.34 0 002.57-3.07 2.63 2.63 0 00-2.86-2.76 2.69 2.69 0 00-2.93 2.71zM1256.17 41.88a29.71 29.71 0 01-2.44 6.16l-1.46.19a37.61 37.61 0 001.54-6.11z"/></g><g><path class="f1ea3d2a-952f-4831-ba50-50d7bb07032b" d="M1127.88 209.68H953.44v-55.81h174.44l8.78 27.78-8.78 28.03z"/><path class="e0b846ef-9096-4afc-bda1-c616b053c7f6" d="M1128.62 210.68H952.44v-57.81h176.18l9.09 28.78zm-174.18-2h172.71l8.46-27-8.46-26.78H954.44z"/></g><g><path class="fc96f097-72b0-4866-bf19-db9492d8f72d" d="M1304.18 209.68h-174.44l8.78-27.67-8.78-28.14h174.44v55.81z"/><path class="b86c6fe0-dd38-4f44-b2ef-ef560b61b862" d="M1305.18 210.68h-176.81l9.1-28.67-9.09-29.14h176.8zm-174.07-2h172.07v-53.81H1131.1l8.47 27.15z"/></g><g><path class="fd59a498-88a2-4968-98c4-46b1cd492095" d="M1012 179.33h-6.81v6.32h7.59v1.9H1003V170h9.46v1.9h-7.2v5.54h6.74zM1016.39 175l2.47 7.08a33.52 33.52 0 011 3.22h.08c.28-1 .65-2.08 1.06-3.22l2.45-7.08h2.39l-4.94 12.59h-2.18l-4.78-12.59zM1029 181.67c0 3.09 2 4.37 4.32 4.37a8.32 8.32 0 003.48-.65l.39 1.64a10.21 10.21 0 01-4.18.78c-3.88 0-6.19-2.55-6.19-6.35s2.23-6.78 5.9-6.78c4.11 0 5.2 3.61 5.2 5.92a7.82 7.82 0 01-.08 1.07zm6.71-1.64c0-1.45-.6-3.72-3.17-3.72-2.32 0-3.33 2.14-3.51 3.72zM1040.77 178.37c0-1.3 0-2.37-.1-3.41h2l.13 2.08h.05a4.63 4.63 0 014.16-2.36c1.74 0 4.45 1 4.45 5.35v7.52h-2.29v-7.26c0-2-.76-3.72-2.91-3.72a3.26 3.26 0 00-3.07 2.34 3.17 3.17 0 00-.16 1.07v7.57h-2.29zM1057.86 171.35V175h3.27v1.74h-3.27v6.79c0 1.56.44 2.44 1.71 2.44a5.1 5.1 0 001.33-.15l.1 1.72a5.63 5.63 0 01-2 .31 3.17 3.17 0 01-2.47-1 4.64 4.64 0 01-.88-3.27v-6.88h-1.95V175h1.95v-3zM1078.14 172.26a8.26 8.26 0 00-1.72.1 6.88 6.88 0 00-5.88 6h.08a5 5 0 014.08-2c3 0 5.1 2.16 5.1 5.46a5.65 5.65 0 01-5.62 6c-3.61 0-6-2.81-6-7.2a10.66 10.66 0 012.86-7.62 9.21 9.21 0 015.41-2.49 10.32 10.32 0 011.67-.13zm-.65 9.75c0-2.42-1.38-3.88-3.49-3.88a3.75 3.75 0 00-3.27 2.08 1.92 1.92 0 00-.27 1c.06 2.78 1.33 4.83 3.72 4.83 1.98.02 3.31-1.61 3.31-4.04z"/></g><g><path class="fd59a498-88a2-4968-98c4-46b1cd492095" d="M1179 184.79a8 8 0 004.06 1.14c2.31 0 3.67-1.22 3.67-3s-.94-2.57-3.31-3.48c-2.86-1-4.62-2.5-4.62-5 0-2.73 2.26-4.75 5.66-4.75a8 8 0 013.88.85l-.63 1.85a7 7 0 00-3.32-.83c-2.4 0-3.31 1.43-3.31 2.62 0 1.64 1.07 2.45 3.49 3.38 3 1.15 4.47 2.58 4.47 5.15s-2 5.05-6.14 5.05a9.1 9.1 0 01-4.47-1.12zM1194.68 171.35V175h3.32v1.74h-3.28v6.79c0 1.56.45 2.44 1.72 2.44a5.1 5.1 0 001.33-.15l.1 1.72a5.63 5.63 0 01-2 .31 3.17 3.17 0 01-2.47-1 4.64 4.64 0 01-.88-3.27v-6.88h-2V175h2v-3zM1207.5 187.55l-.18-1.59h-.08a4.67 4.67 0 01-3.85 1.87 3.58 3.58 0 01-3.84-3.61c0-3 2.7-4.71 7.56-4.68v-.26a2.59 2.59 0 00-2.86-2.91 6.25 6.25 0 00-3.27.93l-.52-1.51a7.84 7.84 0 014.13-1.11c3.85 0 4.78 2.62 4.78 5.14v4.71a18.42 18.42 0 00.21 3zm-.34-6.43c-2.49-.05-5.33.39-5.33 2.84a2 2 0 002.16 2.18 3.13 3.13 0 003-2.1 2.39 2.39 0 00.13-.73zM1215.72 171.35V175h3.28v1.74h-3.27v6.79c0 1.56.44 2.44 1.71 2.44a5.1 5.1 0 001.33-.15l.1 1.72a5.61 5.61 0 01-2 .31 3.14 3.14 0 01-2.47-1 4.64 4.64 0 01-.89-3.27v-6.88h-2V175h2v-3zM1222.69 181.67c0 3.09 2 4.37 4.31 4.37a8.37 8.37 0 003.49-.65l.39 1.64a10.31 10.31 0 01-4.19.78c-3.87 0-6.19-2.55-6.19-6.35s2.24-6.78 5.9-6.78c4.11 0 5.2 3.61 5.2 5.92a10.47 10.47 0 01-.07 1.07zm6.7-1.64c0-1.45-.59-3.72-3.17-3.72-2.31 0-3.33 2.14-3.51 3.72zM1248.87 172.26a8.26 8.26 0 00-1.72.1 6.87 6.87 0 00-5.87 6h.07a5 5 0 014.09-2c3 0 5.09 2.16 5.09 5.46a5.65 5.65 0 01-5.61 6c-3.62 0-6-2.81-6-7.2a10.62 10.62 0 012.87-7.62 9.15 9.15 0 015.4-2.49 10.32 10.32 0 011.67-.13zm-.65 9.75c0-2.42-1.38-3.88-3.49-3.88a3.76 3.76 0 00-3.27 2.08 1.92 1.92 0 00-.26 1c0 2.78 1.32 4.83 3.72 4.83 1.97.02 3.3-1.61 3.3-4.04zM1256.17 169.74a30.18 30.18 0 01-2.44 6.16l-1.46.18a37.35 37.35 0 001.54-6.11z"/></g><g><path class="fc96f097-72b0-4866-bf19-db9492d8f72d" d="M1122.76 666.41h181.93v55.81h-181.93z"/><path class="b86c6fe0-dd38-4f44-b2ef-ef560b61b862" d="M1305.69 723.22h-183.93v-57.81h183.93zm-181.93-2h179.93v-53.81h-179.93z"/></g><g><path class="fd59a498-88a2-4968-98c4-46b1cd492095" d="M1186.46 682.57v17.52h-2.26v-17.52zM1190.59 690.91c0-1.3 0-2.36-.1-3.41h2l.13 2.08a4.63 4.63 0 014.16-2.36c1.74 0 4.44 1 4.44 5.36v7.51H1199v-7.25c0-2-.76-3.72-2.92-3.72a3.24 3.24 0 00-3.06 2.34 3.07 3.07 0 00-.16 1.06v7.57h-2.29zM1207.57 684a1.42 1.42 0 01-2.83 0 1.39 1.39 0 011.43-1.43 1.36 1.36 0 011.4 1.43zm-2.57 16.09V687.5h2.29v12.59zM1213.86 683.89v3.61h3.28v1.75h-3.28V696c0 1.56.44 2.45 1.72 2.45a4.87 4.87 0 001.32-.16l.1 1.71a5.67 5.67 0 01-2 .31 3.18 3.18 0 01-2.47-1 4.68 4.68 0 01-.88-3.28v-6.86h-2v-1.67h2v-3zM1222.26 684a1.42 1.42 0 01-2.83 0 1.39 1.39 0 011.43-1.43 1.36 1.36 0 011.4 1.43zm-2.55 16.12V687.5h2.29v12.59zM1232.76 700.09l-.18-1.59h-.08a4.67 4.67 0 01-3.84 1.88 3.59 3.59 0 01-3.85-3.62c0-3 2.7-4.7 7.56-4.68v-.26a2.59 2.59 0 00-2.86-2.91 6.17 6.17 0 00-3.27.94l-.52-1.51a7.78 7.78 0 014.13-1.12c3.85 0 4.79 2.63 4.79 5.15v4.7a18.42 18.42 0 00.2 3zm-.33-6.42c-2.5 0-5.33.39-5.33 2.83a2 2 0 002.15 2.19 3.14 3.14 0 003-2.11 2.61 2.61 0 00.13-.73zM1238.33 681.63h2.29v18.46h-2.29z"/></g><g><path class="a2042c27-21ff-4930-a4b3-27ec6f93e999" d="M102.16 770.84v5.29h-1.64v-14h3.85a5.06 5.06 0 013.48 1.1 3.89 3.89 0 011.24 3.08 4.28 4.28 0 01-1.37 3.27 5.28 5.28 0 01-3.71 1.27zm0-7.23v5.74h1.72a3.87 3.87 0 002.59-.77 2.75 2.75 0 00.9-2.2c0-1.85-1.1-2.77-3.28-2.77zM122.76 776.13h-2l-2.34-3.93a10.61 10.61 0 00-.63-.93 3.37 3.37 0 00-.62-.63 2.34 2.34 0 00-.68-.36 3 3 0 00-.83-.11h-1.35v6h-1.64v-14h4.18a6.08 6.08 0 011.7.23 4 4 0 011.35.7 3.34 3.34 0 01.89 1.17 4 4 0 01.32 1.64 3.88 3.88 0 01-.22 1.34 3.36 3.36 0 01-.62 1.09 3.69 3.69 0 01-1 .81 4.71 4.71 0 01-1.28.52 3.93 3.93 0 01.61.36 3.58 3.58 0 01.49.47 6.24 6.24 0 01.46.62c.16.24.33.5.52.81zm-8.4-12.52v5.08h2.23a3.25 3.25 0 001.14-.19 2.52 2.52 0 00.9-.53 2.38 2.38 0 00.6-.85 2.88 2.88 0 00.21-1.13 2.2 2.2 0 00-.72-1.75 3.15 3.15 0 00-2.11-.63zM133.11 776.13h-7.42v-14h7.11v1.49h-5.47v4.66h5.06v1.47h-5.06v4.9h5.78zM147.21 762.12l-5.18 14h-1.81l-5.08-14H137l3.88 11.11a6.5 6.5 0 01.28 1.24 6.14 6.14 0 01.32-1.26l4-11.09zM153.23 762.12v1.41h-1.36v11.19h1.36v1.41h-4.37v-1.41h1.37v-11.19h-1.37v-1.41zM162.19 776.36a6.16 6.16 0 01-4.77-2 7.3 7.3 0 01-1.79-5.11 7.7 7.7 0 011.83-5.39 6.36 6.36 0 015-2 6 6 0 014.67 2 7.34 7.34 0 011.77 5.11 7.74 7.74 0 01-1.81 5.42 6.28 6.28 0 01-4.9 1.97zm.12-13a4.51 4.51 0 00-3.58 1.6 6.14 6.14 0 00-1.38 4.18 6.22 6.22 0 001.34 4.16 4.39 4.39 0 003.5 1.58 4.59 4.59 0 003.64-1.51 6.15 6.15 0 001.32-4.2 6.43 6.43 0 00-1.29-4.29 4.4 4.4 0 00-3.55-1.51zM182.87 770.46c0 3.94-1.77 5.9-5.32 5.9s-5.1-1.89-5.1-5.67v-8.57h1.64v8.46q0 4.3 3.63 4.31t3.51-4.16v-8.61h1.64zM186.71 775.56v-1.93a4.11 4.11 0 00.8.53 7.55 7.55 0 001 .39 8.11 8.11 0 001 .25 5.72 5.72 0 001 .09 3.78 3.78 0 002.26-.56 1.91 1.91 0 00.75-1.62 1.87 1.87 0 00-.25-1 2.73 2.73 0 00-.69-.76 7.5 7.5 0 00-1-.67l-1.29-.67c-.49-.24-1-.49-1.37-.75a5.6 5.6 0 01-1.1-.84 3.46 3.46 0 01-.74-1 3.52 3.52 0 01.15-3 3.45 3.45 0 011.11-1.17 4.63 4.63 0 011.55-.68 7.18 7.18 0 011.78-.23 6.83 6.83 0 013 .5v1.84a5.48 5.48 0 00-3.18-.86 5 5 0 00-1.08.12 2.93 2.93 0 00-.95.36 2.18 2.18 0 00-.69.66 1.75 1.75 0 00-.26 1 2.06 2.06 0 00.2.93 2.17 2.17 0 00.59.71 5.59 5.59 0 00.95.63l1.3.66c.5.25 1 .51 1.42.79a6.11 6.11 0 011.18.9 4.11 4.11 0 01.81 1.11 3 3 0 01.3 1.38 3.55 3.55 0 01-.41 1.76 3.28 3.28 0 01-1.09 1.16 4.71 4.71 0 01-1.59.65 8.3 8.3 0 01-1.89.2 6.6 6.6 0 01-.82-.05c-.33 0-.66-.09-1-.16a8.39 8.39 0 01-1-.25 2.77 2.77 0 01-.75-.42zM212.74 776.13h-7.27v-14h1.64v12.52h5.63zM220.84 776.36a6.16 6.16 0 01-4.77-2 7.3 7.3 0 01-1.79-5.11 7.7 7.7 0 011.83-5.39 6.38 6.38 0 015-2 6 6 0 014.67 2 7.34 7.34 0 011.77 5.11 7.74 7.74 0 01-1.81 5.42 6.25 6.25 0 01-4.9 1.97zm.12-13a4.52 4.52 0 00-3.58 1.6 6.14 6.14 0 00-1.38 4.18 6.22 6.22 0 001.34 4.16 4.4 4.4 0 003.5 1.58 4.59 4.59 0 003.64-1.51 6.15 6.15 0 001.33-4.2 6.43 6.43 0 00-1.29-4.29 4.43 4.43 0 00-3.52-1.51zM241.75 775.17a9.32 9.32 0 01-4.69 1.19 6.41 6.41 0 01-4.85-1.93 7.12 7.12 0 01-1.85-5.12 7.27 7.27 0 012.06-5.33 7 7 0 015.21-2.09 8.9 8.9 0 013.83.74v1.82a7.32 7.32 0 00-4-1.08 5.05 5.05 0 00-3.86 1.63 6.77 6.77 0 00-.1 8.37 4.89 4.89 0 003.78 1.52 5.83 5.83 0 002.85-.66v-3.92H237v-1.49h4.71z"/></g><g><path class="a2042c27-21ff-4930-a4b3-27ec6f93e999" d="M588.68 762.12v1.41h-1.36v11.19h1.36v1.41h-4.37v-1.41h1.37v-11.19h-1.37v-1.41zM603.29 776.13h-2L594.07 765a5.22 5.22 0 01-.45-.88h-.06a14.65 14.65 0 01.08 1.92v10.12H592v-14h2.13l7 11c.29.46.48.77.57.94a16 16 0 01-.09-2.06v-9.87h1.64zM607.3 775.56v-1.93a4.44 4.44 0 00.8.53 7.69 7.69 0 001 .39 7.36 7.36 0 001 .25 5.52 5.52 0 00.95.09 3.81 3.81 0 002.27-.56 1.93 1.93 0 00.74-1.62 1.87 1.87 0 00-.25-1 2.58 2.58 0 00-.69-.76 6.94 6.94 0 00-1-.67l-1.29-.67c-.49-.24-.94-.49-1.37-.75a5.6 5.6 0 01-1.1-.84 3.46 3.46 0 01-.74-1 3.52 3.52 0 01.15-3 3.45 3.45 0 011.11-1.17 4.59 4.59 0 011.56-.68 7.06 7.06 0 011.78-.23 6.89 6.89 0 013 .5v1.84a5.51 5.51 0 00-3.19-.86 4.88 4.88 0 00-1.07.12 2.9 2.9 0 00-1 .36 2 2 0 00-.68.66 1.68 1.68 0 00-.27 1 2.06 2.06 0 00.2.93 2.31 2.31 0 00.59.71 5.32 5.32 0 001 .63q.56.3 1.29.66c.5.25 1 .51 1.43.79a6.43 6.43 0 011.18.9 4.07 4.07 0 01.8 1.11 3 3 0 01.3 1.38 3.55 3.55 0 01-.4 1.76 3.3 3.3 0 01-1.1 1.16 4.74 4.74 0 01-1.58.65 8.39 8.39 0 01-1.9.2 6.71 6.71 0 01-.82-.05c-.33 0-.66-.09-1-.16a9.63 9.63 0 01-1-.25 2.93 2.93 0 01-.7-.42zM627 776.13h-7.43v-14h7.11v1.49h-5.47v4.66h5.06v1.47h-5.06v4.9H627zM640.74 776.13h-2l-2.35-3.93a8.81 8.81 0 00-.62-.93 3.37 3.37 0 00-.62-.63 2.27 2.27 0 00-.69-.36 2.91 2.91 0 00-.82-.11h-1.35v6h-1.59v-14h4.18a6.13 6.13 0 011.7.23 4 4 0 011.34.7 3.37 3.37 0 01.9 1.17 4 4 0 01.32 1.64 3.88 3.88 0 01-.22 1.34 3.58 3.58 0 01-.63 1.09 3.64 3.64 0 01-1 .81 4.65 4.65 0 01-1.29.52 3.16 3.16 0 011.11.83c.15.19.31.39.46.62l.51.81zm-8.4-12.52v5.08h2.23a3.25 3.25 0 001.14-.19 2.61 2.61 0 00.9-.53 2.51 2.51 0 00.6-.85 2.88 2.88 0 00.21-1.13 2.17 2.17 0 00-.73-1.75 3.1 3.1 0 00-2.1-.63zM651.43 763.61h-4v12.52h-1.64v-12.52h-4v-1.49h9.72zM668.53 776.13h-7.43v-14h7.11v1.49h-5.47v4.66h5.06v1.47h-5.06v4.9h5.79zM682.63 762.12l-5.18 14h-1.81l-5.08-14h1.83l3.87 11.11a6.47 6.47 0 01.29 1.24 6.14 6.14 0 01.32-1.26l4-11.09zM693.06 776.13h-7.42v-14h7.11v1.49h-5.47v4.66h5.06v1.47h-5.06v4.9h5.78zM708.05 776.13h-2L698.83 765a5.22 5.22 0 01-.45-.88h-.06a14.65 14.65 0 01.08 1.92v10.12h-1.64v-14h2.13l7 11c.29.46.48.77.57.94a13.94 13.94 0 01-.1-2.06v-9.87H708zM721 763.61h-4v12.52h-1.64v-12.52h-4v-1.49H721z"/></g><g><path class="a2042c27-21ff-4930-a4b3-27ec6f93e999" d="M1085.5 776.13h-2l-7.22-11.13a4.52 4.52 0 01-.44-.88h-.06a15.33 15.33 0 01.07 1.92v10.12h-1.64v-14h2.13l7 11a10 10 0 01.57.94 15.52 15.52 0 01-.1-2.06v-9.87h1.64zM1097.6 776.13h-7.42v-14h7.1v1.49h-5.46v4.66h5v1.47h-5v4.9h5.78zM1111 776.13h-2l-3.23-5.36a7.26 7.26 0 01-.32-.7c-.06.15-.17.39-.33.7l-3.32 5.36h-2l4.69-7-4.32-7h2l2.86 4.93a8.94 8.94 0 01.5 1 9.25 9.25 0 01.55-1l3-4.89h1.92l-4.4 7zM1122.77 763.61h-4v12.52h-1.64v-12.52h-4v-1.49h9.72zM1139.71 776.13h-7.26v-14h1.64v12.52h5.62zM1147.82 776.36a6.16 6.16 0 01-4.77-2 7.3 7.3 0 01-1.79-5.11 7.7 7.7 0 011.83-5.39 6.36 6.36 0 015-2 6 6 0 014.67 2 7.34 7.34 0 011.77 5.11 7.69 7.69 0 01-1.82 5.42 6.25 6.25 0 01-4.89 1.97zm.12-13a4.54 4.54 0 00-3.59 1.6 7.09 7.09 0 000 8.34 4.39 4.39 0 003.5 1.58 4.56 4.56 0 003.63-1.51 6.1 6.1 0 001.33-4.2 6.43 6.43 0 00-1.29-4.29 4.41 4.41 0 00-3.58-1.51zM1168.72 775.17a9.26 9.26 0 01-4.68 1.19 6.39 6.39 0 01-4.85-1.93 7.08 7.08 0 01-1.85-5.12 7.26 7.26 0 012.05-5.33 7 7 0 015.21-2.09 8.91 8.91 0 013.84.74v1.82a7.32 7.32 0 00-4-1.08 5 5 0 00-3.86 1.63 6.78 6.78 0 00-.11 8.37 4.91 4.91 0 003.79 1.52 5.79 5.79 0 002.84-.66v-3.92h-3.1v-1.49h4.7z"/></g><path class="fd106785-6525-40f7-b2cb-8665a9149a3d" d="M440.45 390.36L439 389l12.16-12.42a1.5 1.5 0 000-1.34L439 362.78l1.43-1.4 12.16 12.42a3.28 3.28 0 010 4.14z"/><path class="fd106785-6525-40f7-b2cb-8665a9149a3d" d="M367.79 375.11h83.76v2h-83.76z"/></g></svg>