<?xml version="1.0" encoding="utf-8"?>
<!-- Generator: Adobe Illustrator 24.3.0, SVG Export Plug-In . SVG Version: 6.00 Build 0)  -->
<svg version="1.1" id="Layer_1" xmlns="http://www.w3.org/2000/svg" xmlns:xlink="http://www.w3.org/1999/xlink" x="0px" y="0px"
	 viewBox="0 0 512 512" style="enable-background:new 0 0 512 512;" xml:space="preserve">
<style type="text/css">
	.st0{fill:#FF0000;}
</style>
<path class="st0" d="M224.1,304l83.3-48l-83.3-48V304z"/>
<path class="st0" d="M256,0C114.6,0,0,114.6,0,256s114.6,256,256,256s256-114.6,256-256S397.4,0,256,0z M416,256.3
	c0,0,0,51.9-6.6,77c-3.7,13.7-14.5,24.5-28.2,28.2C356.1,368,256,368,256,368s-99.9,0-125.2-6.9c-13.7-3.7-24.5-14.5-28.2-28.2
	C96,308.2,96,256,96,256s0-51.9,6.6-76.9c3.7-13.7,14.8-24.8,28.2-28.5C155.9,144,256,144,256,144s100.1,0,125.2,6.9
	c13.7,3.7,24.5,14.5,28.2,28.2C416.2,204.1,416,256.3,416,256.3z"/>
</svg>
