<svg id="bfb8ffd1-4a4f-48fb-84f4-02aeebb79d78" data-name="Layer 1" xmlns="http://www.w3.org/2000/svg" width="1998" height="510.44"><defs><style>.ada79d95-e83e-426f-8ad7-e681eaa3ffdb{fill:#242b2d}.b8cb05d9-915d-460a-83e3-1ff504167efe,.f9c334bc-a443-4c23-8b28-181060676440{fill:#fff}.b8cb05d9-915d-460a-83e3-1ff504167efe{stroke:#fff;stroke-miterlimit:10;stroke-width:.5px}.a743690b-62c8-4a66-b211-396deeb6fdc2{fill:#9da4a5}.b7368d63-72e1-4a2b-88a0-1587a4193e05{fill:#0a6ce2}.f24eb2ce-c233-494d-bbcf-aa719d3c859b{fill:#00af53}.e860baa4-1363-41f9-83f5-a58ea866ce0a{fill:#e21000}.b0f37755-5832-4536-b3f0-6982dedea181{fill:#f91556}</style></defs><rect class="ada79d95-e83e-426f-8ad7-e681eaa3ffdb" x="6.62" y="73.65" width="154.73" height="70.17" rx="5"/><path class="b8cb05d9-915d-460a-83e3-1ff504167efe" d="M36.11 91.45a2.36 2.36 0 01.61.57l17.8 23.16c0-.37-.07-.73-.08-1.08s0-.69 0-1V91.31h3.64v30.74H56a1.89 1.89 0 01-.83-.17 2.26 2.26 0 01-.65-.58L36.7 98.16c0 .35 0 .7.07 1s0 .65 0 .94V122h-3.63V91.31h2.15a1.89 1.89 0 01.82.14zM73.76 100a11.13 11.13 0 014.3.79 9.07 9.07 0 013.26 2.21 10.12 10.12 0 012.06 3.53 15.25 15.25 0 010 9.26 10 10 0 01-2.06 3.51 8.8 8.8 0 01-3.26 2.24 12.1 12.1 0 01-8.6 0 8.92 8.92 0 01-3.27-2.24 10.07 10.07 0 01-2.08-3.51 15 15 0 010-9.26 10.16 10.16 0 012.08-3.53 9.2 9.2 0 013.27-2.25 11.13 11.13 0 014.3-.75zm0 19.39a5.55 5.55 0 004.8-2.16 10 10 0 001.59-6 10 10 0 00-1.59-6 5.53 5.53 0 00-4.8-2.17 6.68 6.68 0 00-2.83.56 5.34 5.34 0 00-2 1.61 7.33 7.33 0 00-1.2 2.58 15.54 15.54 0 000 6.92 7.23 7.23 0 001.2 2.56 5.41 5.41 0 002 1.6 6.68 6.68 0 002.83.48zm30.35 2.66a1 1 0 01-1-.8l-.35-2.63a11.65 11.65 0 01-3.18 2.71 8.14 8.14 0 01-4.11 1 7.86 7.86 0 01-3.39-.72 7 7 0 01-2.59-2.11 9.87 9.87 0 01-1.68-3.5 17.73 17.73 0 01-.58-4.78 15 15 0 01.64-4.47 10.82 10.82 0 011.86-3.59 8.68 8.68 0 013-2.4 8.78 8.78 0 013.94-.86 7.86 7.86 0 013.41.67 8 8 0 012.53 1.9V90.46h3.82v31.59zm-7.4-2.79a6.18 6.18 0 003.27-.86 9.43 9.43 0 002.58-2.42v-10.51a6.13 6.13 0 00-2.3-2 6.8 6.8 0 00-2.78-.56 5.52 5.52 0 00-4.68 2.16 10.19 10.19 0 00-1.63 6.18 15.79 15.79 0 00.37 3.63 7 7 0 001.07 2.49 4.2 4.2 0 001.74 1.43 5.84 5.84 0 002.36.46zM121.39 100a9.9 9.9 0 013.61.65 8.17 8.17 0 012.85 1.89 8.58 8.58 0 011.87 3 11.71 11.71 0 01.68 4.12 2.61 2.61 0 01-.19 1.2.81.81 0 01-.73.3H115a12.18 12.18 0 00.56 3.59 7.34 7.34 0 001.42 2.54 5.67 5.67 0 002.14 1.52 7.3 7.3 0 002.79.5 8.28 8.28 0 002.48-.33 11.46 11.46 0 001.79-.72 11 11 0 001.25-.72 1.7 1.7 0 01.87-.33.83.83 0 01.73.37l1.07 1.39a7.35 7.35 0 01-1.69 1.49 10.7 10.7 0 01-2.12 1 13 13 0 01-2.32.61 13.84 13.84 0 01-2.38.21 11.18 11.18 0 01-4.15-.76 9.19 9.19 0 01-3.28-2.23 10.27 10.27 0 01-2.16-3.64 14.88 14.88 0 01-.77-5 12.49 12.49 0 01.7-4.24 9.86 9.86 0 012-3.42 9.16 9.16 0 013.2-2.28 10.45 10.45 0 014.26-.71zm.09 2.81a5.85 5.85 0 00-4.36 1.6 7.56 7.56 0 00-2 4.42H127a7.55 7.55 0 00-.37-2.43 5.41 5.41 0 00-1.07-1.91 4.82 4.82 0 00-1.73-1.24 5.65 5.65 0 00-2.35-.46z"/><path class="ada79d95-e83e-426f-8ad7-e681eaa3ffdb" d="M161.35 106.73h1827.4v4H161.35zm276.01 92.96h4v198.29h-4zm503.02 0h4v198.29h-4z"/><path class="ada79d95-e83e-426f-8ad7-e681eaa3ffdb" d="M1971.4 130.42l-2.83-2.83 16.78-16.77a3 3 0 000-4.17L1968.67 90l2.82-2.83 16.68 16.68a7 7 0 010 9.83zM439.4 400a6.92 6.92 0 01-4.91-2l-16.77-16.77 2.83-2.83 16.77 16.77a3 3 0 004.17 0l16.68-16.68 2.83 2.83L444.32 398a6.92 6.92 0 01-4.92 2zm503.03 0a6.9 6.9 0 01-4.91-2l-16.78-16.77 2.83-2.83 16.78 16.77a3 3 0 004.17 0l16.67-16.68 2.83 2.83L947.34 398a6.9 6.9 0 01-4.91 2z"/><path class="a743690b-62c8-4a66-b211-396deeb6fdc2" d="M1589.72 199.69h4v6h-4zm4 179.87h-4v-12.42h4zm0-24.84h-4V342.3h4zm0-24.84h-4v-12.42h4zm0-24.84h-4v-12.42h4zm0-24.84h-4v-12.42h4zm0-24.83h-4V243h4zm0-24.84h-4v-12.42h4zm-4 161.45h4v6h-4z"/><path class="a743690b-62c8-4a66-b211-396deeb6fdc2" d="M1591.77 400a6.9 6.9 0 01-4.91-2l-16.78-16.77 2.83-2.83 16.77 16.77a3 3 0 004.17 0l16.68-16.68 2.83 2.83-16.68 16.68a6.9 6.9 0 01-4.91 2z"/><rect class="f9c334bc-a443-4c23-8b28-181060676440" x="207.94" y="39.28" width="462.82" height="157.13" rx="3.5"/><path class="ada79d95-e83e-426f-8ad7-e681eaa3ffdb" d="M667.27 40.78a2 2 0 012 2v150.13a2 2 0 01-2 2H211.45a2 2 0 01-2-2V42.78a2 2 0 012-2h455.82m0-3H211.45a5 5 0 00-5 5v150.13a5 5 0 005 5h455.82a5 5 0 005-5V42.78a5 5 0 00-5-5z"/><path class="b7368d63-72e1-4a2b-88a0-1587a4193e05" d="M234.58 81.19a8.49 8.49 0 017 3q2.43 3 2.43 8.57t-2.42 8.58a9.76 9.76 0 01-14 0q-2.41-3-2.41-8.58t2.41-8.57a8.47 8.47 0 016.99-3zm0 3.06a4.68 4.68 0 00-4.16 2.14 11.61 11.61 0 00-1.42 6.34 11.58 11.58 0 001.41 6.32 5.12 5.12 0 008.34 0 11.58 11.58 0 001.41-6.32 11.61 11.61 0 00-1.41-6.34 4.7 4.7 0 00-4.17-2.14zm31.75-11.08v3h-4.1a3.67 3.67 0 00-2.7.8 4.08 4.08 0 00-.75 2.81v1.94h7.55v2.81h-7.55v19.16h-3.61V84.53h-5.87v-2.81h5.87v-1.53q0-3.6 1.66-5.31t5.17-1.71zm22.98 0v3h-4.1a3.67 3.67 0 00-2.7.8 4.08 4.08 0 00-.75 2.81v1.94h7.55v2.81h-7.55v19.16h-3.61V84.53h-5.87v-2.81h5.87v-1.53q0-3.6 1.66-5.31t5.19-1.71zm21.22 9.32V86a14 14 0 00-3.12-1.35 11.26 11.26 0 00-3.2-.46 6.74 6.74 0 00-3.66.8 2.72 2.72 0 00-1.21 2.42 2.67 2.67 0 00.91 2.2c.6.48 2.1 1 4.49 1.41l1.45.28a7.07 7.07 0 014.07 2 5.7 5.7 0 011.38 4 6.15 6.15 0 01-2.31 5.09 10.12 10.12 0 01-6.43 1.83 18 18 0 01-3.42-.34 30.68 30.68 0 01-3.86-1v-3.72a21.1 21.1 0 003.86 1.56 12.79 12.79 0 003.49.52 6.13 6.13 0 003.71-1 3.18 3.18 0 001.32-2.69c0-1.67-1.61-2.83-4.81-3.47L303 94l-1.35-.27a8.66 8.66 0 01-4.55-2 5.31 5.31 0 01-1.43-3.94 5.89 5.89 0 012.13-4.87 9.57 9.57 0 016.1-1.72 17.14 17.14 0 016.6 1.3zm25.86 8.41v1.77h-15.63v.12q-.17 4.48 1.71 6.45a7 7 0 005.29 2 12.78 12.78 0 003.61-.55 21.69 21.69 0 004-1.67v3.59a23.59 23.59 0 01-4 1.27 17.28 17.28 0 01-3.7.42 10.43 10.43 0 01-8-3.07c-1.93-2-2.89-4.87-2.89-8.46a12 12 0 012.83-8.4 9.63 9.63 0 017.53-3.14 8.22 8.22 0 016.67 2.77 10.84 10.84 0 012.58 6.9zm-3.61-1.06a7 7 0 00-1.66-3.93 5.1 5.1 0 00-4.12-1.66 5.73 5.73 0 00-4.26 1.75 6.1 6.1 0 00-1.85 3.88zm16.67-14.35v6.23h8.19v2.81h-8.19v11.92a4.86 4.86 0 00.92 3.4 4.34 4.34 0 003.21 1h4.06v2.88h-4.41q-4.07 0-5.73-1.63t-1.66-5.61V84.53H340v-2.81h5.87v-6.23z"/><path class="ada79d95-e83e-426f-8ad7-e681eaa3ffdb" d="M368.8 81.74h6.12v7.08h-6.12zm0 14.81h6.12v7.14h-6.12z"/><path class="f24eb2ce-c233-494d-bbcf-aa719d3c859b" d="M411.64 100.38h6.16V78.25l-7.38 3.55V78l7.34-3.5h4v25.88h6.08v3.31h-16.2z"/><path class="ada79d95-e83e-426f-8ad7-e681eaa3ffdb" d="M438 96.61h6.12v5.2l-4.35 8.45h-3.92l2.15-8.47z"/><path class="b7368d63-72e1-4a2b-88a0-1587a4193e05" d="M241.58 141.49V145a13.65 13.65 0 00-3.12-1.35 11.14 11.14 0 00-3.19-.46 6.71 6.71 0 00-3.66.8 2.72 2.72 0 00-1.21 2.42 2.65 2.65 0 00.91 2.2c.6.48 2.09 1 4.49 1.41l1.45.28a7.07 7.07 0 014.07 2 5.7 5.7 0 011.38 4 6.13 6.13 0 01-2.31 5.09 10.15 10.15 0 01-6.44 1.83 18 18 0 01-3.41-.34 30.68 30.68 0 01-3.86-1v-3.73a21.1 21.1 0 003.86 1.56 12.73 12.73 0 003.49.52 6.13 6.13 0 003.71-1 3.17 3.17 0 001.31-2.72q0-2.51-4.8-3.47h-.16l-1.35-.27a8.66 8.66 0 01-4.55-2.05 5.32 5.32 0 01-1.44-3.94 5.9 5.9 0 012.14-4.87 9.57 9.57 0 016.1-1.72 17.12 17.12 0 013.4.33 16.72 16.72 0 013.19.97zm15.94-7v6.23h8.2v2.81h-8.2v11.92a4.91 4.91 0 00.92 3.4 4.38 4.38 0 003.22 1h4.06v2.88h-4.41q-4.06 0-5.73-1.63t-1.67-5.61v-11.96h-5.86v-2.81h5.86v-6.23zm33.6 10.76a7.65 7.65 0 00-5-1.72 6.35 6.35 0 00-5.16 2.12 9.25 9.25 0 00-1.78 6.12v10.92h-3.63v-22h3.63V145a7.34 7.34 0 012.77-3.58 7.85 7.85 0 014.45-1.25 8.66 8.66 0 012.49.34 8 8 0 012.22 1zm22.29 4.65v1.77h-15.63v.12q-.16 4.49 1.71 6.45a7 7 0 005.29 2 12.78 12.78 0 003.61-.55 21.69 21.69 0 004-1.67v3.59a23.59 23.59 0 01-4 1.27 17.28 17.28 0 01-3.7.42 10.43 10.43 0 01-8-3.07q-2.89-3.08-2.89-8.46a12 12 0 012.83-8.4 9.63 9.63 0 017.53-3.14 8.24 8.24 0 016.62 2.85 11 11 0 012.63 6.82zm-3.61-1.06a7 7 0 00-1.66-3.93 5.11 5.11 0 00-4.09-1.66 5.73 5.73 0 00-4.29 1.73 6.08 6.08 0 00-1.85 3.88zm25.39 1.32v12.53h-3.63v-3.25a7.47 7.47 0 01-2.91 2.89 9 9 0 01-4.26.93 7.48 7.48 0 01-5.36-1.89 7.48 7.48 0 01.46-10.64q2.46-1.9 7.23-1.91h4.84v-.56a4.94 4.94 0 00-1.33-3.82 6.16 6.16 0 00-4.2-1.19 13.76 13.76 0 00-3.72.53 16.49 16.49 0 00-3.67 1.55v-3.61a24.45 24.45 0 013.83-1.14 17.16 17.16 0 013.56-.39 12 12 0 014.66.81 7.29 7.29 0 013.13 2.41 6 6 0 011.06 2.42 22.05 22.05 0 01.31 4.33zm-7 1.49H327a8.33 8.33 0 00-4.75 1.11 3.75 3.75 0 00-1.6 3.3 4 4 0 001.2 3.08 4.71 4.71 0 003.31 1.1 5.75 5.75 0 004.69-2.07 8.77 8.77 0 001.72-5.72v-.8zm22.47-8.65a5 5 0 011.7-2.09 4.4 4.4 0 012.48-.68 3.9 3.9 0 013.74 2.05q1.08 2.06 1.08 7.72v12.73h-3.29v-12.61q0-4.65-.52-5.78a1.91 1.91 0 00-1.89-1.13 2.16 2.16 0 00-2.15 1.21q-.58 1.2-.58 5.7v12.57h-3.3v-12.57c0-3.14-.18-5.07-.55-5.81a2.07 2.07 0 00-2-1.1 2 2 0 00-2 1.21q-.56 1.2-.55 5.7v12.57h-3.28v-22h3.28v1.89a4.81 4.81 0 011.61-1.8 4.07 4.07 0 012.21-.62 4.24 4.24 0 012.48.69 4.44 4.44 0 011.53 2.15z"/><path class="ada79d95-e83e-426f-8ad7-e681eaa3ffdb" d="M368.8 140.74h6.12v7.08h-6.12zm0 14.81h6.12v7.14h-6.12z"/><path class="e860baa4-1363-41f9-83f5-a58ea866ce0a" d="M414.42 132.35v12H410v-12zm10.46 0v12h-4.39v-12zm14.12 1.06h4.81l9 29.28h-4.1l-2.15-7.63h-10.29l-2.12 7.63h-4.1zm2.4 3.49l-4.18 15h8.36z"/><path class="e860baa4-1363-41f9-83f5-a58ea866ce0a" d="M454 133.41h4.26l6.43 11 6.55-11h4.26l-8.77 13.77 9.4 15.51h-4.26l-7.18-12.61-7.75 12.61h-4.27l9.81-15.51zm26.58 25.97h6.16v-22.13l-7.38 3.55V137l7.34-3.49h4v25.87h6.08v3.31h-16.2zm25-.02H519v3.33h-17.75v-3.33q3.66-3.87 6.41-6.83c1.83-2 3.09-3.37 3.79-4.18a19.82 19.82 0 002.65-3.87 7.26 7.26 0 00.68-3 5.11 5.11 0 00-1.44-3.85 5.48 5.48 0 00-4-1.39 12 12 0 00-3.75.65 20.8 20.8 0 00-4.16 2v-4a21 21 0 014-1.45 15.71 15.71 0 013.86-.49 10.14 10.14 0 016.91 2.28 7.57 7.57 0 012.62 6 8.9 8.9 0 01-.87 3.77 18.72 18.72 0 01-2.83 4.16q-1.11 1.28-3.19 3.53t-6.35 6.67zM536.47 147a8 8 0 014.41 2.72 7.64 7.64 0 011.53 4.87 7.87 7.87 0 01-2.72 6.35c-1.81 1.53-4.31 2.3-7.52 2.3a23.37 23.37 0 01-4.12-.37 26.86 26.86 0 01-4.12-1.08v-3.94a19.33 19.33 0 004 1.55 15.11 15.11 0 003.86.51 7.55 7.55 0 005-1.47 5.24 5.24 0 001.75-4.24 5 5 0 00-1.75-4.05 7 7 0 00-4.72-1.5h-3v-3.26h3a6.73 6.73 0 004.25-1.2 4 4 0 001.53-3.33 4.28 4.28 0 00-1.42-3.46 6.06 6.06 0 00-4-1.21 17.55 17.55 0 00-3.61.39 27.06 27.06 0 00-3.9 1.18v-3.65c1.58-.42 3-.73 4.22-.94a19.86 19.86 0 013.29-.31 10.32 10.32 0 016.84 2.14 7.1 7.1 0 012.55 5.7 6 6 0 01-1.34 4 7.26 7.26 0 01-4.01 2.3zM558 133.41h4.59v19.08h3.9v3.22h-3.9v7h-4v-7h-12.36V152zm.64 3.61l-9.23 15.47h9.23zm10.57 11.47H590v3.32h-20.79zM602.27 133a7.84 7.84 0 017.09 3.83q2.4 3.82 2.41 11.32t-2.41 11.32a8.48 8.48 0 01-14.17 0q-2.4-3.83-2.39-11.32t2.39-11.32a7.84 7.84 0 017.08-3.83zm0 3.14q-2.76 0-4.13 3t-1.36 9a33.85 33.85 0 00.37 5.18l9.14-14.58a4.49 4.49 0 00-4.02-2.63zm0 24a4.4 4.4 0 004.15-3c.91-2 1.36-5 1.36-9a39.82 39.82 0 00-.39-5.85l-9.34 14.62q1.47 3.21 4.22 3.21zm18.98-27.79v12h-4.39v-12zm10.46 0v12h-4.4v-12z"/><rect class="f9c334bc-a443-4c23-8b28-181060676440" x="706.22" y="39.28" width="462.82" height="157.13" rx="3.5"/><path class="ada79d95-e83e-426f-8ad7-e681eaa3ffdb" d="M1165.55 40.78a2 2 0 012 2v150.13a2 2 0 01-2 2H709.72a2 2 0 01-2-2V42.78a2 2 0 012-2h455.83m0-3H709.72a5 5 0 00-5 5v150.13a5 5 0 005 5h455.83a5 5 0 005-5V42.78a5 5 0 00-5-5z"/><path class="b7368d63-72e1-4a2b-88a0-1587a4193e05" d="M732.86 81.19a8.49 8.49 0 017 3c1.62 2 2.42 4.83 2.42 8.57s-.8 6.61-2.41 8.58a9.76 9.76 0 01-14 0q-2.42-3-2.42-8.58t2.42-8.57a8.45 8.45 0 016.99-3zm0 3.06a4.68 4.68 0 00-4.16 2.14 11.61 11.61 0 00-1.41 6.34 11.58 11.58 0 001.41 6.32 5.12 5.12 0 008.34 0 11.58 11.58 0 001.41-6.32 11.61 11.61 0 00-1.45-6.34 4.7 4.7 0 00-4.14-2.14zm31.75-11.08v3h-4.1a3.64 3.64 0 00-2.7.8 4.08 4.08 0 00-.75 2.81v1.94h7.55v2.81h-7.55v19.16h-3.61V84.53h-5.87v-2.81h5.87v-1.53q0-3.6 1.65-5.31t5.17-1.71zm22.98 0v3h-4.1a3.64 3.64 0 00-2.7.8 4.08 4.08 0 00-.75 2.81v1.94h7.55v2.81H780v19.16h-3.61V84.53h-5.87v-2.81h5.87v-1.53q0-3.6 1.65-5.31t5.17-1.71zm21.21 9.32V86a13.65 13.65 0 00-3.12-1.35 11.14 11.14 0 00-3.19-.46 6.71 6.71 0 00-3.66.8 3.08 3.08 0 00-.31 4.62c.61.48 2.1 1 4.5 1.41l1.45.28a7.07 7.07 0 014.07 2 5.7 5.7 0 011.38 4 6.15 6.15 0 01-2.31 5.09 10.15 10.15 0 01-6.44 1.83 18 18 0 01-3.41-.34 30.68 30.68 0 01-3.86-1v-3.72a21.1 21.1 0 003.86 1.56 12.73 12.73 0 003.49.52 6.13 6.13 0 003.71-1 3.2 3.2 0 001.31-2.72q0-2.51-4.8-3.47h-.16l-1.31-.28a8.66 8.66 0 01-4.55-2 5.32 5.32 0 01-1.45-3.99 5.9 5.9 0 012.14-4.87 9.57 9.57 0 016.1-1.72 17.12 17.12 0 013.4.33 16.72 16.72 0 013.16.97zm25.87 8.41v1.77H819v.12q-.15 4.48 1.72 6.45a7 7 0 005.29 2 12.78 12.78 0 003.61-.55 21.69 21.69 0 004-1.67v3.59a23.68 23.68 0 01-4 1.27 17.12 17.12 0 01-3.69.42 10.45 10.45 0 01-8-3.07c-1.92-2-2.88-4.87-2.88-8.46a12.09 12.09 0 012.82-8.4 9.67 9.67 0 017.54-3.14 8.24 8.24 0 016.68 2.77 11 11 0 012.58 6.9zm-3.61-1.06a7 7 0 00-1.66-3.93 5.11 5.11 0 00-4.09-1.66A5.73 5.73 0 00821 86a6.1 6.1 0 00-1.85 3.88zm16.66-14.35v6.23h8.2v2.81h-8.2v11.92a4.91 4.91 0 00.92 3.4 4.38 4.38 0 003.22 1h4.06v2.88h-4.41q-4.07 0-5.73-1.63t-1.67-5.61V84.53h-5.86v-2.81h5.86v-6.23z"/><path class="ada79d95-e83e-426f-8ad7-e681eaa3ffdb" d="M867.07 81.74h6.12v7.08h-6.12zm0 14.81h6.12v7.14h-6.12z"/><path class="f24eb2ce-c233-494d-bbcf-aa719d3c859b" d="M911.94 100.36h13.45v3.33H907.6v-3.33c2.45-2.58 4.58-4.85 6.42-6.83s3.09-3.37 3.78-4.18a19.82 19.82 0 002.65-3.87 7.12 7.12 0 00.69-3 5.07 5.07 0 00-1.45-3.85 5.47 5.47 0 00-4-1.39 11.93 11.93 0 00-3.74.65 20.55 20.55 0 00-4.16 2v-4a20.8 20.8 0 014-1.45 15.63 15.63 0 013.85-.49 10.17 10.17 0 016.92 2.28 7.6 7.6 0 012.62 6 8.76 8.76 0 01-.88 3.77 18.38 18.38 0 01-2.83 4.16c-.73.85-1.8 2-3.19 3.53s-3.49 3.67-6.34 6.67z"/><path class="ada79d95-e83e-426f-8ad7-e681eaa3ffdb" d="M936.27 96.61h6.12v5.2l-4.39 8.45h-3.93l2.16-8.47z"/><path class="b7368d63-72e1-4a2b-88a0-1587a4193e05" d="M739.86 141.49V145a13.65 13.65 0 00-3.12-1.35 11.16 11.16 0 00-3.2-.46 6.7 6.7 0 00-3.65.8 3.08 3.08 0 00-.31 4.62c.6.48 2.1 1 4.49 1.41l1.46.28a7.1 7.1 0 014.07 2 5.7 5.7 0 011.38 4 6.11 6.11 0 01-2.32 5.09 10.1 10.1 0 01-6.43 1.83 17.91 17.91 0 01-3.41-.34 31.26 31.26 0 01-3.87-1v-3.73a21.47 21.47 0 003.87 1.56 12.73 12.73 0 003.49.52 6.15 6.15 0 003.71-1 3.2 3.2 0 001.31-2.72q0-2.51-4.81-3.47h-.15l-1.35-.27a8.69 8.69 0 01-4.56-2.05 5.35 5.35 0 01-1.43-3.94 5.87 5.87 0 012.14-4.87 9.57 9.57 0 016.1-1.72 17.13 17.13 0 016.59 1.3zm15.94-7v6.23h8.2v2.81h-8.2v11.92a4.91 4.91 0 00.92 3.4 4.38 4.38 0 003.22 1H764v2.88h-4.41q-4.07 0-5.73-1.63t-1.67-5.61v-11.96h-5.86v-2.81h5.86v-6.23zm33.59 10.76a8 8 0 00-2.35-1.31 8.19 8.19 0 00-2.63-.41 6.35 6.35 0 00-5.16 2.12 9.25 9.25 0 00-1.78 6.12v10.92h-3.63v-22h3.63V145a7.28 7.28 0 012.77-3.58 7.84 7.84 0 014.44-1.25 8.78 8.78 0 012.5.34 7.81 7.81 0 012.21 1zm22.3 4.65v1.77h-15.64v.12q-.15 4.49 1.72 6.45a7 7 0 005.29 2 12.78 12.78 0 003.61-.55 21.69 21.69 0 004-1.67v3.59a23.68 23.68 0 01-4 1.27 17.12 17.12 0 01-3.69.42q-5.13 0-8-3.07t-2.88-8.46a12.09 12.09 0 012.82-8.4 9.67 9.67 0 017.54-3.14 8.25 8.25 0 016.62 2.85 11 11 0 012.61 6.82zm-3.61-1.06a7 7 0 00-1.66-3.93 5.11 5.11 0 00-4.09-1.66A5.77 5.77 0 00798 145a6.07 6.07 0 00-1.84 3.88zm25.39 1.32v12.53h-3.63v-3.25a7.47 7.47 0 01-2.91 2.89 9 9 0 01-4.27.93 7.47 7.47 0 01-5.35-1.89 7.48 7.48 0 01.46-10.64q2.46-1.9 7.23-1.91h4.84v-.56a5 5 0 00-1.33-3.82 6.18 6.18 0 00-4.2-1.19 13.88 13.88 0 00-3.73.53 16.41 16.41 0 00-3.66 1.55v-3.61a24.45 24.45 0 013.83-1.14 17.08 17.08 0 013.56-.39 12 12 0 014.69.81 7.29 7.29 0 013.13 2.41 6 6 0 011.06 2.42 22.05 22.05 0 01.28 4.33zm-7 1.49h-1.2a8.33 8.33 0 00-4.75 1.11 3.75 3.75 0 00-1.6 3.3 4 4 0 001.19 3.08 4.75 4.75 0 003.32 1.1 5.75 5.75 0 004.69-2.07 8.83 8.83 0 001.72-5.72v-.8zm22.47-8.65a4.89 4.89 0 011.7-2.09 4.4 4.4 0 012.48-.68 3.88 3.88 0 013.73 2.05q1.1 2.06 1.09 7.72v12.73h-3.29v-12.61c0-3.1-.18-5-.52-5.78a1.91 1.91 0 00-1.9-1.13 2.16 2.16 0 00-2.14 1.21q-.58 1.2-.58 5.7v12.57h-3.3v-12.57c0-3.14-.18-5.07-.56-5.81a2.05 2.05 0 00-2-1.1 2 2 0 00-2 1.21q-.55 1.2-.56 5.7v12.57h-3.27v-22h3.27v1.89a4.75 4.75 0 011.62-1.8 4 4 0 012.21-.62 4.24 4.24 0 012.48.69 4.44 4.44 0 011.54 2.15z"/><path class="ada79d95-e83e-426f-8ad7-e681eaa3ffdb" d="M867.07 140.74h6.12v7.08h-6.12zm0 14.81h6.12v7.14h-6.12z"/><path class="e860baa4-1363-41f9-83f5-a58ea866ce0a" d="M912.7 132.35v12h-4.39v-12zm10.46 0v12h-4.4v-12zm14.13 1.06h4.81l9 29.28H947l-2.16-7.63h-10.29l-2.12 7.63h-4.1zm2.39 3.49l-4.17 15h8.35z"/><path class="e860baa4-1363-41f9-83f5-a58ea866ce0a" d="M952.27 133.41h4.25l6.44 11 6.55-11h4.26L965 147.18l9.39 15.51h-4.25L963 150.08l-7.75 12.61h-4.28l9.81-15.51zm26.59 25.97H985v-22.13l-7.38 3.55V137l7.34-3.49h4v25.87H995v3.31h-16.14zm25-.02h13.46v3.33h-17.8v-3.33q3.68-3.87 6.42-6.83c1.83-2 3.09-3.37 3.78-4.18a19.37 19.37 0 002.65-3.87 7.12 7.12 0 00.69-3 5.11 5.11 0 00-1.44-3.85 5.48 5.48 0 00-4-1.39 12 12 0 00-3.75.65 20.55 20.55 0 00-4.16 2v-4a21 21 0 014-1.45 15.65 15.65 0 013.86-.49 10.14 10.14 0 016.91 2.28 7.57 7.57 0 012.62 6 8.9 8.9 0 01-.87 3.77 18.46 18.46 0 01-2.84 4.16q-1.1 1.28-3.19 3.53t-6.34 6.67zm30.89-12.36a8 8 0 014.41 2.72 7.64 7.64 0 011.53 4.87A7.9 7.9 0 011038 161a11.3 11.3 0 01-7.52 2.3 23.37 23.37 0 01-4.12-.37 26.86 26.86 0 01-4.12-1.08v-3.94a19.25 19.25 0 003.94 1.55 15.25 15.25 0 003.87.51 7.55 7.55 0 005-1.47 5.27 5.27 0 001.75-4.24 5.08 5.08 0 00-1.75-4.05 7 7 0 00-4.73-1.5h-3v-3.26h3a6.75 6.75 0 004.26-1.2 4 4 0 001.53-3.33 4.31 4.31 0 00-1.42-3.46 6.06 6.06 0 00-4.05-1.21 17.55 17.55 0 00-3.61.39 27.17 27.17 0 00-3.91 1.18v-3.65c1.59-.42 3-.73 4.23-.94a19.86 19.86 0 013.29-.31 10.27 10.27 0 016.83 2.14 7.08 7.08 0 012.56 5.7 6.08 6.08 0 01-1.34 4 7.26 7.26 0 01-3.94 2.24zm21.52-13.59h4.59v19.08h3.91v3.22h-3.91v7h-3.94v-7h-12.41V152zm.65 3.61l-9.24 15.47h9.24zm10.57 11.47h20.79v3.32h-20.79zm33.06-15.49a7.85 7.85 0 017.09 3.83q2.4 3.82 2.4 11.32t-2.4 11.32a8.48 8.48 0 01-14.17 0q-2.4-3.83-2.4-11.32t2.4-11.32a7.82 7.82 0 017.08-3.83zm0 3.14c-1.85 0-3.22 1-4.13 3s-1.36 5-1.36 9a33.85 33.85 0 00.37 5.18l9.14-14.58a4.49 4.49 0 00-4.02-2.63zm0 24a4.4 4.4 0 004.15-3c.91-2 1.36-5 1.36-9a39.82 39.82 0 00-.39-5.85l-9.34 14.62q1.47 3.21 4.22 3.21zm18.98-27.79v12h-4.4v-12zm10.45 0v12h-4.39v-12z"/><rect class="f9c334bc-a443-4c23-8b28-181060676440" x="1355.56" y="39.28" width="462.82" height="157.13" rx="3.5"/><path d="M1814.88 40.78a2 2 0 012 2v150.13a2 2 0 01-2 2h-455.82a2 2 0 01-2-2V42.78a2 2 0 012-2h455.82m0-3h-455.82a5 5 0 00-5 5v150.13a5 5 0 005 5h455.82a5 5 0 005-5V42.78a5 5 0 00-5-5z" fill="#879193"/><path class="b7368d63-72e1-4a2b-88a0-1587a4193e05" d="M1382.2 81.19a8.51 8.51 0 017 3q2.41 3 2.42 8.57t-2.41 8.58a9.77 9.77 0 01-14 0q-2.42-3-2.41-8.58t2.41-8.57a8.49 8.49 0 016.99-3zm0 3.06a4.68 4.68 0 00-4.16 2.14 11.61 11.61 0 00-1.41 6.34 11.58 11.58 0 001.41 6.32 5.11 5.11 0 008.33 0 11.49 11.49 0 001.42-6.32q0-4.2-1.42-6.34a4.69 4.69 0 00-4.17-2.14zm31.74-11.08v3h-4.09a3.64 3.64 0 00-2.7.8 4 4 0 00-.76 2.81v1.94h7.55v2.81h-7.55v19.16h-3.61V84.53h-5.86v-2.81h5.86v-1.53c0-2.4.56-4.17 1.66-5.31s2.83-1.71 5.17-1.71zm22.99 0v3h-4.1a3.64 3.64 0 00-2.7.8 4.07 4.07 0 00-.76 2.81v1.94h7.56v2.81h-7.56v19.16h-3.6V84.53h-5.87v-2.81h5.87v-1.53q0-3.6 1.65-5.31t5.17-1.71zm21.21 9.32V86a13.65 13.65 0 00-3.12-1.35 11.14 11.14 0 00-3.19-.46 6.71 6.71 0 00-3.66.8 3.08 3.08 0 00-.31 4.62c.6.48 2.1 1 4.49 1.41l1.46.28a7.1 7.1 0 014.07 2 5.7 5.7 0 011.38 4 6.13 6.13 0 01-2.32 5.09 10.1 10.1 0 01-6.43 1.83 18 18 0 01-3.41-.34 31.26 31.26 0 01-3.87-1v-3.72a21.47 21.47 0 003.87 1.56 12.73 12.73 0 003.49.52 6.15 6.15 0 003.71-1 3.2 3.2 0 001.31-2.72q0-2.51-4.8-3.47h-.16l-1.36-.27a8.73 8.73 0 01-4.55-2 5.35 5.35 0 01-1.43-3.94 5.87 5.87 0 012.14-4.87 9.57 9.57 0 016.1-1.72 17 17 0 013.39.33 16.6 16.6 0 013.2.91zM1484 90.9v1.77h-15.64v.12q-.15 4.48 1.72 6.45a7 7 0 005.28 2 12.67 12.67 0 003.61-.55 21.48 21.48 0 004-1.67v3.59a23.68 23.68 0 01-4 1.27 17.12 17.12 0 01-3.69.42 10.45 10.45 0 01-8-3.07c-1.92-2-2.88-4.87-2.88-8.46a12.09 12.09 0 012.82-8.4 9.67 9.67 0 017.54-3.14 8.25 8.25 0 016.62 2.85 11 11 0 012.62 6.82zm-3.61-1.06a7 7 0 00-1.66-3.93 5.11 5.11 0 00-4.09-1.66 5.77 5.77 0 00-4.3 1.73 6.09 6.09 0 00-1.84 3.88zm16.67-14.35v6.23h8.2v2.81h-8.2v11.92a4.91 4.91 0 00.92 3.4 4.38 4.38 0 003.22 1h4.06v2.88h-4.41q-4.06 0-5.73-1.63t-1.67-5.61V84.53h-5.86v-2.81h5.86v-6.23z"/><path class="ada79d95-e83e-426f-8ad7-e681eaa3ffdb" d="M1516.41 81.74h6.12v7.08h-6.12zm0 14.81h6.12v7.14h-6.12z"/><path class="f24eb2ce-c233-494d-bbcf-aa719d3c859b" d="M1569.18 88a8 8 0 014.41 2.72 7.64 7.64 0 011.53 4.87 7.9 7.9 0 01-2.71 6.35q-2.72 2.3-7.53 2.3a23.26 23.26 0 01-4.11-.37 26.56 26.56 0 01-4.12-1.08v-3.92a19 19 0 003.94 1.55 15.11 15.11 0 003.86.51 7.55 7.55 0 005-1.47 5.24 5.24 0 001.75-4.24 5 5 0 00-1.75-4 7 7 0 00-4.72-1.5h-3v-3.31h3a6.71 6.71 0 004.25-1.2 4 4 0 001.54-3.33 4.28 4.28 0 00-1.43-3.46 6.06 6.06 0 00-4-1.21 17.7 17.7 0 00-3.61.39 27.06 27.06 0 00-3.9 1.18v-3.65c1.58-.42 3-.73 4.23-.94a19.74 19.74 0 013.28-.31 10.27 10.27 0 016.84 2.15 7.08 7.08 0 012.56 5.69 6 6 0 01-1.35 4 7.22 7.22 0 01-3.96 2.28z"/><path class="ada79d95-e83e-426f-8ad7-e681eaa3ffdb" d="M1585.61 96.61h6.12v5.2l-4.35 8.45h-3.93l2.16-8.47z"/><path class="b7368d63-72e1-4a2b-88a0-1587a4193e05" d="M1389.2 141.49V145a13.65 13.65 0 00-3.12-1.35 11.21 11.21 0 00-3.2-.46 6.76 6.76 0 00-3.66.8 2.71 2.71 0 00-1.2 2.42 2.67 2.67 0 00.9 2.2c.6.48 2.1 1 4.49 1.41l1.45.28a7 7 0 014.07 2 5.66 5.66 0 011.39 4 6.11 6.11 0 01-2.32 5.09 10.1 10.1 0 01-6.43 1.83 17.91 17.91 0 01-3.41-.34 31.26 31.26 0 01-3.87-1v-3.73a21.47 21.47 0 003.87 1.56 12.73 12.73 0 003.49.52 6.1 6.1 0 003.7-1 3.18 3.18 0 001.32-2.72q0-2.51-4.81-3.47h-.15l-1.36-.27a8.7 8.7 0 01-4.55-2.05 5.35 5.35 0 01-1.43-3.94 5.87 5.87 0 012.14-4.87 9.55 9.55 0 016.1-1.72 17.13 17.13 0 016.59 1.3zm15.94-7v6.23h8.2v2.81h-8.2v11.92a4.86 4.86 0 00.92 3.4 4.38 4.38 0 003.22 1h4.06v2.88h-4.42q-4.05 0-5.72-1.63c-1.12-1.08-1.67-2.95-1.67-5.61v-11.96h-5.87v-2.81h5.87v-6.23zm33.59 10.76a8 8 0 00-2.35-1.31 8.19 8.19 0 00-2.63-.41 6.35 6.35 0 00-5.16 2.12 9.25 9.25 0 00-1.79 6.12v10.92h-3.62v-22h3.62V145a7.36 7.36 0 012.78-3.58 7.84 7.84 0 014.44-1.25 8.78 8.78 0 012.5.34 7.94 7.94 0 012.21 1zm22.27 4.65v1.77h-15.63v.12q-.15 4.49 1.72 6.45a7 7 0 005.28 2 12.73 12.73 0 003.61-.55 21.14 21.14 0 004-1.67v3.59a23.3 23.3 0 01-4 1.27 17.21 17.21 0 01-3.7.42 10.43 10.43 0 01-8-3.07q-2.88-3.08-2.88-8.46a12.09 12.09 0 012.82-8.4 9.67 9.67 0 017.54-3.14 8.21 8.21 0 016.61 2.85 10.84 10.84 0 012.63 6.82zm-3.6-1.06a7 7 0 00-1.66-3.93 5.11 5.11 0 00-4.09-1.66 5.77 5.77 0 00-4.3 1.73 6.07 6.07 0 00-1.84 3.88zm25.41 1.32v12.53h-3.63v-3.25a7.47 7.47 0 01-2.91 2.89 9 9 0 01-4.27.93 7.47 7.47 0 01-5.35-1.89 7.48 7.48 0 01.46-10.64q2.46-1.9 7.23-1.91h4.84v-.56a5 5 0 00-1.33-3.82 6.18 6.18 0 00-4.2-1.19 13.88 13.88 0 00-3.73.53 16.69 16.69 0 00-3.67 1.55v-3.61a24.87 24.87 0 013.84-1.14 17.08 17.08 0 013.56-.39 12 12 0 014.66.81 7.29 7.29 0 013.13 2.41 6.17 6.17 0 011.06 2.42 22.87 22.87 0 01.31 4.33zm-7 1.49h-1.2a8.37 8.37 0 00-4.76 1.11 3.76 3.76 0 00-1.59 3.3 4 4 0 001.19 3.08 4.73 4.73 0 003.32 1.1 5.73 5.73 0 004.68-2.07 8.77 8.77 0 001.73-5.72v-.8zm22.47-8.65a4.94 4.94 0 011.69-2.09 4.45 4.45 0 012.48-.68 3.88 3.88 0 013.74 2.05q1.1 2.06 1.09 7.72v12.73H1504v-12.61c0-3.1-.18-5-.52-5.78a1.91 1.91 0 00-1.9-1.13 2.16 2.16 0 00-2.14 1.21q-.59 1.2-.58 5.7v12.57h-3.3v-12.57c0-3.14-.19-5.07-.56-5.81a2.05 2.05 0 00-2-1.1 2 2 0 00-2 1.21q-.56 1.2-.56 5.7v12.57h-3.27v-22h3.27v1.89a4.75 4.75 0 011.62-1.8 4 4 0 012.21-.62 4.24 4.24 0 012.48.69 4.44 4.44 0 011.53 2.15z"/><path class="ada79d95-e83e-426f-8ad7-e681eaa3ffdb" d="M1516.41 140.74h6.12v7.08h-6.12zm0 14.81h6.12v7.14h-6.12z"/><path class="e860baa4-1363-41f9-83f5-a58ea866ce0a" d="M1562 132.35v12h-4.39v-12zm10.46 0v12h-4.4v-12zm14.17 1.06h4.8l9 29.28h-4.1l-2.16-7.63h-10.26l-2.11 7.63h-4.1zm2.39 3.49l-4.17 15h8.35z"/><path class="e860baa4-1363-41f9-83f5-a58ea866ce0a" d="M1601.61 133.41h4.25l6.44 11 6.55-11h4.26l-8.77 13.77 9.39 15.51h-4.25l-7.18-12.61-7.75 12.61h-4.28l9.81-15.51zm26.59 25.97h6.16v-22.13l-7.36 3.55V137l7.34-3.49h4v25.87h6.08v3.31h-16.22zm25-.02h13.45v3.33h-17.79v-3.33q3.67-3.87 6.42-6.83c1.83-2 3.09-3.37 3.78-4.18a19.82 19.82 0 002.65-3.87 7.12 7.12 0 00.69-3 5.11 5.11 0 00-1.44-3.85 5.49 5.49 0 00-4-1.39 11.93 11.93 0 00-3.74.65 20.55 20.55 0 00-4.16 2v-4a20.8 20.8 0 014-1.45 15.65 15.65 0 013.86-.49 10.16 10.16 0 016.91 2.28 7.57 7.57 0 012.62 6 8.9 8.9 0 01-.87 3.77 18.8 18.8 0 01-2.84 4.16q-1.1 1.28-3.19 3.53t-6.35 6.67zm30.88-12.36a8 8 0 014.42 2.72 7.64 7.64 0 011.53 4.87 7.9 7.9 0 01-2.72 6.35 11.3 11.3 0 01-7.52 2.3 23.37 23.37 0 01-4.12-.37 26.86 26.86 0 01-4.12-1.08v-3.94a19.25 19.25 0 003.94 1.55 15.19 15.19 0 003.87.51 7.57 7.57 0 005-1.47 5.26 5.26 0 001.74-4.24 5.07 5.07 0 00-1.74-4.05 7 7 0 00-4.73-1.5h-3v-3.26h3a6.75 6.75 0 004.26-1.2 4 4 0 001.53-3.33 4.31 4.31 0 00-1.42-3.46 6.07 6.07 0 00-4.06-1.21 17.53 17.53 0 00-3.6.39 26.8 26.8 0 00-3.91 1.18v-3.65c1.59-.42 3-.73 4.23-.94a19.74 19.74 0 013.28-.31 10.3 10.3 0 016.84 2.14 7.08 7.08 0 012.56 5.7 6.08 6.08 0 01-1.34 4 7.25 7.25 0 01-3.92 2.3zm21.53-13.59h4.59v19.08h3.91v3.22h-3.91v7h-3.94v-7h-12.42V152zm.65 3.61l-9.26 15.47h9.24zm10.56 11.47h20.8v3.32h-20.8zm33.07-15.49a7.85 7.85 0 017.09 3.83q2.4 3.82 2.4 11.32t-2.4 11.32a8.48 8.48 0 01-14.17 0q-2.4-3.83-2.4-11.32t2.4-11.32a7.82 7.82 0 017.08-3.83zm0 3.14c-1.85 0-3.22 1-4.13 3s-1.37 5-1.37 9a33.8 33.8 0 00.38 5.18l9.14-14.58a4.52 4.52 0 00-4.02-2.63zm0 24a4.41 4.41 0 004.15-3c.9-2 1.36-5 1.36-9a39.82 39.82 0 00-.39-5.85l-9.34 14.62q1.47 3.21 4.22 3.21zm18.98-27.79v12h-4.4v-12zm10.45 0v12h-4.39v-12z"/><rect class="f9c334bc-a443-4c23-8b28-181060676440" x="1852.21" y="79.77" width="85.45" height="52.69" rx="5"/><path class="ada79d95-e83e-426f-8ad7-e681eaa3ffdb" d="M1878 108.1a3 3 0 01.19-1.09 2.58 2.58 0 01.54-.9 2.54 2.54 0 01.88-.6 3.35 3.35 0 011.24-.21 3.39 3.39 0 011.24.21 2.63 2.63 0 01.9.6 2.46 2.46 0 01.55.9 3 3 0 01.19 1.09 2.9 2.9 0 01-.19 1.07 2.3 2.3 0 01-.55.88 2.43 2.43 0 01-.9.57 3.39 3.39 0 01-1.24.21 3.35 3.35 0 01-1.24-.21 2.35 2.35 0 01-.88-.57 2.41 2.41 0 01-.54-.88 2.9 2.9 0 01-.19-1.07zm17.67 0a3 3 0 01.19-1.09 2.58 2.58 0 01.54-.9 2.54 2.54 0 01.88-.6 3.35 3.35 0 011.24-.21 3.39 3.39 0 011.24.21 2.63 2.63 0 01.9.6 2.46 2.46 0 01.55.9 3 3 0 01.19 1.09 2.9 2.9 0 01-.19 1.07 2.3 2.3 0 01-.55.88 2.43 2.43 0 01-.9.57 3.39 3.39 0 01-1.24.21 3.35 3.35 0 01-1.24-.21 2.35 2.35 0 01-.88-.57 2.41 2.41 0 01-.54-.88 2.9 2.9 0 01-.19-1.07zm17.68 0a3 3 0 01.19-1.09 2.58 2.58 0 01.54-.9 2.54 2.54 0 01.88-.6 3.32 3.32 0 011.24-.21 3.39 3.39 0 011.24.21 2.63 2.63 0 01.9.6 2.46 2.46 0 01.55.9 3 3 0 01.19 1.09 2.9 2.9 0 01-.19 1.07 2.3 2.3 0 01-.55.88 2.43 2.43 0 01-.9.57 3.39 3.39 0 01-1.24.21 3.32 3.32 0 01-1.24-.21 2.35 2.35 0 01-.88-.57 2.41 2.41 0 01-.54-.88 2.9 2.9 0 01-.19-1.07z"/><circle class="f9c334bc-a443-4c23-8b28-181060676440" cx="1266.16" cy="110.28" r="31.78"/><path class="b0f37755-5832-4536-b3f0-6982dedea181" d="M1266.16 144.05a33.77 33.77 0 1123.89-9.88 33.68 33.68 0 01-23.89 9.88zm0-63.53a29.76 29.76 0 1021.06 8.7 29.71 29.71 0 00-21.06-8.7z"/><path class="b0f37755-5832-4536-b3f0-6982dedea181" transform="rotate(-45 1266.028 110.324)" d="M1234.72 108.28h62.88v4h-62.88z"/><circle class="f9c334bc-a443-4c23-8b28-181060676440" cx="1591.72" cy="297.02" r="31.78"/><path class="b0f37755-5832-4536-b3f0-6982dedea181" d="M1591.72 330.78a33.76 33.76 0 1123.89-9.87 33.71 33.71 0 01-23.89 9.87zm0-63.53a29.77 29.77 0 1021.06 8.71 29.69 29.69 0 00-21.06-8.71z"/><path class="b0f37755-5832-4536-b3f0-6982dedea181" transform="rotate(-45 1591.546 297.06)" d="M1560.28 295.02h62.88v4h-62.88z"/><rect class="f9c334bc-a443-4c23-8b28-181060676440" x="141" y="402.95" width="1845.71" height="67.17" rx="3.5"/><path class="ada79d95-e83e-426f-8ad7-e681eaa3ffdb" d="M1983.21 404.45a2 2 0 012 2v60.17a2 2 0 01-2 2H144.5a2 2 0 01-2-2v-60.17a2 2 0 012-2h1838.71m0-3H144.5a5 5 0 00-5 5v60.17a5 5 0 005 5h1838.71a5 5 0 005-5v-60.17a5 5 0 00-5-5z"/><g stroke-miterlimit="10" stroke-width=".5"><path d="M824.09 420v31.59h-3.82V420zm22.69 31.57h-1.7a2 2 0 01-.9-.18 1 1 0 01-.45-.72l-.42-2c-.58.51-1.13 1-1.68 1.38a9.36 9.36 0 01-1.71 1 8.64 8.64 0 01-1.92.63 10.6 10.6 0 01-2.27.22 7.64 7.64 0 01-2.37-.36 5.45 5.45 0 01-1.92-1.06 5.1 5.1 0 01-1.29-1.8 6.3 6.3 0 01-.49-2.57 4.86 4.86 0 01.71-2.49 6.32 6.32 0 012.29-2.12 14.88 14.88 0 014.12-1.51 27.92 27.92 0 016.25-.59v-1.7a5.91 5.91 0 00-1.09-3.85 3.92 3.92 0 00-3.2-1.31 6.67 6.67 0 00-2.35.36 8.46 8.46 0 00-1.65.79c-.47.29-.87.56-1.2.79a1.73 1.73 0 01-1 .36 1.14 1.14 0 01-.68-.21 1.57 1.57 0 01-.46-.5l-.68-1.22a12.31 12.31 0 013.88-2.6 12 12 0 014.61-.86 8.47 8.47 0 013.24.6 6.8 6.8 0 012.38 1.68 7.13 7.13 0 011.46 2.59 11.11 11.11 0 01.49 3.35zm-9.91-2.34a7.64 7.64 0 001.85-.21 7 7 0 001.57-.57 8.39 8.39 0 001.42-.92 11.42 11.42 0 001.32-1.22v-4.48a26 26 0 00-4.49.33 12.74 12.74 0 00-3 .88 4.17 4.17 0 00-1.68 1.27 2.75 2.75 0 00-.53 1.64 3.77 3.77 0 00.28 1.49 2.91 2.91 0 00.75 1 3.08 3.08 0 001.12.59 5.14 5.14 0 001.39.2zM865 433.42a.84.84 0 01-.8.47 1.49 1.49 0 01-.73-.23c-.27-.16-.6-.33-1-.53a9.33 9.33 0 00-1.41-.53 6.46 6.46 0 00-1.93-.25 5.48 5.48 0 00-1.73.25 4.1 4.1 0 00-1.32.67 2.94 2.94 0 00-.84 1 2.72 2.72 0 00-.29 1.23 2.09 2.09 0 00.48 1.4 4.17 4.17 0 001.28 1 11.63 11.63 0 001.8.72l2.07.66c.71.24 1.4.5 2.07.79a7.33 7.33 0 011.8 1.07 4.65 4.65 0 011.76 3.82 7 7 0 01-.54 2.77 5.88 5.88 0 01-1.58 2.21 7.38 7.38 0 01-2.58 1.47 10.44 10.44 0 01-3.51.54 11 11 0 01-4.12-.74 10.43 10.43 0 01-3.13-1.9l.9-1.46a1.3 1.3 0 01.41-.43 1.12 1.12 0 01.62-.15 1.4 1.4 0 01.81.3c.29.2.63.43 1 .67a8.26 8.26 0 001.48.66 6.78 6.78 0 002.18.3 5.8 5.8 0 001.95-.29 4.11 4.11 0 001.4-.78 3.13 3.13 0 00.82-1.14 3.45 3.45 0 00.27-1.37 2.28 2.28 0 00-.48-1.49 4.25 4.25 0 00-1.28-1 10.49 10.49 0 00-1.81-.73c-.68-.2-1.37-.42-2.08-.65s-1.4-.49-2.08-.78a7.09 7.09 0 01-1.82-1.11 5.05 5.05 0 01-1.27-1.64 5.33 5.33 0 01-.48-2.37 5.83 5.83 0 01.51-2.39 5.73 5.73 0 011.5-2 7.55 7.55 0 012.43-1.39 9.74 9.74 0 013.28-.51 10.4 10.4 0 013.85.67 9.14 9.14 0 013 1.86zm12.77 18.49a5.23 5.23 0 01-4-1.44 5.75 5.75 0 01-1.38-4.14V433h-2.62a.84.84 0 01-.58-.21.76.76 0 01-.23-.63v-1.52l3.56-.45.87-6.72a.84.84 0 01.28-.52.87.87 0 01.6-.2h1.93v7.48h6.22V433h-6.22v13a2.77 2.77 0 00.67 2 2.29 2.29 0 001.72.67 3.29 3.29 0 001-.16 4.9 4.9 0 00.76-.36c.21-.13.39-.24.54-.35a.71.71 0 01.4-.16.67.67 0 01.54.36l1.11 1.83a7.18 7.18 0 01-2.38 1.44 8.1 8.1 0 01-2.79.64zM899.43 420v18.59h1a1.78 1.78 0 00.71-.12 2 2 0 00.62-.48l6.87-7.36a4 4 0 01.64-.56 1.54 1.54 0 01.86-.21h3.47l-8 8.51a6.37 6.37 0 01-.59.65 3.57 3.57 0 01-.65.49 4 4 0 01.7.59 6.91 6.91 0 01.59.76l8.49 10.73h-3.43a1.57 1.57 0 01-.81-.19 2.06 2.06 0 01-.63-.57l-7.14-8.89a1.58 1.58 0 00-.65-.59 2.37 2.37 0 00-1-.14h-1.07v10.38h-3.84V420zm18.5 31.57v-21.73h2.28a1 1 0 011 .79l.3 2.36a12.44 12.44 0 013.16-2.53 8.26 8.26 0 014-1 7.76 7.76 0 013.15.59 6.13 6.13 0 012.27 1.67 7.24 7.24 0 011.38 2.61 11.09 11.09 0 01.47 3.36v13.84h-3.74v-13.8a5.87 5.87 0 00-1.13-3.83 4.23 4.23 0 00-3.44-1.36 6.38 6.38 0 00-3.17.82 10.33 10.33 0 00-2.71 2.21v16zm32.65-22.07a11.17 11.17 0 014.3.79 9.25 9.25 0 013.26 2.25 10 10 0 012.05 3.53 15.21 15.21 0 010 9.25 9.82 9.82 0 01-2.05 3.52 9.09 9.09 0 01-3.26 2.24 12.1 12.1 0 01-8.6 0 9 9 0 01-3.27-2.24 9.73 9.73 0 01-2.08-3.52 15 15 0 010-9.25 9.86 9.86 0 012.08-3.53 9.2 9.2 0 013.27-2.25 11.13 11.13 0 014.3-.79zm0 19.38a5.57 5.57 0 004.8-2.15 12.23 12.23 0 000-12.06 5.55 5.55 0 00-4.8-2.17 6.76 6.76 0 00-2.84.56 5.31 5.31 0 00-2 1.61 7 7 0 00-1.2 2.58 15.16 15.16 0 000 6.92 6.9 6.9 0 001.2 2.56 5.38 5.38 0 002 1.6 6.76 6.76 0 002.84.55zm12.22-19.04h3a1.18 1.18 0 01.77.24 1.14 1.14 0 01.41.55l4.16 14c.12.51.22 1 .32 1.49s.19 1 .26 1.44c.12-.48.24-1 .39-1.44s.29-1 .45-1.49l4.59-14.07a1.12 1.12 0 01.37-.54 1.08 1.08 0 01.68-.21h1.65a1.07 1.07 0 011.09.75l4.49 14.07c.15.5.29 1 .41 1.48s.24 1 .36 1.43c.07-.47.16-1 .28-1.48s.23-1 .36-1.43l4.25-14a1.1 1.1 0 01.4-.56 1.16 1.16 0 01.71-.23h2.88l-7 21.73h-3c-.37 0-.63-.25-.77-.73l-4.81-14.74a9.17 9.17 0 01-.28-1l-.21-1c-.07.33-.14.66-.22 1a8.17 8.17 0 01-.27 1l-4.87 14.72a.9.9 0 01-.88.73h-2.88zm35.69 21.73v-21.73h2.27a1 1 0 011 .79l.3 2.36a12.44 12.44 0 013.16-2.53 8.3 8.3 0 014-1 7.75 7.75 0 013.14.59 6.13 6.13 0 012.27 1.67 7.24 7.24 0 011.38 2.61 11.09 11.09 0 01.47 3.36v13.84h-3.81v-13.8a5.87 5.87 0 00-1.13-3.83 4.23 4.23 0 00-3.44-1.36 6.34 6.34 0 00-3.16.82 10.37 10.37 0 00-2.72 2.21v16zm40.91-22.07a11.1 11.1 0 014.3.79 9.07 9.07 0 013.26 2.25 10 10 0 012.06 3.53 15.21 15.21 0 010 9.25 9.84 9.84 0 01-2.06 3.52 8.92 8.92 0 01-3.26 2.24 12.1 12.1 0 01-8.6 0 9.13 9.13 0 01-3.27-2.24 10 10 0 01-2.08-3.52 15 15 0 010-9.25 10.16 10.16 0 012.08-3.53 9.28 9.28 0 013.27-2.25 11.17 11.17 0 014.3-.79zm0 19.38a5.57 5.57 0 004.81-2.15 12.23 12.23 0 000-12.06 5.56 5.56 0 00-4.81-2.17 6.71 6.71 0 00-2.83.56 5.23 5.23 0 00-2 1.61 7 7 0 00-1.2 2.58 15.16 15.16 0 000 6.92 6.9 6.9 0 001.2 2.56 5.3 5.3 0 002 1.6 6.71 6.71 0 002.83.55zm15.92 2.69V433.1l-2.4-.28a1.87 1.87 0 01-.74-.33.76.76 0 01-.29-.65v-1.57h3.43v-2.1a9.72 9.72 0 01.52-3.32 6.59 6.59 0 011.51-2.44 6.26 6.26 0 012.34-1.51 8.63 8.63 0 013.09-.52 8.4 8.4 0 012.7.43l-.08 1.91a.5.5 0 01-.37.52 4.63 4.63 0 01-1 .08h-.67a6 6 0 00-1.79.26 3.39 3.39 0 00-1.38.84 3.71 3.71 0 00-.89 1.52 7.49 7.49 0 00-.31 2.34v2h6.28V433h-6.15v18.53zm14.45 0V433.1l-2.4-.28a1.87 1.87 0 01-.74-.33.79.79 0 01-.29-.65v-1.57h3.43v-2.1a9.72 9.72 0 01.53-3.32 6.7 6.7 0 011.5-2.44 6.22 6.22 0 012.35-1.51 8.56 8.56 0 013.09-.52 8.4 8.4 0 012.7.43l-.09 1.91a.48.48 0 01-.36.52 4.74 4.74 0 01-1 .08h-.66a5.86 5.86 0 00-1.79.26 3.36 3.36 0 00-1.39.84 3.83 3.83 0 00-.89 1.52 7.8 7.8 0 00-.31 2.34v2h6.29V433h-6.16v18.53zm26.04-18.15a.84.84 0 01-.8.47 1.49 1.49 0 01-.73-.23c-.27-.16-.6-.33-1-.53a9.33 9.33 0 00-1.41-.53 6.46 6.46 0 00-1.93-.25 5.48 5.48 0 00-1.73.25 4.1 4.1 0 00-1.32.67 2.94 2.94 0 00-.84 1 2.72 2.72 0 00-.29 1.23 2.09 2.09 0 00.48 1.4 4.17 4.17 0 001.28 1 11.63 11.63 0 001.8.72l2.07.66c.71.24 1.4.5 2.07.79a7.33 7.33 0 011.8 1.07 4.65 4.65 0 011.76 3.82 7 7 0 01-.54 2.77 5.88 5.88 0 01-1.58 2.21 7.38 7.38 0 01-2.58 1.47 10.44 10.44 0 01-3.51.54 11 11 0 01-4.12-.74 10.43 10.43 0 01-3.13-1.9l.9-1.46a1.3 1.3 0 01.41-.43 1.12 1.12 0 01.62-.15 1.4 1.4 0 01.81.3c.29.2.63.43 1 .67a8.26 8.26 0 001.48.66 6.78 6.78 0 002.18.3 5.8 5.8 0 002-.29 4 4 0 001.39-.78 3 3 0 00.83-1.14 3.45 3.45 0 00.27-1.37 2.28 2.28 0 00-.48-1.49 4.25 4.25 0 00-1.28-1 10.49 10.49 0 00-1.81-.73c-.68-.2-1.37-.42-2.08-.65s-1.4-.49-2.08-.78a7.09 7.09 0 01-1.82-1.11 5.05 5.05 0 01-1.27-1.64 5.33 5.33 0 01-.48-2.37 5.83 5.83 0 01.51-2.39 5.73 5.73 0 011.5-2 7.55 7.55 0 012.43-1.39 9.74 9.74 0 013.28-.51 10.4 10.4 0 013.85.67 9.14 9.14 0 013 1.86zm14.77-3.92a9.82 9.82 0 013.61.65A8.17 8.17 0 011117 432a8.65 8.65 0 011.88 3 11.81 11.81 0 01.67 4.13 2.48 2.48 0 01-.19 1.2.8.8 0 01-.73.3h-14.46a12.18 12.18 0 00.56 3.59 7.5 7.5 0 001.42 2.54 5.67 5.67 0 002.14 1.52 7.3 7.3 0 002.79.5 8.28 8.28 0 002.48-.33 11.46 11.46 0 001.79-.72 11.71 11.71 0 001.25-.72 1.7 1.7 0 01.87-.33.82.82 0 01.73.37l1.07 1.39a7.15 7.15 0 01-1.69 1.49 10.61 10.61 0 01-2.11 1 13.08 13.08 0 01-2.33.61 13.84 13.84 0 01-2.38.21 11 11 0 01-4.15-.77 8.94 8.94 0 01-3.28-2.23 10.22 10.22 0 01-2.16-3.63 14.88 14.88 0 01-.77-5 12.49 12.49 0 01.7-4.24 9.86 9.86 0 012-3.42 9.16 9.16 0 013.2-2.28 10.48 10.48 0 014.28-.68zm.09 2.81a5.86 5.86 0 00-4.35 1.59 7.57 7.57 0 00-2 4.43h11.82a7.84 7.84 0 00-.36-2.43 5.59 5.59 0 00-1.08-1.91 4.66 4.66 0 00-1.72-1.24 5.73 5.73 0 00-2.31-.44zm20.33 19.6a5.22 5.22 0 01-4-1.44 5.71 5.71 0 01-1.39-4.14V433H1123a.83.83 0 01-.58-.21.77.77 0 01-.24-.63v-1.52l3.56-.45.88-6.72a.79.79 0 01.28-.52.87.87 0 01.6-.2h1.93v7.48h6.22V433h-6.22v13a2.77 2.77 0 00.66 2 2.32 2.32 0 001.72.67 3.2 3.2 0 001-.16 4.5 4.5 0 00.76-.36c.22-.13.4-.24.55-.35a.69.69 0 01.4-.16.65.65 0 01.53.36l1.12 1.83a7.18 7.18 0 01-2.38 1.44 8.12 8.12 0 01-2.79.64zm9.07-18.79a2.84 2.84 0 01.2-1.05 3 3 0 01.56-.86 2.84 2.84 0 01.85-.58 2.73 2.73 0 012.1 0 2.89 2.89 0 01.86.58 2.81 2.81 0 01.57.86 2.84 2.84 0 01.2 1.05 2.78 2.78 0 01-.2 1.06 2.65 2.65 0 01-.57.85 2.69 2.69 0 01-.86.57 2.86 2.86 0 01-2.1 0 2.65 2.65 0 01-.85-.57 2.66 2.66 0 01-.76-1.91zm0 16.09a2.8 2.8 0 01.2-1 2.84 2.84 0 01.56-.86 2.52 2.52 0 01.85-.58 2.62 2.62 0 012.1 0 2.56 2.56 0 01.86.58 2.69 2.69 0 01.57.86 2.88 2.88 0 010 2.11 2.88 2.88 0 01-.57.85 2.51 2.51 0 01-.86.56 2.73 2.73 0 01-2.1 0 2.47 2.47 0 01-.85-.56 3.06 3.06 0 01-.56-.85 2.82 2.82 0 01-.2-1.11z" stroke="#242b2d" fill="#242b2d"/><path d="M1169.3 420.49a11.13 11.13 0 013.65.58 8.5 8.5 0 012.92 1.68 8 8 0 012 2.69 8.81 8.81 0 01.7 3.61 9.54 9.54 0 01-.51 3.17 12.64 12.64 0 01-1.4 2.8 20.14 20.14 0 01-2 2.59c-.77.84-1.58 1.7-2.44 2.57l-8.08 8.28a14.57 14.57 0 011.74-.38 11.11 11.11 0 011.69-.14h10.29a1.3 1.3 0 011 .37 1.27 1.27 0 01.37.94v2.32h-20.51v-1.31a2.59 2.59 0 01.16-.84 2.25 2.25 0 01.53-.79l9.84-9.89c.82-.83 1.56-1.63 2.23-2.39a16.16 16.16 0 001.73-2.31 10.32 10.32 0 001.1-2.34 8.2 8.2 0 00.39-2.55 6 6 0 00-.43-2.37 4.56 4.56 0 00-1.18-1.68 5.08 5.08 0 00-1.76-1 6.88 6.88 0 00-2.16-.33 6.73 6.73 0 00-2.15.34 5.82 5.82 0 00-1.75 1 5.93 5.93 0 00-1.28 1.45 5.52 5.52 0 00-.74 1.84 1.69 1.69 0 01-.52.9 1.36 1.36 0 01-.9.28h-.49l-2-.35a11.35 11.35 0 011.15-3.72 8.83 8.83 0 012.18-2.71 9.35 9.35 0 013-1.66 11.58 11.58 0 013.63-.65z" stroke="#00af53" fill="#00af53"/></g><rect class="ada79d95-e83e-426f-8ad7-e681eaa3ffdb" x="6.62" y="401.45" width="373.51" height="70.17" rx="5"/><path class="b8cb05d9-915d-460a-83e3-1ff504167efe" d="M47 423.92a1.64 1.64 0 01-.4.48.91.91 0 01-.56.16 1.51 1.51 0 01-.85-.36c-.32-.24-.73-.51-1.22-.81a9.93 9.93 0 00-1.78-.8 7.72 7.72 0 00-2.52-.36 7.5 7.5 0 00-2.47.37 5.28 5.28 0 00-1.79 1 4.12 4.12 0 00-1.08 1.51A4.88 4.88 0 0034 427a3.45 3.45 0 00.63 2.13 5.39 5.39 0 001.67 1.45 12.52 12.52 0 002.36 1l2.7.91c.92.32 1.82.67 2.7 1.06a9.65 9.65 0 012.36 1.49 6.72 6.72 0 011.68 2.21 7.39 7.39 0 01.63 3.22 10.31 10.31 0 01-.73 3.83 8.59 8.59 0 01-2 3.08 9.42 9.42 0 01-3.24 2.06 12 12 0 01-4.37.75 13.36 13.36 0 01-5.39-1.08 12.6 12.6 0 01-4.19-2.93l1.2-2a1.46 1.46 0 01.42-.4.93.93 0 01.54-.16 1.7 1.7 0 011 .48 16.79 16.79 0 001.45 1.06 11.39 11.39 0 002.1 1.07 8.33 8.33 0 003 .48 8 8 0 002.64-.41 5.44 5.44 0 002-1.15 4.93 4.93 0 001.24-1.77 6 6 0 00.43-2.29 3.84 3.84 0 00-.64-2.28 5.24 5.24 0 00-1.66-1.5 11 11 0 00-2.35-1l-2.7-.86a25.81 25.81 0 01-2.7-1 9.06 9.06 0 01-2.35-1.5 6.81 6.81 0 01-1.66-2.31 8.87 8.87 0 010-6.57 8 8 0 011.83-2.7 8.8 8.8 0 013-1.89 11 11 0 014.07-.71 12.83 12.83 0 014.69.82A10.74 10.74 0 0148 422zm9.69 4.2V442a5.79 5.79 0 001.13 3.81 4.23 4.23 0 003.44 1.36 6.58 6.58 0 003.15-.8 9.8 9.8 0 002.72-2.21v-16H71v21.73h-2.32a1 1 0 01-1-.8l-.3-2.33a12.11 12.11 0 01-3.18 2.52 8.36 8.36 0 01-4 .95 7.89 7.89 0 01-3.2-.63 6.17 6.17 0 01-2.28-1.66 7.06 7.06 0 01-1.39-2.6 11.42 11.42 0 01-.46-3.36v-13.86zm20.67 21.73v-31.59h3.84v13a11.3 11.3 0 013.1-2.52 8.3 8.3 0 014-1 8 8 0 013.41.71 6.92 6.92 0 012.6 2.11 10.36 10.36 0 011.69 3.51 18 18 0 01.58 4.78 15 15 0 01-.65 4.47A10.75 10.75 0 0194 446.9a8.59 8.59 0 01-6.9 3.25 7.19 7.19 0 01-3.57-.82 8.09 8.09 0 01-2.53-2.27l-.19 2a.93.93 0 01-1 .82zm9.7-19a6.13 6.13 0 00-3.27.86 9.5 9.5 0 00-2.59 2.43v10.5a6 6 0 002.29 2 6.51 6.51 0 002.79.58A5.5 5.5 0 0091 445a10.07 10.07 0 001.63-6.17 15.44 15.44 0 00-.38-3.65 7.2 7.2 0 00-1.08-2.5 4.17 4.17 0 00-1.74-1.42 5.73 5.73 0 00-2.37-.44zm26.59.85a.84.84 0 01-.79.48 1.46 1.46 0 01-.73-.24c-.28-.16-.61-.33-1-.53a8.94 8.94 0 00-1.41-.53 6.46 6.46 0 00-1.93-.25 5.48 5.48 0 00-1.73.25 4.1 4.1 0 00-1.32.67 3.06 3.06 0 00-.84 1 2.72 2.72 0 00-.29 1.23 2 2 0 00.49 1.4 4.12 4.12 0 001.27 1 10.71 10.71 0 001.8.72c.67.21 1.36.43 2.07.67s1.4.49 2.07.78a7.65 7.65 0 011.8 1.07 4.93 4.93 0 011.28 1.58 4.84 4.84 0 01.48 2.24 7.25 7.25 0 01-.53 2.78 6.18 6.18 0 01-1.59 2.21 7.57 7.57 0 01-2.57 1.46 10.54 10.54 0 01-3.52.54 11 11 0 01-4.12-.74 10.23 10.23 0 01-3.13-1.9l.9-1.46a1.27 1.27 0 01.41-.42 1.12 1.12 0 01.62-.15 1.4 1.4 0 01.81.3c.29.2.64.42 1 .66a8.58 8.58 0 001.48.67 6.78 6.78 0 002.18.3 6.06 6.06 0 002-.29 4.3 4.3 0 001.4-.79 3.1 3.1 0 00.82-1.13 3.54 3.54 0 00.27-1.38 2.3 2.3 0 00-.48-1.49 4 4 0 00-1.28-1 9.75 9.75 0 00-1.81-.73l-2.08-.66c-.71-.23-1.4-.49-2.08-.78a7.29 7.29 0 01-1.81-1.1 5 5 0 01-1.28-1.65 5.31 5.31 0 01-.48-2.36 5.88 5.88 0 01.51-2.4 6.09 6.09 0 011.5-2 7.55 7.55 0 012.43-1.39 9.78 9.78 0 013.28-.51 10.4 10.4 0 013.85.68 9.11 9.11 0 013 1.85zm20.99.3a1.54 1.54 0 01-.34.37.84.84 0 01-.49.13 1.21 1.21 0 01-.7-.27 9.61 9.61 0 00-1-.59 7.88 7.88 0 00-1.41-.59 7.4 7.4 0 00-4.83.3 5.47 5.47 0 00-2 1.64 7.44 7.44 0 00-1.25 2.59 13.34 13.34 0 00-.41 3.41 12.46 12.46 0 00.45 3.51 7.62 7.62 0 001.26 2.57 5.33 5.33 0 002 1.59 6.07 6.07 0 002.63.55 6.79 6.79 0 002.3-.33 7.48 7.48 0 001.5-.74 11.73 11.73 0 001-.74 1.18 1.18 0 01.78-.34.82.82 0 01.73.37l1.07 1.39a8.2 8.2 0 01-3.54 2.54 12.48 12.48 0 01-4.48.81 9.53 9.53 0 01-3.79-.75 8.6 8.6 0 01-3-2.18 10.23 10.23 0 01-2-3.51 14.12 14.12 0 01-.74-4.74 14.31 14.31 0 01.68-4.48 10.15 10.15 0 012-3.55 8.79 8.79 0 013.21-2.32 10.75 10.75 0 014.37-.84 10.35 10.35 0 014 .74 9.63 9.63 0 013.11 2.09zm5.22 17.85v-21.73H142a1.19 1.19 0 01.86.24 1.39 1.39 0 01.32.81l.26 3.39a9.88 9.88 0 012.76-3.55 6.07 6.07 0 013.85-1.27 5.92 5.92 0 011.63.2 6.22 6.22 0 011.35.57l-.5 2.85a.64.64 0 01-.66.54 3.21 3.21 0 01-.92-.21 6.1 6.1 0 00-1.74-.2 5 5 0 00-3.34 1.16 8.7 8.7 0 00-2.24 3.36v13.84zm22.39-28.55a2.43 2.43 0 01-.23 1 3 3 0 01-.6.86 2.73 2.73 0 01-.87.59 2.67 2.67 0 01-1.05.22 2.58 2.58 0 01-1-.22 2.81 2.81 0 01-.86-.59 3 3 0 01-.59-.86 2.58 2.58 0 01-.21-1 2.75 2.75 0 01.21-1.06 3 3 0 01.59-.88 3 3 0 01.86-.59 2.58 2.58 0 011-.21 2.66 2.66 0 011.05.21 2.91 2.91 0 01.87.59 3 3 0 01.6.88 2.59 2.59 0 01.23 1.06zm-.86 6.82v21.73h-3.82v-21.73zm6.86 21.73v-31.59h3.84v13a11.16 11.16 0 013.1-2.52 8.27 8.27 0 014-1 8 8 0 013.41.71 6.82 6.82 0 012.59 2.11 10 10 0 011.65 3.47 17.63 17.63 0 01.58 4.78 15 15 0 01-.64 4.47 10.94 10.94 0 01-1.85 3.58 8.59 8.59 0 01-6.9 3.25 7.19 7.19 0 01-3.57-.82 8.09 8.09 0 01-2.56-2.27l-.2 2a.91.91 0 01-1 .82zm9.69-19a6.18 6.18 0 00-3.27.86 9.62 9.62 0 00-2.58 2.43v10.5a6 6 0 002.28 2 6.56 6.56 0 002.8.58 5.5 5.5 0 004.68-2.17 10.14 10.14 0 001.63-6.17 15.44 15.44 0 00-.38-3.65 7.2 7.2 0 00-1.08-2.5 4.17 4.17 0 00-1.74-1.42 5.75 5.75 0 00-2.34-.49zm19.26-9.55a2.43 2.43 0 01-.22 1 3 3 0 01-.6.86 2.73 2.73 0 01-.87.59 2.67 2.67 0 01-1 .22 2.58 2.58 0 01-1-.22 2.85 2.85 0 01-1.45-1.45 2.58 2.58 0 01-.21-1 2.75 2.75 0 01.21-1.06 2.78 2.78 0 01.59-.88 3 3 0 01.86-.59 2.58 2.58 0 011-.21 2.66 2.66 0 011 .21 2.91 2.91 0 01.87.59 3 3 0 01.6.88 2.58 2.58 0 01.22 1.06zm-.85 6.82v21.73h-3.82v-21.73zm6.73 21.73v-21.73h2.27a1 1 0 011 .8l.3 2.36a12.31 12.31 0 013.17-2.54 8.24 8.24 0 014-1 7.92 7.92 0 013.14.59 6.05 6.05 0 012.34 1.67 7.41 7.41 0 011.39 2.61 11.46 11.46 0 01.47 3.36v13.84h-3.82V436a5.77 5.77 0 00-1.13-3.82 4.19 4.19 0 00-3.44-1.37 6.44 6.44 0 00-3.16.82 10.17 10.17 0 00-2.71 2.21v16zm31.16-22.09a10.7 10.7 0 012.65.31 8.42 8.42 0 012.24.91H245v1.42q0 .71-.9.9l-2.47.34a6.57 6.57 0 01.73 3.11 6.75 6.75 0 01-.61 2.88 6.4 6.4 0 01-1.7 2.22 7.54 7.54 0 01-2.57 1.42 10.29 10.29 0 01-3.27.49 11.06 11.06 0 01-2.87-.36 3.46 3.46 0 00-1 1 1.73 1.73 0 00-.36 1 1.38 1.38 0 00.62 1.21 4.47 4.47 0 001.66.59 14.7 14.7 0 002.33.17h2.67a14.73 14.73 0 012.67.24 8.26 8.26 0 012.34.78 4.26 4.26 0 011.65 1.5 4.43 4.43 0 01.62 2.48 5.82 5.82 0 01-.69 2.73 7.56 7.56 0 01-2 2.36 10.66 10.66 0 01-3.19 1.65 13.75 13.75 0 01-4.27.62 16.15 16.15 0 01-4.17-.48 9.49 9.49 0 01-3-1.26 5.42 5.42 0 01-1.77-1.84 4.28 4.28 0 01-.59-2.18 3.92 3.92 0 011-2.73 6.92 6.92 0 012.79-1.8 3.73 3.73 0 01-1.46-1.14 3.06 3.06 0 01-.55-1.92 3.1 3.1 0 01.17-1 3.59 3.59 0 01.53-1 5.35 5.35 0 01.86-.94 5.5 5.5 0 011.21-.79 6.62 6.62 0 01-2.52-2.4 6.5 6.5 0 01-.92-3.48 6.61 6.61 0 01.62-2.88 6.16 6.16 0 011.7-2.21 7.8 7.8 0 012.61-1.41 10.55 10.55 0 013.34-.51zM241 451a1.91 1.91 0 00-.45-1.33 2.84 2.84 0 00-1.23-.78 8.22 8.22 0 00-1.78-.4 16 16 0 00-2.12-.14h-2.27A8 8 0 01231 448a6.3 6.3 0 00-2 1.42 2.92 2.92 0 00-.76 2 2.61 2.61 0 00.38 1.36 3.13 3.13 0 001.15 1.1 6.61 6.61 0 001.94.73 13.74 13.74 0 005.52 0 7 7 0 002.07-.81 4 4 0 001.3-1.24 3 3 0 00.4-1.56zm-6.78-11.72a6.17 6.17 0 002-.32 4 4 0 001.49-.9 3.75 3.75 0 00.9-1.38 5.06 5.06 0 00.3-1.77 4.27 4.27 0 00-1.21-3.18 5.84 5.84 0 00-7 0 4.27 4.27 0 00-1.21 3.18 5.06 5.06 0 00.31 1.77 3.91 3.91 0 00.91 1.38 4.09 4.09 0 001.48.9 6 6 0 002.05.27zm26.47-20.02a2.13 2.13 0 01.61.56L279.1 443c0-.37-.07-.73-.08-1.08s0-.69 0-1v-21.8h3.64v30.73h-2.1a1.81 1.81 0 01-.82-.17 2.17 2.17 0 01-.66-.58l-17.8-23.1c0 .35.05.7.07 1.05s0 .66 0 .94v21.9h-3.65v-30.77h2.15a1.75 1.75 0 01.84.14zm37.65 8.52a11.13 11.13 0 014.3.79 9.07 9.07 0 013.26 2.25 10.12 10.12 0 012.06 3.53 15.25 15.25 0 010 9.26 10 10 0 01-2.06 3.51 9 9 0 01-3.26 2.25 12.24 12.24 0 01-8.6 0 9.07 9.07 0 01-3.27-2.25 10.07 10.07 0 01-2.08-3.51 15 15 0 010-9.26 10.16 10.16 0 012.08-3.53 9.2 9.2 0 013.27-2.25 11.13 11.13 0 014.3-.79zm0 19.39a5.55 5.55 0 004.8-2.16 12.23 12.23 0 000-12.06 5.53 5.53 0 00-4.8-2.17 6.68 6.68 0 00-2.83.56 5.23 5.23 0 00-2 1.61 7.17 7.17 0 00-1.21 2.58 15.54 15.54 0 000 6.92 7.07 7.07 0 001.21 2.56 5.21 5.21 0 002 1.6 6.68 6.68 0 002.83.56zm30.35 2.68a1 1 0 01-1-.8l-.35-2.63a11.34 11.34 0 01-3.18 2.71 8.14 8.14 0 01-4.11 1 7.86 7.86 0 01-3.39-.72 7 7 0 01-2.59-2.11 9.87 9.87 0 01-1.65-3.48 17.68 17.68 0 01-.58-4.78 15 15 0 01.64-4.47 10.82 10.82 0 011.86-3.59 8.54 8.54 0 012.95-2.39 8.65 8.65 0 013.94-.87 7.86 7.86 0 013.41.67 8.14 8.14 0 012.53 1.9v-12.03H331v31.59zm-7.4-2.79a6.18 6.18 0 003.27-.86 9.29 9.29 0 002.58-2.42v-10.51a6.1 6.1 0 00-2.3-2 6.64 6.64 0 00-2.78-.57 5.49 5.49 0 00-4.67 2.16 10.12 10.12 0 00-1.63 6.18 15.93 15.93 0 00.36 3.64 7 7 0 001.07 2.48 4.2 4.2 0 001.74 1.43 5.84 5.84 0 002.36.47zM346 427.78a9.9 9.9 0 013.61.65 8.17 8.17 0 012.85 1.89 8.58 8.58 0 011.87 3.05 11.48 11.48 0 01.68 4.12 2.5 2.5 0 01-.19 1.21.8.8 0 01-.73.3H339.6a12.17 12.17 0 00.56 3.58 7.34 7.34 0 001.42 2.54 5.57 5.57 0 002.14 1.52 7.3 7.3 0 002.79.51 8.26 8.26 0 002.48-.34 11.46 11.46 0 001.79-.72 12.94 12.94 0 001.25-.71 1.64 1.64 0 01.87-.34.86.86 0 01.73.37l1.07 1.39a7.35 7.35 0 01-1.69 1.49 10.7 10.7 0 01-2.12 1 13 13 0 01-2.32.61 13.84 13.84 0 01-2.38.21 11.18 11.18 0 01-4.15-.76 9.07 9.07 0 01-3.28-2.23 10.18 10.18 0 01-2.16-3.64 14.86 14.86 0 01-.77-5 12.51 12.51 0 01.7-4.25 9.86 9.86 0 012-3.42 9.13 9.13 0 013.2-2.27 10.45 10.45 0 014.27-.76zm.09 2.81a5.85 5.85 0 00-4.36 1.6 7.56 7.56 0 00-2 4.43h11.82a7.57 7.57 0 00-.37-2.44 5.41 5.41 0 00-1.07-1.91 4.87 4.87 0 00-1.72-1.24 5.9 5.9 0 00-2.33-.44z"/><rect class="f9c334bc-a443-4c23-8b28-181060676440" x="1354.06" y="37.78" width="465.82" height="160.13" rx="5" opacity=".5"/></svg>