<svg id="a1a5aaff-dc09-48ca-a6be-3dc8de356e5f" data-name="Layer 1" xmlns="http://www.w3.org/2000/svg" width="1998" height="833.67"><defs><style>.bc39c019-152b-4962-88f2-494ae7ff2341{fill:#242b2d}.a1d325ba-5bc8-4d95-a1d6-05ac16ab5f03,.bd878673-2c3b-4316-83f3-c3267b474011{fill:#fff}.a1d325ba-5bc8-4d95-a1d6-05ac16ab5f03{stroke:#fff;stroke-miterlimit:10;stroke-width:.5px}.b4069798-e1d3-4412-ba45-31c598487592{fill:#0a6ce2}.eceff792-7f90-4d5b-8ca1-07d00d2dc90c{fill:#e21000}.f2210f63-6c75-42d2-9013-207afec566a5{fill:#00af53}.fd450c3c-c948-439a-b485-34db7b526a52{fill:#15be53}</style></defs><path class="bc39c019-152b-4962-88f2-494ae7ff2341" d="M399.33 131.4a2 2 0 012 2v131.23a2 2 0 01-2 2H11.62a2 2 0 01-2-2V133.4a2 2 0 012-2h387.71m0-3H11.62a5 5 0 00-5 5v131.23a5 5 0 005 5h387.71a5 5 0 005-5V133.4a5 5 0 00-5-5z"/><rect class="bc39c019-152b-4962-88f2-494ae7ff2341" x="6.62" y="39.03" width="397.71" height="70.17" rx="5"/><path class="a1d325ba-5bc8-4d95-a1d6-05ac16ab5f03" d="M124.6 87.44h-3.21a1.38 1.38 0 01-.9-.28 1.77 1.77 0 01-.52-.71L117.1 79h-13.79l-2.88 7.42a1.68 1.68 0 01-.51.69 1.36 1.36 0 01-.9.3H95.8l12.29-30.71h4.22zM104.47 76h11.47l-4.83-12.51a23.81 23.81 0 01-.92-2.89c-.16.58-.31 1.12-.46 1.62s-.3.92-.44 1.29zm38.23-6.43a1.78 1.78 0 01-.34.37.84.84 0 01-.49.12 1.19 1.19 0 01-.7-.26 9.61 9.61 0 00-.95-.59 7.88 7.88 0 00-1.41-.59 7.43 7.43 0 00-4.84.3 5.42 5.42 0 00-2 1.64 7.44 7.44 0 00-1.25 2.59 12.84 12.84 0 00-.42 3.41 12.46 12.46 0 00.45 3.51 7.82 7.82 0 001.25 2.57 5.25 5.25 0 002 1.59 6.22 6.22 0 002.63.55 6.44 6.44 0 003.8-1.08 8.54 8.54 0 001-.74 1.21 1.21 0 01.77-.33.79.79 0 01.73.37l1.07 1.39a8.26 8.26 0 01-3.54 2.54 12.48 12.48 0 01-4.48.81 9.53 9.53 0 01-3.79-.75 8.51 8.51 0 01-3-2.18 10.23 10.23 0 01-2-3.51 15.33 15.33 0 01-.06-9.22 10.06 10.06 0 012-3.55 9 9 0 013.2-2.33 11 11 0 014.38-.83 10.2 10.2 0 014 .74 9.63 9.63 0 013.11 2.09zm11.8 18.21a5.23 5.23 0 01-4-1.44 5.75 5.75 0 01-1.38-4.14V68.91h-2.62a.84.84 0 01-.58-.21.79.79 0 01-.23-.63v-1.52l3.56-.45.88-6.72a.77.77 0 01.28-.52.84.84 0 01.6-.2H153v7.48h6.22v2.77H153V82a2.77 2.77 0 00.66 2 2.31 2.31 0 001.72.67 3.25 3.25 0 001-.16 4.9 4.9 0 00.76-.36c.21-.13.4-.24.54-.35a.71.71 0 01.4-.16.67.67 0 01.54.36l1.11 1.83a7.08 7.08 0 01-2.38 1.44 8.1 8.1 0 01-2.85.51zm15.78 6.07a2.07 2.07 0 01-.48.68 1.26 1.26 0 01-.89.26h-2.83l4-8.62-9-20.46h3.3a1.13 1.13 0 01.78.25 1.46 1.46 0 01.4.54l5.82 13.69c.12.31.24.63.33.94s.17.64.25 1c.1-.33.19-.65.3-1a10.06 10.06 0 01.34-1l5.64-13.67a1.19 1.19 0 01.44-.56 1.13 1.13 0 01.67-.23h3.05zM191 76.31l-7.32-10.6h3.67a1.26 1.26 0 01.69.15 1.35 1.35 0 01.38.43l5.32 8.15a5.88 5.88 0 01.56-1.2l4.67-6.86a3.66 3.66 0 01.43-.49.82.82 0 01.54-.18h3.52l-7.36 10.38 7.62 11.35h-3.67a1.07 1.07 0 01-.74-.25 2.09 2.09 0 01-.44-.55l-5.47-8.51a3.8 3.8 0 01-.45 1.11l-5.06 7.4a4.19 4.19 0 01-.46.55 1 1 0 01-.68.25h-3.41zm28.34-19.47a2.36 2.36 0 01.61.57l17.8 23.16c0-.37-.07-.73-.08-1.08s0-.69 0-1V56.7h3.65v30.74h-2.1a1.73 1.73 0 01-.83-.18 2 2 0 01-.65-.57l-17.81-23.15c0 .36 0 .71.06 1.06s0 .65 0 .94v21.9h-3.65V56.7h2.14a1.91 1.91 0 01.86.14zM257 65.37a11.17 11.17 0 014.3.79 9.16 9.16 0 013.26 2.25 10.12 10.12 0 012.06 3.53 15.45 15.45 0 010 9.26 10 10 0 01-2.06 3.51 8.89 8.89 0 01-3.27 2.29 12.1 12.1 0 01-8.6 0 8.92 8.92 0 01-3.27-2.24 9.92 9.92 0 01-2.08-3.51 15 15 0 010-9.26 10 10 0 012.08-3.53 9.2 9.2 0 013.27-2.25 11.13 11.13 0 014.31-.84zm0 19.39a5.57 5.57 0 004.8-2.16 10 10 0 001.59-6 10 10 0 00-1.59-6 5.55 5.55 0 00-4.8-2.17 6.68 6.68 0 00-2.83.56 5.34 5.34 0 00-2 1.61 7.33 7.33 0 00-1.2 2.58A15.16 15.16 0 00251 80a7.23 7.23 0 001.2 2.56 5.41 5.41 0 002 1.6 6.68 6.68 0 002.8.6zm30.33 2.68a1 1 0 01-1-.8L286 84a11.52 11.52 0 01-3.18 2.72 8.19 8.19 0 01-4.11 1 7.86 7.86 0 01-3.39-.72 7 7 0 01-2.59-2.11 9.87 9.87 0 01-1.73-3.46 17.73 17.73 0 01-.58-4.78 15 15 0 01.64-4.47 10.82 10.82 0 011.94-3.59 8.41 8.41 0 016.89-3.26 7.86 7.86 0 013.41.67 8.1 8.1 0 012.53 1.9V55.85h3.82v31.59zm-7.39-2.79a6.18 6.18 0 003.27-.86 9.57 9.57 0 002.58-2.42V70.86a6 6 0 00-2.31-2 6.75 6.75 0 00-2.77-.56 5.52 5.52 0 00-4.71 2.17 10.19 10.19 0 00-1.63 6.18 15.25 15.25 0 00.37 3.63 7 7 0 001.07 2.49 4.2 4.2 0 001.74 1.43 5.81 5.81 0 002.39.45zm24.68-19.28a9.81 9.81 0 013.6.65 8.3 8.3 0 012.86 1.89A8.63 8.63 0 01313 71a11.8 11.8 0 01.68 4.13 2.45 2.45 0 01-.2 1.2.78.78 0 01-.72.3h-14.51a12.18 12.18 0 00.56 3.59 7.32 7.32 0 001.41 2.54 5.71 5.71 0 002.15 1.52 7.3 7.3 0 002.79.5 8.21 8.21 0 002.47-.33 11.08 11.08 0 001.79-.72 11.26 11.26 0 001.26-.72 1.64 1.64 0 01.87-.33.85.85 0 01.73.37l1.07 1.39a7.2 7.2 0 01-1.7 1.49 10.35 10.35 0 01-2.11 1 13 13 0 01-2.32.61 14 14 0 01-2.39.21 11.22 11.22 0 01-4.15-.76 9.27 9.27 0 01-3.28-2.24 10.12 10.12 0 01-2.15-3.63 14.63 14.63 0 01-.77-5 12.74 12.74 0 01.69-4.24 10 10 0 012-3.42 9.21 9.21 0 013.19-2.28 10.53 10.53 0 014.26-.81zm.09 2.81a5.89 5.89 0 00-4.36 1.59 7.56 7.56 0 00-2 4.43h11.85a7.84 7.84 0 00-.37-2.43 5.41 5.41 0 00-1.07-1.91 4.7 4.7 0 00-1.76-1.24 5.68 5.68 0 00-2.29-.44z"/><rect class="bc39c019-152b-4962-88f2-494ae7ff2341" x="611.13" y="39.03" width="246.51" height="70.17" rx="5"/><path class="a1d325ba-5bc8-4d95-a1d6-05ac16ab5f03" d="M693.43 56.7v3.39h-14.76V70.3h12v3.26h-12v10.49h14.76v3.39h-18.94V56.7zm2.63 9.01h3.14a1.16 1.16 0 01.8.29 1.24 1.24 0 01.42.55l5.52 14a11.31 11.31 0 01.47 1.54c.11.52.22 1 .32 1.52.11-.5.24-1 .36-1.52a13.14 13.14 0 01.5-1.54l5.57-14a1.36 1.36 0 01.42-.56 1.13 1.13 0 01.72-.23h3l-8.86 21.73h-3.45zm32.75-.34a9.9 9.9 0 013.61.65 8.17 8.17 0 012.85 1.89 8.63 8.63 0 011.87 3 11.58 11.58 0 01.68 4.13 2.48 2.48 0 01-.19 1.2.8.8 0 01-.73.3h-14.46a12.18 12.18 0 00.56 3.59 7.5 7.5 0 001.42 2.54 5.67 5.67 0 002.14 1.52 7.3 7.3 0 002.79.5 8.28 8.28 0 002.48-.33 11.46 11.46 0 001.79-.72 10.22 10.22 0 001.25-.72 1.7 1.7 0 01.87-.33.82.82 0 01.73.37l1.07 1.39a7.15 7.15 0 01-1.69 1.49 10.61 10.61 0 01-2.11 1 13.31 13.31 0 01-2.33.61 13.84 13.84 0 01-2.38.21 11.18 11.18 0 01-4.15-.76 9.09 9.09 0 01-3.28-2.24 10.13 10.13 0 01-2.16-3.63 14.88 14.88 0 01-.77-5 12.49 12.49 0 01.7-4.24 9.86 9.86 0 012-3.42 9.16 9.16 0 013.2-2.28 10.45 10.45 0 014.24-.72zm.09 2.81a5.86 5.86 0 00-4.35 1.59 7.57 7.57 0 00-2 4.43h11.82a7.55 7.55 0 00-.37-2.43 5.41 5.41 0 00-1-1.91 4.75 4.75 0 00-1.72-1.24 5.73 5.73 0 00-2.38-.44zm13.79 19.26V65.71H745a1 1 0 011 .79l.3 2.36a12.44 12.44 0 013.16-2.53 8.3 8.3 0 014-1 7.75 7.75 0 013.14.59 6.05 6.05 0 012.27 1.67 7.41 7.41 0 011.39 2.61 11.42 11.42 0 01.47 3.36v13.88H757V73.6a5.87 5.87 0 00-1.13-3.83 4.22 4.22 0 00-3.44-1.36 6.44 6.44 0 00-3.16.82 10.17 10.17 0 00-2.71 2.21v16zm30.43.34a5.24 5.24 0 01-4-1.44 5.75 5.75 0 01-1.38-4.14V68.91h-2.62a.84.84 0 01-.58-.21.79.79 0 01-.23-.63v-1.52l3.56-.45.88-6.72a.82.82 0 01.28-.52.84.84 0 01.6-.2h1.93v7.48h6.22v2.77h-6.18V82a2.77 2.77 0 00.66 2 2.31 2.31 0 001.72.67 3.25 3.25 0 001-.16 4.9 4.9 0 00.76-.36c.21-.13.4-.24.55-.35a.69.69 0 01.39-.16.67.67 0 01.54.36l1.11 1.83a7.08 7.08 0 01-2.33 1.42 8.06 8.06 0 01-2.88.53zM795 69.29a.83.83 0 01-.79.47 1.46 1.46 0 01-.73-.23c-.27-.16-.6-.33-1-.53a9.18 9.18 0 00-1.4-.53 6.5 6.5 0 00-1.93-.25 5.54 5.54 0 00-1.74.25 4.31 4.31 0 00-1.32.67 3 3 0 00-.83 1 2.59 2.59 0 00-.29 1.23 2.07 2.07 0 00.48 1.4 4.17 4.17 0 001.28 1 10.88 10.88 0 001.8.72c.67.21 1.36.43 2.07.67s1.39.49 2.07.78a7.33 7.33 0 011.8 1.07 4.79 4.79 0 011.27 1.58 4.72 4.72 0 01.49 2.24 7 7 0 01-.54 2.77 6 6 0 01-1.59 2.21 7.43 7.43 0 01-2.57 1.47 10.54 10.54 0 01-3.52.54 11.07 11.07 0 01-4.12-.74 10.56 10.56 0 01-3.13-1.9l.9-1.46a1.41 1.41 0 01.41-.43 1.16 1.16 0 01.62-.15 1.46 1.46 0 01.82.3c.28.2.63.43 1 .67a8.26 8.26 0 001.48.66 6.74 6.74 0 002.18.3 5.8 5.8 0 002-.29 4.06 4.06 0 001.39-.78 3.21 3.21 0 00.83-1.13 3.72 3.72 0 00.26-1.38 2.3 2.3 0 00-.48-1.49 4.08 4.08 0 00-1.27-1 10.62 10.62 0 00-1.82-.72l-2.08-.71c-.7-.23-1.4-.49-2.08-.78a7 7 0 01-1.81-1.11A4.92 4.92 0 01781.8 74a5.19 5.19 0 01-.49-2.37 5.69 5.69 0 01.52-2.39 5.83 5.83 0 011.5-2 7.5 7.5 0 012.42-1.39 9.78 9.78 0 013.28-.51 10.36 10.36 0 013.85.67 9 9 0 013 1.86z"/><path class="bc39c019-152b-4962-88f2-494ae7ff2341" d="M404.33 197.36h1584.43v4H404.33z"/><path class="bc39c019-152b-4962-88f2-494ae7ff2341" d="M1971.4 221l-2.83-2.83 16.78-16.77a3 3 0 000-4.17l-16.68-16.68 2.82-2.83 16.68 16.68a7 7 0 010 9.83z"/><path class="b4069798-e1d3-4412-ba45-31c598487592" d="M40.29 203.2v13.61h-3.63V203.2a7.35 7.35 0 00-1-4.36 3.8 3.8 0 00-3.26-1.39 4.61 4.61 0 00-3.89 1.79 8.4 8.4 0 00-1.37 5.15v12.42H23.5v-22h3.6v3.3a6.92 6.92 0 012.61-2.86 7.54 7.54 0 013.91-1 5.88 5.88 0 015 2.21c1.11 1.54 1.67 3.76 1.67 6.74zm14.44-8.89a8.54 8.54 0 017 3q2.42 3 2.42 8.58t-2.41 8.58a8.53 8.53 0 01-7 2.95 8.5 8.5 0 01-7-2.95q-2.41-3-2.41-8.58t2.41-8.58a8.5 8.5 0 016.99-3zm0 3.06a4.64 4.64 0 00-4.15 2.14c-.95 1.42-1.42 3.54-1.42 6.34a11.49 11.49 0 001.42 6.32 5.11 5.11 0 008.33 0 11.58 11.58 0 001.41-6.32c0-2.8-.47-4.92-1.41-6.34a4.67 4.67 0 00-4.18-2.14zm27.73.28v-11.36h3.61v30.52h-3.61V214a6.26 6.26 0 01-2.4 2.49 7 7 0 01-3.46.85 7.37 7.37 0 01-6.27-3.09c-1.52-2.06-2.29-4.9-2.29-8.52s.77-6.37 2.3-8.41a7.43 7.43 0 016.26-3.05 7.07 7.07 0 013.49.85 5.94 5.94 0 012.37 2.53zm-10.61 8.2a12.1 12.1 0 001.33 6.33 4.36 4.36 0 003.95 2.14 4.41 4.41 0 004-2.16 15.36 15.36 0 000-12.64 4.42 4.42 0 00-4-2.15 4.36 4.36 0 00-3.95 2.14 12.12 12.12 0 00-1.33 6.34zm38.73-1.85v1.77H95v.11c-.11 3 .47 5.15 1.71 6.46a7 7 0 005.29 2 12.73 12.73 0 003.61-.55 21.81 21.81 0 004-1.67v3.59a24.54 24.54 0 01-4 1.27 17.28 17.28 0 01-3.7.42 10.43 10.43 0 01-8-3.07C92 212.26 91 209.44 91 205.85a12.09 12.09 0 012.83-8.4 9.63 9.63 0 017.53-3.14 8.22 8.22 0 016.62 2.85 10.84 10.84 0 012.6 6.84zm-3.58-1a6.91 6.91 0 00-1.66-3.93 5.07 5.07 0 00-4.09-1.66 5.75 5.75 0 00-4.29 1.73 6 6 0 00-1.87 3.86zm8.54-15.48h16.26v3.34h-6.14v22.62h6.14v3.33h-16.26v-3.33h6.14v-22.62h-6.14zm27.66 0q6.72 0 9.89 3.57t3.18 11.11q0 7.49-3.18 11.05t-9.89 3.56h-5.94v-29.29zm-.07 26q5 0 7-2.46t2-8.89q0-6.49-2-9c-1.31-1.64-3.65-2.46-7-2.46h-1.89v22.77z"/><path class="bc39c019-152b-4962-88f2-494ae7ff2341" d="M166 194.86h6.12v7.08H166zm0 14.81h6.12v7.14H166z"/><path class="eceff792-7f90-4d5b-8ca1-07d00d2dc90c" d="M214 186.46v12h-4.4v-12zm10.45 0v12h-4.39v-12zm14.15 1.06h4.8l9 29.29h-4.1l-2.16-7.63h-10.29l-2.12 7.63h-4.1zM241 191l-4.18 15h8.36z"/><path class="eceff792-7f90-4d5b-8ca1-07d00d2dc90c" d="M253.57 187.52h4.26l6.44 11 6.55-11h4.25l-8.76 13.77 9.39 15.52h-4.26l-7.17-12.61-7.75 12.61h-4.28l9.81-15.52zm26.59 25.98h6.16v-22.13l-7.32 3.55v-3.81l7.33-3.49h4v25.88h6.08v3.31h-16.25zm25.01-.02h13.45v3.33h-17.79v-3.33q3.68-3.87 6.41-6.83t3.79-4.18a20.12 20.12 0 002.65-3.87 7.11 7.11 0 00.68-3 5.11 5.11 0 00-1.44-3.85 5.44 5.44 0 00-3.95-1.39 11.75 11.75 0 00-3.75.65 20.74 20.74 0 00-4.15 2v-4a21.56 21.56 0 014-1.46 16.06 16.06 0 013.85-.49 10.17 10.17 0 016.92 2.29 7.58 7.58 0 012.62 6 9 9 0 01-.88 3.77 18.6 18.6 0 01-2.83 4.16c-.73.85-1.8 2-3.19 3.53s-3.56 3.67-6.39 6.67zm30.88-12.34a8.06 8.06 0 014.42 2.71 7.74 7.74 0 011.52 4.88 7.86 7.86 0 01-2.71 6.34q-2.71 2.31-7.52 2.31a24.36 24.36 0 01-4.12-.37 26.56 26.56 0 01-4.12-1.08v-4a18.7 18.7 0 003.94 1.55 15.11 15.11 0 003.86.51 7.6 7.6 0 005-1.47 5.23 5.23 0 001.74-4.23 5.07 5.07 0 00-1.74-4.05 7 7 0 00-4.73-1.5h-3v-3.26h3a6.7 6.7 0 004.25-1.2 4 4 0 001.54-3.33 4.27 4.27 0 00-1.43-3.46 6 6 0 00-4-1.21 17.7 17.7 0 00-3.61.39 25.86 25.86 0 00-3.9 1.18v-3.65c1.58-.42 3-.73 4.23-.94a19.85 19.85 0 013.28-.32 10.32 10.32 0 016.84 2.15 7.05 7.05 0 012.56 5.7 6 6 0 01-1.35 4 7.35 7.35 0 01-3.95 2.35zm21.53-13.62h4.59v19.09h3.9v3.22h-3.9v7h-3.94v-7h-12.42v-3.75zm.65 3.61L349 206.61h9.24zm16.64-4.67v12h-4.39v-12zm10.46 0v12h-4.4v-12z"/><rect class="bd878673-2c3b-4316-83f3-c3267b474011" x="612.63" y="131.4" width="462.82" height="157" rx="3.5"/><path class="bc39c019-152b-4962-88f2-494ae7ff2341" d="M1072 132.9a2 2 0 012 2v150a2 2 0 01-2 2H616.13a2 2 0 01-2-2v-150a2 2 0 012-2H1072m0-3H616.13a5 5 0 00-5 5v150a5 5 0 005 5H1072a5 5 0 005-5v-150a5 5 0 00-5-5z"/><path class="b4069798-e1d3-4412-ba45-31c598487592" d="M639.27 171.82a8.54 8.54 0 017 3c1.62 2 2.42 4.84 2.42 8.58s-.8 6.61-2.41 8.58a9.77 9.77 0 01-14 0c-1.6-2-2.41-4.83-2.41-8.58s.81-6.6 2.41-8.58a8.51 8.51 0 016.99-3zm0 3.06a4.66 4.66 0 00-4.16 2.14c-.94 1.42-1.41 3.54-1.41 6.34a11.58 11.58 0 001.41 6.32 5.12 5.12 0 008.34 0 11.58 11.58 0 001.41-6.32c0-2.8-.47-4.92-1.41-6.34a4.69 4.69 0 00-4.18-2.14zM671 163.8v3h-4.1a3.64 3.64 0 00-2.7.79 4.1 4.1 0 00-.76 2.82v1.94H671v2.81h-7.56v19.16h-3.61v-19.16H654v-2.81h5.86v-1.53c0-2.4.56-4.18 1.66-5.31s2.83-1.71 5.17-1.71zm23 0v3h-4.1a3.64 3.64 0 00-2.7.79 4.1 4.1 0 00-.76 2.82v1.94H694v2.81h-7.56v19.16h-3.6v-19.16H677v-2.81h5.87v-1.53c0-2.4.55-4.18 1.65-5.31s2.83-1.71 5.17-1.71zm21.21 9.32v3.53a13.69 13.69 0 00-3.12-1.36 11.49 11.49 0 00-3.19-.45 6.71 6.71 0 00-3.66.8 3.08 3.08 0 00-.31 4.62q.9.72 4.5 1.41l1.45.27a7.1 7.1 0 014.07 2 5.72 5.72 0 011.38 4 6.15 6.15 0 01-2.31 5.1 10.15 10.15 0 01-6.44 1.83 18.84 18.84 0 01-3.41-.34 33.13 33.13 0 01-3.87-1v-3.73a21.47 21.47 0 003.87 1.56 12.73 12.73 0 003.49.52 6.2 6.2 0 003.71-1 3.21 3.21 0 001.31-2.72q0-2.51-4.8-3.47h-.16l-1.35-.27a8.73 8.73 0 01-4.56-2.05 5.39 5.39 0 01-1.43-3.94 5.9 5.9 0 012.14-4.87 9.51 9.51 0 016.1-1.72 17.12 17.12 0 013.4.33 16 16 0 013.19.95zm25.87 8.41v1.77h-15.64v.11q-.15 4.5 1.72 6.46a7 7 0 005.29 2 12.78 12.78 0 003.61-.55 22.4 22.4 0 004-1.67v3.59a24.63 24.63 0 01-4 1.27 17.12 17.12 0 01-3.69.42 10.45 10.45 0 01-8-3.07q-2.88-3.07-2.88-8.46a12.09 12.09 0 012.82-8.4 9.67 9.67 0 017.54-3.14 8.24 8.24 0 016.62 2.85 11 11 0 012.61 6.82zm-3.61-1.06a7 7 0 00-1.66-3.93 5.08 5.08 0 00-4.09-1.66 5.77 5.77 0 00-4.3 1.73 6.07 6.07 0 00-1.84 3.88zm16.66-14.36v6.24h8.2v2.81h-8.2v11.92a4.93 4.93 0 00.92 3.4 4.38 4.38 0 003.22 1h4.06v2.88h-4.41q-4.06 0-5.73-1.63t-1.67-5.61v-11.96h-5.86v-2.81h5.86v-6.24z"/><path class="bc39c019-152b-4962-88f2-494ae7ff2341" d="M773.48 172.37h6.12v7.08h-6.12zm0 14.81h6.12v7.14h-6.12z"/><path class="f2210f63-6c75-42d2-9013-207afec566a5" d="M816.33 191h6.15v-22.12l-7.37 3.55v-3.81l7.34-3.49h4V191h6.08v3.31h-16.2z"/><path class="bc39c019-152b-4962-88f2-494ae7ff2341" d="M842.68 187.24h6.12v5.2l-4.35 8.45h-3.93l2.16-8.47z"/><path class="b4069798-e1d3-4412-ba45-31c598487592" d="M646.27 232.12v3.53a13.69 13.69 0 00-3.12-1.36 11.56 11.56 0 00-3.2-.45 6.7 6.7 0 00-3.65.8 3.08 3.08 0 00-.31 4.62c.6.48 2.1 1 4.49 1.41l1.45.27a7.1 7.1 0 014.08 2 5.72 5.72 0 011.38 4 6.1 6.1 0 01-2.32 5.09 10 10 0 01-6.43 1.84 18.76 18.76 0 01-3.41-.34 33.13 33.13 0 01-3.87-1v-3.73a21.47 21.47 0 003.87 1.56 12.73 12.73 0 003.49.52 6.22 6.22 0 003.71-1 3.21 3.21 0 001.31-2.72q0-2.51-4.81-3.47h-.15l-1.36-.28a8.54 8.54 0 01-4.55-2 5.35 5.35 0 01-1.43-3.93 5.87 5.87 0 012.14-4.87 9.49 9.49 0 016.1-1.72 17 17 0 013.39.33 16.13 16.13 0 013.2.9zm15.94-7.01v6.24h8.2v2.81h-8.2v11.92a4.93 4.93 0 00.92 3.4 4.38 4.38 0 003.22 1h4.06v2.88H666q-4.05 0-5.72-1.63c-1.12-1.08-1.67-2.95-1.67-5.61v-11.96h-5.87v-2.81h5.87v-6.24zm33.59 10.77a8 8 0 00-2.35-1.31 7.93 7.93 0 00-2.63-.41 6.37 6.37 0 00-5.16 2.11 9.29 9.29 0 00-1.78 6.12v10.93h-3.63v-22h3.63v4.3a7.28 7.28 0 012.77-3.58 7.84 7.84 0 014.44-1.25 8.78 8.78 0 012.5.34 7.78 7.78 0 012.21 1zm22.3 4.65v1.77h-15.64v.11q-.15 4.5 1.72 6.46a7 7 0 005.28 2 12.67 12.67 0 003.61-.55 22.18 22.18 0 004-1.67v3.59a24.63 24.63 0 01-4 1.27 17.12 17.12 0 01-3.69.42q-5.13 0-8-3.07t-2.88-8.46a12.09 12.09 0 012.82-8.4 9.67 9.67 0 017.54-3.14 8.25 8.25 0 016.62 2.85 11 11 0 012.62 6.82zm-3.61-1.06a7 7 0 00-1.66-3.93 5.08 5.08 0 00-4.09-1.66 5.77 5.77 0 00-4.3 1.73 6.07 6.07 0 00-1.84 3.88zm25.39 1.32v12.53h-3.63v-3.26a7.43 7.43 0 01-2.91 2.9 9 9 0 01-4.27.93 7.47 7.47 0 01-5.35-1.89 7.5 7.5 0 01.46-10.65c1.64-1.26 4.05-1.9 7.23-1.9h4.84v-.57a5 5 0 00-1.33-3.81 6.18 6.18 0 00-4.2-1.19 13.88 13.88 0 00-3.73.53 16.22 16.22 0 00-3.67 1.55v-3.61a26.13 26.13 0 013.84-1.15 17.76 17.76 0 013.56-.38 12 12 0 014.66.81 7.29 7.29 0 013.13 2.41 6.17 6.17 0 011.06 2.42 22.79 22.79 0 01.31 4.33zm-7 1.49h-1.2a8.46 8.46 0 00-4.76 1.1 3.78 3.78 0 00-1.59 3.31 4 4 0 001.19 3.08 4.73 4.73 0 003.32 1.1 5.73 5.73 0 004.68-2.07 8.79 8.79 0 001.73-5.72v-.8zm22.47-8.69a4.94 4.94 0 011.65-2.09 4.46 4.46 0 012.49-.68 3.86 3.86 0 013.73 2.05q1.1 2.06 1.09 7.72v12.73h-3.29v-12.57c0-3.1-.18-5-.52-5.78a1.91 1.91 0 00-1.9-1.13 2.14 2.14 0 00-2.14 1.21q-.59 1.2-.58 5.7v12.57h-3.3v-12.57q0-4.71-.56-5.81a2.05 2.05 0 00-2-1.1 2 2 0 00-2 1.21q-.55 1.2-.56 5.7v12.57h-3.27v-22h3.27v1.88a4.79 4.79 0 011.62-1.79 4 4 0 012.21-.62 4.24 4.24 0 012.48.69 4.44 4.44 0 011.58 2.11z"/><path class="bc39c019-152b-4962-88f2-494ae7ff2341" d="M773.48 231.37h6.12v7.08h-6.12zm0 14.81h6.12v7.14h-6.12z"/><path class="eceff792-7f90-4d5b-8ca1-07d00d2dc90c" d="M819.11 223v12h-4.39v-12zm10.46 0v12h-4.4v-12zm14.13 1h4.81l9 29.29h-4.1l-2.16-7.63H841l-2.11 7.63h-4.1zm2.39 3.5l-4.17 15h8.35z"/><path class="eceff792-7f90-4d5b-8ca1-07d00d2dc90c" d="M858.68 224h4.25l6.44 11.05 6.55-11.05h4.26l-8.77 13.77 9.39 15.52h-4.25l-7.18-12.61-7.75 12.61h-4.28l9.81-15.52zm26.59 26h6.16v-22.12l-7.38 3.55v-3.81l7.34-3.49h4V250h6.08v3.32h-16.2zm25 0h13.45v3.33h-17.79V250q3.68-3.87 6.42-6.83c1.83-2 3.09-3.37 3.78-4.18a20.12 20.12 0 002.65-3.87 7.12 7.12 0 00.69-3 5.11 5.11 0 00-1.44-3.85 5.45 5.45 0 00-4-1.39 12 12 0 00-3.74.65 20.55 20.55 0 00-4.16 2v-4a21 21 0 014-1.45 15.67 15.67 0 013.86-.5 10.16 10.16 0 016.91 2.29 7.55 7.55 0 012.62 6 8.93 8.93 0 01-.87 3.77 19 19 0 01-2.84 4.16c-.73.85-1.79 2-3.19 3.53s-3.5 3.67-6.35 6.67zm30.88-12.35a8 8 0 014.42 2.71 7.69 7.69 0 011.53 4.88 7.87 7.87 0 01-2.72 6.34q-2.71 2.31-7.52 2.31a24.36 24.36 0 01-4.12-.37 26.86 26.86 0 01-4.12-1.08v-3.94a18.64 18.64 0 003.94 1.54 15.19 15.19 0 003.87.51 7.55 7.55 0 005-1.47 5.23 5.23 0 001.75-4.23 5.08 5.08 0 00-1.75-4 7 7 0 00-4.73-1.51h-3V236h3a6.75 6.75 0 004.26-1.2 4 4 0 001.53-3.33 4.29 4.29 0 00-1.42-3.46 6.06 6.06 0 00-4.05-1.21 17.55 17.55 0 00-3.61.39 25.62 25.62 0 00-3.91 1.18v-3.65c1.59-.42 3-.73 4.23-.94a20 20 0 013.29-.32 10.29 10.29 0 016.83 2.15 7.07 7.07 0 012.56 5.7 6.08 6.08 0 01-1.34 4 7.38 7.38 0 01-3.92 2.34zM962.68 224h4.59v19.09h3.91v3.22h-3.91v7h-3.94v-7h-12.42v-3.75zm.65 3.61l-9.24 15.48h9.24zm10.56 11.51h20.8v3.31h-20.8zM1007 223.6a7.85 7.85 0 017.09 3.83q2.4 3.82 2.4 11.32t-2.4 11.31a8.47 8.47 0 01-14.17 0q-2.4-3.83-2.4-11.31t2.4-11.32a7.82 7.82 0 017.08-3.83zm0 3.14c-1.85 0-3.22 1-4.13 3s-1.36 5-1.36 9.05a33.62 33.62 0 00.37 5.17l9.14-14.57a4.52 4.52 0 00-4.02-2.65zm0 24a4.42 4.42 0 004.15-3q1.36-3 1.36-9a39.82 39.82 0 00-.39-5.85l-9.34 14.61q1.43 3.25 4.22 3.25zm18.94-27.74v12h-4.4v-12zm10.45 0v12H1032v-12z"/><rect class="bd878673-2c3b-4316-83f3-c3267b474011" x="1110.91" y="131.4" width="462.82" height="157" rx="3.5"/><path class="bc39c019-152b-4962-88f2-494ae7ff2341" d="M1570.23 132.9a2 2 0 012 2v150a2 2 0 01-2 2h-455.82a2 2 0 01-2-2v-150a2 2 0 012-2h455.82m0-3h-455.82a5 5 0 00-5 5v150a5 5 0 005 5h455.82a5 5 0 005-5v-150a5 5 0 00-5-5z"/><path class="b4069798-e1d3-4412-ba45-31c598487592" d="M1137.55 171.82a8.54 8.54 0 017 3q2.42 3 2.42 8.58t-2.41 8.58a9.77 9.77 0 01-14 0q-2.41-3-2.41-8.58t2.41-8.58a8.51 8.51 0 016.99-3zm0 3.06a4.65 4.65 0 00-4.16 2.14c-1 1.42-1.42 3.54-1.42 6.34a11.49 11.49 0 001.42 6.32 5.11 5.11 0 008.33 0 14.82 14.82 0 000-12.66 4.66 4.66 0 00-4.17-2.14zm31.74-11.08v3h-4.1a3.63 3.63 0 00-2.69.79 4.05 4.05 0 00-.76 2.82v1.94h7.55v2.81h-7.55v19.16h-3.61v-19.16h-5.86v-2.81h5.86v-1.53c0-2.4.55-4.18 1.66-5.31s2.83-1.71 5.17-1.71zm22.98 0v3h-4.09a3.64 3.64 0 00-2.7.79 4.05 4.05 0 00-.76 2.82v1.94h7.55v2.81h-7.55v19.16h-3.61v-19.16h-5.86v-2.81h5.86v-1.53c0-2.4.56-4.18 1.66-5.31s2.83-1.71 5.17-1.71zm21.22 9.32v3.53a13.69 13.69 0 00-3.12-1.36 11.56 11.56 0 00-3.2-.45 6.7 6.7 0 00-3.65.8 3.08 3.08 0 00-.31 4.62c.6.48 2.1 1 4.49 1.41l1.45.27a7 7 0 014.07 2 5.68 5.68 0 011.39 4 6.13 6.13 0 01-2.32 5.1 10.1 10.1 0 01-6.43 1.83 18.76 18.76 0 01-3.41-.34 33.13 33.13 0 01-3.87-1v-3.73a21.47 21.47 0 003.87 1.56 12.73 12.73 0 003.49.52 6.17 6.17 0 003.7-1 3.19 3.19 0 001.32-2.72q0-2.51-4.81-3.47h-.15l-1.36-.27a8.7 8.7 0 01-4.55-2.05 5.39 5.39 0 01-1.43-3.94 5.87 5.87 0 012.14-4.87 9.49 9.49 0 016.1-1.72 17 17 0 013.39.33 16.13 16.13 0 013.2.95zm25.86 8.41v1.77h-15.63v.11q-.15 4.5 1.72 6.46a7 7 0 005.28 2 12.73 12.73 0 003.61-.55 21.81 21.81 0 004-1.67v3.59a24.23 24.23 0 01-4 1.27 17.21 17.21 0 01-3.7.42 10.43 10.43 0 01-8-3.07q-2.88-3.07-2.88-8.46a12.09 12.09 0 012.82-8.4 9.66 9.66 0 017.53-3.14 8.22 8.22 0 016.62 2.85 10.84 10.84 0 012.63 6.82zm-3.61-1.06a6.92 6.92 0 00-1.65-3.93 5.08 5.08 0 00-4.09-1.66 5.77 5.77 0 00-4.3 1.73 6.07 6.07 0 00-1.84 3.88zm16.67-14.36v6.24h8.2v2.81h-8.2v11.92a4.93 4.93 0 00.92 3.4 4.38 4.38 0 003.22 1h4.06v2.88h-4.42q-4.05 0-5.72-1.63t-1.67-5.61v-11.96h-5.87v-2.81h5.87v-6.24z"/><path class="bc39c019-152b-4962-88f2-494ae7ff2341" d="M1271.76 172.37h6.12v7.08h-6.12zm0 14.81h6.12v7.14h-6.12z"/><path class="f2210f63-6c75-42d2-9013-207afec566a5" d="M1316.62 191h13.46v3.33h-17.79V191q3.66-3.87 6.41-6.83c1.83-2 3.1-3.37 3.79-4.18a20.12 20.12 0 002.65-3.87 7.26 7.26 0 00.68-3 5.11 5.11 0 00-1.44-3.85 5.44 5.44 0 00-4-1.39 12 12 0 00-3.75.65 20.8 20.8 0 00-4.16 2v-4a20.88 20.88 0 014-1.45 15.59 15.59 0 013.85-.5 10.19 10.19 0 016.92 2.29 7.57 7.57 0 012.61 6 8.93 8.93 0 01-.87 3.77 19 19 0 01-2.83 4.16c-.74.85-1.8 2-3.19 3.53s-3.49 3.67-6.34 6.67z"/><path class="bc39c019-152b-4962-88f2-494ae7ff2341" d="M1341 187.24h6.12v5.2l-4.36 8.45h-3.92l2.16-8.47z"/><path class="b4069798-e1d3-4412-ba45-31c598487592" d="M1144.55 232.12v3.53a13.88 13.88 0 00-3.12-1.36 11.56 11.56 0 00-3.2-.45 6.76 6.76 0 00-3.66.8 2.7 2.7 0 00-1.2 2.42 2.67 2.67 0 00.9 2.2c.6.48 2.1 1 4.49 1.41l1.45.27a7.07 7.07 0 014.07 2 5.68 5.68 0 011.39 4 6.13 6.13 0 01-2.32 5.09 10.06 10.06 0 01-6.43 1.84 18.86 18.86 0 01-3.42-.34 33 33 0 01-3.86-1v-3.73a21.39 21.39 0 003.86 1.56 12.8 12.8 0 003.5.52 6.17 6.17 0 003.7-1 3.19 3.19 0 001.32-2.72q0-2.51-4.81-3.47h-.15l-1.36-.28a8.51 8.51 0 01-4.55-2 5.35 5.35 0 01-1.43-3.93 5.87 5.87 0 012.14-4.87 9.49 9.49 0 016.1-1.72 17 17 0 013.39.33 16.13 16.13 0 013.2.9zm15.94-7.01v6.24h8.2v2.81h-8.2v11.92a4.87 4.87 0 00.92 3.4 4.36 4.36 0 003.22 1h4.06v2.88h-4.42c-2.71 0-4.61-.54-5.73-1.63s-1.66-2.95-1.66-5.61v-11.96H1151v-2.81h5.87v-6.24zm33.59 10.77a8.06 8.06 0 00-2.36-1.31 7.83 7.83 0 00-2.62-.41 6.37 6.37 0 00-5.16 2.11 9.29 9.29 0 00-1.79 6.12v10.93h-3.63v-22h3.63v4.3a7.3 7.3 0 012.78-3.58 7.84 7.84 0 014.44-1.25 8.66 8.66 0 012.49.34 8 8 0 012.22 1zm22.29 4.65v1.77h-15.63v.11q-.15 4.5 1.72 6.46a6.93 6.93 0 005.28 2 12.73 12.73 0 003.61-.55 21.81 21.81 0 004-1.67v3.59a24.23 24.23 0 01-4 1.27 17.21 17.21 0 01-3.7.42 10.43 10.43 0 01-8-3.07q-2.88-3.07-2.88-8.46a12.09 12.09 0 012.82-8.4 9.65 9.65 0 017.53-3.14 8.22 8.22 0 016.62 2.85 10.84 10.84 0 012.63 6.82zm-3.61-1.06a7 7 0 00-1.65-3.93 5.08 5.08 0 00-4.09-1.66 5.77 5.77 0 00-4.3 1.73 6.07 6.07 0 00-1.84 3.88zm25.4 1.32v12.53h-3.63v-3.26a7.43 7.43 0 01-2.91 2.9 9 9 0 01-4.27.93A7.5 7.5 0 011222 252a6.69 6.69 0 01-2-5.07 6.61 6.61 0 012.47-5.58c1.64-1.26 4-1.9 7.22-1.9h4.85v-.57a4.93 4.93 0 00-1.34-3.81 6.13 6.13 0 00-4.19-1.19 13.88 13.88 0 00-3.73.53 16.22 16.22 0 00-3.67 1.55v-3.61a25.77 25.77 0 013.84-1.15 17.76 17.76 0 013.56-.38 12.07 12.07 0 014.66.81 7.26 7.26 0 013.12 2.41 6 6 0 011.06 2.42 21.82 21.82 0 01.31 4.33zm-7 1.49H1230a8.46 8.46 0 00-4.76 1.1 3.79 3.79 0 00-1.6 3.31 4 4 0 001.2 3.08 4.72 4.72 0 003.31 1.1 5.74 5.74 0 004.69-2.07 8.79 8.79 0 001.73-5.72v-.8zm22.47-8.69a4.94 4.94 0 011.69-2.09 4.45 4.45 0 012.48-.68 3.88 3.88 0 013.74 2.05q1.1 2.06 1.09 7.72v12.73h-3.3v-12.57q0-4.65-.52-5.78a1.89 1.89 0 00-1.89-1.13 2.16 2.16 0 00-2.15 1.21c-.38.8-.58 2.7-.58 5.7v12.57h-3.29v-12.57q0-4.71-.56-5.81a2.05 2.05 0 00-2-1.1 2 2 0 00-2 1.21q-.55 1.2-.56 5.7v12.57h-3.28v-22h3.28v1.88a4.79 4.79 0 011.62-1.79 4 4 0 012.2-.62 4.25 4.25 0 012.49.69 4.44 4.44 0 011.54 2.11z"/><path class="bc39c019-152b-4962-88f2-494ae7ff2341" d="M1271.76 231.37h6.12v7.08h-6.12zm0 14.81h6.12v7.14h-6.12z"/><path class="eceff792-7f90-4d5b-8ca1-07d00d2dc90c" d="M1317.39 223v12H1313v-12zm10.45 0v12h-4.39v-12zm14.16 1h4.8l9 29.29h-4.1l-2.16-7.63h-10.26l-2.12 7.63H1333zm2.39 3.5l-4.18 15h8.36z"/><path class="eceff792-7f90-4d5b-8ca1-07d00d2dc90c" d="M1357 224h4.25l6.44 11.05 6.51-11.05h4.25l-8.76 13.77 9.39 15.52h-4.25l-7.18-12.61-7.75 12.61h-4.28l9.81-15.52zm26.55 26h6.15v-22.12l-7.37 3.55v-3.81l7.34-3.49h4V250h6.08v3.32h-16.16zm25 0H1422v3.33h-17.79V250q3.68-3.87 6.42-6.83c1.83-2 3.09-3.37 3.78-4.18a20.12 20.12 0 002.65-3.87 7.12 7.12 0 00.69-3 5.11 5.11 0 00-1.44-3.85 5.46 5.46 0 00-4-1.39 11.93 11.93 0 00-3.74.65 20.55 20.55 0 00-4.16 2v-4a20.8 20.8 0 014-1.45 15.65 15.65 0 013.85-.5 10.17 10.17 0 016.92 2.29 7.58 7.58 0 012.62 6 8.8 8.8 0 01-.88 3.77 18.6 18.6 0 01-2.83 4.16c-.73.85-1.79 2-3.19 3.53s-3.5 3.67-6.35 6.67zm30.88-12.35a8 8 0 014.42 2.71 7.69 7.69 0 011.53 4.88 7.87 7.87 0 01-2.72 6.34q-2.72 2.31-7.52 2.31a24.36 24.36 0 01-4.12-.37 26.56 26.56 0 01-4.12-1.08v-3.94a18.64 18.64 0 003.94 1.54 15.17 15.17 0 003.86.51 7.58 7.58 0 005-1.47 5.23 5.23 0 001.74-4.23 5.07 5.07 0 00-1.74-4 7 7 0 00-4.73-1.51h-3V236h3a6.75 6.75 0 004.26-1.2 4 4 0 001.53-3.33 4.27 4.27 0 00-1.43-3.46 6 6 0 00-4-1.21 17.7 17.7 0 00-3.61.39 25.86 25.86 0 00-3.9 1.18v-3.65c1.58-.42 3-.73 4.23-.94a19.85 19.85 0 013.28-.32 10.32 10.32 0 016.84 2.15 7.07 7.07 0 012.56 5.7 6.08 6.08 0 01-1.34 4 7.42 7.42 0 01-3.96 2.34zM1461 224h4.59v19.09h3.91v3.22h-3.91v7h-3.94v-7h-12.42v-3.75zm.65 3.61l-9.24 15.48h9.24zm10.52 11.51H1493v3.31h-20.8zm33.07-15.52a7.86 7.86 0 017.09 3.83q2.4 3.82 2.4 11.32t-2.4 11.31a8.48 8.48 0 01-14.18 0q-2.39-3.83-2.39-11.31t2.39-11.32a7.84 7.84 0 017.09-3.83zm0 3.14c-1.85 0-3.22 1-4.13 3s-1.37 5-1.37 9.05a33.58 33.58 0 00.38 5.17l9.14-14.57a4.52 4.52 0 00-4.02-2.65zm0 24a4.41 4.41 0 004.14-3q1.36-3 1.37-9a38.41 38.41 0 00-.4-5.85l-9.35 14.62c1 2.16 2.4 3.24 4.24 3.24zm18.98-27.74v12h-4.4v-12zm10.45 0v12h-4.39v-12z"/><path class="fd450c3c-c948-439a-b485-34db7b526a52" d="M1761 153.67v4a15.56 15.56 0 00-3.62-1.74 11.81 11.81 0 00-3.65-.59 6.92 6.92 0 00-4.44 1.3 4.3 4.3 0 00-1.63 3.52 3.92 3.92 0 001.07 3 8.93 8.93 0 004 1.7l2.07.47a11.52 11.52 0 016 3 8 8 0 011.88 5.61 7.88 7.88 0 01-2.59 6.38c-1.72 1.46-4.24 2.2-7.53 2.2a20.24 20.24 0 01-4.14-.44 23.51 23.51 0 01-4.18-1.33v-4.22a19.28 19.28 0 004.27 2.1 12.64 12.64 0 004 .67 7.29 7.29 0 004.67-1.34 5.26 5.26 0 00.52-7.11 8.07 8.07 0 00-4-1.79l-2.12-.49a11.85 11.85 0 01-5.93-2.79 6.79 6.79 0 01-1.84-5 8 8 0 012.64-6.28 10.09 10.09 0 017-2.37 18 18 0 013.55.38 27.37 27.37 0 014 1.16zm16.35.08V160h8.2v2.8h-8.2v11.93a4.9 4.9 0 00.92 3.39 4.38 4.38 0 003.22 1h4.06V182h-4.41q-4.07 0-5.73-1.63t-1.67-5.61v-11.97h-5.86V160h5.86v-6.24zm34.8 10.77a8.14 8.14 0 00-2.35-1.31 7.93 7.93 0 00-2.63-.42 6.38 6.38 0 00-5.16 2.12 9.25 9.25 0 00-1.79 6.12V182h-3.62v-22h3.62v4.29a7.4 7.4 0 012.78-3.58 7.84 7.84 0 014.44-1.24 9 9 0 012.49.33 8 8 0 012.22 1zm23.5 4.65v1.76H1820v.12q-.16 4.5 1.71 6.45a7 7 0 005.29 2 13.15 13.15 0 003.61-.55 22.4 22.4 0 004-1.67v3.59a24.46 24.46 0 01-4 1.26 16.7 16.7 0 01-3.7.43 10.46 10.46 0 01-8-3.07q-2.89-3.08-2.89-8.47a12 12 0 012.83-8.39 9.6 9.6 0 017.53-3.14 8.26 8.26 0 016.62 2.84 11 11 0 012.65 6.84zm-3.61-1.06a7 7 0 00-1.66-3.93 5.08 5.08 0 00-4.09-1.66 5.73 5.73 0 00-4.29 1.72 6.13 6.13 0 00-1.85 3.89zm26.6 1.31V182H1855v-3.3a7.4 7.4 0 01-2.91 2.89 8.92 8.92 0 01-4.27.94 7.42 7.42 0 01-5.35-1.9 7.46 7.46 0 01.46-10.64q2.46-1.91 7.22-1.9h4.85v-.57a5 5 0 00-1.33-3.81 6.13 6.13 0 00-4.2-1.19 13.88 13.88 0 00-3.73.53 16.22 16.22 0 00-3.67 1.55V161a25.77 25.77 0 013.84-1.15 17.76 17.76 0 013.56-.38 12.23 12.23 0 014.66.8 7.31 7.31 0 013.13 2.42 6.16 6.16 0 011 2.42 21.77 21.77 0 01.38 4.31zm-7 1.49h-1.2a8.37 8.37 0 00-4.76 1.11 3.78 3.78 0 00-1.6 3.31 4 4 0 001.2 3.08 4.73 4.73 0 003.32 1.1 5.73 5.73 0 004.68-2.07 8.79 8.79 0 001.73-5.72v-.81zm23.67-8.69a4.92 4.92 0 011.7-2.08 4.33 4.33 0 012.48-.68 3.88 3.88 0 013.74 2c.72 1.37 1.09 3.94 1.09 7.72V182H1881v-12.62q0-4.65-.52-5.77a1.91 1.91 0 00-1.89-1.13 2.16 2.16 0 00-2.15 1.21q-.59 1.2-.58 5.69V182h-3.29v-12.62c0-3.13-.19-5.07-.56-5.8a2.07 2.07 0 00-2-1.1 2 2 0 00-2 1.21q-.55 1.2-.55 5.69V182h-3.28v-22h3.28v1.88a4.85 4.85 0 011.61-1.79 4 4 0 012.21-.62 4.24 4.24 0 012.48.69 4.41 4.41 0 011.55 2.06zm47.2-9.98a7.86 7.86 0 017.09 3.82q2.4 3.84 2.4 11.32t-2.4 11.32a8.47 8.47 0 01-14.17 0q-2.4-3.82-2.4-11.32t2.4-11.32a7.83 7.83 0 017.08-3.82zm0 3.14c-1.85 0-3.22 1-4.13 3s-1.37 5-1.37 9a33.71 33.71 0 00.38 5.18l9.14-14.57a4.52 4.52 0 00-4.02-2.61zm0 24a4.42 4.42 0 004.15-3c.9-2 1.36-5 1.36-9.05a39.78 39.78 0 00-.39-5.84l-9.34 14.61q1.47 3.29 4.22 3.29z"/><rect class="bd878673-2c3b-4316-83f3-c3267b474011" x="1612.89" y="172.67" width="85.45" height="52.69" rx="5"/><path class="bc39c019-152b-4962-88f2-494ae7ff2341" d="M1638.67 201a3.3 3.3 0 01.18-1.1 2.76 2.76 0 01.54-.89 2.34 2.34 0 01.89-.6 3.29 3.29 0 011.23-.22 3.44 3.44 0 011.25.22 2.37 2.37 0 01.9.6 2.47 2.47 0 01.55.89 3.3 3.3 0 01.19 1.1 3.12 3.12 0 01-.19 1.07 2.44 2.44 0 01-1.45 1.45 3.45 3.45 0 01-1.25.21 3.3 3.3 0 01-1.23-.21 2.41 2.41 0 01-.89-.58 2.77 2.77 0 01-.54-.87 3.12 3.12 0 01-.18-1.07zm17.68 0a3.3 3.3 0 01.18-1.1 2.76 2.76 0 01.54-.89 2.34 2.34 0 01.89-.6 3.29 3.29 0 011.23-.22 3.44 3.44 0 011.25.22 2.37 2.37 0 01.9.6 2.47 2.47 0 01.55.89 3.3 3.3 0 01.19 1.1 3.12 3.12 0 01-.19 1.07 2.44 2.44 0 01-1.45 1.45 3.45 3.45 0 01-1.25.21 3.3 3.3 0 01-1.23-.21 2.41 2.41 0 01-.89-.58 2.77 2.77 0 01-.54-.87 3.12 3.12 0 01-.18-1.07zm17.65 0a3.3 3.3 0 01.18-1.1 2.76 2.76 0 01.54-.89 2.34 2.34 0 01.89-.6 3.29 3.29 0 011.23-.22 3.44 3.44 0 011.25.22 2.37 2.37 0 01.9.6 2.62 2.62 0 01.55.89 3.3 3.3 0 01.19 1.1 3.12 3.12 0 01-.19 1.07 2.63 2.63 0 01-.55.87 2.45 2.45 0 01-.9.58 3.45 3.45 0 01-1.25.21 3.3 3.3 0 01-1.23-.21 2.41 2.41 0 01-.89-.58 2.77 2.77 0 01-.54-.87 3.12 3.12 0 01-.18-1.07zm314.21 253.68H626.57c-67.88 0-94.86-67.88-121-133.52-24.5-61.61-47.64-119.8-102-119.8v-4c25.73 0 47.1 12.54 65.32 38.35 16.09 22.78 27.91 52.51 40.42 84 25.61 64.39 52.09 131 117.25 131h1361.65z"/><path class="bc39c019-152b-4962-88f2-494ae7ff2341" d="M1971.4 475l-2.83-2.83 16.78-16.77a3 3 0 000-4.17l-16.68-16.68 2.82-2.83 16.68 16.68a7 7 0 010 9.83z"/><path class="fd450c3c-c948-439a-b485-34db7b526a52" d="M1761 407.63v4a16 16 0 00-3.62-1.75 11.81 11.81 0 00-3.65-.59 6.93 6.93 0 00-4.44 1.31 4.29 4.29 0 00-1.63 3.52 3.92 3.92 0 001.07 3 9 9 0 004 1.71l2.07.47a11.52 11.52 0 016 3 8 8 0 011.88 5.61 7.9 7.9 0 01-2.59 6.38c-1.72 1.46-4.24 2.19-7.53 2.19a19.56 19.56 0 01-4.14-.44 22.67 22.67 0 01-4.18-1.32v-4.22a20.2 20.2 0 004.27 2.1 12.92 12.92 0 004 .67 7.24 7.24 0 004.67-1.35 5.26 5.26 0 00.52-7.11 8.08 8.08 0 00-4-1.78l-2.12-.49a12 12 0 01-5.93-2.79 6.79 6.79 0 01-1.84-5 8 8 0 012.64-6.29 10.13 10.13 0 017-2.36 18 18 0 013.55.38 27.37 27.37 0 014 1.15zm16.35.08v6.23h8.2v2.81h-8.2v11.92a4.91 4.91 0 00.92 3.4 4.38 4.38 0 003.22 1h4.06v2.88h-4.41q-4.07 0-5.73-1.62t-1.67-5.62v-11.96h-5.86v-2.81h5.86v-6.23zm34.8 10.77a7.54 7.54 0 00-5-1.73 6.38 6.38 0 00-5.16 2.12 9.25 9.25 0 00-1.79 6.12v10.92h-3.62v-22h3.62v4.3a7.36 7.36 0 012.78-3.58 7.84 7.84 0 014.44-1.25 9 9 0 012.49.34 8 8 0 012.22 1zm23.5 4.64v1.77H1820v.11q-.16 4.49 1.71 6.45a7 7 0 005.29 2 12.78 12.78 0 003.61-.55 22.31 22.31 0 004-1.66v3.58a23.59 23.59 0 01-4 1.27 17.28 17.28 0 01-3.7.42 10.43 10.43 0 01-8-3.07c-1.93-2-2.89-4.87-2.89-8.46a12.06 12.06 0 012.83-8.4 9.63 9.63 0 017.53-3.14 8.24 8.24 0 016.62 2.85 11 11 0 012.65 6.83zm-3.61-1.06a7 7 0 00-1.66-3.93 5.11 5.11 0 00-4.09-1.66 5.73 5.73 0 00-4.29 1.73 6.1 6.1 0 00-1.85 3.88zm26.6 1.32v12.53H1855v-3.25a7.47 7.47 0 01-2.91 2.89 9 9 0 01-4.27.93 7.45 7.45 0 01-5.35-1.89 7.46 7.46 0 01.46-10.64q2.46-1.9 7.22-1.91h4.85v-.56a5 5 0 00-1.33-3.82 6.18 6.18 0 00-4.2-1.19 13.88 13.88 0 00-3.73.53 16.69 16.69 0 00-3.67 1.55v-3.61a24.55 24.55 0 013.84-1.14 17.08 17.08 0 013.56-.39 12 12 0 014.66.81 7.29 7.29 0 013.13 2.41 6.22 6.22 0 011 2.42 21.89 21.89 0 01.38 4.33zm-7 1.49h-1.2a8.37 8.37 0 00-4.76 1.11 3.77 3.77 0 00-1.6 3.3 4 4 0 001.2 3.08 4.69 4.69 0 003.32 1.1 5.73 5.73 0 004.68-2.07 8.77 8.77 0 001.73-5.72v-.8zm23.67-8.69a5 5 0 011.7-2.09 4.4 4.4 0 012.48-.68 3.89 3.89 0 013.74 2c.72 1.37 1.09 3.94 1.09 7.72v12.73H1881v-12.52q0-4.65-.52-5.78a1.9 1.9 0 00-1.89-1.12 2.17 2.17 0 00-2.15 1.2q-.59 1.22-.58 5.7v12.57h-3.29v-12.57c0-3.14-.19-5.07-.56-5.81a2.07 2.07 0 00-2-1.09 2 2 0 00-2 1.2q-.55 1.22-.55 5.7v12.57h-3.28v-22h3.28v1.89a4.81 4.81 0 011.61-1.8 4.07 4.07 0 012.21-.62 4.24 4.24 0 012.48.69 4.44 4.44 0 011.55 2.11zm40.41 16.42h6.16v-22.13l-7.38 3.53v-3.8l7.34-3.49h4v25.89h6.08v3.31h-16.16z"/><rect class="bd878673-2c3b-4316-83f3-c3267b474011" x="1612.89" y="426.63" width="85.45" height="52.69" rx="5"/><path class="bc39c019-152b-4962-88f2-494ae7ff2341" d="M1638.67 455a3.3 3.3 0 01.18-1.1 2.87 2.87 0 01.54-.89 2.59 2.59 0 01.89-.6 3.3 3.3 0 011.23-.21 3.45 3.45 0 011.25.21 2.63 2.63 0 01.9.6 2.56 2.56 0 01.55.89 3.3 3.3 0 01.19 1.1 3.12 3.12 0 01-.19 1.07 2.31 2.31 0 01-.55.87 2.33 2.33 0 01-.9.58 3.45 3.45 0 01-1.25.21 3.3 3.3 0 01-1.23-.21 2.3 2.3 0 01-.89-.58 2.56 2.56 0 01-.54-.87 3.12 3.12 0 01-.18-1.07zm17.68 0a3.3 3.3 0 01.18-1.1 2.87 2.87 0 01.54-.89 2.59 2.59 0 01.89-.6 3.3 3.3 0 011.23-.21 3.45 3.45 0 011.25.21 2.63 2.63 0 01.9.6 2.56 2.56 0 01.55.89 3.3 3.3 0 01.19 1.1 3.12 3.12 0 01-.19 1.07 2.31 2.31 0 01-.55.87 2.33 2.33 0 01-.9.58 3.45 3.45 0 01-1.25.21 3.3 3.3 0 01-1.23-.21 2.3 2.3 0 01-.89-.58 2.56 2.56 0 01-.54-.87 3.12 3.12 0 01-.18-1.07zm17.65 0a3.3 3.3 0 01.18-1.1 2.87 2.87 0 01.54-.89 2.59 2.59 0 01.89-.6 3.3 3.3 0 011.23-.21 3.45 3.45 0 011.25.21 2.63 2.63 0 01.9.6 2.72 2.72 0 01.55.89 3.3 3.3 0 01.19 1.1 3.12 3.12 0 01-.19 1.07 2.44 2.44 0 01-.55.87 2.33 2.33 0 01-.9.58 3.45 3.45 0 01-1.25.21 3.3 3.3 0 01-1.23-.21 2.3 2.3 0 01-.89-.58 2.56 2.56 0 01-.54-.87 3.12 3.12 0 01-.18-1.07z"/><rect class="bd878673-2c3b-4316-83f3-c3267b474011" x="612.63" y="381.39" width="462.82" height="157" rx="3.5"/><path class="bc39c019-152b-4962-88f2-494ae7ff2341" d="M1072 382.89a2 2 0 012 2v150a2 2 0 01-2 2H616.13a2 2 0 01-2-2v-150a2 2 0 012-2H1072m0-3H616.13a5 5 0 00-5 5v150a5 5 0 005 5H1072a5 5 0 005-5v-150a5 5 0 00-5-5z"/><path class="b4069798-e1d3-4412-ba45-31c598487592" d="M639.27 423.78a8.54 8.54 0 017 3c1.62 2 2.42 4.84 2.42 8.58s-.8 6.61-2.41 8.58a9.77 9.77 0 01-14 0c-1.6-2-2.41-4.83-2.41-8.58s.81-6.6 2.41-8.58a8.51 8.51 0 016.99-3zm0 3.06a4.66 4.66 0 00-4.16 2.14 14.91 14.91 0 000 12.66 5.12 5.12 0 008.34 0 14.91 14.91 0 000-12.66 4.69 4.69 0 00-4.18-2.14zM671 415.76v3h-4.1a3.64 3.64 0 00-2.7.79 4.1 4.1 0 00-.76 2.82v1.94H671v2.81h-7.56v19.16h-3.61v-19.16H654v-2.81h5.86v-1.53c0-2.4.56-4.18 1.66-5.31s2.83-1.71 5.17-1.71zm23 0v3h-4.1a3.64 3.64 0 00-2.7.79 4.1 4.1 0 00-.76 2.82v1.94H694v2.81h-7.56v19.16h-3.6v-19.16H677v-2.81h5.87v-1.53c0-2.4.55-4.18 1.65-5.31s2.83-1.71 5.17-1.71zm21.21 9.32v3.53a13.69 13.69 0 00-3.12-1.36 11.49 11.49 0 00-3.19-.45 6.71 6.71 0 00-3.66.8 3.08 3.08 0 00-.31 4.62q.9.72 4.5 1.41l1.45.27a7.1 7.1 0 014.07 2 5.73 5.73 0 011.38 4A6.15 6.15 0 01714 445a10.15 10.15 0 01-6.44 1.83 18.84 18.84 0 01-3.41-.34 33.13 33.13 0 01-3.87-1v-3.73a21.47 21.47 0 003.87 1.56 12.73 12.73 0 003.49.52 6.13 6.13 0 003.71-1 3.2 3.2 0 001.31-2.72q0-2.5-4.8-3.47h-.16l-1.35-.27a8.73 8.73 0 01-4.56-2.05 5.39 5.39 0 01-1.43-3.94 5.9 5.9 0 012.14-4.87 9.51 9.51 0 016.1-1.72 17.12 17.12 0 013.4.33 16.72 16.72 0 013.21.95zm25.87 8.41v1.77h-15.64v.11q-.15 4.5 1.72 6.46a7 7 0 005.29 2 12.78 12.78 0 003.61-.55 22.4 22.4 0 004-1.67v3.59a23.68 23.68 0 01-4 1.27 17.12 17.12 0 01-3.69.42 10.45 10.45 0 01-8-3.07q-2.88-3.07-2.88-8.46a12.09 12.09 0 012.82-8.4 9.67 9.67 0 017.54-3.14 8.24 8.24 0 016.62 2.85 11 11 0 012.61 6.82zm-3.61-1.06a7 7 0 00-1.66-3.93 5.08 5.08 0 00-4.09-1.66 5.77 5.77 0 00-4.3 1.73 6.07 6.07 0 00-1.84 3.88zm16.66-14.36v6.24h8.2v2.81h-8.2V439a4.93 4.93 0 00.92 3.4 4.38 4.38 0 003.22 1h4.06v2.88h-4.41q-4.06 0-5.73-1.63t-1.67-5.65v-11.88h-5.86v-2.81h5.86v-6.24z"/><path class="bc39c019-152b-4962-88f2-494ae7ff2341" d="M773.48 424.33h6.12v7.08h-6.12zm0 14.81h6.12v7.14h-6.12z"/><path class="f2210f63-6c75-42d2-9013-207afec566a5" d="M816.33 443h6.15v-22.16l-7.37 3.55v-3.81l7.34-3.49h4V443h6.08v3.31h-16.2z"/><path class="bc39c019-152b-4962-88f2-494ae7ff2341" d="M842.68 439.2h6.12v5.2l-4.35 8.45h-3.93l2.16-8.47z"/><path class="b4069798-e1d3-4412-ba45-31c598487592" d="M646.27 484.08v3.53a14.15 14.15 0 00-3.12-1.36 11.56 11.56 0 00-3.2-.45 6.7 6.7 0 00-3.65.8 3.08 3.08 0 00-.31 4.62c.6.48 2.1.95 4.49 1.41l1.45.27a7.1 7.1 0 014.08 2 5.73 5.73 0 011.38 4 6.13 6.13 0 01-2.32 5.09 10.1 10.1 0 01-6.43 1.83 18.76 18.76 0 01-3.41-.34 33.13 33.13 0 01-3.87-1v-3.73a21.47 21.47 0 003.87 1.56 12.73 12.73 0 003.49.52 6.15 6.15 0 003.71-1 3.2 3.2 0 001.31-2.72q0-2.5-4.81-3.47h-.15l-1.36-.27a8.7 8.7 0 01-4.55-2.05 5.39 5.39 0 01-1.43-3.94 5.87 5.87 0 012.14-4.87 9.49 9.49 0 016.1-1.72 17.13 17.13 0 016.59 1.3zm15.94-7.01v6.24h8.2v2.81h-8.2V498a4.93 4.93 0 00.92 3.4 4.38 4.38 0 003.22 1h4.06v2.88H666q-4.05 0-5.72-1.63c-1.12-1.08-1.67-2.95-1.67-5.61v-11.92h-5.87v-2.81h5.87v-6.24zm33.59 10.77a8 8 0 00-2.35-1.31 7.93 7.93 0 00-2.63-.41 6.37 6.37 0 00-5.16 2.11 9.3 9.3 0 00-1.78 6.13v10.92h-3.63v-22h3.63v4.3a7.28 7.28 0 012.77-3.58 7.84 7.84 0 014.44-1.25 8.78 8.78 0 012.5.34 7.78 7.78 0 012.21 1zm22.3 4.65v1.77h-15.64v.11q-.15 4.5 1.72 6.46a7 7 0 005.28 2 12.67 12.67 0 003.61-.55 22.18 22.18 0 004-1.67v3.59a23.68 23.68 0 01-4 1.27 17.12 17.12 0 01-3.69.42q-5.13 0-8-3.07t-2.88-8.46a12.09 12.09 0 012.82-8.4 9.67 9.67 0 017.54-3.14 8.25 8.25 0 016.62 2.85 11 11 0 012.62 6.82zm-3.61-1.06a7 7 0 00-1.66-3.93 5.08 5.08 0 00-4.09-1.66 5.77 5.77 0 00-4.3 1.73 6.07 6.07 0 00-1.84 3.88zm25.39 1.32v12.53h-3.63V502a7.43 7.43 0 01-2.91 2.9 9 9 0 01-4.27.93 7.47 7.47 0 01-5.35-1.89 7.5 7.5 0 01.46-10.65c1.64-1.26 4.05-1.9 7.23-1.9h4.84v-.57a5 5 0 00-1.33-3.81 6.18 6.18 0 00-4.2-1.19 13.88 13.88 0 00-3.73.53 16.22 16.22 0 00-3.67 1.55v-3.61a26.13 26.13 0 013.84-1.15 17.76 17.76 0 013.56-.38 12 12 0 014.66.81 7.29 7.29 0 013.13 2.41 6.17 6.17 0 011.06 2.42 22.79 22.79 0 01.31 4.35zm-7 1.49h-1.2a8.37 8.37 0 00-4.76 1.11 3.75 3.75 0 00-1.59 3.3 4 4 0 001.19 3.08 4.73 4.73 0 003.32 1.1 5.73 5.73 0 004.68-2.07 8.79 8.79 0 001.73-5.72v-.8zm22.47-8.69a4.94 4.94 0 011.69-2.09 4.46 4.46 0 012.49-.68 3.88 3.88 0 013.73 2.05q1.1 2.06 1.09 7.72v12.73h-3.29v-12.57c0-3.1-.18-5-.52-5.78a1.91 1.91 0 00-1.9-1.13 2.14 2.14 0 00-2.14 1.2q-.59 1.2-.58 5.7v12.57h-3.3v-12.56q0-4.71-.56-5.81a2.05 2.05 0 00-2-1.1 2 2 0 00-2 1.21q-.55 1.2-.56 5.7v12.57h-3.27v-22h3.27v1.88a4.79 4.79 0 011.62-1.79 4 4 0 012.21-.62 4.24 4.24 0 012.48.69 4.44 4.44 0 011.54 2.11z"/><path class="bc39c019-152b-4962-88f2-494ae7ff2341" d="M773.48 483.33h6.12v7.08h-6.12zm0 14.81h6.12v7.14h-6.12z"/><path class="eceff792-7f90-4d5b-8ca1-07d00d2dc90c" d="M819.11 474.94v12h-4.39v-12zm10.46 0v12h-4.4v-12zM843.7 476h4.81l9 29.29h-4.1l-2.16-7.63H841l-2.11 7.63h-4.1zm2.39 3.5l-4.17 15h8.35z"/><path class="eceff792-7f90-4d5b-8ca1-07d00d2dc90c" d="M858.68 476h4.25l6.44 11 6.55-11h4.26l-8.77 13.78 9.39 15.51h-4.25l-7.18-12.61-7.75 12.61h-4.28l9.81-15.51zm26.59 26h6.16v-22.16l-7.38 3.55v-3.81l7.34-3.49h4V502h6.08v3.31h-16.2zm25 0h13.45v3.33h-17.79V502q3.68-3.87 6.42-6.83c1.83-2 3.09-3.37 3.78-4.18a19.82 19.82 0 002.65-3.87 7.12 7.12 0 00.69-3 5.11 5.11 0 00-1.44-3.85 5.45 5.45 0 00-4-1.39 12 12 0 00-3.74.65 20.55 20.55 0 00-4.16 2v-4a21 21 0 014-1.45 15.65 15.65 0 013.86-.49 10.16 10.16 0 016.91 2.28 7.55 7.55 0 012.62 6 8.93 8.93 0 01-.87 3.77 19 19 0 01-2.84 4.16c-.73.85-1.79 2-3.19 3.53s-3.5 3.67-6.35 6.67zm30.88-12.39a8 8 0 014.42 2.71 7.69 7.69 0 011.53 4.88 7.87 7.87 0 01-2.72 6.34q-2.71 2.31-7.52 2.31a23.37 23.37 0 01-4.12-.37 26.86 26.86 0 01-4.12-1.08v-3.94a19.25 19.25 0 003.94 1.55 15.19 15.19 0 003.87.51 7.55 7.55 0 005-1.48 5.23 5.23 0 001.75-4.23 5.08 5.08 0 00-1.75-4.05 7 7 0 00-4.73-1.5h-3V488h3a6.75 6.75 0 004.26-1.2 4 4 0 001.53-3.33 4.29 4.29 0 00-1.42-3.46 6.06 6.06 0 00-4.07-1.21 17.55 17.55 0 00-3.61.39 25.62 25.62 0 00-3.91 1.18v-3.65c1.59-.42 3-.73 4.23-.94a19.86 19.86 0 013.29-.31 10.29 10.29 0 016.83 2.14 7.07 7.07 0 012.56 5.7 6.08 6.08 0 01-1.34 4 7.38 7.38 0 01-3.9 2.3zM962.68 476h4.59v19.09h3.91v3.22h-3.91v7h-3.94v-7h-12.42v-3.75zm.65 3.61l-9.24 15.48h9.24zm10.56 11.47h20.8v3.31h-20.8zm26.28 10.92h6.16v-22.16l-7.33 3.55v-3.81l7.34-3.49h4V502h6.08v3.31h-16.16zm25.77-27.06v12h-4.4v-12zm10.45 0v12H1032v-12z"/><rect class="bd878673-2c3b-4316-83f3-c3267b474011" x="1110.91" y="381.39" width="462.82" height="157" rx="3.5"/><path class="bc39c019-152b-4962-88f2-494ae7ff2341" d="M1570.23 382.89a2 2 0 012 2v150a2 2 0 01-2 2h-455.82a2 2 0 01-2-2v-150a2 2 0 012-2h455.82m0-3h-455.82a5 5 0 00-5 5v150a5 5 0 005 5h455.82a5 5 0 005-5v-150a5 5 0 00-5-5z"/><path class="b4069798-e1d3-4412-ba45-31c598487592" d="M1137.55 423.78a8.54 8.54 0 017 3q2.42 3 2.42 8.58t-2.41 8.58a9.77 9.77 0 01-14 0q-2.41-3-2.41-8.58t2.41-8.58a8.51 8.51 0 016.99-3zm0 3.06a4.65 4.65 0 00-4.16 2.14q-1.42 2.14-1.42 6.34a11.49 11.49 0 001.42 6.32 5.11 5.11 0 008.33 0 14.82 14.82 0 000-12.66 4.66 4.66 0 00-4.17-2.14zm31.74-11.08v3h-4.1a3.63 3.63 0 00-2.69.79 4.05 4.05 0 00-.76 2.82v1.94h7.55v2.81h-7.55v19.16h-3.61v-19.16h-5.86v-2.81h5.86v-1.53c0-2.4.55-4.18 1.66-5.31s2.83-1.71 5.17-1.71zm22.98 0v3h-4.09a3.64 3.64 0 00-2.7.79 4.05 4.05 0 00-.76 2.82v1.94h7.55v2.81h-7.55v19.16h-3.61v-19.16h-5.86v-2.81h5.86v-1.53c0-2.4.56-4.18 1.66-5.31s2.83-1.71 5.17-1.71zm21.22 9.32v3.53a13.69 13.69 0 00-3.12-1.36 11.56 11.56 0 00-3.2-.45 6.7 6.7 0 00-3.65.8 3.08 3.08 0 00-.31 4.62c.6.48 2.1.95 4.49 1.41l1.45.27a7 7 0 014.07 2 5.69 5.69 0 011.39 4 6.13 6.13 0 01-2.32 5.09 10.1 10.1 0 01-6.43 1.83 18.76 18.76 0 01-3.41-.34 33.13 33.13 0 01-3.87-1v-3.73a21.47 21.47 0 003.87 1.56 12.73 12.73 0 003.49.52 6.1 6.1 0 003.7-1 3.18 3.18 0 001.32-2.72q0-2.5-4.81-3.47h-.15l-1.36-.27a8.7 8.7 0 01-4.55-2.05 5.39 5.39 0 01-1.43-3.94 5.87 5.87 0 012.14-4.87 9.49 9.49 0 016.1-1.72 17.13 17.13 0 016.59 1.3zm25.86 8.41v1.77h-15.63v.11q-.15 4.5 1.72 6.46a7 7 0 005.28 2 12.73 12.73 0 003.61-.55 21.81 21.81 0 004-1.67v3.59a23.3 23.3 0 01-4 1.27 17.21 17.21 0 01-3.7.42 10.43 10.43 0 01-8-3.07q-2.88-3.07-2.88-8.46a12.09 12.09 0 012.82-8.4 9.66 9.66 0 017.53-3.14 8.22 8.22 0 016.62 2.85 10.84 10.84 0 012.63 6.82zm-3.61-1.06a6.92 6.92 0 00-1.65-3.93 5.08 5.08 0 00-4.09-1.66 5.77 5.77 0 00-4.3 1.73 6.07 6.07 0 00-1.84 3.88zm16.67-14.36v6.24h8.2v2.81h-8.2V439a4.93 4.93 0 00.92 3.4 4.38 4.38 0 003.22 1h4.06v2.88h-4.42q-4.05 0-5.72-1.63t-1.67-5.65v-11.88h-5.87v-2.81h5.87v-6.24z"/><path class="bc39c019-152b-4962-88f2-494ae7ff2341" d="M1271.76 424.33h6.12v7.08h-6.12zm0 14.81h6.12v7.14h-6.12z"/><path class="f2210f63-6c75-42d2-9013-207afec566a5" d="M1316.62 443h13.46v3.33h-17.79V443q3.66-3.87 6.41-6.83c1.83-2 3.1-3.37 3.79-4.18a19.82 19.82 0 002.65-3.87 7.26 7.26 0 00.68-3 5.11 5.11 0 00-1.44-3.85 5.44 5.44 0 00-4-1.39 12 12 0 00-3.75.65 20.8 20.8 0 00-4.16 2v-4a20.88 20.88 0 014-1.45 15.57 15.57 0 013.85-.49 10.18 10.18 0 016.92 2.28 7.57 7.57 0 012.61 6 8.93 8.93 0 01-.87 3.77 19 19 0 01-2.83 4.16c-.74.85-1.8 2-3.19 3.53s-3.49 3.67-6.34 6.67z"/><path class="bc39c019-152b-4962-88f2-494ae7ff2341" d="M1341 439.2h6.12v5.2l-4.36 8.45h-3.92l2.16-8.47z"/><path class="b4069798-e1d3-4412-ba45-31c598487592" d="M1144.55 484.08v3.53a14.35 14.35 0 00-3.12-1.36 11.56 11.56 0 00-3.2-.45 6.76 6.76 0 00-3.66.8 2.7 2.7 0 00-1.2 2.42 2.67 2.67 0 00.9 2.2c.6.48 2.1.95 4.49 1.41l1.45.27a7.07 7.07 0 014.07 2 5.69 5.69 0 011.39 4 6.15 6.15 0 01-2.32 5.09 10.12 10.12 0 01-6.43 1.83 18.86 18.86 0 01-3.42-.34 33 33 0 01-3.86-1v-3.73a21.39 21.39 0 003.86 1.56 12.8 12.8 0 003.5.52 6.1 6.1 0 003.7-1 3.18 3.18 0 001.32-2.72q0-2.5-4.81-3.47h-.15l-1.36-.27a8.66 8.66 0 01-4.55-2.05 5.39 5.39 0 01-1.43-3.94 5.87 5.87 0 012.14-4.87 9.49 9.49 0 016.1-1.72 17 17 0 013.39.33 16.82 16.82 0 013.2.96zm15.94-7.01v6.24h8.2v2.81h-8.2V498a4.87 4.87 0 00.92 3.4 4.36 4.36 0 003.22 1h4.06v2.88h-4.42c-2.71 0-4.61-.54-5.73-1.63s-1.66-2.95-1.66-5.61v-11.92H1151v-2.81h5.87v-6.24zm33.59 10.77a8.06 8.06 0 00-2.36-1.31 7.83 7.83 0 00-2.62-.41 6.37 6.37 0 00-5.16 2.11 9.3 9.3 0 00-1.79 6.13v10.92h-3.63v-22h3.63v4.3a7.3 7.3 0 012.78-3.58 7.84 7.84 0 014.44-1.25 8.66 8.66 0 012.49.34 8 8 0 012.22 1zm22.29 4.65v1.77h-15.63v.11q-.15 4.5 1.72 6.46a6.93 6.93 0 005.28 2 12.73 12.73 0 003.61-.55 21.81 21.81 0 004-1.67v3.59a23.3 23.3 0 01-4 1.27 17.21 17.21 0 01-3.7.42 10.43 10.43 0 01-8-3.07q-2.88-3.07-2.88-8.46a12.09 12.09 0 012.82-8.4 9.65 9.65 0 017.53-3.14 8.22 8.22 0 016.62 2.85 10.84 10.84 0 012.63 6.82zm-3.61-1.06a7 7 0 00-1.65-3.93 5.08 5.08 0 00-4.09-1.66 5.77 5.77 0 00-4.3 1.73 6.07 6.07 0 00-1.84 3.88zm25.4 1.32v12.53h-3.63V502a7.43 7.43 0 01-2.91 2.9 9 9 0 01-4.27.93A7.5 7.5 0 011222 504a6.69 6.69 0 01-2-5.07 6.61 6.61 0 012.47-5.58c1.64-1.26 4-1.9 7.22-1.9h4.85v-.57a4.93 4.93 0 00-1.34-3.81 6.13 6.13 0 00-4.19-1.19 13.88 13.88 0 00-3.73.53 16.22 16.22 0 00-3.67 1.55v-3.61a25.77 25.77 0 013.84-1.15 17.76 17.76 0 013.56-.38 12.07 12.07 0 014.66.81 7.26 7.26 0 013.12 2.41 6 6 0 011.06 2.42 21.82 21.82 0 01.31 4.29zm-7 1.49H1230a8.37 8.37 0 00-4.76 1.11 3.76 3.76 0 00-1.6 3.3 4 4 0 001.2 3.08 4.72 4.72 0 003.31 1.1 5.74 5.74 0 004.69-2.07 8.79 8.79 0 001.73-5.72v-.8zm22.47-8.69a4.94 4.94 0 011.69-2.09 4.45 4.45 0 012.48-.68 3.89 3.89 0 013.74 2.05q1.1 2.06 1.09 7.72v12.73h-3.3v-12.57q0-4.65-.52-5.78a1.89 1.89 0 00-1.89-1.13 2.16 2.16 0 00-2.15 1.21c-.38.8-.58 2.7-.58 5.7v12.57h-3.29v-12.57q0-4.71-.56-5.81a2.05 2.05 0 00-2-1.1 2 2 0 00-2 1.21q-.55 1.2-.56 5.7v12.57h-3.28v-22h3.28v1.88a4.79 4.79 0 011.62-1.79 4 4 0 012.2-.62 4.25 4.25 0 012.49.69 4.44 4.44 0 011.54 2.11z"/><path class="bc39c019-152b-4962-88f2-494ae7ff2341" d="M1271.76 483.33h6.12v7.08h-6.12zm0 14.81h6.12v7.14h-6.12z"/><path class="eceff792-7f90-4d5b-8ca1-07d00d2dc90c" d="M1317.39 474.94v12H1313v-12zm10.45 0v12h-4.39v-12zM1342 476h4.8l9 29.29h-4.1l-2.16-7.63h-10.26l-2.12 7.63H1333zm2.39 3.5l-4.18 15h8.36z"/><path class="eceff792-7f90-4d5b-8ca1-07d00d2dc90c" d="M1357 476h4.25l6.44 11.05 6.51-11.05h4.25l-8.76 13.78 9.39 15.51h-4.25l-7.18-12.61-7.75 12.61h-4.28l9.81-15.51zm26.55 26h6.15v-22.16l-7.37 3.55v-3.81l7.34-3.49h4V502h6.08v3.31h-16.16zm25 0H1422v3.33h-17.79V502q3.68-3.87 6.42-6.83c1.83-2 3.09-3.37 3.78-4.18a19.82 19.82 0 002.65-3.87 7.12 7.12 0 00.69-3 5.11 5.11 0 00-1.44-3.85 5.46 5.46 0 00-4-1.39 11.93 11.93 0 00-3.74.65 20.55 20.55 0 00-4.16 2v-4a20.8 20.8 0 014-1.45 15.63 15.63 0 013.85-.49 10.17 10.17 0 016.92 2.28 7.58 7.58 0 012.62 6 8.8 8.8 0 01-.88 3.77 18.6 18.6 0 01-2.83 4.16c-.73.85-1.79 2-3.19 3.53s-3.5 3.67-6.35 6.67zm30.88-12.39a8 8 0 014.42 2.71 7.69 7.69 0 011.53 4.88 7.87 7.87 0 01-2.72 6.34q-2.72 2.31-7.52 2.31a23.37 23.37 0 01-4.12-.37 26.56 26.56 0 01-4.12-1.08v-3.94a19.25 19.25 0 003.94 1.55 15.17 15.17 0 003.86.51 7.58 7.58 0 005-1.48 5.23 5.23 0 001.74-4.23 5.07 5.07 0 00-1.74-4.05 7 7 0 00-4.73-1.5h-3V488h3a6.75 6.75 0 004.26-1.2 4 4 0 001.53-3.33 4.27 4.27 0 00-1.43-3.46 6 6 0 00-4-1.21 17.7 17.7 0 00-3.61.39 25.86 25.86 0 00-3.9 1.18v-3.65c1.58-.42 3-.73 4.23-.94a19.74 19.74 0 013.28-.31 10.32 10.32 0 016.84 2.14 7.07 7.07 0 012.56 5.7 6.08 6.08 0 01-1.34 4 7.42 7.42 0 01-3.96 2.3zM1461 476h4.59v19.09h3.91v3.22h-3.91v7h-3.94v-7h-12.42v-3.75zm.65 3.61l-9.24 15.48h9.24zm10.52 11.47H1493v3.31h-20.8zm26.28 10.92h6.16v-22.16l-7.38 3.55v-3.81l7.34-3.49h4V502h6.08v3.31h-16.16zm25.77-27.06v12h-4.4v-12zm10.45 0v12h-4.39v-12z"/><path class="bc39c019-152b-4962-88f2-494ae7ff2341" d="M1988.21 703.23H626.57c-68.16 0-95.05-134-121.07-263.62-12.45-62.05-24.21-120.61-40.12-165.28-17.5-49.1-37.71-73-61.8-73v-4c57.38 0 80.92 117.28 105.85 241.46 25.69 128 52.26 260.41 117.14 260.41h1361.64z"/><path class="bc39c019-152b-4962-88f2-494ae7ff2341" d="M1971.4 723.55l-2.83-2.83 16.78-16.72a3 3 0 000-4.17l-16.68-16.68 2.82-2.83 16.68 16.68a7 7 0 010 9.83z"/><path class="fd450c3c-c948-439a-b485-34db7b526a52" d="M1761 656.17v4a15.21 15.21 0 00-3.62-1.75 11.81 11.81 0 00-3.65-.59 6.93 6.93 0 00-4.44 1.31 4.29 4.29 0 00-1.63 3.52 3.92 3.92 0 001.07 3 9 9 0 004 1.71l2.07.47a11.45 11.45 0 016 3 8 8 0 011.88 5.61 7.87 7.87 0 01-2.59 6.37c-1.72 1.47-4.24 2.2-7.53 2.2a20.24 20.24 0 01-4.14-.44 23.51 23.51 0 01-4.18-1.33v-4.21a19.66 19.66 0 004.27 2.09 12.64 12.64 0 004 .67 7.29 7.29 0 004.67-1.34 5.26 5.26 0 00.52-7.11 8.16 8.16 0 00-4-1.79l-2.12-.49a11.94 11.94 0 01-5.93-2.78 6.81 6.81 0 01-1.84-5 8 8 0 012.64-6.28 10.09 10.09 0 017-2.37 17.36 17.36 0 013.55.39 26 26 0 014 1.14zm16.35.08v6.24h8.2v2.81h-8.2v11.92a4.9 4.9 0 00.92 3.39 4.33 4.33 0 003.22 1h4.06v2.88h-4.41q-4.07 0-5.73-1.63t-1.67-5.61V665.3h-5.86v-2.81h5.86v-6.24zm34.8 10.75a8.14 8.14 0 00-2.35-1.31 7.93 7.93 0 00-2.63-.41 6.37 6.37 0 00-5.16 2.11 9.29 9.29 0 00-1.79 6.12v10.93h-3.62v-22h3.62v4.3a7.36 7.36 0 012.78-3.58 7.84 7.84 0 014.44-1.25 9 9 0 012.49.33 8.3 8.3 0 012.22 1zm23.5 4.67v1.77H1820v.11q-.16 4.5 1.71 6.46a7 7 0 005.29 2 12.78 12.78 0 003.61-.55 22.4 22.4 0 004-1.67v3.59a24.54 24.54 0 01-4 1.27 17.28 17.28 0 01-3.7.42 10.43 10.43 0 01-8-3.07q-2.89-3.08-2.89-8.47a12 12 0 012.83-8.39 9.63 9.63 0 017.53-3.14 8.26 8.26 0 016.62 2.84 11 11 0 012.65 6.83zm-3.61-1.06a7 7 0 00-1.66-3.93 5.08 5.08 0 00-4.09-1.66 5.73 5.73 0 00-4.29 1.73 6.08 6.08 0 00-1.85 3.88zm26.6 1.32v12.53H1855v-3.26a7.43 7.43 0 01-2.91 2.9 9 9 0 01-4.27.93 7.45 7.45 0 01-5.35-1.89 7.47 7.47 0 01.46-10.65c1.64-1.26 4-1.9 7.22-1.9h4.85V670a5 5 0 00-1.33-3.81 6.18 6.18 0 00-4.2-1.19 13.88 13.88 0 00-3.73.53 16.22 16.22 0 00-3.67 1.55v-3.61a25.77 25.77 0 013.84-1.15 17.76 17.76 0 013.56-.38 12.23 12.23 0 014.66.8 7.39 7.39 0 013.13 2.42 6.16 6.16 0 011 2.42 21.82 21.82 0 01.38 4.35zm-7 1.49h-1.2a8.46 8.46 0 00-4.76 1.1 3.79 3.79 0 00-1.6 3.31 4 4 0 001.2 3.08 4.73 4.73 0 003.32 1.1 5.73 5.73 0 004.68-2.07 8.79 8.79 0 001.73-5.72v-.8zm23.67-8.69a4.9 4.9 0 011.7-2.09 4.4 4.4 0 012.48-.68 3.88 3.88 0 013.74 2c.72 1.37 1.09 3.94 1.09 7.72v12.73H1881v-12.52q0-4.65-.52-5.78a1.91 1.91 0 00-1.89-1.13 2.16 2.16 0 00-2.15 1.21q-.59 1.2-.58 5.7v12.57h-3.29v-12.57q0-4.71-.56-5.81a2.07 2.07 0 00-2-1.1 2 2 0 00-2 1.21q-.55 1.2-.55 5.7v12.57h-3.28v-22h3.28v1.88a4.85 4.85 0 011.61-1.79 4.07 4.07 0 012.21-.62 4.24 4.24 0 012.48.69 4.44 4.44 0 011.55 2.11zm42.43 16.4h13.46v3.33h-17.8v-3.33q3.67-3.87 6.42-6.83t3.78-4.18a20.12 20.12 0 002.65-3.87 7.12 7.12 0 00.69-3 5.11 5.11 0 00-1.44-3.85 5.44 5.44 0 00-4-1.39 11.7 11.7 0 00-3.75.65 20.55 20.55 0 00-4.16 2v-4a21.83 21.83 0 014-1.46 16.14 16.14 0 013.86-.49 10.14 10.14 0 016.91 2.29 7.55 7.55 0 012.62 6 8.93 8.93 0 01-.87 3.77 19 19 0 01-2.84 4.16c-.73.85-1.79 2-3.19 3.53s-3.49 3.67-6.34 6.67z"/><rect class="bd878673-2c3b-4316-83f3-c3267b474011" x="1612.89" y="675.18" width="85.45" height="52.69" rx="5"/><path class="bc39c019-152b-4962-88f2-494ae7ff2341" d="M1638.67 703.51a3.3 3.3 0 01.18-1.1 2.87 2.87 0 01.54-.89 2.59 2.59 0 01.89-.6 3.3 3.3 0 011.23-.21 3.45 3.45 0 011.25.21 2.63 2.63 0 01.9.6 2.56 2.56 0 01.55.89 3.3 3.3 0 01.19 1.1 3.12 3.12 0 01-.19 1.07 2.39 2.39 0 01-.55.87 2.45 2.45 0 01-.9.58 3.45 3.45 0 01-1.25.21 3.3 3.3 0 01-1.23-.21 2.41 2.41 0 01-.89-.58 2.66 2.66 0 01-.54-.87 3.12 3.12 0 01-.18-1.07zm17.68 0a3.3 3.3 0 01.18-1.1 2.87 2.87 0 01.54-.89 2.59 2.59 0 01.89-.6 3.3 3.3 0 011.23-.21 3.45 3.45 0 011.25.21 2.63 2.63 0 01.9.6 2.56 2.56 0 01.55.89 3.3 3.3 0 01.19 1.1 3.12 3.12 0 01-.19 1.07 2.39 2.39 0 01-.55.87 2.45 2.45 0 01-.9.58 3.45 3.45 0 01-1.25.21 3.3 3.3 0 01-1.19-.24 2.41 2.41 0 01-.89-.58 2.66 2.66 0 01-.54-.87 3.12 3.12 0 01-.22-1.04zm17.65 0a3.3 3.3 0 01.18-1.1 2.87 2.87 0 01.54-.89 2.59 2.59 0 01.89-.6 3.3 3.3 0 011.23-.21 3.45 3.45 0 011.25.21 2.63 2.63 0 01.9.6 2.72 2.72 0 01.55.89 3.3 3.3 0 01.19 1.1 3.12 3.12 0 01-.19 1.07 2.53 2.53 0 01-.55.87 2.45 2.45 0 01-.9.58 3.45 3.45 0 01-1.25.21 3.3 3.3 0 01-1.23-.21 2.41 2.41 0 01-.89-.58 2.66 2.66 0 01-.54-.87 3.12 3.12 0 01-.18-1.07z"/><rect class="bd878673-2c3b-4316-83f3-c3267b474011" x="612.63" y="631.38" width="462.82" height="157" rx="3.5"/><path class="bc39c019-152b-4962-88f2-494ae7ff2341" d="M1072 632.88a2 2 0 012 2v150a2 2 0 01-2 2H616.13a2 2 0 01-2-2v-150a2 2 0 012-2H1072m0-3H616.13a5 5 0 00-5 5v150a5 5 0 005 5H1072a5 5 0 005-5v-150a5 5 0 00-5-5z"/><path class="b4069798-e1d3-4412-ba45-31c598487592" d="M639.27 672.33a8.54 8.54 0 017 3c1.62 2 2.42 4.83 2.42 8.57s-.8 6.62-2.41 8.58a9.75 9.75 0 01-14 0c-1.6-2-2.41-4.82-2.41-8.58s.81-6.59 2.41-8.57a8.51 8.51 0 016.99-3zm0 3.06a4.66 4.66 0 00-4.16 2.14q-1.41 2.13-1.41 6.33a11.6 11.6 0 001.41 6.33 5.12 5.12 0 008.34 0 11.6 11.6 0 001.41-6.33q0-4.2-1.41-6.33a4.69 4.69 0 00-4.18-2.14zM671 664.31v3h-4.1a3.64 3.64 0 00-2.7.79 4.1 4.1 0 00-.76 2.82v1.94H671v2.8h-7.56v19.17h-3.61v-19.17H654v-2.8h5.86v-1.53c0-2.41.56-4.18 1.66-5.32s2.83-1.7 5.17-1.7zm23 0v3h-4.1a3.64 3.64 0 00-2.7.79 4.1 4.1 0 00-.76 2.82v1.94H694v2.8h-7.56v19.17h-3.6v-19.17H677v-2.8h5.87v-1.53q0-3.62 1.65-5.32t5.17-1.7zm21.21 9.31v3.53a13.65 13.65 0 00-3.12-1.35 11.49 11.49 0 00-3.19-.45 6.72 6.72 0 00-3.66.79 2.7 2.7 0 00-1.21 2.43 2.64 2.64 0 00.9 2.19c.6.49 2.1 1 4.5 1.42l1.45.27a7.1 7.1 0 014.07 2 5.72 5.72 0 011.38 4 6.13 6.13 0 01-2.31 5.09 10.09 10.09 0 01-6.44 1.84 18 18 0 01-3.41-.35 29.59 29.59 0 01-3.87-1v-3.73a21.47 21.47 0 003.87 1.56 13.13 13.13 0 003.49.52 6.2 6.2 0 003.71-1 3.21 3.21 0 001.31-2.72c0-1.68-1.6-2.83-4.8-3.47h-.16l-1.35-.28a8.66 8.66 0 01-4.56-2 5.35 5.35 0 01-1.43-3.93 5.89 5.89 0 012.14-4.87 9.51 9.51 0 016.1-1.72 17.91 17.91 0 013.4.32 17.47 17.47 0 013.19.91zm25.87 8.38v1.76h-15.64v.12q-.15 4.5 1.72 6.46a7 7 0 005.29 2 13.15 13.15 0 003.61-.55 22.4 22.4 0 004-1.67v3.59a25.67 25.67 0 01-4 1.27 17.12 17.12 0 01-3.69.42 10.49 10.49 0 01-8-3.07q-2.88-3.08-2.88-8.47a12.08 12.08 0 012.82-8.39 9.67 9.67 0 017.54-3.14 8.26 8.26 0 016.62 2.84 11 11 0 012.61 6.83zm-3.61-1a7 7 0 00-1.66-3.93 5.08 5.08 0 00-4.09-1.66 5.73 5.73 0 00-4.3 1.73 6.07 6.07 0 00-1.84 3.88zm16.66-14.38v6.24h8.2v2.8h-8.2v11.93a4.9 4.9 0 00.92 3.39 4.38 4.38 0 003.22 1h4.06v2.89h-4.41q-4.06 0-5.73-1.63t-1.67-5.61v-11.97h-5.86v-2.8h5.86v-6.24z"/><path class="bc39c019-152b-4962-88f2-494ae7ff2341" d="M773.48 672.88h6.12V680h-6.12zm0 14.81h6.12v7.14h-6.12z"/><path class="f2210f63-6c75-42d2-9013-207afec566a5" d="M816.33 691.51h6.15v-22.12l-7.37 3.55v-3.81l7.34-3.49h4v25.87h6.08v3.32h-16.2z"/><path class="bc39c019-152b-4962-88f2-494ae7ff2341" d="M842.68 687.75h6.12v5.19l-4.35 8.46h-3.93l2.16-8.48z"/><path class="b4069798-e1d3-4412-ba45-31c598487592" d="M646.27 732.62v3.53a13.65 13.65 0 00-3.12-1.35 11.56 11.56 0 00-3.2-.45 6.8 6.8 0 00-3.65.79 2.7 2.7 0 00-1.21 2.43 2.64 2.64 0 00.9 2.19c.6.49 2.1 1 4.49 1.42l1.45.27a7.1 7.1 0 014.08 2 5.72 5.72 0 011.38 4 6.11 6.11 0 01-2.32 5.09 10 10 0 01-6.43 1.84 18 18 0 01-3.41-.35 29.59 29.59 0 01-3.87-1v-3.73a21.47 21.47 0 003.87 1.56 13.13 13.13 0 003.49.52 6.22 6.22 0 003.71-1 3.21 3.21 0 001.31-2.72c0-1.68-1.6-2.83-4.81-3.47h-.15l-1.36-.28a8.62 8.62 0 01-4.55-2 5.35 5.35 0 01-1.43-3.93 5.86 5.86 0 012.14-4.87 9.49 9.49 0 016.1-1.72 16.88 16.88 0 016.59 1.29zm15.94-7v6.24h8.2v2.8h-8.2v11.93a4.9 4.9 0 00.92 3.39 4.38 4.38 0 003.22 1h4.06v2.89H666q-4.05 0-5.72-1.63c-1.12-1.08-1.67-3-1.67-5.61v-11.97h-5.87v-2.8h5.87v-6.24zm33.59 10.77a8 8 0 00-2.35-1.31 7.93 7.93 0 00-2.63-.42 6.38 6.38 0 00-5.16 2.12 9.25 9.25 0 00-1.78 6.12v10.93h-3.63v-22h3.63v4.29a7.3 7.3 0 012.77-3.57 7.77 7.77 0 014.44-1.25 9.16 9.16 0 012.5.33 7.81 7.81 0 012.21 1zm22.3 4.61v1.76h-15.64v.12q-.15 4.5 1.72 6.46a7 7 0 005.28 2 13 13 0 003.61-.55 22.18 22.18 0 004-1.67v3.59a25.67 25.67 0 01-4 1.27 17.12 17.12 0 01-3.69.42 10.47 10.47 0 01-8-3.07q-2.88-3.08-2.88-8.47a12.08 12.08 0 012.82-8.39 9.67 9.67 0 017.54-3.14 8.27 8.27 0 016.62 2.84 11 11 0 012.62 6.83zm-3.61-1a7 7 0 00-1.66-3.93 5.08 5.08 0 00-4.09-1.66 5.73 5.73 0 00-4.3 1.73 6.07 6.07 0 00-1.84 3.86zm25.39 1.29v12.54h-3.63v-3.26a7.4 7.4 0 01-2.91 2.89 8.89 8.89 0 01-4.27.94 7.43 7.43 0 01-5.35-1.9 7.48 7.48 0 01.46-10.64q2.46-1.9 7.23-1.9h4.84v-.57a5 5 0 00-1.33-3.81 6.18 6.18 0 00-4.2-1.19 13.88 13.88 0 00-3.73.53 16.22 16.22 0 00-3.67 1.55v-3.61a26.13 26.13 0 013.84-1.15 17.76 17.76 0 013.56-.38 12.23 12.23 0 014.66.8 7.31 7.31 0 013.13 2.42 6.17 6.17 0 011.06 2.42 22.75 22.75 0 01.31 4.32zm-7 1.49h-1.2a8.37 8.37 0 00-4.76 1.11 3.77 3.77 0 00-1.59 3.31 4 4 0 001.19 3.08 4.73 4.73 0 003.32 1.1 5.73 5.73 0 004.68-2.07 8.79 8.79 0 001.73-5.72v-.81zm22.47-8.69A4.91 4.91 0 01757 732a4.38 4.38 0 012.49-.68 3.86 3.86 0 013.73 2q1.1 2.05 1.09 7.72v12.73h-3.29v-12.52c0-3.09-.18-5-.52-5.77a1.91 1.91 0 00-1.9-1.13 2.14 2.14 0 00-2.14 1.21q-.59 1.2-.58 5.69v12.58h-3.3v-12.58c0-3.13-.19-5.07-.56-5.8a2.05 2.05 0 00-2-1.1 2 2 0 00-2 1.21q-.55 1.2-.56 5.69v12.58h-3.27v-22h3.27v1.88a4.79 4.79 0 011.62-1.79 4 4 0 012.21-.62 4.24 4.24 0 012.48.69 4.41 4.41 0 011.58 2.1z"/><path class="bc39c019-152b-4962-88f2-494ae7ff2341" d="M773.48 731.88h6.12V739h-6.12zm0 14.81h6.12v7.14h-6.12z"/><path class="eceff792-7f90-4d5b-8ca1-07d00d2dc90c" d="M819.11 723.48v12h-4.39v-12zm10.46 0v12h-4.4v-12zm14.13 1.06h4.81l9 29.29h-4.1l-2.16-7.63H841l-2.11 7.63h-4.1zm2.39 3.49l-4.17 15h8.35z"/><path class="eceff792-7f90-4d5b-8ca1-07d00d2dc90c" d="M858.68 724.54h4.25l6.44 11.05 6.55-11.05h4.26l-8.77 13.77 9.39 15.52h-4.25l-7.18-12.61-7.75 12.61h-4.28l9.81-15.52zm26.59 25.97h6.16v-22.12l-7.38 3.55v-3.81l7.34-3.49h4v25.87h6.08v3.32h-16.2zm25-.02h13.45v3.34h-17.79v-3.34q3.68-3.86 6.42-6.82t3.78-4.18a20.43 20.43 0 002.65-3.87 7.12 7.12 0 00.69-3 5.11 5.11 0 00-1.44-3.85 5.45 5.45 0 00-4-1.39 12 12 0 00-3.74.64 21.18 21.18 0 00-4.16 2v-4a21.76 21.76 0 014-1.45A16.14 16.14 0 01914 724a10.11 10.11 0 016.91 2.29 7.55 7.55 0 012.62 6 8.93 8.93 0 01-.87 3.77 18.77 18.77 0 01-2.84 4.15c-.73.86-1.79 2-3.19 3.54s-3.51 3.75-6.36 6.74zm30.88-12.33a8 8 0 014.42 2.71 7.67 7.67 0 011.53 4.88 7.87 7.87 0 01-2.72 6.34q-2.71 2.31-7.52 2.31a23.39 23.39 0 01-4.12-.38 25.73 25.73 0 01-4.12-1.07v-4a18.7 18.7 0 003.94 1.55 15.19 15.19 0 003.87.51 7.55 7.55 0 005-1.47 5.24 5.24 0 001.75-4.24 5.08 5.08 0 00-1.75-4.05 7 7 0 00-4.73-1.5h-3v-3.25h3a6.75 6.75 0 004.26-1.2 4 4 0 001.53-3.33 4.33 4.33 0 00-1.42-3.47 6.12 6.12 0 00-4.05-1.2 17.55 17.55 0 00-3.61.39 24.54 24.54 0 00-3.91 1.18v-3.65c1.59-.42 3-.73 4.23-.94A20 20 0 01937 724a10.29 10.29 0 016.83 2.15 7.05 7.05 0 012.56 5.7 6.08 6.08 0 01-1.34 4 7.38 7.38 0 01-3.9 2.31zm21.53-13.62h4.59v19.09h3.91v3.21h-3.91v7h-3.94v-7h-12.42v-3.74zm.65 3.61l-9.24 15.48h9.24zm10.56 11.48h20.8v3.31h-20.8zm28.3 10.86h13.46v3.34h-17.79v-3.34q3.66-3.86 6.41-6.82t3.79-4.18a20.28 20.28 0 002.64-3.87 7.12 7.12 0 00.69-3 5.11 5.11 0 00-1.44-3.85 5.44 5.44 0 00-4-1.39 12 12 0 00-3.75.64 21.45 21.45 0 00-4.16 2v-4a21.76 21.76 0 014-1.45 16.14 16.14 0 013.86-.49 10.09 10.09 0 016.91 2.29 7.55 7.55 0 012.62 6 8.93 8.93 0 01-.87 3.77 18.43 18.43 0 01-2.84 4.15c-.73.86-1.79 2-3.18 3.54s-3.54 3.67-6.35 6.66zm23.75-27.01v12h-4.4v-12zm10.45 0v12H1032v-12z"/><rect class="bd878673-2c3b-4316-83f3-c3267b474011" x="1110.91" y="631.38" width="462.82" height="157" rx="3.5"/><path class="bc39c019-152b-4962-88f2-494ae7ff2341" d="M1570.23 632.88a2 2 0 012 2v150a2 2 0 01-2 2h-455.82a2 2 0 01-2-2v-150a2 2 0 012-2h455.82m0-3h-455.82a5 5 0 00-5 5v150a5 5 0 005 5h455.82a5 5 0 005-5v-150a5 5 0 00-5-5z"/><g><path class="b4069798-e1d3-4412-ba45-31c598487592" d="M1137.55 672.33a8.54 8.54 0 017 3c1.61 2 2.42 4.83 2.42 8.57s-.8 6.62-2.41 8.58a9.75 9.75 0 01-14 0q-2.41-2.94-2.41-8.58c0-3.74.8-6.59 2.41-8.57a8.51 8.51 0 016.99-3zm0 3.06a4.65 4.65 0 00-4.16 2.14q-1.42 2.13-1.42 6.33a11.5 11.5 0 001.42 6.33 5.11 5.11 0 008.33 0 14.82 14.82 0 000-12.66 4.66 4.66 0 00-4.17-2.14zm31.74-11.08v3h-4.1a3.63 3.63 0 00-2.69.79 4.05 4.05 0 00-.76 2.82v1.94h7.55v2.8h-7.55v19.17h-3.61v-19.17h-5.86v-2.8h5.86v-1.53q0-3.62 1.66-5.32c1.1-1.13 2.83-1.7 5.17-1.7zm22.98 0v3h-4.09a3.64 3.64 0 00-2.7.79 4.05 4.05 0 00-.76 2.82v1.94h7.55v2.8h-7.55v19.17h-3.61v-19.17h-5.86v-2.8h5.86v-1.53c0-2.41.56-4.18 1.66-5.32s2.83-1.7 5.17-1.7zm21.22 9.31v3.53a13.65 13.65 0 00-3.12-1.35 11.56 11.56 0 00-3.2-.45 6.71 6.71 0 00-3.65.79 2.7 2.7 0 00-1.21 2.43 2.64 2.64 0 00.9 2.19c.6.49 2.1 1 4.49 1.42l1.45.27a7 7 0 014.07 2 5.68 5.68 0 011.39 4 6.11 6.11 0 01-2.32 5.09 10 10 0 01-6.43 1.84 18 18 0 01-3.41-.35 29.59 29.59 0 01-3.87-1v-3.73a21.47 21.47 0 003.87 1.56 13.13 13.13 0 003.49.52 6.17 6.17 0 003.7-1 3.19 3.19 0 001.32-2.72c0-1.68-1.6-2.83-4.81-3.47h-.15l-1.36-.28a8.62 8.62 0 01-4.55-2 5.35 5.35 0 01-1.43-3.93 5.86 5.86 0 012.14-4.87 9.49 9.49 0 016.1-1.72 16.88 16.88 0 016.59 1.29zm25.86 8.38v1.76h-15.63v.12q-.15 4.5 1.72 6.46a7 7 0 005.28 2 13.09 13.09 0 003.61-.55 21.81 21.81 0 004-1.67v3.59a25.23 25.23 0 01-4 1.27 17.21 17.21 0 01-3.7.42 10.46 10.46 0 01-8-3.07q-2.88-3.08-2.88-8.47a12.08 12.08 0 012.82-8.39 9.66 9.66 0 017.53-3.14 8.24 8.24 0 016.62 2.84 10.89 10.89 0 012.63 6.83zm-3.61-1.06a6.89 6.89 0 00-1.65-3.93 5.08 5.08 0 00-4.09-1.66 5.73 5.73 0 00-4.3 1.73 6.07 6.07 0 00-1.84 3.88zm16.67-14.32v6.24h8.2v2.8h-8.2v11.93a4.9 4.9 0 00.92 3.39 4.38 4.38 0 003.22 1h4.06v2.89h-4.42q-4.05 0-5.72-1.63t-1.67-5.61v-11.97h-5.87v-2.8h5.87v-6.24z"/><path class="bc39c019-152b-4962-88f2-494ae7ff2341" d="M1271.76 672.88h6.12V680h-6.12zm0 14.81h6.12v7.14h-6.12z"/><path class="f2210f63-6c75-42d2-9013-207afec566a5" d="M1316.62 691.49h13.46v3.34h-17.79v-3.34q3.66-3.86 6.41-6.82c1.83-2 3.1-3.37 3.79-4.18a20.43 20.43 0 002.65-3.87 7.27 7.27 0 00.68-3 5.1 5.1 0 00-1.44-3.84 5.44 5.44 0 00-4-1.39 12 12 0 00-3.75.64 21.45 21.45 0 00-4.16 2v-4a21.59 21.59 0 014-1.45 16.06 16.06 0 013.85-.49 10.14 10.14 0 016.92 2.29 7.57 7.57 0 012.61 6 8.93 8.93 0 01-.87 3.77 18.68 18.68 0 01-2.83 4.15c-.74.86-1.8 2-3.19 3.54s-3.49 3.66-6.34 6.65z"/><path class="bc39c019-152b-4962-88f2-494ae7ff2341" d="M1341 687.75h6.12v5.19l-4.36 8.46h-3.92l2.16-8.48z"/><path class="b4069798-e1d3-4412-ba45-31c598487592" d="M1144.55 732.62v3.53a13.84 13.84 0 00-3.12-1.35 11.56 11.56 0 00-3.2-.45 6.86 6.86 0 00-3.66.79 2.71 2.71 0 00-1.2 2.43 2.64 2.64 0 00.9 2.19c.6.49 2.1 1 4.49 1.42l1.45.27a7.07 7.07 0 014.07 2 5.68 5.68 0 011.39 4 6.14 6.14 0 01-2.32 5.09 10.06 10.06 0 01-6.43 1.84 18 18 0 01-3.42-.35 29.47 29.47 0 01-3.86-1v-3.73a21.39 21.39 0 003.86 1.56 13.2 13.2 0 003.5.52 6.17 6.17 0 003.7-1 3.19 3.19 0 001.32-2.72c0-1.68-1.6-2.83-4.81-3.47h-.15l-1.36-.28a8.58 8.58 0 01-4.55-2 5.35 5.35 0 01-1.43-3.93 5.86 5.86 0 012.14-4.87 9.49 9.49 0 016.1-1.72 17.8 17.8 0 013.39.32 17.57 17.57 0 013.2.91zm15.94-7v6.24h8.2v2.8h-8.2v11.93a4.84 4.84 0 00.92 3.39 4.36 4.36 0 003.22 1h4.06v2.89h-4.42c-2.71 0-4.61-.54-5.73-1.63s-1.66-3-1.66-5.61v-11.97H1151v-2.8h5.87v-6.24zm33.59 10.77a8.06 8.06 0 00-2.36-1.31 7.83 7.83 0 00-2.62-.42 6.38 6.38 0 00-5.16 2.12 9.25 9.25 0 00-1.79 6.12v10.93h-3.63v-22h3.63v4.29a7.32 7.32 0 012.78-3.57 7.77 7.77 0 014.44-1.25 9 9 0 012.49.33 8 8 0 012.22 1zm22.29 4.61v1.76h-15.63v.12q-.15 4.5 1.72 6.46a7 7 0 005.28 2 13.09 13.09 0 003.61-.55 21.81 21.81 0 004-1.67v3.59a25.23 25.23 0 01-4 1.27 17.21 17.21 0 01-3.7.42 10.46 10.46 0 01-8-3.07q-2.88-3.08-2.88-8.47a12.08 12.08 0 012.82-8.39 9.65 9.65 0 017.53-3.14 8.24 8.24 0 016.62 2.84 10.89 10.89 0 012.63 6.83zm-3.61-1.06a7 7 0 00-1.65-3.93 5.08 5.08 0 00-4.09-1.66 5.73 5.73 0 00-4.3 1.73 6.07 6.07 0 00-1.84 3.88zm25.4 1.35v12.54h-3.63v-3.26a7.4 7.4 0 01-2.91 2.89 8.92 8.92 0 01-4.27.94 7.46 7.46 0 01-5.36-1.9 7.47 7.47 0 01.47-10.64q2.46-1.9 7.22-1.9h4.85v-.57a4.93 4.93 0 00-1.34-3.81 6.13 6.13 0 00-4.19-1.19 13.88 13.88 0 00-3.73.53 16.22 16.22 0 00-3.67 1.55v-3.61a25.77 25.77 0 013.84-1.15 17.76 17.76 0 013.56-.38 12.27 12.27 0 014.66.8 7.28 7.28 0 013.12 2.42 6 6 0 011.06 2.42 21.77 21.77 0 01.32 4.32zm-7 1.49H1230a8.37 8.37 0 00-4.76 1.11 3.78 3.78 0 00-1.6 3.31 4 4 0 001.2 3.08 4.72 4.72 0 003.31 1.1 5.74 5.74 0 004.69-2.07 8.79 8.79 0 001.73-5.72v-.81zm22.47-8.69a4.91 4.91 0 011.69-2.08 4.37 4.37 0 012.48-.68 3.88 3.88 0 013.74 2q1.1 2.05 1.09 7.72v12.73h-3.3v-12.53c0-3.09-.17-5-.52-5.77a1.89 1.89 0 00-1.89-1.13 2.16 2.16 0 00-2.15 1.21c-.38.8-.58 2.7-.58 5.69v12.58h-3.29v-12.58c0-3.13-.19-5.07-.56-5.8a2.05 2.05 0 00-2-1.1 2 2 0 00-2 1.21q-.55 1.2-.56 5.69v12.58h-3.28v-22h3.28v1.88a4.79 4.79 0 011.62-1.79 4 4 0 012.2-.62 4.25 4.25 0 012.49.69 4.41 4.41 0 011.54 2.1z"/><path class="bc39c019-152b-4962-88f2-494ae7ff2341" d="M1271.76 731.88h6.12V739h-6.12zm0 14.81h6.12v7.14h-6.12z"/><path class="eceff792-7f90-4d5b-8ca1-07d00d2dc90c" d="M1317.39 723.48v12H1313v-12zm10.45 0v12h-4.39v-12zm14.16 1.06h4.8l9 29.29h-4.1l-2.16-7.63h-10.26l-2.12 7.63H1333zm2.39 3.49l-4.18 15h8.36z"/><path class="eceff792-7f90-4d5b-8ca1-07d00d2dc90c" d="M1357 724.54h4.25l6.44 11.05 6.55-11.05h4.25l-8.76 13.77 9.39 15.52h-4.25l-7.18-12.61-7.75 12.61h-4.28l9.81-15.52zm26.55 25.97h6.15v-22.12l-7.37 3.55v-3.81l7.34-3.49h4v25.87h6.08v3.32h-16.16zm25-.02H1422v3.34h-17.79v-3.34q3.68-3.86 6.42-6.82t3.78-4.18a20.43 20.43 0 002.65-3.87 7.12 7.12 0 00.69-3 5.11 5.11 0 00-1.44-3.85 5.46 5.46 0 00-4-1.39 11.9 11.9 0 00-3.74.64 21.18 21.18 0 00-4.16 2v-4a21.5 21.5 0 014-1.45 16.13 16.13 0 013.85-.49 10.12 10.12 0 016.92 2.29 7.58 7.58 0 012.62 6 8.8 8.8 0 01-.88 3.77 18.34 18.34 0 01-2.83 4.15c-.73.86-1.79 2-3.19 3.54s-3.5 3.67-6.35 6.66zm30.88-12.33a8 8 0 014.42 2.71 7.67 7.67 0 011.53 4.88 7.87 7.87 0 01-2.72 6.34q-2.72 2.31-7.52 2.31a23.39 23.39 0 01-4.14-.4 25.45 25.45 0 01-4.12-1.07v-4a18.7 18.7 0 003.94 1.55 15.17 15.17 0 003.86.51 7.58 7.58 0 005-1.47 5.24 5.24 0 001.74-4.24 5.07 5.07 0 00-1.74-4.05 7 7 0 00-4.73-1.5h-3v-3.25h3a6.75 6.75 0 004.26-1.2 4 4 0 001.53-3.33 4.3 4.3 0 00-1.43-3.47 6.08 6.08 0 00-4-1.2 17.7 17.7 0 00-3.61.39 24.75 24.75 0 00-3.9 1.18v-3.65c1.58-.42 3-.73 4.23-.94a19.85 19.85 0 013.28-.32 10.32 10.32 0 016.84 2.15 7.05 7.05 0 012.56 5.7 6.08 6.08 0 01-1.34 4 7.42 7.42 0 01-3.94 2.37zm21.57-13.62h4.59v19.09h3.91v3.21h-3.91v7h-3.94v-7h-12.42v-3.74zm.65 3.61l-9.24 15.48h9.24zm10.52 11.48H1493v3.31h-20.8zm28.3 10.86h13.46v3.34h-17.8v-3.34q3.67-3.86 6.42-6.82t3.78-4.18a20.43 20.43 0 002.65-3.87 7.12 7.12 0 00.69-3 5.11 5.11 0 00-1.44-3.85 5.45 5.45 0 00-4-1.39 12 12 0 00-3.74.64 21.18 21.18 0 00-4.16 2v-4a21.76 21.76 0 014-1.45 16.14 16.14 0 013.86-.49 10.11 10.11 0 016.91 2.29 7.55 7.55 0 012.62 6 8.93 8.93 0 01-.87 3.77 18.77 18.77 0 01-2.84 4.15c-.73.86-1.79 2-3.19 3.54s-3.5 3.67-6.35 6.66zm23.75-27.01v12h-4.4v-12zm10.45 0v12h-4.39v-12z"/></g></svg>