<svg xmlns="http://www.w3.org/2000/svg" width="536" height="536" viewBox="244 244 536 536">
  <defs>
    <style>
      .a285a958-9070-4555-9f46-b241c23858fb {
        fill: #1d2c3e;
      }

      .f77190a1-a2c9-4faf-a202-28827b2958f4 {
        fill: #1f84ff;
      }

      .be4c0ce6-4640-497e-af10-fbc805d40942 {
        fill: #ff9a1f;
      }

      .b2544015-71e7-4094-9f66-0e66419ab43a {
        fill: #fff;
      }

      #efb5952a-6327-4a9a-8e67-3bb5a2eaefe5 {
        fill: white;
      }
    </style>
  </defs>
  <g id="efb5952a-6327-4a9a-8e67-3bb5a2eaefe5" data-name="Layer 1">
    <g>
      <path class="a285a958-9070-4555-9f46-b241c23858fb" d="M641.07,244.64H394.56A143.86,143.86,0,0,0,250.7,388.5V635A143.86,143.86,0,0,0,394.56,778.87H641.07A143.86,143.86,0,0,0,784.93,635V388.5A143.86,143.86,0,0,0,641.07,244.64Zm67.54,152.64v229H632.29v76.32H403.34A76.32,76.32,0,0,1,327,626.23h0v-229h76.32V321h229a76.32,76.32,0,0,1,76.32,76.32Z"/>
      <g>
        <path class="f77190a1-a2c9-4faf-a202-28827b2958f4" d="M479.66,626.23H414.24a10.9,10.9,0,0,1-10.9-10.9V397.28H327v229h0a76.32,76.32,0,0,0,76.32,76.32h229V626.23H479.66Z"/>
        <path class="be4c0ce6-4640-497e-af10-fbc805d40942" d="M632.29,321H403.34v76.32H621.39a10.9,10.9,0,0,1,10.9,10.9V473.6H479.66v76.31H632.29v76.32h76.32v-229h0A76.32,76.32,0,0,0,632.29,321Z"/>
      </g>
      <path class="b2544015-71e7-4094-9f66-0e66419ab43a" d="M556,473.6h76.32V408.18a10.9,10.9,0,0,0-10.9-10.9h-218V615.33a10.9,10.9,0,0,0,10.9,10.9h218V549.91H479.66V473.6Z"/>
    </g>
  </g>
</svg>
